<?xml version="1.0" encoding="UTF-8" standalone="no"?>
<!DOCTYPE svg PUBLIC "-//W3C//DTD SVG 1.1//EN"
 "http://www.w3.org/Graphics/SVG/1.1/DTD/svg11.dtd">
<!-- Generated by graphviz version 2.38.0 (20140413.2041)
 -->
<!-- Title: Workflow Pages: 1 -->
<svg width="904pt" height="849pt"
 viewBox="0.00 0.00 904.00 849.40" xmlns="http://www.w3.org/2000/svg" xmlns:xlink="http://www.w3.org/1999/xlink">
<g id="graph0" class="graph" transform="scale(1 1) rotate(0) translate(4 845.4)">
<title>Workflow</title>
<polygon fill="white" stroke="none" points="-4,4 -4,-845.4 900,-845.4 900,4 -4,4"/>
<text text-anchor="middle" x="448" y="-821.2" font-family="Courier,monospace" font-size="18.00">Write_year_by_year_status_and_trend_estimates</text>
<g id="clust1" class="cluster"><title>cluster_workflow_box_outer</title>
<polygon fill="none" stroke="black" stroke-width="2" points="8,-62 8,-749.8 888,-749.8 888,-62 8,-62"/>
</g>
<g id="clust2" class="cluster"><title>cluster_workflow_box_inner</title>
<polygon fill="none" stroke="white" stroke-width="2" points="16,-70 16,-741.8 880,-741.8 880,-70 16,-70"/>
</g>
<g id="clust3" class="cluster"><title>cluster_input_ports_group_outer</title>
<polygon fill="none" stroke="white" points="504,-757.8 504,-803.8 582,-803.8 582,-757.8 504,-757.8"/>
</g>
<g id="clust4" class="cluster"><title>cluster_input_ports_group_inner</title>
<polygon fill="none" stroke="white" points="512,-765.8 512,-795.8 574,-795.8 574,-765.8 512,-765.8"/>
</g>
<g id="clust5" class="cluster"><title>cluster_output_ports_group_outer</title>
<polygon fill="none" stroke="white" points="501,-8 501,-54 611,-54 611,-8 501,-8"/>
</g>
<g id="clust6" class="cluster"><title>cluster_output_ports_group_inner</title>
<polygon fill="none" stroke="white" points="509,-16 509,-46 603,-46 603,-16 509,-16"/>
</g>
<!-- set_up_configuration_and_start_provenance_tracking -->
<g id="node1" class="node"><title>set_up_configuration_and_start_provenance_tracking</title>
<polygon fill="#ccffcc" stroke="black" points="508.93,-661.8 73.07,-661.8 73.07,-625.8 508.93,-625.8 508.93,-661.8"/>
<text text-anchor="middle" x="291" y="-639.6" font-family="Courier,monospace" font-size="14.00">set_up_configuration_and_start_provenance_tracking</text>
</g>
<!-- dir_goal -->
<g id="node16" class="node"><title>dir_goal</title>
<path fill="#fcfcfc" stroke="black" d="M257.787,-589.8C257.787,-589.8 216.213,-589.8 216.213,-589.8 210.213,-589.8 204.213,-583.8 204.213,-577.8 204.213,-577.8 204.213,-565.8 204.213,-565.8 204.213,-559.8 210.213,-553.8 216.213,-553.8 216.213,-553.8 257.787,-553.8 257.787,-553.8 263.787,-553.8 269.787,-559.8 269.787,-565.8 269.787,-565.8 269.787,-577.8 269.787,-577.8 269.787,-583.8 263.787,-589.8 257.787,-589.8"/>
<text text-anchor="middle" x="237" y="-567.6" font-family="Helvetica,sans-Serif" font-size="14.00">dir_goal</text>
</g>
<!-- set_up_configuration_and_start_provenance_tracking&#45;&gt;dir_goal -->
<g id="edge1" class="edge"><title>set_up_configuration_and_start_provenance_tracking&#45;&gt;dir_goal</title>
<path fill="none" stroke="black" d="M277.652,-625.497C271.243,-617.189 263.442,-607.077 256.394,-597.941"/>
<polygon fill="black" stroke="black" points="259.074,-595.684 250.195,-589.904 253.532,-599.96 259.074,-595.684"/>
</g>
<!-- create_new_stats_and_trend_file -->
<g id="node2" class="node"><title>create_new_stats_and_trend_file</title>
<polygon fill="#ccffcc" stroke="black" points="320.357,-517.8 43.6432,-517.8 43.6432,-481.8 320.357,-481.8 320.357,-517.8"/>
<text text-anchor="middle" x="182" y="-495.6" font-family="Courier,monospace" font-size="14.00">create_new_stats_and_trend_file</text>
</g>
<!-- status_file_handle -->
<g id="node12" class="node"><title>status_file_handle</title>
<path fill="#ffffcc" stroke="black" d="M259.318,-438.5C259.318,-438.5 154.682,-438.5 154.682,-438.5 148.682,-438.5 142.682,-432.5 142.682,-426.5 142.682,-426.5 142.682,-414.5 142.682,-414.5 142.682,-408.5 148.682,-402.5 154.682,-402.5 154.682,-402.5 259.318,-402.5 259.318,-402.5 265.318,-402.5 271.318,-408.5 271.318,-414.5 271.318,-414.5 271.318,-426.5 271.318,-426.5 271.318,-432.5 265.318,-438.5 259.318,-438.5"/>
<text text-anchor="middle" x="207" y="-416.3" font-family="Helvetica,sans-Serif" font-size="14.00">status_file_handle</text>
</g>
<!-- create_new_stats_and_trend_file&#45;&gt;status_file_handle -->
<g id="edge3" class="edge"><title>create_new_stats_and_trend_file&#45;&gt;status_file_handle</title>
<path fill="none" stroke="black" d="M187.548,-481.645C190.72,-471.837 194.768,-459.322 198.349,-448.25"/>
<polygon fill="black" stroke="black" points="201.72,-449.199 201.467,-438.607 195.06,-447.045 201.72,-449.199"/>
</g>
<!-- trend_file_handle -->
<g id="node13" class="node"><title>trend_file_handle</title>
<path fill="#ffffcc" stroke="black" d="M525.871,-438.5C525.871,-438.5 426.129,-438.5 426.129,-438.5 420.129,-438.5 414.129,-432.5 414.129,-426.5 414.129,-426.5 414.129,-414.5 414.129,-414.5 414.129,-408.5 420.129,-402.5 426.129,-402.5 426.129,-402.5 525.871,-402.5 525.871,-402.5 531.871,-402.5 537.871,-408.5 537.871,-414.5 537.871,-414.5 537.871,-426.5 537.871,-426.5 537.871,-432.5 531.871,-438.5 525.871,-438.5"/>
<text text-anchor="middle" x="476" y="-416.3" font-family="Helvetica,sans-Serif" font-size="14.00">trend_file_handle</text>
</g>
<!-- create_new_stats_and_trend_file&#45;&gt;trend_file_handle -->
<g id="edge4" class="edge"><title>create_new_stats_and_trend_file&#45;&gt;trend_file_handle</title>
<path fill="none" stroke="black" d="M262.867,-481.754C305.686,-472.204 358.996,-459.481 406,-445.8 410.356,-444.532 414.84,-443.153 419.334,-441.716"/>
<polygon fill="black" stroke="black" points="420.731,-444.941 429.144,-438.501 418.552,-438.289 420.731,-444.941"/>
</g>
<!-- define_param_year_span -->
<g id="node3" class="node"><title>define_param_year_span</title>
<polygon fill="#ccffcc" stroke="black" points="539.269,-517.8 338.731,-517.8 338.731,-481.8 539.269,-481.8 539.269,-517.8"/>
<text text-anchor="middle" x="439" y="-495.6" font-family="Courier,monospace" font-size="14.00">define_param_year_span</text>
</g>
<!-- year_span -->
<g id="node17" class="node"><title>year_span</title>
<path fill="#fcfcfc" stroke="black" d="M384.857,-438.5C384.857,-438.5 327.143,-438.5 327.143,-438.5 321.143,-438.5 315.143,-432.5 315.143,-426.5 315.143,-426.5 315.143,-414.5 315.143,-414.5 315.143,-408.5 321.143,-402.5 327.143,-402.5 327.143,-402.5 384.857,-402.5 384.857,-402.5 390.857,-402.5 396.857,-408.5 396.857,-414.5 396.857,-414.5 396.857,-426.5 396.857,-426.5 396.857,-432.5 390.857,-438.5 384.857,-438.5"/>
<text text-anchor="middle" x="356" y="-416.3" font-family="Helvetica,sans-Serif" font-size="14.00">year_span</text>
</g>
<!-- define_param_year_span&#45;&gt;year_span -->
<g id="edge6" class="edge"><title>define_param_year_span&#45;&gt;year_span</title>
<path fill="none" stroke="black" d="M420.58,-481.645C409.189,-471.036 394.397,-457.261 381.845,-445.57"/>
<polygon fill="black" stroke="black" points="384.072,-442.862 374.369,-438.607 379.301,-447.984 384.072,-442.862"/>
</g>
<!-- output_estimate_status_file_by_region_since_1980 -->
<g id="node4" class="node"><title>output_estimate_status_file_by_region_since_1980</title>
<polygon fill="#ccffcc" stroke="black" points="443.633,-359.2 24.3672,-359.2 24.3672,-323.2 443.633,-323.2 443.633,-359.2"/>
<text text-anchor="middle" x="234" y="-337" font-family="Courier,monospace" font-size="14.00">output_estimate_status_file_by_region_since_1980</text>
</g>
<!-- lsp_status_file -->
<g id="node7" class="node"><title>lsp_status_file</title>
<path fill="#ffffcc" stroke="black" d="M242.243,-237.1C242.243,-237.1 449.757,-237.1 449.757,-237.1 455.757,-237.1 461.757,-243.1 461.757,-249.1 461.757,-249.1 461.757,-274.7 461.757,-274.7 461.757,-280.7 455.757,-286.7 449.757,-286.7 449.757,-286.7 242.243,-286.7 242.243,-286.7 236.243,-286.7 230.243,-280.7 230.243,-274.7 230.243,-274.7 230.243,-249.1 230.243,-249.1 230.243,-243.1 236.243,-237.1 242.243,-237.1"/>
<text text-anchor="middle" x="346" y="-270.1" font-family="Helvetica,sans-Serif" font-size="14.00">lsp_status_file</text>
<polyline fill="none" stroke="black" points="230.243,-261.9 461.757,-261.9 "/>
<text text-anchor="middle" x="346" y="-245.3" font-family="Helvetica,sans-Serif" font-size="14.00">file:{dir_goal}/output/lsp_status.csv</text>
</g>
<!-- output_estimate_status_file_by_region_since_1980&#45;&gt;lsp_status_file -->
<g id="edge7" class="edge"><title>output_estimate_status_file_by_region_since_1980&#45;&gt;lsp_status_file</title>
<path fill="none" stroke="black" d="M258.856,-323.045C271.786,-314.121 287.963,-302.956 302.857,-292.676"/>
<polygon fill="black" stroke="black" points="305.202,-295.311 311.444,-286.75 301.226,-289.549 305.202,-295.311"/>
</g>
<!-- status_df_data -->
<g id="node14" class="node"><title>status_df_data</title>
<path fill="#ffffcc" stroke="black" d="M199.823,-279.9C199.823,-279.9 116.177,-279.9 116.177,-279.9 110.177,-279.9 104.177,-273.9 104.177,-267.9 104.177,-267.9 104.177,-255.9 104.177,-255.9 104.177,-249.9 110.177,-243.9 116.177,-243.9 116.177,-243.9 199.823,-243.9 199.823,-243.9 205.823,-243.9 211.823,-249.9 211.823,-255.9 211.823,-255.9 211.823,-267.9 211.823,-267.9 211.823,-273.9 205.823,-279.9 199.823,-279.9"/>
<text text-anchor="middle" x="158" y="-257.7" font-family="Helvetica,sans-Serif" font-size="14.00">status_df_data</text>
</g>
<!-- output_estimate_status_file_by_region_since_1980&#45;&gt;status_df_data -->
<g id="edge8" class="edge"><title>output_estimate_status_file_by_region_since_1980&#45;&gt;status_df_data</title>
<path fill="none" stroke="black" d="M217.133,-323.045C206.802,-312.536 193.414,-298.92 181.991,-287.301"/>
<polygon fill="black" stroke="black" points="184.326,-284.684 174.82,-280.007 179.335,-289.592 184.326,-284.684"/>
</g>
<!-- output_estimate_trend_file_by_region_since_1980 -->
<g id="node5" class="node"><title>output_estimate_trend_file_by_region_since_1980</title>
<polygon fill="#ccffcc" stroke="black" points="872.234,-359.2 461.766,-359.2 461.766,-323.2 872.234,-323.2 872.234,-359.2"/>
<text text-anchor="middle" x="667" y="-337" font-family="Courier,monospace" font-size="14.00">output_estimate_trend_file_by_region_since_1980</text>
</g>
<!-- lsp_trend_file -->
<g id="node8" class="node"><title>lsp_trend_file</title>
<path fill="#ffffcc" stroke="black" d="M611.966,-237.1C611.966,-237.1 814.034,-237.1 814.034,-237.1 820.034,-237.1 826.034,-243.1 826.034,-249.1 826.034,-249.1 826.034,-274.7 826.034,-274.7 826.034,-280.7 820.034,-286.7 814.034,-286.7 814.034,-286.7 611.966,-286.7 611.966,-286.7 605.966,-286.7 599.966,-280.7 599.966,-274.7 599.966,-274.7 599.966,-249.1 599.966,-249.1 599.966,-243.1 605.966,-237.1 611.966,-237.1"/>
<text text-anchor="middle" x="713" y="-270.1" font-family="Helvetica,sans-Serif" font-size="14.00">lsp_trend_file</text>
<polyline fill="none" stroke="black" points="599.966,-261.9 826.034,-261.9 "/>
<text text-anchor="middle" x="713" y="-245.3" font-family="Helvetica,sans-Serif" font-size="14.00">file:{dir_goal}/output/lsp_trend.csv</text>
</g>
<!-- output_estimate_trend_file_by_region_since_1980&#45;&gt;lsp_trend_file -->
<g id="edge13" class="edge"><title>output_estimate_trend_file_by_region_since_1980&#45;&gt;lsp_trend_file</title>
<path fill="none" stroke="black" d="M677.209,-323.045C682.023,-314.955 687.933,-305.023 693.553,-295.579"/>
<polygon fill="black" stroke="black" points="696.701,-297.133 698.807,-286.75 690.686,-293.553 696.701,-297.133"/>
</g>
<!-- trend_df_data -->
<g id="node15" class="node"><title>trend_df_data</title>
<path fill="#ffffcc" stroke="black" d="M570.376,-279.9C570.376,-279.9 491.624,-279.9 491.624,-279.9 485.624,-279.9 479.624,-273.9 479.624,-267.9 479.624,-267.9 479.624,-255.9 479.624,-255.9 479.624,-249.9 485.624,-243.9 491.624,-243.9 491.624,-243.9 570.376,-243.9 570.376,-243.9 576.376,-243.9 582.376,-249.9 582.376,-255.9 582.376,-255.9 582.376,-267.9 582.376,-267.9 582.376,-273.9 576.376,-279.9 570.376,-279.9"/>
<text text-anchor="middle" x="531" y="-257.7" font-family="Helvetica,sans-Serif" font-size="14.00">trend_df_data</text>
</g>
<!-- output_estimate_trend_file_by_region_since_1980&#45;&gt;trend_df_data -->
<g id="edge14" class="edge"><title>output_estimate_trend_file_by_region_since_1980&#45;&gt;trend_df_data</title>
<path fill="none" stroke="black" d="M636.817,-323.045C617.097,-311.836 591.155,-297.091 569.892,-285.006"/>
<polygon fill="black" stroke="black" points="571.522,-281.906 561.098,-280.007 568.063,-287.992 571.522,-281.906"/>
</g>
<!-- save_year_by_year_status_and_trend_estimates -->
<g id="node6" class="node"><title>save_year_by_year_status_and_trend_estimates</title>
<polygon fill="#ccffcc" stroke="black" points="527.539,-200.6 142.461,-200.6 142.461,-164.6 527.539,-164.6 527.539,-200.6"/>
<text text-anchor="middle" x="335" y="-178.4" font-family="Courier,monospace" font-size="14.00">save_year_by_year_status_and_trend_estimates</text>
</g>
<!-- lsp_status_trend_summary_db_file -->
<g id="node9" class="node"><title>lsp_status_trend_summary_db_file</title>
<path fill="#ffffcc" stroke="black" d="M268.477,-78.5C268.477,-78.5 477.523,-78.5 477.523,-78.5 483.523,-78.5 489.523,-84.5 489.523,-90.5 489.523,-90.5 489.523,-116.1 489.523,-116.1 489.523,-122.1 483.523,-128.1 477.523,-128.1 477.523,-128.1 268.477,-128.1 268.477,-128.1 262.477,-128.1 256.477,-122.1 256.477,-116.1 256.477,-116.1 256.477,-90.5 256.477,-90.5 256.477,-84.5 262.477,-78.5 268.477,-78.5"/>
<text text-anchor="middle" x="373" y="-111.5" font-family="Helvetica,sans-Serif" font-size="14.00">lsp_status_trend_summary_db_file</text>
<polyline fill="none" stroke="black" points="256.477,-103.3 489.523,-103.3 "/>
<text text-anchor="middle" x="373" y="-86.7" font-family="Helvetica,sans-Serif" font-size="14.00">dbfile://</text>
</g>
<!-- save_year_by_year_status_and_trend_estimates&#45;&gt;lsp_status_trend_summary_db_file -->
<g id="edge19" class="edge"><title>save_year_by_year_status_and_trend_estimates&#45;&gt;lsp_status_trend_summary_db_file</title>
<path fill="none" stroke="black" d="M343.433,-164.445C347.369,-156.438 352.192,-146.628 356.792,-137.271"/>
<polygon fill="black" stroke="black" points="360.005,-138.668 361.276,-128.15 353.723,-135.58 360.005,-138.668"/>
</g>
<!-- lsp_status_file_output_port -->
<g id="node20" class="node"><title>lsp_status_file_output_port</title>
<ellipse fill="#ffffff" stroke="black" cx="556" cy="-31" rx="7" ry="7"/>
</g>
<!-- lsp_status_file&#45;&gt;lsp_status_file_output_port -->
<g id="edge24" class="edge"><title>lsp_status_file&#45;&gt;lsp_status_file_output_port</title>
<path fill="none" stroke="black" d="M456.151,-237.064C491.994,-227.071 525.537,-214.528 537,-200.6 573.676,-156.036 565.34,-80.9216 559.41,-48.1282"/>
<polygon fill="black" stroke="black" points="562.799,-47.2249 557.422,-38.0962 555.932,-48.5858 562.799,-47.2249"/>
</g>
<!-- lsp_trend_file_output_port -->
<g id="node21" class="node"><title>lsp_trend_file_output_port</title>
<ellipse fill="#ffffff" stroke="black" cx="588" cy="-31" rx="7" ry="7"/>
</g>
<!-- lsp_trend_file&#45;&gt;lsp_trend_file_output_port -->
<g id="edge25" class="edge"><title>lsp_trend_file&#45;&gt;lsp_trend_file_output_port</title>
<path fill="none" stroke="black" d="M699.859,-236.836C673.962,-189.413 617.021,-85.1442 596.002,-46.6526"/>
<polygon fill="black" stroke="black" points="598.946,-44.7413 591.081,-37.6422 592.802,-48.0963 598.946,-44.7413"/>
</g>
<!-- lsp_status_trend_summary_db_file_output_port -->
<g id="node22" class="node"><title>lsp_status_trend_summary_db_file_output_port</title>
<ellipse fill="#ffffff" stroke="black" cx="524" cy="-31" rx="7" ry="7"/>
</g>
<!-- lsp_status_trend_summary_db_file&#45;&gt;lsp_status_trend_summary_db_file_output_port -->
<g id="edge26" class="edge"><title>lsp_status_trend_summary_db_file&#45;&gt;lsp_status_trend_summary_db_file_output_port</title>
<path fill="none" stroke="black" d="M424.122,-78.4996C453.575,-64.7871 488.574,-48.493 508.346,-39.2878"/>
<polygon fill="black" stroke="black" points="510.044,-42.3583 517.632,-34.9646 507.089,-36.0123 510.044,-42.3583"/>
</g>
<!-- setup_R -->
<g id="node10" class="node"><title>setup_R</title>
<path fill="#ffffcc" stroke="black" d="M454.128,-733.8C454.128,-733.8 409.872,-733.8 409.872,-733.8 403.872,-733.8 397.872,-727.8 397.872,-721.8 397.872,-721.8 397.872,-709.8 397.872,-709.8 397.872,-703.8 403.872,-697.8 409.872,-697.8 409.872,-697.8 454.128,-697.8 454.128,-697.8 460.128,-697.8 466.128,-703.8 466.128,-709.8 466.128,-709.8 466.128,-721.8 466.128,-721.8 466.128,-727.8 460.128,-733.8 454.128,-733.8"/>
<text text-anchor="middle" x="432" y="-711.6" font-family="Helvetica,sans-Serif" font-size="14.00">setup_R</text>
</g>
<!-- setup_R&#45;&gt;set_up_configuration_and_start_provenance_tracking -->
<g id="edge2" class="edge"><title>setup_R&#45;&gt;set_up_configuration_and_start_provenance_tracking</title>
<path fill="none" stroke="black" d="M397.868,-697.855C378.785,-688.381 354.806,-676.477 334.4,-666.346"/>
<polygon fill="black" stroke="black" points="335.82,-663.143 325.307,-661.832 332.707,-669.413 335.82,-663.143"/>
</g>
<!-- area_protected_total_file -->
<g id="node11" class="node"><title>area_protected_total_file</title>
<path fill="#ffffcc" stroke="black" d="M587.561,-395.7C587.561,-395.7 860.439,-395.7 860.439,-395.7 866.439,-395.7 872.439,-401.7 872.439,-407.7 872.439,-407.7 872.439,-433.3 872.439,-433.3 872.439,-439.3 866.439,-445.3 860.439,-445.3 860.439,-445.3 587.561,-445.3 587.561,-445.3 581.561,-445.3 575.561,-439.3 575.561,-433.3 575.561,-433.3 575.561,-407.7 575.561,-407.7 575.561,-401.7 581.561,-395.7 587.561,-395.7"/>
<text text-anchor="middle" x="724" y="-428.7" font-family="Helvetica,sans-Serif" font-size="14.00">area_protected_total_file</text>
<polyline fill="none" stroke="black" points="575.561,-420.5 872.439,-420.5 "/>
<text text-anchor="middle" x="724" y="-403.9" font-family="Helvetica,sans-Serif" font-size="14.00">file:{dir_goal}/output/area_protected_total.csv</text>
</g>
<!-- area_protected_total_file&#45;&gt;output_estimate_status_file_by_region_since_1980 -->
<g id="edge11" class="edge"><title>area_protected_total_file&#45;&gt;output_estimate_status_file_by_region_since_1980</title>
<path fill="none" stroke="black" d="M575.321,-396.045C503.8,-384.762 419.253,-371.425 352.199,-360.847"/>
<polygon fill="black" stroke="black" points="352.439,-357.341 342.015,-359.24 351.348,-364.256 352.439,-357.341"/>
</g>
<!-- area_protected_total_file&#45;&gt;output_estimate_trend_file_by_region_since_1980 -->
<g id="edge17" class="edge"><title>area_protected_total_file&#45;&gt;output_estimate_trend_file_by_region_since_1980</title>
<path fill="none" stroke="black" d="M706.277,-395.466C699.739,-386.599 692.314,-376.529 685.692,-367.549"/>
<polygon fill="black" stroke="black" points="688.398,-365.321 679.646,-359.349 682.764,-369.475 688.398,-365.321"/>
</g>
<!-- status_file_handle&#45;&gt;output_estimate_status_file_by_region_since_1980 -->
<g id="edge12" class="edge"><title>status_file_handle&#45;&gt;output_estimate_status_file_by_region_since_1980</title>
<path fill="none" stroke="black" d="M212.992,-402.345C216.418,-392.537 220.789,-380.022 224.656,-368.95"/>
<polygon fill="black" stroke="black" points="228.031,-369.902 228.025,-359.307 221.423,-367.594 228.031,-369.902"/>
</g>
<!-- trend_file_handle&#45;&gt;output_estimate_trend_file_by_region_since_1980 -->
<g id="edge18" class="edge"><title>trend_file_handle&#45;&gt;output_estimate_trend_file_by_region_since_1980</title>
<path fill="none" stroke="black" d="M518.389,-402.345C546.95,-390.786 584.804,-375.466 615.159,-363.181"/>
<polygon fill="black" stroke="black" points="616.773,-366.303 624.729,-359.307 614.147,-359.815 616.773,-366.303"/>
</g>
<!-- status_df_data&#45;&gt;save_year_by_year_status_and_trend_estimates -->
<g id="edge20" class="edge"><title>status_df_data&#45;&gt;save_year_by_year_status_and_trend_estimates</title>
<path fill="none" stroke="black" d="M197.282,-243.745C223.635,-232.236 258.525,-216.998 286.593,-204.741"/>
<polygon fill="black" stroke="black" points="288.064,-207.917 295.828,-200.707 285.263,-201.502 288.064,-207.917"/>
</g>
<!-- trend_df_data&#45;&gt;save_year_by_year_status_and_trend_estimates -->
<g id="edge21" class="edge"><title>trend_df_data&#45;&gt;save_year_by_year_status_and_trend_estimates</title>
<path fill="none" stroke="black" d="M489.067,-243.835C483.01,-241.394 476.849,-238.924 471,-236.6 443.853,-225.814 413.579,-213.995 388.498,-204.261"/>
<polygon fill="black" stroke="black" points="389.746,-200.991 379.157,-200.639 387.215,-207.517 389.746,-200.991"/>
</g>
<!-- dir_goal&#45;&gt;create_new_stats_and_trend_file -->
<g id="edge5" class="edge"><title>dir_goal&#45;&gt;create_new_stats_and_trend_file</title>
<path fill="none" stroke="black" d="M223.404,-553.497C216.877,-545.189 208.932,-535.077 201.753,-525.941"/>
<polygon fill="black" stroke="black" points="204.369,-523.605 195.439,-517.904 198.865,-527.93 204.369,-523.605"/>
</g>
<!-- dir_goal&#45;&gt;output_estimate_status_file_by_region_since_1980 -->
<g id="edge10" class="edge"><title>dir_goal&#45;&gt;output_estimate_status_file_by_region_since_1980</title>
<path fill="none" stroke="black" d="M204.152,-567.013C152.375,-560.293 55.5407,-544.425 35,-517.8 -15.1341,-452.815 100.851,-393.246 176.05,-363.019"/>
<polygon fill="black" stroke="black" points="177.443,-366.232 185.458,-359.304 174.872,-359.721 177.443,-366.232"/>
</g>
<!-- dir_goal&#45;&gt;output_estimate_trend_file_by_region_since_1980 -->
<g id="edge15" class="edge"><title>dir_goal&#45;&gt;output_estimate_trend_file_by_region_since_1980</title>
<path fill="none" stroke="black" d="M269.886,-569.892C341.785,-567.194 509.611,-556.771 548,-517.8 586.695,-478.518 535.025,-440.122 567,-395.2 576.483,-381.877 590.369,-371.615 604.794,-363.832"/>
<polygon fill="black" stroke="black" points="606.446,-366.919 613.81,-359.301 603.303,-360.664 606.446,-366.919"/>
</g>
<!-- year_span&#45;&gt;output_estimate_status_file_by_region_since_1980 -->
<g id="edge9" class="edge"><title>year_span&#45;&gt;output_estimate_status_file_by_region_since_1980</title>
<path fill="none" stroke="black" d="M328.924,-402.345C311.471,-391.286 288.585,-376.785 269.657,-364.793"/>
<polygon fill="black" stroke="black" points="271.321,-361.703 261,-359.307 267.574,-367.616 271.321,-361.703"/>
</g>
<!-- year_span&#45;&gt;output_estimate_trend_file_by_region_since_1980 -->
<g id="edge16" class="edge"><title>year_span&#45;&gt;output_estimate_trend_file_by_region_since_1980</title>
<path fill="none" stroke="black" d="M387.376,-402.444C393.128,-399.751 399.161,-397.2 405,-395.2 447.869,-380.517 496.152,-369.324 539.483,-361.095"/>
<polygon fill="black" stroke="black" points="540.324,-364.499 549.513,-359.226 539.041,-357.617 540.324,-364.499"/>
</g>
<!-- setup_R_input_port -->
<g id="node18" class="node"><title>setup_R_input_port</title>
<ellipse fill="#ffffff" stroke="black" cx="527" cy="-780.8" rx="7" ry="7"/>
</g>
<!-- setup_R_input_port&#45;&gt;setup_R -->
<g id="edge22" class="edge"><title>setup_R_input_port&#45;&gt;setup_R</title>
<path fill="none" stroke="black" d="M521.62,-776.232C511.111,-769.263 487.084,-753.329 466.552,-739.713"/>
<polygon fill="black" stroke="black" points="468.284,-736.663 458.016,-734.053 464.416,-742.496 468.284,-736.663"/>
</g>
<!-- area_protected_total_file_input_port -->
<g id="node19" class="node"><title>area_protected_total_file_input_port</title>
<ellipse fill="#ffffff" stroke="black" cx="559" cy="-780.8" rx="7" ry="7"/>
</g>
<!-- area_protected_total_file_input_port&#45;&gt;area_protected_total_file -->
<g id="edge23" class="edge"><title>area_protected_total_file_input_port&#45;&gt;area_protected_total_file</title>
<path fill="none" stroke="black" d="M564.436,-776.102C584.745,-761.803 655,-707.783 655,-644.8 655,-644.8 655,-644.8 655,-570.8 655,-527.455 679.26,-483.02 699.01,-454.028"/>
<polygon fill="black" stroke="black" points="702.084,-455.74 704.963,-445.544 696.354,-451.72 702.084,-455.74"/>
</g>
</g>
</svg>
