<?xml version="1.0" encoding="UTF-8" standalone="no"?>
<!DOCTYPE svg PUBLIC "-//W3C//DTD SVG 1.1//EN"
 "http://www.w3.org/Graphics/SVG/1.1/DTD/svg11.dtd">
<!-- Generated by graphviz version 2.38.0 (20140413.2041)
 -->
<!-- Title: yw_data_view Pages: 1 -->
<svg width="904pt" height="518pt"
 viewBox="0.00 0.00 904.00 517.60" xmlns="http://www.w3.org/2000/svg" xmlns:xlink="http://www.w3.org/1999/xlink">
<g id="graph0" class="graph" transform="scale(1 1) rotate(0) translate(4 513.6)">
<title>yw_data_view</title>
<polygon fill="white" stroke="none" points="-4,4 -4,-513.6 900,-513.6 900,4 -4,4"/>
<text text-anchor="middle" x="448" y="-489.4" font-family="Courier,monospace" font-size="18.00">Write_year_by_year_status_and_trend_estimates</text>
<g id="clust1" class="cluster"><title>cluster_workflow</title>
<polygon fill="none" stroke="black" stroke-width="2" points="8,-62 8,-418 888,-418 888,-62 8,-62"/>
</g>
<g id="clust2" class="cluster"><title>cluster_workflow_inner</title>
<polygon fill="none" stroke="white" stroke-width="2" points="16,-70 16,-410 880,-410 880,-70 16,-70"/>
</g>
<g id="clust3" class="cluster"><title>cluster_inflows</title>
<polygon fill="none" stroke="white" stroke-width="2" points="427,-426 427,-472 473,-472 473,-426 427,-426"/>
</g>
<g id="clust4" class="cluster"><title>cluster_inflows_inner</title>
<polygon fill="none" stroke="white" stroke-width="2" points="435,-434 435,-464 465,-464 465,-434 435,-434"/>
</g>
<g id="clust5" class="cluster"><title>cluster_outflows</title>
<polygon fill="none" stroke="white" stroke-width="2" points="486,-8 486,-54 596,-54 596,-8 486,-8"/>
</g>
<g id="clust6" class="cluster"><title>cluster_outflows_inner</title>
<polygon fill="none" stroke="white" stroke-width="2" points="494,-16 494,-46 588,-46 588,-16 494,-16"/>
</g>
<!-- save_year_by_year_status_and_trend_estimates -->
<g id="node1" class="node"><title>save_year_by_year_status_and_trend_estimates</title>
<polygon fill="#ccffcc" stroke="black" points="512.539,-186 127.461,-186 127.461,-150 512.539,-150 512.539,-186"/>
<text text-anchor="middle" x="320" y="-163.8" font-family="Courier,monospace" font-size="14.00">save_year_by_year_status_and_trend_estimates</text>
</g>
<!-- lsp_status_trend_summary_db_file -->
<g id="node9" class="node"><title>lsp_status_trend_summary_db_file</title>
<path fill="#ffffcc" stroke="black" d="M462.546,-114C462.546,-114 253.454,-114 253.454,-114 247.454,-114 241.454,-108 241.454,-102 241.454,-102 241.454,-90 241.454,-90 241.454,-84 247.454,-78 253.454,-78 253.454,-78 462.546,-78 462.546,-78 468.546,-78 474.546,-84 474.546,-90 474.546,-90 474.546,-102 474.546,-102 474.546,-108 468.546,-114 462.546,-114"/>
<text text-anchor="middle" x="358" y="-91.8" font-family="Helvetica,sans-Serif" font-size="14.00">lsp_status_trend_summary_db_file</text>
</g>
<!-- save_year_by_year_status_and_trend_estimates&#45;&gt;lsp_status_trend_summary_db_file -->
<g id="edge1" class="edge"><title>save_year_by_year_status_and_trend_estimates&#45;&gt;lsp_status_trend_summary_db_file</title>
<path fill="none" stroke="black" d="M329.393,-149.697C333.765,-141.644 339.057,-131.894 343.895,-122.982"/>
<polygon fill="black" stroke="black" points="347.02,-124.563 348.715,-114.104 340.868,-121.223 347.02,-124.563"/>
</g>
<!-- output_estimate_status_file_by_region_since_1980 -->
<g id="node2" class="node"><title>output_estimate_status_file_by_region_since_1980</title>
<polygon fill="#ccffcc" stroke="black" points="443.633,-330 24.3672,-330 24.3672,-294 443.633,-294 443.633,-330"/>
<text text-anchor="middle" x="234" y="-307.8" font-family="Courier,monospace" font-size="14.00">output_estimate_status_file_by_region_since_1980</text>
</g>
<!-- lsp_status_file -->
<g id="node5" class="node"><title>lsp_status_file</title>
<path fill="#ffffcc" stroke="black" d="M436.188,-258C436.188,-258 355.812,-258 355.812,-258 349.812,-258 343.812,-252 343.812,-246 343.812,-246 343.812,-234 343.812,-234 343.812,-228 349.812,-222 355.812,-222 355.812,-222 436.188,-222 436.188,-222 442.188,-222 448.188,-228 448.188,-234 448.188,-234 448.188,-246 448.188,-246 448.188,-252 442.188,-258 436.188,-258"/>
<text text-anchor="middle" x="396" y="-235.8" font-family="Helvetica,sans-Serif" font-size="14.00">lsp_status_file</text>
</g>
<!-- output_estimate_status_file_by_region_since_1980&#45;&gt;lsp_status_file -->
<g id="edge5" class="edge"><title>output_estimate_status_file_by_region_since_1980&#45;&gt;lsp_status_file</title>
<path fill="none" stroke="black" d="M273.63,-293.876C295.776,-284.307 323.563,-272.3 347.058,-262.148"/>
<polygon fill="black" stroke="black" points="348.708,-265.248 356.499,-258.068 345.931,-258.822 348.708,-265.248"/>
</g>
<!-- status_df_data -->
<g id="node6" class="node"><title>status_df_data</title>
<path fill="#ffffcc" stroke="black" d="M279.823,-258C279.823,-258 196.177,-258 196.177,-258 190.177,-258 184.177,-252 184.177,-246 184.177,-246 184.177,-234 184.177,-234 184.177,-228 190.177,-222 196.177,-222 196.177,-222 279.823,-222 279.823,-222 285.823,-222 291.823,-228 291.823,-234 291.823,-234 291.823,-246 291.823,-246 291.823,-252 285.823,-258 279.823,-258"/>
<text text-anchor="middle" x="238" y="-235.8" font-family="Helvetica,sans-Serif" font-size="14.00">status_df_data</text>
</g>
<!-- output_estimate_status_file_by_region_since_1980&#45;&gt;status_df_data -->
<g id="edge4" class="edge"><title>output_estimate_status_file_by_region_since_1980&#45;&gt;status_df_data</title>
<path fill="none" stroke="black" d="M234.989,-293.697C235.43,-285.983 235.959,-276.712 236.451,-268.112"/>
<polygon fill="black" stroke="black" points="239.946,-268.288 237.023,-258.104 232.958,-267.888 239.946,-268.288"/>
</g>
<!-- output_estimate_trend_file_by_region_since_1980 -->
<g id="node3" class="node"><title>output_estimate_trend_file_by_region_since_1980</title>
<polygon fill="#ccffcc" stroke="black" points="872.234,-330 461.766,-330 461.766,-294 872.234,-294 872.234,-330"/>
<text text-anchor="middle" x="667" y="-307.8" font-family="Courier,monospace" font-size="14.00">output_estimate_trend_file_by_region_since_1980</text>
</g>
<!-- lsp_trend_file -->
<g id="node7" class="node"><title>lsp_trend_file</title>
<path fill="#ffffcc" stroke="black" d="M699.74,-258C699.74,-258 624.26,-258 624.26,-258 618.26,-258 612.26,-252 612.26,-246 612.26,-246 612.26,-234 612.26,-234 612.26,-228 618.26,-222 624.26,-222 624.26,-222 699.74,-222 699.74,-222 705.74,-222 711.74,-228 711.74,-234 711.74,-234 711.74,-246 711.74,-246 711.74,-252 705.74,-258 699.74,-258"/>
<text text-anchor="middle" x="662" y="-235.8" font-family="Helvetica,sans-Serif" font-size="14.00">lsp_trend_file</text>
</g>
<!-- output_estimate_trend_file_by_region_since_1980&#45;&gt;lsp_trend_file -->
<g id="edge3" class="edge"><title>output_estimate_trend_file_by_region_since_1980&#45;&gt;lsp_trend_file</title>
<path fill="none" stroke="black" d="M665.764,-293.697C665.213,-285.983 664.551,-276.712 663.937,-268.112"/>
<polygon fill="black" stroke="black" points="667.425,-267.83 663.222,-258.104 660.443,-268.328 667.425,-267.83"/>
</g>
<!-- trend_df_data -->
<g id="node8" class="node"><title>trend_df_data</title>
<path fill="#ffffcc" stroke="black" d="M574.376,-258C574.376,-258 495.624,-258 495.624,-258 489.624,-258 483.624,-252 483.624,-246 483.624,-246 483.624,-234 483.624,-234 483.624,-228 489.624,-222 495.624,-222 495.624,-222 574.376,-222 574.376,-222 580.376,-222 586.376,-228 586.376,-234 586.376,-234 586.376,-246 586.376,-246 586.376,-252 580.376,-258 574.376,-258"/>
<text text-anchor="middle" x="535" y="-235.8" font-family="Helvetica,sans-Serif" font-size="14.00">trend_df_data</text>
</g>
<!-- output_estimate_trend_file_by_region_since_1980&#45;&gt;trend_df_data -->
<g id="edge2" class="edge"><title>output_estimate_trend_file_by_region_since_1980&#45;&gt;trend_df_data</title>
<path fill="none" stroke="black" d="M634.709,-293.876C617.131,-284.554 595.191,-272.919 576.371,-262.939"/>
<polygon fill="black" stroke="black" points="577.889,-259.783 567.415,-258.19 574.61,-265.967 577.889,-259.783"/>
</g>
<!-- area_protected_total_file -->
<g id="node4" class="node"><title>area_protected_total_file</title>
<path fill="#ffffcc" stroke="black" d="M523.05,-402C523.05,-402 376.95,-402 376.95,-402 370.95,-402 364.95,-396 364.95,-390 364.95,-390 364.95,-378 364.95,-378 364.95,-372 370.95,-366 376.95,-366 376.95,-366 523.05,-366 523.05,-366 529.05,-366 535.05,-372 535.05,-378 535.05,-378 535.05,-390 535.05,-390 535.05,-396 529.05,-402 523.05,-402"/>
<text text-anchor="middle" x="450" y="-379.8" font-family="Helvetica,sans-Serif" font-size="14.00">area_protected_total_file</text>
</g>
<!-- area_protected_total_file&#45;&gt;output_estimate_status_file_by_region_since_1980 -->
<g id="edge6" class="edge"><title>area_protected_total_file&#45;&gt;output_estimate_status_file_by_region_since_1980</title>
<path fill="none" stroke="black" d="M397.437,-365.966C366.994,-356.1 328.489,-343.622 296.501,-333.255"/>
<polygon fill="black" stroke="black" points="297.391,-329.864 286.799,-330.111 295.233,-336.523 297.391,-329.864"/>
</g>
<!-- area_protected_total_file&#45;&gt;output_estimate_trend_file_by_region_since_1980 -->
<g id="edge7" class="edge"><title>area_protected_total_file&#45;&gt;output_estimate_trend_file_by_region_since_1980</title>
<path fill="none" stroke="black" d="M502.807,-365.966C533.39,-356.1 572.073,-343.622 604.21,-333.255"/>
<polygon fill="black" stroke="black" points="605.514,-336.512 613.957,-330.111 603.365,-329.85 605.514,-336.512"/>
</g>
<!-- lsp_status_file_outflow -->
<g id="node13" class="node"><title>lsp_status_file_outflow</title>
<ellipse fill="none" stroke="black" cx="541" cy="-31" rx="7" ry="7"/>
</g>
<!-- lsp_status_file&#45;&gt;lsp_status_file_outflow -->
<g id="edge13" class="edge"><title>lsp_status_file&#45;&gt;lsp_status_file_outflow</title>
<path fill="none" stroke="black" d="M448.429,-229.797C474.613,-222.422 504.388,-209.278 522,-186 553.28,-144.655 548.267,-78.4395 543.851,-48.1138"/>
<polygon fill="black" stroke="black" points="547.278,-47.3808 542.21,-38.0765 540.37,-48.5102 547.278,-47.3808"/>
</g>
<!-- status_df_data&#45;&gt;save_year_by_year_status_and_trend_estimates -->
<g id="edge8" class="edge"><title>status_df_data&#45;&gt;save_year_by_year_status_and_trend_estimates</title>
<path fill="none" stroke="black" d="M258.27,-221.697C268.498,-212.965 281.061,-202.24 292.178,-192.75"/>
<polygon fill="black" stroke="black" points="294.63,-195.259 299.963,-186.104 290.085,-189.935 294.63,-195.259"/>
</g>
<!-- lsp_trend_file_outflow -->
<g id="node12" class="node"><title>lsp_trend_file_outflow</title>
<ellipse fill="none" stroke="black" cx="573" cy="-31" rx="7" ry="7"/>
</g>
<!-- lsp_trend_file&#45;&gt;lsp_trend_file_outflow -->
<g id="edge12" class="edge"><title>lsp_trend_file&#45;&gt;lsp_trend_file_outflow</title>
<path fill="none" stroke="black" d="M654.565,-221.707C637.454,-181.91 595.525,-84.3887 579.433,-46.9617"/>
<polygon fill="black" stroke="black" points="582.637,-45.5525 575.471,-37.7482 576.206,-48.3175 582.637,-45.5525"/>
</g>
<!-- trend_df_data&#45;&gt;save_year_by_year_status_and_trend_estimates -->
<g id="edge9" class="edge"><title>trend_df_data&#45;&gt;save_year_by_year_status_and_trend_estimates</title>
<path fill="none" stroke="black" d="M483.775,-222.322C453.272,-212.391 414.349,-199.718 382.102,-189.219"/>
<polygon fill="black" stroke="black" points="382.918,-185.804 372.326,-186.036 380.751,-192.46 382.918,-185.804"/>
</g>
<!-- lsp_status_trend_summary_db_file_outflow -->
<g id="node11" class="node"><title>lsp_status_trend_summary_db_file_outflow</title>
<ellipse fill="none" stroke="black" cx="509" cy="-31" rx="7" ry="7"/>
</g>
<!-- lsp_status_trend_summary_db_file&#45;&gt;lsp_status_trend_summary_db_file_outflow -->
<g id="edge11" class="edge"><title>lsp_status_trend_summary_db_file&#45;&gt;lsp_status_trend_summary_db_file_outflow</title>
<path fill="none" stroke="black" d="M398.863,-77.9513C429.946,-64.9829 471.029,-47.8424 493.193,-38.5948"/>
<polygon fill="black" stroke="black" points="494.787,-41.7225 502.668,-34.6418 492.091,-35.2622 494.787,-41.7225"/>
</g>
<!-- area_protected_total_file_inflow -->
<g id="node10" class="node"><title>area_protected_total_file_inflow</title>
<ellipse fill="none" stroke="black" cx="450" cy="-449" rx="7" ry="7"/>
</g>
<!-- area_protected_total_file_inflow&#45;&gt;area_protected_total_file -->
<g id="edge10" class="edge"><title>area_protected_total_file_inflow&#45;&gt;area_protected_total_file</title>
<path fill="none" stroke="black" d="M450,-441.729C450,-434.795 450,-423.154 450,-412.215"/>
<polygon fill="black" stroke="black" points="453.5,-412.119 450,-402.119 446.5,-412.119 453.5,-412.119"/>
</g>
</g>
</svg>
