<?xml version="1.0" encoding="UTF-8" standalone="no"?>
<!DOCTYPE svg PUBLIC "-//W3C//DTD SVG 1.1//EN"
 "http://www.w3.org/Graphics/SVG/1.1/DTD/svg11.dtd">
<!-- Generated by graphviz version 2.38.0 (20140413.2041)
 -->
<!-- Title: yw_data_view Pages: 1 -->
<svg width="904pt" height="816pt"
 viewBox="0.00 0.00 904.00 816.00" xmlns="http://www.w3.org/2000/svg" xmlns:xlink="http://www.w3.org/1999/xlink">
<g id="graph0" class="graph" transform="scale(1 1) rotate(0) translate(4 812)">
<title>yw_data_view</title>
<polygon fill="white" stroke="none" points="-4,4 -4,-812 900,-812 900,4 -4,4"/>
<text text-anchor="middle" x="448" y="-787.8" font-family="Courier,monospace" font-size="18.00">Write_year_by_year_status_and_trend_estimates</text>
<g id="clust1" class="cluster"><title>cluster_workflow</title>
<polygon fill="none" stroke="black" stroke-width="2" points="8,-62 8,-716.4 888,-716.4 888,-62 8,-62"/>
</g>
<g id="clust2" class="cluster"><title>cluster_workflow_inner</title>
<polygon fill="none" stroke="white" stroke-width="2" points="16,-70 16,-708.4 880,-708.4 880,-70 16,-70"/>
</g>
<g id="clust3" class="cluster"><title>cluster_inflows</title>
<polygon fill="none" stroke="white" stroke-width="2" points="542,-724.4 542,-770.4 620,-770.4 620,-724.4 542,-724.4"/>
</g>
<g id="clust4" class="cluster"><title>cluster_inflows_inner</title>
<polygon fill="none" stroke="white" stroke-width="2" points="550,-732.4 550,-762.4 612,-762.4 612,-732.4 550,-732.4"/>
</g>
<g id="clust5" class="cluster"><title>cluster_outflows</title>
<polygon fill="none" stroke="white" stroke-width="2" points="481,-8 481,-54 591,-54 591,-8 481,-8"/>
</g>
<g id="clust6" class="cluster"><title>cluster_outflows_inner</title>
<polygon fill="none" stroke="white" stroke-width="2" points="489,-16 489,-46 583,-46 583,-16 489,-16"/>
</g>
<!-- set_up_configuration_and_start_provenance_tracking -->
<g id="node1" class="node"><title>set_up_configuration_and_start_provenance_tracking</title>
<polygon fill="#ccffcc" stroke="black" points="529.93,-625.8 94.07,-625.8 94.07,-589.8 529.93,-589.8 529.93,-625.8"/>
<text text-anchor="middle" x="312" y="-603.6" font-family="Courier,monospace" font-size="14.00">set_up_configuration_and_start_provenance_tracking</text>
</g>
<!-- dir_goal -->
<g id="node9" class="node"><title>dir_goal</title>
<path fill="#ffffcc" stroke="black" d="M282,-553.8C282,-553.8 252,-553.8 252,-553.8 246,-553.8 240,-547.8 240,-541.8 240,-541.8 240,-529.8 240,-529.8 240,-523.8 246,-517.8 252,-517.8 252,-517.8 282,-517.8 282,-517.8 288,-517.8 294,-523.8 294,-529.8 294,-529.8 294,-541.8 294,-541.8 294,-547.8 288,-553.8 282,-553.8"/>
<text text-anchor="middle" x="267" y="-533.1" font-family="Helvetica,sans-Serif" font-size="9.00">dir_goal</text>
</g>
<!-- set_up_configuration_and_start_provenance_tracking&#45;&gt;dir_goal -->
<g id="edge13" class="edge"><title>set_up_configuration_and_start_provenance_tracking&#45;&gt;dir_goal</title>
<path fill="none" stroke="black" d="M300.876,-589.497C295.645,-581.359 289.3,-571.489 283.522,-562.501"/>
<polygon fill="black" stroke="black" points="286.347,-560.423 277.996,-553.904 280.459,-564.209 286.347,-560.423"/>
</g>
<!-- create_new_stats_and_trend_file -->
<g id="node2" class="node"><title>create_new_stats_and_trend_file</title>
<polygon fill="#ccffcc" stroke="black" points="361.357,-481.8 84.6432,-481.8 84.6432,-445.8 361.357,-445.8 361.357,-481.8"/>
<text text-anchor="middle" x="223" y="-459.6" font-family="Courier,monospace" font-size="14.00">create_new_stats_and_trend_file</text>
</g>
<!-- status_file_handle -->
<g id="node10" class="node"><title>status_file_handle</title>
<path fill="#ffffcc" stroke="black" d="M260.027,-408.5C260.027,-408.5 195.973,-408.5 195.973,-408.5 189.973,-408.5 183.973,-402.5 183.973,-396.5 183.973,-396.5 183.973,-384.5 183.973,-384.5 183.973,-378.5 189.973,-372.5 195.973,-372.5 195.973,-372.5 260.027,-372.5 260.027,-372.5 266.027,-372.5 272.027,-378.5 272.027,-384.5 272.027,-384.5 272.027,-396.5 272.027,-396.5 272.027,-402.5 266.027,-408.5 260.027,-408.5"/>
<text text-anchor="middle" x="228" y="-387.8" font-family="Helvetica,sans-Serif" font-size="9.00">status_file_handle</text>
</g>
<!-- create_new_stats_and_trend_file&#45;&gt;status_file_handle -->
<g id="edge14" class="edge"><title>create_new_stats_and_trend_file&#45;&gt;status_file_handle</title>
<path fill="none" stroke="black" d="M224.21,-445.54C224.775,-437.483 225.461,-427.7 226.094,-418.684"/>
<polygon fill="black" stroke="black" points="229.593,-418.821 226.801,-408.601 222.61,-418.331 229.593,-418.821"/>
</g>
<!-- trend_file_handle -->
<g id="node11" class="node"><title>trend_file_handle</title>
<path fill="#ffffcc" stroke="black" d="M567.524,-408.5C567.524,-408.5 506.476,-408.5 506.476,-408.5 500.476,-408.5 494.476,-402.5 494.476,-396.5 494.476,-396.5 494.476,-384.5 494.476,-384.5 494.476,-378.5 500.476,-372.5 506.476,-372.5 506.476,-372.5 567.524,-372.5 567.524,-372.5 573.524,-372.5 579.524,-378.5 579.524,-384.5 579.524,-384.5 579.524,-396.5 579.524,-396.5 579.524,-402.5 573.524,-408.5 567.524,-408.5"/>
<text text-anchor="middle" x="537" y="-387.8" font-family="Helvetica,sans-Serif" font-size="9.00">trend_file_handle</text>
</g>
<!-- create_new_stats_and_trend_file&#45;&gt;trend_file_handle -->
<g id="edge15" class="edge"><title>create_new_stats_and_trend_file&#45;&gt;trend_file_handle</title>
<path fill="none" stroke="black" d="M323.923,-445.772C370.341,-437.127 426.185,-425.586 484.534,-409.742"/>
<polygon fill="black" stroke="black" points="485.587,-413.082 494.3,-407.055 483.73,-406.333 485.587,-413.082"/>
</g>
<!-- define_param_year_span -->
<g id="node3" class="node"><title>define_param_year_span</title>
<polygon fill="#ccffcc" stroke="black" points="580.269,-481.8 379.731,-481.8 379.731,-445.8 580.269,-445.8 580.269,-481.8"/>
<text text-anchor="middle" x="480" y="-459.6" font-family="Courier,monospace" font-size="14.00">define_param_year_span</text>
</g>
<!-- year_span -->
<g id="node12" class="node"><title>year_span</title>
<path fill="#ffffcc" stroke="black" d="M464.015,-408.5C464.015,-408.5 429.985,-408.5 429.985,-408.5 423.985,-408.5 417.985,-402.5 417.985,-396.5 417.985,-396.5 417.985,-384.5 417.985,-384.5 417.985,-378.5 423.985,-372.5 429.985,-372.5 429.985,-372.5 464.015,-372.5 464.015,-372.5 470.015,-372.5 476.015,-378.5 476.015,-384.5 476.015,-384.5 476.015,-396.5 476.015,-396.5 476.015,-402.5 470.015,-408.5 464.015,-408.5"/>
<text text-anchor="middle" x="447" y="-387.8" font-family="Helvetica,sans-Serif" font-size="9.00">year_span</text>
</g>
<!-- define_param_year_span&#45;&gt;year_span -->
<g id="edge16" class="edge"><title>define_param_year_span&#45;&gt;year_span</title>
<path fill="none" stroke="black" d="M472.012,-445.54C468.161,-437.22 463.458,-427.06 459.174,-417.804"/>
<polygon fill="black" stroke="black" points="462.291,-416.206 454.915,-408.601 455.939,-419.146 462.291,-416.206"/>
</g>
<!-- output_estimate_status_file_by_region_since_1980 -->
<g id="node4" class="node"><title>output_estimate_status_file_by_region_since_1980</title>
<polygon fill="#ccffcc" stroke="black" points="443.633,-335.2 24.3672,-335.2 24.3672,-299.2 443.633,-299.2 443.633,-335.2"/>
<text text-anchor="middle" x="234" y="-313" font-family="Courier,monospace" font-size="14.00">output_estimate_status_file_by_region_since_1980</text>
</g>
<!-- status_df_data -->
<g id="node13" class="node"><title>status_df_data</title>
<path fill="#ffffcc" stroke="black" d="M237.529,-261.9C237.529,-261.9 186.471,-261.9 186.471,-261.9 180.471,-261.9 174.471,-255.9 174.471,-249.9 174.471,-249.9 174.471,-237.9 174.471,-237.9 174.471,-231.9 180.471,-225.9 186.471,-225.9 186.471,-225.9 237.529,-225.9 237.529,-225.9 243.529,-225.9 249.529,-231.9 249.529,-237.9 249.529,-237.9 249.529,-249.9 249.529,-249.9 249.529,-255.9 243.529,-261.9 237.529,-261.9"/>
<text text-anchor="middle" x="212" y="-241.2" font-family="Helvetica,sans-Serif" font-size="9.00">status_df_data</text>
</g>
<!-- output_estimate_status_file_by_region_since_1980&#45;&gt;status_df_data -->
<g id="edge18" class="edge"><title>output_estimate_status_file_by_region_since_1980&#45;&gt;status_df_data</title>
<path fill="none" stroke="black" d="M228.674,-298.94C226.161,-290.795 223.104,-280.887 220.297,-271.79"/>
<polygon fill="black" stroke="black" points="223.569,-270.524 217.277,-262.001 216.881,-272.588 223.569,-270.524"/>
</g>
<!-- lsp_status_file -->
<g id="node15" class="node"><title>lsp_status_file</title>
<path fill="#ffe4b5" stroke="black" d="M279.215,-225.1C279.215,-225.1 454.785,-225.1 454.785,-225.1 460.785,-225.1 466.785,-231.1 466.785,-237.1 466.785,-237.1 466.785,-250.7 466.785,-250.7 466.785,-256.7 460.785,-262.7 454.785,-262.7 454.785,-262.7 279.215,-262.7 279.215,-262.7 273.215,-262.7 267.215,-256.7 267.215,-250.7 267.215,-250.7 267.215,-237.1 267.215,-237.1 267.215,-231.1 273.215,-225.1 279.215,-225.1"/>
<text text-anchor="middle" x="367" y="-250.6" font-family="Courier,monospace" font-weight="bold" font-size="9.00">lsp_status_file</text>
<polyline fill="none" stroke="black" points="267.215,-243.9 466.785,-243.9 "/>
<text text-anchor="start" x="275.215" y="-231.8" font-family="Courier,monospace" font-weight="bold" font-size="9.00">prep/lsp/vHS/output/lsp_status.csv</text>
</g>
<!-- output_estimate_status_file_by_region_since_1980&#45;&gt;lsp_status_file -->
<g id="edge17" class="edge"><title>output_estimate_status_file_by_region_since_1980&#45;&gt;lsp_status_file</title>
<path fill="none" stroke="black" d="M265.857,-299.122C283.424,-289.704 305.466,-277.888 324.486,-267.691"/>
<polygon fill="black" stroke="black" points="326.387,-270.643 333.547,-262.834 323.08,-264.474 326.387,-270.643"/>
</g>
<!-- output_estimate_trend_file_by_region_since_1980 -->
<g id="node5" class="node"><title>output_estimate_trend_file_by_region_since_1980</title>
<polygon fill="#ccffcc" stroke="black" points="872.234,-335.2 461.766,-335.2 461.766,-299.2 872.234,-299.2 872.234,-335.2"/>
<text text-anchor="middle" x="667" y="-313" font-family="Courier,monospace" font-size="14.00">output_estimate_trend_file_by_region_since_1980</text>
</g>
<!-- trend_df_data -->
<g id="node14" class="node"><title>trend_df_data</title>
<path fill="#ffffcc" stroke="black" d="M544.529,-261.9C544.529,-261.9 497.471,-261.9 497.471,-261.9 491.471,-261.9 485.471,-255.9 485.471,-249.9 485.471,-249.9 485.471,-237.9 485.471,-237.9 485.471,-231.9 491.471,-225.9 497.471,-225.9 497.471,-225.9 544.529,-225.9 544.529,-225.9 550.529,-225.9 556.529,-231.9 556.529,-237.9 556.529,-237.9 556.529,-249.9 556.529,-249.9 556.529,-255.9 550.529,-261.9 544.529,-261.9"/>
<text text-anchor="middle" x="521" y="-241.2" font-family="Helvetica,sans-Serif" font-size="9.00">trend_df_data</text>
</g>
<!-- output_estimate_trend_file_by_region_since_1980&#45;&gt;trend_df_data -->
<g id="edge20" class="edge"><title>output_estimate_trend_file_by_region_since_1980&#45;&gt;trend_df_data</title>
<path fill="none" stroke="black" d="M632.029,-299.122C611.968,-289.325 586.589,-276.931 565.161,-266.466"/>
<polygon fill="black" stroke="black" points="566.46,-263.205 555.938,-261.962 563.388,-269.495 566.46,-263.205"/>
</g>
<!-- lsp_trend_file -->
<g id="node16" class="node"><title>lsp_trend_file</title>
<path fill="#ffe4b5" stroke="black" d="M586.915,-225.1C586.915,-225.1 757.085,-225.1 757.085,-225.1 763.085,-225.1 769.085,-231.1 769.085,-237.1 769.085,-237.1 769.085,-250.7 769.085,-250.7 769.085,-256.7 763.085,-262.7 757.085,-262.7 757.085,-262.7 586.915,-262.7 586.915,-262.7 580.915,-262.7 574.915,-256.7 574.915,-250.7 574.915,-250.7 574.915,-237.1 574.915,-237.1 574.915,-231.1 580.915,-225.1 586.915,-225.1"/>
<text text-anchor="middle" x="672" y="-250.6" font-family="Courier,monospace" font-weight="bold" font-size="9.00">lsp_trend_file</text>
<polyline fill="none" stroke="black" points="574.915,-243.9 769.085,-243.9 "/>
<text text-anchor="start" x="582.915" y="-231.8" font-family="Courier,monospace" font-weight="bold" font-size="9.00">prep/lsp/vHS/output/lsp_trend.csv</text>
</g>
<!-- output_estimate_trend_file_by_region_since_1980&#45;&gt;lsp_trend_file -->
<g id="edge19" class="edge"><title>output_estimate_trend_file_by_region_since_1980&#45;&gt;lsp_trend_file</title>
<path fill="none" stroke="black" d="M668.21,-298.94C668.753,-291.205 669.407,-281.879 670.018,-273.168"/>
<polygon fill="black" stroke="black" points="673.523,-273.216 670.731,-262.996 666.54,-272.726 673.523,-273.216"/>
</g>
<!-- save_year_by_year_status_and_trend_estimates -->
<g id="node6" class="node"><title>save_year_by_year_status_and_trend_estimates</title>
<polygon fill="#ccffcc" stroke="black" points="507.539,-188.6 122.461,-188.6 122.461,-152.6 507.539,-152.6 507.539,-188.6"/>
<text text-anchor="middle" x="315" y="-166.4" font-family="Courier,monospace" font-size="14.00">save_year_by_year_status_and_trend_estimates</text>
</g>
<!-- lsp_status_trend_summary_db_file -->
<g id="node17" class="node"><title>lsp_status_trend_summary_db_file</title>
<path fill="#ffe4b5" stroke="black" d="M282.614,-78.5C282.614,-78.5 447.386,-78.5 447.386,-78.5 453.386,-78.5 459.386,-84.5 459.386,-90.5 459.386,-90.5 459.386,-104.1 459.386,-104.1 459.386,-110.1 453.386,-116.1 447.386,-116.1 447.386,-116.1 282.614,-116.1 282.614,-116.1 276.614,-116.1 270.614,-110.1 270.614,-104.1 270.614,-104.1 270.614,-90.5 270.614,-90.5 270.614,-84.5 276.614,-78.5 282.614,-78.5"/>
<text text-anchor="middle" x="365" y="-104" font-family="Courier,monospace" font-weight="bold" font-size="9.00">lsp_status_trend_summary_db_file</text>
<polyline fill="none" stroke="black" points="270.614,-97.3 459.386,-97.3 "/>
<text text-anchor="middle" x="365" y="-85.2" font-family="Courier,monospace" font-weight="bold" font-size="9.00"> </text>
</g>
<!-- save_year_by_year_status_and_trend_estimates&#45;&gt;lsp_status_trend_summary_db_file -->
<g id="edge21" class="edge"><title>save_year_by_year_status_and_trend_estimates&#45;&gt;lsp_status_trend_summary_db_file</title>
<path fill="none" stroke="black" d="M327.104,-152.34C332.886,-144.095 339.935,-134.042 346.379,-124.854"/>
<polygon fill="black" stroke="black" points="349.434,-126.593 352.31,-116.396 343.703,-122.574 349.434,-126.593"/>
</g>
<!-- setup_R -->
<g id="node7" class="node"><title>setup_R</title>
<path fill="#ffe4b5" stroke="black" d="M462,-662.3C462,-662.3 492,-662.3 492,-662.3 498,-662.3 504,-668.3 504,-674.3 504,-674.3 504,-687.9 504,-687.9 504,-693.9 498,-699.9 492,-699.9 492,-699.9 462,-699.9 462,-699.9 456,-699.9 450,-693.9 450,-687.9 450,-687.9 450,-674.3 450,-674.3 450,-668.3 456,-662.3 462,-662.3"/>
<text text-anchor="middle" x="476.897" y="-687.8" font-family="Courier,monospace" font-weight="bold" font-size="9.00">setup_R</text>
<polyline fill="none" stroke="black" points="450,-681.1 503.794,-681.1 "/>
<text text-anchor="middle" x="476.897" y="-669" font-family="Courier,monospace" font-weight="bold" font-size="9.00"> </text>
</g>
<!-- setup_R&#45;&gt;set_up_configuration_and_start_provenance_tracking -->
<g id="edge1" class="edge"><title>setup_R&#45;&gt;set_up_configuration_and_start_provenance_tracking</title>
<path fill="none" stroke="black" d="M449.754,-668.326C425.741,-657.95 390.169,-642.579 361.189,-630.056"/>
<polygon fill="black" stroke="black" points="362.208,-626.683 351.64,-625.929 359.431,-633.109 362.208,-626.683"/>
</g>
<!-- area_protected_total_file -->
<g id="node8" class="node"><title>area_protected_total_file</title>
<path fill="#ffe4b5" stroke="black" d="M630.22,-371.7C630.22,-371.7 859.78,-371.7 859.78,-371.7 865.78,-371.7 871.78,-377.7 871.78,-383.7 871.78,-383.7 871.78,-397.3 871.78,-397.3 871.78,-403.3 865.78,-409.3 859.78,-409.3 859.78,-409.3 630.22,-409.3 630.22,-409.3 624.22,-409.3 618.22,-403.3 618.22,-397.3 618.22,-397.3 618.22,-383.7 618.22,-383.7 618.22,-377.7 624.22,-371.7 630.22,-371.7"/>
<text text-anchor="middle" x="745" y="-397.2" font-family="Courier,monospace" font-weight="bold" font-size="9.00">area_protected_total_file</text>
<polyline fill="none" stroke="black" points="618.22,-390.5 871.78,-390.5 "/>
<text text-anchor="start" x="626.22" y="-378.4" font-family="Courier,monospace" font-weight="bold" font-size="9.00">prep/lsp/vHS/output/area_protected_total.csv</text>
</g>
<!-- area_protected_total_file&#45;&gt;output_estimate_status_file_by_region_since_1980 -->
<g id="edge9" class="edge"><title>area_protected_total_file&#45;&gt;output_estimate_status_file_by_region_since_1980</title>
<path fill="none" stroke="black" d="M618.029,-371.784C541.367,-361.087 443.832,-347.478 366.241,-336.652"/>
<polygon fill="black" stroke="black" points="366.302,-333.126 355.914,-335.211 365.334,-340.059 366.302,-333.126"/>
</g>
<!-- area_protected_total_file&#45;&gt;output_estimate_trend_file_by_region_since_1980 -->
<g id="edge10" class="edge"><title>area_protected_total_file&#45;&gt;output_estimate_trend_file_by_region_since_1980</title>
<path fill="none" stroke="black" d="M725.317,-371.508C715.607,-362.632 703.76,-351.802 693.286,-342.228"/>
<polygon fill="black" stroke="black" points="695.345,-339.368 685.602,-335.205 690.622,-344.535 695.345,-339.368"/>
</g>
<!-- dir_goal&#45;&gt;create_new_stats_and_trend_file -->
<g id="edge2" class="edge"><title>dir_goal&#45;&gt;create_new_stats_and_trend_file</title>
<path fill="none" stroke="black" d="M256.124,-517.497C251.008,-509.359 244.805,-499.489 239.155,-490.501"/>
<polygon fill="black" stroke="black" points="242.036,-488.508 233.751,-481.904 236.11,-492.233 242.036,-488.508"/>
</g>
<!-- dir_goal&#45;&gt;output_estimate_status_file_by_region_since_1980 -->
<g id="edge3" class="edge"><title>dir_goal&#45;&gt;output_estimate_status_file_by_region_since_1980</title>
<path fill="none" stroke="black" d="M239.784,-531.291C191.917,-524.501 95.8384,-507.893 76,-481.8 33.8332,-426.339 124.847,-369.613 185.489,-339.711"/>
<polygon fill="black" stroke="black" points="187.086,-342.827 194.565,-335.322 184.039,-336.525 187.086,-342.827"/>
</g>
<!-- dir_goal&#45;&gt;output_estimate_trend_file_by_region_since_1980 -->
<g id="edge4" class="edge"><title>dir_goal&#45;&gt;output_estimate_trend_file_by_region_since_1980</title>
<path fill="none" stroke="black" d="M294.038,-534.217C363.808,-532.132 547.363,-522.786 589,-481.8 624.599,-446.758 584.848,-414.926 609,-371.2 615.131,-360.1 624.459,-350.072 633.852,-341.801"/>
<polygon fill="black" stroke="black" points="636.239,-344.368 641.69,-335.283 631.763,-338.987 636.239,-344.368"/>
</g>
<!-- status_file_handle&#45;&gt;output_estimate_status_file_by_region_since_1980 -->
<g id="edge5" class="edge"><title>status_file_handle&#45;&gt;output_estimate_status_file_by_region_since_1980</title>
<path fill="none" stroke="black" d="M229.452,-372.24C230.13,-364.183 230.954,-354.4 231.712,-345.384"/>
<polygon fill="black" stroke="black" points="235.21,-345.559 232.561,-335.301 228.235,-344.972 235.21,-345.559"/>
</g>
<!-- trend_file_handle&#45;&gt;output_estimate_trend_file_by_region_since_1980 -->
<g id="edge6" class="edge"><title>trend_file_handle&#45;&gt;output_estimate_trend_file_by_region_since_1980</title>
<path fill="none" stroke="black" d="M568.138,-372.422C585.697,-362.792 607.829,-350.653 626.698,-340.304"/>
<polygon fill="black" stroke="black" points="628.581,-343.264 635.665,-335.386 625.214,-337.126 628.581,-343.264"/>
</g>
<!-- year_span&#45;&gt;output_estimate_status_file_by_region_since_1980 -->
<g id="edge7" class="edge"><title>year_span&#45;&gt;output_estimate_status_file_by_region_since_1980</title>
<path fill="none" stroke="black" d="M417.83,-379.736C386.186,-369.143 334.78,-351.935 294.363,-338.406"/>
<polygon fill="black" stroke="black" points="295.465,-335.084 284.871,-335.229 293.243,-341.722 295.465,-335.084"/>
</g>
<!-- year_span&#45;&gt;output_estimate_trend_file_by_region_since_1980 -->
<g id="edge8" class="edge"><title>year_span&#45;&gt;output_estimate_trend_file_by_region_since_1980</title>
<path fill="none" stroke="black" d="M476.247,-374.824C479.176,-373.533 482.128,-372.301 485,-371.2 518.418,-358.389 556.287,-346.898 588.795,-337.917"/>
<polygon fill="black" stroke="black" points="589.976,-341.223 598.701,-335.212 588.132,-334.47 589.976,-341.223"/>
</g>
<!-- status_df_data&#45;&gt;save_year_by_year_status_and_trend_estimates -->
<g id="edge11" class="edge"><title>status_df_data&#45;&gt;save_year_by_year_status_and_trend_estimates</title>
<path fill="none" stroke="black" d="M236.671,-225.822C250.203,-216.454 267.164,-204.713 281.84,-194.555"/>
<polygon fill="black" stroke="black" points="283.943,-197.355 290.173,-188.786 279.959,-191.6 283.943,-197.355"/>
</g>
<!-- trend_df_data&#45;&gt;save_year_by_year_status_and_trend_estimates -->
<g id="edge12" class="edge"><title>trend_df_data&#45;&gt;save_year_by_year_status_and_trend_estimates</title>
<path fill="none" stroke="black" d="M485.224,-228.095C482.115,-226.886 479.008,-225.705 476,-224.6 444.608,-213.065 409.357,-201.326 379.86,-191.838"/>
<polygon fill="black" stroke="black" points="380.682,-188.426 370.091,-188.71 378.548,-195.093 380.682,-188.426"/>
</g>
<!-- lsp_status_file_outflow -->
<g id="node22" class="node"><title>lsp_status_file_outflow</title>
<ellipse fill="none" stroke="black" cx="536" cy="-31" rx="7" ry="7"/>
</g>
<!-- lsp_status_file&#45;&gt;lsp_status_file_outflow -->
<g id="edge26" class="edge"><title>lsp_status_file&#45;&gt;lsp_status_file_outflow</title>
<path fill="none" stroke="black" d="M464.59,-225.014C484.616,-216.999 503.636,-205.396 517,-188.6 549.968,-147.167 543.976,-78.9983 539.068,-48.1081"/>
<polygon fill="black" stroke="black" points="542.455,-47.163 537.264,-37.927 535.563,-48.3843 542.455,-47.163"/>
</g>
<!-- lsp_trend_file_outflow -->
<g id="node21" class="node"><title>lsp_trend_file_outflow</title>
<ellipse fill="none" stroke="black" cx="568" cy="-31" rx="7" ry="7"/>
</g>
<!-- lsp_trend_file&#45;&gt;lsp_trend_file_outflow -->
<g id="edge25" class="edge"><title>lsp_trend_file&#45;&gt;lsp_trend_file_outflow</title>
<path fill="none" stroke="black" d="M663.133,-224.919C642.925,-183.939 593.773,-84.2637 575.236,-46.673"/>
<polygon fill="black" stroke="black" points="578.26,-44.8929 570.698,-37.4721 571.982,-47.9889 578.26,-44.8929"/>
</g>
<!-- lsp_status_trend_summary_db_file_outflow -->
<g id="node20" class="node"><title>lsp_status_trend_summary_db_file_outflow</title>
<ellipse fill="none" stroke="black" cx="504" cy="-31" rx="7" ry="7"/>
</g>
<!-- lsp_status_trend_summary_db_file&#45;&gt;lsp_status_trend_summary_db_file_outflow -->
<g id="edge24" class="edge"><title>lsp_status_trend_summary_db_file&#45;&gt;lsp_status_trend_summary_db_file_outflow</title>
<path fill="none" stroke="black" d="M403.719,-78.3889C431.773,-65.4114 468.213,-48.5549 488.546,-39.1491"/>
<polygon fill="black" stroke="black" points="490.199,-42.2406 497.806,-34.8655 487.26,-35.8874 490.199,-42.2406"/>
</g>
<!-- setup_R_inflow -->
<g id="node18" class="node"><title>setup_R_inflow</title>
<ellipse fill="none" stroke="black" cx="565" cy="-747.4" rx="7" ry="7"/>
</g>
<!-- setup_R_inflow&#45;&gt;setup_R -->
<g id="edge22" class="edge"><title>setup_R_inflow&#45;&gt;setup_R</title>
<path fill="none" stroke="black" d="M559.759,-742.57C550.068,-735.49 528.639,-719.831 510.014,-706.223"/>
<polygon fill="black" stroke="black" points="511.846,-703.227 501.707,-700.153 507.716,-708.879 511.846,-703.227"/>
</g>
<!-- area_protected_total_file_inflow -->
<g id="node19" class="node"><title>area_protected_total_file_inflow</title>
<ellipse fill="none" stroke="black" cx="597" cy="-747.4" rx="7" ry="7"/>
</g>
<!-- area_protected_total_file_inflow&#45;&gt;area_protected_total_file -->
<g id="edge23" class="edge"><title>area_protected_total_file_inflow&#45;&gt;area_protected_total_file</title>
<path fill="none" stroke="black" d="M602.04,-742.512C620.867,-727.51 686,-671.106 686,-608.8 686,-608.8 686,-608.8 686,-534.8 686,-491.532 709.284,-446.074 726.597,-418.253"/>
<polygon fill="black" stroke="black" points="729.744,-419.83 732.198,-409.523 723.852,-416.05 729.744,-419.83"/>
</g>
</g>
</svg>
