<?xml version="1.0" encoding="UTF-8" standalone="no"?>
<!DOCTYPE svg PUBLIC "-//W3C//DTD SVG 1.1//EN"
 "http://www.w3.org/Graphics/SVG/1.1/DTD/svg11.dtd">
<!-- Generated by graphviz version 2.38.0 (20140413.2041)
 -->
<!-- Title: yw_data_view Pages: 1 -->
<svg width="1224pt" height="784pt"
 viewBox="0.00 0.00 1224.03 783.60" xmlns="http://www.w3.org/2000/svg" xmlns:xlink="http://www.w3.org/1999/xlink">
<g id="graph0" class="graph" transform="scale(1 1) rotate(0) translate(4 779.6)">
<title>yw_data_view</title>
<polygon fill="white" stroke="none" points="-4,4 -4,-779.6 1220.03,-779.6 1220.03,4 -4,4"/>
<text text-anchor="middle" x="608.013" y="-755.4" font-family="Courier,monospace" font-size="18.00">Upstream graph for multiple runs</text>
<g id="clust1" class="cluster"><title>cluster_workflow</title>
<polygon fill="none" stroke="black" stroke-width="2" points="8,-8 8,-738 1208.03,-738 1208.03,-8 8,-8"/>
</g>
<g id="clust2" class="cluster"><title>cluster_workflow_inner</title>
<polygon fill="none" stroke="white" stroke-width="2" points="16,-16 16,-730 1200.03,-730 1200.03,-16 16,-16"/>
</g>
<!-- ohibc run 1 -->
<g id="node1" class="node"><title>ohibc run 1</title>
<polygon fill="black" stroke="black" points="643.501,-391 534.731,-391 534.731,-355 643.501,-355 643.501,-391"/>
<text text-anchor="middle" x="589.116" y="-368.8" font-family="Courier,monospace" font-weight="bold" font-size="14.00" fill="white">ohibc run 1</text>
</g>
<!-- 93cca45a93cbf195aac755354840087590d4788e06768d7db90481ef9b5d9bc3 -->
<g id="node2" class="node"><title>93cca45a93cbf195aac755354840087590d4788e06768d7db90481ef9b5d9bc3</title>
<path fill="#ffe4b5" stroke="black" d="M721.003,-25C721.003,-25 1150.33,-25 1150.33,-25 1156.33,-25 1162.33,-31 1162.33,-37 1162.33,-37 1162.33,-49 1162.33,-49 1162.33,-55 1156.33,-61 1150.33,-61 1150.33,-61 721.003,-61 721.003,-61 715.003,-61 709.003,-55 709.003,-49 709.003,-49 709.003,-37 709.003,-37 709.003,-31 715.003,-25 721.003,-25"/>
<text text-anchor="middle" x="935.667" y="-45.9" font-family="Courier,monospace" font-weight="bold" font-size="9.00">/Users/slaughter/git/OHI&#45;Science/ohibc/prep/lsp/vHS/spatial/hs_pep_rast_500m.tif </text>
<text text-anchor="middle" x="935.667" y="-35.1" font-family="Courier,monospace" font-weight="bold" font-size="9.00"> 93cca45a93cbf195aac755354840087590d4788e06768d7db90481ef9b5d9bc3</text>
</g>
<!-- ohibc run 1&#45;&gt;93cca45a93cbf195aac755354840087590d4788e06768d7db90481ef9b5d9bc3 -->
<g id="edge14" class="edge"><title>ohibc run 1&#45;&gt;93cca45a93cbf195aac755354840087590d4788e06768d7db90481ef9b5d9bc3</title>
<path fill="none" stroke="black" d="M592.289,-354.939C600.76,-294.112 633.385,-100.401 679.308,-62 729.313,-20.1871 805.452,-16.9908 861.587,-23.621"/>
<polygon fill="black" stroke="black" points="861.454,-27.1336 871.825,-24.9663 862.366,-20.1932 861.454,-27.1336"/>
</g>
<!-- b03456556a5921cabea227978673e751441b2255f877cb183d4eeb1475105593 -->
<g id="node3" class="node"><title>b03456556a5921cabea227978673e751441b2255f877cb183d4eeb1475105593</title>
<path fill="#ffe4b5" stroke="black" d="M718.304,-80C718.304,-80 1153.03,-80 1153.03,-80 1159.03,-80 1165.03,-86 1165.03,-92 1165.03,-92 1165.03,-104 1165.03,-104 1165.03,-110 1159.03,-116 1153.03,-116 1153.03,-116 718.304,-116 718.304,-116 712.304,-116 706.304,-110 706.304,-104 706.304,-104 706.304,-92 706.304,-92 706.304,-86 712.304,-80 718.304,-80"/>
<text text-anchor="middle" x="935.667" y="-100.9" font-family="Courier,monospace" font-weight="bold" font-size="9.00">/Users/slaughter/git/OHI&#45;Science/ohibc/prep/lsp/vHS/spatial/hs_wdpa_rast_500m.tif </text>
<text text-anchor="middle" x="935.667" y="-90.1" font-family="Courier,monospace" font-weight="bold" font-size="9.00"> b03456556a5921cabea227978673e751441b2255f877cb183d4eeb1475105593</text>
</g>
<!-- ohibc run 1&#45;&gt;b03456556a5921cabea227978673e751441b2255f877cb183d4eeb1475105593 -->
<g id="edge15" class="edge"><title>ohibc run 1&#45;&gt;b03456556a5921cabea227978673e751441b2255f877cb183d4eeb1475105593</title>
<path fill="none" stroke="black" d="M590.395,-354.685C592.085,-306.324 603.531,-176.633 679.308,-117 728.882,-77.9876 801.631,-73.5378 856.811,-78.8853"/>
<polygon fill="black" stroke="black" points="856.579,-82.3807 866.901,-79.9917 857.342,-75.4224 856.579,-82.3807"/>
</g>
<!-- b2cba129ff4ce7c9e83c13b36dc3ff95ce18b4cb4784758b3e94478d4e999b09 -->
<g id="node4" class="node"><title>b2cba129ff4ce7c9e83c13b36dc3ff95ce18b4cb4784758b3e94478d4e999b09</title>
<path fill="#ffe4b5" stroke="black" d="M726.402,-135C726.402,-135 1144.93,-135 1144.93,-135 1150.93,-135 1156.93,-141 1156.93,-147 1156.93,-147 1156.93,-159 1156.93,-159 1156.93,-165 1150.93,-171 1144.93,-171 1144.93,-171 726.402,-171 726.402,-171 720.402,-171 714.402,-165 714.402,-159 714.402,-159 714.402,-147 714.402,-147 714.402,-141 720.402,-135 726.402,-135"/>
<text text-anchor="middle" x="935.667" y="-155.9" font-family="Courier,monospace" font-weight="bold" font-size="9.00">/Users/slaughter/git/OHI&#45;Science/ohibc/prep/lsp/vHS/int/area_protected_3nm.csv </text>
<text text-anchor="middle" x="935.667" y="-145.1" font-family="Courier,monospace" font-weight="bold" font-size="9.00"> b2cba129ff4ce7c9e83c13b36dc3ff95ce18b4cb4784758b3e94478d4e999b09</text>
</g>
<!-- ohibc run 1&#45;&gt;b2cba129ff4ce7c9e83c13b36dc3ff95ce18b4cb4784758b3e94478d4e999b09 -->
<g id="edge16" class="edge"><title>ohibc run 1&#45;&gt;b2cba129ff4ce7c9e83c13b36dc3ff95ce18b4cb4784758b3e94478d4e999b09</title>
<path fill="none" stroke="black" d="M591.915,-354.928C597.429,-314.044 617.65,-216.258 679.308,-172 726.621,-138.04 792.109,-131.44 844.919,-134.318"/>
<polygon fill="black" stroke="black" points="844.753,-137.815 854.964,-134.988 845.219,-130.831 844.753,-137.815"/>
</g>
<!-- d792e5fe1c3c98a24dde23e00895f627ab2c0a102f5852dcc4f02e2ba9dba1eb -->
<g id="node5" class="node"><title>d792e5fe1c3c98a24dde23e00895f627ab2c0a102f5852dcc4f02e2ba9dba1eb</title>
<path fill="#ffe4b5" stroke="black" d="M726.402,-190C726.402,-190 1144.93,-190 1144.93,-190 1150.93,-190 1156.93,-196 1156.93,-202 1156.93,-202 1156.93,-214 1156.93,-214 1156.93,-220 1150.93,-226 1144.93,-226 1144.93,-226 726.402,-226 726.402,-226 720.402,-226 714.402,-220 714.402,-214 714.402,-214 714.402,-202 714.402,-202 714.402,-196 720.402,-190 726.402,-190"/>
<text text-anchor="middle" x="935.667" y="-210.9" font-family="Courier,monospace" font-weight="bold" font-size="9.00">/Users/slaughter/git/OHI&#45;Science/ohibc/prep/lsp/vHS/int/area_protected_1km.csv </text>
<text text-anchor="middle" x="935.667" y="-200.1" font-family="Courier,monospace" font-weight="bold" font-size="9.00"> d792e5fe1c3c98a24dde23e00895f627ab2c0a102f5852dcc4f02e2ba9dba1eb</text>
</g>
<!-- ohibc run 1&#45;&gt;d792e5fe1c3c98a24dde23e00895f627ab2c0a102f5852dcc4f02e2ba9dba1eb -->
<g id="edge17" class="edge"><title>ohibc run 1&#45;&gt;d792e5fe1c3c98a24dde23e00895f627ab2c0a102f5852dcc4f02e2ba9dba1eb</title>
<path fill="none" stroke="black" d="M594.405,-354.788C604.264,-322.295 631.443,-256.442 679.308,-227 687.484,-221.971 696.091,-217.589 704.997,-213.787"/>
<polygon fill="black" stroke="black" points="706.398,-216.997 714.382,-210.033 703.797,-210.498 706.398,-216.997"/>
</g>
<!-- 510e09f1f3ef8fcbc38c43a40e1698cea99ebea15fd64a26339169ba6ce238fc -->
<g id="node7" class="node"><title>510e09f1f3ef8fcbc38c43a40e1698cea99ebea15fd64a26339169ba6ce238fc</title>
<path fill="#ffe4b5" stroke="black" d="M739.9,-245C739.9,-245 1131.43,-245 1131.43,-245 1137.43,-245 1143.43,-251 1143.43,-257 1143.43,-257 1143.43,-269 1143.43,-269 1143.43,-275 1137.43,-281 1131.43,-281 1131.43,-281 739.9,-281 739.9,-281 733.9,-281 727.9,-275 727.9,-269 727.9,-269 727.9,-257 727.9,-257 727.9,-251 733.9,-245 739.9,-245"/>
<text text-anchor="middle" x="935.667" y="-265.9" font-family="Courier,monospace" font-weight="bold" font-size="9.00">/Users/slaughter/git/OHI&#45;Science/ohibc/prep/lsp/vHS/output/lsp_status.csv </text>
<text text-anchor="middle" x="935.667" y="-255.1" font-family="Courier,monospace" font-weight="bold" font-size="9.00"> 510e09f1f3ef8fcbc38c43a40e1698cea99ebea15fd64a26339169ba6ce238fc</text>
</g>
<!-- ohibc run 1&#45;&gt;510e09f1f3ef8fcbc38c43a40e1698cea99ebea15fd64a26339169ba6ce238fc -->
<g id="edge18" class="edge"><title>ohibc run 1&#45;&gt;510e09f1f3ef8fcbc38c43a40e1698cea99ebea15fd64a26339169ba6ce238fc</title>
<path fill="none" stroke="black" d="M603.935,-354.723C619.79,-335.268 647.708,-305.352 679.308,-291 691.643,-285.398 704.647,-280.731 717.986,-276.856"/>
<polygon fill="black" stroke="black" points="719.038,-280.197 727.753,-274.173 717.183,-273.447 719.038,-280.197"/>
</g>
<!-- bc918e73e8ffd7509cfd2f5173f4d13b17e620340a6ddae47c56f3b7697be7b1 -->
<g id="node8" class="node"><title>bc918e73e8ffd7509cfd2f5173f4d13b17e620340a6ddae47c56f3b7697be7b1</title>
<path fill="#ffe4b5" stroke="black" d="M729.102,-300C729.102,-300 1142.23,-300 1142.23,-300 1148.23,-300 1154.23,-306 1154.23,-312 1154.23,-312 1154.23,-324 1154.23,-324 1154.23,-330 1148.23,-336 1142.23,-336 1142.23,-336 729.102,-336 729.102,-336 723.102,-336 717.102,-330 717.102,-324 717.102,-324 717.102,-312 717.102,-312 717.102,-306 723.102,-300 729.102,-300"/>
<text text-anchor="middle" x="935.667" y="-320.9" font-family="Courier,monospace" font-weight="bold" font-size="9.00">/Users/slaughter/git/OHI&#45;Science/ohibc/prep/lsp/vHS/int/area_protected_ws.csv </text>
<text text-anchor="middle" x="935.667" y="-310.1" font-family="Courier,monospace" font-weight="bold" font-size="9.00"> bc918e73e8ffd7509cfd2f5173f4d13b17e620340a6ddae47c56f3b7697be7b1</text>
</g>
<!-- ohibc run 1&#45;&gt;bc918e73e8ffd7509cfd2f5173f4d13b17e620340a6ddae47c56f3b7697be7b1 -->
<g id="edge19" class="edge"><title>ohibc run 1&#45;&gt;bc918e73e8ffd7509cfd2f5173f4d13b17e620340a6ddae47c56f3b7697be7b1</title>
<path fill="none" stroke="black" d="M619.092,-354.895C636.372,-348.002 658.86,-341.179 679.308,-337 688.293,-335.164 697.482,-333.442 706.784,-331.833"/>
<polygon fill="black" stroke="black" points="707.637,-335.239 716.919,-330.13 706.477,-328.335 707.637,-335.239"/>
</g>
<!-- e4f5dd01c6b2e03bbe67419aa6ea9c20d938478e5523a2b6dc057413f6db2bf5 -->
<g id="node9" class="node"><title>e4f5dd01c6b2e03bbe67419aa6ea9c20d938478e5523a2b6dc057413f6db2bf5</title>
<path fill="#ffe4b5" stroke="black" d="M734.501,-355C734.501,-355 1136.83,-355 1136.83,-355 1142.83,-355 1148.83,-361 1148.83,-367 1148.83,-367 1148.83,-379 1148.83,-379 1148.83,-385 1142.83,-391 1136.83,-391 1136.83,-391 734.501,-391 734.501,-391 728.501,-391 722.501,-385 722.501,-379 722.501,-379 722.501,-367 722.501,-367 722.501,-361 728.501,-355 734.501,-355"/>
<text text-anchor="middle" x="935.667" y="-375.9" font-family="Courier,monospace" font-weight="bold" font-size="9.00">/Users/slaughter/git/OHI&#45;Science/ohibc/prep/lsp/vHS/int/zonal_stats_3nm.csv </text>
<text text-anchor="middle" x="935.667" y="-365.1" font-family="Courier,monospace" font-weight="bold" font-size="9.00"> e4f5dd01c6b2e03bbe67419aa6ea9c20d938478e5523a2b6dc057413f6db2bf5</text>
</g>
<!-- ohibc run 1&#45;&gt;e4f5dd01c6b2e03bbe67419aa6ea9c20d938478e5523a2b6dc057413f6db2bf5 -->
<g id="edge20" class="edge"><title>ohibc run 1&#45;&gt;e4f5dd01c6b2e03bbe67419aa6ea9c20d938478e5523a2b6dc057413f6db2bf5</title>
<path fill="none" stroke="black" d="M643.574,-367.951C663.264,-367.26 686.993,-366.78 712.3,-366.51"/>
<polygon fill="black" stroke="black" points="712.49,-370.009 722.456,-366.414 712.423,-363.009 712.49,-370.009"/>
</g>
<!-- 5ba2c041bacec6ae9b550d578fb0667523ab9d610f043b13832a0ae6e2c84e10 -->
<g id="node10" class="node"><title>5ba2c041bacec6ae9b550d578fb0667523ab9d610f043b13832a0ae6e2c84e10</title>
<path fill="#ffe4b5" stroke="black" d="M691.308,-410C691.308,-410 1180.03,-410 1180.03,-410 1186.03,-410 1192.03,-416 1192.03,-422 1192.03,-422 1192.03,-434 1192.03,-434 1192.03,-440 1186.03,-446 1180.03,-446 1180.03,-446 691.308,-446 691.308,-446 685.308,-446 679.308,-440 679.308,-434 679.308,-434 679.308,-422 679.308,-422 679.308,-416 685.308,-410 691.308,-410"/>
<text text-anchor="middle" x="935.667" y="-430.9" font-family="Courier,monospace" font-weight="bold" font-size="9.00">/Users/slaughter/git/OHI&#45;Science/ohibc/prep/lsp/vHS/spatial/hs_offshore_3nm_raster_500m.tif </text>
<text text-anchor="middle" x="935.667" y="-420.1" font-family="Courier,monospace" font-weight="bold" font-size="9.00"> 5ba2c041bacec6ae9b550d578fb0667523ab9d610f043b13832a0ae6e2c84e10</text>
</g>
<!-- ohibc run 1&#45;&gt;5ba2c041bacec6ae9b550d578fb0667523ab9d610f043b13832a0ae6e2c84e10 -->
<g id="edge21" class="edge"><title>ohibc run 1&#45;&gt;5ba2c041bacec6ae9b550d578fb0667523ab9d610f043b13832a0ae6e2c84e10</title>
<path fill="none" stroke="black" d="M643.428,-382.848C655.135,-386.188 667.549,-389.558 679.308,-392 714.219,-399.25 752.241,-404.605 788.022,-408.817"/>
<polygon fill="black" stroke="black" points="787.715,-412.304 798.051,-409.975 788.518,-405.351 787.715,-412.304"/>
</g>
<!-- 9c23639cf9ce610831cc57a78e88bd8ff8b67a46253aff39154b57b58ab60832 -->
<g id="node11" class="node"><title>9c23639cf9ce610831cc57a78e88bd8ff8b67a46253aff39154b57b58ab60832</title>
<path fill="#ffe4b5" stroke="black" d="M712.904,-465C712.904,-465 1158.43,-465 1158.43,-465 1164.43,-465 1170.43,-471 1170.43,-477 1170.43,-477 1170.43,-489 1170.43,-489 1170.43,-495 1164.43,-501 1158.43,-501 1158.43,-501 712.904,-501 712.904,-501 706.904,-501 700.904,-495 700.904,-489 700.904,-489 700.904,-477 700.904,-477 700.904,-471 706.904,-465 712.904,-465"/>
<text text-anchor="middle" x="935.667" y="-485.9" font-family="Courier,monospace" font-weight="bold" font-size="9.00">/Users/slaughter/git/OHI&#45;Science/ohibc/prep/lsp/vHS/output/area_protected_total.csv </text>
<text text-anchor="middle" x="935.667" y="-475.1" font-family="Courier,monospace" font-weight="bold" font-size="9.00"> 9c23639cf9ce610831cc57a78e88bd8ff8b67a46253aff39154b57b58ab60832</text>
</g>
<!-- ohibc run 1&#45;&gt;9c23639cf9ce610831cc57a78e88bd8ff8b67a46253aff39154b57b58ab60832 -->
<g id="edge22" class="edge"><title>ohibc run 1&#45;&gt;9c23639cf9ce610831cc57a78e88bd8ff8b67a46253aff39154b57b58ab60832</title>
<path fill="none" stroke="black" d="M609.465,-391.022C625.802,-408.657 651.011,-434.111 679.308,-447 692.953,-453.215 707.42,-458.263 722.258,-462.364"/>
<polygon fill="black" stroke="black" points="721.497,-465.782 732.057,-464.924 723.267,-459.01 721.497,-465.782"/>
</g>
<!-- 1a8556ac0c8124864b109286a0d419b9213d0084cc831c813a5905e887c291a1 -->
<g id="node12" class="node"><title>1a8556ac0c8124864b109286a0d419b9213d0084cc831c813a5905e887c291a1</title>
<path fill="#ffe4b5" stroke="black" d="M734.501,-520C734.501,-520 1136.83,-520 1136.83,-520 1142.83,-520 1148.83,-526 1148.83,-532 1148.83,-532 1148.83,-544 1148.83,-544 1148.83,-550 1142.83,-556 1136.83,-556 1136.83,-556 734.501,-556 734.501,-556 728.501,-556 722.501,-550 722.501,-544 722.501,-544 722.501,-532 722.501,-532 722.501,-526 728.501,-520 734.501,-520"/>
<text text-anchor="middle" x="935.667" y="-540.9" font-family="Courier,monospace" font-weight="bold" font-size="9.00">/Users/slaughter/git/OHI&#45;Science/ohibc/prep/lsp/vHS/int/zonal_stats_1km.csv </text>
<text text-anchor="middle" x="935.667" y="-530.1" font-family="Courier,monospace" font-weight="bold" font-size="9.00"> 1a8556ac0c8124864b109286a0d419b9213d0084cc831c813a5905e887c291a1</text>
</g>
<!-- ohibc run 1&#45;&gt;1a8556ac0c8124864b109286a0d419b9213d0084cc831c813a5905e887c291a1 -->
<g id="edge23" class="edge"><title>ohibc run 1&#45;&gt;1a8556ac0c8124864b109286a0d419b9213d0084cc831c813a5905e887c291a1</title>
<path fill="none" stroke="black" d="M598.272,-391.228C610.418,-420.34 636.536,-475.707 679.308,-502 689.872,-508.494 701.154,-513.895 712.875,-518.376"/>
<polygon fill="black" stroke="black" points="711.768,-521.698 722.363,-521.776 714.13,-515.108 711.768,-521.698"/>
</g>
<!-- 85130403e425f79e80e52e3fcaa9c116f5cc0b01c4aa7ea4078c21c08d6ac2fd -->
<g id="node13" class="node"><title>85130403e425f79e80e52e3fcaa9c116f5cc0b01c4aa7ea4078c21c08d6ac2fd</title>
<path fill="#ffe4b5" stroke="black" d="M696.707,-575C696.707,-575 1174.63,-575 1174.63,-575 1180.63,-575 1186.63,-581 1186.63,-587 1186.63,-587 1186.63,-599 1186.63,-599 1186.63,-605 1180.63,-611 1174.63,-611 1174.63,-611 696.707,-611 696.707,-611 690.707,-611 684.707,-605 684.707,-599 684.707,-599 684.707,-587 684.707,-587 684.707,-581 690.707,-575 696.707,-575"/>
<text text-anchor="middle" x="935.667" y="-595.9" font-family="Courier,monospace" font-weight="bold" font-size="9.00">/Users/slaughter/git/OHI&#45;Science/ohibc/prep/lsp/vHS/spatial/hs_inland_1km_raster_500m.tif </text>
<text text-anchor="middle" x="935.667" y="-585.1" font-family="Courier,monospace" font-weight="bold" font-size="9.00"> 85130403e425f79e80e52e3fcaa9c116f5cc0b01c4aa7ea4078c21c08d6ac2fd</text>
</g>
<!-- ohibc run 1&#45;&gt;85130403e425f79e80e52e3fcaa9c116f5cc0b01c4aa7ea4078c21c08d6ac2fd -->
<g id="edge24" class="edge"><title>ohibc run 1&#45;&gt;85130403e425f79e80e52e3fcaa9c116f5cc0b01c4aa7ea4078c21c08d6ac2fd</title>
<path fill="none" stroke="black" d="M593.418,-391.105C600.667,-429.173 622.145,-516.051 679.308,-557 686.549,-562.187 694.216,-566.729 702.197,-570.699"/>
<polygon fill="black" stroke="black" points="700.791,-573.906 711.335,-574.943 703.739,-567.557 700.791,-573.906"/>
</g>
<!-- cf404cbfa31cc0f7f4a397632797d8aa416eb621a214569945c833594b16b3c3 -->
<g id="node14" class="node"><title>cf404cbfa31cc0f7f4a397632797d8aa416eb621a214569945c833594b16b3c3</title>
<path fill="#ffe4b5" stroke="black" d="M737.2,-630C737.2,-630 1134.13,-630 1134.13,-630 1140.13,-630 1146.13,-636 1146.13,-642 1146.13,-642 1146.13,-654 1146.13,-654 1146.13,-660 1140.13,-666 1134.13,-666 1134.13,-666 737.2,-666 737.2,-666 731.2,-666 725.2,-660 725.2,-654 725.2,-654 725.2,-642 725.2,-642 725.2,-636 731.2,-630 737.2,-630"/>
<text text-anchor="middle" x="935.667" y="-650.9" font-family="Courier,monospace" font-weight="bold" font-size="9.00">/Users/slaughter/git/OHI&#45;Science/ohibc/prep/lsp/vHS/int/zonal_stats_ws.csv </text>
<text text-anchor="middle" x="935.667" y="-640.1" font-family="Courier,monospace" font-weight="bold" font-size="9.00"> cf404cbfa31cc0f7f4a397632797d8aa416eb621a214569945c833594b16b3c3</text>
</g>
<!-- ohibc run 1&#45;&gt;cf404cbfa31cc0f7f4a397632797d8aa416eb621a214569945c833594b16b3c3 -->
<g id="edge25" class="edge"><title>ohibc run 1&#45;&gt;cf404cbfa31cc0f7f4a397632797d8aa416eb621a214569945c833594b16b3c3</title>
<path fill="none" stroke="black" d="M590.759,-391.276C593.516,-437.108 607.682,-555.783 679.308,-612 690.384,-620.693 702.614,-627.652 715.545,-633.19"/>
<polygon fill="black" stroke="black" points="714.492,-636.538 725.077,-636.975 717.075,-630.032 714.492,-636.538"/>
</g>
<!-- 98c477e500188e52b2399aec3cc8d1cecefa6315c5ed6bf6f36f8252e7c6103c -->
<g id="node15" class="node"><title>98c477e500188e52b2399aec3cc8d1cecefa6315c5ed6bf6f36f8252e7c6103c</title>
<path fill="#ffe4b5" stroke="black" d="M696.707,-685C696.707,-685 1174.63,-685 1174.63,-685 1180.63,-685 1186.63,-691 1186.63,-697 1186.63,-697 1186.63,-709 1186.63,-709 1186.63,-715 1180.63,-721 1174.63,-721 1174.63,-721 696.707,-721 696.707,-721 690.707,-721 684.707,-715 684.707,-709 684.707,-709 684.707,-697 684.707,-697 684.707,-691 690.707,-685 696.707,-685"/>
<text text-anchor="middle" x="935.667" y="-705.9" font-family="Courier,monospace" font-weight="bold" font-size="9.00">/Users/slaughter/git/OHI&#45;Science/ohibc/prep/lsp/vHS/spatial/howe_sound_watershed_500m.tif </text>
<text text-anchor="middle" x="935.667" y="-695.1" font-family="Courier,monospace" font-weight="bold" font-size="9.00"> 98c477e500188e52b2399aec3cc8d1cecefa6315c5ed6bf6f36f8252e7c6103c</text>
</g>
<!-- ohibc run 1&#45;&gt;98c477e500188e52b2399aec3cc8d1cecefa6315c5ed6bf6f36f8252e7c6103c -->
<g id="edge26" class="edge"><title>ohibc run 1&#45;&gt;98c477e500188e52b2399aec3cc8d1cecefa6315c5ed6bf6f36f8252e7c6103c</title>
<path fill="none" stroke="black" d="M593.436,-391.23C603.396,-449.858 635.083,-630.131 679.308,-667 685.076,-671.808 691.19,-676.101 697.58,-679.927"/>
<polygon fill="black" stroke="black" points="696.017,-683.062 706.458,-684.86 699.417,-676.943 696.017,-683.062"/>
</g>
<!-- 93cca45a93cbf195aac755354840087590d4788e06768d7db90481ef9b5d9bc3&#45;&gt;ohibc run 1 -->
<g id="edge11" class="edge"><title>93cca45a93cbf195aac755354840087590d4788e06768d7db90481ef9b5d9bc3&#45;&gt;ohibc run 1</title>
<path fill="none" stroke="black" d="M708.811,-60.8729C698.301,-66.1068 688.375,-72.4186 679.308,-80 637.594,-114.881 606.853,-277.904 595.219,-344.639"/>
<polygon fill="black" stroke="black" points="591.708,-344.401 593.455,-354.85 598.606,-345.592 591.708,-344.401"/>
</g>
<!-- b03456556a5921cabea227978673e751441b2255f877cb183d4eeb1475105593&#45;&gt;ohibc run 1 -->
<g id="edge12" class="edge"><title>b03456556a5921cabea227978673e751441b2255f877cb183d4eeb1475105593&#45;&gt;ohibc run 1</title>
<path fill="none" stroke="black" d="M710.249,-116.102C699.269,-121.251 688.859,-127.484 679.308,-135 612.745,-187.383 595.819,-293.823 591.542,-344.831"/>
<polygon fill="black" stroke="black" points="588.049,-344.605 590.808,-354.835 595.031,-345.118 588.049,-344.605"/>
</g>
<!-- b2cba129ff4ce7c9e83c13b36dc3ff95ce18b4cb4784758b3e94478d4e999b09&#45;&gt;ohibc run 1 -->
<g id="edge13" class="edge"><title>b2cba129ff4ce7c9e83c13b36dc3ff95ce18b4cb4784758b3e94478d4e999b09&#45;&gt;ohibc run 1</title>
<path fill="none" stroke="black" d="M714.11,-170.81C701.809,-175.946 690.087,-182.263 679.308,-190 627.119,-227.46 604.617,-303.27 595.593,-344.736"/>
<polygon fill="black" stroke="black" points="592.122,-344.235 593.532,-354.736 598.978,-345.648 592.122,-344.235"/>
</g>
<!-- d792e5fe1c3c98a24dde23e00895f627ab2c0a102f5852dcc4f02e2ba9dba1eb&#45;&gt;ohibc run 1 -->
<g id="edge1" class="edge"><title>d792e5fe1c3c98a24dde23e00895f627ab2c0a102f5852dcc4f02e2ba9dba1eb&#45;&gt;ohibc run 1</title>
<path fill="none" stroke="black" d="M719.801,-226.039C705.597,-231.007 691.939,-237.231 679.308,-245 641.083,-268.513 616.05,-315.248 602.497,-345.426"/>
<polygon fill="black" stroke="black" points="599.125,-344.402 598.338,-354.968 605.542,-347.199 599.125,-344.402"/>
</g>
<!-- d77ded5e2122bfb7ccdd9a65fae815516063a2249b3173f188e00dc850cefc9c -->
<g id="node6" class="node"><title>d77ded5e2122bfb7ccdd9a65fae815516063a2249b3173f188e00dc850cefc9c</title>
<path fill="#ffe4b5" stroke="black" d="M36,-355C36,-355 486.923,-355 486.923,-355 492.923,-355 498.923,-361 498.923,-367 498.923,-367 498.923,-379 498.923,-379 498.923,-385 492.923,-391 486.923,-391 486.923,-391 36,-391 36,-391 30,-391 24,-385 24,-379 24,-379 24,-367 24,-367 24,-361 30,-355 36,-355"/>
<text text-anchor="middle" x="261.462" y="-375.9" font-family="Courier,monospace" font-weight="bold" font-size="9.00">/Users/slaughter/git/OHI&#45;Science/ohibc/prep/spatial/raster/ohibc_rgn_raster_500m.tif </text>
<text text-anchor="middle" x="261.462" y="-365.1" font-family="Courier,monospace" font-weight="bold" font-size="9.00"> d77ded5e2122bfb7ccdd9a65fae815516063a2249b3173f188e00dc850cefc9c</text>
</g>
<!-- d77ded5e2122bfb7ccdd9a65fae815516063a2249b3173f188e00dc850cefc9c&#45;&gt;ohibc run 1 -->
<g id="edge2" class="edge"><title>d77ded5e2122bfb7ccdd9a65fae815516063a2249b3173f188e00dc850cefc9c&#45;&gt;ohibc run 1</title>
<path fill="none" stroke="black" d="M499.129,-373C508.046,-373 516.588,-373 524.609,-373"/>
<polygon fill="black" stroke="black" points="524.842,-376.5 534.842,-373 524.842,-369.5 524.842,-376.5"/>
</g>
<!-- bc918e73e8ffd7509cfd2f5173f4d13b17e620340a6ddae47c56f3b7697be7b1&#45;&gt;ohibc run 1 -->
<g id="edge3" class="edge"><title>bc918e73e8ffd7509cfd2f5173f4d13b17e620340a6ddae47c56f3b7697be7b1&#45;&gt;ohibc run 1</title>
<path fill="none" stroke="black" d="M805.675,-336.03C764.998,-340.698 720.054,-346.673 679.308,-355 670.786,-356.742 661.909,-358.943 653.202,-361.25"/>
<polygon fill="black" stroke="black" points="652.212,-357.892 643.473,-363.881 654.04,-364.649 652.212,-357.892"/>
</g>
<!-- e4f5dd01c6b2e03bbe67419aa6ea9c20d938478e5523a2b6dc057413f6db2bf5&#45;&gt;ohibc run 1 -->
<g id="edge4" class="edge"><title>e4f5dd01c6b2e03bbe67419aa6ea9c20d938478e5523a2b6dc057413f6db2bf5&#45;&gt;ohibc run 1</title>
<path fill="none" stroke="black" d="M722.456,-379.586C697.682,-379.379 674.073,-378.977 653.837,-378.38"/>
<polygon fill="black" stroke="black" points="653.681,-374.873 643.574,-378.049 653.456,-381.869 653.681,-374.873"/>
</g>
<!-- 5ba2c041bacec6ae9b550d578fb0667523ab9d610f043b13832a0ae6e2c84e10&#45;&gt;ohibc run 1 -->
<g id="edge5" class="edge"><title>5ba2c041bacec6ae9b550d578fb0667523ab9d610f043b13832a0ae6e2c84e10&#45;&gt;ohibc run 1</title>
<path fill="none" stroke="black" d="M678.816,-409.897C661.555,-406.28 642.929,-400.686 627.222,-394.761"/>
<polygon fill="black" stroke="black" points="628.444,-391.481 617.858,-391.044 625.861,-397.987 628.444,-391.481"/>
</g>
<!-- 9c23639cf9ce610831cc57a78e88bd8ff8b67a46253aff39154b57b58ab60832&#45;&gt;ohibc run 1 -->
<g id="edge6" class="edge"><title>9c23639cf9ce610831cc57a78e88bd8ff8b67a46253aff39154b57b58ab60832&#45;&gt;ohibc run 1</title>
<path fill="none" stroke="black" d="M700.891,-473.666C693.521,-471.068 686.306,-468.188 679.308,-465 648.21,-450.835 620.841,-421.494 604.879,-399.51"/>
<polygon fill="black" stroke="black" points="607.704,-397.44 599.144,-391.197 601.942,-401.415 607.704,-397.44"/>
</g>
<!-- 1a8556ac0c8124864b109286a0d419b9213d0084cc831c813a5905e887c291a1&#45;&gt;ohibc run 1 -->
<g id="edge7" class="edge"><title>1a8556ac0c8124864b109286a0d419b9213d0084cc831c813a5905e887c291a1&#45;&gt;ohibc run 1</title>
<path fill="none" stroke="black" d="M722.363,-539.729C707.238,-534.705 692.695,-528.23 679.308,-520 635.513,-493.078 609.178,-435.674 597.424,-400.906"/>
<polygon fill="black" stroke="black" points="600.74,-399.785 594.366,-391.322 594.071,-401.913 600.74,-399.785"/>
</g>
<!-- 85130403e425f79e80e52e3fcaa9c116f5cc0b01c4aa7ea4078c21c08d6ac2fd&#45;&gt;ohibc run 1 -->
<g id="edge8" class="edge"><title>85130403e425f79e80e52e3fcaa9c116f5cc0b01c4aa7ea4078c21c08d6ac2fd&#45;&gt;ohibc run 1</title>
<path fill="none" stroke="black" d="M859.333,-611.021C804.481,-616.185 731.042,-612.06 679.308,-575 621.942,-533.906 600.515,-446.557 593.342,-401.207"/>
<polygon fill="black" stroke="black" points="596.783,-400.547 591.88,-391.155 589.856,-401.554 596.783,-400.547"/>
</g>
<!-- cf404cbfa31cc0f7f4a397632797d8aa416eb621a214569945c833594b16b3c3&#45;&gt;ohibc run 1 -->
<g id="edge9" class="edge"><title>cf404cbfa31cc0f7f4a397632797d8aa416eb621a214569945c833594b16b3c3&#45;&gt;ohibc run 1</title>
<path fill="none" stroke="black" d="M869.422,-666.009C813.168,-673.522 732.788,-671.975 679.308,-630 607.921,-573.97 593.612,-455.9 590.787,-401.366"/>
<polygon fill="black" stroke="black" points="594.27,-400.885 590.352,-391.041 587.276,-401.18 594.27,-400.885"/>
</g>
<!-- 98c477e500188e52b2399aec3cc8d1cecefa6315c5ed6bf6f36f8252e7c6103c&#45;&gt;ohibc run 1 -->
<g id="edge10" class="edge"><title>98c477e500188e52b2399aec3cc8d1cecefa6315c5ed6bf6f36f8252e7c6103c&#45;&gt;ohibc run 1</title>
<path fill="none" stroke="black" d="M873.756,-721.041C816.932,-729.819 733.068,-729.817 679.308,-685 635.529,-648.504 604.037,-471.485 593.745,-401.406"/>
<polygon fill="black" stroke="black" points="597.154,-400.52 592.276,-391.115 590.224,-401.509 597.154,-400.52"/>
</g>
</g>
</svg>
