<?xml version="1.0" encoding="UTF-8" standalone="no"?>
<!DOCTYPE svg PUBLIC "-//W3C//DTD SVG 1.1//EN"
 "http://www.w3.org/Graphics/SVG/1.1/DTD/svg11.dtd">
<!-- Generated by graphviz version 2.38.0 (20140413.2041)
 -->
<!-- Title: yw_data_view Pages: 1 -->
<svg width="1224pt" height="784pt"
 viewBox="0.00 0.00 1224.03 783.60" xmlns="http://www.w3.org/2000/svg" xmlns:xlink="http://www.w3.org/1999/xlink">
<g id="graph0" class="graph" transform="scale(1 1) rotate(0) translate(4 779.6)">
<title>yw_data_view</title>
<polygon fill="white" stroke="none" points="-4,4 -4,-779.6 1220.03,-779.6 1220.03,4 -4,4"/>
<text text-anchor="middle" x="608.013" y="-755.4" font-family="Courier,monospace" font-size="18.00">Upstream graph for multiple runs</text>
<g id="clust1" class="cluster"><title>cluster_workflow</title>
<polygon fill="none" stroke="black" stroke-width="2" points="8,-8 8,-738 1208.03,-738 1208.03,-8 8,-8"/>
</g>
<g id="clust2" class="cluster"><title>cluster_workflow_inner</title>
<polygon fill="none" stroke="white" stroke-width="2" points="16,-16 16,-730 1200.03,-730 1200.03,-16 16,-16"/>
</g>
<!-- ohibc run 1 -->
<g id="node1" class="node"><title>ohibc run 1</title>
<polygon fill="black" stroke="black" points="643.501,-391 534.731,-391 534.731,-355 643.501,-355 643.501,-391"/>
<text text-anchor="middle" x="589.116" y="-368.8" font-family="Courier,monospace" font-weight="bold" font-size="14.00" fill="white">ohibc run 1</text>
</g>
<!-- 5ba2c041bacec6ae9b550d578fb0667523ab9d610f043b13832a0ae6e2c84e10 -->
<g id="node2" class="node"><title>5ba2c041bacec6ae9b550d578fb0667523ab9d610f043b13832a0ae6e2c84e10</title>
<path fill="#ffe4b5" stroke="black" d="M691.308,-25C691.308,-25 1180.03,-25 1180.03,-25 1186.03,-25 1192.03,-31 1192.03,-37 1192.03,-37 1192.03,-49 1192.03,-49 1192.03,-55 1186.03,-61 1180.03,-61 1180.03,-61 691.308,-61 691.308,-61 685.308,-61 679.308,-55 679.308,-49 679.308,-49 679.308,-37 679.308,-37 679.308,-31 685.308,-25 691.308,-25"/>
<text text-anchor="middle" x="935.667" y="-45.9" font-family="Courier,monospace" font-weight="bold" font-size="9.00">/Users/slaughter/git/OHI&#45;Science/ohibc/prep/lsp/vHS/spatial/hs_offshore_3nm_raster_500m.tif </text>
<text text-anchor="middle" x="935.667" y="-35.1" font-family="Courier,monospace" font-weight="bold" font-size="9.00"> 5ba2c041bacec6ae9b550d578fb0667523ab9d610f043b13832a0ae6e2c84e10</text>
</g>
<!-- ohibc run 1&#45;&gt;5ba2c041bacec6ae9b550d578fb0667523ab9d610f043b13832a0ae6e2c84e10 -->
<g id="edge14" class="edge"><title>ohibc run 1&#45;&gt;5ba2c041bacec6ae9b550d578fb0667523ab9d610f043b13832a0ae6e2c84e10</title>
<path fill="none" stroke="black" d="M592.289,-354.939C600.76,-294.112 633.385,-100.401 679.308,-62 729.313,-20.1871 805.452,-16.9908 861.587,-23.621"/>
<polygon fill="black" stroke="black" points="861.454,-27.1336 871.825,-24.9663 862.366,-20.1932 861.454,-27.1336"/>
</g>
<!-- 9c23639cf9ce610831cc57a78e88bd8ff8b67a46253aff39154b57b58ab60832 -->
<g id="node3" class="node"><title>9c23639cf9ce610831cc57a78e88bd8ff8b67a46253aff39154b57b58ab60832</title>
<path fill="#ffe4b5" stroke="black" d="M712.904,-80C712.904,-80 1158.43,-80 1158.43,-80 1164.43,-80 1170.43,-86 1170.43,-92 1170.43,-92 1170.43,-104 1170.43,-104 1170.43,-110 1164.43,-116 1158.43,-116 1158.43,-116 712.904,-116 712.904,-116 706.904,-116 700.904,-110 700.904,-104 700.904,-104 700.904,-92 700.904,-92 700.904,-86 706.904,-80 712.904,-80"/>
<text text-anchor="middle" x="935.667" y="-100.9" font-family="Courier,monospace" font-weight="bold" font-size="9.00">/Users/slaughter/git/OHI&#45;Science/ohibc/prep/lsp/vHS/output/area_protected_total.csv </text>
<text text-anchor="middle" x="935.667" y="-90.1" font-family="Courier,monospace" font-weight="bold" font-size="9.00"> 9c23639cf9ce610831cc57a78e88bd8ff8b67a46253aff39154b57b58ab60832</text>
</g>
<!-- ohibc run 1&#45;&gt;9c23639cf9ce610831cc57a78e88bd8ff8b67a46253aff39154b57b58ab60832 -->
<g id="edge15" class="edge"><title>ohibc run 1&#45;&gt;9c23639cf9ce610831cc57a78e88bd8ff8b67a46253aff39154b57b58ab60832</title>
<path fill="none" stroke="black" d="M590.395,-354.685C592.085,-306.324 603.531,-176.633 679.308,-117 728.882,-77.9876 801.631,-73.5378 856.811,-78.8853"/>
<polygon fill="black" stroke="black" points="856.579,-82.3807 866.901,-79.9917 857.342,-75.4224 856.579,-82.3807"/>
</g>
<!-- 1a8556ac0c8124864b109286a0d419b9213d0084cc831c813a5905e887c291a1 -->
<g id="node4" class="node"><title>1a8556ac0c8124864b109286a0d419b9213d0084cc831c813a5905e887c291a1</title>
<path fill="#ffe4b5" stroke="black" d="M734.501,-135C734.501,-135 1136.83,-135 1136.83,-135 1142.83,-135 1148.83,-141 1148.83,-147 1148.83,-147 1148.83,-159 1148.83,-159 1148.83,-165 1142.83,-171 1136.83,-171 1136.83,-171 734.501,-171 734.501,-171 728.501,-171 722.501,-165 722.501,-159 722.501,-159 722.501,-147 722.501,-147 722.501,-141 728.501,-135 734.501,-135"/>
<text text-anchor="middle" x="935.667" y="-155.9" font-family="Courier,monospace" font-weight="bold" font-size="9.00">/Users/slaughter/git/OHI&#45;Science/ohibc/prep/lsp/vHS/int/zonal_stats_1km.csv </text>
<text text-anchor="middle" x="935.667" y="-145.1" font-family="Courier,monospace" font-weight="bold" font-size="9.00"> 1a8556ac0c8124864b109286a0d419b9213d0084cc831c813a5905e887c291a1</text>
</g>
<!-- ohibc run 1&#45;&gt;1a8556ac0c8124864b109286a0d419b9213d0084cc831c813a5905e887c291a1 -->
<g id="edge16" class="edge"><title>ohibc run 1&#45;&gt;1a8556ac0c8124864b109286a0d419b9213d0084cc831c813a5905e887c291a1</title>
<path fill="none" stroke="black" d="M591.915,-354.928C597.429,-314.044 617.65,-216.258 679.308,-172 726.621,-138.04 792.109,-131.44 844.919,-134.318"/>
<polygon fill="black" stroke="black" points="844.753,-137.815 854.964,-134.988 845.219,-130.831 844.753,-137.815"/>
</g>
<!-- 85130403e425f79e80e52e3fcaa9c116f5cc0b01c4aa7ea4078c21c08d6ac2fd -->
<g id="node5" class="node"><title>85130403e425f79e80e52e3fcaa9c116f5cc0b01c4aa7ea4078c21c08d6ac2fd</title>
<path fill="#ffe4b5" stroke="black" d="M696.707,-190C696.707,-190 1174.63,-190 1174.63,-190 1180.63,-190 1186.63,-196 1186.63,-202 1186.63,-202 1186.63,-214 1186.63,-214 1186.63,-220 1180.63,-226 1174.63,-226 1174.63,-226 696.707,-226 696.707,-226 690.707,-226 684.707,-220 684.707,-214 684.707,-214 684.707,-202 684.707,-202 684.707,-196 690.707,-190 696.707,-190"/>
<text text-anchor="middle" x="935.667" y="-210.9" font-family="Courier,monospace" font-weight="bold" font-size="9.00">/Users/slaughter/git/OHI&#45;Science/ohibc/prep/lsp/vHS/spatial/hs_inland_1km_raster_500m.tif </text>
<text text-anchor="middle" x="935.667" y="-200.1" font-family="Courier,monospace" font-weight="bold" font-size="9.00"> 85130403e425f79e80e52e3fcaa9c116f5cc0b01c4aa7ea4078c21c08d6ac2fd</text>
</g>
<!-- ohibc run 1&#45;&gt;85130403e425f79e80e52e3fcaa9c116f5cc0b01c4aa7ea4078c21c08d6ac2fd -->
<g id="edge17" class="edge"><title>ohibc run 1&#45;&gt;85130403e425f79e80e52e3fcaa9c116f5cc0b01c4aa7ea4078c21c08d6ac2fd</title>
<path fill="none" stroke="black" d="M594.405,-354.788C603.725,-324.072 628.522,-263.545 676.019,-229.552"/>
<polygon fill="black" stroke="black" points="678.095,-232.375 684.492,-223.93 674.224,-226.543 678.095,-232.375"/>
</g>
<!-- cf404cbfa31cc0f7f4a397632797d8aa416eb621a214569945c833594b16b3c3 -->
<g id="node6" class="node"><title>cf404cbfa31cc0f7f4a397632797d8aa416eb621a214569945c833594b16b3c3</title>
<path fill="#ffe4b5" stroke="black" d="M737.2,-245C737.2,-245 1134.13,-245 1134.13,-245 1140.13,-245 1146.13,-251 1146.13,-257 1146.13,-257 1146.13,-269 1146.13,-269 1146.13,-275 1140.13,-281 1134.13,-281 1134.13,-281 737.2,-281 737.2,-281 731.2,-281 725.2,-275 725.2,-269 725.2,-269 725.2,-257 725.2,-257 725.2,-251 731.2,-245 737.2,-245"/>
<text text-anchor="middle" x="935.667" y="-265.9" font-family="Courier,monospace" font-weight="bold" font-size="9.00">/Users/slaughter/git/OHI&#45;Science/ohibc/prep/lsp/vHS/int/zonal_stats_ws.csv </text>
<text text-anchor="middle" x="935.667" y="-255.1" font-family="Courier,monospace" font-weight="bold" font-size="9.00"> cf404cbfa31cc0f7f4a397632797d8aa416eb621a214569945c833594b16b3c3</text>
</g>
<!-- ohibc run 1&#45;&gt;cf404cbfa31cc0f7f4a397632797d8aa416eb621a214569945c833594b16b3c3 -->
<g id="edge18" class="edge"><title>ohibc run 1&#45;&gt;cf404cbfa31cc0f7f4a397632797d8aa416eb621a214569945c833594b16b3c3</title>
<path fill="none" stroke="black" d="M599.188,-354.97C613.743,-332.98 644.26,-297.917 679.308,-282 690.763,-276.798 702.794,-272.402 715.135,-268.71"/>
<polygon fill="black" stroke="black" points="716.421,-271.984 725.094,-265.898 714.519,-265.247 716.421,-271.984"/>
</g>
<!-- 98c477e500188e52b2399aec3cc8d1cecefa6315c5ed6bf6f36f8252e7c6103c -->
<g id="node7" class="node"><title>98c477e500188e52b2399aec3cc8d1cecefa6315c5ed6bf6f36f8252e7c6103c</title>
<path fill="#ffe4b5" stroke="black" d="M696.707,-300C696.707,-300 1174.63,-300 1174.63,-300 1180.63,-300 1186.63,-306 1186.63,-312 1186.63,-312 1186.63,-324 1186.63,-324 1186.63,-330 1180.63,-336 1174.63,-336 1174.63,-336 696.707,-336 696.707,-336 690.707,-336 684.707,-330 684.707,-324 684.707,-324 684.707,-312 684.707,-312 684.707,-306 690.707,-300 696.707,-300"/>
<text text-anchor="middle" x="935.667" y="-320.9" font-family="Courier,monospace" font-weight="bold" font-size="9.00">/Users/slaughter/git/OHI&#45;Science/ohibc/prep/lsp/vHS/spatial/howe_sound_watershed_500m.tif </text>
<text text-anchor="middle" x="935.667" y="-310.1" font-family="Courier,monospace" font-weight="bold" font-size="9.00"> 98c477e500188e52b2399aec3cc8d1cecefa6315c5ed6bf6f36f8252e7c6103c</text>
</g>
<!-- ohibc run 1&#45;&gt;98c477e500188e52b2399aec3cc8d1cecefa6315c5ed6bf6f36f8252e7c6103c -->
<g id="edge19" class="edge"><title>ohibc run 1&#45;&gt;98c477e500188e52b2399aec3cc8d1cecefa6315c5ed6bf6f36f8252e7c6103c</title>
<path fill="none" stroke="black" d="M619.092,-354.895C634.145,-348.89 653.149,-342.939 674.795,-338.043"/>
<polygon fill="black" stroke="black" points="675.532,-341.464 684.574,-335.941 674.062,-334.62 675.532,-341.464"/>
</g>
<!-- 93cca45a93cbf195aac755354840087590d4788e06768d7db90481ef9b5d9bc3 -->
<g id="node8" class="node"><title>93cca45a93cbf195aac755354840087590d4788e06768d7db90481ef9b5d9bc3</title>
<path fill="#ffe4b5" stroke="black" d="M721.003,-355C721.003,-355 1150.33,-355 1150.33,-355 1156.33,-355 1162.33,-361 1162.33,-367 1162.33,-367 1162.33,-379 1162.33,-379 1162.33,-385 1156.33,-391 1150.33,-391 1150.33,-391 721.003,-391 721.003,-391 715.003,-391 709.003,-385 709.003,-379 709.003,-379 709.003,-367 709.003,-367 709.003,-361 715.003,-355 721.003,-355"/>
<text text-anchor="middle" x="935.667" y="-375.9" font-family="Courier,monospace" font-weight="bold" font-size="9.00">/Users/slaughter/git/OHI&#45;Science/ohibc/prep/lsp/vHS/spatial/hs_pep_rast_500m.tif </text>
<text text-anchor="middle" x="935.667" y="-365.1" font-family="Courier,monospace" font-weight="bold" font-size="9.00"> 93cca45a93cbf195aac755354840087590d4788e06768d7db90481ef9b5d9bc3</text>
</g>
<!-- ohibc run 1&#45;&gt;93cca45a93cbf195aac755354840087590d4788e06768d7db90481ef9b5d9bc3 -->
<g id="edge20" class="edge"><title>ohibc run 1&#45;&gt;93cca45a93cbf195aac755354840087590d4788e06768d7db90481ef9b5d9bc3</title>
<path fill="none" stroke="black" d="M643.574,-367.951C659.736,-367.384 678.62,-366.959 698.864,-366.676"/>
<polygon fill="black" stroke="black" points="698.95,-370.175 708.905,-366.548 698.861,-363.175 698.95,-370.175"/>
</g>
<!-- b03456556a5921cabea227978673e751441b2255f877cb183d4eeb1475105593 -->
<g id="node9" class="node"><title>b03456556a5921cabea227978673e751441b2255f877cb183d4eeb1475105593</title>
<path fill="#ffe4b5" stroke="black" d="M718.304,-410C718.304,-410 1153.03,-410 1153.03,-410 1159.03,-410 1165.03,-416 1165.03,-422 1165.03,-422 1165.03,-434 1165.03,-434 1165.03,-440 1159.03,-446 1153.03,-446 1153.03,-446 718.304,-446 718.304,-446 712.304,-446 706.304,-440 706.304,-434 706.304,-434 706.304,-422 706.304,-422 706.304,-416 712.304,-410 718.304,-410"/>
<text text-anchor="middle" x="935.667" y="-430.9" font-family="Courier,monospace" font-weight="bold" font-size="9.00">/Users/slaughter/git/OHI&#45;Science/ohibc/prep/lsp/vHS/spatial/hs_wdpa_rast_500m.tif </text>
<text text-anchor="middle" x="935.667" y="-420.1" font-family="Courier,monospace" font-weight="bold" font-size="9.00"> b03456556a5921cabea227978673e751441b2255f877cb183d4eeb1475105593</text>
</g>
<!-- ohibc run 1&#45;&gt;b03456556a5921cabea227978673e751441b2255f877cb183d4eeb1475105593 -->
<g id="edge21" class="edge"><title>ohibc run 1&#45;&gt;b03456556a5921cabea227978673e751441b2255f877cb183d4eeb1475105593</title>
<path fill="none" stroke="black" d="M643.428,-382.848C655.135,-386.188 667.549,-389.558 679.308,-392 714.219,-399.25 752.241,-404.605 788.022,-408.817"/>
<polygon fill="black" stroke="black" points="787.715,-412.304 798.051,-409.975 788.518,-405.351 787.715,-412.304"/>
</g>
<!-- b2cba129ff4ce7c9e83c13b36dc3ff95ce18b4cb4784758b3e94478d4e999b09 -->
<g id="node10" class="node"><title>b2cba129ff4ce7c9e83c13b36dc3ff95ce18b4cb4784758b3e94478d4e999b09</title>
<path fill="#ffe4b5" stroke="black" d="M726.402,-465C726.402,-465 1144.93,-465 1144.93,-465 1150.93,-465 1156.93,-471 1156.93,-477 1156.93,-477 1156.93,-489 1156.93,-489 1156.93,-495 1150.93,-501 1144.93,-501 1144.93,-501 726.402,-501 726.402,-501 720.402,-501 714.402,-495 714.402,-489 714.402,-489 714.402,-477 714.402,-477 714.402,-471 720.402,-465 726.402,-465"/>
<text text-anchor="middle" x="935.667" y="-485.9" font-family="Courier,monospace" font-weight="bold" font-size="9.00">/Users/slaughter/git/OHI&#45;Science/ohibc/prep/lsp/vHS/int/area_protected_3nm.csv </text>
<text text-anchor="middle" x="935.667" y="-475.1" font-family="Courier,monospace" font-weight="bold" font-size="9.00"> b2cba129ff4ce7c9e83c13b36dc3ff95ce18b4cb4784758b3e94478d4e999b09</text>
</g>
<!-- ohibc run 1&#45;&gt;b2cba129ff4ce7c9e83c13b36dc3ff95ce18b4cb4784758b3e94478d4e999b09 -->
<g id="edge22" class="edge"><title>ohibc run 1&#45;&gt;b2cba129ff4ce7c9e83c13b36dc3ff95ce18b4cb4784758b3e94478d4e999b09</title>
<path fill="none" stroke="black" d="M609.465,-391.022C625.802,-408.657 651.011,-434.111 679.308,-447 692.953,-453.215 707.42,-458.263 722.258,-462.364"/>
<polygon fill="black" stroke="black" points="721.497,-465.782 732.057,-464.924 723.267,-459.01 721.497,-465.782"/>
</g>
<!-- d792e5fe1c3c98a24dde23e00895f627ab2c0a102f5852dcc4f02e2ba9dba1eb -->
<g id="node11" class="node"><title>d792e5fe1c3c98a24dde23e00895f627ab2c0a102f5852dcc4f02e2ba9dba1eb</title>
<path fill="#ffe4b5" stroke="black" d="M726.402,-520C726.402,-520 1144.93,-520 1144.93,-520 1150.93,-520 1156.93,-526 1156.93,-532 1156.93,-532 1156.93,-544 1156.93,-544 1156.93,-550 1150.93,-556 1144.93,-556 1144.93,-556 726.402,-556 726.402,-556 720.402,-556 714.402,-550 714.402,-544 714.402,-544 714.402,-532 714.402,-532 714.402,-526 720.402,-520 726.402,-520"/>
<text text-anchor="middle" x="935.667" y="-540.9" font-family="Courier,monospace" font-weight="bold" font-size="9.00">/Users/slaughter/git/OHI&#45;Science/ohibc/prep/lsp/vHS/int/area_protected_1km.csv </text>
<text text-anchor="middle" x="935.667" y="-530.1" font-family="Courier,monospace" font-weight="bold" font-size="9.00"> d792e5fe1c3c98a24dde23e00895f627ab2c0a102f5852dcc4f02e2ba9dba1eb</text>
</g>
<!-- ohibc run 1&#45;&gt;d792e5fe1c3c98a24dde23e00895f627ab2c0a102f5852dcc4f02e2ba9dba1eb -->
<g id="edge23" class="edge"><title>ohibc run 1&#45;&gt;d792e5fe1c3c98a24dde23e00895f627ab2c0a102f5852dcc4f02e2ba9dba1eb</title>
<path fill="none" stroke="black" d="M598.272,-391.228C610.418,-420.34 636.536,-475.707 679.308,-502 688.302,-507.529 697.817,-512.266 707.68,-516.317"/>
<polygon fill="black" stroke="black" points="706.647,-519.67 717.237,-519.995 709.161,-513.137 706.647,-519.67"/>
</g>
<!-- bc918e73e8ffd7509cfd2f5173f4d13b17e620340a6ddae47c56f3b7697be7b1 -->
<g id="node13" class="node"><title>bc918e73e8ffd7509cfd2f5173f4d13b17e620340a6ddae47c56f3b7697be7b1</title>
<path fill="#ffe4b5" stroke="black" d="M729.102,-575C729.102,-575 1142.23,-575 1142.23,-575 1148.23,-575 1154.23,-581 1154.23,-587 1154.23,-587 1154.23,-599 1154.23,-599 1154.23,-605 1148.23,-611 1142.23,-611 1142.23,-611 729.102,-611 729.102,-611 723.102,-611 717.102,-605 717.102,-599 717.102,-599 717.102,-587 717.102,-587 717.102,-581 723.102,-575 729.102,-575"/>
<text text-anchor="middle" x="935.667" y="-595.9" font-family="Courier,monospace" font-weight="bold" font-size="9.00">/Users/slaughter/git/OHI&#45;Science/ohibc/prep/lsp/vHS/int/area_protected_ws.csv </text>
<text text-anchor="middle" x="935.667" y="-585.1" font-family="Courier,monospace" font-weight="bold" font-size="9.00"> bc918e73e8ffd7509cfd2f5173f4d13b17e620340a6ddae47c56f3b7697be7b1</text>
</g>
<!-- ohibc run 1&#45;&gt;bc918e73e8ffd7509cfd2f5173f4d13b17e620340a6ddae47c56f3b7697be7b1 -->
<g id="edge24" class="edge"><title>ohibc run 1&#45;&gt;bc918e73e8ffd7509cfd2f5173f4d13b17e620340a6ddae47c56f3b7697be7b1</title>
<path fill="none" stroke="black" d="M593.418,-391.105C600.667,-429.173 622.145,-516.051 679.308,-557 688.187,-563.361 697.705,-568.751 707.66,-573.306"/>
<polygon fill="black" stroke="black" points="706.346,-576.551 716.918,-577.259 709.095,-570.114 706.346,-576.551"/>
</g>
<!-- 97b9fe2837579bac75e964fe212402ba5ac595bb539bce4f7897be9cdcb55638 -->
<g id="node14" class="node"><title>97b9fe2837579bac75e964fe212402ba5ac595bb539bce4f7897be9cdcb55638</title>
<path fill="#ffe4b5" stroke="black" d="M742.6,-630C742.6,-630 1128.73,-630 1128.73,-630 1134.73,-630 1140.73,-636 1140.73,-642 1140.73,-642 1140.73,-654 1140.73,-654 1140.73,-660 1134.73,-666 1128.73,-666 1128.73,-666 742.6,-666 742.6,-666 736.6,-666 730.6,-660 730.6,-654 730.6,-654 730.6,-642 730.6,-642 730.6,-636 736.6,-630 742.6,-630"/>
<text text-anchor="middle" x="935.667" y="-650.9" font-family="Courier,monospace" font-weight="bold" font-size="9.00">/Users/slaughter/git/OHI&#45;Science/ohibc/prep/lsp/vHS/output/lsp_trend.csv </text>
<text text-anchor="middle" x="935.667" y="-640.1" font-family="Courier,monospace" font-weight="bold" font-size="9.00"> 97b9fe2837579bac75e964fe212402ba5ac595bb539bce4f7897be9cdcb55638</text>
</g>
<!-- ohibc run 1&#45;&gt;97b9fe2837579bac75e964fe212402ba5ac595bb539bce4f7897be9cdcb55638 -->
<g id="edge25" class="edge"><title>ohibc run 1&#45;&gt;97b9fe2837579bac75e964fe212402ba5ac595bb539bce4f7897be9cdcb55638</title>
<path fill="none" stroke="black" d="M590.509,-391.026C592.591,-437.682 605.162,-562.805 679.308,-621 691.941,-630.915 706.075,-638.575 721.037,-644.417"/>
<polygon fill="black" stroke="black" points="719.86,-647.713 730.455,-647.823 722.242,-641.13 719.86,-647.713"/>
</g>
<!-- e4f5dd01c6b2e03bbe67419aa6ea9c20d938478e5523a2b6dc057413f6db2bf5 -->
<g id="node15" class="node"><title>e4f5dd01c6b2e03bbe67419aa6ea9c20d938478e5523a2b6dc057413f6db2bf5</title>
<path fill="#ffe4b5" stroke="black" d="M734.501,-685C734.501,-685 1136.83,-685 1136.83,-685 1142.83,-685 1148.83,-691 1148.83,-697 1148.83,-697 1148.83,-709 1148.83,-709 1148.83,-715 1142.83,-721 1136.83,-721 1136.83,-721 734.501,-721 734.501,-721 728.501,-721 722.501,-715 722.501,-709 722.501,-709 722.501,-697 722.501,-697 722.501,-691 728.501,-685 734.501,-685"/>
<text text-anchor="middle" x="935.667" y="-705.9" font-family="Courier,monospace" font-weight="bold" font-size="9.00">/Users/slaughter/git/OHI&#45;Science/ohibc/prep/lsp/vHS/int/zonal_stats_3nm.csv </text>
<text text-anchor="middle" x="935.667" y="-695.1" font-family="Courier,monospace" font-weight="bold" font-size="9.00"> e4f5dd01c6b2e03bbe67419aa6ea9c20d938478e5523a2b6dc057413f6db2bf5</text>
</g>
<!-- ohibc run 1&#45;&gt;e4f5dd01c6b2e03bbe67419aa6ea9c20d938478e5523a2b6dc057413f6db2bf5 -->
<g id="edge26" class="edge"><title>ohibc run 1&#45;&gt;e4f5dd01c6b2e03bbe67419aa6ea9c20d938478e5523a2b6dc057413f6db2bf5</title>
<path fill="none" stroke="black" d="M593.436,-391.23C603.396,-449.858 635.083,-630.131 679.308,-667 689.541,-675.53 700.864,-682.437 712.883,-687.997"/>
<polygon fill="black" stroke="black" points="711.634,-691.27 722.204,-691.992 714.391,-684.836 711.634,-691.27"/>
</g>
<!-- 5ba2c041bacec6ae9b550d578fb0667523ab9d610f043b13832a0ae6e2c84e10&#45;&gt;ohibc run 1 -->
<g id="edge10" class="edge"><title>5ba2c041bacec6ae9b550d578fb0667523ab9d610f043b13832a0ae6e2c84e10&#45;&gt;ohibc run 1</title>
<path fill="none" stroke="black" d="M708.513,-61.0214C698.113,-66.226 688.289,-72.4902 679.308,-80 637.594,-114.881 606.853,-277.904 595.219,-344.639"/>
<polygon fill="black" stroke="black" points="591.708,-344.401 593.455,-354.85 598.606,-345.592 591.708,-344.401"/>
</g>
<!-- 9c23639cf9ce610831cc57a78e88bd8ff8b67a46253aff39154b57b58ab60832&#45;&gt;ohibc run 1 -->
<g id="edge11" class="edge"><title>9c23639cf9ce610831cc57a78e88bd8ff8b67a46253aff39154b57b58ab60832&#45;&gt;ohibc run 1</title>
<path fill="none" stroke="black" d="M710.249,-116.102C699.269,-121.251 688.859,-127.484 679.308,-135 612.745,-187.383 595.819,-293.823 591.542,-344.831"/>
<polygon fill="black" stroke="black" points="588.049,-344.605 590.808,-354.835 595.031,-345.118 588.049,-344.605"/>
</g>
<!-- 1a8556ac0c8124864b109286a0d419b9213d0084cc831c813a5905e887c291a1&#45;&gt;ohibc run 1 -->
<g id="edge12" class="edge"><title>1a8556ac0c8124864b109286a0d419b9213d0084cc831c813a5905e887c291a1&#45;&gt;ohibc run 1</title>
<path fill="none" stroke="black" d="M722.252,-167.61C706.977,-173.254 692.442,-180.573 679.308,-190 627.119,-227.46 604.617,-303.27 595.593,-344.736"/>
<polygon fill="black" stroke="black" points="592.122,-344.235 593.532,-354.736 598.978,-345.648 592.122,-344.235"/>
</g>
<!-- 85130403e425f79e80e52e3fcaa9c116f5cc0b01c4aa7ea4078c21c08d6ac2fd&#45;&gt;ohibc run 1 -->
<g id="edge13" class="edge"><title>85130403e425f79e80e52e3fcaa9c116f5cc0b01c4aa7ea4078c21c08d6ac2fd&#45;&gt;ohibc run 1</title>
<path fill="none" stroke="black" d="M719.801,-226.039C705.597,-231.007 691.939,-237.231 679.308,-245 641.083,-268.513 616.05,-315.248 602.497,-345.426"/>
<polygon fill="black" stroke="black" points="599.125,-344.402 598.338,-354.968 605.542,-347.199 599.125,-344.402"/>
</g>
<!-- cf404cbfa31cc0f7f4a397632797d8aa416eb621a214569945c833594b16b3c3&#45;&gt;ohibc run 1 -->
<g id="edge1" class="edge"><title>cf404cbfa31cc0f7f4a397632797d8aa416eb621a214569945c833594b16b3c3&#45;&gt;ohibc run 1</title>
<path fill="none" stroke="black" d="M736.105,-281.062C716.444,-285.733 697.175,-291.885 679.308,-300 655.06,-311.013 632.981,-331.189 616.855,-347.683"/>
<polygon fill="black" stroke="black" points="614.276,-345.316 609.879,-354.956 619.327,-350.162 614.276,-345.316"/>
</g>
<!-- 98c477e500188e52b2399aec3cc8d1cecefa6315c5ed6bf6f36f8252e7c6103c&#45;&gt;ohibc run 1 -->
<g id="edge2" class="edge"><title>98c477e500188e52b2399aec3cc8d1cecefa6315c5ed6bf6f36f8252e7c6103c&#45;&gt;ohibc run 1</title>
<path fill="none" stroke="black" d="M805.675,-336.03C764.998,-340.698 720.054,-346.673 679.308,-355 670.786,-356.742 661.909,-358.943 653.202,-361.25"/>
<polygon fill="black" stroke="black" points="652.212,-357.892 643.473,-363.881 654.04,-364.649 652.212,-357.892"/>
</g>
<!-- 93cca45a93cbf195aac755354840087590d4788e06768d7db90481ef9b5d9bc3&#45;&gt;ohibc run 1 -->
<g id="edge3" class="edge"><title>93cca45a93cbf195aac755354840087590d4788e06768d7db90481ef9b5d9bc3&#45;&gt;ohibc run 1</title>
<path fill="none" stroke="black" d="M708.905,-379.452C689.003,-379.224 670.158,-378.864 653.587,-378.372"/>
<polygon fill="black" stroke="black" points="653.682,-374.874 643.574,-378.049 653.456,-381.87 653.682,-374.874"/>
</g>
<!-- b03456556a5921cabea227978673e751441b2255f877cb183d4eeb1475105593&#45;&gt;ohibc run 1 -->
<g id="edge4" class="edge"><title>b03456556a5921cabea227978673e751441b2255f877cb183d4eeb1475105593&#45;&gt;ohibc run 1</title>
<path fill="none" stroke="black" d="M705.997,-415.087C696.962,-413.507 688.038,-411.813 679.308,-410 661.937,-406.393 643.139,-400.761 627.299,-394.79"/>
<polygon fill="black" stroke="black" points="628.444,-391.479 617.858,-391.044 625.862,-397.986 628.444,-391.479"/>
</g>
<!-- b2cba129ff4ce7c9e83c13b36dc3ff95ce18b4cb4784758b3e94478d4e999b09&#45;&gt;ohibc run 1 -->
<g id="edge5" class="edge"><title>b2cba129ff4ce7c9e83c13b36dc3ff95ce18b4cb4784758b3e94478d4e999b09&#45;&gt;ohibc run 1</title>
<path fill="none" stroke="black" d="M714.181,-478.002C702.171,-474.383 690.465,-470.082 679.308,-465 648.21,-450.835 620.841,-421.494 604.879,-399.51"/>
<polygon fill="black" stroke="black" points="607.704,-397.44 599.144,-391.197 601.942,-401.415 607.704,-397.44"/>
</g>
<!-- d792e5fe1c3c98a24dde23e00895f627ab2c0a102f5852dcc4f02e2ba9dba1eb&#45;&gt;ohibc run 1 -->
<g id="edge6" class="edge"><title>d792e5fe1c3c98a24dde23e00895f627ab2c0a102f5852dcc4f02e2ba9dba1eb&#45;&gt;ohibc run 1</title>
<path fill="none" stroke="black" d="M714.376,-536.918C702.117,-532.353 690.322,-526.77 679.308,-520 635.513,-493.078 609.178,-435.674 597.424,-400.906"/>
<polygon fill="black" stroke="black" points="600.74,-399.785 594.366,-391.322 594.071,-401.913 600.74,-399.785"/>
</g>
<!-- d77ded5e2122bfb7ccdd9a65fae815516063a2249b3173f188e00dc850cefc9c -->
<g id="node12" class="node"><title>d77ded5e2122bfb7ccdd9a65fae815516063a2249b3173f188e00dc850cefc9c</title>
<path fill="#ffe4b5" stroke="black" d="M36,-355C36,-355 486.923,-355 486.923,-355 492.923,-355 498.923,-361 498.923,-367 498.923,-367 498.923,-379 498.923,-379 498.923,-385 492.923,-391 486.923,-391 486.923,-391 36,-391 36,-391 30,-391 24,-385 24,-379 24,-379 24,-367 24,-367 24,-361 30,-355 36,-355"/>
<text text-anchor="middle" x="261.462" y="-375.9" font-family="Courier,monospace" font-weight="bold" font-size="9.00">/Users/slaughter/git/OHI&#45;Science/ohibc/prep/spatial/raster/ohibc_rgn_raster_500m.tif </text>
<text text-anchor="middle" x="261.462" y="-365.1" font-family="Courier,monospace" font-weight="bold" font-size="9.00"> d77ded5e2122bfb7ccdd9a65fae815516063a2249b3173f188e00dc850cefc9c</text>
</g>
<!-- d77ded5e2122bfb7ccdd9a65fae815516063a2249b3173f188e00dc850cefc9c&#45;&gt;ohibc run 1 -->
<g id="edge7" class="edge"><title>d77ded5e2122bfb7ccdd9a65fae815516063a2249b3173f188e00dc850cefc9c&#45;&gt;ohibc run 1</title>
<path fill="none" stroke="black" d="M499.129,-373C508.046,-373 516.588,-373 524.609,-373"/>
<polygon fill="black" stroke="black" points="524.842,-376.5 534.842,-373 524.842,-369.5 524.842,-376.5"/>
</g>
<!-- bc918e73e8ffd7509cfd2f5173f4d13b17e620340a6ddae47c56f3b7697be7b1&#45;&gt;ohibc run 1 -->
<g id="edge8" class="edge"><title>bc918e73e8ffd7509cfd2f5173f4d13b17e620340a6ddae47c56f3b7697be7b1&#45;&gt;ohibc run 1</title>
<path fill="none" stroke="black" d="M859.333,-611.021C804.481,-616.185 731.042,-612.06 679.308,-575 621.942,-533.906 600.515,-446.557 593.342,-401.207"/>
<polygon fill="black" stroke="black" points="596.783,-400.547 591.88,-391.155 589.856,-401.554 596.783,-400.547"/>
</g>
<!-- e4f5dd01c6b2e03bbe67419aa6ea9c20d938478e5523a2b6dc057413f6db2bf5&#45;&gt;ohibc run 1 -->
<g id="edge9" class="edge"><title>e4f5dd01c6b2e03bbe67419aa6ea9c20d938478e5523a2b6dc057413f6db2bf5&#45;&gt;ohibc run 1</title>
<path fill="none" stroke="black" d="M873.756,-721.041C816.932,-729.819 733.068,-729.817 679.308,-685 635.529,-648.504 604.037,-471.485 593.745,-401.406"/>
<polygon fill="black" stroke="black" points="597.154,-400.52 592.276,-391.115 590.224,-401.509 597.154,-400.52"/>
</g>
</g>
</svg>
