<?xml version="1.0" encoding="UTF-8" standalone="no"?>
<!DOCTYPE svg PUBLIC "-//W3C//DTD SVG 1.1//EN"
 "http://www.w3.org/Graphics/SVG/1.1/DTD/svg11.dtd">
<!-- Generated by graphviz version 2.38.0 (20140413.2041)
 -->
<!-- Title: yw_data_view Pages: 1 -->
<svg width="1213pt" height="770pt"
 viewBox="0.00 0.00 1213.23 769.60" xmlns="http://www.w3.org/2000/svg" xmlns:xlink="http://www.w3.org/1999/xlink">
<g id="graph0" class="graph" transform="scale(1 1) rotate(0) translate(4 765.6)">
<title>yw_data_view</title>
<polygon fill="white" stroke="none" points="-4,4 -4,-765.6 1209.23,-765.6 1209.23,4 -4,4"/>
<text text-anchor="middle" x="602.614" y="-741.4" font-family="Courier,monospace" font-size="18.00">Upstream graph for multiple runs</text>
<g id="clust1" class="cluster"><title>cluster_workflow</title>
<polygon fill="none" stroke="black" stroke-width="2" points="8,-8 8,-724 1197.23,-724 1197.23,-8 8,-8"/>
</g>
<g id="clust2" class="cluster"><title>cluster_workflow_inner</title>
<polygon fill="none" stroke="white" stroke-width="2" points="16,-16 16,-716 1189.23,-716 1189.23,-16 16,-16"/>
</g>
<!-- ohibc run 1 -->
<g id="node1" class="node"><title>ohibc run 1</title>
<polygon fill="black" stroke="black" points="638.102,-384 529.331,-384 529.331,-348 638.102,-348 638.102,-384"/>
<text text-anchor="middle" x="583.717" y="-361.8" font-family="Courier,monospace" font-weight="bold" font-size="14.00" fill="white">ohibc run 1</text>
</g>
<!-- /Users/slaughter/git/OHI&#45;Science/ohibc/prep/lsp/vHS/output/lsp_status.csv -->
<g id="node3" class="node"><title>/Users/slaughter/git/OHI&#45;Science/ohibc/prep/lsp/vHS/output/lsp_status.csv</title>
<path fill="#ffe4b5" stroke="black" d="M1120.7,-60C1120.7,-60 734.434,-60 734.434,-60 728.434,-60 722.434,-54 722.434,-48 722.434,-48 722.434,-36 722.434,-36 722.434,-30 728.434,-24 734.434,-24 734.434,-24 1120.7,-24 1120.7,-24 1126.7,-24 1132.7,-30 1132.7,-36 1132.7,-36 1132.7,-48 1132.7,-48 1132.7,-54 1126.7,-60 1120.7,-60"/>
<text text-anchor="middle" x="927.568" y="-39.3" font-family="Courier,monospace" font-weight="bold" font-size="9.00">/Users/slaughter/git/OHI&#45;Science/ohibc/prep/lsp/vHS/output/lsp_status.csv</text>
</g>
<!-- ohibc run 1&#45;&gt;/Users/slaughter/git/OHI&#45;Science/ohibc/prep/lsp/vHS/output/lsp_status.csv -->
<g id="edge14" class="edge"><title>ohibc run 1&#45;&gt;/Users/slaughter/git/OHI&#45;Science/ohibc/prep/lsp/vHS/output/lsp_status.csv</title>
<path fill="none" stroke="black" d="M583.894,-347.672C582.626,-294.804 586.912,-141.206 673.909,-69 685.674,-59.2354 698.884,-51.6199 712.933,-45.7504"/>
<polygon fill="black" stroke="black" points="714.212,-49.0085 722.279,-42.1405 711.689,-42.4787 714.212,-49.0085"/>
</g>
<!-- /Users/slaughter/git/OHI&#45;Science/ohibc/prep/lsp/vHS/int/area_protected_ws.csv -->
<g id="node4" class="node"><title>/Users/slaughter/git/OHI&#45;Science/ohibc/prep/lsp/vHS/int/area_protected_ws.csv</title>
<path fill="#ffe4b5" stroke="black" d="M1131.3,-114C1131.3,-114 723.837,-114 723.837,-114 717.837,-114 711.837,-108 711.837,-102 711.837,-102 711.837,-90 711.837,-90 711.837,-84 717.837,-78 723.837,-78 723.837,-78 1131.3,-78 1131.3,-78 1137.3,-78 1143.3,-84 1143.3,-90 1143.3,-90 1143.3,-102 1143.3,-102 1143.3,-108 1137.3,-114 1131.3,-114"/>
<text text-anchor="middle" x="927.568" y="-93.3" font-family="Courier,monospace" font-weight="bold" font-size="9.00">/Users/slaughter/git/OHI&#45;Science/ohibc/prep/lsp/vHS/int/area_protected_ws.csv</text>
</g>
<!-- ohibc run 1&#45;&gt;/Users/slaughter/git/OHI&#45;Science/ohibc/prep/lsp/vHS/int/area_protected_ws.csv -->
<g id="edge15" class="edge"><title>ohibc run 1&#45;&gt;/Users/slaughter/git/OHI&#45;Science/ohibc/prep/lsp/vHS/int/area_protected_ws.csv</title>
<path fill="none" stroke="black" d="M585.073,-347.901C586.981,-300.193 598.982,-172.48 673.909,-114 723.18,-75.5441 795.303,-71.3845 849.892,-76.8637"/>
<polygon fill="black" stroke="black" points="849.541,-80.3463 859.871,-77.9929 850.328,-73.3907 849.541,-80.3463"/>
</g>
<!-- /Users/slaughter/git/OHI&#45;Science/ohibc/prep/lsp/vHS/int/zonal_stats_3nm.csv -->
<g id="node5" class="node"><title>/Users/slaughter/git/OHI&#45;Science/ohibc/prep/lsp/vHS/int/zonal_stats_3nm.csv</title>
<path fill="#ffe4b5" stroke="black" d="M1126,-168C1126,-168 729.136,-168 729.136,-168 723.136,-168 717.136,-162 717.136,-156 717.136,-156 717.136,-144 717.136,-144 717.136,-138 723.136,-132 729.136,-132 729.136,-132 1126,-132 1126,-132 1132,-132 1138,-138 1138,-144 1138,-144 1138,-156 1138,-156 1138,-162 1132,-168 1126,-168"/>
<text text-anchor="middle" x="927.568" y="-147.3" font-family="Courier,monospace" font-weight="bold" font-size="9.00">/Users/slaughter/git/OHI&#45;Science/ohibc/prep/lsp/vHS/int/zonal_stats_3nm.csv</text>
</g>
<!-- ohibc run 1&#45;&gt;/Users/slaughter/git/OHI&#45;Science/ohibc/prep/lsp/vHS/int/zonal_stats_3nm.csv -->
<g id="edge16" class="edge"><title>ohibc run 1&#45;&gt;/Users/slaughter/git/OHI&#45;Science/ohibc/prep/lsp/vHS/int/zonal_stats_3nm.csv</title>
<path fill="none" stroke="black" d="M586.624,-347.834C592.362,-307.302 612.998,-211.316 673.909,-168 720.926,-134.565 785.844,-128.245 838.102,-131.261"/>
<polygon fill="black" stroke="black" points="838.155,-134.774 848.376,-131.984 838.646,-127.791 838.155,-134.774"/>
</g>
<!-- /Users/slaughter/git/OHI&#45;Science/ohibc/prep/lsp/vHS/spatial/hs_offshore_3nm_raster_500m.tif -->
<g id="node6" class="node"><title>/Users/slaughter/git/OHI&#45;Science/ohibc/prep/lsp/vHS/spatial/hs_offshore_3nm_raster_500m.tif</title>
<path fill="#ffe4b5" stroke="black" d="M1169.39,-222C1169.39,-222 685.75,-222 685.75,-222 679.75,-222 673.75,-216 673.75,-210 673.75,-210 673.75,-198 673.75,-198 673.75,-192 679.75,-186 685.75,-186 685.75,-186 1169.39,-186 1169.39,-186 1175.39,-186 1181.39,-192 1181.39,-198 1181.39,-198 1181.39,-210 1181.39,-210 1181.39,-216 1175.39,-222 1169.39,-222"/>
<text text-anchor="middle" x="927.568" y="-201.3" font-family="Courier,monospace" font-weight="bold" font-size="9.00">/Users/slaughter/git/OHI&#45;Science/ohibc/prep/lsp/vHS/spatial/hs_offshore_3nm_raster_500m.tif</text>
</g>
<!-- ohibc run 1&#45;&gt;/Users/slaughter/git/OHI&#45;Science/ohibc/prep/lsp/vHS/spatial/hs_offshore_3nm_raster_500m.tif -->
<g id="edge17" class="edge"><title>ohibc run 1&#45;&gt;/Users/slaughter/git/OHI&#45;Science/ohibc/prep/lsp/vHS/spatial/hs_offshore_3nm_raster_500m.tif</title>
<path fill="none" stroke="black" d="M589.06,-347.968C598.403,-317.863 623.049,-258.89 665.252,-227.815"/>
<polygon fill="black" stroke="black" points="667.293,-230.66 673.631,-222.17 663.382,-224.855 667.293,-230.66"/>
</g>
<!-- /Users/slaughter/git/OHI&#45;Science/ohibc/prep/lsp/vHS/output/area_protected_total.csv -->
<g id="node7" class="node"><title>/Users/slaughter/git/OHI&#45;Science/ohibc/prep/lsp/vHS/output/area_protected_total.csv</title>
<path fill="#ffe4b5" stroke="black" d="M1147.69,-276C1147.69,-276 707.443,-276 707.443,-276 701.443,-276 695.443,-270 695.443,-264 695.443,-264 695.443,-252 695.443,-252 695.443,-246 701.443,-240 707.443,-240 707.443,-240 1147.69,-240 1147.69,-240 1153.69,-240 1159.69,-246 1159.69,-252 1159.69,-252 1159.69,-264 1159.69,-264 1159.69,-270 1153.69,-276 1147.69,-276"/>
<text text-anchor="middle" x="927.568" y="-255.3" font-family="Courier,monospace" font-weight="bold" font-size="9.00">/Users/slaughter/git/OHI&#45;Science/ohibc/prep/lsp/vHS/output/area_protected_total.csv</text>
</g>
<!-- ohibc run 1&#45;&gt;/Users/slaughter/git/OHI&#45;Science/ohibc/prep/lsp/vHS/output/area_protected_total.csv -->
<g id="edge18" class="edge"><title>ohibc run 1&#45;&gt;/Users/slaughter/git/OHI&#45;Science/ohibc/prep/lsp/vHS/output/area_protected_total.csv</title>
<path fill="none" stroke="black" d="M594.06,-347.75C608.749,-325.952 639.177,-291.589 673.909,-276 677.814,-274.247 681.786,-272.589 685.815,-271.02"/>
<polygon fill="black" stroke="black" points="687.138,-274.262 695.311,-267.521 684.718,-267.694 687.138,-274.262"/>
</g>
<!-- /Users/slaughter/git/OHI&#45;Science/ohibc/prep/lsp/vHS/int/zonal_stats_1km.csv -->
<g id="node8" class="node"><title>/Users/slaughter/git/OHI&#45;Science/ohibc/prep/lsp/vHS/int/zonal_stats_1km.csv</title>
<path fill="#ffe4b5" stroke="black" d="M1126,-330C1126,-330 729.136,-330 729.136,-330 723.136,-330 717.136,-324 717.136,-318 717.136,-318 717.136,-306 717.136,-306 717.136,-300 723.136,-294 729.136,-294 729.136,-294 1126,-294 1126,-294 1132,-294 1138,-300 1138,-306 1138,-306 1138,-318 1138,-318 1138,-324 1132,-330 1126,-330"/>
<text text-anchor="middle" x="927.568" y="-309.3" font-family="Courier,monospace" font-weight="bold" font-size="9.00">/Users/slaughter/git/OHI&#45;Science/ohibc/prep/lsp/vHS/int/zonal_stats_1km.csv</text>
</g>
<!-- ohibc run 1&#45;&gt;/Users/slaughter/git/OHI&#45;Science/ohibc/prep/lsp/vHS/int/zonal_stats_1km.csv -->
<g id="edge19" class="edge"><title>ohibc run 1&#45;&gt;/Users/slaughter/git/OHI&#45;Science/ohibc/prep/lsp/vHS/int/zonal_stats_1km.csv</title>
<path fill="none" stroke="black" d="M613.689,-347.874C630.967,-340.974 653.455,-334.15 673.909,-330 684.693,-327.812 695.774,-325.794 706.992,-323.941"/>
<polygon fill="black" stroke="black" points="707.561,-327.395 716.881,-322.356 706.453,-320.483 707.561,-327.395"/>
</g>
<!-- /Users/slaughter/git/OHI&#45;Science/ohibc/prep/lsp/vHS/spatial/hs_inland_1km_raster_500m.tif -->
<g id="node9" class="node"><title>/Users/slaughter/git/OHI&#45;Science/ohibc/prep/lsp/vHS/spatial/hs_inland_1km_raster_500m.tif</title>
<path fill="#ffe4b5" stroke="black" d="M1163.59,-384C1163.59,-384 691.548,-384 691.548,-384 685.548,-384 679.548,-378 679.548,-372 679.548,-372 679.548,-360 679.548,-360 679.548,-354 685.548,-348 691.548,-348 691.548,-348 1163.59,-348 1163.59,-348 1169.59,-348 1175.59,-354 1175.59,-360 1175.59,-360 1175.59,-372 1175.59,-372 1175.59,-378 1169.59,-384 1163.59,-384"/>
<text text-anchor="middle" x="927.568" y="-363.3" font-family="Courier,monospace" font-weight="bold" font-size="9.00">/Users/slaughter/git/OHI&#45;Science/ohibc/prep/lsp/vHS/spatial/hs_inland_1km_raster_500m.tif</text>
</g>
<!-- ohibc run 1&#45;&gt;/Users/slaughter/git/OHI&#45;Science/ohibc/prep/lsp/vHS/spatial/hs_inland_1km_raster_500m.tif -->
<g id="edge20" class="edge"><title>ohibc run 1&#45;&gt;/Users/slaughter/git/OHI&#45;Science/ohibc/prep/lsp/vHS/spatial/hs_inland_1km_raster_500m.tif</title>
<path fill="none" stroke="black" d="M638.131,-360.938C647.717,-360.601 658.258,-360.315 669.47,-360.079"/>
<polygon fill="black" stroke="black" points="669.557,-363.578 679.487,-359.885 669.421,-356.579 669.557,-363.578"/>
</g>
<!-- /Users/slaughter/git/OHI&#45;Science/ohibc/prep/lsp/vHS/int/zonal_stats_ws.csv -->
<g id="node10" class="node"><title>/Users/slaughter/git/OHI&#45;Science/ohibc/prep/lsp/vHS/int/zonal_stats_ws.csv</title>
<path fill="#ffe4b5" stroke="black" d="M1123.1,-438C1123.1,-438 732.034,-438 732.034,-438 726.034,-438 720.034,-432 720.034,-426 720.034,-426 720.034,-414 720.034,-414 720.034,-408 726.034,-402 732.034,-402 732.034,-402 1123.1,-402 1123.1,-402 1129.1,-402 1135.1,-408 1135.1,-414 1135.1,-414 1135.1,-426 1135.1,-426 1135.1,-432 1129.1,-438 1123.1,-438"/>
<text text-anchor="middle" x="927.568" y="-417.3" font-family="Courier,monospace" font-weight="bold" font-size="9.00">/Users/slaughter/git/OHI&#45;Science/ohibc/prep/lsp/vHS/int/zonal_stats_ws.csv</text>
</g>
<!-- ohibc run 1&#45;&gt;/Users/slaughter/git/OHI&#45;Science/ohibc/prep/lsp/vHS/int/zonal_stats_ws.csv -->
<g id="edge21" class="edge"><title>ohibc run 1&#45;&gt;/Users/slaughter/git/OHI&#45;Science/ohibc/prep/lsp/vHS/int/zonal_stats_ws.csv</title>
<path fill="none" stroke="black" d="M638.069,-375.143C649.773,-378.359 662.176,-381.619 673.909,-384 709.376,-391.197 748.058,-396.554 784.252,-400.808"/>
<polygon fill="black" stroke="black" points="784.055,-404.308 794.39,-401.979 784.858,-397.354 784.055,-404.308"/>
</g>
<!-- /Users/slaughter/git/OHI&#45;Science/ohibc/prep/lsp/vHS/spatial/howe_sound_watershed_500m.tif -->
<g id="node11" class="node"><title>/Users/slaughter/git/OHI&#45;Science/ohibc/prep/lsp/vHS/spatial/howe_sound_watershed_500m.tif</title>
<path fill="#ffe4b5" stroke="black" d="M1163.59,-492C1163.59,-492 691.548,-492 691.548,-492 685.548,-492 679.548,-486 679.548,-480 679.548,-480 679.548,-468 679.548,-468 679.548,-462 685.548,-456 691.548,-456 691.548,-456 1163.59,-456 1163.59,-456 1169.59,-456 1175.59,-462 1175.59,-468 1175.59,-468 1175.59,-480 1175.59,-480 1175.59,-486 1169.59,-492 1163.59,-492"/>
<text text-anchor="middle" x="927.568" y="-471.3" font-family="Courier,monospace" font-weight="bold" font-size="9.00">/Users/slaughter/git/OHI&#45;Science/ohibc/prep/lsp/vHS/spatial/howe_sound_watershed_500m.tif</text>
</g>
<!-- ohibc run 1&#45;&gt;/Users/slaughter/git/OHI&#45;Science/ohibc/prep/lsp/vHS/spatial/howe_sound_watershed_500m.tif -->
<g id="edge22" class="edge"><title>ohibc run 1&#45;&gt;/Users/slaughter/git/OHI&#45;Science/ohibc/prep/lsp/vHS/spatial/howe_sound_watershed_500m.tif</title>
<path fill="none" stroke="black" d="M604.874,-384.11C621.299,-401.244 646.238,-425.581 673.909,-438 687.858,-444.261 702.66,-449.321 717.83,-453.413"/>
<polygon fill="black" stroke="black" points="717.292,-456.888 727.847,-455.966 719.021,-450.105 717.292,-456.888"/>
</g>
<!-- /Users/slaughter/git/OHI&#45;Science/ohibc/prep/lsp/vHS/spatial/hs_pep_rast_500m.tif -->
<g id="node12" class="node"><title>/Users/slaughter/git/OHI&#45;Science/ohibc/prep/lsp/vHS/spatial/hs_pep_rast_500m.tif</title>
<path fill="#ffe4b5" stroke="black" d="M1139.5,-546C1139.5,-546 715.64,-546 715.64,-546 709.64,-546 703.64,-540 703.64,-534 703.64,-534 703.64,-522 703.64,-522 703.64,-516 709.64,-510 715.64,-510 715.64,-510 1139.5,-510 1139.5,-510 1145.5,-510 1151.5,-516 1151.5,-522 1151.5,-522 1151.5,-534 1151.5,-534 1151.5,-540 1145.5,-546 1139.5,-546"/>
<text text-anchor="middle" x="927.568" y="-525.3" font-family="Courier,monospace" font-weight="bold" font-size="9.00">/Users/slaughter/git/OHI&#45;Science/ohibc/prep/lsp/vHS/spatial/hs_pep_rast_500m.tif</text>
</g>
<!-- ohibc run 1&#45;&gt;/Users/slaughter/git/OHI&#45;Science/ohibc/prep/lsp/vHS/spatial/hs_pep_rast_500m.tif -->
<g id="edge23" class="edge"><title>ohibc run 1&#45;&gt;/Users/slaughter/git/OHI&#45;Science/ohibc/prep/lsp/vHS/spatial/hs_pep_rast_500m.tif</title>
<path fill="none" stroke="black" d="M593.242,-384.193C605.655,-412.742 631.915,-466.444 673.909,-492 682.976,-497.518 692.571,-502.237 702.513,-506.267"/>
<polygon fill="black" stroke="black" points="701.556,-509.647 712.147,-509.922 704.039,-503.102 701.556,-509.647"/>
</g>
<!-- /Users/slaughter/git/OHI&#45;Science/ohibc/prep/lsp/vHS/spatial/hs_wdpa_rast_500m.tif -->
<g id="node13" class="node"><title>/Users/slaughter/git/OHI&#45;Science/ohibc/prep/lsp/vHS/spatial/hs_wdpa_rast_500m.tif</title>
<path fill="#ffe4b5" stroke="black" d="M1142.4,-600C1142.4,-600 712.741,-600 712.741,-600 706.741,-600 700.741,-594 700.741,-588 700.741,-588 700.741,-576 700.741,-576 700.741,-570 706.741,-564 712.741,-564 712.741,-564 1142.4,-564 1142.4,-564 1148.4,-564 1154.4,-570 1154.4,-576 1154.4,-576 1154.4,-588 1154.4,-588 1154.4,-594 1148.4,-600 1142.4,-600"/>
<text text-anchor="middle" x="927.568" y="-579.3" font-family="Courier,monospace" font-weight="bold" font-size="9.00">/Users/slaughter/git/OHI&#45;Science/ohibc/prep/lsp/vHS/spatial/hs_wdpa_rast_500m.tif</text>
</g>
<!-- ohibc run 1&#45;&gt;/Users/slaughter/git/OHI&#45;Science/ohibc/prep/lsp/vHS/spatial/hs_wdpa_rast_500m.tif -->
<g id="edge24" class="edge"><title>ohibc run 1&#45;&gt;/Users/slaughter/git/OHI&#45;Science/ohibc/prep/lsp/vHS/spatial/hs_wdpa_rast_500m.tif</title>
<path fill="none" stroke="black" d="M588.303,-384.218C595.926,-421.736 617.877,-506.153 673.909,-546 681.223,-551.201 688.97,-555.746 697.035,-559.711"/>
<polygon fill="black" stroke="black" points="695.72,-562.959 706.269,-563.945 698.638,-556.595 695.72,-562.959"/>
</g>
<!-- /Users/slaughter/git/OHI&#45;Science/ohibc/prep/lsp/vHS/int/area_protected_3nm.csv -->
<g id="node14" class="node"><title>/Users/slaughter/git/OHI&#45;Science/ohibc/prep/lsp/vHS/int/area_protected_3nm.csv</title>
<path fill="#ffe4b5" stroke="black" d="M1134.2,-654C1134.2,-654 720.938,-654 720.938,-654 714.938,-654 708.938,-648 708.938,-642 708.938,-642 708.938,-630 708.938,-630 708.938,-624 714.938,-618 720.938,-618 720.938,-618 1134.2,-618 1134.2,-618 1140.2,-618 1146.2,-624 1146.2,-630 1146.2,-630 1146.2,-642 1146.2,-642 1146.2,-648 1140.2,-654 1134.2,-654"/>
<text text-anchor="middle" x="927.568" y="-633.3" font-family="Courier,monospace" font-weight="bold" font-size="9.00">/Users/slaughter/git/OHI&#45;Science/ohibc/prep/lsp/vHS/int/area_protected_3nm.csv</text>
</g>
<!-- ohibc run 1&#45;&gt;/Users/slaughter/git/OHI&#45;Science/ohibc/prep/lsp/vHS/int/area_protected_3nm.csv -->
<g id="edge25" class="edge"><title>ohibc run 1&#45;&gt;/Users/slaughter/git/OHI&#45;Science/ohibc/prep/lsp/vHS/int/area_protected_3nm.csv</title>
<path fill="none" stroke="black" d="M585.551,-384.159C588.694,-429.245 603.588,-545.114 673.909,-600 681.929,-606.26 690.555,-611.611 699.612,-616.173"/>
<polygon fill="black" stroke="black" points="698.265,-619.407 708.806,-620.476 701.233,-613.067 698.265,-619.407"/>
</g>
<!-- /Users/slaughter/git/OHI&#45;Science/ohibc/prep/lsp/vHS/int/area_protected_1km.csv -->
<g id="node15" class="node"><title>/Users/slaughter/git/OHI&#45;Science/ohibc/prep/lsp/vHS/int/area_protected_1km.csv</title>
<path fill="#ffe4b5" stroke="black" d="M1134.2,-708C1134.2,-708 720.938,-708 720.938,-708 714.938,-708 708.938,-702 708.938,-696 708.938,-696 708.938,-684 708.938,-684 708.938,-678 714.938,-672 720.938,-672 720.938,-672 1134.2,-672 1134.2,-672 1140.2,-672 1146.2,-678 1146.2,-684 1146.2,-684 1146.2,-696 1146.2,-696 1146.2,-702 1140.2,-708 1134.2,-708"/>
<text text-anchor="middle" x="927.568" y="-687.3" font-family="Courier,monospace" font-weight="bold" font-size="9.00">/Users/slaughter/git/OHI&#45;Science/ohibc/prep/lsp/vHS/int/area_protected_1km.csv</text>
</g>
<!-- ohibc run 1&#45;&gt;/Users/slaughter/git/OHI&#45;Science/ohibc/prep/lsp/vHS/int/area_protected_1km.csv -->
<g id="edge26" class="edge"><title>ohibc run 1&#45;&gt;/Users/slaughter/git/OHI&#45;Science/ohibc/prep/lsp/vHS/int/area_protected_1km.csv</title>
<path fill="none" stroke="black" d="M583.808,-384.274C582.907,-436.186 589.19,-583.685 673.909,-654 681.865,-660.603 690.482,-666.224 699.572,-670.993"/>
<polygon fill="black" stroke="black" points="698.289,-674.261 708.813,-675.483 701.348,-667.965 698.289,-674.261"/>
</g>
<!-- /Users/slaughter/git/OHI&#45;Science/ohibc/prep/spatial/raster/ohibc_rgn_raster_500m.tif -->
<g id="node2" class="node"><title>/Users/slaughter/git/OHI&#45;Science/ohibc/prep/spatial/raster/ohibc_rgn_raster_500m.tif</title>
<path fill="#ffe4b5" stroke="black" d="M481.287,-384C481.287,-384 36.2376,-384 36.2376,-384 30.2376,-384 24.2376,-378 24.2376,-372 24.2376,-372 24.2376,-360 24.2376,-360 24.2376,-354 30.2376,-348 36.2376,-348 36.2376,-348 481.287,-348 481.287,-348 487.287,-348 493.287,-354 493.287,-360 493.287,-360 493.287,-372 493.287,-372 493.287,-378 487.287,-384 481.287,-384"/>
<text text-anchor="middle" x="258.762" y="-363.3" font-family="Courier,monospace" font-weight="bold" font-size="9.00">/Users/slaughter/git/OHI&#45;Science/ohibc/prep/spatial/raster/ohibc_rgn_raster_500m.tif</text>
</g>
<!-- /Users/slaughter/git/OHI&#45;Science/ohibc/prep/spatial/raster/ohibc_rgn_raster_500m.tif&#45;&gt;ohibc run 1 -->
<g id="edge11" class="edge"><title>/Users/slaughter/git/OHI&#45;Science/ohibc/prep/spatial/raster/ohibc_rgn_raster_500m.tif&#45;&gt;ohibc run 1</title>
<path fill="none" stroke="black" d="M493.613,-366C502.53,-366 511.075,-366 519.103,-366"/>
<polygon fill="black" stroke="black" points="519.345,-369.5 529.345,-366 519.345,-362.5 519.345,-369.5"/>
</g>
<!-- /Users/slaughter/git/OHI&#45;Science/ohibc/prep/lsp/vHS/int/area_protected_ws.csv&#45;&gt;ohibc run 1 -->
<g id="edge12" class="edge"><title>/Users/slaughter/git/OHI&#45;Science/ohibc/prep/lsp/vHS/int/area_protected_ws.csv&#45;&gt;ohibc run 1</title>
<path fill="none" stroke="black" d="M711.546,-110.361C698.101,-115.947 685.385,-123.043 673.909,-132 608.395,-183.134 590.989,-287.198 586.375,-337.644"/>
<polygon fill="black" stroke="black" points="582.868,-337.591 585.551,-347.841 589.845,-338.155 582.868,-337.591"/>
</g>
<!-- /Users/slaughter/git/OHI&#45;Science/ohibc/prep/lsp/vHS/int/zonal_stats_3nm.csv&#45;&gt;ohibc run 1 -->
<g id="edge13" class="edge"><title>/Users/slaughter/git/OHI&#45;Science/ohibc/prep/lsp/vHS/int/zonal_stats_3nm.csv&#45;&gt;ohibc run 1</title>
<path fill="none" stroke="black" d="M717.107,-163.789C701.746,-169.35 687.121,-176.605 673.909,-186 622.364,-222.656 599.66,-297.029 590.42,-337.913"/>
<polygon fill="black" stroke="black" points="586.978,-337.27 588.303,-347.782 593.822,-338.738 586.978,-337.27"/>
</g>
<!-- /Users/slaughter/git/OHI&#45;Science/ohibc/prep/lsp/vHS/spatial/hs_offshore_3nm_raster_500m.tif&#45;&gt;ohibc run 1 -->
<g id="edge1" class="edge"><title>/Users/slaughter/git/OHI&#45;Science/ohibc/prep/lsp/vHS/spatial/hs_offshore_3nm_raster_500m.tif&#45;&gt;ohibc run 1</title>
<path fill="none" stroke="black" d="M712.147,-222.078C698.757,-226.828 685.874,-232.719 673.909,-240 636.18,-262.961 611.152,-308.64 597.454,-338.386"/>
<polygon fill="black" stroke="black" points="594.129,-337.25 593.242,-347.807 600.519,-340.107 594.129,-337.25"/>
</g>
<!-- /Users/slaughter/git/OHI&#45;Science/ohibc/prep/lsp/vHS/output/area_protected_total.csv&#45;&gt;ohibc run 1 -->
<g id="edge2" class="edge"><title>/Users/slaughter/git/OHI&#45;Science/ohibc/prep/lsp/vHS/output/area_protected_total.csv&#45;&gt;ohibc run 1</title>
<path fill="none" stroke="black" d="M727.847,-276.034C709.186,-280.52 690.913,-286.368 673.909,-294 649.913,-304.77 627.972,-324.502 611.855,-340.727"/>
<polygon fill="black" stroke="black" points="609.347,-338.286 604.874,-347.89 614.36,-343.172 609.347,-338.286"/>
</g>
<!-- /Users/slaughter/git/OHI&#45;Science/ohibc/prep/lsp/vHS/int/zonal_stats_1km.csv&#45;&gt;ohibc run 1 -->
<g id="edge3" class="edge"><title>/Users/slaughter/git/OHI&#45;Science/ohibc/prep/lsp/vHS/int/zonal_stats_1km.csv&#45;&gt;ohibc run 1</title>
<path fill="none" stroke="black" d="M794.39,-330.021C755.36,-334.455 712.711,-340.126 673.909,-348 665.384,-349.73 656.506,-351.924 647.799,-354.228"/>
<polygon fill="black" stroke="black" points="646.81,-350.87 638.069,-356.857 648.635,-357.627 646.81,-350.87"/>
</g>
<!-- /Users/slaughter/git/OHI&#45;Science/ohibc/prep/lsp/vHS/spatial/hs_inland_1km_raster_500m.tif&#45;&gt;ohibc run 1 -->
<g id="edge4" class="edge"><title>/Users/slaughter/git/OHI&#45;Science/ohibc/prep/lsp/vHS/spatial/hs_inland_1km_raster_500m.tif&#45;&gt;ohibc run 1</title>
<path fill="none" stroke="black" d="M679.487,-372.115C668.493,-371.919 658.027,-371.678 648.334,-371.391"/>
<polygon fill="black" stroke="black" points="648.239,-367.887 638.131,-371.062 648.013,-374.883 648.239,-367.887"/>
</g>
<!-- /Users/slaughter/git/OHI&#45;Science/ohibc/prep/lsp/vHS/int/zonal_stats_ws.csv&#45;&gt;ohibc run 1 -->
<g id="edge5" class="edge"><title>/Users/slaughter/git/OHI&#45;Science/ohibc/prep/lsp/vHS/int/zonal_stats_ws.csv&#45;&gt;ohibc run 1</title>
<path fill="none" stroke="black" d="M719.937,-410.114C704.308,-407.728 688.824,-405.027 673.909,-402 657.131,-398.595 638.983,-393.392 623.466,-387.823"/>
<polygon fill="black" stroke="black" points="624.28,-384.389 613.689,-384.126 621.804,-390.937 624.28,-384.389"/>
</g>
<!-- /Users/slaughter/git/OHI&#45;Science/ohibc/prep/lsp/vHS/spatial/howe_sound_watershed_500m.tif&#45;&gt;ohibc run 1 -->
<g id="edge6" class="edge"><title>/Users/slaughter/git/OHI&#45;Science/ohibc/prep/lsp/vHS/spatial/howe_sound_watershed_500m.tif&#45;&gt;ohibc run 1</title>
<path fill="none" stroke="black" d="M679.384,-458.378C677.546,-457.605 675.72,-456.813 673.909,-456 643.383,-442.299 616.182,-414.095 600.068,-392.666"/>
<polygon fill="black" stroke="black" points="602.719,-390.355 594.06,-384.25 597.022,-394.422 602.719,-390.355"/>
</g>
<!-- /Users/slaughter/git/OHI&#45;Science/ohibc/prep/lsp/vHS/spatial/hs_pep_rast_500m.tif&#45;&gt;ohibc run 1 -->
<g id="edge7" class="edge"><title>/Users/slaughter/git/OHI&#45;Science/ohibc/prep/lsp/vHS/spatial/hs_pep_rast_500m.tif&#45;&gt;ohibc run 1</title>
<path fill="none" stroke="black" d="M703.369,-524.595C693.121,-520.507 683.236,-515.676 673.909,-510 630.85,-483.796 604.334,-428 592.324,-393.872"/>
<polygon fill="black" stroke="black" points="595.531,-392.422 589.06,-384.032 588.887,-394.626 595.531,-392.422"/>
</g>
<!-- /Users/slaughter/git/OHI&#45;Science/ohibc/prep/lsp/vHS/spatial/hs_wdpa_rast_500m.tif&#45;&gt;ohibc run 1 -->
<g id="edge8" class="edge"><title>/Users/slaughter/git/OHI&#45;Science/ohibc/prep/lsp/vHS/spatial/hs_wdpa_rast_500m.tif&#45;&gt;ohibc run 1</title>
<path fill="none" stroke="black" d="M848.376,-600.016C794.579,-604.478 724.06,-599.664 673.909,-564 617.519,-523.899 595.647,-438.656 588.158,-394.063"/>
<polygon fill="black" stroke="black" points="591.615,-393.512 586.624,-384.166 584.697,-394.585 591.615,-393.512"/>
</g>
<!-- /Users/slaughter/git/OHI&#45;Science/ohibc/prep/lsp/vHS/int/area_protected_3nm.csv&#45;&gt;ohibc run 1 -->
<g id="edge9" class="edge"><title>/Users/slaughter/git/OHI&#45;Science/ohibc/prep/lsp/vHS/int/area_protected_3nm.csv&#45;&gt;ohibc run 1</title>
<path fill="none" stroke="black" d="M859.871,-654.007C804.369,-661 726.246,-658.849 673.909,-618 603.812,-563.289 588.79,-447.982 585.582,-394.281"/>
<polygon fill="black" stroke="black" points="589.068,-393.911 585.073,-384.099 582.077,-394.261 589.068,-393.911"/>
</g>
<!-- /Users/slaughter/git/OHI&#45;Science/ohibc/prep/lsp/vHS/int/area_protected_1km.csv&#45;&gt;ohibc run 1 -->
<g id="edge10" class="edge"><title>/Users/slaughter/git/OHI&#45;Science/ohibc/prep/lsp/vHS/int/area_protected_1km.csv&#45;&gt;ohibc run 1</title>
<path fill="none" stroke="black" d="M864.729,-708.023C808.575,-716.36 726.694,-715.811 673.909,-672 589.69,-602.1 582.984,-455.923 583.792,-394.188"/>
<polygon fill="black" stroke="black" points="587.295,-394.087 584.004,-384.016 580.297,-393.941 587.295,-394.087"/>
</g>
</g>
</svg>
