<?xml version="1.0" encoding="UTF-8" standalone="no"?>
<!DOCTYPE svg PUBLIC "-//W3C//DTD SVG 1.1//EN"
 "http://www.w3.org/Graphics/SVG/1.1/DTD/svg11.dtd">
<!-- Generated by graphviz version 2.38.0 (20140413.2041)
 -->
<!-- Title: yw_data_view Pages: 1 -->
<svg width="668pt" height="518pt"
 viewBox="0.00 0.00 668.00 517.60" xmlns="http://www.w3.org/2000/svg" xmlns:xlink="http://www.w3.org/1999/xlink">
<g id="graph0" class="graph" transform="scale(1 1) rotate(0) translate(4 513.6)">
<title>yw_data_view</title>
<polygon fill="white" stroke="none" points="-4,4 -4,-513.6 664,-513.6 664,4 -4,4"/>
<text text-anchor="middle" x="330" y="-489.4" font-family="Courier,monospace" font-size="18.00">setup_BC_WDPA_polygons</text>
<g id="clust1" class="cluster"><title>cluster_workflow</title>
<polygon fill="none" stroke="black" stroke-width="2" points="8,-62 8,-418 652,-418 652,-62 8,-62"/>
</g>
<g id="clust2" class="cluster"><title>cluster_workflow_inner</title>
<polygon fill="none" stroke="white" stroke-width="2" points="16,-70 16,-410 644,-410 644,-70 16,-70"/>
</g>
<g id="clust3" class="cluster"><title>cluster_inflows</title>
<polygon fill="none" stroke="white" stroke-width="2" points="507,-426 507,-472 585,-472 585,-426 507,-426"/>
</g>
<g id="clust4" class="cluster"><title>cluster_inflows_inner</title>
<polygon fill="none" stroke="white" stroke-width="2" points="515,-434 515,-464 577,-464 577,-434 515,-434"/>
</g>
<g id="clust5" class="cluster"><title>cluster_outflows</title>
<polygon fill="none" stroke="white" stroke-width="2" points="276,-8 276,-54 322,-54 322,-8 276,-8"/>
</g>
<g id="clust6" class="cluster"><title>cluster_outflows_inner</title>
<polygon fill="none" stroke="white" stroke-width="2" points="284,-16 284,-46 314,-46 314,-16 284,-16"/>
</g>
<!-- Set_up_default_BC_projection_to_BC_Albers_and_start_provenance_tracking -->
<g id="node1" class="node"><title>Set_up_default_BC_projection_to_BC_Albers_and_start_provenance_tracking</title>
<polygon fill="#ccffcc" stroke="black" points="636.301,-330 23.6993,-330 23.6993,-294 636.301,-294 636.301,-330"/>
<text text-anchor="middle" x="330" y="-307.8" font-family="Courier,monospace" font-size="14.00">Set_up_default_BC_projection_to_BC_Albers_and_start_provenance_tracking</text>
</g>
<!-- BC_specific_polygon_subset_of_WDPA_global_dataset -->
<g id="node4" class="node"><title>BC_specific_polygon_subset_of_WDPA_global_dataset</title>
<path fill="#ffffcc" stroke="black" d="M468.771,-114C468.771,-114 129.229,-114 129.229,-114 123.229,-114 117.229,-108 117.229,-102 117.229,-102 117.229,-90 117.229,-90 117.229,-84 123.229,-78 129.229,-78 129.229,-78 468.771,-78 468.771,-78 474.771,-78 480.771,-84 480.771,-90 480.771,-90 480.771,-102 480.771,-102 480.771,-108 474.771,-114 468.771,-114"/>
<text text-anchor="middle" x="299" y="-91.8" font-family="Helvetica,sans-Serif" font-size="14.00">BC_specific_polygon_subset_of_WDPA_global_dataset</text>
</g>
<!-- Set_up_default_BC_projection_to_BC_Albers_and_start_provenance_tracking&#45;&gt;BC_specific_polygon_subset_of_WDPA_global_dataset -->
<g id="edge4" class="edge"><title>Set_up_default_BC_projection_to_BC_Albers_and_start_provenance_tracking&#45;&gt;BC_specific_polygon_subset_of_WDPA_global_dataset</title>
<path fill="none" stroke="black" d="M280.62,-293.962C235.114,-275.311 170.337,-240.575 141,-186 133.424,-171.907 131.657,-162.989 141,-150 150.957,-136.158 164.703,-125.88 179.966,-118.259"/>
<polygon fill="black" stroke="black" points="181.475,-121.418 189.11,-114.073 178.561,-115.053 181.475,-121.418"/>
</g>
<!-- dir_goal -->
<g id="node5" class="node"><title>dir_goal</title>
<path fill="#ffffcc" stroke="black" d="M352.787,-258C352.787,-258 311.213,-258 311.213,-258 305.213,-258 299.213,-252 299.213,-246 299.213,-246 299.213,-234 299.213,-234 299.213,-228 305.213,-222 311.213,-222 311.213,-222 352.787,-222 352.787,-222 358.787,-222 364.787,-228 364.787,-234 364.787,-234 364.787,-246 364.787,-246 364.787,-252 358.787,-258 352.787,-258"/>
<text text-anchor="middle" x="332" y="-235.8" font-family="Helvetica,sans-Serif" font-size="14.00">dir_goal</text>
</g>
<!-- Set_up_default_BC_projection_to_BC_Albers_and_start_provenance_tracking&#45;&gt;dir_goal -->
<g id="edge5" class="edge"><title>Set_up_default_BC_projection_to_BC_Albers_and_start_provenance_tracking&#45;&gt;dir_goal</title>
<path fill="none" stroke="black" d="M330.494,-293.697C330.715,-285.983 330.98,-276.712 331.225,-268.112"/>
<polygon fill="black" stroke="black" points="334.724,-268.2 331.511,-258.104 327.727,-268 334.724,-268.2"/>
</g>
<!-- create_BC_specific_polygon_subset_of_WDPA_global_dataset -->
<g id="node2" class="node"><title>create_BC_specific_polygon_subset_of_WDPA_global_dataset</title>
<polygon fill="#ccffcc" stroke="black" points="636.322,-186 149.678,-186 149.678,-150 636.322,-150 636.322,-186"/>
<text text-anchor="middle" x="393" y="-163.8" font-family="Courier,monospace" font-size="14.00">create_BC_specific_polygon_subset_of_WDPA_global_dataset</text>
</g>
<!-- create_BC_specific_polygon_subset_of_WDPA_global_dataset&#45;&gt;BC_specific_polygon_subset_of_WDPA_global_dataset -->
<g id="edge6" class="edge"><title>create_BC_specific_polygon_subset_of_WDPA_global_dataset&#45;&gt;BC_specific_polygon_subset_of_WDPA_global_dataset</title>
<path fill="none" stroke="black" d="M369.764,-149.697C357.812,-140.796 343.077,-129.823 330.153,-120.199"/>
<polygon fill="black" stroke="black" points="332.08,-117.27 321.969,-114.104 327.899,-122.884 332.08,-117.27"/>
</g>
<!-- original_WDPA_MPA_global_dataset -->
<g id="node3" class="node"><title>original_WDPA_MPA_global_dataset</title>
<path fill="#ffffcc" stroke="black" d="M621.825,-258C621.825,-258 398.175,-258 398.175,-258 392.175,-258 386.175,-252 386.175,-246 386.175,-246 386.175,-234 386.175,-234 386.175,-228 392.175,-222 398.175,-222 398.175,-222 621.825,-222 621.825,-222 627.825,-222 633.825,-228 633.825,-234 633.825,-234 633.825,-246 633.825,-246 633.825,-252 627.825,-258 621.825,-258"/>
<text text-anchor="middle" x="510" y="-235.8" font-family="Helvetica,sans-Serif" font-size="14.00">original_WDPA_MPA_global_dataset</text>
</g>
<!-- original_WDPA_MPA_global_dataset&#45;&gt;create_BC_specific_polygon_subset_of_WDPA_global_dataset -->
<g id="edge1" class="edge"><title>original_WDPA_MPA_global_dataset&#45;&gt;create_BC_specific_polygon_subset_of_WDPA_global_dataset</title>
<path fill="none" stroke="black" d="M481.379,-221.876C466.081,-212.724 447.057,-201.342 430.582,-191.485"/>
<polygon fill="black" stroke="black" points="432.11,-188.32 421.731,-186.19 428.516,-194.327 432.11,-188.32"/>
</g>
<!-- BC_specific_polygon_subset_of_WDPA_global_dataset_outflow -->
<g id="node9" class="node"><title>BC_specific_polygon_subset_of_WDPA_global_dataset_outflow</title>
<ellipse fill="none" stroke="black" cx="299" cy="-31" rx="7" ry="7"/>
</g>
<!-- BC_specific_polygon_subset_of_WDPA_global_dataset&#45;&gt;BC_specific_polygon_subset_of_WDPA_global_dataset_outflow -->
<g id="edge9" class="edge"><title>BC_specific_polygon_subset_of_WDPA_global_dataset&#45;&gt;BC_specific_polygon_subset_of_WDPA_global_dataset_outflow</title>
<path fill="none" stroke="black" d="M299,-77.785C299,-68.6656 299,-57.5197 299,-48.5085"/>
<polygon fill="black" stroke="black" points="302.5,-48.242 299,-38.242 295.5,-48.2421 302.5,-48.242"/>
</g>
<!-- dir_goal&#45;&gt;create_BC_specific_polygon_subset_of_WDPA_global_dataset -->
<g id="edge2" class="edge"><title>dir_goal&#45;&gt;create_BC_specific_polygon_subset_of_WDPA_global_dataset</title>
<path fill="none" stroke="black" d="M347.079,-221.697C354.392,-213.305 363.31,-203.07 371.335,-193.861"/>
<polygon fill="black" stroke="black" points="374.164,-195.943 378.095,-186.104 368.886,-191.344 374.164,-195.943"/>
</g>
<!-- setup_R -->
<g id="node6" class="node"><title>setup_R</title>
<path fill="#ffffcc" stroke="black" d="M485.128,-402C485.128,-402 440.872,-402 440.872,-402 434.872,-402 428.872,-396 428.872,-390 428.872,-390 428.872,-378 428.872,-378 428.872,-372 434.872,-366 440.872,-366 440.872,-366 485.128,-366 485.128,-366 491.128,-366 497.128,-372 497.128,-378 497.128,-378 497.128,-390 497.128,-390 497.128,-396 491.128,-402 485.128,-402"/>
<text text-anchor="middle" x="463" y="-379.8" font-family="Helvetica,sans-Serif" font-size="14.00">setup_R</text>
</g>
<!-- setup_R&#45;&gt;Set_up_default_BC_projection_to_BC_Albers_and_start_provenance_tracking -->
<g id="edge3" class="edge"><title>setup_R&#45;&gt;Set_up_default_BC_projection_to_BC_Albers_and_start_provenance_tracking</title>
<path fill="none" stroke="black" d="M430.465,-365.876C412.753,-356.554 390.647,-344.919 371.684,-334.939"/>
<polygon fill="black" stroke="black" points="373.14,-331.75 362.661,-330.19 369.88,-337.944 373.14,-331.75"/>
</g>
<!-- setup_R_inflow -->
<g id="node7" class="node"><title>setup_R_inflow</title>
<ellipse fill="none" stroke="black" cx="530" cy="-449" rx="7" ry="7"/>
</g>
<!-- setup_R_inflow&#45;&gt;setup_R -->
<g id="edge7" class="edge"><title>setup_R_inflow&#45;&gt;setup_R</title>
<path fill="none" stroke="black" d="M525.182,-443.469C517.536,-436.28 502.099,-421.765 488.52,-408.996"/>
<polygon fill="black" stroke="black" points="490.911,-406.44 481.228,-402.14 486.115,-411.54 490.911,-406.44"/>
</g>
<!-- original_WDPA_MPA_global_dataset_inflow -->
<g id="node8" class="node"><title>original_WDPA_MPA_global_dataset_inflow</title>
<ellipse fill="none" stroke="black" cx="562" cy="-449" rx="7" ry="7"/>
</g>
<!-- original_WDPA_MPA_global_dataset_inflow&#45;&gt;original_WDPA_MPA_global_dataset -->
<g id="edge8" class="edge"><title>original_WDPA_MPA_global_dataset_inflow&#45;&gt;original_WDPA_MPA_global_dataset</title>
<path fill="none" stroke="black" d="M567.363,-444.018C591.034,-425.96 683.322,-350.214 645,-294 635.604,-280.217 622.03,-270.018 607.07,-262.472"/>
<polygon fill="black" stroke="black" points="608.147,-259.115 597.6,-258.107 605.217,-265.472 608.147,-259.115"/>
</g>
</g>
</svg>
