<?xml version="1.0" encoding="UTF-8" standalone="no"?>
<!DOCTYPE svg PUBLIC "-//W3C//DTD SVG 1.1//EN"
 "http://www.w3.org/Graphics/SVG/1.1/DTD/svg11.dtd">
<!-- Generated by graphviz version 2.38.0 (20140413.2041)
 -->
<!-- Title: yw_data_view Pages: 1 -->
<svg width="668pt" height="525pt"
 viewBox="0.00 0.00 668.00 525.40" xmlns="http://www.w3.org/2000/svg" xmlns:xlink="http://www.w3.org/1999/xlink">
<g id="graph0" class="graph" transform="scale(1 1) rotate(0) translate(4 521.4)">
<title>yw_data_view</title>
<polygon fill="white" stroke="none" points="-4,4 -4,-521.4 664,-521.4 664,4 -4,4"/>
<text text-anchor="middle" x="330" y="-497.2" font-family="Courier,monospace" font-size="18.00">setup_BC_WDPA_polygons</text>
<g id="clust1" class="cluster"><title>cluster_workflow</title>
<polygon fill="none" stroke="black" stroke-width="2" points="8,-62 8,-425.8 652,-425.8 652,-62 8,-62"/>
</g>
<g id="clust2" class="cluster"><title>cluster_workflow_inner</title>
<polygon fill="none" stroke="white" stroke-width="2" points="16,-70 16,-417.8 644,-417.8 644,-70 16,-70"/>
</g>
<g id="clust3" class="cluster"><title>cluster_inflows</title>
<polygon fill="none" stroke="white" stroke-width="2" points="507,-433.8 507,-479.8 585,-479.8 585,-433.8 507,-433.8"/>
</g>
<g id="clust4" class="cluster"><title>cluster_inflows_inner</title>
<polygon fill="none" stroke="white" stroke-width="2" points="515,-441.8 515,-471.8 577,-471.8 577,-441.8 515,-441.8"/>
</g>
<g id="clust5" class="cluster"><title>cluster_outflows</title>
<polygon fill="none" stroke="white" stroke-width="2" points="255,-8 255,-54 301,-54 301,-8 255,-8"/>
</g>
<g id="clust6" class="cluster"><title>cluster_outflows_inner</title>
<polygon fill="none" stroke="white" stroke-width="2" points="263,-16 263,-46 293,-46 293,-16 263,-16"/>
</g>
<!-- Set_up_default_BC_projection_to_BC_Albers_and_start_provenance_tracking -->
<g id="node1" class="node"><title>Set_up_default_BC_projection_to_BC_Albers_and_start_provenance_tracking</title>
<polygon fill="#ccffcc" stroke="black" points="636.301,-335.2 23.6993,-335.2 23.6993,-299.2 636.301,-299.2 636.301,-335.2"/>
<text text-anchor="middle" x="330" y="-313" font-family="Courier,monospace" font-size="14.00">Set_up_default_BC_projection_to_BC_Albers_and_start_provenance_tracking</text>
</g>
<!-- dir_goal -->
<g id="node5" class="node"><title>dir_goal</title>
<path fill="#ffffcc" stroke="black" d="M363,-261.9C363,-261.9 333,-261.9 333,-261.9 327,-261.9 321,-255.9 321,-249.9 321,-249.9 321,-237.9 321,-237.9 321,-231.9 327,-225.9 333,-225.9 333,-225.9 363,-225.9 363,-225.9 369,-225.9 375,-231.9 375,-237.9 375,-237.9 375,-249.9 375,-249.9 375,-255.9 369,-261.9 363,-261.9"/>
<text text-anchor="middle" x="348" y="-241.2" font-family="Helvetica,sans-Serif" font-size="9.00">dir_goal</text>
</g>
<!-- Set_up_default_BC_projection_to_BC_Albers_and_start_provenance_tracking&#45;&gt;dir_goal -->
<g id="edge5" class="edge"><title>Set_up_default_BC_projection_to_BC_Albers_and_start_provenance_tracking&#45;&gt;dir_goal</title>
<path fill="none" stroke="black" d="M334.357,-298.94C336.414,-290.795 338.915,-280.887 341.212,-271.79"/>
<polygon fill="black" stroke="black" points="344.629,-272.553 343.683,-262.001 337.841,-270.84 344.629,-272.553"/>
</g>
<!-- BC_specific_polygon_subset_of_WDPA_global_dataset -->
<g id="node6" class="node"><title>BC_specific_polygon_subset_of_WDPA_global_dataset</title>
<path fill="#ffe4b5" stroke="black" d="M149.722,-78.5C149.722,-78.5 406.278,-78.5 406.278,-78.5 412.278,-78.5 418.278,-84.5 418.278,-90.5 418.278,-90.5 418.278,-104.1 418.278,-104.1 418.278,-110.1 412.278,-116.1 406.278,-116.1 406.278,-116.1 149.722,-116.1 149.722,-116.1 143.722,-116.1 137.722,-110.1 137.722,-104.1 137.722,-104.1 137.722,-90.5 137.722,-90.5 137.722,-84.5 143.722,-78.5 149.722,-78.5"/>
<text text-anchor="middle" x="278" y="-104" font-family="Courier,monospace" font-weight="bold" font-size="9.00">BC_specific_polygon_subset_of_WDPA_global_dataset</text>
<polyline fill="none" stroke="black" points="137.722,-97.3 418.278,-97.3 "/>
<text text-anchor="middle" x="278" y="-85.2" font-family="Courier,monospace" font-weight="bold" font-size="9.00"> </text>
</g>
<!-- Set_up_default_BC_projection_to_BC_Albers_and_start_provenance_tracking&#45;&gt;BC_specific_polygon_subset_of_WDPA_global_dataset -->
<g id="edge4" class="edge"><title>Set_up_default_BC_projection_to_BC_Albers_and_start_provenance_tracking&#45;&gt;BC_specific_polygon_subset_of_WDPA_global_dataset</title>
<path fill="none" stroke="black" d="M281.882,-299.066C236.295,-279.947 170.541,-244.187 141,-188.6 133.491,-174.471 132.009,-165.835 141,-152.6 150.554,-138.535 164.381,-128.114 179.617,-120.392"/>
<polygon fill="black" stroke="black" points="181.141,-123.543 188.73,-116.15 178.187,-117.197 181.141,-123.543"/>
</g>
<!-- create_BC_specific_polygon_subset_of_WDPA_global_dataset -->
<g id="node2" class="node"><title>create_BC_specific_polygon_subset_of_WDPA_global_dataset</title>
<polygon fill="#ccffcc" stroke="black" points="636.322,-188.6 149.678,-188.6 149.678,-152.6 636.322,-152.6 636.322,-188.6"/>
<text text-anchor="middle" x="393" y="-166.4" font-family="Courier,monospace" font-size="14.00">create_BC_specific_polygon_subset_of_WDPA_global_dataset</text>
</g>
<!-- create_BC_specific_polygon_subset_of_WDPA_global_dataset&#45;&gt;BC_specific_polygon_subset_of_WDPA_global_dataset -->
<g id="edge6" class="edge"><title>create_BC_specific_polygon_subset_of_WDPA_global_dataset&#45;&gt;BC_specific_polygon_subset_of_WDPA_global_dataset</title>
<path fill="none" stroke="black" d="M365.455,-152.522C350.541,-143.275 331.898,-131.716 315.66,-121.649"/>
<polygon fill="black" stroke="black" points="317.269,-118.529 306.925,-116.234 313.58,-124.478 317.269,-118.529"/>
</g>
<!-- setup_R -->
<g id="node3" class="node"><title>setup_R</title>
<path fill="#ffe4b5" stroke="black" d="M448,-371.7C448,-371.7 478,-371.7 478,-371.7 484,-371.7 490,-377.7 490,-383.7 490,-383.7 490,-397.3 490,-397.3 490,-403.3 484,-409.3 478,-409.3 478,-409.3 448,-409.3 448,-409.3 442,-409.3 436,-403.3 436,-397.3 436,-397.3 436,-383.7 436,-383.7 436,-377.7 442,-371.7 448,-371.7"/>
<text text-anchor="middle" x="462.897" y="-397.2" font-family="Courier,monospace" font-weight="bold" font-size="9.00">setup_R</text>
<polyline fill="none" stroke="black" points="436,-390.5 489.794,-390.5 "/>
<text text-anchor="middle" x="462.897" y="-378.4" font-family="Courier,monospace" font-weight="bold" font-size="9.00"> </text>
</g>
<!-- setup_R&#45;&gt;Set_up_default_BC_projection_to_BC_Albers_and_start_provenance_tracking -->
<g id="edge3" class="edge"><title>setup_R&#45;&gt;Set_up_default_BC_projection_to_BC_Albers_and_start_provenance_tracking</title>
<path fill="none" stroke="black" d="M435.765,-374.899C417.096,-364.891 391.995,-351.435 370.931,-340.143"/>
<polygon fill="black" stroke="black" points="372.346,-336.93 361.879,-335.29 369.039,-343.1 372.346,-336.93"/>
</g>
<!-- original_WDPA_MPA_global_dataset -->
<g id="node4" class="node"><title>original_WDPA_MPA_global_dataset</title>
<path fill="#ffe4b5" stroke="black" d="M440.614,-225.1C440.614,-225.1 605.386,-225.1 605.386,-225.1 611.386,-225.1 617.386,-231.1 617.386,-237.1 617.386,-237.1 617.386,-250.7 617.386,-250.7 617.386,-256.7 611.386,-262.7 605.386,-262.7 605.386,-262.7 440.614,-262.7 440.614,-262.7 434.614,-262.7 428.614,-256.7 428.614,-250.7 428.614,-250.7 428.614,-237.1 428.614,-237.1 428.614,-231.1 434.614,-225.1 440.614,-225.1"/>
<text text-anchor="middle" x="523" y="-250.6" font-family="Courier,monospace" font-weight="bold" font-size="9.00">original_WDPA_MPA_global_dataset</text>
<polyline fill="none" stroke="black" points="428.614,-243.9 617.386,-243.9 "/>
<text text-anchor="middle" x="523" y="-231.8" font-family="Courier,monospace" font-weight="bold" font-size="9.00"> </text>
</g>
<!-- original_WDPA_MPA_global_dataset&#45;&gt;create_BC_specific_polygon_subset_of_WDPA_global_dataset -->
<g id="edge1" class="edge"><title>original_WDPA_MPA_global_dataset&#45;&gt;create_BC_specific_polygon_subset_of_WDPA_global_dataset</title>
<path fill="none" stroke="black" d="M490.531,-225.092C473.081,-215.521 451.416,-203.639 432.941,-193.506"/>
<polygon fill="black" stroke="black" points="434.611,-190.43 424.16,-188.69 431.245,-196.568 434.611,-190.43"/>
</g>
<!-- dir_goal&#45;&gt;create_BC_specific_polygon_subset_of_WDPA_global_dataset -->
<g id="edge2" class="edge"><title>dir_goal&#45;&gt;create_BC_specific_polygon_subset_of_WDPA_global_dataset</title>
<path fill="none" stroke="black" d="M358.893,-225.64C364.255,-217.145 370.827,-206.731 376.767,-197.321"/>
<polygon fill="black" stroke="black" points="379.83,-199.025 382.207,-188.701 373.91,-195.289 379.83,-199.025"/>
</g>
<!-- BC_specific_polygon_subset_of_WDPA_global_dataset_outflow -->
<g id="node9" class="node"><title>BC_specific_polygon_subset_of_WDPA_global_dataset_outflow</title>
<ellipse fill="none" stroke="black" cx="278" cy="-31" rx="7" ry="7"/>
</g>
<!-- BC_specific_polygon_subset_of_WDPA_global_dataset&#45;&gt;BC_specific_polygon_subset_of_WDPA_global_dataset_outflow -->
<g id="edge9" class="edge"><title>BC_specific_polygon_subset_of_WDPA_global_dataset&#45;&gt;BC_specific_polygon_subset_of_WDPA_global_dataset_outflow</title>
<path fill="none" stroke="black" d="M278,-78.3889C278,-68.9828 278,-57.5389 278,-48.3712"/>
<polygon fill="black" stroke="black" points="281.5,-48.3008 278,-38.3008 274.5,-48.3008 281.5,-48.3008"/>
</g>
<!-- setup_R_inflow -->
<g id="node7" class="node"><title>setup_R_inflow</title>
<ellipse fill="none" stroke="black" cx="530" cy="-456.8" rx="7" ry="7"/>
</g>
<!-- setup_R_inflow&#45;&gt;setup_R -->
<g id="edge7" class="edge"><title>setup_R_inflow&#45;&gt;setup_R</title>
<path fill="none" stroke="black" d="M525.182,-451.176C517.637,-443.935 502.507,-429.414 489.06,-416.51"/>
<polygon fill="black" stroke="black" points="491.46,-413.962 481.822,-409.564 486.614,-419.013 491.46,-413.962"/>
</g>
<!-- original_WDPA_MPA_global_dataset_inflow -->
<g id="node8" class="node"><title>original_WDPA_MPA_global_dataset_inflow</title>
<ellipse fill="none" stroke="black" cx="562" cy="-456.8" rx="7" ry="7"/>
</g>
<!-- original_WDPA_MPA_global_dataset_inflow&#45;&gt;original_WDPA_MPA_global_dataset -->
<g id="edge8" class="edge"><title>original_WDPA_MPA_global_dataset_inflow&#45;&gt;original_WDPA_MPA_global_dataset</title>
<path fill="none" stroke="black" d="M567.326,-451.781C590.839,-433.548 682.543,-357.003 645,-299.2 636.007,-285.353 622.575,-275.008 607.871,-267.288"/>
<polygon fill="black" stroke="black" points="609.107,-263.999 598.579,-262.813 606.069,-270.306 609.107,-263.999"/>
</g>
</g>
</svg>
