<?xml version="1.0" encoding="UTF-8" standalone="no"?>
<!DOCTYPE svg PUBLIC "-//W3C//DTD SVG 1.1//EN"
 "http://www.w3.org/Graphics/SVG/1.1/DTD/svg11.dtd">
<!-- Generated by graphviz version 2.38.0 (20140413.2041)
 -->
<!-- Title: Workflow Pages: 1 -->
<svg width="986pt" height="691pt"
 viewBox="0.00 0.00 986.00 690.80" xmlns="http://www.w3.org/2000/svg" xmlns:xlink="http://www.w3.org/1999/xlink">
<g id="graph0" class="graph" transform="scale(1 1) rotate(0) translate(4 686.8)">
<title>Workflow</title>
<polygon fill="white" stroke="none" points="-4,4 -4,-686.8 982,-686.8 982,4 -4,4"/>
<text text-anchor="middle" x="489" y="-662.6" font-family="Courier,monospace" font-size="18.00">combine_scores_for_inland_and_offshore_and_outputs</text>
<g id="clust1" class="cluster"><title>cluster_workflow_box_outer</title>
<polygon fill="none" stroke="black" stroke-width="2" points="8,-62 8,-591.2 970,-591.2 970,-62 8,-62"/>
</g>
<g id="clust2" class="cluster"><title>cluster_workflow_box_inner</title>
<polygon fill="none" stroke="white" stroke-width="2" points="16,-70 16,-583.2 962,-583.2 962,-70 16,-70"/>
</g>
<g id="clust3" class="cluster"><title>cluster_input_ports_group_outer</title>
<polygon fill="none" stroke="white" points="443,-599.2 443,-645.2 585,-645.2 585,-599.2 443,-599.2"/>
</g>
<g id="clust4" class="cluster"><title>cluster_input_ports_group_inner</title>
<polygon fill="none" stroke="white" points="451,-607.2 451,-637.2 577,-637.2 577,-607.2 451,-607.2"/>
</g>
<g id="clust5" class="cluster"><title>cluster_output_ports_group_outer</title>
<polygon fill="none" stroke="white" points="391,-8 391,-54 437,-54 437,-8 391,-8"/>
</g>
<g id="clust6" class="cluster"><title>cluster_output_ports_group_inner</title>
<polygon fill="none" stroke="white" points="399,-16 399,-46 429,-46 429,-16 399,-16"/>
</g>
<!-- set_up_configuration_and_start_provenance_tracking -->
<g id="node1" class="node"><title>set_up_configuration_and_start_provenance_tracking</title>
<polygon fill="#ccffcc" stroke="black" points="464.93,-503.2 29.07,-503.2 29.07,-467.2 464.93,-467.2 464.93,-503.2"/>
<text text-anchor="middle" x="247" y="-481" font-family="Courier,monospace" font-size="14.00">set_up_configuration_and_start_provenance_tracking</text>
</g>
<!-- dir_goal -->
<g id="node12" class="node"><title>dir_goal</title>
<path fill="#fcfcfc" stroke="black" d="M77.7871,-423.9C77.7871,-423.9 36.2129,-423.9 36.2129,-423.9 30.2129,-423.9 24.2129,-417.9 24.2129,-411.9 24.2129,-411.9 24.2129,-399.9 24.2129,-399.9 24.2129,-393.9 30.2129,-387.9 36.2129,-387.9 36.2129,-387.9 77.7871,-387.9 77.7871,-387.9 83.7871,-387.9 89.7871,-393.9 89.7871,-399.9 89.7871,-399.9 89.7871,-411.9 89.7871,-411.9 89.7871,-417.9 83.7871,-423.9 77.7871,-423.9"/>
<text text-anchor="middle" x="57" y="-401.7" font-family="Helvetica,sans-Serif" font-size="14.00">dir_goal</text>
</g>
<!-- set_up_configuration_and_start_provenance_tracking&#45;&gt;dir_goal -->
<g id="edge1" class="edge"><title>set_up_configuration_and_start_provenance_tracking&#45;&gt;dir_goal</title>
<path fill="none" stroke="black" d="M191.93,-467.118C163.662,-457.693 128.959,-445.092 99,-431.2 97.4237,-430.469 95.8289,-429.698 94.2286,-428.899"/>
<polygon fill="black" stroke="black" points="95.5743,-425.651 85.0963,-424.082 92.3086,-431.843 95.5743,-425.651"/>
</g>
<!-- read_in_protected_area_and_total_area_by_region -->
<g id="node2" class="node"><title>read_in_protected_area_and_total_area_by_region</title>
<polygon fill="#ccffcc" stroke="black" points="619.234,-344.6 208.766,-344.6 208.766,-308.6 619.234,-308.6 619.234,-344.6"/>
<text text-anchor="middle" x="414" y="-322.4" font-family="Courier,monospace" font-size="14.00">read_in_protected_area_and_total_area_by_region</text>
</g>
<!-- prot_1km -->
<g id="node9" class="node"><title>prot_1km</title>
<path fill="#ffffcc" stroke="black" d="M346.343,-272.6C346.343,-272.6 295.657,-272.6 295.657,-272.6 289.657,-272.6 283.657,-266.6 283.657,-260.6 283.657,-260.6 283.657,-248.6 283.657,-248.6 283.657,-242.6 289.657,-236.6 295.657,-236.6 295.657,-236.6 346.343,-236.6 346.343,-236.6 352.343,-236.6 358.343,-242.6 358.343,-248.6 358.343,-248.6 358.343,-260.6 358.343,-260.6 358.343,-266.6 352.343,-272.6 346.343,-272.6"/>
<text text-anchor="middle" x="321" y="-250.4" font-family="Helvetica,sans-Serif" font-size="14.00">prot_1km</text>
</g>
<!-- read_in_protected_area_and_total_area_by_region&#45;&gt;prot_1km -->
<g id="edge4" class="edge"><title>read_in_protected_area_and_total_area_by_region&#45;&gt;prot_1km</title>
<path fill="none" stroke="black" d="M391.011,-308.297C379.186,-299.396 364.608,-288.423 351.821,-278.799"/>
<polygon fill="black" stroke="black" points="353.819,-275.922 343.724,-272.704 349.609,-281.515 353.819,-275.922"/>
</g>
<!-- prot_3nm -->
<g id="node10" class="node"><title>prot_3nm</title>
<path fill="#ffffcc" stroke="black" d="M439.625,-272.6C439.625,-272.6 388.375,-272.6 388.375,-272.6 382.375,-272.6 376.375,-266.6 376.375,-260.6 376.375,-260.6 376.375,-248.6 376.375,-248.6 376.375,-242.6 382.375,-236.6 388.375,-236.6 388.375,-236.6 439.625,-236.6 439.625,-236.6 445.625,-236.6 451.625,-242.6 451.625,-248.6 451.625,-248.6 451.625,-260.6 451.625,-260.6 451.625,-266.6 445.625,-272.6 439.625,-272.6"/>
<text text-anchor="middle" x="414" y="-250.4" font-family="Helvetica,sans-Serif" font-size="14.00">prot_3nm</text>
</g>
<!-- read_in_protected_area_and_total_area_by_region&#45;&gt;prot_3nm -->
<g id="edge3" class="edge"><title>read_in_protected_area_and_total_area_by_region&#45;&gt;prot_3nm</title>
<path fill="none" stroke="black" d="M414,-308.297C414,-300.583 414,-291.312 414,-282.712"/>
<polygon fill="black" stroke="black" points="417.5,-282.704 414,-272.704 410.5,-282.704 417.5,-282.704"/>
</g>
<!-- prot_ws -->
<g id="node11" class="node"><title>prot_ws</title>
<path fill="#ffffcc" stroke="black" d="M522.506,-272.6C522.506,-272.6 481.494,-272.6 481.494,-272.6 475.494,-272.6 469.494,-266.6 469.494,-260.6 469.494,-260.6 469.494,-248.6 469.494,-248.6 469.494,-242.6 475.494,-236.6 481.494,-236.6 481.494,-236.6 522.506,-236.6 522.506,-236.6 528.506,-236.6 534.506,-242.6 534.506,-248.6 534.506,-248.6 534.506,-260.6 534.506,-260.6 534.506,-266.6 528.506,-272.6 522.506,-272.6"/>
<text text-anchor="middle" x="502" y="-250.4" font-family="Helvetica,sans-Serif" font-size="14.00">prot_ws</text>
</g>
<!-- read_in_protected_area_and_total_area_by_region&#45;&gt;prot_ws -->
<g id="edge5" class="edge"><title>read_in_protected_area_and_total_area_by_region&#45;&gt;prot_ws</title>
<path fill="none" stroke="black" d="M435.753,-308.297C446.836,-299.481 460.474,-288.632 472.49,-279.074"/>
<polygon fill="black" stroke="black" points="474.85,-281.669 480.497,-272.704 470.493,-276.19 474.85,-281.669"/>
</g>
<!-- combine_scores_for_inland_and_offshore_and_write_output_layers -->
<g id="node3" class="node"><title>combine_scores_for_inland_and_offshore_and_write_output_layers</title>
<polygon fill="#ccffcc" stroke="black" points="682.213,-200.6 145.787,-200.6 145.787,-164.6 682.213,-164.6 682.213,-200.6"/>
<text text-anchor="middle" x="414" y="-178.4" font-family="Courier,monospace" font-size="14.00">combine_scores_for_inland_and_offshore_and_write_output_layers</text>
</g>
<!-- area_protected_total_file -->
<g id="node4" class="node"><title>area_protected_total_file</title>
<path fill="#ffffcc" stroke="black" d="M277.561,-78.5C277.561,-78.5 550.439,-78.5 550.439,-78.5 556.439,-78.5 562.439,-84.5 562.439,-90.5 562.439,-90.5 562.439,-116.1 562.439,-116.1 562.439,-122.1 556.439,-128.1 550.439,-128.1 550.439,-128.1 277.561,-128.1 277.561,-128.1 271.561,-128.1 265.561,-122.1 265.561,-116.1 265.561,-116.1 265.561,-90.5 265.561,-90.5 265.561,-84.5 271.561,-78.5 277.561,-78.5"/>
<text text-anchor="middle" x="414" y="-111.5" font-family="Helvetica,sans-Serif" font-size="14.00">area_protected_total_file</text>
<polyline fill="none" stroke="black" points="265.561,-103.3 562.439,-103.3 "/>
<text text-anchor="middle" x="414" y="-86.7" font-family="Helvetica,sans-Serif" font-size="14.00">file:{dir_goal}/output/area_protected_total.csv</text>
</g>
<!-- combine_scores_for_inland_and_offshore_and_write_output_layers&#45;&gt;area_protected_total_file -->
<g id="edge10" class="edge"><title>combine_scores_for_inland_and_offshore_and_write_output_layers&#45;&gt;area_protected_total_file</title>
<path fill="none" stroke="black" d="M414,-164.445C414,-156.689 414,-147.239 414,-138.15"/>
<polygon fill="black" stroke="black" points="417.5,-138.15 414,-128.15 410.5,-138.15 417.5,-138.15"/>
</g>
<!-- area_protected_total_file_output_port -->
<g id="node17" class="node"><title>area_protected_total_file_output_port</title>
<ellipse fill="#ffffff" stroke="black" cx="414" cy="-31" rx="7" ry="7"/>
</g>
<!-- area_protected_total_file&#45;&gt;area_protected_total_file_output_port -->
<g id="edge18" class="edge"><title>area_protected_total_file&#45;&gt;area_protected_total_file_output_port</title>
<path fill="none" stroke="black" d="M414,-78.4996C414,-68.5289 414,-57.1933 414,-48.2105"/>
<polygon fill="black" stroke="black" points="417.5,-48.0698 414,-38.0698 410.5,-48.0699 417.5,-48.0698"/>
</g>
<!-- setup_R -->
<g id="node5" class="node"><title>setup_R</title>
<path fill="#ffffcc" stroke="black" d="M363.128,-575.2C363.128,-575.2 318.872,-575.2 318.872,-575.2 312.872,-575.2 306.872,-569.2 306.872,-563.2 306.872,-563.2 306.872,-551.2 306.872,-551.2 306.872,-545.2 312.872,-539.2 318.872,-539.2 318.872,-539.2 363.128,-539.2 363.128,-539.2 369.128,-539.2 375.128,-545.2 375.128,-551.2 375.128,-551.2 375.128,-563.2 375.128,-563.2 375.128,-569.2 369.128,-575.2 363.128,-575.2"/>
<text text-anchor="middle" x="341" y="-553" font-family="Helvetica,sans-Serif" font-size="14.00">setup_R</text>
</g>
<!-- setup_R&#45;&gt;set_up_configuration_and_start_provenance_tracking -->
<g id="edge2" class="edge"><title>setup_R&#45;&gt;set_up_configuration_and_start_provenance_tracking</title>
<path fill="none" stroke="black" d="M317.764,-538.897C305.812,-529.996 291.077,-519.023 278.153,-509.399"/>
<polygon fill="black" stroke="black" points="280.08,-506.47 269.969,-503.304 275.899,-512.084 280.08,-506.47"/>
</g>
<!-- prot_3nm_stats_file -->
<g id="node6" class="node"><title>prot_3nm_stats_file</title>
<path fill="#ffffcc" stroke="black" d="M120.241,-381.1C120.241,-381.1 369.759,-381.1 369.759,-381.1 375.759,-381.1 381.759,-387.1 381.759,-393.1 381.759,-393.1 381.759,-418.7 381.759,-418.7 381.759,-424.7 375.759,-430.7 369.759,-430.7 369.759,-430.7 120.241,-430.7 120.241,-430.7 114.241,-430.7 108.241,-424.7 108.241,-418.7 108.241,-418.7 108.241,-393.1 108.241,-393.1 108.241,-387.1 114.241,-381.1 120.241,-381.1"/>
<text text-anchor="middle" x="245" y="-414.1" font-family="Helvetica,sans-Serif" font-size="14.00">prot_3nm_stats_file</text>
<polyline fill="none" stroke="black" points="108.241,-405.9 381.759,-405.9 "/>
<text text-anchor="middle" x="245" y="-389.3" font-family="Helvetica,sans-Serif" font-size="14.00">file:{dir_goal}/int/area_protected_3nm.csv</text>
</g>
<!-- prot_3nm_stats_file&#45;&gt;read_in_protected_area_and_total_area_by_region -->
<g id="edge7" class="edge"><title>prot_3nm_stats_file&#45;&gt;read_in_protected_area_and_total_area_by_region</title>
<path fill="none" stroke="black" d="M297.085,-381.077C319.557,-370.798 345.635,-358.87 367.452,-348.891"/>
<polygon fill="black" stroke="black" points="369.194,-351.943 376.832,-344.6 366.282,-345.577 369.194,-351.943"/>
</g>
<!-- prot_1km_stats_file -->
<g id="node7" class="node"><title>prot_1km_stats_file</title>
<path fill="#ffffcc" stroke="black" d="M411.632,-381.1C411.632,-381.1 660.368,-381.1 660.368,-381.1 666.368,-381.1 672.368,-387.1 672.368,-393.1 672.368,-393.1 672.368,-418.7 672.368,-418.7 672.368,-424.7 666.368,-430.7 660.368,-430.7 660.368,-430.7 411.632,-430.7 411.632,-430.7 405.632,-430.7 399.632,-424.7 399.632,-418.7 399.632,-418.7 399.632,-393.1 399.632,-393.1 399.632,-387.1 405.632,-381.1 411.632,-381.1"/>
<text text-anchor="middle" x="536" y="-414.1" font-family="Helvetica,sans-Serif" font-size="14.00">prot_1km_stats_file</text>
<polyline fill="none" stroke="black" points="399.632,-405.9 672.368,-405.9 "/>
<text text-anchor="middle" x="536" y="-389.3" font-family="Helvetica,sans-Serif" font-size="14.00">file:{dir_goal}/int/area_protected_1km.csv</text>
</g>
<!-- prot_1km_stats_file&#45;&gt;read_in_protected_area_and_total_area_by_region -->
<g id="edge8" class="edge"><title>prot_1km_stats_file&#45;&gt;read_in_protected_area_and_total_area_by_region</title>
<path fill="none" stroke="black" d="M498.4,-381.077C482.833,-371.213 464.868,-359.83 449.524,-350.108"/>
<polygon fill="black" stroke="black" points="451.152,-346.996 440.831,-344.6 447.405,-352.909 451.152,-346.996"/>
</g>
<!-- prot_ws_stats_file -->
<g id="node8" class="node"><title>prot_ws_stats_file</title>
<path fill="#ffffcc" stroke="black" d="M702.3,-381.1C702.3,-381.1 941.7,-381.1 941.7,-381.1 947.7,-381.1 953.7,-387.1 953.7,-393.1 953.7,-393.1 953.7,-418.7 953.7,-418.7 953.7,-424.7 947.7,-430.7 941.7,-430.7 941.7,-430.7 702.3,-430.7 702.3,-430.7 696.3,-430.7 690.3,-424.7 690.3,-418.7 690.3,-418.7 690.3,-393.1 690.3,-393.1 690.3,-387.1 696.3,-381.1 702.3,-381.1"/>
<text text-anchor="middle" x="822" y="-414.1" font-family="Helvetica,sans-Serif" font-size="14.00">prot_ws_stats_file</text>
<polyline fill="none" stroke="black" points="690.3,-405.9 953.7,-405.9 "/>
<text text-anchor="middle" x="822" y="-389.3" font-family="Helvetica,sans-Serif" font-size="14.00">file:{dir_goal}/int/area_protected_ws.csv</text>
</g>
<!-- prot_ws_stats_file&#45;&gt;read_in_protected_area_and_total_area_by_region -->
<g id="edge9" class="edge"><title>prot_ws_stats_file&#45;&gt;read_in_protected_area_and_total_area_by_region</title>
<path fill="none" stroke="black" d="M696.257,-381.077C637.625,-369.968 568.827,-356.934 513.833,-346.514"/>
<polygon fill="black" stroke="black" points="514.207,-343.023 503.731,-344.6 512.904,-349.901 514.207,-343.023"/>
</g>
<!-- prot_1km&#45;&gt;combine_scores_for_inland_and_offshore_and_write_output_layers -->
<g id="edge11" class="edge"><title>prot_1km&#45;&gt;combine_scores_for_inland_and_offshore_and_write_output_layers</title>
<path fill="none" stroke="black" d="M343.989,-236.297C355.814,-227.396 370.392,-216.423 383.179,-206.799"/>
<polygon fill="black" stroke="black" points="385.391,-209.515 391.276,-200.704 381.181,-203.922 385.391,-209.515"/>
</g>
<!-- prot_3nm&#45;&gt;combine_scores_for_inland_and_offshore_and_write_output_layers -->
<g id="edge12" class="edge"><title>prot_3nm&#45;&gt;combine_scores_for_inland_and_offshore_and_write_output_layers</title>
<path fill="none" stroke="black" d="M414,-236.297C414,-228.583 414,-219.312 414,-210.712"/>
<polygon fill="black" stroke="black" points="417.5,-210.704 414,-200.704 410.5,-210.704 417.5,-210.704"/>
</g>
<!-- prot_ws&#45;&gt;combine_scores_for_inland_and_offshore_and_write_output_layers -->
<g id="edge13" class="edge"><title>prot_ws&#45;&gt;combine_scores_for_inland_and_offshore_and_write_output_layers</title>
<path fill="none" stroke="black" d="M480.247,-236.297C469.164,-227.481 455.526,-216.632 443.51,-207.074"/>
<polygon fill="black" stroke="black" points="445.507,-204.19 435.503,-200.704 441.15,-209.669 445.507,-204.19"/>
</g>
<!-- dir_goal&#45;&gt;read_in_protected_area_and_total_area_by_region -->
<g id="edge6" class="edge"><title>dir_goal&#45;&gt;read_in_protected_area_and_total_area_by_region</title>
<path fill="none" stroke="black" d="M83.4199,-387.725C88.4433,-385.011 93.7688,-382.484 99,-380.6 142.02,-365.11 190.004,-354.101 235.292,-346.292"/>
<polygon fill="black" stroke="black" points="235.933,-349.733 245.214,-344.624 234.773,-342.83 235.933,-349.733"/>
</g>
<!-- setup_R_input_port -->
<g id="node13" class="node"><title>setup_R_input_port</title>
<ellipse fill="#ffffff" stroke="black" cx="466" cy="-622.2" rx="7" ry="7"/>
</g>
<!-- setup_R_input_port&#45;&gt;setup_R -->
<g id="edge14" class="edge"><title>setup_R_input_port&#45;&gt;setup_R</title>
<path fill="none" stroke="black" d="M459.971,-618.161C446.329,-611.286 412.082,-594.025 383.817,-579.78"/>
<polygon fill="black" stroke="black" points="385.389,-576.653 374.883,-575.277 382.238,-582.903 385.389,-576.653"/>
</g>
<!-- prot_3nm_stats_file_input_port -->
<g id="node14" class="node"><title>prot_3nm_stats_file_input_port</title>
<ellipse fill="#ffffff" stroke="black" cx="498" cy="-622.2" rx="7" ry="7"/>
</g>
<!-- prot_3nm_stats_file_input_port&#45;&gt;prot_3nm_stats_file -->
<g id="edge15" class="edge"><title>prot_3nm_stats_file_input_port&#45;&gt;prot_3nm_stats_file</title>
<path fill="none" stroke="black" d="M499.128,-615.237C503.037,-592.62 513.693,-511.201 474,-467.2 461.455,-453.294 428.835,-441.648 392.017,-432.416"/>
<polygon fill="black" stroke="black" points="392.601,-428.956 382.058,-429.998 390.95,-435.758 392.601,-428.956"/>
</g>
<!-- prot_1km_stats_file_input_port -->
<g id="node15" class="node"><title>prot_1km_stats_file_input_port</title>
<ellipse fill="#ffffff" stroke="black" cx="530" cy="-622.2" rx="7" ry="7"/>
</g>
<!-- prot_1km_stats_file_input_port&#45;&gt;prot_1km_stats_file -->
<g id="edge16" class="edge"><title>prot_1km_stats_file_input_port&#45;&gt;prot_1km_stats_file</title>
<path fill="none" stroke="black" d="M530.173,-615.018C530.88,-589.786 533.576,-493.471 535.04,-441.175"/>
<polygon fill="black" stroke="black" points="538.543,-441.125 535.324,-431.031 531.546,-440.929 538.543,-441.125"/>
</g>
<!-- prot_ws_stats_file_input_port -->
<g id="node16" class="node"><title>prot_ws_stats_file_input_port</title>
<ellipse fill="#ffffff" stroke="black" cx="562" cy="-622.2" rx="7" ry="7"/>
</g>
<!-- prot_ws_stats_file_input_port&#45;&gt;prot_ws_stats_file -->
<g id="edge17" class="edge"><title>prot_ws_stats_file_input_port&#45;&gt;prot_ws_stats_file</title>
<path fill="none" stroke="black" d="M566.962,-617.11C593.623,-595.136 721.041,-490.114 785.083,-437.328"/>
<polygon fill="black" stroke="black" points="787.449,-439.914 792.939,-430.853 782.997,-434.512 787.449,-439.914"/>
</g>
</g>
</svg>
