<?xml version="1.0" encoding="UTF-8" standalone="no"?>
<!DOCTYPE svg PUBLIC "-//W3C//DTD SVG 1.1//EN"
 "http://www.w3.org/Graphics/SVG/1.1/DTD/svg11.dtd">
<!-- Generated by graphviz version 2.38.0 (20140413.2041)
 -->
<!-- Title: yw_data_view Pages: 1 -->
<svg width="851pt" height="669pt"
 viewBox="0.00 0.00 851.00 669.40" xmlns="http://www.w3.org/2000/svg" xmlns:xlink="http://www.w3.org/1999/xlink">
<g id="graph0" class="graph" transform="scale(1 1) rotate(0) translate(4 665.4)">
<title>yw_data_view</title>
<polygon fill="white" stroke="none" points="-4,4 -4,-665.4 847,-665.4 847,4 -4,4"/>
<text text-anchor="middle" x="421.5" y="-641.2" font-family="Courier,monospace" font-size="18.00">combine_scores_for_inland_and_offshore_and_outputs</text>
<g id="clust1" class="cluster"><title>cluster_workflow</title>
<polygon fill="none" stroke="black" stroke-width="2" points="8,-62 8,-569.8 835,-569.8 835,-62 8,-62"/>
</g>
<g id="clust2" class="cluster"><title>cluster_workflow_inner</title>
<polygon fill="none" stroke="white" stroke-width="2" points="16,-70 16,-561.8 827,-561.8 827,-70 16,-70"/>
</g>
<g id="clust3" class="cluster"><title>cluster_inflows</title>
<polygon fill="none" stroke="white" stroke-width="2" points="436,-577.8 436,-623.8 578,-623.8 578,-577.8 436,-577.8"/>
</g>
<g id="clust4" class="cluster"><title>cluster_inflows_inner</title>
<polygon fill="none" stroke="white" stroke-width="2" points="444,-585.8 444,-615.8 570,-615.8 570,-585.8 444,-585.8"/>
</g>
<g id="clust5" class="cluster"><title>cluster_outflows</title>
<polygon fill="none" stroke="white" stroke-width="2" points="356,-8 356,-54 402,-54 402,-8 356,-8"/>
</g>
<g id="clust6" class="cluster"><title>cluster_outflows_inner</title>
<polygon fill="none" stroke="white" stroke-width="2" points="364,-16 364,-46 394,-46 394,-16 364,-16"/>
</g>
<!-- read_in_protected_area_and_total_area_by_region -->
<g id="node1" class="node"><title>read_in_protected_area_and_total_area_by_region</title>
<polygon fill="#ccffcc" stroke="black" points="584.234,-332.6 173.766,-332.6 173.766,-296.6 584.234,-296.6 584.234,-332.6"/>
<text text-anchor="middle" x="379" y="-310.4" font-family="Courier,monospace" font-size="14.00">read_in_protected_area_and_total_area_by_region</text>
</g>
<!-- prot_3nm -->
<g id="node5" class="node"><title>prot_3nm</title>
<path fill="#ffffcc" stroke="black" d="M311.625,-260.6C311.625,-260.6 260.375,-260.6 260.375,-260.6 254.375,-260.6 248.375,-254.6 248.375,-248.6 248.375,-248.6 248.375,-236.6 248.375,-236.6 248.375,-230.6 254.375,-224.6 260.375,-224.6 260.375,-224.6 311.625,-224.6 311.625,-224.6 317.625,-224.6 323.625,-230.6 323.625,-236.6 323.625,-236.6 323.625,-248.6 323.625,-248.6 323.625,-254.6 317.625,-260.6 311.625,-260.6"/>
<text text-anchor="middle" x="286" y="-238.4" font-family="Helvetica,sans-Serif" font-size="14.00">prot_3nm</text>
</g>
<!-- read_in_protected_area_and_total_area_by_region&#45;&gt;prot_3nm -->
<g id="edge10" class="edge"><title>read_in_protected_area_and_total_area_by_region&#45;&gt;prot_3nm</title>
<path fill="none" stroke="black" d="M356.011,-296.297C344.186,-287.396 329.608,-276.423 316.821,-266.799"/>
<polygon fill="black" stroke="black" points="318.819,-263.922 308.724,-260.704 314.609,-269.515 318.819,-263.922"/>
</g>
<!-- prot_1km -->
<g id="node6" class="node"><title>prot_1km</title>
<path fill="#ffffcc" stroke="black" d="M404.343,-260.6C404.343,-260.6 353.657,-260.6 353.657,-260.6 347.657,-260.6 341.657,-254.6 341.657,-248.6 341.657,-248.6 341.657,-236.6 341.657,-236.6 341.657,-230.6 347.657,-224.6 353.657,-224.6 353.657,-224.6 404.343,-224.6 404.343,-224.6 410.343,-224.6 416.343,-230.6 416.343,-236.6 416.343,-236.6 416.343,-248.6 416.343,-248.6 416.343,-254.6 410.343,-260.6 404.343,-260.6"/>
<text text-anchor="middle" x="379" y="-238.4" font-family="Helvetica,sans-Serif" font-size="14.00">prot_1km</text>
</g>
<!-- read_in_protected_area_and_total_area_by_region&#45;&gt;prot_1km -->
<g id="edge11" class="edge"><title>read_in_protected_area_and_total_area_by_region&#45;&gt;prot_1km</title>
<path fill="none" stroke="black" d="M379,-296.297C379,-288.583 379,-279.312 379,-270.712"/>
<polygon fill="black" stroke="black" points="382.5,-270.704 379,-260.704 375.5,-270.704 382.5,-270.704"/>
</g>
<!-- prot_ws -->
<g id="node7" class="node"><title>prot_ws</title>
<path fill="#ffffcc" stroke="black" d="M487.506,-260.6C487.506,-260.6 446.494,-260.6 446.494,-260.6 440.494,-260.6 434.494,-254.6 434.494,-248.6 434.494,-248.6 434.494,-236.6 434.494,-236.6 434.494,-230.6 440.494,-224.6 446.494,-224.6 446.494,-224.6 487.506,-224.6 487.506,-224.6 493.506,-224.6 499.506,-230.6 499.506,-236.6 499.506,-236.6 499.506,-248.6 499.506,-248.6 499.506,-254.6 493.506,-260.6 487.506,-260.6"/>
<text text-anchor="middle" x="467" y="-238.4" font-family="Helvetica,sans-Serif" font-size="14.00">prot_ws</text>
</g>
<!-- read_in_protected_area_and_total_area_by_region&#45;&gt;prot_ws -->
<g id="edge12" class="edge"><title>read_in_protected_area_and_total_area_by_region&#45;&gt;prot_ws</title>
<path fill="none" stroke="black" d="M400.753,-296.297C411.836,-287.481 425.474,-276.632 437.49,-267.074"/>
<polygon fill="black" stroke="black" points="439.85,-269.669 445.497,-260.704 435.493,-264.19 439.85,-269.669"/>
</g>
<!-- set_up_configuration_and_start_provenance_tracking -->
<g id="node2" class="node"><title>set_up_configuration_and_start_provenance_tracking</title>
<polygon fill="#ccffcc" stroke="black" points="459.93,-479.2 24.07,-479.2 24.07,-443.2 459.93,-443.2 459.93,-479.2"/>
<text text-anchor="middle" x="242" y="-457" font-family="Courier,monospace" font-size="14.00">set_up_configuration_and_start_provenance_tracking</text>
</g>
<!-- dir_goal -->
<g id="node4" class="node"><title>dir_goal</title>
<path fill="#ffffcc" stroke="black" d="M77.7871,-405.9C77.7871,-405.9 36.2129,-405.9 36.2129,-405.9 30.2129,-405.9 24.2129,-399.9 24.2129,-393.9 24.2129,-393.9 24.2129,-381.9 24.2129,-381.9 24.2129,-375.9 30.2129,-369.9 36.2129,-369.9 36.2129,-369.9 77.7871,-369.9 77.7871,-369.9 83.7871,-369.9 89.7871,-375.9 89.7871,-381.9 89.7871,-381.9 89.7871,-393.9 89.7871,-393.9 89.7871,-399.9 83.7871,-405.9 77.7871,-405.9"/>
<text text-anchor="middle" x="57" y="-383.7" font-family="Helvetica,sans-Serif" font-size="14.00">dir_goal</text>
</g>
<!-- set_up_configuration_and_start_provenance_tracking&#45;&gt;dir_goal -->
<g id="edge9" class="edge"><title>set_up_configuration_and_start_provenance_tracking&#45;&gt;dir_goal</title>
<path fill="none" stroke="black" d="M194.077,-443.197C168.365,-433.9 135.974,-421.913 99.344,-407.247"/>
<polygon fill="black" stroke="black" points="100.525,-403.95 89.9415,-403.461 97.9101,-410.443 100.525,-403.95"/>
</g>
<!-- combine_scores_for_inland_and_offshore_and_write_output_layers -->
<g id="node3" class="node"><title>combine_scores_for_inland_and_offshore_and_write_output_layers</title>
<polygon fill="#ccffcc" stroke="black" points="647.213,-188.6 110.787,-188.6 110.787,-152.6 647.213,-152.6 647.213,-188.6"/>
<text text-anchor="middle" x="379" y="-166.4" font-family="Courier,monospace" font-size="14.00">combine_scores_for_inland_and_offshore_and_write_output_layers</text>
</g>
<!-- area_protected_total_file -->
<g id="node12" class="node"><title>area_protected_total_file</title>
<path fill="#ffe4b5" stroke="black" d="M264.22,-78.5C264.22,-78.5 493.78,-78.5 493.78,-78.5 499.78,-78.5 505.78,-84.5 505.78,-90.5 505.78,-90.5 505.78,-104.1 505.78,-104.1 505.78,-110.1 499.78,-116.1 493.78,-116.1 493.78,-116.1 264.22,-116.1 264.22,-116.1 258.22,-116.1 252.22,-110.1 252.22,-104.1 252.22,-104.1 252.22,-90.5 252.22,-90.5 252.22,-84.5 258.22,-78.5 264.22,-78.5"/>
<text text-anchor="middle" x="379" y="-104" font-family="Courier,monospace" font-weight="bold" font-size="9.00">area_protected_total_file</text>
<polyline fill="none" stroke="black" points="252.22,-97.3 505.78,-97.3 "/>
<text text-anchor="start" x="260.22" y="-85.2" font-family="Courier,monospace" font-weight="bold" font-size="9.00">prep/lsp/vHS/output/area_protected_total.csv</text>
</g>
<!-- combine_scores_for_inland_and_offshore_and_write_output_layers&#45;&gt;area_protected_total_file -->
<g id="edge13" class="edge"><title>combine_scores_for_inland_and_offshore_and_write_output_layers&#45;&gt;area_protected_total_file</title>
<path fill="none" stroke="black" d="M379,-152.34C379,-144.605 379,-135.279 379,-126.568"/>
<polygon fill="black" stroke="black" points="382.5,-126.396 379,-116.396 375.5,-126.396 382.5,-126.396"/>
</g>
<!-- dir_goal&#45;&gt;read_in_protected_area_and_total_area_by_region -->
<g id="edge7" class="edge"><title>dir_goal&#45;&gt;read_in_protected_area_and_total_area_by_region</title>
<path fill="none" stroke="black" d="M90.215,-371.627C93.1554,-370.519 96.1117,-369.49 99,-368.6 146.34,-354.008 199.482,-342.723 246.646,-334.39"/>
<polygon fill="black" stroke="black" points="247.363,-337.818 256.615,-332.657 246.163,-330.922 247.363,-337.818"/>
</g>
<!-- prot_3nm&#45;&gt;combine_scores_for_inland_and_offshore_and_write_output_layers -->
<g id="edge3" class="edge"><title>prot_3nm&#45;&gt;combine_scores_for_inland_and_offshore_and_write_output_layers</title>
<path fill="none" stroke="black" d="M308.989,-224.297C320.814,-215.396 335.392,-204.423 348.179,-194.799"/>
<polygon fill="black" stroke="black" points="350.391,-197.515 356.276,-188.704 346.181,-191.922 350.391,-197.515"/>
</g>
<!-- prot_1km&#45;&gt;combine_scores_for_inland_and_offshore_and_write_output_layers -->
<g id="edge2" class="edge"><title>prot_1km&#45;&gt;combine_scores_for_inland_and_offshore_and_write_output_layers</title>
<path fill="none" stroke="black" d="M379,-224.297C379,-216.583 379,-207.312 379,-198.712"/>
<polygon fill="black" stroke="black" points="382.5,-198.704 379,-188.704 375.5,-198.704 382.5,-198.704"/>
</g>
<!-- prot_ws&#45;&gt;combine_scores_for_inland_and_offshore_and_write_output_layers -->
<g id="edge1" class="edge"><title>prot_ws&#45;&gt;combine_scores_for_inland_and_offshore_and_write_output_layers</title>
<path fill="none" stroke="black" d="M445.247,-224.297C434.164,-215.481 420.526,-204.632 408.51,-195.074"/>
<polygon fill="black" stroke="black" points="410.507,-192.19 400.503,-188.704 406.15,-197.669 410.507,-192.19"/>
</g>
<!-- setup_R -->
<g id="node8" class="node"><title>setup_R</title>
<path fill="#ffe4b5" stroke="black" d="M323,-515.7C323,-515.7 353,-515.7 353,-515.7 359,-515.7 365,-521.7 365,-527.7 365,-527.7 365,-541.3 365,-541.3 365,-547.3 359,-553.3 353,-553.3 353,-553.3 323,-553.3 323,-553.3 317,-553.3 311,-547.3 311,-541.3 311,-541.3 311,-527.7 311,-527.7 311,-521.7 317,-515.7 323,-515.7"/>
<text text-anchor="middle" x="337.897" y="-541.2" font-family="Courier,monospace" font-weight="bold" font-size="9.00">setup_R</text>
<polyline fill="none" stroke="black" points="311,-534.5 364.794,-534.5 "/>
<text text-anchor="middle" x="337.897" y="-522.4" font-family="Courier,monospace" font-weight="bold" font-size="9.00"> </text>
</g>
<!-- setup_R&#45;&gt;set_up_configuration_and_start_provenance_tracking -->
<g id="edge8" class="edge"><title>setup_R&#45;&gt;set_up_configuration_and_start_provenance_tracking</title>
<path fill="none" stroke="black" d="M313.775,-515.508C301.473,-506.371 286.383,-495.163 273.219,-485.387"/>
<polygon fill="black" stroke="black" points="275.01,-482.357 264.895,-479.205 270.836,-487.977 275.01,-482.357"/>
</g>
<!-- prot_3nm_stats_file -->
<g id="node9" class="node"><title>prot_3nm_stats_file</title>
<path fill="#ffe4b5" stroke="black" d="M119.718,-369.1C119.718,-369.1 322.282,-369.1 322.282,-369.1 328.282,-369.1 334.282,-375.1 334.282,-381.1 334.282,-381.1 334.282,-394.7 334.282,-394.7 334.282,-400.7 328.282,-406.7 322.282,-406.7 322.282,-406.7 119.718,-406.7 119.718,-406.7 113.718,-406.7 107.718,-400.7 107.718,-394.7 107.718,-394.7 107.718,-381.1 107.718,-381.1 107.718,-375.1 113.718,-369.1 119.718,-369.1"/>
<text text-anchor="middle" x="221" y="-394.6" font-family="Courier,monospace" font-weight="bold" font-size="9.00">prot_3nm_stats_file</text>
<polyline fill="none" stroke="black" points="107.718,-387.9 334.282,-387.9 "/>
<text text-anchor="start" x="115.718" y="-375.8" font-family="Courier,monospace" font-weight="bold" font-size="9.00">prep/lsp/vHS/int/area_protected_3nm.csv</text>
</g>
<!-- prot_3nm_stats_file&#45;&gt;read_in_protected_area_and_total_area_by_region -->
<g id="edge6" class="edge"><title>prot_3nm_stats_file&#45;&gt;read_in_protected_area_and_total_area_by_region</title>
<path fill="none" stroke="black" d="M260.463,-369.092C282.153,-359.304 309.201,-347.098 331.981,-336.818"/>
<polygon fill="black" stroke="black" points="333.453,-339.994 341.128,-332.69 330.574,-333.613 333.453,-339.994"/>
</g>
<!-- prot_1km_stats_file -->
<g id="node10" class="node"><title>prot_1km_stats_file</title>
<path fill="#ffe4b5" stroke="black" d="M364.718,-369.1C364.718,-369.1 567.282,-369.1 567.282,-369.1 573.282,-369.1 579.282,-375.1 579.282,-381.1 579.282,-381.1 579.282,-394.7 579.282,-394.7 579.282,-400.7 573.282,-406.7 567.282,-406.7 567.282,-406.7 364.718,-406.7 364.718,-406.7 358.718,-406.7 352.718,-400.7 352.718,-394.7 352.718,-394.7 352.718,-381.1 352.718,-381.1 352.718,-375.1 358.718,-369.1 364.718,-369.1"/>
<text text-anchor="middle" x="466" y="-394.6" font-family="Courier,monospace" font-weight="bold" font-size="9.00">prot_1km_stats_file</text>
<polyline fill="none" stroke="black" points="352.718,-387.9 579.282,-387.9 "/>
<text text-anchor="start" x="360.718" y="-375.8" font-family="Courier,monospace" font-weight="bold" font-size="9.00">prep/lsp/vHS/int/area_protected_1km.csv</text>
</g>
<!-- prot_1km_stats_file&#45;&gt;read_in_protected_area_and_total_area_by_region -->
<g id="edge5" class="edge"><title>prot_1km_stats_file&#45;&gt;read_in_protected_area_and_total_area_by_region</title>
<path fill="none" stroke="black" d="M444.046,-368.908C433.003,-359.858 419.482,-348.777 407.633,-339.066"/>
<polygon fill="black" stroke="black" points="409.702,-336.236 399.749,-332.605 405.265,-341.65 409.702,-336.236"/>
</g>
<!-- prot_ws_stats_file -->
<g id="node11" class="node"><title>prot_ws_stats_file</title>
<path fill="#ffe4b5" stroke="black" d="M609.417,-369.1C609.417,-369.1 806.583,-369.1 806.583,-369.1 812.583,-369.1 818.583,-375.1 818.583,-381.1 818.583,-381.1 818.583,-394.7 818.583,-394.7 818.583,-400.7 812.583,-406.7 806.583,-406.7 806.583,-406.7 609.417,-406.7 609.417,-406.7 603.417,-406.7 597.417,-400.7 597.417,-394.7 597.417,-394.7 597.417,-381.1 597.417,-381.1 597.417,-375.1 603.417,-369.1 609.417,-369.1"/>
<text text-anchor="middle" x="708" y="-394.6" font-family="Courier,monospace" font-weight="bold" font-size="9.00">prot_ws_stats_file</text>
<polyline fill="none" stroke="black" points="597.417,-387.9 818.583,-387.9 "/>
<text text-anchor="start" x="605.417" y="-375.8" font-family="Courier,monospace" font-weight="bold" font-size="9.00">prep/lsp/vHS/int/area_protected_ws.csv</text>
</g>
<!-- prot_ws_stats_file&#45;&gt;read_in_protected_area_and_total_area_by_region -->
<g id="edge4" class="edge"><title>prot_ws_stats_file&#45;&gt;read_in_protected_area_and_total_area_by_region</title>
<path fill="none" stroke="black" d="M625.828,-369.092C577.663,-358.654 516.81,-345.466 467.579,-334.797"/>
<polygon fill="black" stroke="black" points="468.092,-331.327 457.577,-332.629 466.609,-338.168 468.092,-331.327"/>
</g>
<!-- area_protected_total_file_outflow -->
<g id="node17" class="node"><title>area_protected_total_file_outflow</title>
<ellipse fill="none" stroke="black" cx="379" cy="-31" rx="7" ry="7"/>
</g>
<!-- area_protected_total_file&#45;&gt;area_protected_total_file_outflow -->
<g id="edge18" class="edge"><title>area_protected_total_file&#45;&gt;area_protected_total_file_outflow</title>
<path fill="none" stroke="black" d="M379,-78.3889C379,-68.9828 379,-57.5389 379,-48.3712"/>
<polygon fill="black" stroke="black" points="382.5,-48.3008 379,-38.3008 375.5,-48.3008 382.5,-48.3008"/>
</g>
<!-- setup_R_inflow -->
<g id="node13" class="node"><title>setup_R_inflow</title>
<ellipse fill="none" stroke="black" cx="459" cy="-600.8" rx="7" ry="7"/>
</g>
<!-- setup_R_inflow&#45;&gt;setup_R -->
<g id="edge14" class="edge"><title>setup_R_inflow&#45;&gt;setup_R</title>
<path fill="none" stroke="black" d="M453.164,-596.699C439.064,-589.206 402.225,-569.629 373.974,-554.617"/>
<polygon fill="black" stroke="black" points="375.616,-551.526 365.143,-549.924 372.331,-557.707 375.616,-551.526"/>
</g>
<!-- prot_3nm_stats_file_inflow -->
<g id="node14" class="node"><title>prot_3nm_stats_file_inflow</title>
<ellipse fill="none" stroke="black" cx="491" cy="-600.8" rx="7" ry="7"/>
</g>
<!-- prot_3nm_stats_file_inflow&#45;&gt;prot_3nm_stats_file -->
<g id="edge15" class="edge"><title>prot_3nm_stats_file_inflow&#45;&gt;prot_3nm_stats_file</title>
<path fill="none" stroke="black" d="M492.315,-593.695C496.914,-570.551 509.87,-487.299 469,-443.2 459.475,-432.922 398.214,-419.456 338.969,-408.505"/>
<polygon fill="black" stroke="black" points="339.569,-405.057 329.102,-406.701 338.309,-411.943 339.569,-405.057"/>
</g>
<!-- prot_1km_stats_file_inflow -->
<g id="node15" class="node"><title>prot_1km_stats_file_inflow</title>
<ellipse fill="none" stroke="black" cx="523" cy="-600.8" rx="7" ry="7"/>
</g>
<!-- prot_1km_stats_file_inflow&#45;&gt;prot_1km_stats_file -->
<g id="edge16" class="edge"><title>prot_1km_stats_file_inflow&#45;&gt;prot_1km_stats_file</title>
<path fill="none" stroke="black" d="M523.148,-593.587C523.462,-572.019 522.838,-498.666 502,-443.2 498.339,-433.456 492.658,-423.7 486.882,-415.2"/>
<polygon fill="black" stroke="black" points="489.574,-412.947 480.909,-406.85 483.88,-417.02 489.574,-412.947"/>
</g>
<!-- prot_ws_stats_file_inflow -->
<g id="node16" class="node"><title>prot_ws_stats_file_inflow</title>
<ellipse fill="none" stroke="black" cx="555" cy="-600.8" rx="7" ry="7"/>
</g>
<!-- prot_ws_stats_file_inflow&#45;&gt;prot_ws_stats_file -->
<g id="edge17" class="edge"><title>prot_ws_stats_file_inflow&#45;&gt;prot_ws_stats_file</title>
<path fill="none" stroke="black" d="M558.782,-594.587C576.624,-569.993 653.013,-464.696 689.046,-415.026"/>
<polygon fill="black" stroke="black" points="692.04,-416.86 695.079,-406.711 686.374,-412.75 692.04,-416.86"/>
</g>
</g>
</svg>
