<?xml version="1.0" encoding="UTF-8" standalone="no"?>
<!DOCTYPE svg PUBLIC "-//W3C//DTD SVG 1.1//EN"
 "http://www.w3.org/Graphics/SVG/1.1/DTD/svg11.dtd">
<!-- Generated by graphviz version 2.38.0 (20140413.2041)
 -->
<!-- Title: yw_data_view Pages: 1 -->
<svg width="839pt" height="669pt"
 viewBox="0.00 0.00 839.00 669.40" xmlns="http://www.w3.org/2000/svg" xmlns:xlink="http://www.w3.org/1999/xlink">
<g id="graph0" class="graph" transform="scale(1 1) rotate(0) translate(4 665.4)">
<title>yw_data_view</title>
<polygon fill="white" stroke="none" points="-4,4 -4,-665.4 835,-665.4 835,4 -4,4"/>
<text text-anchor="middle" x="415.5" y="-641.2" font-family="Courier,monospace" font-size="18.00">combine_scores_for_inland_and_offshore_and_outputs</text>
<g id="clust1" class="cluster"><title>cluster_workflow</title>
<polygon fill="none" stroke="black" stroke-width="2" points="8,-62 8,-569.8 823,-569.8 823,-62 8,-62"/>
</g>
<g id="clust2" class="cluster"><title>cluster_workflow_inner</title>
<polygon fill="none" stroke="white" stroke-width="2" points="16,-70 16,-561.8 815,-561.8 815,-70 16,-70"/>
</g>
<g id="clust3" class="cluster"><title>cluster_inflows</title>
<polygon fill="none" stroke="white" stroke-width="2" points="436,-577.8 436,-623.8 578,-623.8 578,-577.8 436,-577.8"/>
</g>
<g id="clust4" class="cluster"><title>cluster_inflows_inner</title>
<polygon fill="none" stroke="white" stroke-width="2" points="444,-585.8 444,-615.8 570,-615.8 570,-585.8 444,-585.8"/>
</g>
<g id="clust5" class="cluster"><title>cluster_outflows</title>
<polygon fill="none" stroke="white" stroke-width="2" points="350,-8 350,-54 396,-54 396,-8 350,-8"/>
</g>
<g id="clust6" class="cluster"><title>cluster_outflows_inner</title>
<polygon fill="none" stroke="white" stroke-width="2" points="358,-16 358,-46 388,-46 388,-16 358,-16"/>
</g>
<!-- set_up_configuration_and_start_provenance_tracking -->
<g id="node1" class="node"><title>set_up_configuration_and_start_provenance_tracking</title>
<polygon fill="#ccffcc" stroke="black" points="459.93,-479.2 24.07,-479.2 24.07,-443.2 459.93,-443.2 459.93,-479.2"/>
<text text-anchor="middle" x="242" y="-457" font-family="Courier,monospace" font-size="14.00">set_up_configuration_and_start_provenance_tracking</text>
</g>
<!-- dir_goal -->
<g id="node8" class="node"><title>dir_goal</title>
<path fill="#ffffcc" stroke="black" d="M66,-405.9C66,-405.9 36,-405.9 36,-405.9 30,-405.9 24,-399.9 24,-393.9 24,-393.9 24,-381.9 24,-381.9 24,-375.9 30,-369.9 36,-369.9 36,-369.9 66,-369.9 66,-369.9 72,-369.9 78,-375.9 78,-381.9 78,-381.9 78,-393.9 78,-393.9 78,-399.9 72,-405.9 66,-405.9"/>
<text text-anchor="middle" x="51" y="-385.2" font-family="Helvetica,sans-Serif" font-size="9.00">dir_goal</text>
</g>
<!-- set_up_configuration_and_start_provenance_tracking&#45;&gt;dir_goal -->
<g id="edge9" class="edge"><title>set_up_configuration_and_start_provenance_tracking&#45;&gt;dir_goal</title>
<path fill="none" stroke="black" d="M186.052,-443.175C158.589,-434.334 124.964,-422.794 87.8409,-407.314"/>
<polygon fill="black" stroke="black" points="88.9027,-403.963 78.329,-403.293 86.177,-410.411 88.9027,-403.963"/>
</g>
<!-- read_in_protected_area_and_total_area_by_region -->
<g id="node2" class="node"><title>read_in_protected_area_and_total_area_by_region</title>
<polygon fill="#ccffcc" stroke="black" points="578.234,-332.6 167.766,-332.6 167.766,-296.6 578.234,-296.6 578.234,-332.6"/>
<text text-anchor="middle" x="373" y="-310.4" font-family="Courier,monospace" font-size="14.00">read_in_protected_area_and_total_area_by_region</text>
</g>
<!-- prot_3nm -->
<g id="node9" class="node"><title>prot_3nm</title>
<path fill="#ffffcc" stroke="black" d="M316.009,-260.6C316.009,-260.6 285.991,-260.6 285.991,-260.6 279.991,-260.6 273.991,-254.6 273.991,-248.6 273.991,-248.6 273.991,-236.6 273.991,-236.6 273.991,-230.6 279.991,-224.6 285.991,-224.6 285.991,-224.6 316.009,-224.6 316.009,-224.6 322.009,-224.6 328.009,-230.6 328.009,-236.6 328.009,-236.6 328.009,-248.6 328.009,-248.6 328.009,-254.6 322.009,-260.6 316.009,-260.6"/>
<text text-anchor="middle" x="301" y="-239.9" font-family="Helvetica,sans-Serif" font-size="9.00">prot_3nm</text>
</g>
<!-- read_in_protected_area_and_total_area_by_region&#45;&gt;prot_3nm -->
<g id="edge10" class="edge"><title>read_in_protected_area_and_total_area_by_region&#45;&gt;prot_3nm</title>
<path fill="none" stroke="black" d="M355.202,-296.297C346.396,-287.735 335.618,-277.256 325.999,-267.904"/>
<polygon fill="black" stroke="black" points="328.203,-265.166 318.593,-260.704 323.323,-270.185 328.203,-265.166"/>
</g>
<!-- prot_1km -->
<g id="node10" class="node"><title>prot_1km</title>
<path fill="#ffffcc" stroke="black" d="M388,-260.6C388,-260.6 358,-260.6 358,-260.6 352,-260.6 346,-254.6 346,-248.6 346,-248.6 346,-236.6 346,-236.6 346,-230.6 352,-224.6 358,-224.6 358,-224.6 388,-224.6 388,-224.6 394,-224.6 400,-230.6 400,-236.6 400,-236.6 400,-248.6 400,-248.6 400,-254.6 394,-260.6 388,-260.6"/>
<text text-anchor="middle" x="373" y="-239.9" font-family="Helvetica,sans-Serif" font-size="9.00">prot_1km</text>
</g>
<!-- read_in_protected_area_and_total_area_by_region&#45;&gt;prot_1km -->
<g id="edge11" class="edge"><title>read_in_protected_area_and_total_area_by_region&#45;&gt;prot_1km</title>
<path fill="none" stroke="black" d="M373,-296.297C373,-288.583 373,-279.312 373,-270.712"/>
<polygon fill="black" stroke="black" points="376.5,-270.704 373,-260.704 369.5,-270.704 376.5,-270.704"/>
</g>
<!-- prot_ws -->
<g id="node11" class="node"><title>prot_ws</title>
<path fill="#ffffcc" stroke="black" d="M460,-260.6C460,-260.6 430,-260.6 430,-260.6 424,-260.6 418,-254.6 418,-248.6 418,-248.6 418,-236.6 418,-236.6 418,-230.6 424,-224.6 430,-224.6 430,-224.6 460,-224.6 460,-224.6 466,-224.6 472,-230.6 472,-236.6 472,-236.6 472,-248.6 472,-248.6 472,-254.6 466,-260.6 460,-260.6"/>
<text text-anchor="middle" x="445" y="-239.9" font-family="Helvetica,sans-Serif" font-size="9.00">prot_ws</text>
</g>
<!-- read_in_protected_area_and_total_area_by_region&#45;&gt;prot_ws -->
<g id="edge12" class="edge"><title>read_in_protected_area_and_total_area_by_region&#45;&gt;prot_ws</title>
<path fill="none" stroke="black" d="M390.798,-296.297C399.604,-287.735 410.382,-277.256 420.001,-267.904"/>
<polygon fill="black" stroke="black" points="422.677,-270.185 427.407,-260.704 417.797,-265.166 422.677,-270.185"/>
</g>
<!-- combine_scores_for_inland_and_offshore_and_write_output_layers -->
<g id="node3" class="node"><title>combine_scores_for_inland_and_offshore_and_write_output_layers</title>
<polygon fill="#ccffcc" stroke="black" points="641.213,-188.6 104.787,-188.6 104.787,-152.6 641.213,-152.6 641.213,-188.6"/>
<text text-anchor="middle" x="373" y="-166.4" font-family="Courier,monospace" font-size="14.00">combine_scores_for_inland_and_offshore_and_write_output_layers</text>
</g>
<!-- area_protected_total_file -->
<g id="node12" class="node"><title>area_protected_total_file</title>
<path fill="#ffe4b5" stroke="black" d="M258.22,-78.5C258.22,-78.5 487.78,-78.5 487.78,-78.5 493.78,-78.5 499.78,-84.5 499.78,-90.5 499.78,-90.5 499.78,-104.1 499.78,-104.1 499.78,-110.1 493.78,-116.1 487.78,-116.1 487.78,-116.1 258.22,-116.1 258.22,-116.1 252.22,-116.1 246.22,-110.1 246.22,-104.1 246.22,-104.1 246.22,-90.5 246.22,-90.5 246.22,-84.5 252.22,-78.5 258.22,-78.5"/>
<text text-anchor="middle" x="373" y="-104" font-family="Courier,monospace" font-weight="bold" font-size="9.00">area_protected_total_file</text>
<polyline fill="none" stroke="black" points="246.22,-97.3 499.78,-97.3 "/>
<text text-anchor="start" x="254.22" y="-85.2" font-family="Courier,monospace" font-weight="bold" font-size="9.00">prep/lsp/vHS/output/area_protected_total.csv</text>
</g>
<!-- combine_scores_for_inland_and_offshore_and_write_output_layers&#45;&gt;area_protected_total_file -->
<g id="edge13" class="edge"><title>combine_scores_for_inland_and_offshore_and_write_output_layers&#45;&gt;area_protected_total_file</title>
<path fill="none" stroke="black" d="M373,-152.34C373,-144.605 373,-135.279 373,-126.568"/>
<polygon fill="black" stroke="black" points="376.5,-126.396 373,-116.396 369.5,-126.396 376.5,-126.396"/>
</g>
<!-- setup_R -->
<g id="node4" class="node"><title>setup_R</title>
<path fill="#ffe4b5" stroke="black" d="M323,-515.7C323,-515.7 353,-515.7 353,-515.7 359,-515.7 365,-521.7 365,-527.7 365,-527.7 365,-541.3 365,-541.3 365,-547.3 359,-553.3 353,-553.3 353,-553.3 323,-553.3 323,-553.3 317,-553.3 311,-547.3 311,-541.3 311,-541.3 311,-527.7 311,-527.7 311,-521.7 317,-515.7 323,-515.7"/>
<text text-anchor="middle" x="337.897" y="-541.2" font-family="Courier,monospace" font-weight="bold" font-size="9.00">setup_R</text>
<polyline fill="none" stroke="black" points="311,-534.5 364.794,-534.5 "/>
<text text-anchor="middle" x="337.897" y="-522.4" font-family="Courier,monospace" font-weight="bold" font-size="9.00"> </text>
</g>
<!-- setup_R&#45;&gt;set_up_configuration_and_start_provenance_tracking -->
<g id="edge1" class="edge"><title>setup_R&#45;&gt;set_up_configuration_and_start_provenance_tracking</title>
<path fill="none" stroke="black" d="M313.775,-515.508C301.473,-506.371 286.383,-495.163 273.219,-485.387"/>
<polygon fill="black" stroke="black" points="275.01,-482.357 264.895,-479.205 270.836,-487.977 275.01,-482.357"/>
</g>
<!-- prot_3nm_stats_file -->
<g id="node5" class="node"><title>prot_3nm_stats_file</title>
<path fill="#ffe4b5" stroke="black" d="M107.718,-369.1C107.718,-369.1 310.282,-369.1 310.282,-369.1 316.282,-369.1 322.282,-375.1 322.282,-381.1 322.282,-381.1 322.282,-394.7 322.282,-394.7 322.282,-400.7 316.282,-406.7 310.282,-406.7 310.282,-406.7 107.718,-406.7 107.718,-406.7 101.718,-406.7 95.7175,-400.7 95.7175,-394.7 95.7175,-394.7 95.7175,-381.1 95.7175,-381.1 95.7175,-375.1 101.718,-369.1 107.718,-369.1"/>
<text text-anchor="middle" x="209" y="-394.6" font-family="Courier,monospace" font-weight="bold" font-size="9.00">prot_3nm_stats_file</text>
<polyline fill="none" stroke="black" points="95.7175,-387.9 322.282,-387.9 "/>
<text text-anchor="start" x="103.718" y="-375.8" font-family="Courier,monospace" font-weight="bold" font-size="9.00">prep/lsp/vHS/int/area_protected_3nm.csv</text>
</g>
<!-- prot_3nm_stats_file&#45;&gt;read_in_protected_area_and_total_area_by_region -->
<g id="edge3" class="edge"><title>prot_3nm_stats_file&#45;&gt;read_in_protected_area_and_total_area_by_region</title>
<path fill="none" stroke="black" d="M249.961,-369.092C272.575,-359.26 300.8,-346.989 324.51,-336.681"/>
<polygon fill="black" stroke="black" points="325.915,-339.887 333.69,-332.69 323.124,-333.468 325.915,-339.887"/>
</g>
<!-- prot_1km_stats_file -->
<g id="node6" class="node"><title>prot_1km_stats_file</title>
<path fill="#ffe4b5" stroke="black" d="M352.718,-369.1C352.718,-369.1 555.282,-369.1 555.282,-369.1 561.282,-369.1 567.282,-375.1 567.282,-381.1 567.282,-381.1 567.282,-394.7 567.282,-394.7 567.282,-400.7 561.282,-406.7 555.282,-406.7 555.282,-406.7 352.718,-406.7 352.718,-406.7 346.718,-406.7 340.718,-400.7 340.718,-394.7 340.718,-394.7 340.718,-381.1 340.718,-381.1 340.718,-375.1 346.718,-369.1 352.718,-369.1"/>
<text text-anchor="middle" x="454" y="-394.6" font-family="Courier,monospace" font-weight="bold" font-size="9.00">prot_1km_stats_file</text>
<polyline fill="none" stroke="black" points="340.718,-387.9 567.282,-387.9 "/>
<text text-anchor="start" x="348.718" y="-375.8" font-family="Courier,monospace" font-weight="bold" font-size="9.00">prep/lsp/vHS/int/area_protected_1km.csv</text>
</g>
<!-- prot_1km_stats_file&#45;&gt;read_in_protected_area_and_total_area_by_region -->
<g id="edge4" class="edge"><title>prot_1km_stats_file&#45;&gt;read_in_protected_area_and_total_area_by_region</title>
<path fill="none" stroke="black" d="M433.56,-368.908C423.378,-359.945 410.932,-348.99 399.977,-339.347"/>
<polygon fill="black" stroke="black" points="402.137,-336.585 392.318,-332.605 397.512,-341.839 402.137,-336.585"/>
</g>
<!-- prot_ws_stats_file -->
<g id="node7" class="node"><title>prot_ws_stats_file</title>
<path fill="#ffe4b5" stroke="black" d="M597.417,-369.1C597.417,-369.1 794.583,-369.1 794.583,-369.1 800.583,-369.1 806.583,-375.1 806.583,-381.1 806.583,-381.1 806.583,-394.7 806.583,-394.7 806.583,-400.7 800.583,-406.7 794.583,-406.7 794.583,-406.7 597.417,-406.7 597.417,-406.7 591.417,-406.7 585.417,-400.7 585.417,-394.7 585.417,-394.7 585.417,-381.1 585.417,-381.1 585.417,-375.1 591.417,-369.1 597.417,-369.1"/>
<text text-anchor="middle" x="696" y="-394.6" font-family="Courier,monospace" font-weight="bold" font-size="9.00">prot_ws_stats_file</text>
<polyline fill="none" stroke="black" points="585.417,-387.9 806.583,-387.9 "/>
<text text-anchor="start" x="593.417" y="-375.8" font-family="Courier,monospace" font-weight="bold" font-size="9.00">prep/lsp/vHS/int/area_protected_ws.csv</text>
</g>
<!-- prot_ws_stats_file&#45;&gt;read_in_protected_area_and_total_area_by_region -->
<g id="edge5" class="edge"><title>prot_ws_stats_file&#45;&gt;read_in_protected_area_and_total_area_by_region</title>
<path fill="none" stroke="black" d="M615.327,-369.092C568.04,-358.654 508.297,-345.466 459.964,-334.797"/>
<polygon fill="black" stroke="black" points="460.664,-331.367 450.144,-332.629 459.155,-338.202 460.664,-331.367"/>
</g>
<!-- dir_goal&#45;&gt;read_in_protected_area_and_total_area_by_region -->
<g id="edge2" class="edge"><title>dir_goal&#45;&gt;read_in_protected_area_and_total_area_by_region</title>
<path fill="none" stroke="black" d="M78.1642,-372.073C81.0975,-370.781 84.0783,-369.59 87,-368.6 131.445,-353.537 181.311,-342.426 226.804,-334.382"/>
<polygon fill="black" stroke="black" points="227.488,-337.816 236.744,-332.661 226.293,-330.919 227.488,-337.816"/>
</g>
<!-- prot_3nm&#45;&gt;combine_scores_for_inland_and_offshore_and_write_output_layers -->
<g id="edge6" class="edge"><title>prot_3nm&#45;&gt;combine_scores_for_inland_and_offshore_and_write_output_layers</title>
<path fill="none" stroke="black" d="M318.798,-224.297C327.604,-215.735 338.382,-205.256 348.001,-195.904"/>
<polygon fill="black" stroke="black" points="350.677,-198.185 355.407,-188.704 345.797,-193.166 350.677,-198.185"/>
</g>
<!-- prot_1km&#45;&gt;combine_scores_for_inland_and_offshore_and_write_output_layers -->
<g id="edge7" class="edge"><title>prot_1km&#45;&gt;combine_scores_for_inland_and_offshore_and_write_output_layers</title>
<path fill="none" stroke="black" d="M373,-224.297C373,-216.583 373,-207.312 373,-198.712"/>
<polygon fill="black" stroke="black" points="376.5,-198.704 373,-188.704 369.5,-198.704 376.5,-198.704"/>
</g>
<!-- prot_ws&#45;&gt;combine_scores_for_inland_and_offshore_and_write_output_layers -->
<g id="edge8" class="edge"><title>prot_ws&#45;&gt;combine_scores_for_inland_and_offshore_and_write_output_layers</title>
<path fill="none" stroke="black" d="M427.202,-224.297C418.396,-215.735 407.618,-205.256 397.999,-195.904"/>
<polygon fill="black" stroke="black" points="400.203,-193.166 390.593,-188.704 395.323,-198.185 400.203,-193.166"/>
</g>
<!-- area_protected_total_file_outflow -->
<g id="node17" class="node"><title>area_protected_total_file_outflow</title>
<ellipse fill="none" stroke="black" cx="373" cy="-31" rx="7" ry="7"/>
</g>
<!-- area_protected_total_file&#45;&gt;area_protected_total_file_outflow -->
<g id="edge18" class="edge"><title>area_protected_total_file&#45;&gt;area_protected_total_file_outflow</title>
<path fill="none" stroke="black" d="M373,-78.3889C373,-68.9828 373,-57.5389 373,-48.3712"/>
<polygon fill="black" stroke="black" points="376.5,-48.3008 373,-38.3008 369.5,-48.3008 376.5,-48.3008"/>
</g>
<!-- setup_R_inflow -->
<g id="node13" class="node"><title>setup_R_inflow</title>
<ellipse fill="none" stroke="black" cx="459" cy="-600.8" rx="7" ry="7"/>
</g>
<!-- setup_R_inflow&#45;&gt;setup_R -->
<g id="edge14" class="edge"><title>setup_R_inflow&#45;&gt;setup_R</title>
<path fill="none" stroke="black" d="M453.164,-596.699C439.064,-589.206 402.225,-569.629 373.974,-554.617"/>
<polygon fill="black" stroke="black" points="375.616,-551.526 365.143,-549.924 372.331,-557.707 375.616,-551.526"/>
</g>
<!-- prot_3nm_stats_file_inflow -->
<g id="node14" class="node"><title>prot_3nm_stats_file_inflow</title>
<ellipse fill="none" stroke="black" cx="491" cy="-600.8" rx="7" ry="7"/>
</g>
<!-- prot_3nm_stats_file_inflow&#45;&gt;prot_3nm_stats_file -->
<g id="edge15" class="edge"><title>prot_3nm_stats_file_inflow&#45;&gt;prot_3nm_stats_file</title>
<path fill="none" stroke="black" d="M492.329,-593.683C496.976,-570.494 510.082,-487.101 469,-443.2 458.962,-432.473 394.493,-418.971 332.269,-408.114"/>
<polygon fill="black" stroke="black" points="332.76,-404.647 322.311,-406.395 331.57,-411.545 332.76,-404.647"/>
</g>
<!-- prot_1km_stats_file_inflow -->
<g id="node15" class="node"><title>prot_1km_stats_file_inflow</title>
<ellipse fill="none" stroke="black" cx="523" cy="-600.8" rx="7" ry="7"/>
</g>
<!-- prot_1km_stats_file_inflow&#45;&gt;prot_1km_stats_file -->
<g id="edge16" class="edge"><title>prot_1km_stats_file_inflow&#45;&gt;prot_1km_stats_file</title>
<path fill="none" stroke="black" d="M523.409,-593.774C524.626,-572.216 526.738,-497.341 502,-443.2 497.196,-432.686 489.657,-422.724 481.966,-414.273"/>
<polygon fill="black" stroke="black" points="484.39,-411.744 474.934,-406.964 479.345,-416.597 484.39,-411.744"/>
</g>
<!-- prot_ws_stats_file_inflow -->
<g id="node16" class="node"><title>prot_ws_stats_file_inflow</title>
<ellipse fill="none" stroke="black" cx="555" cy="-600.8" rx="7" ry="7"/>
</g>
<!-- prot_ws_stats_file_inflow&#45;&gt;prot_ws_stats_file -->
<g id="edge17" class="edge"><title>prot_ws_stats_file_inflow&#45;&gt;prot_ws_stats_file</title>
<path fill="none" stroke="black" d="M558.485,-594.587C574.928,-569.993 645.326,-464.696 678.533,-415.026"/>
<polygon fill="black" stroke="black" points="681.444,-416.969 684.092,-406.711 675.625,-413.079 681.444,-416.969"/>
</g>
</g>
</svg>
