<?xml version="1.0" encoding="UTF-8" standalone="no"?>
<!DOCTYPE svg PUBLIC "-//W3C//DTD SVG 1.1//EN"
 "http://www.w3.org/Graphics/SVG/1.1/DTD/svg11.dtd">
<!-- Generated by graphviz version 2.38.0 (20140413.2041)
 -->
<!-- Title: yw_data_view Pages: 1 -->
<svg width="1458pt" height="669pt"
 viewBox="0.00 0.00 1458.00 669.40" xmlns="http://www.w3.org/2000/svg" xmlns:xlink="http://www.w3.org/1999/xlink">
<g id="graph0" class="graph" transform="scale(1 1) rotate(0) translate(4 665.4)">
<title>yw_data_view</title>
<polygon fill="white" stroke="none" points="-4,4 -4,-665.4 1454,-665.4 1454,4 -4,4"/>
<text text-anchor="middle" x="725" y="-641.2" font-family="Courier,monospace" font-size="18.00">combine_scores_for_inland_and_offshore</text>
<g id="clust1" class="cluster"><title>cluster_workflow</title>
<polygon fill="none" stroke="black" stroke-width="2" points="8,-62 8,-569.8 1442,-569.8 1442,-62 8,-62"/>
</g>
<g id="clust2" class="cluster"><title>cluster_workflow_inner</title>
<polygon fill="none" stroke="white" stroke-width="2" points="16,-70 16,-561.8 1434,-561.8 1434,-70 16,-70"/>
</g>
<g id="clust3" class="cluster"><title>cluster_inflows</title>
<polygon fill="none" stroke="white" stroke-width="2" points="728,-577.8 728,-623.8 870,-623.8 870,-577.8 728,-577.8"/>
</g>
<g id="clust4" class="cluster"><title>cluster_inflows_inner</title>
<polygon fill="none" stroke="white" stroke-width="2" points="736,-585.8 736,-615.8 862,-615.8 862,-585.8 736,-585.8"/>
</g>
<g id="clust5" class="cluster"><title>cluster_outflows</title>
<polygon fill="none" stroke="white" stroke-width="2" points="685,-8 685,-54 731,-54 731,-8 685,-8"/>
</g>
<g id="clust6" class="cluster"><title>cluster_outflows_inner</title>
<polygon fill="none" stroke="white" stroke-width="2" points="693,-16 693,-46 723,-46 723,-16 693,-16"/>
</g>
<!-- read_in_area_weighted_average_of_inland_watershed_score -->
<g id="node1" class="node"><title>read_in_area_weighted_average_of_inland_watershed_score</title>
<polygon fill="#ccffcc" stroke="black" points="1425.92,-332.6 948.077,-332.6 948.077,-296.6 1425.92,-296.6 1425.92,-332.6"/>
<text text-anchor="middle" x="1187" y="-310.4" font-family="Courier,monospace" font-size="14.00">read_in_area_weighted_average_of_inland_watershed_score</text>
</g>
<!-- prot_ws -->
<g id="node9" class="node"><title>prot_ws</title>
<path fill="#ffffcc" stroke="black" d="M1011.51,-260.6C1011.51,-260.6 970.494,-260.6 970.494,-260.6 964.494,-260.6 958.494,-254.6 958.494,-248.6 958.494,-248.6 958.494,-236.6 958.494,-236.6 958.494,-230.6 964.494,-224.6 970.494,-224.6 970.494,-224.6 1011.51,-224.6 1011.51,-224.6 1017.51,-224.6 1023.51,-230.6 1023.51,-236.6 1023.51,-236.6 1023.51,-248.6 1023.51,-248.6 1023.51,-254.6 1017.51,-260.6 1011.51,-260.6"/>
<text text-anchor="middle" x="991" y="-238.4" font-family="Helvetica,sans-Serif" font-size="14.00">prot_ws</text>
</g>
<!-- read_in_area_weighted_average_of_inland_watershed_score&#45;&gt;prot_ws -->
<g id="edge14" class="edge"><title>read_in_area_weighted_average_of_inland_watershed_score&#45;&gt;prot_ws</title>
<path fill="none" stroke="black" d="M1139.3,-296.566C1106.89,-284.99 1064.41,-269.817 1033.22,-258.679"/>
<polygon fill="black" stroke="black" points="1034.11,-255.281 1023.52,-255.214 1031.76,-261.873 1034.11,-255.281"/>
</g>
<!-- read_in_area_weighted_average_of_offshore_1km_score -->
<g id="node2" class="node"><title>read_in_area_weighted_average_of_offshore_1km_score</title>
<polygon fill="#ccffcc" stroke="black" points="930.329,-332.6 485.671,-332.6 485.671,-296.6 930.329,-296.6 930.329,-332.6"/>
<text text-anchor="middle" x="708" y="-310.4" font-family="Courier,monospace" font-size="14.00">read_in_area_weighted_average_of_offshore_1km_score</text>
</g>
<!-- prot_1km -->
<g id="node8" class="node"><title>prot_1km</title>
<path fill="#ffffcc" stroke="black" d="M733.343,-260.6C733.343,-260.6 682.657,-260.6 682.657,-260.6 676.657,-260.6 670.657,-254.6 670.657,-248.6 670.657,-248.6 670.657,-236.6 670.657,-236.6 670.657,-230.6 676.657,-224.6 682.657,-224.6 682.657,-224.6 733.343,-224.6 733.343,-224.6 739.343,-224.6 745.343,-230.6 745.343,-236.6 745.343,-236.6 745.343,-248.6 745.343,-248.6 745.343,-254.6 739.343,-260.6 733.343,-260.6"/>
<text text-anchor="middle" x="708" y="-238.4" font-family="Helvetica,sans-Serif" font-size="14.00">prot_1km</text>
</g>
<!-- read_in_area_weighted_average_of_offshore_1km_score&#45;&gt;prot_1km -->
<g id="edge13" class="edge"><title>read_in_area_weighted_average_of_offshore_1km_score&#45;&gt;prot_1km</title>
<path fill="none" stroke="black" d="M708,-296.297C708,-288.583 708,-279.312 708,-270.712"/>
<polygon fill="black" stroke="black" points="711.5,-270.704 708,-260.704 704.5,-270.704 711.5,-270.704"/>
</g>
<!-- read_in_area_weighted_average_of_offshore_3nm_score -->
<g id="node3" class="node"><title>read_in_area_weighted_average_of_offshore_3nm_score</title>
<polygon fill="#ccffcc" stroke="black" points="468.329,-332.6 23.6713,-332.6 23.6713,-296.6 468.329,-296.6 468.329,-332.6"/>
<text text-anchor="middle" x="246" y="-310.4" font-family="Courier,monospace" font-size="14.00">read_in_area_weighted_average_of_offshore_3nm_score</text>
</g>
<!-- prot_3nm -->
<g id="node7" class="node"><title>prot_3nm</title>
<path fill="#ffffcc" stroke="black" d="M455.625,-260.6C455.625,-260.6 404.375,-260.6 404.375,-260.6 398.375,-260.6 392.375,-254.6 392.375,-248.6 392.375,-248.6 392.375,-236.6 392.375,-236.6 392.375,-230.6 398.375,-224.6 404.375,-224.6 404.375,-224.6 455.625,-224.6 455.625,-224.6 461.625,-224.6 467.625,-230.6 467.625,-236.6 467.625,-236.6 467.625,-248.6 467.625,-248.6 467.625,-254.6 461.625,-260.6 455.625,-260.6"/>
<text text-anchor="middle" x="430" y="-238.4" font-family="Helvetica,sans-Serif" font-size="14.00">prot_3nm</text>
</g>
<!-- read_in_area_weighted_average_of_offshore_3nm_score&#45;&gt;prot_3nm -->
<g id="edge12" class="edge"><title>read_in_area_weighted_average_of_offshore_3nm_score&#45;&gt;prot_3nm</title>
<path fill="none" stroke="black" d="M291.011,-296.476C318.802,-285.904 354.411,-272.357 382.628,-261.622"/>
<polygon fill="black" stroke="black" points="384.174,-264.779 392.276,-257.952 381.685,-258.236 384.174,-264.779"/>
</g>
<!-- set_up_configuration_and_start_provenance_tracking -->
<g id="node4" class="node"><title>set_up_configuration_and_start_provenance_tracking</title>
<polygon fill="#ccffcc" stroke="black" points="751.93,-479.2 316.07,-479.2 316.07,-443.2 751.93,-443.2 751.93,-479.2"/>
<text text-anchor="middle" x="534" y="-457" font-family="Courier,monospace" font-size="14.00">set_up_configuration_and_start_provenance_tracking</text>
</g>
<!-- dir_goal -->
<g id="node6" class="node"><title>dir_goal</title>
<path fill="#ffffcc" stroke="black" d="M589.787,-405.9C589.787,-405.9 548.213,-405.9 548.213,-405.9 542.213,-405.9 536.213,-399.9 536.213,-393.9 536.213,-393.9 536.213,-381.9 536.213,-381.9 536.213,-375.9 542.213,-369.9 548.213,-369.9 548.213,-369.9 589.787,-369.9 589.787,-369.9 595.787,-369.9 601.787,-375.9 601.787,-381.9 601.787,-381.9 601.787,-393.9 601.787,-393.9 601.787,-399.9 595.787,-405.9 589.787,-405.9"/>
<text text-anchor="middle" x="569" y="-383.7" font-family="Helvetica,sans-Serif" font-size="14.00">dir_goal</text>
</g>
<!-- set_up_configuration_and_start_provenance_tracking&#45;&gt;dir_goal -->
<g id="edge11" class="edge"><title>set_up_configuration_and_start_provenance_tracking&#45;&gt;dir_goal</title>
<path fill="none" stroke="black" d="M542.473,-442.94C546.557,-434.62 551.544,-424.46 556.088,-415.204"/>
<polygon fill="black" stroke="black" points="559.341,-416.52 560.605,-406.001 553.057,-413.435 559.341,-416.52"/>
</g>
<!-- combine_scores_for_inland_and_offshore_and_write_output_layers -->
<g id="node5" class="node"><title>combine_scores_for_inland_and_offshore_and_write_output_layers</title>
<polygon fill="#ccffcc" stroke="black" points="976.213,-188.6 439.787,-188.6 439.787,-152.6 976.213,-152.6 976.213,-188.6"/>
<text text-anchor="middle" x="708" y="-166.4" font-family="Courier,monospace" font-size="14.00">combine_scores_for_inland_and_offshore_and_write_output_layers</text>
</g>
<!-- area_protected_total_file -->
<g id="node14" class="node"><title>area_protected_total_file</title>
<path fill="#ffe4b5" stroke="black" d="M593.22,-78.5C593.22,-78.5 822.78,-78.5 822.78,-78.5 828.78,-78.5 834.78,-84.5 834.78,-90.5 834.78,-90.5 834.78,-104.1 834.78,-104.1 834.78,-110.1 828.78,-116.1 822.78,-116.1 822.78,-116.1 593.22,-116.1 593.22,-116.1 587.22,-116.1 581.22,-110.1 581.22,-104.1 581.22,-104.1 581.22,-90.5 581.22,-90.5 581.22,-84.5 587.22,-78.5 593.22,-78.5"/>
<text text-anchor="middle" x="708" y="-104" font-family="Courier,monospace" font-weight="bold" font-size="9.00">area_protected_total_file</text>
<polyline fill="none" stroke="black" points="581.22,-97.3 834.78,-97.3 "/>
<text text-anchor="start" x="589.22" y="-85.2" font-family="Courier,monospace" font-weight="bold" font-size="9.00">prep/lsp/vHS/output/area_protected_total.csv</text>
</g>
<!-- combine_scores_for_inland_and_offshore_and_write_output_layers&#45;&gt;area_protected_total_file -->
<g id="edge15" class="edge"><title>combine_scores_for_inland_and_offshore_and_write_output_layers&#45;&gt;area_protected_total_file</title>
<path fill="none" stroke="black" d="M708,-152.34C708,-144.605 708,-135.279 708,-126.568"/>
<polygon fill="black" stroke="black" points="711.5,-126.396 708,-116.396 704.5,-126.396 711.5,-126.396"/>
</g>
<!-- dir_goal&#45;&gt;read_in_area_weighted_average_of_inland_watershed_score -->
<g id="edge7" class="edge"><title>dir_goal&#45;&gt;read_in_area_weighted_average_of_inland_watershed_score</title>
<path fill="none" stroke="black" d="M602.089,-377.875C615.346,-374.538 630.814,-370.99 645,-368.6 706.67,-358.212 849.342,-344.407 972.829,-333.49"/>
<polygon fill="black" stroke="black" points="973.163,-336.974 982.817,-332.61 972.548,-330.001 973.163,-336.974"/>
</g>
<!-- dir_goal&#45;&gt;read_in_area_weighted_average_of_offshore_1km_score -->
<g id="edge8" class="edge"><title>dir_goal&#45;&gt;read_in_area_weighted_average_of_offshore_1km_score</title>
<path fill="none" stroke="black" d="M601.941,-370.003C621.017,-360.218 645.229,-347.798 665.702,-337.297"/>
<polygon fill="black" stroke="black" points="667.513,-340.301 674.814,-332.623 664.319,-334.073 667.513,-340.301"/>
</g>
<!-- dir_goal&#45;&gt;read_in_area_weighted_average_of_offshore_3nm_score -->
<g id="edge9" class="edge"><title>dir_goal&#45;&gt;read_in_area_weighted_average_of_offshore_3nm_score</title>
<path fill="none" stroke="black" d="M535.951,-379.605C488.695,-369.173 400.145,-349.627 333.284,-334.867"/>
<polygon fill="black" stroke="black" points="333.686,-331.372 323.167,-332.634 332.177,-338.207 333.686,-331.372"/>
</g>
<!-- prot_3nm&#45;&gt;combine_scores_for_inland_and_offshore_and_write_output_layers -->
<g id="edge5" class="edge"><title>prot_3nm&#45;&gt;combine_scores_for_inland_and_offshore_and_write_output_layers</title>
<path fill="none" stroke="black" d="M467.782,-232.087C509.43,-221.6 577.557,-204.445 630.642,-191.079"/>
<polygon fill="black" stroke="black" points="631.527,-194.465 640.37,-188.629 629.818,-187.677 631.527,-194.465"/>
</g>
<!-- prot_1km&#45;&gt;combine_scores_for_inland_and_offshore_and_write_output_layers -->
<g id="edge3" class="edge"><title>prot_1km&#45;&gt;combine_scores_for_inland_and_offshore_and_write_output_layers</title>
<path fill="none" stroke="black" d="M708,-224.297C708,-216.583 708,-207.312 708,-198.712"/>
<polygon fill="black" stroke="black" points="711.5,-198.704 708,-188.704 704.5,-198.704 711.5,-198.704"/>
</g>
<!-- prot_ws&#45;&gt;combine_scores_for_inland_and_offshore_and_write_output_layers -->
<g id="edge1" class="edge"><title>prot_ws&#45;&gt;combine_scores_for_inland_and_offshore_and_write_output_layers</title>
<path fill="none" stroke="black" d="M958.26,-233.502C916.603,-223.198 843.278,-205.061 786.729,-191.074"/>
<polygon fill="black" stroke="black" points="787.282,-187.605 776.735,-188.601 785.602,-194.4 787.282,-187.605"/>
</g>
<!-- setup_R -->
<g id="node10" class="node"><title>setup_R</title>
<path fill="#ffe4b5" stroke="black" d="M615,-515.7C615,-515.7 645,-515.7 645,-515.7 651,-515.7 657,-521.7 657,-527.7 657,-527.7 657,-541.3 657,-541.3 657,-547.3 651,-553.3 645,-553.3 645,-553.3 615,-553.3 615,-553.3 609,-553.3 603,-547.3 603,-541.3 603,-541.3 603,-527.7 603,-527.7 603,-521.7 609,-515.7 615,-515.7"/>
<text text-anchor="middle" x="629.897" y="-541.2" font-family="Courier,monospace" font-weight="bold" font-size="9.00">setup_R</text>
<polyline fill="none" stroke="black" points="603,-534.5 656.794,-534.5 "/>
<text text-anchor="middle" x="629.897" y="-522.4" font-family="Courier,monospace" font-weight="bold" font-size="9.00"> </text>
</g>
<!-- setup_R&#45;&gt;set_up_configuration_and_start_provenance_tracking -->
<g id="edge10" class="edge"><title>setup_R&#45;&gt;set_up_configuration_and_start_provenance_tracking</title>
<path fill="none" stroke="black" d="M605.775,-515.508C593.473,-506.371 578.383,-495.163 565.219,-485.387"/>
<polygon fill="black" stroke="black" points="567.01,-482.357 556.895,-479.205 562.836,-487.977 567.01,-482.357"/>
</g>
<!-- prot_3nm_stats_file -->
<g id="node11" class="node"><title>prot_3nm_stats_file</title>
<path fill="#ffe4b5" stroke="black" d="M223.718,-369.1C223.718,-369.1 426.282,-369.1 426.282,-369.1 432.282,-369.1 438.282,-375.1 438.282,-381.1 438.282,-381.1 438.282,-394.7 438.282,-394.7 438.282,-400.7 432.282,-406.7 426.282,-406.7 426.282,-406.7 223.718,-406.7 223.718,-406.7 217.718,-406.7 211.718,-400.7 211.718,-394.7 211.718,-394.7 211.718,-381.1 211.718,-381.1 211.718,-375.1 217.718,-369.1 223.718,-369.1"/>
<text text-anchor="middle" x="325" y="-394.6" font-family="Courier,monospace" font-weight="bold" font-size="9.00">prot_3nm_stats_file</text>
<polyline fill="none" stroke="black" points="211.718,-387.9 438.282,-387.9 "/>
<text text-anchor="start" x="219.718" y="-375.8" font-family="Courier,monospace" font-weight="bold" font-size="9.00">prep/lsp/vHS/int/area_protected_3nm.csv</text>
</g>
<!-- prot_3nm_stats_file&#45;&gt;read_in_area_weighted_average_of_offshore_3nm_score -->
<g id="edge6" class="edge"><title>prot_3nm_stats_file&#45;&gt;read_in_area_weighted_average_of_offshore_3nm_score</title>
<path fill="none" stroke="black" d="M305.065,-368.908C295.134,-359.945 282.995,-348.99 272.311,-339.347"/>
<polygon fill="black" stroke="black" points="274.61,-336.706 264.841,-332.605 269.92,-341.903 274.61,-336.706"/>
</g>
<!-- prot_1km_stats_file -->
<g id="node12" class="node"><title>prot_1km_stats_file</title>
<path fill="#ffe4b5" stroke="black" d="M665.718,-369.1C665.718,-369.1 868.282,-369.1 868.282,-369.1 874.282,-369.1 880.282,-375.1 880.282,-381.1 880.282,-381.1 880.282,-394.7 880.282,-394.7 880.282,-400.7 874.282,-406.7 868.282,-406.7 868.282,-406.7 665.718,-406.7 665.718,-406.7 659.718,-406.7 653.718,-400.7 653.718,-394.7 653.718,-394.7 653.718,-381.1 653.718,-381.1 653.718,-375.1 659.718,-369.1 665.718,-369.1"/>
<text text-anchor="middle" x="767" y="-394.6" font-family="Courier,monospace" font-weight="bold" font-size="9.00">prot_1km_stats_file</text>
<polyline fill="none" stroke="black" points="653.718,-387.9 880.282,-387.9 "/>
<text text-anchor="start" x="661.718" y="-375.8" font-family="Courier,monospace" font-weight="bold" font-size="9.00">prep/lsp/vHS/int/area_protected_1km.csv</text>
</g>
<!-- prot_1km_stats_file&#45;&gt;read_in_area_weighted_average_of_offshore_1km_score -->
<g id="edge4" class="edge"><title>prot_1km_stats_file&#45;&gt;read_in_area_weighted_average_of_offshore_1km_score</title>
<path fill="none" stroke="black" d="M752.112,-368.908C745.036,-360.357 736.459,-349.992 728.757,-340.684"/>
<polygon fill="black" stroke="black" points="731.345,-338.321 722.273,-332.848 725.952,-342.784 731.345,-338.321"/>
</g>
<!-- prot_ws_stats_file -->
<g id="node13" class="node"><title>prot_ws_stats_file</title>
<path fill="#ffe4b5" stroke="black" d="M1028.42,-369.1C1028.42,-369.1 1225.58,-369.1 1225.58,-369.1 1231.58,-369.1 1237.58,-375.1 1237.58,-381.1 1237.58,-381.1 1237.58,-394.7 1237.58,-394.7 1237.58,-400.7 1231.58,-406.7 1225.58,-406.7 1225.58,-406.7 1028.42,-406.7 1028.42,-406.7 1022.42,-406.7 1016.42,-400.7 1016.42,-394.7 1016.42,-394.7 1016.42,-381.1 1016.42,-381.1 1016.42,-375.1 1022.42,-369.1 1028.42,-369.1"/>
<text text-anchor="middle" x="1127" y="-394.6" font-family="Courier,monospace" font-weight="bold" font-size="9.00">prot_ws_stats_file</text>
<polyline fill="none" stroke="black" points="1016.42,-387.9 1237.58,-387.9 "/>
<text text-anchor="start" x="1024.42" y="-375.8" font-family="Courier,monospace" font-weight="bold" font-size="9.00">prep/lsp/vHS/int/area_protected_ws.csv</text>
</g>
<!-- prot_ws_stats_file&#45;&gt;read_in_area_weighted_average_of_inland_watershed_score -->
<g id="edge2" class="edge"><title>prot_ws_stats_file&#45;&gt;read_in_area_weighted_average_of_inland_watershed_score</title>
<path fill="none" stroke="black" d="M1142.14,-368.908C1149.34,-360.357 1158.06,-349.992 1165.89,-340.684"/>
<polygon fill="black" stroke="black" points="1168.72,-342.753 1172.49,-332.848 1163.37,-338.246 1168.72,-342.753"/>
</g>
<!-- area_protected_total_file_outflow -->
<g id="node19" class="node"><title>area_protected_total_file_outflow</title>
<ellipse fill="none" stroke="black" cx="708" cy="-31" rx="7" ry="7"/>
</g>
<!-- area_protected_total_file&#45;&gt;area_protected_total_file_outflow -->
<g id="edge20" class="edge"><title>area_protected_total_file&#45;&gt;area_protected_total_file_outflow</title>
<path fill="none" stroke="black" d="M708,-78.3889C708,-68.9828 708,-57.5389 708,-48.3712"/>
<polygon fill="black" stroke="black" points="711.5,-48.3008 708,-38.3008 704.5,-48.3008 711.5,-48.3008"/>
</g>
<!-- setup_R_inflow -->
<g id="node15" class="node"><title>setup_R_inflow</title>
<ellipse fill="none" stroke="black" cx="751" cy="-600.8" rx="7" ry="7"/>
</g>
<!-- setup_R_inflow&#45;&gt;setup_R -->
<g id="edge16" class="edge"><title>setup_R_inflow&#45;&gt;setup_R</title>
<path fill="none" stroke="black" d="M745.164,-596.699C731.064,-589.206 694.225,-569.629 665.974,-554.617"/>
<polygon fill="black" stroke="black" points="667.616,-551.526 657.143,-549.924 664.331,-557.707 667.616,-551.526"/>
</g>
<!-- prot_3nm_stats_file_inflow -->
<g id="node16" class="node"><title>prot_3nm_stats_file_inflow</title>
<ellipse fill="none" stroke="black" cx="783" cy="-600.8" rx="7" ry="7"/>
</g>
<!-- prot_3nm_stats_file_inflow&#45;&gt;prot_3nm_stats_file -->
<g id="edge17" class="edge"><title>prot_3nm_stats_file_inflow&#45;&gt;prot_3nm_stats_file</title>
<path fill="none" stroke="black" d="M784.371,-593.894C789.353,-570.771 804.042,-485.573 761,-443.2 749.836,-432.21 573.411,-412.96 448.452,-400.58"/>
<polygon fill="black" stroke="black" points="448.713,-397.088 438.418,-399.589 448.026,-404.055 448.713,-397.088"/>
</g>
<!-- prot_1km_stats_file_inflow -->
<g id="node17" class="node"><title>prot_1km_stats_file_inflow</title>
<ellipse fill="none" stroke="black" cx="815" cy="-600.8" rx="7" ry="7"/>
</g>
<!-- prot_1km_stats_file_inflow&#45;&gt;prot_1km_stats_file -->
<g id="edge18" class="edge"><title>prot_1km_stats_file_inflow&#45;&gt;prot_1km_stats_file</title>
<path fill="none" stroke="black" d="M814.894,-593.674C814.375,-572.389 811.361,-499.85 794,-443.2 791.176,-433.985 786.919,-424.416 782.615,-415.926"/>
<polygon fill="black" stroke="black" points="785.59,-414.066 777.809,-406.874 779.407,-417.348 785.59,-414.066"/>
</g>
<!-- prot_ws_stats_file_inflow -->
<g id="node18" class="node"><title>prot_ws_stats_file_inflow</title>
<ellipse fill="none" stroke="black" cx="847" cy="-600.8" rx="7" ry="7"/>
</g>
<!-- prot_ws_stats_file_inflow&#45;&gt;prot_ws_stats_file -->
<g id="edge19" class="edge"><title>prot_ws_stats_file_inflow&#45;&gt;prot_ws_stats_file</title>
<path fill="none" stroke="black" d="M852.099,-595.959C881.384,-573.902 1029.17,-462.584 1095.13,-412.903"/>
<polygon fill="black" stroke="black" points="1097.25,-415.691 1103.13,-406.878 1093.04,-410.099 1097.25,-415.691"/>
</g>
</g>
</svg>
