<?xml version="1.0" encoding="UTF-8" standalone="no"?>
<!DOCTYPE svg PUBLIC "-//W3C//DTD SVG 1.1//EN"
 "http://www.w3.org/Graphics/SVG/1.1/DTD/svg11.dtd">
<!-- Generated by graphviz version 2.38.0 (20140413.2041)
 -->
<!-- Title: yw_data_view Pages: 1 -->
<svg width="1458pt" height="669pt"
 viewBox="0.00 0.00 1458.00 669.40" xmlns="http://www.w3.org/2000/svg" xmlns:xlink="http://www.w3.org/1999/xlink">
<g id="graph0" class="graph" transform="scale(1 1) rotate(0) translate(4 665.4)">
<title>yw_data_view</title>
<polygon fill="white" stroke="none" points="-4,4 -4,-665.4 1454,-665.4 1454,4 -4,4"/>
<text text-anchor="middle" x="725" y="-641.2" font-family="Courier,monospace" font-size="18.00">combine_scores_for_inland_and_offshore</text>
<g id="clust1" class="cluster"><title>cluster_workflow</title>
<polygon fill="none" stroke="black" stroke-width="2" points="8,-62 8,-569.8 1442,-569.8 1442,-62 8,-62"/>
</g>
<g id="clust2" class="cluster"><title>cluster_workflow_inner</title>
<polygon fill="none" stroke="white" stroke-width="2" points="16,-70 16,-561.8 1434,-561.8 1434,-70 16,-70"/>
</g>
<g id="clust3" class="cluster"><title>cluster_inflows</title>
<polygon fill="none" stroke="white" stroke-width="2" points="728,-577.8 728,-623.8 870,-623.8 870,-577.8 728,-577.8"/>
</g>
<g id="clust4" class="cluster"><title>cluster_inflows_inner</title>
<polygon fill="none" stroke="white" stroke-width="2" points="736,-585.8 736,-615.8 862,-615.8 862,-585.8 736,-585.8"/>
</g>
<g id="clust5" class="cluster"><title>cluster_outflows</title>
<polygon fill="none" stroke="white" stroke-width="2" points="685,-8 685,-54 731,-54 731,-8 685,-8"/>
</g>
<g id="clust6" class="cluster"><title>cluster_outflows_inner</title>
<polygon fill="none" stroke="white" stroke-width="2" points="693,-16 693,-46 723,-46 723,-16 693,-16"/>
</g>
<!-- set_up_configuration_and_start_provenance_tracking -->
<g id="node1" class="node"><title>set_up_configuration_and_start_provenance_tracking</title>
<polygon fill="#ccffcc" stroke="black" points="751.93,-479.2 316.07,-479.2 316.07,-443.2 751.93,-443.2 751.93,-479.2"/>
<text text-anchor="middle" x="534" y="-457" font-family="Courier,monospace" font-size="14.00">set_up_configuration_and_start_provenance_tracking</text>
</g>
<!-- dir_goal -->
<g id="node10" class="node"><title>dir_goal</title>
<path fill="#ffffcc" stroke="black" d="M587,-405.9C587,-405.9 557,-405.9 557,-405.9 551,-405.9 545,-399.9 545,-393.9 545,-393.9 545,-381.9 545,-381.9 545,-375.9 551,-369.9 557,-369.9 557,-369.9 587,-369.9 587,-369.9 593,-369.9 599,-375.9 599,-381.9 599,-381.9 599,-393.9 599,-393.9 599,-399.9 593,-405.9 587,-405.9"/>
<text text-anchor="middle" x="572" y="-385.2" font-family="Helvetica,sans-Serif" font-size="9.00">dir_goal</text>
</g>
<!-- set_up_configuration_and_start_provenance_tracking&#45;&gt;dir_goal -->
<g id="edge11" class="edge"><title>set_up_configuration_and_start_provenance_tracking&#45;&gt;dir_goal</title>
<path fill="none" stroke="black" d="M543.199,-442.94C547.68,-434.533 553.162,-424.246 558.137,-414.912"/>
<polygon fill="black" stroke="black" points="561.271,-416.472 562.886,-406.001 555.094,-413.18 561.271,-416.472"/>
</g>
<!-- read_in_area_weighted_average_of_offshore_3nm_score -->
<g id="node2" class="node"><title>read_in_area_weighted_average_of_offshore_3nm_score</title>
<polygon fill="#ccffcc" stroke="black" points="468.329,-332.6 23.6713,-332.6 23.6713,-296.6 468.329,-296.6 468.329,-332.6"/>
<text text-anchor="middle" x="246" y="-310.4" font-family="Courier,monospace" font-size="14.00">read_in_area_weighted_average_of_offshore_3nm_score</text>
</g>
<!-- prot_3nm -->
<g id="node11" class="node"><title>prot_3nm</title>
<path fill="#ffffcc" stroke="black" d="M456.009,-260.6C456.009,-260.6 425.991,-260.6 425.991,-260.6 419.991,-260.6 413.991,-254.6 413.991,-248.6 413.991,-248.6 413.991,-236.6 413.991,-236.6 413.991,-230.6 419.991,-224.6 425.991,-224.6 425.991,-224.6 456.009,-224.6 456.009,-224.6 462.009,-224.6 468.009,-230.6 468.009,-236.6 468.009,-236.6 468.009,-248.6 468.009,-248.6 468.009,-254.6 462.009,-260.6 456.009,-260.6"/>
<text text-anchor="middle" x="441" y="-239.9" font-family="Helvetica,sans-Serif" font-size="9.00">prot_3nm</text>
</g>
<!-- read_in_area_weighted_average_of_offshore_3nm_score&#45;&gt;prot_3nm -->
<g id="edge12" class="edge"><title>read_in_area_weighted_average_of_offshore_3nm_score&#45;&gt;prot_3nm</title>
<path fill="none" stroke="black" d="M293.702,-296.476C327.786,-284.241 372.968,-268.022 404.262,-256.788"/>
<polygon fill="black" stroke="black" points="405.673,-260 413.903,-253.327 403.308,-253.412 405.673,-260"/>
</g>
<!-- read_in_area_weighted_average_of_offshore_1km_score -->
<g id="node3" class="node"><title>read_in_area_weighted_average_of_offshore_1km_score</title>
<polygon fill="#ccffcc" stroke="black" points="930.329,-332.6 485.671,-332.6 485.671,-296.6 930.329,-296.6 930.329,-332.6"/>
<text text-anchor="middle" x="708" y="-310.4" font-family="Courier,monospace" font-size="14.00">read_in_area_weighted_average_of_offshore_1km_score</text>
</g>
<!-- prot_1km -->
<g id="node12" class="node"><title>prot_1km</title>
<path fill="#ffffcc" stroke="black" d="M723,-260.6C723,-260.6 693,-260.6 693,-260.6 687,-260.6 681,-254.6 681,-248.6 681,-248.6 681,-236.6 681,-236.6 681,-230.6 687,-224.6 693,-224.6 693,-224.6 723,-224.6 723,-224.6 729,-224.6 735,-230.6 735,-236.6 735,-236.6 735,-248.6 735,-248.6 735,-254.6 729,-260.6 723,-260.6"/>
<text text-anchor="middle" x="708" y="-239.9" font-family="Helvetica,sans-Serif" font-size="9.00">prot_1km</text>
</g>
<!-- read_in_area_weighted_average_of_offshore_1km_score&#45;&gt;prot_1km -->
<g id="edge13" class="edge"><title>read_in_area_weighted_average_of_offshore_1km_score&#45;&gt;prot_1km</title>
<path fill="none" stroke="black" d="M708,-296.297C708,-288.583 708,-279.312 708,-270.712"/>
<polygon fill="black" stroke="black" points="711.5,-270.704 708,-260.704 704.5,-270.704 711.5,-270.704"/>
</g>
<!-- read_in_area_weighted_average_of_inland_watershed_score -->
<g id="node4" class="node"><title>read_in_area_weighted_average_of_inland_watershed_score</title>
<polygon fill="#ccffcc" stroke="black" points="1425.92,-332.6 948.077,-332.6 948.077,-296.6 1425.92,-296.6 1425.92,-332.6"/>
<text text-anchor="middle" x="1187" y="-310.4" font-family="Courier,monospace" font-size="14.00">read_in_area_weighted_average_of_inland_watershed_score</text>
</g>
<!-- prot_ws -->
<g id="node13" class="node"><title>prot_ws</title>
<path fill="#ffffcc" stroke="black" d="M998,-260.6C998,-260.6 968,-260.6 968,-260.6 962,-260.6 956,-254.6 956,-248.6 956,-248.6 956,-236.6 956,-236.6 956,-230.6 962,-224.6 968,-224.6 968,-224.6 998,-224.6 998,-224.6 1004,-224.6 1010,-230.6 1010,-236.6 1010,-236.6 1010,-248.6 1010,-248.6 1010,-254.6 1004,-260.6 998,-260.6"/>
<text text-anchor="middle" x="983" y="-239.9" font-family="Helvetica,sans-Serif" font-size="9.00">prot_ws</text>
</g>
<!-- read_in_area_weighted_average_of_inland_watershed_score&#45;&gt;prot_ws -->
<g id="edge14" class="edge"><title>read_in_area_weighted_average_of_inland_watershed_score&#45;&gt;prot_ws</title>
<path fill="none" stroke="black" d="M1137.36,-296.566C1101.12,-284.133 1052.8,-267.55 1019.94,-256.274"/>
<polygon fill="black" stroke="black" points="1020.86,-252.891 1010.27,-252.956 1018.59,-259.512 1020.86,-252.891"/>
</g>
<!-- combine_scores_for_inland_and_offshore_and_write_output_layers -->
<g id="node5" class="node"><title>combine_scores_for_inland_and_offshore_and_write_output_layers</title>
<polygon fill="#ccffcc" stroke="black" points="976.213,-188.6 439.787,-188.6 439.787,-152.6 976.213,-152.6 976.213,-188.6"/>
<text text-anchor="middle" x="708" y="-166.4" font-family="Courier,monospace" font-size="14.00">combine_scores_for_inland_and_offshore_and_write_output_layers</text>
</g>
<!-- area_protected_total_file -->
<g id="node14" class="node"><title>area_protected_total_file</title>
<path fill="#ffe4b5" stroke="black" d="M593.22,-78.5C593.22,-78.5 822.78,-78.5 822.78,-78.5 828.78,-78.5 834.78,-84.5 834.78,-90.5 834.78,-90.5 834.78,-104.1 834.78,-104.1 834.78,-110.1 828.78,-116.1 822.78,-116.1 822.78,-116.1 593.22,-116.1 593.22,-116.1 587.22,-116.1 581.22,-110.1 581.22,-104.1 581.22,-104.1 581.22,-90.5 581.22,-90.5 581.22,-84.5 587.22,-78.5 593.22,-78.5"/>
<text text-anchor="middle" x="708" y="-104" font-family="Courier,monospace" font-weight="bold" font-size="9.00">area_protected_total_file</text>
<polyline fill="none" stroke="black" points="581.22,-97.3 834.78,-97.3 "/>
<text text-anchor="start" x="589.22" y="-85.2" font-family="Courier,monospace" font-weight="bold" font-size="9.00">prep/lsp/vHS/output/area_protected_total.csv</text>
</g>
<!-- combine_scores_for_inland_and_offshore_and_write_output_layers&#45;&gt;area_protected_total_file -->
<g id="edge15" class="edge"><title>combine_scores_for_inland_and_offshore_and_write_output_layers&#45;&gt;area_protected_total_file</title>
<path fill="none" stroke="black" d="M708,-152.34C708,-144.605 708,-135.279 708,-126.568"/>
<polygon fill="black" stroke="black" points="711.5,-126.396 708,-116.396 704.5,-126.396 711.5,-126.396"/>
</g>
<!-- setup_R -->
<g id="node6" class="node"><title>setup_R</title>
<path fill="#ffe4b5" stroke="black" d="M615,-515.7C615,-515.7 645,-515.7 645,-515.7 651,-515.7 657,-521.7 657,-527.7 657,-527.7 657,-541.3 657,-541.3 657,-547.3 651,-553.3 645,-553.3 645,-553.3 615,-553.3 615,-553.3 609,-553.3 603,-547.3 603,-541.3 603,-541.3 603,-527.7 603,-527.7 603,-521.7 609,-515.7 615,-515.7"/>
<text text-anchor="middle" x="629.897" y="-541.2" font-family="Courier,monospace" font-weight="bold" font-size="9.00">setup_R</text>
<polyline fill="none" stroke="black" points="603,-534.5 656.794,-534.5 "/>
<text text-anchor="middle" x="629.897" y="-522.4" font-family="Courier,monospace" font-weight="bold" font-size="9.00"> </text>
</g>
<!-- setup_R&#45;&gt;set_up_configuration_and_start_provenance_tracking -->
<g id="edge1" class="edge"><title>setup_R&#45;&gt;set_up_configuration_and_start_provenance_tracking</title>
<path fill="none" stroke="black" d="M605.775,-515.508C593.473,-506.371 578.383,-495.163 565.219,-485.387"/>
<polygon fill="black" stroke="black" points="567.01,-482.357 556.895,-479.205 562.836,-487.977 567.01,-482.357"/>
</g>
<!-- prot_3nm_stats_file -->
<g id="node7" class="node"><title>prot_3nm_stats_file</title>
<path fill="#ffe4b5" stroke="black" d="M228.718,-369.1C228.718,-369.1 431.282,-369.1 431.282,-369.1 437.282,-369.1 443.282,-375.1 443.282,-381.1 443.282,-381.1 443.282,-394.7 443.282,-394.7 443.282,-400.7 437.282,-406.7 431.282,-406.7 431.282,-406.7 228.718,-406.7 228.718,-406.7 222.718,-406.7 216.718,-400.7 216.718,-394.7 216.718,-394.7 216.718,-381.1 216.718,-381.1 216.718,-375.1 222.718,-369.1 228.718,-369.1"/>
<text text-anchor="middle" x="330" y="-394.6" font-family="Courier,monospace" font-weight="bold" font-size="9.00">prot_3nm_stats_file</text>
<polyline fill="none" stroke="black" points="216.718,-387.9 443.282,-387.9 "/>
<text text-anchor="start" x="224.718" y="-375.8" font-family="Courier,monospace" font-weight="bold" font-size="9.00">prep/lsp/vHS/int/area_protected_3nm.csv</text>
</g>
<!-- prot_3nm_stats_file&#45;&gt;read_in_area_weighted_average_of_offshore_3nm_score -->
<g id="edge5" class="edge"><title>prot_3nm_stats_file&#45;&gt;read_in_area_weighted_average_of_offshore_3nm_score</title>
<path fill="none" stroke="black" d="M308.803,-368.908C298.244,-359.945 285.337,-348.99 273.977,-339.347"/>
<polygon fill="black" stroke="black" points="275.922,-336.407 266.033,-332.605 271.392,-341.744 275.922,-336.407"/>
</g>
<!-- prot_1km_stats_file -->
<g id="node8" class="node"><title>prot_1km_stats_file</title>
<path fill="#ffe4b5" stroke="black" d="M665.718,-369.1C665.718,-369.1 868.282,-369.1 868.282,-369.1 874.282,-369.1 880.282,-375.1 880.282,-381.1 880.282,-381.1 880.282,-394.7 880.282,-394.7 880.282,-400.7 874.282,-406.7 868.282,-406.7 868.282,-406.7 665.718,-406.7 665.718,-406.7 659.718,-406.7 653.718,-400.7 653.718,-394.7 653.718,-394.7 653.718,-381.1 653.718,-381.1 653.718,-375.1 659.718,-369.1 665.718,-369.1"/>
<text text-anchor="middle" x="767" y="-394.6" font-family="Courier,monospace" font-weight="bold" font-size="9.00">prot_1km_stats_file</text>
<polyline fill="none" stroke="black" points="653.718,-387.9 880.282,-387.9 "/>
<text text-anchor="start" x="661.718" y="-375.8" font-family="Courier,monospace" font-weight="bold" font-size="9.00">prep/lsp/vHS/int/area_protected_1km.csv</text>
</g>
<!-- prot_1km_stats_file&#45;&gt;read_in_area_weighted_average_of_offshore_1km_score -->
<g id="edge7" class="edge"><title>prot_1km_stats_file&#45;&gt;read_in_area_weighted_average_of_offshore_1km_score</title>
<path fill="none" stroke="black" d="M752.112,-368.908C745.036,-360.357 736.459,-349.992 728.757,-340.684"/>
<polygon fill="black" stroke="black" points="731.345,-338.321 722.273,-332.848 725.952,-342.784 731.345,-338.321"/>
</g>
<!-- prot_ws_stats_file -->
<g id="node9" class="node"><title>prot_ws_stats_file</title>
<path fill="#ffe4b5" stroke="black" d="M1028.42,-369.1C1028.42,-369.1 1225.58,-369.1 1225.58,-369.1 1231.58,-369.1 1237.58,-375.1 1237.58,-381.1 1237.58,-381.1 1237.58,-394.7 1237.58,-394.7 1237.58,-400.7 1231.58,-406.7 1225.58,-406.7 1225.58,-406.7 1028.42,-406.7 1028.42,-406.7 1022.42,-406.7 1016.42,-400.7 1016.42,-394.7 1016.42,-394.7 1016.42,-381.1 1016.42,-381.1 1016.42,-375.1 1022.42,-369.1 1028.42,-369.1"/>
<text text-anchor="middle" x="1127" y="-394.6" font-family="Courier,monospace" font-weight="bold" font-size="9.00">prot_ws_stats_file</text>
<polyline fill="none" stroke="black" points="1016.42,-387.9 1237.58,-387.9 "/>
<text text-anchor="start" x="1024.42" y="-375.8" font-family="Courier,monospace" font-weight="bold" font-size="9.00">prep/lsp/vHS/int/area_protected_ws.csv</text>
</g>
<!-- prot_ws_stats_file&#45;&gt;read_in_area_weighted_average_of_inland_watershed_score -->
<g id="edge9" class="edge"><title>prot_ws_stats_file&#45;&gt;read_in_area_weighted_average_of_inland_watershed_score</title>
<path fill="none" stroke="black" d="M1142.14,-368.908C1149.34,-360.357 1158.06,-349.992 1165.89,-340.684"/>
<polygon fill="black" stroke="black" points="1168.72,-342.753 1172.49,-332.848 1163.37,-338.246 1168.72,-342.753"/>
</g>
<!-- dir_goal&#45;&gt;read_in_area_weighted_average_of_offshore_3nm_score -->
<g id="edge2" class="edge"><title>dir_goal&#45;&gt;read_in_area_weighted_average_of_offshore_3nm_score</title>
<path fill="none" stroke="black" d="M544.766,-380.944C498.874,-370.906 404.241,-350.209 333.711,-334.783"/>
<polygon fill="black" stroke="black" points="334.443,-331.361 323.926,-332.643 332.948,-338.199 334.443,-331.361"/>
</g>
<!-- dir_goal&#45;&gt;read_in_area_weighted_average_of_offshore_1km_score -->
<g id="edge3" class="edge"><title>dir_goal&#45;&gt;read_in_area_weighted_average_of_offshore_1km_score</title>
<path fill="none" stroke="black" d="M599.195,-372.643C618.322,-362.615 644.284,-349.004 666.051,-337.592"/>
<polygon fill="black" stroke="black" points="667.859,-340.596 675.09,-332.853 664.609,-334.397 667.859,-340.596"/>
</g>
<!-- dir_goal&#45;&gt;read_in_area_weighted_average_of_inland_watershed_score -->
<g id="edge4" class="edge"><title>dir_goal&#45;&gt;read_in_area_weighted_average_of_inland_watershed_score</title>
<path fill="none" stroke="black" d="M599.181,-379.067C612.829,-375.395 629.68,-371.254 645,-368.6 706.162,-358.003 847.177,-344.334 970.036,-333.531"/>
<polygon fill="black" stroke="black" points="970.696,-336.987 980.352,-332.627 970.085,-330.013 970.696,-336.987"/>
</g>
<!-- prot_3nm&#45;&gt;combine_scores_for_inland_and_offshore_and_write_output_layers -->
<g id="edge6" class="edge"><title>prot_3nm&#45;&gt;combine_scores_for_inland_and_offshore_and_write_output_layers</title>
<path fill="none" stroke="black" d="M468.071,-234.503C506.466,-224.437 578.192,-205.632 633.257,-191.196"/>
<polygon fill="black" stroke="black" points="634.199,-194.567 642.985,-188.645 632.424,-187.796 634.199,-194.567"/>
</g>
<!-- prot_1km&#45;&gt;combine_scores_for_inland_and_offshore_and_write_output_layers -->
<g id="edge8" class="edge"><title>prot_1km&#45;&gt;combine_scores_for_inland_and_offshore_and_write_output_layers</title>
<path fill="none" stroke="black" d="M708,-224.297C708,-216.583 708,-207.312 708,-198.712"/>
<polygon fill="black" stroke="black" points="711.5,-198.704 708,-188.704 704.5,-198.704 711.5,-198.704"/>
</g>
<!-- prot_ws&#45;&gt;combine_scores_for_inland_and_offshore_and_write_output_layers -->
<g id="edge10" class="edge"><title>prot_ws&#45;&gt;combine_scores_for_inland_and_offshore_and_write_output_layers</title>
<path fill="none" stroke="black" d="M955.879,-234.697C916.426,-224.654 841.685,-205.629 784.549,-191.085"/>
<polygon fill="black" stroke="black" points="785.374,-187.684 774.819,-188.609 783.647,-194.467 785.374,-187.684"/>
</g>
<!-- area_protected_total_file_outflow -->
<g id="node19" class="node"><title>area_protected_total_file_outflow</title>
<ellipse fill="none" stroke="black" cx="708" cy="-31" rx="7" ry="7"/>
</g>
<!-- area_protected_total_file&#45;&gt;area_protected_total_file_outflow -->
<g id="edge20" class="edge"><title>area_protected_total_file&#45;&gt;area_protected_total_file_outflow</title>
<path fill="none" stroke="black" d="M708,-78.3889C708,-68.9828 708,-57.5389 708,-48.3712"/>
<polygon fill="black" stroke="black" points="711.5,-48.3008 708,-38.3008 704.5,-48.3008 711.5,-48.3008"/>
</g>
<!-- setup_R_inflow -->
<g id="node15" class="node"><title>setup_R_inflow</title>
<ellipse fill="none" stroke="black" cx="751" cy="-600.8" rx="7" ry="7"/>
</g>
<!-- setup_R_inflow&#45;&gt;setup_R -->
<g id="edge16" class="edge"><title>setup_R_inflow&#45;&gt;setup_R</title>
<path fill="none" stroke="black" d="M745.164,-596.699C731.064,-589.206 694.225,-569.629 665.974,-554.617"/>
<polygon fill="black" stroke="black" points="667.616,-551.526 657.143,-549.924 664.331,-557.707 667.616,-551.526"/>
</g>
<!-- prot_3nm_stats_file_inflow -->
<g id="node16" class="node"><title>prot_3nm_stats_file_inflow</title>
<ellipse fill="none" stroke="black" cx="783" cy="-600.8" rx="7" ry="7"/>
</g>
<!-- prot_3nm_stats_file_inflow&#45;&gt;prot_3nm_stats_file -->
<g id="edge17" class="edge"><title>prot_3nm_stats_file_inflow&#45;&gt;prot_3nm_stats_file</title>
<path fill="none" stroke="black" d="M784.369,-593.896C789.345,-570.779 804.012,-485.604 761,-443.2 750.022,-432.377 577.203,-413.224 453.785,-400.8"/>
<polygon fill="black" stroke="black" points="453.797,-397.284 443.498,-399.769 453.099,-404.249 453.797,-397.284"/>
</g>
<!-- prot_1km_stats_file_inflow -->
<g id="node17" class="node"><title>prot_1km_stats_file_inflow</title>
<ellipse fill="none" stroke="black" cx="815" cy="-600.8" rx="7" ry="7"/>
</g>
<!-- prot_1km_stats_file_inflow&#45;&gt;prot_1km_stats_file -->
<g id="edge18" class="edge"><title>prot_1km_stats_file_inflow&#45;&gt;prot_1km_stats_file</title>
<path fill="none" stroke="black" d="M814.894,-593.674C814.375,-572.389 811.361,-499.85 794,-443.2 791.176,-433.985 786.919,-424.416 782.615,-415.926"/>
<polygon fill="black" stroke="black" points="785.59,-414.066 777.809,-406.874 779.407,-417.348 785.59,-414.066"/>
</g>
<!-- prot_ws_stats_file_inflow -->
<g id="node18" class="node"><title>prot_ws_stats_file_inflow</title>
<ellipse fill="none" stroke="black" cx="847" cy="-600.8" rx="7" ry="7"/>
</g>
<!-- prot_ws_stats_file_inflow&#45;&gt;prot_ws_stats_file -->
<g id="edge19" class="edge"><title>prot_ws_stats_file_inflow&#45;&gt;prot_ws_stats_file</title>
<path fill="none" stroke="black" d="M852.099,-595.959C881.384,-573.902 1029.17,-462.584 1095.13,-412.903"/>
<polygon fill="black" stroke="black" points="1097.25,-415.691 1103.13,-406.878 1093.04,-410.099 1097.25,-415.691"/>
</g>
</g>
</svg>
