<?xml version="1.0" encoding="UTF-8" standalone="no"?>
<!DOCTYPE svg PUBLIC "-//W3C//DTD SVG 1.1//EN"
 "http://www.w3.org/Graphics/SVG/1.1/DTD/svg11.dtd">
<!-- Generated by graphviz version 2.38.0 (20140413.2041)
 -->
<!-- Title: yw_data_view Pages: 1 -->
<svg width="592pt" height="662pt"
 viewBox="0.00 0.00 592.00 661.60" xmlns="http://www.w3.org/2000/svg" xmlns:xlink="http://www.w3.org/1999/xlink">
<g id="graph0" class="graph" transform="scale(1 1) rotate(0) translate(4 657.6)">
<title>yw_data_view</title>
<polygon fill="white" stroke="none" points="-4,4 -4,-657.6 588,-657.6 588,4 -4,4"/>
<text text-anchor="middle" x="292" y="-633.4" font-family="Courier,monospace" font-size="18.00">combine_scores_for_inland_and_offshore_and_outputs</text>
<g id="clust1" class="cluster"><title>cluster_workflow</title>
<polygon fill="none" stroke="black" stroke-width="2" points="8,-62 8,-562 576,-562 576,-62 8,-62"/>
</g>
<g id="clust2" class="cluster"><title>cluster_workflow_inner</title>
<polygon fill="none" stroke="white" stroke-width="2" points="16,-70 16,-554 568,-554 568,-70 16,-70"/>
</g>
<g id="clust3" class="cluster"><title>cluster_inflows</title>
<polygon fill="none" stroke="white" stroke-width="2" points="433,-570 433,-616 575,-616 575,-570 433,-570"/>
</g>
<g id="clust4" class="cluster"><title>cluster_inflows_inner</title>
<polygon fill="none" stroke="white" stroke-width="2" points="441,-578 441,-608 567,-608 567,-578 441,-578"/>
</g>
<g id="clust5" class="cluster"><title>cluster_outflows</title>
<polygon fill="none" stroke="white" stroke-width="2" points="269,-8 269,-54 315,-54 315,-8 269,-8"/>
</g>
<g id="clust6" class="cluster"><title>cluster_outflows_inner</title>
<polygon fill="none" stroke="white" stroke-width="2" points="277,-16 277,-46 307,-46 307,-16 277,-16"/>
</g>
<!-- read_in_protected_area_and_total_area_by_region -->
<g id="node1" class="node"><title>read_in_protected_area_and_total_area_by_region</title>
<polygon fill="#ccffcc" stroke="black" points="497.234,-330 86.7657,-330 86.7657,-294 497.234,-294 497.234,-330"/>
<text text-anchor="middle" x="292" y="-307.8" font-family="Courier,monospace" font-size="14.00">read_in_protected_area_and_total_area_by_region</text>
</g>
<!-- prot_3nm -->
<g id="node9" class="node"><title>prot_3nm</title>
<path fill="#ffffcc" stroke="black" d="M224.625,-258C224.625,-258 173.375,-258 173.375,-258 167.375,-258 161.375,-252 161.375,-246 161.375,-246 161.375,-234 161.375,-234 161.375,-228 167.375,-222 173.375,-222 173.375,-222 224.625,-222 224.625,-222 230.625,-222 236.625,-228 236.625,-234 236.625,-234 236.625,-246 236.625,-246 236.625,-252 230.625,-258 224.625,-258"/>
<text text-anchor="middle" x="199" y="-235.8" font-family="Helvetica,sans-Serif" font-size="14.00">prot_3nm</text>
</g>
<!-- read_in_protected_area_and_total_area_by_region&#45;&gt;prot_3nm -->
<g id="edge10" class="edge"><title>read_in_protected_area_and_total_area_by_region&#45;&gt;prot_3nm</title>
<path fill="none" stroke="black" d="M269.011,-293.697C257.186,-284.796 242.608,-273.823 229.821,-264.199"/>
<polygon fill="black" stroke="black" points="231.819,-261.322 221.724,-258.104 227.609,-266.915 231.819,-261.322"/>
</g>
<!-- prot_1km -->
<g id="node10" class="node"><title>prot_1km</title>
<path fill="#ffffcc" stroke="black" d="M317.343,-258C317.343,-258 266.657,-258 266.657,-258 260.657,-258 254.657,-252 254.657,-246 254.657,-246 254.657,-234 254.657,-234 254.657,-228 260.657,-222 266.657,-222 266.657,-222 317.343,-222 317.343,-222 323.343,-222 329.343,-228 329.343,-234 329.343,-234 329.343,-246 329.343,-246 329.343,-252 323.343,-258 317.343,-258"/>
<text text-anchor="middle" x="292" y="-235.8" font-family="Helvetica,sans-Serif" font-size="14.00">prot_1km</text>
</g>
<!-- read_in_protected_area_and_total_area_by_region&#45;&gt;prot_1km -->
<g id="edge11" class="edge"><title>read_in_protected_area_and_total_area_by_region&#45;&gt;prot_1km</title>
<path fill="none" stroke="black" d="M292,-293.697C292,-285.983 292,-276.712 292,-268.112"/>
<polygon fill="black" stroke="black" points="295.5,-268.104 292,-258.104 288.5,-268.104 295.5,-268.104"/>
</g>
<!-- prot_ws -->
<g id="node11" class="node"><title>prot_ws</title>
<path fill="#ffffcc" stroke="black" d="M400.506,-258C400.506,-258 359.494,-258 359.494,-258 353.494,-258 347.494,-252 347.494,-246 347.494,-246 347.494,-234 347.494,-234 347.494,-228 353.494,-222 359.494,-222 359.494,-222 400.506,-222 400.506,-222 406.506,-222 412.506,-228 412.506,-234 412.506,-234 412.506,-246 412.506,-246 412.506,-252 406.506,-258 400.506,-258"/>
<text text-anchor="middle" x="380" y="-235.8" font-family="Helvetica,sans-Serif" font-size="14.00">prot_ws</text>
</g>
<!-- read_in_protected_area_and_total_area_by_region&#45;&gt;prot_ws -->
<g id="edge12" class="edge"><title>read_in_protected_area_and_total_area_by_region&#45;&gt;prot_ws</title>
<path fill="none" stroke="black" d="M313.753,-293.697C324.836,-284.881 338.474,-274.032 350.49,-264.474"/>
<polygon fill="black" stroke="black" points="352.85,-267.069 358.497,-258.104 348.493,-261.59 352.85,-267.069"/>
</g>
<!-- set_up_configuration_and_start_provenance_tracking -->
<g id="node2" class="node"><title>set_up_configuration_and_start_provenance_tracking</title>
<polygon fill="#ccffcc" stroke="black" points="459.93,-474 24.07,-474 24.07,-438 459.93,-438 459.93,-474"/>
<text text-anchor="middle" x="242" y="-451.8" font-family="Courier,monospace" font-size="14.00">set_up_configuration_and_start_provenance_tracking</text>
</g>
<!-- dir_goal -->
<g id="node5" class="node"><title>dir_goal</title>
<path fill="#ffffcc" stroke="black" d="M89.7871,-402C89.7871,-402 48.2129,-402 48.2129,-402 42.2129,-402 36.2129,-396 36.2129,-390 36.2129,-390 36.2129,-378 36.2129,-378 36.2129,-372 42.2129,-366 48.2129,-366 48.2129,-366 89.7871,-366 89.7871,-366 95.7871,-366 101.787,-372 101.787,-378 101.787,-378 101.787,-390 101.787,-390 101.787,-396 95.7871,-402 89.7871,-402"/>
<text text-anchor="middle" x="69" y="-379.8" font-family="Helvetica,sans-Serif" font-size="14.00">dir_goal</text>
</g>
<!-- set_up_configuration_and_start_provenance_tracking&#45;&gt;dir_goal -->
<g id="edge9" class="edge"><title>set_up_configuration_and_start_provenance_tracking&#45;&gt;dir_goal</title>
<path fill="none" stroke="black" d="M199.679,-437.876C172.863,-427.026 138.303,-413.042 111.46,-402.18"/>
<polygon fill="black" stroke="black" points="112.531,-398.838 101.948,-398.332 109.905,-405.327 112.531,-398.838"/>
</g>
<!-- combine_scores_for_inland_and_offshore_and_write_output_layers -->
<g id="node3" class="node"><title>combine_scores_for_inland_and_offshore_and_write_output_layers</title>
<polygon fill="#ccffcc" stroke="black" points="560.213,-186 23.7867,-186 23.7867,-150 560.213,-150 560.213,-186"/>
<text text-anchor="middle" x="292" y="-163.8" font-family="Courier,monospace" font-size="14.00">combine_scores_for_inland_and_offshore_and_write_output_layers</text>
</g>
<!-- area_protected_total_file -->
<g id="node12" class="node"><title>area_protected_total_file</title>
<path fill="#ffffcc" stroke="black" d="M365.05,-114C365.05,-114 218.95,-114 218.95,-114 212.95,-114 206.95,-108 206.95,-102 206.95,-102 206.95,-90 206.95,-90 206.95,-84 212.95,-78 218.95,-78 218.95,-78 365.05,-78 365.05,-78 371.05,-78 377.05,-84 377.05,-90 377.05,-90 377.05,-102 377.05,-102 377.05,-108 371.05,-114 365.05,-114"/>
<text text-anchor="middle" x="292" y="-91.8" font-family="Helvetica,sans-Serif" font-size="14.00">area_protected_total_file</text>
</g>
<!-- combine_scores_for_inland_and_offshore_and_write_output_layers&#45;&gt;area_protected_total_file -->
<g id="edge13" class="edge"><title>combine_scores_for_inland_and_offshore_and_write_output_layers&#45;&gt;area_protected_total_file</title>
<path fill="none" stroke="black" d="M292,-149.697C292,-141.983 292,-132.712 292,-124.112"/>
<polygon fill="black" stroke="black" points="295.5,-124.104 292,-114.104 288.5,-124.104 295.5,-124.104"/>
</g>
<!-- setup_R -->
<g id="node4" class="node"><title>setup_R</title>
<path fill="#ffffcc" stroke="black" d="M356.128,-546C356.128,-546 311.872,-546 311.872,-546 305.872,-546 299.872,-540 299.872,-534 299.872,-534 299.872,-522 299.872,-522 299.872,-516 305.872,-510 311.872,-510 311.872,-510 356.128,-510 356.128,-510 362.128,-510 368.128,-516 368.128,-522 368.128,-522 368.128,-534 368.128,-534 368.128,-540 362.128,-546 356.128,-546"/>
<text text-anchor="middle" x="334" y="-523.8" font-family="Helvetica,sans-Serif" font-size="14.00">setup_R</text>
</g>
<!-- setup_R&#45;&gt;set_up_configuration_and_start_provenance_tracking -->
<g id="edge8" class="edge"><title>setup_R&#45;&gt;set_up_configuration_and_start_provenance_tracking</title>
<path fill="none" stroke="black" d="M311.258,-509.697C299.56,-500.796 285.139,-489.823 272.49,-480.199"/>
<polygon fill="black" stroke="black" points="274.558,-477.374 264.48,-474.104 270.319,-482.945 274.558,-477.374"/>
</g>
<!-- dir_goal&#45;&gt;read_in_protected_area_and_total_area_by_region -->
<g id="edge7" class="edge"><title>dir_goal&#45;&gt;read_in_protected_area_and_total_area_by_region</title>
<path fill="none" stroke="black" d="M101.897,-369.323C104.96,-368.159 108.028,-367.034 111,-366 145.753,-353.912 184.872,-342.224 217.828,-332.914"/>
<polygon fill="black" stroke="black" points="219.163,-336.175 227.846,-330.103 217.272,-329.435 219.163,-336.175"/>
</g>
<!-- prot_3nm_stats_file -->
<g id="node6" class="node"><title>prot_3nm_stats_file</title>
<path fill="#ffffcc" stroke="black" d="M246.14,-402C246.14,-402 131.86,-402 131.86,-402 125.86,-402 119.86,-396 119.86,-390 119.86,-390 119.86,-378 119.86,-378 119.86,-372 125.86,-366 131.86,-366 131.86,-366 246.14,-366 246.14,-366 252.14,-366 258.14,-372 258.14,-378 258.14,-378 258.14,-390 258.14,-390 258.14,-396 252.14,-402 246.14,-402"/>
<text text-anchor="middle" x="189" y="-379.8" font-family="Helvetica,sans-Serif" font-size="14.00">prot_3nm_stats_file</text>
</g>
<!-- prot_3nm_stats_file&#45;&gt;read_in_protected_area_and_total_area_by_region -->
<g id="edge6" class="edge"><title>prot_3nm_stats_file&#45;&gt;read_in_protected_area_and_total_area_by_region</title>
<path fill="none" stroke="black" d="M214.197,-365.876C227.414,-356.893 243.792,-345.763 258.107,-336.034"/>
<polygon fill="black" stroke="black" points="260.403,-338.705 266.707,-330.19 256.468,-332.916 260.403,-338.705"/>
</g>
<!-- prot_1km_stats_file -->
<g id="node7" class="node"><title>prot_1km_stats_file</title>
<path fill="#ffffcc" stroke="black" d="M401.858,-402C401.858,-402 288.142,-402 288.142,-402 282.142,-402 276.142,-396 276.142,-390 276.142,-390 276.142,-378 276.142,-378 276.142,-372 282.142,-366 288.142,-366 288.142,-366 401.858,-366 401.858,-366 407.858,-366 413.858,-372 413.858,-378 413.858,-378 413.858,-390 413.858,-390 413.858,-396 407.858,-402 401.858,-402"/>
<text text-anchor="middle" x="345" y="-379.8" font-family="Helvetica,sans-Serif" font-size="14.00">prot_1km_stats_file</text>
</g>
<!-- prot_1km_stats_file&#45;&gt;read_in_protected_area_and_total_area_by_region -->
<g id="edge5" class="edge"><title>prot_1km_stats_file&#45;&gt;read_in_protected_area_and_total_area_by_region</title>
<path fill="none" stroke="black" d="M331.899,-365.697C325.609,-357.389 317.953,-347.277 311.035,-338.141"/>
<polygon fill="black" stroke="black" points="313.777,-335.964 304.95,-330.104 308.196,-340.19 313.777,-335.964"/>
</g>
<!-- prot_ws_stats_file -->
<g id="node8" class="node"><title>prot_ws_stats_file</title>
<path fill="#ffffcc" stroke="black" d="M548.021,-402C548.021,-402 443.979,-402 443.979,-402 437.979,-402 431.979,-396 431.979,-390 431.979,-390 431.979,-378 431.979,-378 431.979,-372 437.979,-366 443.979,-366 443.979,-366 548.021,-366 548.021,-366 554.021,-366 560.021,-372 560.021,-378 560.021,-378 560.021,-390 560.021,-390 560.021,-396 554.021,-402 548.021,-402"/>
<text text-anchor="middle" x="496" y="-379.8" font-family="Helvetica,sans-Serif" font-size="14.00">prot_ws_stats_file</text>
</g>
<!-- prot_ws_stats_file&#45;&gt;read_in_protected_area_and_total_area_by_region -->
<g id="edge4" class="edge"><title>prot_ws_stats_file&#45;&gt;read_in_protected_area_and_total_area_by_region</title>
<path fill="none" stroke="black" d="M446.357,-365.966C417.73,-356.142 381.553,-343.729 351.42,-333.389"/>
<polygon fill="black" stroke="black" points="352.46,-330.046 341.866,-330.111 350.188,-336.667 352.46,-330.046"/>
</g>
<!-- prot_3nm&#45;&gt;combine_scores_for_inland_and_offshore_and_write_output_layers -->
<g id="edge3" class="edge"><title>prot_3nm&#45;&gt;combine_scores_for_inland_and_offshore_and_write_output_layers</title>
<path fill="none" stroke="black" d="M221.989,-221.697C233.814,-212.796 248.392,-201.823 261.179,-192.199"/>
<polygon fill="black" stroke="black" points="263.391,-194.915 269.276,-186.104 259.181,-189.322 263.391,-194.915"/>
</g>
<!-- prot_1km&#45;&gt;combine_scores_for_inland_and_offshore_and_write_output_layers -->
<g id="edge2" class="edge"><title>prot_1km&#45;&gt;combine_scores_for_inland_and_offshore_and_write_output_layers</title>
<path fill="none" stroke="black" d="M292,-221.697C292,-213.983 292,-204.712 292,-196.112"/>
<polygon fill="black" stroke="black" points="295.5,-196.104 292,-186.104 288.5,-196.104 295.5,-196.104"/>
</g>
<!-- prot_ws&#45;&gt;combine_scores_for_inland_and_offshore_and_write_output_layers -->
<g id="edge1" class="edge"><title>prot_ws&#45;&gt;combine_scores_for_inland_and_offshore_and_write_output_layers</title>
<path fill="none" stroke="black" d="M358.247,-221.697C347.164,-212.881 333.526,-202.032 321.51,-192.474"/>
<polygon fill="black" stroke="black" points="323.507,-189.59 313.503,-186.104 319.15,-195.069 323.507,-189.59"/>
</g>
<!-- area_protected_total_file_outflow -->
<g id="node17" class="node"><title>area_protected_total_file_outflow</title>
<ellipse fill="none" stroke="black" cx="292" cy="-31" rx="7" ry="7"/>
</g>
<!-- area_protected_total_file&#45;&gt;area_protected_total_file_outflow -->
<g id="edge18" class="edge"><title>area_protected_total_file&#45;&gt;area_protected_total_file_outflow</title>
<path fill="none" stroke="black" d="M292,-77.785C292,-68.6656 292,-57.5197 292,-48.5085"/>
<polygon fill="black" stroke="black" points="295.5,-48.242 292,-38.242 288.5,-48.2421 295.5,-48.242"/>
</g>
<!-- setup_R_inflow -->
<g id="node13" class="node"><title>setup_R_inflow</title>
<ellipse fill="none" stroke="black" cx="456" cy="-593" rx="7" ry="7"/>
</g>
<!-- setup_R_inflow&#45;&gt;setup_R -->
<g id="edge14" class="edge"><title>setup_R_inflow&#45;&gt;setup_R</title>
<path fill="none" stroke="black" d="M450.116,-588.961C436.859,-582.116 403.665,-564.975 376.148,-550.765"/>
<polygon fill="black" stroke="black" points="377.561,-547.556 367.07,-546.077 374.35,-553.775 377.561,-547.556"/>
</g>
<!-- prot_3nm_stats_file_inflow -->
<g id="node14" class="node"><title>prot_3nm_stats_file_inflow</title>
<ellipse fill="none" stroke="black" cx="488" cy="-593" rx="7" ry="7"/>
</g>
<!-- prot_3nm_stats_file_inflow&#45;&gt;prot_3nm_stats_file -->
<g id="edge15" class="edge"><title>prot_3nm_stats_file_inflow&#45;&gt;prot_3nm_stats_file</title>
<path fill="none" stroke="black" d="M489.467,-585.962C494.636,-563.079 509.583,-480.82 469,-438 439.472,-406.845 326.158,-410.293 268.399,-401.952"/>
<polygon fill="black" stroke="black" points="268.737,-398.46 258.294,-400.246 267.572,-405.362 268.737,-398.46"/>
</g>
<!-- prot_1km_stats_file_inflow -->
<g id="node15" class="node"><title>prot_1km_stats_file_inflow</title>
<ellipse fill="none" stroke="black" cx="520" cy="-593" rx="7" ry="7"/>
</g>
<!-- prot_1km_stats_file_inflow&#45;&gt;prot_1km_stats_file -->
<g id="edge16" class="edge"><title>prot_1km_stats_file_inflow&#45;&gt;prot_1km_stats_file</title>
<path fill="none" stroke="black" d="M521.369,-585.842C526.018,-563.212 538.935,-483.6 502,-438 491.37,-424.876 457.467,-412.642 423.874,-403.243"/>
<polygon fill="black" stroke="black" points="424.525,-399.793 413.957,-400.544 422.687,-406.547 424.525,-399.793"/>
</g>
<!-- prot_ws_stats_file_inflow -->
<g id="node16" class="node"><title>prot_ws_stats_file_inflow</title>
<ellipse fill="none" stroke="black" cx="552" cy="-593" rx="7" ry="7"/>
</g>
<!-- prot_ws_stats_file_inflow&#45;&gt;prot_ws_stats_file -->
<g id="edge17" class="edge"><title>prot_ws_stats_file_inflow&#45;&gt;prot_ws_stats_file</title>
<path fill="none" stroke="black" d="M552.807,-585.827C555.347,-564.409 561.772,-491.678 540,-438 535.844,-427.754 528.952,-417.996 521.841,-409.71"/>
<polygon fill="black" stroke="black" points="524.362,-407.281 515.038,-402.249 519.189,-411.997 524.362,-407.281"/>
</g>
</g>
</svg>
