<?xml version="1.0" encoding="UTF-8" standalone="no"?>
<!DOCTYPE svg PUBLIC "-//W3C//DTD SVG 1.1//EN"
 "http://www.w3.org/Graphics/SVG/1.1/DTD/svg11.dtd">
<!-- Generated by graphviz version 2.38.0 (20140413.2041)
 -->
<!-- Title: yw_data_view Pages: 1 -->
<svg width="1458pt" height="662pt"
 viewBox="0.00 0.00 1458.00 661.60" xmlns="http://www.w3.org/2000/svg" xmlns:xlink="http://www.w3.org/1999/xlink">
<g id="graph0" class="graph" transform="scale(1 1) rotate(0) translate(4 657.6)">
<title>yw_data_view</title>
<polygon fill="white" stroke="none" points="-4,4 -4,-657.6 1454,-657.6 1454,4 -4,4"/>
<text text-anchor="middle" x="725" y="-633.4" font-family="Courier,monospace" font-size="18.00">combine_scores_for_inland_and_offshore</text>
<g id="clust1" class="cluster"><title>cluster_workflow</title>
<polygon fill="none" stroke="black" stroke-width="2" points="8,-62 8,-562 1442,-562 1442,-62 8,-62"/>
</g>
<g id="clust2" class="cluster"><title>cluster_workflow_inner</title>
<polygon fill="none" stroke="white" stroke-width="2" points="16,-70 16,-554 1434,-554 1434,-70 16,-70"/>
</g>
<g id="clust3" class="cluster"><title>cluster_inflows</title>
<polygon fill="none" stroke="white" stroke-width="2" points="756,-570 756,-616 898,-616 898,-570 756,-570"/>
</g>
<g id="clust4" class="cluster"><title>cluster_inflows_inner</title>
<polygon fill="none" stroke="white" stroke-width="2" points="764,-578 764,-608 890,-608 890,-578 764,-578"/>
</g>
<g id="clust5" class="cluster"><title>cluster_outflows</title>
<polygon fill="none" stroke="white" stroke-width="2" points="685,-8 685,-54 731,-54 731,-8 685,-8"/>
</g>
<g id="clust6" class="cluster"><title>cluster_outflows_inner</title>
<polygon fill="none" stroke="white" stroke-width="2" points="693,-16 693,-46 723,-46 723,-16 693,-16"/>
</g>
<!-- read_in_area_weighted_average_of_inland_watershed_score -->
<g id="node1" class="node"><title>read_in_area_weighted_average_of_inland_watershed_score</title>
<polygon fill="#ccffcc" stroke="black" points="1425.92,-330 948.077,-330 948.077,-294 1425.92,-294 1425.92,-330"/>
<text text-anchor="middle" x="1187" y="-307.8" font-family="Courier,monospace" font-size="14.00">read_in_area_weighted_average_of_inland_watershed_score</text>
</g>
<!-- prot_ws -->
<g id="node13" class="node"><title>prot_ws</title>
<path fill="#ffffcc" stroke="black" d="M1011.51,-258C1011.51,-258 970.494,-258 970.494,-258 964.494,-258 958.494,-252 958.494,-246 958.494,-246 958.494,-234 958.494,-234 958.494,-228 964.494,-222 970.494,-222 970.494,-222 1011.51,-222 1011.51,-222 1017.51,-222 1023.51,-228 1023.51,-234 1023.51,-234 1023.51,-246 1023.51,-246 1023.51,-252 1017.51,-258 1011.51,-258"/>
<text text-anchor="middle" x="991" y="-235.8" font-family="Helvetica,sans-Serif" font-size="14.00">prot_ws</text>
</g>
<!-- read_in_area_weighted_average_of_inland_watershed_score&#45;&gt;prot_ws -->
<g id="edge14" class="edge"><title>read_in_area_weighted_average_of_inland_watershed_score&#45;&gt;prot_ws</title>
<path fill="none" stroke="black" d="M1139.3,-293.966C1106.89,-282.39 1064.41,-267.217 1033.22,-256.079"/>
<polygon fill="black" stroke="black" points="1034.11,-252.681 1023.52,-252.614 1031.76,-259.273 1034.11,-252.681"/>
</g>
<!-- read_in_area_weighted_average_of_offshore_1km_score -->
<g id="node2" class="node"><title>read_in_area_weighted_average_of_offshore_1km_score</title>
<polygon fill="#ccffcc" stroke="black" points="930.329,-330 485.671,-330 485.671,-294 930.329,-294 930.329,-330"/>
<text text-anchor="middle" x="708" y="-307.8" font-family="Courier,monospace" font-size="14.00">read_in_area_weighted_average_of_offshore_1km_score</text>
</g>
<!-- prot_1km -->
<g id="node11" class="node"><title>prot_1km</title>
<path fill="#ffffcc" stroke="black" d="M733.343,-258C733.343,-258 682.657,-258 682.657,-258 676.657,-258 670.657,-252 670.657,-246 670.657,-246 670.657,-234 670.657,-234 670.657,-228 676.657,-222 682.657,-222 682.657,-222 733.343,-222 733.343,-222 739.343,-222 745.343,-228 745.343,-234 745.343,-234 745.343,-246 745.343,-246 745.343,-252 739.343,-258 733.343,-258"/>
<text text-anchor="middle" x="708" y="-235.8" font-family="Helvetica,sans-Serif" font-size="14.00">prot_1km</text>
</g>
<!-- read_in_area_weighted_average_of_offshore_1km_score&#45;&gt;prot_1km -->
<g id="edge13" class="edge"><title>read_in_area_weighted_average_of_offshore_1km_score&#45;&gt;prot_1km</title>
<path fill="none" stroke="black" d="M708,-293.697C708,-285.983 708,-276.712 708,-268.112"/>
<polygon fill="black" stroke="black" points="711.5,-268.104 708,-258.104 704.5,-268.104 711.5,-268.104"/>
</g>
<!-- read_in_area_weighted_average_of_offshore_3nm_score -->
<g id="node3" class="node"><title>read_in_area_weighted_average_of_offshore_3nm_score</title>
<polygon fill="#ccffcc" stroke="black" points="468.329,-330 23.6713,-330 23.6713,-294 468.329,-294 468.329,-330"/>
<text text-anchor="middle" x="246" y="-307.8" font-family="Courier,monospace" font-size="14.00">read_in_area_weighted_average_of_offshore_3nm_score</text>
</g>
<!-- prot_3nm -->
<g id="node9" class="node"><title>prot_3nm</title>
<path fill="#ffffcc" stroke="black" d="M455.625,-258C455.625,-258 404.375,-258 404.375,-258 398.375,-258 392.375,-252 392.375,-246 392.375,-246 392.375,-234 392.375,-234 392.375,-228 398.375,-222 404.375,-222 404.375,-222 455.625,-222 455.625,-222 461.625,-222 467.625,-228 467.625,-234 467.625,-234 467.625,-246 467.625,-246 467.625,-252 461.625,-258 455.625,-258"/>
<text text-anchor="middle" x="430" y="-235.8" font-family="Helvetica,sans-Serif" font-size="14.00">prot_3nm</text>
</g>
<!-- read_in_area_weighted_average_of_offshore_3nm_score&#45;&gt;prot_3nm -->
<g id="edge12" class="edge"><title>read_in_area_weighted_average_of_offshore_3nm_score&#45;&gt;prot_3nm</title>
<path fill="none" stroke="black" d="M291.011,-293.876C318.802,-283.304 354.411,-269.757 382.628,-259.022"/>
<polygon fill="black" stroke="black" points="384.174,-262.179 392.276,-255.352 381.685,-255.636 384.174,-262.179"/>
</g>
<!-- set_up_configuration_and_start_provenance_tracking -->
<g id="node4" class="node"><title>set_up_configuration_and_start_provenance_tracking</title>
<polygon fill="#ccffcc" stroke="black" points="779.93,-474 344.07,-474 344.07,-438 779.93,-438 779.93,-474"/>
<text text-anchor="middle" x="562" y="-451.8" font-family="Courier,monospace" font-size="14.00">set_up_configuration_and_start_provenance_tracking</text>
</g>
<!-- dir_goal -->
<g id="node7" class="node"><title>dir_goal</title>
<path fill="#ffffcc" stroke="black" d="M636.787,-402C636.787,-402 595.213,-402 595.213,-402 589.213,-402 583.213,-396 583.213,-390 583.213,-390 583.213,-378 583.213,-378 583.213,-372 589.213,-366 595.213,-366 595.213,-366 636.787,-366 636.787,-366 642.787,-366 648.787,-372 648.787,-378 648.787,-378 648.787,-390 648.787,-390 648.787,-396 642.787,-402 636.787,-402"/>
<text text-anchor="middle" x="616" y="-379.8" font-family="Helvetica,sans-Serif" font-size="14.00">dir_goal</text>
</g>
<!-- set_up_configuration_and_start_provenance_tracking&#45;&gt;dir_goal -->
<g id="edge11" class="edge"><title>set_up_configuration_and_start_provenance_tracking&#45;&gt;dir_goal</title>
<path fill="none" stroke="black" d="M575.348,-437.697C581.757,-429.389 589.558,-419.277 596.606,-410.141"/>
<polygon fill="black" stroke="black" points="599.468,-412.16 602.805,-402.104 593.926,-407.884 599.468,-412.16"/>
</g>
<!-- combine_scores_for_inland_and_offshore_and_write_output_layers -->
<g id="node5" class="node"><title>combine_scores_for_inland_and_offshore_and_write_output_layers</title>
<polygon fill="#ccffcc" stroke="black" points="976.213,-186 439.787,-186 439.787,-150 976.213,-150 976.213,-186"/>
<text text-anchor="middle" x="708" y="-163.8" font-family="Courier,monospace" font-size="14.00">combine_scores_for_inland_and_offshore_and_write_output_layers</text>
</g>
<!-- area_protected_total_file -->
<g id="node14" class="node"><title>area_protected_total_file</title>
<path fill="#ffffcc" stroke="black" d="M781.05,-114C781.05,-114 634.95,-114 634.95,-114 628.95,-114 622.95,-108 622.95,-102 622.95,-102 622.95,-90 622.95,-90 622.95,-84 628.95,-78 634.95,-78 634.95,-78 781.05,-78 781.05,-78 787.05,-78 793.05,-84 793.05,-90 793.05,-90 793.05,-102 793.05,-102 793.05,-108 787.05,-114 781.05,-114"/>
<text text-anchor="middle" x="708" y="-91.8" font-family="Helvetica,sans-Serif" font-size="14.00">area_protected_total_file</text>
</g>
<!-- combine_scores_for_inland_and_offshore_and_write_output_layers&#45;&gt;area_protected_total_file -->
<g id="edge15" class="edge"><title>combine_scores_for_inland_and_offshore_and_write_output_layers&#45;&gt;area_protected_total_file</title>
<path fill="none" stroke="black" d="M708,-149.697C708,-141.983 708,-132.712 708,-124.112"/>
<polygon fill="black" stroke="black" points="711.5,-124.104 708,-114.104 704.5,-124.104 711.5,-124.104"/>
</g>
<!-- setup_R -->
<g id="node6" class="node"><title>setup_R</title>
<path fill="#ffffcc" stroke="black" d="M676.128,-546C676.128,-546 631.872,-546 631.872,-546 625.872,-546 619.872,-540 619.872,-534 619.872,-534 619.872,-522 619.872,-522 619.872,-516 625.872,-510 631.872,-510 631.872,-510 676.128,-510 676.128,-510 682.128,-510 688.128,-516 688.128,-522 688.128,-522 688.128,-534 688.128,-534 688.128,-540 682.128,-546 676.128,-546"/>
<text text-anchor="middle" x="654" y="-523.8" font-family="Helvetica,sans-Serif" font-size="14.00">setup_R</text>
</g>
<!-- setup_R&#45;&gt;set_up_configuration_and_start_provenance_tracking -->
<g id="edge10" class="edge"><title>setup_R&#45;&gt;set_up_configuration_and_start_provenance_tracking</title>
<path fill="none" stroke="black" d="M631.258,-509.697C619.56,-500.796 605.139,-489.823 592.49,-480.199"/>
<polygon fill="black" stroke="black" points="594.558,-477.374 584.48,-474.104 590.319,-482.945 594.558,-477.374"/>
</g>
<!-- dir_goal&#45;&gt;read_in_area_weighted_average_of_inland_watershed_score -->
<g id="edge7" class="edge"><title>dir_goal&#45;&gt;read_in_area_weighted_average_of_inland_watershed_score</title>
<path fill="none" stroke="black" d="M648.795,-376.655C667.306,-373.209 690.892,-369.043 712,-366 806.698,-352.346 912.455,-340.24 1000.1,-331.057"/>
<polygon fill="black" stroke="black" points="1000.56,-334.527 1010.15,-330.009 999.837,-327.565 1000.56,-334.527"/>
</g>
<!-- dir_goal&#45;&gt;read_in_area_weighted_average_of_offshore_1km_score -->
<g id="edge8" class="edge"><title>dir_goal&#45;&gt;read_in_area_weighted_average_of_offshore_1km_score</title>
<path fill="none" stroke="black" d="M638.742,-365.697C650.44,-356.796 664.861,-345.823 677.51,-336.199"/>
<polygon fill="black" stroke="black" points="679.681,-338.945 685.52,-330.104 675.442,-333.374 679.681,-338.945"/>
</g>
<!-- dir_goal&#45;&gt;read_in_area_weighted_average_of_offshore_3nm_score -->
<g id="edge9" class="edge"><title>dir_goal&#45;&gt;read_in_area_weighted_average_of_offshore_3nm_score</title>
<path fill="none" stroke="black" d="M583.165,-376.788C530.502,-366.825 425.056,-346.875 346.033,-331.925"/>
<polygon fill="black" stroke="black" points="346.521,-328.455 336.045,-330.035 345.22,-335.333 346.521,-328.455"/>
</g>
<!-- prot_3nm_stats_file -->
<g id="node8" class="node"><title>prot_3nm_stats_file</title>
<path fill="#ffffcc" stroke="black" d="M428.14,-402C428.14,-402 313.86,-402 313.86,-402 307.86,-402 301.86,-396 301.86,-390 301.86,-390 301.86,-378 301.86,-378 301.86,-372 307.86,-366 313.86,-366 313.86,-366 428.14,-366 428.14,-366 434.14,-366 440.14,-372 440.14,-378 440.14,-378 440.14,-390 440.14,-390 440.14,-396 434.14,-402 428.14,-402"/>
<text text-anchor="middle" x="371" y="-379.8" font-family="Helvetica,sans-Serif" font-size="14.00">prot_3nm_stats_file</text>
</g>
<!-- prot_3nm_stats_file&#45;&gt;read_in_area_weighted_average_of_offshore_3nm_score -->
<g id="edge6" class="edge"><title>prot_3nm_stats_file&#45;&gt;read_in_area_weighted_average_of_offshore_3nm_score</title>
<path fill="none" stroke="black" d="M340.422,-365.876C323.926,-356.639 303.376,-345.131 285.664,-335.212"/>
<polygon fill="black" stroke="black" points="287.131,-332.022 276.696,-330.19 283.711,-338.13 287.131,-332.022"/>
</g>
<!-- prot_3nm&#45;&gt;combine_scores_for_inland_and_offshore_and_write_output_layers -->
<g id="edge5" class="edge"><title>prot_3nm&#45;&gt;combine_scores_for_inland_and_offshore_and_write_output_layers</title>
<path fill="none" stroke="black" d="M467.782,-229.487C509.43,-219 577.557,-201.845 630.642,-188.479"/>
<polygon fill="black" stroke="black" points="631.527,-191.865 640.37,-186.029 629.818,-185.077 631.527,-191.865"/>
</g>
<!-- prot_1km_stats_file -->
<g id="node10" class="node"><title>prot_1km_stats_file</title>
<path fill="#ffffcc" stroke="black" d="M846.858,-402C846.858,-402 733.142,-402 733.142,-402 727.142,-402 721.142,-396 721.142,-390 721.142,-390 721.142,-378 721.142,-378 721.142,-372 727.142,-366 733.142,-366 733.142,-366 846.858,-366 846.858,-366 852.858,-366 858.858,-372 858.858,-378 858.858,-378 858.858,-390 858.858,-390 858.858,-396 852.858,-402 846.858,-402"/>
<text text-anchor="middle" x="790" y="-379.8" font-family="Helvetica,sans-Serif" font-size="14.00">prot_1km_stats_file</text>
</g>
<!-- prot_1km_stats_file&#45;&gt;read_in_area_weighted_average_of_offshore_1km_score -->
<g id="edge4" class="edge"><title>prot_1km_stats_file&#45;&gt;read_in_area_weighted_average_of_offshore_1km_score</title>
<path fill="none" stroke="black" d="M769.73,-365.697C759.502,-356.965 746.939,-346.24 735.822,-336.75"/>
<polygon fill="black" stroke="black" points="737.915,-333.935 728.037,-330.104 733.37,-339.259 737.915,-333.935"/>
</g>
<!-- prot_1km&#45;&gt;combine_scores_for_inland_and_offshore_and_write_output_layers -->
<g id="edge3" class="edge"><title>prot_1km&#45;&gt;combine_scores_for_inland_and_offshore_and_write_output_layers</title>
<path fill="none" stroke="black" d="M708,-221.697C708,-213.983 708,-204.712 708,-196.112"/>
<polygon fill="black" stroke="black" points="711.5,-196.104 708,-186.104 704.5,-196.104 711.5,-196.104"/>
</g>
<!-- prot_ws_stats_file -->
<g id="node12" class="node"><title>prot_ws_stats_file</title>
<path fill="#ffffcc" stroke="black" d="M1157.02,-402C1157.02,-402 1052.98,-402 1052.98,-402 1046.98,-402 1040.98,-396 1040.98,-390 1040.98,-390 1040.98,-378 1040.98,-378 1040.98,-372 1046.98,-366 1052.98,-366 1052.98,-366 1157.02,-366 1157.02,-366 1163.02,-366 1169.02,-372 1169.02,-378 1169.02,-378 1169.02,-390 1169.02,-390 1169.02,-396 1163.02,-402 1157.02,-402"/>
<text text-anchor="middle" x="1105" y="-379.8" font-family="Helvetica,sans-Serif" font-size="14.00">prot_ws_stats_file</text>
</g>
<!-- prot_ws_stats_file&#45;&gt;read_in_area_weighted_average_of_inland_watershed_score -->
<g id="edge2" class="edge"><title>prot_ws_stats_file&#45;&gt;read_in_area_weighted_average_of_inland_watershed_score</title>
<path fill="none" stroke="black" d="M1125.27,-365.697C1135.5,-356.965 1148.06,-346.24 1159.18,-336.75"/>
<polygon fill="black" stroke="black" points="1161.63,-339.259 1166.96,-330.104 1157.09,-333.935 1161.63,-339.259"/>
</g>
<!-- prot_ws&#45;&gt;combine_scores_for_inland_and_offshore_and_write_output_layers -->
<g id="edge1" class="edge"><title>prot_ws&#45;&gt;combine_scores_for_inland_and_offshore_and_write_output_layers</title>
<path fill="none" stroke="black" d="M958.26,-230.902C916.603,-220.598 843.278,-202.461 786.729,-188.474"/>
<polygon fill="black" stroke="black" points="787.282,-185.005 776.735,-186.001 785.602,-191.8 787.282,-185.005"/>
</g>
<!-- area_protected_total_file_outflow -->
<g id="node19" class="node"><title>area_protected_total_file_outflow</title>
<ellipse fill="none" stroke="black" cx="708" cy="-31" rx="7" ry="7"/>
</g>
<!-- area_protected_total_file&#45;&gt;area_protected_total_file_outflow -->
<g id="edge20" class="edge"><title>area_protected_total_file&#45;&gt;area_protected_total_file_outflow</title>
<path fill="none" stroke="black" d="M708,-77.785C708,-68.6656 708,-57.5197 708,-48.5085"/>
<polygon fill="black" stroke="black" points="711.5,-48.242 708,-38.242 704.5,-48.2421 711.5,-48.242"/>
</g>
<!-- setup_R_inflow -->
<g id="node15" class="node"><title>setup_R_inflow</title>
<ellipse fill="none" stroke="black" cx="779" cy="-593" rx="7" ry="7"/>
</g>
<!-- setup_R_inflow&#45;&gt;setup_R -->
<g id="edge16" class="edge"><title>setup_R_inflow&#45;&gt;setup_R</title>
<path fill="none" stroke="black" d="M772.971,-588.961C759.329,-582.086 725.082,-564.825 696.817,-550.58"/>
<polygon fill="black" stroke="black" points="698.389,-547.453 687.883,-546.077 695.238,-553.703 698.389,-547.453"/>
</g>
<!-- prot_3nm_stats_file_inflow -->
<g id="node16" class="node"><title>prot_3nm_stats_file_inflow</title>
<ellipse fill="none" stroke="black" cx="811" cy="-593" rx="7" ry="7"/>
</g>
<!-- prot_3nm_stats_file_inflow&#45;&gt;prot_3nm_stats_file -->
<g id="edge17" class="edge"><title>prot_3nm_stats_file_inflow&#45;&gt;prot_3nm_stats_file</title>
<path fill="none" stroke="black" d="M812.396,-585.879C817.285,-562.695 831.152,-479.492 789,-438 777.064,-426.251 568.232,-404.183 450.362,-392.577"/>
<polygon fill="black" stroke="black" points="450.589,-389.082 440.295,-391.589 449.905,-396.049 450.589,-389.082"/>
</g>
<!-- prot_1km_stats_file_inflow -->
<g id="node17" class="node"><title>prot_1km_stats_file_inflow</title>
<ellipse fill="none" stroke="black" cx="843" cy="-593" rx="7" ry="7"/>
</g>
<!-- prot_1km_stats_file_inflow&#45;&gt;prot_1km_stats_file -->
<g id="edge18" class="edge"><title>prot_1km_stats_file_inflow&#45;&gt;prot_1km_stats_file</title>
<path fill="none" stroke="black" d="M843.043,-585.921C843.013,-564.81 841.402,-492.96 822,-438 818.689,-428.622 813.591,-419.098 808.43,-410.761"/>
<polygon fill="black" stroke="black" points="811.275,-408.715 802.887,-402.241 805.407,-412.532 811.275,-408.715"/>
</g>
<!-- prot_ws_stats_file_inflow -->
<g id="node18" class="node"><title>prot_ws_stats_file_inflow</title>
<ellipse fill="none" stroke="black" cx="875" cy="-593" rx="7" ry="7"/>
</g>
<!-- prot_ws_stats_file_inflow&#45;&gt;prot_ws_stats_file -->
<g id="edge19" class="edge"><title>prot_ws_stats_file_inflow&#45;&gt;prot_ws_stats_file</title>
<path fill="none" stroke="black" d="M879.804,-587.677C905.197,-564.822 1024.66,-457.308 1078.53,-408.821"/>
<polygon fill="black" stroke="black" points="1080.89,-411.404 1085.99,-402.113 1076.21,-406.201 1080.89,-411.404"/>
</g>
</g>
</svg>
