<?xml version="1.0" encoding="UTF-8" standalone="no"?>
<!DOCTYPE svg PUBLIC "-//W3C//DTD SVG 1.1//EN"
 "http://www.w3.org/Graphics/SVG/1.1/DTD/svg11.dtd">
<!-- Generated by graphviz version 2.38.0 (20140413.2041)
 -->
<!-- Title: yw_data_view Pages: 1 -->
<svg width="789pt" height="669pt"
 viewBox="0.00 0.00 789.00 669.40" xmlns="http://www.w3.org/2000/svg" xmlns:xlink="http://www.w3.org/1999/xlink">
<g id="graph0" class="graph" transform="scale(1 1) rotate(0) translate(4 665.4)">
<title>yw_data_view</title>
<polygon fill="white" stroke="none" points="-4,4 -4,-665.4 785,-665.4 785,4 -4,4"/>
<text text-anchor="middle" x="390.5" y="-641.2" font-family="Courier,monospace" font-size="18.00">summarize_zonal_stats</text>
<g id="clust1" class="cluster"><title>cluster_workflow</title>
<polygon fill="none" stroke="black" stroke-width="2" points="8,-62 8,-569.8 773,-569.8 773,-62 8,-62"/>
</g>
<g id="clust2" class="cluster"><title>cluster_workflow_inner</title>
<polygon fill="none" stroke="white" stroke-width="2" points="16,-70 16,-561.8 765,-561.8 765,-70 16,-70"/>
</g>
<g id="clust3" class="cluster"><title>cluster_inflows</title>
<polygon fill="none" stroke="white" stroke-width="2" points="436,-577.8 436,-623.8 578,-623.8 578,-577.8 436,-577.8"/>
</g>
<g id="clust4" class="cluster"><title>cluster_inflows_inner</title>
<polygon fill="none" stroke="white" stroke-width="2" points="444,-585.8 444,-615.8 570,-615.8 570,-585.8 444,-585.8"/>
</g>
<g id="clust5" class="cluster"><title>cluster_outflows</title>
<polygon fill="none" stroke="white" stroke-width="2" points="333,-8 333,-54 443,-54 443,-8 333,-8"/>
</g>
<g id="clust6" class="cluster"><title>cluster_outflows_inner</title>
<polygon fill="none" stroke="white" stroke-width="2" points="341,-16 341,-46 435,-46 435,-16 341,-16"/>
</g>
<!-- set_up_configuration_and_start_provenance_tracking -->
<g id="node1" class="node"><title>set_up_configuration_and_start_provenance_tracking</title>
<polygon fill="#ccffcc" stroke="black" points="459.93,-479.2 24.07,-479.2 24.07,-443.2 459.93,-443.2 459.93,-479.2"/>
<text text-anchor="middle" x="242" y="-457" font-family="Courier,monospace" font-size="14.00">set_up_configuration_and_start_provenance_tracking</text>
</g>
<!-- dir_goal -->
<g id="node9" class="node"><title>dir_goal</title>
<path fill="#ffffcc" stroke="black" d="M66,-405.9C66,-405.9 36,-405.9 36,-405.9 30,-405.9 24,-399.9 24,-393.9 24,-393.9 24,-381.9 24,-381.9 24,-375.9 30,-369.9 36,-369.9 36,-369.9 66,-369.9 66,-369.9 72,-369.9 78,-375.9 78,-381.9 78,-381.9 78,-393.9 78,-393.9 78,-399.9 72,-405.9 66,-405.9"/>
<text text-anchor="middle" x="51" y="-385.2" font-family="Helvetica,sans-Serif" font-size="9.00">dir_goal</text>
</g>
<!-- set_up_configuration_and_start_provenance_tracking&#45;&gt;dir_goal -->
<g id="edge10" class="edge"><title>set_up_configuration_and_start_provenance_tracking&#45;&gt;dir_goal</title>
<path fill="none" stroke="black" d="M186.052,-443.175C158.589,-434.334 124.964,-422.794 87.8409,-407.314"/>
<polygon fill="black" stroke="black" points="88.9027,-403.963 78.329,-403.293 86.177,-410.411 88.9027,-403.963"/>
</g>
<!-- read_in_zonal_stats_dataframes -->
<g id="node2" class="node"><title>read_in_zonal_stats_dataframes</title>
<polygon fill="#ccffcc" stroke="black" points="446.958,-332.6 179.042,-332.6 179.042,-296.6 446.958,-296.6 446.958,-332.6"/>
<text text-anchor="middle" x="313" y="-310.4" font-family="Courier,monospace" font-size="14.00">read_in_zonal_stats_dataframes</text>
</g>
<!-- stats_3nm -->
<g id="node10" class="node"><title>stats_3nm</title>
<path fill="#ffffcc" stroke="black" d="M434.513,-260.6C434.513,-260.6 401.487,-260.6 401.487,-260.6 395.487,-260.6 389.487,-254.6 389.487,-248.6 389.487,-248.6 389.487,-236.6 389.487,-236.6 389.487,-230.6 395.487,-224.6 401.487,-224.6 401.487,-224.6 434.513,-224.6 434.513,-224.6 440.513,-224.6 446.513,-230.6 446.513,-236.6 446.513,-236.6 446.513,-248.6 446.513,-248.6 446.513,-254.6 440.513,-260.6 434.513,-260.6"/>
<text text-anchor="middle" x="418" y="-239.9" font-family="Helvetica,sans-Serif" font-size="9.00">stats_3nm</text>
</g>
<!-- read_in_zonal_stats_dataframes&#45;&gt;stats_3nm -->
<g id="edge11" class="edge"><title>read_in_zonal_stats_dataframes&#45;&gt;stats_3nm</title>
<path fill="none" stroke="black" d="M338.686,-296.476C352.288,-287.408 369.172,-276.152 383.861,-266.359"/>
<polygon fill="black" stroke="black" points="385.836,-269.249 392.215,-260.79 381.953,-263.425 385.836,-269.249"/>
</g>
<!-- stats_1km -->
<g id="node11" class="node"><title>stats_1km</title>
<path fill="#ffffcc" stroke="black" d="M286.508,-260.6C286.508,-260.6 253.492,-260.6 253.492,-260.6 247.492,-260.6 241.492,-254.6 241.492,-248.6 241.492,-248.6 241.492,-236.6 241.492,-236.6 241.492,-230.6 247.492,-224.6 253.492,-224.6 253.492,-224.6 286.508,-224.6 286.508,-224.6 292.508,-224.6 298.508,-230.6 298.508,-236.6 298.508,-236.6 298.508,-248.6 298.508,-248.6 298.508,-254.6 292.508,-260.6 286.508,-260.6"/>
<text text-anchor="middle" x="270" y="-239.9" font-family="Helvetica,sans-Serif" font-size="9.00">stats_1km</text>
</g>
<!-- read_in_zonal_stats_dataframes&#45;&gt;stats_1km -->
<g id="edge12" class="edge"><title>read_in_zonal_stats_dataframes&#45;&gt;stats_1km</title>
<path fill="none" stroke="black" d="M302.371,-296.297C297.372,-288.159 291.309,-278.289 285.788,-269.301"/>
<polygon fill="black" stroke="black" points="288.723,-267.393 280.507,-260.704 282.759,-271.057 288.723,-267.393"/>
</g>
<!-- stats_ws -->
<g id="node12" class="node"><title>stats_ws</title>
<path fill="#ffffcc" stroke="black" d="M359,-260.6C359,-260.6 329,-260.6 329,-260.6 323,-260.6 317,-254.6 317,-248.6 317,-248.6 317,-236.6 317,-236.6 317,-230.6 323,-224.6 329,-224.6 329,-224.6 359,-224.6 359,-224.6 365,-224.6 371,-230.6 371,-236.6 371,-236.6 371,-248.6 371,-248.6 371,-254.6 365,-260.6 359,-260.6"/>
<text text-anchor="middle" x="344" y="-239.9" font-family="Helvetica,sans-Serif" font-size="9.00">stats_ws</text>
</g>
<!-- read_in_zonal_stats_dataframes&#45;&gt;stats_ws -->
<g id="edge13" class="edge"><title>read_in_zonal_stats_dataframes&#45;&gt;stats_ws</title>
<path fill="none" stroke="black" d="M320.663,-296.297C324.192,-288.328 328.456,-278.7 332.369,-269.864"/>
<polygon fill="black" stroke="black" points="335.576,-271.265 336.425,-260.704 329.176,-268.431 335.576,-271.265"/>
</g>
<!-- set_goals_target_threshhold -->
<g id="node3" class="node"><title>set_goals_target_threshhold</title>
<polygon fill="#ccffcc" stroke="black" points="707.262,-332.6 464.738,-332.6 464.738,-296.6 707.262,-296.6 707.262,-332.6"/>
<text text-anchor="middle" x="586" y="-310.4" font-family="Courier,monospace" font-size="14.00">set_goals_target_threshhold</text>
</g>
<!-- lsp_thresh -->
<g id="node13" class="node"><title>lsp_thresh</title>
<path fill="#ffffcc" stroke="black" d="M571.512,-260.6C571.512,-260.6 538.488,-260.6 538.488,-260.6 532.488,-260.6 526.488,-254.6 526.488,-248.6 526.488,-248.6 526.488,-236.6 526.488,-236.6 526.488,-230.6 532.488,-224.6 538.488,-224.6 538.488,-224.6 571.512,-224.6 571.512,-224.6 577.512,-224.6 583.512,-230.6 583.512,-236.6 583.512,-236.6 583.512,-248.6 583.512,-248.6 583.512,-254.6 577.512,-260.6 571.512,-260.6"/>
<text text-anchor="middle" x="555" y="-239.9" font-family="Helvetica,sans-Serif" font-size="9.00">lsp_thresh</text>
</g>
<!-- set_goals_target_threshhold&#45;&gt;lsp_thresh -->
<g id="edge14" class="edge"><title>set_goals_target_threshhold&#45;&gt;lsp_thresh</title>
<path fill="none" stroke="black" d="M578.337,-296.297C574.808,-288.328 570.544,-278.7 566.631,-269.864"/>
<polygon fill="black" stroke="black" points="569.824,-268.431 562.575,-260.704 563.424,-271.265 569.824,-268.431"/>
</g>
<!-- compute_total_cells_and_cumulaative_total_of_cells_per_region -->
<g id="node4" class="node"><title>compute_total_cells_and_cumulaative_total_of_cells_per_region</title>
<polygon fill="#ccffcc" stroke="black" points="652.315,-188.6 123.685,-188.6 123.685,-152.6 652.315,-152.6 652.315,-188.6"/>
<text text-anchor="middle" x="388" y="-166.4" font-family="Courier,monospace" font-size="14.00">compute_total_cells_and_cumulaative_total_of_cells_per_region</text>
</g>
<!-- prot_ws -->
<g id="node14" class="node"><title>prot_ws</title>
<path fill="#ffe4b5" stroke="black" d="M47.4171,-78.5C47.4171,-78.5 244.583,-78.5 244.583,-78.5 250.583,-78.5 256.583,-84.5 256.583,-90.5 256.583,-90.5 256.583,-104.1 256.583,-104.1 256.583,-110.1 250.583,-116.1 244.583,-116.1 244.583,-116.1 47.4171,-116.1 47.4171,-116.1 41.4171,-116.1 35.4171,-110.1 35.4171,-104.1 35.4171,-104.1 35.4171,-90.5 35.4171,-90.5 35.4171,-84.5 41.4171,-78.5 47.4171,-78.5"/>
<text text-anchor="middle" x="146" y="-104" font-family="Courier,monospace" font-weight="bold" font-size="9.00">prot_ws</text>
<polyline fill="none" stroke="black" points="35.4171,-97.3 256.583,-97.3 "/>
<text text-anchor="start" x="43.4171" y="-85.2" font-family="Courier,monospace" font-weight="bold" font-size="9.00">prep/lsp/vHS/int/area_protected_ws.csv</text>
</g>
<!-- compute_total_cells_and_cumulaative_total_of_cells_per_region&#45;&gt;prot_ws -->
<g id="edge15" class="edge"><title>compute_total_cells_and_cumulaative_total_of_cells_per_region&#45;&gt;prot_ws</title>
<path fill="none" stroke="black" d="M330.035,-152.522C295.909,-142.467 252.501,-129.678 216.414,-119.046"/>
<polygon fill="black" stroke="black" points="217.025,-115.577 206.444,-116.108 215.047,-122.292 217.025,-115.577"/>
</g>
<!-- prot_3nm -->
<g id="node15" class="node"><title>prot_3nm</title>
<path fill="#ffe4b5" stroke="black" d="M286.718,-78.5C286.718,-78.5 489.282,-78.5 489.282,-78.5 495.282,-78.5 501.282,-84.5 501.282,-90.5 501.282,-90.5 501.282,-104.1 501.282,-104.1 501.282,-110.1 495.282,-116.1 489.282,-116.1 489.282,-116.1 286.718,-116.1 286.718,-116.1 280.718,-116.1 274.718,-110.1 274.718,-104.1 274.718,-104.1 274.718,-90.5 274.718,-90.5 274.718,-84.5 280.718,-78.5 286.718,-78.5"/>
<text text-anchor="middle" x="388" y="-104" font-family="Courier,monospace" font-weight="bold" font-size="9.00">prot_3nm</text>
<polyline fill="none" stroke="black" points="274.718,-97.3 501.282,-97.3 "/>
<text text-anchor="start" x="282.718" y="-85.2" font-family="Courier,monospace" font-weight="bold" font-size="9.00">prep/lsp/vHS/int/area_protected_3nm.csv</text>
</g>
<!-- compute_total_cells_and_cumulaative_total_of_cells_per_region&#45;&gt;prot_3nm -->
<g id="edge16" class="edge"><title>compute_total_cells_and_cumulaative_total_of_cells_per_region&#45;&gt;prot_3nm</title>
<path fill="none" stroke="black" d="M388,-152.34C388,-144.605 388,-135.279 388,-126.568"/>
<polygon fill="black" stroke="black" points="391.5,-126.396 388,-116.396 384.5,-126.396 391.5,-126.396"/>
</g>
<!-- prot_1km -->
<g id="node16" class="node"><title>prot_1km</title>
<path fill="#ffe4b5" stroke="black" d="M531.718,-78.5C531.718,-78.5 734.282,-78.5 734.282,-78.5 740.282,-78.5 746.282,-84.5 746.282,-90.5 746.282,-90.5 746.282,-104.1 746.282,-104.1 746.282,-110.1 740.282,-116.1 734.282,-116.1 734.282,-116.1 531.718,-116.1 531.718,-116.1 525.718,-116.1 519.718,-110.1 519.718,-104.1 519.718,-104.1 519.718,-90.5 519.718,-90.5 519.718,-84.5 525.718,-78.5 531.718,-78.5"/>
<text text-anchor="middle" x="633" y="-104" font-family="Courier,monospace" font-weight="bold" font-size="9.00">prot_1km</text>
<polyline fill="none" stroke="black" points="519.718,-97.3 746.282,-97.3 "/>
<text text-anchor="start" x="527.718" y="-85.2" font-family="Courier,monospace" font-weight="bold" font-size="9.00">prep/lsp/vHS/int/area_protected_1km.csv</text>
</g>
<!-- compute_total_cells_and_cumulaative_total_of_cells_per_region&#45;&gt;prot_1km -->
<g id="edge17" class="edge"><title>compute_total_cells_and_cumulaative_total_of_cells_per_region&#45;&gt;prot_1km</title>
<path fill="none" stroke="black" d="M446.684,-152.522C481.381,-142.424 525.555,-129.569 562.181,-118.91"/>
<polygon fill="black" stroke="black" points="563.183,-122.263 571.807,-116.108 561.227,-115.542 563.183,-122.263"/>
</g>
<!-- setup_R -->
<g id="node5" class="node"><title>setup_R</title>
<path fill="#ffe4b5" stroke="black" d="M323,-515.7C323,-515.7 353,-515.7 353,-515.7 359,-515.7 365,-521.7 365,-527.7 365,-527.7 365,-541.3 365,-541.3 365,-547.3 359,-553.3 353,-553.3 353,-553.3 323,-553.3 323,-553.3 317,-553.3 311,-547.3 311,-541.3 311,-541.3 311,-527.7 311,-527.7 311,-521.7 317,-515.7 323,-515.7"/>
<text text-anchor="middle" x="337.897" y="-541.2" font-family="Courier,monospace" font-weight="bold" font-size="9.00">setup_R</text>
<polyline fill="none" stroke="black" points="311,-534.5 364.794,-534.5 "/>
<text text-anchor="middle" x="337.897" y="-522.4" font-family="Courier,monospace" font-weight="bold" font-size="9.00"> </text>
</g>
<!-- setup_R&#45;&gt;set_up_configuration_and_start_provenance_tracking -->
<g id="edge1" class="edge"><title>setup_R&#45;&gt;set_up_configuration_and_start_provenance_tracking</title>
<path fill="none" stroke="black" d="M313.775,-515.508C301.473,-506.371 286.383,-495.163 273.219,-485.387"/>
<polygon fill="black" stroke="black" points="275.01,-482.357 264.895,-479.205 270.836,-487.977 275.01,-482.357"/>
</g>
<!-- zonal_stats_3nm_file -->
<g id="node6" class="node"><title>zonal_stats_3nm_file</title>
<path fill="#ffe4b5" stroke="black" d="M107.816,-369.1C107.816,-369.1 294.184,-369.1 294.184,-369.1 300.184,-369.1 306.184,-375.1 306.184,-381.1 306.184,-381.1 306.184,-394.7 306.184,-394.7 306.184,-400.7 300.184,-406.7 294.184,-406.7 294.184,-406.7 107.816,-406.7 107.816,-406.7 101.816,-406.7 95.8162,-400.7 95.8162,-394.7 95.8162,-394.7 95.8162,-381.1 95.8162,-381.1 95.8162,-375.1 101.816,-369.1 107.816,-369.1"/>
<text text-anchor="middle" x="201" y="-394.6" font-family="Courier,monospace" font-weight="bold" font-size="9.00">zonal_stats_3nm_file</text>
<polyline fill="none" stroke="black" points="95.8162,-387.9 306.184,-387.9 "/>
<text text-anchor="start" x="103.816" y="-375.8" font-family="Courier,monospace" font-weight="bold" font-size="9.00">prep/lsp/vHS/int/zonal_stats_3nm.csv</text>
</g>
<!-- zonal_stats_3nm_file&#45;&gt;read_in_zonal_stats_dataframes -->
<g id="edge3" class="edge"><title>zonal_stats_3nm_file&#45;&gt;read_in_zonal_stats_dataframes</title>
<path fill="none" stroke="black" d="M228.973,-369.092C243.734,-359.695 261.994,-348.07 277.718,-338.061"/>
<polygon fill="black" stroke="black" points="279.598,-341.013 286.154,-332.69 275.839,-335.108 279.598,-341.013"/>
</g>
<!-- zonal_stats_1km_file -->
<g id="node7" class="node"><title>zonal_stats_1km_file</title>
<path fill="#ffe4b5" stroke="black" d="M335.816,-369.1C335.816,-369.1 522.184,-369.1 522.184,-369.1 528.184,-369.1 534.184,-375.1 534.184,-381.1 534.184,-381.1 534.184,-394.7 534.184,-394.7 534.184,-400.7 528.184,-406.7 522.184,-406.7 522.184,-406.7 335.816,-406.7 335.816,-406.7 329.816,-406.7 323.816,-400.7 323.816,-394.7 323.816,-394.7 323.816,-381.1 323.816,-381.1 323.816,-375.1 329.816,-369.1 335.816,-369.1"/>
<text text-anchor="middle" x="429" y="-394.6" font-family="Courier,monospace" font-weight="bold" font-size="9.00">zonal_stats_1km_file</text>
<polyline fill="none" stroke="black" points="323.816,-387.9 534.184,-387.9 "/>
<text text-anchor="start" x="331.816" y="-375.8" font-family="Courier,monospace" font-weight="bold" font-size="9.00">prep/lsp/vHS/int/zonal_stats_1km.csv</text>
</g>
<!-- zonal_stats_1km_file&#45;&gt;read_in_zonal_stats_dataframes -->
<g id="edge4" class="edge"><title>zonal_stats_1km_file&#45;&gt;read_in_zonal_stats_dataframes</title>
<path fill="none" stroke="black" d="M400.028,-369.092C384.74,-359.695 365.827,-348.07 349.542,-338.061"/>
<polygon fill="black" stroke="black" points="351.157,-334.945 340.804,-332.69 347.491,-340.908 351.157,-334.945"/>
</g>
<!-- zonal_stats_ws_file -->
<g id="node8" class="node"><title>zonal_stats_ws_file</title>
<path fill="#ffe4b5" stroke="black" d="M564.516,-369.1C564.516,-369.1 745.484,-369.1 745.484,-369.1 751.484,-369.1 757.484,-375.1 757.484,-381.1 757.484,-381.1 757.484,-394.7 757.484,-394.7 757.484,-400.7 751.484,-406.7 745.484,-406.7 745.484,-406.7 564.516,-406.7 564.516,-406.7 558.516,-406.7 552.516,-400.7 552.516,-394.7 552.516,-394.7 552.516,-381.1 552.516,-381.1 552.516,-375.1 558.516,-369.1 564.516,-369.1"/>
<text text-anchor="middle" x="655" y="-394.6" font-family="Courier,monospace" font-weight="bold" font-size="9.00">zonal_stats_ws_file</text>
<polyline fill="none" stroke="black" points="552.516,-387.9 757.484,-387.9 "/>
<text text-anchor="start" x="560.516" y="-375.8" font-family="Courier,monospace" font-weight="bold" font-size="9.00">prep/lsp/vHS/int/zonal_stats_ws.csv</text>
</g>
<!-- zonal_stats_ws_file&#45;&gt;read_in_zonal_stats_dataframes -->
<g id="edge5" class="edge"><title>zonal_stats_ws_file&#45;&gt;read_in_zonal_stats_dataframes</title>
<path fill="none" stroke="black" d="M569.581,-369.092C519.408,-358.632 455.992,-345.411 404.759,-334.73"/>
<polygon fill="black" stroke="black" points="405.186,-331.244 394.682,-332.629 403.758,-338.096 405.186,-331.244"/>
</g>
<!-- dir_goal&#45;&gt;read_in_zonal_stats_dataframes -->
<g id="edge2" class="edge"><title>dir_goal&#45;&gt;read_in_zonal_stats_dataframes</title>
<path fill="none" stroke="black" d="M78.2138,-372.214C81.1375,-370.894 84.1025,-369.659 87,-368.6 125.483,-354.539 169.043,-343.287 207.579,-334.831"/>
<polygon fill="black" stroke="black" points="208.745,-338.16 217.783,-332.631 207.269,-331.317 208.745,-338.16"/>
</g>
<!-- stats_3nm&#45;&gt;compute_total_cells_and_cumulaative_total_of_cells_per_region -->
<g id="edge6" class="edge"><title>stats_3nm&#45;&gt;compute_total_cells_and_cumulaative_total_of_cells_per_region</title>
<path fill="none" stroke="black" d="M410.584,-224.297C407.206,-216.413 403.13,-206.904 399.377,-198.146"/>
<polygon fill="black" stroke="black" points="402.487,-196.517 395.33,-188.704 396.053,-199.275 402.487,-196.517"/>
</g>
<!-- stats_1km&#45;&gt;compute_total_cells_and_cumulaative_total_of_cells_per_region -->
<g id="edge7" class="edge"><title>stats_1km&#45;&gt;compute_total_cells_and_cumulaative_total_of_cells_per_region</title>
<path fill="none" stroke="black" d="M298.565,-224.655C314.103,-215.437 333.52,-203.919 350.288,-193.971"/>
<polygon fill="black" stroke="black" points="352.475,-196.744 359.29,-188.632 348.903,-190.723 352.475,-196.744"/>
</g>
<!-- stats_ws&#45;&gt;compute_total_cells_and_cumulaative_total_of_cells_per_region -->
<g id="edge8" class="edge"><title>stats_ws&#45;&gt;compute_total_cells_and_cumulaative_total_of_cells_per_region</title>
<path fill="none" stroke="black" d="M354.876,-224.297C359.992,-216.159 366.195,-206.289 371.845,-197.301"/>
<polygon fill="black" stroke="black" points="374.89,-199.033 377.249,-188.704 368.964,-195.308 374.89,-199.033"/>
</g>
<!-- lsp_thresh&#45;&gt;compute_total_cells_and_cumulaative_total_of_cells_per_region -->
<g id="edge9" class="edge"><title>lsp_thresh&#45;&gt;compute_total_cells_and_cumulaative_total_of_cells_per_region</title>
<path fill="none" stroke="black" d="M526.292,-229.567C502.161,-219.452 467.101,-204.756 438.321,-192.693"/>
<polygon fill="black" stroke="black" points="439.402,-189.351 428.826,-188.713 436.696,-195.806 439.402,-189.351"/>
</g>
<!-- prot_ws_outflow -->
<g id="node23" class="node"><title>prot_ws_outflow</title>
<ellipse fill="none" stroke="black" cx="356" cy="-31" rx="7" ry="7"/>
</g>
<!-- prot_ws&#45;&gt;prot_ws_outflow -->
<g id="edge24" class="edge"><title>prot_ws&#45;&gt;prot_ws_outflow</title>
<path fill="none" stroke="black" d="M204.218,-78.4743C250.092,-64.4279 310.942,-45.7962 339.665,-37.0017"/>
<polygon fill="black" stroke="black" points="341.047,-40.239 349.584,-33.9646 338.997,-33.5457 341.047,-40.239"/>
</g>
<!-- prot_3nm_outflow -->
<g id="node22" class="node"><title>prot_3nm_outflow</title>
<ellipse fill="none" stroke="black" cx="388" cy="-31" rx="7" ry="7"/>
</g>
<!-- prot_3nm&#45;&gt;prot_3nm_outflow -->
<g id="edge23" class="edge"><title>prot_3nm&#45;&gt;prot_3nm_outflow</title>
<path fill="none" stroke="black" d="M388,-78.3889C388,-68.9828 388,-57.5389 388,-48.3712"/>
<polygon fill="black" stroke="black" points="391.5,-48.3008 388,-38.3008 384.5,-48.3008 391.5,-48.3008"/>
</g>
<!-- prot_1km_outflow -->
<g id="node21" class="node"><title>prot_1km_outflow</title>
<ellipse fill="none" stroke="black" cx="420" cy="-31" rx="7" ry="7"/>
</g>
<!-- prot_1km&#45;&gt;prot_1km_outflow -->
<g id="edge22" class="edge"><title>prot_1km&#45;&gt;prot_1km_outflow</title>
<path fill="none" stroke="black" d="M573.95,-78.4743C527.214,-64.3655 465.152,-45.6305 436.182,-36.885"/>
<polygon fill="black" stroke="black" points="437.093,-33.504 426.508,-33.9646 435.07,-40.2053 437.093,-33.504"/>
</g>
<!-- setup_R_inflow -->
<g id="node17" class="node"><title>setup_R_inflow</title>
<ellipse fill="none" stroke="black" cx="459" cy="-600.8" rx="7" ry="7"/>
</g>
<!-- setup_R_inflow&#45;&gt;setup_R -->
<g id="edge18" class="edge"><title>setup_R_inflow&#45;&gt;setup_R</title>
<path fill="none" stroke="black" d="M453.164,-596.699C439.064,-589.206 402.225,-569.629 373.974,-554.617"/>
<polygon fill="black" stroke="black" points="375.616,-551.526 365.143,-549.924 372.331,-557.707 375.616,-551.526"/>
</g>
<!-- zonal_stats_3nm_file_inflow -->
<g id="node18" class="node"><title>zonal_stats_3nm_file_inflow</title>
<ellipse fill="none" stroke="black" cx="491" cy="-600.8" rx="7" ry="7"/>
</g>
<!-- zonal_stats_3nm_file_inflow&#45;&gt;zonal_stats_3nm_file -->
<g id="edge19" class="edge"><title>zonal_stats_3nm_file_inflow&#45;&gt;zonal_stats_3nm_file</title>
<path fill="none" stroke="black" d="M492.337,-593.675C497.013,-570.459 510.213,-486.978 469,-443.2 463.309,-437.154 383.78,-421.497 312.827,-408.54"/>
<polygon fill="black" stroke="black" points="313.346,-405.077 302.881,-406.731 312.093,-411.964 313.346,-405.077"/>
</g>
<!-- zonal_stats_1km_file_inflow -->
<g id="node19" class="node"><title>zonal_stats_1km_file_inflow</title>
<ellipse fill="none" stroke="black" cx="523" cy="-600.8" rx="7" ry="7"/>
</g>
<!-- zonal_stats_1km_file_inflow&#45;&gt;zonal_stats_1km_file -->
<g id="edge20" class="edge"><title>zonal_stats_1km_file_inflow&#45;&gt;zonal_stats_1km_file</title>
<path fill="none" stroke="black" d="M523.79,-593.575C526.293,-571.348 532.209,-494.49 502,-443.2 494.84,-431.043 483.79,-420.76 472.435,-412.522"/>
<polygon fill="black" stroke="black" points="474.4,-409.625 464.165,-406.887 470.459,-415.41 474.4,-409.625"/>
</g>
<!-- zonal_stats_ws_file_inflow -->
<g id="node20" class="node"><title>zonal_stats_ws_file_inflow</title>
<ellipse fill="none" stroke="black" cx="555" cy="-600.8" rx="7" ry="7"/>
</g>
<!-- zonal_stats_ws_file_inflow&#45;&gt;zonal_stats_ws_file -->
<g id="edge21" class="edge"><title>zonal_stats_ws_file_inflow&#45;&gt;zonal_stats_ws_file</title>
<path fill="none" stroke="black" d="M557.675,-594.159C569.614,-568.98 618.479,-465.923 642.098,-416.109"/>
<polygon fill="black" stroke="black" points="645.345,-417.431 646.467,-406.895 639.02,-414.432 645.345,-417.431"/>
</g>
</g>
</svg>
