<?xml version="1.0" encoding="UTF-8" standalone="no"?>
<!DOCTYPE svg PUBLIC "-//W3C//DTD SVG 1.1//EN"
 "http://www.w3.org/Graphics/SVG/1.1/DTD/svg11.dtd">
<!-- Generated by graphviz version 2.38.0 (20140413.2041)
 -->
<!-- Title: yw_data_view Pages: 1 -->
<svg width="633pt" height="662pt"
 viewBox="0.00 0.00 633.00 661.60" xmlns="http://www.w3.org/2000/svg" xmlns:xlink="http://www.w3.org/1999/xlink">
<g id="graph0" class="graph" transform="scale(1 1) rotate(0) translate(4 657.6)">
<title>yw_data_view</title>
<polygon fill="white" stroke="none" points="-4,4 -4,-657.6 629,-657.6 629,4 -4,4"/>
<text text-anchor="middle" x="312.5" y="-633.4" font-family="Courier,monospace" font-size="18.00">get_analysis_rasters</text>
<g id="clust1" class="cluster"><title>cluster_workflow</title>
<polygon fill="none" stroke="black" stroke-width="2" points="8,-62 8,-562 617,-562 617,-62 8,-62"/>
</g>
<g id="clust2" class="cluster"><title>cluster_workflow_inner</title>
<polygon fill="none" stroke="white" stroke-width="2" points="16,-70 16,-554 609,-554 609,-70 16,-70"/>
</g>
<g id="clust3" class="cluster"><title>cluster_inflows</title>
<polygon fill="none" stroke="white" stroke-width="2" points="436,-570 436,-616 578,-616 578,-570 436,-570"/>
</g>
<g id="clust4" class="cluster"><title>cluster_inflows_inner</title>
<polygon fill="none" stroke="white" stroke-width="2" points="444,-578 444,-608 570,-608 570,-578 444,-578"/>
</g>
<g id="clust5" class="cluster"><title>cluster_outflows</title>
<polygon fill="none" stroke="white" stroke-width="2" points="247,-8 247,-54 325,-54 325,-8 247,-8"/>
</g>
<g id="clust6" class="cluster"><title>cluster_outflows_inner</title>
<polygon fill="none" stroke="white" stroke-width="2" points="255,-16 255,-46 317,-46 317,-16 255,-16"/>
</g>
<!-- set_up_configuration_and_start_provenance_tracking -->
<g id="node1" class="node"><title>set_up_configuration_and_start_provenance_tracking</title>
<polygon fill="#ccffcc" stroke="black" points="459.93,-474 24.07,-474 24.07,-438 459.93,-438 459.93,-474"/>
<text text-anchor="middle" x="242" y="-451.8" font-family="Courier,monospace" font-size="14.00">set_up_configuration_and_start_provenance_tracking</text>
</g>
<!-- dir_spatial -->
<g id="node5" class="node"><title>dir_spatial</title>
<path fill="#ffffcc" stroke="black" d="M96.7843,-330C96.7843,-330 41.2157,-330 41.2157,-330 35.2157,-330 29.2157,-324 29.2157,-318 29.2157,-318 29.2157,-306 29.2157,-306 29.2157,-300 35.2157,-294 41.2157,-294 41.2157,-294 96.7843,-294 96.7843,-294 102.784,-294 108.784,-300 108.784,-306 108.784,-306 108.784,-318 108.784,-318 108.784,-324 102.784,-330 96.7843,-330"/>
<text text-anchor="middle" x="69" y="-307.8" font-family="Helvetica,sans-Serif" font-size="14.00">dir_spatial</text>
</g>
<!-- set_up_configuration_and_start_provenance_tracking&#45;&gt;dir_spatial -->
<g id="edge9" class="edge"><title>set_up_configuration_and_start_provenance_tracking&#45;&gt;dir_spatial</title>
<path fill="none" stroke="black" d="M221.132,-437.871C190.349,-412.604 132.662,-365.254 97.8481,-336.679"/>
<polygon fill="black" stroke="black" points="99.8921,-333.828 89.9419,-330.189 95.4509,-339.239 99.8921,-333.828"/>
</g>
<!-- dir_goal -->
<g id="node6" class="node"><title>dir_goal</title>
<path fill="#ffffcc" stroke="black" d="M284.787,-402C284.787,-402 243.213,-402 243.213,-402 237.213,-402 231.213,-396 231.213,-390 231.213,-390 231.213,-378 231.213,-378 231.213,-372 237.213,-366 243.213,-366 243.213,-366 284.787,-366 284.787,-366 290.787,-366 296.787,-372 296.787,-378 296.787,-378 296.787,-390 296.787,-390 296.787,-396 290.787,-402 284.787,-402"/>
<text text-anchor="middle" x="264" y="-379.8" font-family="Helvetica,sans-Serif" font-size="14.00">dir_goal</text>
</g>
<!-- set_up_configuration_and_start_provenance_tracking&#45;&gt;dir_goal -->
<g id="edge10" class="edge"><title>set_up_configuration_and_start_provenance_tracking&#45;&gt;dir_goal</title>
<path fill="none" stroke="black" d="M247.438,-437.697C249.889,-429.898 252.84,-420.509 255.568,-411.829"/>
<polygon fill="black" stroke="black" points="258.965,-412.694 258.624,-402.104 252.287,-410.595 258.965,-412.694"/>
</g>
<!-- create_presence_of_buffer_rasters -->
<g id="node2" class="node"><title>create_presence_of_buffer_rasters</title>
<polygon fill="#ccffcc" stroke="black" points="423.654,-330 130.346,-330 130.346,-294 423.654,-294 423.654,-330"/>
<text text-anchor="middle" x="277" y="-307.8" font-family="Courier,monospace" font-size="14.00">create_presence_of_buffer_rasters</text>
</g>
<!-- rast_3nm_file_handle -->
<g id="node8" class="node"><title>rast_3nm_file_handle</title>
<path fill="#ffffcc" stroke="black" d="M348.814,-258C348.814,-258 223.186,-258 223.186,-258 217.186,-258 211.186,-252 211.186,-246 211.186,-246 211.186,-234 211.186,-234 211.186,-228 217.186,-222 223.186,-222 223.186,-222 348.814,-222 348.814,-222 354.814,-222 360.814,-228 360.814,-234 360.814,-234 360.814,-246 360.814,-246 360.814,-252 354.814,-258 348.814,-258"/>
<text text-anchor="middle" x="286" y="-235.8" font-family="Helvetica,sans-Serif" font-size="14.00">rast_3nm_file_handle</text>
</g>
<!-- create_presence_of_buffer_rasters&#45;&gt;rast_3nm_file_handle -->
<g id="edge11" class="edge"><title>create_presence_of_buffer_rasters&#45;&gt;rast_3nm_file_handle</title>
<path fill="none" stroke="black" d="M279.225,-293.697C280.217,-285.983 281.408,-276.712 282.514,-268.112"/>
<polygon fill="black" stroke="black" points="285.997,-268.469 283.801,-258.104 279.054,-267.576 285.997,-268.469"/>
</g>
<!-- rast_1km_file_handle -->
<g id="node9" class="node"><title>rast_1km_file_handle</title>
<path fill="#ffffcc" stroke="black" d="M181.531,-258C181.531,-258 56.4692,-258 56.4692,-258 50.4692,-258 44.4692,-252 44.4692,-246 44.4692,-246 44.4692,-234 44.4692,-234 44.4692,-228 50.4692,-222 56.4692,-222 56.4692,-222 181.531,-222 181.531,-222 187.531,-222 193.531,-228 193.531,-234 193.531,-234 193.531,-246 193.531,-246 193.531,-252 187.531,-258 181.531,-258"/>
<text text-anchor="middle" x="119" y="-235.8" font-family="Helvetica,sans-Serif" font-size="14.00">rast_1km_file_handle</text>
</g>
<!-- create_presence_of_buffer_rasters&#45;&gt;rast_1km_file_handle -->
<g id="edge12" class="edge"><title>create_presence_of_buffer_rasters&#45;&gt;rast_1km_file_handle</title>
<path fill="none" stroke="black" d="M238.349,-293.876C216.749,-284.307 189.649,-272.3 166.734,-262.148"/>
<polygon fill="black" stroke="black" points="168.086,-258.919 157.526,-258.068 165.251,-265.319 168.086,-258.919"/>
</g>
<!-- read_in_buffer_shapfiles_if_rasters_not -->
<g id="node3" class="node"><title>read_in_buffer_shapfiles_if_rasters_not</title>
<polygon fill="#ccffcc" stroke="black" points="457.546,-186 114.454,-186 114.454,-150 457.546,-150 457.546,-186"/>
<text text-anchor="middle" x="286" y="-163.8" font-family="Courier,monospace" font-size="14.00">read_in_buffer_shapfiles_if_rasters_not</text>
</g>
<!-- rast_3nm_file -->
<g id="node12" class="node"><title>rast_3nm_file</title>
<path fill="#ffffcc" stroke="black" d="M265.011,-114C265.011,-114 188.989,-114 188.989,-114 182.989,-114 176.989,-108 176.989,-102 176.989,-102 176.989,-90 176.989,-90 176.989,-84 182.989,-78 188.989,-78 188.989,-78 265.011,-78 265.011,-78 271.011,-78 277.011,-84 277.011,-90 277.011,-90 277.011,-102 277.011,-102 277.011,-108 271.011,-114 265.011,-114"/>
<text text-anchor="middle" x="227" y="-91.8" font-family="Helvetica,sans-Serif" font-size="14.00">rast_3nm_file</text>
</g>
<!-- read_in_buffer_shapfiles_if_rasters_not&#45;&gt;rast_3nm_file -->
<g id="edge13" class="edge"><title>read_in_buffer_shapfiles_if_rasters_not&#45;&gt;rast_3nm_file</title>
<path fill="none" stroke="black" d="M271.416,-149.697C264.342,-141.305 255.717,-131.07 247.955,-121.861"/>
<polygon fill="black" stroke="black" points="250.537,-119.495 241.417,-114.104 245.185,-124.006 250.537,-119.495"/>
</g>
<!-- rast_1km_file -->
<g id="node13" class="node"><title>rast_1km_file</title>
<path fill="#ffffcc" stroke="black" d="M382.729,-114C382.729,-114 307.271,-114 307.271,-114 301.271,-114 295.271,-108 295.271,-102 295.271,-102 295.271,-90 295.271,-90 295.271,-84 301.271,-78 307.271,-78 307.271,-78 382.729,-78 382.729,-78 388.729,-78 394.729,-84 394.729,-90 394.729,-90 394.729,-102 394.729,-102 394.729,-108 388.729,-114 382.729,-114"/>
<text text-anchor="middle" x="345" y="-91.8" font-family="Helvetica,sans-Serif" font-size="14.00">rast_1km_file</text>
</g>
<!-- read_in_buffer_shapfiles_if_rasters_not&#45;&gt;rast_1km_file -->
<g id="edge14" class="edge"><title>read_in_buffer_shapfiles_if_rasters_not&#45;&gt;rast_1km_file</title>
<path fill="none" stroke="black" d="M300.584,-149.697C307.658,-141.305 316.283,-131.07 324.045,-121.861"/>
<polygon fill="black" stroke="black" points="326.815,-124.006 330.583,-114.104 321.463,-119.495 326.815,-124.006"/>
</g>
<!-- setup_R -->
<g id="node4" class="node"><title>setup_R</title>
<path fill="#ffffcc" stroke="black" d="M356.128,-546C356.128,-546 311.872,-546 311.872,-546 305.872,-546 299.872,-540 299.872,-534 299.872,-534 299.872,-522 299.872,-522 299.872,-516 305.872,-510 311.872,-510 311.872,-510 356.128,-510 356.128,-510 362.128,-510 368.128,-516 368.128,-522 368.128,-522 368.128,-534 368.128,-534 368.128,-540 362.128,-546 356.128,-546"/>
<text text-anchor="middle" x="334" y="-523.8" font-family="Helvetica,sans-Serif" font-size="14.00">setup_R</text>
</g>
<!-- setup_R&#45;&gt;set_up_configuration_and_start_provenance_tracking -->
<g id="edge1" class="edge"><title>setup_R&#45;&gt;set_up_configuration_and_start_provenance_tracking</title>
<path fill="none" stroke="black" d="M311.258,-509.697C299.56,-500.796 285.139,-489.823 272.49,-480.199"/>
<polygon fill="black" stroke="black" points="274.558,-477.374 264.48,-474.104 270.319,-482.945 274.558,-477.374"/>
</g>
<!-- dir_spatial&#45;&gt;read_in_buffer_shapfiles_if_rasters_not -->
<g id="edge2" class="edge"><title>dir_spatial&#45;&gt;read_in_buffer_shapfiles_if_rasters_not</title>
<path fill="none" stroke="black" d="M53.2207,-293.988C37.3718,-274.792 17.6021,-243.455 35,-222 47.2834,-206.852 80.538,-195.866 118.978,-187.966"/>
<polygon fill="black" stroke="black" points="119.716,-191.388 128.852,-186.024 118.365,-184.52 119.716,-191.388"/>
</g>
<!-- dir_goal&#45;&gt;create_presence_of_buffer_rasters -->
<g id="edge3" class="edge"><title>dir_goal&#45;&gt;create_presence_of_buffer_rasters</title>
<path fill="none" stroke="black" d="M267.213,-365.697C268.646,-357.983 270.368,-348.712 271.965,-340.112"/>
<polygon fill="black" stroke="black" points="275.439,-340.575 273.823,-330.104 268.556,-339.297 275.439,-340.575"/>
</g>
<!-- rast_base -->
<g id="node7" class="node"><title>rast_base</title>
<path fill="#ffffcc" stroke="black" d="M422.966,-402C422.966,-402 369.034,-402 369.034,-402 363.034,-402 357.034,-396 357.034,-390 357.034,-390 357.034,-378 357.034,-378 357.034,-372 363.034,-366 369.034,-366 369.034,-366 422.966,-366 422.966,-366 428.966,-366 434.966,-372 434.966,-378 434.966,-378 434.966,-390 434.966,-390 434.966,-396 428.966,-402 422.966,-402"/>
<text text-anchor="middle" x="396" y="-379.8" font-family="Helvetica,sans-Serif" font-size="14.00">rast_base</text>
</g>
<!-- rast_base&#45;&gt;create_presence_of_buffer_rasters -->
<g id="edge4" class="edge"><title>rast_base&#45;&gt;create_presence_of_buffer_rasters</title>
<path fill="none" stroke="black" d="M366.889,-365.876C351.33,-356.724 331.981,-345.342 315.224,-335.485"/>
<polygon fill="black" stroke="black" points="316.617,-332.243 306.223,-330.19 313.067,-338.277 316.617,-332.243"/>
</g>
<!-- rast_3nm_file_handle&#45;&gt;read_in_buffer_shapfiles_if_rasters_not -->
<g id="edge5" class="edge"><title>rast_3nm_file_handle&#45;&gt;read_in_buffer_shapfiles_if_rasters_not</title>
<path fill="none" stroke="black" d="M286,-221.697C286,-213.983 286,-204.712 286,-196.112"/>
<polygon fill="black" stroke="black" points="289.5,-196.104 286,-186.104 282.5,-196.104 289.5,-196.104"/>
</g>
<!-- rast_1km_file_handle&#45;&gt;read_in_buffer_shapfiles_if_rasters_not -->
<g id="edge6" class="edge"><title>rast_1km_file_handle&#45;&gt;read_in_buffer_shapfiles_if_rasters_not</title>
<path fill="none" stroke="black" d="M159.853,-221.876C182.784,-212.264 211.582,-200.193 235.87,-190.013"/>
<polygon fill="black" stroke="black" points="237.41,-193.162 245.28,-186.068 234.704,-186.706 237.41,-193.162"/>
</g>
<!-- poly_3nm_file -->
<g id="node10" class="node"><title>poly_3nm_file</title>
<path fill="#ffffcc" stroke="black" d="M469.35,-258C469.35,-258 390.65,-258 390.65,-258 384.65,-258 378.65,-252 378.65,-246 378.65,-246 378.65,-234 378.65,-234 378.65,-228 384.65,-222 390.65,-222 390.65,-222 469.35,-222 469.35,-222 475.35,-222 481.35,-228 481.35,-234 481.35,-234 481.35,-246 481.35,-246 481.35,-252 475.35,-258 469.35,-258"/>
<text text-anchor="middle" x="430" y="-235.8" font-family="Helvetica,sans-Serif" font-size="14.00">poly_3nm_file</text>
</g>
<!-- poly_3nm_file&#45;&gt;read_in_buffer_shapfiles_if_rasters_not -->
<g id="edge7" class="edge"><title>poly_3nm_file&#45;&gt;read_in_buffer_shapfiles_if_rasters_not</title>
<path fill="none" stroke="black" d="M394.774,-221.876C375.423,-212.469 351.227,-200.708 330.573,-190.667"/>
<polygon fill="black" stroke="black" points="331.886,-187.414 321.362,-186.19 328.825,-193.71 331.886,-187.414"/>
</g>
<!-- poly_1km_file -->
<g id="node11" class="node"><title>poly_1km_file</title>
<path fill="#ffffcc" stroke="black" d="M588.568,-258C588.568,-258 511.432,-258 511.432,-258 505.432,-258 499.432,-252 499.432,-246 499.432,-246 499.432,-234 499.432,-234 499.432,-228 505.432,-222 511.432,-222 511.432,-222 588.568,-222 588.568,-222 594.568,-222 600.568,-228 600.568,-234 600.568,-234 600.568,-246 600.568,-246 600.568,-252 594.568,-258 588.568,-258"/>
<text text-anchor="middle" x="550" y="-235.8" font-family="Helvetica,sans-Serif" font-size="14.00">poly_1km_file</text>
</g>
<!-- poly_1km_file&#45;&gt;read_in_buffer_shapfiles_if_rasters_not -->
<g id="edge8" class="edge"><title>poly_1km_file&#45;&gt;read_in_buffer_shapfiles_if_rasters_not</title>
<path fill="none" stroke="black" d="M499.283,-224.546C496.144,-223.677 493.03,-222.823 490,-222 448.182,-210.645 401.402,-198.455 363.197,-188.631"/>
<polygon fill="black" stroke="black" points="363.727,-185.154 353.17,-186.057 361.986,-191.934 363.727,-185.154"/>
</g>
<!-- rast_3nm_file_outflow -->
<g id="node19" class="node"><title>rast_3nm_file_outflow</title>
<ellipse fill="none" stroke="black" cx="270" cy="-31" rx="7" ry="7"/>
</g>
<!-- rast_3nm_file&#45;&gt;rast_3nm_file_outflow -->
<g id="edge20" class="edge"><title>rast_3nm_file&#45;&gt;rast_3nm_file_outflow</title>
<path fill="none" stroke="black" d="M238.75,-77.785C245.615,-67.7264 254.164,-55.2022 260.583,-45.7966"/>
<polygon fill="black" stroke="black" points="263.596,-47.5904 266.343,-37.3577 257.815,-43.6441 263.596,-47.5904"/>
</g>
<!-- rast_1km_file_outflow -->
<g id="node18" class="node"><title>rast_1km_file_outflow</title>
<ellipse fill="none" stroke="black" cx="302" cy="-31" rx="7" ry="7"/>
</g>
<!-- rast_1km_file&#45;&gt;rast_1km_file_outflow -->
<g id="edge19" class="edge"><title>rast_1km_file&#45;&gt;rast_1km_file_outflow</title>
<path fill="none" stroke="black" d="M333.25,-77.785C326.385,-67.7264 317.836,-55.2022 311.417,-45.7966"/>
<polygon fill="black" stroke="black" points="314.185,-43.6441 305.657,-37.3577 308.404,-47.5904 314.185,-43.6441"/>
</g>
<!-- setup_R_inflow -->
<g id="node14" class="node"><title>setup_R_inflow</title>
<ellipse fill="none" stroke="black" cx="459" cy="-593" rx="7" ry="7"/>
</g>
<!-- setup_R_inflow&#45;&gt;setup_R -->
<g id="edge15" class="edge"><title>setup_R_inflow&#45;&gt;setup_R</title>
<path fill="none" stroke="black" d="M452.971,-588.961C439.329,-582.086 405.082,-564.825 376.817,-550.58"/>
<polygon fill="black" stroke="black" points="378.389,-547.453 367.883,-546.077 375.238,-553.703 378.389,-547.453"/>
</g>
<!-- rast_base_inflow -->
<g id="node15" class="node"><title>rast_base_inflow</title>
<ellipse fill="none" stroke="black" cx="491" cy="-593" rx="7" ry="7"/>
</g>
<!-- rast_base_inflow&#45;&gt;rast_base -->
<g id="edge16" class="edge"><title>rast_base_inflow&#45;&gt;rast_base</title>
<path fill="none" stroke="black" d="M491.73,-585.862C494.024,-563.946 499.25,-488.196 469,-438 461.785,-426.028 450.728,-415.962 439.385,-407.928"/>
<polygon fill="black" stroke="black" points="440.983,-404.788 430.714,-402.182 437.117,-410.623 440.983,-404.788"/>
</g>
<!-- poly_3nm_file_inflow -->
<g id="node16" class="node"><title>poly_3nm_file_inflow</title>
<ellipse fill="none" stroke="black" cx="523" cy="-593" rx="7" ry="7"/>
</g>
<!-- poly_3nm_file_inflow&#45;&gt;poly_3nm_file -->
<g id="edge17" class="edge"><title>poly_3nm_file_inflow&#45;&gt;poly_3nm_file</title>
<path fill="none" stroke="black" d="M523.235,-585.811C523.943,-566.666 526,-506.7 526,-457 526,-457 526,-457 526,-383 526,-334.855 487.657,-290.848 459.435,-264.978"/>
<polygon fill="black" stroke="black" points="461.582,-262.204 451.784,-258.174 456.931,-267.435 461.582,-262.204"/>
</g>
<!-- poly_1km_file_inflow -->
<g id="node17" class="node"><title>poly_1km_file_inflow</title>
<ellipse fill="none" stroke="black" cx="555" cy="-593" rx="7" ry="7"/>
</g>
<!-- poly_1km_file_inflow&#45;&gt;poly_1km_file -->
<g id="edge18" class="edge"><title>poly_1km_file_inflow&#45;&gt;poly_1km_file</title>
<path fill="none" stroke="black" d="M555.706,-585.82C557.828,-566.7 564,-506.798 564,-457 564,-457 564,-457 564,-383 564,-343.022 558.436,-297.017 554.324,-268.471"/>
<polygon fill="black" stroke="black" points="557.764,-267.811 552.833,-258.434 550.84,-268.84 557.764,-267.811"/>
</g>
</g>
</svg>
