<?xml version="1.0" encoding="UTF-8" standalone="no"?>
<!DOCTYPE svg PUBLIC "-//W3C//DTD SVG 1.1//EN"
 "http://www.w3.org/Graphics/SVG/1.1/DTD/svg11.dtd">
<!-- Generated by graphviz version 2.38.0 (20140413.2041)
 -->
<!-- Title: yw_data_view Pages: 1 -->
<svg width="400pt" height="518pt"
 viewBox="0.00 0.00 400.00 517.60" xmlns="http://www.w3.org/2000/svg" xmlns:xlink="http://www.w3.org/1999/xlink">
<g id="graph0" class="graph" transform="scale(1 1) rotate(0) translate(4 513.6)">
<title>yw_data_view</title>
<polygon fill="white" stroke="none" points="-4,4 -4,-513.6 396,-513.6 396,4 -4,4"/>
<text text-anchor="middle" x="196" y="-489.4" font-family="Courier,monospace" font-size="18.00">get_analysis_rasters</text>
<g id="clust1" class="cluster"><title>cluster_workflow</title>
<polygon fill="none" stroke="black" stroke-width="2" points="8,-62 8,-418 384,-418 384,-62 8,-62"/>
</g>
<g id="clust2" class="cluster"><title>cluster_workflow_inner</title>
<polygon fill="none" stroke="white" stroke-width="2" points="16,-70 16,-410 376,-410 376,-70 16,-70"/>
</g>
<g id="clust3" class="cluster"><title>cluster_inflows</title>
<polygon fill="none" stroke="white" stroke-width="2" points="173,-426 173,-472 219,-472 219,-426 173,-426"/>
</g>
<g id="clust4" class="cluster"><title>cluster_inflows_inner</title>
<polygon fill="none" stroke="white" stroke-width="2" points="181,-434 181,-464 211,-464 211,-434 181,-434"/>
</g>
<g id="clust5" class="cluster"><title>cluster_outflows</title>
<polygon fill="none" stroke="white" stroke-width="2" points="157,-8 157,-54 235,-54 235,-8 157,-8"/>
</g>
<g id="clust6" class="cluster"><title>cluster_outflows_inner</title>
<polygon fill="none" stroke="white" stroke-width="2" points="165,-16 165,-46 227,-46 227,-16 165,-16"/>
</g>
<!-- read_in_buffer_shapfiles_if_rasters_not -->
<g id="node1" class="node"><title>read_in_buffer_shapfiles_if_rasters_not</title>
<polygon fill="#ccffcc" stroke="black" points="367.546,-186 24.4543,-186 24.4543,-150 367.546,-150 367.546,-186"/>
<text text-anchor="middle" x="196" y="-163.8" font-family="Courier,monospace" font-size="14.00">read_in_buffer_shapfiles_if_rasters_not</text>
</g>
<!-- rast_3nm_file -->
<g id="node6" class="node"><title>rast_3nm_file</title>
<path fill="#ffffcc" stroke="black" d="M175.011,-114C175.011,-114 98.9888,-114 98.9888,-114 92.9888,-114 86.9888,-108 86.9888,-102 86.9888,-102 86.9888,-90 86.9888,-90 86.9888,-84 92.9888,-78 98.9888,-78 98.9888,-78 175.011,-78 175.011,-78 181.011,-78 187.011,-84 187.011,-90 187.011,-90 187.011,-102 187.011,-102 187.011,-108 181.011,-114 175.011,-114"/>
<text text-anchor="middle" x="137" y="-91.8" font-family="Helvetica,sans-Serif" font-size="14.00">rast_3nm_file</text>
</g>
<!-- read_in_buffer_shapfiles_if_rasters_not&#45;&gt;rast_3nm_file -->
<g id="edge2" class="edge"><title>read_in_buffer_shapfiles_if_rasters_not&#45;&gt;rast_3nm_file</title>
<path fill="none" stroke="black" d="M181.416,-149.697C174.342,-141.305 165.717,-131.07 157.955,-121.861"/>
<polygon fill="black" stroke="black" points="160.537,-119.495 151.417,-114.104 155.185,-124.006 160.537,-119.495"/>
</g>
<!-- rast_1km_file -->
<g id="node7" class="node"><title>rast_1km_file</title>
<path fill="#ffffcc" stroke="black" d="M292.729,-114C292.729,-114 217.271,-114 217.271,-114 211.271,-114 205.271,-108 205.271,-102 205.271,-102 205.271,-90 205.271,-90 205.271,-84 211.271,-78 217.271,-78 217.271,-78 292.729,-78 292.729,-78 298.729,-78 304.729,-84 304.729,-90 304.729,-90 304.729,-102 304.729,-102 304.729,-108 298.729,-114 292.729,-114"/>
<text text-anchor="middle" x="255" y="-91.8" font-family="Helvetica,sans-Serif" font-size="14.00">rast_1km_file</text>
</g>
<!-- read_in_buffer_shapfiles_if_rasters_not&#45;&gt;rast_1km_file -->
<g id="edge1" class="edge"><title>read_in_buffer_shapfiles_if_rasters_not&#45;&gt;rast_1km_file</title>
<path fill="none" stroke="black" d="M210.584,-149.697C217.658,-141.305 226.283,-131.07 234.045,-121.861"/>
<polygon fill="black" stroke="black" points="236.815,-124.006 240.583,-114.104 231.463,-119.495 236.815,-124.006"/>
</g>
<!-- create_presence_of_buffer_rasters -->
<g id="node2" class="node"><title>create_presence_of_buffer_rasters</title>
<polygon fill="#ccffcc" stroke="black" points="342.654,-330 49.3462,-330 49.3462,-294 342.654,-294 342.654,-330"/>
<text text-anchor="middle" x="196" y="-307.8" font-family="Courier,monospace" font-size="14.00">create_presence_of_buffer_rasters</text>
</g>
<!-- rast_3nm_file_handle -->
<g id="node4" class="node"><title>rast_3nm_file_handle</title>
<path fill="#ffffcc" stroke="black" d="M174.814,-258C174.814,-258 49.1865,-258 49.1865,-258 43.1865,-258 37.1865,-252 37.1865,-246 37.1865,-246 37.1865,-234 37.1865,-234 37.1865,-228 43.1865,-222 49.1865,-222 49.1865,-222 174.814,-222 174.814,-222 180.814,-222 186.814,-228 186.814,-234 186.814,-234 186.814,-246 186.814,-246 186.814,-252 180.814,-258 174.814,-258"/>
<text text-anchor="middle" x="112" y="-235.8" font-family="Helvetica,sans-Serif" font-size="14.00">rast_3nm_file_handle</text>
</g>
<!-- create_presence_of_buffer_rasters&#45;&gt;rast_3nm_file_handle -->
<g id="edge4" class="edge"><title>create_presence_of_buffer_rasters&#45;&gt;rast_3nm_file_handle</title>
<path fill="none" stroke="black" d="M175.236,-293.697C164.759,-284.965 151.889,-274.24 140.5,-264.75"/>
<polygon fill="black" stroke="black" points="142.448,-261.817 132.525,-258.104 137.967,-267.195 142.448,-261.817"/>
</g>
<!-- rast_1km_file_handle -->
<g id="node5" class="node"><title>rast_1km_file_handle</title>
<path fill="#ffffcc" stroke="black" d="M341.531,-258C341.531,-258 216.469,-258 216.469,-258 210.469,-258 204.469,-252 204.469,-246 204.469,-246 204.469,-234 204.469,-234 204.469,-228 210.469,-222 216.469,-222 216.469,-222 341.531,-222 341.531,-222 347.531,-222 353.531,-228 353.531,-234 353.531,-234 353.531,-246 353.531,-246 353.531,-252 347.531,-258 341.531,-258"/>
<text text-anchor="middle" x="279" y="-235.8" font-family="Helvetica,sans-Serif" font-size="14.00">rast_1km_file_handle</text>
</g>
<!-- create_presence_of_buffer_rasters&#45;&gt;rast_1km_file_handle -->
<g id="edge3" class="edge"><title>create_presence_of_buffer_rasters&#45;&gt;rast_1km_file_handle</title>
<path fill="none" stroke="black" d="M216.517,-293.697C226.869,-284.965 239.586,-274.24 250.839,-264.75"/>
<polygon fill="black" stroke="black" points="253.331,-267.227 258.719,-258.104 248.818,-261.876 253.331,-267.227"/>
</g>
<!-- rast_base -->
<g id="node3" class="node"><title>rast_base</title>
<path fill="#ffffcc" stroke="black" d="M222.966,-402C222.966,-402 169.034,-402 169.034,-402 163.034,-402 157.034,-396 157.034,-390 157.034,-390 157.034,-378 157.034,-378 157.034,-372 163.034,-366 169.034,-366 169.034,-366 222.966,-366 222.966,-366 228.966,-366 234.966,-372 234.966,-378 234.966,-378 234.966,-390 234.966,-390 234.966,-396 228.966,-402 222.966,-402"/>
<text text-anchor="middle" x="196" y="-379.8" font-family="Helvetica,sans-Serif" font-size="14.00">rast_base</text>
</g>
<!-- rast_base&#45;&gt;create_presence_of_buffer_rasters -->
<g id="edge5" class="edge"><title>rast_base&#45;&gt;create_presence_of_buffer_rasters</title>
<path fill="none" stroke="black" d="M196,-365.697C196,-357.983 196,-348.712 196,-340.112"/>
<polygon fill="black" stroke="black" points="199.5,-340.104 196,-330.104 192.5,-340.104 199.5,-340.104"/>
</g>
<!-- rast_3nm_file_handle&#45;&gt;read_in_buffer_shapfiles_if_rasters_not -->
<g id="edge6" class="edge"><title>rast_3nm_file_handle&#45;&gt;read_in_buffer_shapfiles_if_rasters_not</title>
<path fill="none" stroke="black" d="M132.764,-221.697C143.241,-212.965 156.111,-202.24 167.5,-192.75"/>
<polygon fill="black" stroke="black" points="170.033,-195.195 175.475,-186.104 165.552,-189.817 170.033,-195.195"/>
</g>
<!-- rast_1km_file_handle&#45;&gt;read_in_buffer_shapfiles_if_rasters_not -->
<g id="edge7" class="edge"><title>rast_1km_file_handle&#45;&gt;read_in_buffer_shapfiles_if_rasters_not</title>
<path fill="none" stroke="black" d="M258.483,-221.697C248.131,-212.965 235.414,-202.24 224.161,-192.75"/>
<polygon fill="black" stroke="black" points="226.182,-189.876 216.281,-186.104 221.669,-195.227 226.182,-189.876"/>
</g>
<!-- rast_3nm_file_outflow -->
<g id="node10" class="node"><title>rast_3nm_file_outflow</title>
<ellipse fill="none" stroke="black" cx="180" cy="-31" rx="7" ry="7"/>
</g>
<!-- rast_3nm_file&#45;&gt;rast_3nm_file_outflow -->
<g id="edge10" class="edge"><title>rast_3nm_file&#45;&gt;rast_3nm_file_outflow</title>
<path fill="none" stroke="black" d="M148.75,-77.785C155.615,-67.7264 164.164,-55.2022 170.583,-45.7966"/>
<polygon fill="black" stroke="black" points="173.596,-47.5904 176.343,-37.3577 167.815,-43.6441 173.596,-47.5904"/>
</g>
<!-- rast_1km_file_outflow -->
<g id="node9" class="node"><title>rast_1km_file_outflow</title>
<ellipse fill="none" stroke="black" cx="212" cy="-31" rx="7" ry="7"/>
</g>
<!-- rast_1km_file&#45;&gt;rast_1km_file_outflow -->
<g id="edge9" class="edge"><title>rast_1km_file&#45;&gt;rast_1km_file_outflow</title>
<path fill="none" stroke="black" d="M243.25,-77.785C236.385,-67.7264 227.836,-55.2022 221.417,-45.7966"/>
<polygon fill="black" stroke="black" points="224.185,-43.6441 215.657,-37.3577 218.404,-47.5904 224.185,-43.6441"/>
</g>
<!-- rast_base_inflow -->
<g id="node8" class="node"><title>rast_base_inflow</title>
<ellipse fill="none" stroke="black" cx="196" cy="-449" rx="7" ry="7"/>
</g>
<!-- rast_base_inflow&#45;&gt;rast_base -->
<g id="edge8" class="edge"><title>rast_base_inflow&#45;&gt;rast_base</title>
<path fill="none" stroke="black" d="M196,-441.729C196,-434.795 196,-423.154 196,-412.215"/>
<polygon fill="black" stroke="black" points="199.5,-412.119 196,-402.119 192.5,-412.119 199.5,-412.119"/>
</g>
</g>
</svg>
