<?xml version="1.0" encoding="UTF-8" standalone="no"?>
<!DOCTYPE svg PUBLIC "-//W3C//DTD SVG 1.1//EN"
 "http://www.w3.org/Graphics/SVG/1.1/DTD/svg11.dtd">
<!-- Generated by graphviz version 2.38.0 (20140413.2041)
 -->
<!-- Title: yw_data_view Pages: 1 -->
<svg width="656pt" height="672pt"
 viewBox="0.00 0.00 656.00 672.00" xmlns="http://www.w3.org/2000/svg" xmlns:xlink="http://www.w3.org/1999/xlink">
<g id="graph0" class="graph" transform="scale(1 1) rotate(0) translate(4 668)">
<title>yw_data_view</title>
<polygon fill="white" stroke="none" points="-4,4 -4,-668 652,-668 652,4 -4,4"/>
<text text-anchor="middle" x="324" y="-643.8" font-family="Courier,monospace" font-size="18.00">get_analysis_rasters</text>
<g id="clust1" class="cluster"><title>cluster_workflow</title>
<polygon fill="none" stroke="black" stroke-width="2" points="8,-62 8,-572.4 640,-572.4 640,-62 8,-62"/>
</g>
<g id="clust2" class="cluster"><title>cluster_workflow_inner</title>
<polygon fill="none" stroke="white" stroke-width="2" points="16,-70 16,-564.4 632,-564.4 632,-70 16,-70"/>
</g>
<g id="clust3" class="cluster"><title>cluster_inflows</title>
<polygon fill="none" stroke="white" stroke-width="2" points="448,-580.4 448,-626.4 590,-626.4 590,-580.4 448,-580.4"/>
</g>
<g id="clust4" class="cluster"><title>cluster_inflows_inner</title>
<polygon fill="none" stroke="white" stroke-width="2" points="456,-588.4 456,-618.4 582,-618.4 582,-588.4 456,-588.4"/>
</g>
<g id="clust5" class="cluster"><title>cluster_outflows</title>
<polygon fill="none" stroke="white" stroke-width="2" points="287,-8 287,-54 365,-54 365,-8 287,-8"/>
</g>
<g id="clust6" class="cluster"><title>cluster_outflows_inner</title>
<polygon fill="none" stroke="white" stroke-width="2" points="295,-16 295,-46 357,-46 357,-16 295,-16"/>
</g>
<!-- set_up_configuration_and_start_provenance_tracking -->
<g id="node1" class="node"><title>set_up_configuration_and_start_provenance_tracking</title>
<polygon fill="#ccffcc" stroke="black" points="459.93,-481.8 24.07,-481.8 24.07,-445.8 459.93,-445.8 459.93,-481.8"/>
<text text-anchor="middle" x="242" y="-459.6" font-family="Courier,monospace" font-size="14.00">set_up_configuration_and_start_provenance_tracking</text>
</g>
<!-- dir_spatial -->
<g id="node8" class="node"><title>dir_spatial</title>
<path fill="#ffffcc" stroke="black" d="M184.504,-335.2C184.504,-335.2 151.496,-335.2 151.496,-335.2 145.496,-335.2 139.496,-329.2 139.496,-323.2 139.496,-323.2 139.496,-311.2 139.496,-311.2 139.496,-305.2 145.496,-299.2 151.496,-299.2 151.496,-299.2 184.504,-299.2 184.504,-299.2 190.504,-299.2 196.504,-305.2 196.504,-311.2 196.504,-311.2 196.504,-323.2 196.504,-323.2 196.504,-329.2 190.504,-335.2 184.504,-335.2"/>
<text text-anchor="middle" x="168" y="-314.5" font-family="Helvetica,sans-Serif" font-size="9.00">dir_spatial</text>
</g>
<!-- set_up_configuration_and_start_provenance_tracking&#45;&gt;dir_spatial -->
<g id="edge9" class="edge"><title>set_up_configuration_and_start_provenance_tracking&#45;&gt;dir_spatial</title>
<path fill="none" stroke="black" d="M211.769,-445.706C198.836,-436.75 184.915,-424.556 177,-409.8 166.47,-390.168 164.739,-364.753 165.348,-345.675"/>
<polygon fill="black" stroke="black" points="168.851,-345.714 165.906,-335.537 161.861,-345.329 168.851,-345.714"/>
</g>
<!-- dir_goal -->
<g id="node9" class="node"><title>dir_goal</title>
<path fill="#ffffcc" stroke="black" d="M228,-408.5C228,-408.5 198,-408.5 198,-408.5 192,-408.5 186,-402.5 186,-396.5 186,-396.5 186,-384.5 186,-384.5 186,-378.5 192,-372.5 198,-372.5 198,-372.5 228,-372.5 228,-372.5 234,-372.5 240,-378.5 240,-384.5 240,-384.5 240,-396.5 240,-396.5 240,-402.5 234,-408.5 228,-408.5"/>
<text text-anchor="middle" x="213" y="-387.8" font-family="Helvetica,sans-Serif" font-size="9.00">dir_goal</text>
</g>
<!-- set_up_configuration_and_start_provenance_tracking&#45;&gt;dir_goal -->
<g id="edge10" class="edge"><title>set_up_configuration_and_start_provenance_tracking&#45;&gt;dir_goal</title>
<path fill="none" stroke="black" d="M234.98,-445.54C231.632,-437.308 227.55,-427.274 223.818,-418.097"/>
<polygon fill="black" stroke="black" points="226.965,-416.545 219.955,-408.601 220.481,-419.183 226.965,-416.545"/>
</g>
<!-- create_presence_of_buffer_rasters -->
<g id="node2" class="node"><title>create_presence_of_buffer_rasters</title>
<polygon fill="#ccffcc" stroke="black" points="510.654,-335.2 217.346,-335.2 217.346,-299.2 510.654,-299.2 510.654,-335.2"/>
<text text-anchor="middle" x="364" y="-313" font-family="Courier,monospace" font-size="14.00">create_presence_of_buffer_rasters</text>
</g>
<!-- rast_3nm_file_handle -->
<g id="node10" class="node"><title>rast_3nm_file_handle</title>
<path fill="#ffffcc" stroke="black" d="M404.023,-261.9C404.023,-261.9 325.977,-261.9 325.977,-261.9 319.977,-261.9 313.977,-255.9 313.977,-249.9 313.977,-249.9 313.977,-237.9 313.977,-237.9 313.977,-231.9 319.977,-225.9 325.977,-225.9 325.977,-225.9 404.023,-225.9 404.023,-225.9 410.023,-225.9 416.023,-231.9 416.023,-237.9 416.023,-237.9 416.023,-249.9 416.023,-249.9 416.023,-255.9 410.023,-261.9 404.023,-261.9"/>
<text text-anchor="middle" x="365" y="-241.2" font-family="Helvetica,sans-Serif" font-size="9.00">rast_3nm_file_handle</text>
</g>
<!-- create_presence_of_buffer_rasters&#45;&gt;rast_3nm_file_handle -->
<g id="edge11" class="edge"><title>create_presence_of_buffer_rasters&#45;&gt;rast_3nm_file_handle</title>
<path fill="none" stroke="black" d="M364.242,-298.94C364.355,-290.883 364.492,-281.1 364.619,-272.084"/>
<polygon fill="black" stroke="black" points="368.119,-272.049 364.76,-262.001 361.12,-271.951 368.119,-272.049"/>
</g>
<!-- rast_1km_file_handle -->
<g id="node11" class="node"><title>rast_1km_file_handle</title>
<path fill="#ffffcc" stroke="black" d="M283.521,-261.9C283.521,-261.9 206.479,-261.9 206.479,-261.9 200.479,-261.9 194.479,-255.9 194.479,-249.9 194.479,-249.9 194.479,-237.9 194.479,-237.9 194.479,-231.9 200.479,-225.9 206.479,-225.9 206.479,-225.9 283.521,-225.9 283.521,-225.9 289.521,-225.9 295.521,-231.9 295.521,-237.9 295.521,-237.9 295.521,-249.9 295.521,-249.9 295.521,-255.9 289.521,-261.9 283.521,-261.9"/>
<text text-anchor="middle" x="245" y="-241.2" font-family="Helvetica,sans-Serif" font-size="9.00">rast_1km_file_handle</text>
</g>
<!-- create_presence_of_buffer_rasters&#45;&gt;rast_1km_file_handle -->
<g id="edge12" class="edge"><title>create_presence_of_buffer_rasters&#45;&gt;rast_1km_file_handle</title>
<path fill="none" stroke="black" d="M335.497,-299.122C319.57,-289.579 299.533,-277.574 282.363,-267.287"/>
<polygon fill="black" stroke="black" points="284.06,-264.223 273.683,-262.086 280.463,-270.228 284.06,-264.223"/>
</g>
<!-- read_in_buffer_shapfiles_if_rasters_not -->
<g id="node3" class="node"><title>read_in_buffer_shapfiles_if_rasters_not</title>
<polygon fill="#ccffcc" stroke="black" points="536.546,-188.6 193.454,-188.6 193.454,-152.6 536.546,-152.6 536.546,-188.6"/>
<text text-anchor="middle" x="365" y="-166.4" font-family="Courier,monospace" font-size="14.00">read_in_buffer_shapfiles_if_rasters_not</text>
</g>
<!-- rast_3nm_file -->
<g id="node12" class="node"><title>rast_3nm_file</title>
<path fill="#ffe4b5" stroke="black" d="M35.6234,-78.5C35.6234,-78.5 308.377,-78.5 308.377,-78.5 314.377,-78.5 320.377,-84.5 320.377,-90.5 320.377,-90.5 320.377,-104.1 320.377,-104.1 320.377,-110.1 314.377,-116.1 308.377,-116.1 308.377,-116.1 35.6234,-116.1 35.6234,-116.1 29.6234,-116.1 23.6234,-110.1 23.6234,-104.1 23.6234,-104.1 23.6234,-90.5 23.6234,-90.5 23.6234,-84.5 29.6234,-78.5 35.6234,-78.5"/>
<text text-anchor="middle" x="172" y="-104" font-family="Courier,monospace" font-weight="bold" font-size="9.00">rast_3nm_file</text>
<polyline fill="none" stroke="black" points="23.6234,-97.3 320.377,-97.3 "/>
<text text-anchor="start" x="31.6234" y="-85.2" font-family="Courier,monospace" font-weight="bold" font-size="9.00">prep/lsp/vHS/spatial/hs_offshore_3nm_raster_500m.tif</text>
</g>
<!-- read_in_buffer_shapfiles_if_rasters_not&#45;&gt;rast_3nm_file -->
<g id="edge13" class="edge"><title>read_in_buffer_shapfiles_if_rasters_not&#45;&gt;rast_3nm_file</title>
<path fill="none" stroke="black" d="M318.772,-152.522C292.02,-142.639 258.118,-130.115 229.638,-119.593"/>
<polygon fill="black" stroke="black" points="230.798,-116.291 220.205,-116.108 228.373,-122.857 230.798,-116.291"/>
</g>
<!-- rast_1km_file -->
<g id="node13" class="node"><title>rast_1km_file</title>
<path fill="#ffe4b5" stroke="black" d="M350.022,-78.5C350.022,-78.5 611.978,-78.5 611.978,-78.5 617.978,-78.5 623.978,-84.5 623.978,-90.5 623.978,-90.5 623.978,-104.1 623.978,-104.1 623.978,-110.1 617.978,-116.1 611.978,-116.1 611.978,-116.1 350.022,-116.1 350.022,-116.1 344.022,-116.1 338.022,-110.1 338.022,-104.1 338.022,-104.1 338.022,-90.5 338.022,-90.5 338.022,-84.5 344.022,-78.5 350.022,-78.5"/>
<text text-anchor="middle" x="481" y="-104" font-family="Courier,monospace" font-weight="bold" font-size="9.00">rast_1km_file</text>
<polyline fill="none" stroke="black" points="338.022,-97.3 623.978,-97.3 "/>
<text text-anchor="start" x="346.022" y="-85.2" font-family="Courier,monospace" font-weight="bold" font-size="9.00">prep/lsp/vHS/spatial/hs_inland_1km_raster_500m.tif</text>
</g>
<!-- read_in_buffer_shapfiles_if_rasters_not&#45;&gt;rast_1km_file -->
<g id="edge14" class="edge"><title>read_in_buffer_shapfiles_if_rasters_not&#45;&gt;rast_1km_file</title>
<path fill="none" stroke="black" d="M392.785,-152.522C407.828,-143.275 426.634,-131.716 443.013,-121.649"/>
<polygon fill="black" stroke="black" points="445.136,-124.452 451.823,-116.234 441.471,-118.488 445.136,-124.452"/>
</g>
<!-- setup_R -->
<g id="node4" class="node"><title>setup_R</title>
<path fill="#ffe4b5" stroke="black" d="M318,-518.3C318,-518.3 348,-518.3 348,-518.3 354,-518.3 360,-524.3 360,-530.3 360,-530.3 360,-543.9 360,-543.9 360,-549.9 354,-555.9 348,-555.9 348,-555.9 318,-555.9 318,-555.9 312,-555.9 306,-549.9 306,-543.9 306,-543.9 306,-530.3 306,-530.3 306,-524.3 312,-518.3 318,-518.3"/>
<text text-anchor="middle" x="332.897" y="-543.8" font-family="Courier,monospace" font-weight="bold" font-size="9.00">setup_R</text>
<polyline fill="none" stroke="black" points="306,-537.1 359.794,-537.1 "/>
<text text-anchor="middle" x="332.897" y="-525" font-family="Courier,monospace" font-weight="bold" font-size="9.00"> </text>
</g>
<!-- setup_R&#45;&gt;set_up_configuration_and_start_provenance_tracking -->
<g id="edge1" class="edge"><title>setup_R&#45;&gt;set_up_configuration_and_start_provenance_tracking</title>
<path fill="none" stroke="black" d="M310.037,-518.108C298.375,-508.971 284.071,-497.763 271.593,-487.987"/>
<polygon fill="black" stroke="black" points="273.733,-485.217 263.703,-481.805 269.416,-490.727 273.733,-485.217"/>
</g>
<!-- rast_base -->
<g id="node5" class="node"><title>rast_base</title>
<path fill="#ffe4b5" stroke="black" d="M269.52,-371.7C269.52,-371.7 504.48,-371.7 504.48,-371.7 510.48,-371.7 516.48,-377.7 516.48,-383.7 516.48,-383.7 516.48,-397.3 516.48,-397.3 516.48,-403.3 510.48,-409.3 504.48,-409.3 504.48,-409.3 269.52,-409.3 269.52,-409.3 263.52,-409.3 257.52,-403.3 257.52,-397.3 257.52,-397.3 257.52,-383.7 257.52,-383.7 257.52,-377.7 263.52,-371.7 269.52,-371.7"/>
<text text-anchor="middle" x="387" y="-397.2" font-family="Courier,monospace" font-weight="bold" font-size="9.00">rast_base</text>
<polyline fill="none" stroke="black" points="257.52,-390.5 516.48,-390.5 "/>
<text text-anchor="start" x="265.52" y="-378.4" font-family="Courier,monospace" font-weight="bold" font-size="9.00">prep/spatial/raster/ohibc_rgn_raster_500m.tif</text>
</g>
<!-- rast_base&#45;&gt;create_presence_of_buffer_rasters -->
<g id="edge4" class="edge"><title>rast_base&#45;&gt;create_presence_of_buffer_rasters</title>
<path fill="none" stroke="black" d="M381.196,-371.508C378.605,-363.475 375.497,-353.842 372.641,-344.988"/>
<polygon fill="black" stroke="black" points="375.965,-343.891 369.564,-335.448 369.303,-346.04 375.965,-343.891"/>
</g>
<!-- poly_3nm_file -->
<g id="node6" class="node"><title>poly_3nm_file</title>
<path fill="#ffe4b5" stroke="black" d="M445.906,-225.1C445.906,-225.1 508.094,-225.1 508.094,-225.1 514.094,-225.1 520.094,-231.1 520.094,-237.1 520.094,-237.1 520.094,-250.7 520.094,-250.7 520.094,-256.7 514.094,-262.7 508.094,-262.7 508.094,-262.7 445.906,-262.7 445.906,-262.7 439.906,-262.7 433.906,-256.7 433.906,-250.7 433.906,-250.7 433.906,-237.1 433.906,-237.1 433.906,-231.1 439.906,-225.1 445.906,-225.1"/>
<text text-anchor="middle" x="477" y="-250.6" font-family="Courier,monospace" font-weight="bold" font-size="9.00">poly_3nm_file</text>
<polyline fill="none" stroke="black" points="433.906,-243.9 520.094,-243.9 "/>
<text text-anchor="middle" x="477" y="-231.8" font-family="Courier,monospace" font-weight="bold" font-size="9.00"> </text>
</g>
<!-- poly_3nm_file&#45;&gt;read_in_buffer_shapfiles_if_rasters_not -->
<g id="edge7" class="edge"><title>poly_3nm_file&#45;&gt;read_in_buffer_shapfiles_if_rasters_not</title>
<path fill="none" stroke="black" d="M449.027,-225.092C434.266,-215.695 416.006,-204.07 400.282,-194.061"/>
<polygon fill="black" stroke="black" points="402.161,-191.108 391.846,-188.69 398.402,-197.013 402.161,-191.108"/>
</g>
<!-- poly_1km_file -->
<g id="node7" class="node"><title>poly_1km_file</title>
<path fill="#ffe4b5" stroke="black" d="M549.906,-225.1C549.906,-225.1 612.094,-225.1 612.094,-225.1 618.094,-225.1 624.094,-231.1 624.094,-237.1 624.094,-237.1 624.094,-250.7 624.094,-250.7 624.094,-256.7 618.094,-262.7 612.094,-262.7 612.094,-262.7 549.906,-262.7 549.906,-262.7 543.906,-262.7 537.906,-256.7 537.906,-250.7 537.906,-250.7 537.906,-237.1 537.906,-237.1 537.906,-231.1 543.906,-225.1 549.906,-225.1"/>
<text text-anchor="middle" x="581" y="-250.6" font-family="Courier,monospace" font-weight="bold" font-size="9.00">poly_1km_file</text>
<polyline fill="none" stroke="black" points="537.906,-243.9 624.094,-243.9 "/>
<text text-anchor="middle" x="581" y="-231.8" font-family="Courier,monospace" font-weight="bold" font-size="9.00"> </text>
</g>
<!-- poly_1km_file&#45;&gt;read_in_buffer_shapfiles_if_rasters_not -->
<g id="edge8" class="edge"><title>poly_1km_file&#45;&gt;read_in_buffer_shapfiles_if_rasters_not</title>
<path fill="none" stroke="black" d="M537.899,-227.636C534.891,-226.6 531.902,-225.579 529,-224.6 495.999,-213.463 459.102,-201.496 428.675,-191.756"/>
<polygon fill="black" stroke="black" points="429.627,-188.386 419.036,-188.676 427.496,-195.054 429.627,-188.386"/>
</g>
<!-- dir_spatial&#45;&gt;read_in_buffer_shapfiles_if_rasters_not -->
<g id="edge2" class="edge"><title>dir_spatial&#45;&gt;read_in_buffer_shapfiles_if_rasters_not</title>
<path fill="none" stroke="black" d="M166.231,-299.045C165.129,-278.711 166.582,-245.017 185,-224.6 197.52,-210.722 213.469,-200.402 230.681,-192.743"/>
<polygon fill="black" stroke="black" points="232.447,-195.801 240.36,-188.756 229.781,-189.329 232.447,-195.801"/>
</g>
<!-- dir_goal&#45;&gt;create_presence_of_buffer_rasters -->
<g id="edge3" class="edge"><title>dir_goal&#45;&gt;create_presence_of_buffer_rasters</title>
<path fill="none" stroke="black" d="M240.071,-375.598C243.076,-374.097 246.097,-372.606 249,-371.2 271.133,-360.479 295.882,-349.008 316.734,-339.488"/>
<polygon fill="black" stroke="black" points="318.367,-342.591 326.018,-335.262 315.466,-336.22 318.367,-342.591"/>
</g>
<!-- rast_3nm_file_handle&#45;&gt;read_in_buffer_shapfiles_if_rasters_not -->
<g id="edge5" class="edge"><title>rast_3nm_file_handle&#45;&gt;read_in_buffer_shapfiles_if_rasters_not</title>
<path fill="none" stroke="black" d="M365,-225.64C365,-217.583 365,-207.8 365,-198.784"/>
<polygon fill="black" stroke="black" points="368.5,-198.701 365,-188.701 361.5,-198.701 368.5,-198.701"/>
</g>
<!-- rast_1km_file_handle&#45;&gt;read_in_buffer_shapfiles_if_rasters_not -->
<g id="edge6" class="edge"><title>rast_1km_file_handle&#45;&gt;read_in_buffer_shapfiles_if_rasters_not</title>
<path fill="none" stroke="black" d="M273.743,-225.822C289.803,-216.279 310.009,-204.274 327.323,-193.987"/>
<polygon fill="black" stroke="black" points="329.266,-196.903 336.076,-188.786 325.691,-190.885 329.266,-196.903"/>
</g>
<!-- rast_3nm_file_outflow -->
<g id="node19" class="node"><title>rast_3nm_file_outflow</title>
<ellipse fill="none" stroke="black" cx="310" cy="-31" rx="7" ry="7"/>
</g>
<!-- rast_3nm_file&#45;&gt;rast_3nm_file_outflow -->
<g id="edge20" class="edge"><title>rast_3nm_file&#45;&gt;rast_3nm_file_outflow</title>
<path fill="none" stroke="black" d="M210.441,-78.3889C238.293,-65.4114 274.47,-48.5549 294.657,-39.1491"/>
<polygon fill="black" stroke="black" points="296.264,-42.2615 303.85,-34.8655 293.308,-35.9165 296.264,-42.2615"/>
</g>
<!-- rast_1km_file_outflow -->
<g id="node18" class="node"><title>rast_1km_file_outflow</title>
<ellipse fill="none" stroke="black" cx="342" cy="-31" rx="7" ry="7"/>
</g>
<!-- rast_1km_file&#45;&gt;rast_1km_file_outflow -->
<g id="edge19" class="edge"><title>rast_1km_file&#45;&gt;rast_1km_file_outflow</title>
<path fill="none" stroke="black" d="M442.281,-78.3889C414.227,-65.4114 377.787,-48.5549 357.454,-39.1491"/>
<polygon fill="black" stroke="black" points="358.74,-35.8874 348.194,-34.8655 355.801,-42.2406 358.74,-35.8874"/>
</g>
<!-- setup_R_inflow -->
<g id="node14" class="node"><title>setup_R_inflow</title>
<ellipse fill="none" stroke="black" cx="471" cy="-603.4" rx="7" ry="7"/>
</g>
<!-- setup_R_inflow&#45;&gt;setup_R -->
<g id="edge15" class="edge"><title>setup_R_inflow&#45;&gt;setup_R</title>
<path fill="none" stroke="black" d="M465.07,-599.637C448.824,-592.067 402.6,-570.529 369.42,-555.07"/>
<polygon fill="black" stroke="black" points="370.56,-551.74 360.018,-550.689 367.604,-558.085 370.56,-551.74"/>
</g>
<!-- rast_base_inflow -->
<g id="node15" class="node"><title>rast_base_inflow</title>
<ellipse fill="none" stroke="black" cx="503" cy="-603.4" rx="7" ry="7"/>
</g>
<!-- rast_base_inflow&#45;&gt;rast_base -->
<g id="edge16" class="edge"><title>rast_base_inflow&#45;&gt;rast_base</title>
<path fill="none" stroke="black" d="M503.238,-596.382C503.82,-574.222 503.238,-495.862 469,-445.8 460.464,-433.318 448.02,-422.974 435.394,-414.782"/>
<polygon fill="black" stroke="black" points="437.028,-411.679 426.669,-409.455 433.38,-417.653 437.028,-411.679"/>
</g>
<!-- poly_3nm_file_inflow -->
<g id="node16" class="node"><title>poly_3nm_file_inflow</title>
<ellipse fill="none" stroke="black" cx="535" cy="-603.4" rx="7" ry="7"/>
</g>
<!-- poly_3nm_file_inflow&#45;&gt;poly_3nm_file -->
<g id="edge17" class="edge"><title>poly_3nm_file_inflow&#45;&gt;poly_3nm_file</title>
<path fill="none" stroke="black" d="M535.676,-596.374C537.77,-577.187 544,-515.792 544,-464.8 544,-464.8 544,-464.8 544,-389.5 544,-347.973 538.613,-336.322 520,-299.2 515.017,-289.262 508.025,-279.42 501.125,-270.901"/>
<polygon fill="black" stroke="black" points="503.731,-268.562 494.606,-263.178 498.382,-273.077 503.731,-268.562"/>
</g>
<!-- poly_1km_file_inflow -->
<g id="node17" class="node"><title>poly_1km_file_inflow</title>
<ellipse fill="none" stroke="black" cx="567" cy="-603.4" rx="7" ry="7"/>
</g>
<!-- poly_1km_file_inflow&#45;&gt;poly_1km_file -->
<g id="edge18" class="edge"><title>poly_1km_file_inflow&#45;&gt;poly_1km_file</title>
<path fill="none" stroke="black" d="M568.127,-596.39C571.616,-577.252 582,-515.985 582,-464.8 582,-464.8 582,-464.8 582,-389.5 582,-348.985 581.603,-302.087 581.309,-272.954"/>
<polygon fill="black" stroke="black" points="584.806,-272.672 581.202,-262.709 577.807,-272.744 584.806,-272.672"/>
</g>
</g>
</svg>
