<?xml version="1.0" encoding="UTF-8" standalone="no"?>
<!DOCTYPE svg PUBLIC "-//W3C//DTD SVG 1.1//EN"
 "http://www.w3.org/Graphics/SVG/1.1/DTD/svg11.dtd">
<!-- Generated by graphviz version 2.38.0 (20140413.2041)
 -->
<!-- Title: Workflow Pages: 1 -->
<svg width="916pt" height="691pt"
 viewBox="0.00 0.00 916.00 690.80" xmlns="http://www.w3.org/2000/svg" xmlns:xlink="http://www.w3.org/1999/xlink">
<g id="graph0" class="graph" transform="scale(1 1) rotate(0) translate(4 686.8)">
<title>Workflow</title>
<polygon fill="white" stroke="none" points="-4,4 -4,-686.8 912,-686.8 912,4 -4,4"/>
<text text-anchor="middle" x="454" y="-662.6" font-family="Courier,monospace" font-size="18.00">summarize_zonal_stats</text>
<g id="clust1" class="cluster"><title>cluster_workflow_box_outer</title>
<polygon fill="none" stroke="black" stroke-width="2" points="8,-62 8,-591.2 900,-591.2 900,-62 8,-62"/>
</g>
<g id="clust2" class="cluster"><title>cluster_workflow_box_inner</title>
<polygon fill="none" stroke="white" stroke-width="2" points="16,-70 16,-583.2 892,-583.2 892,-70 16,-70"/>
</g>
<g id="clust3" class="cluster"><title>cluster_input_ports_group_outer</title>
<polygon fill="none" stroke="white" points="436,-599.2 436,-645.2 578,-645.2 578,-599.2 436,-599.2"/>
</g>
<g id="clust4" class="cluster"><title>cluster_input_ports_group_inner</title>
<polygon fill="none" stroke="white" points="444,-607.2 444,-637.2 570,-637.2 570,-607.2 444,-607.2"/>
</g>
<g id="clust5" class="cluster"><title>cluster_output_ports_group_outer</title>
<polygon fill="none" stroke="white" points="394,-8 394,-54 504,-54 504,-8 394,-8"/>
</g>
<g id="clust6" class="cluster"><title>cluster_output_ports_group_inner</title>
<polygon fill="none" stroke="white" points="402,-16 402,-46 496,-46 496,-16 402,-16"/>
</g>
<!-- set_up_configuration_and_start_provenance_tracking -->
<g id="node1" class="node"><title>set_up_configuration_and_start_provenance_tracking</title>
<polygon fill="#ccffcc" stroke="black" points="459.93,-503.2 24.07,-503.2 24.07,-467.2 459.93,-467.2 459.93,-503.2"/>
<text text-anchor="middle" x="242" y="-481" font-family="Courier,monospace" font-size="14.00">set_up_configuration_and_start_provenance_tracking</text>
</g>
<!-- dir_goal -->
<g id="node15" class="node"><title>dir_goal</title>
<path fill="#fcfcfc" stroke="black" d="M77.7871,-423.9C77.7871,-423.9 36.2129,-423.9 36.2129,-423.9 30.2129,-423.9 24.2129,-417.9 24.2129,-411.9 24.2129,-411.9 24.2129,-399.9 24.2129,-399.9 24.2129,-393.9 30.2129,-387.9 36.2129,-387.9 36.2129,-387.9 77.7871,-387.9 77.7871,-387.9 83.7871,-387.9 89.7871,-393.9 89.7871,-399.9 89.7871,-399.9 89.7871,-411.9 89.7871,-411.9 89.7871,-417.9 83.7871,-423.9 77.7871,-423.9"/>
<text text-anchor="middle" x="57" y="-401.7" font-family="Helvetica,sans-Serif" font-size="14.00">dir_goal</text>
</g>
<!-- set_up_configuration_and_start_provenance_tracking&#45;&gt;dir_goal -->
<g id="edge1" class="edge"><title>set_up_configuration_and_start_provenance_tracking&#45;&gt;dir_goal</title>
<path fill="none" stroke="black" d="M189.501,-467.14C162.076,-457.632 128.229,-444.95 99,-431.2 97.4278,-430.46 95.8363,-429.682 94.2389,-428.876"/>
<polygon fill="black" stroke="black" points="95.5913,-425.632 85.1171,-424.037 92.3108,-431.816 95.5913,-425.632"/>
</g>
<!-- read_in_zonal_stats_dataframes -->
<g id="node2" class="node"><title>read_in_zonal_stats_dataframes</title>
<polygon fill="#ccffcc" stroke="black" points="514.958,-344.6 247.042,-344.6 247.042,-308.6 514.958,-308.6 514.958,-344.6"/>
<text text-anchor="middle" x="381" y="-322.4" font-family="Courier,monospace" font-size="14.00">read_in_zonal_stats_dataframes</text>
</g>
<!-- stats_1km -->
<g id="node12" class="node"><title>stats_1km</title>
<path fill="#ffffcc" stroke="black" d="M522.79,-272.6C522.79,-272.6 467.21,-272.6 467.21,-272.6 461.21,-272.6 455.21,-266.6 455.21,-260.6 455.21,-260.6 455.21,-248.6 455.21,-248.6 455.21,-242.6 461.21,-236.6 467.21,-236.6 467.21,-236.6 522.79,-236.6 522.79,-236.6 528.79,-236.6 534.79,-242.6 534.79,-248.6 534.79,-248.6 534.79,-260.6 534.79,-260.6 534.79,-266.6 528.79,-272.6 522.79,-272.6"/>
<text text-anchor="middle" x="495" y="-250.4" font-family="Helvetica,sans-Serif" font-size="14.00">stats_1km</text>
</g>
<!-- read_in_zonal_stats_dataframes&#45;&gt;stats_1km -->
<g id="edge4" class="edge"><title>read_in_zonal_stats_dataframes&#45;&gt;stats_1km</title>
<path fill="none" stroke="black" d="M408.888,-308.476C423.793,-299.324 442.329,-287.942 458.382,-278.085"/>
<polygon fill="black" stroke="black" points="460.315,-281.005 467.005,-272.79 456.652,-275.04 460.315,-281.005"/>
</g>
<!-- stats_3nm -->
<g id="node13" class="node"><title>stats_3nm</title>
<path fill="#ffffcc" stroke="black" d="M336.073,-272.6C336.073,-272.6 279.927,-272.6 279.927,-272.6 273.927,-272.6 267.927,-266.6 267.927,-260.6 267.927,-260.6 267.927,-248.6 267.927,-248.6 267.927,-242.6 273.927,-236.6 279.927,-236.6 279.927,-236.6 336.073,-236.6 336.073,-236.6 342.073,-236.6 348.073,-242.6 348.073,-248.6 348.073,-248.6 348.073,-260.6 348.073,-260.6 348.073,-266.6 342.073,-272.6 336.073,-272.6"/>
<text text-anchor="middle" x="308" y="-250.4" font-family="Helvetica,sans-Serif" font-size="14.00">stats_3nm</text>
</g>
<!-- read_in_zonal_stats_dataframes&#45;&gt;stats_3nm -->
<g id="edge3" class="edge"><title>read_in_zonal_stats_dataframes&#45;&gt;stats_3nm</title>
<path fill="none" stroke="black" d="M362.955,-308.297C353.938,-299.65 342.882,-289.049 333.057,-279.627"/>
<polygon fill="black" stroke="black" points="335.478,-277.099 325.837,-272.704 330.633,-282.152 335.478,-277.099"/>
</g>
<!-- stats_ws -->
<g id="node14" class="node"><title>stats_ws</title>
<path fill="#ffffcc" stroke="black" d="M425.454,-272.6C425.454,-272.6 378.546,-272.6 378.546,-272.6 372.546,-272.6 366.546,-266.6 366.546,-260.6 366.546,-260.6 366.546,-248.6 366.546,-248.6 366.546,-242.6 372.546,-236.6 378.546,-236.6 378.546,-236.6 425.454,-236.6 425.454,-236.6 431.454,-236.6 437.454,-242.6 437.454,-248.6 437.454,-248.6 437.454,-260.6 437.454,-260.6 437.454,-266.6 431.454,-272.6 425.454,-272.6"/>
<text text-anchor="middle" x="402" y="-250.4" font-family="Helvetica,sans-Serif" font-size="14.00">stats_ws</text>
</g>
<!-- read_in_zonal_stats_dataframes&#45;&gt;stats_ws -->
<g id="edge5" class="edge"><title>read_in_zonal_stats_dataframes&#45;&gt;stats_ws</title>
<path fill="none" stroke="black" d="M386.191,-308.297C388.531,-300.498 391.347,-291.109 393.951,-282.429"/>
<polygon fill="black" stroke="black" points="397.348,-283.288 396.869,-272.704 390.643,-281.277 397.348,-283.288"/>
</g>
<!-- set_goals_target_threshhold -->
<g id="node3" class="node"><title>set_goals_target_threshhold</title>
<polygon fill="#ccffcc" stroke="black" points="775.262,-344.6 532.738,-344.6 532.738,-308.6 775.262,-308.6 775.262,-344.6"/>
<text text-anchor="middle" x="654" y="-322.4" font-family="Courier,monospace" font-size="14.00">set_goals_target_threshhold</text>
</g>
<!-- lsp_thresh -->
<g id="node16" class="node"><title>lsp_thresh</title>
<path fill="#fcfcfc" stroke="black" d="M641.072,-272.6C641.072,-272.6 584.928,-272.6 584.928,-272.6 578.928,-272.6 572.928,-266.6 572.928,-260.6 572.928,-260.6 572.928,-248.6 572.928,-248.6 572.928,-242.6 578.928,-236.6 584.928,-236.6 584.928,-236.6 641.072,-236.6 641.072,-236.6 647.072,-236.6 653.072,-242.6 653.072,-248.6 653.072,-248.6 653.072,-260.6 653.072,-260.6 653.072,-266.6 647.072,-272.6 641.072,-272.6"/>
<text text-anchor="middle" x="613" y="-250.4" font-family="Helvetica,sans-Serif" font-size="14.00">lsp_thresh</text>
</g>
<!-- set_goals_target_threshhold&#45;&gt;lsp_thresh -->
<g id="edge10" class="edge"><title>set_goals_target_threshhold&#45;&gt;lsp_thresh</title>
<path fill="none" stroke="black" d="M643.865,-308.297C639.148,-300.244 633.438,-290.494 628.218,-281.582"/>
<polygon fill="black" stroke="black" points="631.092,-279.564 623.018,-272.704 625.052,-283.102 631.092,-279.564"/>
</g>
<!-- compute_total_cells_and_cumulaative_total_of_cells_per_region -->
<g id="node4" class="node"><title>compute_total_cells_and_cumulaative_total_of_cells_per_region</title>
<polygon fill="#ccffcc" stroke="black" points="713.315,-200.6 184.685,-200.6 184.685,-164.6 713.315,-164.6 713.315,-200.6"/>
<text text-anchor="middle" x="449" y="-178.4" font-family="Courier,monospace" font-size="14.00">compute_total_cells_and_cumulaative_total_of_cells_per_region</text>
</g>
<!-- prot_ws -->
<g id="node5" class="node"><title>prot_ws</title>
<path fill="#ffffcc" stroke="black" d="M43.3002,-78.5C43.3002,-78.5 282.7,-78.5 282.7,-78.5 288.7,-78.5 294.7,-84.5 294.7,-90.5 294.7,-90.5 294.7,-116.1 294.7,-116.1 294.7,-122.1 288.7,-128.1 282.7,-128.1 282.7,-128.1 43.3002,-128.1 43.3002,-128.1 37.3002,-128.1 31.3002,-122.1 31.3002,-116.1 31.3002,-116.1 31.3002,-90.5 31.3002,-90.5 31.3002,-84.5 37.3002,-78.5 43.3002,-78.5"/>
<text text-anchor="middle" x="163" y="-111.5" font-family="Helvetica,sans-Serif" font-size="14.00">prot_ws</text>
<polyline fill="none" stroke="black" points="31.3002,-103.3 294.7,-103.3 "/>
<text text-anchor="middle" x="163" y="-86.7" font-family="Helvetica,sans-Serif" font-size="14.00">file:{dir_goal}/int/area_protected_ws.csv</text>
</g>
<!-- compute_total_cells_and_cumulaative_total_of_cells_per_region&#45;&gt;prot_ws -->
<g id="edge11" class="edge"><title>compute_total_cells_and_cumulaative_total_of_cells_per_region&#45;&gt;prot_ws</title>
<path fill="none" stroke="black" d="M385.882,-164.54C349.256,-154.641 302.336,-141.96 261.002,-130.788"/>
<polygon fill="black" stroke="black" points="261.743,-127.363 251.176,-128.132 259.917,-134.12 261.743,-127.363"/>
</g>
<!-- prot_3nm -->
<g id="node6" class="node"><title>prot_3nm</title>
<path fill="#ffffcc" stroke="black" d="M324.241,-78.5C324.241,-78.5 573.759,-78.5 573.759,-78.5 579.759,-78.5 585.759,-84.5 585.759,-90.5 585.759,-90.5 585.759,-116.1 585.759,-116.1 585.759,-122.1 579.759,-128.1 573.759,-128.1 573.759,-128.1 324.241,-128.1 324.241,-128.1 318.241,-128.1 312.241,-122.1 312.241,-116.1 312.241,-116.1 312.241,-90.5 312.241,-90.5 312.241,-84.5 318.241,-78.5 324.241,-78.5"/>
<text text-anchor="middle" x="449" y="-111.5" font-family="Helvetica,sans-Serif" font-size="14.00">prot_3nm</text>
<polyline fill="none" stroke="black" points="312.241,-103.3 585.759,-103.3 "/>
<text text-anchor="middle" x="449" y="-86.7" font-family="Helvetica,sans-Serif" font-size="14.00">file:{dir_goal}/int/area_protected_3nm.csv</text>
</g>
<!-- compute_total_cells_and_cumulaative_total_of_cells_per_region&#45;&gt;prot_3nm -->
<g id="edge12" class="edge"><title>compute_total_cells_and_cumulaative_total_of_cells_per_region&#45;&gt;prot_3nm</title>
<path fill="none" stroke="black" d="M449,-164.445C449,-156.689 449,-147.239 449,-138.15"/>
<polygon fill="black" stroke="black" points="452.5,-138.15 449,-128.15 445.5,-138.15 452.5,-138.15"/>
</g>
<!-- prot_1km -->
<g id="node7" class="node"><title>prot_1km</title>
<path fill="#ffffcc" stroke="black" d="M615.632,-78.5C615.632,-78.5 864.368,-78.5 864.368,-78.5 870.368,-78.5 876.368,-84.5 876.368,-90.5 876.368,-90.5 876.368,-116.1 876.368,-116.1 876.368,-122.1 870.368,-128.1 864.368,-128.1 864.368,-128.1 615.632,-128.1 615.632,-128.1 609.632,-128.1 603.632,-122.1 603.632,-116.1 603.632,-116.1 603.632,-90.5 603.632,-90.5 603.632,-84.5 609.632,-78.5 615.632,-78.5"/>
<text text-anchor="middle" x="740" y="-111.5" font-family="Helvetica,sans-Serif" font-size="14.00">prot_1km</text>
<polyline fill="none" stroke="black" points="603.632,-103.3 876.368,-103.3 "/>
<text text-anchor="middle" x="740" y="-86.7" font-family="Helvetica,sans-Serif" font-size="14.00">file:{dir_goal}/int/area_protected_1km.csv</text>
</g>
<!-- compute_total_cells_and_cumulaative_total_of_cells_per_region&#45;&gt;prot_1km -->
<g id="edge13" class="edge"><title>compute_total_cells_and_cumulaative_total_of_cells_per_region&#45;&gt;prot_1km</title>
<path fill="none" stroke="black" d="M513.221,-164.54C550.566,-154.62 598.429,-141.906 640.551,-130.717"/>
<polygon fill="black" stroke="black" points="641.516,-134.082 650.282,-128.132 639.719,-127.317 641.516,-134.082"/>
</g>
<!-- prot_ws_output_port -->
<g id="node21" class="node"><title>prot_ws_output_port</title>
<ellipse fill="#ffffff" stroke="black" cx="417" cy="-31" rx="7" ry="7"/>
</g>
<!-- prot_ws&#45;&gt;prot_ws_output_port -->
<g id="edge22" class="edge"><title>prot_ws&#45;&gt;prot_ws_output_port</title>
<path fill="none" stroke="black" d="M244.713,-78.4368C263.816,-72.953 284.102,-67.2057 303,-62 337.612,-52.4656 378.318,-41.9112 400.514,-36.2117"/>
<polygon fill="black" stroke="black" points="401.485,-39.5762 410.304,-33.7049 399.748,-32.795 401.485,-39.5762"/>
</g>
<!-- prot_3nm_output_port -->
<g id="node22" class="node"><title>prot_3nm_output_port</title>
<ellipse fill="#ffffff" stroke="black" cx="449" cy="-31" rx="7" ry="7"/>
</g>
<!-- prot_3nm&#45;&gt;prot_3nm_output_port -->
<g id="edge23" class="edge"><title>prot_3nm&#45;&gt;prot_3nm_output_port</title>
<path fill="none" stroke="black" d="M449,-78.4996C449,-68.5289 449,-57.1933 449,-48.2105"/>
<polygon fill="black" stroke="black" points="452.5,-48.0698 449,-38.0698 445.5,-48.0699 452.5,-48.0698"/>
</g>
<!-- prot_1km_output_port -->
<g id="node23" class="node"><title>prot_1km_output_port</title>
<ellipse fill="#ffffff" stroke="black" cx="481" cy="-31" rx="7" ry="7"/>
</g>
<!-- prot_1km&#45;&gt;prot_1km_output_port -->
<g id="edge24" class="edge"><title>prot_1km&#45;&gt;prot_1km_output_port</title>
<path fill="none" stroke="black" d="M654.947,-78.4503C635.276,-72.993 614.42,-67.2538 595,-62 560.345,-52.6247 519.655,-42.0114 497.473,-36.259"/>
<polygon fill="black" stroke="black" points="498.248,-32.8445 487.69,-33.7263 496.494,-39.621 498.248,-32.8445"/>
</g>
<!-- setup_R -->
<g id="node8" class="node"><title>setup_R</title>
<path fill="#ffffcc" stroke="black" d="M356.128,-575.2C356.128,-575.2 311.872,-575.2 311.872,-575.2 305.872,-575.2 299.872,-569.2 299.872,-563.2 299.872,-563.2 299.872,-551.2 299.872,-551.2 299.872,-545.2 305.872,-539.2 311.872,-539.2 311.872,-539.2 356.128,-539.2 356.128,-539.2 362.128,-539.2 368.128,-545.2 368.128,-551.2 368.128,-551.2 368.128,-563.2 368.128,-563.2 368.128,-569.2 362.128,-575.2 356.128,-575.2"/>
<text text-anchor="middle" x="334" y="-553" font-family="Helvetica,sans-Serif" font-size="14.00">setup_R</text>
</g>
<!-- setup_R&#45;&gt;set_up_configuration_and_start_provenance_tracking -->
<g id="edge2" class="edge"><title>setup_R&#45;&gt;set_up_configuration_and_start_provenance_tracking</title>
<path fill="none" stroke="black" d="M311.258,-538.897C299.56,-529.996 285.139,-519.023 272.49,-509.399"/>
<polygon fill="black" stroke="black" points="274.558,-506.574 264.48,-503.304 270.319,-512.145 274.558,-506.574"/>
</g>
<!-- zonal_stats_3nm_file -->
<g id="node9" class="node"><title>zonal_stats_3nm_file</title>
<path fill="#ffffcc" stroke="black" d="M119.913,-381.1C119.913,-381.1 346.087,-381.1 346.087,-381.1 352.087,-381.1 358.087,-387.1 358.087,-393.1 358.087,-393.1 358.087,-418.7 358.087,-418.7 358.087,-424.7 352.087,-430.7 346.087,-430.7 346.087,-430.7 119.913,-430.7 119.913,-430.7 113.913,-430.7 107.913,-424.7 107.913,-418.7 107.913,-418.7 107.913,-393.1 107.913,-393.1 107.913,-387.1 113.913,-381.1 119.913,-381.1"/>
<text text-anchor="middle" x="233" y="-414.1" font-family="Helvetica,sans-Serif" font-size="14.00">zonal_stats_3nm_file</text>
<polyline fill="none" stroke="black" points="107.913,-405.9 358.087,-405.9 "/>
<text text-anchor="middle" x="233" y="-389.3" font-family="Helvetica,sans-Serif" font-size="14.00">file:{dir_goal}/int/zonal_stats_3nm.csv</text>
</g>
<!-- zonal_stats_3nm_file&#45;&gt;read_in_zonal_stats_dataframes -->
<g id="edge7" class="edge"><title>zonal_stats_3nm_file&#45;&gt;read_in_zonal_stats_dataframes</title>
<path fill="none" stroke="black" d="M278.613,-381.077C298.028,-370.936 320.516,-359.191 339.463,-349.295"/>
<polygon fill="black" stroke="black" points="341.207,-352.332 348.451,-344.6 337.966,-346.128 341.207,-352.332"/>
</g>
<!-- zonal_stats_1km_file -->
<g id="node10" class="node"><title>zonal_stats_1km_file</title>
<path fill="#ffffcc" stroke="black" d="M388.304,-381.1C388.304,-381.1 613.696,-381.1 613.696,-381.1 619.696,-381.1 625.696,-387.1 625.696,-393.1 625.696,-393.1 625.696,-418.7 625.696,-418.7 625.696,-424.7 619.696,-430.7 613.696,-430.7 613.696,-430.7 388.304,-430.7 388.304,-430.7 382.304,-430.7 376.304,-424.7 376.304,-418.7 376.304,-418.7 376.304,-393.1 376.304,-393.1 376.304,-387.1 382.304,-381.1 388.304,-381.1"/>
<text text-anchor="middle" x="501" y="-414.1" font-family="Helvetica,sans-Serif" font-size="14.00">zonal_stats_1km_file</text>
<polyline fill="none" stroke="black" points="376.304,-405.9 625.696,-405.9 "/>
<text text-anchor="middle" x="501" y="-389.3" font-family="Helvetica,sans-Serif" font-size="14.00">file:{dir_goal}/int/zonal_stats_1km.csv</text>
</g>
<!-- zonal_stats_1km_file&#45;&gt;read_in_zonal_stats_dataframes -->
<g id="edge8" class="edge"><title>zonal_stats_1km_file&#45;&gt;read_in_zonal_stats_dataframes</title>
<path fill="none" stroke="black" d="M464.017,-381.077C448.704,-371.213 431.034,-359.83 415.942,-350.108"/>
<polygon fill="black" stroke="black" points="417.694,-347.073 407.391,-344.6 413.903,-352.958 417.694,-347.073"/>
</g>
<!-- zonal_stats_ws_file -->
<g id="node11" class="node"><title>zonal_stats_ws_file</title>
<path fill="#ffffcc" stroke="black" d="M655.973,-381.1C655.973,-381.1 872.027,-381.1 872.027,-381.1 878.027,-381.1 884.027,-387.1 884.027,-393.1 884.027,-393.1 884.027,-418.7 884.027,-418.7 884.027,-424.7 878.027,-430.7 872.027,-430.7 872.027,-430.7 655.973,-430.7 655.973,-430.7 649.973,-430.7 643.973,-424.7 643.973,-418.7 643.973,-418.7 643.973,-393.1 643.973,-393.1 643.973,-387.1 649.973,-381.1 655.973,-381.1"/>
<text text-anchor="middle" x="764" y="-414.1" font-family="Helvetica,sans-Serif" font-size="14.00">zonal_stats_ws_file</text>
<polyline fill="none" stroke="black" points="643.973,-405.9 884.027,-405.9 "/>
<text text-anchor="middle" x="764" y="-389.3" font-family="Helvetica,sans-Serif" font-size="14.00">file:{dir_goal}/int/zonal_stats_ws.csv</text>
</g>
<!-- zonal_stats_ws_file&#45;&gt;read_in_zonal_stats_dataframes -->
<g id="edge9" class="edge"><title>zonal_stats_ws_file&#45;&gt;read_in_zonal_stats_dataframes</title>
<path fill="none" stroke="black" d="M645.962,-381.077C591.037,-369.991 526.608,-356.988 475.037,-346.579"/>
<polygon fill="black" stroke="black" points="475.727,-343.148 465.232,-344.6 474.342,-350.01 475.727,-343.148"/>
</g>
<!-- stats_1km&#45;&gt;compute_total_cells_and_cumulaative_total_of_cells_per_region -->
<g id="edge15" class="edge"><title>stats_1km&#45;&gt;compute_total_cells_and_cumulaative_total_of_cells_per_region</title>
<path fill="none" stroke="black" d="M483.629,-236.297C478.282,-228.159 471.796,-218.289 465.889,-209.301"/>
<polygon fill="black" stroke="black" points="468.657,-207.139 460.24,-200.704 462.807,-210.984 468.657,-207.139"/>
</g>
<!-- stats_3nm&#45;&gt;compute_total_cells_and_cumulaative_total_of_cells_per_region -->
<g id="edge16" class="edge"><title>stats_3nm&#45;&gt;compute_total_cells_and_cumulaative_total_of_cells_per_region</title>
<path fill="none" stroke="black" d="M342.492,-236.476C361.44,-227.069 385.132,-215.308 405.356,-205.267"/>
<polygon fill="black" stroke="black" points="406.974,-208.371 414.375,-200.79 403.862,-202.102 406.974,-208.371"/>
</g>
<!-- stats_ws&#45;&gt;compute_total_cells_and_cumulaative_total_of_cells_per_region -->
<g id="edge17" class="edge"><title>stats_ws&#45;&gt;compute_total_cells_and_cumulaative_total_of_cells_per_region</title>
<path fill="none" stroke="black" d="M413.618,-236.297C419.139,-228.074 425.847,-218.083 431.932,-209.021"/>
<polygon fill="black" stroke="black" points="434.847,-210.958 437.516,-200.704 429.035,-207.056 434.847,-210.958"/>
</g>
<!-- dir_goal&#45;&gt;read_in_zonal_stats_dataframes -->
<g id="edge6" class="edge"><title>dir_goal&#45;&gt;read_in_zonal_stats_dataframes</title>
<path fill="none" stroke="black" d="M83.45,-387.808C88.4704,-385.085 93.787,-382.533 99,-380.6 142.531,-364.456 191.744,-353.042 236.731,-345.053"/>
<polygon fill="black" stroke="black" points="237.605,-348.454 246.861,-343.299 236.41,-341.557 237.605,-348.454"/>
</g>
<!-- lsp_thresh&#45;&gt;compute_total_cells_and_cumulaative_total_of_cells_per_region -->
<g id="edge14" class="edge"><title>lsp_thresh&#45;&gt;compute_total_cells_and_cumulaative_total_of_cells_per_region</title>
<path fill="none" stroke="black" d="M572.881,-236.476C550.362,-226.864 522.082,-214.793 498.229,-204.613"/>
<polygon fill="black" stroke="black" points="499.56,-201.375 488.989,-200.668 496.812,-207.813 499.56,-201.375"/>
</g>
<!-- setup_R_input_port -->
<g id="node17" class="node"><title>setup_R_input_port</title>
<ellipse fill="#ffffff" stroke="black" cx="459" cy="-622.2" rx="7" ry="7"/>
</g>
<!-- setup_R_input_port&#45;&gt;setup_R -->
<g id="edge18" class="edge"><title>setup_R_input_port&#45;&gt;setup_R</title>
<path fill="none" stroke="black" d="M452.971,-618.161C439.329,-611.286 405.082,-594.025 376.817,-579.78"/>
<polygon fill="black" stroke="black" points="378.389,-576.653 367.883,-575.277 375.238,-582.903 378.389,-576.653"/>
</g>
<!-- zonal_stats_3nm_file_input_port -->
<g id="node18" class="node"><title>zonal_stats_3nm_file_input_port</title>
<ellipse fill="#ffffff" stroke="black" cx="491" cy="-622.2" rx="7" ry="7"/>
</g>
<!-- zonal_stats_3nm_file_input_port&#45;&gt;zonal_stats_3nm_file -->
<g id="edge19" class="edge"><title>zonal_stats_3nm_file_input_port&#45;&gt;zonal_stats_3nm_file</title>
<path fill="none" stroke="black" d="M492.229,-615.238C496.518,-592.627 508.499,-511.224 469,-467.2 460.792,-458.052 411.368,-444.776 359.855,-433.009"/>
<polygon fill="black" stroke="black" points="360.405,-429.545 349.88,-430.754 358.862,-436.373 360.405,-429.545"/>
</g>
<!-- zonal_stats_1km_file_input_port -->
<g id="node19" class="node"><title>zonal_stats_1km_file_input_port</title>
<ellipse fill="#ffffff" stroke="black" cx="523" cy="-622.2" rx="7" ry="7"/>
</g>
<!-- zonal_stats_1km_file_input_port&#45;&gt;zonal_stats_1km_file -->
<g id="edge20" class="edge"><title>zonal_stats_1km_file_input_port&#45;&gt;zonal_stats_1km_file</title>
<path fill="none" stroke="black" d="M522.365,-615.018C519.775,-589.786 509.887,-493.471 504.519,-441.175"/>
<polygon fill="black" stroke="black" points="507.98,-440.621 503.477,-431.031 501.017,-441.336 507.98,-440.621"/>
</g>
<!-- zonal_stats_ws_file_input_port -->
<g id="node20" class="node"><title>zonal_stats_ws_file_input_port</title>
<ellipse fill="#ffffff" stroke="black" cx="555" cy="-622.2" rx="7" ry="7"/>
</g>
<!-- zonal_stats_ws_file_input_port&#45;&gt;zonal_stats_ws_file -->
<g id="edge21" class="edge"><title>zonal_stats_ws_file_input_port&#45;&gt;zonal_stats_ws_file</title>
<path fill="none" stroke="black" d="M559.365,-616.724C581.435,-594.095 681.693,-491.294 733.22,-438.461"/>
<polygon fill="black" stroke="black" points="735.977,-440.646 740.453,-431.044 730.966,-435.759 735.977,-440.646"/>
</g>
</g>
</svg>
