<?xml version="1.0" encoding="UTF-8" standalone="no"?>
<!DOCTYPE svg PUBLIC "-//W3C//DTD SVG 1.1//EN"
 "http://www.w3.org/Graphics/SVG/1.1/DTD/svg11.dtd">
<!-- Generated by graphviz version 2.38.0 (20140413.2041)
 -->
<!-- Title: yw_data_view Pages: 1 -->
<svg width="584pt" height="518pt"
 viewBox="0.00 0.00 584.00 517.60" xmlns="http://www.w3.org/2000/svg" xmlns:xlink="http://www.w3.org/1999/xlink">
<g id="graph0" class="graph" transform="scale(1 1) rotate(0) translate(4 513.6)">
<title>yw_data_view</title>
<polygon fill="white" stroke="none" points="-4,4 -4,-513.6 580,-513.6 580,4 -4,4"/>
<text text-anchor="middle" x="288" y="-489.4" font-family="Courier,monospace" font-size="18.00">summarize_zonal_stats</text>
<g id="clust1" class="cluster"><title>cluster_workflow</title>
<polygon fill="none" stroke="black" stroke-width="2" points="8,-62 8,-418 568,-418 568,-62 8,-62"/>
</g>
<g id="clust2" class="cluster"><title>cluster_workflow_inner</title>
<polygon fill="none" stroke="white" stroke-width="2" points="16,-70 16,-410 560,-410 560,-70 16,-70"/>
</g>
<g id="clust3" class="cluster"><title>cluster_inflows</title>
<polygon fill="none" stroke="white" stroke-width="2" points="265,-426 265,-472 311,-472 311,-426 265,-426"/>
</g>
<g id="clust4" class="cluster"><title>cluster_inflows_inner</title>
<polygon fill="none" stroke="white" stroke-width="2" points="273,-434 273,-464 303,-464 303,-434 273,-434"/>
</g>
<g id="clust5" class="cluster"><title>cluster_outflows</title>
<polygon fill="none" stroke="white" stroke-width="2" points="233,-8 233,-54 343,-54 343,-8 233,-8"/>
</g>
<g id="clust6" class="cluster"><title>cluster_outflows_inner</title>
<polygon fill="none" stroke="white" stroke-width="2" points="241,-16 241,-46 335,-46 335,-16 241,-16"/>
</g>
<!-- compute_total_cells_and_cumulaative_total_of_cells_per_region -->
<g id="node1" class="node"><title>compute_total_cells_and_cumulaative_total_of_cells_per_region</title>
<polygon fill="#ccffcc" stroke="black" points="552.315,-186 23.6853,-186 23.6853,-150 552.315,-150 552.315,-186"/>
<text text-anchor="middle" x="288" y="-163.8" font-family="Courier,monospace" font-size="14.00">compute_total_cells_and_cumulaative_total_of_cells_per_region</text>
</g>
<!-- prot_ws -->
<g id="node7" class="node"><title>prot_ws</title>
<path fill="#ffffcc" stroke="black" d="M220.506,-114C220.506,-114 179.494,-114 179.494,-114 173.494,-114 167.494,-108 167.494,-102 167.494,-102 167.494,-90 167.494,-90 167.494,-84 173.494,-78 179.494,-78 179.494,-78 220.506,-78 220.506,-78 226.506,-78 232.506,-84 232.506,-90 232.506,-90 232.506,-102 232.506,-102 232.506,-108 226.506,-114 220.506,-114"/>
<text text-anchor="middle" x="200" y="-91.8" font-family="Helvetica,sans-Serif" font-size="14.00">prot_ws</text>
</g>
<!-- compute_total_cells_and_cumulaative_total_of_cells_per_region&#45;&gt;prot_ws -->
<g id="edge3" class="edge"><title>compute_total_cells_and_cumulaative_total_of_cells_per_region&#45;&gt;prot_ws</title>
<path fill="none" stroke="black" d="M266.247,-149.697C255.164,-140.881 241.526,-130.032 229.51,-120.474"/>
<polygon fill="black" stroke="black" points="231.507,-117.59 221.503,-114.104 227.15,-123.069 231.507,-117.59"/>
</g>
<!-- prot_3nm -->
<g id="node8" class="node"><title>prot_3nm</title>
<path fill="#ffffcc" stroke="black" d="M313.625,-114C313.625,-114 262.375,-114 262.375,-114 256.375,-114 250.375,-108 250.375,-102 250.375,-102 250.375,-90 250.375,-90 250.375,-84 256.375,-78 262.375,-78 262.375,-78 313.625,-78 313.625,-78 319.625,-78 325.625,-84 325.625,-90 325.625,-90 325.625,-102 325.625,-102 325.625,-108 319.625,-114 313.625,-114"/>
<text text-anchor="middle" x="288" y="-91.8" font-family="Helvetica,sans-Serif" font-size="14.00">prot_3nm</text>
</g>
<!-- compute_total_cells_and_cumulaative_total_of_cells_per_region&#45;&gt;prot_3nm -->
<g id="edge2" class="edge"><title>compute_total_cells_and_cumulaative_total_of_cells_per_region&#45;&gt;prot_3nm</title>
<path fill="none" stroke="black" d="M288,-149.697C288,-141.983 288,-132.712 288,-124.112"/>
<polygon fill="black" stroke="black" points="291.5,-124.104 288,-114.104 284.5,-124.104 291.5,-124.104"/>
</g>
<!-- prot_1km -->
<g id="node9" class="node"><title>prot_1km</title>
<path fill="#ffffcc" stroke="black" d="M406.343,-114C406.343,-114 355.657,-114 355.657,-114 349.657,-114 343.657,-108 343.657,-102 343.657,-102 343.657,-90 343.657,-90 343.657,-84 349.657,-78 355.657,-78 355.657,-78 406.343,-78 406.343,-78 412.343,-78 418.343,-84 418.343,-90 418.343,-90 418.343,-102 418.343,-102 418.343,-108 412.343,-114 406.343,-114"/>
<text text-anchor="middle" x="381" y="-91.8" font-family="Helvetica,sans-Serif" font-size="14.00">prot_1km</text>
</g>
<!-- compute_total_cells_and_cumulaative_total_of_cells_per_region&#45;&gt;prot_1km -->
<g id="edge1" class="edge"><title>compute_total_cells_and_cumulaative_total_of_cells_per_region&#45;&gt;prot_1km</title>
<path fill="none" stroke="black" d="M310.989,-149.697C322.814,-140.796 337.392,-129.823 350.179,-120.199"/>
<polygon fill="black" stroke="black" points="352.391,-122.915 358.276,-114.104 348.181,-117.322 352.391,-122.915"/>
</g>
<!-- read_in_zonal_stats_dataframes -->
<g id="node2" class="node"><title>read_in_zonal_stats_dataframes</title>
<polygon fill="#ccffcc" stroke="black" points="421.958,-330 154.042,-330 154.042,-294 421.958,-294 421.958,-330"/>
<text text-anchor="middle" x="288" y="-307.8" font-family="Courier,monospace" font-size="14.00">read_in_zonal_stats_dataframes</text>
</g>
<!-- stats_3nm -->
<g id="node4" class="node"><title>stats_3nm</title>
<path fill="#ffffcc" stroke="black" d="M218.073,-258C218.073,-258 161.927,-258 161.927,-258 155.927,-258 149.927,-252 149.927,-246 149.927,-246 149.927,-234 149.927,-234 149.927,-228 155.927,-222 161.927,-222 161.927,-222 218.073,-222 218.073,-222 224.073,-222 230.073,-228 230.073,-234 230.073,-234 230.073,-246 230.073,-246 230.073,-252 224.073,-258 218.073,-258"/>
<text text-anchor="middle" x="190" y="-235.8" font-family="Helvetica,sans-Serif" font-size="14.00">stats_3nm</text>
</g>
<!-- read_in_zonal_stats_dataframes&#45;&gt;stats_3nm -->
<g id="edge6" class="edge"><title>read_in_zonal_stats_dataframes&#45;&gt;stats_3nm</title>
<path fill="none" stroke="black" d="M264.027,-293.876C251.45,-284.893 235.868,-273.763 222.248,-264.034"/>
<polygon fill="black" stroke="black" points="224.237,-261.154 214.066,-258.19 220.169,-266.85 224.237,-261.154"/>
</g>
<!-- stats_1km -->
<g id="node5" class="node"><title>stats_1km</title>
<path fill="#ffffcc" stroke="black" d="M315.79,-258C315.79,-258 260.21,-258 260.21,-258 254.21,-258 248.21,-252 248.21,-246 248.21,-246 248.21,-234 248.21,-234 248.21,-228 254.21,-222 260.21,-222 260.21,-222 315.79,-222 315.79,-222 321.79,-222 327.79,-228 327.79,-234 327.79,-234 327.79,-246 327.79,-246 327.79,-252 321.79,-258 315.79,-258"/>
<text text-anchor="middle" x="288" y="-235.8" font-family="Helvetica,sans-Serif" font-size="14.00">stats_1km</text>
</g>
<!-- read_in_zonal_stats_dataframes&#45;&gt;stats_1km -->
<g id="edge5" class="edge"><title>read_in_zonal_stats_dataframes&#45;&gt;stats_1km</title>
<path fill="none" stroke="black" d="M288,-293.697C288,-285.983 288,-276.712 288,-268.112"/>
<polygon fill="black" stroke="black" points="291.5,-268.104 288,-258.104 284.5,-268.104 291.5,-268.104"/>
</g>
<!-- stats_ws -->
<g id="node6" class="node"><title>stats_ws</title>
<path fill="#ffffcc" stroke="black" d="M404.454,-258C404.454,-258 357.546,-258 357.546,-258 351.546,-258 345.546,-252 345.546,-246 345.546,-246 345.546,-234 345.546,-234 345.546,-228 351.546,-222 357.546,-222 357.546,-222 404.454,-222 404.454,-222 410.454,-222 416.454,-228 416.454,-234 416.454,-234 416.454,-246 416.454,-246 416.454,-252 410.454,-258 404.454,-258"/>
<text text-anchor="middle" x="381" y="-235.8" font-family="Helvetica,sans-Serif" font-size="14.00">stats_ws</text>
</g>
<!-- read_in_zonal_stats_dataframes&#45;&gt;stats_ws -->
<g id="edge4" class="edge"><title>read_in_zonal_stats_dataframes&#45;&gt;stats_ws</title>
<path fill="none" stroke="black" d="M310.989,-293.697C322.814,-284.796 337.392,-273.823 350.179,-264.199"/>
<polygon fill="black" stroke="black" points="352.391,-266.915 358.276,-258.104 348.181,-261.322 352.391,-266.915"/>
</g>
<!-- zonal_stats_3nm_file -->
<g id="node3" class="node"><title>zonal_stats_3nm_file</title>
<path fill="#ffffcc" stroke="black" d="M349.979,-402C349.979,-402 226.021,-402 226.021,-402 220.021,-402 214.021,-396 214.021,-390 214.021,-390 214.021,-378 214.021,-378 214.021,-372 220.021,-366 226.021,-366 226.021,-366 349.979,-366 349.979,-366 355.979,-366 361.979,-372 361.979,-378 361.979,-378 361.979,-390 361.979,-390 361.979,-396 355.979,-402 349.979,-402"/>
<text text-anchor="middle" x="288" y="-379.8" font-family="Helvetica,sans-Serif" font-size="14.00">zonal_stats_3nm_file</text>
</g>
<!-- zonal_stats_3nm_file&#45;&gt;read_in_zonal_stats_dataframes -->
<g id="edge7" class="edge"><title>zonal_stats_3nm_file&#45;&gt;read_in_zonal_stats_dataframes</title>
<path fill="none" stroke="black" d="M288,-365.697C288,-357.983 288,-348.712 288,-340.112"/>
<polygon fill="black" stroke="black" points="291.5,-340.104 288,-330.104 284.5,-340.104 291.5,-340.104"/>
</g>
<!-- stats_3nm&#45;&gt;compute_total_cells_and_cumulaative_total_of_cells_per_region -->
<g id="edge8" class="edge"><title>stats_3nm&#45;&gt;compute_total_cells_and_cumulaative_total_of_cells_per_region</title>
<path fill="none" stroke="black" d="M213.973,-221.876C226.55,-212.893 242.132,-201.763 255.752,-192.034"/>
<polygon fill="black" stroke="black" points="257.831,-194.85 263.934,-186.19 253.763,-189.154 257.831,-194.85"/>
</g>
<!-- stats_1km&#45;&gt;compute_total_cells_and_cumulaative_total_of_cells_per_region -->
<g id="edge9" class="edge"><title>stats_1km&#45;&gt;compute_total_cells_and_cumulaative_total_of_cells_per_region</title>
<path fill="none" stroke="black" d="M288,-221.697C288,-213.983 288,-204.712 288,-196.112"/>
<polygon fill="black" stroke="black" points="291.5,-196.104 288,-186.104 284.5,-196.104 291.5,-196.104"/>
</g>
<!-- stats_ws&#45;&gt;compute_total_cells_and_cumulaative_total_of_cells_per_region -->
<g id="edge10" class="edge"><title>stats_ws&#45;&gt;compute_total_cells_and_cumulaative_total_of_cells_per_region</title>
<path fill="none" stroke="black" d="M358.011,-221.697C346.186,-212.796 331.608,-201.823 318.821,-192.199"/>
<polygon fill="black" stroke="black" points="320.819,-189.322 310.724,-186.104 316.609,-194.915 320.819,-189.322"/>
</g>
<!-- prot_ws_outflow -->
<g id="node13" class="node"><title>prot_ws_outflow</title>
<ellipse fill="none" stroke="black" cx="256" cy="-31" rx="7" ry="7"/>
</g>
<!-- prot_ws&#45;&gt;prot_ws_outflow -->
<g id="edge14" class="edge"><title>prot_ws&#45;&gt;prot_ws_outflow</title>
<path fill="none" stroke="black" d="M215.302,-77.785C224.724,-67.1856 236.579,-53.8484 245.06,-44.3074"/>
<polygon fill="black" stroke="black" points="247.706,-46.5993 251.733,-36.7999 242.474,-41.9487 247.706,-46.5993"/>
</g>
<!-- prot_3nm_outflow -->
<g id="node12" class="node"><title>prot_3nm_outflow</title>
<ellipse fill="none" stroke="black" cx="288" cy="-31" rx="7" ry="7"/>
</g>
<!-- prot_3nm&#45;&gt;prot_3nm_outflow -->
<g id="edge13" class="edge"><title>prot_3nm&#45;&gt;prot_3nm_outflow</title>
<path fill="none" stroke="black" d="M288,-77.785C288,-68.6656 288,-57.5197 288,-48.5085"/>
<polygon fill="black" stroke="black" points="291.5,-48.242 288,-38.242 284.5,-48.2421 291.5,-48.242"/>
</g>
<!-- prot_1km_outflow -->
<g id="node11" class="node"><title>prot_1km_outflow</title>
<ellipse fill="none" stroke="black" cx="320" cy="-31" rx="7" ry="7"/>
</g>
<!-- prot_1km&#45;&gt;prot_1km_outflow -->
<g id="edge12" class="edge"><title>prot_1km&#45;&gt;prot_1km_outflow</title>
<path fill="none" stroke="black" d="M364.331,-77.785C353.855,-66.9647 340.615,-53.2914 331.344,-43.716"/>
<polygon fill="black" stroke="black" points="333.858,-41.2804 324.387,-36.5308 328.829,-46.1497 333.858,-41.2804"/>
</g>
<!-- zonal_stats_3nm_file_inflow -->
<g id="node10" class="node"><title>zonal_stats_3nm_file_inflow</title>
<ellipse fill="none" stroke="black" cx="288" cy="-449" rx="7" ry="7"/>
</g>
<!-- zonal_stats_3nm_file_inflow&#45;&gt;zonal_stats_3nm_file -->
<g id="edge11" class="edge"><title>zonal_stats_3nm_file_inflow&#45;&gt;zonal_stats_3nm_file</title>
<path fill="none" stroke="black" d="M288,-441.729C288,-434.795 288,-423.154 288,-412.215"/>
<polygon fill="black" stroke="black" points="291.5,-412.119 288,-402.119 284.5,-412.119 291.5,-412.119"/>
</g>
</g>
</svg>
