<?xml version="1.0" encoding="UTF-8" standalone="no"?>
<!DOCTYPE svg PUBLIC "-//W3C//DTD SVG 1.1//EN"
 "http://www.w3.org/Graphics/SVG/1.1/DTD/svg11.dtd">
<!-- Generated by graphviz version 2.38.0 (20140413.2041)
 -->
<!-- Title: yw_data_view Pages: 1 -->
<svg width="801pt" height="669pt"
 viewBox="0.00 0.00 801.00 669.40" xmlns="http://www.w3.org/2000/svg" xmlns:xlink="http://www.w3.org/1999/xlink">
<g id="graph0" class="graph" transform="scale(1 1) rotate(0) translate(4 665.4)">
<title>yw_data_view</title>
<polygon fill="white" stroke="none" points="-4,4 -4,-665.4 797,-665.4 797,4 -4,4"/>
<text text-anchor="middle" x="396.5" y="-641.2" font-family="Courier,monospace" font-size="18.00">summarize_zonal_stats</text>
<g id="clust1" class="cluster"><title>cluster_workflow</title>
<polygon fill="none" stroke="black" stroke-width="2" points="8,-62 8,-569.8 785,-569.8 785,-62 8,-62"/>
</g>
<g id="clust2" class="cluster"><title>cluster_workflow_inner</title>
<polygon fill="none" stroke="white" stroke-width="2" points="16,-70 16,-561.8 777,-561.8 777,-70 16,-70"/>
</g>
<g id="clust3" class="cluster"><title>cluster_inflows</title>
<polygon fill="none" stroke="white" stroke-width="2" points="436,-577.8 436,-623.8 578,-623.8 578,-577.8 436,-577.8"/>
</g>
<g id="clust4" class="cluster"><title>cluster_inflows_inner</title>
<polygon fill="none" stroke="white" stroke-width="2" points="444,-585.8 444,-615.8 570,-615.8 570,-585.8 444,-585.8"/>
</g>
<g id="clust5" class="cluster"><title>cluster_outflows</title>
<polygon fill="none" stroke="white" stroke-width="2" points="302,-8 302,-54 348,-54 348,-8 302,-8"/>
</g>
<g id="clust6" class="cluster"><title>cluster_outflows_inner</title>
<polygon fill="none" stroke="white" stroke-width="2" points="310,-16 310,-46 340,-46 340,-16 310,-16"/>
</g>
<!-- set_goals_target_threshhold -->
<g id="node1" class="node"><title>set_goals_target_threshhold</title>
<polygon fill="#ccffcc" stroke="black" points="644.262,-332.6 401.738,-332.6 401.738,-296.6 644.262,-296.6 644.262,-332.6"/>
<text text-anchor="middle" x="523" y="-310.4" font-family="Courier,monospace" font-size="14.00">set_goals_target_threshhold</text>
</g>
<!-- lsp_thresh -->
<g id="node9" class="node"><title>lsp_thresh</title>
<path fill="#ffffcc" stroke="black" d="M530.072,-260.6C530.072,-260.6 473.928,-260.6 473.928,-260.6 467.928,-260.6 461.928,-254.6 461.928,-248.6 461.928,-248.6 461.928,-236.6 461.928,-236.6 461.928,-230.6 467.928,-224.6 473.928,-224.6 473.928,-224.6 530.072,-224.6 530.072,-224.6 536.072,-224.6 542.072,-230.6 542.072,-236.6 542.072,-236.6 542.072,-248.6 542.072,-248.6 542.072,-254.6 536.072,-260.6 530.072,-260.6"/>
<text text-anchor="middle" x="502" y="-238.4" font-family="Helvetica,sans-Serif" font-size="14.00">lsp_thresh</text>
</g>
<!-- set_goals_target_threshhold&#45;&gt;lsp_thresh -->
<g id="edge14" class="edge"><title>set_goals_target_threshhold&#45;&gt;lsp_thresh</title>
<path fill="none" stroke="black" d="M517.809,-296.297C515.469,-288.498 512.653,-279.109 510.049,-270.429"/>
<polygon fill="black" stroke="black" points="513.357,-269.277 507.131,-260.704 506.652,-271.288 513.357,-269.277"/>
</g>
<!-- read_in_zonal_stats_dataframes -->
<g id="node2" class="node"><title>read_in_zonal_stats_dataframes</title>
<polygon fill="#ccffcc" stroke="black" points="383.958,-332.6 116.042,-332.6 116.042,-296.6 383.958,-296.6 383.958,-332.6"/>
<text text-anchor="middle" x="250" y="-310.4" font-family="Courier,monospace" font-size="14.00">read_in_zonal_stats_dataframes</text>
</g>
<!-- stats_3nm -->
<g id="node6" class="node"><title>stats_3nm</title>
<path fill="#ffffcc" stroke="black" d="M391.073,-260.6C391.073,-260.6 334.927,-260.6 334.927,-260.6 328.927,-260.6 322.927,-254.6 322.927,-248.6 322.927,-248.6 322.927,-236.6 322.927,-236.6 322.927,-230.6 328.927,-224.6 334.927,-224.6 334.927,-224.6 391.073,-224.6 391.073,-224.6 397.073,-224.6 403.073,-230.6 403.073,-236.6 403.073,-236.6 403.073,-248.6 403.073,-248.6 403.073,-254.6 397.073,-260.6 391.073,-260.6"/>
<text text-anchor="middle" x="363" y="-238.4" font-family="Helvetica,sans-Serif" font-size="14.00">stats_3nm</text>
</g>
<!-- read_in_zonal_stats_dataframes&#45;&gt;stats_3nm -->
<g id="edge11" class="edge"><title>read_in_zonal_stats_dataframes&#45;&gt;stats_3nm</title>
<path fill="none" stroke="black" d="M277.643,-296.476C292.418,-287.324 310.791,-275.942 326.703,-266.085"/>
<polygon fill="black" stroke="black" points="328.593,-269.031 335.251,-260.79 324.907,-263.081 328.593,-269.031"/>
</g>
<!-- stats_1km -->
<g id="node7" class="node"><title>stats_1km</title>
<path fill="#ffffcc" stroke="black" d="M203.79,-260.6C203.79,-260.6 148.21,-260.6 148.21,-260.6 142.21,-260.6 136.21,-254.6 136.21,-248.6 136.21,-248.6 136.21,-236.6 136.21,-236.6 136.21,-230.6 142.21,-224.6 148.21,-224.6 148.21,-224.6 203.79,-224.6 203.79,-224.6 209.79,-224.6 215.79,-230.6 215.79,-236.6 215.79,-236.6 215.79,-248.6 215.79,-248.6 215.79,-254.6 209.79,-260.6 203.79,-260.6"/>
<text text-anchor="middle" x="176" y="-238.4" font-family="Helvetica,sans-Serif" font-size="14.00">stats_1km</text>
</g>
<!-- read_in_zonal_stats_dataframes&#45;&gt;stats_1km -->
<g id="edge12" class="edge"><title>read_in_zonal_stats_dataframes&#45;&gt;stats_1km</title>
<path fill="none" stroke="black" d="M231.708,-296.297C222.567,-287.65 211.36,-277.049 201.4,-267.627"/>
<polygon fill="black" stroke="black" points="203.752,-265.034 194.082,-260.704 198.941,-270.119 203.752,-265.034"/>
</g>
<!-- stats_ws -->
<g id="node8" class="node"><title>stats_ws</title>
<path fill="#ffffcc" stroke="black" d="M292.454,-260.6C292.454,-260.6 245.546,-260.6 245.546,-260.6 239.546,-260.6 233.546,-254.6 233.546,-248.6 233.546,-248.6 233.546,-236.6 233.546,-236.6 233.546,-230.6 239.546,-224.6 245.546,-224.6 245.546,-224.6 292.454,-224.6 292.454,-224.6 298.454,-224.6 304.454,-230.6 304.454,-236.6 304.454,-236.6 304.454,-248.6 304.454,-248.6 304.454,-254.6 298.454,-260.6 292.454,-260.6"/>
<text text-anchor="middle" x="269" y="-238.4" font-family="Helvetica,sans-Serif" font-size="14.00">stats_ws</text>
</g>
<!-- read_in_zonal_stats_dataframes&#45;&gt;stats_ws -->
<g id="edge13" class="edge"><title>read_in_zonal_stats_dataframes&#45;&gt;stats_ws</title>
<path fill="none" stroke="black" d="M254.697,-296.297C256.813,-288.498 259.362,-279.109 261.718,-270.429"/>
<polygon fill="black" stroke="black" points="265.116,-271.272 264.357,-260.704 258.36,-269.438 265.116,-271.272"/>
</g>
<!-- set_up_configuration_and_start_provenance_tracking -->
<g id="node3" class="node"><title>set_up_configuration_and_start_provenance_tracking</title>
<polygon fill="#ccffcc" stroke="black" points="459.93,-479.2 24.07,-479.2 24.07,-443.2 459.93,-443.2 459.93,-479.2"/>
<text text-anchor="middle" x="242" y="-457" font-family="Courier,monospace" font-size="14.00">set_up_configuration_and_start_provenance_tracking</text>
</g>
<!-- dir_goal -->
<g id="node5" class="node"><title>dir_goal</title>
<path fill="#ffffcc" stroke="black" d="M77.7871,-405.9C77.7871,-405.9 36.2129,-405.9 36.2129,-405.9 30.2129,-405.9 24.2129,-399.9 24.2129,-393.9 24.2129,-393.9 24.2129,-381.9 24.2129,-381.9 24.2129,-375.9 30.2129,-369.9 36.2129,-369.9 36.2129,-369.9 77.7871,-369.9 77.7871,-369.9 83.7871,-369.9 89.7871,-375.9 89.7871,-381.9 89.7871,-381.9 89.7871,-393.9 89.7871,-393.9 89.7871,-399.9 83.7871,-405.9 77.7871,-405.9"/>
<text text-anchor="middle" x="57" y="-383.7" font-family="Helvetica,sans-Serif" font-size="14.00">dir_goal</text>
</g>
<!-- set_up_configuration_and_start_provenance_tracking&#45;&gt;dir_goal -->
<g id="edge10" class="edge"><title>set_up_configuration_and_start_provenance_tracking&#45;&gt;dir_goal</title>
<path fill="none" stroke="black" d="M194.077,-443.197C168.365,-433.9 135.974,-421.913 99.344,-407.247"/>
<polygon fill="black" stroke="black" points="100.525,-403.95 89.9415,-403.461 97.9101,-410.443 100.525,-403.95"/>
</g>
<!-- compute_total_cells_and_cumulaative_total_of_cells_per_region -->
<g id="node4" class="node"><title>compute_total_cells_and_cumulaative_total_of_cells_per_region</title>
<polygon fill="#ccffcc" stroke="black" points="589.315,-188.6 60.6853,-188.6 60.6853,-152.6 589.315,-152.6 589.315,-188.6"/>
<text text-anchor="middle" x="325" y="-166.4" font-family="Courier,monospace" font-size="14.00">compute_total_cells_and_cumulaative_total_of_cells_per_region</text>
</g>
<!-- prot_1km -->
<g id="node14" class="node"><title>prot_1km</title>
<path fill="#ffe4b5" stroke="black" d="M223.718,-78.5C223.718,-78.5 426.282,-78.5 426.282,-78.5 432.282,-78.5 438.282,-84.5 438.282,-90.5 438.282,-90.5 438.282,-104.1 438.282,-104.1 438.282,-110.1 432.282,-116.1 426.282,-116.1 426.282,-116.1 223.718,-116.1 223.718,-116.1 217.718,-116.1 211.718,-110.1 211.718,-104.1 211.718,-104.1 211.718,-90.5 211.718,-90.5 211.718,-84.5 217.718,-78.5 223.718,-78.5"/>
<text text-anchor="middle" x="325" y="-104" font-family="Courier,monospace" font-weight="bold" font-size="9.00">prot_1km</text>
<polyline fill="none" stroke="black" points="211.718,-97.3 438.282,-97.3 "/>
<text text-anchor="start" x="219.718" y="-85.2" font-family="Courier,monospace" font-weight="bold" font-size="9.00">prep/lsp/vHS/int/area_protected_1km.csv</text>
</g>
<!-- compute_total_cells_and_cumulaative_total_of_cells_per_region&#45;&gt;prot_1km -->
<g id="edge15" class="edge"><title>compute_total_cells_and_cumulaative_total_of_cells_per_region&#45;&gt;prot_1km</title>
<path fill="none" stroke="black" d="M325,-152.34C325,-144.605 325,-135.279 325,-126.568"/>
<polygon fill="black" stroke="black" points="328.5,-126.396 325,-116.396 321.5,-126.396 328.5,-126.396"/>
</g>
<!-- dir_goal&#45;&gt;read_in_zonal_stats_dataframes -->
<g id="edge5" class="edge"><title>dir_goal&#45;&gt;read_in_zonal_stats_dataframes</title>
<path fill="none" stroke="black" d="M89.9197,-372.285C92.9774,-371.009 96.0387,-369.763 99,-368.6 128.263,-357.107 161.159,-345.419 188.759,-335.954"/>
<polygon fill="black" stroke="black" points="189.953,-339.245 198.286,-332.703 187.692,-332.62 189.953,-339.245"/>
</g>
<!-- stats_3nm&#45;&gt;compute_total_cells_and_cumulaative_total_of_cells_per_region -->
<g id="edge7" class="edge"><title>stats_3nm&#45;&gt;compute_total_cells_and_cumulaative_total_of_cells_per_region</title>
<path fill="none" stroke="black" d="M353.607,-224.297C349.235,-216.244 343.943,-206.494 339.105,-197.582"/>
<polygon fill="black" stroke="black" points="342.132,-195.823 334.285,-188.704 335.98,-199.163 342.132,-195.823"/>
</g>
<!-- stats_1km&#45;&gt;compute_total_cells_and_cumulaative_total_of_cells_per_region -->
<g id="edge9" class="edge"><title>stats_1km&#45;&gt;compute_total_cells_and_cumulaative_total_of_cells_per_region</title>
<path fill="none" stroke="black" d="M212.45,-224.476C232.638,-214.992 257.921,-203.113 279.408,-193.019"/>
<polygon fill="black" stroke="black" points="281.106,-196.088 288.669,-188.668 278.13,-189.753 281.106,-196.088"/>
</g>
<!-- stats_ws&#45;&gt;compute_total_cells_and_cumulaative_total_of_cells_per_region -->
<g id="edge1" class="edge"><title>stats_ws&#45;&gt;compute_total_cells_and_cumulaative_total_of_cells_per_region</title>
<path fill="none" stroke="black" d="M282.843,-224.297C289.489,-215.989 297.578,-205.877 304.887,-196.741"/>
<polygon fill="black" stroke="black" points="307.803,-198.699 311.317,-188.704 302.336,-194.327 307.803,-198.699"/>
</g>
<!-- lsp_thresh&#45;&gt;compute_total_cells_and_cumulaative_total_of_cells_per_region -->
<g id="edge3" class="edge"><title>lsp_thresh&#45;&gt;compute_total_cells_and_cumulaative_total_of_cells_per_region</title>
<path fill="none" stroke="black" d="M461.836,-225.716C436.836,-215.829 404.414,-203.007 377.404,-192.325"/>
<polygon fill="black" stroke="black" points="378.684,-189.067 368.097,-188.644 376.109,-195.577 378.684,-189.067"/>
</g>
<!-- setup_R -->
<g id="node10" class="node"><title>setup_R</title>
<path fill="#ffe4b5" stroke="black" d="M323,-515.7C323,-515.7 353,-515.7 353,-515.7 359,-515.7 365,-521.7 365,-527.7 365,-527.7 365,-541.3 365,-541.3 365,-547.3 359,-553.3 353,-553.3 353,-553.3 323,-553.3 323,-553.3 317,-553.3 311,-547.3 311,-541.3 311,-541.3 311,-527.7 311,-527.7 311,-521.7 317,-515.7 323,-515.7"/>
<text text-anchor="middle" x="337.897" y="-541.2" font-family="Courier,monospace" font-weight="bold" font-size="9.00">setup_R</text>
<polyline fill="none" stroke="black" points="311,-534.5 364.794,-534.5 "/>
<text text-anchor="middle" x="337.897" y="-522.4" font-family="Courier,monospace" font-weight="bold" font-size="9.00"> </text>
</g>
<!-- setup_R&#45;&gt;set_up_configuration_and_start_provenance_tracking -->
<g id="edge2" class="edge"><title>setup_R&#45;&gt;set_up_configuration_and_start_provenance_tracking</title>
<path fill="none" stroke="black" d="M313.775,-515.508C301.473,-506.371 286.383,-495.163 273.219,-485.387"/>
<polygon fill="black" stroke="black" points="275.01,-482.357 264.895,-479.205 270.836,-487.977 275.01,-482.357"/>
</g>
<!-- zonal_stats_3nm_file -->
<g id="node11" class="node"><title>zonal_stats_3nm_file</title>
<path fill="#ffe4b5" stroke="black" d="M119.816,-369.1C119.816,-369.1 306.184,-369.1 306.184,-369.1 312.184,-369.1 318.184,-375.1 318.184,-381.1 318.184,-381.1 318.184,-394.7 318.184,-394.7 318.184,-400.7 312.184,-406.7 306.184,-406.7 306.184,-406.7 119.816,-406.7 119.816,-406.7 113.816,-406.7 107.816,-400.7 107.816,-394.7 107.816,-394.7 107.816,-381.1 107.816,-381.1 107.816,-375.1 113.816,-369.1 119.816,-369.1"/>
<text text-anchor="middle" x="213" y="-394.6" font-family="Courier,monospace" font-weight="bold" font-size="9.00">zonal_stats_3nm_file</text>
<polyline fill="none" stroke="black" points="107.816,-387.9 318.184,-387.9 "/>
<text text-anchor="start" x="115.816" y="-375.8" font-family="Courier,monospace" font-weight="bold" font-size="9.00">prep/lsp/vHS/int/zonal_stats_3nm.csv</text>
</g>
<!-- zonal_stats_3nm_file&#45;&gt;read_in_zonal_stats_dataframes -->
<g id="edge4" class="edge"><title>zonal_stats_3nm_file&#45;&gt;read_in_zonal_stats_dataframes</title>
<path fill="none" stroke="black" d="M222.337,-368.908C226.595,-360.702 231.72,-350.827 236.395,-341.817"/>
<polygon fill="black" stroke="black" points="239.55,-343.337 241.049,-332.848 233.336,-340.112 239.55,-343.337"/>
</g>
<!-- zonal_stats_1km_file -->
<g id="node12" class="node"><title>zonal_stats_1km_file</title>
<path fill="#ffe4b5" stroke="black" d="M347.816,-369.1C347.816,-369.1 534.184,-369.1 534.184,-369.1 540.184,-369.1 546.184,-375.1 546.184,-381.1 546.184,-381.1 546.184,-394.7 546.184,-394.7 546.184,-400.7 540.184,-406.7 534.184,-406.7 534.184,-406.7 347.816,-406.7 347.816,-406.7 341.816,-406.7 335.816,-400.7 335.816,-394.7 335.816,-394.7 335.816,-381.1 335.816,-381.1 335.816,-375.1 341.816,-369.1 347.816,-369.1"/>
<text text-anchor="middle" x="441" y="-394.6" font-family="Courier,monospace" font-weight="bold" font-size="9.00">zonal_stats_1km_file</text>
<polyline fill="none" stroke="black" points="335.816,-387.9 546.184,-387.9 "/>
<text text-anchor="start" x="343.816" y="-375.8" font-family="Courier,monospace" font-weight="bold" font-size="9.00">prep/lsp/vHS/int/zonal_stats_1km.csv</text>
</g>
<!-- zonal_stats_1km_file&#45;&gt;read_in_zonal_stats_dataframes -->
<g id="edge6" class="edge"><title>zonal_stats_1km_file&#45;&gt;read_in_zonal_stats_dataframes</title>
<path fill="none" stroke="black" d="M393.295,-369.092C366.608,-359.13 333.213,-346.663 305.376,-336.272"/>
<polygon fill="black" stroke="black" points="306.374,-332.909 295.782,-332.69 303.926,-339.466 306.374,-332.909"/>
</g>
<!-- zonal_stats_ws_file -->
<g id="node13" class="node"><title>zonal_stats_ws_file</title>
<path fill="#ffe4b5" stroke="black" d="M576.516,-369.1C576.516,-369.1 757.484,-369.1 757.484,-369.1 763.484,-369.1 769.484,-375.1 769.484,-381.1 769.484,-381.1 769.484,-394.7 769.484,-394.7 769.484,-400.7 763.484,-406.7 757.484,-406.7 757.484,-406.7 576.516,-406.7 576.516,-406.7 570.516,-406.7 564.516,-400.7 564.516,-394.7 564.516,-394.7 564.516,-381.1 564.516,-381.1 564.516,-375.1 570.516,-369.1 576.516,-369.1"/>
<text text-anchor="middle" x="667" y="-394.6" font-family="Courier,monospace" font-weight="bold" font-size="9.00">zonal_stats_ws_file</text>
<polyline fill="none" stroke="black" points="564.516,-387.9 769.484,-387.9 "/>
<text text-anchor="start" x="572.516" y="-375.8" font-family="Courier,monospace" font-weight="bold" font-size="9.00">prep/lsp/vHS/int/zonal_stats_ws.csv</text>
</g>
<!-- zonal_stats_ws_file&#45;&gt;read_in_zonal_stats_dataframes -->
<g id="edge8" class="edge"><title>zonal_stats_ws_file&#45;&gt;read_in_zonal_stats_dataframes</title>
<path fill="none" stroke="black" d="M564.456,-369.367C502.308,-358.74 423.055,-345.189 359.661,-334.35"/>
<polygon fill="black" stroke="black" points="360.075,-330.87 349.628,-332.635 358.895,-337.77 360.075,-330.87"/>
</g>
<!-- prot_1km_outflow -->
<g id="node19" class="node"><title>prot_1km_outflow</title>
<ellipse fill="none" stroke="black" cx="325" cy="-31" rx="7" ry="7"/>
</g>
<!-- prot_1km&#45;&gt;prot_1km_outflow -->
<g id="edge20" class="edge"><title>prot_1km&#45;&gt;prot_1km_outflow</title>
<path fill="none" stroke="black" d="M325,-78.3889C325,-68.9828 325,-57.5389 325,-48.3712"/>
<polygon fill="black" stroke="black" points="328.5,-48.3008 325,-38.3008 321.5,-48.3008 328.5,-48.3008"/>
</g>
<!-- setup_R_inflow -->
<g id="node15" class="node"><title>setup_R_inflow</title>
<ellipse fill="none" stroke="black" cx="459" cy="-600.8" rx="7" ry="7"/>
</g>
<!-- setup_R_inflow&#45;&gt;setup_R -->
<g id="edge16" class="edge"><title>setup_R_inflow&#45;&gt;setup_R</title>
<path fill="none" stroke="black" d="M453.164,-596.699C439.064,-589.206 402.225,-569.629 373.974,-554.617"/>
<polygon fill="black" stroke="black" points="375.616,-551.526 365.143,-549.924 372.331,-557.707 375.616,-551.526"/>
</g>
<!-- zonal_stats_3nm_file_inflow -->
<g id="node16" class="node"><title>zonal_stats_3nm_file_inflow</title>
<ellipse fill="none" stroke="black" cx="491" cy="-600.8" rx="7" ry="7"/>
</g>
<!-- zonal_stats_3nm_file_inflow&#45;&gt;zonal_stats_3nm_file -->
<g id="edge17" class="edge"><title>zonal_stats_3nm_file_inflow&#45;&gt;zonal_stats_3nm_file</title>
<path fill="none" stroke="black" d="M492.324,-593.687C496.956,-570.513 510.014,-487.165 469,-443.2 463.572,-437.382 387.404,-421.667 319.553,-408.632"/>
<polygon fill="black" stroke="black" points="320.092,-405.171 309.612,-406.729 318.776,-412.046 320.092,-405.171"/>
</g>
<!-- zonal_stats_1km_file_inflow -->
<g id="node17" class="node"><title>zonal_stats_1km_file_inflow</title>
<ellipse fill="none" stroke="black" cx="523" cy="-600.8" rx="7" ry="7"/>
</g>
<!-- zonal_stats_1km_file_inflow&#45;&gt;zonal_stats_1km_file -->
<g id="edge18" class="edge"><title>zonal_stats_1km_file_inflow&#45;&gt;zonal_stats_1km_file</title>
<path fill="none" stroke="black" d="M523.631,-593.664C525.598,-571.737 529.929,-495.766 502,-443.2 495.911,-431.74 486.378,-421.533 476.642,-413.148"/>
<polygon fill="black" stroke="black" points="478.823,-410.41 468.853,-406.825 474.411,-415.845 478.823,-410.41"/>
</g>
<!-- zonal_stats_ws_file_inflow -->
<g id="node18" class="node"><title>zonal_stats_ws_file_inflow</title>
<ellipse fill="none" stroke="black" cx="555" cy="-600.8" rx="7" ry="7"/>
</g>
<!-- zonal_stats_ws_file_inflow&#45;&gt;zonal_stats_ws_file -->
<g id="edge19" class="edge"><title>zonal_stats_ws_file_inflow&#45;&gt;zonal_stats_ws_file</title>
<path fill="none" stroke="black" d="M557.996,-594.159C571.395,-568.928 626.325,-465.493 652.715,-415.799"/>
<polygon fill="black" stroke="black" points="655.844,-417.369 657.443,-406.895 649.662,-414.086 655.844,-417.369"/>
</g>
</g>
</svg>
