<?xml version="1.0" encoding="UTF-8" standalone="no"?>
<!DOCTYPE svg PUBLIC "-//W3C//DTD SVG 1.1//EN"
 "http://www.w3.org/Graphics/SVG/1.1/DTD/svg11.dtd">
<!-- Generated by graphviz version 2.38.0 (20140413.2041)
 -->
<!-- Title: yw_data_view Pages: 1 -->
<svg width="608pt" height="662pt"
 viewBox="0.00 0.00 608.00 661.60" xmlns="http://www.w3.org/2000/svg" xmlns:xlink="http://www.w3.org/1999/xlink">
<g id="graph0" class="graph" transform="scale(1 1) rotate(0) translate(4 657.6)">
<title>yw_data_view</title>
<polygon fill="white" stroke="none" points="-4,4 -4,-657.6 604,-657.6 604,4 -4,4"/>
<text text-anchor="middle" x="300" y="-633.4" font-family="Courier,monospace" font-size="18.00">summarize_zonal_stats</text>
<g id="clust1" class="cluster"><title>cluster_workflow</title>
<polygon fill="none" stroke="black" stroke-width="2" points="8,-62 8,-562 592,-562 592,-62 8,-62"/>
</g>
<g id="clust2" class="cluster"><title>cluster_workflow_inner</title>
<polygon fill="none" stroke="white" stroke-width="2" points="16,-70 16,-554 584,-554 584,-70 16,-70"/>
</g>
<g id="clust3" class="cluster"><title>cluster_inflows</title>
<polygon fill="none" stroke="white" stroke-width="2" points="436,-570 436,-616 578,-616 578,-570 436,-570"/>
</g>
<g id="clust4" class="cluster"><title>cluster_inflows_inner</title>
<polygon fill="none" stroke="white" stroke-width="2" points="444,-578 444,-608 570,-608 570,-578 444,-578"/>
</g>
<g id="clust5" class="cluster"><title>cluster_outflows</title>
<polygon fill="none" stroke="white" stroke-width="2" points="273,-8 273,-54 319,-54 319,-8 273,-8"/>
</g>
<g id="clust6" class="cluster"><title>cluster_outflows_inner</title>
<polygon fill="none" stroke="white" stroke-width="2" points="281,-16 281,-46 311,-46 311,-16 281,-16"/>
</g>
<!-- set_goals_target_threshhold -->
<g id="node1" class="node"><title>set_goals_target_threshhold</title>
<polygon fill="#ccffcc" stroke="black" points="576.262,-330 333.738,-330 333.738,-294 576.262,-294 576.262,-330"/>
<text text-anchor="middle" x="455" y="-307.8" font-family="Courier,monospace" font-size="14.00">set_goals_target_threshhold</text>
</g>
<!-- lsp_thresh -->
<g id="node13" class="node"><title>lsp_thresh</title>
<path fill="#ffffcc" stroke="black" d="M474.072,-258C474.072,-258 417.928,-258 417.928,-258 411.928,-258 405.928,-252 405.928,-246 405.928,-246 405.928,-234 405.928,-234 405.928,-228 411.928,-222 417.928,-222 417.928,-222 474.072,-222 474.072,-222 480.072,-222 486.072,-228 486.072,-234 486.072,-234 486.072,-246 486.072,-246 486.072,-252 480.072,-258 474.072,-258"/>
<text text-anchor="middle" x="446" y="-235.8" font-family="Helvetica,sans-Serif" font-size="14.00">lsp_thresh</text>
</g>
<!-- set_goals_target_threshhold&#45;&gt;lsp_thresh -->
<g id="edge14" class="edge"><title>set_goals_target_threshhold&#45;&gt;lsp_thresh</title>
<path fill="none" stroke="black" d="M452.775,-293.697C451.783,-285.983 450.592,-276.712 449.486,-268.112"/>
<polygon fill="black" stroke="black" points="452.946,-267.576 448.199,-258.104 446.003,-268.469 452.946,-267.576"/>
</g>
<!-- read_in_zonal_stats_dataframes -->
<g id="node2" class="node"><title>read_in_zonal_stats_dataframes</title>
<polygon fill="#ccffcc" stroke="black" points="315.958,-330 48.042,-330 48.042,-294 315.958,-294 315.958,-330"/>
<text text-anchor="middle" x="182" y="-307.8" font-family="Courier,monospace" font-size="14.00">read_in_zonal_stats_dataframes</text>
</g>
<!-- stats_3nm -->
<g id="node10" class="node"><title>stats_3nm</title>
<path fill="#ffffcc" stroke="black" d="M341.073,-258C341.073,-258 284.927,-258 284.927,-258 278.927,-258 272.927,-252 272.927,-246 272.927,-246 272.927,-234 272.927,-234 272.927,-228 278.927,-222 284.927,-222 284.927,-222 341.073,-222 341.073,-222 347.073,-222 353.073,-228 353.073,-234 353.073,-234 353.073,-246 353.073,-246 353.073,-252 347.073,-258 341.073,-258"/>
<text text-anchor="middle" x="313" y="-235.8" font-family="Helvetica,sans-Serif" font-size="14.00">stats_3nm</text>
</g>
<!-- read_in_zonal_stats_dataframes&#45;&gt;stats_3nm -->
<g id="edge11" class="edge"><title>read_in_zonal_stats_dataframes&#45;&gt;stats_3nm</title>
<path fill="none" stroke="black" d="M214.046,-293.876C231.492,-284.554 253.265,-272.919 271.943,-262.939"/>
<polygon fill="black" stroke="black" points="273.66,-265.99 280.831,-258.19 270.361,-259.816 273.66,-265.99"/>
</g>
<!-- stats_1km -->
<g id="node11" class="node"><title>stats_1km</title>
<path fill="#ffffcc" stroke="black" d="M153.79,-258C153.79,-258 98.2101,-258 98.2101,-258 92.2101,-258 86.2101,-252 86.2101,-246 86.2101,-246 86.2101,-234 86.2101,-234 86.2101,-228 92.2101,-222 98.2101,-222 98.2101,-222 153.79,-222 153.79,-222 159.79,-222 165.79,-228 165.79,-234 165.79,-234 165.79,-246 165.79,-246 165.79,-252 159.79,-258 153.79,-258"/>
<text text-anchor="middle" x="126" y="-235.8" font-family="Helvetica,sans-Serif" font-size="14.00">stats_1km</text>
</g>
<!-- read_in_zonal_stats_dataframes&#45;&gt;stats_1km -->
<g id="edge12" class="edge"><title>read_in_zonal_stats_dataframes&#45;&gt;stats_1km</title>
<path fill="none" stroke="black" d="M168.157,-293.697C161.511,-285.389 153.422,-275.277 146.113,-266.141"/>
<polygon fill="black" stroke="black" points="148.664,-263.727 139.683,-258.104 143.197,-268.099 148.664,-263.727"/>
</g>
<!-- stats_ws -->
<g id="node12" class="node"><title>stats_ws</title>
<path fill="#ffffcc" stroke="black" d="M242.454,-258C242.454,-258 195.546,-258 195.546,-258 189.546,-258 183.546,-252 183.546,-246 183.546,-246 183.546,-234 183.546,-234 183.546,-228 189.546,-222 195.546,-222 195.546,-222 242.454,-222 242.454,-222 248.454,-222 254.454,-228 254.454,-234 254.454,-234 254.454,-246 254.454,-246 254.454,-252 248.454,-258 242.454,-258"/>
<text text-anchor="middle" x="219" y="-235.8" font-family="Helvetica,sans-Serif" font-size="14.00">stats_ws</text>
</g>
<!-- read_in_zonal_stats_dataframes&#45;&gt;stats_ws -->
<g id="edge13" class="edge"><title>read_in_zonal_stats_dataframes&#45;&gt;stats_ws</title>
<path fill="none" stroke="black" d="M191.146,-293.697C195.403,-285.644 200.556,-275.894 205.266,-266.982"/>
<polygon fill="black" stroke="black" points="208.38,-268.581 209.959,-258.104 202.192,-265.31 208.38,-268.581"/>
</g>
<!-- set_up_configuration_and_start_provenance_tracking -->
<g id="node3" class="node"><title>set_up_configuration_and_start_provenance_tracking</title>
<polygon fill="#ccffcc" stroke="black" points="459.93,-474 24.07,-474 24.07,-438 459.93,-438 459.93,-474"/>
<text text-anchor="middle" x="242" y="-451.8" font-family="Courier,monospace" font-size="14.00">set_up_configuration_and_start_provenance_tracking</text>
</g>
<!-- dir_goal -->
<g id="node6" class="node"><title>dir_goal</title>
<path fill="#ffffcc" stroke="black" d="M77.7871,-402C77.7871,-402 36.2129,-402 36.2129,-402 30.2129,-402 24.2129,-396 24.2129,-390 24.2129,-390 24.2129,-378 24.2129,-378 24.2129,-372 30.2129,-366 36.2129,-366 36.2129,-366 77.7871,-366 77.7871,-366 83.7871,-366 89.7871,-372 89.7871,-378 89.7871,-378 89.7871,-390 89.7871,-390 89.7871,-396 83.7871,-402 77.7871,-402"/>
<text text-anchor="middle" x="57" y="-379.8" font-family="Helvetica,sans-Serif" font-size="14.00">dir_goal</text>
</g>
<!-- set_up_configuration_and_start_provenance_tracking&#45;&gt;dir_goal -->
<g id="edge10" class="edge"><title>set_up_configuration_and_start_provenance_tracking&#45;&gt;dir_goal</title>
<path fill="none" stroke="black" d="M194.851,-437.924C169.091,-428.503 136.432,-416.412 99.4672,-402.133"/>
<polygon fill="black" stroke="black" points="100.567,-398.806 89.9783,-398.456 98.038,-405.333 100.567,-398.806"/>
</g>
<!-- compute_total_cells_and_cumulaative_total_of_cells_per_region -->
<g id="node4" class="node"><title>compute_total_cells_and_cumulaative_total_of_cells_per_region</title>
<polygon fill="#ccffcc" stroke="black" points="560.315,-186 31.6853,-186 31.6853,-150 560.315,-150 560.315,-186"/>
<text text-anchor="middle" x="296" y="-163.8" font-family="Courier,monospace" font-size="14.00">compute_total_cells_and_cumulaative_total_of_cells_per_region</text>
</g>
<!-- prot_1km -->
<g id="node14" class="node"><title>prot_1km</title>
<path fill="#ffffcc" stroke="black" d="M321.343,-114C321.343,-114 270.657,-114 270.657,-114 264.657,-114 258.657,-108 258.657,-102 258.657,-102 258.657,-90 258.657,-90 258.657,-84 264.657,-78 270.657,-78 270.657,-78 321.343,-78 321.343,-78 327.343,-78 333.343,-84 333.343,-90 333.343,-90 333.343,-102 333.343,-102 333.343,-108 327.343,-114 321.343,-114"/>
<text text-anchor="middle" x="296" y="-91.8" font-family="Helvetica,sans-Serif" font-size="14.00">prot_1km</text>
</g>
<!-- compute_total_cells_and_cumulaative_total_of_cells_per_region&#45;&gt;prot_1km -->
<g id="edge15" class="edge"><title>compute_total_cells_and_cumulaative_total_of_cells_per_region&#45;&gt;prot_1km</title>
<path fill="none" stroke="black" d="M296,-149.697C296,-141.983 296,-132.712 296,-124.112"/>
<polygon fill="black" stroke="black" points="299.5,-124.104 296,-114.104 292.5,-124.104 299.5,-124.104"/>
</g>
<!-- setup_R -->
<g id="node5" class="node"><title>setup_R</title>
<path fill="#ffffcc" stroke="black" d="M356.128,-546C356.128,-546 311.872,-546 311.872,-546 305.872,-546 299.872,-540 299.872,-534 299.872,-534 299.872,-522 299.872,-522 299.872,-516 305.872,-510 311.872,-510 311.872,-510 356.128,-510 356.128,-510 362.128,-510 368.128,-516 368.128,-522 368.128,-522 368.128,-534 368.128,-534 368.128,-540 362.128,-546 356.128,-546"/>
<text text-anchor="middle" x="334" y="-523.8" font-family="Helvetica,sans-Serif" font-size="14.00">setup_R</text>
</g>
<!-- setup_R&#45;&gt;set_up_configuration_and_start_provenance_tracking -->
<g id="edge1" class="edge"><title>setup_R&#45;&gt;set_up_configuration_and_start_provenance_tracking</title>
<path fill="none" stroke="black" d="M311.258,-509.697C299.56,-500.796 285.139,-489.823 272.49,-480.199"/>
<polygon fill="black" stroke="black" points="274.558,-477.374 264.48,-474.104 270.319,-482.945 274.558,-477.374"/>
</g>
<!-- dir_goal&#45;&gt;read_in_zonal_stats_dataframes -->
<g id="edge4" class="edge"><title>dir_goal&#45;&gt;read_in_zonal_stats_dataframes</title>
<path fill="none" stroke="black" d="M87.5784,-365.876C104.074,-356.639 124.624,-345.131 142.336,-335.212"/>
<polygon fill="black" stroke="black" points="144.289,-338.13 151.304,-330.19 140.869,-332.022 144.289,-338.13"/>
</g>
<!-- zonal_stats_3nm_file -->
<g id="node7" class="node"><title>zonal_stats_3nm_file</title>
<path fill="#ffffcc" stroke="black" d="M243.979,-402C243.979,-402 120.021,-402 120.021,-402 114.021,-402 108.021,-396 108.021,-390 108.021,-390 108.021,-378 108.021,-378 108.021,-372 114.021,-366 120.021,-366 120.021,-366 243.979,-366 243.979,-366 249.979,-366 255.979,-372 255.979,-378 255.979,-378 255.979,-390 255.979,-390 255.979,-396 249.979,-402 243.979,-402"/>
<text text-anchor="middle" x="182" y="-379.8" font-family="Helvetica,sans-Serif" font-size="14.00">zonal_stats_3nm_file</text>
</g>
<!-- zonal_stats_3nm_file&#45;&gt;read_in_zonal_stats_dataframes -->
<g id="edge3" class="edge"><title>zonal_stats_3nm_file&#45;&gt;read_in_zonal_stats_dataframes</title>
<path fill="none" stroke="black" d="M182,-365.697C182,-357.983 182,-348.712 182,-340.112"/>
<polygon fill="black" stroke="black" points="185.5,-340.104 182,-330.104 178.5,-340.104 185.5,-340.104"/>
</g>
<!-- zonal_stats_1km_file -->
<g id="node8" class="node"><title>zonal_stats_1km_file</title>
<path fill="#ffffcc" stroke="black" d="M408.196,-402C408.196,-402 285.804,-402 285.804,-402 279.804,-402 273.804,-396 273.804,-390 273.804,-390 273.804,-378 273.804,-378 273.804,-372 279.804,-366 285.804,-366 285.804,-366 408.196,-366 408.196,-366 414.196,-366 420.196,-372 420.196,-378 420.196,-378 420.196,-390 420.196,-390 420.196,-396 414.196,-402 408.196,-402"/>
<text text-anchor="middle" x="347" y="-379.8" font-family="Helvetica,sans-Serif" font-size="14.00">zonal_stats_1km_file</text>
</g>
<!-- zonal_stats_1km_file&#45;&gt;read_in_zonal_stats_dataframes -->
<g id="edge5" class="edge"><title>zonal_stats_1km_file&#45;&gt;read_in_zonal_stats_dataframes</title>
<path fill="none" stroke="black" d="M306.636,-365.876C283.98,-356.264 255.527,-344.193 231.53,-334.013"/>
<polygon fill="black" stroke="black" points="232.805,-330.752 222.232,-330.068 230.071,-337.196 232.805,-330.752"/>
</g>
<!-- zonal_stats_ws_file -->
<g id="node9" class="node"><title>zonal_stats_ws_file</title>
<path fill="#ffffcc" stroke="black" d="M563.859,-402C563.859,-402 450.141,-402 450.141,-402 444.141,-402 438.141,-396 438.141,-390 438.141,-390 438.141,-378 438.141,-378 438.141,-372 444.141,-366 450.141,-366 450.141,-366 563.859,-366 563.859,-366 569.859,-366 575.859,-372 575.859,-378 575.859,-378 575.859,-390 575.859,-390 575.859,-396 569.859,-402 563.859,-402"/>
<text text-anchor="middle" x="507" y="-379.8" font-family="Helvetica,sans-Serif" font-size="14.00">zonal_stats_ws_file</text>
</g>
<!-- zonal_stats_ws_file&#45;&gt;read_in_zonal_stats_dataframes -->
<g id="edge7" class="edge"><title>zonal_stats_ws_file&#45;&gt;read_in_zonal_stats_dataframes</title>
<path fill="none" stroke="black" d="M438.099,-367.971C435.024,-367.304 431.98,-366.645 429,-366 376.773,-354.705 318.313,-342.157 271.382,-332.107"/>
<polygon fill="black" stroke="black" points="272.06,-328.673 261.549,-330.001 270.595,-335.517 272.06,-328.673"/>
</g>
<!-- stats_3nm&#45;&gt;compute_total_cells_and_cumulaative_total_of_cells_per_region -->
<g id="edge6" class="edge"><title>stats_3nm&#45;&gt;compute_total_cells_and_cumulaative_total_of_cells_per_region</title>
<path fill="none" stroke="black" d="M308.798,-221.697C306.904,-213.898 304.623,-204.509 302.516,-195.829"/>
<polygon fill="black" stroke="black" points="305.915,-194.996 300.154,-186.104 299.113,-196.648 305.915,-194.996"/>
</g>
<!-- stats_1km&#45;&gt;compute_total_cells_and_cumulaative_total_of_cells_per_region -->
<g id="edge8" class="edge"><title>stats_1km&#45;&gt;compute_total_cells_and_cumulaative_total_of_cells_per_region</title>
<path fill="none" stroke="black" d="M165.857,-222.588C189.527,-212.842 219.776,-200.386 245.153,-189.937"/>
<polygon fill="black" stroke="black" points="246.703,-193.084 254.617,-186.04 244.038,-186.611 246.703,-193.084"/>
</g>
<!-- stats_ws&#45;&gt;compute_total_cells_and_cumulaative_total_of_cells_per_region -->
<g id="edge9" class="edge"><title>stats_ws&#45;&gt;compute_total_cells_and_cumulaative_total_of_cells_per_region</title>
<path fill="none" stroke="black" d="M238.034,-221.697C247.545,-213.05 259.207,-202.449 269.57,-193.027"/>
<polygon fill="black" stroke="black" points="272.14,-195.421 277.185,-186.104 267.431,-190.241 272.14,-195.421"/>
</g>
<!-- lsp_thresh&#45;&gt;compute_total_cells_and_cumulaative_total_of_cells_per_region -->
<g id="edge2" class="edge"><title>lsp_thresh&#45;&gt;compute_total_cells_and_cumulaative_total_of_cells_per_region</title>
<path fill="none" stroke="black" d="M409.306,-221.876C388.982,-212.392 363.529,-200.513 341.898,-190.419"/>
<polygon fill="black" stroke="black" points="343.117,-187.126 332.575,-186.068 340.157,-193.469 343.117,-187.126"/>
</g>
<!-- prot_1km_outflow -->
<g id="node19" class="node"><title>prot_1km_outflow</title>
<ellipse fill="none" stroke="black" cx="296" cy="-31" rx="7" ry="7"/>
</g>
<!-- prot_1km&#45;&gt;prot_1km_outflow -->
<g id="edge20" class="edge"><title>prot_1km&#45;&gt;prot_1km_outflow</title>
<path fill="none" stroke="black" d="M296,-77.785C296,-68.6656 296,-57.5197 296,-48.5085"/>
<polygon fill="black" stroke="black" points="299.5,-48.242 296,-38.242 292.5,-48.2421 299.5,-48.242"/>
</g>
<!-- setup_R_inflow -->
<g id="node15" class="node"><title>setup_R_inflow</title>
<ellipse fill="none" stroke="black" cx="459" cy="-593" rx="7" ry="7"/>
</g>
<!-- setup_R_inflow&#45;&gt;setup_R -->
<g id="edge16" class="edge"><title>setup_R_inflow&#45;&gt;setup_R</title>
<path fill="none" stroke="black" d="M452.971,-588.961C439.329,-582.086 405.082,-564.825 376.817,-550.58"/>
<polygon fill="black" stroke="black" points="378.389,-547.453 367.883,-546.077 375.238,-553.703 378.389,-547.453"/>
</g>
<!-- zonal_stats_3nm_file_inflow -->
<g id="node16" class="node"><title>zonal_stats_3nm_file_inflow</title>
<ellipse fill="none" stroke="black" cx="491" cy="-593" rx="7" ry="7"/>
</g>
<!-- zonal_stats_3nm_file_inflow&#45;&gt;zonal_stats_3nm_file -->
<g id="edge17" class="edge"><title>zonal_stats_3nm_file_inflow&#45;&gt;zonal_stats_3nm_file</title>
<path fill="none" stroke="black" d="M492.332,-585.943C496.99,-562.987 510.132,-480.503 469,-438 438.8,-406.794 324.276,-410.098 265.667,-401.837"/>
<polygon fill="black" stroke="black" points="266.179,-398.374 255.746,-400.214 265.049,-405.282 266.179,-398.374"/>
</g>
<!-- zonal_stats_1km_file_inflow -->
<g id="node17" class="node"><title>zonal_stats_1km_file_inflow</title>
<ellipse fill="none" stroke="black" cx="523" cy="-593" rx="7" ry="7"/>
</g>
<!-- zonal_stats_1km_file_inflow&#45;&gt;zonal_stats_1km_file -->
<g id="edge18" class="edge"><title>zonal_stats_1km_file_inflow&#45;&gt;zonal_stats_1km_file</title>
<path fill="none" stroke="black" d="M524.22,-585.831C528.323,-563.161 539.372,-483.427 502,-438 491.93,-425.759 461.242,-414.13 429.801,-404.9"/>
<polygon fill="black" stroke="black" points="430.618,-401.494 420.041,-402.115 428.696,-408.225 430.618,-401.494"/>
</g>
<!-- zonal_stats_ws_file_inflow -->
<g id="node18" class="node"><title>zonal_stats_ws_file_inflow</title>
<ellipse fill="none" stroke="black" cx="555" cy="-593" rx="7" ry="7"/>
</g>
<!-- zonal_stats_ws_file_inflow&#45;&gt;zonal_stats_ws_file -->
<g id="edge19" class="edge"><title>zonal_stats_ws_file_inflow&#45;&gt;zonal_stats_ws_file</title>
<path fill="none" stroke="black" d="M555.381,-585.92C556.503,-564.806 558.637,-492.949 540,-438 536.778,-428.502 531.574,-418.946 526.242,-410.614"/>
<polygon fill="black" stroke="black" points="528.995,-408.437 520.493,-402.115 523.197,-412.359 528.995,-408.437"/>
</g>
</g>
</svg>
