<?xml version="1.0" encoding="UTF-8" standalone="no"?>
<!DOCTYPE svg PUBLIC "-//W3C//DTD SVG 1.1//EN"
 "http://www.w3.org/Graphics/SVG/1.1/DTD/svg11.dtd">
<!-- Generated by graphviz version 2.38.0 (20140413.2041)
 -->
<!-- Title: yw_data_view Pages: 1 -->
<svg width="868pt" height="518pt"
 viewBox="0.00 0.00 868.00 517.60" xmlns="http://www.w3.org/2000/svg" xmlns:xlink="http://www.w3.org/1999/xlink">
<g id="graph0" class="graph" transform="scale(1 1) rotate(0) translate(4 513.6)">
<title>yw_data_view</title>
<polygon fill="white" stroke="none" points="-4,4 -4,-513.6 864,-513.6 864,4 -4,4"/>
<text text-anchor="middle" x="430" y="-489.4" font-family="Courier,monospace" font-size="18.00">lsp_zonal_stats</text>
<g id="clust1" class="cluster"><title>cluster_workflow</title>
<polygon fill="none" stroke="black" stroke-width="2" points="8,-62 8,-418 852,-418 852,-62 8,-62"/>
</g>
<g id="clust2" class="cluster"><title>cluster_workflow_inner</title>
<polygon fill="none" stroke="white" stroke-width="2" points="16,-70 16,-410 844,-410 844,-70 16,-70"/>
</g>
<g id="clust3" class="cluster"><title>cluster_inflows</title>
<polygon fill="none" stroke="white" stroke-width="2" points="336,-426 336,-472 542,-472 542,-426 336,-426"/>
</g>
<g id="clust4" class="cluster"><title>cluster_inflows_inner</title>
<polygon fill="none" stroke="white" stroke-width="2" points="344,-434 344,-464 534,-464 534,-434 344,-434"/>
</g>
<g id="clust5" class="cluster"><title>cluster_outflows</title>
<polygon fill="none" stroke="white" stroke-width="2" points="278,-8 278,-54 388,-54 388,-8 278,-8"/>
</g>
<g id="clust6" class="cluster"><title>cluster_outflows_inner</title>
<polygon fill="none" stroke="white" stroke-width="2" points="286,-16 286,-46 380,-46 380,-16 286,-16"/>
</g>
<!-- set_up_configuration_and_start_provenance_tracking -->
<g id="node1" class="node"><title>set_up_configuration_and_start_provenance_tracking</title>
<polygon fill="#ccffcc" stroke="black" points="835.93,-330 400.07,-330 400.07,-294 835.93,-294 835.93,-330"/>
<text text-anchor="middle" x="618" y="-307.8" font-family="Courier,monospace" font-size="14.00">set_up_configuration_and_start_provenance_tracking</text>
</g>
<!-- dir_goal -->
<g id="node5" class="node"><title>dir_goal</title>
<path fill="#ffffcc" stroke="black" d="M625.787,-258C625.787,-258 584.213,-258 584.213,-258 578.213,-258 572.213,-252 572.213,-246 572.213,-246 572.213,-234 572.213,-234 572.213,-228 578.213,-222 584.213,-222 584.213,-222 625.787,-222 625.787,-222 631.787,-222 637.787,-228 637.787,-234 637.787,-234 637.787,-246 637.787,-246 637.787,-252 631.787,-258 625.787,-258"/>
<text text-anchor="middle" x="605" y="-235.8" font-family="Helvetica,sans-Serif" font-size="14.00">dir_goal</text>
</g>
<!-- set_up_configuration_and_start_provenance_tracking&#45;&gt;dir_goal -->
<g id="edge13" class="edge"><title>set_up_configuration_and_start_provenance_tracking&#45;&gt;dir_goal</title>
<path fill="none" stroke="black" d="M614.787,-293.697C613.354,-285.983 611.632,-276.712 610.035,-268.112"/>
<polygon fill="black" stroke="black" points="613.444,-267.297 608.177,-258.104 606.561,-268.575 613.444,-267.297"/>
</g>
<!-- read_in_OHI_region_rasters -->
<g id="node2" class="node"><title>read_in_OHI_region_rasters</title>
<polygon fill="#ccffcc" stroke="black" points="382.364,-330 147.636,-330 147.636,-294 382.364,-294 382.364,-330"/>
<text text-anchor="middle" x="265" y="-307.8" font-family="Courier,monospace" font-size="14.00">read_in_OHI_region_rasters</text>
</g>
<!-- rast_3nm -->
<g id="node11" class="node"><title>rast_3nm</title>
<path fill="#ffffcc" stroke="black" d="M137.343,-258C137.343,-258 86.657,-258 86.657,-258 80.657,-258 74.657,-252 74.657,-246 74.657,-246 74.657,-234 74.657,-234 74.657,-228 80.657,-222 86.657,-222 86.657,-222 137.343,-222 137.343,-222 143.343,-222 149.343,-228 149.343,-234 149.343,-234 149.343,-246 149.343,-246 149.343,-252 143.343,-258 137.343,-258"/>
<text text-anchor="middle" x="112" y="-235.8" font-family="Helvetica,sans-Serif" font-size="14.00">rast_3nm</text>
</g>
<!-- read_in_OHI_region_rasters&#45;&gt;rast_3nm -->
<g id="edge14" class="edge"><title>read_in_OHI_region_rasters&#45;&gt;rast_3nm</title>
<path fill="none" stroke="black" d="M227.572,-293.876C206.749,-284.349 180.646,-272.407 158.519,-262.283"/>
<polygon fill="black" stroke="black" points="159.856,-259.046 149.306,-258.068 156.944,-265.411 159.856,-259.046"/>
</g>
<!-- rast_1km -->
<g id="node12" class="node"><title>rast_1km</title>
<path fill="#ffffcc" stroke="black" d="M228.561,-258C228.561,-258 179.439,-258 179.439,-258 173.439,-258 167.439,-252 167.439,-246 167.439,-246 167.439,-234 167.439,-234 167.439,-228 173.439,-222 179.439,-222 179.439,-222 228.561,-222 228.561,-222 234.561,-222 240.561,-228 240.561,-234 240.561,-234 240.561,-246 240.561,-246 240.561,-252 234.561,-258 228.561,-258"/>
<text text-anchor="middle" x="204" y="-235.8" font-family="Helvetica,sans-Serif" font-size="14.00">rast_1km</text>
</g>
<!-- read_in_OHI_region_rasters&#45;&gt;rast_1km -->
<g id="edge15" class="edge"><title>read_in_OHI_region_rasters&#45;&gt;rast_1km</title>
<path fill="none" stroke="black" d="M249.921,-293.697C242.608,-285.305 233.69,-275.07 225.665,-265.861"/>
<polygon fill="black" stroke="black" points="228.114,-263.344 218.905,-258.104 222.836,-267.943 228.114,-263.344"/>
</g>
<!-- rast_ws -->
<g id="node13" class="node"><title>rast_ws</title>
<path fill="#ffffcc" stroke="black" d="M311.223,-258C311.223,-258 270.777,-258 270.777,-258 264.777,-258 258.777,-252 258.777,-246 258.777,-246 258.777,-234 258.777,-234 258.777,-228 264.777,-222 270.777,-222 270.777,-222 311.223,-222 311.223,-222 317.223,-222 323.223,-228 323.223,-234 323.223,-234 323.223,-246 323.223,-246 323.223,-252 317.223,-258 311.223,-258"/>
<text text-anchor="middle" x="291" y="-235.8" font-family="Helvetica,sans-Serif" font-size="14.00">rast_ws</text>
</g>
<!-- read_in_OHI_region_rasters&#45;&gt;rast_ws -->
<g id="edge16" class="edge"><title>read_in_OHI_region_rasters&#45;&gt;rast_ws</title>
<path fill="none" stroke="black" d="M271.427,-293.697C274.355,-285.813 277.887,-276.304 281.14,-267.546"/>
<polygon fill="black" stroke="black" points="284.446,-268.697 284.647,-258.104 277.884,-266.26 284.446,-268.697"/>
</g>
<!-- rast_pep -->
<g id="node14" class="node"><title>rast_pep</title>
<path fill="#ffffcc" stroke="black" d="M399.466,-258C399.466,-258 352.534,-258 352.534,-258 346.534,-258 340.534,-252 340.534,-246 340.534,-246 340.534,-234 340.534,-234 340.534,-228 346.534,-222 352.534,-222 352.534,-222 399.466,-222 399.466,-222 405.466,-222 411.466,-228 411.466,-234 411.466,-234 411.466,-246 411.466,-246 411.466,-252 405.466,-258 399.466,-258"/>
<text text-anchor="middle" x="376" y="-235.8" font-family="Helvetica,sans-Serif" font-size="14.00">rast_pep</text>
</g>
<!-- read_in_OHI_region_rasters&#45;&gt;rast_pep -->
<g id="edge17" class="edge"><title>read_in_OHI_region_rasters&#45;&gt;rast_pep</title>
<path fill="none" stroke="black" d="M292.154,-293.876C306.533,-284.808 324.381,-273.552 339.91,-263.759"/>
<polygon fill="black" stroke="black" points="342.15,-266.484 348.742,-258.19 338.416,-260.564 342.15,-266.484"/>
</g>
<!-- rast_wdpa_pep -->
<g id="node15" class="node"><title>rast_wdpa_pep</title>
<path fill="#ffffcc" stroke="black" d="M528.702,-258C528.702,-258 441.298,-258 441.298,-258 435.298,-258 429.298,-252 429.298,-246 429.298,-246 429.298,-234 429.298,-234 429.298,-228 435.298,-222 441.298,-222 441.298,-222 528.702,-222 528.702,-222 534.702,-222 540.702,-228 540.702,-234 540.702,-234 540.702,-246 540.702,-246 540.702,-252 534.702,-258 528.702,-258"/>
<text text-anchor="middle" x="485" y="-235.8" font-family="Helvetica,sans-Serif" font-size="14.00">rast_wdpa_pep</text>
</g>
<!-- read_in_OHI_region_rasters&#45;&gt;rast_wdpa_pep -->
<g id="edge18" class="edge"><title>read_in_OHI_region_rasters&#45;&gt;rast_wdpa_pep</title>
<path fill="none" stroke="black" d="M318.537,-293.966C349.543,-284.1 388.761,-271.622 421.341,-261.255"/>
<polygon fill="black" stroke="black" points="422.755,-264.478 431.223,-258.111 420.633,-257.808 422.755,-264.478"/>
</g>
<!-- outputs_zonal_stats_dataframes_for_protected_cells -->
<g id="node3" class="node"><title>outputs_zonal_stats_dataframes_for_protected_cells</title>
<polygon fill="#ccffcc" stroke="black" points="550.93,-186 115.07,-186 115.07,-150 550.93,-150 550.93,-186"/>
<text text-anchor="middle" x="333" y="-163.8" font-family="Courier,monospace" font-size="14.00">outputs_zonal_stats_dataframes_for_protected_cells</text>
</g>
<!-- zonal_3nm_file -->
<g id="node16" class="node"><title>zonal_3nm_file</title>
<path fill="#ffffcc" stroke="black" d="M248.132,-114C248.132,-114 161.868,-114 161.868,-114 155.868,-114 149.868,-108 149.868,-102 149.868,-102 149.868,-90 149.868,-90 149.868,-84 155.868,-78 161.868,-78 161.868,-78 248.132,-78 248.132,-78 254.132,-78 260.132,-84 260.132,-90 260.132,-90 260.132,-102 260.132,-102 260.132,-108 254.132,-114 248.132,-114"/>
<text text-anchor="middle" x="205" y="-91.8" font-family="Helvetica,sans-Serif" font-size="14.00">zonal_3nm_file</text>
</g>
<!-- outputs_zonal_stats_dataframes_for_protected_cells&#45;&gt;zonal_3nm_file -->
<g id="edge19" class="edge"><title>outputs_zonal_stats_dataframes_for_protected_cells&#45;&gt;zonal_3nm_file</title>
<path fill="none" stroke="black" d="M301.688,-149.876C284.797,-140.639 263.753,-129.131 245.615,-119.212"/>
<polygon fill="black" stroke="black" points="246.886,-115.917 236.433,-114.19 243.527,-122.059 246.886,-115.917"/>
</g>
<!-- zonal_1km_file -->
<g id="node17" class="node"><title>zonal_1km_file</title>
<path fill="#ffffcc" stroke="black" d="M375.85,-114C375.85,-114 290.15,-114 290.15,-114 284.15,-114 278.15,-108 278.15,-102 278.15,-102 278.15,-90 278.15,-90 278.15,-84 284.15,-78 290.15,-78 290.15,-78 375.85,-78 375.85,-78 381.85,-78 387.85,-84 387.85,-90 387.85,-90 387.85,-102 387.85,-102 387.85,-108 381.85,-114 375.85,-114"/>
<text text-anchor="middle" x="333" y="-91.8" font-family="Helvetica,sans-Serif" font-size="14.00">zonal_1km_file</text>
</g>
<!-- outputs_zonal_stats_dataframes_for_protected_cells&#45;&gt;zonal_1km_file -->
<g id="edge20" class="edge"><title>outputs_zonal_stats_dataframes_for_protected_cells&#45;&gt;zonal_1km_file</title>
<path fill="none" stroke="black" d="M333,-149.697C333,-141.983 333,-132.712 333,-124.112"/>
<polygon fill="black" stroke="black" points="336.5,-124.104 333,-114.104 329.5,-124.104 336.5,-124.104"/>
</g>
<!-- zonal_ws_file -->
<g id="node18" class="node"><title>zonal_ws_file</title>
<path fill="#ffffcc" stroke="black" d="M494.013,-114C494.013,-114 417.987,-114 417.987,-114 411.987,-114 405.987,-108 405.987,-102 405.987,-102 405.987,-90 405.987,-90 405.987,-84 411.987,-78 417.987,-78 417.987,-78 494.013,-78 494.013,-78 500.013,-78 506.013,-84 506.013,-90 506.013,-90 506.013,-102 506.013,-102 506.013,-108 500.013,-114 494.013,-114"/>
<text text-anchor="middle" x="456" y="-91.8" font-family="Helvetica,sans-Serif" font-size="14.00">zonal_ws_file</text>
</g>
<!-- outputs_zonal_stats_dataframes_for_protected_cells&#45;&gt;zonal_ws_file -->
<g id="edge21" class="edge"><title>outputs_zonal_stats_dataframes_for_protected_cells&#45;&gt;zonal_ws_file</title>
<path fill="none" stroke="black" d="M363.089,-149.876C379.32,-140.639 399.542,-129.131 416.971,-119.212"/>
<polygon fill="black" stroke="black" points="418.835,-122.178 425.795,-114.19 415.373,-116.094 418.835,-122.178"/>
</g>
<!-- setup_R -->
<g id="node4" class="node"><title>setup_R</title>
<path fill="#ffffcc" stroke="black" d="M824.128,-402C824.128,-402 779.872,-402 779.872,-402 773.872,-402 767.872,-396 767.872,-390 767.872,-390 767.872,-378 767.872,-378 767.872,-372 773.872,-366 779.872,-366 779.872,-366 824.128,-366 824.128,-366 830.128,-366 836.128,-372 836.128,-378 836.128,-378 836.128,-390 836.128,-390 836.128,-396 830.128,-402 824.128,-402"/>
<text text-anchor="middle" x="802" y="-379.8" font-family="Helvetica,sans-Serif" font-size="14.00">setup_R</text>
</g>
<!-- setup_R&#45;&gt;set_up_configuration_and_start_provenance_tracking -->
<g id="edge1" class="edge"><title>setup_R&#45;&gt;set_up_configuration_and_start_provenance_tracking</title>
<path fill="none" stroke="black" d="M767.753,-369.4C764.795,-368.244 761.846,-367.097 759,-366 730.981,-355.196 699.729,-343.421 673.781,-333.719"/>
<polygon fill="black" stroke="black" points="674.707,-330.329 664.114,-330.109 672.258,-336.887 674.707,-330.329"/>
</g>
<!-- dir_goal&#45;&gt;outputs_zonal_stats_dataframes_for_protected_cells -->
<g id="edge2" class="edge"><title>dir_goal&#45;&gt;outputs_zonal_stats_dataframes_for_protected_cells</title>
<path fill="none" stroke="black" d="M571.939,-228.428C564.732,-226.222 557.129,-223.97 550,-222 506.489,-209.974 457.683,-197.927 417.392,-188.364"/>
<polygon fill="black" stroke="black" points="418.144,-184.945 407.607,-186.05 416.533,-191.757 418.144,-184.945"/>
</g>
<!-- rast_3nm_raster_file -->
<g id="node6" class="node"><title>rast_3nm_raster_file</title>
<path fill="#ffffcc" stroke="black" d="M737.571,-402C737.571,-402 618.429,-402 618.429,-402 612.429,-402 606.429,-396 606.429,-390 606.429,-390 606.429,-378 606.429,-378 606.429,-372 612.429,-366 618.429,-366 618.429,-366 737.571,-366 737.571,-366 743.571,-366 749.571,-372 749.571,-378 749.571,-378 749.571,-390 749.571,-390 749.571,-396 743.571,-402 737.571,-402"/>
<text text-anchor="middle" x="678" y="-379.8" font-family="Helvetica,sans-Serif" font-size="14.00">rast_3nm_raster_file</text>
</g>
<!-- rast_3nm_raster_file&#45;&gt;read_in_OHI_region_rasters -->
<g id="edge3" class="edge"><title>rast_3nm_raster_file&#45;&gt;read_in_OHI_region_rasters</title>
<path fill="none" stroke="black" d="M606.047,-367.71C602.993,-367.12 599.967,-366.548 597,-366 529.036,-353.451 452.916,-341.172 390.725,-331.598"/>
<polygon fill="black" stroke="black" points="390.887,-328.082 380.472,-330.024 389.825,-335.001 390.887,-328.082"/>
</g>
<!-- rast_1km_raster_file -->
<g id="node7" class="node"><title>rast_1km_raster_file</title>
<path fill="#ffffcc" stroke="black" d="M576.288,-402C576.288,-402 457.712,-402 457.712,-402 451.712,-402 445.712,-396 445.712,-390 445.712,-390 445.712,-378 445.712,-378 445.712,-372 451.712,-366 457.712,-366 457.712,-366 576.288,-366 576.288,-366 582.288,-366 588.288,-372 588.288,-378 588.288,-378 588.288,-390 588.288,-390 588.288,-396 582.288,-402 576.288,-402"/>
<text text-anchor="middle" x="517" y="-379.8" font-family="Helvetica,sans-Serif" font-size="14.00">rast_1km_raster_file</text>
</g>
<!-- rast_1km_raster_file&#45;&gt;read_in_OHI_region_rasters -->
<g id="edge4" class="edge"><title>rast_1km_raster_file&#45;&gt;read_in_OHI_region_rasters</title>
<path fill="none" stroke="black" d="M455.676,-365.966C419.701,-355.972 374.074,-343.298 336.474,-332.854"/>
<polygon fill="black" stroke="black" points="337.171,-329.415 326.599,-330.111 335.297,-336.16 337.171,-329.415"/>
</g>
<!-- rast_ws_raster_file -->
<g id="node8" class="node"><title>rast_ws_raster_file</title>
<path fill="#ffffcc" stroke="black" d="M415.952,-402C415.952,-402 306.048,-402 306.048,-402 300.048,-402 294.048,-396 294.048,-390 294.048,-390 294.048,-378 294.048,-378 294.048,-372 300.048,-366 306.048,-366 306.048,-366 415.952,-366 415.952,-366 421.952,-366 427.952,-372 427.952,-378 427.952,-378 427.952,-390 427.952,-390 427.952,-396 421.952,-402 415.952,-402"/>
<text text-anchor="middle" x="361" y="-379.8" font-family="Helvetica,sans-Serif" font-size="14.00">rast_ws_raster_file</text>
</g>
<!-- rast_ws_raster_file&#45;&gt;read_in_OHI_region_rasters -->
<g id="edge5" class="edge"><title>rast_ws_raster_file&#45;&gt;read_in_OHI_region_rasters</title>
<path fill="none" stroke="black" d="M337.27,-365.697C325.063,-356.796 310.015,-345.823 296.816,-336.199"/>
<polygon fill="black" stroke="black" points="298.6,-333.168 288.457,-330.104 294.475,-338.824 298.6,-333.168"/>
</g>
<!-- rast_pep_file -->
<g id="node9" class="node"><title>rast_pep_file</title>
<path fill="#ffffcc" stroke="black" d="M264.133,-402C264.133,-402 191.867,-402 191.867,-402 185.867,-402 179.867,-396 179.867,-390 179.867,-390 179.867,-378 179.867,-378 179.867,-372 185.867,-366 191.867,-366 191.867,-366 264.133,-366 264.133,-366 270.133,-366 276.133,-372 276.133,-378 276.133,-378 276.133,-390 276.133,-390 276.133,-396 270.133,-402 264.133,-402"/>
<text text-anchor="middle" x="228" y="-379.8" font-family="Helvetica,sans-Serif" font-size="14.00">rast_pep_file</text>
</g>
<!-- rast_pep_file&#45;&gt;read_in_OHI_region_rasters -->
<g id="edge6" class="edge"><title>rast_pep_file&#45;&gt;read_in_OHI_region_rasters</title>
<path fill="none" stroke="black" d="M237.146,-365.697C241.403,-357.644 246.556,-347.894 251.266,-338.982"/>
<polygon fill="black" stroke="black" points="254.38,-340.581 255.959,-330.104 248.192,-337.31 254.38,-340.581"/>
</g>
<!-- rast_wdpa_pep_file -->
<g id="node10" class="node"><title>rast_wdpa_pep_file</title>
<path fill="#ffffcc" stroke="black" d="M149.871,-402C149.871,-402 36.1293,-402 36.1293,-402 30.1293,-402 24.1293,-396 24.1293,-390 24.1293,-390 24.1293,-378 24.1293,-378 24.1293,-372 30.1293,-366 36.1293,-366 36.1293,-366 149.871,-366 149.871,-366 155.871,-366 161.871,-372 161.871,-378 161.871,-378 161.871,-390 161.871,-390 161.871,-396 155.871,-402 149.871,-402"/>
<text text-anchor="middle" x="93" y="-379.8" font-family="Helvetica,sans-Serif" font-size="14.00">rast_wdpa_pep_file</text>
</g>
<!-- rast_wdpa_pep_file&#45;&gt;read_in_OHI_region_rasters -->
<g id="edge7" class="edge"><title>rast_wdpa_pep_file&#45;&gt;read_in_OHI_region_rasters</title>
<path fill="none" stroke="black" d="M135.076,-365.876C158.798,-356.222 188.616,-344.087 213.701,-333.878"/>
<polygon fill="black" stroke="black" points="215.118,-337.08 223.061,-330.068 212.479,-330.596 215.118,-337.08"/>
</g>
<!-- rast_3nm&#45;&gt;outputs_zonal_stats_dataframes_for_protected_cells -->
<g id="edge8" class="edge"><title>rast_3nm&#45;&gt;outputs_zonal_stats_dataframes_for_protected_cells</title>
<path fill="none" stroke="black" d="M149.34,-224.988C152.263,-223.956 155.175,-222.949 158,-222 192.635,-210.367 231.499,-198.481 263.789,-188.922"/>
<polygon fill="black" stroke="black" points="264.986,-192.218 273.588,-186.032 263.006,-185.504 264.986,-192.218"/>
</g>
<!-- rast_1km&#45;&gt;outputs_zonal_stats_dataframes_for_protected_cells -->
<g id="edge9" class="edge"><title>rast_1km&#45;&gt;outputs_zonal_stats_dataframes_for_protected_cells</title>
<path fill="none" stroke="black" d="M235.557,-221.876C252.658,-212.596 273.982,-201.025 292.319,-191.075"/>
<polygon fill="black" stroke="black" points="294.202,-194.035 301.322,-186.19 290.863,-187.883 294.202,-194.035"/>
</g>
<!-- rast_ws&#45;&gt;outputs_zonal_stats_dataframes_for_protected_cells -->
<g id="edge10" class="edge"><title>rast_ws&#45;&gt;outputs_zonal_stats_dataframes_for_protected_cells</title>
<path fill="none" stroke="black" d="M301.382,-221.697C306.265,-213.559 312.187,-203.689 317.579,-194.701"/>
<polygon fill="black" stroke="black" points="320.594,-196.48 322.737,-186.104 314.591,-192.879 320.594,-196.48"/>
</g>
<!-- rast_pep&#45;&gt;outputs_zonal_stats_dataframes_for_protected_cells -->
<g id="edge11" class="edge"><title>rast_pep&#45;&gt;outputs_zonal_stats_dataframes_for_protected_cells</title>
<path fill="none" stroke="black" d="M365.371,-221.697C360.372,-213.559 354.309,-203.689 348.788,-194.701"/>
<polygon fill="black" stroke="black" points="351.723,-192.793 343.507,-186.104 345.759,-196.457 351.723,-192.793"/>
</g>
<!-- rast_wdpa_pep&#45;&gt;outputs_zonal_stats_dataframes_for_protected_cells -->
<g id="edge12" class="edge"><title>rast_wdpa_pep&#45;&gt;outputs_zonal_stats_dataframes_for_protected_cells</title>
<path fill="none" stroke="black" d="M447.817,-221.876C427.13,-212.349 401.198,-200.407 379.215,-190.283"/>
<polygon fill="black" stroke="black" points="380.61,-187.072 370.063,-186.068 377.682,-193.43 380.61,-187.072"/>
</g>
<!-- zonal_3nm_file_outflow -->
<g id="node27" class="node"><title>zonal_3nm_file_outflow</title>
<ellipse fill="none" stroke="black" cx="301" cy="-31" rx="7" ry="7"/>
</g>
<!-- zonal_3nm_file&#45;&gt;zonal_3nm_file_outflow -->
<g id="edge30" class="edge"><title>zonal_3nm_file&#45;&gt;zonal_3nm_file_outflow</title>
<path fill="none" stroke="black" d="M230.979,-77.9513C249.026,-66.108 272.375,-50.7851 287.024,-41.1721"/>
<polygon fill="black" stroke="black" points="289.162,-43.9548 295.603,-35.542 285.322,-38.1025 289.162,-43.9548"/>
</g>
<!-- zonal_1km_file_outflow -->
<g id="node26" class="node"><title>zonal_1km_file_outflow</title>
<ellipse fill="none" stroke="black" cx="333" cy="-31" rx="7" ry="7"/>
</g>
<!-- zonal_1km_file&#45;&gt;zonal_1km_file_outflow -->
<g id="edge29" class="edge"><title>zonal_1km_file&#45;&gt;zonal_1km_file_outflow</title>
<path fill="none" stroke="black" d="M333,-77.785C333,-68.6656 333,-57.5197 333,-48.5085"/>
<polygon fill="black" stroke="black" points="336.5,-48.242 333,-38.242 329.5,-48.2421 336.5,-48.242"/>
</g>
<!-- zonal_ws_file_outflow -->
<g id="node25" class="node"><title>zonal_ws_file_outflow</title>
<ellipse fill="none" stroke="black" cx="365" cy="-31" rx="7" ry="7"/>
</g>
<!-- zonal_ws_file&#45;&gt;zonal_ws_file_outflow -->
<g id="edge28" class="edge"><title>zonal_ws_file&#45;&gt;zonal_ws_file_outflow</title>
<path fill="none" stroke="black" d="M431.134,-77.785C414.365,-66.1757 392.852,-51.2822 378.996,-41.6894"/>
<polygon fill="black" stroke="black" points="380.651,-38.5784 370.437,-35.7639 376.666,-44.3338 380.651,-38.5784"/>
</g>
<!-- setup_R_inflow -->
<g id="node19" class="node"><title>setup_R_inflow</title>
<ellipse fill="none" stroke="black" cx="519" cy="-449" rx="7" ry="7"/>
</g>
<!-- setup_R_inflow&#45;&gt;setup_R -->
<g id="edge22" class="edge"><title>setup_R_inflow&#45;&gt;setup_R</title>
<path fill="none" stroke="black" d="M526.307,-447.603C561.666,-445.603 715.104,-436.016 759,-418 764.942,-415.561 770.771,-412.078 776.127,-408.279"/>
<polygon fill="black" stroke="black" points="778.3,-411.023 784.099,-402.156 774.037,-405.471 778.3,-411.023"/>
</g>
<!-- rast_3nm_raster_file_inflow -->
<g id="node20" class="node"><title>rast_3nm_raster_file_inflow</title>
<ellipse fill="none" stroke="black" cx="487" cy="-449" rx="7" ry="7"/>
</g>
<!-- rast_3nm_raster_file_inflow&#45;&gt;rast_3nm_raster_file -->
<g id="edge23" class="edge"><title>rast_3nm_raster_file_inflow&#45;&gt;rast_3nm_raster_file</title>
<path fill="none" stroke="black" d="M489.479,-442.208C492.045,-436.997 496.583,-429.619 503,-426 521.261,-415.703 576.616,-422.9 597,-418 609.111,-415.089 621.778,-410.655 633.4,-405.973"/>
<polygon fill="black" stroke="black" points="635.005,-409.096 642.882,-402.01 632.306,-402.637 635.005,-409.096"/>
</g>
<!-- rast_1km_raster_file_inflow -->
<g id="node21" class="node"><title>rast_1km_raster_file_inflow</title>
<ellipse fill="none" stroke="black" cx="455" cy="-449" rx="7" ry="7"/>
</g>
<!-- rast_1km_raster_file_inflow&#45;&gt;rast_1km_raster_file -->
<g id="edge24" class="edge"><title>rast_1km_raster_file_inflow&#45;&gt;rast_1km_raster_file</title>
<path fill="none" stroke="black" d="M458.391,-442.692C461.445,-438.08 466.182,-431.321 471,-426 476.233,-420.221 482.214,-414.409 488.093,-409.053"/>
<polygon fill="black" stroke="black" points="490.804,-411.327 495.968,-402.075 486.162,-406.087 490.804,-411.327"/>
</g>
<!-- rast_ws_raster_file_inflow -->
<g id="node22" class="node"><title>rast_ws_raster_file_inflow</title>
<ellipse fill="none" stroke="black" cx="423" cy="-449" rx="7" ry="7"/>
</g>
<!-- rast_ws_raster_file_inflow&#45;&gt;rast_ws_raster_file -->
<g id="edge25" class="edge"><title>rast_ws_raster_file_inflow&#45;&gt;rast_ws_raster_file</title>
<path fill="none" stroke="black" d="M419.609,-442.692C416.555,-438.08 411.818,-431.321 407,-426 401.767,-420.221 395.786,-414.409 389.907,-409.053"/>
<polygon fill="black" stroke="black" points="391.838,-406.087 382.032,-402.075 387.196,-411.327 391.838,-406.087"/>
</g>
<!-- rast_pep_file_inflow -->
<g id="node23" class="node"><title>rast_pep_file_inflow</title>
<ellipse fill="none" stroke="black" cx="391" cy="-449" rx="7" ry="7"/>
</g>
<!-- rast_pep_file_inflow&#45;&gt;rast_pep_file -->
<g id="edge26" class="edge"><title>rast_pep_file_inflow&#45;&gt;rast_pep_file</title>
<path fill="none" stroke="black" d="M388.518,-442.214C385.95,-437.006 381.411,-429.631 375,-426 357.529,-416.105 304.142,-424.063 285,-418 276.773,-415.394 268.443,-411.457 260.786,-407.2"/>
<polygon fill="black" stroke="black" points="262.545,-404.174 252.152,-402.116 258.993,-410.206 262.545,-404.174"/>
</g>
<!-- rast_wdpa_pep_file_inflow -->
<g id="node24" class="node"><title>rast_wdpa_pep_file_inflow</title>
<ellipse fill="none" stroke="black" cx="359" cy="-449" rx="7" ry="7"/>
</g>
<!-- rast_wdpa_pep_file_inflow&#45;&gt;rast_wdpa_pep_file -->
<g id="edge27" class="edge"><title>rast_wdpa_pep_file_inflow&#45;&gt;rast_wdpa_pep_file</title>
<path fill="none" stroke="black" d="M352.04,-447.5C327.088,-445.579 239.944,-437.769 171,-418 160.07,-414.866 148.627,-410.614 137.977,-406.206"/>
<polygon fill="black" stroke="black" points="139.028,-402.85 128.457,-402.142 136.279,-409.287 139.028,-402.85"/>
</g>
</g>
</svg>
