<?xml version="1.0" encoding="UTF-8" standalone="no"?>
<!DOCTYPE svg PUBLIC "-//W3C//DTD SVG 1.1//EN"
 "http://www.w3.org/Graphics/SVG/1.1/DTD/svg11.dtd">
<!-- Generated by graphviz version 2.38.0 (20140413.2041)
 -->
<!-- Title: yw_data_view Pages: 1 -->
<svg width="522pt" height="518pt"
 viewBox="0.00 0.00 522.00 517.60" xmlns="http://www.w3.org/2000/svg" xmlns:xlink="http://www.w3.org/1999/xlink">
<g id="graph0" class="graph" transform="scale(1 1) rotate(0) translate(4 513.6)">
<title>yw_data_view</title>
<polygon fill="white" stroke="none" points="-4,4 -4,-513.6 518,-513.6 518,4 -4,4"/>
<text text-anchor="middle" x="257" y="-489.4" font-family="Courier,monospace" font-size="18.00">lsp_zonal_stats</text>
<g id="clust1" class="cluster"><title>cluster_workflow</title>
<polygon fill="none" stroke="black" stroke-width="2" points="8,-62 8,-418 506,-418 506,-62 8,-62"/>
</g>
<g id="clust2" class="cluster"><title>cluster_workflow_inner</title>
<polygon fill="none" stroke="white" stroke-width="2" points="16,-70 16,-410 498,-410 498,-70 16,-70"/>
</g>
<g id="clust3" class="cluster"><title>cluster_inflows</title>
<polygon fill="none" stroke="white" stroke-width="2" points="217,-426 217,-472 263,-472 263,-426 217,-426"/>
</g>
<g id="clust4" class="cluster"><title>cluster_inflows_inner</title>
<polygon fill="none" stroke="white" stroke-width="2" points="225,-434 225,-464 255,-464 255,-434 225,-434"/>
</g>
<g id="clust5" class="cluster"><title>cluster_outflows</title>
<polygon fill="none" stroke="white" stroke-width="2" points="187,-8 187,-54 297,-54 297,-8 187,-8"/>
</g>
<g id="clust6" class="cluster"><title>cluster_outflows_inner</title>
<polygon fill="none" stroke="white" stroke-width="2" points="195,-16 195,-46 289,-46 289,-16 195,-16"/>
</g>
<!-- outputs_zonal_stats_dataframes_for_protected_cells -->
<g id="node1" class="node"><title>outputs_zonal_stats_dataframes_for_protected_cells</title>
<polygon fill="#ccffcc" stroke="black" points="459.93,-186 24.07,-186 24.07,-150 459.93,-150 459.93,-186"/>
<text text-anchor="middle" x="242" y="-163.8" font-family="Courier,monospace" font-size="14.00">outputs_zonal_stats_dataframes_for_protected_cells</text>
</g>
<!-- zonal_3nm_file -->
<g id="node9" class="node"><title>zonal_3nm_file</title>
<path fill="#ffffcc" stroke="black" d="M157.132,-114C157.132,-114 70.8681,-114 70.8681,-114 64.8681,-114 58.8681,-108 58.8681,-102 58.8681,-102 58.8681,-90 58.8681,-90 58.8681,-84 64.8681,-78 70.8681,-78 70.8681,-78 157.132,-78 157.132,-78 163.132,-78 169.132,-84 169.132,-90 169.132,-90 169.132,-102 169.132,-102 169.132,-108 163.132,-114 157.132,-114"/>
<text text-anchor="middle" x="114" y="-91.8" font-family="Helvetica,sans-Serif" font-size="14.00">zonal_3nm_file</text>
</g>
<!-- outputs_zonal_stats_dataframes_for_protected_cells&#45;&gt;zonal_3nm_file -->
<g id="edge3" class="edge"><title>outputs_zonal_stats_dataframes_for_protected_cells&#45;&gt;zonal_3nm_file</title>
<path fill="none" stroke="black" d="M210.688,-149.876C193.797,-140.639 172.753,-129.131 154.615,-119.212"/>
<polygon fill="black" stroke="black" points="155.886,-115.917 145.433,-114.19 152.527,-122.059 155.886,-115.917"/>
</g>
<!-- zonal_1km_file -->
<g id="node10" class="node"><title>zonal_1km_file</title>
<path fill="#ffffcc" stroke="black" d="M284.85,-114C284.85,-114 199.15,-114 199.15,-114 193.15,-114 187.15,-108 187.15,-102 187.15,-102 187.15,-90 187.15,-90 187.15,-84 193.15,-78 199.15,-78 199.15,-78 284.85,-78 284.85,-78 290.85,-78 296.85,-84 296.85,-90 296.85,-90 296.85,-102 296.85,-102 296.85,-108 290.85,-114 284.85,-114"/>
<text text-anchor="middle" x="242" y="-91.8" font-family="Helvetica,sans-Serif" font-size="14.00">zonal_1km_file</text>
</g>
<!-- outputs_zonal_stats_dataframes_for_protected_cells&#45;&gt;zonal_1km_file -->
<g id="edge2" class="edge"><title>outputs_zonal_stats_dataframes_for_protected_cells&#45;&gt;zonal_1km_file</title>
<path fill="none" stroke="black" d="M242,-149.697C242,-141.983 242,-132.712 242,-124.112"/>
<polygon fill="black" stroke="black" points="245.5,-124.104 242,-114.104 238.5,-124.104 245.5,-124.104"/>
</g>
<!-- zonal_ws_file -->
<g id="node11" class="node"><title>zonal_ws_file</title>
<path fill="#ffffcc" stroke="black" d="M403.013,-114C403.013,-114 326.987,-114 326.987,-114 320.987,-114 314.987,-108 314.987,-102 314.987,-102 314.987,-90 314.987,-90 314.987,-84 320.987,-78 326.987,-78 326.987,-78 403.013,-78 403.013,-78 409.013,-78 415.013,-84 415.013,-90 415.013,-90 415.013,-102 415.013,-102 415.013,-108 409.013,-114 403.013,-114"/>
<text text-anchor="middle" x="365" y="-91.8" font-family="Helvetica,sans-Serif" font-size="14.00">zonal_ws_file</text>
</g>
<!-- outputs_zonal_stats_dataframes_for_protected_cells&#45;&gt;zonal_ws_file -->
<g id="edge1" class="edge"><title>outputs_zonal_stats_dataframes_for_protected_cells&#45;&gt;zonal_ws_file</title>
<path fill="none" stroke="black" d="M272.089,-149.876C288.32,-140.639 308.542,-129.131 325.971,-119.212"/>
<polygon fill="black" stroke="black" points="327.835,-122.178 334.795,-114.19 324.373,-116.094 327.835,-122.178"/>
</g>
<!-- read_in_OHI_region_rasters -->
<g id="node2" class="node"><title>read_in_OHI_region_rasters</title>
<polygon fill="#ccffcc" stroke="black" points="357.364,-330 122.636,-330 122.636,-294 357.364,-294 357.364,-330"/>
<text text-anchor="middle" x="240" y="-307.8" font-family="Courier,monospace" font-size="14.00">read_in_OHI_region_rasters</text>
</g>
<!-- rast_3nm -->
<g id="node4" class="node"><title>rast_3nm</title>
<path fill="#ffffcc" stroke="black" d="M86.343,-258C86.343,-258 35.657,-258 35.657,-258 29.657,-258 23.657,-252 23.657,-246 23.657,-246 23.657,-234 23.657,-234 23.657,-228 29.657,-222 35.657,-222 35.657,-222 86.343,-222 86.343,-222 92.343,-222 98.343,-228 98.343,-234 98.343,-234 98.343,-246 98.343,-246 98.343,-252 92.343,-258 86.343,-258"/>
<text text-anchor="middle" x="61" y="-235.8" font-family="Helvetica,sans-Serif" font-size="14.00">rast_3nm</text>
</g>
<!-- read_in_OHI_region_rasters&#45;&gt;rast_3nm -->
<g id="edge8" class="edge"><title>read_in_OHI_region_rasters&#45;&gt;rast_3nm</title>
<path fill="none" stroke="black" d="M196.212,-293.876C169.362,-283.376 135.01,-269.942 107.65,-259.243"/>
<polygon fill="black" stroke="black" points="108.876,-255.964 98.2877,-255.582 106.326,-262.483 108.876,-255.964"/>
</g>
<!-- rast_1km -->
<g id="node5" class="node"><title>rast_1km</title>
<path fill="#ffffcc" stroke="black" d="M177.561,-258C177.561,-258 128.439,-258 128.439,-258 122.439,-258 116.439,-252 116.439,-246 116.439,-246 116.439,-234 116.439,-234 116.439,-228 122.439,-222 128.439,-222 128.439,-222 177.561,-222 177.561,-222 183.561,-222 189.561,-228 189.561,-234 189.561,-234 189.561,-246 189.561,-246 189.561,-252 183.561,-258 177.561,-258"/>
<text text-anchor="middle" x="153" y="-235.8" font-family="Helvetica,sans-Serif" font-size="14.00">rast_1km</text>
</g>
<!-- read_in_OHI_region_rasters&#45;&gt;rast_1km -->
<g id="edge7" class="edge"><title>read_in_OHI_region_rasters&#45;&gt;rast_1km</title>
<path fill="none" stroke="black" d="M218.494,-293.697C207.537,-284.881 194.054,-274.032 182.175,-264.474"/>
<polygon fill="black" stroke="black" points="184.244,-261.646 174.258,-258.104 179.855,-267.1 184.244,-261.646"/>
</g>
<!-- rast_ws -->
<g id="node6" class="node"><title>rast_ws</title>
<path fill="#ffffcc" stroke="black" d="M260.223,-258C260.223,-258 219.777,-258 219.777,-258 213.777,-258 207.777,-252 207.777,-246 207.777,-246 207.777,-234 207.777,-234 207.777,-228 213.777,-222 219.777,-222 219.777,-222 260.223,-222 260.223,-222 266.223,-222 272.223,-228 272.223,-234 272.223,-234 272.223,-246 272.223,-246 272.223,-252 266.223,-258 260.223,-258"/>
<text text-anchor="middle" x="240" y="-235.8" font-family="Helvetica,sans-Serif" font-size="14.00">rast_ws</text>
</g>
<!-- read_in_OHI_region_rasters&#45;&gt;rast_ws -->
<g id="edge6" class="edge"><title>read_in_OHI_region_rasters&#45;&gt;rast_ws</title>
<path fill="none" stroke="black" d="M240,-293.697C240,-285.983 240,-276.712 240,-268.112"/>
<polygon fill="black" stroke="black" points="243.5,-268.104 240,-258.104 236.5,-268.104 243.5,-268.104"/>
</g>
<!-- rast_pep -->
<g id="node7" class="node"><title>rast_pep</title>
<path fill="#ffffcc" stroke="black" d="M348.466,-258C348.466,-258 301.534,-258 301.534,-258 295.534,-258 289.534,-252 289.534,-246 289.534,-246 289.534,-234 289.534,-234 289.534,-228 295.534,-222 301.534,-222 301.534,-222 348.466,-222 348.466,-222 354.466,-222 360.466,-228 360.466,-234 360.466,-234 360.466,-246 360.466,-246 360.466,-252 354.466,-258 348.466,-258"/>
<text text-anchor="middle" x="325" y="-235.8" font-family="Helvetica,sans-Serif" font-size="14.00">rast_pep</text>
</g>
<!-- read_in_OHI_region_rasters&#45;&gt;rast_pep -->
<g id="edge5" class="edge"><title>read_in_OHI_region_rasters&#45;&gt;rast_pep</title>
<path fill="none" stroke="black" d="M261.011,-293.697C271.716,-284.881 284.89,-274.032 296.496,-264.474"/>
<polygon fill="black" stroke="black" points="298.736,-267.163 304.23,-258.104 294.286,-261.76 298.736,-267.163"/>
</g>
<!-- rast_wdpa_pep -->
<g id="node8" class="node"><title>rast_wdpa_pep</title>
<path fill="#ffffcc" stroke="black" d="M477.702,-258C477.702,-258 390.298,-258 390.298,-258 384.298,-258 378.298,-252 378.298,-246 378.298,-246 378.298,-234 378.298,-234 378.298,-228 384.298,-222 390.298,-222 390.298,-222 477.702,-222 477.702,-222 483.702,-222 489.702,-228 489.702,-234 489.702,-234 489.702,-246 489.702,-246 489.702,-252 483.702,-258 477.702,-258"/>
<text text-anchor="middle" x="434" y="-235.8" font-family="Helvetica,sans-Serif" font-size="14.00">rast_wdpa_pep</text>
</g>
<!-- read_in_OHI_region_rasters&#45;&gt;rast_wdpa_pep -->
<g id="edge4" class="edge"><title>read_in_OHI_region_rasters&#45;&gt;rast_wdpa_pep</title>
<path fill="none" stroke="black" d="M287.458,-293.876C314.568,-284.094 348.736,-271.765 377.258,-261.474"/>
<polygon fill="black" stroke="black" points="378.478,-264.755 386.696,-258.068 376.102,-258.17 378.478,-264.755"/>
</g>
<!-- rast_pep_file -->
<g id="node3" class="node"><title>rast_pep_file</title>
<path fill="#ffffcc" stroke="black" d="M276.133,-402C276.133,-402 203.867,-402 203.867,-402 197.867,-402 191.867,-396 191.867,-390 191.867,-390 191.867,-378 191.867,-378 191.867,-372 197.867,-366 203.867,-366 203.867,-366 276.133,-366 276.133,-366 282.133,-366 288.133,-372 288.133,-378 288.133,-378 288.133,-390 288.133,-390 288.133,-396 282.133,-402 276.133,-402"/>
<text text-anchor="middle" x="240" y="-379.8" font-family="Helvetica,sans-Serif" font-size="14.00">rast_pep_file</text>
</g>
<!-- rast_pep_file&#45;&gt;read_in_OHI_region_rasters -->
<g id="edge9" class="edge"><title>rast_pep_file&#45;&gt;read_in_OHI_region_rasters</title>
<path fill="none" stroke="black" d="M240,-365.697C240,-357.983 240,-348.712 240,-340.112"/>
<polygon fill="black" stroke="black" points="243.5,-340.104 240,-330.104 236.5,-340.104 243.5,-340.104"/>
</g>
<!-- rast_3nm&#45;&gt;outputs_zonal_stats_dataframes_for_protected_cells -->
<g id="edge10" class="edge"><title>rast_3nm&#45;&gt;outputs_zonal_stats_dataframes_for_protected_cells</title>
<path fill="none" stroke="black" d="M98.5033,-224.496C124.459,-214.458 159.394,-200.947 188.295,-189.77"/>
<polygon fill="black" stroke="black" points="189.779,-192.949 197.844,-186.077 187.254,-186.42 189.779,-192.949"/>
</g>
<!-- rast_1km&#45;&gt;outputs_zonal_stats_dataframes_for_protected_cells -->
<g id="edge11" class="edge"><title>rast_1km&#45;&gt;outputs_zonal_stats_dataframes_for_protected_cells</title>
<path fill="none" stroke="black" d="M175,-221.697C186.209,-212.881 200.002,-202.032 212.154,-192.474"/>
<polygon fill="black" stroke="black" points="214.557,-195.038 220.253,-186.104 210.229,-189.535 214.557,-195.038"/>
</g>
<!-- rast_ws&#45;&gt;outputs_zonal_stats_dataframes_for_protected_cells -->
<g id="edge12" class="edge"><title>rast_ws&#45;&gt;outputs_zonal_stats_dataframes_for_protected_cells</title>
<path fill="none" stroke="black" d="M240.494,-221.697C240.715,-213.983 240.98,-204.712 241.225,-196.112"/>
<polygon fill="black" stroke="black" points="244.724,-196.2 241.511,-186.104 237.727,-196 244.724,-196.2"/>
</g>
<!-- rast_pep&#45;&gt;outputs_zonal_stats_dataframes_for_protected_cells -->
<g id="edge13" class="edge"><title>rast_pep&#45;&gt;outputs_zonal_stats_dataframes_for_protected_cells</title>
<path fill="none" stroke="black" d="M304.483,-221.697C294.131,-212.965 281.414,-202.24 270.161,-192.75"/>
<polygon fill="black" stroke="black" points="272.182,-189.876 262.281,-186.104 267.669,-195.227 272.182,-189.876"/>
</g>
<!-- rast_wdpa_pep&#45;&gt;outputs_zonal_stats_dataframes_for_protected_cells -->
<g id="edge14" class="edge"><title>rast_wdpa_pep&#45;&gt;outputs_zonal_stats_dataframes_for_protected_cells</title>
<path fill="none" stroke="black" d="M387.032,-221.876C360.317,-212.137 326.679,-199.872 298.525,-189.608"/>
<polygon fill="black" stroke="black" points="299.41,-186.205 288.816,-186.068 297.012,-192.782 299.41,-186.205"/>
</g>
<!-- zonal_3nm_file_outflow -->
<g id="node15" class="node"><title>zonal_3nm_file_outflow</title>
<ellipse fill="none" stroke="black" cx="210" cy="-31" rx="7" ry="7"/>
</g>
<!-- zonal_3nm_file&#45;&gt;zonal_3nm_file_outflow -->
<g id="edge18" class="edge"><title>zonal_3nm_file&#45;&gt;zonal_3nm_file_outflow</title>
<path fill="none" stroke="black" d="M139.979,-77.9513C158.026,-66.108 181.375,-50.7851 196.024,-41.1721"/>
<polygon fill="black" stroke="black" points="198.162,-43.9548 204.603,-35.542 194.322,-38.1025 198.162,-43.9548"/>
</g>
<!-- zonal_1km_file_outflow -->
<g id="node14" class="node"><title>zonal_1km_file_outflow</title>
<ellipse fill="none" stroke="black" cx="242" cy="-31" rx="7" ry="7"/>
</g>
<!-- zonal_1km_file&#45;&gt;zonal_1km_file_outflow -->
<g id="edge17" class="edge"><title>zonal_1km_file&#45;&gt;zonal_1km_file_outflow</title>
<path fill="none" stroke="black" d="M242,-77.785C242,-68.6656 242,-57.5197 242,-48.5085"/>
<polygon fill="black" stroke="black" points="245.5,-48.242 242,-38.242 238.5,-48.2421 245.5,-48.242"/>
</g>
<!-- zonal_ws_file_outflow -->
<g id="node13" class="node"><title>zonal_ws_file_outflow</title>
<ellipse fill="none" stroke="black" cx="274" cy="-31" rx="7" ry="7"/>
</g>
<!-- zonal_ws_file&#45;&gt;zonal_ws_file_outflow -->
<g id="edge16" class="edge"><title>zonal_ws_file&#45;&gt;zonal_ws_file_outflow</title>
<path fill="none" stroke="black" d="M340.134,-77.785C323.365,-66.1757 301.852,-51.2822 287.996,-41.6894"/>
<polygon fill="black" stroke="black" points="289.651,-38.5784 279.437,-35.7639 285.666,-44.3338 289.651,-38.5784"/>
</g>
<!-- rast_pep_file_inflow -->
<g id="node12" class="node"><title>rast_pep_file_inflow</title>
<ellipse fill="none" stroke="black" cx="240" cy="-449" rx="7" ry="7"/>
</g>
<!-- rast_pep_file_inflow&#45;&gt;rast_pep_file -->
<g id="edge15" class="edge"><title>rast_pep_file_inflow&#45;&gt;rast_pep_file</title>
<path fill="none" stroke="black" d="M240,-441.729C240,-434.795 240,-423.154 240,-412.215"/>
<polygon fill="black" stroke="black" points="243.5,-412.119 240,-402.119 236.5,-412.119 243.5,-412.119"/>
</g>
</g>
</svg>
