<?xml version="1.0" encoding="UTF-8" standalone="no"?>
<!DOCTYPE svg PUBLIC "-//W3C//DTD SVG 1.1//EN"
 "http://www.w3.org/Graphics/SVG/1.1/DTD/svg11.dtd">
<!-- Generated by graphviz version 2.38.0 (20140413.2041)
 -->
<!-- Title: yw_data_view Pages: 1 -->
<svg width="1548pt" height="523pt"
 viewBox="0.00 0.00 1548.00 522.80" xmlns="http://www.w3.org/2000/svg" xmlns:xlink="http://www.w3.org/1999/xlink">
<g id="graph0" class="graph" transform="scale(1 1) rotate(0) translate(4 518.8)">
<title>yw_data_view</title>
<polygon fill="white" stroke="none" points="-4,4 -4,-518.8 1544,-518.8 1544,4 -4,4"/>
<text text-anchor="middle" x="770" y="-494.6" font-family="Courier,monospace" font-size="18.00">lsp_zonal_stats</text>
<g id="clust1" class="cluster"><title>cluster_workflow</title>
<polygon fill="none" stroke="black" stroke-width="2" points="8,-62 8,-423.2 1532,-423.2 1532,-62 8,-62"/>
</g>
<g id="clust2" class="cluster"><title>cluster_workflow_inner</title>
<polygon fill="none" stroke="white" stroke-width="2" points="16,-70 16,-415.2 1524,-415.2 1524,-70 16,-70"/>
</g>
<g id="clust3" class="cluster"><title>cluster_inflows</title>
<polygon fill="none" stroke="white" stroke-width="2" points="732,-431.2 732,-477.2 938,-477.2 938,-431.2 732,-431.2"/>
</g>
<g id="clust4" class="cluster"><title>cluster_inflows_inner</title>
<polygon fill="none" stroke="white" stroke-width="2" points="740,-439.2 740,-469.2 930,-469.2 930,-439.2 740,-439.2"/>
</g>
<g id="clust5" class="cluster"><title>cluster_outflows</title>
<polygon fill="none" stroke="white" stroke-width="2" points="810,-8 810,-54 856,-54 856,-8 810,-8"/>
</g>
<g id="clust6" class="cluster"><title>cluster_outflows_inner</title>
<polygon fill="none" stroke="white" stroke-width="2" points="818,-16 818,-46 848,-46 848,-16 818,-16"/>
</g>
<!-- read_in_OHI_region_rasters -->
<g id="node1" class="node"><title>read_in_OHI_region_rasters</title>
<polygon fill="#ccffcc" stroke="black" points="865.364,-332.6 630.636,-332.6 630.636,-296.6 865.364,-296.6 865.364,-332.6"/>
<text text-anchor="middle" x="748" y="-310.4" font-family="Courier,monospace" font-size="14.00">read_in_OHI_region_rasters</text>
</g>
<!-- rast_3nm -->
<g id="node5" class="node"><title>rast_3nm</title>
<path fill="#ffffcc" stroke="black" d="M637.343,-260.6C637.343,-260.6 586.657,-260.6 586.657,-260.6 580.657,-260.6 574.657,-254.6 574.657,-248.6 574.657,-248.6 574.657,-236.6 574.657,-236.6 574.657,-230.6 580.657,-224.6 586.657,-224.6 586.657,-224.6 637.343,-224.6 637.343,-224.6 643.343,-224.6 649.343,-230.6 649.343,-236.6 649.343,-236.6 649.343,-248.6 649.343,-248.6 649.343,-254.6 643.343,-260.6 637.343,-260.6"/>
<text text-anchor="middle" x="612" y="-238.4" font-family="Helvetica,sans-Serif" font-size="14.00">rast_3nm</text>
</g>
<!-- read_in_OHI_region_rasters&#45;&gt;rast_3nm -->
<g id="edge14" class="edge"><title>read_in_OHI_region_rasters&#45;&gt;rast_3nm</title>
<path fill="none" stroke="black" d="M714.731,-296.476C696.537,-287.112 673.809,-275.414 654.36,-265.403"/>
<polygon fill="black" stroke="black" points="655.89,-262.254 645.397,-260.79 652.687,-268.478 655.89,-262.254"/>
</g>
<!-- rast_1km -->
<g id="node6" class="node"><title>rast_1km</title>
<path fill="#ffffcc" stroke="black" d="M728.561,-260.6C728.561,-260.6 679.439,-260.6 679.439,-260.6 673.439,-260.6 667.439,-254.6 667.439,-248.6 667.439,-248.6 667.439,-236.6 667.439,-236.6 667.439,-230.6 673.439,-224.6 679.439,-224.6 679.439,-224.6 728.561,-224.6 728.561,-224.6 734.561,-224.6 740.561,-230.6 740.561,-236.6 740.561,-236.6 740.561,-248.6 740.561,-248.6 740.561,-254.6 734.561,-260.6 728.561,-260.6"/>
<text text-anchor="middle" x="704" y="-238.4" font-family="Helvetica,sans-Serif" font-size="14.00">rast_1km</text>
</g>
<!-- read_in_OHI_region_rasters&#45;&gt;rast_1km -->
<g id="edge15" class="edge"><title>read_in_OHI_region_rasters&#45;&gt;rast_1km</title>
<path fill="none" stroke="black" d="M737.124,-296.297C732.008,-288.159 725.805,-278.289 720.155,-269.301"/>
<polygon fill="black" stroke="black" points="723.036,-267.308 714.751,-260.704 717.11,-271.033 723.036,-267.308"/>
</g>
<!-- rast_ws -->
<g id="node7" class="node"><title>rast_ws</title>
<path fill="#ffffcc" stroke="black" d="M811.223,-260.6C811.223,-260.6 770.777,-260.6 770.777,-260.6 764.777,-260.6 758.777,-254.6 758.777,-248.6 758.777,-248.6 758.777,-236.6 758.777,-236.6 758.777,-230.6 764.777,-224.6 770.777,-224.6 770.777,-224.6 811.223,-224.6 811.223,-224.6 817.223,-224.6 823.223,-230.6 823.223,-236.6 823.223,-236.6 823.223,-248.6 823.223,-248.6 823.223,-254.6 817.223,-260.6 811.223,-260.6"/>
<text text-anchor="middle" x="791" y="-238.4" font-family="Helvetica,sans-Serif" font-size="14.00">rast_ws</text>
</g>
<!-- read_in_OHI_region_rasters&#45;&gt;rast_ws -->
<g id="edge16" class="edge"><title>read_in_OHI_region_rasters&#45;&gt;rast_ws</title>
<path fill="none" stroke="black" d="M758.629,-296.297C763.628,-288.159 769.691,-278.289 775.212,-269.301"/>
<polygon fill="black" stroke="black" points="778.241,-271.057 780.493,-260.704 772.277,-267.393 778.241,-271.057"/>
</g>
<!-- rast_pep -->
<g id="node8" class="node"><title>rast_pep</title>
<path fill="#ffffcc" stroke="black" d="M899.466,-260.6C899.466,-260.6 852.534,-260.6 852.534,-260.6 846.534,-260.6 840.534,-254.6 840.534,-248.6 840.534,-248.6 840.534,-236.6 840.534,-236.6 840.534,-230.6 846.534,-224.6 852.534,-224.6 852.534,-224.6 899.466,-224.6 899.466,-224.6 905.466,-224.6 911.466,-230.6 911.466,-236.6 911.466,-236.6 911.466,-248.6 911.466,-248.6 911.466,-254.6 905.466,-260.6 899.466,-260.6"/>
<text text-anchor="middle" x="876" y="-238.4" font-family="Helvetica,sans-Serif" font-size="14.00">rast_pep</text>
</g>
<!-- read_in_OHI_region_rasters&#45;&gt;rast_pep -->
<g id="edge17" class="edge"><title>read_in_OHI_region_rasters&#45;&gt;rast_pep</title>
<path fill="none" stroke="black" d="M779.312,-296.476C796.203,-287.239 817.247,-275.731 835.385,-265.812"/>
<polygon fill="black" stroke="black" points="837.473,-268.659 844.567,-260.79 834.114,-262.517 837.473,-268.659"/>
</g>
<!-- rast_wdpa_pep -->
<g id="node9" class="node"><title>rast_wdpa_pep</title>
<path fill="#ffffcc" stroke="black" d="M1028.7,-260.6C1028.7,-260.6 941.298,-260.6 941.298,-260.6 935.298,-260.6 929.298,-254.6 929.298,-248.6 929.298,-248.6 929.298,-236.6 929.298,-236.6 929.298,-230.6 935.298,-224.6 941.298,-224.6 941.298,-224.6 1028.7,-224.6 1028.7,-224.6 1034.7,-224.6 1040.7,-230.6 1040.7,-236.6 1040.7,-236.6 1040.7,-248.6 1040.7,-248.6 1040.7,-254.6 1034.7,-260.6 1028.7,-260.6"/>
<text text-anchor="middle" x="985" y="-238.4" font-family="Helvetica,sans-Serif" font-size="14.00">rast_wdpa_pep</text>
</g>
<!-- read_in_OHI_region_rasters&#45;&gt;rast_wdpa_pep -->
<g id="edge18" class="edge"><title>read_in_OHI_region_rasters&#45;&gt;rast_wdpa_pep</title>
<path fill="none" stroke="black" d="M805.674,-296.566C839.99,-286.43 883.643,-273.537 919.288,-263.009"/>
<polygon fill="black" stroke="black" points="920.516,-266.296 929.115,-260.106 918.533,-259.582 920.516,-266.296"/>
</g>
<!-- set_up_configuration_and_start_provenance_tracking -->
<g id="node2" class="node"><title>set_up_configuration_and_start_provenance_tracking</title>
<polygon fill="#ccffcc" stroke="black" points="1449.93,-332.6 1014.07,-332.6 1014.07,-296.6 1449.93,-296.6 1449.93,-332.6"/>
<text text-anchor="middle" x="1232" y="-310.4" font-family="Courier,monospace" font-size="14.00">set_up_configuration_and_start_provenance_tracking</text>
</g>
<!-- dir_goal -->
<g id="node4" class="node"><title>dir_goal</title>
<path fill="#ffffcc" stroke="black" d="M1182.79,-260.6C1182.79,-260.6 1141.21,-260.6 1141.21,-260.6 1135.21,-260.6 1129.21,-254.6 1129.21,-248.6 1129.21,-248.6 1129.21,-236.6 1129.21,-236.6 1129.21,-230.6 1135.21,-224.6 1141.21,-224.6 1141.21,-224.6 1182.79,-224.6 1182.79,-224.6 1188.79,-224.6 1194.79,-230.6 1194.79,-236.6 1194.79,-236.6 1194.79,-248.6 1194.79,-248.6 1194.79,-254.6 1188.79,-260.6 1182.79,-260.6"/>
<text text-anchor="middle" x="1162" y="-238.4" font-family="Helvetica,sans-Serif" font-size="14.00">dir_goal</text>
</g>
<!-- set_up_configuration_and_start_provenance_tracking&#45;&gt;dir_goal -->
<g id="edge13" class="edge"><title>set_up_configuration_and_start_provenance_tracking&#45;&gt;dir_goal</title>
<path fill="none" stroke="black" d="M1214.7,-296.297C1206.14,-287.735 1195.66,-277.256 1186.3,-267.904"/>
<polygon fill="black" stroke="black" points="1188.65,-265.301 1179.1,-260.704 1183.7,-270.25 1188.65,-265.301"/>
</g>
<!-- outputs_zonal_stats_dataframes_for_protected_cells -->
<g id="node3" class="node"><title>outputs_zonal_stats_dataframes_for_protected_cells</title>
<polygon fill="#ccffcc" stroke="black" points="1050.93,-188.6 615.07,-188.6 615.07,-152.6 1050.93,-152.6 1050.93,-188.6"/>
<text text-anchor="middle" x="833" y="-166.4" font-family="Courier,monospace" font-size="14.00">outputs_zonal_stats_dataframes_for_protected_cells</text>
</g>
<!-- zonal_ws_file -->
<g id="node16" class="node"><title>zonal_ws_file</title>
<path fill="#ffe4b5" stroke="black" d="M742.516,-78.5C742.516,-78.5 923.484,-78.5 923.484,-78.5 929.484,-78.5 935.484,-84.5 935.484,-90.5 935.484,-90.5 935.484,-104.1 935.484,-104.1 935.484,-110.1 929.484,-116.1 923.484,-116.1 923.484,-116.1 742.516,-116.1 742.516,-116.1 736.516,-116.1 730.516,-110.1 730.516,-104.1 730.516,-104.1 730.516,-90.5 730.516,-90.5 730.516,-84.5 736.516,-78.5 742.516,-78.5"/>
<text text-anchor="middle" x="833" y="-104" font-family="Courier,monospace" font-weight="bold" font-size="9.00">zonal_ws_file</text>
<polyline fill="none" stroke="black" points="730.516,-97.3 935.484,-97.3 "/>
<text text-anchor="start" x="738.516" y="-85.2" font-family="Courier,monospace" font-weight="bold" font-size="9.00">prep/lsp/vHS/int/zonal_stats_ws.csv</text>
</g>
<!-- outputs_zonal_stats_dataframes_for_protected_cells&#45;&gt;zonal_ws_file -->
<g id="edge19" class="edge"><title>outputs_zonal_stats_dataframes_for_protected_cells&#45;&gt;zonal_ws_file</title>
<path fill="none" stroke="black" d="M833,-152.34C833,-144.605 833,-135.279 833,-126.568"/>
<polygon fill="black" stroke="black" points="836.5,-126.396 833,-116.396 829.5,-126.396 836.5,-126.396"/>
</g>
<!-- dir_goal&#45;&gt;outputs_zonal_stats_dataframes_for_protected_cells -->
<g id="edge11" class="edge"><title>dir_goal&#45;&gt;outputs_zonal_stats_dataframes_for_protected_cells</title>
<path fill="none" stroke="black" d="M1128.95,-234.568C1081.19,-224.406 991.132,-205.245 922.852,-190.717"/>
<polygon fill="black" stroke="black" points="923.453,-187.267 912.943,-188.609 921.996,-194.114 923.453,-187.267"/>
</g>
<!-- rast_3nm&#45;&gt;outputs_zonal_stats_dataframes_for_protected_cells -->
<g id="edge1" class="edge"><title>rast_3nm&#45;&gt;outputs_zonal_stats_dataframes_for_protected_cells</title>
<path fill="none" stroke="black" d="M649.34,-227.588C652.263,-226.556 655.175,-225.549 658,-224.6 692.635,-212.967 731.499,-201.081 763.789,-191.522"/>
<polygon fill="black" stroke="black" points="764.986,-194.818 773.588,-188.632 763.006,-188.104 764.986,-194.818"/>
</g>
<!-- rast_1km&#45;&gt;outputs_zonal_stats_dataframes_for_protected_cells -->
<g id="edge4" class="edge"><title>rast_1km&#45;&gt;outputs_zonal_stats_dataframes_for_protected_cells</title>
<path fill="none" stroke="black" d="M735.557,-224.476C752.658,-215.196 773.982,-203.625 792.319,-193.675"/>
<polygon fill="black" stroke="black" points="794.202,-196.635 801.322,-188.79 790.863,-190.483 794.202,-196.635"/>
</g>
<!-- rast_ws&#45;&gt;outputs_zonal_stats_dataframes_for_protected_cells -->
<g id="edge6" class="edge"><title>rast_ws&#45;&gt;outputs_zonal_stats_dataframes_for_protected_cells</title>
<path fill="none" stroke="black" d="M801.382,-224.297C806.265,-216.159 812.187,-206.289 817.579,-197.301"/>
<polygon fill="black" stroke="black" points="820.594,-199.08 822.737,-188.704 814.591,-195.479 820.594,-199.08"/>
</g>
<!-- rast_pep&#45;&gt;outputs_zonal_stats_dataframes_for_protected_cells -->
<g id="edge8" class="edge"><title>rast_pep&#45;&gt;outputs_zonal_stats_dataframes_for_protected_cells</title>
<path fill="none" stroke="black" d="M865.371,-224.297C860.372,-216.159 854.309,-206.289 848.788,-197.301"/>
<polygon fill="black" stroke="black" points="851.723,-195.393 843.507,-188.704 845.759,-199.057 851.723,-195.393"/>
</g>
<!-- rast_wdpa_pep&#45;&gt;outputs_zonal_stats_dataframes_for_protected_cells -->
<g id="edge10" class="edge"><title>rast_wdpa_pep&#45;&gt;outputs_zonal_stats_dataframes_for_protected_cells</title>
<path fill="none" stroke="black" d="M947.817,-224.476C927.13,-214.949 901.198,-203.007 879.215,-192.883"/>
<polygon fill="black" stroke="black" points="880.61,-189.672 870.063,-188.668 877.682,-196.03 880.61,-189.672"/>
</g>
<!-- setup_R -->
<g id="node10" class="node"><title>setup_R</title>
<path fill="#ffe4b5" stroke="black" d="M1474,-369.1C1474,-369.1 1504,-369.1 1504,-369.1 1510,-369.1 1516,-375.1 1516,-381.1 1516,-381.1 1516,-394.7 1516,-394.7 1516,-400.7 1510,-406.7 1504,-406.7 1504,-406.7 1474,-406.7 1474,-406.7 1468,-406.7 1462,-400.7 1462,-394.7 1462,-394.7 1462,-381.1 1462,-381.1 1462,-375.1 1468,-369.1 1474,-369.1"/>
<text text-anchor="middle" x="1488.9" y="-394.6" font-family="Courier,monospace" font-weight="bold" font-size="9.00">setup_R</text>
<polyline fill="none" stroke="black" points="1462,-387.9 1515.79,-387.9 "/>
<text text-anchor="middle" x="1488.9" y="-375.8" font-family="Courier,monospace" font-weight="bold" font-size="9.00"> </text>
</g>
<!-- setup_R&#45;&gt;set_up_configuration_and_start_provenance_tracking -->
<g id="edge3" class="edge"><title>setup_R&#45;&gt;set_up_configuration_and_start_provenance_tracking</title>
<path fill="none" stroke="black" d="M1461.78,-372.229C1458.86,-370.906 1455.89,-369.666 1453,-368.6 1415.02,-354.614 1371.99,-343.326 1334.06,-334.82"/>
<polygon fill="black" stroke="black" points="1334.54,-331.342 1324.02,-332.606 1333.03,-338.178 1334.54,-331.342"/>
</g>
<!-- rast_3nm_raster_file -->
<g id="node11" class="node"><title>rast_3nm_raster_file</title>
<path fill="#ffe4b5" stroke="black" d="M1159.62,-369.1C1159.62,-369.1 1432.38,-369.1 1432.38,-369.1 1438.38,-369.1 1444.38,-375.1 1444.38,-381.1 1444.38,-381.1 1444.38,-394.7 1444.38,-394.7 1444.38,-400.7 1438.38,-406.7 1432.38,-406.7 1432.38,-406.7 1159.62,-406.7 1159.62,-406.7 1153.62,-406.7 1147.62,-400.7 1147.62,-394.7 1147.62,-394.7 1147.62,-381.1 1147.62,-381.1 1147.62,-375.1 1153.62,-369.1 1159.62,-369.1"/>
<text text-anchor="middle" x="1296" y="-394.6" font-family="Courier,monospace" font-weight="bold" font-size="9.00">rast_3nm_raster_file</text>
<polyline fill="none" stroke="black" points="1147.62,-387.9 1444.38,-387.9 "/>
<text text-anchor="start" x="1155.62" y="-375.8" font-family="Courier,monospace" font-weight="bold" font-size="9.00">prep/lsp/vHS/spatial/hs_offshore_3nm_raster_500m.tif</text>
</g>
<!-- rast_3nm_raster_file&#45;&gt;read_in_OHI_region_rasters -->
<g id="edge5" class="edge"><title>rast_3nm_raster_file&#45;&gt;read_in_OHI_region_rasters</title>
<path fill="none" stroke="black" d="M1159.13,-369.092C1072.22,-357.784 960.511,-343.25 875.477,-332.186"/>
<polygon fill="black" stroke="black" points="875.873,-328.708 865.505,-330.888 874.969,-335.65 875.873,-328.708"/>
</g>
<!-- rast_1km_raster_file -->
<g id="node12" class="node"><title>rast_1km_raster_file</title>
<path fill="#ffe4b5" stroke="black" d="M856.022,-369.1C856.022,-369.1 1117.98,-369.1 1117.98,-369.1 1123.98,-369.1 1129.98,-375.1 1129.98,-381.1 1129.98,-381.1 1129.98,-394.7 1129.98,-394.7 1129.98,-400.7 1123.98,-406.7 1117.98,-406.7 1117.98,-406.7 856.022,-406.7 856.022,-406.7 850.022,-406.7 844.022,-400.7 844.022,-394.7 844.022,-394.7 844.022,-381.1 844.022,-381.1 844.022,-375.1 850.022,-369.1 856.022,-369.1"/>
<text text-anchor="middle" x="987" y="-394.6" font-family="Courier,monospace" font-weight="bold" font-size="9.00">rast_1km_raster_file</text>
<polyline fill="none" stroke="black" points="844.022,-387.9 1129.98,-387.9 "/>
<text text-anchor="start" x="852.022" y="-375.8" font-family="Courier,monospace" font-weight="bold" font-size="9.00">prep/lsp/vHS/spatial/hs_inland_1km_raster_500m.tif</text>
</g>
<!-- rast_1km_raster_file&#45;&gt;read_in_OHI_region_rasters -->
<g id="edge7" class="edge"><title>rast_1km_raster_file&#45;&gt;read_in_OHI_region_rasters</title>
<path fill="none" stroke="black" d="M927.307,-369.092C893.184,-358.912 850.296,-346.118 815.021,-335.594"/>
<polygon fill="black" stroke="black" points="815.87,-332.195 805.287,-332.69 813.869,-338.903 815.87,-332.195"/>
</g>
<!-- rast_ws_raster_file -->
<g id="node13" class="node"><title>rast_ws_raster_file</title>
<path fill="#ffe4b5" stroke="black" d="M552.022,-369.1C552.022,-369.1 813.978,-369.1 813.978,-369.1 819.978,-369.1 825.978,-375.1 825.978,-381.1 825.978,-381.1 825.978,-394.7 825.978,-394.7 825.978,-400.7 819.978,-406.7 813.978,-406.7 813.978,-406.7 552.022,-406.7 552.022,-406.7 546.022,-406.7 540.022,-400.7 540.022,-394.7 540.022,-394.7 540.022,-381.1 540.022,-381.1 540.022,-375.1 546.022,-369.1 552.022,-369.1"/>
<text text-anchor="middle" x="683" y="-394.6" font-family="Courier,monospace" font-weight="bold" font-size="9.00">rast_ws_raster_file</text>
<polyline fill="none" stroke="black" points="540.022,-387.9 825.978,-387.9 "/>
<text text-anchor="start" x="548.022" y="-375.8" font-family="Courier,monospace" font-weight="bold" font-size="9.00">prep/lsp/vHS/spatial/howe_sound_watershed_500m.tif</text>
</g>
<!-- rast_ws_raster_file&#45;&gt;read_in_OHI_region_rasters -->
<g id="edge9" class="edge"><title>rast_ws_raster_file&#45;&gt;read_in_OHI_region_rasters</title>
<path fill="none" stroke="black" d="M699.402,-368.908C707.277,-360.27 716.838,-349.783 725.389,-340.402"/>
<polygon fill="black" stroke="black" points="728.125,-342.596 732.276,-332.848 722.952,-337.88 728.125,-342.596"/>
</g>
<!-- rast_pep_file -->
<g id="node14" class="node"><title>rast_pep_file</title>
<path fill="#ffe4b5" stroke="black" d="M296.318,-369.1C296.318,-369.1 509.682,-369.1 509.682,-369.1 515.682,-369.1 521.682,-375.1 521.682,-381.1 521.682,-381.1 521.682,-394.7 521.682,-394.7 521.682,-400.7 515.682,-406.7 509.682,-406.7 509.682,-406.7 296.318,-406.7 296.318,-406.7 290.318,-406.7 284.318,-400.7 284.318,-394.7 284.318,-394.7 284.318,-381.1 284.318,-381.1 284.318,-375.1 290.318,-369.1 296.318,-369.1"/>
<text text-anchor="middle" x="403" y="-394.6" font-family="Courier,monospace" font-weight="bold" font-size="9.00">rast_pep_file</text>
<polyline fill="none" stroke="black" points="284.318,-387.9 521.682,-387.9 "/>
<text text-anchor="start" x="292.318" y="-375.8" font-family="Courier,monospace" font-weight="bold" font-size="9.00">prep/lsp/vHS/spatial/hs_pep_rast_500m.tif</text>
</g>
<!-- rast_pep_file&#45;&gt;read_in_OHI_region_rasters -->
<g id="edge12" class="edge"><title>rast_pep_file&#45;&gt;read_in_OHI_region_rasters</title>
<path fill="none" stroke="black" d="M489.168,-369.092C539.887,-358.61 604.021,-345.356 655.759,-334.663"/>
<polygon fill="black" stroke="black" points="656.516,-338.081 665.601,-332.629 655.1,-331.226 656.516,-338.081"/>
</g>
<!-- rast_wdpa_pep_file -->
<g id="node15" class="node"><title>rast_wdpa_pep_file</title>
<path fill="#ffe4b5" stroke="black" d="M35.6189,-369.1C35.6189,-369.1 254.381,-369.1 254.381,-369.1 260.381,-369.1 266.381,-375.1 266.381,-381.1 266.381,-381.1 266.381,-394.7 266.381,-394.7 266.381,-400.7 260.381,-406.7 254.381,-406.7 254.381,-406.7 35.6189,-406.7 35.6189,-406.7 29.6189,-406.7 23.6189,-400.7 23.6189,-394.7 23.6189,-394.7 23.6189,-381.1 23.6189,-381.1 23.6189,-375.1 29.6189,-369.1 35.6189,-369.1"/>
<text text-anchor="middle" x="145" y="-394.6" font-family="Courier,monospace" font-weight="bold" font-size="9.00">rast_wdpa_pep_file</text>
<polyline fill="none" stroke="black" points="23.6189,-387.9 266.381,-387.9 "/>
<text text-anchor="start" x="31.6189" y="-375.8" font-family="Courier,monospace" font-weight="bold" font-size="9.00">prep/lsp/vHS/spatial/hs_wdpa_rast_500m.tif</text>
</g>
<!-- rast_wdpa_pep_file&#45;&gt;read_in_OHI_region_rasters -->
<g id="edge2" class="edge"><title>rast_wdpa_pep_file&#45;&gt;read_in_OHI_region_rasters</title>
<path fill="none" stroke="black" d="M266.429,-369.696C269.313,-369.323 272.173,-368.957 275,-368.6 391.985,-353.815 525.52,-339.045 620.805,-328.867"/>
<polygon fill="black" stroke="black" points="621.203,-332.344 630.775,-327.804 620.46,-325.384 621.203,-332.344"/>
</g>
<!-- zonal_ws_file_outflow -->
<g id="node23" class="node"><title>zonal_ws_file_outflow</title>
<ellipse fill="none" stroke="black" cx="833" cy="-31" rx="7" ry="7"/>
</g>
<!-- zonal_ws_file&#45;&gt;zonal_ws_file_outflow -->
<g id="edge26" class="edge"><title>zonal_ws_file&#45;&gt;zonal_ws_file_outflow</title>
<path fill="none" stroke="black" d="M833,-78.3889C833,-68.9828 833,-57.5389 833,-48.3712"/>
<polygon fill="black" stroke="black" points="836.5,-48.3008 833,-38.3008 829.5,-48.3008 836.5,-48.3008"/>
</g>
<!-- setup_R_inflow -->
<g id="node17" class="node"><title>setup_R_inflow</title>
<ellipse fill="none" stroke="black" cx="915" cy="-454.2" rx="7" ry="7"/>
</g>
<!-- setup_R_inflow&#45;&gt;setup_R -->
<g id="edge20" class="edge"><title>setup_R_inflow&#45;&gt;setup_R</title>
<path fill="none" stroke="black" d="M922.224,-453.098C982.581,-452.209 1402.03,-445.262 1453,-423.2 1458.15,-420.971 1463.01,-417.663 1467.38,-413.967"/>
<polygon fill="black" stroke="black" points="1469.85,-416.457 1474.71,-407.045 1465.04,-411.368 1469.85,-416.457"/>
</g>
<!-- rast_3nm_raster_file_inflow -->
<g id="node18" class="node"><title>rast_3nm_raster_file_inflow</title>
<ellipse fill="none" stroke="black" cx="883" cy="-454.2" rx="7" ry="7"/>
</g>
<!-- rast_3nm_raster_file_inflow&#45;&gt;rast_3nm_raster_file -->
<g id="edge21" class="edge"><title>rast_3nm_raster_file_inflow&#45;&gt;rast_3nm_raster_file</title>
<path fill="none" stroke="black" d="M885.437,-447.332C887.974,-442.066 892.491,-434.652 899,-431.2 922.571,-418.698 1112.52,-426.505 1139,-423.2 1164.78,-419.981 1192.59,-414.564 1217.53,-408.975"/>
<polygon fill="black" stroke="black" points="1218.33,-412.382 1227.3,-406.744 1216.77,-405.558 1218.33,-412.382"/>
</g>
<!-- rast_1km_raster_file_inflow -->
<g id="node19" class="node"><title>rast_1km_raster_file_inflow</title>
<ellipse fill="none" stroke="black" cx="851" cy="-454.2" rx="7" ry="7"/>
</g>
<!-- rast_1km_raster_file_inflow&#45;&gt;rast_1km_raster_file -->
<g id="edge22" class="edge"><title>rast_1km_raster_file_inflow&#45;&gt;rast_1km_raster_file</title>
<path fill="none" stroke="black" d="M853.926,-447.381C856.683,-442.441 861.244,-435.49 867,-431.2 878.188,-422.862 891.162,-416.063 904.358,-410.552"/>
<polygon fill="black" stroke="black" points="905.96,-413.682 913.983,-406.763 903.396,-407.169 905.96,-413.682"/>
</g>
<!-- rast_ws_raster_file_inflow -->
<g id="node20" class="node"><title>rast_ws_raster_file_inflow</title>
<ellipse fill="none" stroke="black" cx="819" cy="-454.2" rx="7" ry="7"/>
</g>
<!-- rast_ws_raster_file_inflow&#45;&gt;rast_ws_raster_file -->
<g id="edge23" class="edge"><title>rast_ws_raster_file_inflow&#45;&gt;rast_ws_raster_file</title>
<path fill="none" stroke="black" d="M816.074,-447.381C813.317,-442.441 808.756,-435.49 803,-431.2 791.812,-422.862 778.838,-416.063 765.642,-410.552"/>
<polygon fill="black" stroke="black" points="766.604,-407.169 756.017,-406.763 764.04,-413.682 766.604,-407.169"/>
</g>
<!-- rast_pep_file_inflow -->
<g id="node21" class="node"><title>rast_pep_file_inflow</title>
<ellipse fill="none" stroke="black" cx="787" cy="-454.2" rx="7" ry="7"/>
</g>
<!-- rast_pep_file_inflow&#45;&gt;rast_pep_file -->
<g id="edge24" class="edge"><title>rast_pep_file_inflow&#45;&gt;rast_pep_file</title>
<path fill="none" stroke="black" d="M784.563,-447.332C782.026,-442.066 777.509,-434.652 771,-431.2 747.429,-418.698 557.391,-427.123 531,-423.2 510.365,-420.133 488.288,-414.935 468.38,-409.5"/>
<polygon fill="black" stroke="black" points="469.066,-406.058 458.493,-406.735 467.181,-412.799 469.066,-406.058"/>
</g>
<!-- rast_wdpa_pep_file_inflow -->
<g id="node22" class="node"><title>rast_wdpa_pep_file_inflow</title>
<ellipse fill="none" stroke="black" cx="755" cy="-454.2" rx="7" ry="7"/>
</g>
<!-- rast_wdpa_pep_file_inflow&#45;&gt;rast_wdpa_pep_file -->
<g id="edge25" class="edge"><title>rast_wdpa_pep_file_inflow&#45;&gt;rast_wdpa_pep_file</title>
<path fill="none" stroke="black" d="M747.896,-453.275C704.045,-453.634 465.818,-454.032 275,-423.2 254.499,-419.887 232.546,-414.735 212.627,-409.421"/>
<polygon fill="black" stroke="black" points="213.29,-405.974 202.722,-406.722 211.45,-412.728 213.29,-405.974"/>
</g>
</g>
</svg>
