<?xml version="1.0" encoding="UTF-8" standalone="no"?>
<!DOCTYPE svg PUBLIC "-//W3C//DTD SVG 1.1//EN"
 "http://www.w3.org/Graphics/SVG/1.1/DTD/svg11.dtd">
<!-- Generated by graphviz version 2.38.0 (20140413.2041)
 -->
<!-- Title: yw_data_view Pages: 1 -->
<svg width="1548pt" height="523pt"
 viewBox="0.00 0.00 1548.00 522.80" xmlns="http://www.w3.org/2000/svg" xmlns:xlink="http://www.w3.org/1999/xlink">
<g id="graph0" class="graph" transform="scale(1 1) rotate(0) translate(4 518.8)">
<title>yw_data_view</title>
<polygon fill="white" stroke="none" points="-4,4 -4,-518.8 1544,-518.8 1544,4 -4,4"/>
<text text-anchor="middle" x="770" y="-494.6" font-family="Courier,monospace" font-size="18.00">lsp_zonal_stats</text>
<g id="clust1" class="cluster"><title>cluster_workflow</title>
<polygon fill="none" stroke="black" stroke-width="2" points="8,-62 8,-423.2 1532,-423.2 1532,-62 8,-62"/>
</g>
<g id="clust2" class="cluster"><title>cluster_workflow_inner</title>
<polygon fill="none" stroke="white" stroke-width="2" points="16,-70 16,-415.2 1524,-415.2 1524,-70 16,-70"/>
</g>
<g id="clust3" class="cluster"><title>cluster_inflows</title>
<polygon fill="none" stroke="white" stroke-width="2" points="732,-431.2 732,-477.2 938,-477.2 938,-431.2 732,-431.2"/>
</g>
<g id="clust4" class="cluster"><title>cluster_inflows_inner</title>
<polygon fill="none" stroke="white" stroke-width="2" points="740,-439.2 740,-469.2 930,-469.2 930,-439.2 740,-439.2"/>
</g>
<g id="clust5" class="cluster"><title>cluster_outflows</title>
<polygon fill="none" stroke="white" stroke-width="2" points="765,-8 765,-54 875,-54 875,-8 765,-8"/>
</g>
<g id="clust6" class="cluster"><title>cluster_outflows_inner</title>
<polygon fill="none" stroke="white" stroke-width="2" points="773,-16 773,-46 867,-46 867,-16 773,-16"/>
</g>
<!-- set_up_configuration_and_start_provenance_tracking -->
<g id="node1" class="node"><title>set_up_configuration_and_start_provenance_tracking</title>
<polygon fill="#ccffcc" stroke="black" points="1449.93,-332.6 1014.07,-332.6 1014.07,-296.6 1449.93,-296.6 1449.93,-332.6"/>
<text text-anchor="middle" x="1232" y="-310.4" font-family="Courier,monospace" font-size="14.00">set_up_configuration_and_start_provenance_tracking</text>
</g>
<!-- dir_goal -->
<g id="node10" class="node"><title>dir_goal</title>
<path fill="#ffffcc" stroke="black" d="M1143,-260.6C1143,-260.6 1113,-260.6 1113,-260.6 1107,-260.6 1101,-254.6 1101,-248.6 1101,-248.6 1101,-236.6 1101,-236.6 1101,-230.6 1107,-224.6 1113,-224.6 1113,-224.6 1143,-224.6 1143,-224.6 1149,-224.6 1155,-230.6 1155,-236.6 1155,-236.6 1155,-248.6 1155,-248.6 1155,-254.6 1149,-260.6 1143,-260.6"/>
<text text-anchor="middle" x="1128" y="-239.9" font-family="Helvetica,sans-Serif" font-size="9.00">dir_goal</text>
</g>
<!-- set_up_configuration_and_start_provenance_tracking&#45;&gt;dir_goal -->
<g id="edge13" class="edge"><title>set_up_configuration_and_start_provenance_tracking&#45;&gt;dir_goal</title>
<path fill="none" stroke="black" d="M1206.56,-296.476C1193.21,-287.493 1176.68,-276.363 1162.22,-266.634"/>
<polygon fill="black" stroke="black" points="1163.79,-263.47 1153.54,-260.79 1159.88,-269.277 1163.79,-263.47"/>
</g>
<!-- read_in_OHI_region_rasters -->
<g id="node2" class="node"><title>read_in_OHI_region_rasters</title>
<polygon fill="#ccffcc" stroke="black" points="865.364,-332.6 630.636,-332.6 630.636,-296.6 865.364,-296.6 865.364,-332.6"/>
<text text-anchor="middle" x="748" y="-310.4" font-family="Courier,monospace" font-size="14.00">read_in_OHI_region_rasters</text>
</g>
<!-- rast_3nm -->
<g id="node11" class="node"><title>rast_3nm</title>
<path fill="#ffffcc" stroke="black" d="M655,-260.6C655,-260.6 625,-260.6 625,-260.6 619,-260.6 613,-254.6 613,-248.6 613,-248.6 613,-236.6 613,-236.6 613,-230.6 619,-224.6 625,-224.6 625,-224.6 655,-224.6 655,-224.6 661,-224.6 667,-230.6 667,-236.6 667,-236.6 667,-248.6 667,-248.6 667,-254.6 661,-260.6 655,-260.6"/>
<text text-anchor="middle" x="640" y="-239.9" font-family="Helvetica,sans-Serif" font-size="9.00">rast_3nm</text>
</g>
<!-- read_in_OHI_region_rasters&#45;&gt;rast_3nm -->
<g id="edge14" class="edge"><title>read_in_OHI_region_rasters&#45;&gt;rast_3nm</title>
<path fill="none" stroke="black" d="M721.58,-296.476C707.59,-287.408 690.224,-276.152 675.114,-266.359"/>
<polygon fill="black" stroke="black" points="676.817,-263.292 666.521,-260.79 673.009,-269.166 676.817,-263.292"/>
</g>
<!-- rast_1km -->
<g id="node12" class="node"><title>rast_1km</title>
<path fill="#ffffcc" stroke="black" d="M727,-260.6C727,-260.6 697,-260.6 697,-260.6 691,-260.6 685,-254.6 685,-248.6 685,-248.6 685,-236.6 685,-236.6 685,-230.6 691,-224.6 697,-224.6 697,-224.6 727,-224.6 727,-224.6 733,-224.6 739,-230.6 739,-236.6 739,-236.6 739,-248.6 739,-248.6 739,-254.6 733,-260.6 727,-260.6"/>
<text text-anchor="middle" x="712" y="-239.9" font-family="Helvetica,sans-Serif" font-size="9.00">rast_1km</text>
</g>
<!-- read_in_OHI_region_rasters&#45;&gt;rast_1km -->
<g id="edge15" class="edge"><title>read_in_OHI_region_rasters&#45;&gt;rast_1km</title>
<path fill="none" stroke="black" d="M739.101,-296.297C735.003,-288.328 730.051,-278.7 725.507,-269.864"/>
<polygon fill="black" stroke="black" points="728.483,-267.996 720.797,-260.704 722.258,-271.198 728.483,-267.996"/>
</g>
<!-- rast_ws -->
<g id="node13" class="node"><title>rast_ws</title>
<path fill="#ffffcc" stroke="black" d="M799,-260.6C799,-260.6 769,-260.6 769,-260.6 763,-260.6 757,-254.6 757,-248.6 757,-248.6 757,-236.6 757,-236.6 757,-230.6 763,-224.6 769,-224.6 769,-224.6 799,-224.6 799,-224.6 805,-224.6 811,-230.6 811,-236.6 811,-236.6 811,-248.6 811,-248.6 811,-254.6 805,-260.6 799,-260.6"/>
<text text-anchor="middle" x="784" y="-239.9" font-family="Helvetica,sans-Serif" font-size="9.00">rast_ws</text>
</g>
<!-- read_in_OHI_region_rasters&#45;&gt;rast_ws -->
<g id="edge16" class="edge"><title>read_in_OHI_region_rasters&#45;&gt;rast_ws</title>
<path fill="none" stroke="black" d="M756.899,-296.297C760.997,-288.328 765.949,-278.7 770.493,-269.864"/>
<polygon fill="black" stroke="black" points="773.742,-271.198 775.203,-260.704 767.517,-267.996 773.742,-271.198"/>
</g>
<!-- rast_pep -->
<g id="node14" class="node"><title>rast_pep</title>
<path fill="#ffffcc" stroke="black" d="M871,-260.6C871,-260.6 841,-260.6 841,-260.6 835,-260.6 829,-254.6 829,-248.6 829,-248.6 829,-236.6 829,-236.6 829,-230.6 835,-224.6 841,-224.6 841,-224.6 871,-224.6 871,-224.6 877,-224.6 883,-230.6 883,-236.6 883,-236.6 883,-248.6 883,-248.6 883,-254.6 877,-260.6 871,-260.6"/>
<text text-anchor="middle" x="856" y="-239.9" font-family="Helvetica,sans-Serif" font-size="9.00">rast_pep</text>
</g>
<!-- read_in_OHI_region_rasters&#45;&gt;rast_pep -->
<g id="edge17" class="edge"><title>read_in_OHI_region_rasters&#45;&gt;rast_pep</title>
<path fill="none" stroke="black" d="M774.42,-296.476C788.41,-287.408 805.776,-276.152 820.886,-266.359"/>
<polygon fill="black" stroke="black" points="822.991,-269.166 829.479,-260.79 819.183,-263.292 822.991,-269.166"/>
</g>
<!-- rast_wdpa_pep -->
<g id="node15" class="node"><title>rast_wdpa_pep</title>
<path fill="#ffffcc" stroke="black" d="M966.524,-260.6C966.524,-260.6 913.476,-260.6 913.476,-260.6 907.476,-260.6 901.476,-254.6 901.476,-248.6 901.476,-248.6 901.476,-236.6 901.476,-236.6 901.476,-230.6 907.476,-224.6 913.476,-224.6 913.476,-224.6 966.524,-224.6 966.524,-224.6 972.524,-224.6 978.524,-230.6 978.524,-236.6 978.524,-236.6 978.524,-248.6 978.524,-248.6 978.524,-254.6 972.524,-260.6 966.524,-260.6"/>
<text text-anchor="middle" x="940" y="-239.9" font-family="Helvetica,sans-Serif" font-size="9.00">rast_wdpa_pep</text>
</g>
<!-- read_in_OHI_region_rasters&#45;&gt;rast_wdpa_pep -->
<g id="edge18" class="edge"><title>read_in_OHI_region_rasters&#45;&gt;rast_wdpa_pep</title>
<path fill="none" stroke="black" d="M794.968,-296.476C824.293,-285.785 861.961,-272.052 891.559,-261.261"/>
<polygon fill="black" stroke="black" points="893.067,-264.436 901.263,-257.723 890.669,-257.86 893.067,-264.436"/>
</g>
<!-- outputs_zonal_stats_dataframes_for_protected_cells -->
<g id="node3" class="node"><title>outputs_zonal_stats_dataframes_for_protected_cells</title>
<polygon fill="#ccffcc" stroke="black" points="1037.93,-188.6 602.07,-188.6 602.07,-152.6 1037.93,-152.6 1037.93,-188.6"/>
<text text-anchor="middle" x="820" y="-166.4" font-family="Courier,monospace" font-size="14.00">outputs_zonal_stats_dataframes_for_protected_cells</text>
</g>
<!-- zonal_3nm_file -->
<g id="node16" class="node"><title>zonal_3nm_file</title>
<path fill="#ffe4b5" stroke="black" d="M498.816,-78.5C498.816,-78.5 685.184,-78.5 685.184,-78.5 691.184,-78.5 697.184,-84.5 697.184,-90.5 697.184,-90.5 697.184,-104.1 697.184,-104.1 697.184,-110.1 691.184,-116.1 685.184,-116.1 685.184,-116.1 498.816,-116.1 498.816,-116.1 492.816,-116.1 486.816,-110.1 486.816,-104.1 486.816,-104.1 486.816,-90.5 486.816,-90.5 486.816,-84.5 492.816,-78.5 498.816,-78.5"/>
<text text-anchor="middle" x="592" y="-104" font-family="Courier,monospace" font-weight="bold" font-size="9.00">zonal_3nm_file</text>
<polyline fill="none" stroke="black" points="486.816,-97.3 697.184,-97.3 "/>
<text text-anchor="start" x="494.816" y="-85.2" font-family="Courier,monospace" font-weight="bold" font-size="9.00">prep/lsp/vHS/int/zonal_stats_3nm.csv</text>
</g>
<!-- outputs_zonal_stats_dataframes_for_protected_cells&#45;&gt;zonal_3nm_file -->
<g id="edge19" class="edge"><title>outputs_zonal_stats_dataframes_for_protected_cells&#45;&gt;zonal_3nm_file</title>
<path fill="none" stroke="black" d="M765.388,-152.522C733.374,-142.51 692.689,-129.787 658.777,-119.182"/>
<polygon fill="black" stroke="black" points="659.536,-115.753 648.947,-116.108 657.447,-122.434 659.536,-115.753"/>
</g>
<!-- zonal_1km_file -->
<g id="node17" class="node"><title>zonal_1km_file</title>
<path fill="#ffe4b5" stroke="black" d="M726.816,-78.5C726.816,-78.5 913.184,-78.5 913.184,-78.5 919.184,-78.5 925.184,-84.5 925.184,-90.5 925.184,-90.5 925.184,-104.1 925.184,-104.1 925.184,-110.1 919.184,-116.1 913.184,-116.1 913.184,-116.1 726.816,-116.1 726.816,-116.1 720.816,-116.1 714.816,-110.1 714.816,-104.1 714.816,-104.1 714.816,-90.5 714.816,-90.5 714.816,-84.5 720.816,-78.5 726.816,-78.5"/>
<text text-anchor="middle" x="820" y="-104" font-family="Courier,monospace" font-weight="bold" font-size="9.00">zonal_1km_file</text>
<polyline fill="none" stroke="black" points="714.816,-97.3 925.184,-97.3 "/>
<text text-anchor="start" x="722.816" y="-85.2" font-family="Courier,monospace" font-weight="bold" font-size="9.00">prep/lsp/vHS/int/zonal_stats_1km.csv</text>
</g>
<!-- outputs_zonal_stats_dataframes_for_protected_cells&#45;&gt;zonal_1km_file -->
<g id="edge20" class="edge"><title>outputs_zonal_stats_dataframes_for_protected_cells&#45;&gt;zonal_1km_file</title>
<path fill="none" stroke="black" d="M820,-152.34C820,-144.605 820,-135.279 820,-126.568"/>
<polygon fill="black" stroke="black" points="823.5,-126.396 820,-116.396 816.5,-126.396 823.5,-126.396"/>
</g>
<!-- zonal_ws_file -->
<g id="node18" class="node"><title>zonal_ws_file</title>
<path fill="#ffe4b5" stroke="black" d="M955.516,-78.5C955.516,-78.5 1136.48,-78.5 1136.48,-78.5 1142.48,-78.5 1148.48,-84.5 1148.48,-90.5 1148.48,-90.5 1148.48,-104.1 1148.48,-104.1 1148.48,-110.1 1142.48,-116.1 1136.48,-116.1 1136.48,-116.1 955.516,-116.1 955.516,-116.1 949.516,-116.1 943.516,-110.1 943.516,-104.1 943.516,-104.1 943.516,-90.5 943.516,-90.5 943.516,-84.5 949.516,-78.5 955.516,-78.5"/>
<text text-anchor="middle" x="1046" y="-104" font-family="Courier,monospace" font-weight="bold" font-size="9.00">zonal_ws_file</text>
<polyline fill="none" stroke="black" points="943.516,-97.3 1148.48,-97.3 "/>
<text text-anchor="start" x="951.516" y="-85.2" font-family="Courier,monospace" font-weight="bold" font-size="9.00">prep/lsp/vHS/int/zonal_stats_ws.csv</text>
</g>
<!-- outputs_zonal_stats_dataframes_for_protected_cells&#45;&gt;zonal_ws_file -->
<g id="edge21" class="edge"><title>outputs_zonal_stats_dataframes_for_protected_cells&#45;&gt;zonal_ws_file</title>
<path fill="none" stroke="black" d="M874.133,-152.522C905.867,-142.51 946.194,-129.787 979.809,-119.182"/>
<polygon fill="black" stroke="black" points="981.069,-122.455 989.552,-116.108 978.963,-115.779 981.069,-122.455"/>
</g>
<!-- setup_R -->
<g id="node4" class="node"><title>setup_R</title>
<path fill="#ffe4b5" stroke="black" d="M1474,-369.1C1474,-369.1 1504,-369.1 1504,-369.1 1510,-369.1 1516,-375.1 1516,-381.1 1516,-381.1 1516,-394.7 1516,-394.7 1516,-400.7 1510,-406.7 1504,-406.7 1504,-406.7 1474,-406.7 1474,-406.7 1468,-406.7 1462,-400.7 1462,-394.7 1462,-394.7 1462,-381.1 1462,-381.1 1462,-375.1 1468,-369.1 1474,-369.1"/>
<text text-anchor="middle" x="1488.9" y="-394.6" font-family="Courier,monospace" font-weight="bold" font-size="9.00">setup_R</text>
<polyline fill="none" stroke="black" points="1462,-387.9 1515.79,-387.9 "/>
<text text-anchor="middle" x="1488.9" y="-375.8" font-family="Courier,monospace" font-weight="bold" font-size="9.00"> </text>
</g>
<!-- setup_R&#45;&gt;set_up_configuration_and_start_provenance_tracking -->
<g id="edge1" class="edge"><title>setup_R&#45;&gt;set_up_configuration_and_start_provenance_tracking</title>
<path fill="none" stroke="black" d="M1461.78,-372.229C1458.86,-370.906 1455.89,-369.666 1453,-368.6 1415.02,-354.614 1371.99,-343.326 1334.06,-334.82"/>
<polygon fill="black" stroke="black" points="1334.54,-331.342 1324.02,-332.606 1333.03,-338.178 1334.54,-331.342"/>
</g>
<!-- rast_3nm_raster_file -->
<g id="node5" class="node"><title>rast_3nm_raster_file</title>
<path fill="#ffe4b5" stroke="black" d="M1159.62,-369.1C1159.62,-369.1 1432.38,-369.1 1432.38,-369.1 1438.38,-369.1 1444.38,-375.1 1444.38,-381.1 1444.38,-381.1 1444.38,-394.7 1444.38,-394.7 1444.38,-400.7 1438.38,-406.7 1432.38,-406.7 1432.38,-406.7 1159.62,-406.7 1159.62,-406.7 1153.62,-406.7 1147.62,-400.7 1147.62,-394.7 1147.62,-394.7 1147.62,-381.1 1147.62,-381.1 1147.62,-375.1 1153.62,-369.1 1159.62,-369.1"/>
<text text-anchor="middle" x="1296" y="-394.6" font-family="Courier,monospace" font-weight="bold" font-size="9.00">rast_3nm_raster_file</text>
<polyline fill="none" stroke="black" points="1147.62,-387.9 1444.38,-387.9 "/>
<text text-anchor="start" x="1155.62" y="-375.8" font-family="Courier,monospace" font-weight="bold" font-size="9.00">prep/lsp/vHS/spatial/hs_offshore_3nm_raster_500m.tif</text>
</g>
<!-- rast_3nm_raster_file&#45;&gt;read_in_OHI_region_rasters -->
<g id="edge3" class="edge"><title>rast_3nm_raster_file&#45;&gt;read_in_OHI_region_rasters</title>
<path fill="none" stroke="black" d="M1159.13,-369.092C1072.22,-357.784 960.511,-343.25 875.477,-332.186"/>
<polygon fill="black" stroke="black" points="875.873,-328.708 865.505,-330.888 874.969,-335.65 875.873,-328.708"/>
</g>
<!-- rast_1km_raster_file -->
<g id="node6" class="node"><title>rast_1km_raster_file</title>
<path fill="#ffe4b5" stroke="black" d="M856.022,-369.1C856.022,-369.1 1117.98,-369.1 1117.98,-369.1 1123.98,-369.1 1129.98,-375.1 1129.98,-381.1 1129.98,-381.1 1129.98,-394.7 1129.98,-394.7 1129.98,-400.7 1123.98,-406.7 1117.98,-406.7 1117.98,-406.7 856.022,-406.7 856.022,-406.7 850.022,-406.7 844.022,-400.7 844.022,-394.7 844.022,-394.7 844.022,-381.1 844.022,-381.1 844.022,-375.1 850.022,-369.1 856.022,-369.1"/>
<text text-anchor="middle" x="987" y="-394.6" font-family="Courier,monospace" font-weight="bold" font-size="9.00">rast_1km_raster_file</text>
<polyline fill="none" stroke="black" points="844.022,-387.9 1129.98,-387.9 "/>
<text text-anchor="start" x="852.022" y="-375.8" font-family="Courier,monospace" font-weight="bold" font-size="9.00">prep/lsp/vHS/spatial/hs_inland_1km_raster_500m.tif</text>
</g>
<!-- rast_1km_raster_file&#45;&gt;read_in_OHI_region_rasters -->
<g id="edge4" class="edge"><title>rast_1km_raster_file&#45;&gt;read_in_OHI_region_rasters</title>
<path fill="none" stroke="black" d="M927.307,-369.092C893.184,-358.912 850.296,-346.118 815.021,-335.594"/>
<polygon fill="black" stroke="black" points="815.87,-332.195 805.287,-332.69 813.869,-338.903 815.87,-332.195"/>
</g>
<!-- rast_ws_raster_file -->
<g id="node7" class="node"><title>rast_ws_raster_file</title>
<path fill="#ffe4b5" stroke="black" d="M552.022,-369.1C552.022,-369.1 813.978,-369.1 813.978,-369.1 819.978,-369.1 825.978,-375.1 825.978,-381.1 825.978,-381.1 825.978,-394.7 825.978,-394.7 825.978,-400.7 819.978,-406.7 813.978,-406.7 813.978,-406.7 552.022,-406.7 552.022,-406.7 546.022,-406.7 540.022,-400.7 540.022,-394.7 540.022,-394.7 540.022,-381.1 540.022,-381.1 540.022,-375.1 546.022,-369.1 552.022,-369.1"/>
<text text-anchor="middle" x="683" y="-394.6" font-family="Courier,monospace" font-weight="bold" font-size="9.00">rast_ws_raster_file</text>
<polyline fill="none" stroke="black" points="540.022,-387.9 825.978,-387.9 "/>
<text text-anchor="start" x="548.022" y="-375.8" font-family="Courier,monospace" font-weight="bold" font-size="9.00">prep/lsp/vHS/spatial/howe_sound_watershed_500m.tif</text>
</g>
<!-- rast_ws_raster_file&#45;&gt;read_in_OHI_region_rasters -->
<g id="edge5" class="edge"><title>rast_ws_raster_file&#45;&gt;read_in_OHI_region_rasters</title>
<path fill="none" stroke="black" d="M699.402,-368.908C707.277,-360.27 716.838,-349.783 725.389,-340.402"/>
<polygon fill="black" stroke="black" points="728.125,-342.596 732.276,-332.848 722.952,-337.88 728.125,-342.596"/>
</g>
<!-- rast_pep_file -->
<g id="node8" class="node"><title>rast_pep_file</title>
<path fill="#ffe4b5" stroke="black" d="M296.318,-369.1C296.318,-369.1 509.682,-369.1 509.682,-369.1 515.682,-369.1 521.682,-375.1 521.682,-381.1 521.682,-381.1 521.682,-394.7 521.682,-394.7 521.682,-400.7 515.682,-406.7 509.682,-406.7 509.682,-406.7 296.318,-406.7 296.318,-406.7 290.318,-406.7 284.318,-400.7 284.318,-394.7 284.318,-394.7 284.318,-381.1 284.318,-381.1 284.318,-375.1 290.318,-369.1 296.318,-369.1"/>
<text text-anchor="middle" x="403" y="-394.6" font-family="Courier,monospace" font-weight="bold" font-size="9.00">rast_pep_file</text>
<polyline fill="none" stroke="black" points="284.318,-387.9 521.682,-387.9 "/>
<text text-anchor="start" x="292.318" y="-375.8" font-family="Courier,monospace" font-weight="bold" font-size="9.00">prep/lsp/vHS/spatial/hs_pep_rast_500m.tif</text>
</g>
<!-- rast_pep_file&#45;&gt;read_in_OHI_region_rasters -->
<g id="edge6" class="edge"><title>rast_pep_file&#45;&gt;read_in_OHI_region_rasters</title>
<path fill="none" stroke="black" d="M489.168,-369.092C539.887,-358.61 604.021,-345.356 655.759,-334.663"/>
<polygon fill="black" stroke="black" points="656.516,-338.081 665.601,-332.629 655.1,-331.226 656.516,-338.081"/>
</g>
<!-- rast_wdpa_pep_file -->
<g id="node9" class="node"><title>rast_wdpa_pep_file</title>
<path fill="#ffe4b5" stroke="black" d="M35.6189,-369.1C35.6189,-369.1 254.381,-369.1 254.381,-369.1 260.381,-369.1 266.381,-375.1 266.381,-381.1 266.381,-381.1 266.381,-394.7 266.381,-394.7 266.381,-400.7 260.381,-406.7 254.381,-406.7 254.381,-406.7 35.6189,-406.7 35.6189,-406.7 29.6189,-406.7 23.6189,-400.7 23.6189,-394.7 23.6189,-394.7 23.6189,-381.1 23.6189,-381.1 23.6189,-375.1 29.6189,-369.1 35.6189,-369.1"/>
<text text-anchor="middle" x="145" y="-394.6" font-family="Courier,monospace" font-weight="bold" font-size="9.00">rast_wdpa_pep_file</text>
<polyline fill="none" stroke="black" points="23.6189,-387.9 266.381,-387.9 "/>
<text text-anchor="start" x="31.6189" y="-375.8" font-family="Courier,monospace" font-weight="bold" font-size="9.00">prep/lsp/vHS/spatial/hs_wdpa_rast_500m.tif</text>
</g>
<!-- rast_wdpa_pep_file&#45;&gt;read_in_OHI_region_rasters -->
<g id="edge7" class="edge"><title>rast_wdpa_pep_file&#45;&gt;read_in_OHI_region_rasters</title>
<path fill="none" stroke="black" d="M266.429,-369.696C269.313,-369.323 272.173,-368.957 275,-368.6 391.985,-353.815 525.52,-339.045 620.805,-328.867"/>
<polygon fill="black" stroke="black" points="621.203,-332.344 630.775,-327.804 620.46,-325.384 621.203,-332.344"/>
</g>
<!-- dir_goal&#45;&gt;outputs_zonal_stats_dataframes_for_protected_cells -->
<g id="edge2" class="edge"><title>dir_goal&#45;&gt;outputs_zonal_stats_dataframes_for_protected_cells</title>
<path fill="none" stroke="black" d="M1100.94,-235.449C1057.58,-225.596 970.767,-205.865 905.055,-190.931"/>
<polygon fill="black" stroke="black" points="905.638,-187.474 895.111,-188.671 904.087,-194.3 905.638,-187.474"/>
</g>
<!-- rast_3nm&#45;&gt;outputs_zonal_stats_dataframes_for_protected_cells -->
<g id="edge8" class="edge"><title>rast_3nm&#45;&gt;outputs_zonal_stats_dataframes_for_protected_cells</title>
<path fill="none" stroke="black" d="M667.011,-228.531C670.027,-227.165 673.068,-225.829 676,-224.6 703.449,-213.094 734.367,-201.536 760.498,-192.163"/>
<polygon fill="black" stroke="black" points="762.017,-195.337 770.261,-188.683 759.666,-188.744 762.017,-195.337"/>
</g>
<!-- rast_1km&#45;&gt;outputs_zonal_stats_dataframes_for_protected_cells -->
<g id="edge9" class="edge"><title>rast_1km&#45;&gt;outputs_zonal_stats_dataframes_for_protected_cells</title>
<path fill="none" stroke="black" d="M738.42,-224.476C752.41,-215.408 769.776,-204.152 784.886,-194.359"/>
<polygon fill="black" stroke="black" points="786.991,-197.166 793.479,-188.79 783.183,-191.292 786.991,-197.166"/>
</g>
<!-- rast_ws&#45;&gt;outputs_zonal_stats_dataframes_for_protected_cells -->
<g id="edge10" class="edge"><title>rast_ws&#45;&gt;outputs_zonal_stats_dataframes_for_protected_cells</title>
<path fill="none" stroke="black" d="M792.899,-224.297C796.997,-216.328 801.949,-206.7 806.493,-197.864"/>
<polygon fill="black" stroke="black" points="809.742,-199.198 811.203,-188.704 803.517,-195.996 809.742,-199.198"/>
</g>
<!-- rast_pep&#45;&gt;outputs_zonal_stats_dataframes_for_protected_cells -->
<g id="edge11" class="edge"><title>rast_pep&#45;&gt;outputs_zonal_stats_dataframes_for_protected_cells</title>
<path fill="none" stroke="black" d="M847.101,-224.297C843.003,-216.328 838.051,-206.7 833.507,-197.864"/>
<polygon fill="black" stroke="black" points="836.483,-195.996 828.797,-188.704 830.258,-199.198 836.483,-195.996"/>
</g>
<!-- rast_wdpa_pep&#45;&gt;outputs_zonal_stats_dataframes_for_protected_cells -->
<g id="edge12" class="edge"><title>rast_wdpa_pep&#45;&gt;outputs_zonal_stats_dataframes_for_protected_cells</title>
<path fill="none" stroke="black" d="M910.645,-224.476C894.955,-215.324 875.443,-203.942 858.546,-194.085"/>
<polygon fill="black" stroke="black" points="859.87,-190.805 849.468,-188.79 856.342,-196.852 859.87,-190.805"/>
</g>
<!-- zonal_3nm_file_outflow -->
<g id="node27" class="node"><title>zonal_3nm_file_outflow</title>
<ellipse fill="none" stroke="black" cx="788" cy="-31" rx="7" ry="7"/>
</g>
<!-- zonal_3nm_file&#45;&gt;zonal_3nm_file_outflow -->
<g id="edge30" class="edge"><title>zonal_3nm_file&#45;&gt;zonal_3nm_file_outflow</title>
<path fill="none" stroke="black" d="M646.337,-78.4743C688.566,-64.6204 744.392,-46.3061 771.635,-37.3688"/>
<polygon fill="black" stroke="black" points="773.026,-40.5959 781.437,-34.153 770.844,-33.9446 773.026,-40.5959"/>
</g>
<!-- zonal_1km_file_outflow -->
<g id="node26" class="node"><title>zonal_1km_file_outflow</title>
<ellipse fill="none" stroke="black" cx="820" cy="-31" rx="7" ry="7"/>
</g>
<!-- zonal_1km_file&#45;&gt;zonal_1km_file_outflow -->
<g id="edge29" class="edge"><title>zonal_1km_file&#45;&gt;zonal_1km_file_outflow</title>
<path fill="none" stroke="black" d="M820,-78.3889C820,-68.9828 820,-57.5389 820,-48.3712"/>
<polygon fill="black" stroke="black" points="823.5,-48.3008 820,-38.3008 816.5,-48.3008 823.5,-48.3008"/>
</g>
<!-- zonal_ws_file_outflow -->
<g id="node25" class="node"><title>zonal_ws_file_outflow</title>
<ellipse fill="none" stroke="black" cx="852" cy="-31" rx="7" ry="7"/>
</g>
<!-- zonal_ws_file&#45;&gt;zonal_ws_file_outflow -->
<g id="edge28" class="edge"><title>zonal_ws_file&#45;&gt;zonal_ws_file_outflow</title>
<path fill="none" stroke="black" d="M992.218,-78.4743C950.419,-64.6204 895.163,-46.3061 868.198,-37.3688"/>
<polygon fill="black" stroke="black" points="869.089,-33.9769 858.496,-34.153 866.887,-40.6215 869.089,-33.9769"/>
</g>
<!-- setup_R_inflow -->
<g id="node19" class="node"><title>setup_R_inflow</title>
<ellipse fill="none" stroke="black" cx="915" cy="-454.2" rx="7" ry="7"/>
</g>
<!-- setup_R_inflow&#45;&gt;setup_R -->
<g id="edge22" class="edge"><title>setup_R_inflow&#45;&gt;setup_R</title>
<path fill="none" stroke="black" d="M922.224,-453.098C982.581,-452.209 1402.03,-445.262 1453,-423.2 1458.15,-420.971 1463.01,-417.663 1467.38,-413.967"/>
<polygon fill="black" stroke="black" points="1469.85,-416.457 1474.71,-407.045 1465.04,-411.368 1469.85,-416.457"/>
</g>
<!-- rast_3nm_raster_file_inflow -->
<g id="node20" class="node"><title>rast_3nm_raster_file_inflow</title>
<ellipse fill="none" stroke="black" cx="883" cy="-454.2" rx="7" ry="7"/>
</g>
<!-- rast_3nm_raster_file_inflow&#45;&gt;rast_3nm_raster_file -->
<g id="edge23" class="edge"><title>rast_3nm_raster_file_inflow&#45;&gt;rast_3nm_raster_file</title>
<path fill="none" stroke="black" d="M885.437,-447.332C887.974,-442.066 892.491,-434.652 899,-431.2 922.571,-418.698 1112.52,-426.505 1139,-423.2 1164.78,-419.981 1192.59,-414.564 1217.53,-408.975"/>
<polygon fill="black" stroke="black" points="1218.33,-412.382 1227.3,-406.744 1216.77,-405.558 1218.33,-412.382"/>
</g>
<!-- rast_1km_raster_file_inflow -->
<g id="node21" class="node"><title>rast_1km_raster_file_inflow</title>
<ellipse fill="none" stroke="black" cx="851" cy="-454.2" rx="7" ry="7"/>
</g>
<!-- rast_1km_raster_file_inflow&#45;&gt;rast_1km_raster_file -->
<g id="edge24" class="edge"><title>rast_1km_raster_file_inflow&#45;&gt;rast_1km_raster_file</title>
<path fill="none" stroke="black" d="M853.926,-447.381C856.683,-442.441 861.244,-435.49 867,-431.2 878.188,-422.862 891.162,-416.063 904.358,-410.552"/>
<polygon fill="black" stroke="black" points="905.96,-413.682 913.983,-406.763 903.396,-407.169 905.96,-413.682"/>
</g>
<!-- rast_ws_raster_file_inflow -->
<g id="node22" class="node"><title>rast_ws_raster_file_inflow</title>
<ellipse fill="none" stroke="black" cx="819" cy="-454.2" rx="7" ry="7"/>
</g>
<!-- rast_ws_raster_file_inflow&#45;&gt;rast_ws_raster_file -->
<g id="edge25" class="edge"><title>rast_ws_raster_file_inflow&#45;&gt;rast_ws_raster_file</title>
<path fill="none" stroke="black" d="M816.074,-447.381C813.317,-442.441 808.756,-435.49 803,-431.2 791.812,-422.862 778.838,-416.063 765.642,-410.552"/>
<polygon fill="black" stroke="black" points="766.604,-407.169 756.017,-406.763 764.04,-413.682 766.604,-407.169"/>
</g>
<!-- rast_pep_file_inflow -->
<g id="node23" class="node"><title>rast_pep_file_inflow</title>
<ellipse fill="none" stroke="black" cx="787" cy="-454.2" rx="7" ry="7"/>
</g>
<!-- rast_pep_file_inflow&#45;&gt;rast_pep_file -->
<g id="edge26" class="edge"><title>rast_pep_file_inflow&#45;&gt;rast_pep_file</title>
<path fill="none" stroke="black" d="M784.563,-447.332C782.026,-442.066 777.509,-434.652 771,-431.2 747.429,-418.698 557.391,-427.123 531,-423.2 510.365,-420.133 488.288,-414.935 468.38,-409.5"/>
<polygon fill="black" stroke="black" points="469.066,-406.058 458.493,-406.735 467.181,-412.799 469.066,-406.058"/>
</g>
<!-- rast_wdpa_pep_file_inflow -->
<g id="node24" class="node"><title>rast_wdpa_pep_file_inflow</title>
<ellipse fill="none" stroke="black" cx="755" cy="-454.2" rx="7" ry="7"/>
</g>
<!-- rast_wdpa_pep_file_inflow&#45;&gt;rast_wdpa_pep_file -->
<g id="edge27" class="edge"><title>rast_wdpa_pep_file_inflow&#45;&gt;rast_wdpa_pep_file</title>
<path fill="none" stroke="black" d="M747.896,-453.275C704.045,-453.634 465.818,-454.032 275,-423.2 254.499,-419.887 232.546,-414.735 212.627,-409.421"/>
<polygon fill="black" stroke="black" points="213.29,-405.974 202.722,-406.722 211.45,-412.728 213.29,-405.974"/>
</g>
</g>
</svg>
