<?xml version="1.0" encoding="UTF-8" standalone="no"?>
<!DOCTYPE svg PUBLIC "-//W3C//DTD SVG 1.1//EN"
 "http://www.w3.org/Graphics/SVG/1.1/DTD/svg11.dtd">
<!-- Generated by graphviz version 2.38.0 (20140413.2041)
 -->
<!-- Title: yw_data_view Pages: 1 -->
<svg width="905pt" height="806pt"
 viewBox="0.00 0.00 905.00 805.60" xmlns="http://www.w3.org/2000/svg" xmlns:xlink="http://www.w3.org/1999/xlink">
<g id="graph0" class="graph" transform="scale(1 1) rotate(0) translate(4 801.6)">
<title>yw_data_view</title>
<polygon fill="white" stroke="none" points="-4,4 -4,-801.6 901,-801.6 901,4 -4,4"/>
<text text-anchor="middle" x="448.5" y="-777.4" font-family="Courier,monospace" font-size="18.00">estimate_status_and_trend_by_year</text>
<g id="clust1" class="cluster"><title>cluster_workflow</title>
<polygon fill="none" stroke="black" stroke-width="2" points="8,-62 8,-706 889,-706 889,-62 8,-62"/>
</g>
<g id="clust2" class="cluster"><title>cluster_workflow_inner</title>
<polygon fill="none" stroke="white" stroke-width="2" points="16,-70 16,-698 881,-698 881,-70 16,-70"/>
</g>
<g id="clust3" class="cluster"><title>cluster_inflows</title>
<polygon fill="none" stroke="white" stroke-width="2" points="557,-714 557,-760 635,-760 635,-714 557,-714"/>
</g>
<g id="clust4" class="cluster"><title>cluster_inflows_inner</title>
<polygon fill="none" stroke="white" stroke-width="2" points="565,-722 565,-752 627,-752 627,-722 565,-722"/>
</g>
<g id="clust5" class="cluster"><title>cluster_outflows</title>
<polygon fill="none" stroke="white" stroke-width="2" points="389,-8 389,-54 499,-54 499,-8 389,-8"/>
</g>
<g id="clust6" class="cluster"><title>cluster_outflows_inner</title>
<polygon fill="none" stroke="white" stroke-width="2" points="397,-16 397,-46 491,-46 491,-16 397,-16"/>
</g>
<!-- set_up_configuration_and_start_provenance_tracking -->
<g id="node1" class="node"><title>set_up_configuration_and_start_provenance_tracking</title>
<polygon fill="#ccffcc" stroke="black" points="532.93,-618 97.07,-618 97.07,-582 532.93,-582 532.93,-618"/>
<text text-anchor="middle" x="315" y="-595.8" font-family="Courier,monospace" font-size="14.00">set_up_configuration_and_start_provenance_tracking</text>
</g>
<!-- dir_goal -->
<g id="node10" class="node"><title>dir_goal</title>
<path fill="#ffffcc" stroke="black" d="M306.787,-546C306.787,-546 265.213,-546 265.213,-546 259.213,-546 253.213,-540 253.213,-534 253.213,-534 253.213,-522 253.213,-522 253.213,-516 259.213,-510 265.213,-510 265.213,-510 306.787,-510 306.787,-510 312.787,-510 318.787,-516 318.787,-522 318.787,-522 318.787,-534 318.787,-534 318.787,-540 312.787,-546 306.787,-546"/>
<text text-anchor="middle" x="286" y="-523.8" font-family="Helvetica,sans-Serif" font-size="14.00">dir_goal</text>
</g>
<!-- set_up_configuration_and_start_provenance_tracking&#45;&gt;dir_goal -->
<g id="edge15" class="edge"><title>set_up_configuration_and_start_provenance_tracking&#45;&gt;dir_goal</title>
<path fill="none" stroke="black" d="M307.831,-581.697C304.565,-573.813 300.626,-564.304 296.998,-555.546"/>
<polygon fill="black" stroke="black" points="300.147,-554.003 293.086,-546.104 293.68,-556.683 300.147,-554.003"/>
</g>
<!-- create_new_stats_and_trend_file -->
<g id="node2" class="node"><title>create_new_stats_and_trend_file</title>
<polygon fill="#ccffcc" stroke="black" points="409.357,-474 132.643,-474 132.643,-438 409.357,-438 409.357,-474"/>
<text text-anchor="middle" x="271" y="-451.8" font-family="Courier,monospace" font-size="14.00">create_new_stats_and_trend_file</text>
</g>
<!-- status_file_handle -->
<g id="node11" class="node"><title>status_file_handle</title>
<path fill="#ffffcc" stroke="black" d="M616.318,-402C616.318,-402 511.682,-402 511.682,-402 505.682,-402 499.682,-396 499.682,-390 499.682,-390 499.682,-378 499.682,-378 499.682,-372 505.682,-366 511.682,-366 511.682,-366 616.318,-366 616.318,-366 622.318,-366 628.318,-372 628.318,-378 628.318,-378 628.318,-390 628.318,-390 628.318,-396 622.318,-402 616.318,-402"/>
<text text-anchor="middle" x="564" y="-379.8" font-family="Helvetica,sans-Serif" font-size="14.00">status_file_handle</text>
</g>
<!-- create_new_stats_and_trend_file&#45;&gt;status_file_handle -->
<g id="edge16" class="edge"><title>create_new_stats_and_trend_file&#45;&gt;status_file_handle</title>
<path fill="none" stroke="black" d="M342.301,-437.966C386.962,-427.296 444.415,-413.57 489.643,-402.764"/>
<polygon fill="black" stroke="black" points="490.479,-406.163 499.392,-400.435 488.852,-399.355 490.479,-406.163"/>
</g>
<!-- trend_file_handle -->
<g id="node12" class="node"><title>trend_file_handle</title>
<path fill="#ffffcc" stroke="black" d="M292.871,-402C292.871,-402 193.129,-402 193.129,-402 187.129,-402 181.129,-396 181.129,-390 181.129,-390 181.129,-378 181.129,-378 181.129,-372 187.129,-366 193.129,-366 193.129,-366 292.871,-366 292.871,-366 298.871,-366 304.871,-372 304.871,-378 304.871,-378 304.871,-390 304.871,-390 304.871,-396 298.871,-402 292.871,-402"/>
<text text-anchor="middle" x="243" y="-379.8" font-family="Helvetica,sans-Serif" font-size="14.00">trend_file_handle</text>
</g>
<!-- create_new_stats_and_trend_file&#45;&gt;trend_file_handle -->
<g id="edge17" class="edge"><title>create_new_stats_and_trend_file&#45;&gt;trend_file_handle</title>
<path fill="none" stroke="black" d="M264.079,-437.697C260.925,-429.813 257.122,-420.304 253.619,-411.546"/>
<polygon fill="black" stroke="black" points="256.805,-410.089 249.842,-402.104 250.306,-412.689 256.805,-410.089"/>
</g>
<!-- define_param_year_span -->
<g id="node3" class="node"><title>define_param_year_span</title>
<polygon fill="#ccffcc" stroke="black" points="628.269,-474 427.731,-474 427.731,-438 628.269,-438 628.269,-474"/>
<text text-anchor="middle" x="528" y="-451.8" font-family="Courier,monospace" font-size="14.00">define_param_year_span</text>
</g>
<!-- year_span -->
<g id="node13" class="node"><title>year_span</title>
<path fill="#ffffcc" stroke="black" d="M469.857,-402C469.857,-402 412.143,-402 412.143,-402 406.143,-402 400.143,-396 400.143,-390 400.143,-390 400.143,-378 400.143,-378 400.143,-372 406.143,-366 412.143,-366 412.143,-366 469.857,-366 469.857,-366 475.857,-366 481.857,-372 481.857,-378 481.857,-378 481.857,-390 481.857,-390 481.857,-396 475.857,-402 469.857,-402"/>
<text text-anchor="middle" x="441" y="-379.8" font-family="Helvetica,sans-Serif" font-size="14.00">year_span</text>
</g>
<!-- define_param_year_span&#45;&gt;year_span -->
<g id="edge18" class="edge"><title>define_param_year_span&#45;&gt;year_span</title>
<path fill="none" stroke="black" d="M506.494,-437.697C495.537,-428.881 482.054,-418.032 470.175,-408.474"/>
<polygon fill="black" stroke="black" points="472.244,-405.646 462.258,-402.104 467.855,-411.1 472.244,-405.646"/>
</g>
<!-- output_estimate_status_file_by_region_since_1980 -->
<g id="node4" class="node"><title>output_estimate_status_file_by_region_since_1980</title>
<polygon fill="#ccffcc" stroke="black" points="871.633,-330 452.367,-330 452.367,-294 871.633,-294 871.633,-330"/>
<text text-anchor="middle" x="662" y="-307.8" font-family="Courier,monospace" font-size="14.00">output_estimate_status_file_by_region_since_1980</text>
</g>
<!-- status_df_data -->
<g id="node15" class="node"><title>status_df_data</title>
<path fill="#ffffcc" stroke="black" d="M703.823,-258C703.823,-258 620.177,-258 620.177,-258 614.177,-258 608.177,-252 608.177,-246 608.177,-246 608.177,-234 608.177,-234 608.177,-228 614.177,-222 620.177,-222 620.177,-222 703.823,-222 703.823,-222 709.823,-222 715.823,-228 715.823,-234 715.823,-234 715.823,-246 715.823,-246 715.823,-252 709.823,-258 703.823,-258"/>
<text text-anchor="middle" x="662" y="-235.8" font-family="Helvetica,sans-Serif" font-size="14.00">status_df_data</text>
</g>
<!-- output_estimate_status_file_by_region_since_1980&#45;&gt;status_df_data -->
<g id="edge19" class="edge"><title>output_estimate_status_file_by_region_since_1980&#45;&gt;status_df_data</title>
<path fill="none" stroke="black" d="M662,-293.697C662,-285.983 662,-276.712 662,-268.112"/>
<polygon fill="black" stroke="black" points="665.5,-268.104 662,-258.104 658.5,-268.104 665.5,-268.104"/>
</g>
<!-- write_status_to_csv_file -->
<g id="node5" class="node"><title>write_status_to_csv_file</title>
<polygon fill="#ccffcc" stroke="black" points="872.567,-186 655.433,-186 655.433,-150 872.567,-150 872.567,-186"/>
<text text-anchor="middle" x="764" y="-163.8" font-family="Courier,monospace" font-size="14.00">write_status_to_csv_file</text>
</g>
<!-- lsp_status_file -->
<g id="node16" class="node"><title>lsp_status_file</title>
<path fill="#ffffcc" stroke="black" d="M737.188,-114C737.188,-114 656.812,-114 656.812,-114 650.812,-114 644.812,-108 644.812,-102 644.812,-102 644.812,-90 644.812,-90 644.812,-84 650.812,-78 656.812,-78 656.812,-78 737.188,-78 737.188,-78 743.188,-78 749.188,-84 749.188,-90 749.188,-90 749.188,-102 749.188,-102 749.188,-108 743.188,-114 737.188,-114"/>
<text text-anchor="middle" x="697" y="-91.8" font-family="Helvetica,sans-Serif" font-size="14.00">lsp_status_file</text>
</g>
<!-- write_status_to_csv_file&#45;&gt;lsp_status_file -->
<g id="edge20" class="edge"><title>write_status_to_csv_file&#45;&gt;lsp_status_file</title>
<path fill="none" stroke="black" d="M747.438,-149.697C739.325,-141.22 729.412,-130.864 720.529,-121.583"/>
<polygon fill="black" stroke="black" points="722.814,-118.908 713.371,-114.104 717.757,-123.749 722.814,-118.908"/>
</g>
<!-- output_estimate_trend_file_by_region_since_1980 -->
<g id="node6" class="node"><title>output_estimate_trend_file_by_region_since_1980</title>
<polygon fill="#ccffcc" stroke="black" points="434.234,-330 23.7657,-330 23.7657,-294 434.234,-294 434.234,-330"/>
<text text-anchor="middle" x="229" y="-307.8" font-family="Courier,monospace" font-size="14.00">output_estimate_trend_file_by_region_since_1980</text>
</g>
<!-- trend_df_data -->
<g id="node17" class="node"><title>trend_df_data</title>
<path fill="#ffffcc" stroke="black" d="M268.376,-258C268.376,-258 189.624,-258 189.624,-258 183.624,-258 177.624,-252 177.624,-246 177.624,-246 177.624,-234 177.624,-234 177.624,-228 183.624,-222 189.624,-222 189.624,-222 268.376,-222 268.376,-222 274.376,-222 280.376,-228 280.376,-234 280.376,-234 280.376,-246 280.376,-246 280.376,-252 274.376,-258 268.376,-258"/>
<text text-anchor="middle" x="229" y="-235.8" font-family="Helvetica,sans-Serif" font-size="14.00">trend_df_data</text>
</g>
<!-- output_estimate_trend_file_by_region_since_1980&#45;&gt;trend_df_data -->
<g id="edge21" class="edge"><title>output_estimate_trend_file_by_region_since_1980&#45;&gt;trend_df_data</title>
<path fill="none" stroke="black" d="M229,-293.697C229,-285.983 229,-276.712 229,-268.112"/>
<polygon fill="black" stroke="black" points="232.5,-268.104 229,-258.104 225.5,-268.104 232.5,-268.104"/>
</g>
<!-- write_trend_to_csv_file -->
<g id="node7" class="node"><title>write_trend_to_csv_file</title>
<polygon fill="#ccffcc" stroke="black" points="233.668,-186 24.3321,-186 24.3321,-150 233.668,-150 233.668,-186"/>
<text text-anchor="middle" x="129" y="-163.8" font-family="Courier,monospace" font-size="14.00">write_trend_to_csv_file</text>
</g>
<!-- lsp_trend_file -->
<g id="node18" class="node"><title>lsp_trend_file</title>
<path fill="#ffffcc" stroke="black" d="M232.74,-114C232.74,-114 157.26,-114 157.26,-114 151.26,-114 145.26,-108 145.26,-102 145.26,-102 145.26,-90 145.26,-90 145.26,-84 151.26,-78 157.26,-78 157.26,-78 232.74,-78 232.74,-78 238.74,-78 244.74,-84 244.74,-90 244.74,-90 244.74,-102 244.74,-102 244.74,-108 238.74,-114 232.74,-114"/>
<text text-anchor="middle" x="195" y="-91.8" font-family="Helvetica,sans-Serif" font-size="14.00">lsp_trend_file</text>
</g>
<!-- write_trend_to_csv_file&#45;&gt;lsp_trend_file -->
<g id="edge22" class="edge"><title>write_trend_to_csv_file&#45;&gt;lsp_trend_file</title>
<path fill="none" stroke="black" d="M145.315,-149.697C153.307,-141.22 163.072,-130.864 171.822,-121.583"/>
<polygon fill="black" stroke="black" points="174.559,-123.781 178.873,-114.104 169.466,-118.979 174.559,-123.781"/>
</g>
<!-- save_year_by_year_status_and_trend_estimates -->
<g id="node8" class="node"><title>save_year_by_year_status_and_trend_estimates</title>
<polygon fill="#ccffcc" stroke="black" points="636.539,-186 251.461,-186 251.461,-150 636.539,-150 636.539,-186"/>
<text text-anchor="middle" x="444" y="-163.8" font-family="Courier,monospace" font-size="14.00">save_year_by_year_status_and_trend_estimates</text>
</g>
<!-- lsp_status_trend_summary_db_file -->
<g id="node19" class="node"><title>lsp_status_trend_summary_db_file</title>
<path fill="#ffffcc" stroke="black" d="M548.546,-114C548.546,-114 339.454,-114 339.454,-114 333.454,-114 327.454,-108 327.454,-102 327.454,-102 327.454,-90 327.454,-90 327.454,-84 333.454,-78 339.454,-78 339.454,-78 548.546,-78 548.546,-78 554.546,-78 560.546,-84 560.546,-90 560.546,-90 560.546,-102 560.546,-102 560.546,-108 554.546,-114 548.546,-114"/>
<text text-anchor="middle" x="444" y="-91.8" font-family="Helvetica,sans-Serif" font-size="14.00">lsp_status_trend_summary_db_file</text>
</g>
<!-- save_year_by_year_status_and_trend_estimates&#45;&gt;lsp_status_trend_summary_db_file -->
<g id="edge23" class="edge"><title>save_year_by_year_status_and_trend_estimates&#45;&gt;lsp_status_trend_summary_db_file</title>
<path fill="none" stroke="black" d="M444,-149.697C444,-141.983 444,-132.712 444,-124.112"/>
<polygon fill="black" stroke="black" points="447.5,-124.104 444,-114.104 440.5,-124.104 447.5,-124.104"/>
</g>
<!-- setup_R -->
<g id="node9" class="node"><title>setup_R</title>
<path fill="#ffffcc" stroke="black" d="M502.128,-690C502.128,-690 457.872,-690 457.872,-690 451.872,-690 445.872,-684 445.872,-678 445.872,-678 445.872,-666 445.872,-666 445.872,-660 451.872,-654 457.872,-654 457.872,-654 502.128,-654 502.128,-654 508.128,-654 514.128,-660 514.128,-666 514.128,-666 514.128,-678 514.128,-678 514.128,-684 508.128,-690 502.128,-690"/>
<text text-anchor="middle" x="480" y="-667.8" font-family="Helvetica,sans-Serif" font-size="14.00">setup_R</text>
</g>
<!-- setup_R&#45;&gt;set_up_configuration_and_start_provenance_tracking -->
<g id="edge1" class="edge"><title>setup_R&#45;&gt;set_up_configuration_and_start_provenance_tracking</title>
<path fill="none" stroke="black" d="M445.812,-656.496C422.357,-646.545 390.857,-633.182 364.646,-622.062"/>
<polygon fill="black" stroke="black" points="365.826,-618.761 355.253,-618.077 363.092,-625.205 365.826,-618.761"/>
</g>
<!-- dir_goal&#45;&gt;create_new_stats_and_trend_file -->
<g id="edge2" class="edge"><title>dir_goal&#45;&gt;create_new_stats_and_trend_file</title>
<path fill="none" stroke="black" d="M282.292,-509.697C280.639,-501.983 278.653,-492.712 276.81,-484.112"/>
<polygon fill="black" stroke="black" points="280.183,-483.149 274.665,-474.104 273.338,-484.616 280.183,-483.149"/>
</g>
<!-- dir_goal&#45;&gt;output_estimate_status_file_by_region_since_1980 -->
<g id="edge3" class="edge"><title>dir_goal&#45;&gt;output_estimate_status_file_by_region_since_1980</title>
<path fill="none" stroke="black" d="M318.914,-526.806C397.459,-525.621 592.622,-518.193 637,-474 646.331,-464.708 655.315,-383.743 659.52,-340.295"/>
<polygon fill="black" stroke="black" points="663.025,-340.409 660.483,-330.123 656.056,-339.749 663.025,-340.409"/>
</g>
<!-- dir_goal&#45;&gt;output_estimate_trend_file_by_region_since_1980 -->
<g id="edge4" class="edge"><title>dir_goal&#45;&gt;output_estimate_trend_file_by_region_since_1980</title>
<path fill="none" stroke="black" d="M253.096,-526.845C214.915,-524.677 153.441,-514.609 124,-474 89.3856,-426.256 152.595,-367.708 195.067,-336.023"/>
<polygon fill="black" stroke="black" points="197.232,-338.775 203.249,-330.055 193.107,-333.12 197.232,-338.775"/>
</g>
<!-- status_file_handle&#45;&gt;output_estimate_status_file_by_region_since_1980 -->
<g id="edge5" class="edge"><title>status_file_handle&#45;&gt;output_estimate_status_file_by_region_since_1980</title>
<path fill="none" stroke="black" d="M587.973,-365.876C600.55,-356.893 616.132,-345.763 629.752,-336.034"/>
<polygon fill="black" stroke="black" points="631.831,-338.85 637.934,-330.19 627.763,-333.154 631.831,-338.85"/>
</g>
<!-- trend_file_handle&#45;&gt;output_estimate_trend_file_by_region_since_1980 -->
<g id="edge6" class="edge"><title>trend_file_handle&#45;&gt;output_estimate_trend_file_by_region_since_1980</title>
<path fill="none" stroke="black" d="M239.539,-365.697C237.997,-357.983 236.142,-348.712 234.422,-340.112"/>
<polygon fill="black" stroke="black" points="237.814,-339.224 232.421,-330.104 230.95,-340.597 237.814,-339.224"/>
</g>
<!-- year_span&#45;&gt;output_estimate_status_file_by_region_since_1980 -->
<g id="edge7" class="edge"><title>year_span&#45;&gt;output_estimate_status_file_by_region_since_1980</title>
<path fill="none" stroke="black" d="M481.9,-368.993C484.976,-367.971 488.035,-366.963 491,-366 525.557,-354.772 564.213,-342.746 596.018,-332.993"/>
<polygon fill="black" stroke="black" points="597.118,-336.316 605.656,-330.042 595.069,-329.623 597.118,-336.316"/>
</g>
<!-- year_span&#45;&gt;output_estimate_trend_file_by_region_since_1980 -->
<g id="edge8" class="edge"><title>year_span&#45;&gt;output_estimate_trend_file_by_region_since_1980</title>
<path fill="none" stroke="black" d="M400.124,-369.503C368.999,-359.226 325.644,-344.911 290.361,-333.261"/>
<polygon fill="black" stroke="black" points="291.234,-329.863 280.641,-330.051 289.039,-336.51 291.234,-329.863"/>
</g>
<!-- area_protected_total_file -->
<g id="node14" class="node"><title>area_protected_total_file</title>
<path fill="#ffffcc" stroke="black" d="M824.05,-402C824.05,-402 677.95,-402 677.95,-402 671.95,-402 665.95,-396 665.95,-390 665.95,-390 665.95,-378 665.95,-378 665.95,-372 671.95,-366 677.95,-366 677.95,-366 824.05,-366 824.05,-366 830.05,-366 836.05,-372 836.05,-378 836.05,-378 836.05,-390 836.05,-390 836.05,-396 830.05,-402 824.05,-402"/>
<text text-anchor="middle" x="751" y="-379.8" font-family="Helvetica,sans-Serif" font-size="14.00">area_protected_total_file</text>
</g>
<!-- area_protected_total_file&#45;&gt;output_estimate_status_file_by_region_since_1980 -->
<g id="edge9" class="edge"><title>area_protected_total_file&#45;&gt;output_estimate_status_file_by_region_since_1980</title>
<path fill="none" stroke="black" d="M729,-365.697C717.791,-356.881 703.998,-346.032 691.846,-336.474"/>
<polygon fill="black" stroke="black" points="693.771,-333.535 683.747,-330.104 689.443,-339.038 693.771,-333.535"/>
</g>
<!-- area_protected_total_file&#45;&gt;output_estimate_trend_file_by_region_since_1980 -->
<g id="edge10" class="edge"><title>area_protected_total_file&#45;&gt;output_estimate_trend_file_by_region_since_1980</title>
<path fill="none" stroke="black" d="M665.742,-370.107C656.052,-368.695 646.315,-367.299 637,-366 550.339,-353.911 453.193,-341.256 375.439,-331.344"/>
<polygon fill="black" stroke="black" points="375.448,-327.817 365.086,-330.026 374.564,-334.761 375.448,-327.817"/>
</g>
<!-- status_df_data&#45;&gt;write_status_to_csv_file -->
<g id="edge11" class="edge"><title>status_df_data&#45;&gt;write_status_to_csv_file</title>
<path fill="none" stroke="black" d="M686.952,-221.876C700.042,-212.893 716.26,-201.763 730.436,-192.034"/>
<polygon fill="black" stroke="black" points="732.687,-194.734 738.952,-186.19 728.726,-188.962 732.687,-194.734"/>
</g>
<!-- status_df_data&#45;&gt;save_year_by_year_status_and_trend_estimates -->
<g id="edge12" class="edge"><title>status_df_data&#45;&gt;save_year_by_year_status_and_trend_estimates</title>
<path fill="none" stroke="black" d="M608.95,-221.966C578.226,-212.1 539.364,-199.622 507.08,-189.255"/>
<polygon fill="black" stroke="black" points="507.879,-185.836 497.288,-186.111 505.739,-192.501 507.879,-185.836"/>
</g>
<!-- lsp_status_file_outflow -->
<g id="node24" class="node"><title>lsp_status_file_outflow</title>
<ellipse fill="none" stroke="black" cx="476" cy="-31" rx="7" ry="7"/>
</g>
<!-- lsp_status_file&#45;&gt;lsp_status_file_outflow -->
<g id="edge28" class="edge"><title>lsp_status_file&#45;&gt;lsp_status_file_outflow</title>
<path fill="none" stroke="black" d="M644.626,-80.0699C595.288,-66.0053 524.338,-45.7797 492.528,-36.7115"/>
<polygon fill="black" stroke="black" points="493.268,-33.2831 482.691,-33.9075 491.349,-40.0149 493.268,-33.2831"/>
</g>
<!-- trend_df_data&#45;&gt;write_trend_to_csv_file -->
<g id="edge13" class="edge"><title>trend_df_data&#45;&gt;write_trend_to_csv_file</title>
<path fill="none" stroke="black" d="M204.537,-221.876C191.704,-212.893 175.804,-201.763 161.906,-192.034"/>
<polygon fill="black" stroke="black" points="163.756,-189.057 153.557,-186.19 159.742,-194.792 163.756,-189.057"/>
</g>
<!-- trend_df_data&#45;&gt;save_year_by_year_status_and_trend_estimates -->
<g id="edge14" class="edge"><title>trend_df_data&#45;&gt;save_year_by_year_status_and_trend_estimates</title>
<path fill="none" stroke="black" d="M280.225,-222.322C310.728,-212.391 349.651,-199.718 381.898,-189.219"/>
<polygon fill="black" stroke="black" points="383.249,-192.46 391.674,-186.036 381.082,-185.804 383.249,-192.46"/>
</g>
<!-- lsp_trend_file_outflow -->
<g id="node23" class="node"><title>lsp_trend_file_outflow</title>
<ellipse fill="none" stroke="black" cx="412" cy="-31" rx="7" ry="7"/>
</g>
<!-- lsp_trend_file&#45;&gt;lsp_trend_file_outflow -->
<g id="edge27" class="edge"><title>lsp_trend_file&#45;&gt;lsp_trend_file_outflow</title>
<path fill="none" stroke="black" d="M244.784,-80.5465C293.15,-66.5048 363.792,-45.9959 395.51,-36.7874"/>
<polygon fill="black" stroke="black" points="396.693,-40.0885 405.321,-33.9391 394.742,-33.366 396.693,-40.0885"/>
</g>
<!-- lsp_status_trend_summary_db_file_outflow -->
<g id="node22" class="node"><title>lsp_status_trend_summary_db_file_outflow</title>
<ellipse fill="none" stroke="black" cx="444" cy="-31" rx="7" ry="7"/>
</g>
<!-- lsp_status_trend_summary_db_file&#45;&gt;lsp_status_trend_summary_db_file_outflow -->
<g id="edge26" class="edge"><title>lsp_status_trend_summary_db_file&#45;&gt;lsp_status_trend_summary_db_file_outflow</title>
<path fill="none" stroke="black" d="M444,-77.785C444,-68.6656 444,-57.5197 444,-48.5085"/>
<polygon fill="black" stroke="black" points="447.5,-48.242 444,-38.242 440.5,-48.2421 447.5,-48.242"/>
</g>
<!-- setup_R_inflow -->
<g id="node20" class="node"><title>setup_R_inflow</title>
<ellipse fill="none" stroke="black" cx="580" cy="-737" rx="7" ry="7"/>
</g>
<!-- setup_R_inflow&#45;&gt;setup_R -->
<g id="edge24" class="edge"><title>setup_R_inflow&#45;&gt;setup_R</title>
<path fill="none" stroke="black" d="M574.337,-732.432C563.225,-725.432 537.757,-709.387 516.081,-695.731"/>
<polygon fill="black" stroke="black" points="517.712,-692.622 507.385,-690.253 513.981,-698.545 517.712,-692.622"/>
</g>
<!-- area_protected_total_file_inflow -->
<g id="node21" class="node"><title>area_protected_total_file_inflow</title>
<ellipse fill="none" stroke="black" cx="612" cy="-737" rx="7" ry="7"/>
</g>
<!-- area_protected_total_file_inflow&#45;&gt;area_protected_total_file -->
<g id="edge25" class="edge"><title>area_protected_total_file_inflow&#45;&gt;area_protected_total_file</title>
<path fill="none" stroke="black" d="M617.43,-732.562C638.409,-718.812 713,-665.396 713,-601 713,-601 713,-601 713,-527 713,-485.633 728.235,-439.722 739.412,-411.605"/>
<polygon fill="black" stroke="black" points="742.756,-412.673 743.31,-402.093 736.279,-410.019 742.756,-412.673"/>
</g>
</g>
</svg>
