<?xml version="1.0" encoding="UTF-8" standalone="no"?>
<!DOCTYPE svg PUBLIC "-//W3C//DTD SVG 1.1//EN"
 "http://www.w3.org/Graphics/SVG/1.1/DTD/svg11.dtd">
<!-- Generated by graphviz version 2.38.0 (20140413.2041)
 -->
<!-- Title: yw_data_view Pages: 1 -->
<svg width="576pt" height="813pt"
 viewBox="0.00 0.00 575.72 813.40" xmlns="http://www.w3.org/2000/svg" xmlns:xlink="http://www.w3.org/1999/xlink">
<g id="graph0" class="graph" transform="scale(1 1) rotate(0) translate(4 809.4)">
<title>yw_data_view</title>
<polygon fill="white" stroke="none" points="-4,4 -4,-809.4 571.718,-809.4 571.718,4 -4,4"/>
<text text-anchor="middle" x="283.859" y="-785.2" font-family="Courier,monospace" font-size="18.00">estimate_status_and_trend_by_year</text>
<g id="clust1" class="cluster"><title>cluster_workflow</title>
<polygon fill="none" stroke="black" stroke-width="2" points="8,-62 8,-713.8 559,-713.8 559,-62 8,-62"/>
</g>
<g id="clust2" class="cluster"><title>cluster_workflow_inner</title>
<polygon fill="none" stroke="white" stroke-width="2" points="16,-70 16,-705.8 551,-705.8 551,-70 16,-70"/>
</g>
<g id="clust3" class="cluster"><title>cluster_inflows</title>
<polygon fill="none" stroke="white" stroke-width="2" points="434,-721.8 434,-767.8 512,-767.8 512,-721.8 434,-721.8"/>
</g>
<g id="clust4" class="cluster"><title>cluster_inflows_inner</title>
<polygon fill="none" stroke="white" stroke-width="2" points="442,-729.8 442,-759.8 504,-759.8 504,-729.8 442,-729.8"/>
</g>
<g id="clust5" class="cluster"><title>cluster_outflows</title>
<polygon fill="none" stroke="white" stroke-width="2" points="211,-8 211,-54 257,-54 257,-8 211,-8"/>
</g>
<g id="clust6" class="cluster"><title>cluster_outflows_inner</title>
<polygon fill="none" stroke="white" stroke-width="2" points="219,-16 219,-46 249,-46 249,-16 219,-16"/>
</g>
<!-- output_estimate_status_file_by_region_since_1980 -->
<g id="node1" class="node"><title>output_estimate_status_file_by_region_since_1980</title>
<polygon fill="#ccffcc" stroke="black" points="443.633,-332.6 24.3672,-332.6 24.3672,-296.6 443.633,-296.6 443.633,-332.6"/>
<text text-anchor="middle" x="234" y="-310.4" font-family="Courier,monospace" font-size="14.00">output_estimate_status_file_by_region_since_1980</text>
</g>
<!-- status_df_data -->
<g id="node9" class="node"><title>status_df_data</title>
<path fill="#ffffcc" stroke="black" d="M275.823,-260.6C275.823,-260.6 192.177,-260.6 192.177,-260.6 186.177,-260.6 180.177,-254.6 180.177,-248.6 180.177,-248.6 180.177,-236.6 180.177,-236.6 180.177,-230.6 186.177,-224.6 192.177,-224.6 192.177,-224.6 275.823,-224.6 275.823,-224.6 281.823,-224.6 287.823,-230.6 287.823,-236.6 287.823,-236.6 287.823,-248.6 287.823,-248.6 287.823,-254.6 281.823,-260.6 275.823,-260.6"/>
<text text-anchor="middle" x="234" y="-238.4" font-family="Helvetica,sans-Serif" font-size="14.00">status_df_data</text>
</g>
<!-- output_estimate_status_file_by_region_since_1980&#45;&gt;status_df_data -->
<g id="edge11" class="edge"><title>output_estimate_status_file_by_region_since_1980&#45;&gt;status_df_data</title>
<path fill="none" stroke="black" d="M234,-296.297C234,-288.583 234,-279.312 234,-270.712"/>
<polygon fill="black" stroke="black" points="237.5,-270.704 234,-260.704 230.5,-270.704 237.5,-270.704"/>
</g>
<!-- define_param_year_span -->
<g id="node2" class="node"><title>define_param_year_span</title>
<polygon fill="#ccffcc" stroke="black" points="538.269,-479.2 337.731,-479.2 337.731,-443.2 538.269,-443.2 538.269,-479.2"/>
<text text-anchor="middle" x="438" y="-457" font-family="Courier,monospace" font-size="14.00">define_param_year_span</text>
</g>
<!-- year_span -->
<g id="node8" class="node"><title>year_span</title>
<path fill="#ffffcc" stroke="black" d="M259.857,-405.9C259.857,-405.9 202.143,-405.9 202.143,-405.9 196.143,-405.9 190.143,-399.9 190.143,-393.9 190.143,-393.9 190.143,-381.9 190.143,-381.9 190.143,-375.9 196.143,-369.9 202.143,-369.9 202.143,-369.9 259.857,-369.9 259.857,-369.9 265.857,-369.9 271.857,-375.9 271.857,-381.9 271.857,-381.9 271.857,-393.9 271.857,-393.9 271.857,-399.9 265.857,-405.9 259.857,-405.9"/>
<text text-anchor="middle" x="231" y="-383.7" font-family="Helvetica,sans-Serif" font-size="14.00">year_span</text>
</g>
<!-- define_param_year_span&#45;&gt;year_span -->
<g id="edge10" class="edge"><title>define_param_year_span&#45;&gt;year_span</title>
<path fill="none" stroke="black" d="M385.541,-443.096C357.004,-433.678 320.884,-421.575 281.422,-407.662"/>
<polygon fill="black" stroke="black" points="282.464,-404.318 271.869,-404.281 280.129,-410.917 282.464,-404.318"/>
</g>
<!-- create_new_stats_and_trend_file -->
<g id="node3" class="node"><title>create_new_stats_and_trend_file</title>
<polygon fill="#ccffcc" stroke="black" points="300.357,-479.2 23.6432,-479.2 23.6432,-443.2 300.357,-443.2 300.357,-479.2"/>
<text text-anchor="middle" x="162" y="-457" font-family="Courier,monospace" font-size="14.00">create_new_stats_and_trend_file</text>
</g>
<!-- status_file_handle -->
<g id="node7" class="node"><title>status_file_handle</title>
<path fill="#ffffcc" stroke="black" d="M140.318,-405.9C140.318,-405.9 35.6823,-405.9 35.6823,-405.9 29.6823,-405.9 23.6823,-399.9 23.6823,-393.9 23.6823,-393.9 23.6823,-381.9 23.6823,-381.9 23.6823,-375.9 29.6823,-369.9 35.6823,-369.9 35.6823,-369.9 140.318,-369.9 140.318,-369.9 146.318,-369.9 152.318,-375.9 152.318,-381.9 152.318,-381.9 152.318,-393.9 152.318,-393.9 152.318,-399.9 146.318,-405.9 140.318,-405.9"/>
<text text-anchor="middle" x="88" y="-383.7" font-family="Helvetica,sans-Serif" font-size="14.00">status_file_handle</text>
</g>
<!-- create_new_stats_and_trend_file&#45;&gt;status_file_handle -->
<g id="edge9" class="edge"><title>create_new_stats_and_trend_file&#45;&gt;status_file_handle</title>
<path fill="none" stroke="black" d="M144.087,-442.94C134.815,-434.007 123.342,-422.953 113.193,-413.174"/>
<polygon fill="black" stroke="black" points="115.378,-410.419 105.748,-406.001 110.521,-415.46 115.378,-410.419"/>
</g>
<!-- set_up_configuration_and_start_provenance_tracking -->
<g id="node4" class="node"><title>set_up_configuration_and_start_provenance_tracking</title>
<polygon fill="#ccffcc" stroke="black" points="536.93,-623.2 101.07,-623.2 101.07,-587.2 536.93,-587.2 536.93,-623.2"/>
<text text-anchor="middle" x="319" y="-601" font-family="Courier,monospace" font-size="14.00">set_up_configuration_and_start_provenance_tracking</text>
</g>
<!-- dir_goal -->
<g id="node6" class="node"><title>dir_goal</title>
<path fill="#ffffcc" stroke="black" d="M339.787,-551.2C339.787,-551.2 298.213,-551.2 298.213,-551.2 292.213,-551.2 286.213,-545.2 286.213,-539.2 286.213,-539.2 286.213,-527.2 286.213,-527.2 286.213,-521.2 292.213,-515.2 298.213,-515.2 298.213,-515.2 339.787,-515.2 339.787,-515.2 345.787,-515.2 351.787,-521.2 351.787,-527.2 351.787,-527.2 351.787,-539.2 351.787,-539.2 351.787,-545.2 345.787,-551.2 339.787,-551.2"/>
<text text-anchor="middle" x="319" y="-529" font-family="Helvetica,sans-Serif" font-size="14.00">dir_goal</text>
</g>
<!-- set_up_configuration_and_start_provenance_tracking&#45;&gt;dir_goal -->
<g id="edge8" class="edge"><title>set_up_configuration_and_start_provenance_tracking&#45;&gt;dir_goal</title>
<path fill="none" stroke="black" d="M319,-586.897C319,-579.183 319,-569.912 319,-561.312"/>
<polygon fill="black" stroke="black" points="322.5,-561.304 319,-551.304 315.5,-561.304 322.5,-561.304"/>
</g>
<!-- write_status_to_csv_file -->
<g id="node5" class="node"><title>write_status_to_csv_file</title>
<polygon fill="#ccffcc" stroke="black" points="342.567,-188.6 125.433,-188.6 125.433,-152.6 342.567,-152.6 342.567,-188.6"/>
<text text-anchor="middle" x="234" y="-166.4" font-family="Courier,monospace" font-size="14.00">write_status_to_csv_file</text>
</g>
<!-- lsp_status_file -->
<g id="node12" class="node"><title>lsp_status_file</title>
<path fill="#ffe4b5" stroke="black" d="M146.215,-78.5C146.215,-78.5 321.785,-78.5 321.785,-78.5 327.785,-78.5 333.785,-84.5 333.785,-90.5 333.785,-90.5 333.785,-104.1 333.785,-104.1 333.785,-110.1 327.785,-116.1 321.785,-116.1 321.785,-116.1 146.215,-116.1 146.215,-116.1 140.215,-116.1 134.215,-110.1 134.215,-104.1 134.215,-104.1 134.215,-90.5 134.215,-90.5 134.215,-84.5 140.215,-78.5 146.215,-78.5"/>
<text text-anchor="middle" x="234" y="-104" font-family="Courier,monospace" font-weight="bold" font-size="9.00">lsp_status_file</text>
<polyline fill="none" stroke="black" points="134.215,-97.3 333.785,-97.3 "/>
<text text-anchor="start" x="142.215" y="-85.2" font-family="Courier,monospace" font-weight="bold" font-size="9.00">prep/lsp/vHS/output/lsp_status.csv</text>
</g>
<!-- write_status_to_csv_file&#45;&gt;lsp_status_file -->
<g id="edge12" class="edge"><title>write_status_to_csv_file&#45;&gt;lsp_status_file</title>
<path fill="none" stroke="black" d="M234,-152.34C234,-144.605 234,-135.279 234,-126.568"/>
<polygon fill="black" stroke="black" points="237.5,-126.396 234,-116.396 230.5,-126.396 237.5,-126.396"/>
</g>
<!-- dir_goal&#45;&gt;output_estimate_status_file_by_region_since_1980 -->
<g id="edge5" class="edge"><title>dir_goal&#45;&gt;output_estimate_status_file_by_region_since_1980</title>
<path fill="none" stroke="black" d="M322.263,-514.937C324.934,-495.215 325.913,-463.107 309,-443.2 270.737,-398.163 216.685,-454.306 181,-407.2 170.641,-393.525 174.435,-384.45 181,-368.6 185.545,-357.628 193.585,-347.743 202.051,-339.564"/>
<polygon fill="black" stroke="black" points="204.437,-342.126 209.523,-332.832 199.751,-336.926 204.437,-342.126"/>
</g>
<!-- dir_goal&#45;&gt;create_new_stats_and_trend_file -->
<g id="edge6" class="edge"><title>dir_goal&#45;&gt;create_new_stats_and_trend_file</title>
<path fill="none" stroke="black" d="M286.088,-517.526C263.922,-507.643 234.337,-494.452 209.613,-483.429"/>
<polygon fill="black" stroke="black" points="210.96,-480.197 200.402,-479.322 208.11,-486.591 210.96,-480.197"/>
</g>
<!-- status_file_handle&#45;&gt;output_estimate_status_file_by_region_since_1980 -->
<g id="edge4" class="edge"><title>status_file_handle&#45;&gt;output_estimate_status_file_by_region_since_1980</title>
<path fill="none" stroke="black" d="M122.971,-369.822C143.032,-360.025 168.411,-347.631 189.839,-337.166"/>
<polygon fill="black" stroke="black" points="191.612,-340.195 199.062,-332.662 188.54,-333.905 191.612,-340.195"/>
</g>
<!-- year_span&#45;&gt;output_estimate_status_file_by_region_since_1980 -->
<g id="edge3" class="edge"><title>year_span&#45;&gt;output_estimate_status_file_by_region_since_1980</title>
<path fill="none" stroke="black" d="M231.726,-369.64C232.065,-361.583 232.477,-351.8 232.856,-342.784"/>
<polygon fill="black" stroke="black" points="236.357,-342.839 233.28,-332.701 229.363,-342.545 236.357,-342.839"/>
</g>
<!-- status_df_data&#45;&gt;write_status_to_csv_file -->
<g id="edge1" class="edge"><title>status_df_data&#45;&gt;write_status_to_csv_file</title>
<path fill="none" stroke="black" d="M234,-224.297C234,-216.583 234,-207.312 234,-198.712"/>
<polygon fill="black" stroke="black" points="237.5,-198.704 234,-188.704 230.5,-198.704 237.5,-198.704"/>
</g>
<!-- setup_R -->
<g id="node10" class="node"><title>setup_R</title>
<path fill="#ffe4b5" stroke="black" d="M396,-659.7C396,-659.7 426,-659.7 426,-659.7 432,-659.7 438,-665.7 438,-671.7 438,-671.7 438,-685.3 438,-685.3 438,-691.3 432,-697.3 426,-697.3 426,-697.3 396,-697.3 396,-697.3 390,-697.3 384,-691.3 384,-685.3 384,-685.3 384,-671.7 384,-671.7 384,-665.7 390,-659.7 396,-659.7"/>
<text text-anchor="middle" x="410.897" y="-685.2" font-family="Courier,monospace" font-weight="bold" font-size="9.00">setup_R</text>
<polyline fill="none" stroke="black" points="384,-678.5 437.794,-678.5 "/>
<text text-anchor="middle" x="410.897" y="-666.4" font-family="Courier,monospace" font-weight="bold" font-size="9.00"> </text>
</g>
<!-- setup_R&#45;&gt;set_up_configuration_and_start_provenance_tracking -->
<g id="edge7" class="edge"><title>setup_R&#45;&gt;set_up_configuration_and_start_provenance_tracking</title>
<path fill="none" stroke="black" d="M387.785,-659.508C375.995,-650.371 361.533,-639.163 348.918,-629.387"/>
<polygon fill="black" stroke="black" points="350.989,-626.564 340.941,-623.205 346.701,-632.097 350.989,-626.564"/>
</g>
<!-- area_protected_total_file -->
<g id="node11" class="node"><title>area_protected_total_file</title>
<path fill="#ffe4b5" stroke="black" d="M301.22,-369.1C301.22,-369.1 530.78,-369.1 530.78,-369.1 536.78,-369.1 542.78,-375.1 542.78,-381.1 542.78,-381.1 542.78,-394.7 542.78,-394.7 542.78,-400.7 536.78,-406.7 530.78,-406.7 530.78,-406.7 301.22,-406.7 301.22,-406.7 295.22,-406.7 289.22,-400.7 289.22,-394.7 289.22,-394.7 289.22,-381.1 289.22,-381.1 289.22,-375.1 295.22,-369.1 301.22,-369.1"/>
<text text-anchor="middle" x="416" y="-394.6" font-family="Courier,monospace" font-weight="bold" font-size="9.00">area_protected_total_file</text>
<polyline fill="none" stroke="black" points="289.22,-387.9 542.78,-387.9 "/>
<text text-anchor="start" x="297.22" y="-375.8" font-family="Courier,monospace" font-weight="bold" font-size="9.00">prep/lsp/vHS/output/area_protected_total.csv</text>
</g>
<!-- area_protected_total_file&#45;&gt;output_estimate_status_file_by_region_since_1980 -->
<g id="edge2" class="edge"><title>area_protected_total_file&#45;&gt;output_estimate_status_file_by_region_since_1980</title>
<path fill="none" stroke="black" d="M370.543,-369.092C345.225,-359.173 313.569,-346.772 287.114,-336.408"/>
<polygon fill="black" stroke="black" points="288.212,-333.079 277.624,-332.69 285.659,-339.597 288.212,-333.079"/>
</g>
<!-- lsp_status_file_outflow -->
<g id="node15" class="node"><title>lsp_status_file_outflow</title>
<ellipse fill="none" stroke="black" cx="234" cy="-31" rx="7" ry="7"/>
</g>
<!-- lsp_status_file&#45;&gt;lsp_status_file_outflow -->
<g id="edge15" class="edge"><title>lsp_status_file&#45;&gt;lsp_status_file_outflow</title>
<path fill="none" stroke="black" d="M234,-78.3889C234,-68.9828 234,-57.5389 234,-48.3712"/>
<polygon fill="black" stroke="black" points="237.5,-48.3008 234,-38.3008 230.5,-48.3008 237.5,-48.3008"/>
</g>
<!-- setup_R_inflow -->
<g id="node13" class="node"><title>setup_R_inflow</title>
<ellipse fill="none" stroke="black" cx="457" cy="-744.8" rx="7" ry="7"/>
</g>
<!-- setup_R_inflow&#45;&gt;setup_R -->
<g id="edge13" class="edge"><title>setup_R_inflow&#45;&gt;setup_R</title>
<path fill="none" stroke="black" d="M453.39,-738.754C448.297,-731.634 438.635,-718.129 429.821,-705.808"/>
<polygon fill="black" stroke="black" points="432.586,-703.657 423.921,-697.561 426.892,-707.73 432.586,-703.657"/>
</g>
<!-- area_protected_total_file_inflow -->
<g id="node14" class="node"><title>area_protected_total_file_inflow</title>
<ellipse fill="none" stroke="black" cx="489" cy="-744.8" rx="7" ry="7"/>
</g>
<!-- area_protected_total_file_inflow&#45;&gt;area_protected_total_file -->
<g id="edge14" class="edge"><title>area_protected_total_file_inflow&#45;&gt;area_protected_total_file</title>
<path fill="none" stroke="black" d="M494.052,-739.102C511.183,-722.637 566,-665.33 566,-606.2 566,-606.2 566,-606.2 566,-532.2 566,-491.753 572.873,-474.289 547,-443.2 535.24,-429.07 519.195,-418.562 502.365,-410.767"/>
<polygon fill="black" stroke="black" points="503.525,-407.456 492.957,-406.71 500.753,-413.884 503.525,-407.456"/>
</g>
</g>
</svg>
