<?xml version="1.0" encoding="UTF-8" standalone="no"?>
<!DOCTYPE svg PUBLIC "-//W3C//DTD SVG 1.1//EN"
 "http://www.w3.org/Graphics/SVG/1.1/DTD/svg11.dtd">
<!-- Generated by graphviz version 2.38.0 (20140413.2041)
 -->
<!-- Title: yw_data_view Pages: 1 -->
<svg width="575pt" height="806pt"
 viewBox="0.00 0.00 575.24 805.60" xmlns="http://www.w3.org/2000/svg" xmlns:xlink="http://www.w3.org/1999/xlink">
<g id="graph0" class="graph" transform="scale(1 1) rotate(0) translate(4 801.6)">
<title>yw_data_view</title>
<polygon fill="white" stroke="none" points="-4,4 -4,-801.6 571.239,-801.6 571.239,4 -4,4"/>
<text text-anchor="middle" x="283.619" y="-777.4" font-family="Courier,monospace" font-size="18.00">estimate_status_and_trend_by_year</text>
<g id="clust1" class="cluster"><title>cluster_workflow</title>
<polygon fill="none" stroke="black" stroke-width="2" points="8,-62 8,-706 554,-706 554,-62 8,-62"/>
</g>
<g id="clust2" class="cluster"><title>cluster_workflow_inner</title>
<polygon fill="none" stroke="white" stroke-width="2" points="16,-70 16,-698 546,-698 546,-70 16,-70"/>
</g>
<g id="clust3" class="cluster"><title>cluster_inflows</title>
<polygon fill="none" stroke="white" stroke-width="2" points="431,-714 431,-760 509,-760 509,-714 431,-714"/>
</g>
<g id="clust4" class="cluster"><title>cluster_inflows_inner</title>
<polygon fill="none" stroke="white" stroke-width="2" points="439,-722 439,-752 501,-752 501,-722 439,-722"/>
</g>
<g id="clust5" class="cluster"><title>cluster_outflows</title>
<polygon fill="none" stroke="white" stroke-width="2" points="256,-8 256,-54 302,-54 302,-8 256,-8"/>
</g>
<g id="clust6" class="cluster"><title>cluster_outflows_inner</title>
<polygon fill="none" stroke="white" stroke-width="2" points="264,-16 264,-46 294,-46 294,-16 264,-16"/>
</g>
<!-- output_estimate_status_file_by_region_since_1980 -->
<g id="node1" class="node"><title>output_estimate_status_file_by_region_since_1980</title>
<polygon fill="#ccffcc" stroke="black" points="488.633,-330 69.3672,-330 69.3672,-294 488.633,-294 488.633,-330"/>
<text text-anchor="middle" x="279" y="-307.8" font-family="Courier,monospace" font-size="14.00">output_estimate_status_file_by_region_since_1980</text>
</g>
<!-- status_df_data -->
<g id="node11" class="node"><title>status_df_data</title>
<path fill="#ffffcc" stroke="black" d="M320.823,-258C320.823,-258 237.177,-258 237.177,-258 231.177,-258 225.177,-252 225.177,-246 225.177,-246 225.177,-234 225.177,-234 225.177,-228 231.177,-222 237.177,-222 237.177,-222 320.823,-222 320.823,-222 326.823,-222 332.823,-228 332.823,-234 332.823,-234 332.823,-246 332.823,-246 332.823,-252 326.823,-258 320.823,-258"/>
<text text-anchor="middle" x="279" y="-235.8" font-family="Helvetica,sans-Serif" font-size="14.00">status_df_data</text>
</g>
<!-- output_estimate_status_file_by_region_since_1980&#45;&gt;status_df_data -->
<g id="edge11" class="edge"><title>output_estimate_status_file_by_region_since_1980&#45;&gt;status_df_data</title>
<path fill="none" stroke="black" d="M279,-293.697C279,-285.983 279,-276.712 279,-268.112"/>
<polygon fill="black" stroke="black" points="282.5,-268.104 279,-258.104 275.5,-268.104 282.5,-268.104"/>
</g>
<!-- define_param_year_span -->
<g id="node2" class="node"><title>define_param_year_span</title>
<polygon fill="#ccffcc" stroke="black" points="538.269,-474 337.731,-474 337.731,-438 538.269,-438 538.269,-474"/>
<text text-anchor="middle" x="438" y="-451.8" font-family="Courier,monospace" font-size="14.00">define_param_year_span</text>
</g>
<!-- year_span -->
<g id="node9" class="node"><title>year_span</title>
<path fill="#ffffcc" stroke="black" d="M337.857,-402C337.857,-402 280.143,-402 280.143,-402 274.143,-402 268.143,-396 268.143,-390 268.143,-390 268.143,-378 268.143,-378 268.143,-372 274.143,-366 280.143,-366 280.143,-366 337.857,-366 337.857,-366 343.857,-366 349.857,-372 349.857,-378 349.857,-378 349.857,-390 349.857,-390 349.857,-396 343.857,-402 337.857,-402"/>
<text text-anchor="middle" x="309" y="-379.8" font-family="Helvetica,sans-Serif" font-size="14.00">year_span</text>
</g>
<!-- define_param_year_span&#45;&gt;year_span -->
<g id="edge10" class="edge"><title>define_param_year_span&#45;&gt;year_span</title>
<path fill="none" stroke="black" d="M406.443,-437.876C389.342,-428.596 368.018,-417.025 349.681,-407.075"/>
<polygon fill="black" stroke="black" points="351.137,-403.883 340.678,-402.19 347.798,-410.035 351.137,-403.883"/>
</g>
<!-- create_new_stats_and_trend_file -->
<g id="node3" class="node"><title>create_new_stats_and_trend_file</title>
<polygon fill="#ccffcc" stroke="black" points="300.357,-474 23.6432,-474 23.6432,-438 300.357,-438 300.357,-474"/>
<text text-anchor="middle" x="162" y="-451.8" font-family="Courier,monospace" font-size="14.00">create_new_stats_and_trend_file</text>
</g>
<!-- status_file_handle -->
<g id="node8" class="node"><title>status_file_handle</title>
<path fill="#ffffcc" stroke="black" d="M216.318,-402C216.318,-402 111.682,-402 111.682,-402 105.682,-402 99.6823,-396 99.6823,-390 99.6823,-390 99.6823,-378 99.6823,-378 99.6823,-372 105.682,-366 111.682,-366 111.682,-366 216.318,-366 216.318,-366 222.318,-366 228.318,-372 228.318,-378 228.318,-378 228.318,-390 228.318,-390 228.318,-396 222.318,-402 216.318,-402"/>
<text text-anchor="middle" x="164" y="-379.8" font-family="Helvetica,sans-Serif" font-size="14.00">status_file_handle</text>
</g>
<!-- create_new_stats_and_trend_file&#45;&gt;status_file_handle -->
<g id="edge9" class="edge"><title>create_new_stats_and_trend_file&#45;&gt;status_file_handle</title>
<path fill="none" stroke="black" d="M162.494,-437.697C162.715,-429.983 162.98,-420.712 163.225,-412.112"/>
<polygon fill="black" stroke="black" points="166.724,-412.2 163.511,-402.104 159.727,-412 166.724,-412.2"/>
</g>
<!-- set_up_configuration_and_start_provenance_tracking -->
<g id="node4" class="node"><title>set_up_configuration_and_start_provenance_tracking</title>
<polygon fill="#ccffcc" stroke="black" points="536.93,-618 101.07,-618 101.07,-582 536.93,-582 536.93,-618"/>
<text text-anchor="middle" x="319" y="-595.8" font-family="Courier,monospace" font-size="14.00">set_up_configuration_and_start_provenance_tracking</text>
</g>
<!-- dir_goal -->
<g id="node7" class="node"><title>dir_goal</title>
<path fill="#ffffcc" stroke="black" d="M339.787,-546C339.787,-546 298.213,-546 298.213,-546 292.213,-546 286.213,-540 286.213,-534 286.213,-534 286.213,-522 286.213,-522 286.213,-516 292.213,-510 298.213,-510 298.213,-510 339.787,-510 339.787,-510 345.787,-510 351.787,-516 351.787,-522 351.787,-522 351.787,-534 351.787,-534 351.787,-540 345.787,-546 339.787,-546"/>
<text text-anchor="middle" x="319" y="-523.8" font-family="Helvetica,sans-Serif" font-size="14.00">dir_goal</text>
</g>
<!-- set_up_configuration_and_start_provenance_tracking&#45;&gt;dir_goal -->
<g id="edge8" class="edge"><title>set_up_configuration_and_start_provenance_tracking&#45;&gt;dir_goal</title>
<path fill="none" stroke="black" d="M319,-581.697C319,-573.983 319,-564.712 319,-556.112"/>
<polygon fill="black" stroke="black" points="322.5,-556.104 319,-546.104 315.5,-556.104 322.5,-556.104"/>
</g>
<!-- write_status_to_csv_file -->
<g id="node5" class="node"><title>write_status_to_csv_file</title>
<polygon fill="#ccffcc" stroke="black" points="387.567,-186 170.433,-186 170.433,-150 387.567,-150 387.567,-186"/>
<text text-anchor="middle" x="279" y="-163.8" font-family="Courier,monospace" font-size="14.00">write_status_to_csv_file</text>
</g>
<!-- lsp_status_file -->
<g id="node12" class="node"><title>lsp_status_file</title>
<path fill="#ffffcc" stroke="black" d="M319.188,-114C319.188,-114 238.812,-114 238.812,-114 232.812,-114 226.812,-108 226.812,-102 226.812,-102 226.812,-90 226.812,-90 226.812,-84 232.812,-78 238.812,-78 238.812,-78 319.188,-78 319.188,-78 325.188,-78 331.188,-84 331.188,-90 331.188,-90 331.188,-102 331.188,-102 331.188,-108 325.188,-114 319.188,-114"/>
<text text-anchor="middle" x="279" y="-91.8" font-family="Helvetica,sans-Serif" font-size="14.00">lsp_status_file</text>
</g>
<!-- write_status_to_csv_file&#45;&gt;lsp_status_file -->
<g id="edge12" class="edge"><title>write_status_to_csv_file&#45;&gt;lsp_status_file</title>
<path fill="none" stroke="black" d="M279,-149.697C279,-141.983 279,-132.712 279,-124.112"/>
<polygon fill="black" stroke="black" points="282.5,-124.104 279,-114.104 275.5,-124.104 282.5,-124.104"/>
</g>
<!-- setup_R -->
<g id="node6" class="node"><title>setup_R</title>
<path fill="#ffffcc" stroke="black" d="M431.128,-690C431.128,-690 386.872,-690 386.872,-690 380.872,-690 374.872,-684 374.872,-678 374.872,-678 374.872,-666 374.872,-666 374.872,-660 380.872,-654 386.872,-654 386.872,-654 431.128,-654 431.128,-654 437.128,-654 443.128,-660 443.128,-666 443.128,-666 443.128,-678 443.128,-678 443.128,-684 437.128,-690 431.128,-690"/>
<text text-anchor="middle" x="409" y="-667.8" font-family="Helvetica,sans-Serif" font-size="14.00">setup_R</text>
</g>
<!-- setup_R&#45;&gt;set_up_configuration_and_start_provenance_tracking -->
<g id="edge7" class="edge"><title>setup_R&#45;&gt;set_up_configuration_and_start_provenance_tracking</title>
<path fill="none" stroke="black" d="M386.753,-653.697C375.418,-644.881 361.47,-634.032 349.181,-624.474"/>
<polygon fill="black" stroke="black" points="351.034,-621.481 340.991,-618.104 346.736,-627.007 351.034,-621.481"/>
</g>
<!-- dir_goal&#45;&gt;output_estimate_status_file_by_region_since_1980 -->
<g id="edge5" class="edge"><title>dir_goal&#45;&gt;output_estimate_status_file_by_region_since_1980</title>
<path fill="none" stroke="black" d="M320.994,-509.995C322.369,-491.086 322.033,-460.278 309,-438 295.173,-414.365 271.484,-426.372 259,-402 248.963,-382.406 255.724,-357.847 264,-339.494"/>
<polygon fill="black" stroke="black" points="267.265,-340.785 268.52,-330.265 260.978,-337.707 267.265,-340.785"/>
</g>
<!-- dir_goal&#45;&gt;create_new_stats_and_trend_file -->
<g id="edge6" class="edge"><title>dir_goal&#45;&gt;create_new_stats_and_trend_file</title>
<path fill="none" stroke="black" d="M286.088,-512.326C263.922,-502.443 234.337,-489.252 209.613,-478.229"/>
<polygon fill="black" stroke="black" points="210.96,-474.997 200.402,-474.122 208.11,-481.391 210.96,-474.997"/>
</g>
<!-- status_file_handle&#45;&gt;output_estimate_status_file_by_region_since_1980 -->
<g id="edge4" class="edge"><title>status_file_handle&#45;&gt;output_estimate_status_file_by_region_since_1980</title>
<path fill="none" stroke="black" d="M192.132,-365.876C207.168,-356.724 225.867,-345.342 242.06,-335.485"/>
<polygon fill="black" stroke="black" points="244.038,-338.379 250.76,-330.19 240.398,-332.4 244.038,-338.379"/>
</g>
<!-- year_span&#45;&gt;output_estimate_status_file_by_region_since_1980 -->
<g id="edge3" class="edge"><title>year_span&#45;&gt;output_estimate_status_file_by_region_since_1980</title>
<path fill="none" stroke="black" d="M301.584,-365.697C298.206,-357.813 294.13,-348.304 290.377,-339.546"/>
<polygon fill="black" stroke="black" points="293.487,-337.917 286.33,-330.104 287.053,-340.675 293.487,-337.917"/>
</g>
<!-- area_protected_total_file -->
<g id="node10" class="node"><title>area_protected_total_file</title>
<path fill="#ffffcc" stroke="black" d="M526.05,-402C526.05,-402 379.95,-402 379.95,-402 373.95,-402 367.95,-396 367.95,-390 367.95,-390 367.95,-378 367.95,-378 367.95,-372 373.95,-366 379.95,-366 379.95,-366 526.05,-366 526.05,-366 532.05,-366 538.05,-372 538.05,-378 538.05,-378 538.05,-390 538.05,-390 538.05,-396 532.05,-402 526.05,-402"/>
<text text-anchor="middle" x="453" y="-379.8" font-family="Helvetica,sans-Serif" font-size="14.00">area_protected_total_file</text>
</g>
<!-- area_protected_total_file&#45;&gt;output_estimate_status_file_by_region_since_1980 -->
<g id="edge2" class="edge"><title>area_protected_total_file&#45;&gt;output_estimate_status_file_by_region_since_1980</title>
<path fill="none" stroke="black" d="M410.435,-365.876C386.437,-356.222 356.272,-344.087 330.896,-333.878"/>
<polygon fill="black" stroke="black" points="332.011,-330.554 321.427,-330.068 329.398,-337.048 332.011,-330.554"/>
</g>
<!-- status_df_data&#45;&gt;write_status_to_csv_file -->
<g id="edge1" class="edge"><title>status_df_data&#45;&gt;write_status_to_csv_file</title>
<path fill="none" stroke="black" d="M279,-221.697C279,-213.983 279,-204.712 279,-196.112"/>
<polygon fill="black" stroke="black" points="282.5,-196.104 279,-186.104 275.5,-196.104 282.5,-196.104"/>
</g>
<!-- lsp_status_file_outflow -->
<g id="node15" class="node"><title>lsp_status_file_outflow</title>
<ellipse fill="none" stroke="black" cx="279" cy="-31" rx="7" ry="7"/>
</g>
<!-- lsp_status_file&#45;&gt;lsp_status_file_outflow -->
<g id="edge15" class="edge"><title>lsp_status_file&#45;&gt;lsp_status_file_outflow</title>
<path fill="none" stroke="black" d="M279,-77.785C279,-68.6656 279,-57.5197 279,-48.5085"/>
<polygon fill="black" stroke="black" points="282.5,-48.242 279,-38.242 275.5,-48.2421 282.5,-48.242"/>
</g>
<!-- setup_R_inflow -->
<g id="node13" class="node"><title>setup_R_inflow</title>
<ellipse fill="none" stroke="black" cx="454" cy="-737" rx="7" ry="7"/>
</g>
<!-- setup_R_inflow&#45;&gt;setup_R -->
<g id="edge13" class="edge"><title>setup_R_inflow&#45;&gt;setup_R</title>
<path fill="none" stroke="black" d="M450.163,-730.629C445.067,-723.493 435.715,-710.4 427.211,-698.496"/>
<polygon fill="black" stroke="black" points="429.903,-696.243 421.243,-690.14 424.207,-700.311 429.903,-696.243"/>
</g>
<!-- area_protected_total_file_inflow -->
<g id="node14" class="node"><title>area_protected_total_file_inflow</title>
<ellipse fill="none" stroke="black" cx="486" cy="-737" rx="7" ry="7"/>
</g>
<!-- area_protected_total_file_inflow&#45;&gt;area_protected_total_file -->
<g id="edge14" class="edge"><title>area_protected_total_file_inflow&#45;&gt;area_protected_total_file</title>
<path fill="none" stroke="black" d="M491.249,-731.452C509.047,-715.498 566,-659.846 566,-601 566,-601 566,-601 566,-527 566,-486.553 570.955,-470.59 547,-438 537.443,-424.998 523.676,-414.745 509.614,-406.864"/>
<polygon fill="black" stroke="black" points="510.854,-403.562 500.371,-402.022 507.605,-409.763 510.854,-403.562"/>
</g>
</g>
</svg>
