<?xml version="1.0" encoding="UTF-8" standalone="no"?>
<!DOCTYPE svg PUBLIC "-//W3C//DTD SVG 1.1//EN"
 "http://www.w3.org/Graphics/SVG/1.1/DTD/svg11.dtd">
<!-- Generated by graphviz version 2.38.0 (20140413.2041)
 -->
<!-- Title: Workflow Pages: 1 -->
<svg width="574pt" height="476pt"
 viewBox="0.00 0.00 574.00 476.20" xmlns="http://www.w3.org/2000/svg" xmlns:xlink="http://www.w3.org/1999/xlink">
<g id="graph0" class="graph" transform="scale(1 1) rotate(0) translate(4 472.2)">
<title>Workflow</title>
<polygon fill="white" stroke="none" points="-4,4 -4,-472.2 570,-472.2 570,4 -4,4"/>
<text text-anchor="middle" x="283" y="-448" font-family="Helvetica,sans-Serif" font-size="18.00">Read_in_BC_WDPA_MPA_shapefile</text>
<g id="clust1" class="cluster"><title>cluster_workflow_box_outer</title>
<polygon fill="none" stroke="black" stroke-width="2" points="22,-34 22,-404.6 558,-404.6 558,-34 22,-34"/>
</g>
<g id="clust2" class="cluster"><title>cluster_workflow_box_inner</title>
<polygon fill="none" stroke="black" stroke-width="0" points="30,-42 30,-396.6 550,-396.6 550,-42 30,-42"/>
</g>
<!-- Set_up_default_BC_projection_to_BC_Albers_and_start_provenance_tracking -->
<g id="node1" class="node"><title>Set_up_default_BC_projection_to_BC_Albers_and_start_provenance_tracking</title>
<polygon fill="#ccffcc" stroke="black" points="541.824,-316.6 38.1756,-316.6 38.1756,-280.6 541.824,-280.6 541.824,-316.6"/>
<text text-anchor="middle" x="290" y="-294.4" font-family="Helvetica,sans-Serif" font-size="14.00">Set_up_default_BC_projection_to_BC_Albers_and_start_provenance_tracking</text>
</g>
<!-- BC_specific_polygon_subset_of_WDPA_global_dataset -->
<g id="node3" class="node"><title>BC_specific_polygon_subset_of_WDPA_global_dataset</title>
<path fill="#ffffcc" stroke="black" d="M131.114,-50.5C131.114,-50.5 470.886,-50.5 470.886,-50.5 476.886,-50.5 482.886,-56.5 482.886,-62.5 482.886,-62.5 482.886,-88.1 482.886,-88.1 482.886,-94.1 476.886,-100.1 470.886,-100.1 470.886,-100.1 131.114,-100.1 131.114,-100.1 125.114,-100.1 119.114,-94.1 119.114,-88.1 119.114,-88.1 119.114,-62.5 119.114,-62.5 119.114,-56.5 125.114,-50.5 131.114,-50.5"/>
<text text-anchor="middle" x="301" y="-83.5" font-family="Helvetica,sans-Serif" font-size="14.00">BC_specific_polygon_subset_of_WDPA_global_dataset</text>
<polyline fill="none" stroke="black" points="119.114,-75.3 482.886,-75.3 "/>
<text text-anchor="middle" x="301" y="-58.7" font-family="Helvetica,sans-Serif" font-size="14.00">file:{dir_goal}/spatial/hs_wdpa_poly.shp</text>
</g>
<!-- Set_up_default_BC_projection_to_BC_Albers_and_start_provenance_tracking&#45;&gt;BC_specific_polygon_subset_of_WDPA_global_dataset -->
<g id="edge2" class="edge"><title>Set_up_default_BC_projection_to_BC_Albers_and_start_provenance_tracking&#45;&gt;BC_specific_polygon_subset_of_WDPA_global_dataset</title>
<path fill="none" stroke="black" d="M333.035,-280.442C374.336,-261.238 433.76,-225.68 457,-172.6 463.417,-157.943 466.047,-149.797 457,-136.6 447.89,-123.312 435.401,-112.952 421.426,-104.874"/>
<polygon fill="black" stroke="black" points="423.019,-101.757 412.549,-100.134 419.722,-107.932 423.019,-101.757"/>
</g>
<!-- dir_goal -->
<g id="node6" class="node"><title>dir_goal</title>
<path fill="#fcfcfc" stroke="black" d="M357.787,-244.6C357.787,-244.6 316.213,-244.6 316.213,-244.6 310.213,-244.6 304.213,-238.6 304.213,-232.6 304.213,-232.6 304.213,-220.6 304.213,-220.6 304.213,-214.6 310.213,-208.6 316.213,-208.6 316.213,-208.6 357.787,-208.6 357.787,-208.6 363.787,-208.6 369.787,-214.6 369.787,-220.6 369.787,-220.6 369.787,-232.6 369.787,-232.6 369.787,-238.6 363.787,-244.6 357.787,-244.6"/>
<text text-anchor="middle" x="337" y="-222.4" font-family="Helvetica,sans-Serif" font-size="14.00">dir_goal</text>
</g>
<!-- Set_up_default_BC_projection_to_BC_Albers_and_start_provenance_tracking&#45;&gt;dir_goal -->
<g id="edge1" class="edge"><title>Set_up_default_BC_projection_to_BC_Albers_and_start_provenance_tracking&#45;&gt;dir_goal</title>
<path fill="none" stroke="black" d="M301.618,-280.297C307.139,-272.074 313.847,-262.083 319.932,-253.021"/>
<polygon fill="black" stroke="black" points="322.847,-254.958 325.516,-244.704 317.035,-251.056 322.847,-254.958"/>
</g>
<!-- create_BC_specific_polygon_subset_of_WDPA_global_dataset -->
<g id="node2" class="node"><title>create_BC_specific_polygon_subset_of_WDPA_global_dataset</title>
<polygon fill="#ccffcc" stroke="black" points="448.453,-172.6 37.5469,-172.6 37.5469,-136.6 448.453,-136.6 448.453,-172.6"/>
<text text-anchor="middle" x="243" y="-150.4" font-family="Helvetica,sans-Serif" font-size="14.00">create_BC_specific_polygon_subset_of_WDPA_global_dataset</text>
</g>
<!-- create_BC_specific_polygon_subset_of_WDPA_global_dataset&#45;&gt;BC_specific_polygon_subset_of_WDPA_global_dataset -->
<g id="edge4" class="edge"><title>create_BC_specific_polygon_subset_of_WDPA_global_dataset&#45;&gt;BC_specific_polygon_subset_of_WDPA_global_dataset</title>
<path fill="none" stroke="black" d="M255.872,-136.445C262.067,-128.188 269.702,-118.013 276.918,-108.396"/>
<polygon fill="black" stroke="black" points="279.903,-110.249 283.105,-100.15 274.304,-106.048 279.903,-110.249"/>
</g>
<!-- BC_specific_polygon_subset_of_WDPA_global_dataset_output_port -->
<g id="node9" class="node"><title>BC_specific_polygon_subset_of_WDPA_global_dataset_output_port</title>
<ellipse fill="#ffffff" stroke="black" cx="301" cy="-7" rx="7" ry="7"/>
</g>
<!-- BC_specific_polygon_subset_of_WDPA_global_dataset&#45;&gt;BC_specific_polygon_subset_of_WDPA_global_dataset_output_port -->
<g id="edge9" class="edge"><title>BC_specific_polygon_subset_of_WDPA_global_dataset&#45;&gt;BC_specific_polygon_subset_of_WDPA_global_dataset_output_port</title>
<path fill="none" stroke="black" d="M301,-50.3642C301,-41.694 301,-32.1105 301,-24.2546"/>
<polygon fill="black" stroke="black" points="304.5,-24.0006 301,-14.0006 297.5,-24.0007 304.5,-24.0006"/>
</g>
<!-- setup.R -->
<g id="node4" class="node"><title>setup.R</title>
<path fill="#ffffcc" stroke="black" d="M310.236,-388.6C310.236,-388.6 269.764,-388.6 269.764,-388.6 263.764,-388.6 257.764,-382.6 257.764,-376.6 257.764,-376.6 257.764,-364.6 257.764,-364.6 257.764,-358.6 263.764,-352.6 269.764,-352.6 269.764,-352.6 310.236,-352.6 310.236,-352.6 316.236,-352.6 322.236,-358.6 322.236,-364.6 322.236,-364.6 322.236,-376.6 322.236,-376.6 322.236,-382.6 316.236,-388.6 310.236,-388.6"/>
<text text-anchor="middle" x="290" y="-366.4" font-family="Helvetica,sans-Serif" font-size="14.00">setup.R</text>
</g>
<!-- setup.R&#45;&gt;Set_up_default_BC_projection_to_BC_Albers_and_start_provenance_tracking -->
<g id="edge3" class="edge"><title>setup.R&#45;&gt;Set_up_default_BC_projection_to_BC_Albers_and_start_provenance_tracking</title>
<path fill="none" stroke="black" d="M290,-352.297C290,-344.583 290,-335.312 290,-326.712"/>
<polygon fill="black" stroke="black" points="293.5,-326.704 290,-316.704 286.5,-326.704 293.5,-326.704"/>
</g>
<!-- original_WDPA_MPA_global_dataset -->
<g id="node5" class="node"><title>original_WDPA_MPA_global_dataset</title>
<path fill="#ffffcc" stroke="black" d="M273.825,-244.6C273.825,-244.6 50.1753,-244.6 50.1753,-244.6 44.1753,-244.6 38.1753,-238.6 38.1753,-232.6 38.1753,-232.6 38.1753,-220.6 38.1753,-220.6 38.1753,-214.6 44.1753,-208.6 50.1753,-208.6 50.1753,-208.6 273.825,-208.6 273.825,-208.6 279.825,-208.6 285.825,-214.6 285.825,-220.6 285.825,-220.6 285.825,-232.6 285.825,-232.6 285.825,-238.6 279.825,-244.6 273.825,-244.6"/>
<text text-anchor="middle" x="162" y="-222.4" font-family="Helvetica,sans-Serif" font-size="14.00">original_WDPA_MPA_global_dataset</text>
</g>
<!-- original_WDPA_MPA_global_dataset&#45;&gt;create_BC_specific_polygon_subset_of_WDPA_global_dataset -->
<g id="edge5" class="edge"><title>original_WDPA_MPA_global_dataset&#45;&gt;create_BC_specific_polygon_subset_of_WDPA_global_dataset</title>
<path fill="none" stroke="black" d="M182.022,-208.297C192.126,-199.565 204.536,-188.84 215.518,-179.35"/>
<polygon fill="black" stroke="black" points="217.93,-181.891 223.208,-172.704 213.353,-176.595 217.93,-181.891"/>
</g>
<!-- dir_goal&#45;&gt;create_BC_specific_polygon_subset_of_WDPA_global_dataset -->
<g id="edge6" class="edge"><title>dir_goal&#45;&gt;create_BC_specific_polygon_subset_of_WDPA_global_dataset</title>
<path fill="none" stroke="black" d="M313.764,-208.297C301.812,-199.396 287.077,-188.423 274.153,-178.799"/>
<polygon fill="black" stroke="black" points="276.08,-175.87 265.969,-172.704 271.899,-181.484 276.08,-175.87"/>
</g>
<!-- setup.R_input_port -->
<g id="node7" class="node"><title>setup.R_input_port</title>
<ellipse fill="#ffffff" stroke="black" cx="290" cy="-431.6" rx="7" ry="7"/>
</g>
<!-- setup.R_input_port&#45;&gt;setup.R -->
<g id="edge7" class="edge"><title>setup.R_input_port&#45;&gt;setup.R</title>
<path fill="none" stroke="black" d="M290,-424.286C290,-418.086 290,-408.195 290,-398.648"/>
<polygon fill="black" stroke="black" points="293.5,-398.616 290,-388.616 286.5,-398.616 293.5,-398.616"/>
</g>
<!-- original_WDPA_MPA_global_dataset_input_port -->
<g id="node8" class="node"><title>original_WDPA_MPA_global_dataset_input_port</title>
<ellipse fill="#ffffff" stroke="black" cx="7" cy="-298.6" rx="7" ry="7"/>
</g>
<!-- original_WDPA_MPA_global_dataset_input_port&#45;&gt;original_WDPA_MPA_global_dataset -->
<g id="edge8" class="edge"><title>original_WDPA_MPA_global_dataset_input_port&#45;&gt;original_WDPA_MPA_global_dataset</title>
<path fill="none" stroke="black" d="M11.311,-292.906C14.9397,-289.174 20.4178,-284.028 26,-280.6 47.3507,-267.488 72.4965,-256.598 95.3208,-248.17"/>
<polygon fill="black" stroke="black" points="96.7173,-251.387 104.943,-244.709 94.3482,-244.8 96.7173,-251.387"/>
</g>
</g>
</svg>
