<?xml version="1.0" encoding="UTF-8" standalone="no"?>
<!DOCTYPE svg PUBLIC "-//W3C//DTD SVG 1.1//EN"
 "http://www.w3.org/Graphics/SVG/1.1/DTD/svg11.dtd">
<!-- Generated by graphviz version 2.38.0 (20140413.2041)
 -->
<!-- Title: yw_data_view Pages: 1 -->
<svg width="559pt" height="518pt"
 viewBox="0.00 0.00 559.00 517.60" xmlns="http://www.w3.org/2000/svg" xmlns:xlink="http://www.w3.org/1999/xlink">
<g id="graph0" class="graph" transform="scale(1 1) rotate(0) translate(4 513.6)">
<title>yw_data_view</title>
<polygon fill="white" stroke="none" points="-4,4 -4,-513.6 555,-513.6 555,4 -4,4"/>
<text text-anchor="middle" x="275.5" y="-489.4" font-family="Courier,monospace" font-size="18.00">setup_watershed_raster</text>
<g id="clust1" class="cluster"><title>cluster_workflow</title>
<polygon fill="none" stroke="black" stroke-width="2" points="8,-62 8,-418 502,-418 502,-62 8,-62"/>
</g>
<g id="clust2" class="cluster"><title>cluster_workflow_inner</title>
<polygon fill="none" stroke="white" stroke-width="2" points="16,-70 16,-410 494,-410 494,-70 16,-70"/>
</g>
<g id="clust3" class="cluster"><title>cluster_inflows</title>
<polygon fill="none" stroke="white" stroke-width="2" points="433,-426 433,-472 543,-472 543,-426 433,-426"/>
</g>
<g id="clust4" class="cluster"><title>cluster_inflows_inner</title>
<polygon fill="none" stroke="white" stroke-width="2" points="441,-434 441,-464 535,-464 535,-434 441,-434"/>
</g>
<g id="clust5" class="cluster"><title>cluster_outflows</title>
<polygon fill="none" stroke="white" stroke-width="2" points="232,-8 232,-54 278,-54 278,-8 232,-8"/>
</g>
<g id="clust6" class="cluster"><title>cluster_outflows_inner</title>
<polygon fill="none" stroke="white" stroke-width="2" points="240,-16 240,-46 270,-46 270,-16 240,-16"/>
</g>
<!-- set_up_configuration_and_start_provenance_tracking -->
<g id="node1" class="node"><title>set_up_configuration_and_start_provenance_tracking</title>
<polygon fill="#ccffcc" stroke="black" points="459.93,-330 24.07,-330 24.07,-294 459.93,-294 459.93,-330"/>
<text text-anchor="middle" x="242" y="-307.8" font-family="Courier,monospace" font-size="14.00">set_up_configuration_and_start_provenance_tracking</text>
</g>
<!-- dir_spatial -->
<g id="node4" class="node"><title>dir_spatial</title>
<path fill="#ffffcc" stroke="black" d="M101.784,-258C101.784,-258 46.2157,-258 46.2157,-258 40.2157,-258 34.2157,-252 34.2157,-246 34.2157,-246 34.2157,-234 34.2157,-234 34.2157,-228 40.2157,-222 46.2157,-222 46.2157,-222 101.784,-222 101.784,-222 107.784,-222 113.784,-228 113.784,-234 113.784,-234 113.784,-246 113.784,-246 113.784,-252 107.784,-258 101.784,-258"/>
<text text-anchor="middle" x="74" y="-235.8" font-family="Helvetica,sans-Serif" font-size="14.00">dir_spatial</text>
</g>
<!-- set_up_configuration_and_start_provenance_tracking&#45;&gt;dir_spatial -->
<g id="edge6" class="edge"><title>set_up_configuration_and_start_provenance_tracking&#45;&gt;dir_spatial</title>
<path fill="none" stroke="black" d="M200.903,-293.876C177.491,-284.121 148.001,-271.834 123.343,-261.56"/>
<polygon fill="black" stroke="black" points="124.381,-258.201 113.805,-257.585 121.689,-264.662 124.381,-258.201"/>
</g>
<!-- dir_goal -->
<g id="node5" class="node"><title>dir_goal</title>
<path fill="#ffffcc" stroke="black" d="M185.787,-258C185.787,-258 144.213,-258 144.213,-258 138.213,-258 132.213,-252 132.213,-246 132.213,-246 132.213,-234 132.213,-234 132.213,-228 138.213,-222 144.213,-222 144.213,-222 185.787,-222 185.787,-222 191.787,-222 197.787,-228 197.787,-234 197.787,-234 197.787,-246 197.787,-246 197.787,-252 191.787,-258 185.787,-258"/>
<text text-anchor="middle" x="165" y="-235.8" font-family="Helvetica,sans-Serif" font-size="14.00">dir_goal</text>
</g>
<!-- set_up_configuration_and_start_provenance_tracking&#45;&gt;dir_goal -->
<g id="edge7" class="edge"><title>set_up_configuration_and_start_provenance_tracking&#45;&gt;dir_goal</title>
<path fill="none" stroke="black" d="M222.966,-293.697C213.455,-285.05 201.793,-274.449 191.43,-265.027"/>
<polygon fill="black" stroke="black" points="193.569,-262.241 183.815,-258.104 188.86,-267.421 193.569,-262.241"/>
</g>
<!-- raster_to_same_extents_resolution_as_500m_base_raster -->
<g id="node2" class="node"><title>raster_to_same_extents_resolution_as_500m_base_raster</title>
<polygon fill="#ccffcc" stroke="black" points="485.626,-186 24.3742,-186 24.3742,-150 485.626,-150 485.626,-186"/>
<text text-anchor="middle" x="255" y="-163.8" font-family="Courier,monospace" font-size="14.00">raster_to_same_extents_resolution_as_500m_base_raster</text>
</g>
<!-- rast_watershed -->
<g id="node8" class="node"><title>rast_watershed</title>
<path fill="#ffffcc" stroke="black" d="M298.688,-114C298.688,-114 211.312,-114 211.312,-114 205.312,-114 199.312,-108 199.312,-102 199.312,-102 199.312,-90 199.312,-90 199.312,-84 205.312,-78 211.312,-78 211.312,-78 298.688,-78 298.688,-78 304.688,-78 310.688,-84 310.688,-90 310.688,-90 310.688,-102 310.688,-102 310.688,-108 304.688,-114 298.688,-114"/>
<text text-anchor="middle" x="255" y="-91.8" font-family="Helvetica,sans-Serif" font-size="14.00">rast_watershed</text>
</g>
<!-- raster_to_same_extents_resolution_as_500m_base_raster&#45;&gt;rast_watershed -->
<g id="edge8" class="edge"><title>raster_to_same_extents_resolution_as_500m_base_raster&#45;&gt;rast_watershed</title>
<path fill="none" stroke="black" d="M255,-149.697C255,-141.983 255,-132.712 255,-124.112"/>
<polygon fill="black" stroke="black" points="258.5,-124.104 255,-114.104 251.5,-124.104 258.5,-124.104"/>
</g>
<!-- setup_R -->
<g id="node3" class="node"><title>setup_R</title>
<path fill="#ffffcc" stroke="black" d="M356.128,-402C356.128,-402 311.872,-402 311.872,-402 305.872,-402 299.872,-396 299.872,-390 299.872,-390 299.872,-378 299.872,-378 299.872,-372 305.872,-366 311.872,-366 311.872,-366 356.128,-366 356.128,-366 362.128,-366 368.128,-372 368.128,-378 368.128,-378 368.128,-390 368.128,-390 368.128,-396 362.128,-402 356.128,-402"/>
<text text-anchor="middle" x="334" y="-379.8" font-family="Helvetica,sans-Serif" font-size="14.00">setup_R</text>
</g>
<!-- setup_R&#45;&gt;set_up_configuration_and_start_provenance_tracking -->
<g id="edge5" class="edge"><title>setup_R&#45;&gt;set_up_configuration_and_start_provenance_tracking</title>
<path fill="none" stroke="black" d="M311.258,-365.697C299.56,-356.796 285.139,-345.823 272.49,-336.199"/>
<polygon fill="black" stroke="black" points="274.558,-333.374 264.48,-330.104 270.319,-338.945 274.558,-333.374"/>
</g>
<!-- dir_spatial&#45;&gt;raster_to_same_extents_resolution_as_500m_base_raster -->
<g id="edge4" class="edge"><title>dir_spatial&#45;&gt;raster_to_same_extents_resolution_as_500m_base_raster</title>
<path fill="none" stroke="black" d="M114.17,-223.465C139.79,-213.556 173.301,-200.596 201.206,-189.804"/>
<polygon fill="black" stroke="black" points="202.756,-192.958 210.82,-186.086 200.231,-186.429 202.756,-192.958"/>
</g>
<!-- dir_goal&#45;&gt;raster_to_same_extents_resolution_as_500m_base_raster -->
<g id="edge3" class="edge"><title>dir_goal&#45;&gt;raster_to_same_extents_resolution_as_500m_base_raster</title>
<path fill="none" stroke="black" d="M187.247,-221.697C198.582,-212.881 212.53,-202.032 224.819,-192.474"/>
<polygon fill="black" stroke="black" points="227.264,-195.007 233.009,-186.104 222.966,-189.481 227.264,-195.007"/>
</g>
<!-- rast_base -->
<g id="node6" class="node"><title>rast_base</title>
<path fill="#ffffcc" stroke="black" d="M281.966,-258C281.966,-258 228.034,-258 228.034,-258 222.034,-258 216.034,-252 216.034,-246 216.034,-246 216.034,-234 216.034,-234 216.034,-228 222.034,-222 228.034,-222 228.034,-222 281.966,-222 281.966,-222 287.966,-222 293.966,-228 293.966,-234 293.966,-234 293.966,-246 293.966,-246 293.966,-252 287.966,-258 281.966,-258"/>
<text text-anchor="middle" x="255" y="-235.8" font-family="Helvetica,sans-Serif" font-size="14.00">rast_base</text>
</g>
<!-- rast_base&#45;&gt;raster_to_same_extents_resolution_as_500m_base_raster -->
<g id="edge2" class="edge"><title>rast_base&#45;&gt;raster_to_same_extents_resolution_as_500m_base_raster</title>
<path fill="none" stroke="black" d="M255,-221.697C255,-213.983 255,-204.712 255,-196.112"/>
<polygon fill="black" stroke="black" points="258.5,-196.104 255,-186.104 251.5,-196.104 258.5,-196.104"/>
</g>
<!-- howe_sound_watersheds -->
<g id="node7" class="node"><title>howe_sound_watersheds</title>
<path fill="#ffffcc" stroke="black" d="M474.221,-258C474.221,-258 323.779,-258 323.779,-258 317.779,-258 311.779,-252 311.779,-246 311.779,-246 311.779,-234 311.779,-234 311.779,-228 317.779,-222 323.779,-222 323.779,-222 474.221,-222 474.221,-222 480.221,-222 486.221,-228 486.221,-234 486.221,-234 486.221,-246 486.221,-246 486.221,-252 480.221,-258 474.221,-258"/>
<text text-anchor="middle" x="399" y="-235.8" font-family="Helvetica,sans-Serif" font-size="14.00">howe_sound_watersheds</text>
</g>
<!-- howe_sound_watersheds&#45;&gt;raster_to_same_extents_resolution_as_500m_base_raster -->
<g id="edge1" class="edge"><title>howe_sound_watersheds&#45;&gt;raster_to_same_extents_resolution_as_500m_base_raster</title>
<path fill="none" stroke="black" d="M363.774,-221.876C344.423,-212.469 320.227,-200.708 299.573,-190.667"/>
<polygon fill="black" stroke="black" points="300.886,-187.414 290.362,-186.19 297.825,-193.71 300.886,-187.414"/>
</g>
<!-- rast_watershed_outflow -->
<g id="node12" class="node"><title>rast_watershed_outflow</title>
<ellipse fill="none" stroke="black" cx="255" cy="-31" rx="7" ry="7"/>
</g>
<!-- rast_watershed&#45;&gt;rast_watershed_outflow -->
<g id="edge12" class="edge"><title>rast_watershed&#45;&gt;rast_watershed_outflow</title>
<path fill="none" stroke="black" d="M255,-77.785C255,-68.6656 255,-57.5197 255,-48.5085"/>
<polygon fill="black" stroke="black" points="258.5,-48.242 255,-38.242 251.5,-48.2421 258.5,-48.242"/>
</g>
<!-- setup_R_inflow -->
<g id="node9" class="node"><title>setup_R_inflow</title>
<ellipse fill="none" stroke="black" cx="456" cy="-449" rx="7" ry="7"/>
</g>
<!-- setup_R_inflow&#45;&gt;setup_R -->
<g id="edge9" class="edge"><title>setup_R_inflow&#45;&gt;setup_R</title>
<path fill="none" stroke="black" d="M450.116,-444.961C436.859,-438.116 403.665,-420.975 376.148,-406.765"/>
<polygon fill="black" stroke="black" points="377.561,-403.556 367.07,-402.077 374.35,-409.775 377.561,-403.556"/>
</g>
<!-- rast_base_inflow -->
<g id="node10" class="node"><title>rast_base_inflow</title>
<ellipse fill="none" stroke="black" cx="488" cy="-449" rx="7" ry="7"/>
</g>
<!-- rast_base_inflow&#45;&gt;rast_base -->
<g id="edge10" class="edge"><title>rast_base_inflow&#45;&gt;rast_base</title>
<path fill="none" stroke="black" d="M489.417,-442.009C494.404,-419.295 508.78,-337.567 469,-294 420.184,-240.537 379.115,-275.491 303.76,-257.81"/>
<polygon fill="black" stroke="black" points="304.459,-254.376 293.899,-255.242 302.694,-261.15 304.459,-254.376"/>
</g>
<!-- howe_sound_watersheds_inflow -->
<g id="node11" class="node"><title>howe_sound_watersheds_inflow</title>
<ellipse fill="none" stroke="black" cx="520" cy="-449" rx="7" ry="7"/>
</g>
<!-- howe_sound_watersheds_inflow&#45;&gt;howe_sound_watersheds -->
<g id="edge11" class="edge"><title>howe_sound_watersheds_inflow&#45;&gt;howe_sound_watersheds</title>
<path fill="none" stroke="black" d="M521.137,-442.016C524.975,-419.994 535.422,-342.234 502,-294 492.657,-280.517 478.811,-270.245 464.279,-262.507"/>
<polygon fill="black" stroke="black" points="465.693,-259.301 455.177,-258.01 462.593,-265.577 465.693,-259.301"/>
</g>
</g>
</svg>
