<?xml version="1.0" encoding="UTF-8" standalone="no"?>
<!DOCTYPE svg PUBLIC "-//W3C//DTD SVG 1.1//EN"
 "http://www.w3.org/Graphics/SVG/1.1/DTD/svg11.dtd">
<!-- Generated by graphviz version 2.38.0 (20140413.2041)
 -->
<!-- Title: Workflow Pages: 1 -->
<svg width="1458pt" height="691pt"
 viewBox="0.00 0.00 1458.00 690.80" xmlns="http://www.w3.org/2000/svg" xmlns:xlink="http://www.w3.org/1999/xlink">
<g id="graph0" class="graph" transform="scale(1 1) rotate(0) translate(4 686.8)">
<title>Workflow</title>
<polygon fill="white" stroke="none" points="-4,4 -4,-686.8 1454,-686.8 1454,4 -4,4"/>
<text text-anchor="middle" x="725" y="-662.6" font-family="Courier,monospace" font-size="18.00">combine_scores_for_inland_and_offshore</text>
<g id="clust1" class="cluster"><title>cluster_workflow_box_outer</title>
<polygon fill="none" stroke="black" stroke-width="2" points="8,-62 8,-591.2 1442,-591.2 1442,-62 8,-62"/>
</g>
<g id="clust2" class="cluster"><title>cluster_workflow_box_inner</title>
<polygon fill="none" stroke="white" stroke-width="2" points="16,-70 16,-583.2 1434,-583.2 1434,-70 16,-70"/>
</g>
<g id="clust3" class="cluster"><title>cluster_input_ports_group_outer</title>
<polygon fill="none" stroke="white" points="714,-599.2 714,-645.2 856,-645.2 856,-599.2 714,-599.2"/>
</g>
<g id="clust4" class="cluster"><title>cluster_input_ports_group_inner</title>
<polygon fill="none" stroke="white" points="722,-607.2 722,-637.2 848,-637.2 848,-607.2 722,-607.2"/>
</g>
<g id="clust5" class="cluster"><title>cluster_output_ports_group_outer</title>
<polygon fill="none" stroke="white" points="685,-8 685,-54 731,-54 731,-8 685,-8"/>
</g>
<g id="clust6" class="cluster"><title>cluster_output_ports_group_inner</title>
<polygon fill="none" stroke="white" points="693,-16 693,-46 723,-46 723,-16 693,-16"/>
</g>
<!-- set_up_configuration_and_start_provenance_tracking -->
<g id="node1" class="node"><title>set_up_configuration_and_start_provenance_tracking</title>
<polygon fill="#ccffcc" stroke="black" points="737.93,-503.2 302.07,-503.2 302.07,-467.2 737.93,-467.2 737.93,-503.2"/>
<text text-anchor="middle" x="520" y="-481" font-family="Courier,monospace" font-size="14.00">set_up_configuration_and_start_provenance_tracking</text>
</g>
<!-- dir_goal -->
<g id="node14" class="node"><title>dir_goal</title>
<path fill="#fcfcfc" stroke="black" d="M565.787,-423.9C565.787,-423.9 524.213,-423.9 524.213,-423.9 518.213,-423.9 512.213,-417.9 512.213,-411.9 512.213,-411.9 512.213,-399.9 512.213,-399.9 512.213,-393.9 518.213,-387.9 524.213,-387.9 524.213,-387.9 565.787,-387.9 565.787,-387.9 571.787,-387.9 577.787,-393.9 577.787,-399.9 577.787,-399.9 577.787,-411.9 577.787,-411.9 577.787,-417.9 571.787,-423.9 565.787,-423.9"/>
<text text-anchor="middle" x="545" y="-401.7" font-family="Helvetica,sans-Serif" font-size="14.00">dir_goal</text>
</g>
<!-- set_up_configuration_and_start_provenance_tracking&#45;&gt;dir_goal -->
<g id="edge1" class="edge"><title>set_up_configuration_and_start_provenance_tracking&#45;&gt;dir_goal</title>
<path fill="none" stroke="black" d="M525.548,-467.045C528.72,-457.237 532.768,-444.722 536.349,-433.65"/>
<polygon fill="black" stroke="black" points="539.72,-434.599 539.467,-424.007 533.06,-432.445 539.72,-434.599"/>
</g>
<!-- read_in_area_weighted_average_of_offshore_3nm_score -->
<g id="node2" class="node"><title>read_in_area_weighted_average_of_offshore_3nm_score</title>
<polygon fill="#ccffcc" stroke="black" points="468.329,-344.6 23.6713,-344.6 23.6713,-308.6 468.329,-308.6 468.329,-344.6"/>
<text text-anchor="middle" x="246" y="-322.4" font-family="Courier,monospace" font-size="14.00">read_in_area_weighted_average_of_offshore_3nm_score</text>
</g>
<!-- prot_3nm -->
<g id="node12" class="node"><title>prot_3nm</title>
<path fill="#ffffcc" stroke="black" d="M455.625,-272.6C455.625,-272.6 404.375,-272.6 404.375,-272.6 398.375,-272.6 392.375,-266.6 392.375,-260.6 392.375,-260.6 392.375,-248.6 392.375,-248.6 392.375,-242.6 398.375,-236.6 404.375,-236.6 404.375,-236.6 455.625,-236.6 455.625,-236.6 461.625,-236.6 467.625,-242.6 467.625,-248.6 467.625,-248.6 467.625,-260.6 467.625,-260.6 467.625,-266.6 461.625,-272.6 455.625,-272.6"/>
<text text-anchor="middle" x="430" y="-250.4" font-family="Helvetica,sans-Serif" font-size="14.00">prot_3nm</text>
</g>
<!-- read_in_area_weighted_average_of_offshore_3nm_score&#45;&gt;prot_3nm -->
<g id="edge3" class="edge"><title>read_in_area_weighted_average_of_offshore_3nm_score&#45;&gt;prot_3nm</title>
<path fill="none" stroke="black" d="M291.011,-308.476C318.802,-297.904 354.411,-284.357 382.628,-273.622"/>
<polygon fill="black" stroke="black" points="384.174,-276.779 392.276,-269.952 381.685,-270.236 384.174,-276.779"/>
</g>
<!-- read_in_area_weighted_average_of_offshore_1km_score -->
<g id="node3" class="node"><title>read_in_area_weighted_average_of_offshore_1km_score</title>
<polygon fill="#ccffcc" stroke="black" points="930.329,-344.6 485.671,-344.6 485.671,-308.6 930.329,-308.6 930.329,-344.6"/>
<text text-anchor="middle" x="708" y="-322.4" font-family="Courier,monospace" font-size="14.00">read_in_area_weighted_average_of_offshore_1km_score</text>
</g>
<!-- prot_1km -->
<g id="node11" class="node"><title>prot_1km</title>
<path fill="#ffffcc" stroke="black" d="M733.343,-272.6C733.343,-272.6 682.657,-272.6 682.657,-272.6 676.657,-272.6 670.657,-266.6 670.657,-260.6 670.657,-260.6 670.657,-248.6 670.657,-248.6 670.657,-242.6 676.657,-236.6 682.657,-236.6 682.657,-236.6 733.343,-236.6 733.343,-236.6 739.343,-236.6 745.343,-242.6 745.343,-248.6 745.343,-248.6 745.343,-260.6 745.343,-260.6 745.343,-266.6 739.343,-272.6 733.343,-272.6"/>
<text text-anchor="middle" x="708" y="-250.4" font-family="Helvetica,sans-Serif" font-size="14.00">prot_1km</text>
</g>
<!-- read_in_area_weighted_average_of_offshore_1km_score&#45;&gt;prot_1km -->
<g id="edge6" class="edge"><title>read_in_area_weighted_average_of_offshore_1km_score&#45;&gt;prot_1km</title>
<path fill="none" stroke="black" d="M708,-308.297C708,-300.583 708,-291.312 708,-282.712"/>
<polygon fill="black" stroke="black" points="711.5,-282.704 708,-272.704 704.5,-282.704 711.5,-282.704"/>
</g>
<!-- read_in_area_weighted_average_of_inland_watershed_score -->
<g id="node4" class="node"><title>read_in_area_weighted_average_of_inland_watershed_score</title>
<polygon fill="#ccffcc" stroke="black" points="1425.92,-344.6 948.077,-344.6 948.077,-308.6 1425.92,-308.6 1425.92,-344.6"/>
<text text-anchor="middle" x="1187" y="-322.4" font-family="Courier,monospace" font-size="14.00">read_in_area_weighted_average_of_inland_watershed_score</text>
</g>
<!-- prot_ws -->
<g id="node13" class="node"><title>prot_ws</title>
<path fill="#ffffcc" stroke="black" d="M1011.51,-272.6C1011.51,-272.6 970.494,-272.6 970.494,-272.6 964.494,-272.6 958.494,-266.6 958.494,-260.6 958.494,-260.6 958.494,-248.6 958.494,-248.6 958.494,-242.6 964.494,-236.6 970.494,-236.6 970.494,-236.6 1011.51,-236.6 1011.51,-236.6 1017.51,-236.6 1023.51,-242.6 1023.51,-248.6 1023.51,-248.6 1023.51,-260.6 1023.51,-260.6 1023.51,-266.6 1017.51,-272.6 1011.51,-272.6"/>
<text text-anchor="middle" x="991" y="-250.4" font-family="Helvetica,sans-Serif" font-size="14.00">prot_ws</text>
</g>
<!-- read_in_area_weighted_average_of_inland_watershed_score&#45;&gt;prot_ws -->
<g id="edge9" class="edge"><title>read_in_area_weighted_average_of_inland_watershed_score&#45;&gt;prot_ws</title>
<path fill="none" stroke="black" d="M1139.3,-308.566C1106.89,-296.99 1064.41,-281.817 1033.22,-270.679"/>
<polygon fill="black" stroke="black" points="1034.11,-267.281 1023.52,-267.214 1031.76,-273.873 1034.11,-267.281"/>
</g>
<!-- combine_scores_for_inland_and_offshore_and_write_output_layers -->
<g id="node5" class="node"><title>combine_scores_for_inland_and_offshore_and_write_output_layers</title>
<polygon fill="#ccffcc" stroke="black" points="976.213,-200.6 439.787,-200.6 439.787,-164.6 976.213,-164.6 976.213,-200.6"/>
<text text-anchor="middle" x="708" y="-178.4" font-family="Courier,monospace" font-size="14.00">combine_scores_for_inland_and_offshore_and_write_output_layers</text>
</g>
<!-- area_protected_total_file -->
<g id="node6" class="node"><title>area_protected_total_file</title>
<path fill="#ffffcc" stroke="black" d="M571.561,-78.5C571.561,-78.5 844.439,-78.5 844.439,-78.5 850.439,-78.5 856.439,-84.5 856.439,-90.5 856.439,-90.5 856.439,-116.1 856.439,-116.1 856.439,-122.1 850.439,-128.1 844.439,-128.1 844.439,-128.1 571.561,-128.1 571.561,-128.1 565.561,-128.1 559.561,-122.1 559.561,-116.1 559.561,-116.1 559.561,-90.5 559.561,-90.5 559.561,-84.5 565.561,-78.5 571.561,-78.5"/>
<text text-anchor="middle" x="708" y="-111.5" font-family="Helvetica,sans-Serif" font-size="14.00">area_protected_total_file</text>
<polyline fill="none" stroke="black" points="559.561,-103.3 856.439,-103.3 "/>
<text text-anchor="middle" x="708" y="-86.7" font-family="Helvetica,sans-Serif" font-size="14.00">file:{dir_goal}/output/area_protected_total.csv</text>
</g>
<!-- combine_scores_for_inland_and_offshore_and_write_output_layers&#45;&gt;area_protected_total_file -->
<g id="edge12" class="edge"><title>combine_scores_for_inland_and_offshore_and_write_output_layers&#45;&gt;area_protected_total_file</title>
<path fill="none" stroke="black" d="M708,-164.445C708,-156.689 708,-147.239 708,-138.15"/>
<polygon fill="black" stroke="black" points="711.5,-138.15 708,-128.15 704.5,-138.15 711.5,-138.15"/>
</g>
<!-- area_protected_total_file_output_port -->
<g id="node19" class="node"><title>area_protected_total_file_output_port</title>
<ellipse fill="#ffffff" stroke="black" cx="708" cy="-31" rx="7" ry="7"/>
</g>
<!-- area_protected_total_file&#45;&gt;area_protected_total_file_output_port -->
<g id="edge20" class="edge"><title>area_protected_total_file&#45;&gt;area_protected_total_file_output_port</title>
<path fill="none" stroke="black" d="M708,-78.4996C708,-68.5289 708,-57.1933 708,-48.2105"/>
<polygon fill="black" stroke="black" points="711.5,-48.0698 708,-38.0698 704.5,-48.0699 711.5,-48.0698"/>
</g>
<!-- setup_R -->
<g id="node7" class="node"><title>setup_R</title>
<path fill="#ffffcc" stroke="black" d="M634.128,-575.2C634.128,-575.2 589.872,-575.2 589.872,-575.2 583.872,-575.2 577.872,-569.2 577.872,-563.2 577.872,-563.2 577.872,-551.2 577.872,-551.2 577.872,-545.2 583.872,-539.2 589.872,-539.2 589.872,-539.2 634.128,-539.2 634.128,-539.2 640.128,-539.2 646.128,-545.2 646.128,-551.2 646.128,-551.2 646.128,-563.2 646.128,-563.2 646.128,-569.2 640.128,-575.2 634.128,-575.2"/>
<text text-anchor="middle" x="612" y="-553" font-family="Helvetica,sans-Serif" font-size="14.00">setup_R</text>
</g>
<!-- setup_R&#45;&gt;set_up_configuration_and_start_provenance_tracking -->
<g id="edge2" class="edge"><title>setup_R&#45;&gt;set_up_configuration_and_start_provenance_tracking</title>
<path fill="none" stroke="black" d="M589.258,-538.897C577.56,-529.996 563.139,-519.023 550.49,-509.399"/>
<polygon fill="black" stroke="black" points="552.558,-506.574 542.48,-503.304 548.319,-512.145 552.558,-506.574"/>
</g>
<!-- prot_3nm_stats_file -->
<g id="node8" class="node"><title>prot_3nm_stats_file</title>
<path fill="#ffffcc" stroke="black" d="M176.241,-381.1C176.241,-381.1 425.759,-381.1 425.759,-381.1 431.759,-381.1 437.759,-387.1 437.759,-393.1 437.759,-393.1 437.759,-418.7 437.759,-418.7 437.759,-424.7 431.759,-430.7 425.759,-430.7 425.759,-430.7 176.241,-430.7 176.241,-430.7 170.241,-430.7 164.241,-424.7 164.241,-418.7 164.241,-418.7 164.241,-393.1 164.241,-393.1 164.241,-387.1 170.241,-381.1 176.241,-381.1"/>
<text text-anchor="middle" x="301" y="-414.1" font-family="Helvetica,sans-Serif" font-size="14.00">prot_3nm_stats_file</text>
<polyline fill="none" stroke="black" points="164.241,-405.9 437.759,-405.9 "/>
<text text-anchor="middle" x="301" y="-389.3" font-family="Helvetica,sans-Serif" font-size="14.00">file:{dir_goal}/int/area_protected_3nm.csv</text>
</g>
<!-- prot_3nm_stats_file&#45;&gt;read_in_area_weighted_average_of_offshore_3nm_score -->
<g id="edge5" class="edge"><title>prot_3nm_stats_file&#45;&gt;read_in_area_weighted_average_of_offshore_3nm_score</title>
<path fill="none" stroke="black" d="M283.899,-380.866C277.59,-371.999 270.425,-361.929 264.036,-352.949"/>
<polygon fill="black" stroke="black" points="266.851,-350.868 258.202,-344.749 261.148,-354.927 266.851,-350.868"/>
</g>
<!-- prot_1km_stats_file -->
<g id="node9" class="node"><title>prot_1km_stats_file</title>
<path fill="#ffffcc" stroke="black" d="M631.632,-381.1C631.632,-381.1 880.368,-381.1 880.368,-381.1 886.368,-381.1 892.368,-387.1 892.368,-393.1 892.368,-393.1 892.368,-418.7 892.368,-418.7 892.368,-424.7 886.368,-430.7 880.368,-430.7 880.368,-430.7 631.632,-430.7 631.632,-430.7 625.632,-430.7 619.632,-424.7 619.632,-418.7 619.632,-418.7 619.632,-393.1 619.632,-393.1 619.632,-387.1 625.632,-381.1 631.632,-381.1"/>
<text text-anchor="middle" x="756" y="-414.1" font-family="Helvetica,sans-Serif" font-size="14.00">prot_1km_stats_file</text>
<polyline fill="none" stroke="black" points="619.632,-405.9 892.368,-405.9 "/>
<text text-anchor="middle" x="756" y="-389.3" font-family="Helvetica,sans-Serif" font-size="14.00">file:{dir_goal}/int/area_protected_1km.csv</text>
</g>
<!-- prot_1km_stats_file&#45;&gt;read_in_area_weighted_average_of_offshore_1km_score -->
<g id="edge8" class="edge"><title>prot_1km_stats_file&#45;&gt;read_in_area_weighted_average_of_offshore_1km_score</title>
<path fill="none" stroke="black" d="M741.076,-380.866C735.683,-372.182 729.574,-362.343 724.087,-353.506"/>
<polygon fill="black" stroke="black" points="726.898,-351.398 718.649,-344.749 720.951,-355.091 726.898,-351.398"/>
</g>
<!-- prot_ws_stats_file -->
<g id="node10" class="node"><title>prot_ws_stats_file</title>
<path fill="#ffffcc" stroke="black" d="M1018.3,-381.1C1018.3,-381.1 1257.7,-381.1 1257.7,-381.1 1263.7,-381.1 1269.7,-387.1 1269.7,-393.1 1269.7,-393.1 1269.7,-418.7 1269.7,-418.7 1269.7,-424.7 1263.7,-430.7 1257.7,-430.7 1257.7,-430.7 1018.3,-430.7 1018.3,-430.7 1012.3,-430.7 1006.3,-424.7 1006.3,-418.7 1006.3,-418.7 1006.3,-393.1 1006.3,-393.1 1006.3,-387.1 1012.3,-381.1 1018.3,-381.1"/>
<text text-anchor="middle" x="1138" y="-414.1" font-family="Helvetica,sans-Serif" font-size="14.00">prot_ws_stats_file</text>
<polyline fill="none" stroke="black" points="1006.3,-405.9 1269.7,-405.9 "/>
<text text-anchor="middle" x="1138" y="-389.3" font-family="Helvetica,sans-Serif" font-size="14.00">file:{dir_goal}/int/area_protected_ws.csv</text>
</g>
<!-- prot_ws_stats_file&#45;&gt;read_in_area_weighted_average_of_inland_watershed_score -->
<g id="edge11" class="edge"><title>prot_ws_stats_file&#45;&gt;read_in_area_weighted_average_of_inland_watershed_score</title>
<path fill="none" stroke="black" d="M1153.24,-380.866C1158.8,-372.09 1165.11,-362.136 1170.75,-353.227"/>
<polygon fill="black" stroke="black" points="1173.73,-355.069 1176.13,-344.749 1167.82,-351.322 1173.73,-355.069"/>
</g>
<!-- prot_1km&#45;&gt;combine_scores_for_inland_and_offshore_and_write_output_layers -->
<g id="edge13" class="edge"><title>prot_1km&#45;&gt;combine_scores_for_inland_and_offshore_and_write_output_layers</title>
<path fill="none" stroke="black" d="M708,-236.297C708,-228.583 708,-219.312 708,-210.712"/>
<polygon fill="black" stroke="black" points="711.5,-210.704 708,-200.704 704.5,-210.704 711.5,-210.704"/>
</g>
<!-- prot_3nm&#45;&gt;combine_scores_for_inland_and_offshore_and_write_output_layers -->
<g id="edge14" class="edge"><title>prot_3nm&#45;&gt;combine_scores_for_inland_and_offshore_and_write_output_layers</title>
<path fill="none" stroke="black" d="M467.782,-244.087C509.43,-233.6 577.557,-216.445 630.642,-203.079"/>
<polygon fill="black" stroke="black" points="631.527,-206.465 640.37,-200.629 629.818,-199.677 631.527,-206.465"/>
</g>
<!-- prot_ws&#45;&gt;combine_scores_for_inland_and_offshore_and_write_output_layers -->
<g id="edge15" class="edge"><title>prot_ws&#45;&gt;combine_scores_for_inland_and_offshore_and_write_output_layers</title>
<path fill="none" stroke="black" d="M958.26,-245.502C916.603,-235.198 843.278,-217.061 786.729,-203.074"/>
<polygon fill="black" stroke="black" points="787.282,-199.605 776.735,-200.601 785.602,-206.4 787.282,-199.605"/>
</g>
<!-- dir_goal&#45;&gt;read_in_area_weighted_average_of_offshore_3nm_score -->
<g id="edge4" class="edge"><title>dir_goal&#45;&gt;read_in_area_weighted_average_of_offshore_3nm_score</title>
<path fill="none" stroke="black" d="M512.146,-396.406C466.664,-384.648 383.19,-363.067 321.812,-347.2"/>
<polygon fill="black" stroke="black" points="322.335,-343.72 311.777,-344.605 320.582,-350.497 322.335,-343.72"/>
</g>
<!-- dir_goal&#45;&gt;read_in_area_weighted_average_of_offshore_1km_score -->
<g id="edge7" class="edge"><title>dir_goal&#45;&gt;read_in_area_weighted_average_of_offshore_1km_score</title>
<path fill="none" stroke="black" d="M577.985,-389.257C602.367,-377.695 635.857,-361.813 662.74,-349.064"/>
<polygon fill="black" stroke="black" points="664.413,-352.144 671.948,-344.697 661.413,-345.819 664.413,-352.144"/>
</g>
<!-- dir_goal&#45;&gt;read_in_area_weighted_average_of_inland_watershed_score -->
<g id="edge10" class="edge"><title>dir_goal&#45;&gt;read_in_area_weighted_average_of_inland_watershed_score</title>
<path fill="none" stroke="black" d="M578.064,-390.808C588.437,-386.911 600.043,-383.076 611,-380.6 645.441,-372.816 815.892,-357.588 962.512,-345.445"/>
<polygon fill="black" stroke="black" points="962.902,-348.925 972.58,-344.613 962.325,-341.949 962.902,-348.925"/>
</g>
<!-- setup_R_input_port -->
<g id="node15" class="node"><title>setup_R_input_port</title>
<ellipse fill="#ffffff" stroke="black" cx="737" cy="-622.2" rx="7" ry="7"/>
</g>
<!-- setup_R_input_port&#45;&gt;setup_R -->
<g id="edge16" class="edge"><title>setup_R_input_port&#45;&gt;setup_R</title>
<path fill="none" stroke="black" d="M730.971,-618.161C717.329,-611.286 683.082,-594.025 654.817,-579.78"/>
<polygon fill="black" stroke="black" points="656.389,-576.653 645.883,-575.277 653.238,-582.903 656.389,-576.653"/>
</g>
<!-- prot_3nm_stats_file_input_port -->
<g id="node16" class="node"><title>prot_3nm_stats_file_input_port</title>
<ellipse fill="#ffffff" stroke="black" cx="769" cy="-622.2" rx="7" ry="7"/>
</g>
<!-- prot_3nm_stats_file_input_port&#45;&gt;prot_3nm_stats_file -->
<g id="edge17" class="edge"><title>prot_3nm_stats_file_input_port&#45;&gt;prot_3nm_stats_file</title>
<path fill="none" stroke="black" d="M770.385,-615.09C775.235,-591.945 788.98,-508.866 747,-467.2 741.575,-461.816 576.079,-440.476 448.266,-424.703"/>
<polygon fill="black" stroke="black" points="448.322,-421.184 437.969,-423.435 447.466,-428.131 448.322,-421.184"/>
</g>
<!-- prot_1km_stats_file_input_port -->
<g id="node17" class="node"><title>prot_1km_stats_file_input_port</title>
<ellipse fill="#ffffff" stroke="black" cx="801" cy="-622.2" rx="7" ry="7"/>
</g>
<!-- prot_1km_stats_file_input_port&#45;&gt;prot_1km_stats_file -->
<g id="edge18" class="edge"><title>prot_1km_stats_file_input_port&#45;&gt;prot_1km_stats_file</title>
<path fill="none" stroke="black" d="M800.692,-614.932C799.538,-593.794 794.755,-523.307 780,-467.2 777.647,-458.253 774.335,-448.843 770.921,-440.187"/>
<polygon fill="black" stroke="black" points="774.103,-438.722 767.068,-430.799 767.627,-441.379 774.103,-438.722"/>
</g>
<!-- prot_ws_stats_file_input_port -->
<g id="node18" class="node"><title>prot_ws_stats_file_input_port</title>
<ellipse fill="#ffffff" stroke="black" cx="833" cy="-622.2" rx="7" ry="7"/>
</g>
<!-- prot_ws_stats_file_input_port&#45;&gt;prot_ws_stats_file -->
<g id="edge19" class="edge"><title>prot_ws_stats_file_input_port&#45;&gt;prot_ws_stats_file</title>
<path fill="none" stroke="black" d="M838.294,-617.48C868.494,-596.261 1020.3,-489.598 1095.56,-436.716"/>
<polygon fill="black" stroke="black" points="1097.74,-439.462 1103.91,-430.849 1093.72,-433.735 1097.74,-439.462"/>
</g>
</g>
</svg>
