<?xml version="1.0" encoding="UTF-8" standalone="no"?>
<!DOCTYPE svg PUBLIC "-//W3C//DTD SVG 1.1//EN"
 "http://www.w3.org/Graphics/SVG/1.1/DTD/svg11.dtd">
<!-- Generated by graphviz version 2.38.0 (20140413.2041)
 -->
<!-- Title: Workflow Pages: 1 -->
<svg width="905pt" height="835pt"
 viewBox="0.00 0.00 905.00 834.80" xmlns="http://www.w3.org/2000/svg" xmlns:xlink="http://www.w3.org/1999/xlink">
<g id="graph0" class="graph" transform="scale(1 1) rotate(0) translate(4 830.8)">
<title>Workflow</title>
<polygon fill="white" stroke="none" points="-4,4 -4,-830.8 901,-830.8 901,4 -4,4"/>
<text text-anchor="middle" x="448.5" y="-806.6" font-family="Courier,monospace" font-size="18.00">estimate_status_and_trend_by_year</text>
<g id="clust1" class="cluster"><title>cluster_workflow_box_outer</title>
<polygon fill="none" stroke="black" stroke-width="2" points="8,-62 8,-735.2 889,-735.2 889,-62 8,-62"/>
</g>
<g id="clust2" class="cluster"><title>cluster_workflow_box_inner</title>
<polygon fill="none" stroke="white" stroke-width="2" points="16,-70 16,-727.2 881,-727.2 881,-70 16,-70"/>
</g>
<g id="clust3" class="cluster"><title>cluster_input_ports_group_outer</title>
<polygon fill="none" stroke="white" points="505,-743.2 505,-789.2 583,-789.2 583,-743.2 505,-743.2"/>
</g>
<g id="clust4" class="cluster"><title>cluster_input_ports_group_inner</title>
<polygon fill="none" stroke="white" points="513,-751.2 513,-781.2 575,-781.2 575,-751.2 513,-751.2"/>
</g>
<g id="clust5" class="cluster"><title>cluster_output_ports_group_outer</title>
<polygon fill="none" stroke="white" points="389,-8 389,-54 499,-54 499,-8 389,-8"/>
</g>
<g id="clust6" class="cluster"><title>cluster_output_ports_group_inner</title>
<polygon fill="none" stroke="white" points="397,-16 397,-46 491,-46 491,-16 397,-16"/>
</g>
<!-- set_up_configuration_and_start_provenance_tracking -->
<g id="node1" class="node"><title>set_up_configuration_and_start_provenance_tracking</title>
<polygon fill="#ccffcc" stroke="black" points="508.93,-647.2 73.07,-647.2 73.07,-611.2 508.93,-611.2 508.93,-647.2"/>
<text text-anchor="middle" x="291" y="-625" font-family="Courier,monospace" font-size="14.00">set_up_configuration_and_start_provenance_tracking</text>
</g>
<!-- dir_goal -->
<g id="node18" class="node"><title>dir_goal</title>
<path fill="#fcfcfc" stroke="black" d="M257.787,-575.2C257.787,-575.2 216.213,-575.2 216.213,-575.2 210.213,-575.2 204.213,-569.2 204.213,-563.2 204.213,-563.2 204.213,-551.2 204.213,-551.2 204.213,-545.2 210.213,-539.2 216.213,-539.2 216.213,-539.2 257.787,-539.2 257.787,-539.2 263.787,-539.2 269.787,-545.2 269.787,-551.2 269.787,-551.2 269.787,-563.2 269.787,-563.2 269.787,-569.2 263.787,-575.2 257.787,-575.2"/>
<text text-anchor="middle" x="237" y="-553" font-family="Helvetica,sans-Serif" font-size="14.00">dir_goal</text>
</g>
<!-- set_up_configuration_and_start_provenance_tracking&#45;&gt;dir_goal -->
<g id="edge1" class="edge"><title>set_up_configuration_and_start_provenance_tracking&#45;&gt;dir_goal</title>
<path fill="none" stroke="black" d="M277.652,-610.897C271.243,-602.589 263.442,-592.477 256.394,-583.341"/>
<polygon fill="black" stroke="black" points="259.074,-581.084 250.195,-575.304 253.532,-585.36 259.074,-581.084"/>
</g>
<!-- create_new_stats_and_trend_file -->
<g id="node2" class="node"><title>create_new_stats_and_trend_file</title>
<polygon fill="#ccffcc" stroke="black" points="320.357,-503.2 43.6432,-503.2 43.6432,-467.2 320.357,-467.2 320.357,-503.2"/>
<text text-anchor="middle" x="182" y="-481" font-family="Courier,monospace" font-size="14.00">create_new_stats_and_trend_file</text>
</g>
<!-- status_file_handle -->
<g id="node14" class="node"><title>status_file_handle</title>
<path fill="#ffffcc" stroke="black" d="M527.318,-423.9C527.318,-423.9 422.682,-423.9 422.682,-423.9 416.682,-423.9 410.682,-417.9 410.682,-411.9 410.682,-411.9 410.682,-399.9 410.682,-399.9 410.682,-393.9 416.682,-387.9 422.682,-387.9 422.682,-387.9 527.318,-387.9 527.318,-387.9 533.318,-387.9 539.318,-393.9 539.318,-399.9 539.318,-399.9 539.318,-411.9 539.318,-411.9 539.318,-417.9 533.318,-423.9 527.318,-423.9"/>
<text text-anchor="middle" x="475" y="-401.7" font-family="Helvetica,sans-Serif" font-size="14.00">status_file_handle</text>
</g>
<!-- create_new_stats_and_trend_file&#45;&gt;status_file_handle -->
<g id="edge3" class="edge"><title>create_new_stats_and_trend_file&#45;&gt;status_file_handle</title>
<path fill="none" stroke="black" d="M259.799,-467.154C302.086,-457.464 355.166,-444.61 402,-431.2 406.575,-429.89 411.29,-428.474 416.018,-427.007"/>
<polygon fill="black" stroke="black" points="417.223,-430.297 425.7,-423.942 415.109,-423.624 417.223,-430.297"/>
</g>
<!-- trend_file_handle -->
<g id="node16" class="node"><title>trend_file_handle</title>
<path fill="#ffffcc" stroke="black" d="M254.871,-423.9C254.871,-423.9 155.129,-423.9 155.129,-423.9 149.129,-423.9 143.129,-417.9 143.129,-411.9 143.129,-411.9 143.129,-399.9 143.129,-399.9 143.129,-393.9 149.129,-387.9 155.129,-387.9 155.129,-387.9 254.871,-387.9 254.871,-387.9 260.871,-387.9 266.871,-393.9 266.871,-399.9 266.871,-399.9 266.871,-411.9 266.871,-411.9 266.871,-417.9 260.871,-423.9 254.871,-423.9"/>
<text text-anchor="middle" x="205" y="-401.7" font-family="Helvetica,sans-Serif" font-size="14.00">trend_file_handle</text>
</g>
<!-- create_new_stats_and_trend_file&#45;&gt;trend_file_handle -->
<g id="edge4" class="edge"><title>create_new_stats_and_trend_file&#45;&gt;trend_file_handle</title>
<path fill="none" stroke="black" d="M187.104,-467.045C190.023,-457.237 193.746,-444.722 197.041,-433.65"/>
<polygon fill="black" stroke="black" points="200.413,-434.59 199.91,-424.007 193.703,-432.594 200.413,-434.59"/>
</g>
<!-- define_param_year_span -->
<g id="node3" class="node"><title>define_param_year_span</title>
<polygon fill="#ccffcc" stroke="black" points="539.269,-503.2 338.731,-503.2 338.731,-467.2 539.269,-467.2 539.269,-503.2"/>
<text text-anchor="middle" x="439" y="-481" font-family="Courier,monospace" font-size="14.00">define_param_year_span</text>
</g>
<!-- year_span -->
<g id="node19" class="node"><title>year_span</title>
<path fill="#fcfcfc" stroke="black" d="M380.857,-423.9C380.857,-423.9 323.143,-423.9 323.143,-423.9 317.143,-423.9 311.143,-417.9 311.143,-411.9 311.143,-411.9 311.143,-399.9 311.143,-399.9 311.143,-393.9 317.143,-387.9 323.143,-387.9 323.143,-387.9 380.857,-387.9 380.857,-387.9 386.857,-387.9 392.857,-393.9 392.857,-399.9 392.857,-399.9 392.857,-411.9 392.857,-411.9 392.857,-417.9 386.857,-423.9 380.857,-423.9"/>
<text text-anchor="middle" x="352" y="-401.7" font-family="Helvetica,sans-Serif" font-size="14.00">year_span</text>
</g>
<!-- define_param_year_span&#45;&gt;year_span -->
<g id="edge6" class="edge"><title>define_param_year_span&#45;&gt;year_span</title>
<path fill="none" stroke="black" d="M419.692,-467.045C407.752,-456.436 392.248,-442.661 379.09,-430.97"/>
<polygon fill="black" stroke="black" points="381.054,-428.033 371.254,-424.007 376.405,-433.266 381.054,-428.033"/>
</g>
<!-- output_estimate_status_file_by_region_since_1980 -->
<g id="node4" class="node"><title>output_estimate_status_file_by_region_since_1980</title>
<polygon fill="#ccffcc" stroke="black" points="871.633,-344.6 452.367,-344.6 452.367,-308.6 871.633,-308.6 871.633,-344.6"/>
<text text-anchor="middle" x="662" y="-322.4" font-family="Courier,monospace" font-size="14.00">output_estimate_status_file_by_region_since_1980</text>
</g>
<!-- status_df_data -->
<g id="node15" class="node"><title>status_df_data</title>
<path fill="#ffffcc" stroke="black" d="M703.823,-272.6C703.823,-272.6 620.177,-272.6 620.177,-272.6 614.177,-272.6 608.177,-266.6 608.177,-260.6 608.177,-260.6 608.177,-248.6 608.177,-248.6 608.177,-242.6 614.177,-236.6 620.177,-236.6 620.177,-236.6 703.823,-236.6 703.823,-236.6 709.823,-236.6 715.823,-242.6 715.823,-248.6 715.823,-248.6 715.823,-260.6 715.823,-260.6 715.823,-266.6 709.823,-272.6 703.823,-272.6"/>
<text text-anchor="middle" x="662" y="-250.4" font-family="Helvetica,sans-Serif" font-size="14.00">status_df_data</text>
</g>
<!-- output_estimate_status_file_by_region_since_1980&#45;&gt;status_df_data -->
<g id="edge7" class="edge"><title>output_estimate_status_file_by_region_since_1980&#45;&gt;status_df_data</title>
<path fill="none" stroke="black" d="M662,-308.297C662,-300.583 662,-291.312 662,-282.712"/>
<polygon fill="black" stroke="black" points="665.5,-282.704 662,-272.704 658.5,-282.704 665.5,-282.704"/>
</g>
<!-- write_status_to_csv_file -->
<g id="node5" class="node"><title>write_status_to_csv_file</title>
<polygon fill="#ccffcc" stroke="black" points="872.567,-200.6 655.433,-200.6 655.433,-164.6 872.567,-164.6 872.567,-200.6"/>
<text text-anchor="middle" x="764" y="-178.4" font-family="Courier,monospace" font-size="14.00">write_status_to_csv_file</text>
</g>
<!-- lsp_status_file -->
<g id="node9" class="node"><title>lsp_status_file</title>
<path fill="#ffffcc" stroke="black" d="M621.243,-78.5C621.243,-78.5 828.757,-78.5 828.757,-78.5 834.757,-78.5 840.757,-84.5 840.757,-90.5 840.757,-90.5 840.757,-116.1 840.757,-116.1 840.757,-122.1 834.757,-128.1 828.757,-128.1 828.757,-128.1 621.243,-128.1 621.243,-128.1 615.243,-128.1 609.243,-122.1 609.243,-116.1 609.243,-116.1 609.243,-90.5 609.243,-90.5 609.243,-84.5 615.243,-78.5 621.243,-78.5"/>
<text text-anchor="middle" x="725" y="-111.5" font-family="Helvetica,sans-Serif" font-size="14.00">lsp_status_file</text>
<polyline fill="none" stroke="black" points="609.243,-103.3 840.757,-103.3 "/>
<text text-anchor="middle" x="725" y="-86.7" font-family="Helvetica,sans-Serif" font-size="14.00">file:{dir_goal}/output/lsp_status.csv</text>
</g>
<!-- write_status_to_csv_file&#45;&gt;lsp_status_file -->
<g id="edge12" class="edge"><title>write_status_to_csv_file&#45;&gt;lsp_status_file</title>
<path fill="none" stroke="black" d="M755.345,-164.445C751.305,-156.438 746.356,-146.628 741.635,-137.271"/>
<polygon fill="black" stroke="black" points="744.662,-135.501 737.033,-128.15 738.413,-138.654 744.662,-135.501"/>
</g>
<!-- output_estimate_trend_file_by_region_since_1980 -->
<g id="node6" class="node"><title>output_estimate_trend_file_by_region_since_1980</title>
<polygon fill="#ccffcc" stroke="black" points="434.234,-344.6 23.7657,-344.6 23.7657,-308.6 434.234,-308.6 434.234,-344.6"/>
<text text-anchor="middle" x="229" y="-322.4" font-family="Courier,monospace" font-size="14.00">output_estimate_trend_file_by_region_since_1980</text>
</g>
<!-- trend_df_data -->
<g id="node17" class="node"><title>trend_df_data</title>
<path fill="#ffffcc" stroke="black" d="M268.376,-272.6C268.376,-272.6 189.624,-272.6 189.624,-272.6 183.624,-272.6 177.624,-266.6 177.624,-260.6 177.624,-260.6 177.624,-248.6 177.624,-248.6 177.624,-242.6 183.624,-236.6 189.624,-236.6 189.624,-236.6 268.376,-236.6 268.376,-236.6 274.376,-236.6 280.376,-242.6 280.376,-248.6 280.376,-248.6 280.376,-260.6 280.376,-260.6 280.376,-266.6 274.376,-272.6 268.376,-272.6"/>
<text text-anchor="middle" x="229" y="-250.4" font-family="Helvetica,sans-Serif" font-size="14.00">trend_df_data</text>
</g>
<!-- output_estimate_trend_file_by_region_since_1980&#45;&gt;trend_df_data -->
<g id="edge14" class="edge"><title>output_estimate_trend_file_by_region_since_1980&#45;&gt;trend_df_data</title>
<path fill="none" stroke="black" d="M229,-308.297C229,-300.583 229,-291.312 229,-282.712"/>
<polygon fill="black" stroke="black" points="232.5,-282.704 229,-272.704 225.5,-282.704 232.5,-282.704"/>
</g>
<!-- write_trend_to_csv_file -->
<g id="node7" class="node"><title>write_trend_to_csv_file</title>
<polygon fill="#ccffcc" stroke="black" points="233.668,-200.6 24.3321,-200.6 24.3321,-164.6 233.668,-164.6 233.668,-200.6"/>
<text text-anchor="middle" x="129" y="-178.4" font-family="Courier,monospace" font-size="14.00">write_trend_to_csv_file</text>
</g>
<!-- lsp_trend_file -->
<g id="node10" class="node"><title>lsp_trend_file</title>
<path fill="#ffffcc" stroke="black" d="M65.9664,-78.5C65.9664,-78.5 268.034,-78.5 268.034,-78.5 274.034,-78.5 280.034,-84.5 280.034,-90.5 280.034,-90.5 280.034,-116.1 280.034,-116.1 280.034,-122.1 274.034,-128.1 268.034,-128.1 268.034,-128.1 65.9664,-128.1 65.9664,-128.1 59.9664,-128.1 53.9664,-122.1 53.9664,-116.1 53.9664,-116.1 53.9664,-90.5 53.9664,-90.5 53.9664,-84.5 59.9664,-78.5 65.9664,-78.5"/>
<text text-anchor="middle" x="167" y="-111.5" font-family="Helvetica,sans-Serif" font-size="14.00">lsp_trend_file</text>
<polyline fill="none" stroke="black" points="53.9664,-103.3 280.034,-103.3 "/>
<text text-anchor="middle" x="167" y="-86.7" font-family="Helvetica,sans-Serif" font-size="14.00">file:{dir_goal}/output/lsp_trend.csv</text>
</g>
<!-- write_trend_to_csv_file&#45;&gt;lsp_trend_file -->
<g id="edge19" class="edge"><title>write_trend_to_csv_file&#45;&gt;lsp_trend_file</title>
<path fill="none" stroke="black" d="M137.433,-164.445C141.369,-156.438 146.192,-146.628 150.792,-137.271"/>
<polygon fill="black" stroke="black" points="154.005,-138.668 155.276,-128.15 147.723,-135.58 154.005,-138.668"/>
</g>
<!-- save_year_by_year_status_and_trend_estimates -->
<g id="node8" class="node"><title>save_year_by_year_status_and_trend_estimates</title>
<polygon fill="#ccffcc" stroke="black" points="636.539,-200.6 251.461,-200.6 251.461,-164.6 636.539,-164.6 636.539,-200.6"/>
<text text-anchor="middle" x="444" y="-178.4" font-family="Courier,monospace" font-size="14.00">save_year_by_year_status_and_trend_estimates</text>
</g>
<!-- lsp_status_trend_summary_db_file -->
<g id="node11" class="node"><title>lsp_status_trend_summary_db_file</title>
<path fill="#ffffcc" stroke="black" d="M548.546,-121.3C548.546,-121.3 339.454,-121.3 339.454,-121.3 333.454,-121.3 327.454,-115.3 327.454,-109.3 327.454,-109.3 327.454,-97.3 327.454,-97.3 327.454,-91.3 333.454,-85.3 339.454,-85.3 339.454,-85.3 548.546,-85.3 548.546,-85.3 554.546,-85.3 560.546,-91.3 560.546,-97.3 560.546,-97.3 560.546,-109.3 560.546,-109.3 560.546,-115.3 554.546,-121.3 548.546,-121.3"/>
<text text-anchor="middle" x="444" y="-99.1" font-family="Helvetica,sans-Serif" font-size="14.00">lsp_status_trend_summary_db_file</text>
</g>
<!-- save_year_by_year_status_and_trend_estimates&#45;&gt;lsp_status_trend_summary_db_file -->
<g id="edge21" class="edge"><title>save_year_by_year_status_and_trend_estimates&#45;&gt;lsp_status_trend_summary_db_file</title>
<path fill="none" stroke="black" d="M444,-164.445C444,-154.837 444,-142.632 444,-131.73"/>
<polygon fill="black" stroke="black" points="447.5,-131.407 444,-121.407 440.5,-131.407 447.5,-131.407"/>
</g>
<!-- lsp_status_file_output_port -->
<g id="node22" class="node"><title>lsp_status_file_output_port</title>
<ellipse fill="#ffffff" stroke="black" cx="476" cy="-31" rx="7" ry="7"/>
</g>
<!-- lsp_status_file&#45;&gt;lsp_status_file_output_port -->
<g id="edge26" class="edge"><title>lsp_status_file&#45;&gt;lsp_status_file_output_port</title>
<path fill="none" stroke="black" d="M640.7,-78.4996C587.142,-63.3786 522.465,-45.1184 492.598,-36.6862"/>
<polygon fill="black" stroke="black" points="493.227,-33.2269 482.652,-33.8781 491.325,-39.9636 493.227,-33.2269"/>
</g>
<!-- lsp_trend_file_output_port -->
<g id="node23" class="node"><title>lsp_trend_file_output_port</title>
<ellipse fill="#ffffff" stroke="black" cx="412" cy="-31" rx="7" ry="7"/>
</g>
<!-- lsp_trend_file&#45;&gt;lsp_trend_file_output_port -->
<g id="edge27" class="edge"><title>lsp_trend_file&#45;&gt;lsp_trend_file_output_port</title>
<path fill="none" stroke="black" d="M249.946,-78.4996C302.644,-63.3786 366.281,-45.1184 395.668,-36.6862"/>
<polygon fill="black" stroke="black" points="396.808,-40.0005 405.455,-33.8781 394.877,-33.272 396.808,-40.0005"/>
</g>
<!-- lsp_status_trend_summary_db_file_output_port -->
<g id="node24" class="node"><title>lsp_status_trend_summary_db_file_output_port</title>
<ellipse fill="#ffffff" stroke="black" cx="444" cy="-31" rx="7" ry="7"/>
</g>
<!-- lsp_status_trend_summary_db_file&#45;&gt;lsp_status_trend_summary_db_file_output_port -->
<g id="edge28" class="edge"><title>lsp_status_trend_summary_db_file&#45;&gt;lsp_status_trend_summary_db_file_output_port</title>
<path fill="none" stroke="black" d="M444,-85.2823C444,-74.0618 444,-59.4466 444,-48.3618"/>
<polygon fill="black" stroke="black" points="447.5,-48.0469 444,-38.047 440.5,-48.047 447.5,-48.0469"/>
</g>
<!-- setup_R -->
<g id="node12" class="node"><title>setup_R</title>
<path fill="#ffffcc" stroke="black" d="M454.128,-719.2C454.128,-719.2 409.872,-719.2 409.872,-719.2 403.872,-719.2 397.872,-713.2 397.872,-707.2 397.872,-707.2 397.872,-695.2 397.872,-695.2 397.872,-689.2 403.872,-683.2 409.872,-683.2 409.872,-683.2 454.128,-683.2 454.128,-683.2 460.128,-683.2 466.128,-689.2 466.128,-695.2 466.128,-695.2 466.128,-707.2 466.128,-707.2 466.128,-713.2 460.128,-719.2 454.128,-719.2"/>
<text text-anchor="middle" x="432" y="-697" font-family="Helvetica,sans-Serif" font-size="14.00">setup_R</text>
</g>
<!-- setup_R&#45;&gt;set_up_configuration_and_start_provenance_tracking -->
<g id="edge2" class="edge"><title>setup_R&#45;&gt;set_up_configuration_and_start_provenance_tracking</title>
<path fill="none" stroke="black" d="M397.868,-683.255C378.785,-673.781 354.806,-661.877 334.4,-651.746"/>
<polygon fill="black" stroke="black" points="335.82,-648.543 325.307,-647.232 332.707,-654.813 335.82,-648.543"/>
</g>
<!-- area_protected_total_file -->
<g id="node13" class="node"><title>area_protected_total_file</title>
<path fill="#ffffcc" stroke="black" d="M588.561,-381.1C588.561,-381.1 861.439,-381.1 861.439,-381.1 867.439,-381.1 873.439,-387.1 873.439,-393.1 873.439,-393.1 873.439,-418.7 873.439,-418.7 873.439,-424.7 867.439,-430.7 861.439,-430.7 861.439,-430.7 588.561,-430.7 588.561,-430.7 582.561,-430.7 576.561,-424.7 576.561,-418.7 576.561,-418.7 576.561,-393.1 576.561,-393.1 576.561,-387.1 582.561,-381.1 588.561,-381.1"/>
<text text-anchor="middle" x="725" y="-414.1" font-family="Helvetica,sans-Serif" font-size="14.00">area_protected_total_file</text>
<polyline fill="none" stroke="black" points="576.561,-405.9 873.439,-405.9 "/>
<text text-anchor="middle" x="725" y="-389.3" font-family="Helvetica,sans-Serif" font-size="14.00">file:{dir_goal}/output/area_protected_total.csv</text>
</g>
<!-- area_protected_total_file&#45;&gt;output_estimate_status_file_by_region_since_1980 -->
<g id="edge10" class="edge"><title>area_protected_total_file&#45;&gt;output_estimate_status_file_by_region_since_1980</title>
<path fill="none" stroke="black" d="M705.412,-380.866C698.111,-371.907 689.809,-361.721 682.434,-352.672"/>
<polygon fill="black" stroke="black" points="685.008,-350.29 675.977,-344.749 679.581,-354.712 685.008,-350.29"/>
</g>
<!-- area_protected_total_file&#45;&gt;output_estimate_trend_file_by_region_since_1980 -->
<g id="edge17" class="edge"><title>area_protected_total_file&#45;&gt;output_estimate_trend_file_by_region_since_1980</title>
<path fill="none" stroke="black" d="M576.52,-381.76C503.617,-370.398 416.958,-356.893 348.415,-346.21"/>
<polygon fill="black" stroke="black" points="348.857,-342.737 338.437,-344.655 347.779,-349.654 348.857,-342.737"/>
</g>
<!-- status_file_handle&#45;&gt;output_estimate_status_file_by_region_since_1980 -->
<g id="edge11" class="edge"><title>status_file_handle&#45;&gt;output_estimate_status_file_by_region_since_1980</title>
<path fill="none" stroke="black" d="M516.501,-387.745C544.464,-376.186 581.525,-360.866 611.244,-348.581"/>
<polygon fill="black" stroke="black" points="612.71,-351.762 620.615,-344.707 610.036,-345.293 612.71,-351.762"/>
</g>
<!-- status_df_data&#45;&gt;write_status_to_csv_file -->
<g id="edge13" class="edge"><title>status_df_data&#45;&gt;write_status_to_csv_file</title>
<path fill="none" stroke="black" d="M686.952,-236.476C700.042,-227.493 716.26,-216.363 730.436,-206.634"/>
<polygon fill="black" stroke="black" points="732.687,-209.334 738.952,-200.79 728.726,-203.562 732.687,-209.334"/>
</g>
<!-- status_df_data&#45;&gt;save_year_by_year_status_and_trend_estimates -->
<g id="edge22" class="edge"><title>status_df_data&#45;&gt;save_year_by_year_status_and_trend_estimates</title>
<path fill="none" stroke="black" d="M608.95,-236.566C578.226,-226.7 539.364,-214.222 507.08,-203.855"/>
<polygon fill="black" stroke="black" points="507.879,-200.436 497.288,-200.711 505.739,-207.101 507.879,-200.436"/>
</g>
<!-- trend_file_handle&#45;&gt;output_estimate_trend_file_by_region_since_1980 -->
<g id="edge18" class="edge"><title>trend_file_handle&#45;&gt;output_estimate_trend_file_by_region_since_1980</title>
<path fill="none" stroke="black" d="M210.326,-387.745C213.371,-377.937 217.257,-365.422 220.695,-354.35"/>
<polygon fill="black" stroke="black" points="224.066,-355.296 223.689,-344.707 217.381,-353.22 224.066,-355.296"/>
</g>
<!-- trend_df_data&#45;&gt;write_trend_to_csv_file -->
<g id="edge20" class="edge"><title>trend_df_data&#45;&gt;write_trend_to_csv_file</title>
<path fill="none" stroke="black" d="M204.537,-236.476C191.704,-227.493 175.804,-216.363 161.906,-206.634"/>
<polygon fill="black" stroke="black" points="163.756,-203.657 153.557,-200.79 159.742,-209.392 163.756,-203.657"/>
</g>
<!-- trend_df_data&#45;&gt;save_year_by_year_status_and_trend_estimates -->
<g id="edge23" class="edge"><title>trend_df_data&#45;&gt;save_year_by_year_status_and_trend_estimates</title>
<path fill="none" stroke="black" d="M280.225,-236.922C310.728,-226.991 349.651,-214.318 381.898,-203.819"/>
<polygon fill="black" stroke="black" points="383.249,-207.06 391.674,-200.636 381.082,-200.404 383.249,-207.06"/>
</g>
<!-- dir_goal&#45;&gt;create_new_stats_and_trend_file -->
<g id="edge5" class="edge"><title>dir_goal&#45;&gt;create_new_stats_and_trend_file</title>
<path fill="none" stroke="black" d="M223.404,-538.897C216.877,-530.589 208.932,-520.477 201.753,-511.341"/>
<polygon fill="black" stroke="black" points="204.369,-509.005 195.439,-503.304 198.865,-513.33 204.369,-509.005"/>
</g>
<!-- dir_goal&#45;&gt;output_estimate_status_file_by_region_since_1980 -->
<g id="edge9" class="edge"><title>dir_goal&#45;&gt;output_estimate_status_file_by_region_since_1980</title>
<path fill="none" stroke="black" d="M269.864,-555.27C341.717,-552.526 509.456,-542.018 548,-503.2 586.9,-464.023 536.393,-425.866 568,-380.6 577.062,-367.621 590.382,-357.437 604.162,-349.615"/>
<polygon fill="black" stroke="black" points="606.041,-352.581 613.244,-344.811 602.768,-346.393 606.041,-352.581"/>
</g>
<!-- dir_goal&#45;&gt;output_estimate_trend_file_by_region_since_1980 -->
<g id="edge15" class="edge"><title>dir_goal&#45;&gt;output_estimate_trend_file_by_region_since_1980</title>
<path fill="none" stroke="black" d="M204.152,-552.413C152.375,-545.693 55.5407,-529.825 35,-503.2 -14.4619,-439.086 99.0063,-379.123 172.495,-348.613"/>
<polygon fill="black" stroke="black" points="174.194,-351.7 182.133,-344.684 171.552,-345.218 174.194,-351.7"/>
</g>
<!-- year_span&#45;&gt;output_estimate_status_file_by_region_since_1980 -->
<g id="edge8" class="edge"><title>year_span&#45;&gt;output_estimate_status_file_by_region_since_1980</title>
<path fill="none" stroke="black" d="M384.044,-387.867C389.911,-385.171 396.058,-382.613 402,-380.6 445.108,-365.991 493.67,-354.764 537.055,-346.485"/>
<polygon fill="black" stroke="black" points="537.91,-349.886 547.094,-344.603 536.62,-343.005 537.91,-349.886"/>
</g>
<!-- year_span&#45;&gt;output_estimate_trend_file_by_region_since_1980 -->
<g id="edge16" class="edge"><title>year_span&#45;&gt;output_estimate_trend_file_by_region_since_1980</title>
<path fill="none" stroke="black" d="M324.702,-387.745C307.026,-376.636 283.823,-362.054 264.691,-350.03"/>
<polygon fill="black" stroke="black" points="266.551,-347.065 256.221,-344.707 262.826,-352.992 266.551,-347.065"/>
</g>
<!-- setup_R_input_port -->
<g id="node20" class="node"><title>setup_R_input_port</title>
<ellipse fill="#ffffff" stroke="black" cx="528" cy="-766.2" rx="7" ry="7"/>
</g>
<!-- setup_R_input_port&#45;&gt;setup_R -->
<g id="edge24" class="edge"><title>setup_R_input_port&#45;&gt;setup_R</title>
<path fill="none" stroke="black" d="M522.564,-761.632C511.943,-754.663 487.664,-738.729 466.916,-725.113"/>
<polygon fill="black" stroke="black" points="468.571,-722.013 458.29,-719.453 464.73,-727.866 468.571,-722.013"/>
</g>
<!-- area_protected_total_file_input_port -->
<g id="node21" class="node"><title>area_protected_total_file_input_port</title>
<ellipse fill="#ffffff" stroke="black" cx="560" cy="-766.2" rx="7" ry="7"/>
</g>
<!-- area_protected_total_file_input_port&#45;&gt;area_protected_total_file -->
<g id="edge25" class="edge"><title>area_protected_total_file_input_port&#45;&gt;area_protected_total_file</title>
<path fill="none" stroke="black" d="M565.436,-761.502C585.745,-747.203 656,-693.183 656,-630.2 656,-630.2 656,-630.2 656,-556.2 656,-512.855 680.26,-468.42 700.01,-439.428"/>
<polygon fill="black" stroke="black" points="703.084,-441.14 705.963,-430.944 697.354,-437.12 703.084,-441.14"/>
</g>
</g>
</svg>
