<?xml version="1.0" encoding="UTF-8" standalone="no"?>
<!DOCTYPE svg PUBLIC "-//W3C//DTD SVG 1.1//EN"
 "http://www.w3.org/Graphics/SVG/1.1/DTD/svg11.dtd">
<!-- Generated by graphviz version 2.38.0 (20140413.2041)
 -->
<!-- Title: Workflow Pages: 1 -->
<svg width="1832pt" height="547pt"
 viewBox="0.00 0.00 1832.00 546.80" xmlns="http://www.w3.org/2000/svg" xmlns:xlink="http://www.w3.org/1999/xlink">
<g id="graph0" class="graph" transform="scale(1 1) rotate(0) translate(4 542.8)">
<title>Workflow</title>
<polygon fill="white" stroke="none" points="-4,4 -4,-542.8 1828,-542.8 1828,4 -4,4"/>
<text text-anchor="middle" x="912" y="-518.6" font-family="Courier,monospace" font-size="18.00">lsp_zonal_stats</text>
<g id="clust1" class="cluster"><title>cluster_workflow_box_outer</title>
<polygon fill="none" stroke="black" stroke-width="2" points="8,-62 8,-447.2 1816,-447.2 1816,-62 8,-62"/>
</g>
<g id="clust2" class="cluster"><title>cluster_workflow_box_inner</title>
<polygon fill="none" stroke="white" stroke-width="2" points="16,-70 16,-439.2 1808,-439.2 1808,-70 16,-70"/>
</g>
<g id="clust3" class="cluster"><title>cluster_input_ports_group_outer</title>
<polygon fill="none" stroke="white" points="886,-455.2 886,-501.2 1092,-501.2 1092,-455.2 886,-455.2"/>
</g>
<g id="clust4" class="cluster"><title>cluster_input_ports_group_inner</title>
<polygon fill="none" stroke="white" points="894,-463.2 894,-493.2 1084,-493.2 1084,-463.2 894,-463.2"/>
</g>
<g id="clust5" class="cluster"><title>cluster_output_ports_group_outer</title>
<polygon fill="none" stroke="white" points="942,-8 942,-54 1052,-54 1052,-8 942,-8"/>
</g>
<g id="clust6" class="cluster"><title>cluster_output_ports_group_inner</title>
<polygon fill="none" stroke="white" points="950,-16 950,-46 1044,-46 1044,-16 950,-16"/>
</g>
<!-- set_up_configuration_and_start_provenance_tracking -->
<g id="node1" class="node"><title>set_up_configuration_and_start_provenance_tracking</title>
<polygon fill="#ccffcc" stroke="black" points="1693.93,-344.6 1258.07,-344.6 1258.07,-308.6 1693.93,-308.6 1693.93,-344.6"/>
<text text-anchor="middle" x="1476" y="-322.4" font-family="Courier,monospace" font-size="14.00">set_up_configuration_and_start_provenance_tracking</text>
</g>
<!-- dir_goal -->
<g id="node18" class="node"><title>dir_goal</title>
<path fill="#fcfcfc" stroke="black" d="M1386.79,-272.6C1386.79,-272.6 1345.21,-272.6 1345.21,-272.6 1339.21,-272.6 1333.21,-266.6 1333.21,-260.6 1333.21,-260.6 1333.21,-248.6 1333.21,-248.6 1333.21,-242.6 1339.21,-236.6 1345.21,-236.6 1345.21,-236.6 1386.79,-236.6 1386.79,-236.6 1392.79,-236.6 1398.79,-242.6 1398.79,-248.6 1398.79,-248.6 1398.79,-260.6 1398.79,-260.6 1398.79,-266.6 1392.79,-272.6 1386.79,-272.6"/>
<text text-anchor="middle" x="1366" y="-250.4" font-family="Helvetica,sans-Serif" font-size="14.00">dir_goal</text>
</g>
<!-- set_up_configuration_and_start_provenance_tracking&#45;&gt;dir_goal -->
<g id="edge1" class="edge"><title>set_up_configuration_and_start_provenance_tracking&#45;&gt;dir_goal</title>
<path fill="none" stroke="black" d="M1449.09,-308.476C1434.84,-299.408 1417.15,-288.152 1401.76,-278.359"/>
<polygon fill="black" stroke="black" points="1403.33,-275.206 1393.01,-272.79 1399.57,-281.111 1403.33,-275.206"/>
</g>
<!-- read_in_OHI_region_rasters -->
<g id="node2" class="node"><title>read_in_OHI_region_rasters</title>
<polygon fill="#ccffcc" stroke="black" points="1029.36,-344.6 794.636,-344.6 794.636,-308.6 1029.36,-308.6 1029.36,-344.6"/>
<text text-anchor="middle" x="912" y="-322.4" font-family="Courier,monospace" font-size="14.00">read_in_OHI_region_rasters</text>
</g>
<!-- rast_3nm -->
<g id="node13" class="node"><title>rast_3nm</title>
<path fill="#ffffcc" stroke="black" d="M801.343,-272.6C801.343,-272.6 750.657,-272.6 750.657,-272.6 744.657,-272.6 738.657,-266.6 738.657,-260.6 738.657,-260.6 738.657,-248.6 738.657,-248.6 738.657,-242.6 744.657,-236.6 750.657,-236.6 750.657,-236.6 801.343,-236.6 801.343,-236.6 807.343,-236.6 813.343,-242.6 813.343,-248.6 813.343,-248.6 813.343,-260.6 813.343,-260.6 813.343,-266.6 807.343,-272.6 801.343,-272.6"/>
<text text-anchor="middle" x="776" y="-250.4" font-family="Helvetica,sans-Serif" font-size="14.00">rast_3nm</text>
</g>
<!-- read_in_OHI_region_rasters&#45;&gt;rast_3nm -->
<g id="edge3" class="edge"><title>read_in_OHI_region_rasters&#45;&gt;rast_3nm</title>
<path fill="none" stroke="black" d="M878.731,-308.476C860.537,-299.112 837.809,-287.414 818.36,-277.403"/>
<polygon fill="black" stroke="black" points="819.89,-274.254 809.397,-272.79 816.687,-280.478 819.89,-274.254"/>
</g>
<!-- rast_1km -->
<g id="node14" class="node"><title>rast_1km</title>
<path fill="#ffffcc" stroke="black" d="M892.561,-272.6C892.561,-272.6 843.439,-272.6 843.439,-272.6 837.439,-272.6 831.439,-266.6 831.439,-260.6 831.439,-260.6 831.439,-248.6 831.439,-248.6 831.439,-242.6 837.439,-236.6 843.439,-236.6 843.439,-236.6 892.561,-236.6 892.561,-236.6 898.561,-236.6 904.561,-242.6 904.561,-248.6 904.561,-248.6 904.561,-260.6 904.561,-260.6 904.561,-266.6 898.561,-272.6 892.561,-272.6"/>
<text text-anchor="middle" x="868" y="-250.4" font-family="Helvetica,sans-Serif" font-size="14.00">rast_1km</text>
</g>
<!-- read_in_OHI_region_rasters&#45;&gt;rast_1km -->
<g id="edge4" class="edge"><title>read_in_OHI_region_rasters&#45;&gt;rast_1km</title>
<path fill="none" stroke="black" d="M901.124,-308.297C896.008,-300.159 889.805,-290.289 884.155,-281.301"/>
<polygon fill="black" stroke="black" points="887.036,-279.308 878.751,-272.704 881.11,-283.033 887.036,-279.308"/>
</g>
<!-- rast_ws -->
<g id="node15" class="node"><title>rast_ws</title>
<path fill="#ffffcc" stroke="black" d="M975.223,-272.6C975.223,-272.6 934.777,-272.6 934.777,-272.6 928.777,-272.6 922.777,-266.6 922.777,-260.6 922.777,-260.6 922.777,-248.6 922.777,-248.6 922.777,-242.6 928.777,-236.6 934.777,-236.6 934.777,-236.6 975.223,-236.6 975.223,-236.6 981.223,-236.6 987.223,-242.6 987.223,-248.6 987.223,-248.6 987.223,-260.6 987.223,-260.6 987.223,-266.6 981.223,-272.6 975.223,-272.6"/>
<text text-anchor="middle" x="955" y="-250.4" font-family="Helvetica,sans-Serif" font-size="14.00">rast_ws</text>
</g>
<!-- read_in_OHI_region_rasters&#45;&gt;rast_ws -->
<g id="edge5" class="edge"><title>read_in_OHI_region_rasters&#45;&gt;rast_ws</title>
<path fill="none" stroke="black" d="M922.629,-308.297C927.628,-300.159 933.691,-290.289 939.212,-281.301"/>
<polygon fill="black" stroke="black" points="942.241,-283.057 944.493,-272.704 936.277,-279.393 942.241,-283.057"/>
</g>
<!-- rast_pep -->
<g id="node16" class="node"><title>rast_pep</title>
<path fill="#ffffcc" stroke="black" d="M1063.47,-272.6C1063.47,-272.6 1016.53,-272.6 1016.53,-272.6 1010.53,-272.6 1004.53,-266.6 1004.53,-260.6 1004.53,-260.6 1004.53,-248.6 1004.53,-248.6 1004.53,-242.6 1010.53,-236.6 1016.53,-236.6 1016.53,-236.6 1063.47,-236.6 1063.47,-236.6 1069.47,-236.6 1075.47,-242.6 1075.47,-248.6 1075.47,-248.6 1075.47,-260.6 1075.47,-260.6 1075.47,-266.6 1069.47,-272.6 1063.47,-272.6"/>
<text text-anchor="middle" x="1040" y="-250.4" font-family="Helvetica,sans-Serif" font-size="14.00">rast_pep</text>
</g>
<!-- read_in_OHI_region_rasters&#45;&gt;rast_pep -->
<g id="edge6" class="edge"><title>read_in_OHI_region_rasters&#45;&gt;rast_pep</title>
<path fill="none" stroke="black" d="M943.312,-308.476C960.203,-299.239 981.247,-287.731 999.385,-277.812"/>
<polygon fill="black" stroke="black" points="1001.47,-280.659 1008.57,-272.79 998.114,-274.517 1001.47,-280.659"/>
</g>
<!-- rast_wdpa_pep -->
<g id="node17" class="node"><title>rast_wdpa_pep</title>
<path fill="#ffffcc" stroke="black" d="M1192.7,-272.6C1192.7,-272.6 1105.3,-272.6 1105.3,-272.6 1099.3,-272.6 1093.3,-266.6 1093.3,-260.6 1093.3,-260.6 1093.3,-248.6 1093.3,-248.6 1093.3,-242.6 1099.3,-236.6 1105.3,-236.6 1105.3,-236.6 1192.7,-236.6 1192.7,-236.6 1198.7,-236.6 1204.7,-242.6 1204.7,-248.6 1204.7,-248.6 1204.7,-260.6 1204.7,-260.6 1204.7,-266.6 1198.7,-272.6 1192.7,-272.6"/>
<text text-anchor="middle" x="1149" y="-250.4" font-family="Helvetica,sans-Serif" font-size="14.00">rast_wdpa_pep</text>
</g>
<!-- read_in_OHI_region_rasters&#45;&gt;rast_wdpa_pep -->
<g id="edge7" class="edge"><title>read_in_OHI_region_rasters&#45;&gt;rast_wdpa_pep</title>
<path fill="none" stroke="black" d="M969.674,-308.566C1003.99,-298.43 1047.64,-285.537 1083.29,-275.009"/>
<polygon fill="black" stroke="black" points="1084.52,-278.296 1093.11,-272.106 1082.53,-271.582 1084.52,-278.296"/>
</g>
<!-- outputs_zonal_stats_dataframes_for_protected_cells -->
<g id="node3" class="node"><title>outputs_zonal_stats_dataframes_for_protected_cells</title>
<polygon fill="#ccffcc" stroke="black" points="1214.93,-200.6 779.07,-200.6 779.07,-164.6 1214.93,-164.6 1214.93,-200.6"/>
<text text-anchor="middle" x="997" y="-178.4" font-family="Courier,monospace" font-size="14.00">outputs_zonal_stats_dataframes_for_protected_cells</text>
</g>
<!-- zonal_3nm_file -->
<g id="node4" class="node"><title>zonal_3nm_file</title>
<path fill="#ffffcc" stroke="black" d="M615.913,-78.5C615.913,-78.5 842.087,-78.5 842.087,-78.5 848.087,-78.5 854.087,-84.5 854.087,-90.5 854.087,-90.5 854.087,-116.1 854.087,-116.1 854.087,-122.1 848.087,-128.1 842.087,-128.1 842.087,-128.1 615.913,-128.1 615.913,-128.1 609.913,-128.1 603.913,-122.1 603.913,-116.1 603.913,-116.1 603.913,-90.5 603.913,-90.5 603.913,-84.5 609.913,-78.5 615.913,-78.5"/>
<text text-anchor="middle" x="729" y="-111.5" font-family="Helvetica,sans-Serif" font-size="14.00">zonal_3nm_file</text>
<polyline fill="none" stroke="black" points="603.913,-103.3 854.087,-103.3 "/>
<text text-anchor="middle" x="729" y="-86.7" font-family="Helvetica,sans-Serif" font-size="14.00">file:{dir_goal}/int/zonal_stats_3nm.csv</text>
</g>
<!-- outputs_zonal_stats_dataframes_for_protected_cells&#45;&gt;zonal_3nm_file -->
<g id="edge13" class="edge"><title>outputs_zonal_stats_dataframes_for_protected_cells&#45;&gt;zonal_3nm_file</title>
<path fill="none" stroke="black" d="M937.854,-164.54C903.678,-154.683 859.938,-142.067 821.324,-130.929"/>
<polygon fill="black" stroke="black" points="822.205,-127.541 811.627,-128.132 820.265,-134.267 822.205,-127.541"/>
</g>
<!-- zonal_1km_file -->
<g id="node5" class="node"><title>zonal_1km_file</title>
<path fill="#ffffcc" stroke="black" d="M884.304,-78.5C884.304,-78.5 1109.7,-78.5 1109.7,-78.5 1115.7,-78.5 1121.7,-84.5 1121.7,-90.5 1121.7,-90.5 1121.7,-116.1 1121.7,-116.1 1121.7,-122.1 1115.7,-128.1 1109.7,-128.1 1109.7,-128.1 884.304,-128.1 884.304,-128.1 878.304,-128.1 872.304,-122.1 872.304,-116.1 872.304,-116.1 872.304,-90.5 872.304,-90.5 872.304,-84.5 878.304,-78.5 884.304,-78.5"/>
<text text-anchor="middle" x="997" y="-111.5" font-family="Helvetica,sans-Serif" font-size="14.00">zonal_1km_file</text>
<polyline fill="none" stroke="black" points="872.304,-103.3 1121.7,-103.3 "/>
<text text-anchor="middle" x="997" y="-86.7" font-family="Helvetica,sans-Serif" font-size="14.00">file:{dir_goal}/int/zonal_stats_1km.csv</text>
</g>
<!-- outputs_zonal_stats_dataframes_for_protected_cells&#45;&gt;zonal_1km_file -->
<g id="edge14" class="edge"><title>outputs_zonal_stats_dataframes_for_protected_cells&#45;&gt;zonal_1km_file</title>
<path fill="none" stroke="black" d="M997,-164.445C997,-156.689 997,-147.239 997,-138.15"/>
<polygon fill="black" stroke="black" points="1000.5,-138.15 997,-128.15 993.5,-138.15 1000.5,-138.15"/>
</g>
<!-- zonal_ws_file -->
<g id="node6" class="node"><title>zonal_ws_file</title>
<path fill="#ffffcc" stroke="black" d="M1151.97,-78.5C1151.97,-78.5 1368.03,-78.5 1368.03,-78.5 1374.03,-78.5 1380.03,-84.5 1380.03,-90.5 1380.03,-90.5 1380.03,-116.1 1380.03,-116.1 1380.03,-122.1 1374.03,-128.1 1368.03,-128.1 1368.03,-128.1 1151.97,-128.1 1151.97,-128.1 1145.97,-128.1 1139.97,-122.1 1139.97,-116.1 1139.97,-116.1 1139.97,-90.5 1139.97,-90.5 1139.97,-84.5 1145.97,-78.5 1151.97,-78.5"/>
<text text-anchor="middle" x="1260" y="-111.5" font-family="Helvetica,sans-Serif" font-size="14.00">zonal_ws_file</text>
<polyline fill="none" stroke="black" points="1139.97,-103.3 1380.03,-103.3 "/>
<text text-anchor="middle" x="1260" y="-86.7" font-family="Helvetica,sans-Serif" font-size="14.00">file:{dir_goal}/int/zonal_stats_ws.csv</text>
</g>
<!-- outputs_zonal_stats_dataframes_for_protected_cells&#45;&gt;zonal_ws_file -->
<g id="edge15" class="edge"><title>outputs_zonal_stats_dataframes_for_protected_cells&#45;&gt;zonal_ws_file</title>
<path fill="none" stroke="black" d="M1055.04,-164.54C1088.37,-154.745 1130.96,-142.226 1168.68,-131.14"/>
<polygon fill="black" stroke="black" points="1170.06,-134.384 1178.66,-128.206 1168.08,-127.668 1170.06,-134.384"/>
</g>
<!-- zonal_3nm_file_output_port -->
<g id="node25" class="node"><title>zonal_3nm_file_output_port</title>
<ellipse fill="#ffffff" stroke="black" cx="965" cy="-31" rx="7" ry="7"/>
</g>
<!-- zonal_3nm_file&#45;&gt;zonal_3nm_file_output_port -->
<g id="edge28" class="edge"><title>zonal_3nm_file&#45;&gt;zonal_3nm_file_output_port</title>
<path fill="none" stroke="black" d="M807.981,-78.4597C826.054,-73.0285 845.187,-67.2981 863,-62 893.312,-52.9843 928.737,-42.5993 948.854,-36.7158"/>
<polygon fill="black" stroke="black" points="949.935,-40.0464 958.552,-33.8818 947.971,-33.3275 949.935,-40.0464"/>
</g>
<!-- zonal_1km_file_output_port -->
<g id="node26" class="node"><title>zonal_1km_file_output_port</title>
<ellipse fill="#ffffff" stroke="black" cx="997" cy="-31" rx="7" ry="7"/>
</g>
<!-- zonal_1km_file&#45;&gt;zonal_1km_file_output_port -->
<g id="edge29" class="edge"><title>zonal_1km_file&#45;&gt;zonal_1km_file_output_port</title>
<path fill="none" stroke="black" d="M997,-78.4996C997,-68.5289 997,-57.1933 997,-48.2105"/>
<polygon fill="black" stroke="black" points="1000.5,-48.0698 997,-38.0698 993.5,-48.0699 1000.5,-48.0698"/>
</g>
<!-- zonal_ws_file_output_port -->
<g id="node27" class="node"><title>zonal_ws_file_output_port</title>
<ellipse fill="#ffffff" stroke="black" cx="1029" cy="-31" rx="7" ry="7"/>
</g>
<!-- zonal_ws_file&#45;&gt;zonal_ws_file_output_port -->
<g id="edge30" class="edge"><title>zonal_ws_file&#45;&gt;zonal_ws_file_output_port</title>
<path fill="none" stroke="black" d="M1184.35,-78.4342C1166.85,-72.9776 1148.29,-67.2428 1131,-62 1100.74,-52.823 1065.3,-42.4925 1045.16,-36.6629"/>
<polygon fill="black" stroke="black" points="1046.03,-33.2718 1035.46,-33.858 1044.09,-39.9966 1046.03,-33.2718"/>
</g>
<!-- setup_R -->
<g id="node7" class="node"><title>setup_R</title>
<path fill="#ffffcc" stroke="black" d="M1788.13,-423.9C1788.13,-423.9 1743.87,-423.9 1743.87,-423.9 1737.87,-423.9 1731.87,-417.9 1731.87,-411.9 1731.87,-411.9 1731.87,-399.9 1731.87,-399.9 1731.87,-393.9 1737.87,-387.9 1743.87,-387.9 1743.87,-387.9 1788.13,-387.9 1788.13,-387.9 1794.13,-387.9 1800.13,-393.9 1800.13,-399.9 1800.13,-399.9 1800.13,-411.9 1800.13,-411.9 1800.13,-417.9 1794.13,-423.9 1788.13,-423.9"/>
<text text-anchor="middle" x="1766" y="-401.7" font-family="Helvetica,sans-Serif" font-size="14.00">setup_R</text>
</g>
<!-- setup_R&#45;&gt;set_up_configuration_and_start_provenance_tracking -->
<g id="edge2" class="edge"><title>setup_R&#45;&gt;set_up_configuration_and_start_provenance_tracking</title>
<path fill="none" stroke="black" d="M1738.38,-387.684C1733.38,-385.041 1728.13,-382.548 1723,-380.6 1684.16,-365.854 1640.25,-354.764 1600.33,-346.643"/>
<polygon fill="black" stroke="black" points="1600.77,-343.161 1590.28,-344.643 1599.4,-350.027 1600.77,-343.161"/>
</g>
<!-- rast_3nm_raster_file -->
<g id="node8" class="node"><title>rast_3nm_raster_file</title>
<path fill="#ffffcc" stroke="black" d="M1371.79,-381.1C1371.79,-381.1 1702.21,-381.1 1702.21,-381.1 1708.21,-381.1 1714.21,-387.1 1714.21,-393.1 1714.21,-393.1 1714.21,-418.7 1714.21,-418.7 1714.21,-424.7 1708.21,-430.7 1702.21,-430.7 1702.21,-430.7 1371.79,-430.7 1371.79,-430.7 1365.79,-430.7 1359.79,-424.7 1359.79,-418.7 1359.79,-418.7 1359.79,-393.1 1359.79,-393.1 1359.79,-387.1 1365.79,-381.1 1371.79,-381.1"/>
<text text-anchor="middle" x="1537" y="-414.1" font-family="Helvetica,sans-Serif" font-size="14.00">rast_3nm_raster_file</text>
<polyline fill="none" stroke="black" points="1359.79,-405.9 1714.21,-405.9 "/>
<text text-anchor="middle" x="1537" y="-389.3" font-family="Helvetica,sans-Serif" font-size="14.00">file:{dir_goal}/spatial/hs_offshore_3nm_raster_500m.tif</text>
</g>
<!-- rast_3nm_raster_file&#45;&gt;read_in_OHI_region_rasters -->
<g id="edge8" class="edge"><title>rast_3nm_raster_file&#45;&gt;read_in_OHI_region_rasters</title>
<path fill="none" stroke="black" d="M1359.3,-381.647C1356.52,-381.294 1353.75,-380.945 1351,-380.6 1246.12,-367.418 1127.06,-353.084 1039.42,-342.65"/>
<polygon fill="black" stroke="black" points="1039.77,-339.167 1029.43,-341.461 1038.94,-346.118 1039.77,-339.167"/>
</g>
<!-- rast_1km_raster_file -->
<g id="node9" class="node"><title>rast_1km_raster_file</title>
<path fill="#ffffcc" stroke="black" d="M1013.8,-381.1C1013.8,-381.1 1330.2,-381.1 1330.2,-381.1 1336.2,-381.1 1342.2,-387.1 1342.2,-393.1 1342.2,-393.1 1342.2,-418.7 1342.2,-418.7 1342.2,-424.7 1336.2,-430.7 1330.2,-430.7 1330.2,-430.7 1013.8,-430.7 1013.8,-430.7 1007.8,-430.7 1001.8,-424.7 1001.8,-418.7 1001.8,-418.7 1001.8,-393.1 1001.8,-393.1 1001.8,-387.1 1007.8,-381.1 1013.8,-381.1"/>
<text text-anchor="middle" x="1172" y="-414.1" font-family="Helvetica,sans-Serif" font-size="14.00">rast_1km_raster_file</text>
<polyline fill="none" stroke="black" points="1001.8,-405.9 1342.2,-405.9 "/>
<text text-anchor="middle" x="1172" y="-389.3" font-family="Helvetica,sans-Serif" font-size="14.00">file:{dir_goal}/spatial/hs_inland_1km_raster_500m.tif</text>
</g>
<!-- rast_1km_raster_file&#45;&gt;read_in_OHI_region_rasters -->
<g id="edge9" class="edge"><title>rast_1km_raster_file&#45;&gt;read_in_OHI_region_rasters</title>
<path fill="none" stroke="black" d="M1091.87,-381.077C1055.75,-370.337 1013.57,-357.797 979.138,-347.561"/>
<polygon fill="black" stroke="black" points="979.764,-344.095 969.181,-344.6 977.769,-350.805 979.764,-344.095"/>
</g>
<!-- rast_ws_raster_file -->
<g id="node10" class="node"><title>rast_ws_raster_file</title>
<path fill="#ffffcc" stroke="black" d="M641.782,-381.1C641.782,-381.1 972.218,-381.1 972.218,-381.1 978.218,-381.1 984.218,-387.1 984.218,-393.1 984.218,-393.1 984.218,-418.7 984.218,-418.7 984.218,-424.7 978.218,-430.7 972.218,-430.7 972.218,-430.7 641.782,-430.7 641.782,-430.7 635.782,-430.7 629.782,-424.7 629.782,-418.7 629.782,-418.7 629.782,-393.1 629.782,-393.1 629.782,-387.1 635.782,-381.1 641.782,-381.1"/>
<text text-anchor="middle" x="807" y="-414.1" font-family="Helvetica,sans-Serif" font-size="14.00">rast_ws_raster_file</text>
<polyline fill="none" stroke="black" points="629.782,-405.9 984.218,-405.9 "/>
<text text-anchor="middle" x="807" y="-389.3" font-family="Helvetica,sans-Serif" font-size="14.00">file:{dir_goal}/spatial/howe_sound_watershed_500m.tif</text>
</g>
<!-- rast_ws_raster_file&#45;&gt;read_in_OHI_region_rasters -->
<g id="edge10" class="edge"><title>rast_ws_raster_file&#45;&gt;read_in_OHI_region_rasters</title>
<path fill="none" stroke="black" d="M839.36,-381.077C852.508,-371.397 867.643,-360.255 880.683,-350.655"/>
<polygon fill="black" stroke="black" points="882.93,-353.348 888.908,-344.6 878.779,-347.71 882.93,-353.348"/>
</g>
<!-- rast_pep_file -->
<g id="node11" class="node"><title>rast_pep_file</title>
<path fill="#ffffcc" stroke="black" d="M344.128,-381.1C344.128,-381.1 599.872,-381.1 599.872,-381.1 605.872,-381.1 611.872,-387.1 611.872,-393.1 611.872,-393.1 611.872,-418.7 611.872,-418.7 611.872,-424.7 605.872,-430.7 599.872,-430.7 599.872,-430.7 344.128,-430.7 344.128,-430.7 338.128,-430.7 332.128,-424.7 332.128,-418.7 332.128,-418.7 332.128,-393.1 332.128,-393.1 332.128,-387.1 338.128,-381.1 344.128,-381.1"/>
<text text-anchor="middle" x="472" y="-414.1" font-family="Helvetica,sans-Serif" font-size="14.00">rast_pep_file</text>
<polyline fill="none" stroke="black" points="332.128,-405.9 611.872,-405.9 "/>
<text text-anchor="middle" x="472" y="-389.3" font-family="Helvetica,sans-Serif" font-size="14.00">file:{dir_goal}/spatial/hs_pep_rast_500m.tif</text>
</g>
<!-- rast_pep_file&#45;&gt;read_in_OHI_region_rasters -->
<g id="edge11" class="edge"><title>rast_pep_file&#45;&gt;read_in_OHI_region_rasters</title>
<path fill="none" stroke="black" d="M607.605,-381.077C671.098,-369.922 745.645,-356.826 805.074,-346.385"/>
<polygon fill="black" stroke="black" points="805.988,-349.778 815.232,-344.6 804.777,-342.884 805.988,-349.778"/>
</g>
<!-- rast_wdpa_pep_file -->
<g id="node12" class="node"><title>rast_wdpa_pep_file</title>
<path fill="#ffffcc" stroke="black" d="M36.0744,-381.1C36.0744,-381.1 301.926,-381.1 301.926,-381.1 307.926,-381.1 313.926,-387.1 313.926,-393.1 313.926,-393.1 313.926,-418.7 313.926,-418.7 313.926,-424.7 307.926,-430.7 301.926,-430.7 301.926,-430.7 36.0744,-430.7 36.0744,-430.7 30.0744,-430.7 24.0744,-424.7 24.0744,-418.7 24.0744,-418.7 24.0744,-393.1 24.0744,-393.1 24.0744,-387.1 30.0744,-381.1 36.0744,-381.1"/>
<text text-anchor="middle" x="169" y="-414.1" font-family="Helvetica,sans-Serif" font-size="14.00">rast_wdpa_pep_file</text>
<polyline fill="none" stroke="black" points="24.0744,-405.9 313.926,-405.9 "/>
<text text-anchor="middle" x="169" y="-389.3" font-family="Helvetica,sans-Serif" font-size="14.00">file:{dir_goal}/spatial/hs_wdpa_rast_500m.tif</text>
</g>
<!-- rast_wdpa_pep_file&#45;&gt;read_in_OHI_region_rasters -->
<g id="edge12" class="edge"><title>rast_wdpa_pep_file&#45;&gt;read_in_OHI_region_rasters</title>
<path fill="none" stroke="black" d="M314.052,-381.735C317.06,-381.345 320.045,-380.966 323,-380.6 481.535,-360.982 664.934,-345.633 784.412,-336.61"/>
<polygon fill="black" stroke="black" points="784.984,-340.077 794.693,-335.838 784.459,-333.097 784.984,-340.077"/>
</g>
<!-- rast_3nm&#45;&gt;outputs_zonal_stats_dataframes_for_protected_cells -->
<g id="edge17" class="edge"><title>rast_3nm&#45;&gt;outputs_zonal_stats_dataframes_for_protected_cells</title>
<path fill="none" stroke="black" d="M813.34,-239.588C816.263,-238.556 819.175,-237.549 822,-236.6 856.635,-224.967 895.499,-213.081 927.789,-203.522"/>
<polygon fill="black" stroke="black" points="928.986,-206.818 937.588,-200.632 927.006,-200.104 928.986,-206.818"/>
</g>
<!-- rast_1km&#45;&gt;outputs_zonal_stats_dataframes_for_protected_cells -->
<g id="edge18" class="edge"><title>rast_1km&#45;&gt;outputs_zonal_stats_dataframes_for_protected_cells</title>
<path fill="none" stroke="black" d="M899.557,-236.476C916.658,-227.196 937.982,-215.625 956.319,-205.675"/>
<polygon fill="black" stroke="black" points="958.202,-208.635 965.322,-200.79 954.863,-202.483 958.202,-208.635"/>
</g>
<!-- rast_ws&#45;&gt;outputs_zonal_stats_dataframes_for_protected_cells -->
<g id="edge19" class="edge"><title>rast_ws&#45;&gt;outputs_zonal_stats_dataframes_for_protected_cells</title>
<path fill="none" stroke="black" d="M965.382,-236.297C970.265,-228.159 976.187,-218.289 981.579,-209.301"/>
<polygon fill="black" stroke="black" points="984.594,-211.08 986.737,-200.704 978.591,-207.479 984.594,-211.08"/>
</g>
<!-- rast_pep&#45;&gt;outputs_zonal_stats_dataframes_for_protected_cells -->
<g id="edge20" class="edge"><title>rast_pep&#45;&gt;outputs_zonal_stats_dataframes_for_protected_cells</title>
<path fill="none" stroke="black" d="M1029.37,-236.297C1024.37,-228.159 1018.31,-218.289 1012.79,-209.301"/>
<polygon fill="black" stroke="black" points="1015.72,-207.393 1007.51,-200.704 1009.76,-211.057 1015.72,-207.393"/>
</g>
<!-- rast_wdpa_pep&#45;&gt;outputs_zonal_stats_dataframes_for_protected_cells -->
<g id="edge21" class="edge"><title>rast_wdpa_pep&#45;&gt;outputs_zonal_stats_dataframes_for_protected_cells</title>
<path fill="none" stroke="black" d="M1111.82,-236.476C1091.13,-226.949 1065.2,-215.007 1043.22,-204.883"/>
<polygon fill="black" stroke="black" points="1044.61,-201.672 1034.06,-200.668 1041.68,-208.03 1044.61,-201.672"/>
</g>
<!-- dir_goal&#45;&gt;outputs_zonal_stats_dataframes_for_protected_cells -->
<g id="edge16" class="edge"><title>dir_goal&#45;&gt;outputs_zonal_stats_dataframes_for_protected_cells</title>
<path fill="none" stroke="black" d="M1332.93,-247.326C1280.26,-237.334 1175.23,-217.41 1096.56,-202.487"/>
<polygon fill="black" stroke="black" points="1097.09,-199.025 1086.62,-200.6 1095.79,-205.903 1097.09,-199.025"/>
</g>
<!-- setup_R_input_port -->
<g id="node19" class="node"><title>setup_R_input_port</title>
<ellipse fill="#ffffff" stroke="black" cx="1069" cy="-478.2" rx="7" ry="7"/>
</g>
<!-- setup_R_input_port&#45;&gt;setup_R -->
<g id="edge22" class="edge"><title>setup_R_input_port&#45;&gt;setup_R</title>
<path fill="none" stroke="black" d="M1076.02,-477.172C1142.51,-476.869 1660.3,-473.665 1723,-447.2 1731.4,-443.654 1739.16,-437.692 1745.72,-431.427"/>
<polygon fill="black" stroke="black" points="1748.4,-433.689 1752.82,-424.059 1743.36,-428.832 1748.4,-433.689"/>
</g>
<!-- rast_3nm_raster_file_input_port -->
<g id="node20" class="node"><title>rast_3nm_raster_file_input_port</title>
<ellipse fill="#ffffff" stroke="black" cx="1037" cy="-478.2" rx="7" ry="7"/>
</g>
<!-- rast_3nm_raster_file_input_port&#45;&gt;rast_3nm_raster_file -->
<g id="edge23" class="edge"><title>rast_3nm_raster_file_input_port&#45;&gt;rast_3nm_raster_file</title>
<path fill="none" stroke="black" d="M1039.43,-471.322C1041.96,-466.05 1046.48,-458.631 1053,-455.2 1067.66,-447.487 1334.56,-449.184 1351,-447.2 1377.91,-443.953 1406.66,-438.65 1433.33,-432.941"/>
<polygon fill="black" stroke="black" points="1434.41,-436.287 1443.43,-430.737 1432.92,-429.448 1434.41,-436.287"/>
</g>
<!-- rast_1km_raster_file_input_port -->
<g id="node21" class="node"><title>rast_1km_raster_file_input_port</title>
<ellipse fill="#ffffff" stroke="black" cx="1005" cy="-478.2" rx="7" ry="7"/>
</g>
<!-- rast_1km_raster_file_input_port&#45;&gt;rast_1km_raster_file -->
<g id="edge24" class="edge"><title>rast_1km_raster_file_input_port&#45;&gt;rast_1km_raster_file</title>
<path fill="none" stroke="black" d="M1007.68,-471.727C1010.39,-466.741 1015.03,-459.515 1021,-455.2 1032.13,-447.157 1044.66,-440.414 1057.61,-434.771"/>
<polygon fill="black" stroke="black" points="1059.2,-437.902 1067.11,-430.853 1056.53,-431.431 1059.2,-437.902"/>
</g>
<!-- rast_ws_raster_file_input_port -->
<g id="node22" class="node"><title>rast_ws_raster_file_input_port</title>
<ellipse fill="#ffffff" stroke="black" cx="973" cy="-478.2" rx="7" ry="7"/>
</g>
<!-- rast_ws_raster_file_input_port&#45;&gt;rast_ws_raster_file -->
<g id="edge25" class="edge"><title>rast_ws_raster_file_input_port&#45;&gt;rast_ws_raster_file</title>
<path fill="none" stroke="black" d="M970.315,-471.73C967.603,-466.745 962.967,-459.521 957,-455.2 945.856,-447.13 933.301,-440.366 920.32,-434.708"/>
<polygon fill="black" stroke="black" points="921.385,-431.361 910.807,-430.78 918.714,-437.831 921.385,-431.361"/>
</g>
<!-- rast_pep_file_input_port -->
<g id="node23" class="node"><title>rast_pep_file_input_port</title>
<ellipse fill="#ffffff" stroke="black" cx="941" cy="-478.2" rx="7" ry="7"/>
</g>
<!-- rast_pep_file_input_port&#45;&gt;rast_pep_file -->
<g id="edge26" class="edge"><title>rast_pep_file_input_port&#45;&gt;rast_pep_file</title>
<path fill="none" stroke="black" d="M938.568,-471.322C936.036,-466.049 931.521,-458.629 925,-455.2 910.047,-447.336 637.717,-449.645 621,-447.2 599.712,-444.086 577.122,-438.962 556.14,-433.395"/>
<polygon fill="black" stroke="black" points="556.871,-429.966 546.304,-430.722 555.036,-436.722 556.871,-429.966"/>
</g>
<!-- rast_wdpa_pep_file_input_port -->
<g id="node24" class="node"><title>rast_wdpa_pep_file_input_port</title>
<ellipse fill="#ffffff" stroke="black" cx="909" cy="-478.2" rx="7" ry="7"/>
</g>
<!-- rast_wdpa_pep_file_input_port&#45;&gt;rast_wdpa_pep_file -->
<g id="edge27" class="edge"><title>rast_wdpa_pep_file_input_port&#45;&gt;rast_wdpa_pep_file</title>
<path fill="none" stroke="black" d="M901.767,-477.034C842.951,-475.653 442.295,-465.663 323,-447.2 301.448,-443.864 278.549,-438.756 257.182,-433.284"/>
<polygon fill="black" stroke="black" points="258.043,-429.892 247.483,-430.75 256.273,-436.664 258.043,-429.892"/>
</g>
</g>
</svg>
