<?xml version="1.0" encoding="UTF-8" standalone="no"?>
<!DOCTYPE svg PUBLIC "-//W3C//DTD SVG 1.1//EN"
 "http://www.w3.org/Graphics/SVG/1.1/DTD/svg11.dtd">
<!-- Generated by graphviz version 2.38.0 (20140413.2041)
 -->
<!-- Title: Workflow Pages: 1 -->
<svg width="668pt" height="532pt"
 viewBox="0.00 0.00 668.00 532.20" xmlns="http://www.w3.org/2000/svg" xmlns:xlink="http://www.w3.org/1999/xlink">
<g id="graph0" class="graph" transform="scale(1 1) rotate(0) translate(4 528.2)">
<title>Workflow</title>
<polygon fill="white" stroke="none" points="-4,4 -4,-528.2 664,-528.2 664,4 -4,4"/>
<text text-anchor="middle" x="330" y="-504" font-family="Courier,monospace" font-size="18.00">setup_BC_WDPA_polygons</text>
<g id="clust1" class="cluster"><title>cluster_workflow_box_outer</title>
<polygon fill="none" stroke="black" stroke-width="2" points="8,-62 8,-432.6 652,-432.6 652,-62 8,-62"/>
</g>
<g id="clust2" class="cluster"><title>cluster_workflow_box_inner</title>
<polygon fill="none" stroke="white" stroke-width="2" points="16,-70 16,-424.6 644,-424.6 644,-70 16,-70"/>
</g>
<g id="clust3" class="cluster"><title>cluster_input_ports_group_outer</title>
<polygon fill="none" stroke="white" points="507,-440.6 507,-486.6 585,-486.6 585,-440.6 507,-440.6"/>
</g>
<g id="clust4" class="cluster"><title>cluster_input_ports_group_inner</title>
<polygon fill="none" stroke="white" points="515,-448.6 515,-478.6 577,-478.6 577,-448.6 515,-448.6"/>
</g>
<g id="clust5" class="cluster"><title>cluster_output_ports_group_outer</title>
<polygon fill="none" stroke="white" points="276,-8 276,-54 322,-54 322,-8 276,-8"/>
</g>
<g id="clust6" class="cluster"><title>cluster_output_ports_group_inner</title>
<polygon fill="none" stroke="white" points="284,-16 284,-46 314,-46 314,-16 284,-16"/>
</g>
<!-- Set_up_default_BC_projection_to_BC_Albers_and_start_provenance_tracking -->
<g id="node1" class="node"><title>Set_up_default_BC_projection_to_BC_Albers_and_start_provenance_tracking</title>
<polygon fill="#ccffcc" stroke="black" points="636.301,-344.6 23.6993,-344.6 23.6993,-308.6 636.301,-308.6 636.301,-344.6"/>
<text text-anchor="middle" x="330" y="-322.4" font-family="Courier,monospace" font-size="14.00">Set_up_default_BC_projection_to_BC_Albers_and_start_provenance_tracking</text>
</g>
<!-- BC_specific_polygon_subset_of_WDPA_global_dataset -->
<g id="node3" class="node"><title>BC_specific_polygon_subset_of_WDPA_global_dataset</title>
<path fill="#ffffcc" stroke="black" d="M129.114,-78.5C129.114,-78.5 468.886,-78.5 468.886,-78.5 474.886,-78.5 480.886,-84.5 480.886,-90.5 480.886,-90.5 480.886,-116.1 480.886,-116.1 480.886,-122.1 474.886,-128.1 468.886,-128.1 468.886,-128.1 129.114,-128.1 129.114,-128.1 123.114,-128.1 117.114,-122.1 117.114,-116.1 117.114,-116.1 117.114,-90.5 117.114,-90.5 117.114,-84.5 123.114,-78.5 129.114,-78.5"/>
<text text-anchor="middle" x="299" y="-111.5" font-family="Helvetica,sans-Serif" font-size="14.00">BC_specific_polygon_subset_of_WDPA_global_dataset</text>
<polyline fill="none" stroke="black" points="117.114,-103.3 480.886,-103.3 "/>
<text text-anchor="middle" x="299" y="-86.7" font-family="Helvetica,sans-Serif" font-size="14.00">file:{dir_goal}/spatial/hs_wdpa_poly.shp</text>
</g>
<!-- Set_up_default_BC_projection_to_BC_Albers_and_start_provenance_tracking&#45;&gt;BC_specific_polygon_subset_of_WDPA_global_dataset -->
<g id="edge2" class="edge"><title>Set_up_default_BC_projection_to_BC_Albers_and_start_provenance_tracking&#45;&gt;BC_specific_polygon_subset_of_WDPA_global_dataset</title>
<path fill="none" stroke="black" d="M280.62,-308.562C235.114,-289.911 170.337,-255.175 141,-200.6 133.424,-186.507 131.925,-177.777 141,-164.6 150.102,-151.384 162.52,-141.062 176.422,-133.002"/>
<polygon fill="black" stroke="black" points="178.092,-136.078 185.254,-128.27 174.786,-129.908 178.092,-136.078"/>
</g>
<!-- dir_goal -->
<g id="node6" class="node"><title>dir_goal</title>
<path fill="#fcfcfc" stroke="black" d="M352.787,-272.6C352.787,-272.6 311.213,-272.6 311.213,-272.6 305.213,-272.6 299.213,-266.6 299.213,-260.6 299.213,-260.6 299.213,-248.6 299.213,-248.6 299.213,-242.6 305.213,-236.6 311.213,-236.6 311.213,-236.6 352.787,-236.6 352.787,-236.6 358.787,-236.6 364.787,-242.6 364.787,-248.6 364.787,-248.6 364.787,-260.6 364.787,-260.6 364.787,-266.6 358.787,-272.6 352.787,-272.6"/>
<text text-anchor="middle" x="332" y="-250.4" font-family="Helvetica,sans-Serif" font-size="14.00">dir_goal</text>
</g>
<!-- Set_up_default_BC_projection_to_BC_Albers_and_start_provenance_tracking&#45;&gt;dir_goal -->
<g id="edge1" class="edge"><title>Set_up_default_BC_projection_to_BC_Albers_and_start_provenance_tracking&#45;&gt;dir_goal</title>
<path fill="none" stroke="black" d="M330.494,-308.297C330.715,-300.583 330.98,-291.312 331.225,-282.712"/>
<polygon fill="black" stroke="black" points="334.724,-282.8 331.511,-272.704 327.727,-282.6 334.724,-282.8"/>
</g>
<!-- create_BC_specific_polygon_subset_of_WDPA_global_dataset -->
<g id="node2" class="node"><title>create_BC_specific_polygon_subset_of_WDPA_global_dataset</title>
<polygon fill="#ccffcc" stroke="black" points="636.322,-200.6 149.678,-200.6 149.678,-164.6 636.322,-164.6 636.322,-200.6"/>
<text text-anchor="middle" x="393" y="-178.4" font-family="Courier,monospace" font-size="14.00">create_BC_specific_polygon_subset_of_WDPA_global_dataset</text>
</g>
<!-- create_BC_specific_polygon_subset_of_WDPA_global_dataset&#45;&gt;BC_specific_polygon_subset_of_WDPA_global_dataset -->
<g id="edge4" class="edge"><title>create_BC_specific_polygon_subset_of_WDPA_global_dataset&#45;&gt;BC_specific_polygon_subset_of_WDPA_global_dataset</title>
<path fill="none" stroke="black" d="M372.138,-164.445C361.49,-155.688 348.216,-144.773 335.911,-134.654"/>
<polygon fill="black" stroke="black" points="337.949,-131.798 328.002,-128.15 333.503,-137.205 337.949,-131.798"/>
</g>
<!-- BC_specific_polygon_subset_of_WDPA_global_dataset_output_port -->
<g id="node9" class="node"><title>BC_specific_polygon_subset_of_WDPA_global_dataset_output_port</title>
<ellipse fill="#ffffff" stroke="black" cx="299" cy="-31" rx="7" ry="7"/>
</g>
<!-- BC_specific_polygon_subset_of_WDPA_global_dataset&#45;&gt;BC_specific_polygon_subset_of_WDPA_global_dataset_output_port -->
<g id="edge9" class="edge"><title>BC_specific_polygon_subset_of_WDPA_global_dataset&#45;&gt;BC_specific_polygon_subset_of_WDPA_global_dataset_output_port</title>
<path fill="none" stroke="black" d="M299,-78.4996C299,-68.5289 299,-57.1933 299,-48.2105"/>
<polygon fill="black" stroke="black" points="302.5,-48.0698 299,-38.0698 295.5,-48.0699 302.5,-48.0698"/>
</g>
<!-- setup_R -->
<g id="node4" class="node"><title>setup_R</title>
<path fill="#ffffcc" stroke="black" d="M485.128,-416.6C485.128,-416.6 440.872,-416.6 440.872,-416.6 434.872,-416.6 428.872,-410.6 428.872,-404.6 428.872,-404.6 428.872,-392.6 428.872,-392.6 428.872,-386.6 434.872,-380.6 440.872,-380.6 440.872,-380.6 485.128,-380.6 485.128,-380.6 491.128,-380.6 497.128,-386.6 497.128,-392.6 497.128,-392.6 497.128,-404.6 497.128,-404.6 497.128,-410.6 491.128,-416.6 485.128,-416.6"/>
<text text-anchor="middle" x="463" y="-394.4" font-family="Helvetica,sans-Serif" font-size="14.00">setup_R</text>
</g>
<!-- setup_R&#45;&gt;Set_up_default_BC_projection_to_BC_Albers_and_start_provenance_tracking -->
<g id="edge3" class="edge"><title>setup_R&#45;&gt;Set_up_default_BC_projection_to_BC_Albers_and_start_provenance_tracking</title>
<path fill="none" stroke="black" d="M430.465,-380.476C412.753,-371.154 390.647,-359.519 371.684,-349.539"/>
<polygon fill="black" stroke="black" points="373.14,-346.35 362.661,-344.79 369.88,-352.544 373.14,-346.35"/>
</g>
<!-- original_WDPA_MPA_global_dataset -->
<g id="node5" class="node"><title>original_WDPA_MPA_global_dataset</title>
<path fill="#ffffcc" stroke="black" d="M621.825,-272.6C621.825,-272.6 398.175,-272.6 398.175,-272.6 392.175,-272.6 386.175,-266.6 386.175,-260.6 386.175,-260.6 386.175,-248.6 386.175,-248.6 386.175,-242.6 392.175,-236.6 398.175,-236.6 398.175,-236.6 621.825,-236.6 621.825,-236.6 627.825,-236.6 633.825,-242.6 633.825,-248.6 633.825,-248.6 633.825,-260.6 633.825,-260.6 633.825,-266.6 627.825,-272.6 621.825,-272.6"/>
<text text-anchor="middle" x="510" y="-250.4" font-family="Helvetica,sans-Serif" font-size="14.00">original_WDPA_MPA_global_dataset</text>
</g>
<!-- original_WDPA_MPA_global_dataset&#45;&gt;create_BC_specific_polygon_subset_of_WDPA_global_dataset -->
<g id="edge5" class="edge"><title>original_WDPA_MPA_global_dataset&#45;&gt;create_BC_specific_polygon_subset_of_WDPA_global_dataset</title>
<path fill="none" stroke="black" d="M481.379,-236.476C466.081,-227.324 447.057,-215.942 430.582,-206.085"/>
<polygon fill="black" stroke="black" points="432.11,-202.92 421.731,-200.79 428.516,-208.927 432.11,-202.92"/>
</g>
<!-- dir_goal&#45;&gt;create_BC_specific_polygon_subset_of_WDPA_global_dataset -->
<g id="edge6" class="edge"><title>dir_goal&#45;&gt;create_BC_specific_polygon_subset_of_WDPA_global_dataset</title>
<path fill="none" stroke="black" d="M347.079,-236.297C354.392,-227.905 363.31,-217.67 371.335,-208.461"/>
<polygon fill="black" stroke="black" points="374.164,-210.543 378.095,-200.704 368.886,-205.944 374.164,-210.543"/>
</g>
<!-- setup_R_input_port -->
<g id="node7" class="node"><title>setup_R_input_port</title>
<ellipse fill="#ffffff" stroke="black" cx="530" cy="-463.6" rx="7" ry="7"/>
</g>
<!-- setup_R_input_port&#45;&gt;setup_R -->
<g id="edge7" class="edge"><title>setup_R_input_port&#45;&gt;setup_R</title>
<path fill="none" stroke="black" d="M525.182,-458.069C517.536,-450.88 502.099,-436.365 488.52,-423.596"/>
<polygon fill="black" stroke="black" points="490.911,-421.04 481.228,-416.74 486.115,-426.14 490.911,-421.04"/>
</g>
<!-- original_WDPA_MPA_global_dataset_input_port -->
<g id="node8" class="node"><title>original_WDPA_MPA_global_dataset_input_port</title>
<ellipse fill="#ffffff" stroke="black" cx="562" cy="-463.6" rx="7" ry="7"/>
</g>
<!-- original_WDPA_MPA_global_dataset_input_port&#45;&gt;original_WDPA_MPA_global_dataset -->
<g id="edge8" class="edge"><title>original_WDPA_MPA_global_dataset_input_port&#45;&gt;original_WDPA_MPA_global_dataset</title>
<path fill="none" stroke="black" d="M567.363,-458.618C591.034,-440.56 683.322,-364.814 645,-308.6 635.604,-294.817 622.03,-284.618 607.07,-277.072"/>
<polygon fill="black" stroke="black" points="608.147,-273.715 597.6,-272.707 605.217,-280.072 608.147,-273.715"/>
</g>
</g>
</svg>
