<?xml version="1.0" encoding="UTF-8" standalone="no"?>
<!DOCTYPE svg PUBLIC "-//W3C//DTD SVG 1.1//EN"
 "http://www.w3.org/Graphics/SVG/1.1/DTD/svg11.dtd">
<!-- Generated by graphviz version 2.38.0 (20140413.2041)
 -->
<!-- Title: Workflow Pages: 1 -->
<svg width="797pt" height="779pt"
 viewBox="0.00 0.00 797.00 778.80" xmlns="http://www.w3.org/2000/svg" xmlns:xlink="http://www.w3.org/1999/xlink">
<g id="graph0" class="graph" transform="scale(1 1) rotate(0) translate(4 774.8)">
<title>Workflow</title>
<polygon fill="white" stroke="none" points="-4,4 -4,-774.8 793,-774.8 793,4 -4,4"/>
<text text-anchor="middle" x="394.5" y="-750.6" font-family="Helvetica,sans-Serif" font-size="18.00">Calculate_Percentage_Protected_Area_for_Howe_Sound</text>
<g id="clust1" class="cluster"><title>cluster_workflow_box_outer</title>
<polygon fill="none" stroke="black" stroke-width="2" points="22,-34 22,-707.2 781,-707.2 781,-34 22,-34"/>
</g>
<g id="clust2" class="cluster"><title>cluster_workflow_box_inner</title>
<polygon fill="none" stroke="black" stroke-width="0" points="30,-42 30,-699.2 773,-699.2 773,-42 30,-42"/>
</g>
<!-- set_up_configuration_and_start_provenance_tracking -->
<g id="node1" class="node"><title>set_up_configuration_and_start_provenance_tracking</title>
<polygon fill="#ccffcc" stroke="black" points="452.784,-619.2 103.216,-619.2 103.216,-583.2 452.784,-583.2 452.784,-619.2"/>
<text text-anchor="middle" x="278" y="-597" font-family="Helvetica,sans-Serif" font-size="14.00">set_up_configuration_and_start_provenance_tracking</text>
</g>
<!-- dir_goal -->
<g id="node18" class="node"><title>dir_goal</title>
<path fill="#fcfcfc" stroke="black" d="M298.787,-547.2C298.787,-547.2 257.213,-547.2 257.213,-547.2 251.213,-547.2 245.213,-541.2 245.213,-535.2 245.213,-535.2 245.213,-523.2 245.213,-523.2 245.213,-517.2 251.213,-511.2 257.213,-511.2 257.213,-511.2 298.787,-511.2 298.787,-511.2 304.787,-511.2 310.787,-517.2 310.787,-523.2 310.787,-523.2 310.787,-535.2 310.787,-535.2 310.787,-541.2 304.787,-547.2 298.787,-547.2"/>
<text text-anchor="middle" x="278" y="-525" font-family="Helvetica,sans-Serif" font-size="14.00">dir_goal</text>
</g>
<!-- set_up_configuration_and_start_provenance_tracking&#45;&gt;dir_goal -->
<g id="edge1" class="edge"><title>set_up_configuration_and_start_provenance_tracking&#45;&gt;dir_goal</title>
<path fill="none" stroke="black" d="M278,-582.897C278,-575.183 278,-565.912 278,-557.312"/>
<polygon fill="black" stroke="black" points="281.5,-557.304 278,-547.304 274.5,-557.304 281.5,-557.304"/>
</g>
<!-- create_new_stats_and_trend_file -->
<g id="node2" class="node"><title>create_new_stats_and_trend_file</title>
<polygon fill="#ccffcc" stroke="black" points="389.181,-475.2 166.819,-475.2 166.819,-439.2 389.181,-439.2 389.181,-475.2"/>
<text text-anchor="middle" x="278" y="-453" font-family="Helvetica,sans-Serif" font-size="14.00">create_new_stats_and_trend_file</text>
</g>
<!-- status_file_handle -->
<g id="node14" class="node"><title>status_file_handle</title>
<path fill="#ffffcc" stroke="black" d="M174.318,-395.9C174.318,-395.9 69.6823,-395.9 69.6823,-395.9 63.6823,-395.9 57.6823,-389.9 57.6823,-383.9 57.6823,-383.9 57.6823,-371.9 57.6823,-371.9 57.6823,-365.9 63.6823,-359.9 69.6823,-359.9 69.6823,-359.9 174.318,-359.9 174.318,-359.9 180.318,-359.9 186.318,-365.9 186.318,-371.9 186.318,-371.9 186.318,-383.9 186.318,-383.9 186.318,-389.9 180.318,-395.9 174.318,-395.9"/>
<text text-anchor="middle" x="122" y="-373.7" font-family="Helvetica,sans-Serif" font-size="14.00">status_file_handle</text>
</g>
<!-- create_new_stats_and_trend_file&#45;&gt;status_file_handle -->
<g id="edge3" class="edge"><title>create_new_stats_and_trend_file&#45;&gt;status_file_handle</title>
<path fill="none" stroke="black" d="M243.379,-439.045C220.455,-427.686 190.203,-412.695 165.635,-400.522"/>
<polygon fill="black" stroke="black" points="167.039,-397.311 156.525,-396.007 163.931,-403.584 167.039,-397.311"/>
</g>
<!-- trend_file_handle -->
<g id="node16" class="node"><title>trend_file_handle</title>
<path fill="#ffffcc" stroke="black" d="M729.871,-395.9C729.871,-395.9 630.129,-395.9 630.129,-395.9 624.129,-395.9 618.129,-389.9 618.129,-383.9 618.129,-383.9 618.129,-371.9 618.129,-371.9 618.129,-365.9 624.129,-359.9 630.129,-359.9 630.129,-359.9 729.871,-359.9 729.871,-359.9 735.871,-359.9 741.871,-365.9 741.871,-371.9 741.871,-371.9 741.871,-383.9 741.871,-383.9 741.871,-389.9 735.871,-395.9 729.871,-395.9"/>
<text text-anchor="middle" x="680" y="-373.7" font-family="Helvetica,sans-Serif" font-size="14.00">trend_file_handle</text>
</g>
<!-- create_new_stats_and_trend_file&#45;&gt;trend_file_handle -->
<g id="edge4" class="edge"><title>create_new_stats_and_trend_file&#45;&gt;trend_file_handle</title>
<path fill="none" stroke="black" d="M389.276,-443.408C454.217,-434.712 537.4,-421.445 610,-403.2 614.866,-401.977 619.874,-400.563 624.867,-399.044"/>
<polygon fill="black" stroke="black" points="625.938,-402.376 634.412,-396.017 623.822,-395.704 625.938,-402.376"/>
</g>
<!-- define_param_year_span -->
<g id="node3" class="node"><title>define_param_year_span</title>
<polygon fill="#ccffcc" stroke="black" points="647.218,-475.2 472.782,-475.2 472.782,-439.2 647.218,-439.2 647.218,-475.2"/>
<text text-anchor="middle" x="560" y="-453" font-family="Helvetica,sans-Serif" font-size="14.00">define_param_year_span</text>
</g>
<!-- year_span -->
<g id="node19" class="node"><title>year_span</title>
<path fill="#fcfcfc" stroke="black" d="M588.857,-395.9C588.857,-395.9 531.143,-395.9 531.143,-395.9 525.143,-395.9 519.143,-389.9 519.143,-383.9 519.143,-383.9 519.143,-371.9 519.143,-371.9 519.143,-365.9 525.143,-359.9 531.143,-359.9 531.143,-359.9 588.857,-359.9 588.857,-359.9 594.857,-359.9 600.857,-365.9 600.857,-371.9 600.857,-371.9 600.857,-383.9 600.857,-383.9 600.857,-389.9 594.857,-395.9 588.857,-395.9"/>
<text text-anchor="middle" x="560" y="-373.7" font-family="Helvetica,sans-Serif" font-size="14.00">year_span</text>
</g>
<!-- define_param_year_span&#45;&gt;year_span -->
<g id="edge6" class="edge"><title>define_param_year_span&#45;&gt;year_span</title>
<path fill="none" stroke="black" d="M560,-439.045C560,-429.437 560,-417.232 560,-406.33"/>
<polygon fill="black" stroke="black" points="563.5,-406.007 560,-396.007 556.5,-406.007 563.5,-406.007"/>
</g>
<!-- output_estimate_status_file_by_region_since_1980 -->
<g id="node4" class="node"><title>output_estimate_status_file_by_region_since_1980</title>
<polygon fill="#ccffcc" stroke="black" points="395.501,-316.6 60.4988,-316.6 60.4988,-280.6 395.501,-280.6 395.501,-316.6"/>
<text text-anchor="middle" x="228" y="-294.4" font-family="Helvetica,sans-Serif" font-size="14.00">output_estimate_status_file_by_region_since_1980</text>
</g>
<!-- status_df_data -->
<g id="node15" class="node"><title>status_df_data</title>
<path fill="#ffffcc" stroke="black" d="M269.823,-244.6C269.823,-244.6 186.177,-244.6 186.177,-244.6 180.177,-244.6 174.177,-238.6 174.177,-232.6 174.177,-232.6 174.177,-220.6 174.177,-220.6 174.177,-214.6 180.177,-208.6 186.177,-208.6 186.177,-208.6 269.823,-208.6 269.823,-208.6 275.823,-208.6 281.823,-214.6 281.823,-220.6 281.823,-220.6 281.823,-232.6 281.823,-232.6 281.823,-238.6 275.823,-244.6 269.823,-244.6"/>
<text text-anchor="middle" x="228" y="-222.4" font-family="Helvetica,sans-Serif" font-size="14.00">status_df_data</text>
</g>
<!-- output_estimate_status_file_by_region_since_1980&#45;&gt;status_df_data -->
<g id="edge7" class="edge"><title>output_estimate_status_file_by_region_since_1980&#45;&gt;status_df_data</title>
<path fill="none" stroke="black" d="M228,-280.297C228,-272.583 228,-263.312 228,-254.712"/>
<polygon fill="black" stroke="black" points="231.5,-254.704 228,-244.704 224.5,-254.704 231.5,-254.704"/>
</g>
<!-- write_status_to_csv_file -->
<g id="node5" class="node"><title>write_status_to_csv_file</title>
<polygon fill="#ccffcc" stroke="black" points="225.084,-172.6 60.9161,-172.6 60.9161,-136.6 225.084,-136.6 225.084,-172.6"/>
<text text-anchor="middle" x="143" y="-150.4" font-family="Helvetica,sans-Serif" font-size="14.00">write_status_to_csv_file</text>
</g>
<!-- lsp_status_file -->
<g id="node9" class="node"><title>lsp_status_file</title>
<path fill="#ffffcc" stroke="black" d="M50.2427,-50.5C50.2427,-50.5 257.757,-50.5 257.757,-50.5 263.757,-50.5 269.757,-56.5 269.757,-62.5 269.757,-62.5 269.757,-88.1 269.757,-88.1 269.757,-94.1 263.757,-100.1 257.757,-100.1 257.757,-100.1 50.2427,-100.1 50.2427,-100.1 44.2427,-100.1 38.2427,-94.1 38.2427,-88.1 38.2427,-88.1 38.2427,-62.5 38.2427,-62.5 38.2427,-56.5 44.2427,-50.5 50.2427,-50.5"/>
<text text-anchor="middle" x="154" y="-83.5" font-family="Helvetica,sans-Serif" font-size="14.00">lsp_status_file</text>
<polyline fill="none" stroke="black" points="38.2427,-75.3 269.757,-75.3 "/>
<text text-anchor="middle" x="154" y="-58.7" font-family="Helvetica,sans-Serif" font-size="14.00">file:{dir_goal}/output/lsp_status.csv</text>
</g>
<!-- write_status_to_csv_file&#45;&gt;lsp_status_file -->
<g id="edge12" class="edge"><title>write_status_to_csv_file&#45;&gt;lsp_status_file</title>
<path fill="none" stroke="black" d="M145.441,-136.445C146.545,-128.689 147.89,-119.239 149.183,-110.15"/>
<polygon fill="black" stroke="black" points="152.662,-110.543 150.606,-100.15 145.732,-109.557 152.662,-110.543"/>
</g>
<!-- output_estimate_trend_file_by_region_since_1980 -->
<g id="node6" class="node"><title>output_estimate_trend_file_by_region_since_1980</title>
<polygon fill="#ccffcc" stroke="black" points="744.554,-316.6 415.446,-316.6 415.446,-280.6 744.554,-280.6 744.554,-316.6"/>
<text text-anchor="middle" x="580" y="-294.4" font-family="Helvetica,sans-Serif" font-size="14.00">output_estimate_trend_file_by_region_since_1980</text>
</g>
<!-- trend_df_data -->
<g id="node17" class="node"><title>trend_df_data</title>
<path fill="#ffffcc" stroke="black" d="M619.376,-244.6C619.376,-244.6 540.624,-244.6 540.624,-244.6 534.624,-244.6 528.624,-238.6 528.624,-232.6 528.624,-232.6 528.624,-220.6 528.624,-220.6 528.624,-214.6 534.624,-208.6 540.624,-208.6 540.624,-208.6 619.376,-208.6 619.376,-208.6 625.376,-208.6 631.376,-214.6 631.376,-220.6 631.376,-220.6 631.376,-232.6 631.376,-232.6 631.376,-238.6 625.376,-244.6 619.376,-244.6"/>
<text text-anchor="middle" x="580" y="-222.4" font-family="Helvetica,sans-Serif" font-size="14.00">trend_df_data</text>
</g>
<!-- output_estimate_trend_file_by_region_since_1980&#45;&gt;trend_df_data -->
<g id="edge14" class="edge"><title>output_estimate_trend_file_by_region_since_1980&#45;&gt;trend_df_data</title>
<path fill="none" stroke="black" d="M580,-280.297C580,-272.583 580,-263.312 580,-254.712"/>
<polygon fill="black" stroke="black" points="583.5,-254.704 580,-244.704 576.5,-254.704 583.5,-254.704"/>
</g>
<!-- write_trend_to_csv_file -->
<g id="node7" class="node"><title>write_trend_to_csv_file</title>
<polygon fill="#ccffcc" stroke="black" points="741.636,-172.6 582.364,-172.6 582.364,-136.6 741.636,-136.6 741.636,-172.6"/>
<text text-anchor="middle" x="662" y="-150.4" font-family="Helvetica,sans-Serif" font-size="14.00">write_trend_to_csv_file</text>
</g>
<!-- lsp_trend_file -->
<g id="node10" class="node"><title>lsp_trend_file</title>
<path fill="#ffffcc" stroke="black" d="M550.966,-50.5C550.966,-50.5 753.034,-50.5 753.034,-50.5 759.034,-50.5 765.034,-56.5 765.034,-62.5 765.034,-62.5 765.034,-88.1 765.034,-88.1 765.034,-94.1 759.034,-100.1 753.034,-100.1 753.034,-100.1 550.966,-100.1 550.966,-100.1 544.966,-100.1 538.966,-94.1 538.966,-88.1 538.966,-88.1 538.966,-62.5 538.966,-62.5 538.966,-56.5 544.966,-50.5 550.966,-50.5"/>
<text text-anchor="middle" x="652" y="-83.5" font-family="Helvetica,sans-Serif" font-size="14.00">lsp_trend_file</text>
<polyline fill="none" stroke="black" points="538.966,-75.3 765.034,-75.3 "/>
<text text-anchor="middle" x="652" y="-58.7" font-family="Helvetica,sans-Serif" font-size="14.00">file:{dir_goal}/output/lsp_trend.csv</text>
</g>
<!-- write_trend_to_csv_file&#45;&gt;lsp_trend_file -->
<g id="edge19" class="edge"><title>write_trend_to_csv_file&#45;&gt;lsp_trend_file</title>
<path fill="none" stroke="black" d="M659.781,-136.445C658.777,-128.689 657.555,-119.239 656.379,-110.15"/>
<polygon fill="black" stroke="black" points="659.839,-109.618 655.085,-100.15 652.897,-110.516 659.839,-109.618"/>
</g>
<!-- save_year_by_year_status_and_trend_estimates -->
<g id="node8" class="node"><title>save_year_by_year_status_and_trend_estimates</title>
<polygon fill="#ccffcc" stroke="black" points="564.767,-172.6 243.233,-172.6 243.233,-136.6 564.767,-136.6 564.767,-172.6"/>
<text text-anchor="middle" x="404" y="-150.4" font-family="Helvetica,sans-Serif" font-size="14.00">save_year_by_year_status_and_trend_estimates</text>
</g>
<!-- lsp_status_trend_summary_db_file -->
<g id="node11" class="node"><title>lsp_status_trend_summary_db_file</title>
<path fill="#ffffcc" stroke="black" d="M299.477,-50.5C299.477,-50.5 508.523,-50.5 508.523,-50.5 514.523,-50.5 520.523,-56.5 520.523,-62.5 520.523,-62.5 520.523,-88.1 520.523,-88.1 520.523,-94.1 514.523,-100.1 508.523,-100.1 508.523,-100.1 299.477,-100.1 299.477,-100.1 293.477,-100.1 287.477,-94.1 287.477,-88.1 287.477,-88.1 287.477,-62.5 287.477,-62.5 287.477,-56.5 293.477,-50.5 299.477,-50.5"/>
<text text-anchor="middle" x="404" y="-83.5" font-family="Helvetica,sans-Serif" font-size="14.00">lsp_status_trend_summary_db_file</text>
<polyline fill="none" stroke="black" points="287.477,-75.3 520.523,-75.3 "/>
<text text-anchor="middle" x="404" y="-58.7" font-family="Helvetica,sans-Serif" font-size="14.00">dbfile://</text>
</g>
<!-- save_year_by_year_status_and_trend_estimates&#45;&gt;lsp_status_trend_summary_db_file -->
<g id="edge21" class="edge"><title>save_year_by_year_status_and_trend_estimates&#45;&gt;lsp_status_trend_summary_db_file</title>
<path fill="none" stroke="black" d="M404,-136.445C404,-128.689 404,-119.239 404,-110.15"/>
<polygon fill="black" stroke="black" points="407.5,-110.15 404,-100.15 400.5,-110.15 407.5,-110.15"/>
</g>
<!-- lsp_status_file_output_port -->
<g id="node22" class="node"><title>lsp_status_file_output_port</title>
<ellipse fill="#ffffff" stroke="black" cx="154" cy="-7" rx="7" ry="7"/>
</g>
<!-- lsp_status_file&#45;&gt;lsp_status_file_output_port -->
<g id="edge26" class="edge"><title>lsp_status_file&#45;&gt;lsp_status_file_output_port</title>
<path fill="none" stroke="black" d="M154,-50.3642C154,-41.694 154,-32.1105 154,-24.2546"/>
<polygon fill="black" stroke="black" points="157.5,-24.0006 154,-14.0006 150.5,-24.0007 157.5,-24.0006"/>
</g>
<!-- lsp_trend_file_output_port -->
<g id="node23" class="node"><title>lsp_trend_file_output_port</title>
<ellipse fill="#ffffff" stroke="black" cx="652" cy="-7" rx="7" ry="7"/>
</g>
<!-- lsp_trend_file&#45;&gt;lsp_trend_file_output_port -->
<g id="edge27" class="edge"><title>lsp_trend_file&#45;&gt;lsp_trend_file_output_port</title>
<path fill="none" stroke="black" d="M652,-50.3642C652,-41.694 652,-32.1105 652,-24.2546"/>
<polygon fill="black" stroke="black" points="655.5,-24.0006 652,-14.0006 648.5,-24.0007 655.5,-24.0006"/>
</g>
<!-- lsp_status_trend_summary_db_file_output_port -->
<g id="node24" class="node"><title>lsp_status_trend_summary_db_file_output_port</title>
<ellipse fill="#ffffff" stroke="black" cx="404" cy="-7" rx="7" ry="7"/>
</g>
<!-- lsp_status_trend_summary_db_file&#45;&gt;lsp_status_trend_summary_db_file_output_port -->
<g id="edge28" class="edge"><title>lsp_status_trend_summary_db_file&#45;&gt;lsp_status_trend_summary_db_file_output_port</title>
<path fill="none" stroke="black" d="M404,-50.3642C404,-41.694 404,-32.1105 404,-24.2546"/>
<polygon fill="black" stroke="black" points="407.5,-24.0006 404,-14.0006 400.5,-24.0007 407.5,-24.0006"/>
</g>
<!-- setup_R -->
<g id="node12" class="node"><title>setup_R</title>
<path fill="#ffffcc" stroke="black" d="M300.128,-691.2C300.128,-691.2 255.872,-691.2 255.872,-691.2 249.872,-691.2 243.872,-685.2 243.872,-679.2 243.872,-679.2 243.872,-667.2 243.872,-667.2 243.872,-661.2 249.872,-655.2 255.872,-655.2 255.872,-655.2 300.128,-655.2 300.128,-655.2 306.128,-655.2 312.128,-661.2 312.128,-667.2 312.128,-667.2 312.128,-679.2 312.128,-679.2 312.128,-685.2 306.128,-691.2 300.128,-691.2"/>
<text text-anchor="middle" x="278" y="-669" font-family="Helvetica,sans-Serif" font-size="14.00">setup_R</text>
</g>
<!-- setup_R&#45;&gt;set_up_configuration_and_start_provenance_tracking -->
<g id="edge2" class="edge"><title>setup_R&#45;&gt;set_up_configuration_and_start_provenance_tracking</title>
<path fill="none" stroke="black" d="M278,-654.897C278,-647.183 278,-637.912 278,-629.312"/>
<polygon fill="black" stroke="black" points="281.5,-629.304 278,-619.304 274.5,-629.304 281.5,-629.304"/>
</g>
<!-- area_protected_total_file -->
<g id="node13" class="node"><title>area_protected_total_file</title>
<path fill="#ffffcc" stroke="black" d="M216.561,-353.1C216.561,-353.1 489.439,-353.1 489.439,-353.1 495.439,-353.1 501.439,-359.1 501.439,-365.1 501.439,-365.1 501.439,-390.7 501.439,-390.7 501.439,-396.7 495.439,-402.7 489.439,-402.7 489.439,-402.7 216.561,-402.7 216.561,-402.7 210.561,-402.7 204.561,-396.7 204.561,-390.7 204.561,-390.7 204.561,-365.1 204.561,-365.1 204.561,-359.1 210.561,-353.1 216.561,-353.1"/>
<text text-anchor="middle" x="353" y="-386.1" font-family="Helvetica,sans-Serif" font-size="14.00">area_protected_total_file</text>
<polyline fill="none" stroke="black" points="204.561,-377.9 501.439,-377.9 "/>
<text text-anchor="middle" x="353" y="-361.3" font-family="Helvetica,sans-Serif" font-size="14.00">file:{dir_goal}/output/area_protected_total.csv</text>
</g>
<!-- area_protected_total_file&#45;&gt;output_estimate_status_file_by_region_since_1980 -->
<g id="edge10" class="edge"><title>area_protected_total_file&#45;&gt;output_estimate_status_file_by_region_since_1980</title>
<path fill="none" stroke="black" d="M314.476,-353.077C298.525,-343.213 280.119,-331.83 264.398,-322.108"/>
<polygon fill="black" stroke="black" points="265.837,-318.883 255.491,-316.6 262.155,-324.837 265.837,-318.883"/>
</g>
<!-- area_protected_total_file&#45;&gt;output_estimate_trend_file_by_region_since_1980 -->
<g id="edge17" class="edge"><title>area_protected_total_file&#45;&gt;output_estimate_trend_file_by_region_since_1980</title>
<path fill="none" stroke="black" d="M422.96,-353.077C454.227,-342.429 490.692,-330.012 520.608,-319.825"/>
<polygon fill="black" stroke="black" points="521.738,-323.137 530.076,-316.6 519.482,-316.511 521.738,-323.137"/>
</g>
<!-- status_file_handle&#45;&gt;output_estimate_status_file_by_region_since_1980 -->
<g id="edge11" class="edge"><title>status_file_handle&#45;&gt;output_estimate_status_file_by_region_since_1980</title>
<path fill="none" stroke="black" d="M145.525,-359.745C160.483,-348.836 180.035,-334.578 196.347,-322.683"/>
<polygon fill="black" stroke="black" points="198.523,-325.428 204.541,-316.707 194.399,-319.772 198.523,-325.428"/>
</g>
<!-- status_df_data&#45;&gt;write_status_to_csv_file -->
<g id="edge13" class="edge"><title>status_df_data&#45;&gt;write_status_to_csv_file</title>
<path fill="none" stroke="black" d="M206.989,-208.297C196.284,-199.481 183.11,-188.632 171.504,-179.074"/>
<polygon fill="black" stroke="black" points="173.714,-176.36 163.77,-172.704 169.264,-181.763 173.714,-176.36"/>
</g>
<!-- status_df_data&#45;&gt;save_year_by_year_status_and_trend_estimates -->
<g id="edge22" class="edge"><title>status_df_data&#45;&gt;save_year_by_year_status_and_trend_estimates</title>
<path fill="none" stroke="black" d="M271.054,-208.476C295.329,-198.822 325.84,-186.687 351.508,-176.478"/>
<polygon fill="black" stroke="black" points="353.087,-179.616 361.085,-172.668 350.5,-173.112 353.087,-179.616"/>
</g>
<!-- trend_file_handle&#45;&gt;output_estimate_trend_file_by_region_since_1980 -->
<g id="edge18" class="edge"><title>trend_file_handle&#45;&gt;output_estimate_trend_file_by_region_since_1980</title>
<path fill="none" stroke="black" d="M657.807,-359.745C643.824,-348.936 625.588,-334.84 610.285,-323.011"/>
<polygon fill="black" stroke="black" points="612.184,-320.054 602.131,-316.707 607.902,-325.592 612.184,-320.054"/>
</g>
<!-- trend_df_data&#45;&gt;write_trend_to_csv_file -->
<g id="edge20" class="edge"><title>trend_df_data&#45;&gt;write_trend_to_csv_file</title>
<path fill="none" stroke="black" d="M600.27,-208.297C610.498,-199.565 623.061,-188.84 634.178,-179.35"/>
<polygon fill="black" stroke="black" points="636.63,-181.859 641.963,-172.704 632.085,-176.535 636.63,-181.859"/>
</g>
<!-- trend_df_data&#45;&gt;save_year_by_year_status_and_trend_estimates -->
<g id="edge23" class="edge"><title>trend_df_data&#45;&gt;save_year_by_year_status_and_trend_estimates</title>
<path fill="none" stroke="black" d="M536.946,-208.476C512.671,-198.822 482.16,-186.687 456.492,-176.478"/>
<polygon fill="black" stroke="black" points="457.5,-173.112 446.915,-172.668 454.913,-179.616 457.5,-173.112"/>
</g>
<!-- dir_goal&#45;&gt;create_new_stats_and_trend_file -->
<g id="edge5" class="edge"><title>dir_goal&#45;&gt;create_new_stats_and_trend_file</title>
<path fill="none" stroke="black" d="M278,-510.897C278,-503.183 278,-493.912 278,-485.312"/>
<polygon fill="black" stroke="black" points="281.5,-485.304 278,-475.304 274.5,-485.304 281.5,-485.304"/>
</g>
<!-- dir_goal&#45;&gt;output_estimate_status_file_by_region_since_1980 -->
<g id="edge9" class="edge"><title>dir_goal&#45;&gt;output_estimate_status_file_by_region_since_1980</title>
<path fill="none" stroke="black" d="M244.95,-521.915C191.713,-509.762 88.9103,-477.394 49,-403.2 38.3464,-383.395 35.5433,-370.619 49,-352.6 59.1051,-339.069 90.6461,-327.772 124.496,-319.132"/>
<polygon fill="black" stroke="black" points="125.696,-322.441 134.569,-316.651 124.023,-315.644 125.696,-322.441"/>
</g>
<!-- dir_goal&#45;&gt;output_estimate_trend_file_by_region_since_1980 -->
<g id="edge15" class="edge"><title>dir_goal&#45;&gt;output_estimate_trend_file_by_region_since_1980</title>
<path fill="none" stroke="black" d="M310.794,-529.046C378.203,-529.635 536.064,-525.05 656,-475.2 704.921,-454.866 727.427,-450.645 751,-403.2 761.007,-383.06 764.342,-370.704 751,-352.6 740.904,-338.901 727.304,-328.637 712.161,-320.966"/>
<polygon fill="black" stroke="black" points="713.624,-317.786 703.081,-316.742 710.672,-324.133 713.624,-317.786"/>
</g>
<!-- year_span&#45;&gt;output_estimate_status_file_by_region_since_1980 -->
<g id="edge8" class="edge"><title>year_span&#45;&gt;output_estimate_status_file_by_region_since_1980</title>
<path fill="none" stroke="black" d="M527.981,-359.791C522.112,-357.103 515.957,-354.568 510,-352.6 464.831,-337.677 414.121,-326.513 368.289,-318.38"/>
<polygon fill="black" stroke="black" points="368.735,-314.905 358.283,-316.638 367.535,-321.801 368.735,-314.905"/>
</g>
<!-- year_span&#45;&gt;output_estimate_trend_file_by_region_since_1980 -->
<g id="edge16" class="edge"><title>year_span&#45;&gt;output_estimate_trend_file_by_region_since_1980</title>
<path fill="none" stroke="black" d="M564.439,-359.745C566.95,-350.037 570.148,-337.677 572.991,-326.69"/>
<polygon fill="black" stroke="black" points="576.457,-327.265 575.574,-316.707 569.68,-325.512 576.457,-327.265"/>
</g>
<!-- setup_R_input_port -->
<g id="node20" class="node"><title>setup_R_input_port</title>
<ellipse fill="#ffffff" stroke="black" cx="278" cy="-734.2" rx="7" ry="7"/>
</g>
<!-- setup_R_input_port&#45;&gt;setup_R -->
<g id="edge24" class="edge"><title>setup_R_input_port&#45;&gt;setup_R</title>
<path fill="none" stroke="black" d="M278,-726.886C278,-720.686 278,-710.795 278,-701.248"/>
<polygon fill="black" stroke="black" points="281.5,-701.216 278,-691.216 274.5,-701.216 281.5,-701.216"/>
</g>
<!-- area_protected_total_file_input_port -->
<g id="node21" class="node"><title>area_protected_total_file_input_port</title>
<ellipse fill="#ffffff" stroke="black" cx="7" cy="-457.2" rx="7" ry="7"/>
</g>
<!-- area_protected_total_file_input_port&#45;&gt;area_protected_total_file -->
<g id="edge25" class="edge"><title>area_protected_total_file_input_port&#45;&gt;area_protected_total_file</title>
<path fill="none" stroke="black" d="M11.1514,-451.217C14.6875,-447.317 20.1189,-442.085 26,-439.2 42.0268,-431.337 118.911,-416.994 194.099,-404.269"/>
<polygon fill="black" stroke="black" points="194.931,-407.679 204.211,-402.566 193.768,-400.776 194.931,-407.679"/>
</g>
</g>
</svg>
