<?xml version="1.0" encoding="UTF-8" standalone="no"?>
<!DOCTYPE svg PUBLIC "-//W3C//DTD SVG 1.1//EN"
 "http://www.w3.org/Graphics/SVG/1.1/DTD/svg11.dtd">
<!-- Generated by graphviz version 2.38.0 (20140413.2041)
 -->
<!-- Title: Workflow Pages: 1 -->
<svg width="1662pt" height="466pt"
 viewBox="0.00 0.00 1662.42 465.60" xmlns="http://www.w3.org/2000/svg" xmlns:xlink="http://www.w3.org/1999/xlink">
<g id="graph0" class="graph" transform="scale(1 1) rotate(0) translate(4 461.6)">
<title>Workflow</title>
<polygon fill="white" stroke="none" points="-4,4 -4,-461.6 1658.42,-461.6 1658.42,4 -4,4"/>
<text text-anchor="middle" x="827.21" y="-437.4" font-family="Helvetica,sans-Serif" font-size="18.00">calculate_goal_model</text>
<g id="clust1" class="cluster"><title>cluster_workflow_box_outer</title>
<polygon fill="none" stroke="black" stroke-width="2" points="34,-8 34,-420 1620.42,-420 1620.42,-8 34,-8"/>
</g>
<g id="clust2" class="cluster"><title>cluster_workflow_box_inner</title>
<polygon fill="none" stroke="black" stroke-width="0" points="42,-16 42,-412 1612.42,-412 1612.42,-16 42,-16"/>
</g>
<!-- set_up_configuration_and_start_provenance_tracking -->
<g id="node1" class="node"><title>set_up_configuration_and_start_provenance_tracking</title>
<polygon fill="#ccffcc" stroke="black" points="790.112,-401 440.544,-401 440.544,-365 790.112,-365 790.112,-401"/>
<text text-anchor="middle" x="615.328" y="-378.8" font-family="Helvetica,sans-Serif" font-size="14.00">set_up_configuration_and_start_provenance_tracking</text>
</g>
<!-- dir_goal -->
<g id="node18" class="node"><title>dir_goal</title>
<path fill="#fcfcfc" stroke="black" d="M902.858,-383C902.858,-383 861.283,-383 861.283,-383 855.283,-383 849.283,-377 849.283,-371 849.283,-371 849.283,-359 849.283,-359 849.283,-353 855.283,-347 861.283,-347 861.283,-347 902.858,-347 902.858,-347 908.858,-347 914.858,-353 914.858,-359 914.858,-359 914.858,-371 914.858,-371 914.858,-377 908.858,-383 902.858,-383"/>
<text text-anchor="middle" x="882.07" y="-360.8" font-family="Helvetica,sans-Serif" font-size="14.00">dir_goal</text>
</g>
<!-- set_up_configuration_and_start_provenance_tracking&#45;&gt;dir_goal -->
<g id="edge1" class="edge"><title>set_up_configuration_and_start_provenance_tracking&#45;&gt;dir_goal</title>
<path fill="none" stroke="black" d="M790.331,-371.169C808.135,-369.959 824.82,-368.825 838.905,-367.867"/>
<polygon fill="black" stroke="black" points="839.406,-371.341 849.146,-367.171 838.931,-364.357 839.406,-371.341"/>
</g>
<!-- read_in_OHI_region_rasters -->
<g id="node2" class="node"><title>read_in_OHI_region_rasters</title>
<polygon fill="#ccffcc" stroke="black" points="711.419,-210 519.237,-210 519.237,-174 711.419,-174 711.419,-210"/>
<text text-anchor="middle" x="615.328" y="-187.8" font-family="Helvetica,sans-Serif" font-size="14.00">read_in_OHI_region_rasters</text>
</g>
<!-- rast_3nm -->
<g id="node13" class="node"><title>rast_3nm</title>
<path fill="#ffffcc" stroke="black" d="M907.413,-320C907.413,-320 856.727,-320 856.727,-320 850.727,-320 844.727,-314 844.727,-308 844.727,-308 844.727,-296 844.727,-296 844.727,-290 850.727,-284 856.727,-284 856.727,-284 907.413,-284 907.413,-284 913.413,-284 919.413,-290 919.413,-296 919.413,-296 919.413,-308 919.413,-308 919.413,-314 913.413,-320 907.413,-320"/>
<text text-anchor="middle" x="882.07" y="-297.8" font-family="Helvetica,sans-Serif" font-size="14.00">rast_3nm</text>
</g>
<!-- read_in_OHI_region_rasters&#45;&gt;rast_3nm -->
<g id="edge3" class="edge"><title>read_in_OHI_region_rasters&#45;&gt;rast_3nm</title>
<path fill="none" stroke="black" d="M659.748,-210.041C708.157,-230.155 786.106,-262.542 835.405,-283.026"/>
<polygon fill="black" stroke="black" points="834.289,-286.352 844.866,-286.957 836.974,-279.888 834.289,-286.352"/>
</g>
<!-- rast_1km -->
<g id="node14" class="node"><title>rast_1km</title>
<path fill="#ffffcc" stroke="black" d="M906.631,-104C906.631,-104 857.509,-104 857.509,-104 851.509,-104 845.509,-98 845.509,-92 845.509,-92 845.509,-80 845.509,-80 845.509,-74 851.509,-68 857.509,-68 857.509,-68 906.631,-68 906.631,-68 912.631,-68 918.631,-74 918.631,-80 918.631,-80 918.631,-92 918.631,-92 918.631,-98 912.631,-104 906.631,-104"/>
<text text-anchor="middle" x="882.07" y="-81.8" font-family="Helvetica,sans-Serif" font-size="14.00">rast_1km</text>
</g>
<!-- read_in_OHI_region_rasters&#45;&gt;rast_1km -->
<g id="edge4" class="edge"><title>read_in_OHI_region_rasters&#45;&gt;rast_1km</title>
<path fill="none" stroke="black" d="M661.538,-173.898C710.273,-154.385 787.384,-123.511 836.047,-104.027"/>
<polygon fill="black" stroke="black" points="837.401,-107.255 845.383,-100.289 834.799,-100.757 837.401,-107.255"/>
</g>
<!-- rast_ws -->
<g id="node15" class="node"><title>rast_ws</title>
<path fill="#ffffcc" stroke="black" d="M902.294,-158C902.294,-158 861.847,-158 861.847,-158 855.847,-158 849.847,-152 849.847,-146 849.847,-146 849.847,-134 849.847,-134 849.847,-128 855.847,-122 861.847,-122 861.847,-122 902.294,-122 902.294,-122 908.294,-122 914.294,-128 914.294,-134 914.294,-134 914.294,-146 914.294,-146 914.294,-152 908.294,-158 902.294,-158"/>
<text text-anchor="middle" x="882.07" y="-135.8" font-family="Helvetica,sans-Serif" font-size="14.00">rast_ws</text>
</g>
<!-- read_in_OHI_region_rasters&#45;&gt;rast_ws -->
<g id="edge5" class="edge"><title>read_in_OHI_region_rasters&#45;&gt;rast_ws</title>
<path fill="none" stroke="black" d="M708.179,-173.959C753.035,-165.148 804.76,-154.989 839.86,-148.095"/>
<polygon fill="black" stroke="black" points="840.607,-151.515 849.745,-146.153 839.258,-144.646 840.607,-151.515"/>
</g>
<!-- rast_pep -->
<g id="node16" class="node"><title>rast_pep</title>
<path fill="#ffffcc" stroke="black" d="M905.536,-212C905.536,-212 858.605,-212 858.605,-212 852.605,-212 846.605,-206 846.605,-200 846.605,-200 846.605,-188 846.605,-188 846.605,-182 852.605,-176 858.605,-176 858.605,-176 905.536,-176 905.536,-176 911.536,-176 917.536,-182 917.536,-188 917.536,-188 917.536,-200 917.536,-200 917.536,-206 911.536,-212 905.536,-212"/>
<text text-anchor="middle" x="882.07" y="-189.8" font-family="Helvetica,sans-Serif" font-size="14.00">rast_pep</text>
</g>
<!-- read_in_OHI_region_rasters&#45;&gt;rast_pep -->
<g id="edge6" class="edge"><title>read_in_OHI_region_rasters&#45;&gt;rast_pep</title>
<path fill="none" stroke="black" d="M711.532,-192.719C754.253,-193.042 802.594,-193.407 836.694,-193.665"/>
<polygon fill="black" stroke="black" points="836.772,-197.165 846.798,-193.741 836.825,-190.166 836.772,-197.165"/>
</g>
<!-- rast_wdpa_pep -->
<g id="node17" class="node"><title>rast_wdpa_pep</title>
<path fill="#ffffcc" stroke="black" d="M925.772,-266C925.772,-266 838.369,-266 838.369,-266 832.369,-266 826.369,-260 826.369,-254 826.369,-254 826.369,-242 826.369,-242 826.369,-236 832.369,-230 838.369,-230 838.369,-230 925.772,-230 925.772,-230 931.772,-230 937.772,-236 937.772,-242 937.772,-242 937.772,-254 937.772,-254 937.772,-260 931.772,-266 925.772,-266"/>
<text text-anchor="middle" x="882.07" y="-243.8" font-family="Helvetica,sans-Serif" font-size="14.00">rast_wdpa_pep</text>
</g>
<!-- read_in_OHI_region_rasters&#45;&gt;rast_wdpa_pep -->
<g id="edge7" class="edge"><title>read_in_OHI_region_rasters&#45;&gt;rast_wdpa_pep</title>
<path fill="none" stroke="black" d="M701.551,-210.027C738.697,-217.884 781.541,-226.947 816.056,-234.248"/>
<polygon fill="black" stroke="black" points="815.512,-237.71 826.02,-236.355 816.96,-230.862 815.512,-237.71"/>
</g>
<!-- outputs_zonal_stats_dataframes_for_protected_cells -->
<g id="node3" class="node"><title>outputs_zonal_stats_dataframes_for_protected_cells</title>
<polygon fill="#ccffcc" stroke="black" points="1318.41,-239 973.758,-239 973.758,-203 1318.41,-203 1318.41,-239"/>
<text text-anchor="middle" x="1146.08" y="-216.8" font-family="Helvetica,sans-Serif" font-size="14.00">outputs_zonal_stats_dataframes_for_protected_cells</text>
</g>
<!-- zonal_3nm_file -->
<g id="node4" class="node"><title>zonal_3nm_file</title>
<path fill="#ffffcc" stroke="black" d="M1366.25,-265.2C1366.25,-265.2 1592.42,-265.2 1592.42,-265.2 1598.42,-265.2 1604.42,-271.2 1604.42,-277.2 1604.42,-277.2 1604.42,-302.8 1604.42,-302.8 1604.42,-308.8 1598.42,-314.8 1592.42,-314.8 1592.42,-314.8 1366.25,-314.8 1366.25,-314.8 1360.25,-314.8 1354.25,-308.8 1354.25,-302.8 1354.25,-302.8 1354.25,-277.2 1354.25,-277.2 1354.25,-271.2 1360.25,-265.2 1366.25,-265.2"/>
<text text-anchor="middle" x="1479.33" y="-298.2" font-family="Helvetica,sans-Serif" font-size="14.00">zonal_3nm_file</text>
<polyline fill="none" stroke="black" points="1354.25,-290 1604.42,-290 "/>
<text text-anchor="middle" x="1479.33" y="-273.4" font-family="Helvetica,sans-Serif" font-size="14.00">file:{dir_goal}/int/zonal_stats_3nm.csv</text>
</g>
<!-- outputs_zonal_stats_dataframes_for_protected_cells&#45;&gt;zonal_3nm_file -->
<g id="edge13" class="edge"><title>outputs_zonal_stats_dataframes_for_protected_cells&#45;&gt;zonal_3nm_file</title>
<path fill="none" stroke="black" d="M1233.68,-239.039C1269.03,-246.401 1310.64,-255.069 1349.43,-263.148"/>
<polygon fill="black" stroke="black" points="1348.72,-266.576 1359.22,-265.188 1350.14,-259.723 1348.72,-266.576"/>
</g>
<!-- zonal_1km_file -->
<g id="node5" class="node"><title>zonal_1km_file</title>
<path fill="#ffffcc" stroke="black" d="M1366.64,-196.2C1366.64,-196.2 1592.03,-196.2 1592.03,-196.2 1598.03,-196.2 1604.03,-202.2 1604.03,-208.2 1604.03,-208.2 1604.03,-233.8 1604.03,-233.8 1604.03,-239.8 1598.03,-245.8 1592.03,-245.8 1592.03,-245.8 1366.64,-245.8 1366.64,-245.8 1360.64,-245.8 1354.64,-239.8 1354.64,-233.8 1354.64,-233.8 1354.64,-208.2 1354.64,-208.2 1354.64,-202.2 1360.64,-196.2 1366.64,-196.2"/>
<text text-anchor="middle" x="1479.33" y="-229.2" font-family="Helvetica,sans-Serif" font-size="14.00">zonal_1km_file</text>
<polyline fill="none" stroke="black" points="1354.64,-221 1604.03,-221 "/>
<text text-anchor="middle" x="1479.33" y="-204.4" font-family="Helvetica,sans-Serif" font-size="14.00">file:{dir_goal}/int/zonal_stats_1km.csv</text>
</g>
<!-- outputs_zonal_stats_dataframes_for_protected_cells&#45;&gt;zonal_1km_file -->
<g id="edge14" class="edge"><title>outputs_zonal_stats_dataframes_for_protected_cells&#45;&gt;zonal_1km_file</title>
<path fill="none" stroke="black" d="M1318.53,-221C1327.27,-221 1335.98,-221 1344.58,-221"/>
<polygon fill="black" stroke="black" points="1344.61,-224.5 1354.61,-221 1344.61,-217.5 1344.61,-224.5"/>
</g>
<!-- zonal_ws_file -->
<g id="node6" class="node"><title>zonal_ws_file</title>
<path fill="#ffffcc" stroke="black" d="M1371.31,-127.2C1371.31,-127.2 1587.36,-127.2 1587.36,-127.2 1593.36,-127.2 1599.36,-133.2 1599.36,-139.2 1599.36,-139.2 1599.36,-164.8 1599.36,-164.8 1599.36,-170.8 1593.36,-176.8 1587.36,-176.8 1587.36,-176.8 1371.31,-176.8 1371.31,-176.8 1365.31,-176.8 1359.31,-170.8 1359.31,-164.8 1359.31,-164.8 1359.31,-139.2 1359.31,-139.2 1359.31,-133.2 1365.31,-127.2 1371.31,-127.2"/>
<text text-anchor="middle" x="1479.33" y="-160.2" font-family="Helvetica,sans-Serif" font-size="14.00">zonal_ws_file</text>
<polyline fill="none" stroke="black" points="1359.31,-152 1599.36,-152 "/>
<text text-anchor="middle" x="1479.33" y="-135.4" font-family="Helvetica,sans-Serif" font-size="14.00">file:{dir_goal}/int/zonal_stats_ws.csv</text>
</g>
<!-- outputs_zonal_stats_dataframes_for_protected_cells&#45;&gt;zonal_ws_file -->
<g id="edge15" class="edge"><title>outputs_zonal_stats_dataframes_for_protected_cells&#45;&gt;zonal_ws_file</title>
<path fill="none" stroke="black" d="M1233.68,-202.961C1269.03,-195.599 1310.64,-186.931 1349.43,-178.852"/>
<polygon fill="black" stroke="black" points="1350.14,-182.277 1359.22,-176.812 1348.72,-175.424 1350.14,-182.277"/>
</g>
<!-- zonal_3nm_file_output_port -->
<g id="node25" class="node"><title>zonal_3nm_file_output_port</title>
<ellipse fill="#ffffff" stroke="black" cx="1647.42" cy="-290" rx="7" ry="7"/>
</g>
<!-- zonal_3nm_file&#45;&gt;zonal_3nm_file_output_port -->
<g id="edge28" class="edge"><title>zonal_3nm_file&#45;&gt;zonal_3nm_file_output_port</title>
<path fill="none" stroke="black" d="M1604.51,-290C1614.37,-290 1623.19,-290 1630.17,-290"/>
<polygon fill="black" stroke="black" points="1630.3,-293.5 1640.3,-290 1630.3,-286.5 1630.3,-293.5"/>
</g>
<!-- zonal_1km_file_output_port -->
<g id="node26" class="node"><title>zonal_1km_file_output_port</title>
<ellipse fill="#ffffff" stroke="black" cx="1647.42" cy="-221" rx="7" ry="7"/>
</g>
<!-- zonal_1km_file&#45;&gt;zonal_1km_file_output_port -->
<g id="edge29" class="edge"><title>zonal_1km_file&#45;&gt;zonal_1km_file_output_port</title>
<path fill="none" stroke="black" d="M1604.08,-221C1614.03,-221 1622.94,-221 1629.99,-221"/>
<polygon fill="black" stroke="black" points="1630.23,-224.5 1640.23,-221 1630.23,-217.5 1630.23,-224.5"/>
</g>
<!-- zonal_ws_file_output_port -->
<g id="node27" class="node"><title>zonal_ws_file_output_port</title>
<ellipse fill="#ffffff" stroke="black" cx="1647.42" cy="-152" rx="7" ry="7"/>
</g>
<!-- zonal_ws_file&#45;&gt;zonal_ws_file_output_port -->
<g id="edge30" class="edge"><title>zonal_ws_file&#45;&gt;zonal_ws_file_output_port</title>
<path fill="none" stroke="black" d="M1599.71,-152C1611.5,-152 1622.06,-152 1630.15,-152"/>
<polygon fill="black" stroke="black" points="1630.36,-155.5 1640.36,-152 1630.36,-148.5 1630.36,-155.5"/>
</g>
<!-- setup.R -->
<g id="node7" class="node"><title>setup.R</title>
<path fill="#ffffcc" stroke="black" d="M247.454,-404C247.454,-404 206.982,-404 206.982,-404 200.982,-404 194.982,-398 194.982,-392 194.982,-392 194.982,-380 194.982,-380 194.982,-374 200.982,-368 206.982,-368 206.982,-368 247.454,-368 247.454,-368 253.454,-368 259.454,-374 259.454,-380 259.454,-380 259.454,-392 259.454,-392 259.454,-398 253.454,-404 247.454,-404"/>
<text text-anchor="middle" x="227.218" y="-381.8" font-family="Helvetica,sans-Serif" font-size="14.00">setup.R</text>
</g>
<!-- setup.R&#45;&gt;set_up_configuration_and_start_provenance_tracking -->
<g id="edge2" class="edge"><title>setup.R&#45;&gt;set_up_configuration_and_start_provenance_tracking</title>
<path fill="none" stroke="black" d="M259.488,-385.757C297.398,-385.462 364.393,-384.942 430.035,-384.432"/>
<polygon fill="black" stroke="black" points="430.157,-387.931 440.129,-384.353 430.102,-380.931 430.157,-387.931"/>
</g>
<!-- rast_3nm_raster_file -->
<g id="node8" class="node"><title>rast_3nm_raster_file</title>
<path fill="#ffffcc" stroke="black" d="M69.3969,-300.2C69.3969,-300.2 385.039,-300.2 385.039,-300.2 391.039,-300.2 397.039,-306.2 397.039,-312.2 397.039,-312.2 397.039,-337.8 397.039,-337.8 397.039,-343.8 391.039,-349.8 385.039,-349.8 385.039,-349.8 69.3969,-349.8 69.3969,-349.8 63.3969,-349.8 57.3969,-343.8 57.3969,-337.8 57.3969,-337.8 57.3969,-312.2 57.3969,-312.2 57.3969,-306.2 63.3969,-300.2 69.3969,-300.2"/>
<text text-anchor="middle" x="227.218" y="-333.2" font-family="Helvetica,sans-Serif" font-size="14.00">rast_3nm_raster_file</text>
<polyline fill="none" stroke="black" points="57.3969,-325 397.039,-325 "/>
<text text-anchor="middle" x="227.218" y="-308.4" font-family="Helvetica,sans-Serif" font-size="14.00">file:{dir_goal}/spatial/hs_offshore_3nm_raster_500m</text>
</g>
<!-- rast_3nm_raster_file&#45;&gt;read_in_OHI_region_rasters -->
<g id="edge8" class="edge"><title>rast_3nm_raster_file&#45;&gt;read_in_OHI_region_rasters</title>
<path fill="none" stroke="black" d="M369.436,-300.109C381.369,-297.053 393.172,-293.688 404.436,-290 465.195,-270.104 531.435,-237.126 572.917,-214.987"/>
<polygon fill="black" stroke="black" points="574.742,-217.979 581.891,-210.16 571.426,-211.814 574.742,-217.979"/>
</g>
<!-- rast_1km_raster_file -->
<g id="node9" class="node"><title>rast_1km_raster_file</title>
<path fill="#ffffcc" stroke="black" d="M76.4025,-231.2C76.4025,-231.2 378.034,-231.2 378.034,-231.2 384.034,-231.2 390.034,-237.2 390.034,-243.2 390.034,-243.2 390.034,-268.8 390.034,-268.8 390.034,-274.8 384.034,-280.8 378.034,-280.8 378.034,-280.8 76.4025,-280.8 76.4025,-280.8 70.4025,-280.8 64.4025,-274.8 64.4025,-268.8 64.4025,-268.8 64.4025,-243.2 64.4025,-243.2 64.4025,-237.2 70.4025,-231.2 76.4025,-231.2"/>
<text text-anchor="middle" x="227.218" y="-264.2" font-family="Helvetica,sans-Serif" font-size="14.00">rast_1km_raster_file</text>
<polyline fill="none" stroke="black" points="64.4025,-256 390.034,-256 "/>
<text text-anchor="middle" x="227.218" y="-239.4" font-family="Helvetica,sans-Serif" font-size="14.00">file:{dir_goal}/spatial/hs_inland_1km_raster_500m</text>
</g>
<!-- rast_1km_raster_file&#45;&gt;read_in_OHI_region_rasters -->
<g id="edge9" class="edge"><title>rast_1km_raster_file&#45;&gt;read_in_OHI_region_rasters</title>
<path fill="none" stroke="black" d="M378.051,-231.164C421.824,-223.909 468.723,-216.135 509.105,-209.441"/>
<polygon fill="black" stroke="black" points="509.933,-212.852 519.226,-207.764 508.788,-205.946 509.933,-212.852"/>
</g>
<!-- rast_ws_raster_file -->
<g id="node10" class="node"><title>rast_ws_raster_file</title>
<path fill="#ffffcc" stroke="black" d="M62,-162.2C62,-162.2 392.436,-162.2 392.436,-162.2 398.436,-162.2 404.436,-168.2 404.436,-174.2 404.436,-174.2 404.436,-199.8 404.436,-199.8 404.436,-205.8 398.436,-211.8 392.436,-211.8 392.436,-211.8 62,-211.8 62,-211.8 56,-211.8 50,-205.8 50,-199.8 50,-199.8 50,-174.2 50,-174.2 50,-168.2 56,-162.2 62,-162.2"/>
<text text-anchor="middle" x="227.218" y="-195.2" font-family="Helvetica,sans-Serif" font-size="14.00">rast_ws_raster_file</text>
<polyline fill="none" stroke="black" points="50,-187 404.436,-187 "/>
<text text-anchor="middle" x="227.218" y="-170.4" font-family="Helvetica,sans-Serif" font-size="14.00">file:{dir_goal}/spatial/howe_sound_watershed_500m.tif</text>
</g>
<!-- rast_ws_raster_file&#45;&gt;read_in_OHI_region_rasters -->
<g id="edge10" class="edge"><title>rast_ws_raster_file&#45;&gt;read_in_OHI_region_rasters</title>
<path fill="none" stroke="black" d="M404.606,-189.284C440.202,-189.745 476.559,-190.216 508.789,-190.633"/>
<polygon fill="black" stroke="black" points="509.057,-194.137 519.102,-190.767 509.148,-187.138 509.057,-194.137"/>
</g>
<!-- rast_pep_file -->
<g id="node11" class="node"><title>rast_pep_file</title>
<path fill="#ffffcc" stroke="black" d="M62,-93.2C62,-93.2 392.436,-93.2 392.436,-93.2 398.436,-93.2 404.436,-99.2 404.436,-105.2 404.436,-105.2 404.436,-130.8 404.436,-130.8 404.436,-136.8 398.436,-142.8 392.436,-142.8 392.436,-142.8 62,-142.8 62,-142.8 56,-142.8 50,-136.8 50,-130.8 50,-130.8 50,-105.2 50,-105.2 50,-99.2 56,-93.2 62,-93.2"/>
<text text-anchor="middle" x="227.218" y="-126.2" font-family="Helvetica,sans-Serif" font-size="14.00">rast_pep_file</text>
<polyline fill="none" stroke="black" points="50,-118 404.436,-118 "/>
<text text-anchor="middle" x="227.218" y="-101.4" font-family="Helvetica,sans-Serif" font-size="14.00">file:{dir_goal}/spatial/howe_sound_watershed_500m.tif</text>
</g>
<!-- rast_pep_file&#45;&gt;read_in_OHI_region_rasters -->
<g id="edge11" class="edge"><title>rast_pep_file&#45;&gt;read_in_OHI_region_rasters</title>
<path fill="none" stroke="black" d="M357.861,-142.847C407.46,-152.353 463.341,-163.063 510.251,-172.053"/>
<polygon fill="black" stroke="black" points="509.639,-175.499 520.119,-173.944 510.956,-168.625 509.639,-175.499"/>
</g>
<!-- rast_wdpa_pep_file -->
<g id="node12" class="node"><title>rast_wdpa_pep_file</title>
<path fill="#ffffcc" stroke="black" d="M94.2924,-24.2C94.2924,-24.2 360.144,-24.2 360.144,-24.2 366.144,-24.2 372.144,-30.2 372.144,-36.2 372.144,-36.2 372.144,-61.8 372.144,-61.8 372.144,-67.8 366.144,-73.8 360.144,-73.8 360.144,-73.8 94.2924,-73.8 94.2924,-73.8 88.2924,-73.8 82.2924,-67.8 82.2924,-61.8 82.2924,-61.8 82.2924,-36.2 82.2924,-36.2 82.2924,-30.2 88.2924,-24.2 94.2924,-24.2"/>
<text text-anchor="middle" x="227.218" y="-57.2" font-family="Helvetica,sans-Serif" font-size="14.00">rast_wdpa_pep_file</text>
<polyline fill="none" stroke="black" points="82.2924,-49 372.144,-49 "/>
<text text-anchor="middle" x="227.218" y="-32.4" font-family="Helvetica,sans-Serif" font-size="14.00">file:{dir_goal}/spatial/hs_wdpa_rast_500m.tif</text>
</g>
<!-- rast_wdpa_pep_file&#45;&gt;read_in_OHI_region_rasters -->
<g id="edge12" class="edge"><title>rast_wdpa_pep_file&#45;&gt;read_in_OHI_region_rasters</title>
<path fill="none" stroke="black" d="M371.472,-73.924C382.729,-76.9511 393.834,-80.3015 404.436,-84 467.749,-106.086 535.874,-144.06 576.795,-168.589"/>
<polygon fill="black" stroke="black" points="575.23,-171.733 585.598,-173.911 578.851,-165.742 575.23,-171.733"/>
</g>
<!-- rast_3nm&#45;&gt;outputs_zonal_stats_dataframes_for_protected_cells -->
<g id="edge17" class="edge"><title>rast_3nm&#45;&gt;outputs_zonal_stats_dataframes_for_protected_cells</title>
<path fill="none" stroke="black" d="M919.502,-290.737C960.104,-278.185 1026.66,-257.611 1076.98,-242.055"/>
<polygon fill="black" stroke="black" points="1078.29,-245.312 1086.81,-239.014 1076.22,-238.624 1078.29,-245.312"/>
</g>
<!-- rast_1km&#45;&gt;outputs_zonal_stats_dataframes_for_protected_cells -->
<g id="edge18" class="edge"><title>rast_1km&#45;&gt;outputs_zonal_stats_dataframes_for_protected_cells</title>
<path fill="none" stroke="black" d="M918.831,-103.455C925.202,-106.606 931.767,-109.882 937.921,-113 994.935,-141.889 1060.25,-176.134 1102.05,-198.196"/>
<polygon fill="black" stroke="black" points="1100.64,-201.409 1111.12,-202.985 1103.91,-195.219 1100.64,-201.409"/>
</g>
<!-- rast_ws&#45;&gt;outputs_zonal_stats_dataframes_for_protected_cells -->
<g id="edge19" class="edge"><title>rast_ws&#45;&gt;outputs_zonal_stats_dataframes_for_protected_cells</title>
<path fill="none" stroke="black" d="M914.415,-149.69C954.376,-162.044 1024.57,-183.744 1077.06,-199.971"/>
<polygon fill="black" stroke="black" points="1076.06,-203.324 1086.65,-202.934 1078.13,-196.637 1076.06,-203.324"/>
</g>
<!-- rast_pep&#45;&gt;outputs_zonal_stats_dataframes_for_protected_cells -->
<g id="edge20" class="edge"><title>rast_pep&#45;&gt;outputs_zonal_stats_dataframes_for_protected_cells</title>
<path fill="none" stroke="black" d="M917.324,-197.53C930.311,-198.868 946.165,-200.502 963.402,-202.278"/>
<polygon fill="black" stroke="black" points="963.393,-205.796 973.699,-203.339 964.111,-198.832 963.393,-205.796"/>
</g>
<!-- rast_wdpa_pep&#45;&gt;outputs_zonal_stats_dataframes_for_protected_cells -->
<g id="edge21" class="edge"><title>rast_wdpa_pep&#45;&gt;outputs_zonal_stats_dataframes_for_protected_cells</title>
<path fill="none" stroke="black" d="M937.997,-242.34C946.097,-241.505 954.79,-240.609 963.862,-239.675"/>
<polygon fill="black" stroke="black" points="964.256,-243.153 973.845,-238.646 963.539,-236.189 964.256,-243.153"/>
</g>
<!-- dir_goal&#45;&gt;outputs_zonal_stats_dataframes_for_protected_cells -->
<g id="edge16" class="edge"><title>dir_goal&#45;&gt;outputs_zonal_stats_dataframes_for_protected_cells</title>
<path fill="none" stroke="black" d="M914.936,-347.487C962.153,-321.537 1050.75,-272.846 1103.17,-244.035"/>
<polygon fill="black" stroke="black" points="1105.13,-246.953 1112.21,-239.069 1101.76,-240.819 1105.13,-246.953"/>
</g>
<!-- setup.R_input_port -->
<g id="node19" class="node"><title>setup.R_input_port</title>
<ellipse fill="#ffffff" stroke="black" cx="7" cy="-386" rx="7" ry="7"/>
</g>
<!-- setup.R_input_port&#45;&gt;setup.R -->
<g id="edge22" class="edge"><title>setup.R_input_port&#45;&gt;setup.R</title>
<path fill="none" stroke="black" d="M14.2955,-386C38.9799,-386 130.474,-386 184.844,-386"/>
<polygon fill="black" stroke="black" points="184.866,-389.5 194.866,-386 184.866,-382.5 184.866,-389.5"/>
</g>
<!-- rast_3nm_raster_file_input_port -->
<g id="node20" class="node"><title>rast_3nm_raster_file_input_port</title>
<ellipse fill="#ffffff" stroke="black" cx="7" cy="-325" rx="7" ry="7"/>
</g>
<!-- rast_3nm_raster_file_input_port&#45;&gt;rast_3nm_raster_file -->
<g id="edge23" class="edge"><title>rast_3nm_raster_file_input_port&#45;&gt;rast_3nm_raster_file</title>
<path fill="none" stroke="black" d="M14.2955,-325C20.9386,-325 32.4204,-325 46.7152,-325"/>
<polygon fill="black" stroke="black" points="47.0361,-328.5 57.0361,-325 47.0361,-321.5 47.0361,-328.5"/>
</g>
<!-- rast_1km_raster_file_input_port -->
<g id="node21" class="node"><title>rast_1km_raster_file_input_port</title>
<ellipse fill="#ffffff" stroke="black" cx="7" cy="-256" rx="7" ry="7"/>
</g>
<!-- rast_1km_raster_file_input_port&#45;&gt;rast_1km_raster_file -->
<g id="edge24" class="edge"><title>rast_1km_raster_file_input_port&#45;&gt;rast_1km_raster_file</title>
<path fill="none" stroke="black" d="M14.2955,-256C22.049,-256 36.3942,-256 54.1101,-256"/>
<polygon fill="black" stroke="black" points="54.2786,-259.5 64.2785,-256 54.2785,-252.5 54.2786,-259.5"/>
</g>
<!-- rast_ws_raster_file_input_port -->
<g id="node22" class="node"><title>rast_ws_raster_file_input_port</title>
<ellipse fill="#ffffff" stroke="black" cx="7" cy="-187" rx="7" ry="7"/>
</g>
<!-- rast_ws_raster_file_input_port&#45;&gt;rast_ws_raster_file -->
<g id="edge25" class="edge"><title>rast_ws_raster_file_input_port&#45;&gt;rast_ws_raster_file</title>
<path fill="none" stroke="black" d="M14.2955,-187C19.8085,-187 28.6539,-187 39.674,-187"/>
<polygon fill="black" stroke="black" points="39.889,-190.5 49.889,-187 39.889,-183.5 39.889,-190.5"/>
</g>
<!-- rast_pep_file_input_port -->
<g id="node23" class="node"><title>rast_pep_file_input_port</title>
<ellipse fill="#ffffff" stroke="black" cx="7" cy="-118" rx="7" ry="7"/>
</g>
<!-- rast_pep_file_input_port&#45;&gt;rast_pep_file -->
<g id="edge26" class="edge"><title>rast_pep_file_input_port&#45;&gt;rast_pep_file</title>
<path fill="none" stroke="black" d="M14.2955,-118C19.8085,-118 28.6539,-118 39.674,-118"/>
<polygon fill="black" stroke="black" points="39.889,-121.5 49.889,-118 39.889,-114.5 39.889,-121.5"/>
</g>
<!-- rast_wdpa_pep_file_input_port -->
<g id="node24" class="node"><title>rast_wdpa_pep_file_input_port</title>
<ellipse fill="#ffffff" stroke="black" cx="7" cy="-49" rx="7" ry="7"/>
</g>
<!-- rast_wdpa_pep_file_input_port&#45;&gt;rast_wdpa_pep_file -->
<g id="edge27" class="edge"><title>rast_wdpa_pep_file_input_port&#45;&gt;rast_wdpa_pep_file</title>
<path fill="none" stroke="black" d="M14.2955,-49C24.5197,-49 46.2058,-49 71.9682,-49"/>
<polygon fill="black" stroke="black" points="72.0262,-52.5001 82.0261,-49 72.0261,-45.5001 72.0262,-52.5001"/>
</g>
</g>
</svg>
