<?xml version="1.0" encoding="UTF-8" standalone="no"?>
<!DOCTYPE svg PUBLIC "-//W3C//DTD SVG 1.1//EN"
 "http://www.w3.org/Graphics/SVG/1.1/DTD/svg11.dtd">
<!-- Generated by graphviz version 2.38.0 (20140413.2041)
 -->
<!-- Title: Workflow Pages: 1 -->
<svg width="976pt" height="635pt"
 viewBox="0.00 0.00 976.00 634.80" xmlns="http://www.w3.org/2000/svg" xmlns:xlink="http://www.w3.org/1999/xlink">
<g id="graph0" class="graph" transform="scale(1 1) rotate(0) translate(4 630.8)">
<title>Workflow</title>
<polygon fill="white" stroke="none" points="-4,4 -4,-630.8 972,-630.8 972,4 -4,4"/>
<text text-anchor="middle" x="484" y="-606.6" font-family="Helvetica,sans-Serif" font-size="18.00">summarize_zonal_stats</text>
<g id="clust1" class="cluster"><title>cluster_workflow_box_outer</title>
<polygon fill="none" stroke="black" stroke-width="2" points="22,-34 22,-563.2 914,-563.2 914,-34 22,-34"/>
</g>
<g id="clust2" class="cluster"><title>cluster_workflow_box_inner</title>
<polygon fill="none" stroke="black" stroke-width="0" points="30,-42 30,-555.2 906,-555.2 906,-42 30,-42"/>
</g>
<!-- set_up_configuration_and_start_provenance_tracking -->
<g id="node1" class="node"><title>set_up_configuration_and_start_provenance_tracking</title>
<polygon fill="#ccffcc" stroke="black" points="513.784,-475.2 164.216,-475.2 164.216,-439.2 513.784,-439.2 513.784,-475.2"/>
<text text-anchor="middle" x="339" y="-453" font-family="Helvetica,sans-Serif" font-size="14.00">set_up_configuration_and_start_provenance_tracking</text>
</g>
<!-- dir_goal -->
<g id="node15" class="node"><title>dir_goal</title>
<path fill="#fcfcfc" stroke="black" d="M359.787,-395.9C359.787,-395.9 318.213,-395.9 318.213,-395.9 312.213,-395.9 306.213,-389.9 306.213,-383.9 306.213,-383.9 306.213,-371.9 306.213,-371.9 306.213,-365.9 312.213,-359.9 318.213,-359.9 318.213,-359.9 359.787,-359.9 359.787,-359.9 365.787,-359.9 371.787,-365.9 371.787,-371.9 371.787,-371.9 371.787,-383.9 371.787,-383.9 371.787,-389.9 365.787,-395.9 359.787,-395.9"/>
<text text-anchor="middle" x="339" y="-373.7" font-family="Helvetica,sans-Serif" font-size="14.00">dir_goal</text>
</g>
<!-- set_up_configuration_and_start_provenance_tracking&#45;&gt;dir_goal -->
<g id="edge1" class="edge"><title>set_up_configuration_and_start_provenance_tracking&#45;&gt;dir_goal</title>
<path fill="none" stroke="black" d="M339,-439.045C339,-429.437 339,-417.232 339,-406.33"/>
<polygon fill="black" stroke="black" points="342.5,-406.007 339,-396.007 335.5,-406.007 342.5,-406.007"/>
</g>
<!-- read_in_zonal_stats_dataframes -->
<g id="node2" class="node"><title>read_in_zonal_stats_dataframes</title>
<polygon fill="#ccffcc" stroke="black" points="510.562,-316.6 291.438,-316.6 291.438,-280.6 510.562,-280.6 510.562,-316.6"/>
<text text-anchor="middle" x="401" y="-294.4" font-family="Helvetica,sans-Serif" font-size="14.00">read_in_zonal_stats_dataframes</text>
</g>
<!-- stats_1km -->
<g id="node12" class="node"><title>stats_1km</title>
<path fill="#ffffcc" stroke="black" d="M537.79,-244.6C537.79,-244.6 482.21,-244.6 482.21,-244.6 476.21,-244.6 470.21,-238.6 470.21,-232.6 470.21,-232.6 470.21,-220.6 470.21,-220.6 470.21,-214.6 476.21,-208.6 482.21,-208.6 482.21,-208.6 537.79,-208.6 537.79,-208.6 543.79,-208.6 549.79,-214.6 549.79,-220.6 549.79,-220.6 549.79,-232.6 549.79,-232.6 549.79,-238.6 543.79,-244.6 537.79,-244.6"/>
<text text-anchor="middle" x="510" y="-222.4" font-family="Helvetica,sans-Serif" font-size="14.00">stats_1km</text>
</g>
<!-- read_in_zonal_stats_dataframes&#45;&gt;stats_1km -->
<g id="edge4" class="edge"><title>read_in_zonal_stats_dataframes&#45;&gt;stats_1km</title>
<path fill="none" stroke="black" d="M427.664,-280.476C441.784,-271.408 459.311,-260.152 474.561,-250.359"/>
<polygon fill="black" stroke="black" points="476.71,-253.138 483.233,-244.79 472.927,-247.248 476.71,-253.138"/>
</g>
<!-- stats_3nm -->
<g id="node13" class="node"><title>stats_3nm</title>
<path fill="#ffffcc" stroke="black" d="M351.073,-244.6C351.073,-244.6 294.927,-244.6 294.927,-244.6 288.927,-244.6 282.927,-238.6 282.927,-232.6 282.927,-232.6 282.927,-220.6 282.927,-220.6 282.927,-214.6 288.927,-208.6 294.927,-208.6 294.927,-208.6 351.073,-208.6 351.073,-208.6 357.073,-208.6 363.073,-214.6 363.073,-220.6 363.073,-220.6 363.073,-232.6 363.073,-232.6 363.073,-238.6 357.073,-244.6 351.073,-244.6"/>
<text text-anchor="middle" x="323" y="-222.4" font-family="Helvetica,sans-Serif" font-size="14.00">stats_3nm</text>
</g>
<!-- read_in_zonal_stats_dataframes&#45;&gt;stats_3nm -->
<g id="edge3" class="edge"><title>read_in_zonal_stats_dataframes&#45;&gt;stats_3nm</title>
<path fill="none" stroke="black" d="M381.719,-280.297C372.085,-271.65 360.271,-261.049 349.773,-251.627"/>
<polygon fill="black" stroke="black" points="351.839,-248.779 342.059,-244.704 347.164,-253.988 351.839,-248.779"/>
</g>
<!-- stats_ws -->
<g id="node14" class="node"><title>stats_ws</title>
<path fill="#ffffcc" stroke="black" d="M440.454,-244.6C440.454,-244.6 393.546,-244.6 393.546,-244.6 387.546,-244.6 381.546,-238.6 381.546,-232.6 381.546,-232.6 381.546,-220.6 381.546,-220.6 381.546,-214.6 387.546,-208.6 393.546,-208.6 393.546,-208.6 440.454,-208.6 440.454,-208.6 446.454,-208.6 452.454,-214.6 452.454,-220.6 452.454,-220.6 452.454,-232.6 452.454,-232.6 452.454,-238.6 446.454,-244.6 440.454,-244.6"/>
<text text-anchor="middle" x="417" y="-222.4" font-family="Helvetica,sans-Serif" font-size="14.00">stats_ws</text>
</g>
<!-- read_in_zonal_stats_dataframes&#45;&gt;stats_ws -->
<g id="edge5" class="edge"><title>read_in_zonal_stats_dataframes&#45;&gt;stats_ws</title>
<path fill="none" stroke="black" d="M404.955,-280.297C406.718,-272.583 408.837,-263.312 410.803,-254.712"/>
<polygon fill="black" stroke="black" points="414.274,-255.233 413.09,-244.704 407.45,-253.673 414.274,-255.233"/>
</g>
<!-- set_goals_target_threshhold -->
<g id="node3" class="node"><title>set_goals_target_threshhold</title>
<polygon fill="#ccffcc" stroke="black" points="721.119,-316.6 528.881,-316.6 528.881,-280.6 721.119,-280.6 721.119,-316.6"/>
<text text-anchor="middle" x="625" y="-294.4" font-family="Helvetica,sans-Serif" font-size="14.00">set_goals_target_threshhold</text>
</g>
<!-- lsp_thresh -->
<g id="node16" class="node"><title>lsp_thresh</title>
<path fill="#fcfcfc" stroke="black" d="M644.072,-244.6C644.072,-244.6 587.928,-244.6 587.928,-244.6 581.928,-244.6 575.928,-238.6 575.928,-232.6 575.928,-232.6 575.928,-220.6 575.928,-220.6 575.928,-214.6 581.928,-208.6 587.928,-208.6 587.928,-208.6 644.072,-208.6 644.072,-208.6 650.072,-208.6 656.072,-214.6 656.072,-220.6 656.072,-220.6 656.072,-232.6 656.072,-232.6 656.072,-238.6 650.072,-244.6 644.072,-244.6"/>
<text text-anchor="middle" x="616" y="-222.4" font-family="Helvetica,sans-Serif" font-size="14.00">lsp_thresh</text>
</g>
<!-- set_goals_target_threshhold&#45;&gt;lsp_thresh -->
<g id="edge10" class="edge"><title>set_goals_target_threshhold&#45;&gt;lsp_thresh</title>
<path fill="none" stroke="black" d="M622.775,-280.297C621.783,-272.583 620.592,-263.312 619.486,-254.712"/>
<polygon fill="black" stroke="black" points="622.946,-254.176 618.199,-244.704 616.003,-255.069 622.946,-254.176"/>
</g>
<!-- compute_total_cells_&amp;_cumulaative_total_of_cells_per_region -->
<g id="node4" class="node"><title>compute_total_cells_&amp;_cumulaative_total_of_cells_per_region</title>
<polygon fill="#ccffcc" stroke="black" points="664.933,-172.6 261.067,-172.6 261.067,-136.6 664.933,-136.6 664.933,-172.6"/>
<text text-anchor="middle" x="463" y="-150.4" font-family="Helvetica,sans-Serif" font-size="14.00">compute_total_cells_&amp;_cumulaative_total_of_cells_per_region</text>
</g>
<!-- prot_ws -->
<g id="node5" class="node"><title>prot_ws</title>
<path fill="#ffffcc" stroke="black" d="M57.3002,-50.5C57.3002,-50.5 296.7,-50.5 296.7,-50.5 302.7,-50.5 308.7,-56.5 308.7,-62.5 308.7,-62.5 308.7,-88.1 308.7,-88.1 308.7,-94.1 302.7,-100.1 296.7,-100.1 296.7,-100.1 57.3002,-100.1 57.3002,-100.1 51.3002,-100.1 45.3002,-94.1 45.3002,-88.1 45.3002,-88.1 45.3002,-62.5 45.3002,-62.5 45.3002,-56.5 51.3002,-50.5 57.3002,-50.5"/>
<text text-anchor="middle" x="177" y="-83.5" font-family="Helvetica,sans-Serif" font-size="14.00">prot_ws</text>
<polyline fill="none" stroke="black" points="45.3002,-75.3 308.7,-75.3 "/>
<text text-anchor="middle" x="177" y="-58.7" font-family="Helvetica,sans-Serif" font-size="14.00">file:{dir_goal}/int/area_protected_ws.csv</text>
</g>
<!-- compute_total_cells_&amp;_cumulaative_total_of_cells_per_region&#45;&gt;prot_ws -->
<g id="edge11" class="edge"><title>compute_total_cells_&amp;_cumulaative_total_of_cells_per_region&#45;&gt;prot_ws</title>
<path fill="none" stroke="black" d="M399.882,-136.54C363.256,-126.641 316.336,-113.96 275.002,-102.788"/>
<polygon fill="black" stroke="black" points="275.743,-99.3627 265.176,-100.132 273.917,-106.12 275.743,-99.3627"/>
</g>
<!-- prot_3nm -->
<g id="node6" class="node"><title>prot_3nm</title>
<path fill="#ffffcc" stroke="black" d="M338.241,-50.5C338.241,-50.5 587.759,-50.5 587.759,-50.5 593.759,-50.5 599.759,-56.5 599.759,-62.5 599.759,-62.5 599.759,-88.1 599.759,-88.1 599.759,-94.1 593.759,-100.1 587.759,-100.1 587.759,-100.1 338.241,-100.1 338.241,-100.1 332.241,-100.1 326.241,-94.1 326.241,-88.1 326.241,-88.1 326.241,-62.5 326.241,-62.5 326.241,-56.5 332.241,-50.5 338.241,-50.5"/>
<text text-anchor="middle" x="463" y="-83.5" font-family="Helvetica,sans-Serif" font-size="14.00">prot_3nm</text>
<polyline fill="none" stroke="black" points="326.241,-75.3 599.759,-75.3 "/>
<text text-anchor="middle" x="463" y="-58.7" font-family="Helvetica,sans-Serif" font-size="14.00">file:{dir_goal}/int/area_protected_3nm.csv</text>
</g>
<!-- compute_total_cells_&amp;_cumulaative_total_of_cells_per_region&#45;&gt;prot_3nm -->
<g id="edge12" class="edge"><title>compute_total_cells_&amp;_cumulaative_total_of_cells_per_region&#45;&gt;prot_3nm</title>
<path fill="none" stroke="black" d="M463,-136.445C463,-128.689 463,-119.239 463,-110.15"/>
<polygon fill="black" stroke="black" points="466.5,-110.15 463,-100.15 459.5,-110.15 466.5,-110.15"/>
</g>
<!-- prot_1km -->
<g id="node7" class="node"><title>prot_1km</title>
<path fill="#ffffcc" stroke="black" d="M629.632,-50.5C629.632,-50.5 878.368,-50.5 878.368,-50.5 884.368,-50.5 890.368,-56.5 890.368,-62.5 890.368,-62.5 890.368,-88.1 890.368,-88.1 890.368,-94.1 884.368,-100.1 878.368,-100.1 878.368,-100.1 629.632,-100.1 629.632,-100.1 623.632,-100.1 617.632,-94.1 617.632,-88.1 617.632,-88.1 617.632,-62.5 617.632,-62.5 617.632,-56.5 623.632,-50.5 629.632,-50.5"/>
<text text-anchor="middle" x="754" y="-83.5" font-family="Helvetica,sans-Serif" font-size="14.00">prot_1km</text>
<polyline fill="none" stroke="black" points="617.632,-75.3 890.368,-75.3 "/>
<text text-anchor="middle" x="754" y="-58.7" font-family="Helvetica,sans-Serif" font-size="14.00">file:{dir_goal}/int/area_protected_1km.csv</text>
</g>
<!-- compute_total_cells_&amp;_cumulaative_total_of_cells_per_region&#45;&gt;prot_1km -->
<g id="edge13" class="edge"><title>compute_total_cells_&amp;_cumulaative_total_of_cells_per_region&#45;&gt;prot_1km</title>
<path fill="none" stroke="black" d="M527.221,-136.54C564.566,-126.62 612.429,-113.906 654.551,-102.717"/>
<polygon fill="black" stroke="black" points="655.516,-106.082 664.282,-100.132 653.719,-99.317 655.516,-106.082"/>
</g>
<!-- prot_ws_output_port -->
<g id="node21" class="node"><title>prot_ws_output_port</title>
<ellipse fill="#ffffff" stroke="black" cx="177" cy="-7" rx="7" ry="7"/>
</g>
<!-- prot_ws&#45;&gt;prot_ws_output_port -->
<g id="edge22" class="edge"><title>prot_ws&#45;&gt;prot_ws_output_port</title>
<path fill="none" stroke="black" d="M177,-50.3642C177,-41.694 177,-32.1105 177,-24.2546"/>
<polygon fill="black" stroke="black" points="180.5,-24.0006 177,-14.0006 173.5,-24.0007 180.5,-24.0006"/>
</g>
<!-- prot_3nm_output_port -->
<g id="node22" class="node"><title>prot_3nm_output_port</title>
<ellipse fill="#ffffff" stroke="black" cx="463" cy="-7" rx="7" ry="7"/>
</g>
<!-- prot_3nm&#45;&gt;prot_3nm_output_port -->
<g id="edge23" class="edge"><title>prot_3nm&#45;&gt;prot_3nm_output_port</title>
<path fill="none" stroke="black" d="M463,-50.3642C463,-41.694 463,-32.1105 463,-24.2546"/>
<polygon fill="black" stroke="black" points="466.5,-24.0006 463,-14.0006 459.5,-24.0007 466.5,-24.0006"/>
</g>
<!-- prot_1km_output_port -->
<g id="node23" class="node"><title>prot_1km_output_port</title>
<ellipse fill="#ffffff" stroke="black" cx="754" cy="-7" rx="7" ry="7"/>
</g>
<!-- prot_1km&#45;&gt;prot_1km_output_port -->
<g id="edge24" class="edge"><title>prot_1km&#45;&gt;prot_1km_output_port</title>
<path fill="none" stroke="black" d="M754,-50.3642C754,-41.694 754,-32.1105 754,-24.2546"/>
<polygon fill="black" stroke="black" points="757.5,-24.0006 754,-14.0006 750.5,-24.0007 757.5,-24.0006"/>
</g>
<!-- setup.R -->
<g id="node8" class="node"><title>setup.R</title>
<path fill="#ffffcc" stroke="black" d="M359.236,-547.2C359.236,-547.2 318.764,-547.2 318.764,-547.2 312.764,-547.2 306.764,-541.2 306.764,-535.2 306.764,-535.2 306.764,-523.2 306.764,-523.2 306.764,-517.2 312.764,-511.2 318.764,-511.2 318.764,-511.2 359.236,-511.2 359.236,-511.2 365.236,-511.2 371.236,-517.2 371.236,-523.2 371.236,-523.2 371.236,-535.2 371.236,-535.2 371.236,-541.2 365.236,-547.2 359.236,-547.2"/>
<text text-anchor="middle" x="339" y="-525" font-family="Helvetica,sans-Serif" font-size="14.00">setup.R</text>
</g>
<!-- setup.R&#45;&gt;set_up_configuration_and_start_provenance_tracking -->
<g id="edge2" class="edge"><title>setup.R&#45;&gt;set_up_configuration_and_start_provenance_tracking</title>
<path fill="none" stroke="black" d="M339,-510.897C339,-503.183 339,-493.912 339,-485.312"/>
<polygon fill="black" stroke="black" points="342.5,-485.304 339,-475.304 335.5,-485.304 342.5,-485.304"/>
</g>
<!-- zonal_stats_3nm_file -->
<g id="node9" class="node"><title>zonal_stats_3nm_file</title>
<path fill="#ffffcc" stroke="black" d="M49.9131,-353.1C49.9131,-353.1 276.087,-353.1 276.087,-353.1 282.087,-353.1 288.087,-359.1 288.087,-365.1 288.087,-365.1 288.087,-390.7 288.087,-390.7 288.087,-396.7 282.087,-402.7 276.087,-402.7 276.087,-402.7 49.9131,-402.7 49.9131,-402.7 43.9131,-402.7 37.9131,-396.7 37.9131,-390.7 37.9131,-390.7 37.9131,-365.1 37.9131,-365.1 37.9131,-359.1 43.9131,-353.1 49.9131,-353.1"/>
<text text-anchor="middle" x="163" y="-386.1" font-family="Helvetica,sans-Serif" font-size="14.00">zonal_stats_3nm_file</text>
<polyline fill="none" stroke="black" points="37.9131,-377.9 288.087,-377.9 "/>
<text text-anchor="middle" x="163" y="-361.3" font-family="Helvetica,sans-Serif" font-size="14.00">file:{dir_goal}/int/zonal_stats_3nm.csv</text>
</g>
<!-- zonal_stats_3nm_file&#45;&gt;read_in_zonal_stats_dataframes -->
<g id="edge7" class="edge"><title>zonal_stats_3nm_file&#45;&gt;read_in_zonal_stats_dataframes</title>
<path fill="none" stroke="black" d="M236.35,-353.077C269.275,-342.383 307.695,-329.905 339.137,-319.692"/>
<polygon fill="black" stroke="black" points="340.227,-323.018 348.657,-316.6 338.065,-316.361 340.227,-323.018"/>
</g>
<!-- zonal_stats_1km_file -->
<g id="node10" class="node"><title>zonal_stats_1km_file</title>
<path fill="#ffffcc" stroke="black" d="M402.304,-353.1C402.304,-353.1 627.696,-353.1 627.696,-353.1 633.696,-353.1 639.696,-359.1 639.696,-365.1 639.696,-365.1 639.696,-390.7 639.696,-390.7 639.696,-396.7 633.696,-402.7 627.696,-402.7 627.696,-402.7 402.304,-402.7 402.304,-402.7 396.304,-402.7 390.304,-396.7 390.304,-390.7 390.304,-390.7 390.304,-365.1 390.304,-365.1 390.304,-359.1 396.304,-353.1 402.304,-353.1"/>
<text text-anchor="middle" x="515" y="-386.1" font-family="Helvetica,sans-Serif" font-size="14.00">zonal_stats_1km_file</text>
<polyline fill="none" stroke="black" points="390.304,-377.9 639.696,-377.9 "/>
<text text-anchor="middle" x="515" y="-361.3" font-family="Helvetica,sans-Serif" font-size="14.00">file:{dir_goal}/int/zonal_stats_1km.csv</text>
</g>
<!-- zonal_stats_1km_file&#45;&gt;read_in_zonal_stats_dataframes -->
<g id="edge8" class="edge"><title>zonal_stats_1km_file&#45;&gt;read_in_zonal_stats_dataframes</title>
<path fill="none" stroke="black" d="M479.866,-353.077C465.455,-343.305 448.846,-332.043 434.597,-322.381"/>
<polygon fill="black" stroke="black" points="436.313,-319.316 426.072,-316.6 432.384,-325.109 436.313,-319.316"/>
</g>
<!-- zonal_stats_ws_file -->
<g id="node11" class="node"><title>zonal_stats_ws_file</title>
<path fill="#ffffcc" stroke="black" d="M669.973,-353.1C669.973,-353.1 886.027,-353.1 886.027,-353.1 892.027,-353.1 898.027,-359.1 898.027,-365.1 898.027,-365.1 898.027,-390.7 898.027,-390.7 898.027,-396.7 892.027,-402.7 886.027,-402.7 886.027,-402.7 669.973,-402.7 669.973,-402.7 663.973,-402.7 657.973,-396.7 657.973,-390.7 657.973,-390.7 657.973,-365.1 657.973,-365.1 657.973,-359.1 663.973,-353.1 669.973,-353.1"/>
<text text-anchor="middle" x="778" y="-386.1" font-family="Helvetica,sans-Serif" font-size="14.00">zonal_stats_ws_file</text>
<polyline fill="none" stroke="black" points="657.973,-377.9 898.027,-377.9 "/>
<text text-anchor="middle" x="778" y="-361.3" font-family="Helvetica,sans-Serif" font-size="14.00">file:{dir_goal}/int/zonal_stats_ws.csv</text>
</g>
<!-- zonal_stats_ws_file&#45;&gt;read_in_zonal_stats_dataframes -->
<g id="edge9" class="edge"><title>zonal_stats_ws_file&#45;&gt;read_in_zonal_stats_dataframes</title>
<path fill="none" stroke="black" d="M661.811,-353.077C607.859,-342.014 544.591,-329.042 493.881,-318.644"/>
<polygon fill="black" stroke="black" points="494.412,-315.18 483.913,-316.6 493.006,-322.038 494.412,-315.18"/>
</g>
<!-- stats_1km&#45;&gt;compute_total_cells_&amp;_cumulaative_total_of_cells_per_region -->
<g id="edge15" class="edge"><title>stats_1km&#45;&gt;compute_total_cells_&amp;_cumulaative_total_of_cells_per_region</title>
<path fill="none" stroke="black" d="M498.382,-208.297C492.861,-200.074 486.153,-190.083 480.068,-181.021"/>
<polygon fill="black" stroke="black" points="482.965,-179.056 474.484,-172.704 477.153,-182.958 482.965,-179.056"/>
</g>
<!-- stats_3nm&#45;&gt;compute_total_cells_&amp;_cumulaative_total_of_cells_per_region -->
<g id="edge16" class="edge"><title>stats_3nm&#45;&gt;compute_total_cells_&amp;_cumulaative_total_of_cells_per_region</title>
<path fill="none" stroke="black" d="M357.248,-208.476C376.061,-199.069 399.585,-187.308 419.666,-177.267"/>
<polygon fill="black" stroke="black" points="421.241,-180.392 428.62,-172.79 418.111,-174.131 421.241,-180.392"/>
</g>
<!-- stats_ws&#45;&gt;compute_total_cells_&amp;_cumulaative_total_of_cells_per_region -->
<g id="edge17" class="edge"><title>stats_ws&#45;&gt;compute_total_cells_&amp;_cumulaative_total_of_cells_per_region</title>
<path fill="none" stroke="black" d="M428.371,-208.297C433.718,-200.159 440.204,-190.289 446.111,-181.301"/>
<polygon fill="black" stroke="black" points="449.193,-182.984 451.76,-172.704 443.343,-179.139 449.193,-182.984"/>
</g>
<!-- dir_goal&#45;&gt;read_in_zonal_stats_dataframes -->
<g id="edge6" class="edge"><title>dir_goal&#45;&gt;read_in_zonal_stats_dataframes</title>
<path fill="none" stroke="black" d="M352.76,-359.745C361.028,-349.437 371.694,-336.138 380.894,-324.667"/>
<polygon fill="black" stroke="black" points="383.752,-326.698 387.279,-316.707 378.292,-322.318 383.752,-326.698"/>
</g>
<!-- lsp_thresh&#45;&gt;compute_total_cells_&amp;_cumulaative_total_of_cells_per_region -->
<g id="edge14" class="edge"><title>lsp_thresh&#45;&gt;compute_total_cells_&amp;_cumulaative_total_of_cells_per_region</title>
<path fill="none" stroke="black" d="M578.572,-208.476C557.749,-198.949 531.646,-187.007 509.519,-176.883"/>
<polygon fill="black" stroke="black" points="510.856,-173.646 500.306,-172.668 507.944,-180.011 510.856,-173.646"/>
</g>
<!-- setup.R_input_port -->
<g id="node17" class="node"><title>setup.R_input_port</title>
<ellipse fill="#ffffff" stroke="black" cx="339" cy="-590.2" rx="7" ry="7"/>
</g>
<!-- setup.R_input_port&#45;&gt;setup.R -->
<g id="edge18" class="edge"><title>setup.R_input_port&#45;&gt;setup.R</title>
<path fill="none" stroke="black" d="M339,-582.886C339,-576.686 339,-566.795 339,-557.248"/>
<polygon fill="black" stroke="black" points="342.5,-557.216 339,-547.216 335.5,-557.216 342.5,-557.216"/>
</g>
<!-- zonal_stats_3nm_file_input_port -->
<g id="node18" class="node"><title>zonal_stats_3nm_file_input_port</title>
<ellipse fill="#ffffff" stroke="black" cx="7" cy="-457.2" rx="7" ry="7"/>
</g>
<!-- zonal_stats_3nm_file_input_port&#45;&gt;zonal_stats_3nm_file -->
<g id="edge19" class="edge"><title>zonal_stats_3nm_file_input_port&#45;&gt;zonal_stats_3nm_file</title>
<path fill="none" stroke="black" d="M11.3511,-451.57C15.003,-447.875 20.4929,-442.748 26,-439.2 45.1344,-426.874 67.2123,-415.924 87.9797,-406.851"/>
<polygon fill="black" stroke="black" points="89.5959,-409.967 97.4141,-402.816 86.8433,-403.531 89.5959,-409.967"/>
</g>
<!-- zonal_stats_1km_file_input_port -->
<g id="node19" class="node"><title>zonal_stats_1km_file_input_port</title>
<ellipse fill="#ffffff" stroke="black" cx="929" cy="-457.2" rx="7" ry="7"/>
</g>
<!-- zonal_stats_1km_file_input_port&#45;&gt;zonal_stats_1km_file -->
<g id="edge20" class="edge"><title>zonal_stats_1km_file_input_port&#45;&gt;zonal_stats_1km_file</title>
<path fill="none" stroke="black" d="M924.883,-451.145C921.366,-447.204 915.945,-441.952 910,-439.2 806.638,-391.36 766.824,-419.982 649.846,-403.232"/>
<polygon fill="black" stroke="black" points="650.206,-399.747 639.794,-401.709 649.157,-406.668 650.206,-399.747"/>
</g>
<!-- zonal_stats_ws_file_input_port -->
<g id="node20" class="node"><title>zonal_stats_ws_file_input_port</title>
<ellipse fill="#ffffff" stroke="black" cx="961" cy="-457.2" rx="7" ry="7"/>
</g>
<!-- zonal_stats_ws_file_input_port&#45;&gt;zonal_stats_ws_file -->
<g id="edge21" class="edge"><title>zonal_stats_ws_file_input_port&#45;&gt;zonal_stats_ws_file</title>
<path fill="none" stroke="black" d="M957.293,-451.125C954.331,-447.382 949.878,-442.404 945,-439.2 924.506,-425.741 900.625,-414.824 877.441,-406.169"/>
<polygon fill="black" stroke="black" points="878.502,-402.831 867.908,-402.72 876.121,-409.413 878.502,-402.831"/>
</g>
</g>
</svg>
