<?xml version="1.0" encoding="UTF-8" standalone="no"?>
<!DOCTYPE svg PUBLIC "-//W3C//DTD SVG 1.1//EN"
 "http://www.w3.org/Graphics/SVG/1.1/DTD/svg11.dtd">
<!-- Generated by graphviz version 2.38.0 (20140413.2041)
 -->
<!-- Title: Workflow Pages: 1 -->
<svg width="1043pt" height="705pt"
 viewBox="0.00 0.00 1043.00 705.40" xmlns="http://www.w3.org/2000/svg" xmlns:xlink="http://www.w3.org/1999/xlink">
<g id="graph0" class="graph" transform="scale(1 1) rotate(0) translate(4 701.4)">
<title>Workflow</title>
<polygon fill="white" stroke="none" points="-4,4 -4,-701.4 1039,-701.4 1039,4 -4,4"/>
<text text-anchor="middle" x="517.5" y="-677.2" font-family="Courier,monospace" font-size="18.00">get_analysis_rasters</text>
<g id="clust1" class="cluster"><title>cluster_workflow_box_outer</title>
<polygon fill="none" stroke="black" stroke-width="2" points="8,-62 8,-605.8 1027,-605.8 1027,-62 8,-62"/>
</g>
<g id="clust2" class="cluster"><title>cluster_workflow_box_inner</title>
<polygon fill="none" stroke="white" stroke-width="2" points="16,-70 16,-597.8 1019,-597.8 1019,-70 16,-70"/>
</g>
<g id="clust3" class="cluster"><title>cluster_input_ports_group_outer</title>
<polygon fill="none" stroke="white" points="421,-613.8 421,-659.8 563,-659.8 563,-613.8 421,-613.8"/>
</g>
<g id="clust4" class="cluster"><title>cluster_input_ports_group_inner</title>
<polygon fill="none" stroke="white" points="429,-621.8 429,-651.8 555,-651.8 555,-621.8 429,-621.8"/>
</g>
<g id="clust5" class="cluster"><title>cluster_output_ports_group_outer</title>
<polygon fill="none" stroke="white" points="497,-8 497,-54 575,-54 575,-8 497,-8"/>
</g>
<g id="clust6" class="cluster"><title>cluster_output_ports_group_inner</title>
<polygon fill="none" stroke="white" points="505,-16 505,-46 567,-46 567,-16 505,-16"/>
</g>
<!-- set_up_configuration_and_start_provenance_tracking -->
<g id="node1" class="node"><title>set_up_configuration_and_start_provenance_tracking</title>
<polygon fill="#ccffcc" stroke="black" points="832.93,-517.8 397.07,-517.8 397.07,-481.8 832.93,-481.8 832.93,-517.8"/>
<text text-anchor="middle" x="615" y="-495.6" font-family="Courier,monospace" font-size="14.00">set_up_configuration_and_start_provenance_tracking</text>
</g>
<!-- dir_goal -->
<g id="node12" class="node"><title>dir_goal</title>
<path fill="#fcfcfc" stroke="black" d="M626.787,-438.5C626.787,-438.5 585.213,-438.5 585.213,-438.5 579.213,-438.5 573.213,-432.5 573.213,-426.5 573.213,-426.5 573.213,-414.5 573.213,-414.5 573.213,-408.5 579.213,-402.5 585.213,-402.5 585.213,-402.5 626.787,-402.5 626.787,-402.5 632.787,-402.5 638.787,-408.5 638.787,-414.5 638.787,-414.5 638.787,-426.5 638.787,-426.5 638.787,-432.5 632.787,-438.5 626.787,-438.5"/>
<text text-anchor="middle" x="606" y="-416.3" font-family="Helvetica,sans-Serif" font-size="14.00">dir_goal</text>
</g>
<!-- set_up_configuration_and_start_provenance_tracking&#45;&gt;dir_goal -->
<g id="edge2" class="edge"><title>set_up_configuration_and_start_provenance_tracking&#45;&gt;dir_goal</title>
<path fill="none" stroke="black" d="M613.003,-481.645C611.872,-471.937 610.433,-459.577 609.154,-448.59"/>
<polygon fill="black" stroke="black" points="612.625,-448.136 607.992,-438.607 605.672,-448.945 612.625,-448.136"/>
</g>
<!-- dir_spatial -->
<g id="node13" class="node"><title>dir_spatial</title>
<path fill="#fcfcfc" stroke="black" d="M708.784,-359.2C708.784,-359.2 653.216,-359.2 653.216,-359.2 647.216,-359.2 641.216,-353.2 641.216,-347.2 641.216,-347.2 641.216,-335.2 641.216,-335.2 641.216,-329.2 647.216,-323.2 653.216,-323.2 653.216,-323.2 708.784,-323.2 708.784,-323.2 714.784,-323.2 720.784,-329.2 720.784,-335.2 720.784,-335.2 720.784,-347.2 720.784,-347.2 720.784,-353.2 714.784,-359.2 708.784,-359.2"/>
<text text-anchor="middle" x="681" y="-337" font-family="Helvetica,sans-Serif" font-size="14.00">dir_spatial</text>
</g>
<!-- set_up_configuration_and_start_provenance_tracking&#45;&gt;dir_spatial -->
<g id="edge1" class="edge"><title>set_up_configuration_and_start_provenance_tracking&#45;&gt;dir_spatial</title>
<path fill="none" stroke="black" d="M627.137,-481.747C633.933,-471.646 642.183,-458.396 648,-445.8 659.562,-420.763 668.675,-390.563 674.369,-369.246"/>
<polygon fill="black" stroke="black" points="677.759,-370.115 676.885,-359.556 670.984,-368.356 677.759,-370.115"/>
</g>
<!-- create_presence_of_buffer_rasters -->
<g id="node2" class="node"><title>create_presence_of_buffer_rasters</title>
<polygon fill="#ccffcc" stroke="black" points="605.654,-359.2 312.346,-359.2 312.346,-323.2 605.654,-323.2 605.654,-359.2"/>
<text text-anchor="middle" x="459" y="-337" font-family="Courier,monospace" font-size="14.00">create_presence_of_buffer_rasters</text>
</g>
<!-- rast_3nm_file_handle -->
<g id="node10" class="node"><title>rast_3nm_file_handle</title>
<path fill="#ffffcc" stroke="black" d="M493.814,-279.9C493.814,-279.9 368.186,-279.9 368.186,-279.9 362.186,-279.9 356.186,-273.9 356.186,-267.9 356.186,-267.9 356.186,-255.9 356.186,-255.9 356.186,-249.9 362.186,-243.9 368.186,-243.9 368.186,-243.9 493.814,-243.9 493.814,-243.9 499.814,-243.9 505.814,-249.9 505.814,-255.9 505.814,-255.9 505.814,-267.9 505.814,-267.9 505.814,-273.9 499.814,-279.9 493.814,-279.9"/>
<text text-anchor="middle" x="431" y="-257.7" font-family="Helvetica,sans-Serif" font-size="14.00">rast_3nm_file_handle</text>
</g>
<!-- create_presence_of_buffer_rasters&#45;&gt;rast_3nm_file_handle -->
<g id="edge4" class="edge"><title>create_presence_of_buffer_rasters&#45;&gt;rast_3nm_file_handle</title>
<path fill="none" stroke="black" d="M452.786,-323.045C449.233,-313.237 444.7,-300.722 440.69,-289.65"/>
<polygon fill="black" stroke="black" points="443.893,-288.218 437.197,-280.007 437.312,-290.602 443.893,-288.218"/>
</g>
<!-- rast_1km_file_handle -->
<g id="node11" class="node"><title>rast_1km_file_handle</title>
<path fill="#ffffcc" stroke="black" d="M660.531,-279.9C660.531,-279.9 535.469,-279.9 535.469,-279.9 529.469,-279.9 523.469,-273.9 523.469,-267.9 523.469,-267.9 523.469,-255.9 523.469,-255.9 523.469,-249.9 529.469,-243.9 535.469,-243.9 535.469,-243.9 660.531,-243.9 660.531,-243.9 666.531,-243.9 672.531,-249.9 672.531,-255.9 672.531,-255.9 672.531,-267.9 672.531,-267.9 672.531,-273.9 666.531,-279.9 660.531,-279.9"/>
<text text-anchor="middle" x="598" y="-257.7" font-family="Helvetica,sans-Serif" font-size="14.00">rast_1km_file_handle</text>
</g>
<!-- create_presence_of_buffer_rasters&#45;&gt;rast_1km_file_handle -->
<g id="edge5" class="edge"><title>create_presence_of_buffer_rasters&#45;&gt;rast_1km_file_handle</title>
<path fill="none" stroke="black" d="M489.849,-323.045C510.004,-311.836 536.518,-297.091 558.25,-285.006"/>
<polygon fill="black" stroke="black" points="560.199,-287.926 567.238,-280.007 556.797,-281.809 560.199,-287.926"/>
</g>
<!-- read_in_buffer_shapfiles_if_rasters_not -->
<g id="node3" class="node"><title>read_in_buffer_shapfiles_if_rasters_not</title>
<polygon fill="#ccffcc" stroke="black" points="769.546,-200.6 426.454,-200.6 426.454,-164.6 769.546,-164.6 769.546,-200.6"/>
<text text-anchor="middle" x="598" y="-178.4" font-family="Courier,monospace" font-size="14.00">read_in_buffer_shapfiles_if_rasters_not</text>
</g>
<!-- rast_3nm_file -->
<g id="node4" class="node"><title>rast_3nm_file</title>
<path fill="#ffffcc" stroke="black" d="M188.79,-78.5C188.79,-78.5 519.21,-78.5 519.21,-78.5 525.21,-78.5 531.21,-84.5 531.21,-90.5 531.21,-90.5 531.21,-116.1 531.21,-116.1 531.21,-122.1 525.21,-128.1 519.21,-128.1 519.21,-128.1 188.79,-128.1 188.79,-128.1 182.79,-128.1 176.79,-122.1 176.79,-116.1 176.79,-116.1 176.79,-90.5 176.79,-90.5 176.79,-84.5 182.79,-78.5 188.79,-78.5"/>
<text text-anchor="middle" x="354" y="-111.5" font-family="Helvetica,sans-Serif" font-size="14.00">rast_3nm_file</text>
<polyline fill="none" stroke="black" points="176.79,-103.3 531.21,-103.3 "/>
<text text-anchor="middle" x="354" y="-86.7" font-family="Helvetica,sans-Serif" font-size="14.00">file:{dir_goal}/spatial/hs_offshore_3nm_raster_500m.tif</text>
</g>
<!-- read_in_buffer_shapfiles_if_rasters_not&#45;&gt;rast_3nm_file -->
<g id="edge8" class="edge"><title>read_in_buffer_shapfiles_if_rasters_not&#45;&gt;rast_3nm_file</title>
<path fill="none" stroke="black" d="M544.151,-164.54C513.363,-154.787 474.05,-142.332 439.169,-131.282"/>
<polygon fill="black" stroke="black" points="440.049,-127.889 429.459,-128.206 437.935,-134.562 440.049,-127.889"/>
</g>
<!-- rast_1km_file -->
<g id="node5" class="node"><title>rast_1km_file</title>
<path fill="#ffffcc" stroke="black" d="M560.795,-78.5C560.795,-78.5 877.205,-78.5 877.205,-78.5 883.205,-78.5 889.205,-84.5 889.205,-90.5 889.205,-90.5 889.205,-116.1 889.205,-116.1 889.205,-122.1 883.205,-128.1 877.205,-128.1 877.205,-128.1 560.795,-128.1 560.795,-128.1 554.795,-128.1 548.795,-122.1 548.795,-116.1 548.795,-116.1 548.795,-90.5 548.795,-90.5 548.795,-84.5 554.795,-78.5 560.795,-78.5"/>
<text text-anchor="middle" x="719" y="-111.5" font-family="Helvetica,sans-Serif" font-size="14.00">rast_1km_file</text>
<polyline fill="none" stroke="black" points="548.795,-103.3 889.205,-103.3 "/>
<text text-anchor="middle" x="719" y="-86.7" font-family="Helvetica,sans-Serif" font-size="14.00">file:{dir_goal}/spatial/hs_inland_1km_raster_500m.tif</text>
</g>
<!-- read_in_buffer_shapfiles_if_rasters_not&#45;&gt;rast_1km_file -->
<g id="edge9" class="edge"><title>read_in_buffer_shapfiles_if_rasters_not&#45;&gt;rast_1km_file</title>
<path fill="none" stroke="black" d="M624.854,-164.445C638.953,-155.438 656.626,-144.147 672.841,-133.788"/>
<polygon fill="black" stroke="black" points="675.125,-136.483 681.667,-128.15 671.356,-130.584 675.125,-136.483"/>
</g>
<!-- rast_3nm_file_output_port -->
<g id="node18" class="node"><title>rast_3nm_file_output_port</title>
<ellipse fill="#ffffff" stroke="black" cx="520" cy="-31" rx="7" ry="7"/>
</g>
<!-- rast_3nm_file&#45;&gt;rast_3nm_file_output_port -->
<g id="edge19" class="edge"><title>rast_3nm_file&#45;&gt;rast_3nm_file_output_port</title>
<path fill="none" stroke="black" d="M410.2,-78.4996C443.36,-64.4566 482.913,-47.706 504.333,-38.6348"/>
<polygon fill="black" stroke="black" points="505.908,-41.7687 513.752,-34.6461 503.179,-35.3229 505.908,-41.7687"/>
</g>
<!-- rast_1km_file_output_port -->
<g id="node19" class="node"><title>rast_1km_file_output_port</title>
<ellipse fill="#ffffff" stroke="black" cx="552" cy="-31" rx="7" ry="7"/>
</g>
<!-- rast_1km_file&#45;&gt;rast_1km_file_output_port -->
<g id="edge20" class="edge"><title>rast_1km_file&#45;&gt;rast_1km_file_output_port</title>
<path fill="none" stroke="black" d="M662.461,-78.4996C628.941,-64.3887 588.926,-47.5441 567.45,-38.5038"/>
<polygon fill="black" stroke="black" points="568.617,-35.1976 558.042,-34.5435 565.901,-41.6493 568.617,-35.1976"/>
</g>
<!-- setup_R -->
<g id="node6" class="node"><title>setup_R</title>
<path fill="#ffffcc" stroke="black" d="M584.128,-589.8C584.128,-589.8 539.872,-589.8 539.872,-589.8 533.872,-589.8 527.872,-583.8 527.872,-577.8 527.872,-577.8 527.872,-565.8 527.872,-565.8 527.872,-559.8 533.872,-553.8 539.872,-553.8 539.872,-553.8 584.128,-553.8 584.128,-553.8 590.128,-553.8 596.128,-559.8 596.128,-565.8 596.128,-565.8 596.128,-577.8 596.128,-577.8 596.128,-583.8 590.128,-589.8 584.128,-589.8"/>
<text text-anchor="middle" x="562" y="-567.6" font-family="Helvetica,sans-Serif" font-size="14.00">setup_R</text>
</g>
<!-- setup_R&#45;&gt;set_up_configuration_and_start_provenance_tracking -->
<g id="edge3" class="edge"><title>setup_R&#45;&gt;set_up_configuration_and_start_provenance_tracking</title>
<path fill="none" stroke="black" d="M575.101,-553.497C581.391,-545.189 589.047,-535.077 595.965,-525.941"/>
<polygon fill="black" stroke="black" points="598.804,-527.99 602.05,-517.904 593.223,-523.764 598.804,-527.99"/>
</g>
<!-- rast_base -->
<g id="node7" class="node"><title>rast_base</title>
<path fill="#ffffcc" stroke="black" d="M240.47,-395.7C240.47,-395.7 533.53,-395.7 533.53,-395.7 539.53,-395.7 545.53,-401.7 545.53,-407.7 545.53,-407.7 545.53,-433.3 545.53,-433.3 545.53,-439.3 539.53,-445.3 533.53,-445.3 533.53,-445.3 240.47,-445.3 240.47,-445.3 234.47,-445.3 228.47,-439.3 228.47,-433.3 228.47,-433.3 228.47,-407.7 228.47,-407.7 228.47,-401.7 234.47,-395.7 240.47,-395.7"/>
<text text-anchor="middle" x="387" y="-428.7" font-family="Helvetica,sans-Serif" font-size="14.00">rast_base</text>
<polyline fill="none" stroke="black" points="228.47,-420.5 545.53,-420.5 "/>
<text text-anchor="middle" x="387" y="-403.9" font-family="Helvetica,sans-Serif" font-size="14.00">file:{dir_spatial}/raster/ohibc_rgn_raster_500m.tif</text>
</g>
<!-- rast_base&#45;&gt;create_presence_of_buffer_rasters -->
<g id="edge7" class="edge"><title>rast_base&#45;&gt;create_presence_of_buffer_rasters</title>
<path fill="none" stroke="black" d="M409.387,-395.466C417.901,-386.325 427.606,-375.905 436.162,-366.719"/>
<polygon fill="black" stroke="black" points="438.772,-369.052 443.026,-359.349 433.65,-364.281 438.772,-369.052"/>
</g>
<!-- poly_3nm_file -->
<g id="node8" class="node"><title>poly_3nm_file</title>
<path fill="#ffffcc" stroke="black" d="M36.0064,-237.1C36.0064,-237.1 325.994,-237.1 325.994,-237.1 331.994,-237.1 337.994,-243.1 337.994,-249.1 337.994,-249.1 337.994,-274.7 337.994,-274.7 337.994,-280.7 331.994,-286.7 325.994,-286.7 325.994,-286.7 36.0064,-286.7 36.0064,-286.7 30.0064,-286.7 24.0064,-280.7 24.0064,-274.7 24.0064,-274.7 24.0064,-249.1 24.0064,-249.1 24.0064,-243.1 30.0064,-237.1 36.0064,-237.1"/>
<text text-anchor="middle" x="181" y="-270.1" font-family="Helvetica,sans-Serif" font-size="14.00">poly_3nm_file</text>
<polyline fill="none" stroke="black" points="24.0064,-261.9 337.994,-261.9 "/>
<text text-anchor="middle" x="181" y="-245.3" font-family="Helvetica,sans-Serif" font-size="14.00">file:{dir_spatial}/howe_sound_offshore_3nm.shp</text>
</g>
<!-- poly_3nm_file&#45;&gt;read_in_buffer_shapfiles_if_rasters_not -->
<g id="edge11" class="edge"><title>poly_3nm_file&#45;&gt;read_in_buffer_shapfiles_if_rasters_not</title>
<path fill="none" stroke="black" d="M309.516,-237.077C369.566,-225.945 440.049,-212.88 496.314,-202.45"/>
<polygon fill="black" stroke="black" points="497.096,-205.865 506.29,-200.6 495.82,-198.982 497.096,-205.865"/>
</g>
<!-- poly_1km_file -->
<g id="node9" class="node"><title>poly_1km_file</title>
<path fill="#ffffcc" stroke="black" d="M723.012,-237.1C723.012,-237.1 998.988,-237.1 998.988,-237.1 1004.99,-237.1 1010.99,-243.1 1010.99,-249.1 1010.99,-249.1 1010.99,-274.7 1010.99,-274.7 1010.99,-280.7 1004.99,-286.7 998.988,-286.7 998.988,-286.7 723.012,-286.7 723.012,-286.7 717.012,-286.7 711.012,-280.7 711.012,-274.7 711.012,-274.7 711.012,-249.1 711.012,-249.1 711.012,-243.1 717.012,-237.1 723.012,-237.1"/>
<text text-anchor="middle" x="861" y="-270.1" font-family="Helvetica,sans-Serif" font-size="14.00">poly_1km_file</text>
<polyline fill="none" stroke="black" points="711.012,-261.9 1010.99,-261.9 "/>
<text text-anchor="middle" x="861" y="-245.3" font-family="Helvetica,sans-Serif" font-size="14.00">file:{dir_spatial}/howe_sound_inland_1km.shp</text>
</g>
<!-- poly_1km_file&#45;&gt;read_in_buffer_shapfiles_if_rasters_not -->
<g id="edge12" class="edge"><title>poly_1km_file&#45;&gt;read_in_buffer_shapfiles_if_rasters_not</title>
<path fill="none" stroke="black" d="M779.945,-237.077C743.248,-226.291 700.374,-213.689 665.464,-203.429"/>
<polygon fill="black" stroke="black" points="666.422,-200.062 655.841,-200.6 664.448,-206.778 666.422,-200.062"/>
</g>
<!-- rast_3nm_file_handle&#45;&gt;read_in_buffer_shapfiles_if_rasters_not -->
<g id="edge13" class="edge"><title>rast_3nm_file_handle&#45;&gt;read_in_buffer_shapfiles_if_rasters_not</title>
<path fill="none" stroke="black" d="M468.063,-243.745C492.711,-232.336 525.274,-217.263 551.635,-205.061"/>
<polygon fill="black" stroke="black" points="553.436,-208.084 561.041,-200.707 550.496,-201.732 553.436,-208.084"/>
</g>
<!-- rast_1km_file_handle&#45;&gt;read_in_buffer_shapfiles_if_rasters_not -->
<g id="edge14" class="edge"><title>rast_1km_file_handle&#45;&gt;read_in_buffer_shapfiles_if_rasters_not</title>
<path fill="none" stroke="black" d="M598,-243.745C598,-234.137 598,-221.932 598,-211.03"/>
<polygon fill="black" stroke="black" points="601.5,-210.707 598,-200.707 594.5,-210.707 601.5,-210.707"/>
</g>
<!-- dir_goal&#45;&gt;create_presence_of_buffer_rasters -->
<g id="edge6" class="edge"><title>dir_goal&#45;&gt;create_presence_of_buffer_rasters</title>
<path fill="none" stroke="black" d="M573.376,-402.345C551.87,-391.036 523.519,-376.127 500.424,-363.983"/>
<polygon fill="black" stroke="black" points="502.013,-360.864 491.533,-359.307 498.755,-367.06 502.013,-360.864"/>
</g>
<!-- dir_spatial&#45;&gt;read_in_buffer_shapfiles_if_rasters_not -->
<g id="edge10" class="edge"><title>dir_spatial&#45;&gt;read_in_buffer_shapfiles_if_rasters_not</title>
<path fill="none" stroke="black" d="M685.986,-323.184C691.287,-301.581 697.027,-263.849 682,-236.6 674.896,-223.718 663.198,-213.536 650.757,-205.685"/>
<polygon fill="black" stroke="black" points="652.474,-202.634 642.073,-200.617 648.946,-208.68 652.474,-202.634"/>
</g>
<!-- setup_R_input_port -->
<g id="node14" class="node"><title>setup_R_input_port</title>
<ellipse fill="#ffffff" stroke="black" cx="508" cy="-636.8" rx="7" ry="7"/>
</g>
<!-- setup_R_input_port&#45;&gt;setup_R -->
<g id="edge15" class="edge"><title>setup_R_input_port&#45;&gt;setup_R</title>
<path fill="none" stroke="black" d="M511.519,-630.603C514.655,-626.061 519.441,-619.345 524,-613.8 528.472,-608.36 533.463,-602.71 538.317,-597.406"/>
<polygon fill="black" stroke="black" points="541.008,-599.653 545.258,-589.947 535.883,-594.884 541.008,-599.653"/>
</g>
<!-- poly_3nm_file_input_port -->
<g id="node15" class="node"><title>poly_3nm_file_input_port</title>
<ellipse fill="#ffffff" stroke="black" cx="444" cy="-636.8" rx="7" ry="7"/>
</g>
<!-- poly_3nm_file_input_port&#45;&gt;poly_3nm_file -->
<g id="edge16" class="edge"><title>poly_3nm_file_input_port&#45;&gt;poly_3nm_file</title>
<path fill="none" stroke="black" d="M436.941,-635.475C395.919,-633.177 190,-615.909 190,-500.8 190,-500.8 190,-500.8 190,-419.5 190,-377.173 186.682,-328.516 184.076,-296.819"/>
<polygon fill="black" stroke="black" points="187.555,-296.423 183.225,-286.753 180.58,-297.013 187.555,-296.423"/>
</g>
<!-- poly_1km_file_input_port -->
<g id="node16" class="node"><title>poly_1km_file_input_port</title>
<ellipse fill="#ffffff" stroke="black" cx="540" cy="-636.8" rx="7" ry="7"/>
</g>
<!-- poly_1km_file_input_port&#45;&gt;poly_1km_file -->
<g id="edge17" class="edge"><title>poly_1km_file_input_port&#45;&gt;poly_1km_file</title>
<path fill="none" stroke="black" d="M547.003,-636.126C593.946,-637.927 861,-641.967 861,-500.8 861,-500.8 861,-500.8 861,-419.5 861,-377.243 861,-328.571 861,-296.851"/>
<polygon fill="black" stroke="black" points="864.5,-296.778 861,-286.778 857.5,-296.778 864.5,-296.778"/>
</g>
<!-- rast_base_input_port -->
<g id="node17" class="node"><title>rast_base_input_port</title>
<ellipse fill="#ffffff" stroke="black" cx="476" cy="-636.8" rx="7" ry="7"/>
</g>
<!-- rast_base_input_port&#45;&gt;rast_base -->
<g id="edge18" class="edge"><title>rast_base_input_port&#45;&gt;rast_base</title>
<path fill="none" stroke="black" d="M472.335,-630.716C469.106,-626.248 464.265,-619.574 460,-613.8 428.315,-570.899 405.128,-568.308 388,-517.8 381.281,-497.986 380.892,-474.533 382.249,-455.732"/>
<polygon fill="black" stroke="black" points="385.756,-455.82 383.185,-445.542 378.785,-455.18 385.756,-455.82"/>
</g>
</g>
</svg>
