<?xml version="1.0" encoding="UTF-8" standalone="no"?>
<!DOCTYPE svg PUBLIC "-//W3C//DTD SVG 1.1//EN"
 "http://www.w3.org/Graphics/SVG/1.1/DTD/svg11.dtd">
<!-- Generated by graphviz version 2.38.0 (20140413.2041)
 -->
<!-- Title: yw_data_view Pages: 1 -->
<svg width="400pt" height="374pt"
 viewBox="0.00 0.00 400.00 373.60" xmlns="http://www.w3.org/2000/svg" xmlns:xlink="http://www.w3.org/1999/xlink">
<g id="graph0" class="graph" transform="scale(1 1) rotate(0) translate(4 369.6)">
<title>yw_data_view</title>
<polygon fill="white" stroke="none" points="-4,4 -4,-369.6 396,-369.6 396,4 -4,4"/>
<text text-anchor="middle" x="196" y="-345.4" font-family="Courier,monospace" font-size="18.00">get_analysis_rasters</text>
<g id="clust1" class="cluster"><title>cluster_workflow</title>
<polygon fill="none" stroke="black" stroke-width="2" points="8,-62 8,-274 384,-274 384,-62 8,-62"/>
</g>
<g id="clust2" class="cluster"><title>cluster_workflow_inner</title>
<polygon fill="none" stroke="white" stroke-width="2" points="16,-70 16,-266 376,-266 376,-70 16,-70"/>
</g>
<g id="clust3" class="cluster"><title>cluster_inflows</title>
<polygon fill="none" stroke="white" stroke-width="2" points="173,-282 173,-328 219,-328 219,-282 173,-282"/>
</g>
<g id="clust4" class="cluster"><title>cluster_inflows_inner</title>
<polygon fill="none" stroke="white" stroke-width="2" points="181,-290 181,-320 211,-320 211,-290 181,-290"/>
</g>
<g id="clust5" class="cluster"><title>cluster_outflows</title>
<polygon fill="none" stroke="white" stroke-width="2" points="157,-8 157,-54 235,-54 235,-8 157,-8"/>
</g>
<g id="clust6" class="cluster"><title>cluster_outflows_inner</title>
<polygon fill="none" stroke="white" stroke-width="2" points="165,-16 165,-46 227,-46 227,-16 165,-16"/>
</g>
<!-- read_in_buffer_shapfiles_if_rasters_not -->
<g id="node1" class="node"><title>read_in_buffer_shapfiles_if_rasters_not</title>
<polygon fill="#ccffcc" stroke="black" points="367.546,-186 24.4543,-186 24.4543,-150 367.546,-150 367.546,-186"/>
<text text-anchor="middle" x="196" y="-163.8" font-family="Courier,monospace" font-size="14.00">read_in_buffer_shapfiles_if_rasters_not</text>
</g>
<!-- rast_3nm_file -->
<g id="node3" class="node"><title>rast_3nm_file</title>
<path fill="#ffffcc" stroke="black" d="M175.011,-114C175.011,-114 98.9888,-114 98.9888,-114 92.9888,-114 86.9888,-108 86.9888,-102 86.9888,-102 86.9888,-90 86.9888,-90 86.9888,-84 92.9888,-78 98.9888,-78 98.9888,-78 175.011,-78 175.011,-78 181.011,-78 187.011,-84 187.011,-90 187.011,-90 187.011,-102 187.011,-102 187.011,-108 181.011,-114 175.011,-114"/>
<text text-anchor="middle" x="137" y="-91.8" font-family="Helvetica,sans-Serif" font-size="14.00">rast_3nm_file</text>
</g>
<!-- read_in_buffer_shapfiles_if_rasters_not&#45;&gt;rast_3nm_file -->
<g id="edge2" class="edge"><title>read_in_buffer_shapfiles_if_rasters_not&#45;&gt;rast_3nm_file</title>
<path fill="none" stroke="black" d="M181.416,-149.697C174.342,-141.305 165.717,-131.07 157.955,-121.861"/>
<polygon fill="black" stroke="black" points="160.537,-119.495 151.417,-114.104 155.185,-124.006 160.537,-119.495"/>
</g>
<!-- rast_1km_file -->
<g id="node4" class="node"><title>rast_1km_file</title>
<path fill="#ffffcc" stroke="black" d="M292.729,-114C292.729,-114 217.271,-114 217.271,-114 211.271,-114 205.271,-108 205.271,-102 205.271,-102 205.271,-90 205.271,-90 205.271,-84 211.271,-78 217.271,-78 217.271,-78 292.729,-78 292.729,-78 298.729,-78 304.729,-84 304.729,-90 304.729,-90 304.729,-102 304.729,-102 304.729,-108 298.729,-114 292.729,-114"/>
<text text-anchor="middle" x="255" y="-91.8" font-family="Helvetica,sans-Serif" font-size="14.00">rast_1km_file</text>
</g>
<!-- read_in_buffer_shapfiles_if_rasters_not&#45;&gt;rast_1km_file -->
<g id="edge1" class="edge"><title>read_in_buffer_shapfiles_if_rasters_not&#45;&gt;rast_1km_file</title>
<path fill="none" stroke="black" d="M210.584,-149.697C217.658,-141.305 226.283,-131.07 234.045,-121.861"/>
<polygon fill="black" stroke="black" points="236.815,-124.006 240.583,-114.104 231.463,-119.495 236.815,-124.006"/>
</g>
<!-- poly_1km_file -->
<g id="node2" class="node"><title>poly_1km_file</title>
<path fill="#ffffcc" stroke="black" d="M234.568,-258C234.568,-258 157.432,-258 157.432,-258 151.432,-258 145.432,-252 145.432,-246 145.432,-246 145.432,-234 145.432,-234 145.432,-228 151.432,-222 157.432,-222 157.432,-222 234.568,-222 234.568,-222 240.568,-222 246.568,-228 246.568,-234 246.568,-234 246.568,-246 246.568,-246 246.568,-252 240.568,-258 234.568,-258"/>
<text text-anchor="middle" x="196" y="-235.8" font-family="Helvetica,sans-Serif" font-size="14.00">poly_1km_file</text>
</g>
<!-- poly_1km_file&#45;&gt;read_in_buffer_shapfiles_if_rasters_not -->
<g id="edge3" class="edge"><title>poly_1km_file&#45;&gt;read_in_buffer_shapfiles_if_rasters_not</title>
<path fill="none" stroke="black" d="M196,-221.697C196,-213.983 196,-204.712 196,-196.112"/>
<polygon fill="black" stroke="black" points="199.5,-196.104 196,-186.104 192.5,-196.104 199.5,-196.104"/>
</g>
<!-- rast_3nm_file_outflow -->
<g id="node7" class="node"><title>rast_3nm_file_outflow</title>
<ellipse fill="none" stroke="black" cx="180" cy="-31" rx="7" ry="7"/>
</g>
<!-- rast_3nm_file&#45;&gt;rast_3nm_file_outflow -->
<g id="edge6" class="edge"><title>rast_3nm_file&#45;&gt;rast_3nm_file_outflow</title>
<path fill="none" stroke="black" d="M148.75,-77.785C155.615,-67.7264 164.164,-55.2022 170.583,-45.7966"/>
<polygon fill="black" stroke="black" points="173.596,-47.5904 176.343,-37.3577 167.815,-43.6441 173.596,-47.5904"/>
</g>
<!-- rast_1km_file_outflow -->
<g id="node6" class="node"><title>rast_1km_file_outflow</title>
<ellipse fill="none" stroke="black" cx="212" cy="-31" rx="7" ry="7"/>
</g>
<!-- rast_1km_file&#45;&gt;rast_1km_file_outflow -->
<g id="edge5" class="edge"><title>rast_1km_file&#45;&gt;rast_1km_file_outflow</title>
<path fill="none" stroke="black" d="M243.25,-77.785C236.385,-67.7264 227.836,-55.2022 221.417,-45.7966"/>
<polygon fill="black" stroke="black" points="224.185,-43.6441 215.657,-37.3577 218.404,-47.5904 224.185,-43.6441"/>
</g>
<!-- poly_1km_file_inflow -->
<g id="node5" class="node"><title>poly_1km_file_inflow</title>
<ellipse fill="none" stroke="black" cx="196" cy="-305" rx="7" ry="7"/>
</g>
<!-- poly_1km_file_inflow&#45;&gt;poly_1km_file -->
<g id="edge4" class="edge"><title>poly_1km_file_inflow&#45;&gt;poly_1km_file</title>
<path fill="none" stroke="black" d="M196,-297.729C196,-290.795 196,-279.154 196,-268.215"/>
<polygon fill="black" stroke="black" points="199.5,-268.119 196,-258.119 192.5,-268.119 199.5,-268.119"/>
</g>
</g>
</svg>
