<?xml version="1.0" encoding="UTF-8" standalone="no"?>
<!DOCTYPE svg PUBLIC "-//W3C//DTD SVG 1.1//EN"
 "http://www.w3.org/Graphics/SVG/1.1/DTD/svg11.dtd">
<!-- Generated by graphviz version 2.38.0 (20140413.2041)
 -->
<!-- Title: yw_data_view Pages: 1 -->
<svg width="601pt" height="672pt"
 viewBox="0.00 0.00 601.00 672.00" xmlns="http://www.w3.org/2000/svg" xmlns:xlink="http://www.w3.org/1999/xlink">
<g id="graph0" class="graph" transform="scale(1 1) rotate(0) translate(4 668)">
<title>yw_data_view</title>
<polygon fill="white" stroke="none" points="-4,4 -4,-668 597,-668 597,4 -4,4"/>
<text text-anchor="middle" x="296.5" y="-643.8" font-family="Courier,monospace" font-size="18.00">get_analysis_rasters</text>
<g id="clust1" class="cluster"><title>cluster_workflow</title>
<polygon fill="none" stroke="black" stroke-width="2" points="8,-62 8,-572.4 585,-572.4 585,-62 8,-62"/>
</g>
<g id="clust2" class="cluster"><title>cluster_workflow_inner</title>
<polygon fill="none" stroke="white" stroke-width="2" points="16,-70 16,-564.4 577,-564.4 577,-70 16,-70"/>
</g>
<g id="clust3" class="cluster"><title>cluster_inflows</title>
<polygon fill="none" stroke="white" stroke-width="2" points="436,-580.4 436,-626.4 578,-626.4 578,-580.4 436,-580.4"/>
</g>
<g id="clust4" class="cluster"><title>cluster_inflows_inner</title>
<polygon fill="none" stroke="white" stroke-width="2" points="444,-588.4 444,-618.4 570,-618.4 570,-588.4 444,-588.4"/>
</g>
<g id="clust5" class="cluster"><title>cluster_outflows</title>
<polygon fill="none" stroke="white" stroke-width="2" points="263,-8 263,-54 309,-54 309,-8 263,-8"/>
</g>
<g id="clust6" class="cluster"><title>cluster_outflows_inner</title>
<polygon fill="none" stroke="white" stroke-width="2" points="271,-16 271,-46 301,-46 301,-16 271,-16"/>
</g>
<!-- create_presence_of_buffer_rasters -->
<g id="node1" class="node"><title>create_presence_of_buffer_rasters</title>
<polygon fill="#ccffcc" stroke="black" points="423.654,-335.2 130.346,-335.2 130.346,-299.2 423.654,-299.2 423.654,-335.2"/>
<text text-anchor="middle" x="277" y="-313" font-family="Courier,monospace" font-size="14.00">create_presence_of_buffer_rasters</text>
</g>
<!-- rast_3nm_file_handle -->
<g id="node6" class="node"><title>rast_3nm_file_handle</title>
<path fill="#ffffcc" stroke="black" d="M348.814,-261.9C348.814,-261.9 223.186,-261.9 223.186,-261.9 217.186,-261.9 211.186,-255.9 211.186,-249.9 211.186,-249.9 211.186,-237.9 211.186,-237.9 211.186,-231.9 217.186,-225.9 223.186,-225.9 223.186,-225.9 348.814,-225.9 348.814,-225.9 354.814,-225.9 360.814,-231.9 360.814,-237.9 360.814,-237.9 360.814,-249.9 360.814,-249.9 360.814,-255.9 354.814,-261.9 348.814,-261.9"/>
<text text-anchor="middle" x="286" y="-239.7" font-family="Helvetica,sans-Serif" font-size="14.00">rast_3nm_file_handle</text>
</g>
<!-- create_presence_of_buffer_rasters&#45;&gt;rast_3nm_file_handle -->
<g id="edge11" class="edge"><title>create_presence_of_buffer_rasters&#45;&gt;rast_3nm_file_handle</title>
<path fill="none" stroke="black" d="M279.179,-298.94C280.196,-290.883 281.431,-281.1 282.569,-272.084"/>
<polygon fill="black" stroke="black" points="286.061,-272.36 283.841,-262.001 279.117,-271.484 286.061,-272.36"/>
</g>
<!-- rast_1km_file_handle -->
<g id="node7" class="node"><title>rast_1km_file_handle</title>
<path fill="#ffffcc" stroke="black" d="M181.531,-261.9C181.531,-261.9 56.4692,-261.9 56.4692,-261.9 50.4692,-261.9 44.4692,-255.9 44.4692,-249.9 44.4692,-249.9 44.4692,-237.9 44.4692,-237.9 44.4692,-231.9 50.4692,-225.9 56.4692,-225.9 56.4692,-225.9 181.531,-225.9 181.531,-225.9 187.531,-225.9 193.531,-231.9 193.531,-237.9 193.531,-237.9 193.531,-249.9 193.531,-249.9 193.531,-255.9 187.531,-261.9 181.531,-261.9"/>
<text text-anchor="middle" x="119" y="-239.7" font-family="Helvetica,sans-Serif" font-size="14.00">rast_1km_file_handle</text>
</g>
<!-- create_presence_of_buffer_rasters&#45;&gt;rast_1km_file_handle -->
<g id="edge12" class="edge"><title>create_presence_of_buffer_rasters&#45;&gt;rast_1km_file_handle</title>
<path fill="none" stroke="black" d="M239.155,-299.122C217.25,-289.237 189.487,-276.708 166.168,-266.185"/>
<polygon fill="black" stroke="black" points="167.364,-262.885 156.81,-261.962 164.485,-269.266 167.364,-262.885"/>
</g>
<!-- set_up_configuration_and_start_provenance_tracking -->
<g id="node2" class="node"><title>set_up_configuration_and_start_provenance_tracking</title>
<polygon fill="#ccffcc" stroke="black" points="459.93,-481.8 24.07,-481.8 24.07,-445.8 459.93,-445.8 459.93,-481.8"/>
<text text-anchor="middle" x="242" y="-459.6" font-family="Courier,monospace" font-size="14.00">set_up_configuration_and_start_provenance_tracking</text>
</g>
<!-- dir_spatial -->
<g id="node4" class="node"><title>dir_spatial</title>
<path fill="#ffffcc" stroke="black" d="M95.7843,-335.2C95.7843,-335.2 40.2157,-335.2 40.2157,-335.2 34.2157,-335.2 28.2157,-329.2 28.2157,-323.2 28.2157,-323.2 28.2157,-311.2 28.2157,-311.2 28.2157,-305.2 34.2157,-299.2 40.2157,-299.2 40.2157,-299.2 95.7843,-299.2 95.7843,-299.2 101.784,-299.2 107.784,-305.2 107.784,-311.2 107.784,-311.2 107.784,-323.2 107.784,-323.2 107.784,-329.2 101.784,-335.2 95.7843,-335.2"/>
<text text-anchor="middle" x="68" y="-313" font-family="Helvetica,sans-Serif" font-size="14.00">dir_spatial</text>
</g>
<!-- set_up_configuration_and_start_provenance_tracking&#45;&gt;dir_spatial -->
<g id="edge9" class="edge"><title>set_up_configuration_and_start_provenance_tracking&#45;&gt;dir_spatial</title>
<path fill="none" stroke="black" d="M204.464,-445.711C186.171,-436.452 164.419,-424.002 147,-409.8 123.181,-390.38 100.778,-363.229 85.956,-343.533"/>
<polygon fill="black" stroke="black" points="88.6512,-341.29 79.8939,-335.327 83.021,-345.45 88.6512,-341.29"/>
</g>
<!-- dir_goal -->
<g id="node5" class="node"><title>dir_goal</title>
<path fill="#ffffcc" stroke="black" d="M209.787,-408.5C209.787,-408.5 168.213,-408.5 168.213,-408.5 162.213,-408.5 156.213,-402.5 156.213,-396.5 156.213,-396.5 156.213,-384.5 156.213,-384.5 156.213,-378.5 162.213,-372.5 168.213,-372.5 168.213,-372.5 209.787,-372.5 209.787,-372.5 215.787,-372.5 221.787,-378.5 221.787,-384.5 221.787,-384.5 221.787,-396.5 221.787,-396.5 221.787,-402.5 215.787,-408.5 209.787,-408.5"/>
<text text-anchor="middle" x="189" y="-386.3" font-family="Helvetica,sans-Serif" font-size="14.00">dir_goal</text>
</g>
<!-- set_up_configuration_and_start_provenance_tracking&#45;&gt;dir_goal -->
<g id="edge10" class="edge"><title>set_up_configuration_and_start_provenance_tracking&#45;&gt;dir_goal</title>
<path fill="none" stroke="black" d="M229.17,-445.54C222.725,-436.87 214.795,-426.201 207.687,-416.64"/>
<polygon fill="black" stroke="black" points="210.486,-414.538 201.712,-408.601 204.868,-418.714 210.486,-414.538"/>
</g>
<!-- read_in_buffer_shapfiles_if_rasters_not -->
<g id="node3" class="node"><title>read_in_buffer_shapfiles_if_rasters_not</title>
<polygon fill="#ccffcc" stroke="black" points="457.546,-188.6 114.454,-188.6 114.454,-152.6 457.546,-152.6 457.546,-188.6"/>
<text text-anchor="middle" x="286" y="-166.4" font-family="Courier,monospace" font-size="14.00">read_in_buffer_shapfiles_if_rasters_not</text>
</g>
<!-- rast_1km_file -->
<g id="node12" class="node"><title>rast_1km_file</title>
<path fill="#ffe4b5" stroke="black" d="M155.022,-78.5C155.022,-78.5 416.978,-78.5 416.978,-78.5 422.978,-78.5 428.978,-84.5 428.978,-90.5 428.978,-90.5 428.978,-104.1 428.978,-104.1 428.978,-110.1 422.978,-116.1 416.978,-116.1 416.978,-116.1 155.022,-116.1 155.022,-116.1 149.022,-116.1 143.022,-110.1 143.022,-104.1 143.022,-104.1 143.022,-90.5 143.022,-90.5 143.022,-84.5 149.022,-78.5 155.022,-78.5"/>
<text text-anchor="middle" x="286" y="-104" font-family="Courier,monospace" font-weight="bold" font-size="9.00">rast_1km_file</text>
<polyline fill="none" stroke="black" points="143.022,-97.3 428.978,-97.3 "/>
<text text-anchor="start" x="151.022" y="-85.2" font-family="Courier,monospace" font-weight="bold" font-size="9.00">prep/lsp/vHS/spatial/hs_inland_1km_raster_500m.tif</text>
</g>
<!-- read_in_buffer_shapfiles_if_rasters_not&#45;&gt;rast_1km_file -->
<g id="edge13" class="edge"><title>read_in_buffer_shapfiles_if_rasters_not&#45;&gt;rast_1km_file</title>
<path fill="none" stroke="black" d="M286,-152.34C286,-144.605 286,-135.279 286,-126.568"/>
<polygon fill="black" stroke="black" points="289.5,-126.396 286,-116.396 282.5,-126.396 289.5,-126.396"/>
</g>
<!-- dir_spatial&#45;&gt;read_in_buffer_shapfiles_if_rasters_not -->
<g id="edge7" class="edge"><title>dir_spatial&#45;&gt;read_in_buffer_shapfiles_if_rasters_not</title>
<path fill="none" stroke="black" d="M52.6422,-298.989C36.9153,-279.213 17.114,-246.657 35,-224.6 47.2834,-209.452 80.538,-198.466 118.978,-190.566"/>
<polygon fill="black" stroke="black" points="119.716,-193.988 128.852,-188.624 118.365,-187.12 119.716,-193.988"/>
</g>
<!-- dir_goal&#45;&gt;create_presence_of_buffer_rasters -->
<g id="edge6" class="edge"><title>dir_goal&#45;&gt;create_presence_of_buffer_rasters</title>
<path fill="none" stroke="black" d="M210.302,-372.24C221.652,-363.044 235.776,-351.601 248.101,-341.614"/>
<polygon fill="black" stroke="black" points="250.327,-344.316 255.894,-335.301 245.921,-338.877 250.327,-344.316"/>
</g>
<!-- rast_3nm_file_handle&#45;&gt;read_in_buffer_shapfiles_if_rasters_not -->
<g id="edge4" class="edge"><title>rast_3nm_file_handle&#45;&gt;read_in_buffer_shapfiles_if_rasters_not</title>
<path fill="none" stroke="black" d="M286,-225.64C286,-217.583 286,-207.8 286,-198.784"/>
<polygon fill="black" stroke="black" points="289.5,-198.701 286,-188.701 282.5,-198.701 289.5,-198.701"/>
</g>
<!-- rast_1km_file_handle&#45;&gt;read_in_buffer_shapfiles_if_rasters_not -->
<g id="edge3" class="edge"><title>rast_1km_file_handle&#45;&gt;read_in_buffer_shapfiles_if_rasters_not</title>
<path fill="none" stroke="black" d="M159.001,-225.822C182.36,-215.849 212.02,-203.186 236.801,-192.605"/>
<polygon fill="black" stroke="black" points="238.214,-195.808 246.037,-188.662 235.465,-189.37 238.214,-195.808"/>
</g>
<!-- setup_R -->
<g id="node8" class="node"><title>setup_R</title>
<path fill="#ffe4b5" stroke="black" d="M323,-518.3C323,-518.3 353,-518.3 353,-518.3 359,-518.3 365,-524.3 365,-530.3 365,-530.3 365,-543.9 365,-543.9 365,-549.9 359,-555.9 353,-555.9 353,-555.9 323,-555.9 323,-555.9 317,-555.9 311,-549.9 311,-543.9 311,-543.9 311,-530.3 311,-530.3 311,-524.3 317,-518.3 323,-518.3"/>
<text text-anchor="middle" x="337.897" y="-543.8" font-family="Courier,monospace" font-weight="bold" font-size="9.00">setup_R</text>
<polyline fill="none" stroke="black" points="311,-537.1 364.794,-537.1 "/>
<text text-anchor="middle" x="337.897" y="-525" font-family="Courier,monospace" font-weight="bold" font-size="9.00"> </text>
</g>
<!-- setup_R&#45;&gt;set_up_configuration_and_start_provenance_tracking -->
<g id="edge8" class="edge"><title>setup_R&#45;&gt;set_up_configuration_and_start_provenance_tracking</title>
<path fill="none" stroke="black" d="M313.775,-518.108C301.473,-508.971 286.383,-497.763 273.219,-487.987"/>
<polygon fill="black" stroke="black" points="275.01,-484.957 264.895,-481.805 270.836,-490.577 275.01,-484.957"/>
</g>
<!-- rast_base -->
<g id="node9" class="node"><title>rast_base</title>
<path fill="#ffe4b5" stroke="black" d="M251.52,-371.7C251.52,-371.7 486.48,-371.7 486.48,-371.7 492.48,-371.7 498.48,-377.7 498.48,-383.7 498.48,-383.7 498.48,-397.3 498.48,-397.3 498.48,-403.3 492.48,-409.3 486.48,-409.3 486.48,-409.3 251.52,-409.3 251.52,-409.3 245.52,-409.3 239.52,-403.3 239.52,-397.3 239.52,-397.3 239.52,-383.7 239.52,-383.7 239.52,-377.7 245.52,-371.7 251.52,-371.7"/>
<text text-anchor="middle" x="369" y="-397.2" font-family="Courier,monospace" font-weight="bold" font-size="9.00">rast_base</text>
<polyline fill="none" stroke="black" points="239.52,-390.5 498.48,-390.5 "/>
<text text-anchor="start" x="247.52" y="-378.4" font-family="Courier,monospace" font-weight="bold" font-size="9.00">prep/spatial/raster/ohibc_rgn_raster_500m.tif</text>
</g>
<!-- rast_base&#45;&gt;create_presence_of_buffer_rasters -->
<g id="edge5" class="edge"><title>rast_base&#45;&gt;create_presence_of_buffer_rasters</title>
<path fill="none" stroke="black" d="M345.785,-371.508C333.995,-362.371 319.533,-351.163 306.918,-341.387"/>
<polygon fill="black" stroke="black" points="308.989,-338.564 298.941,-335.205 304.701,-344.097 308.989,-338.564"/>
</g>
<!-- poly_3nm_file -->
<g id="node10" class="node"><title>poly_3nm_file</title>
<path fill="#ffe4b5" stroke="black" d="M390.906,-225.1C390.906,-225.1 453.094,-225.1 453.094,-225.1 459.094,-225.1 465.094,-231.1 465.094,-237.1 465.094,-237.1 465.094,-250.7 465.094,-250.7 465.094,-256.7 459.094,-262.7 453.094,-262.7 453.094,-262.7 390.906,-262.7 390.906,-262.7 384.906,-262.7 378.906,-256.7 378.906,-250.7 378.906,-250.7 378.906,-237.1 378.906,-237.1 378.906,-231.1 384.906,-225.1 390.906,-225.1"/>
<text text-anchor="middle" x="422" y="-250.6" font-family="Courier,monospace" font-weight="bold" font-size="9.00">poly_3nm_file</text>
<polyline fill="none" stroke="black" points="378.906,-243.9 465.094,-243.9 "/>
<text text-anchor="middle" x="422" y="-231.8" font-family="Courier,monospace" font-weight="bold" font-size="9.00"> </text>
</g>
<!-- poly_3nm_file&#45;&gt;read_in_buffer_shapfiles_if_rasters_not -->
<g id="edge2" class="edge"><title>poly_3nm_file&#45;&gt;read_in_buffer_shapfiles_if_rasters_not</title>
<path fill="none" stroke="black" d="M388.032,-225.092C369.694,-215.478 346.906,-203.531 327.521,-193.368"/>
<polygon fill="black" stroke="black" points="329.08,-190.234 318.598,-188.69 325.83,-196.433 329.08,-190.234"/>
</g>
<!-- poly_1km_file -->
<g id="node11" class="node"><title>poly_1km_file</title>
<path fill="#ffe4b5" stroke="black" d="M494.906,-225.1C494.906,-225.1 557.094,-225.1 557.094,-225.1 563.094,-225.1 569.094,-231.1 569.094,-237.1 569.094,-237.1 569.094,-250.7 569.094,-250.7 569.094,-256.7 563.094,-262.7 557.094,-262.7 557.094,-262.7 494.906,-262.7 494.906,-262.7 488.906,-262.7 482.906,-256.7 482.906,-250.7 482.906,-250.7 482.906,-237.1 482.906,-237.1 482.906,-231.1 488.906,-225.1 494.906,-225.1"/>
<text text-anchor="middle" x="526" y="-250.6" font-family="Courier,monospace" font-weight="bold" font-size="9.00">poly_1km_file</text>
<polyline fill="none" stroke="black" points="482.906,-243.9 569.094,-243.9 "/>
<text text-anchor="middle" x="526" y="-231.8" font-family="Courier,monospace" font-weight="bold" font-size="9.00"> </text>
</g>
<!-- poly_1km_file&#45;&gt;read_in_buffer_shapfiles_if_rasters_not -->
<g id="edge1" class="edge"><title>poly_1km_file&#45;&gt;read_in_buffer_shapfiles_if_rasters_not</title>
<path fill="none" stroke="black" d="M482.658,-227.415C479.735,-226.442 476.829,-225.495 474,-224.6 436.777,-212.816 395.009,-200.912 360.313,-191.378"/>
<polygon fill="black" stroke="black" points="360.825,-187.89 350.256,-188.627 358.978,-194.642 360.825,-187.89"/>
</g>
<!-- rast_1km_file_outflow -->
<g id="node17" class="node"><title>rast_1km_file_outflow</title>
<ellipse fill="none" stroke="black" cx="286" cy="-31" rx="7" ry="7"/>
</g>
<!-- rast_1km_file&#45;&gt;rast_1km_file_outflow -->
<g id="edge18" class="edge"><title>rast_1km_file&#45;&gt;rast_1km_file_outflow</title>
<path fill="none" stroke="black" d="M286,-78.3889C286,-68.9828 286,-57.5389 286,-48.3712"/>
<polygon fill="black" stroke="black" points="289.5,-48.3008 286,-38.3008 282.5,-48.3008 289.5,-48.3008"/>
</g>
<!-- setup_R_inflow -->
<g id="node13" class="node"><title>setup_R_inflow</title>
<ellipse fill="none" stroke="black" cx="459" cy="-603.4" rx="7" ry="7"/>
</g>
<!-- setup_R_inflow&#45;&gt;setup_R -->
<g id="edge14" class="edge"><title>setup_R_inflow&#45;&gt;setup_R</title>
<path fill="none" stroke="black" d="M453.164,-599.299C439.064,-591.806 402.225,-572.229 373.974,-557.217"/>
<polygon fill="black" stroke="black" points="375.616,-554.126 365.143,-552.524 372.331,-560.307 375.616,-554.126"/>
</g>
<!-- rast_base_inflow -->
<g id="node14" class="node"><title>rast_base_inflow</title>
<ellipse fill="none" stroke="black" cx="491" cy="-603.4" rx="7" ry="7"/>
</g>
<!-- rast_base_inflow&#45;&gt;rast_base -->
<g id="edge15" class="edge"><title>rast_base_inflow&#45;&gt;rast_base</title>
<path fill="none" stroke="black" d="M491.945,-596.324C495.081,-573.959 503.113,-494.978 469,-445.8 459.675,-432.357 445.919,-421.93 431.574,-413.973"/>
<polygon fill="black" stroke="black" points="433.091,-410.817 422.601,-409.333 429.876,-417.035 433.091,-410.817"/>
</g>
<!-- poly_3nm_file_inflow -->
<g id="node15" class="node"><title>poly_3nm_file_inflow</title>
<ellipse fill="none" stroke="black" cx="523" cy="-603.4" rx="7" ry="7"/>
</g>
<!-- poly_3nm_file_inflow&#45;&gt;poly_3nm_file -->
<g id="edge16" class="edge"><title>poly_3nm_file_inflow&#45;&gt;poly_3nm_file</title>
<path fill="none" stroke="black" d="M523.225,-596.365C523.923,-577.155 526,-515.695 526,-464.8 526,-464.8 526,-464.8 526,-389.5 526,-339.682 484.813,-295.3 454.277,-269.241"/>
<polygon fill="black" stroke="black" points="456.318,-266.387 446.383,-262.704 451.853,-271.778 456.318,-266.387"/>
</g>
<!-- poly_1km_file_inflow -->
<g id="node16" class="node"><title>poly_1km_file_inflow</title>
<ellipse fill="none" stroke="black" cx="555" cy="-603.4" rx="7" ry="7"/>
</g>
<!-- poly_1km_file_inflow&#45;&gt;poly_1km_file -->
<g id="edge17" class="edge"><title>poly_1km_file_inflow&#45;&gt;poly_1km_file</title>
<path fill="none" stroke="black" d="M555.676,-596.374C557.77,-577.187 564,-515.792 564,-464.8 564,-464.8 564,-464.8 564,-389.5 564,-347.474 548.8,-300.766 537.626,-272.11"/>
<polygon fill="black" stroke="black" points="540.848,-270.74 533.874,-262.764 534.352,-273.348 540.848,-270.74"/>
</g>
</g>
</svg>
