<?xml version="1.0" encoding="UTF-8" standalone="no"?>
<!DOCTYPE svg PUBLIC "-//W3C//DTD SVG 1.1//EN"
 "http://www.w3.org/Graphics/SVG/1.1/DTD/svg11.dtd">
<!-- Generated by graphviz version 2.38.0 (20140413.2041)
 -->
<!-- Title: yw_data_view Pages: 1 -->
<svg width="575pt" height="662pt"
 viewBox="0.00 0.00 574.71 661.60" xmlns="http://www.w3.org/2000/svg" xmlns:xlink="http://www.w3.org/1999/xlink">
<g id="graph0" class="graph" transform="scale(1 1) rotate(0) translate(4 657.6)">
<title>yw_data_view</title>
<polygon fill="white" stroke="none" points="-4,4 -4,-657.6 570.708,-657.6 570.708,4 -4,4"/>
<text text-anchor="middle" x="283.354" y="-633.4" font-family="Courier,monospace" font-size="18.00">Read_BC_Parks_EcologicalReserves_ProtectedArea_data</text>
<g id="clust1" class="cluster"><title>cluster_workflow</title>
<polygon fill="none" stroke="black" stroke-width="2" points="49.3541,-62 49.3541,-562 517.354,-562 517.354,-62 49.3541,-62"/>
</g>
<g id="clust2" class="cluster"><title>cluster_workflow_inner</title>
<polygon fill="none" stroke="white" stroke-width="2" points="57.3541,-70 57.3541,-554 509.354,-554 509.354,-70 57.3541,-70"/>
</g>
<g id="clust3" class="cluster"><title>cluster_inflows</title>
<polygon fill="none" stroke="white" stroke-width="2" points="394.354,-570 394.354,-616 472.354,-616 472.354,-570 394.354,-570"/>
</g>
<g id="clust4" class="cluster"><title>cluster_inflows_inner</title>
<polygon fill="none" stroke="white" stroke-width="2" points="402.354,-578 402.354,-608 464.354,-608 464.354,-578 402.354,-578"/>
</g>
<g id="clust5" class="cluster"><title>cluster_outflows</title>
<polygon fill="none" stroke="white" stroke-width="2" points="268.354,-8 268.354,-54 314.354,-54 314.354,-8 268.354,-8"/>
</g>
<g id="clust6" class="cluster"><title>cluster_outflows_inner</title>
<polygon fill="none" stroke="white" stroke-width="2" points="276.354,-16 276.354,-46 306.354,-46 306.354,-16 276.354,-16"/>
</g>
<!-- set_up_Configuration_and_start_provenance_tracking -->
<g id="node1" class="node"><title>set_up_Configuration_and_start_provenance_tracking</title>
<polygon fill="#ccffcc" stroke="black" points="501.284,-474 65.4241,-474 65.4241,-438 501.284,-438 501.284,-474"/>
<text text-anchor="middle" x="283.354" y="-451.8" font-family="Courier,monospace" font-size="14.00">set_up_Configuration_and_start_provenance_tracking</text>
</g>
<!-- dir_anx -->
<g id="node5" class="node"><title>dir_anx</title>
<path fill="#ffffcc" stroke="black" d="M305.252,-402C305.252,-402 267.456,-402 267.456,-402 261.456,-402 255.456,-396 255.456,-390 255.456,-390 255.456,-378 255.456,-378 255.456,-372 261.456,-366 267.456,-366 267.456,-366 305.252,-366 305.252,-366 311.252,-366 317.252,-372 317.252,-378 317.252,-378 317.252,-390 317.252,-390 317.252,-396 311.252,-402 305.252,-402"/>
<text text-anchor="middle" x="286.354" y="-379.8" font-family="Helvetica,sans-Serif" font-size="14.00">dir_anx</text>
</g>
<!-- set_up_Configuration_and_start_provenance_tracking&#45;&gt;dir_anx -->
<g id="edge6" class="edge"><title>set_up_Configuration_and_start_provenance_tracking&#45;&gt;dir_anx</title>
<path fill="none" stroke="black" d="M284.096,-437.697C284.426,-429.983 284.824,-420.712 285.192,-412.112"/>
<polygon fill="black" stroke="black" points="288.69,-412.245 285.621,-402.104 281.696,-411.945 288.69,-412.245"/>
</g>
<!-- dir_goal -->
<g id="node6" class="node"><title>dir_goal</title>
<path fill="#ffffcc" stroke="black" d="M257.141,-330C257.141,-330 215.567,-330 215.567,-330 209.567,-330 203.567,-324 203.567,-318 203.567,-318 203.567,-306 203.567,-306 203.567,-300 209.567,-294 215.567,-294 215.567,-294 257.141,-294 257.141,-294 263.141,-294 269.141,-300 269.141,-306 269.141,-306 269.141,-318 269.141,-318 269.141,-324 263.141,-330 257.141,-330"/>
<text text-anchor="middle" x="236.354" y="-307.8" font-family="Helvetica,sans-Serif" font-size="14.00">dir_goal</text>
</g>
<!-- set_up_Configuration_and_start_provenance_tracking&#45;&gt;dir_goal -->
<g id="edge7" class="edge"><title>set_up_Configuration_and_start_provenance_tracking&#45;&gt;dir_goal</title>
<path fill="none" stroke="black" d="M267.904,-437.643C260.099,-427.861 251.265,-415.02 246.354,-402 238.912,-382.27 236.549,-358.466 235.972,-340.442"/>
<polygon fill="black" stroke="black" points="239.469,-340.258 235.813,-330.314 232.47,-340.368 239.469,-340.258"/>
</g>
<!-- read_TA_PEP_SVW_polygon -->
<g id="node2" class="node"><title>read_TA_PEP_SVW_polygon</title>
<polygon fill="#ccffcc" stroke="black" points="496.022,-330 286.686,-330 286.686,-294 496.022,-294 496.022,-330"/>
<text text-anchor="middle" x="391.354" y="-307.8" font-family="Courier,monospace" font-size="14.00">read_TA_PEP_SVW_polygon</text>
</g>
<!-- hs_pep_poly -->
<g id="node8" class="node"><title>hs_pep_poly</title>
<path fill="#ffffcc" stroke="black" d="M405.222,-258C405.222,-258 333.486,-258 333.486,-258 327.486,-258 321.486,-252 321.486,-246 321.486,-246 321.486,-234 321.486,-234 321.486,-228 327.486,-222 333.486,-222 333.486,-222 405.222,-222 405.222,-222 411.222,-222 417.222,-228 417.222,-234 417.222,-234 417.222,-246 417.222,-246 417.222,-252 411.222,-258 405.222,-258"/>
<text text-anchor="middle" x="369.354" y="-235.8" font-family="Helvetica,sans-Serif" font-size="14.00">hs_pep_poly</text>
</g>
<!-- read_TA_PEP_SVW_polygon&#45;&gt;hs_pep_poly -->
<g id="edge8" class="edge"><title>read_TA_PEP_SVW_polygon&#45;&gt;hs_pep_poly</title>
<path fill="none" stroke="black" d="M385.916,-293.697C383.465,-285.898 380.514,-276.509 377.786,-267.829"/>
<polygon fill="black" stroke="black" points="381.067,-266.595 374.73,-258.104 374.389,-268.694 381.067,-266.595"/>
</g>
<!-- write_hs_pep_poly -->
<g id="node3" class="node"><title>write_hs_pep_poly</title>
<polygon fill="#ccffcc" stroke="black" points="370.63,-186 212.078,-186 212.078,-150 370.63,-150 370.63,-186"/>
<text text-anchor="middle" x="291.354" y="-163.8" font-family="Courier,monospace" font-size="14.00">write_hs_pep_poly</text>
</g>
<!-- poly_hs_pep -->
<g id="node9" class="node"><title>poly_hs_pep</title>
<path fill="#ffffcc" stroke="black" d="M327.222,-114C327.222,-114 255.486,-114 255.486,-114 249.486,-114 243.486,-108 243.486,-102 243.486,-102 243.486,-90 243.486,-90 243.486,-84 249.486,-78 255.486,-78 255.486,-78 327.222,-78 327.222,-78 333.222,-78 339.222,-84 339.222,-90 339.222,-90 339.222,-102 339.222,-102 339.222,-108 333.222,-114 327.222,-114"/>
<text text-anchor="middle" x="291.354" y="-91.8" font-family="Helvetica,sans-Serif" font-size="14.00">poly_hs_pep</text>
</g>
<!-- write_hs_pep_poly&#45;&gt;poly_hs_pep -->
<g id="edge9" class="edge"><title>write_hs_pep_poly&#45;&gt;poly_hs_pep</title>
<path fill="none" stroke="black" d="M291.354,-149.697C291.354,-141.983 291.354,-132.712 291.354,-124.112"/>
<polygon fill="black" stroke="black" points="294.854,-124.104 291.354,-114.104 287.854,-124.104 294.854,-124.104"/>
</g>
<!-- setup_R -->
<g id="node4" class="node"><title>setup_R</title>
<path fill="#ffffcc" stroke="black" d="M394.482,-546C394.482,-546 350.226,-546 350.226,-546 344.226,-546 338.226,-540 338.226,-534 338.226,-534 338.226,-522 338.226,-522 338.226,-516 344.226,-510 350.226,-510 350.226,-510 394.482,-510 394.482,-510 400.482,-510 406.482,-516 406.482,-522 406.482,-522 406.482,-534 406.482,-534 406.482,-540 400.482,-546 394.482,-546"/>
<text text-anchor="middle" x="372.354" y="-523.8" font-family="Helvetica,sans-Serif" font-size="14.00">setup_R</text>
</g>
<!-- setup_R&#45;&gt;set_up_Configuration_and_start_provenance_tracking -->
<g id="edge1" class="edge"><title>setup_R&#45;&gt;set_up_Configuration_and_start_provenance_tracking</title>
<path fill="none" stroke="black" d="M350.354,-509.697C339.145,-500.881 325.352,-490.032 313.2,-480.474"/>
<polygon fill="black" stroke="black" points="315.125,-477.535 305.101,-474.104 310.797,-483.038 315.125,-477.535"/>
</g>
<!-- dir_anx&#45;&gt;read_TA_PEP_SVW_polygon -->
<g id="edge2" class="edge"><title>dir_anx&#45;&gt;read_TA_PEP_SVW_polygon</title>
<path fill="none" stroke="black" d="M312.04,-365.876C325.642,-356.808 342.526,-345.552 357.215,-335.759"/>
<polygon fill="black" stroke="black" points="359.19,-338.649 365.569,-330.19 355.307,-332.825 359.19,-338.649"/>
</g>
<!-- dir_goal&#45;&gt;write_hs_pep_poly -->
<g id="edge3" class="edge"><title>dir_goal&#45;&gt;write_hs_pep_poly</title>
<path fill="none" stroke="black" d="M242.988,-293.871C252.445,-269.457 269.886,-224.426 281.038,-195.635"/>
<polygon fill="black" stroke="black" points="284.348,-196.778 284.696,-186.189 277.821,-194.25 284.348,-196.778"/>
</g>
<!-- TA_PEP_SVW_polygon -->
<g id="node7" class="node"><title>TA_PEP_SVW_polygon</title>
<path fill="#ffffcc" stroke="black" d="M489.508,-402C489.508,-402 347.2,-402 347.2,-402 341.2,-402 335.2,-396 335.2,-390 335.2,-390 335.2,-378 335.2,-378 335.2,-372 341.2,-366 347.2,-366 347.2,-366 489.508,-366 489.508,-366 495.508,-366 501.508,-372 501.508,-378 501.508,-378 501.508,-390 501.508,-390 501.508,-396 495.508,-402 489.508,-402"/>
<text text-anchor="middle" x="418.354" y="-379.8" font-family="Helvetica,sans-Serif" font-size="14.00">TA_PEP_SVW_polygon</text>
</g>
<!-- TA_PEP_SVW_polygon&#45;&gt;read_TA_PEP_SVW_polygon -->
<g id="edge4" class="edge"><title>TA_PEP_SVW_polygon&#45;&gt;read_TA_PEP_SVW_polygon</title>
<path fill="none" stroke="black" d="M411.68,-365.697C408.639,-357.813 404.971,-348.304 401.593,-339.546"/>
<polygon fill="black" stroke="black" points="404.816,-338.175 397.951,-330.104 398.285,-340.694 404.816,-338.175"/>
</g>
<!-- hs_pep_poly&#45;&gt;write_hs_pep_poly -->
<g id="edge5" class="edge"><title>hs_pep_poly&#45;&gt;write_hs_pep_poly</title>
<path fill="none" stroke="black" d="M350.073,-221.697C340.439,-213.05 328.625,-202.449 318.127,-193.027"/>
<polygon fill="black" stroke="black" points="320.193,-190.179 310.413,-186.104 315.518,-195.388 320.193,-190.179"/>
</g>
<!-- poly_hs_pep_outflow -->
<g id="node12" class="node"><title>poly_hs_pep_outflow</title>
<ellipse fill="none" stroke="black" cx="291.354" cy="-31" rx="7" ry="7"/>
</g>
<!-- poly_hs_pep&#45;&gt;poly_hs_pep_outflow -->
<g id="edge12" class="edge"><title>poly_hs_pep&#45;&gt;poly_hs_pep_outflow</title>
<path fill="none" stroke="black" d="M291.354,-77.785C291.354,-68.6656 291.354,-57.5197 291.354,-48.5085"/>
<polygon fill="black" stroke="black" points="294.854,-48.242 291.354,-38.242 287.854,-48.2421 294.854,-48.242"/>
</g>
<!-- setup_R_inflow -->
<g id="node10" class="node"><title>setup_R_inflow</title>
<ellipse fill="none" stroke="black" cx="417.354" cy="-593" rx="7" ry="7"/>
</g>
<!-- setup_R_inflow&#45;&gt;setup_R -->
<g id="edge10" class="edge"><title>setup_R_inflow&#45;&gt;setup_R</title>
<path fill="none" stroke="black" d="M413.517,-586.629C408.421,-579.493 399.069,-566.4 390.565,-554.496"/>
<polygon fill="black" stroke="black" points="393.257,-552.243 384.597,-546.14 387.561,-556.311 393.257,-552.243"/>
</g>
<!-- TA_PEP_SVW_polygon_inflow -->
<g id="node11" class="node"><title>TA_PEP_SVW_polygon_inflow</title>
<ellipse fill="none" stroke="black" cx="449.354" cy="-593" rx="7" ry="7"/>
</g>
<!-- TA_PEP_SVW_polygon_inflow&#45;&gt;TA_PEP_SVW_polygon -->
<g id="edge11" class="edge"><title>TA_PEP_SVW_polygon_inflow&#45;&gt;TA_PEP_SVW_polygon</title>
<path fill="none" stroke="black" d="M453.987,-587.497C472.967,-568.492 542.301,-493.273 510.354,-438 502.785,-424.904 490.614,-414.757 477.571,-407.016"/>
<polygon fill="black" stroke="black" points="478.901,-403.754 468.447,-402.033 475.546,-409.898 478.901,-403.754"/>
</g>
</g>
</svg>
