<?xml version="1.0" encoding="UTF-8" standalone="no"?>
<!DOCTYPE svg PUBLIC "-//W3C//DTD SVG 1.1//EN"
 "http://www.w3.org/Graphics/SVG/1.1/DTD/svg11.dtd">
<!-- Generated by graphviz version 2.38.0 (20140413.2041)
 -->
<!-- Title: yw_data_view Pages: 1 -->
<svg width="492pt" height="662pt"
 viewBox="0.00 0.00 492.00 661.60" xmlns="http://www.w3.org/2000/svg" xmlns:xlink="http://www.w3.org/1999/xlink">
<g id="graph0" class="graph" transform="scale(1 1) rotate(0) translate(4 657.6)">
<title>yw_data_view</title>
<polygon fill="white" stroke="none" points="-4,4 -4,-657.6 488,-657.6 488,4 -4,4"/>
<text text-anchor="middle" x="242" y="-633.4" font-family="Courier,monospace" font-size="18.00">setup_BC_PEP_polygons</text>
<g id="clust1" class="cluster"><title>cluster_workflow</title>
<polygon fill="none" stroke="black" stroke-width="2" points="8,-62 8,-562 476,-562 476,-62 8,-62"/>
</g>
<g id="clust2" class="cluster"><title>cluster_workflow_inner</title>
<polygon fill="none" stroke="white" stroke-width="2" points="16,-70 16,-554 468,-554 468,-70 16,-70"/>
</g>
<g id="clust3" class="cluster"><title>cluster_inflows</title>
<polygon fill="none" stroke="white" stroke-width="2" points="353,-570 353,-616 431,-616 431,-570 353,-570"/>
</g>
<g id="clust4" class="cluster"><title>cluster_inflows_inner</title>
<polygon fill="none" stroke="white" stroke-width="2" points="361,-578 361,-608 423,-608 423,-578 361,-578"/>
</g>
<g id="clust5" class="cluster"><title>cluster_outflows</title>
<polygon fill="none" stroke="white" stroke-width="2" points="227,-8 227,-54 273,-54 273,-8 227,-8"/>
</g>
<g id="clust6" class="cluster"><title>cluster_outflows_inner</title>
<polygon fill="none" stroke="white" stroke-width="2" points="235,-16 235,-46 265,-46 265,-16 235,-16"/>
</g>
<!-- set_up_Configuration_and_start_provenance_tracking -->
<g id="node1" class="node"><title>set_up_Configuration_and_start_provenance_tracking</title>
<polygon fill="#ccffcc" stroke="black" points="459.93,-474 24.07,-474 24.07,-438 459.93,-438 459.93,-474"/>
<text text-anchor="middle" x="242" y="-451.8" font-family="Courier,monospace" font-size="14.00">set_up_Configuration_and_start_provenance_tracking</text>
</g>
<!-- dir_anx -->
<g id="node5" class="node"><title>dir_anx</title>
<path fill="#ffffcc" stroke="black" d="M263.898,-402C263.898,-402 226.102,-402 226.102,-402 220.102,-402 214.102,-396 214.102,-390 214.102,-390 214.102,-378 214.102,-378 214.102,-372 220.102,-366 226.102,-366 226.102,-366 263.898,-366 263.898,-366 269.898,-366 275.898,-372 275.898,-378 275.898,-378 275.898,-390 275.898,-390 275.898,-396 269.898,-402 263.898,-402"/>
<text text-anchor="middle" x="245" y="-379.8" font-family="Helvetica,sans-Serif" font-size="14.00">dir_anx</text>
</g>
<!-- set_up_Configuration_and_start_provenance_tracking&#45;&gt;dir_anx -->
<g id="edge6" class="edge"><title>set_up_Configuration_and_start_provenance_tracking&#45;&gt;dir_anx</title>
<path fill="none" stroke="black" d="M242.742,-437.697C243.072,-429.983 243.469,-420.712 243.838,-412.112"/>
<polygon fill="black" stroke="black" points="247.335,-412.245 244.267,-402.104 240.342,-411.945 247.335,-412.245"/>
</g>
<!-- dir_goal -->
<g id="node6" class="node"><title>dir_goal</title>
<path fill="#ffffcc" stroke="black" d="M215.787,-330C215.787,-330 174.213,-330 174.213,-330 168.213,-330 162.213,-324 162.213,-318 162.213,-318 162.213,-306 162.213,-306 162.213,-300 168.213,-294 174.213,-294 174.213,-294 215.787,-294 215.787,-294 221.787,-294 227.787,-300 227.787,-306 227.787,-306 227.787,-318 227.787,-318 227.787,-324 221.787,-330 215.787,-330"/>
<text text-anchor="middle" x="195" y="-307.8" font-family="Helvetica,sans-Serif" font-size="14.00">dir_goal</text>
</g>
<!-- set_up_Configuration_and_start_provenance_tracking&#45;&gt;dir_goal -->
<g id="edge7" class="edge"><title>set_up_Configuration_and_start_provenance_tracking&#45;&gt;dir_goal</title>
<path fill="none" stroke="black" d="M226.55,-437.643C218.745,-427.861 209.911,-415.02 205,-402 197.558,-382.27 195.195,-358.466 194.617,-340.442"/>
<polygon fill="black" stroke="black" points="198.115,-340.258 194.459,-330.314 191.116,-340.368 198.115,-340.258"/>
</g>
<!-- read_TA_PEP_SVW_polygon -->
<g id="node2" class="node"><title>read_TA_PEP_SVW_polygon</title>
<polygon fill="#ccffcc" stroke="black" points="454.668,-330 245.332,-330 245.332,-294 454.668,-294 454.668,-330"/>
<text text-anchor="middle" x="350" y="-307.8" font-family="Courier,monospace" font-size="14.00">read_TA_PEP_SVW_polygon</text>
</g>
<!-- hs_pep_poly -->
<g id="node8" class="node"><title>hs_pep_poly</title>
<path fill="#ffffcc" stroke="black" d="M363.868,-258C363.868,-258 292.132,-258 292.132,-258 286.132,-258 280.132,-252 280.132,-246 280.132,-246 280.132,-234 280.132,-234 280.132,-228 286.132,-222 292.132,-222 292.132,-222 363.868,-222 363.868,-222 369.868,-222 375.868,-228 375.868,-234 375.868,-234 375.868,-246 375.868,-246 375.868,-252 369.868,-258 363.868,-258"/>
<text text-anchor="middle" x="328" y="-235.8" font-family="Helvetica,sans-Serif" font-size="14.00">hs_pep_poly</text>
</g>
<!-- read_TA_PEP_SVW_polygon&#45;&gt;hs_pep_poly -->
<g id="edge8" class="edge"><title>read_TA_PEP_SVW_polygon&#45;&gt;hs_pep_poly</title>
<path fill="none" stroke="black" d="M344.562,-293.697C342.111,-285.898 339.16,-276.509 336.432,-267.829"/>
<polygon fill="black" stroke="black" points="339.713,-266.595 333.376,-258.104 333.035,-268.694 339.713,-266.595"/>
</g>
<!-- write_hs_pep_poly -->
<g id="node3" class="node"><title>write_hs_pep_poly</title>
<polygon fill="#ccffcc" stroke="black" points="329.276,-186 170.724,-186 170.724,-150 329.276,-150 329.276,-186"/>
<text text-anchor="middle" x="250" y="-163.8" font-family="Courier,monospace" font-size="14.00">write_hs_pep_poly</text>
</g>
<!-- poly_hs_pep -->
<g id="node9" class="node"><title>poly_hs_pep</title>
<path fill="#ffffcc" stroke="black" d="M285.868,-114C285.868,-114 214.132,-114 214.132,-114 208.132,-114 202.132,-108 202.132,-102 202.132,-102 202.132,-90 202.132,-90 202.132,-84 208.132,-78 214.132,-78 214.132,-78 285.868,-78 285.868,-78 291.868,-78 297.868,-84 297.868,-90 297.868,-90 297.868,-102 297.868,-102 297.868,-108 291.868,-114 285.868,-114"/>
<text text-anchor="middle" x="250" y="-91.8" font-family="Helvetica,sans-Serif" font-size="14.00">poly_hs_pep</text>
</g>
<!-- write_hs_pep_poly&#45;&gt;poly_hs_pep -->
<g id="edge9" class="edge"><title>write_hs_pep_poly&#45;&gt;poly_hs_pep</title>
<path fill="none" stroke="black" d="M250,-149.697C250,-141.983 250,-132.712 250,-124.112"/>
<polygon fill="black" stroke="black" points="253.5,-124.104 250,-114.104 246.5,-124.104 253.5,-124.104"/>
</g>
<!-- setup_R -->
<g id="node4" class="node"><title>setup_R</title>
<path fill="#ffffcc" stroke="black" d="M353.128,-546C353.128,-546 308.872,-546 308.872,-546 302.872,-546 296.872,-540 296.872,-534 296.872,-534 296.872,-522 296.872,-522 296.872,-516 302.872,-510 308.872,-510 308.872,-510 353.128,-510 353.128,-510 359.128,-510 365.128,-516 365.128,-522 365.128,-522 365.128,-534 365.128,-534 365.128,-540 359.128,-546 353.128,-546"/>
<text text-anchor="middle" x="331" y="-523.8" font-family="Helvetica,sans-Serif" font-size="14.00">setup_R</text>
</g>
<!-- setup_R&#45;&gt;set_up_Configuration_and_start_provenance_tracking -->
<g id="edge1" class="edge"><title>setup_R&#45;&gt;set_up_Configuration_and_start_provenance_tracking</title>
<path fill="none" stroke="black" d="M309,-509.697C297.791,-500.881 283.998,-490.032 271.846,-480.474"/>
<polygon fill="black" stroke="black" points="273.771,-477.535 263.747,-474.104 269.443,-483.038 273.771,-477.535"/>
</g>
<!-- dir_anx&#45;&gt;read_TA_PEP_SVW_polygon -->
<g id="edge2" class="edge"><title>dir_anx&#45;&gt;read_TA_PEP_SVW_polygon</title>
<path fill="none" stroke="black" d="M270.686,-365.876C284.288,-356.808 301.172,-345.552 315.861,-335.759"/>
<polygon fill="black" stroke="black" points="317.836,-338.649 324.215,-330.19 313.953,-332.825 317.836,-338.649"/>
</g>
<!-- dir_goal&#45;&gt;write_hs_pep_poly -->
<g id="edge3" class="edge"><title>dir_goal&#45;&gt;write_hs_pep_poly</title>
<path fill="none" stroke="black" d="M201.634,-293.871C211.091,-269.457 228.532,-224.426 239.684,-195.635"/>
<polygon fill="black" stroke="black" points="242.994,-196.778 243.342,-186.189 236.467,-194.25 242.994,-196.778"/>
</g>
<!-- TA_PEP_SVW_polygon -->
<g id="node7" class="node"><title>TA_PEP_SVW_polygon</title>
<path fill="#ffffcc" stroke="black" d="M448.154,-402C448.154,-402 305.846,-402 305.846,-402 299.846,-402 293.846,-396 293.846,-390 293.846,-390 293.846,-378 293.846,-378 293.846,-372 299.846,-366 305.846,-366 305.846,-366 448.154,-366 448.154,-366 454.154,-366 460.154,-372 460.154,-378 460.154,-378 460.154,-390 460.154,-390 460.154,-396 454.154,-402 448.154,-402"/>
<text text-anchor="middle" x="377" y="-379.8" font-family="Helvetica,sans-Serif" font-size="14.00">TA_PEP_SVW_polygon</text>
</g>
<!-- TA_PEP_SVW_polygon&#45;&gt;read_TA_PEP_SVW_polygon -->
<g id="edge4" class="edge"><title>TA_PEP_SVW_polygon&#45;&gt;read_TA_PEP_SVW_polygon</title>
<path fill="none" stroke="black" d="M370.326,-365.697C367.285,-357.813 363.617,-348.304 360.239,-339.546"/>
<polygon fill="black" stroke="black" points="363.462,-338.175 356.597,-330.104 356.931,-340.694 363.462,-338.175"/>
</g>
<!-- hs_pep_poly&#45;&gt;write_hs_pep_poly -->
<g id="edge5" class="edge"><title>hs_pep_poly&#45;&gt;write_hs_pep_poly</title>
<path fill="none" stroke="black" d="M308.719,-221.697C299.085,-213.05 287.271,-202.449 276.773,-193.027"/>
<polygon fill="black" stroke="black" points="278.839,-190.179 269.059,-186.104 274.164,-195.388 278.839,-190.179"/>
</g>
<!-- poly_hs_pep_outflow -->
<g id="node12" class="node"><title>poly_hs_pep_outflow</title>
<ellipse fill="none" stroke="black" cx="250" cy="-31" rx="7" ry="7"/>
</g>
<!-- poly_hs_pep&#45;&gt;poly_hs_pep_outflow -->
<g id="edge12" class="edge"><title>poly_hs_pep&#45;&gt;poly_hs_pep_outflow</title>
<path fill="none" stroke="black" d="M250,-77.785C250,-68.6656 250,-57.5197 250,-48.5085"/>
<polygon fill="black" stroke="black" points="253.5,-48.242 250,-38.242 246.5,-48.2421 253.5,-48.242"/>
</g>
<!-- setup_R_inflow -->
<g id="node10" class="node"><title>setup_R_inflow</title>
<ellipse fill="none" stroke="black" cx="376" cy="-593" rx="7" ry="7"/>
</g>
<!-- setup_R_inflow&#45;&gt;setup_R -->
<g id="edge10" class="edge"><title>setup_R_inflow&#45;&gt;setup_R</title>
<path fill="none" stroke="black" d="M372.163,-586.629C367.067,-579.493 357.715,-566.4 349.211,-554.496"/>
<polygon fill="black" stroke="black" points="351.903,-552.243 343.243,-546.14 346.207,-556.311 351.903,-552.243"/>
</g>
<!-- TA_PEP_SVW_polygon_inflow -->
<g id="node11" class="node"><title>TA_PEP_SVW_polygon_inflow</title>
<ellipse fill="none" stroke="black" cx="408" cy="-593" rx="7" ry="7"/>
</g>
<!-- TA_PEP_SVW_polygon_inflow&#45;&gt;TA_PEP_SVW_polygon -->
<g id="edge11" class="edge"><title>TA_PEP_SVW_polygon_inflow&#45;&gt;TA_PEP_SVW_polygon</title>
<path fill="none" stroke="black" d="M412.633,-587.497C431.613,-568.492 500.947,-493.273 469,-438 461.43,-424.904 449.26,-414.757 436.217,-407.016"/>
<polygon fill="black" stroke="black" points="437.547,-403.754 427.093,-402.033 434.192,-409.898 437.547,-403.754"/>
</g>
</g>
</svg>
