<?xml version="1.0" encoding="UTF-8" standalone="no"?>
<!DOCTYPE svg PUBLIC "-//W3C//DTD SVG 1.1//EN"
 "http://www.w3.org/Graphics/SVG/1.1/DTD/svg11.dtd">
<!-- Generated by graphviz version 2.38.0 (20140413.2041)
 -->
<!-- Title: Workflow Pages: 1 -->
<svg width="575pt" height="691pt"
 viewBox="0.00 0.00 574.71 690.80" xmlns="http://www.w3.org/2000/svg" xmlns:xlink="http://www.w3.org/1999/xlink">
<g id="graph0" class="graph" transform="scale(1 1) rotate(0) translate(4 686.8)">
<title>Workflow</title>
<polygon fill="white" stroke="none" points="-4,4 -4,-686.8 570.708,-686.8 570.708,4 -4,4"/>
<text text-anchor="middle" x="283.354" y="-662.6" font-family="Courier,monospace" font-size="18.00">Read_BC_Parks_EcologicalReserves_ProtectedArea_data</text>
<g id="clust1" class="cluster"><title>cluster_workflow_box_outer</title>
<polygon fill="none" stroke="black" stroke-width="2" points="49.3541,-62 49.3541,-591.2 517.354,-591.2 517.354,-62 49.3541,-62"/>
</g>
<g id="clust2" class="cluster"><title>cluster_workflow_box_inner</title>
<polygon fill="none" stroke="white" stroke-width="2" points="57.3541,-70 57.3541,-583.2 509.354,-583.2 509.354,-70 57.3541,-70"/>
</g>
<g id="clust3" class="cluster"><title>cluster_input_ports_group_outer</title>
<polygon fill="none" stroke="white" points="394.354,-599.2 394.354,-645.2 472.354,-645.2 472.354,-599.2 394.354,-599.2"/>
</g>
<g id="clust4" class="cluster"><title>cluster_input_ports_group_inner</title>
<polygon fill="none" stroke="white" points="402.354,-607.2 402.354,-637.2 464.354,-637.2 464.354,-607.2 402.354,-607.2"/>
</g>
<g id="clust5" class="cluster"><title>cluster_output_ports_group_outer</title>
<polygon fill="none" stroke="white" points="183.354,-8 183.354,-54 229.354,-54 229.354,-8 183.354,-8"/>
</g>
<g id="clust6" class="cluster"><title>cluster_output_ports_group_inner</title>
<polygon fill="none" stroke="white" points="191.354,-16 191.354,-46 221.354,-46 221.354,-16 191.354,-16"/>
</g>
<!-- set_up_Configuration_and_start_provenance_tracking -->
<g id="node1" class="node"><title>set_up_Configuration_and_start_provenance_tracking</title>
<polygon fill="#ccffcc" stroke="black" points="501.284,-503.2 65.4241,-503.2 65.4241,-467.2 501.284,-467.2 501.284,-503.2"/>
<text text-anchor="middle" x="283.354" y="-481" font-family="Courier,monospace" font-size="14.00">set_up_Configuration_and_start_provenance_tracking</text>
</g>
<!-- dir_anx -->
<g id="node8" class="node"><title>dir_anx</title>
<path fill="#fcfcfc" stroke="black" d="M165.252,-423.9C165.252,-423.9 127.456,-423.9 127.456,-423.9 121.456,-423.9 115.456,-417.9 115.456,-411.9 115.456,-411.9 115.456,-399.9 115.456,-399.9 115.456,-393.9 121.456,-387.9 127.456,-387.9 127.456,-387.9 165.252,-387.9 165.252,-387.9 171.252,-387.9 177.252,-393.9 177.252,-399.9 177.252,-399.9 177.252,-411.9 177.252,-411.9 177.252,-417.9 171.252,-423.9 165.252,-423.9"/>
<text text-anchor="middle" x="146.354" y="-401.7" font-family="Helvetica,sans-Serif" font-size="14.00">dir_anx</text>
</g>
<!-- set_up_Configuration_and_start_provenance_tracking&#45;&gt;dir_anx -->
<g id="edge1" class="edge"><title>set_up_Configuration_and_start_provenance_tracking&#45;&gt;dir_anx</title>
<path fill="none" stroke="black" d="M251.257,-467.14C232.263,-456.926 207.8,-443.565 186.354,-431.2 185.245,-430.561 184.122,-429.908 182.989,-429.246"/>
<polygon fill="black" stroke="black" points="184.619,-426.144 174.231,-424.059 181.051,-432.167 184.619,-426.144"/>
</g>
<!-- dir_goal -->
<g id="node9" class="node"><title>dir_goal</title>
<path fill="#fcfcfc" stroke="black" d="M119.141,-344.6C119.141,-344.6 77.567,-344.6 77.567,-344.6 71.567,-344.6 65.567,-338.6 65.567,-332.6 65.567,-332.6 65.567,-320.6 65.567,-320.6 65.567,-314.6 71.567,-308.6 77.567,-308.6 77.567,-308.6 119.141,-308.6 119.141,-308.6 125.141,-308.6 131.141,-314.6 131.141,-320.6 131.141,-320.6 131.141,-332.6 131.141,-332.6 131.141,-338.6 125.141,-344.6 119.141,-344.6"/>
<text text-anchor="middle" x="98.3541" y="-322.4" font-family="Helvetica,sans-Serif" font-size="14.00">dir_goal</text>
</g>
<!-- set_up_Configuration_and_start_provenance_tracking&#45;&gt;dir_goal -->
<g id="edge2" class="edge"><title>set_up_Configuration_and_start_provenance_tracking&#45;&gt;dir_goal</title>
<path fill="none" stroke="black" d="M157.539,-467.189C137.841,-459.189 119.641,-447.682 106.354,-431.2 89.25,-409.982 89.5473,-377.728 92.6643,-354.852"/>
<polygon fill="black" stroke="black" points="96.1532,-355.201 94.2994,-344.77 89.2435,-354.081 96.1532,-355.201"/>
</g>
<!-- read_TA_PEP_SVW_polygon -->
<g id="node2" class="node"><title>read_TA_PEP_SVW_polygon</title>
<polygon fill="#ccffcc" stroke="black" points="358.022,-344.6 148.686,-344.6 148.686,-308.6 358.022,-308.6 358.022,-344.6"/>
<text text-anchor="middle" x="253.354" y="-322.4" font-family="Courier,monospace" font-size="14.00">read_TA_PEP_SVW_polygon</text>
</g>
<!-- hs_pep_poly -->
<g id="node7" class="node"><title>hs_pep_poly</title>
<path fill="#ffffcc" stroke="black" d="M273.222,-272.6C273.222,-272.6 201.486,-272.6 201.486,-272.6 195.486,-272.6 189.486,-266.6 189.486,-260.6 189.486,-260.6 189.486,-248.6 189.486,-248.6 189.486,-242.6 195.486,-236.6 201.486,-236.6 201.486,-236.6 273.222,-236.6 273.222,-236.6 279.222,-236.6 285.222,-242.6 285.222,-248.6 285.222,-248.6 285.222,-260.6 285.222,-260.6 285.222,-266.6 279.222,-272.6 273.222,-272.6"/>
<text text-anchor="middle" x="237.354" y="-250.4" font-family="Helvetica,sans-Serif" font-size="14.00">hs_pep_poly</text>
</g>
<!-- read_TA_PEP_SVW_polygon&#45;&gt;hs_pep_poly -->
<g id="edge4" class="edge"><title>read_TA_PEP_SVW_polygon&#45;&gt;hs_pep_poly</title>
<path fill="none" stroke="black" d="M249.399,-308.297C247.636,-300.583 245.517,-291.312 243.551,-282.712"/>
<polygon fill="black" stroke="black" points="246.904,-281.673 241.264,-272.704 240.08,-283.233 246.904,-281.673"/>
</g>
<!-- write_hs_pep_poly -->
<g id="node3" class="node"><title>write_hs_pep_poly</title>
<polygon fill="#ccffcc" stroke="black" points="285.63,-200.6 127.078,-200.6 127.078,-164.6 285.63,-164.6 285.63,-200.6"/>
<text text-anchor="middle" x="206.354" y="-178.4" font-family="Courier,monospace" font-size="14.00">write_hs_pep_poly</text>
</g>
<!-- poly_hs_pep -->
<g id="node4" class="node"><title>poly_hs_pep</title>
<path fill="#ffffcc" stroke="black" d="M92.8696,-78.5C92.8696,-78.5 319.839,-78.5 319.839,-78.5 325.839,-78.5 331.839,-84.5 331.839,-90.5 331.839,-90.5 331.839,-116.1 331.839,-116.1 331.839,-122.1 325.839,-128.1 319.839,-128.1 319.839,-128.1 92.8696,-128.1 92.8696,-128.1 86.8696,-128.1 80.8696,-122.1 80.8696,-116.1 80.8696,-116.1 80.8696,-90.5 80.8696,-90.5 80.8696,-84.5 86.8696,-78.5 92.8696,-78.5"/>
<text text-anchor="middle" x="206.354" y="-111.5" font-family="Helvetica,sans-Serif" font-size="14.00">poly_hs_pep</text>
<polyline fill="none" stroke="black" points="80.8696,-103.3 331.839,-103.3 "/>
<text text-anchor="middle" x="206.354" y="-86.7" font-family="Helvetica,sans-Serif" font-size="14.00">file:{dir_goal}/spatial/hs_pep_poly.shp</text>
</g>
<!-- write_hs_pep_poly&#45;&gt;poly_hs_pep -->
<g id="edge7" class="edge"><title>write_hs_pep_poly&#45;&gt;poly_hs_pep</title>
<path fill="none" stroke="black" d="M206.354,-164.445C206.354,-156.689 206.354,-147.239 206.354,-138.15"/>
<polygon fill="black" stroke="black" points="209.854,-138.15 206.354,-128.15 202.854,-138.15 209.854,-138.15"/>
</g>
<!-- poly_hs_pep_output_port -->
<g id="node12" class="node"><title>poly_hs_pep_output_port</title>
<ellipse fill="#ffffff" stroke="black" cx="206.354" cy="-31" rx="7" ry="7"/>
</g>
<!-- poly_hs_pep&#45;&gt;poly_hs_pep_output_port -->
<g id="edge12" class="edge"><title>poly_hs_pep&#45;&gt;poly_hs_pep_output_port</title>
<path fill="none" stroke="black" d="M206.354,-78.4996C206.354,-68.5289 206.354,-57.1933 206.354,-48.2105"/>
<polygon fill="black" stroke="black" points="209.854,-48.0698 206.354,-38.0698 202.854,-48.0699 209.854,-48.0698"/>
</g>
<!-- setup_R -->
<g id="node5" class="node"><title>setup_R</title>
<path fill="#ffffcc" stroke="black" d="M394.482,-575.2C394.482,-575.2 350.226,-575.2 350.226,-575.2 344.226,-575.2 338.226,-569.2 338.226,-563.2 338.226,-563.2 338.226,-551.2 338.226,-551.2 338.226,-545.2 344.226,-539.2 350.226,-539.2 350.226,-539.2 394.482,-539.2 394.482,-539.2 400.482,-539.2 406.482,-545.2 406.482,-551.2 406.482,-551.2 406.482,-563.2 406.482,-563.2 406.482,-569.2 400.482,-575.2 394.482,-575.2"/>
<text text-anchor="middle" x="372.354" y="-553" font-family="Helvetica,sans-Serif" font-size="14.00">setup_R</text>
</g>
<!-- setup_R&#45;&gt;set_up_Configuration_and_start_provenance_tracking -->
<g id="edge3" class="edge"><title>setup_R&#45;&gt;set_up_Configuration_and_start_provenance_tracking</title>
<path fill="none" stroke="black" d="M350.354,-538.897C339.145,-530.081 325.352,-519.232 313.2,-509.674"/>
<polygon fill="black" stroke="black" points="315.125,-506.735 305.101,-503.304 310.797,-512.238 315.125,-506.735"/>
</g>
<!-- TA_PEP_SVW_polygon -->
<g id="node6" class="node"><title>TA_PEP_SVW_polygon</title>
<path fill="#ffffcc" stroke="black" d="M207.643,-381.1C207.643,-381.1 489.065,-381.1 489.065,-381.1 495.065,-381.1 501.065,-387.1 501.065,-393.1 501.065,-393.1 501.065,-418.7 501.065,-418.7 501.065,-424.7 495.065,-430.7 489.065,-430.7 489.065,-430.7 207.643,-430.7 207.643,-430.7 201.643,-430.7 195.643,-424.7 195.643,-418.7 195.643,-418.7 195.643,-393.1 195.643,-393.1 195.643,-387.1 201.643,-381.1 207.643,-381.1"/>
<text text-anchor="middle" x="348.354" y="-414.1" font-family="Helvetica,sans-Serif" font-size="14.00">TA_PEP_SVW_polygon</text>
<polyline fill="none" stroke="black" points="195.643,-405.9 501.065,-405.9 "/>
<text text-anchor="middle" x="348.354" y="-389.3" font-family="Helvetica,sans-Serif" font-size="14.00">file:{dir_anx}/_raw_data/databc/TA_PEP_SVW</text>
</g>
<!-- TA_PEP_SVW_polygon&#45;&gt;read_TA_PEP_SVW_polygon -->
<g id="edge6" class="edge"><title>TA_PEP_SVW_polygon&#45;&gt;read_TA_PEP_SVW_polygon</title>
<path fill="none" stroke="black" d="M319.076,-381.077C307.293,-371.489 293.747,-360.467 282.026,-350.93"/>
<polygon fill="black" stroke="black" points="284.213,-348.197 274.247,-344.6 279.795,-353.627 284.213,-348.197"/>
</g>
<!-- hs_pep_poly&#45;&gt;write_hs_pep_poly -->
<g id="edge8" class="edge"><title>hs_pep_poly&#45;&gt;write_hs_pep_poly</title>
<path fill="none" stroke="black" d="M229.691,-236.297C226.162,-228.328 221.898,-218.7 217.985,-209.864"/>
<polygon fill="black" stroke="black" points="221.178,-208.431 213.929,-200.704 214.778,-211.265 221.178,-208.431"/>
</g>
<!-- dir_anx&#45;&gt;read_TA_PEP_SVW_polygon -->
<g id="edge5" class="edge"><title>dir_anx&#45;&gt;read_TA_PEP_SVW_polygon</title>
<path fill="none" stroke="black" d="M170.101,-387.745C185.201,-376.836 204.937,-362.578 221.403,-350.683"/>
<polygon fill="black" stroke="black" points="223.617,-353.401 229.674,-344.707 219.518,-347.726 223.617,-353.401"/>
</g>
<!-- dir_goal&#45;&gt;write_hs_pep_poly -->
<g id="edge9" class="edge"><title>dir_goal&#45;&gt;write_hs_pep_poly</title>
<path fill="none" stroke="black" d="M111.381,-308.471C130.193,-283.737 165.099,-237.842 186.951,-209.112"/>
<polygon fill="black" stroke="black" points="190.013,-210.868 193.281,-200.789 184.441,-206.63 190.013,-210.868"/>
</g>
<!-- TA_PEP_SVW_polygon_input_port -->
<g id="node10" class="node"><title>TA_PEP_SVW_polygon_input_port</title>
<ellipse fill="#ffffff" stroke="black" cx="449.354" cy="-622.2" rx="7" ry="7"/>
</g>
<!-- TA_PEP_SVW_polygon_input_port&#45;&gt;TA_PEP_SVW_polygon -->
<g id="edge10" class="edge"><title>TA_PEP_SVW_polygon_input_port&#45;&gt;TA_PEP_SVW_polygon</title>
<path fill="none" stroke="black" d="M453.958,-616.808C473.501,-597.633 546.946,-519.864 510.354,-467.2 501.137,-453.934 488.633,-443.581 474.633,-435.502"/>
<polygon fill="black" stroke="black" points="476.209,-432.376 465.739,-430.76 472.916,-438.553 476.209,-432.376"/>
</g>
<!-- setup_R_input_port -->
<g id="node11" class="node"><title>setup_R_input_port</title>
<ellipse fill="#ffffff" stroke="black" cx="417.354" cy="-622.2" rx="7" ry="7"/>
</g>
<!-- setup_R_input_port&#45;&gt;setup_R -->
<g id="edge11" class="edge"><title>setup_R_input_port&#45;&gt;setup_R</title>
<path fill="none" stroke="black" d="M413.517,-615.829C408.421,-608.693 399.069,-595.6 390.565,-583.696"/>
<polygon fill="black" stroke="black" points="393.257,-581.443 384.597,-575.34 387.561,-585.511 393.257,-581.443"/>
</g>
</g>
</svg>
