<?xml version="1.0" encoding="UTF-8" standalone="no"?>
<!DOCTYPE svg PUBLIC "-//W3C//DTD SVG 1.1//EN"
 "http://www.w3.org/Graphics/SVG/1.1/DTD/svg11.dtd">
<!-- Generated by graphviz version 2.38.0 (20140413.2041)
 -->
<!-- Title: yw_data_view Pages: 1 -->
<svg width="492pt" height="662pt"
 viewBox="0.00 0.00 492.00 661.60" xmlns="http://www.w3.org/2000/svg" xmlns:xlink="http://www.w3.org/1999/xlink">
<g id="graph0" class="graph" transform="scale(1 1) rotate(0) translate(4 657.6)">
<title>yw_data_view</title>
<polygon fill="white" stroke="none" points="-4,4 -4,-657.6 488,-657.6 488,4 -4,4"/>
<text text-anchor="middle" x="242" y="-633.4" font-family="Courier,monospace" font-size="18.00">setup_BC_PEP_polygons</text>
<g id="clust1" class="cluster"><title>cluster_workflow</title>
<polygon fill="none" stroke="black" stroke-width="2" points="8,-62 8,-562 476,-562 476,-62 8,-62"/>
</g>
<g id="clust2" class="cluster"><title>cluster_workflow_inner</title>
<polygon fill="none" stroke="white" stroke-width="2" points="16,-70 16,-554 468,-554 468,-70 16,-70"/>
</g>
<g id="clust3" class="cluster"><title>cluster_inflows</title>
<polygon fill="none" stroke="white" stroke-width="2" points="219,-570 219,-616 265,-616 265,-570 219,-570"/>
</g>
<g id="clust4" class="cluster"><title>cluster_inflows_inner</title>
<polygon fill="none" stroke="white" stroke-width="2" points="227,-578 227,-608 257,-608 257,-578 227,-578"/>
</g>
<g id="clust5" class="cluster"><title>cluster_outflows</title>
<polygon fill="none" stroke="white" stroke-width="2" points="182,-8 182,-54 228,-54 228,-8 182,-8"/>
</g>
<g id="clust6" class="cluster"><title>cluster_outflows_inner</title>
<polygon fill="none" stroke="white" stroke-width="2" points="190,-16 190,-46 220,-46 220,-16 190,-16"/>
</g>
<!-- write_hs_pep_poly -->
<g id="node1" class="node"><title>write_hs_pep_poly</title>
<polygon fill="#ccffcc" stroke="black" points="284.276,-186 125.724,-186 125.724,-150 284.276,-150 284.276,-186"/>
<text text-anchor="middle" x="205" y="-163.8" font-family="Courier,monospace" font-size="14.00">write_hs_pep_poly</text>
</g>
<!-- poly_hs_pep -->
<g id="node8" class="node"><title>poly_hs_pep</title>
<path fill="#ffffcc" stroke="black" d="M240.868,-114C240.868,-114 169.132,-114 169.132,-114 163.132,-114 157.132,-108 157.132,-102 157.132,-102 157.132,-90 157.132,-90 157.132,-84 163.132,-78 169.132,-78 169.132,-78 240.868,-78 240.868,-78 246.868,-78 252.868,-84 252.868,-90 252.868,-90 252.868,-102 252.868,-102 252.868,-108 246.868,-114 240.868,-114"/>
<text text-anchor="middle" x="205" y="-91.8" font-family="Helvetica,sans-Serif" font-size="14.00">poly_hs_pep</text>
</g>
<!-- write_hs_pep_poly&#45;&gt;poly_hs_pep -->
<g id="edge1" class="edge"><title>write_hs_pep_poly&#45;&gt;poly_hs_pep</title>
<path fill="none" stroke="black" d="M205,-149.697C205,-141.983 205,-132.712 205,-124.112"/>
<polygon fill="black" stroke="black" points="208.5,-124.104 205,-114.104 201.5,-124.104 208.5,-124.104"/>
</g>
<!-- read_TA_PEP_SVW_polygon -->
<g id="node2" class="node"><title>read_TA_PEP_SVW_polygon</title>
<polygon fill="#ccffcc" stroke="black" points="254.668,-330 45.3321,-330 45.3321,-294 254.668,-294 254.668,-330"/>
<text text-anchor="middle" x="150" y="-307.8" font-family="Courier,monospace" font-size="14.00">read_TA_PEP_SVW_polygon</text>
</g>
<!-- hs_pep_poly -->
<g id="node7" class="node"><title>hs_pep_poly</title>
<path fill="#ffffcc" stroke="black" d="M207.868,-258C207.868,-258 136.132,-258 136.132,-258 130.132,-258 124.132,-252 124.132,-246 124.132,-246 124.132,-234 124.132,-234 124.132,-228 130.132,-222 136.132,-222 136.132,-222 207.868,-222 207.868,-222 213.868,-222 219.868,-228 219.868,-234 219.868,-234 219.868,-246 219.868,-246 219.868,-252 213.868,-258 207.868,-258"/>
<text text-anchor="middle" x="172" y="-235.8" font-family="Helvetica,sans-Serif" font-size="14.00">hs_pep_poly</text>
</g>
<!-- read_TA_PEP_SVW_polygon&#45;&gt;hs_pep_poly -->
<g id="edge2" class="edge"><title>read_TA_PEP_SVW_polygon&#45;&gt;hs_pep_poly</title>
<path fill="none" stroke="black" d="M155.438,-293.697C157.889,-285.898 160.84,-276.509 163.568,-267.829"/>
<polygon fill="black" stroke="black" points="166.965,-268.694 166.624,-258.104 160.287,-266.595 166.965,-268.694"/>
</g>
<!-- set_up_Configuration_and_start_provenance_tracking -->
<g id="node3" class="node"><title>set_up_Configuration_and_start_provenance_tracking</title>
<polygon fill="#ccffcc" stroke="black" points="459.93,-474 24.07,-474 24.07,-438 459.93,-438 459.93,-474"/>
<text text-anchor="middle" x="242" y="-451.8" font-family="Courier,monospace" font-size="14.00">set_up_Configuration_and_start_provenance_tracking</text>
</g>
<!-- dir_anx -->
<g id="node5" class="node"><title>dir_anx</title>
<path fill="#ffffcc" stroke="black" d="M210.898,-402C210.898,-402 173.102,-402 173.102,-402 167.102,-402 161.102,-396 161.102,-390 161.102,-390 161.102,-378 161.102,-378 161.102,-372 167.102,-366 173.102,-366 173.102,-366 210.898,-366 210.898,-366 216.898,-366 222.898,-372 222.898,-378 222.898,-378 222.898,-390 222.898,-390 222.898,-396 216.898,-402 210.898,-402"/>
<text text-anchor="middle" x="192" y="-379.8" font-family="Helvetica,sans-Serif" font-size="14.00">dir_anx</text>
</g>
<!-- set_up_Configuration_and_start_provenance_tracking&#45;&gt;dir_anx -->
<g id="edge4" class="edge"><title>set_up_Configuration_and_start_provenance_tracking&#45;&gt;dir_anx</title>
<path fill="none" stroke="black" d="M229.64,-437.697C223.767,-429.474 216.631,-419.483 210.158,-410.421"/>
<polygon fill="black" stroke="black" points="212.878,-408.207 204.217,-402.104 207.182,-412.276 212.878,-408.207"/>
</g>
<!-- dir_goal -->
<g id="node6" class="node"><title>dir_goal</title>
<path fill="#ffffcc" stroke="black" d="M325.787,-330C325.787,-330 284.213,-330 284.213,-330 278.213,-330 272.213,-324 272.213,-318 272.213,-318 272.213,-306 272.213,-306 272.213,-300 278.213,-294 284.213,-294 284.213,-294 325.787,-294 325.787,-294 331.787,-294 337.787,-300 337.787,-306 337.787,-306 337.787,-318 337.787,-318 337.787,-324 331.787,-330 325.787,-330"/>
<text text-anchor="middle" x="305" y="-307.8" font-family="Helvetica,sans-Serif" font-size="14.00">dir_goal</text>
</g>
<!-- set_up_Configuration_and_start_provenance_tracking&#45;&gt;dir_goal -->
<g id="edge3" class="edge"><title>set_up_Configuration_and_start_provenance_tracking&#45;&gt;dir_goal</title>
<path fill="none" stroke="black" d="M249.599,-437.871C260.431,-413.457 280.41,-368.426 293.183,-339.635"/>
<polygon fill="black" stroke="black" points="296.518,-340.749 297.374,-330.189 290.119,-337.911 296.518,-340.749"/>
</g>
<!-- setup_R -->
<g id="node4" class="node"><title>setup_R</title>
<path fill="#ffffcc" stroke="black" d="M264.128,-546C264.128,-546 219.872,-546 219.872,-546 213.872,-546 207.872,-540 207.872,-534 207.872,-534 207.872,-522 207.872,-522 207.872,-516 213.872,-510 219.872,-510 219.872,-510 264.128,-510 264.128,-510 270.128,-510 276.128,-516 276.128,-522 276.128,-522 276.128,-534 276.128,-534 276.128,-540 270.128,-546 264.128,-546"/>
<text text-anchor="middle" x="242" y="-523.8" font-family="Helvetica,sans-Serif" font-size="14.00">setup_R</text>
</g>
<!-- setup_R&#45;&gt;set_up_Configuration_and_start_provenance_tracking -->
<g id="edge5" class="edge"><title>setup_R&#45;&gt;set_up_Configuration_and_start_provenance_tracking</title>
<path fill="none" stroke="black" d="M242,-509.697C242,-501.983 242,-492.712 242,-484.112"/>
<polygon fill="black" stroke="black" points="245.5,-484.104 242,-474.104 238.5,-484.104 245.5,-484.104"/>
</g>
<!-- dir_anx&#45;&gt;read_TA_PEP_SVW_polygon -->
<g id="edge6" class="edge"><title>dir_anx&#45;&gt;read_TA_PEP_SVW_polygon</title>
<path fill="none" stroke="black" d="M181.618,-365.697C176.735,-357.559 170.813,-347.689 165.421,-338.701"/>
<polygon fill="black" stroke="black" points="168.409,-336.879 160.263,-330.104 162.406,-340.48 168.409,-336.879"/>
</g>
<!-- dir_goal&#45;&gt;write_hs_pep_poly -->
<g id="edge7" class="edge"><title>dir_goal&#45;&gt;write_hs_pep_poly</title>
<path fill="none" stroke="black" d="M292.938,-293.871C275.519,-269.137 243.199,-223.242 222.966,-194.512"/>
<polygon fill="black" stroke="black" points="225.725,-192.35 217.105,-186.189 220.001,-196.381 225.725,-192.35"/>
</g>
<!-- hs_pep_poly&#45;&gt;write_hs_pep_poly -->
<g id="edge8" class="edge"><title>hs_pep_poly&#45;&gt;write_hs_pep_poly</title>
<path fill="none" stroke="black" d="M180.157,-221.697C183.914,-213.728 188.453,-204.1 192.618,-195.264"/>
<polygon fill="black" stroke="black" points="195.838,-196.642 196.937,-186.104 189.506,-193.657 195.838,-196.642"/>
</g>
<!-- poly_hs_pep_outflow -->
<g id="node10" class="node"><title>poly_hs_pep_outflow</title>
<ellipse fill="none" stroke="black" cx="205" cy="-31" rx="7" ry="7"/>
</g>
<!-- poly_hs_pep&#45;&gt;poly_hs_pep_outflow -->
<g id="edge10" class="edge"><title>poly_hs_pep&#45;&gt;poly_hs_pep_outflow</title>
<path fill="none" stroke="black" d="M205,-77.785C205,-68.6656 205,-57.5197 205,-48.5085"/>
<polygon fill="black" stroke="black" points="208.5,-48.242 205,-38.242 201.5,-48.2421 208.5,-48.242"/>
</g>
<!-- setup_R_inflow -->
<g id="node9" class="node"><title>setup_R_inflow</title>
<ellipse fill="none" stroke="black" cx="242" cy="-593" rx="7" ry="7"/>
</g>
<!-- setup_R_inflow&#45;&gt;setup_R -->
<g id="edge9" class="edge"><title>setup_R_inflow&#45;&gt;setup_R</title>
<path fill="none" stroke="black" d="M242,-585.729C242,-578.795 242,-567.154 242,-556.215"/>
<polygon fill="black" stroke="black" points="245.5,-556.119 242,-546.119 238.5,-556.119 245.5,-556.119"/>
</g>
</g>
</svg>
