<?xml version="1.0" encoding="UTF-8" standalone="no"?>
<!DOCTYPE svg PUBLIC "-//W3C//DTD SVG 1.1//EN"
 "http://www.w3.org/Graphics/SVG/1.1/DTD/svg11.dtd">
<!-- Generated by graphviz version 2.38.0 (20140413.2041)
 -->
<!-- Title: yw_data_view Pages: 1 -->
<svg width="575pt" height="662pt"
 viewBox="0.00 0.00 574.71 661.60" xmlns="http://www.w3.org/2000/svg" xmlns:xlink="http://www.w3.org/1999/xlink">
<g id="graph0" class="graph" transform="scale(1 1) rotate(0) translate(4 657.6)">
<title>yw_data_view</title>
<polygon fill="white" stroke="none" points="-4,4 -4,-657.6 570.708,-657.6 570.708,4 -4,4"/>
<text text-anchor="middle" x="283.354" y="-633.4" font-family="Courier,monospace" font-size="18.00">Read_BC_Parks_EcologicalReserves_ProtectedArea_data</text>
<g id="clust1" class="cluster"><title>cluster_workflow</title>
<polygon fill="none" stroke="black" stroke-width="2" points="49.3541,-62 49.3541,-562 517.354,-562 517.354,-62 49.3541,-62"/>
</g>
<g id="clust2" class="cluster"><title>cluster_workflow_inner</title>
<polygon fill="none" stroke="white" stroke-width="2" points="57.3541,-70 57.3541,-554 509.354,-554 509.354,-70 57.3541,-70"/>
</g>
<g id="clust3" class="cluster"><title>cluster_inflows</title>
<polygon fill="none" stroke="white" stroke-width="2" points="260.354,-570 260.354,-616 306.354,-616 306.354,-570 260.354,-570"/>
</g>
<g id="clust4" class="cluster"><title>cluster_inflows_inner</title>
<polygon fill="none" stroke="white" stroke-width="2" points="268.354,-578 268.354,-608 298.354,-608 298.354,-578 268.354,-578"/>
</g>
<g id="clust5" class="cluster"><title>cluster_outflows</title>
<polygon fill="none" stroke="white" stroke-width="2" points="223.354,-8 223.354,-54 269.354,-54 269.354,-8 223.354,-8"/>
</g>
<g id="clust6" class="cluster"><title>cluster_outflows_inner</title>
<polygon fill="none" stroke="white" stroke-width="2" points="231.354,-16 231.354,-46 261.354,-46 261.354,-16 231.354,-16"/>
</g>
<!-- write_hs_pep_poly -->
<g id="node1" class="node"><title>write_hs_pep_poly</title>
<polygon fill="#ccffcc" stroke="black" points="325.63,-186 167.078,-186 167.078,-150 325.63,-150 325.63,-186"/>
<text text-anchor="middle" x="246.354" y="-163.8" font-family="Courier,monospace" font-size="14.00">write_hs_pep_poly</text>
</g>
<!-- poly_hs_pep -->
<g id="node8" class="node"><title>poly_hs_pep</title>
<path fill="#ffffcc" stroke="black" d="M282.222,-114C282.222,-114 210.486,-114 210.486,-114 204.486,-114 198.486,-108 198.486,-102 198.486,-102 198.486,-90 198.486,-90 198.486,-84 204.486,-78 210.486,-78 210.486,-78 282.222,-78 282.222,-78 288.222,-78 294.222,-84 294.222,-90 294.222,-90 294.222,-102 294.222,-102 294.222,-108 288.222,-114 282.222,-114"/>
<text text-anchor="middle" x="246.354" y="-91.8" font-family="Helvetica,sans-Serif" font-size="14.00">poly_hs_pep</text>
</g>
<!-- write_hs_pep_poly&#45;&gt;poly_hs_pep -->
<g id="edge1" class="edge"><title>write_hs_pep_poly&#45;&gt;poly_hs_pep</title>
<path fill="none" stroke="black" d="M246.354,-149.697C246.354,-141.983 246.354,-132.712 246.354,-124.112"/>
<polygon fill="black" stroke="black" points="249.854,-124.104 246.354,-114.104 242.854,-124.104 249.854,-124.104"/>
</g>
<!-- read_TA_PEP_SVW_polygon -->
<g id="node2" class="node"><title>read_TA_PEP_SVW_polygon</title>
<polygon fill="#ccffcc" stroke="black" points="296.022,-330 86.6862,-330 86.6862,-294 296.022,-294 296.022,-330"/>
<text text-anchor="middle" x="191.354" y="-307.8" font-family="Courier,monospace" font-size="14.00">read_TA_PEP_SVW_polygon</text>
</g>
<!-- hs_pep_poly -->
<g id="node7" class="node"><title>hs_pep_poly</title>
<path fill="#ffffcc" stroke="black" d="M249.222,-258C249.222,-258 177.486,-258 177.486,-258 171.486,-258 165.486,-252 165.486,-246 165.486,-246 165.486,-234 165.486,-234 165.486,-228 171.486,-222 177.486,-222 177.486,-222 249.222,-222 249.222,-222 255.222,-222 261.222,-228 261.222,-234 261.222,-234 261.222,-246 261.222,-246 261.222,-252 255.222,-258 249.222,-258"/>
<text text-anchor="middle" x="213.354" y="-235.8" font-family="Helvetica,sans-Serif" font-size="14.00">hs_pep_poly</text>
</g>
<!-- read_TA_PEP_SVW_polygon&#45;&gt;hs_pep_poly -->
<g id="edge2" class="edge"><title>read_TA_PEP_SVW_polygon&#45;&gt;hs_pep_poly</title>
<path fill="none" stroke="black" d="M196.792,-293.697C199.243,-285.898 202.194,-276.509 204.922,-267.829"/>
<polygon fill="black" stroke="black" points="208.319,-268.694 207.978,-258.104 201.641,-266.595 208.319,-268.694"/>
</g>
<!-- set_up_Configuration_and_start_provenance_tracking -->
<g id="node3" class="node"><title>set_up_Configuration_and_start_provenance_tracking</title>
<polygon fill="#ccffcc" stroke="black" points="501.284,-474 65.4241,-474 65.4241,-438 501.284,-438 501.284,-474"/>
<text text-anchor="middle" x="283.354" y="-451.8" font-family="Courier,monospace" font-size="14.00">set_up_Configuration_and_start_provenance_tracking</text>
</g>
<!-- dir_anx -->
<g id="node5" class="node"><title>dir_anx</title>
<path fill="#ffffcc" stroke="black" d="M252.252,-402C252.252,-402 214.456,-402 214.456,-402 208.456,-402 202.456,-396 202.456,-390 202.456,-390 202.456,-378 202.456,-378 202.456,-372 208.456,-366 214.456,-366 214.456,-366 252.252,-366 252.252,-366 258.252,-366 264.252,-372 264.252,-378 264.252,-378 264.252,-390 264.252,-390 264.252,-396 258.252,-402 252.252,-402"/>
<text text-anchor="middle" x="233.354" y="-379.8" font-family="Helvetica,sans-Serif" font-size="14.00">dir_anx</text>
</g>
<!-- set_up_Configuration_and_start_provenance_tracking&#45;&gt;dir_anx -->
<g id="edge4" class="edge"><title>set_up_Configuration_and_start_provenance_tracking&#45;&gt;dir_anx</title>
<path fill="none" stroke="black" d="M270.995,-437.697C265.121,-429.474 257.985,-419.483 251.512,-410.421"/>
<polygon fill="black" stroke="black" points="254.232,-408.207 245.571,-402.104 248.536,-412.276 254.232,-408.207"/>
</g>
<!-- dir_goal -->
<g id="node6" class="node"><title>dir_goal</title>
<path fill="#ffffcc" stroke="black" d="M367.141,-330C367.141,-330 325.567,-330 325.567,-330 319.567,-330 313.567,-324 313.567,-318 313.567,-318 313.567,-306 313.567,-306 313.567,-300 319.567,-294 325.567,-294 325.567,-294 367.141,-294 367.141,-294 373.141,-294 379.141,-300 379.141,-306 379.141,-306 379.141,-318 379.141,-318 379.141,-324 373.141,-330 367.141,-330"/>
<text text-anchor="middle" x="346.354" y="-307.8" font-family="Helvetica,sans-Serif" font-size="14.00">dir_goal</text>
</g>
<!-- set_up_Configuration_and_start_provenance_tracking&#45;&gt;dir_goal -->
<g id="edge3" class="edge"><title>set_up_Configuration_and_start_provenance_tracking&#45;&gt;dir_goal</title>
<path fill="none" stroke="black" d="M290.953,-437.871C301.785,-413.457 321.764,-368.426 334.537,-339.635"/>
<polygon fill="black" stroke="black" points="337.872,-340.749 338.728,-330.189 331.473,-337.911 337.872,-340.749"/>
</g>
<!-- setup_R -->
<g id="node4" class="node"><title>setup_R</title>
<path fill="#ffffcc" stroke="black" d="M305.482,-546C305.482,-546 261.226,-546 261.226,-546 255.226,-546 249.226,-540 249.226,-534 249.226,-534 249.226,-522 249.226,-522 249.226,-516 255.226,-510 261.226,-510 261.226,-510 305.482,-510 305.482,-510 311.482,-510 317.482,-516 317.482,-522 317.482,-522 317.482,-534 317.482,-534 317.482,-540 311.482,-546 305.482,-546"/>
<text text-anchor="middle" x="283.354" y="-523.8" font-family="Helvetica,sans-Serif" font-size="14.00">setup_R</text>
</g>
<!-- setup_R&#45;&gt;set_up_Configuration_and_start_provenance_tracking -->
<g id="edge5" class="edge"><title>setup_R&#45;&gt;set_up_Configuration_and_start_provenance_tracking</title>
<path fill="none" stroke="black" d="M283.354,-509.697C283.354,-501.983 283.354,-492.712 283.354,-484.112"/>
<polygon fill="black" stroke="black" points="286.854,-484.104 283.354,-474.104 279.854,-484.104 286.854,-484.104"/>
</g>
<!-- dir_anx&#45;&gt;read_TA_PEP_SVW_polygon -->
<g id="edge6" class="edge"><title>dir_anx&#45;&gt;read_TA_PEP_SVW_polygon</title>
<path fill="none" stroke="black" d="M222.972,-365.697C218.089,-357.559 212.168,-347.689 206.775,-338.701"/>
<polygon fill="black" stroke="black" points="209.763,-336.879 201.617,-330.104 203.76,-340.48 209.763,-336.879"/>
</g>
<!-- dir_goal&#45;&gt;write_hs_pep_poly -->
<g id="edge7" class="edge"><title>dir_goal&#45;&gt;write_hs_pep_poly</title>
<path fill="none" stroke="black" d="M334.292,-293.871C316.873,-269.137 284.553,-223.242 264.32,-194.512"/>
<polygon fill="black" stroke="black" points="267.079,-192.35 258.459,-186.189 261.355,-196.381 267.079,-192.35"/>
</g>
<!-- hs_pep_poly&#45;&gt;write_hs_pep_poly -->
<g id="edge8" class="edge"><title>hs_pep_poly&#45;&gt;write_hs_pep_poly</title>
<path fill="none" stroke="black" d="M221.511,-221.697C225.268,-213.728 229.807,-204.1 233.972,-195.264"/>
<polygon fill="black" stroke="black" points="237.192,-196.642 238.291,-186.104 230.861,-193.657 237.192,-196.642"/>
</g>
<!-- poly_hs_pep_outflow -->
<g id="node10" class="node"><title>poly_hs_pep_outflow</title>
<ellipse fill="none" stroke="black" cx="246.354" cy="-31" rx="7" ry="7"/>
</g>
<!-- poly_hs_pep&#45;&gt;poly_hs_pep_outflow -->
<g id="edge10" class="edge"><title>poly_hs_pep&#45;&gt;poly_hs_pep_outflow</title>
<path fill="none" stroke="black" d="M246.354,-77.785C246.354,-68.6656 246.354,-57.5197 246.354,-48.5085"/>
<polygon fill="black" stroke="black" points="249.854,-48.242 246.354,-38.242 242.854,-48.2421 249.854,-48.242"/>
</g>
<!-- setup_R_inflow -->
<g id="node9" class="node"><title>setup_R_inflow</title>
<ellipse fill="none" stroke="black" cx="283.354" cy="-593" rx="7" ry="7"/>
</g>
<!-- setup_R_inflow&#45;&gt;setup_R -->
<g id="edge9" class="edge"><title>setup_R_inflow&#45;&gt;setup_R</title>
<path fill="none" stroke="black" d="M283.354,-585.729C283.354,-578.795 283.354,-567.154 283.354,-556.215"/>
<polygon fill="black" stroke="black" points="286.854,-556.119 283.354,-546.119 279.854,-556.119 286.854,-556.119"/>
</g>
</g>
</svg>
