<?xml version="1.0" encoding="UTF-8" standalone="no"?>
<!DOCTYPE svg PUBLIC "-//W3C//DTD SVG 1.1//EN"
 "http://www.w3.org/Graphics/SVG/1.1/DTD/svg11.dtd">
<!-- Generated by graphviz version 2.38.0 (20140413.2041)
 -->
<!-- Title: yw_data_view Pages: 1 -->
<svg width="575pt" height="669pt"
 viewBox="0.00 0.00 574.71 669.40" xmlns="http://www.w3.org/2000/svg" xmlns:xlink="http://www.w3.org/1999/xlink">
<g id="graph0" class="graph" transform="scale(1 1) rotate(0) translate(4 665.4)">
<title>yw_data_view</title>
<polygon fill="white" stroke="none" points="-4,4 -4,-665.4 570.708,-665.4 570.708,4 -4,4"/>
<text text-anchor="middle" x="283.354" y="-641.2" font-family="Courier,monospace" font-size="18.00">Read_BC_Parks_EcologicalReserves_ProtectedArea_data</text>
<g id="clust1" class="cluster"><title>cluster_workflow</title>
<polygon fill="none" stroke="black" stroke-width="2" points="49.3541,-62 49.3541,-569.8 517.354,-569.8 517.354,-62 49.3541,-62"/>
</g>
<g id="clust2" class="cluster"><title>cluster_workflow_inner</title>
<polygon fill="none" stroke="white" stroke-width="2" points="57.3541,-70 57.3541,-561.8 509.354,-561.8 509.354,-70 57.3541,-70"/>
</g>
<g id="clust3" class="cluster"><title>cluster_inflows</title>
<polygon fill="none" stroke="white" stroke-width="2" points="394.354,-577.8 394.354,-623.8 472.354,-623.8 472.354,-577.8 394.354,-577.8"/>
</g>
<g id="clust4" class="cluster"><title>cluster_inflows_inner</title>
<polygon fill="none" stroke="white" stroke-width="2" points="402.354,-585.8 402.354,-615.8 464.354,-615.8 464.354,-585.8 402.354,-585.8"/>
</g>
<g id="clust5" class="cluster"><title>cluster_outflows</title>
<polygon fill="none" stroke="white" stroke-width="2" points="297.354,-8 297.354,-54 343.354,-54 343.354,-8 297.354,-8"/>
</g>
<g id="clust6" class="cluster"><title>cluster_outflows_inner</title>
<polygon fill="none" stroke="white" stroke-width="2" points="305.354,-16 305.354,-46 335.354,-46 335.354,-16 305.354,-16"/>
</g>
<!-- set_up_Configuration_and_start_provenance_tracking -->
<g id="node1" class="node"><title>set_up_Configuration_and_start_provenance_tracking</title>
<polygon fill="#ccffcc" stroke="black" points="501.284,-479.2 65.4241,-479.2 65.4241,-443.2 501.284,-443.2 501.284,-479.2"/>
<text text-anchor="middle" x="283.354" y="-457" font-family="Courier,monospace" font-size="14.00">set_up_Configuration_and_start_provenance_tracking</text>
</g>
<!-- dir_anx -->
<g id="node6" class="node"><title>dir_anx</title>
<path fill="#ffffcc" stroke="black" d="M308.354,-405.9C308.354,-405.9 278.354,-405.9 278.354,-405.9 272.354,-405.9 266.354,-399.9 266.354,-393.9 266.354,-393.9 266.354,-381.9 266.354,-381.9 266.354,-375.9 272.354,-369.9 278.354,-369.9 278.354,-369.9 308.354,-369.9 308.354,-369.9 314.354,-369.9 320.354,-375.9 320.354,-381.9 320.354,-381.9 320.354,-393.9 320.354,-393.9 320.354,-399.9 314.354,-405.9 308.354,-405.9"/>
<text text-anchor="middle" x="293.354" y="-385.2" font-family="Helvetica,sans-Serif" font-size="9.00">dir_anx</text>
</g>
<!-- set_up_Configuration_and_start_provenance_tracking&#45;&gt;dir_anx -->
<g id="edge6" class="edge"><title>set_up_Configuration_and_start_provenance_tracking&#45;&gt;dir_anx</title>
<path fill="none" stroke="black" d="M285.775,-442.94C286.905,-434.883 288.277,-425.1 289.542,-416.084"/>
<polygon fill="black" stroke="black" points="293.033,-416.39 290.956,-406.001 286.101,-415.418 293.033,-416.39"/>
</g>
<!-- dir_goal -->
<g id="node7" class="node"><title>dir_goal</title>
<path fill="#ffffcc" stroke="black" d="M261.354,-332.6C261.354,-332.6 231.354,-332.6 231.354,-332.6 225.354,-332.6 219.354,-326.6 219.354,-320.6 219.354,-320.6 219.354,-308.6 219.354,-308.6 219.354,-302.6 225.354,-296.6 231.354,-296.6 231.354,-296.6 261.354,-296.6 261.354,-296.6 267.354,-296.6 273.354,-302.6 273.354,-308.6 273.354,-308.6 273.354,-320.6 273.354,-320.6 273.354,-326.6 267.354,-332.6 261.354,-332.6"/>
<text text-anchor="middle" x="246.354" y="-311.9" font-family="Helvetica,sans-Serif" font-size="9.00">dir_goal</text>
</g>
<!-- set_up_Configuration_and_start_provenance_tracking&#45;&gt;dir_goal -->
<g id="edge7" class="edge"><title>set_up_Configuration_and_start_provenance_tracking&#45;&gt;dir_goal</title>
<path fill="none" stroke="black" d="M273.147,-443.134C267.578,-433.029 261.078,-419.779 257.354,-407.2 251.122,-386.145 248.41,-361.371 247.235,-342.9"/>
<polygon fill="black" stroke="black" points="250.726,-342.631 246.706,-332.829 243.736,-342.998 250.726,-342.631"/>
</g>
<!-- read_TA_PEP_SVW_polygon -->
<g id="node2" class="node"><title>read_TA_PEP_SVW_polygon</title>
<polygon fill="#ccffcc" stroke="black" points="501.022,-332.6 291.686,-332.6 291.686,-296.6 501.022,-296.6 501.022,-332.6"/>
<text text-anchor="middle" x="396.354" y="-310.4" font-family="Courier,monospace" font-size="14.00">read_TA_PEP_SVW_polygon</text>
</g>
<!-- hs_pep_poly -->
<g id="node8" class="node"><title>hs_pep_poly</title>
<path fill="#ffffcc" stroke="black" d="M392.876,-260.6C392.876,-260.6 349.832,-260.6 349.832,-260.6 343.832,-260.6 337.832,-254.6 337.832,-248.6 337.832,-248.6 337.832,-236.6 337.832,-236.6 337.832,-230.6 343.832,-224.6 349.832,-224.6 349.832,-224.6 392.876,-224.6 392.876,-224.6 398.876,-224.6 404.876,-230.6 404.876,-236.6 404.876,-236.6 404.876,-248.6 404.876,-248.6 404.876,-254.6 398.876,-260.6 392.876,-260.6"/>
<text text-anchor="middle" x="371.354" y="-239.9" font-family="Helvetica,sans-Serif" font-size="9.00">hs_pep_poly</text>
</g>
<!-- read_TA_PEP_SVW_polygon&#45;&gt;hs_pep_poly -->
<g id="edge8" class="edge"><title>read_TA_PEP_SVW_polygon&#45;&gt;hs_pep_poly</title>
<path fill="none" stroke="black" d="M390.174,-296.297C387.359,-288.413 383.963,-278.904 380.835,-270.146"/>
<polygon fill="black" stroke="black" points="384.122,-268.945 377.463,-260.704 377.53,-271.299 384.122,-268.945"/>
</g>
<!-- write_hs_pep_poly -->
<g id="node3" class="node"><title>write_hs_pep_poly</title>
<polygon fill="#ccffcc" stroke="black" points="399.63,-188.6 241.078,-188.6 241.078,-152.6 399.63,-152.6 399.63,-188.6"/>
<text text-anchor="middle" x="320.354" y="-166.4" font-family="Courier,monospace" font-size="14.00">write_hs_pep_poly</text>
</g>
<!-- poly_hs_pep -->
<g id="node9" class="node"><title>poly_hs_pep</title>
<path fill="#ffe4b5" stroke="black" d="M227.17,-78.5C227.17,-78.5 413.538,-78.5 413.538,-78.5 419.538,-78.5 425.538,-84.5 425.538,-90.5 425.538,-90.5 425.538,-104.1 425.538,-104.1 425.538,-110.1 419.538,-116.1 413.538,-116.1 413.538,-116.1 227.17,-116.1 227.17,-116.1 221.17,-116.1 215.17,-110.1 215.17,-104.1 215.17,-104.1 215.17,-90.5 215.17,-90.5 215.17,-84.5 221.17,-78.5 227.17,-78.5"/>
<text text-anchor="middle" x="320.354" y="-104" font-family="Courier,monospace" font-weight="bold" font-size="9.00">poly_hs_pep</text>
<polyline fill="none" stroke="black" points="215.17,-97.3 425.538,-97.3 "/>
<text text-anchor="start" x="223.17" y="-85.2" font-family="Courier,monospace" font-weight="bold" font-size="9.00">prep/lsp/vHS/spatial/hs_pep_poly.shp</text>
</g>
<!-- write_hs_pep_poly&#45;&gt;poly_hs_pep -->
<g id="edge9" class="edge"><title>write_hs_pep_poly&#45;&gt;poly_hs_pep</title>
<path fill="none" stroke="black" d="M320.354,-152.34C320.354,-144.605 320.354,-135.279 320.354,-126.568"/>
<polygon fill="black" stroke="black" points="323.854,-126.396 320.354,-116.396 316.854,-126.396 323.854,-126.396"/>
</g>
<!-- setup_R -->
<g id="node4" class="node"><title>setup_R</title>
<path fill="#ffe4b5" stroke="black" d="M357.354,-515.7C357.354,-515.7 387.354,-515.7 387.354,-515.7 393.354,-515.7 399.354,-521.7 399.354,-527.7 399.354,-527.7 399.354,-541.3 399.354,-541.3 399.354,-547.3 393.354,-553.3 387.354,-553.3 387.354,-553.3 357.354,-553.3 357.354,-553.3 351.354,-553.3 345.354,-547.3 345.354,-541.3 345.354,-541.3 345.354,-527.7 345.354,-527.7 345.354,-521.7 351.354,-515.7 357.354,-515.7"/>
<text text-anchor="middle" x="372.251" y="-541.2" font-family="Courier,monospace" font-weight="bold" font-size="9.00">setup_R</text>
<polyline fill="none" stroke="black" points="345.354,-534.5 399.148,-534.5 "/>
<text text-anchor="middle" x="372.251" y="-522.4" font-family="Courier,monospace" font-weight="bold" font-size="9.00"> </text>
</g>
<!-- setup_R&#45;&gt;set_up_Configuration_and_start_provenance_tracking -->
<g id="edge1" class="edge"><title>setup_R&#45;&gt;set_up_Configuration_and_start_provenance_tracking</title>
<path fill="none" stroke="black" d="M349.896,-515.508C338.599,-506.458 324.767,-495.377 312.646,-485.666"/>
<polygon fill="black" stroke="black" points="314.573,-482.725 304.58,-479.205 310.196,-488.188 314.573,-482.725"/>
</g>
<!-- TA_PEP_SVW_polygon -->
<g id="node5" class="node"><title>TA_PEP_SVW_polygon</title>
<path fill="#ffe4b5" stroke="black" d="M375.762,-369.1C375.762,-369.1 464.946,-369.1 464.946,-369.1 470.946,-369.1 476.946,-375.1 476.946,-381.1 476.946,-381.1 476.946,-394.7 476.946,-394.7 476.946,-400.7 470.946,-406.7 464.946,-406.7 464.946,-406.7 375.762,-406.7 375.762,-406.7 369.762,-406.7 363.762,-400.7 363.762,-394.7 363.762,-394.7 363.762,-381.1 363.762,-381.1 363.762,-375.1 369.762,-369.1 375.762,-369.1"/>
<text text-anchor="middle" x="420.354" y="-394.6" font-family="Courier,monospace" font-weight="bold" font-size="9.00">TA_PEP_SVW_polygon</text>
<polyline fill="none" stroke="black" points="363.762,-387.9 476.946,-387.9 "/>
<text text-anchor="middle" x="420.354" y="-375.8" font-family="Courier,monospace" font-weight="bold" font-size="9.00"> </text>
</g>
<!-- TA_PEP_SVW_polygon&#45;&gt;read_TA_PEP_SVW_polygon -->
<g id="edge4" class="edge"><title>TA_PEP_SVW_polygon&#45;&gt;read_TA_PEP_SVW_polygon</title>
<path fill="none" stroke="black" d="M414.298,-368.908C411.594,-360.875 408.351,-351.242 405.371,-342.388"/>
<polygon fill="black" stroke="black" points="408.667,-341.209 402.16,-332.848 402.033,-343.442 408.667,-341.209"/>
</g>
<!-- dir_anx&#45;&gt;read_TA_PEP_SVW_polygon -->
<g id="edge2" class="edge"><title>dir_anx&#45;&gt;read_TA_PEP_SVW_polygon</title>
<path fill="none" stroke="black" d="M318.025,-369.822C331.557,-360.454 348.518,-348.713 363.194,-338.555"/>
<polygon fill="black" stroke="black" points="365.297,-341.355 371.527,-332.786 361.313,-335.6 365.297,-341.355"/>
</g>
<!-- dir_goal&#45;&gt;write_hs_pep_poly -->
<g id="edge3" class="edge"><title>dir_goal&#45;&gt;write_hs_pep_poly</title>
<path fill="none" stroke="black" d="M255.28,-296.471C268.059,-271.95 291.675,-226.632 306.67,-197.859"/>
<polygon fill="black" stroke="black" points="309.879,-199.275 311.396,-188.789 303.671,-196.04 309.879,-199.275"/>
</g>
<!-- hs_pep_poly&#45;&gt;write_hs_pep_poly -->
<g id="edge5" class="edge"><title>hs_pep_poly&#45;&gt;write_hs_pep_poly</title>
<path fill="none" stroke="black" d="M358.747,-224.297C352.757,-216.074 345.478,-206.083 338.875,-197.021"/>
<polygon fill="black" stroke="black" points="341.533,-194.726 332.816,-188.704 335.876,-198.848 341.533,-194.726"/>
</g>
<!-- poly_hs_pep_outflow -->
<g id="node12" class="node"><title>poly_hs_pep_outflow</title>
<ellipse fill="none" stroke="black" cx="320.354" cy="-31" rx="7" ry="7"/>
</g>
<!-- poly_hs_pep&#45;&gt;poly_hs_pep_outflow -->
<g id="edge12" class="edge"><title>poly_hs_pep&#45;&gt;poly_hs_pep_outflow</title>
<path fill="none" stroke="black" d="M320.354,-78.3889C320.354,-68.9828 320.354,-57.5389 320.354,-48.3712"/>
<polygon fill="black" stroke="black" points="323.854,-48.3008 320.354,-38.3008 316.854,-48.3008 323.854,-48.3008"/>
</g>
<!-- setup_R_inflow -->
<g id="node10" class="node"><title>setup_R_inflow</title>
<ellipse fill="none" stroke="black" cx="417.354" cy="-600.8" rx="7" ry="7"/>
</g>
<!-- setup_R_inflow&#45;&gt;setup_R -->
<g id="edge10" class="edge"><title>setup_R_inflow&#45;&gt;setup_R</title>
<path fill="none" stroke="black" d="M413.823,-594.754C408.84,-587.634 399.388,-574.129 390.766,-561.808"/>
<polygon fill="black" stroke="black" points="393.595,-559.747 384.994,-553.561 387.86,-563.761 393.595,-559.747"/>
</g>
<!-- TA_PEP_SVW_polygon_inflow -->
<g id="node11" class="node"><title>TA_PEP_SVW_polygon_inflow</title>
<ellipse fill="none" stroke="black" cx="449.354" cy="-600.8" rx="7" ry="7"/>
</g>
<!-- TA_PEP_SVW_polygon_inflow&#45;&gt;TA_PEP_SVW_polygon -->
<g id="edge11" class="edge"><title>TA_PEP_SVW_polygon_inflow&#45;&gt;TA_PEP_SVW_polygon</title>
<path fill="none" stroke="black" d="M453.981,-595.232C472.94,-575.948 542.199,-499.605 510.354,-443.2 502.992,-430.16 491.101,-419.9 478.343,-411.978"/>
<polygon fill="black" stroke="black" points="479.832,-408.798 469.416,-406.862 476.351,-414.871 479.832,-408.798"/>
</g>
</g>
</svg>
