<?xml version="1.0" encoding="UTF-8" standalone="no"?>
<!DOCTYPE svg PUBLIC "-//W3C//DTD SVG 1.1//EN"
 "http://www.w3.org/Graphics/SVG/1.1/DTD/svg11.dtd">
<!-- Generated by graphviz version 2.38.0 (20140413.2041)
 -->
<!-- Title: yw_data_view Pages: 1 -->
<svg width="596pt" height="669pt"
 viewBox="0.00 0.00 596.00 669.40" xmlns="http://www.w3.org/2000/svg" xmlns:xlink="http://www.w3.org/1999/xlink">
<g id="graph0" class="graph" transform="scale(1 1) rotate(0) translate(4 665.4)">
<title>yw_data_view</title>
<polygon fill="white" stroke="none" points="-4,4 -4,-665.4 592,-665.4 592,4 -4,4"/>
<text text-anchor="middle" x="294" y="-641.2" font-family="Courier,monospace" font-size="18.00">setup_BC_PEP_polygons</text>
<g id="clust1" class="cluster"><title>cluster_workflow</title>
<polygon fill="none" stroke="black" stroke-width="2" points="8,-62 8,-569.8 580,-569.8 580,-62 8,-62"/>
</g>
<g id="clust2" class="cluster"><title>cluster_workflow_inner</title>
<polygon fill="none" stroke="white" stroke-width="2" points="16,-70 16,-561.8 572,-561.8 572,-70 16,-70"/>
</g>
<g id="clust3" class="cluster"><title>cluster_inflows</title>
<polygon fill="none" stroke="white" stroke-width="2" points="373,-577.8 373,-623.8 451,-623.8 451,-577.8 373,-577.8"/>
</g>
<g id="clust4" class="cluster"><title>cluster_inflows_inner</title>
<polygon fill="none" stroke="white" stroke-width="2" points="381,-585.8 381,-615.8 443,-615.8 443,-585.8 381,-585.8"/>
</g>
<g id="clust5" class="cluster"><title>cluster_outflows</title>
<polygon fill="none" stroke="white" stroke-width="2" points="124,-8 124,-54 170,-54 170,-8 124,-8"/>
</g>
<g id="clust6" class="cluster"><title>cluster_outflows_inner</title>
<polygon fill="none" stroke="white" stroke-width="2" points="132,-16 132,-46 162,-46 162,-16 132,-16"/>
</g>
<!-- set_up_Configuration_and_start_provenance_tracking -->
<g id="node1" class="node"><title>set_up_Configuration_and_start_provenance_tracking</title>
<polygon fill="#ccffcc" stroke="black" points="459.93,-479.2 24.07,-479.2 24.07,-443.2 459.93,-443.2 459.93,-479.2"/>
<text text-anchor="middle" x="242" y="-457" font-family="Courier,monospace" font-size="14.00">set_up_Configuration_and_start_provenance_tracking</text>
</g>
<!-- dir_anx -->
<g id="node6" class="node"><title>dir_anx</title>
<path fill="#ffffcc" stroke="black" d="M86,-405.9C86,-405.9 56,-405.9 56,-405.9 50,-405.9 44,-399.9 44,-393.9 44,-393.9 44,-381.9 44,-381.9 44,-375.9 50,-369.9 56,-369.9 56,-369.9 86,-369.9 86,-369.9 92,-369.9 98,-375.9 98,-381.9 98,-381.9 98,-393.9 98,-393.9 98,-399.9 92,-405.9 86,-405.9"/>
<text text-anchor="middle" x="71" y="-385.2" font-family="Helvetica,sans-Serif" font-size="9.00">dir_anx</text>
</g>
<!-- set_up_Configuration_and_start_provenance_tracking&#45;&gt;dir_anx -->
<g id="edge6" class="edge"><title>set_up_Configuration_and_start_provenance_tracking&#45;&gt;dir_anx</title>
<path fill="none" stroke="black" d="M195.306,-443.136C171.246,-434.054 141.333,-422.319 107.537,-407.276"/>
<polygon fill="black" stroke="black" points="108.942,-404.07 98.3856,-403.163 106.072,-410.455 108.942,-404.07"/>
</g>
<!-- dir_goal -->
<g id="node7" class="node"><title>dir_goal</title>
<path fill="#ffffcc" stroke="black" d="M66,-332.6C66,-332.6 36,-332.6 36,-332.6 30,-332.6 24,-326.6 24,-320.6 24,-320.6 24,-308.6 24,-308.6 24,-302.6 30,-296.6 36,-296.6 36,-296.6 66,-296.6 66,-296.6 72,-296.6 78,-302.6 78,-308.6 78,-308.6 78,-320.6 78,-320.6 78,-326.6 72,-332.6 66,-332.6"/>
<text text-anchor="middle" x="51" y="-311.9" font-family="Helvetica,sans-Serif" font-size="9.00">dir_goal</text>
</g>
<!-- set_up_Configuration_and_start_provenance_tracking&#45;&gt;dir_goal -->
<g id="edge7" class="edge"><title>set_up_Configuration_and_start_provenance_tracking&#45;&gt;dir_goal</title>
<path fill="none" stroke="black" d="M125.625,-443.17C85.3285,-434.709 47.1695,-422.878 35,-407.2 20.6235,-388.679 27.7089,-361.691 36.5317,-341.804"/>
<polygon fill="black" stroke="black" points="39.7395,-343.209 40.916,-332.68 33.4301,-340.177 39.7395,-343.209"/>
</g>
<!-- read_TA_PEP_SVW_polygon -->
<g id="node2" class="node"><title>read_TA_PEP_SVW_polygon</title>
<polygon fill="#ccffcc" stroke="black" points="305.668,-332.6 96.3321,-332.6 96.3321,-296.6 305.668,-296.6 305.668,-332.6"/>
<text text-anchor="middle" x="201" y="-310.4" font-family="Courier,monospace" font-size="14.00">read_TA_PEP_SVW_polygon</text>
</g>
<!-- hs_pep_poly -->
<g id="node8" class="node"><title>hs_pep_poly</title>
<path fill="#ffffcc" stroke="black" d="M204.522,-260.6C204.522,-260.6 161.478,-260.6 161.478,-260.6 155.478,-260.6 149.478,-254.6 149.478,-248.6 149.478,-248.6 149.478,-236.6 149.478,-236.6 149.478,-230.6 155.478,-224.6 161.478,-224.6 161.478,-224.6 204.522,-224.6 204.522,-224.6 210.522,-224.6 216.522,-230.6 216.522,-236.6 216.522,-236.6 216.522,-248.6 216.522,-248.6 216.522,-254.6 210.522,-260.6 204.522,-260.6"/>
<text text-anchor="middle" x="183" y="-239.9" font-family="Helvetica,sans-Serif" font-size="9.00">hs_pep_poly</text>
</g>
<!-- read_TA_PEP_SVW_polygon&#45;&gt;hs_pep_poly -->
<g id="edge8" class="edge"><title>read_TA_PEP_SVW_polygon&#45;&gt;hs_pep_poly</title>
<path fill="none" stroke="black" d="M196.551,-296.297C194.545,-288.498 192.131,-279.109 189.899,-270.429"/>
<polygon fill="black" stroke="black" points="193.278,-269.518 187.398,-260.704 186.499,-271.261 193.278,-269.518"/>
</g>
<!-- write_hs_pep_poly -->
<g id="node3" class="node"><title>write_hs_pep_poly</title>
<polygon fill="#ccffcc" stroke="black" points="226.276,-188.6 67.7236,-188.6 67.7236,-152.6 226.276,-152.6 226.276,-188.6"/>
<text text-anchor="middle" x="147" y="-166.4" font-family="Courier,monospace" font-size="14.00">write_hs_pep_poly</text>
</g>
<!-- poly_hs_pep -->
<g id="node9" class="node"><title>poly_hs_pep</title>
<path fill="#ffe4b5" stroke="black" d="M53.8162,-78.5C53.8162,-78.5 240.184,-78.5 240.184,-78.5 246.184,-78.5 252.184,-84.5 252.184,-90.5 252.184,-90.5 252.184,-104.1 252.184,-104.1 252.184,-110.1 246.184,-116.1 240.184,-116.1 240.184,-116.1 53.8162,-116.1 53.8162,-116.1 47.8162,-116.1 41.8162,-110.1 41.8162,-104.1 41.8162,-104.1 41.8162,-90.5 41.8162,-90.5 41.8162,-84.5 47.8162,-78.5 53.8162,-78.5"/>
<text text-anchor="middle" x="147" y="-104" font-family="Courier,monospace" font-weight="bold" font-size="9.00">poly_hs_pep</text>
<polyline fill="none" stroke="black" points="41.8162,-97.3 252.184,-97.3 "/>
<text text-anchor="start" x="49.8162" y="-85.2" font-family="Courier,monospace" font-weight="bold" font-size="9.00">prep/lsp/vHS/spatial/hs_pep_poly.shp</text>
</g>
<!-- write_hs_pep_poly&#45;&gt;poly_hs_pep -->
<g id="edge9" class="edge"><title>write_hs_pep_poly&#45;&gt;poly_hs_pep</title>
<path fill="none" stroke="black" d="M147,-152.34C147,-144.605 147,-135.279 147,-126.568"/>
<polygon fill="black" stroke="black" points="150.5,-126.396 147,-116.396 143.5,-126.396 150.5,-126.396"/>
</g>
<!-- setup_R -->
<g id="node4" class="node"><title>setup_R</title>
<path fill="#ffe4b5" stroke="black" d="M322,-515.7C322,-515.7 352,-515.7 352,-515.7 358,-515.7 364,-521.7 364,-527.7 364,-527.7 364,-541.3 364,-541.3 364,-547.3 358,-553.3 352,-553.3 352,-553.3 322,-553.3 322,-553.3 316,-553.3 310,-547.3 310,-541.3 310,-541.3 310,-527.7 310,-527.7 310,-521.7 316,-515.7 322,-515.7"/>
<text text-anchor="middle" x="336.897" y="-541.2" font-family="Courier,monospace" font-weight="bold" font-size="9.00">setup_R</text>
<polyline fill="none" stroke="black" points="310,-534.5 363.794,-534.5 "/>
<text text-anchor="middle" x="336.897" y="-522.4" font-family="Courier,monospace" font-weight="bold" font-size="9.00"> </text>
</g>
<!-- setup_R&#45;&gt;set_up_Configuration_and_start_provenance_tracking -->
<g id="edge1" class="edge"><title>setup_R&#45;&gt;set_up_Configuration_and_start_provenance_tracking</title>
<path fill="none" stroke="black" d="M313.027,-515.508C300.853,-506.371 285.92,-495.163 272.894,-485.387"/>
<polygon fill="black" stroke="black" points="274.756,-482.408 264.657,-479.205 270.554,-488.007 274.756,-482.408"/>
</g>
<!-- TA_PEP_SVW_polygon -->
<g id="node5" class="node"><title>TA_PEP_SVW_polygon</title>
<path fill="#ffe4b5" stroke="black" d="M128.036,-369.1C128.036,-369.1 551.964,-369.1 551.964,-369.1 557.964,-369.1 563.964,-375.1 563.964,-381.1 563.964,-381.1 563.964,-394.7 563.964,-394.7 563.964,-400.7 557.964,-406.7 551.964,-406.7 551.964,-406.7 128.036,-406.7 128.036,-406.7 122.036,-406.7 116.036,-400.7 116.036,-394.7 116.036,-394.7 116.036,-381.1 116.036,-381.1 116.036,-375.1 122.036,-369.1 128.036,-369.1"/>
<text text-anchor="middle" x="340" y="-394.6" font-family="Courier,monospace" font-weight="bold" font-size="9.00">TA_PEP_SVW_polygon</text>
<polyline fill="none" stroke="black" points="116.036,-387.9 563.964,-387.9 "/>
<text text-anchor="start" x="124.036" y="-375.8" font-family="Courier,monospace" font-weight="bold" font-size="9.00">/Volumes/ohi/git&#45;annex/bcprep/_raw_data/databc/TA_PEP_SVW/TA_PEP_SVW_polygon.shp</text>
</g>
<!-- TA_PEP_SVW_polygon&#45;&gt;read_TA_PEP_SVW_polygon -->
<g id="edge4" class="edge"><title>TA_PEP_SVW_polygon&#45;&gt;read_TA_PEP_SVW_polygon</title>
<path fill="none" stroke="black" d="M305.283,-369.092C286.54,-359.478 263.25,-347.531 243.437,-337.368"/>
<polygon fill="black" stroke="black" points="244.813,-334.14 234.317,-332.69 241.618,-340.368 244.813,-334.14"/>
</g>
<!-- dir_anx&#45;&gt;read_TA_PEP_SVW_polygon -->
<g id="edge2" class="edge"><title>dir_anx&#45;&gt;read_TA_PEP_SVW_polygon</title>
<path fill="none" stroke="black" d="M98.2523,-371.953C116.33,-362.038 140.37,-348.853 160.652,-337.73"/>
<polygon fill="black" stroke="black" points="162.586,-340.661 169.67,-332.783 159.219,-334.523 162.586,-340.661"/>
</g>
<!-- dir_goal&#45;&gt;write_hs_pep_poly -->
<g id="edge3" class="edge"><title>dir_goal&#45;&gt;write_hs_pep_poly</title>
<path fill="none" stroke="black" d="M62.5798,-296.471C79.3016,-271.737 110.329,-225.842 129.752,-197.112"/>
<polygon fill="black" stroke="black" points="132.678,-199.034 135.379,-188.789 126.879,-195.113 132.678,-199.034"/>
</g>
<!-- hs_pep_poly&#45;&gt;write_hs_pep_poly -->
<g id="edge5" class="edge"><title>hs_pep_poly&#45;&gt;write_hs_pep_poly</title>
<path fill="none" stroke="black" d="M174.101,-224.297C170.003,-216.328 165.051,-206.7 160.507,-197.864"/>
<polygon fill="black" stroke="black" points="163.483,-195.996 155.797,-188.704 157.258,-199.198 163.483,-195.996"/>
</g>
<!-- poly_hs_pep_outflow -->
<g id="node12" class="node"><title>poly_hs_pep_outflow</title>
<ellipse fill="none" stroke="black" cx="147" cy="-31" rx="7" ry="7"/>
</g>
<!-- poly_hs_pep&#45;&gt;poly_hs_pep_outflow -->
<g id="edge12" class="edge"><title>poly_hs_pep&#45;&gt;poly_hs_pep_outflow</title>
<path fill="none" stroke="black" d="M147,-78.3889C147,-68.9828 147,-57.5389 147,-48.3712"/>
<polygon fill="black" stroke="black" points="150.5,-48.3008 147,-38.3008 143.5,-48.3008 150.5,-48.3008"/>
</g>
<!-- setup_R_inflow -->
<g id="node10" class="node"><title>setup_R_inflow</title>
<ellipse fill="none" stroke="black" cx="396" cy="-600.8" rx="7" ry="7"/>
</g>
<!-- setup_R_inflow&#45;&gt;setup_R -->
<g id="edge10" class="edge"><title>setup_R_inflow&#45;&gt;setup_R</title>
<path fill="none" stroke="black" d="M391.757,-595.176C385.236,-588.069 372.281,-573.95 360.608,-561.228"/>
<polygon fill="black" stroke="black" points="362.914,-558.565 353.575,-553.564 357.757,-563.298 362.914,-558.565"/>
</g>
<!-- TA_PEP_SVW_polygon_inflow -->
<g id="node11" class="node"><title>TA_PEP_SVW_polygon_inflow</title>
<ellipse fill="none" stroke="black" cx="428" cy="-600.8" rx="7" ry="7"/>
</g>
<!-- TA_PEP_SVW_polygon_inflow&#45;&gt;TA_PEP_SVW_polygon -->
<g id="edge11" class="edge"><title>TA_PEP_SVW_polygon_inflow&#45;&gt;TA_PEP_SVW_polygon</title>
<path fill="none" stroke="black" d="M432.016,-594.72C447.839,-574.055 503.358,-494.941 469,-443.2 459.761,-429.286 446.183,-418.93 431.263,-411.223"/>
<polygon fill="black" stroke="black" points="432.363,-407.872 421.827,-406.759 429.37,-414.199 432.363,-407.872"/>
</g>
</g>
</svg>
