<?xml version="1.0" encoding="UTF-8" standalone="no"?>
<!DOCTYPE svg PUBLIC "-//W3C//DTD SVG 1.1//EN"
 "http://www.w3.org/Graphics/SVG/1.1/DTD/svg11.dtd">
<!-- Generated by graphviz version 2.38.0 (20140413.2041)
 -->
<!-- Title: yw_data_view Pages: 1 -->
<svg width="575pt" height="669pt"
 viewBox="0.00 0.00 574.71 669.40" xmlns="http://www.w3.org/2000/svg" xmlns:xlink="http://www.w3.org/1999/xlink">
<g id="graph0" class="graph" transform="scale(1 1) rotate(0) translate(4 665.4)">
<title>yw_data_view</title>
<polygon fill="white" stroke="none" points="-4,4 -4,-665.4 570.708,-665.4 570.708,4 -4,4"/>
<text text-anchor="middle" x="283.354" y="-641.2" font-family="Courier,monospace" font-size="18.00">Read_BC_Parks_EcologicalReserves_ProtectedArea_data</text>
<g id="clust1" class="cluster"><title>cluster_workflow</title>
<polygon fill="none" stroke="black" stroke-width="2" points="49.3541,-62 49.3541,-569.8 517.354,-569.8 517.354,-62 49.3541,-62"/>
</g>
<g id="clust2" class="cluster"><title>cluster_workflow_inner</title>
<polygon fill="none" stroke="white" stroke-width="2" points="57.3541,-70 57.3541,-561.8 509.354,-561.8 509.354,-70 57.3541,-70"/>
</g>
<g id="clust3" class="cluster"><title>cluster_inflows</title>
<polygon fill="none" stroke="white" stroke-width="2" points="394.354,-577.8 394.354,-623.8 472.354,-623.8 472.354,-577.8 394.354,-577.8"/>
</g>
<g id="clust4" class="cluster"><title>cluster_inflows_inner</title>
<polygon fill="none" stroke="white" stroke-width="2" points="402.354,-585.8 402.354,-615.8 464.354,-615.8 464.354,-585.8 402.354,-585.8"/>
</g>
<g id="clust5" class="cluster"><title>cluster_outflows</title>
<polygon fill="none" stroke="white" stroke-width="2" points="295.354,-8 295.354,-54 341.354,-54 341.354,-8 295.354,-8"/>
</g>
<g id="clust6" class="cluster"><title>cluster_outflows_inner</title>
<polygon fill="none" stroke="white" stroke-width="2" points="303.354,-16 303.354,-46 333.354,-46 333.354,-16 303.354,-16"/>
</g>
<!-- read_TA_PEP_SVW_polygon -->
<g id="node1" class="node"><title>read_TA_PEP_SVW_polygon</title>
<polygon fill="#ccffcc" stroke="black" points="501.022,-332.6 291.686,-332.6 291.686,-296.6 501.022,-296.6 501.022,-332.6"/>
<text text-anchor="middle" x="396.354" y="-310.4" font-family="Courier,monospace" font-size="14.00">read_TA_PEP_SVW_polygon</text>
</g>
<!-- hs_pep_poly -->
<g id="node6" class="node"><title>hs_pep_poly</title>
<path fill="#ffffcc" stroke="black" d="M410.222,-260.6C410.222,-260.6 338.486,-260.6 338.486,-260.6 332.486,-260.6 326.486,-254.6 326.486,-248.6 326.486,-248.6 326.486,-236.6 326.486,-236.6 326.486,-230.6 332.486,-224.6 338.486,-224.6 338.486,-224.6 410.222,-224.6 410.222,-224.6 416.222,-224.6 422.222,-230.6 422.222,-236.6 422.222,-236.6 422.222,-248.6 422.222,-248.6 422.222,-254.6 416.222,-260.6 410.222,-260.6"/>
<text text-anchor="middle" x="374.354" y="-238.4" font-family="Helvetica,sans-Serif" font-size="14.00">hs_pep_poly</text>
</g>
<!-- read_TA_PEP_SVW_polygon&#45;&gt;hs_pep_poly -->
<g id="edge8" class="edge"><title>read_TA_PEP_SVW_polygon&#45;&gt;hs_pep_poly</title>
<path fill="none" stroke="black" d="M390.916,-296.297C388.465,-288.498 385.514,-279.109 382.786,-270.429"/>
<polygon fill="black" stroke="black" points="386.067,-269.195 379.73,-260.704 379.389,-271.294 386.067,-269.195"/>
</g>
<!-- set_up_Configuration_and_start_provenance_tracking -->
<g id="node2" class="node"><title>set_up_Configuration_and_start_provenance_tracking</title>
<polygon fill="#ccffcc" stroke="black" points="501.284,-479.2 65.4241,-479.2 65.4241,-443.2 501.284,-443.2 501.284,-479.2"/>
<text text-anchor="middle" x="283.354" y="-457" font-family="Courier,monospace" font-size="14.00">set_up_Configuration_and_start_provenance_tracking</text>
</g>
<!-- dir_anx -->
<g id="node4" class="node"><title>dir_anx</title>
<path fill="#ffffcc" stroke="black" d="M328.252,-405.9C328.252,-405.9 290.456,-405.9 290.456,-405.9 284.456,-405.9 278.456,-399.9 278.456,-393.9 278.456,-393.9 278.456,-381.9 278.456,-381.9 278.456,-375.9 284.456,-369.9 290.456,-369.9 290.456,-369.9 328.252,-369.9 328.252,-369.9 334.252,-369.9 340.252,-375.9 340.252,-381.9 340.252,-381.9 340.252,-393.9 340.252,-393.9 340.252,-399.9 334.252,-405.9 328.252,-405.9"/>
<text text-anchor="middle" x="309.354" y="-383.7" font-family="Helvetica,sans-Serif" font-size="14.00">dir_anx</text>
</g>
<!-- set_up_Configuration_and_start_provenance_tracking&#45;&gt;dir_anx -->
<g id="edge6" class="edge"><title>set_up_Configuration_and_start_provenance_tracking&#45;&gt;dir_anx</title>
<path fill="none" stroke="black" d="M289.648,-442.94C292.65,-434.708 296.309,-424.674 299.655,-415.497"/>
<polygon fill="black" stroke="black" points="302.98,-416.595 303.118,-406.001 296.404,-414.197 302.98,-416.595"/>
</g>
<!-- dir_goal -->
<g id="node5" class="node"><title>dir_goal</title>
<path fill="#ffffcc" stroke="black" d="M262.141,-332.6C262.141,-332.6 220.567,-332.6 220.567,-332.6 214.567,-332.6 208.567,-326.6 208.567,-320.6 208.567,-320.6 208.567,-308.6 208.567,-308.6 208.567,-302.6 214.567,-296.6 220.567,-296.6 220.567,-296.6 262.141,-296.6 262.141,-296.6 268.141,-296.6 274.141,-302.6 274.141,-308.6 274.141,-308.6 274.141,-320.6 274.141,-320.6 274.141,-326.6 268.141,-332.6 262.141,-332.6"/>
<text text-anchor="middle" x="241.354" y="-310.4" font-family="Helvetica,sans-Serif" font-size="14.00">dir_goal</text>
</g>
<!-- set_up_Configuration_and_start_provenance_tracking&#45;&gt;dir_goal -->
<g id="edge7" class="edge"><title>set_up_Configuration_and_start_provenance_tracking&#45;&gt;dir_goal</title>
<path fill="none" stroke="black" d="M278.371,-443.045C271.14,-418.15 257.672,-371.781 249.129,-342.367"/>
<polygon fill="black" stroke="black" points="252.481,-341.36 246.33,-332.733 245.759,-343.312 252.481,-341.36"/>
</g>
<!-- write_hs_pep_poly -->
<g id="node3" class="node"><title>write_hs_pep_poly</title>
<polygon fill="#ccffcc" stroke="black" points="397.63,-188.6 239.078,-188.6 239.078,-152.6 397.63,-152.6 397.63,-188.6"/>
<text text-anchor="middle" x="318.354" y="-166.4" font-family="Courier,monospace" font-size="14.00">write_hs_pep_poly</text>
</g>
<!-- poly_hs_pep -->
<g id="node9" class="node"><title>poly_hs_pep</title>
<path fill="#ffe4b5" stroke="black" d="M225.17,-78.5C225.17,-78.5 411.538,-78.5 411.538,-78.5 417.538,-78.5 423.538,-84.5 423.538,-90.5 423.538,-90.5 423.538,-104.1 423.538,-104.1 423.538,-110.1 417.538,-116.1 411.538,-116.1 411.538,-116.1 225.17,-116.1 225.17,-116.1 219.17,-116.1 213.17,-110.1 213.17,-104.1 213.17,-104.1 213.17,-90.5 213.17,-90.5 213.17,-84.5 219.17,-78.5 225.17,-78.5"/>
<text text-anchor="middle" x="318.354" y="-104" font-family="Courier,monospace" font-weight="bold" font-size="9.00">poly_hs_pep</text>
<polyline fill="none" stroke="black" points="213.17,-97.3 423.538,-97.3 "/>
<text text-anchor="start" x="221.17" y="-85.2" font-family="Courier,monospace" font-weight="bold" font-size="9.00">prep/lsp/vHS/spatial/hs_pep_poly.shp</text>
</g>
<!-- write_hs_pep_poly&#45;&gt;poly_hs_pep -->
<g id="edge9" class="edge"><title>write_hs_pep_poly&#45;&gt;poly_hs_pep</title>
<path fill="none" stroke="black" d="M318.354,-152.34C318.354,-144.605 318.354,-135.279 318.354,-126.568"/>
<polygon fill="black" stroke="black" points="321.854,-126.396 318.354,-116.396 314.854,-126.396 321.854,-126.396"/>
</g>
<!-- dir_anx&#45;&gt;read_TA_PEP_SVW_polygon -->
<g id="edge4" class="edge"><title>dir_anx&#45;&gt;read_TA_PEP_SVW_polygon</title>
<path fill="none" stroke="black" d="M330.414,-369.64C341.528,-360.532 355.333,-349.218 367.435,-339.3"/>
<polygon fill="black" stroke="black" points="369.972,-341.747 375.488,-332.701 365.535,-336.332 369.972,-341.747"/>
</g>
<!-- dir_goal&#45;&gt;write_hs_pep_poly -->
<g id="edge3" class="edge"><title>dir_goal&#45;&gt;write_hs_pep_poly</title>
<path fill="none" stroke="black" d="M250.642,-296.471C263.939,-271.95 288.513,-226.632 304.115,-197.859"/>
<polygon fill="black" stroke="black" points="307.343,-199.248 309.033,-188.789 301.19,-195.912 307.343,-199.248"/>
</g>
<!-- hs_pep_poly&#45;&gt;write_hs_pep_poly -->
<g id="edge1" class="edge"><title>hs_pep_poly&#45;&gt;write_hs_pep_poly</title>
<path fill="none" stroke="black" d="M360.511,-224.297C353.866,-215.989 345.776,-205.877 338.467,-196.741"/>
<polygon fill="black" stroke="black" points="341.018,-194.327 332.038,-188.704 335.552,-198.699 341.018,-194.327"/>
</g>
<!-- setup_R -->
<g id="node7" class="node"><title>setup_R</title>
<path fill="#ffe4b5" stroke="black" d="M357.354,-515.7C357.354,-515.7 387.354,-515.7 387.354,-515.7 393.354,-515.7 399.354,-521.7 399.354,-527.7 399.354,-527.7 399.354,-541.3 399.354,-541.3 399.354,-547.3 393.354,-553.3 387.354,-553.3 387.354,-553.3 357.354,-553.3 357.354,-553.3 351.354,-553.3 345.354,-547.3 345.354,-541.3 345.354,-541.3 345.354,-527.7 345.354,-527.7 345.354,-521.7 351.354,-515.7 357.354,-515.7"/>
<text text-anchor="middle" x="372.251" y="-541.2" font-family="Courier,monospace" font-weight="bold" font-size="9.00">setup_R</text>
<polyline fill="none" stroke="black" points="345.354,-534.5 399.148,-534.5 "/>
<text text-anchor="middle" x="372.251" y="-522.4" font-family="Courier,monospace" font-weight="bold" font-size="9.00"> </text>
</g>
<!-- setup_R&#45;&gt;set_up_Configuration_and_start_provenance_tracking -->
<g id="edge5" class="edge"><title>setup_R&#45;&gt;set_up_Configuration_and_start_provenance_tracking</title>
<path fill="none" stroke="black" d="M349.896,-515.508C338.599,-506.458 324.767,-495.377 312.646,-485.666"/>
<polygon fill="black" stroke="black" points="314.573,-482.725 304.58,-479.205 310.196,-488.188 314.573,-482.725"/>
</g>
<!-- TA_PEP_SVW_polygon -->
<g id="node8" class="node"><title>TA_PEP_SVW_polygon</title>
<path fill="#ffe4b5" stroke="black" d="M393.762,-369.1C393.762,-369.1 482.946,-369.1 482.946,-369.1 488.946,-369.1 494.946,-375.1 494.946,-381.1 494.946,-381.1 494.946,-394.7 494.946,-394.7 494.946,-400.7 488.946,-406.7 482.946,-406.7 482.946,-406.7 393.762,-406.7 393.762,-406.7 387.762,-406.7 381.762,-400.7 381.762,-394.7 381.762,-394.7 381.762,-381.1 381.762,-381.1 381.762,-375.1 387.762,-369.1 393.762,-369.1"/>
<text text-anchor="middle" x="438.354" y="-394.6" font-family="Courier,monospace" font-weight="bold" font-size="9.00">TA_PEP_SVW_polygon</text>
<polyline fill="none" stroke="black" points="381.762,-387.9 494.946,-387.9 "/>
<text text-anchor="middle" x="438.354" y="-375.8" font-family="Courier,monospace" font-weight="bold" font-size="9.00"> </text>
</g>
<!-- TA_PEP_SVW_polygon&#45;&gt;read_TA_PEP_SVW_polygon -->
<g id="edge2" class="edge"><title>TA_PEP_SVW_polygon&#45;&gt;read_TA_PEP_SVW_polygon</title>
<path fill="none" stroke="black" d="M427.756,-368.908C422.871,-360.616 416.982,-350.619 411.63,-341.533"/>
<polygon fill="black" stroke="black" points="414.606,-339.688 406.514,-332.848 408.574,-343.241 414.606,-339.688"/>
</g>
<!-- poly_hs_pep_outflow -->
<g id="node12" class="node"><title>poly_hs_pep_outflow</title>
<ellipse fill="none" stroke="black" cx="318.354" cy="-31" rx="7" ry="7"/>
</g>
<!-- poly_hs_pep&#45;&gt;poly_hs_pep_outflow -->
<g id="edge12" class="edge"><title>poly_hs_pep&#45;&gt;poly_hs_pep_outflow</title>
<path fill="none" stroke="black" d="M318.354,-78.3889C318.354,-68.9828 318.354,-57.5389 318.354,-48.3712"/>
<polygon fill="black" stroke="black" points="321.854,-48.3008 318.354,-38.3008 314.854,-48.3008 321.854,-48.3008"/>
</g>
<!-- setup_R_inflow -->
<g id="node10" class="node"><title>setup_R_inflow</title>
<ellipse fill="none" stroke="black" cx="417.354" cy="-600.8" rx="7" ry="7"/>
</g>
<!-- setup_R_inflow&#45;&gt;setup_R -->
<g id="edge10" class="edge"><title>setup_R_inflow&#45;&gt;setup_R</title>
<path fill="none" stroke="black" d="M413.823,-594.754C408.84,-587.634 399.388,-574.129 390.766,-561.808"/>
<polygon fill="black" stroke="black" points="393.595,-559.747 384.994,-553.561 387.86,-563.761 393.595,-559.747"/>
</g>
<!-- TA_PEP_SVW_polygon_inflow -->
<g id="node11" class="node"><title>TA_PEP_SVW_polygon_inflow</title>
<ellipse fill="none" stroke="black" cx="449.354" cy="-600.8" rx="7" ry="7"/>
</g>
<!-- TA_PEP_SVW_polygon_inflow&#45;&gt;TA_PEP_SVW_polygon -->
<g id="edge11" class="edge"><title>TA_PEP_SVW_polygon_inflow&#45;&gt;TA_PEP_SVW_polygon</title>
<path fill="none" stroke="black" d="M453.825,-595.315C472.155,-576.365 539.245,-501.174 510.354,-443.2 504.289,-431.029 494.05,-420.866 483.169,-412.749"/>
<polygon fill="black" stroke="black" points="484.996,-409.757 474.782,-406.942 481.011,-415.512 484.996,-409.757"/>
</g>
</g>
</svg>
