<?xml version="1.0" encoding="UTF-8" standalone="no"?>
<!DOCTYPE svg PUBLIC "-//W3C//DTD SVG 1.1//EN"
 "http://www.w3.org/Graphics/SVG/1.1/DTD/svg11.dtd">
<!-- Generated by graphviz version 2.38.0 (20140413.2041)
 -->
<!-- Title: rm_data_view Pages: 1 -->
<svg width="5137pt" height="722pt"
 viewBox="0.00 0.00 5136.84 721.60" xmlns="http://www.w3.org/2000/svg" xmlns:xlink="http://www.w3.org/1999/xlink">
<g id="graph0" class="graph" transform="scale(1 1) rotate(0) translate(4 717.6)">
<title>rm_data_view</title>
<polygon fill="white" stroke="none" points="-4,4 -4,-717.6 5132.84,-717.6 5132.84,4 -4,4"/>
<text text-anchor="middle" x="2564.42" y="-693.4" font-family="Courier,monospace" font-size="18.00">multiple_runs</text>
<g id="clust1" class="cluster"><title>cluster_workflow</title>
<polygon fill="none" stroke="black" stroke-width="2" points="8,-8 8,-676 5120.84,-676 5120.84,-8 8,-8"/>
</g>
<g id="clust2" class="cluster"><title>cluster_workflow_inner</title>
<polygon fill="none" stroke="white" stroke-width="2" points="16,-16 16,-668 5112.84,-668 5112.84,-16 16,-16"/>
</g>
<!-- urn:uuid:528959d1&#45;d66d&#45;4ec7&#45;9dd6&#45;81deafbb4c47 -->
<g id="node1" class="node"><title>urn:uuid:528959d1&#45;d66d&#45;4ec7&#45;9dd6&#45;81deafbb4c47</title>
<polygon fill="black" stroke="black" points="57.5944,-618.2 57.5944,-659.8 459.93,-659.8 459.93,-618.2 57.5944,-618.2"/>
<text text-anchor="middle" x="258.762" y="-643.2" font-family="Courier,monospace" font-weight="bold" font-size="14.00" fill="white">ohibc run 1 </text>
<text text-anchor="middle" x="258.762" y="-626.4" font-family="Courier,monospace" font-weight="bold" font-size="14.00" fill="white"> urn:uuid:528959d1&#45;d66d&#45;4ec7&#45;9dd6&#45;81deafbb4c47</text>
</g>
<!-- urn:uuid:21be88bf&#45;e44e&#45;44c8&#45;bc98&#45;f08657fd1aa3 -->
<g id="node2" class="node"><title>urn:uuid:21be88bf&#45;e44e&#45;44c8&#45;bc98&#45;f08657fd1aa3</title>
<polygon fill="black" stroke="black" points="529.524,-514.2 529.524,-555.8 931.86,-555.8 931.86,-514.2 529.524,-514.2"/>
<text text-anchor="middle" x="730.692" y="-539.2" font-family="Courier,monospace" font-weight="bold" font-size="14.00" fill="white">ohibc run 1 </text>
<text text-anchor="middle" x="730.692" y="-522.4" font-family="Courier,monospace" font-weight="bold" font-size="14.00" fill="white"> urn:uuid:21be88bf&#45;e44e&#45;44c8&#45;bc98&#45;f08657fd1aa3</text>
</g>
<!-- /Users/slaughter/git/OHI&#45;Science/ohibc/prep/lsp/vHS/spatial/hs_pep_poly.shp -->
<g id="node12" class="node"><title>/Users/slaughter/git/OHI&#45;Science/ohibc/prep/lsp/vHS/spatial/hs_pep_poly.shp</title>
<path fill="#ffe4b5" stroke="black" d="M1419.95,-553C1419.95,-553 1023.09,-553 1023.09,-553 1017.09,-553 1011.09,-547 1011.09,-541 1011.09,-541 1011.09,-529 1011.09,-529 1011.09,-523 1017.09,-517 1023.09,-517 1023.09,-517 1419.95,-517 1419.95,-517 1425.95,-517 1431.95,-523 1431.95,-529 1431.95,-529 1431.95,-541 1431.95,-541 1431.95,-547 1425.95,-553 1419.95,-553"/>
<text text-anchor="middle" x="1221.52" y="-532.3" font-family="Courier,monospace" font-weight="bold" font-size="9.00">/Users/slaughter/git/OHI&#45;Science/ohibc/prep/lsp/vHS/spatial/hs_pep_poly.shp</text>
</g>
<!-- urn:uuid:21be88bf&#45;e44e&#45;44c8&#45;bc98&#45;f08657fd1aa3&#45;&gt;/Users/slaughter/git/OHI&#45;Science/ohibc/prep/lsp/vHS/spatial/hs_pep_poly.shp -->
<g id="edge18" class="edge"><title>urn:uuid:21be88bf&#45;e44e&#45;44c8&#45;bc98&#45;f08657fd1aa3&#45;&gt;/Users/slaughter/git/OHI&#45;Science/ohibc/prep/lsp/vHS/spatial/hs_pep_poly.shp</title>
<path fill="none" stroke="black" d="M931.927,-535C954.665,-535 977.931,-535 1000.9,-535"/>
<polygon fill="black" stroke="black" points="1001.08,-538.5 1011.08,-535 1001.08,-531.5 1001.08,-538.5"/>
</g>
<!-- urn:uuid:98b5270a&#45;1577&#45;4865&#45;970f&#45;17c6b0065374 -->
<g id="node3" class="node"><title>urn:uuid:98b5270a&#45;1577&#45;4865&#45;970f&#45;17c6b0065374</title>
<polygon fill="black" stroke="black" points="529.524,-294.2 529.524,-335.8 931.86,-335.8 931.86,-294.2 529.524,-294.2"/>
<text text-anchor="middle" x="730.692" y="-319.2" font-family="Courier,monospace" font-weight="bold" font-size="14.00" fill="white">ohibc run 1 </text>
<text text-anchor="middle" x="730.692" y="-302.4" font-family="Courier,monospace" font-weight="bold" font-size="14.00" fill="white"> urn:uuid:98b5270a&#45;1577&#45;4865&#45;970f&#45;17c6b0065374</text>
</g>
<!-- /Users/slaughter/git/OHI&#45;Science/ohibc/prep/lsp/vHS/spatial/hs_wdpa_rast_500m.tif -->
<g id="node15" class="node"><title>/Users/slaughter/git/OHI&#45;Science/ohibc/prep/lsp/vHS/spatial/hs_wdpa_rast_500m.tif</title>
<path fill="#ffe4b5" stroke="black" d="M1436.35,-279C1436.35,-279 1006.69,-279 1006.69,-279 1000.69,-279 994.692,-273 994.692,-267 994.692,-267 994.692,-255 994.692,-255 994.692,-249 1000.69,-243 1006.69,-243 1006.69,-243 1436.35,-243 1436.35,-243 1442.35,-243 1448.35,-249 1448.35,-255 1448.35,-255 1448.35,-267 1448.35,-267 1448.35,-273 1442.35,-279 1436.35,-279"/>
<text text-anchor="middle" x="1221.52" y="-258.3" font-family="Courier,monospace" font-weight="bold" font-size="9.00">/Users/slaughter/git/OHI&#45;Science/ohibc/prep/lsp/vHS/spatial/hs_wdpa_rast_500m.tif</text>
</g>
<!-- urn:uuid:98b5270a&#45;1577&#45;4865&#45;970f&#45;17c6b0065374&#45;&gt;/Users/slaughter/git/OHI&#45;Science/ohibc/prep/lsp/vHS/spatial/hs_wdpa_rast_500m.tif -->
<g id="edge19" class="edge"><title>urn:uuid:98b5270a&#45;1577&#45;4865&#45;970f&#45;17c6b0065374&#45;&gt;/Users/slaughter/git/OHI&#45;Science/ohibc/prep/lsp/vHS/spatial/hs_wdpa_rast_500m.tif</title>
<path fill="none" stroke="black" d="M912.517,-294.189C931.205,-292.08 949.914,-289.985 967.86,-288 991.271,-285.411 1015.91,-282.727 1040.24,-280.101"/>
<polygon fill="black" stroke="black" points="1040.71,-283.571 1050.28,-279.019 1039.96,-276.611 1040.71,-283.571"/>
</g>
<!-- /Users/slaughter/git/OHI&#45;Science/ohibc/prep/lsp/vHS/spatial/hs_pep_rast_500m.tif -->
<g id="node16" class="node"><title>/Users/slaughter/git/OHI&#45;Science/ohibc/prep/lsp/vHS/spatial/hs_pep_rast_500m.tif</title>
<path fill="#ffe4b5" stroke="black" d="M1433.45,-333C1433.45,-333 1009.59,-333 1009.59,-333 1003.59,-333 997.591,-327 997.591,-321 997.591,-321 997.591,-309 997.591,-309 997.591,-303 1003.59,-297 1009.59,-297 1009.59,-297 1433.45,-297 1433.45,-297 1439.45,-297 1445.45,-303 1445.45,-309 1445.45,-309 1445.45,-321 1445.45,-321 1445.45,-327 1439.45,-333 1433.45,-333"/>
<text text-anchor="middle" x="1221.52" y="-312.3" font-family="Courier,monospace" font-weight="bold" font-size="9.00">/Users/slaughter/git/OHI&#45;Science/ohibc/prep/lsp/vHS/spatial/hs_pep_rast_500m.tif</text>
</g>
<!-- urn:uuid:98b5270a&#45;1577&#45;4865&#45;970f&#45;17c6b0065374&#45;&gt;/Users/slaughter/git/OHI&#45;Science/ohibc/prep/lsp/vHS/spatial/hs_pep_rast_500m.tif -->
<g id="edge20" class="edge"><title>urn:uuid:98b5270a&#45;1577&#45;4865&#45;970f&#45;17c6b0065374&#45;&gt;/Users/slaughter/git/OHI&#45;Science/ohibc/prep/lsp/vHS/spatial/hs_pep_rast_500m.tif</title>
<path fill="none" stroke="black" d="M931.927,-315C950.254,-315 968.923,-315 987.505,-315"/>
<polygon fill="black" stroke="black" points="987.513,-318.5 997.513,-315 987.512,-311.5 987.513,-318.5"/>
</g>
<!-- urn:uuid:3d6c8ed0&#45;83c0&#45;4b12&#45;9154&#45;2804f4317598 -->
<g id="node4" class="node"><title>urn:uuid:3d6c8ed0&#45;83c0&#45;4b12&#45;9154&#45;2804f4317598</title>
<polygon fill="black" stroke="black" points="529.524,-392.2 529.524,-433.8 931.86,-433.8 931.86,-392.2 529.524,-392.2"/>
<text text-anchor="middle" x="730.692" y="-417.2" font-family="Courier,monospace" font-weight="bold" font-size="14.00" fill="white">ohibc run 1 </text>
<text text-anchor="middle" x="730.692" y="-400.4" font-family="Courier,monospace" font-weight="bold" font-size="14.00" fill="white"> urn:uuid:3d6c8ed0&#45;83c0&#45;4b12&#45;9154&#45;2804f4317598</text>
</g>
<!-- /Users/slaughter/git/OHI&#45;Science/ohibc/prep/lsp/vHS/spatial/hs_inland_1km_raster_500m.tif -->
<g id="node18" class="node"><title>/Users/slaughter/git/OHI&#45;Science/ohibc/prep/lsp/vHS/spatial/hs_inland_1km_raster_500m.tif</title>
<path fill="#ffe4b5" stroke="black" d="M1457.54,-387C1457.54,-387 985.499,-387 985.499,-387 979.499,-387 973.499,-381 973.499,-375 973.499,-375 973.499,-363 973.499,-363 973.499,-357 979.499,-351 985.499,-351 985.499,-351 1457.54,-351 1457.54,-351 1463.54,-351 1469.54,-357 1469.54,-363 1469.54,-363 1469.54,-375 1469.54,-375 1469.54,-381 1463.54,-387 1457.54,-387"/>
<text text-anchor="middle" x="1221.52" y="-366.3" font-family="Courier,monospace" font-weight="bold" font-size="9.00">/Users/slaughter/git/OHI&#45;Science/ohibc/prep/lsp/vHS/spatial/hs_inland_1km_raster_500m.tif</text>
</g>
<!-- urn:uuid:3d6c8ed0&#45;83c0&#45;4b12&#45;9154&#45;2804f4317598&#45;&gt;/Users/slaughter/git/OHI&#45;Science/ohibc/prep/lsp/vHS/spatial/hs_inland_1km_raster_500m.tif -->
<g id="edge21" class="edge"><title>urn:uuid:3d6c8ed0&#45;83c0&#45;4b12&#45;9154&#45;2804f4317598&#45;&gt;/Users/slaughter/git/OHI&#45;Science/ohibc/prep/lsp/vHS/spatial/hs_inland_1km_raster_500m.tif</title>
<path fill="none" stroke="black" d="M931.927,-394.977C957.648,-392.661 984.044,-390.285 1009.92,-387.956"/>
<polygon fill="black" stroke="black" points="1010.55,-391.413 1020.2,-387.031 1009.93,-384.442 1010.55,-391.413"/>
</g>
<!-- /Users/slaughter/git/OHI&#45;Science/ohibc/prep/lsp/vHS/spatial/hs_offshore_3nm_raster_500m.tif -->
<g id="node19" class="node"><title>/Users/slaughter/git/OHI&#45;Science/ohibc/prep/lsp/vHS/spatial/hs_offshore_3nm_raster_500m.tif</title>
<path fill="#ffe4b5" stroke="black" d="M1463.34,-441C1463.34,-441 979.701,-441 979.701,-441 973.701,-441 967.701,-435 967.701,-429 967.701,-429 967.701,-417 967.701,-417 967.701,-411 973.701,-405 979.701,-405 979.701,-405 1463.34,-405 1463.34,-405 1469.34,-405 1475.34,-411 1475.34,-417 1475.34,-417 1475.34,-429 1475.34,-429 1475.34,-435 1469.34,-441 1463.34,-441"/>
<text text-anchor="middle" x="1221.52" y="-420.3" font-family="Courier,monospace" font-weight="bold" font-size="9.00">/Users/slaughter/git/OHI&#45;Science/ohibc/prep/lsp/vHS/spatial/hs_offshore_3nm_raster_500m.tif</text>
</g>
<!-- urn:uuid:3d6c8ed0&#45;83c0&#45;4b12&#45;9154&#45;2804f4317598&#45;&gt;/Users/slaughter/git/OHI&#45;Science/ohibc/prep/lsp/vHS/spatial/hs_offshore_3nm_raster_500m.tif -->
<g id="edge22" class="edge"><title>urn:uuid:3d6c8ed0&#45;83c0&#45;4b12&#45;9154&#45;2804f4317598&#45;&gt;/Users/slaughter/git/OHI&#45;Science/ohibc/prep/lsp/vHS/spatial/hs_offshore_3nm_raster_500m.tif</title>
<path fill="none" stroke="black" d="M931.927,-417.096C940.455,-417.271 949.057,-417.447 957.69,-417.623"/>
<polygon fill="black" stroke="black" points="957.767,-421.125 967.836,-417.831 957.91,-414.127 957.767,-421.125"/>
</g>
<!-- urn:uuid:167b320e&#45;9143&#45;4084&#45;882e&#45;7d19914767c0 -->
<g id="node5" class="node"><title>urn:uuid:167b320e&#45;9143&#45;4084&#45;882e&#45;7d19914767c0</title>
<polygon fill="black" stroke="black" points="529.524,-453.2 529.524,-494.8 931.86,-494.8 931.86,-453.2 529.524,-453.2"/>
<text text-anchor="middle" x="730.692" y="-478.2" font-family="Courier,monospace" font-weight="bold" font-size="14.00" fill="white">ohibc run 1 </text>
<text text-anchor="middle" x="730.692" y="-461.4" font-family="Courier,monospace" font-weight="bold" font-size="14.00" fill="white"> urn:uuid:167b320e&#45;9143&#45;4084&#45;882e&#45;7d19914767c0</text>
</g>
<!-- /Users/slaughter/git/OHI&#45;Science/ohibc/prep/lsp/vHS/spatial/howe_sound_watershed_500m.tif -->
<g id="node21" class="node"><title>/Users/slaughter/git/OHI&#45;Science/ohibc/prep/lsp/vHS/spatial/howe_sound_watershed_500m.tif</title>
<path fill="#ffe4b5" stroke="black" d="M1457.54,-495C1457.54,-495 985.499,-495 985.499,-495 979.499,-495 973.499,-489 973.499,-483 973.499,-483 973.499,-471 973.499,-471 973.499,-465 979.499,-459 985.499,-459 985.499,-459 1457.54,-459 1457.54,-459 1463.54,-459 1469.54,-465 1469.54,-471 1469.54,-471 1469.54,-483 1469.54,-483 1469.54,-489 1463.54,-495 1457.54,-495"/>
<text text-anchor="middle" x="1221.52" y="-474.3" font-family="Courier,monospace" font-weight="bold" font-size="9.00">/Users/slaughter/git/OHI&#45;Science/ohibc/prep/lsp/vHS/spatial/howe_sound_watershed_500m.tif</text>
</g>
<!-- urn:uuid:167b320e&#45;9143&#45;4084&#45;882e&#45;7d19914767c0&#45;&gt;/Users/slaughter/git/OHI&#45;Science/ohibc/prep/lsp/vHS/spatial/howe_sound_watershed_500m.tif -->
<g id="edge23" class="edge"><title>urn:uuid:167b320e&#45;9143&#45;4084&#45;882e&#45;7d19914767c0&#45;&gt;/Users/slaughter/git/OHI&#45;Science/ohibc/prep/lsp/vHS/spatial/howe_sound_watershed_500m.tif</title>
<path fill="none" stroke="black" d="M931.927,-475.229C942.317,-475.293 952.817,-475.357 963.349,-475.422"/>
<polygon fill="black" stroke="black" points="963.433,-478.922 973.454,-475.484 963.476,-471.922 963.433,-478.922"/>
</g>
<!-- urn:uuid:f5d6b763&#45;c953&#45;48f4&#45;9a39&#45;4a61f45bfdd3 -->
<g id="node6" class="node"><title>urn:uuid:f5d6b763&#45;c953&#45;48f4&#45;9a39&#45;4a61f45bfdd3</title>
<polygon fill="black" stroke="black" points="1511.18,-348.2 1511.18,-389.8 1913.51,-389.8 1913.51,-348.2 1511.18,-348.2"/>
<text text-anchor="middle" x="1712.35" y="-373.2" font-family="Courier,monospace" font-weight="bold" font-size="14.00" fill="white">ohibc run 1 </text>
<text text-anchor="middle" x="1712.35" y="-356.4" font-family="Courier,monospace" font-weight="bold" font-size="14.00" fill="white"> urn:uuid:f5d6b763&#45;c953&#45;48f4&#45;9a39&#45;4a61f45bfdd3</text>
</g>
<!-- /Users/slaughter/git/OHI&#45;Science/ohibc/prep/lsp/vHS/int/zonal_stats_3nm.csv -->
<g id="node23" class="node"><title>/Users/slaughter/git/OHI&#45;Science/ohibc/prep/lsp/vHS/int/zonal_stats_3nm.csv</title>
<path fill="#ffe4b5" stroke="black" d="M2358.41,-333C2358.41,-333 1961.55,-333 1961.55,-333 1955.55,-333 1949.55,-327 1949.55,-321 1949.55,-321 1949.55,-309 1949.55,-309 1949.55,-303 1955.55,-297 1961.55,-297 1961.55,-297 2358.41,-297 2358.41,-297 2364.41,-297 2370.41,-303 2370.41,-309 2370.41,-309 2370.41,-321 2370.41,-321 2370.41,-327 2364.41,-333 2358.41,-333"/>
<text text-anchor="middle" x="2159.98" y="-312.3" font-family="Courier,monospace" font-weight="bold" font-size="9.00">/Users/slaughter/git/OHI&#45;Science/ohibc/prep/lsp/vHS/int/zonal_stats_3nm.csv</text>
</g>
<!-- urn:uuid:f5d6b763&#45;c953&#45;48f4&#45;9a39&#45;4a61f45bfdd3&#45;&gt;/Users/slaughter/git/OHI&#45;Science/ohibc/prep/lsp/vHS/int/zonal_stats_3nm.csv -->
<g id="edge24" class="edge"><title>urn:uuid:f5d6b763&#45;c953&#45;48f4&#45;9a39&#45;4a61f45bfdd3&#45;&gt;/Users/slaughter/git/OHI&#45;Science/ohibc/prep/lsp/vHS/int/zonal_stats_3nm.csv</title>
<path fill="none" stroke="black" d="M1885,-348.199C1922.93,-343.604 1962.94,-338.755 2000.32,-334.225"/>
<polygon fill="black" stroke="black" points="2000.77,-337.696 2010.28,-333.019 1999.93,-330.747 2000.77,-337.696"/>
</g>
<!-- /Users/slaughter/git/OHI&#45;Science/ohibc/prep/lsp/vHS/int/zonal_stats_1km.csv -->
<g id="node24" class="node"><title>/Users/slaughter/git/OHI&#45;Science/ohibc/prep/lsp/vHS/int/zonal_stats_1km.csv</title>
<path fill="#ffe4b5" stroke="black" d="M2358.41,-387C2358.41,-387 1961.55,-387 1961.55,-387 1955.55,-387 1949.55,-381 1949.55,-375 1949.55,-375 1949.55,-363 1949.55,-363 1949.55,-357 1955.55,-351 1961.55,-351 1961.55,-351 2358.41,-351 2358.41,-351 2364.41,-351 2370.41,-357 2370.41,-363 2370.41,-363 2370.41,-375 2370.41,-375 2370.41,-381 2364.41,-387 2358.41,-387"/>
<text text-anchor="middle" x="2159.98" y="-366.3" font-family="Courier,monospace" font-weight="bold" font-size="9.00">/Users/slaughter/git/OHI&#45;Science/ohibc/prep/lsp/vHS/int/zonal_stats_1km.csv</text>
</g>
<!-- urn:uuid:f5d6b763&#45;c953&#45;48f4&#45;9a39&#45;4a61f45bfdd3&#45;&gt;/Users/slaughter/git/OHI&#45;Science/ohibc/prep/lsp/vHS/int/zonal_stats_1km.csv -->
<g id="edge25" class="edge"><title>urn:uuid:f5d6b763&#45;c953&#45;48f4&#45;9a39&#45;4a61f45bfdd3&#45;&gt;/Users/slaughter/git/OHI&#45;Science/ohibc/prep/lsp/vHS/int/zonal_stats_1km.csv</title>
<path fill="none" stroke="black" d="M1913.68,-369C1922.23,-369 1930.84,-369 1939.43,-369"/>
<polygon fill="black" stroke="black" points="1939.52,-372.5 1949.52,-369 1939.52,-365.5 1939.52,-372.5"/>
</g>
<!-- /Users/slaughter/git/OHI&#45;Science/ohibc/prep/lsp/vHS/int/zonal_stats_ws.csv -->
<g id="node25" class="node"><title>/Users/slaughter/git/OHI&#45;Science/ohibc/prep/lsp/vHS/int/zonal_stats_ws.csv</title>
<path fill="#ffe4b5" stroke="black" d="M2355.51,-441C2355.51,-441 1964.45,-441 1964.45,-441 1958.45,-441 1952.45,-435 1952.45,-429 1952.45,-429 1952.45,-417 1952.45,-417 1952.45,-411 1958.45,-405 1964.45,-405 1964.45,-405 2355.51,-405 2355.51,-405 2361.51,-405 2367.51,-411 2367.51,-417 2367.51,-417 2367.51,-429 2367.51,-429 2367.51,-435 2361.51,-441 2355.51,-441"/>
<text text-anchor="middle" x="2159.98" y="-420.3" font-family="Courier,monospace" font-weight="bold" font-size="9.00">/Users/slaughter/git/OHI&#45;Science/ohibc/prep/lsp/vHS/int/zonal_stats_ws.csv</text>
</g>
<!-- urn:uuid:f5d6b763&#45;c953&#45;48f4&#45;9a39&#45;4a61f45bfdd3&#45;&gt;/Users/slaughter/git/OHI&#45;Science/ohibc/prep/lsp/vHS/int/zonal_stats_ws.csv -->
<g id="edge26" class="edge"><title>urn:uuid:f5d6b763&#45;c953&#45;48f4&#45;9a39&#45;4a61f45bfdd3&#45;&gt;/Users/slaughter/git/OHI&#45;Science/ohibc/prep/lsp/vHS/int/zonal_stats_ws.csv</title>
<path fill="none" stroke="black" d="M1885,-389.801C1922.93,-394.396 1962.94,-399.245 2000.32,-403.775"/>
<polygon fill="black" stroke="black" points="1999.93,-407.253 2010.28,-404.981 2000.77,-400.304 1999.93,-407.253"/>
</g>
<!-- urn:uuid:53c74750&#45;d660&#45;479d&#45;8e59&#45;f54068835317 -->
<g id="node7" class="node"><title>urn:uuid:53c74750&#45;d660&#45;479d&#45;8e59&#45;f54068835317</title>
<polygon fill="black" stroke="black" points="2406.45,-348.2 2406.45,-389.8 2808.78,-389.8 2808.78,-348.2 2406.45,-348.2"/>
<text text-anchor="middle" x="2607.61" y="-373.2" font-family="Courier,monospace" font-weight="bold" font-size="14.00" fill="white">ohibc run 1 </text>
<text text-anchor="middle" x="2607.61" y="-356.4" font-family="Courier,monospace" font-weight="bold" font-size="14.00" fill="white"> urn:uuid:53c74750&#45;d660&#45;479d&#45;8e59&#45;f54068835317</text>
</g>
<!-- /Users/slaughter/git/OHI&#45;Science/ohibc/prep/lsp/vHS/int/area_protected_ws.csv -->
<g id="node27" class="node"><title>/Users/slaughter/git/OHI&#45;Science/ohibc/prep/lsp/vHS/int/area_protected_ws.csv</title>
<path fill="#ffe4b5" stroke="black" d="M3267.08,-333C3267.08,-333 2859.62,-333 2859.62,-333 2853.62,-333 2847.62,-327 2847.62,-321 2847.62,-321 2847.62,-309 2847.62,-309 2847.62,-303 2853.62,-297 2859.62,-297 2859.62,-297 3267.08,-297 3267.08,-297 3273.08,-297 3279.08,-303 3279.08,-309 3279.08,-309 3279.08,-321 3279.08,-321 3279.08,-327 3273.08,-333 3267.08,-333"/>
<text text-anchor="middle" x="3063.35" y="-312.3" font-family="Courier,monospace" font-weight="bold" font-size="9.00">/Users/slaughter/git/OHI&#45;Science/ohibc/prep/lsp/vHS/int/area_protected_ws.csv</text>
</g>
<!-- urn:uuid:53c74750&#45;d660&#45;479d&#45;8e59&#45;f54068835317&#45;&gt;/Users/slaughter/git/OHI&#45;Science/ohibc/prep/lsp/vHS/int/area_protected_ws.csv -->
<g id="edge27" class="edge"><title>urn:uuid:53c74750&#45;d660&#45;479d&#45;8e59&#45;f54068835317&#45;&gt;/Users/slaughter/git/OHI&#45;Science/ohibc/prep/lsp/vHS/int/area_protected_ws.csv</title>
<path fill="none" stroke="black" d="M2783.39,-348.199C2822,-343.604 2862.75,-338.755 2900.81,-334.225"/>
<polygon fill="black" stroke="black" points="2901.43,-337.676 2910.94,-333.019 2900.6,-330.725 2901.43,-337.676"/>
</g>
<!-- /Users/slaughter/git/OHI&#45;Science/ohibc/prep/lsp/vHS/int/area_protected_3nm.csv -->
<g id="node28" class="node"><title>/Users/slaughter/git/OHI&#45;Science/ohibc/prep/lsp/vHS/int/area_protected_3nm.csv</title>
<path fill="#ffe4b5" stroke="black" d="M3269.98,-387C3269.98,-387 2856.72,-387 2856.72,-387 2850.72,-387 2844.72,-381 2844.72,-375 2844.72,-375 2844.72,-363 2844.72,-363 2844.72,-357 2850.72,-351 2856.72,-351 2856.72,-351 3269.98,-351 3269.98,-351 3275.98,-351 3281.98,-357 3281.98,-363 3281.98,-363 3281.98,-375 3281.98,-375 3281.98,-381 3275.98,-387 3269.98,-387"/>
<text text-anchor="middle" x="3063.35" y="-366.3" font-family="Courier,monospace" font-weight="bold" font-size="9.00">/Users/slaughter/git/OHI&#45;Science/ohibc/prep/lsp/vHS/int/area_protected_3nm.csv</text>
</g>
<!-- urn:uuid:53c74750&#45;d660&#45;479d&#45;8e59&#45;f54068835317&#45;&gt;/Users/slaughter/git/OHI&#45;Science/ohibc/prep/lsp/vHS/int/area_protected_3nm.csv -->
<g id="edge28" class="edge"><title>urn:uuid:53c74750&#45;d660&#45;479d&#45;8e59&#45;f54068835317&#45;&gt;/Users/slaughter/git/OHI&#45;Science/ohibc/prep/lsp/vHS/int/area_protected_3nm.csv</title>
<path fill="none" stroke="black" d="M2808.95,-369C2817.48,-369 2826.06,-369 2834.65,-369"/>
<polygon fill="black" stroke="black" points="2834.72,-372.5 2844.72,-369 2834.72,-365.5 2834.72,-372.5"/>
</g>
<!-- /Users/slaughter/git/OHI&#45;Science/ohibc/prep/lsp/vHS/int/area_protected_1km.csv -->
<g id="node29" class="node"><title>/Users/slaughter/git/OHI&#45;Science/ohibc/prep/lsp/vHS/int/area_protected_1km.csv</title>
<path fill="#ffe4b5" stroke="black" d="M3269.98,-441C3269.98,-441 2856.72,-441 2856.72,-441 2850.72,-441 2844.72,-435 2844.72,-429 2844.72,-429 2844.72,-417 2844.72,-417 2844.72,-411 2850.72,-405 2856.72,-405 2856.72,-405 3269.98,-405 3269.98,-405 3275.98,-405 3281.98,-411 3281.98,-417 3281.98,-417 3281.98,-429 3281.98,-429 3281.98,-435 3275.98,-441 3269.98,-441"/>
<text text-anchor="middle" x="3063.35" y="-420.3" font-family="Courier,monospace" font-weight="bold" font-size="9.00">/Users/slaughter/git/OHI&#45;Science/ohibc/prep/lsp/vHS/int/area_protected_1km.csv</text>
</g>
<!-- urn:uuid:53c74750&#45;d660&#45;479d&#45;8e59&#45;f54068835317&#45;&gt;/Users/slaughter/git/OHI&#45;Science/ohibc/prep/lsp/vHS/int/area_protected_1km.csv -->
<g id="edge29" class="edge"><title>urn:uuid:53c74750&#45;d660&#45;479d&#45;8e59&#45;f54068835317&#45;&gt;/Users/slaughter/git/OHI&#45;Science/ohibc/prep/lsp/vHS/int/area_protected_1km.csv</title>
<path fill="none" stroke="black" d="M2783.39,-389.801C2822,-394.396 2862.75,-399.245 2900.81,-403.775"/>
<polygon fill="black" stroke="black" points="2900.6,-407.275 2910.94,-404.981 2901.43,-400.324 2900.6,-407.275"/>
</g>
<!-- urn:uuid:4fcd5da4&#45;67af&#45;4f8d&#45;ad36&#45;c9cdf45621d4 -->
<g id="node8" class="node"><title>urn:uuid:4fcd5da4&#45;67af&#45;4f8d&#45;ad36&#45;c9cdf45621d4</title>
<polygon fill="black" stroke="black" points="3317.91,-348.2 3317.91,-389.8 3720.25,-389.8 3720.25,-348.2 3317.91,-348.2"/>
<text text-anchor="middle" x="3519.08" y="-373.2" font-family="Courier,monospace" font-weight="bold" font-size="14.00" fill="white">ohibc run 1 </text>
<text text-anchor="middle" x="3519.08" y="-356.4" font-family="Courier,monospace" font-weight="bold" font-size="14.00" fill="white"> urn:uuid:4fcd5da4&#45;67af&#45;4f8d&#45;ad36&#45;c9cdf45621d4</text>
</g>
<!-- /Users/slaughter/git/OHI&#45;Science/ohibc/prep/lsp/vHS/output/area_protected_total.csv -->
<g id="node31" class="node"><title>/Users/slaughter/git/OHI&#45;Science/ohibc/prep/lsp/vHS/output/area_protected_total.csv</title>
<path fill="#ffe4b5" stroke="black" d="M4208.44,-387C4208.44,-387 3768.18,-387 3768.18,-387 3762.18,-387 3756.18,-381 3756.18,-375 3756.18,-375 3756.18,-363 3756.18,-363 3756.18,-357 3762.18,-351 3768.18,-351 3768.18,-351 4208.44,-351 4208.44,-351 4214.44,-351 4220.44,-357 4220.44,-363 4220.44,-363 4220.44,-375 4220.44,-375 4220.44,-381 4214.44,-387 4208.44,-387"/>
<text text-anchor="middle" x="3988.31" y="-366.3" font-family="Courier,monospace" font-weight="bold" font-size="9.00">/Users/slaughter/git/OHI&#45;Science/ohibc/prep/lsp/vHS/output/area_protected_total.csv</text>
</g>
<!-- urn:uuid:4fcd5da4&#45;67af&#45;4f8d&#45;ad36&#45;c9cdf45621d4&#45;&gt;/Users/slaughter/git/OHI&#45;Science/ohibc/prep/lsp/vHS/output/area_protected_total.csv -->
<g id="edge30" class="edge"><title>urn:uuid:4fcd5da4&#45;67af&#45;4f8d&#45;ad36&#45;c9cdf45621d4&#45;&gt;/Users/slaughter/git/OHI&#45;Science/ohibc/prep/lsp/vHS/output/area_protected_total.csv</title>
<path fill="none" stroke="black" d="M3720.26,-369C3728.81,-369 3737.41,-369 3746.03,-369"/>
<polygon fill="black" stroke="black" points="3746.15,-372.5 3756.15,-369 3746.15,-365.5 3746.15,-372.5"/>
</g>
<!-- urn:uuid:53ada2f7&#45;5e25&#45;4845&#45;883e&#45;1049a90c321c -->
<g id="node9" class="node"><title>urn:uuid:53ada2f7&#45;5e25&#45;4845&#45;883e&#45;1049a90c321c</title>
<polygon fill="black" stroke="black" points="4256.37,-348.2 4256.37,-389.8 4658.71,-389.8 4658.71,-348.2 4256.37,-348.2"/>
<text text-anchor="middle" x="4457.54" y="-373.2" font-family="Courier,monospace" font-weight="bold" font-size="14.00" fill="white">ohibc run 1 </text>
<text text-anchor="middle" x="4457.54" y="-356.4" font-family="Courier,monospace" font-weight="bold" font-size="14.00" fill="white"> urn:uuid:53ada2f7&#45;5e25&#45;4845&#45;883e&#45;1049a90c321c</text>
</g>
<!-- /Users/slaughter/git/OHI&#45;Science/ohibc/prep/lsp/vHS/output/lsp_status.csv -->
<g id="node33" class="node"><title>/Users/slaughter/git/OHI&#45;Science/ohibc/prep/lsp/vHS/output/lsp_status.csv</title>
<path fill="#ffe4b5" stroke="black" d="M5092.91,-360C5092.91,-360 4706.64,-360 4706.64,-360 4700.64,-360 4694.64,-354 4694.64,-348 4694.64,-348 4694.64,-336 4694.64,-336 4694.64,-330 4700.64,-324 4706.64,-324 4706.64,-324 5092.91,-324 5092.91,-324 5098.91,-324 5104.91,-330 5104.91,-336 5104.91,-336 5104.91,-348 5104.91,-348 5104.91,-354 5098.91,-360 5092.91,-360"/>
<text text-anchor="middle" x="4899.78" y="-339.3" font-family="Courier,monospace" font-weight="bold" font-size="9.00">/Users/slaughter/git/OHI&#45;Science/ohibc/prep/lsp/vHS/output/lsp_status.csv</text>
</g>
<!-- urn:uuid:53ada2f7&#45;5e25&#45;4845&#45;883e&#45;1049a90c321c&#45;&gt;/Users/slaughter/git/OHI&#45;Science/ohibc/prep/lsp/vHS/output/lsp_status.csv -->
<g id="edge31" class="edge"><title>urn:uuid:53ada2f7&#45;5e25&#45;4845&#45;883e&#45;1049a90c321c&#45;&gt;/Users/slaughter/git/OHI&#45;Science/ohibc/prep/lsp/vHS/output/lsp_status.csv</title>
<path fill="none" stroke="black" d="M4659.01,-356.705C4667.49,-356.185 4676.02,-355.662 4684.53,-355.14"/>
<polygon fill="black" stroke="black" points="4684.74,-358.634 4694.51,-354.528 4684.31,-351.647 4684.74,-358.634"/>
</g>
<!-- /Users/slaughter/git/OHI&#45;Science/ohibc/prep/lsp/vHS/output/lsp_trend.csv -->
<g id="node34" class="node"><title>/Users/slaughter/git/OHI&#45;Science/ohibc/prep/lsp/vHS/output/lsp_trend.csv</title>
<path fill="#ffe4b5" stroke="black" d="M5090.01,-414C5090.01,-414 4709.54,-414 4709.54,-414 4703.54,-414 4697.54,-408 4697.54,-402 4697.54,-402 4697.54,-390 4697.54,-390 4697.54,-384 4703.54,-378 4709.54,-378 4709.54,-378 5090.01,-378 5090.01,-378 5096.01,-378 5102.01,-384 5102.01,-390 5102.01,-390 5102.01,-402 5102.01,-402 5102.01,-408 5096.01,-414 5090.01,-414"/>
<text text-anchor="middle" x="4899.78" y="-393.3" font-family="Courier,monospace" font-weight="bold" font-size="9.00">/Users/slaughter/git/OHI&#45;Science/ohibc/prep/lsp/vHS/output/lsp_trend.csv</text>
</g>
<!-- urn:uuid:53ada2f7&#45;5e25&#45;4845&#45;883e&#45;1049a90c321c&#45;&gt;/Users/slaughter/git/OHI&#45;Science/ohibc/prep/lsp/vHS/output/lsp_trend.csv -->
<g id="edge32" class="edge"><title>urn:uuid:53ada2f7&#45;5e25&#45;4845&#45;883e&#45;1049a90c321c&#45;&gt;/Users/slaughter/git/OHI&#45;Science/ohibc/prep/lsp/vHS/output/lsp_trend.csv</title>
<path fill="none" stroke="black" d="M4659.01,-381.295C4668.35,-381.868 4677.73,-382.443 4687.09,-383.017"/>
<polygon fill="black" stroke="black" points="4687.04,-386.52 4697.23,-383.639 4687.47,-379.534 4687.04,-386.52"/>
</g>
<!-- /Users/slaughter/git/OHI&#45;Science/ohibc/setup_BC_WDPA_polygons.R -->
<g id="node10" class="node"><title>/Users/slaughter/git/OHI&#45;Science/ohibc/setup_BC_WDPA_polygons.R</title>
<path fill="#ffe4b5" stroke="black" d="M424.906,-600C424.906,-600 92.6189,-600 92.6189,-600 86.6189,-600 80.6189,-594 80.6189,-588 80.6189,-588 80.6189,-576 80.6189,-576 80.6189,-570 86.6189,-564 92.6189,-564 92.6189,-564 424.906,-564 424.906,-564 430.906,-564 436.906,-570 436.906,-576 436.906,-576 436.906,-588 436.906,-588 436.906,-594 430.906,-600 424.906,-600"/>
<text text-anchor="middle" x="258.762" y="-579.3" font-family="Courier,monospace" font-weight="bold" font-size="9.00">/Users/slaughter/git/OHI&#45;Science/ohibc/setup_BC_WDPA_polygons.R</text>
</g>
<!-- /Volumes/ohi/git&#45;annex/bcprep/_raw_data/databc/TA_PEP_SVW/TA_PEP_SVW_polygon.shp -->
<g id="node11" class="node"><title>/Volumes/ohi/git&#45;annex/bcprep/_raw_data/databc/TA_PEP_SVW/TA_PEP_SVW_polygon.shp</title>
<path fill="#ffe4b5" stroke="black" d="M470.69,-546C470.69,-546 46.8342,-546 46.8342,-546 40.8342,-546 34.8342,-540 34.8342,-534 34.8342,-534 34.8342,-522 34.8342,-522 34.8342,-516 40.8342,-510 46.8342,-510 46.8342,-510 470.69,-510 470.69,-510 476.69,-510 482.69,-516 482.69,-522 482.69,-522 482.69,-534 482.69,-534 482.69,-540 476.69,-546 470.69,-546"/>
<text text-anchor="middle" x="258.762" y="-525.3" font-family="Courier,monospace" font-weight="bold" font-size="9.00">/Volumes/ohi/git&#45;annex/bcprep/_raw_data/databc/TA_PEP_SVW/TA_PEP_SVW_polygon.shp</text>
</g>
<!-- /Volumes/ohi/git&#45;annex/bcprep/_raw_data/databc/TA_PEP_SVW/TA_PEP_SVW_polygon.shp&#45;&gt;urn:uuid:21be88bf&#45;e44e&#45;44c8&#45;bc98&#45;f08657fd1aa3 -->
<g id="edge1" class="edge"><title>/Volumes/ohi/git&#45;annex/bcprep/_raw_data/databc/TA_PEP_SVW/TA_PEP_SVW_polygon.shp&#45;&gt;urn:uuid:21be88bf&#45;e44e&#45;44c8&#45;bc98&#45;f08657fd1aa3</title>
<path fill="none" stroke="black" d="M483.029,-531.326C495.147,-531.506 507.307,-531.687 519.379,-531.867"/>
<polygon fill="black" stroke="black" points="519.445,-535.368 529.497,-532.018 519.55,-528.369 519.445,-535.368"/>
</g>
<!-- /Users/slaughter/git/OHI&#45;Science/ohibc/setup_BC_PEP_polygons.R -->
<g id="node13" class="node"><title>/Users/slaughter/git/OHI&#45;Science/ohibc/setup_BC_PEP_polygons.R</title>
<path fill="#ffe4b5" stroke="black" d="M422.006,-492C422.006,-492 95.5179,-492 95.5179,-492 89.5179,-492 83.5179,-486 83.5179,-480 83.5179,-480 83.5179,-468 83.5179,-468 83.5179,-462 89.5179,-456 95.5179,-456 95.5179,-456 422.006,-456 422.006,-456 428.006,-456 434.006,-462 434.006,-468 434.006,-468 434.006,-480 434.006,-480 434.006,-486 428.006,-492 422.006,-492"/>
<text text-anchor="middle" x="258.762" y="-471.3" font-family="Courier,monospace" font-weight="bold" font-size="9.00">/Users/slaughter/git/OHI&#45;Science/ohibc/setup_BC_PEP_polygons.R</text>
</g>
<!-- /Users/slaughter/git/OHI&#45;Science/ohibc/prep/spatial/raster/ohibc_rgn_raster_500m.tif -->
<g id="node14" class="node"><title>/Users/slaughter/git/OHI&#45;Science/ohibc/prep/spatial/raster/ohibc_rgn_raster_500m.tif</title>
<path fill="#ffe4b5" stroke="black" d="M481.287,-438C481.287,-438 36.2376,-438 36.2376,-438 30.2376,-438 24.2376,-432 24.2376,-426 24.2376,-426 24.2376,-414 24.2376,-414 24.2376,-408 30.2376,-402 36.2376,-402 36.2376,-402 481.287,-402 481.287,-402 487.287,-402 493.287,-408 493.287,-414 493.287,-414 493.287,-426 493.287,-426 493.287,-432 487.287,-438 481.287,-438"/>
<text text-anchor="middle" x="258.762" y="-417.3" font-family="Courier,monospace" font-weight="bold" font-size="9.00">/Users/slaughter/git/OHI&#45;Science/ohibc/prep/spatial/raster/ohibc_rgn_raster_500m.tif</text>
</g>
<!-- /Users/slaughter/git/OHI&#45;Science/ohibc/prep/spatial/raster/ohibc_rgn_raster_500m.tif&#45;&gt;urn:uuid:98b5270a&#45;1577&#45;4865&#45;970f&#45;17c6b0065374 -->
<g id="edge2" class="edge"><title>/Users/slaughter/git/OHI&#45;Science/ohibc/prep/spatial/raster/ohibc_rgn_raster_500m.tif&#45;&gt;urn:uuid:98b5270a&#45;1577&#45;4865&#45;970f&#45;17c6b0065374</title>
<path fill="none" stroke="black" d="M445.992,-401.981C462.138,-399.365 478.165,-396.386 493.524,-393 510.144,-389.336 595.864,-360.602 659.271,-339.066"/>
<polygon fill="black" stroke="black" points="660.505,-342.343 668.847,-335.811 658.252,-335.716 660.505,-342.343"/>
</g>
<!-- /Users/slaughter/git/OHI&#45;Science/ohibc/prep/spatial/raster/ohibc_rgn_raster_500m.tif&#45;&gt;urn:uuid:3d6c8ed0&#45;83c0&#45;4b12&#45;9154&#45;2804f4317598 -->
<g id="edge3" class="edge"><title>/Users/slaughter/git/OHI&#45;Science/ohibc/prep/spatial/raster/ohibc_rgn_raster_500m.tif&#45;&gt;urn:uuid:3d6c8ed0&#45;83c0&#45;4b12&#45;9154&#45;2804f4317598</title>
<path fill="none" stroke="black" d="M493.35,-416.521C502.043,-416.391 510.737,-416.262 519.387,-416.133"/>
<polygon fill="black" stroke="black" points="519.57,-419.63 529.517,-415.982 519.466,-412.631 519.57,-419.63"/>
</g>
<!-- /Users/slaughter/git/OHI&#45;Science/ohibc/prep/spatial/raster/ohibc_rgn_raster_500m.tif&#45;&gt;urn:uuid:167b320e&#45;9143&#45;4084&#45;882e&#45;7d19914767c0 -->
<g id="edge4" class="edge"><title>/Users/slaughter/git/OHI&#45;Science/ohibc/prep/spatial/raster/ohibc_rgn_raster_500m.tif&#45;&gt;urn:uuid:167b320e&#45;9143&#45;4084&#45;882e&#45;7d19914767c0</title>
<path fill="none" stroke="black" d="M416.569,-438.019C455.651,-442.51 497.99,-447.375 538.526,-452.033"/>
<polygon fill="black" stroke="black" points="538.179,-455.516 548.513,-453.181 538.978,-448.562 538.179,-455.516"/>
</g>
<!-- /Users/slaughter/git/OHI&#45;Science/ohibc/prep/lsp/vHS/spatial/hs_wdpa_rast_500m.tif&#45;&gt;urn:uuid:f5d6b763&#45;c953&#45;48f4&#45;9a39&#45;4a61f45bfdd3 -->
<g id="edge9" class="edge"><title>/Users/slaughter/git/OHI&#45;Science/ohibc/prep/lsp/vHS/spatial/hs_wdpa_rast_500m.tif&#45;&gt;urn:uuid:f5d6b763&#45;c953&#45;48f4&#45;9a39&#45;4a61f45bfdd3</title>
<path fill="none" stroke="black" d="M1427.92,-279.033C1443.98,-281.635 1459.89,-284.606 1475.18,-288 1536.74,-301.665 1604.6,-325.956 1651.72,-344.384"/>
<polygon fill="black" stroke="black" points="1650.57,-347.692 1661.15,-348.104 1653.13,-341.18 1650.57,-347.692"/>
</g>
<!-- /Users/slaughter/git/OHI&#45;Science/ohibc/prep/lsp/vHS/spatial/hs_pep_rast_500m.tif&#45;&gt;urn:uuid:f5d6b763&#45;c953&#45;48f4&#45;9a39&#45;4a61f45bfdd3 -->
<g id="edge8" class="edge"><title>/Users/slaughter/git/OHI&#45;Science/ohibc/prep/lsp/vHS/spatial/hs_pep_rast_500m.tif&#45;&gt;urn:uuid:f5d6b763&#45;c953&#45;48f4&#45;9a39&#45;4a61f45bfdd3</title>
<path fill="none" stroke="black" d="M1392.76,-333.019C1420.32,-335.986 1448.54,-339.054 1475.18,-342 1489.9,-343.628 1505.13,-345.33 1520.45,-347.054"/>
<polygon fill="black" stroke="black" points="1520.19,-350.547 1530.52,-348.189 1520.98,-343.591 1520.19,-350.547"/>
</g>
<!-- /Users/slaughter/git/OHI&#45;Science/ohibc/rasterize_HS_WDPA_and_PEP.R -->
<g id="node17" class="node"><title>/Users/slaughter/git/OHI&#45;Science/ohibc/rasterize_HS_WDPA_and_PEP.R</title>
<path fill="#ffe4b5" stroke="black" d="M433.103,-384C433.103,-384 84.4214,-384 84.4214,-384 78.4214,-384 72.4214,-378 72.4214,-372 72.4214,-372 72.4214,-360 72.4214,-360 72.4214,-354 78.4214,-348 84.4214,-348 84.4214,-348 433.103,-348 433.103,-348 439.103,-348 445.103,-354 445.103,-360 445.103,-360 445.103,-372 445.103,-372 445.103,-378 439.103,-384 433.103,-384"/>
<text text-anchor="middle" x="258.762" y="-363.3" font-family="Courier,monospace" font-weight="bold" font-size="9.00">/Users/slaughter/git/OHI&#45;Science/ohibc/rasterize_HS_WDPA_and_PEP.R</text>
</g>
<!-- /Users/slaughter/git/OHI&#45;Science/ohibc/prep/lsp/vHS/spatial/hs_inland_1km_raster_500m.tif&#45;&gt;urn:uuid:f5d6b763&#45;c953&#45;48f4&#45;9a39&#45;4a61f45bfdd3 -->
<g id="edge6" class="edge"><title>/Users/slaughter/git/OHI&#45;Science/ohibc/prep/lsp/vHS/spatial/hs_inland_1km_raster_500m.tif&#45;&gt;urn:uuid:f5d6b763&#45;c953&#45;48f4&#45;9a39&#45;4a61f45bfdd3</title>
<path fill="none" stroke="black" d="M1469.8,-369C1480.19,-369 1490.57,-369 1500.87,-369"/>
<polygon fill="black" stroke="black" points="1501.14,-372.5 1511.14,-369 1501.14,-365.5 1501.14,-372.5"/>
</g>
<!-- /Users/slaughter/git/OHI&#45;Science/ohibc/prep/lsp/vHS/spatial/hs_offshore_3nm_raster_500m.tif&#45;&gt;urn:uuid:f5d6b763&#45;c953&#45;48f4&#45;9a39&#45;4a61f45bfdd3 -->
<g id="edge5" class="edge"><title>/Users/slaughter/git/OHI&#45;Science/ohibc/prep/lsp/vHS/spatial/hs_offshore_3nm_raster_500m.tif&#45;&gt;urn:uuid:f5d6b763&#45;c953&#45;48f4&#45;9a39&#45;4a61f45bfdd3</title>
<path fill="none" stroke="black" d="M1392.76,-404.981C1420.32,-402.014 1448.54,-398.946 1475.18,-396 1489.9,-394.372 1505.13,-392.67 1520.45,-390.946"/>
<polygon fill="black" stroke="black" points="1520.98,-394.409 1530.52,-389.811 1520.19,-387.453 1520.98,-394.409"/>
</g>
<!-- /Users/slaughter/git/OHI&#45;Science/ohibc/get_analysis_rasters.R -->
<g id="node20" class="node"><title>/Users/slaughter/git/OHI&#45;Science/ohibc/get_analysis_rasters.R</title>
<path fill="#ffe4b5" stroke="black" d="M419.607,-330C419.607,-330 97.9169,-330 97.9169,-330 91.9169,-330 85.9169,-324 85.9169,-318 85.9169,-318 85.9169,-306 85.9169,-306 85.9169,-300 91.9169,-294 97.9169,-294 97.9169,-294 419.607,-294 419.607,-294 425.607,-294 431.607,-300 431.607,-306 431.607,-306 431.607,-318 431.607,-318 431.607,-324 425.607,-330 419.607,-330"/>
<text text-anchor="middle" x="258.762" y="-309.3" font-family="Courier,monospace" font-weight="bold" font-size="9.00">/Users/slaughter/git/OHI&#45;Science/ohibc/get_analysis_rasters.R</text>
</g>
<!-- /Users/slaughter/git/OHI&#45;Science/ohibc/prep/lsp/vHS/spatial/howe_sound_watershed_500m.tif&#45;&gt;urn:uuid:f5d6b763&#45;c953&#45;48f4&#45;9a39&#45;4a61f45bfdd3 -->
<g id="edge7" class="edge"><title>/Users/slaughter/git/OHI&#45;Science/ohibc/prep/lsp/vHS/spatial/howe_sound_watershed_500m.tif&#45;&gt;urn:uuid:f5d6b763&#45;c953&#45;48f4&#45;9a39&#45;4a61f45bfdd3</title>
<path fill="none" stroke="black" d="M1427.92,-458.967C1443.98,-456.365 1459.89,-453.394 1475.18,-450 1536.74,-436.335 1604.6,-412.044 1651.72,-393.616"/>
<polygon fill="black" stroke="black" points="1653.13,-396.82 1661.15,-389.896 1650.57,-390.308 1653.13,-396.82"/>
</g>
<!-- /Users/slaughter/git/OHI&#45;Science/ohibc/setup_watershed_raster.R -->
<g id="node22" class="node"><title>/Users/slaughter/git/OHI&#45;Science/ohibc/setup_watershed_raster.R</title>
<path fill="#ffe4b5" stroke="black" d="M424.906,-276C424.906,-276 92.6189,-276 92.6189,-276 86.6189,-276 80.6189,-270 80.6189,-264 80.6189,-264 80.6189,-252 80.6189,-252 80.6189,-246 86.6189,-240 92.6189,-240 92.6189,-240 424.906,-240 424.906,-240 430.906,-240 436.906,-246 436.906,-252 436.906,-252 436.906,-264 436.906,-264 436.906,-270 430.906,-276 424.906,-276"/>
<text text-anchor="middle" x="258.762" y="-255.3" font-family="Courier,monospace" font-weight="bold" font-size="9.00">/Users/slaughter/git/OHI&#45;Science/ohibc/setup_watershed_raster.R</text>
</g>
<!-- /Users/slaughter/git/OHI&#45;Science/ohibc/prep/lsp/vHS/int/zonal_stats_3nm.csv&#45;&gt;urn:uuid:53c74750&#45;d660&#45;479d&#45;8e59&#45;f54068835317 -->
<g id="edge10" class="edge"><title>/Users/slaughter/git/OHI&#45;Science/ohibc/prep/lsp/vHS/int/zonal_stats_3nm.csv&#45;&gt;urn:uuid:53c74750&#45;d660&#45;479d&#45;8e59&#45;f54068835317</title>
<path fill="none" stroke="black" d="M2309.68,-333.019C2346.51,-337.481 2386.38,-342.313 2424.6,-346.944"/>
<polygon fill="black" stroke="black" points="2424.45,-350.452 2434.8,-348.181 2425.3,-343.503 2424.45,-350.452"/>
</g>
<!-- /Users/slaughter/git/OHI&#45;Science/ohibc/prep/lsp/vHS/int/zonal_stats_1km.csv&#45;&gt;urn:uuid:53c74750&#45;d660&#45;479d&#45;8e59&#45;f54068835317 -->
<g id="edge11" class="edge"><title>/Users/slaughter/git/OHI&#45;Science/ohibc/prep/lsp/vHS/int/zonal_stats_1km.csv&#45;&gt;urn:uuid:53c74750&#45;d660&#45;479d&#45;8e59&#45;f54068835317</title>
<path fill="none" stroke="black" d="M2370.42,-369C2379.03,-369 2387.66,-369 2396.27,-369"/>
<polygon fill="black" stroke="black" points="2396.36,-372.5 2406.36,-369 2396.36,-365.5 2396.36,-372.5"/>
</g>
<!-- /Users/slaughter/git/OHI&#45;Science/ohibc/prep/lsp/vHS/int/zonal_stats_ws.csv&#45;&gt;urn:uuid:53c74750&#45;d660&#45;479d&#45;8e59&#45;f54068835317 -->
<g id="edge12" class="edge"><title>/Users/slaughter/git/OHI&#45;Science/ohibc/prep/lsp/vHS/int/zonal_stats_ws.csv&#45;&gt;urn:uuid:53c74750&#45;d660&#45;479d&#45;8e59&#45;f54068835317</title>
<path fill="none" stroke="black" d="M2309.68,-404.981C2346.51,-400.519 2386.38,-395.687 2424.6,-391.056"/>
<polygon fill="black" stroke="black" points="2425.3,-394.497 2434.8,-389.819 2424.45,-387.548 2425.3,-394.497"/>
</g>
<!-- /Users/slaughter/git/OHI&#45;Science/ohibc/lsp_zonal_stats.R -->
<g id="node26" class="node"><title>/Users/slaughter/git/OHI&#45;Science/ohibc/lsp_zonal_stats.R</title>
<path fill="#ffe4b5" stroke="black" d="M406.112,-222C406.112,-222 111.412,-222 111.412,-222 105.412,-222 99.4124,-216 99.4124,-210 99.4124,-210 99.4124,-198 99.4124,-198 99.4124,-192 105.412,-186 111.412,-186 111.412,-186 406.112,-186 406.112,-186 412.112,-186 418.112,-192 418.112,-198 418.112,-198 418.112,-210 418.112,-210 418.112,-216 412.112,-222 406.112,-222"/>
<text text-anchor="middle" x="258.762" y="-201.3" font-family="Courier,monospace" font-weight="bold" font-size="9.00">/Users/slaughter/git/OHI&#45;Science/ohibc/lsp_zonal_stats.R</text>
</g>
<!-- /Users/slaughter/git/OHI&#45;Science/ohibc/prep/lsp/vHS/int/area_protected_ws.csv&#45;&gt;urn:uuid:4fcd5da4&#45;67af&#45;4f8d&#45;ad36&#45;c9cdf45621d4 -->
<g id="edge15" class="edge"><title>/Users/slaughter/git/OHI&#45;Science/ohibc/prep/lsp/vHS/int/area_protected_ws.csv&#45;&gt;urn:uuid:4fcd5da4&#45;67af&#45;4f8d&#45;ad36&#45;c9cdf45621d4</title>
<path fill="none" stroke="black" d="M3215.75,-333.019C3253.24,-337.481 3293.84,-342.313 3332.76,-346.944"/>
<polygon fill="black" stroke="black" points="3332.8,-350.474 3343.14,-348.181 3333.63,-343.523 3332.8,-350.474"/>
</g>
<!-- /Users/slaughter/git/OHI&#45;Science/ohibc/prep/lsp/vHS/int/area_protected_3nm.csv&#45;&gt;urn:uuid:4fcd5da4&#45;67af&#45;4f8d&#45;ad36&#45;c9cdf45621d4 -->
<g id="edge13" class="edge"><title>/Users/slaughter/git/OHI&#45;Science/ohibc/prep/lsp/vHS/int/area_protected_3nm.csv&#45;&gt;urn:uuid:4fcd5da4&#45;67af&#45;4f8d&#45;ad36&#45;c9cdf45621d4</title>
<path fill="none" stroke="black" d="M3282.24,-369C3290.64,-369 3299.06,-369 3307.45,-369"/>
<polygon fill="black" stroke="black" points="3307.66,-372.5 3317.66,-369 3307.66,-365.5 3307.66,-372.5"/>
</g>
<!-- /Users/slaughter/git/OHI&#45;Science/ohibc/prep/lsp/vHS/int/area_protected_1km.csv&#45;&gt;urn:uuid:4fcd5da4&#45;67af&#45;4f8d&#45;ad36&#45;c9cdf45621d4 -->
<g id="edge14" class="edge"><title>/Users/slaughter/git/OHI&#45;Science/ohibc/prep/lsp/vHS/int/area_protected_1km.csv&#45;&gt;urn:uuid:4fcd5da4&#45;67af&#45;4f8d&#45;ad36&#45;c9cdf45621d4</title>
<path fill="none" stroke="black" d="M3215.75,-404.981C3253.24,-400.519 3293.84,-395.687 3332.76,-391.056"/>
<polygon fill="black" stroke="black" points="3333.63,-394.477 3343.14,-389.819 3332.8,-387.526 3333.63,-394.477"/>
</g>
<!-- /Users/slaughter/git/OHI&#45;Science/ohibc/summarize_zonal_stats.R -->
<g id="node30" class="node"><title>/Users/slaughter/git/OHI&#45;Science/ohibc/summarize_zonal_stats.R</title>
<path fill="#ffe4b5" stroke="black" d="M422.006,-168C422.006,-168 95.5179,-168 95.5179,-168 89.5179,-168 83.5179,-162 83.5179,-156 83.5179,-156 83.5179,-144 83.5179,-144 83.5179,-138 89.5179,-132 95.5179,-132 95.5179,-132 422.006,-132 422.006,-132 428.006,-132 434.006,-138 434.006,-144 434.006,-144 434.006,-156 434.006,-156 434.006,-162 428.006,-168 422.006,-168"/>
<text text-anchor="middle" x="258.762" y="-147.3" font-family="Courier,monospace" font-weight="bold" font-size="9.00">/Users/slaughter/git/OHI&#45;Science/ohibc/summarize_zonal_stats.R</text>
</g>
<!-- /Users/slaughter/git/OHI&#45;Science/ohibc/prep/lsp/vHS/output/area_protected_total.csv&#45;&gt;urn:uuid:53ada2f7&#45;5e25&#45;4845&#45;883e&#45;1049a90c321c -->
<g id="edge16" class="edge"><title>/Users/slaughter/git/OHI&#45;Science/ohibc/prep/lsp/vHS/output/area_protected_total.csv&#45;&gt;urn:uuid:53ada2f7&#45;5e25&#45;4845&#45;883e&#45;1049a90c321c</title>
<path fill="none" stroke="black" d="M4220.53,-362.25C4229.11,-362.248 4237.7,-362.258 4246.25,-362.28"/>
<polygon fill="black" stroke="black" points="4246.25,-365.78 4256.26,-362.311 4246.27,-358.78 4246.25,-365.78"/>
</g>
<!-- /Users/slaughter/git/OHI&#45;Science/ohibc/prep/lsp/vHS/output/area_protected_total.csv&#45;&gt;urn:uuid:53ada2f7&#45;5e25&#45;4845&#45;883e&#45;1049a90c321c -->
<g id="edge17" class="edge"><title>/Users/slaughter/git/OHI&#45;Science/ohibc/prep/lsp/vHS/output/area_protected_total.csv&#45;&gt;urn:uuid:53ada2f7&#45;5e25&#45;4845&#45;883e&#45;1049a90c321c</title>
<path fill="none" stroke="black" d="M4220.53,-375.75C4229.11,-375.752 4237.7,-375.742 4246.25,-375.72"/>
<polygon fill="black" stroke="black" points="4246.27,-379.22 4256.26,-375.689 4246.25,-372.22 4246.27,-379.22"/>
</g>
<!-- /Users/slaughter/git/OHI&#45;Science/ohibc/combine_inland_and_offshore.R -->
<g id="node32" class="node"><title>/Users/slaughter/git/OHI&#45;Science/ohibc/combine_inland_and_offshore.R</title>
<path fill="#ffe4b5" stroke="black" d="M438.401,-114C438.401,-114 79.1234,-114 79.1234,-114 73.1234,-114 67.1234,-108 67.1234,-102 67.1234,-102 67.1234,-90 67.1234,-90 67.1234,-84 73.1234,-78 79.1234,-78 79.1234,-78 438.401,-78 438.401,-78 444.401,-78 450.401,-84 450.401,-90 450.401,-90 450.401,-102 450.401,-102 450.401,-108 444.401,-114 438.401,-114"/>
<text text-anchor="middle" x="258.762" y="-93.3" font-family="Courier,monospace" font-weight="bold" font-size="9.00">/Users/slaughter/git/OHI&#45;Science/ohibc/combine_inland_and_offshore.R</text>
</g>
<!-- /Users/slaughter/git/OHI&#45;Science/ohibc/estimate_status_and_trend_by_year.R -->
<g id="node35" class="node"><title>/Users/slaughter/git/OHI&#45;Science/ohibc/estimate_status_and_trend_by_year.R</title>
<path fill="#ffe4b5" stroke="black" d="M454.296,-60C454.296,-60 63.2285,-60 63.2285,-60 57.2285,-60 51.2285,-54 51.2285,-48 51.2285,-48 51.2285,-36 51.2285,-36 51.2285,-30 57.2285,-24 63.2285,-24 63.2285,-24 454.296,-24 454.296,-24 460.296,-24 466.296,-30 466.296,-36 466.296,-36 466.296,-48 466.296,-48 466.296,-54 460.296,-60 454.296,-60"/>
<text text-anchor="middle" x="258.762" y="-39.3" font-family="Courier,monospace" font-weight="bold" font-size="9.00">/Users/slaughter/git/OHI&#45;Science/ohibc/estimate_status_and_trend_by_year.R</text>
</g>
</g>
</svg>
