<?xml version="1.0" encoding="UTF-8" standalone="no"?>
<!DOCTYPE svg PUBLIC "-//W3C//DTD SVG 1.1//EN"
 "http://www.w3.org/Graphics/SVG/1.1/DTD/svg11.dtd">
<!-- Generated by graphviz version 2.38.0 (20140413.2041)
 -->
<!-- Title: rm_data_view Pages: 1 -->
<svg width="5169pt" height="734pt"
 viewBox="0.00 0.00 5169.24 733.60" xmlns="http://www.w3.org/2000/svg" xmlns:xlink="http://www.w3.org/1999/xlink">
<g id="graph0" class="graph" transform="scale(1 1) rotate(0) translate(4 729.6)">
<title>rm_data_view</title>
<polygon fill="white" stroke="none" points="-4,4 -4,-729.6 5165.24,-729.6 5165.24,4 -4,4"/>
<text text-anchor="middle" x="2580.62" y="-705.4" font-family="Courier,monospace" font-size="18.00">multiple_runs</text>
<g id="clust1" class="cluster"><title>cluster_workflow</title>
<polygon fill="none" stroke="black" stroke-width="2" points="8,-8 8,-688 5153.24,-688 5153.24,-8 8,-8"/>
</g>
<g id="clust2" class="cluster"><title>cluster_workflow_inner</title>
<polygon fill="none" stroke="white" stroke-width="2" points="16,-16 16,-680 5145.24,-680 5145.24,-16 16,-16"/>
</g>
<!-- urn:uuid:528959d1&#45;d66d&#45;4ec7&#45;9dd6&#45;81deafbb4c47 -->
<g id="node1" class="node"><title>urn:uuid:528959d1&#45;d66d&#45;4ec7&#45;9dd6&#45;81deafbb4c47</title>
<polygon fill="black" stroke="black" points="60.294,-630.2 60.294,-671.8 462.63,-671.8 462.63,-630.2 60.294,-630.2"/>
<text text-anchor="middle" x="261.462" y="-655.2" font-family="Courier,monospace" font-weight="bold" font-size="14.00" fill="white">ohibc run 1 </text>
<text text-anchor="middle" x="261.462" y="-638.4" font-family="Courier,monospace" font-weight="bold" font-size="14.00" fill="white"> urn:uuid:528959d1&#45;d66d&#45;4ec7&#45;9dd6&#45;81deafbb4c47</text>
</g>
<!-- urn:uuid:21be88bf&#45;e44e&#45;44c8&#45;bc98&#45;f08657fd1aa3 -->
<g id="node2" class="node"><title>urn:uuid:21be88bf&#45;e44e&#45;44c8&#45;bc98&#45;f08657fd1aa3</title>
<polygon fill="black" stroke="black" points="534.923,-523.2 534.923,-564.8 937.259,-564.8 937.259,-523.2 534.923,-523.2"/>
<text text-anchor="middle" x="736.091" y="-548.2" font-family="Courier,monospace" font-weight="bold" font-size="14.00" fill="white">ohibc run 1 </text>
<text text-anchor="middle" x="736.091" y="-531.4" font-family="Courier,monospace" font-weight="bold" font-size="14.00" fill="white"> urn:uuid:21be88bf&#45;e44e&#45;44c8&#45;bc98&#45;f08657fd1aa3</text>
</g>
<!-- cf1cfd676ddf397c43f07c18da4f8d63bd6437cf57c61a6a5a7ea93c8fbc36ec -->
<g id="node12" class="node"><title>cf1cfd676ddf397c43f07c18da4f8d63bd6437cf57c61a6a5a7ea93c8fbc36ec</title>
<path fill="#ffe4b5" stroke="black" d="M1028.45,-526C1028.45,-526 1430.78,-526 1430.78,-526 1436.78,-526 1442.78,-532 1442.78,-538 1442.78,-538 1442.78,-550 1442.78,-550 1442.78,-556 1436.78,-562 1430.78,-562 1430.78,-562 1028.45,-562 1028.45,-562 1022.45,-562 1016.45,-556 1016.45,-550 1016.45,-550 1016.45,-538 1016.45,-538 1016.45,-532 1022.45,-526 1028.45,-526"/>
<text text-anchor="middle" x="1229.62" y="-546.9" font-family="Courier,monospace" font-weight="bold" font-size="9.00">/Users/slaughter/git/OHI&#45;Science/ohibc/prep/lsp/vHS/spatial/hs_pep_poly.shp </text>
<text text-anchor="middle" x="1229.62" y="-536.1" font-family="Courier,monospace" font-weight="bold" font-size="9.00"> cf1cfd676ddf397c43f07c18da4f8d63bd6437cf57c61a6a5a7ea93c8fbc36ec</text>
</g>
<!-- urn:uuid:21be88bf&#45;e44e&#45;44c8&#45;bc98&#45;f08657fd1aa3&#45;&gt;cf1cfd676ddf397c43f07c18da4f8d63bd6437cf57c61a6a5a7ea93c8fbc36ec -->
<g id="edge18" class="edge"><title>urn:uuid:21be88bf&#45;e44e&#45;44c8&#45;bc98&#45;f08657fd1aa3&#45;&gt;cf1cfd676ddf397c43f07c18da4f8d63bd6437cf57c61a6a5a7ea93c8fbc36ec</title>
<path fill="none" stroke="black" d="M937.368,-544C960.044,-544 983.254,-544 1006.19,-544"/>
<polygon fill="black" stroke="black" points="1006.35,-547.5 1016.35,-544 1006.35,-540.5 1006.35,-547.5"/>
</g>
<!-- urn:uuid:98b5270a&#45;1577&#45;4865&#45;970f&#45;17c6b0065374 -->
<g id="node3" class="node"><title>urn:uuid:98b5270a&#45;1577&#45;4865&#45;970f&#45;17c6b0065374</title>
<polygon fill="black" stroke="black" points="534.923,-300.2 534.923,-341.8 937.259,-341.8 937.259,-300.2 534.923,-300.2"/>
<text text-anchor="middle" x="736.091" y="-325.2" font-family="Courier,monospace" font-weight="bold" font-size="14.00" fill="white">ohibc run 1 </text>
<text text-anchor="middle" x="736.091" y="-308.4" font-family="Courier,monospace" font-weight="bold" font-size="14.00" fill="white"> urn:uuid:98b5270a&#45;1577&#45;4865&#45;970f&#45;17c6b0065374</text>
</g>
<!-- b03456556a5921cabea227978673e751441b2255f877cb183d4eeb1475105593 -->
<g id="node15" class="node"><title>b03456556a5921cabea227978673e751441b2255f877cb183d4eeb1475105593</title>
<path fill="#ffe4b5" stroke="black" d="M1012.25,-248C1012.25,-248 1446.98,-248 1446.98,-248 1452.98,-248 1458.98,-254 1458.98,-260 1458.98,-260 1458.98,-272 1458.98,-272 1458.98,-278 1452.98,-284 1446.98,-284 1446.98,-284 1012.25,-284 1012.25,-284 1006.25,-284 1000.25,-278 1000.25,-272 1000.25,-272 1000.25,-260 1000.25,-260 1000.25,-254 1006.25,-248 1012.25,-248"/>
<text text-anchor="middle" x="1229.62" y="-268.9" font-family="Courier,monospace" font-weight="bold" font-size="9.00">/Users/slaughter/git/OHI&#45;Science/ohibc/prep/lsp/vHS/spatial/hs_wdpa_rast_500m.tif </text>
<text text-anchor="middle" x="1229.62" y="-258.1" font-family="Courier,monospace" font-weight="bold" font-size="9.00"> b03456556a5921cabea227978673e751441b2255f877cb183d4eeb1475105593</text>
</g>
<!-- urn:uuid:98b5270a&#45;1577&#45;4865&#45;970f&#45;17c6b0065374&#45;&gt;b03456556a5921cabea227978673e751441b2255f877cb183d4eeb1475105593 -->
<g id="edge19" class="edge"><title>urn:uuid:98b5270a&#45;1577&#45;4865&#45;970f&#45;17c6b0065374&#45;&gt;b03456556a5921cabea227978673e751441b2255f877cb183d4eeb1475105593</title>
<path fill="none" stroke="black" d="M918.563,-300.167C937.036,-298.072 955.521,-295.986 973.259,-294 999.099,-291.106 1026.41,-288.078 1053.19,-285.127"/>
<polygon fill="black" stroke="black" points="1053.87,-288.574 1063.42,-284.001 1053.1,-281.616 1053.87,-288.574"/>
</g>
<!-- 93cca45a93cbf195aac755354840087590d4788e06768d7db90481ef9b5d9bc3 -->
<g id="node16" class="node"><title>93cca45a93cbf195aac755354840087590d4788e06768d7db90481ef9b5d9bc3</title>
<path fill="#ffe4b5" stroke="black" d="M1014.95,-303C1014.95,-303 1444.28,-303 1444.28,-303 1450.28,-303 1456.28,-309 1456.28,-315 1456.28,-315 1456.28,-327 1456.28,-327 1456.28,-333 1450.28,-339 1444.28,-339 1444.28,-339 1014.95,-339 1014.95,-339 1008.95,-339 1002.95,-333 1002.95,-327 1002.95,-327 1002.95,-315 1002.95,-315 1002.95,-309 1008.95,-303 1014.95,-303"/>
<text text-anchor="middle" x="1229.62" y="-323.9" font-family="Courier,monospace" font-weight="bold" font-size="9.00">/Users/slaughter/git/OHI&#45;Science/ohibc/prep/lsp/vHS/spatial/hs_pep_rast_500m.tif </text>
<text text-anchor="middle" x="1229.62" y="-313.1" font-family="Courier,monospace" font-weight="bold" font-size="9.00"> 93cca45a93cbf195aac755354840087590d4788e06768d7db90481ef9b5d9bc3</text>
</g>
<!-- urn:uuid:98b5270a&#45;1577&#45;4865&#45;970f&#45;17c6b0065374&#45;&gt;93cca45a93cbf195aac755354840087590d4788e06768d7db90481ef9b5d9bc3 -->
<g id="edge20" class="edge"><title>urn:uuid:98b5270a&#45;1577&#45;4865&#45;970f&#45;17c6b0065374&#45;&gt;93cca45a93cbf195aac755354840087590d4788e06768d7db90481ef9b5d9bc3</title>
<path fill="none" stroke="black" d="M937.368,-321C955.522,-321 974.018,-321 992.443,-321"/>
<polygon fill="black" stroke="black" points="992.669,-324.5 1002.67,-321 992.669,-317.5 992.669,-324.5"/>
</g>
<!-- urn:uuid:3d6c8ed0&#45;83c0&#45;4b12&#45;9154&#45;2804f4317598 -->
<g id="node4" class="node"><title>urn:uuid:3d6c8ed0&#45;83c0&#45;4b12&#45;9154&#45;2804f4317598</title>
<polygon fill="black" stroke="black" points="534.923,-401.2 534.923,-442.8 937.259,-442.8 937.259,-401.2 534.923,-401.2"/>
<text text-anchor="middle" x="736.091" y="-426.2" font-family="Courier,monospace" font-weight="bold" font-size="14.00" fill="white">ohibc run 1 </text>
<text text-anchor="middle" x="736.091" y="-409.4" font-family="Courier,monospace" font-weight="bold" font-size="14.00" fill="white"> urn:uuid:3d6c8ed0&#45;83c0&#45;4b12&#45;9154&#45;2804f4317598</text>
</g>
<!-- 85130403e425f79e80e52e3fcaa9c116f5cc0b01c4aa7ea4078c21c08d6ac2fd -->
<g id="node18" class="node"><title>85130403e425f79e80e52e3fcaa9c116f5cc0b01c4aa7ea4078c21c08d6ac2fd</title>
<path fill="#ffe4b5" stroke="black" d="M990.658,-358C990.658,-358 1468.58,-358 1468.58,-358 1474.58,-358 1480.58,-364 1480.58,-370 1480.58,-370 1480.58,-382 1480.58,-382 1480.58,-388 1474.58,-394 1468.58,-394 1468.58,-394 990.658,-394 990.658,-394 984.658,-394 978.658,-388 978.658,-382 978.658,-382 978.658,-370 978.658,-370 978.658,-364 984.658,-358 990.658,-358"/>
<text text-anchor="middle" x="1229.62" y="-378.9" font-family="Courier,monospace" font-weight="bold" font-size="9.00">/Users/slaughter/git/OHI&#45;Science/ohibc/prep/lsp/vHS/spatial/hs_inland_1km_raster_500m.tif </text>
<text text-anchor="middle" x="1229.62" y="-368.1" font-family="Courier,monospace" font-weight="bold" font-size="9.00"> 85130403e425f79e80e52e3fcaa9c116f5cc0b01c4aa7ea4078c21c08d6ac2fd</text>
</g>
<!-- urn:uuid:3d6c8ed0&#45;83c0&#45;4b12&#45;9154&#45;2804f4317598&#45;&gt;85130403e425f79e80e52e3fcaa9c116f5cc0b01c4aa7ea4078c21c08d6ac2fd -->
<g id="edge21" class="edge"><title>urn:uuid:3d6c8ed0&#45;83c0&#45;4b12&#45;9154&#45;2804f4317598&#45;&gt;85130403e425f79e80e52e3fcaa9c116f5cc0b01c4aa7ea4078c21c08d6ac2fd</title>
<path fill="none" stroke="black" d="M937.368,-403.257C966.475,-400.533 996.464,-397.726 1025.62,-394.997"/>
<polygon fill="black" stroke="black" points="1026.27,-398.452 1035.9,-394.036 1025.62,-391.483 1026.27,-398.452"/>
</g>
<!-- 5ba2c041bacec6ae9b550d578fb0667523ab9d610f043b13832a0ae6e2c84e10 -->
<g id="node19" class="node"><title>5ba2c041bacec6ae9b550d578fb0667523ab9d610f043b13832a0ae6e2c84e10</title>
<path fill="#ffe4b5" stroke="black" d="M985.259,-413C985.259,-413 1473.98,-413 1473.98,-413 1479.98,-413 1485.98,-419 1485.98,-425 1485.98,-425 1485.98,-437 1485.98,-437 1485.98,-443 1479.98,-449 1473.98,-449 1473.98,-449 985.259,-449 985.259,-449 979.259,-449 973.259,-443 973.259,-437 973.259,-437 973.259,-425 973.259,-425 973.259,-419 979.259,-413 985.259,-413"/>
<text text-anchor="middle" x="1229.62" y="-433.9" font-family="Courier,monospace" font-weight="bold" font-size="9.00">/Users/slaughter/git/OHI&#45;Science/ohibc/prep/lsp/vHS/spatial/hs_offshore_3nm_raster_500m.tif </text>
<text text-anchor="middle" x="1229.62" y="-423.1" font-family="Courier,monospace" font-weight="bold" font-size="9.00"> 5ba2c041bacec6ae9b550d578fb0667523ab9d610f043b13832a0ae6e2c84e10</text>
</g>
<!-- urn:uuid:3d6c8ed0&#45;83c0&#45;4b12&#45;9154&#45;2804f4317598&#45;&gt;5ba2c041bacec6ae9b550d578fb0667523ab9d610f043b13832a0ae6e2c84e10 -->
<g id="edge22" class="edge"><title>urn:uuid:3d6c8ed0&#45;83c0&#45;4b12&#45;9154&#45;2804f4317598&#45;&gt;5ba2c041bacec6ae9b550d578fb0667523ab9d610f043b13832a0ae6e2c84e10</title>
<path fill="none" stroke="black" d="M937.368,-425.667C945.864,-425.823 954.435,-425.98 963.038,-426.137"/>
<polygon fill="black" stroke="black" points="963.088,-429.639 973.15,-426.322 963.216,-422.64 963.088,-429.639"/>
</g>
<!-- urn:uuid:167b320e&#45;9143&#45;4084&#45;882e&#45;7d19914767c0 -->
<g id="node5" class="node"><title>urn:uuid:167b320e&#45;9143&#45;4084&#45;882e&#45;7d19914767c0</title>
<polygon fill="black" stroke="black" points="534.923,-462.2 534.923,-503.8 937.259,-503.8 937.259,-462.2 534.923,-462.2"/>
<text text-anchor="middle" x="736.091" y="-487.2" font-family="Courier,monospace" font-weight="bold" font-size="14.00" fill="white">ohibc run 1 </text>
<text text-anchor="middle" x="736.091" y="-470.4" font-family="Courier,monospace" font-weight="bold" font-size="14.00" fill="white"> urn:uuid:167b320e&#45;9143&#45;4084&#45;882e&#45;7d19914767c0</text>
</g>
<!-- 98c477e500188e52b2399aec3cc8d1cecefa6315c5ed6bf6f36f8252e7c6103c -->
<g id="node21" class="node"><title>98c477e500188e52b2399aec3cc8d1cecefa6315c5ed6bf6f36f8252e7c6103c</title>
<path fill="#ffe4b5" stroke="black" d="M990.658,-468C990.658,-468 1468.58,-468 1468.58,-468 1474.58,-468 1480.58,-474 1480.58,-480 1480.58,-480 1480.58,-492 1480.58,-492 1480.58,-498 1474.58,-504 1468.58,-504 1468.58,-504 990.658,-504 990.658,-504 984.658,-504 978.658,-498 978.658,-492 978.658,-492 978.658,-480 978.658,-480 978.658,-474 984.658,-468 990.658,-468"/>
<text text-anchor="middle" x="1229.62" y="-488.9" font-family="Courier,monospace" font-weight="bold" font-size="9.00">/Users/slaughter/git/OHI&#45;Science/ohibc/prep/lsp/vHS/spatial/howe_sound_watershed_500m.tif </text>
<text text-anchor="middle" x="1229.62" y="-478.1" font-family="Courier,monospace" font-weight="bold" font-size="9.00"> 98c477e500188e52b2399aec3cc8d1cecefa6315c5ed6bf6f36f8252e7c6103c</text>
</g>
<!-- urn:uuid:167b320e&#45;9143&#45;4084&#45;882e&#45;7d19914767c0&#45;&gt;98c477e500188e52b2399aec3cc8d1cecefa6315c5ed6bf6f36f8252e7c6103c -->
<g id="edge23" class="edge"><title>urn:uuid:167b320e&#45;9143&#45;4084&#45;882e&#45;7d19914767c0&#45;&gt;98c477e500188e52b2399aec3cc8d1cecefa6315c5ed6bf6f36f8252e7c6103c</title>
<path fill="none" stroke="black" d="M937.368,-484.222C947.528,-484.284 957.796,-484.347 968.098,-484.41"/>
<polygon fill="black" stroke="black" points="968.388,-487.912 978.409,-484.473 968.43,-480.912 968.388,-487.912"/>
</g>
<!-- urn:uuid:f5d6b763&#45;c953&#45;48f4&#45;9a39&#45;4a61f45bfdd3 -->
<g id="node6" class="node"><title>urn:uuid:f5d6b763&#45;c953&#45;48f4&#45;9a39&#45;4a61f45bfdd3</title>
<polygon fill="black" stroke="black" points="1521.98,-355.2 1521.98,-396.8 1924.31,-396.8 1924.31,-355.2 1521.98,-355.2"/>
<text text-anchor="middle" x="1723.14" y="-380.2" font-family="Courier,monospace" font-weight="bold" font-size="14.00" fill="white">ohibc run 1 </text>
<text text-anchor="middle" x="1723.14" y="-363.4" font-family="Courier,monospace" font-weight="bold" font-size="14.00" fill="white"> urn:uuid:f5d6b763&#45;c953&#45;48f4&#45;9a39&#45;4a61f45bfdd3</text>
</g>
<!-- e4f5dd01c6b2e03bbe67419aa6ea9c20d938478e5523a2b6dc057413f6db2bf5 -->
<g id="node23" class="node"><title>e4f5dd01c6b2e03bbe67419aa6ea9c20d938478e5523a2b6dc057413f6db2bf5</title>
<path fill="#ffe4b5" stroke="black" d="M1972.31,-303C1972.31,-303 2374.64,-303 2374.64,-303 2380.64,-303 2386.64,-309 2386.64,-315 2386.64,-315 2386.64,-327 2386.64,-327 2386.64,-333 2380.64,-339 2374.64,-339 2374.64,-339 1972.31,-339 1972.31,-339 1966.31,-339 1960.31,-333 1960.31,-327 1960.31,-327 1960.31,-315 1960.31,-315 1960.31,-309 1966.31,-303 1972.31,-303"/>
<text text-anchor="middle" x="2173.48" y="-323.9" font-family="Courier,monospace" font-weight="bold" font-size="9.00">/Users/slaughter/git/OHI&#45;Science/ohibc/prep/lsp/vHS/int/zonal_stats_3nm.csv </text>
<text text-anchor="middle" x="2173.48" y="-313.1" font-family="Courier,monospace" font-weight="bold" font-size="9.00"> e4f5dd01c6b2e03bbe67419aa6ea9c20d938478e5523a2b6dc057413f6db2bf5</text>
</g>
<!-- urn:uuid:f5d6b763&#45;c953&#45;48f4&#45;9a39&#45;4a61f45bfdd3&#45;&gt;e4f5dd01c6b2e03bbe67419aa6ea9c20d938478e5523a2b6dc057413f6db2bf5 -->
<g id="edge24" class="edge"><title>urn:uuid:f5d6b763&#45;c953&#45;48f4&#45;9a39&#45;4a61f45bfdd3&#45;&gt;e4f5dd01c6b2e03bbe67419aa6ea9c20d938478e5523a2b6dc057413f6db2bf5</title>
<path fill="none" stroke="black" d="M1893.96,-355.168C1933.94,-350.263 1976.38,-345.056 2015.76,-340.226"/>
<polygon fill="black" stroke="black" points="2016.2,-343.698 2025.7,-339.006 2015.35,-336.75 2016.2,-343.698"/>
</g>
<!-- 1a8556ac0c8124864b109286a0d419b9213d0084cc831c813a5905e887c291a1 -->
<g id="node24" class="node"><title>1a8556ac0c8124864b109286a0d419b9213d0084cc831c813a5905e887c291a1</title>
<path fill="#ffe4b5" stroke="black" d="M1972.31,-358C1972.31,-358 2374.64,-358 2374.64,-358 2380.64,-358 2386.64,-364 2386.64,-370 2386.64,-370 2386.64,-382 2386.64,-382 2386.64,-388 2380.64,-394 2374.64,-394 2374.64,-394 1972.31,-394 1972.31,-394 1966.31,-394 1960.31,-388 1960.31,-382 1960.31,-382 1960.31,-370 1960.31,-370 1960.31,-364 1966.31,-358 1972.31,-358"/>
<text text-anchor="middle" x="2173.48" y="-378.9" font-family="Courier,monospace" font-weight="bold" font-size="9.00">/Users/slaughter/git/OHI&#45;Science/ohibc/prep/lsp/vHS/int/zonal_stats_1km.csv </text>
<text text-anchor="middle" x="2173.48" y="-368.1" font-family="Courier,monospace" font-weight="bold" font-size="9.00"> 1a8556ac0c8124864b109286a0d419b9213d0084cc831c813a5905e887c291a1</text>
</g>
<!-- urn:uuid:f5d6b763&#45;c953&#45;48f4&#45;9a39&#45;4a61f45bfdd3&#45;&gt;1a8556ac0c8124864b109286a0d419b9213d0084cc831c813a5905e887c291a1 -->
<g id="edge25" class="edge"><title>urn:uuid:f5d6b763&#45;c953&#45;48f4&#45;9a39&#45;4a61f45bfdd3&#45;&gt;1a8556ac0c8124864b109286a0d419b9213d0084cc831c813a5905e887c291a1</title>
<path fill="none" stroke="black" d="M1924.38,-376C1932.93,-376 1941.53,-376 1950.13,-376"/>
<polygon fill="black" stroke="black" points="1950.22,-379.5 1960.22,-376 1950.22,-372.5 1950.22,-379.5"/>
</g>
<!-- cf404cbfa31cc0f7f4a397632797d8aa416eb621a214569945c833594b16b3c3 -->
<g id="node25" class="node"><title>cf404cbfa31cc0f7f4a397632797d8aa416eb621a214569945c833594b16b3c3</title>
<path fill="#ffe4b5" stroke="black" d="M1975.01,-413C1975.01,-413 2371.94,-413 2371.94,-413 2377.94,-413 2383.94,-419 2383.94,-425 2383.94,-425 2383.94,-437 2383.94,-437 2383.94,-443 2377.94,-449 2371.94,-449 2371.94,-449 1975.01,-449 1975.01,-449 1969.01,-449 1963.01,-443 1963.01,-437 1963.01,-437 1963.01,-425 1963.01,-425 1963.01,-419 1969.01,-413 1975.01,-413"/>
<text text-anchor="middle" x="2173.48" y="-433.9" font-family="Courier,monospace" font-weight="bold" font-size="9.00">/Users/slaughter/git/OHI&#45;Science/ohibc/prep/lsp/vHS/int/zonal_stats_ws.csv </text>
<text text-anchor="middle" x="2173.48" y="-423.1" font-family="Courier,monospace" font-weight="bold" font-size="9.00"> cf404cbfa31cc0f7f4a397632797d8aa416eb621a214569945c833594b16b3c3</text>
</g>
<!-- urn:uuid:f5d6b763&#45;c953&#45;48f4&#45;9a39&#45;4a61f45bfdd3&#45;&gt;cf404cbfa31cc0f7f4a397632797d8aa416eb621a214569945c833594b16b3c3 -->
<g id="edge26" class="edge"><title>urn:uuid:f5d6b763&#45;c953&#45;48f4&#45;9a39&#45;4a61f45bfdd3&#45;&gt;cf404cbfa31cc0f7f4a397632797d8aa416eb621a214569945c833594b16b3c3</title>
<path fill="none" stroke="black" d="M1893.96,-396.832C1933.94,-401.737 1976.38,-406.944 2015.76,-411.774"/>
<polygon fill="black" stroke="black" points="2015.35,-415.25 2025.7,-412.994 2016.2,-408.302 2015.35,-415.25"/>
</g>
<!-- urn:uuid:53c74750&#45;d660&#45;479d&#45;8e59&#45;f54068835317 -->
<g id="node7" class="node"><title>urn:uuid:53c74750&#45;d660&#45;479d&#45;8e59&#45;f54068835317</title>
<polygon fill="black" stroke="black" points="2422.64,-355.2 2422.64,-396.8 2824.98,-396.8 2824.98,-355.2 2422.64,-355.2"/>
<text text-anchor="middle" x="2623.81" y="-380.2" font-family="Courier,monospace" font-weight="bold" font-size="14.00" fill="white">ohibc run 1 </text>
<text text-anchor="middle" x="2623.81" y="-363.4" font-family="Courier,monospace" font-weight="bold" font-size="14.00" fill="white"> urn:uuid:53c74750&#45;d660&#45;479d&#45;8e59&#45;f54068835317</text>
</g>
<!-- bc918e73e8ffd7509cfd2f5173f4d13b17e620340a6ddae47c56f3b7697be7b1 -->
<g id="node27" class="node"><title>bc918e73e8ffd7509cfd2f5173f4d13b17e620340a6ddae47c56f3b7697be7b1</title>
<path fill="#ffe4b5" stroke="black" d="M2875.68,-303C2875.68,-303 3288.81,-303 3288.81,-303 3294.81,-303 3300.81,-309 3300.81,-315 3300.81,-315 3300.81,-327 3300.81,-327 3300.81,-333 3294.81,-339 3288.81,-339 3288.81,-339 2875.68,-339 2875.68,-339 2869.68,-339 2863.68,-333 2863.68,-327 2863.68,-327 2863.68,-315 2863.68,-315 2863.68,-309 2869.68,-303 2875.68,-303"/>
<text text-anchor="middle" x="3082.24" y="-323.9" font-family="Courier,monospace" font-weight="bold" font-size="9.00">/Users/slaughter/git/OHI&#45;Science/ohibc/prep/lsp/vHS/int/area_protected_ws.csv </text>
<text text-anchor="middle" x="3082.24" y="-313.1" font-family="Courier,monospace" font-weight="bold" font-size="9.00"> bc918e73e8ffd7509cfd2f5173f4d13b17e620340a6ddae47c56f3b7697be7b1</text>
</g>
<!-- urn:uuid:53c74750&#45;d660&#45;479d&#45;8e59&#45;f54068835317&#45;&gt;bc918e73e8ffd7509cfd2f5173f4d13b17e620340a6ddae47c56f3b7697be7b1 -->
<g id="edge27" class="edge"><title>urn:uuid:53c74750&#45;d660&#45;479d&#45;8e59&#45;f54068835317&#45;&gt;bc918e73e8ffd7509cfd2f5173f4d13b17e620340a6ddae47c56f3b7697be7b1</title>
<path fill="none" stroke="black" d="M2797.69,-355.168C2838.4,-350.263 2881.61,-345.056 2921.69,-340.226"/>
<polygon fill="black" stroke="black" points="2922.31,-343.677 2931.82,-339.006 2921.47,-336.728 2922.31,-343.677"/>
</g>
<!-- b2cba129ff4ce7c9e83c13b36dc3ff95ce18b4cb4784758b3e94478d4e999b09 -->
<g id="node28" class="node"><title>b2cba129ff4ce7c9e83c13b36dc3ff95ce18b4cb4784758b3e94478d4e999b09</title>
<path fill="#ffe4b5" stroke="black" d="M2872.98,-358C2872.98,-358 3291.51,-358 3291.51,-358 3297.51,-358 3303.51,-364 3303.51,-370 3303.51,-370 3303.51,-382 3303.51,-382 3303.51,-388 3297.51,-394 3291.51,-394 3291.51,-394 2872.98,-394 2872.98,-394 2866.98,-394 2860.98,-388 2860.98,-382 2860.98,-382 2860.98,-370 2860.98,-370 2860.98,-364 2866.98,-358 2872.98,-358"/>
<text text-anchor="middle" x="3082.24" y="-378.9" font-family="Courier,monospace" font-weight="bold" font-size="9.00">/Users/slaughter/git/OHI&#45;Science/ohibc/prep/lsp/vHS/int/area_protected_3nm.csv </text>
<text text-anchor="middle" x="3082.24" y="-368.1" font-family="Courier,monospace" font-weight="bold" font-size="9.00"> b2cba129ff4ce7c9e83c13b36dc3ff95ce18b4cb4784758b3e94478d4e999b09</text>
</g>
<!-- urn:uuid:53c74750&#45;d660&#45;479d&#45;8e59&#45;f54068835317&#45;&gt;b2cba129ff4ce7c9e83c13b36dc3ff95ce18b4cb4784758b3e94478d4e999b09 -->
<g id="edge28" class="edge"><title>urn:uuid:53c74750&#45;d660&#45;479d&#45;8e59&#45;f54068835317&#45;&gt;b2cba129ff4ce7c9e83c13b36dc3ff95ce18b4cb4784758b3e94478d4e999b09</title>
<path fill="none" stroke="black" d="M2825.01,-376C2833.53,-376 2842.11,-376 2850.69,-376"/>
<polygon fill="black" stroke="black" points="2850.76,-379.5 2860.76,-376 2850.76,-372.5 2850.76,-379.5"/>
</g>
<!-- d792e5fe1c3c98a24dde23e00895f627ab2c0a102f5852dcc4f02e2ba9dba1eb -->
<g id="node29" class="node"><title>d792e5fe1c3c98a24dde23e00895f627ab2c0a102f5852dcc4f02e2ba9dba1eb</title>
<path fill="#ffe4b5" stroke="black" d="M2872.98,-413C2872.98,-413 3291.51,-413 3291.51,-413 3297.51,-413 3303.51,-419 3303.51,-425 3303.51,-425 3303.51,-437 3303.51,-437 3303.51,-443 3297.51,-449 3291.51,-449 3291.51,-449 2872.98,-449 2872.98,-449 2866.98,-449 2860.98,-443 2860.98,-437 2860.98,-437 2860.98,-425 2860.98,-425 2860.98,-419 2866.98,-413 2872.98,-413"/>
<text text-anchor="middle" x="3082.24" y="-433.9" font-family="Courier,monospace" font-weight="bold" font-size="9.00">/Users/slaughter/git/OHI&#45;Science/ohibc/prep/lsp/vHS/int/area_protected_1km.csv </text>
<text text-anchor="middle" x="3082.24" y="-423.1" font-family="Courier,monospace" font-weight="bold" font-size="9.00"> d792e5fe1c3c98a24dde23e00895f627ab2c0a102f5852dcc4f02e2ba9dba1eb</text>
</g>
<!-- urn:uuid:53c74750&#45;d660&#45;479d&#45;8e59&#45;f54068835317&#45;&gt;d792e5fe1c3c98a24dde23e00895f627ab2c0a102f5852dcc4f02e2ba9dba1eb -->
<g id="edge29" class="edge"><title>urn:uuid:53c74750&#45;d660&#45;479d&#45;8e59&#45;f54068835317&#45;&gt;d792e5fe1c3c98a24dde23e00895f627ab2c0a102f5852dcc4f02e2ba9dba1eb</title>
<path fill="none" stroke="black" d="M2797.69,-396.832C2838.4,-401.737 2881.61,-406.944 2921.69,-411.774"/>
<polygon fill="black" stroke="black" points="2921.47,-415.272 2931.82,-412.994 2922.31,-408.323 2921.47,-415.272"/>
</g>
<!-- urn:uuid:4fcd5da4&#45;67af&#45;4f8d&#45;ad36&#45;c9cdf45621d4 -->
<g id="node8" class="node"><title>urn:uuid:4fcd5da4&#45;67af&#45;4f8d&#45;ad36&#45;c9cdf45621d4</title>
<polygon fill="black" stroke="black" points="3339.51,-355.2 3339.51,-396.8 3741.84,-396.8 3741.84,-355.2 3339.51,-355.2"/>
<text text-anchor="middle" x="3540.68" y="-380.2" font-family="Courier,monospace" font-weight="bold" font-size="14.00" fill="white">ohibc run 1 </text>
<text text-anchor="middle" x="3540.68" y="-363.4" font-family="Courier,monospace" font-weight="bold" font-size="14.00" fill="white"> urn:uuid:4fcd5da4&#45;67af&#45;4f8d&#45;ad36&#45;c9cdf45621d4</text>
</g>
<!-- 9c23639cf9ce610831cc57a78e88bd8ff8b67a46253aff39154b57b58ab60832 -->
<g id="node31" class="node"><title>9c23639cf9ce610831cc57a78e88bd8ff8b67a46253aff39154b57b58ab60832</title>
<path fill="#ffe4b5" stroke="black" d="M3789.84,-358C3789.84,-358 4235.37,-358 4235.37,-358 4241.37,-358 4247.37,-364 4247.37,-370 4247.37,-370 4247.37,-382 4247.37,-382 4247.37,-388 4241.37,-394 4235.37,-394 4235.37,-394 3789.84,-394 3789.84,-394 3783.84,-394 3777.84,-388 3777.84,-382 3777.84,-382 3777.84,-370 3777.84,-370 3777.84,-364 3783.84,-358 3789.84,-358"/>
<text text-anchor="middle" x="4012.61" y="-378.9" font-family="Courier,monospace" font-weight="bold" font-size="9.00">/Users/slaughter/git/OHI&#45;Science/ohibc/prep/lsp/vHS/output/area_protected_total.csv </text>
<text text-anchor="middle" x="4012.61" y="-368.1" font-family="Courier,monospace" font-weight="bold" font-size="9.00"> 9c23639cf9ce610831cc57a78e88bd8ff8b67a46253aff39154b57b58ab60832</text>
</g>
<!-- urn:uuid:4fcd5da4&#45;67af&#45;4f8d&#45;ad36&#45;c9cdf45621d4&#45;&gt;9c23639cf9ce610831cc57a78e88bd8ff8b67a46253aff39154b57b58ab60832 -->
<g id="edge30" class="edge"><title>urn:uuid:4fcd5da4&#45;67af&#45;4f8d&#45;ad36&#45;c9cdf45621d4&#45;&gt;9c23639cf9ce610831cc57a78e88bd8ff8b67a46253aff39154b57b58ab60832</title>
<path fill="none" stroke="black" d="M3741.99,-376C3750.51,-376 3759.1,-376 3767.7,-376"/>
<polygon fill="black" stroke="black" points="3767.8,-379.5 3777.8,-376 3767.8,-372.5 3767.8,-379.5"/>
</g>
<!-- urn:uuid:53ada2f7&#45;5e25&#45;4845&#45;883e&#45;1049a90c321c -->
<g id="node9" class="node"><title>urn:uuid:53ada2f7&#45;5e25&#45;4845&#45;883e&#45;1049a90c321c</title>
<polygon fill="black" stroke="black" points="4283.37,-355.2 4283.37,-396.8 4685.7,-396.8 4685.7,-355.2 4283.37,-355.2"/>
<text text-anchor="middle" x="4484.54" y="-380.2" font-family="Courier,monospace" font-weight="bold" font-size="14.00" fill="white">ohibc run 1 </text>
<text text-anchor="middle" x="4484.54" y="-363.4" font-family="Courier,monospace" font-weight="bold" font-size="14.00" fill="white"> urn:uuid:53ada2f7&#45;5e25&#45;4845&#45;883e&#45;1049a90c321c</text>
</g>
<!-- 510e09f1f3ef8fcbc38c43a40e1698cea99ebea15fd64a26339169ba6ce238fc -->
<g id="node33" class="node"><title>510e09f1f3ef8fcbc38c43a40e1698cea99ebea15fd64a26339169ba6ce238fc</title>
<path fill="#ffe4b5" stroke="black" d="M4733.7,-330C4733.7,-330 5125.24,-330 5125.24,-330 5131.24,-330 5137.24,-336 5137.24,-342 5137.24,-342 5137.24,-354 5137.24,-354 5137.24,-360 5131.24,-366 5125.24,-366 5125.24,-366 4733.7,-366 4733.7,-366 4727.7,-366 4721.7,-360 4721.7,-354 4721.7,-354 4721.7,-342 4721.7,-342 4721.7,-336 4727.7,-330 4733.7,-330"/>
<text text-anchor="middle" x="4929.47" y="-350.9" font-family="Courier,monospace" font-weight="bold" font-size="9.00">/Users/slaughter/git/OHI&#45;Science/ohibc/prep/lsp/vHS/output/lsp_status.csv </text>
<text text-anchor="middle" x="4929.47" y="-340.1" font-family="Courier,monospace" font-weight="bold" font-size="9.00"> 510e09f1f3ef8fcbc38c43a40e1698cea99ebea15fd64a26339169ba6ce238fc</text>
</g>
<!-- urn:uuid:53ada2f7&#45;5e25&#45;4845&#45;883e&#45;1049a90c321c&#45;&gt;510e09f1f3ef8fcbc38c43a40e1698cea99ebea15fd64a26339169ba6ce238fc -->
<g id="edge31" class="edge"><title>urn:uuid:53ada2f7&#45;5e25&#45;4845&#45;883e&#45;1049a90c321c&#45;&gt;510e09f1f3ef8fcbc38c43a40e1698cea99ebea15fd64a26339169ba6ce238fc</title>
<path fill="none" stroke="black" d="M4685.94,-363.331C4694.42,-362.795 4702.94,-362.257 4711.46,-361.718"/>
<polygon fill="black" stroke="black" points="4711.68,-365.211 4721.44,-361.087 4711.24,-358.225 4711.68,-365.211"/>
</g>
<!-- 97b9fe2837579bac75e964fe212402ba5ac595bb539bce4f7897be9cdcb55638 -->
<g id="node34" class="node"><title>97b9fe2837579bac75e964fe212402ba5ac595bb539bce4f7897be9cdcb55638</title>
<path fill="#ffe4b5" stroke="black" d="M4736.4,-385C4736.4,-385 5122.54,-385 5122.54,-385 5128.54,-385 5134.54,-391 5134.54,-397 5134.54,-397 5134.54,-409 5134.54,-409 5134.54,-415 5128.54,-421 5122.54,-421 5122.54,-421 4736.4,-421 4736.4,-421 4730.4,-421 4724.4,-415 4724.4,-409 4724.4,-409 4724.4,-397 4724.4,-397 4724.4,-391 4730.4,-385 4736.4,-385"/>
<text text-anchor="middle" x="4929.47" y="-405.9" font-family="Courier,monospace" font-weight="bold" font-size="9.00">/Users/slaughter/git/OHI&#45;Science/ohibc/prep/lsp/vHS/output/lsp_trend.csv </text>
<text text-anchor="middle" x="4929.47" y="-395.1" font-family="Courier,monospace" font-weight="bold" font-size="9.00"> 97b9fe2837579bac75e964fe212402ba5ac595bb539bce4f7897be9cdcb55638</text>
</g>
<!-- urn:uuid:53ada2f7&#45;5e25&#45;4845&#45;883e&#45;1049a90c321c&#45;&gt;97b9fe2837579bac75e964fe212402ba5ac595bb539bce4f7897be9cdcb55638 -->
<g id="edge32" class="edge"><title>urn:uuid:53ada2f7&#45;5e25&#45;4845&#45;883e&#45;1049a90c321c&#45;&gt;97b9fe2837579bac75e964fe212402ba5ac595bb539bce4f7897be9cdcb55638</title>
<path fill="none" stroke="black" d="M4685.94,-388.216C4695.28,-388.785 4704.67,-389.358 4714.04,-389.929"/>
<polygon fill="black" stroke="black" points="4714,-393.433 4724.2,-390.548 4714.43,-386.446 4714,-393.433"/>
</g>
<!-- 8a689270cfc3829ac7c9c36a933ecd6841c733362fff5f03ddf842e6e654abf4 -->
<g id="node10" class="node"><title>8a689270cfc3829ac7c9c36a933ecd6841c733362fff5f03ddf842e6e654abf4</title>
<path fill="#ffe4b5" stroke="black" d="M89.991,-575C89.991,-575 432.933,-575 432.933,-575 438.933,-575 444.933,-581 444.933,-587 444.933,-587 444.933,-599 444.933,-599 444.933,-605 438.933,-611 432.933,-611 432.933,-611 89.991,-611 89.991,-611 83.991,-611 77.991,-605 77.991,-599 77.991,-599 77.991,-587 77.991,-587 77.991,-581 83.991,-575 89.991,-575"/>
<text text-anchor="middle" x="261.462" y="-595.9" font-family="Courier,monospace" font-weight="bold" font-size="9.00">/Users/slaughter/git/OHI&#45;Science/ohibc/setup_BC_WDPA_polygons.R </text>
<text text-anchor="middle" x="261.462" y="-585.1" font-family="Courier,monospace" font-weight="bold" font-size="9.00"> 8a689270cfc3829ac7c9c36a933ecd6841c733362fff5f03ddf842e6e654abf4</text>
</g>
<!-- a28de43d5b8a2acc037764b9c0985a9b2f93bca28ab0f3ccdf1ed4af94a148ea -->
<g id="node11" class="node"><title>a28de43d5b8a2acc037764b9c0985a9b2f93bca28ab0f3ccdf1ed4af94a148ea</title>
<path fill="#ffe4b5" stroke="black" d="M46.7982,-520C46.7982,-520 476.125,-520 476.125,-520 482.125,-520 488.125,-526 488.125,-532 488.125,-532 488.125,-544 488.125,-544 488.125,-550 482.125,-556 476.125,-556 476.125,-556 46.7982,-556 46.7982,-556 40.7982,-556 34.7982,-550 34.7982,-544 34.7982,-544 34.7982,-532 34.7982,-532 34.7982,-526 40.7982,-520 46.7982,-520"/>
<text text-anchor="middle" x="261.462" y="-540.9" font-family="Courier,monospace" font-weight="bold" font-size="9.00">/Volumes/ohi/git&#45;annex/bcprep/_raw_data/databc/TA_PEP_SVW/TA_PEP_SVW_polygon.shp </text>
<text text-anchor="middle" x="261.462" y="-530.1" font-family="Courier,monospace" font-weight="bold" font-size="9.00"> a28de43d5b8a2acc037764b9c0985a9b2f93bca28ab0f3ccdf1ed4af94a148ea</text>
</g>
<!-- a28de43d5b8a2acc037764b9c0985a9b2f93bca28ab0f3ccdf1ed4af94a148ea&#45;&gt;urn:uuid:21be88bf&#45;e44e&#45;44c8&#45;bc98&#45;f08657fd1aa3 -->
<g id="edge1" class="edge"><title>a28de43d5b8a2acc037764b9c0985a9b2f93bca28ab0f3ccdf1ed4af94a148ea&#45;&gt;urn:uuid:21be88bf&#45;e44e&#45;44c8&#45;bc98&#45;f08657fd1aa3</title>
<path fill="none" stroke="black" d="M488.395,-540.868C500.447,-541.021 512.535,-541.175 524.533,-541.327"/>
<polygon fill="black" stroke="black" points="524.545,-544.827 534.588,-541.455 524.634,-537.828 524.545,-544.827"/>
</g>
<!-- b180f69b0af89e3d5f5deb6642e0dab4f60ab725febb4cc345c35c34dbb27bbc -->
<g id="node13" class="node"><title>b180f69b0af89e3d5f5deb6642e0dab4f60ab725febb4cc345c35c34dbb27bbc</title>
<path fill="#ffe4b5" stroke="black" d="M89.991,-465C89.991,-465 432.933,-465 432.933,-465 438.933,-465 444.933,-471 444.933,-477 444.933,-477 444.933,-489 444.933,-489 444.933,-495 438.933,-501 432.933,-501 432.933,-501 89.991,-501 89.991,-501 83.991,-501 77.991,-495 77.991,-489 77.991,-489 77.991,-477 77.991,-477 77.991,-471 83.991,-465 89.991,-465"/>
<text text-anchor="middle" x="261.462" y="-485.9" font-family="Courier,monospace" font-weight="bold" font-size="9.00">/Users/slaughter/git/OHI&#45;Science/ohibc/setup_BC_PEP_polygons.R </text>
<text text-anchor="middle" x="261.462" y="-475.1" font-family="Courier,monospace" font-weight="bold" font-size="9.00"> b180f69b0af89e3d5f5deb6642e0dab4f60ab725febb4cc345c35c34dbb27bbc</text>
</g>
<!-- d77ded5e2122bfb7ccdd9a65fae815516063a2249b3173f188e00dc850cefc9c -->
<g id="node14" class="node"><title>d77ded5e2122bfb7ccdd9a65fae815516063a2249b3173f188e00dc850cefc9c</title>
<path fill="#ffe4b5" stroke="black" d="M36,-410C36,-410 486.924,-410 486.924,-410 492.924,-410 498.924,-416 498.924,-422 498.924,-422 498.924,-434 498.924,-434 498.924,-440 492.924,-446 486.924,-446 486.924,-446 36,-446 36,-446 30,-446 24,-440 24,-434 24,-434 24,-422 24,-422 24,-416 30,-410 36,-410"/>
<text text-anchor="middle" x="261.462" y="-430.9" font-family="Courier,monospace" font-weight="bold" font-size="9.00">/Users/slaughter/git/OHI&#45;Science/ohibc/prep/spatial/raster/ohibc_rgn_raster_500m.tif </text>
<text text-anchor="middle" x="261.462" y="-420.1" font-family="Courier,monospace" font-weight="bold" font-size="9.00"> d77ded5e2122bfb7ccdd9a65fae815516063a2249b3173f188e00dc850cefc9c</text>
</g>
<!-- d77ded5e2122bfb7ccdd9a65fae815516063a2249b3173f188e00dc850cefc9c&#45;&gt;urn:uuid:98b5270a&#45;1577&#45;4865&#45;970f&#45;17c6b0065374 -->
<g id="edge2" class="edge"><title>d77ded5e2122bfb7ccdd9a65fae815516063a2249b3173f188e00dc850cefc9c&#45;&gt;urn:uuid:98b5270a&#45;1577&#45;4865&#45;970f&#45;17c6b0065374</title>
<path fill="none" stroke="black" d="M452.142,-409.963C468.038,-407.355 483.803,-404.384 498.923,-401 531.588,-393.691 610.966,-366.02 668.702,-345.255"/>
<polygon fill="black" stroke="black" points="669.912,-348.539 678.132,-341.856 667.538,-341.954 669.912,-348.539"/>
</g>
<!-- d77ded5e2122bfb7ccdd9a65fae815516063a2249b3173f188e00dc850cefc9c&#45;&gt;urn:uuid:3d6c8ed0&#45;83c0&#45;4b12&#45;9154&#45;2804f4317598 -->
<g id="edge3" class="edge"><title>d77ded5e2122bfb7ccdd9a65fae815516063a2249b3173f188e00dc850cefc9c&#45;&gt;urn:uuid:3d6c8ed0&#45;83c0&#45;4b12&#45;9154&#45;2804f4317598</title>
<path fill="none" stroke="black" d="M499.123,-424.996C507.564,-424.888 516.005,-424.781 524.401,-424.675"/>
<polygon fill="black" stroke="black" points="524.665,-428.172 534.619,-424.545 524.576,-421.172 524.665,-428.172"/>
</g>
<!-- d77ded5e2122bfb7ccdd9a65fae815516063a2249b3173f188e00dc850cefc9c&#45;&gt;urn:uuid:167b320e&#45;9143&#45;4084&#45;882e&#45;7d19914767c0 -->
<g id="edge4" class="edge"><title>d77ded5e2122bfb7ccdd9a65fae815516063a2249b3173f188e00dc850cefc9c&#45;&gt;urn:uuid:167b320e&#45;9143&#45;4084&#45;882e&#45;7d19914767c0</title>
<path fill="none" stroke="black" d="M417.218,-446.009C458.429,-450.805 503.411,-456.039 546.226,-461.022"/>
<polygon fill="black" stroke="black" points="545.852,-464.502 556.189,-462.181 546.661,-457.549 545.852,-464.502"/>
</g>
<!-- b03456556a5921cabea227978673e751441b2255f877cb183d4eeb1475105593&#45;&gt;urn:uuid:f5d6b763&#45;c953&#45;48f4&#45;9a39&#45;4a61f45bfdd3 -->
<g id="edge9" class="edge"><title>b03456556a5921cabea227978673e751441b2255f877cb183d4eeb1475105593&#45;&gt;urn:uuid:f5d6b763&#45;c953&#45;48f4&#45;9a39&#45;4a61f45bfdd3</title>
<path fill="none" stroke="black" d="M1433.43,-284.004C1451.28,-286.866 1469.01,-290.175 1485.98,-294 1547.77,-307.929 1615.86,-332.627 1662.99,-351.288"/>
<polygon fill="black" stroke="black" points="1661.84,-354.597 1672.42,-355.054 1664.43,-348.096 1661.84,-354.597"/>
</g>
<!-- 93cca45a93cbf195aac755354840087590d4788e06768d7db90481ef9b5d9bc3&#45;&gt;urn:uuid:f5d6b763&#45;c953&#45;48f4&#45;9a39&#45;4a61f45bfdd3 -->
<g id="edge8" class="edge"><title>93cca45a93cbf195aac755354840087590d4788e06768d7db90481ef9b5d9bc3&#45;&gt;urn:uuid:f5d6b763&#45;c953&#45;48f4&#45;9a39&#45;4a61f45bfdd3</title>
<path fill="none" stroke="black" d="M1395.81,-339.001C1425.82,-342.302 1456.83,-345.737 1485.98,-349 1500.53,-350.629 1515.58,-352.326 1530.72,-354.039"/>
<polygon fill="black" stroke="black" points="1530.34,-357.519 1540.67,-355.167 1531.13,-350.564 1530.34,-357.519"/>
</g>
<!-- b8a4bb7e5e3ea6733b390b6ec22f5db71f51b8ee4e980b44f8dfdf85e85c6fea -->
<g id="node17" class="node"><title>b8a4bb7e5e3ea6733b390b6ec22f5db71f51b8ee4e980b44f8dfdf85e85c6fea</title>
<path fill="#ffe4b5" stroke="black" d="M84.5919,-355C84.5919,-355 438.332,-355 438.332,-355 444.332,-355 450.332,-361 450.332,-367 450.332,-367 450.332,-379 450.332,-379 450.332,-385 444.332,-391 438.332,-391 438.332,-391 84.5919,-391 84.5919,-391 78.5919,-391 72.5919,-385 72.5919,-379 72.5919,-379 72.5919,-367 72.5919,-367 72.5919,-361 78.5919,-355 84.5919,-355"/>
<text text-anchor="middle" x="261.462" y="-375.9" font-family="Courier,monospace" font-weight="bold" font-size="9.00">/Users/slaughter/git/OHI&#45;Science/ohibc/rasterize_HS_WDPA_and_PEP.R </text>
<text text-anchor="middle" x="261.462" y="-365.1" font-family="Courier,monospace" font-weight="bold" font-size="9.00"> b8a4bb7e5e3ea6733b390b6ec22f5db71f51b8ee4e980b44f8dfdf85e85c6fea</text>
</g>
<!-- 85130403e425f79e80e52e3fcaa9c116f5cc0b01c4aa7ea4078c21c08d6ac2fd&#45;&gt;urn:uuid:f5d6b763&#45;c953&#45;48f4&#45;9a39&#45;4a61f45bfdd3 -->
<g id="edge6" class="edge"><title>85130403e425f79e80e52e3fcaa9c116f5cc0b01c4aa7ea4078c21c08d6ac2fd&#45;&gt;urn:uuid:f5d6b763&#45;c953&#45;48f4&#45;9a39&#45;4a61f45bfdd3</title>
<path fill="none" stroke="black" d="M1480.7,-376C1491.02,-376 1501.32,-376 1511.55,-376"/>
<polygon fill="black" stroke="black" points="1511.74,-379.5 1521.74,-376 1511.74,-372.5 1511.74,-379.5"/>
</g>
<!-- 5ba2c041bacec6ae9b550d578fb0667523ab9d610f043b13832a0ae6e2c84e10&#45;&gt;urn:uuid:f5d6b763&#45;c953&#45;48f4&#45;9a39&#45;4a61f45bfdd3 -->
<g id="edge5" class="edge"><title>5ba2c041bacec6ae9b550d578fb0667523ab9d610f043b13832a0ae6e2c84e10&#45;&gt;urn:uuid:f5d6b763&#45;c953&#45;48f4&#45;9a39&#45;4a61f45bfdd3</title>
<path fill="none" stroke="black" d="M1403.73,-412.996C1431.25,-410.048 1459.39,-406.981 1485.98,-404 1502.95,-402.096 1520.61,-400.076 1538.29,-398.027"/>
<polygon fill="black" stroke="black" points="1539.17,-401.449 1548.7,-396.818 1538.36,-394.496 1539.17,-401.449"/>
</g>
<!-- 88c01575b961fadd04a273a3cb635b3e65715c7acecb68f32c7ecb7de55c8156 -->
<g id="node20" class="node"><title>88c01575b961fadd04a273a3cb635b3e65715c7acecb68f32c7ecb7de55c8156</title>
<path fill="#ffe4b5" stroke="black" d="M89.991,-300C89.991,-300 432.933,-300 432.933,-300 438.933,-300 444.933,-306 444.933,-312 444.933,-312 444.933,-324 444.933,-324 444.933,-330 438.933,-336 432.933,-336 432.933,-336 89.991,-336 89.991,-336 83.991,-336 77.991,-330 77.991,-324 77.991,-324 77.991,-312 77.991,-312 77.991,-306 83.991,-300 89.991,-300"/>
<text text-anchor="middle" x="261.462" y="-320.9" font-family="Courier,monospace" font-weight="bold" font-size="9.00">/Users/slaughter/git/OHI&#45;Science/ohibc/get_analysis_rasters.R </text>
<text text-anchor="middle" x="261.462" y="-310.1" font-family="Courier,monospace" font-weight="bold" font-size="9.00"> 88c01575b961fadd04a273a3cb635b3e65715c7acecb68f32c7ecb7de55c8156</text>
</g>
<!-- 98c477e500188e52b2399aec3cc8d1cecefa6315c5ed6bf6f36f8252e7c6103c&#45;&gt;urn:uuid:f5d6b763&#45;c953&#45;48f4&#45;9a39&#45;4a61f45bfdd3 -->
<g id="edge7" class="edge"><title>98c477e500188e52b2399aec3cc8d1cecefa6315c5ed6bf6f36f8252e7c6103c&#45;&gt;urn:uuid:f5d6b763&#45;c953&#45;48f4&#45;9a39&#45;4a61f45bfdd3</title>
<path fill="none" stroke="black" d="M1439.27,-467.989C1455.15,-465.384 1470.86,-462.406 1485.98,-459 1548.25,-444.967 1616.81,-419.714 1663.94,-400.735"/>
<polygon fill="black" stroke="black" points="1665.42,-403.913 1673.37,-396.908 1662.79,-397.427 1665.42,-403.913"/>
</g>
<!-- 2a8983540582266b0540914b58d99c6c5401a9e91631df7ec7711c580b65337d -->
<g id="node22" class="node"><title>2a8983540582266b0540914b58d99c6c5401a9e91631df7ec7711c580b65337d</title>
<path fill="#ffe4b5" stroke="black" d="M89.991,-245C89.991,-245 432.933,-245 432.933,-245 438.933,-245 444.933,-251 444.933,-257 444.933,-257 444.933,-269 444.933,-269 444.933,-275 438.933,-281 432.933,-281 432.933,-281 89.991,-281 89.991,-281 83.991,-281 77.991,-275 77.991,-269 77.991,-269 77.991,-257 77.991,-257 77.991,-251 83.991,-245 89.991,-245"/>
<text text-anchor="middle" x="261.462" y="-265.9" font-family="Courier,monospace" font-weight="bold" font-size="9.00">/Users/slaughter/git/OHI&#45;Science/ohibc/setup_watershed_raster.R </text>
<text text-anchor="middle" x="261.462" y="-255.1" font-family="Courier,monospace" font-weight="bold" font-size="9.00"> 2a8983540582266b0540914b58d99c6c5401a9e91631df7ec7711c580b65337d</text>
</g>
<!-- e4f5dd01c6b2e03bbe67419aa6ea9c20d938478e5523a2b6dc057413f6db2bf5&#45;&gt;urn:uuid:53c74750&#45;d660&#45;479d&#45;8e59&#45;f54068835317 -->
<g id="edge10" class="edge"><title>e4f5dd01c6b2e03bbe67419aa6ea9c20d938478e5523a2b6dc057413f6db2bf5&#45;&gt;urn:uuid:53c74750&#45;d660&#45;479d&#45;8e59&#45;f54068835317</title>
<path fill="none" stroke="black" d="M2321.28,-339.009C2360.21,-343.785 2402.68,-348.995 2443.14,-353.959"/>
<polygon fill="black" stroke="black" points="2442.75,-357.437 2453.11,-355.181 2443.61,-350.489 2442.75,-357.437"/>
</g>
<!-- 1a8556ac0c8124864b109286a0d419b9213d0084cc831c813a5905e887c291a1&#45;&gt;urn:uuid:53c74750&#45;d660&#45;479d&#45;8e59&#45;f54068835317 -->
<g id="edge11" class="edge"><title>1a8556ac0c8124864b109286a0d419b9213d0084cc831c813a5905e887c291a1&#45;&gt;urn:uuid:53c74750&#45;d660&#45;479d&#45;8e59&#45;f54068835317</title>
<path fill="none" stroke="black" d="M2386.83,-376C2395.37,-376 2403.93,-376 2412.47,-376"/>
<polygon fill="black" stroke="black" points="2412.47,-379.5 2422.47,-376 2412.47,-372.5 2412.47,-379.5"/>
</g>
<!-- cf404cbfa31cc0f7f4a397632797d8aa416eb621a214569945c833594b16b3c3&#45;&gt;urn:uuid:53c74750&#45;d660&#45;479d&#45;8e59&#45;f54068835317 -->
<g id="edge12" class="edge"><title>cf404cbfa31cc0f7f4a397632797d8aa416eb621a214569945c833594b16b3c3&#45;&gt;urn:uuid:53c74750&#45;d660&#45;479d&#45;8e59&#45;f54068835317</title>
<path fill="none" stroke="black" d="M2321.28,-412.991C2360.21,-408.215 2402.68,-403.005 2443.14,-398.041"/>
<polygon fill="black" stroke="black" points="2443.61,-401.511 2453.11,-396.819 2442.75,-394.563 2443.61,-401.511"/>
</g>
<!-- fd6775e8a93f288199ffe3cef75ba46700937507f2a19762156a0d52bd22f014 -->
<g id="node26" class="node"><title>fd6775e8a93f288199ffe3cef75ba46700937507f2a19762156a0d52bd22f014</title>
<path fill="#ffe4b5" stroke="black" d="M89.991,-190C89.991,-190 432.933,-190 432.933,-190 438.933,-190 444.933,-196 444.933,-202 444.933,-202 444.933,-214 444.933,-214 444.933,-220 438.933,-226 432.933,-226 432.933,-226 89.991,-226 89.991,-226 83.991,-226 77.991,-220 77.991,-214 77.991,-214 77.991,-202 77.991,-202 77.991,-196 83.991,-190 89.991,-190"/>
<text text-anchor="middle" x="261.462" y="-210.9" font-family="Courier,monospace" font-weight="bold" font-size="9.00">/Users/slaughter/git/OHI&#45;Science/ohibc/lsp_zonal_stats.R </text>
<text text-anchor="middle" x="261.462" y="-200.1" font-family="Courier,monospace" font-weight="bold" font-size="9.00"> fd6775e8a93f288199ffe3cef75ba46700937507f2a19762156a0d52bd22f014</text>
</g>
<!-- bc918e73e8ffd7509cfd2f5173f4d13b17e620340a6ddae47c56f3b7697be7b1&#45;&gt;urn:uuid:4fcd5da4&#45;67af&#45;4f8d&#45;ad36&#45;c9cdf45621d4 -->
<g id="edge15" class="edge"><title>bc918e73e8ffd7509cfd2f5173f4d13b17e620340a6ddae47c56f3b7697be7b1&#45;&gt;urn:uuid:4fcd5da4&#45;67af&#45;4f8d&#45;ad36&#45;c9cdf45621d4</title>
<path fill="none" stroke="black" d="M3232.7,-339.009C3272.33,-343.785 3315.57,-348.995 3356.76,-353.959"/>
<polygon fill="black" stroke="black" points="3356.56,-357.46 3366.9,-355.181 3357.4,-350.51 3356.56,-357.46"/>
</g>
<!-- b2cba129ff4ce7c9e83c13b36dc3ff95ce18b4cb4784758b3e94478d4e999b09&#45;&gt;urn:uuid:4fcd5da4&#45;67af&#45;4f8d&#45;ad36&#45;c9cdf45621d4 -->
<g id="edge13" class="edge"><title>b2cba129ff4ce7c9e83c13b36dc3ff95ce18b4cb4784758b3e94478d4e999b09&#45;&gt;urn:uuid:4fcd5da4&#45;67af&#45;4f8d&#45;ad36&#45;c9cdf45621d4</title>
<path fill="none" stroke="black" d="M3303.77,-376C3312.19,-376 3320.63,-376 3329.03,-376"/>
<polygon fill="black" stroke="black" points="3329.26,-379.5 3339.26,-376 3329.26,-372.5 3329.26,-379.5"/>
</g>
<!-- d792e5fe1c3c98a24dde23e00895f627ab2c0a102f5852dcc4f02e2ba9dba1eb&#45;&gt;urn:uuid:4fcd5da4&#45;67af&#45;4f8d&#45;ad36&#45;c9cdf45621d4 -->
<g id="edge14" class="edge"><title>d792e5fe1c3c98a24dde23e00895f627ab2c0a102f5852dcc4f02e2ba9dba1eb&#45;&gt;urn:uuid:4fcd5da4&#45;67af&#45;4f8d&#45;ad36&#45;c9cdf45621d4</title>
<path fill="none" stroke="black" d="M3232.7,-412.991C3272.33,-408.215 3315.57,-403.005 3356.76,-398.041"/>
<polygon fill="black" stroke="black" points="3357.4,-401.49 3366.9,-396.819 3356.56,-394.54 3357.4,-401.49"/>
</g>
<!-- 6cf41c1678afc138580015e26c0fb1716d70f3271fb5063fbe8c3e5d70209121 -->
<g id="node30" class="node"><title>6cf41c1678afc138580015e26c0fb1716d70f3271fb5063fbe8c3e5d70209121</title>
<path fill="#ffe4b5" stroke="black" d="M89.991,-135C89.991,-135 432.933,-135 432.933,-135 438.933,-135 444.933,-141 444.933,-147 444.933,-147 444.933,-159 444.933,-159 444.933,-165 438.933,-171 432.933,-171 432.933,-171 89.991,-171 89.991,-171 83.991,-171 77.991,-165 77.991,-159 77.991,-159 77.991,-147 77.991,-147 77.991,-141 83.991,-135 89.991,-135"/>
<text text-anchor="middle" x="261.462" y="-155.9" font-family="Courier,monospace" font-weight="bold" font-size="9.00">/Users/slaughter/git/OHI&#45;Science/ohibc/summarize_zonal_stats.R </text>
<text text-anchor="middle" x="261.462" y="-145.1" font-family="Courier,monospace" font-weight="bold" font-size="9.00"> 6cf41c1678afc138580015e26c0fb1716d70f3271fb5063fbe8c3e5d70209121</text>
</g>
<!-- 9c23639cf9ce610831cc57a78e88bd8ff8b67a46253aff39154b57b58ab60832&#45;&gt;urn:uuid:53ada2f7&#45;5e25&#45;4845&#45;883e&#45;1049a90c321c -->
<g id="edge16" class="edge"><title>9c23639cf9ce610831cc57a78e88bd8ff8b67a46253aff39154b57b58ab60832&#45;&gt;urn:uuid:53ada2f7&#45;5e25&#45;4845&#45;883e&#45;1049a90c321c</title>
<path fill="none" stroke="black" d="M4247.54,-369.25C4256.14,-369.249 4264.74,-369.26 4273.3,-369.283"/>
<polygon fill="black" stroke="black" points="4273.31,-372.783 4283.32,-369.316 4273.34,-365.783 4273.31,-372.783"/>
</g>
<!-- 9c23639cf9ce610831cc57a78e88bd8ff8b67a46253aff39154b57b58ab60832&#45;&gt;urn:uuid:53ada2f7&#45;5e25&#45;4845&#45;883e&#45;1049a90c321c -->
<g id="edge17" class="edge"><title>9c23639cf9ce610831cc57a78e88bd8ff8b67a46253aff39154b57b58ab60832&#45;&gt;urn:uuid:53ada2f7&#45;5e25&#45;4845&#45;883e&#45;1049a90c321c</title>
<path fill="none" stroke="black" d="M4247.54,-382.75C4256.14,-382.751 4264.74,-382.74 4273.3,-382.717"/>
<polygon fill="black" stroke="black" points="4273.34,-386.217 4283.32,-382.684 4273.31,-379.217 4273.34,-386.217"/>
</g>
<!-- 0e75940c84b53cd448b4808cd5447285db7ad7bb4f693f92807f558152f078ff -->
<g id="node32" class="node"><title>0e75940c84b53cd448b4808cd5447285db7ad7bb4f693f92807f558152f078ff</title>
<path fill="#ffe4b5" stroke="black" d="M79.1928,-80C79.1928,-80 443.731,-80 443.731,-80 449.731,-80 455.731,-86 455.731,-92 455.731,-92 455.731,-104 455.731,-104 455.731,-110 449.731,-116 443.731,-116 443.731,-116 79.1928,-116 79.1928,-116 73.1928,-116 67.1928,-110 67.1928,-104 67.1928,-104 67.1928,-92 67.1928,-92 67.1928,-86 73.1928,-80 79.1928,-80"/>
<text text-anchor="middle" x="261.462" y="-100.9" font-family="Courier,monospace" font-weight="bold" font-size="9.00">/Users/slaughter/git/OHI&#45;Science/ohibc/combine_inland_and_offshore.R </text>
<text text-anchor="middle" x="261.462" y="-90.1" font-family="Courier,monospace" font-weight="bold" font-size="9.00"> 0e75940c84b53cd448b4808cd5447285db7ad7bb4f693f92807f558152f078ff</text>
</g>
<!-- b47657caafff8865789b1604c4a15642d2fd561195e22e2f9ee287212ff94680 -->
<g id="node35" class="node"><title>b47657caafff8865789b1604c4a15642d2fd561195e22e2f9ee287212ff94680</title>
<path fill="#ffe4b5" stroke="black" d="M62.9955,-25C62.9955,-25 459.928,-25 459.928,-25 465.928,-25 471.928,-31 471.928,-37 471.928,-37 471.928,-49 471.928,-49 471.928,-55 465.928,-61 459.928,-61 459.928,-61 62.9955,-61 62.9955,-61 56.9955,-61 50.9955,-55 50.9955,-49 50.9955,-49 50.9955,-37 50.9955,-37 50.9955,-31 56.9955,-25 62.9955,-25"/>
<text text-anchor="middle" x="261.462" y="-45.9" font-family="Courier,monospace" font-weight="bold" font-size="9.00">/Users/slaughter/git/OHI&#45;Science/ohibc/estimate_status_and_trend_by_year.R </text>
<text text-anchor="middle" x="261.462" y="-35.1" font-family="Courier,monospace" font-weight="bold" font-size="9.00"> b47657caafff8865789b1604c4a15642d2fd561195e22e2f9ee287212ff94680</text>
</g>
</g>
</svg>
