<?xml version="1.0" encoding="UTF-8" standalone="no"?>
<!DOCTYPE svg PUBLIC "-//W3C//DTD SVG 1.1//EN"
 "http://www.w3.org/Graphics/SVG/1.1/DTD/svg11.dtd">
<!-- Generated by graphviz version 2.38.0 (20140413.2041)
 -->
<!-- Title: Workflow Pages: 1 -->
<svg width="299pt" height="266pt"
 viewBox="0.00 0.00 299.05 265.60" xmlns="http://www.w3.org/2000/svg" xmlns:xlink="http://www.w3.org/1999/xlink">
<g id="graph0" class="graph" transform="scale(1 1) rotate(0) translate(4 261.6)">
<title>Workflow</title>
<polygon fill="white" stroke="none" points="-4,4 -4,-261.6 295.049,-261.6 295.049,4 -4,4"/>
<text text-anchor="middle" x="145.524" y="-237.4" font-family="Helvetica,sans-Serif" font-size="18.00">C3_C4_examine_pixels_for_grass</text>
<g id="clust1" class="cluster"><title>cluster_workflow_box_outer</title>
<polygon fill="none" stroke="black" stroke-width="2" points="32.5245,-8 32.5245,-220 258.524,-220 258.524,-8 32.5245,-8"/>
</g>
<g id="clust2" class="cluster"><title>cluster_workflow_box_inner</title>
<polygon fill="none" stroke="black" stroke-width="0" points="40.5245,-16 40.5245,-212 250.524,-212 250.524,-16 40.5245,-16"/>
</g>
<!-- examine_pixels_for_grass -->
<g id="node1" class="node"><title>examine_pixels_for_grass</title>
<polygon fill="#ccffcc" stroke="black" points="234.608,-132 56.4406,-132 56.4406,-96 234.608,-96 234.608,-132"/>
<text text-anchor="middle" x="145.524" y="-109.8" font-family="Helvetica,sans-Serif" font-size="14.00">examine_pixels_for_grass</text>
</g>
<!-- C3_Data -->
<g id="node4" class="node"><title>C3_Data</title>
<path fill="#ffffcc" stroke="black" d="M124.259,-60C124.259,-60 76.7899,-60 76.7899,-60 70.7899,-60 64.7899,-54 64.7899,-48 64.7899,-48 64.7899,-36 64.7899,-36 64.7899,-30 70.7899,-24 76.7899,-24 76.7899,-24 124.259,-24 124.259,-24 130.259,-24 136.259,-30 136.259,-36 136.259,-36 136.259,-48 136.259,-48 136.259,-54 130.259,-60 124.259,-60"/>
<text text-anchor="middle" x="100.524" y="-37.8" font-family="Helvetica,sans-Serif" font-size="14.00">C3_Data</text>
</g>
<!-- examine_pixels_for_grass&#45;&gt;C3_Data -->
<g id="edge1" class="edge"><title>examine_pixels_for_grass&#45;&gt;C3_Data</title>
<path fill="none" stroke="black" d="M134.401,-95.6966C129.169,-87.5589 122.825,-77.689 117.047,-68.7013"/>
<polygon fill="black" stroke="black" points="119.872,-66.6235 111.52,-60.1043 113.984,-70.4088 119.872,-66.6235"/>
</g>
<!-- C4_Data -->
<g id="node5" class="node"><title>C4_Data</title>
<path fill="#ffffcc" stroke="black" d="M213.259,-60C213.259,-60 165.79,-60 165.79,-60 159.79,-60 153.79,-54 153.79,-48 153.79,-48 153.79,-36 153.79,-36 153.79,-30 159.79,-24 165.79,-24 165.79,-24 213.259,-24 213.259,-24 219.259,-24 225.259,-30 225.259,-36 225.259,-36 225.259,-48 225.259,-48 225.259,-54 219.259,-60 213.259,-60"/>
<text text-anchor="middle" x="189.524" y="-37.8" font-family="Helvetica,sans-Serif" font-size="14.00">C4_Data</text>
</g>
<!-- examine_pixels_for_grass&#45;&gt;C4_Data -->
<g id="edge2" class="edge"><title>examine_pixels_for_grass&#45;&gt;C4_Data</title>
<path fill="none" stroke="black" d="M156.401,-95.6966C161.516,-87.5589 167.72,-77.689 173.369,-68.7013"/>
<polygon fill="black" stroke="black" points="176.415,-70.4333 178.773,-60.1043 170.488,-66.7081 176.415,-70.4333"/>
</g>
<!-- Tair_Matrix -->
<g id="node2" class="node"><title>Tair_Matrix</title>
<path fill="#ffffcc" stroke="black" d="M230.511,-204C230.511,-204 168.538,-204 168.538,-204 162.538,-204 156.538,-198 156.538,-192 156.538,-192 156.538,-180 156.538,-180 156.538,-174 162.538,-168 168.538,-168 168.538,-168 230.511,-168 230.511,-168 236.511,-168 242.511,-174 242.511,-180 242.511,-180 242.511,-192 242.511,-192 242.511,-198 236.511,-204 230.511,-204"/>
<text text-anchor="middle" x="199.524" y="-181.8" font-family="Helvetica,sans-Serif" font-size="14.00">Tair_Matrix</text>
</g>
<!-- Tair_Matrix&#45;&gt;examine_pixels_for_grass -->
<g id="edge3" class="edge"><title>Tair_Matrix&#45;&gt;examine_pixels_for_grass</title>
<path fill="none" stroke="black" d="M186.176,-167.697C179.768,-159.389 171.967,-149.277 164.919,-140.141"/>
<polygon fill="black" stroke="black" points="167.599,-137.884 158.719,-132.104 162.056,-142.16 167.599,-137.884"/>
</g>
<!-- Rain_Matrix -->
<g id="node3" class="node"><title>Rain_Matrix</title>
<path fill="#ffffcc" stroke="black" d="M126.687,-204C126.687,-204 60.3619,-204 60.3619,-204 54.3619,-204 48.3619,-198 48.3619,-192 48.3619,-192 48.3619,-180 48.3619,-180 48.3619,-174 54.3619,-168 60.3619,-168 60.3619,-168 126.687,-168 126.687,-168 132.687,-168 138.687,-174 138.687,-180 138.687,-180 138.687,-192 138.687,-192 138.687,-198 132.687,-204 126.687,-204"/>
<text text-anchor="middle" x="93.5245" y="-181.8" font-family="Helvetica,sans-Serif" font-size="14.00">Rain_Matrix</text>
</g>
<!-- Rain_Matrix&#45;&gt;examine_pixels_for_grass -->
<g id="edge4" class="edge"><title>Rain_Matrix&#45;&gt;examine_pixels_for_grass</title>
<path fill="none" stroke="black" d="M106.378,-167.697C112.55,-159.389 120.062,-149.277 126.849,-140.141"/>
<polygon fill="black" stroke="black" points="129.665,-142.219 132.818,-132.104 124.046,-138.045 129.665,-142.219"/>
</g>
</g>
</svg>
