<?xml version="1.0" encoding="UTF-8" standalone="no"?>
<!DOCTYPE svg PUBLIC "-//W3C//DTD SVG 1.1//EN"
 "http://www.w3.org/Graphics/SVG/1.1/DTD/svg11.dtd">
<!-- Generated by graphviz version 2.38.0 (20140413.2041)
 -->
<!-- Title: Workflow Pages: 1 -->
<svg width="1724pt" height="306pt"
 viewBox="0.00 0.00 1724.00 306.20" xmlns="http://www.w3.org/2000/svg" xmlns:xlink="http://www.w3.org/1999/xlink">
<g id="graph0" class="graph" transform="scale(1 1) rotate(0) translate(4 302.2)">
<title>Workflow</title>
<polygon fill="white" stroke="none" points="-4,4 -4,-302.2 1720,-302.2 1720,4 -4,4"/>
<text text-anchor="middle" x="858" y="-278" font-family="Helvetica,sans-Serif" font-size="18.00">C3_C4_prepare_step</text>
<g id="clust1" class="cluster"><title>cluster_workflow_box_outer</title>
<polygon fill="none" stroke="black" stroke-width="2" points="8,-8 8,-234.6 1708,-234.6 1708,-8 8,-8"/>
</g>
<g id="clust2" class="cluster"><title>cluster_workflow_box_inner</title>
<polygon fill="none" stroke="black" stroke-width="0" points="16,-16 16,-226.6 1700,-226.6 1700,-16 16,-16"/>
</g>
<!-- fetch_SYNMAP_land_cover_map_variable -->
<g id="node1" class="node"><title>fetch_SYNMAP_land_cover_map_variable</title>
<polygon fill="#ccffcc" stroke="black" points="318.783,-132 37.2167,-132 37.2167,-96 318.783,-96 318.783,-132"/>
<text text-anchor="middle" x="178" y="-109.8" font-family="Helvetica,sans-Serif" font-size="14.00">fetch_SYNMAP_land_cover_map_variable</text>
</g>
<!-- lon_variable -->
<g id="node8" class="node"><title>lon_variable</title>
<path fill="#fcfcfc" stroke="black" d="M103.96,-60C103.96,-60 36.0402,-60 36.0402,-60 30.0402,-60 24.0402,-54 24.0402,-48 24.0402,-48 24.0402,-36 24.0402,-36 24.0402,-30 30.0402,-24 36.0402,-24 36.0402,-24 103.96,-24 103.96,-24 109.96,-24 115.96,-30 115.96,-36 115.96,-36 115.96,-48 115.96,-48 115.96,-54 109.96,-60 103.96,-60"/>
<text text-anchor="middle" x="70" y="-37.8" font-family="Helvetica,sans-Serif" font-size="14.00">lon_variable</text>
</g>
<!-- fetch_SYNMAP_land_cover_map_variable&#45;&gt;lon_variable -->
<g id="edge1" class="edge"><title>fetch_SYNMAP_land_cover_map_variable&#45;&gt;lon_variable</title>
<path fill="none" stroke="black" d="M151.58,-95.8761C137.59,-86.8083 120.224,-75.5523 105.114,-65.7592"/>
<polygon fill="black" stroke="black" points="106.817,-62.6917 96.5213,-60.1898 103.009,-68.5658 106.817,-62.6917"/>
</g>
<!-- lat_variable -->
<g id="node9" class="node"><title>lat_variable</title>
<path fill="#fcfcfc" stroke="black" d="M209.568,-60C209.568,-60 146.432,-60 146.432,-60 140.432,-60 134.432,-54 134.432,-48 134.432,-48 134.432,-36 134.432,-36 134.432,-30 140.432,-24 146.432,-24 146.432,-24 209.568,-24 209.568,-24 215.568,-24 221.568,-30 221.568,-36 221.568,-36 221.568,-48 221.568,-48 221.568,-54 215.568,-60 209.568,-60"/>
<text text-anchor="middle" x="178" y="-37.8" font-family="Helvetica,sans-Serif" font-size="14.00">lat_variable</text>
</g>
<!-- fetch_SYNMAP_land_cover_map_variable&#45;&gt;lat_variable -->
<g id="edge2" class="edge"><title>fetch_SYNMAP_land_cover_map_variable&#45;&gt;lat_variable</title>
<path fill="none" stroke="black" d="M178,-95.6966C178,-87.9827 178,-78.7125 178,-70.1124"/>
<polygon fill="black" stroke="black" points="181.5,-70.1043 178,-60.1043 174.5,-70.1044 181.5,-70.1043"/>
</g>
<!-- lon_bnds_variable -->
<g id="node10" class="node"><title>lon_bnds_variable</title>
<path fill="#fcfcfc" stroke="black" d="M357.59,-60C357.59,-60 252.41,-60 252.41,-60 246.41,-60 240.41,-54 240.41,-48 240.41,-48 240.41,-36 240.41,-36 240.41,-30 246.41,-24 252.41,-24 252.41,-24 357.59,-24 357.59,-24 363.59,-24 369.59,-30 369.59,-36 369.59,-36 369.59,-48 369.59,-48 369.59,-54 363.59,-60 357.59,-60"/>
<text text-anchor="middle" x="305" y="-37.8" font-family="Helvetica,sans-Serif" font-size="14.00">lon_bnds_variable</text>
</g>
<!-- fetch_SYNMAP_land_cover_map_variable&#45;&gt;lon_bnds_variable -->
<g id="edge3" class="edge"><title>fetch_SYNMAP_land_cover_map_variable&#45;&gt;lon_bnds_variable</title>
<path fill="none" stroke="black" d="M209.068,-95.8761C225.827,-86.6388 246.706,-75.1308 264.702,-65.2116"/>
<polygon fill="black" stroke="black" points="266.745,-68.0822 273.813,-60.1898 263.366,-61.9517 266.745,-68.0822"/>
</g>
<!-- lat_bnds_variable -->
<g id="node11" class="node"><title>lat_bnds_variable</title>
<path fill="#fcfcfc" stroke="black" d="M501.697,-60C501.697,-60 400.303,-60 400.303,-60 394.303,-60 388.303,-54 388.303,-48 388.303,-48 388.303,-36 388.303,-36 388.303,-30 394.303,-24 400.303,-24 400.303,-24 501.697,-24 501.697,-24 507.697,-24 513.697,-30 513.697,-36 513.697,-36 513.697,-48 513.697,-48 513.697,-54 507.697,-60 501.697,-60"/>
<text text-anchor="middle" x="451" y="-37.8" font-family="Helvetica,sans-Serif" font-size="14.00">lat_bnds_variable</text>
</g>
<!-- fetch_SYNMAP_land_cover_map_variable&#45;&gt;lat_bnds_variable -->
<g id="edge4" class="edge"><title>fetch_SYNMAP_land_cover_map_variable&#45;&gt;lat_bnds_variable</title>
<path fill="none" stroke="black" d="M244.434,-95.9656C284.908,-85.5876 336.658,-72.3184 378.235,-61.6576"/>
<polygon fill="black" stroke="black" points="379.21,-65.0209 388.028,-59.1468 377.472,-58.2403 379.21,-65.0209"/>
</g>
<!-- fetch_monthly_mean_air_temperature_data -->
<g id="node2" class="node"><title>fetch_monthly_mean_air_temperature_data</title>
<polygon fill="#ccffcc" stroke="black" points="736.521,-132 449.479,-132 449.479,-96 736.521,-96 736.521,-132"/>
<text text-anchor="middle" x="593" y="-109.8" font-family="Helvetica,sans-Serif" font-size="14.00">fetch_monthly_mean_air_temperature_data</text>
</g>
<!-- Tair_Matrix -->
<g id="node12" class="node"><title>Tair_Matrix</title>
<path fill="#fcfcfc" stroke="black" d="M623.986,-60C623.986,-60 562.014,-60 562.014,-60 556.014,-60 550.014,-54 550.014,-48 550.014,-48 550.014,-36 550.014,-36 550.014,-30 556.014,-24 562.014,-24 562.014,-24 623.986,-24 623.986,-24 629.986,-24 635.986,-30 635.986,-36 635.986,-36 635.986,-48 635.986,-48 635.986,-54 629.986,-60 623.986,-60"/>
<text text-anchor="middle" x="593" y="-37.8" font-family="Helvetica,sans-Serif" font-size="14.00">Tair_Matrix</text>
</g>
<!-- fetch_monthly_mean_air_temperature_data&#45;&gt;Tair_Matrix -->
<g id="edge6" class="edge"><title>fetch_monthly_mean_air_temperature_data&#45;&gt;Tair_Matrix</title>
<path fill="none" stroke="black" d="M593,-95.6966C593,-87.9827 593,-78.7125 593,-70.1124"/>
<polygon fill="black" stroke="black" points="596.5,-70.1043 593,-60.1043 589.5,-70.1044 596.5,-70.1043"/>
</g>
<!-- fetch_monthly_mean_precipitation_data -->
<g id="node3" class="node"><title>fetch_monthly_mean_precipitation_data</title>
<polygon fill="#ccffcc" stroke="black" points="1340.19,-132 1075.81,-132 1075.81,-96 1340.19,-96 1340.19,-132"/>
<text text-anchor="middle" x="1208" y="-109.8" font-family="Helvetica,sans-Serif" font-size="14.00">fetch_monthly_mean_precipitation_data</text>
</g>
<!-- Rain_Matrix -->
<g id="node13" class="node"><title>Rain_Matrix</title>
<path fill="#fcfcfc" stroke="black" d="M1241.16,-60C1241.16,-60 1174.84,-60 1174.84,-60 1168.84,-60 1162.84,-54 1162.84,-48 1162.84,-48 1162.84,-36 1162.84,-36 1162.84,-30 1168.84,-24 1174.84,-24 1174.84,-24 1241.16,-24 1241.16,-24 1247.16,-24 1253.16,-30 1253.16,-36 1253.16,-36 1253.16,-48 1253.16,-48 1253.16,-54 1247.16,-60 1241.16,-60"/>
<text text-anchor="middle" x="1208" y="-37.8" font-family="Helvetica,sans-Serif" font-size="14.00">Rain_Matrix</text>
</g>
<!-- fetch_monthly_mean_precipitation_data&#45;&gt;Rain_Matrix -->
<g id="edge8" class="edge"><title>fetch_monthly_mean_precipitation_data&#45;&gt;Rain_Matrix</title>
<path fill="none" stroke="black" d="M1208,-95.6966C1208,-87.9827 1208,-78.7125 1208,-70.1124"/>
<polygon fill="black" stroke="black" points="1211.5,-70.1043 1208,-60.1043 1204.5,-70.1044 1211.5,-70.1043"/>
</g>
<!-- initialize_Grass_Matrix -->
<g id="node4" class="node"><title>initialize_Grass_Matrix</title>
<polygon fill="#ccffcc" stroke="black" points="1692.27,-211.3 1535.73,-211.3 1535.73,-175.3 1692.27,-175.3 1692.27,-211.3"/>
<text text-anchor="middle" x="1614" y="-189.1" font-family="Helvetica,sans-Serif" font-size="14.00">initialize_Grass_Matrix</text>
</g>
<!-- Grass_variable -->
<g id="node14" class="node"><title>Grass_variable</title>
<path fill="#fcfcfc" stroke="black" d="M1657.12,-132C1657.12,-132 1570.88,-132 1570.88,-132 1564.88,-132 1558.88,-126 1558.88,-120 1558.88,-120 1558.88,-108 1558.88,-108 1558.88,-102 1564.88,-96 1570.88,-96 1570.88,-96 1657.12,-96 1657.12,-96 1663.12,-96 1669.12,-102 1669.12,-108 1669.12,-108 1669.12,-120 1669.12,-120 1669.12,-126 1663.12,-132 1657.12,-132"/>
<text text-anchor="middle" x="1614" y="-109.8" font-family="Helvetica,sans-Serif" font-size="14.00">Grass_variable</text>
</g>
<!-- initialize_Grass_Matrix&#45;&gt;Grass_variable -->
<g id="edge10" class="edge"><title>initialize_Grass_Matrix&#45;&gt;Grass_variable</title>
<path fill="none" stroke="black" d="M1614,-175.145C1614,-165.537 1614,-153.332 1614,-142.43"/>
<polygon fill="black" stroke="black" points="1617.5,-142.107 1614,-132.107 1610.5,-142.107 1617.5,-142.107"/>
</g>
<!-- SYNMAP_land_cover_map_data -->
<g id="node5" class="node"><title>SYNMAP_land_cover_map_data</title>
<path fill="#ffffcc" stroke="black" d="M36.3093,-168.5C36.3093,-168.5 275.691,-168.5 275.691,-168.5 281.691,-168.5 287.691,-174.5 287.691,-180.5 287.691,-180.5 287.691,-206.1 287.691,-206.1 287.691,-212.1 281.691,-218.1 275.691,-218.1 275.691,-218.1 36.3093,-218.1 36.3093,-218.1 30.3093,-218.1 24.3093,-212.1 24.3093,-206.1 24.3093,-206.1 24.3093,-180.5 24.3093,-180.5 24.3093,-174.5 30.3093,-168.5 36.3093,-168.5"/>
<text text-anchor="middle" x="156" y="-201.5" font-family="Helvetica,sans-Serif" font-size="14.00">SYNMAP_land_cover_map_data</text>
<polyline fill="none" stroke="black" points="24.3093,-193.3 287.691,-193.3 "/>
<text text-anchor="middle" x="156" y="-176.7" font-family="Helvetica,sans-Serif" font-size="14.00">inputs/land_cover/SYNMAP_NA_QD.nc</text>
</g>
<!-- SYNMAP_land_cover_map_data&#45;&gt;fetch_SYNMAP_land_cover_map_variable -->
<g id="edge5" class="edge"><title>SYNMAP_land_cover_map_data&#45;&gt;fetch_SYNMAP_land_cover_map_variable</title>
<path fill="none" stroke="black" d="M162.84,-168.266C165.208,-159.947 167.877,-150.57 170.308,-142.028"/>
<polygon fill="black" stroke="black" points="173.748,-142.726 173.119,-132.149 167.015,-140.809 173.748,-142.726"/>
</g>
<!-- mean_airtemp -->
<g id="node6" class="node"><title>mean_airtemp</title>
<path fill="#ffffcc" stroke="black" d="M317.314,-168.5C317.314,-168.5 868.686,-168.5 868.686,-168.5 874.686,-168.5 880.686,-174.5 880.686,-180.5 880.686,-180.5 880.686,-206.1 880.686,-206.1 880.686,-212.1 874.686,-218.1 868.686,-218.1 868.686,-218.1 317.314,-218.1 317.314,-218.1 311.314,-218.1 305.314,-212.1 305.314,-206.1 305.314,-206.1 305.314,-180.5 305.314,-180.5 305.314,-174.5 311.314,-168.5 317.314,-168.5"/>
<text text-anchor="middle" x="593" y="-201.5" font-family="Helvetica,sans-Serif" font-size="14.00">mean_airtemp</text>
<polyline fill="none" stroke="black" points="305.314,-193.3 880.686,-193.3 "/>
<text text-anchor="middle" x="593" y="-176.7" font-family="Helvetica,sans-Serif" font-size="14.00">file:inputs/narr_air.2m_monthly/air.2m_monthly_{start_year}_{end_year}_mean.{month}.nc</text>
</g>
<!-- mean_airtemp&#45;&gt;fetch_monthly_mean_air_temperature_data -->
<g id="edge7" class="edge"><title>mean_airtemp&#45;&gt;fetch_monthly_mean_air_temperature_data</title>
<path fill="none" stroke="black" d="M593,-168.266C593,-160.039 593,-150.776 593,-142.309"/>
<polygon fill="black" stroke="black" points="596.5,-142.149 593,-132.149 589.5,-142.149 596.5,-142.149"/>
</g>
<!-- mean_precip -->
<g id="node7" class="node"><title>mean_precip</title>
<path fill="#ffffcc" stroke="black" d="M910.51,-168.5C910.51,-168.5 1505.49,-168.5 1505.49,-168.5 1511.49,-168.5 1517.49,-174.5 1517.49,-180.5 1517.49,-180.5 1517.49,-206.1 1517.49,-206.1 1517.49,-212.1 1511.49,-218.1 1505.49,-218.1 1505.49,-218.1 910.51,-218.1 910.51,-218.1 904.51,-218.1 898.51,-212.1 898.51,-206.1 898.51,-206.1 898.51,-180.5 898.51,-180.5 898.51,-174.5 904.51,-168.5 910.51,-168.5"/>
<text text-anchor="middle" x="1208" y="-201.5" font-family="Helvetica,sans-Serif" font-size="14.00">mean_precip</text>
<polyline fill="none" stroke="black" points="898.51,-193.3 1517.49,-193.3 "/>
<text text-anchor="middle" x="1208" y="-176.7" font-family="Helvetica,sans-Serif" font-size="14.00">file:inputs/narr_apcp_rescaled_monthly/apcp_monthly_{start_year}_{end_year}_mean.{month}.nc</text>
</g>
<!-- mean_precip&#45;&gt;fetch_monthly_mean_precipitation_data -->
<g id="edge9" class="edge"><title>mean_precip&#45;&gt;fetch_monthly_mean_precipitation_data</title>
<path fill="none" stroke="black" d="M1208,-168.266C1208,-160.039 1208,-150.776 1208,-142.309"/>
<polygon fill="black" stroke="black" points="1211.5,-142.149 1208,-132.149 1204.5,-142.149 1211.5,-142.149"/>
</g>
<!-- SYNMAP_land_cover_map_data_input_port -->
<g id="node15" class="node"><title>SYNMAP_land_cover_map_data_input_port</title>
<ellipse fill="#ffffff" stroke="black" cx="156" cy="-261.6" rx="7" ry="7"/>
</g>
<!-- SYNMAP_land_cover_map_data_input_port&#45;&gt;SYNMAP_land_cover_map_data -->
<g id="edge11" class="edge"><title>SYNMAP_land_cover_map_data_input_port&#45;&gt;SYNMAP_land_cover_map_data</title>
<path fill="none" stroke="black" d="M156,-254.481C156,-248.391 156,-238.533 156,-228.542"/>
<polygon fill="black" stroke="black" points="159.5,-228.236 156,-218.236 152.5,-228.236 159.5,-228.236"/>
</g>
<!-- mean_airtemp_input_port -->
<g id="node16" class="node"><title>mean_airtemp_input_port</title>
<ellipse fill="#ffffff" stroke="black" cx="593" cy="-261.6" rx="7" ry="7"/>
</g>
<!-- mean_airtemp_input_port&#45;&gt;mean_airtemp -->
<g id="edge12" class="edge"><title>mean_airtemp_input_port&#45;&gt;mean_airtemp</title>
<path fill="none" stroke="black" d="M593,-254.481C593,-248.391 593,-238.533 593,-228.542"/>
<polygon fill="black" stroke="black" points="596.5,-228.236 593,-218.236 589.5,-228.236 596.5,-228.236"/>
</g>
<!-- mean_precip_input_port -->
<g id="node17" class="node"><title>mean_precip_input_port</title>
<ellipse fill="#ffffff" stroke="black" cx="1208" cy="-261.6" rx="7" ry="7"/>
</g>
<!-- mean_precip_input_port&#45;&gt;mean_precip -->
<g id="edge13" class="edge"><title>mean_precip_input_port&#45;&gt;mean_precip</title>
<path fill="none" stroke="black" d="M1208,-254.481C1208,-248.391 1208,-238.533 1208,-228.542"/>
<polygon fill="black" stroke="black" points="1211.5,-228.236 1208,-218.236 1204.5,-228.236 1211.5,-228.236"/>
</g>
</g>
</svg>
