<?xml version="1.0" encoding="UTF-8" standalone="no"?>
<!DOCTYPE svg PUBLIC "-//W3C//DTD SVG 1.1//EN"
 "http://www.w3.org/Graphics/SVG/1.1/DTD/svg11.dtd">
<!-- Generated by graphviz version 2.38.0 (20140413.2041)
 -->
<!-- Title: Workflow Pages: 1 -->
<svg width="1442pt" height="280pt"
 viewBox="0.00 0.00 1442.00 280.20" xmlns="http://www.w3.org/2000/svg" xmlns:xlink="http://www.w3.org/1999/xlink">
<g id="graph0" class="graph" transform="scale(1 1) rotate(0) translate(4 276.2)">
<title>Workflow</title>
<polygon fill="white" stroke="none" points="-4,4 -4,-276.2 1438,-276.2 1438,4 -4,4"/>
<text text-anchor="middle" x="717" y="-252" font-family="Helvetica,sans-Serif" font-size="18.00">C3_C4_generate_results_step</text>
<g id="clust1" class="cluster"><title>cluster_workflow_box_outer</title>
<polygon fill="none" stroke="black" stroke-width="2" points="8,-8 8,-234.6 1426,-234.6 1426,-8 8,-8"/>
</g>
<g id="clust2" class="cluster"><title>cluster_workflow_box_inner</title>
<polygon fill="none" stroke="black" stroke-width="0" points="16,-16 16,-226.6 1418,-226.6 1418,-16 16,-16"/>
</g>
<!-- generate_netcdf_file_for_C3_fraction -->
<g id="node1" class="node"><title>generate_netcdf_file_for_C3_fraction</title>
<polygon fill="#ccffcc" stroke="black" points="1092.29,-146.6 845.705,-146.6 845.705,-110.6 1092.29,-110.6 1092.29,-146.6"/>
<text text-anchor="middle" x="969" y="-124.4" font-family="Helvetica,sans-Serif" font-size="14.00">generate_netcdf_file_for_C3_fraction</text>
</g>
<!-- C3_fraction_data -->
<g id="node4" class="node"><title>C3_fraction_data</title>
<path fill="#ffffcc" stroke="black" d="M964.074,-24.5C964.074,-24.5 1397.93,-24.5 1397.93,-24.5 1403.93,-24.5 1409.93,-30.5 1409.93,-36.5 1409.93,-36.5 1409.93,-62.1 1409.93,-62.1 1409.93,-68.1 1403.93,-74.1 1397.93,-74.1 1397.93,-74.1 964.074,-74.1 964.074,-74.1 958.074,-74.1 952.074,-68.1 952.074,-62.1 952.074,-62.1 952.074,-36.5 952.074,-36.5 952.074,-30.5 958.074,-24.5 964.074,-24.5"/>
<text text-anchor="middle" x="1181" y="-57.5" font-family="Helvetica,sans-Serif" font-size="14.00">C3_fraction_data</text>
<polyline fill="none" stroke="black" points="952.074,-49.3 1409.93,-49.3 "/>
<text text-anchor="middle" x="1181" y="-32.7" font-family="Helvetica,sans-Serif" font-size="14.00">file:outputs/SYNMAP_PRESENTVEG_C3Grass_RelaFrac_NA_v2.0.nc</text>
</g>
<!-- generate_netcdf_file_for_C3_fraction&#45;&gt;C3_fraction_data -->
<g id="edge1" class="edge"><title>generate_netcdf_file_for_C3_fraction&#45;&gt;C3_fraction_data</title>
<path fill="none" stroke="black" d="M1015.79,-110.54C1042.19,-100.912 1075.82,-88.6512 1105.83,-77.7076"/>
<polygon fill="black" stroke="black" points="1107.24,-80.9196 1115.44,-74.2057 1104.84,-74.3432 1107.24,-80.9196"/>
</g>
<!-- generate_netcdf_file_for_C4_fraction -->
<g id="node2" class="node"><title>generate_netcdf_file_for_C4_fraction</title>
<polygon fill="#ccffcc" stroke="black" points="828.295,-146.6 581.705,-146.6 581.705,-110.6 828.295,-110.6 828.295,-146.6"/>
<text text-anchor="middle" x="705" y="-124.4" font-family="Helvetica,sans-Serif" font-size="14.00">generate_netcdf_file_for_C4_fraction</text>
</g>
<!-- C4_fraction_data -->
<g id="node5" class="node"><title>C4_fraction_data</title>
<path fill="#ffffcc" stroke="black" d="M488.074,-24.5C488.074,-24.5 921.926,-24.5 921.926,-24.5 927.926,-24.5 933.926,-30.5 933.926,-36.5 933.926,-36.5 933.926,-62.1 933.926,-62.1 933.926,-68.1 927.926,-74.1 921.926,-74.1 921.926,-74.1 488.074,-74.1 488.074,-74.1 482.074,-74.1 476.074,-68.1 476.074,-62.1 476.074,-62.1 476.074,-36.5 476.074,-36.5 476.074,-30.5 482.074,-24.5 488.074,-24.5"/>
<text text-anchor="middle" x="705" y="-57.5" font-family="Helvetica,sans-Serif" font-size="14.00">C4_fraction_data</text>
<polyline fill="none" stroke="black" points="476.074,-49.3 933.926,-49.3 "/>
<text text-anchor="middle" x="705" y="-32.7" font-family="Helvetica,sans-Serif" font-size="14.00">file:outputs/SYNMAP_PRESENTVEG_C4Grass_RelaFrac_NA_v2.0.nc</text>
</g>
<!-- generate_netcdf_file_for_C4_fraction&#45;&gt;C4_fraction_data -->
<g id="edge7" class="edge"><title>generate_netcdf_file_for_C4_fraction&#45;&gt;C4_fraction_data</title>
<path fill="none" stroke="black" d="M705,-110.445C705,-102.689 705,-93.2393 705,-84.1498"/>
<polygon fill="black" stroke="black" points="708.5,-84.1496 705,-74.1497 701.5,-84.1497 708.5,-84.1496"/>
</g>
<!-- generate_netcdf_file_for_Grass_fraction -->
<g id="node3" class="node"><title>generate_netcdf_file_for_Grass_fraction</title>
<polygon fill="#ccffcc" stroke="black" points="563.739,-146.6 298.261,-146.6 298.261,-110.6 563.739,-110.6 563.739,-146.6"/>
<text text-anchor="middle" x="431" y="-124.4" font-family="Helvetica,sans-Serif" font-size="14.00">generate_netcdf_file_for_Grass_fraction</text>
</g>
<!-- Grass_fraction_data -->
<g id="node6" class="node"><title>Grass_fraction_data</title>
<path fill="#ffffcc" stroke="black" d="M36.127,-24.5C36.127,-24.5 445.873,-24.5 445.873,-24.5 451.873,-24.5 457.873,-30.5 457.873,-36.5 457.873,-36.5 457.873,-62.1 457.873,-62.1 457.873,-68.1 451.873,-74.1 445.873,-74.1 445.873,-74.1 36.127,-74.1 36.127,-74.1 30.127,-74.1 24.127,-68.1 24.127,-62.1 24.127,-62.1 24.127,-36.5 24.127,-36.5 24.127,-30.5 30.127,-24.5 36.127,-24.5"/>
<text text-anchor="middle" x="241" y="-57.5" font-family="Helvetica,sans-Serif" font-size="14.00">Grass_fraction_data</text>
<polyline fill="none" stroke="black" points="24.127,-49.3 457.873,-49.3 "/>
<text text-anchor="middle" x="241" y="-32.7" font-family="Helvetica,sans-Serif" font-size="14.00">file:outputs/SYNMAP_PRESENTVEG_Grass_Fraction_NA_v2.0.nc</text>
</g>
<!-- generate_netcdf_file_for_Grass_fraction&#45;&gt;Grass_fraction_data -->
<g id="edge13" class="edge"><title>generate_netcdf_file_for_Grass_fraction&#45;&gt;Grass_fraction_data</title>
<path fill="none" stroke="black" d="M388.833,-110.445C365.362,-100.896 335.582,-88.7798 308.91,-77.9288"/>
<polygon fill="black" stroke="black" points="310.203,-74.6762 299.621,-74.1497 307.565,-81.1602 310.203,-74.6762"/>
</g>
<!-- lon_variable -->
<g id="node7" class="node"><title>lon_variable</title>
<path fill="#ffffcc" stroke="black" d="M973.96,-218.6C973.96,-218.6 906.04,-218.6 906.04,-218.6 900.04,-218.6 894.04,-212.6 894.04,-206.6 894.04,-206.6 894.04,-194.6 894.04,-194.6 894.04,-188.6 900.04,-182.6 906.04,-182.6 906.04,-182.6 973.96,-182.6 973.96,-182.6 979.96,-182.6 985.96,-188.6 985.96,-194.6 985.96,-194.6 985.96,-206.6 985.96,-206.6 985.96,-212.6 979.96,-218.6 973.96,-218.6"/>
<text text-anchor="middle" x="940" y="-196.4" font-family="Helvetica,sans-Serif" font-size="14.00">lon_variable</text>
</g>
<!-- lon_variable&#45;&gt;generate_netcdf_file_for_C3_fraction -->
<g id="edge2" class="edge"><title>lon_variable&#45;&gt;generate_netcdf_file_for_C3_fraction</title>
<path fill="none" stroke="black" d="M947.169,-182.297C950.435,-174.413 954.374,-164.904 958.002,-156.146"/>
<polygon fill="black" stroke="black" points="961.32,-157.283 961.914,-146.704 954.853,-154.603 961.32,-157.283"/>
</g>
<!-- lon_variable&#45;&gt;generate_netcdf_file_for_C4_fraction -->
<g id="edge8" class="edge"><title>lon_variable&#45;&gt;generate_netcdf_file_for_C4_fraction</title>
<path fill="none" stroke="black" d="M894.098,-185.362C891.02,-184.423 887.966,-183.495 885,-182.6 848.241,-171.508 807.174,-159.395 773.559,-149.552"/>
<polygon fill="black" stroke="black" points="774.413,-146.155 763.833,-146.707 772.448,-152.874 774.413,-146.155"/>
</g>
<!-- lon_variable&#45;&gt;generate_netcdf_file_for_Grass_fraction -->
<g id="edge14" class="edge"><title>lon_variable&#45;&gt;generate_netcdf_file_for_Grass_fraction</title>
<path fill="none" stroke="black" d="M894.25,-184.765C891.136,-183.97 888.032,-183.238 885,-182.6 751.604,-154.54 713.411,-162.494 574.227,-146.721"/>
<polygon fill="black" stroke="black" points="574.364,-143.214 564.029,-145.543 573.561,-150.167 574.364,-143.214"/>
</g>
<!-- lat_variable -->
<g id="node8" class="node"><title>lat_variable</title>
<path fill="#ffffcc" stroke="black" d="M863.568,-218.6C863.568,-218.6 800.432,-218.6 800.432,-218.6 794.432,-218.6 788.432,-212.6 788.432,-206.6 788.432,-206.6 788.432,-194.6 788.432,-194.6 788.432,-188.6 794.432,-182.6 800.432,-182.6 800.432,-182.6 863.568,-182.6 863.568,-182.6 869.568,-182.6 875.568,-188.6 875.568,-194.6 875.568,-194.6 875.568,-206.6 875.568,-206.6 875.568,-212.6 869.568,-218.6 863.568,-218.6"/>
<text text-anchor="middle" x="832" y="-196.4" font-family="Helvetica,sans-Serif" font-size="14.00">lat_variable</text>
</g>
<!-- lat_variable&#45;&gt;generate_netcdf_file_for_C3_fraction -->
<g id="edge3" class="edge"><title>lat_variable&#45;&gt;generate_netcdf_file_for_C3_fraction</title>
<path fill="none" stroke="black" d="M865.514,-182.476C883.841,-173.112 906.736,-161.414 926.328,-151.403"/>
<polygon fill="black" stroke="black" points="928.045,-154.457 935.357,-146.79 924.86,-148.223 928.045,-154.457"/>
</g>
<!-- lat_variable&#45;&gt;generate_netcdf_file_for_C4_fraction -->
<g id="edge9" class="edge"><title>lat_variable&#45;&gt;generate_netcdf_file_for_C4_fraction</title>
<path fill="none" stroke="black" d="M800.932,-182.476C784.173,-173.239 763.294,-161.731 745.298,-151.812"/>
<polygon fill="black" stroke="black" points="746.634,-148.552 736.187,-146.79 743.255,-154.682 746.634,-148.552"/>
</g>
<!-- lat_variable&#45;&gt;generate_netcdf_file_for_Grass_fraction -->
<g id="edge15" class="edge"><title>lat_variable&#45;&gt;generate_netcdf_file_for_Grass_fraction</title>
<path fill="none" stroke="black" d="M788.191,-184.955C785.096,-184.103 782.01,-183.307 779,-182.6 739.348,-173.284 646.637,-159.3 566.874,-148.035"/>
<polygon fill="black" stroke="black" points="567.106,-144.533 556.716,-146.605 566.13,-151.465 567.106,-144.533"/>
</g>
<!-- lon_bnds_variable -->
<g id="node9" class="node"><title>lon_bnds_variable</title>
<path fill="#ffffcc" stroke="black" d="M757.59,-218.6C757.59,-218.6 652.41,-218.6 652.41,-218.6 646.41,-218.6 640.41,-212.6 640.41,-206.6 640.41,-206.6 640.41,-194.6 640.41,-194.6 640.41,-188.6 646.41,-182.6 652.41,-182.6 652.41,-182.6 757.59,-182.6 757.59,-182.6 763.59,-182.6 769.59,-188.6 769.59,-194.6 769.59,-194.6 769.59,-206.6 769.59,-206.6 769.59,-212.6 763.59,-218.6 757.59,-218.6"/>
<text text-anchor="middle" x="705" y="-196.4" font-family="Helvetica,sans-Serif" font-size="14.00">lon_bnds_variable</text>
</g>
<!-- lon_bnds_variable&#45;&gt;generate_netcdf_file_for_C3_fraction -->
<g id="edge4" class="edge"><title>lon_bnds_variable&#45;&gt;generate_netcdf_file_for_C3_fraction</title>
<path fill="none" stroke="black" d="M769.244,-182.566C807.093,-172.53 855.139,-159.79 894.625,-149.321"/>
<polygon fill="black" stroke="black" points="895.699,-152.657 904.468,-146.711 893.905,-145.891 895.699,-152.657"/>
</g>
<!-- lon_bnds_variable&#45;&gt;generate_netcdf_file_for_C4_fraction -->
<g id="edge10" class="edge"><title>lon_bnds_variable&#45;&gt;generate_netcdf_file_for_C4_fraction</title>
<path fill="none" stroke="black" d="M705,-182.297C705,-174.583 705,-165.312 705,-156.712"/>
<polygon fill="black" stroke="black" points="708.5,-156.704 705,-146.704 701.5,-156.704 708.5,-156.704"/>
</g>
<!-- lon_bnds_variable&#45;&gt;generate_netcdf_file_for_Grass_fraction -->
<g id="edge16" class="edge"><title>lon_bnds_variable&#45;&gt;generate_netcdf_file_for_Grass_fraction</title>
<path fill="none" stroke="black" d="M640.066,-183.011C600.362,-172.868 549.37,-159.84 507.685,-149.191"/>
<polygon fill="black" stroke="black" points="508.405,-145.763 497.85,-146.678 506.672,-152.545 508.405,-145.763"/>
</g>
<!-- lat_bnds_variable -->
<g id="node10" class="node"><title>lat_bnds_variable</title>
<path fill="#ffffcc" stroke="black" d="M521.697,-218.6C521.697,-218.6 420.303,-218.6 420.303,-218.6 414.303,-218.6 408.303,-212.6 408.303,-206.6 408.303,-206.6 408.303,-194.6 408.303,-194.6 408.303,-188.6 414.303,-182.6 420.303,-182.6 420.303,-182.6 521.697,-182.6 521.697,-182.6 527.697,-182.6 533.697,-188.6 533.697,-194.6 533.697,-194.6 533.697,-206.6 533.697,-206.6 533.697,-212.6 527.697,-218.6 521.697,-218.6"/>
<text text-anchor="middle" x="471" y="-196.4" font-family="Helvetica,sans-Serif" font-size="14.00">lat_bnds_variable</text>
</g>
<!-- lat_bnds_variable&#45;&gt;generate_netcdf_file_for_C3_fraction -->
<g id="edge5" class="edge"><title>lat_bnds_variable&#45;&gt;generate_netcdf_file_for_C3_fraction</title>
<path fill="none" stroke="black" d="M534.023,-184.117C536.713,-183.581 539.38,-183.072 542,-182.6 668.818,-159.756 704.228,-162.864 835.642,-146.753"/>
<polygon fill="black" stroke="black" points="836.199,-150.211 845.692,-145.507 835.337,-143.264 836.199,-150.211"/>
</g>
<!-- lat_bnds_variable&#45;&gt;generate_netcdf_file_for_C4_fraction -->
<g id="edge11" class="edge"><title>lat_bnds_variable&#45;&gt;generate_netcdf_file_for_C4_fraction</title>
<path fill="none" stroke="black" d="M527.944,-182.566C561.207,-172.615 603.356,-160.006 638.185,-149.587"/>
<polygon fill="black" stroke="black" points="639.224,-152.93 647.801,-146.711 637.217,-146.224 639.224,-152.93"/>
</g>
<!-- lat_bnds_variable&#45;&gt;generate_netcdf_file_for_Grass_fraction -->
<g id="edge17" class="edge"><title>lat_bnds_variable&#45;&gt;generate_netcdf_file_for_Grass_fraction</title>
<path fill="none" stroke="black" d="M461.112,-182.297C456.511,-174.244 450.94,-164.494 445.847,-155.582"/>
<polygon fill="black" stroke="black" points="448.774,-153.65 440.774,-146.704 442.696,-157.123 448.774,-153.65"/>
</g>
<!-- C3_Data -->
<g id="node11" class="node"><title>C3_Data</title>
<path fill="#ffffcc" stroke="black" d="M1062.73,-218.6C1062.73,-218.6 1015.27,-218.6 1015.27,-218.6 1009.27,-218.6 1003.27,-212.6 1003.27,-206.6 1003.27,-206.6 1003.27,-194.6 1003.27,-194.6 1003.27,-188.6 1009.27,-182.6 1015.27,-182.6 1015.27,-182.6 1062.73,-182.6 1062.73,-182.6 1068.73,-182.6 1074.73,-188.6 1074.73,-194.6 1074.73,-194.6 1074.73,-206.6 1074.73,-206.6 1074.73,-212.6 1068.73,-218.6 1062.73,-218.6"/>
<text text-anchor="middle" x="1039" y="-196.4" font-family="Helvetica,sans-Serif" font-size="14.00">C3_Data</text>
</g>
<!-- C3_Data&#45;&gt;generate_netcdf_file_for_C3_fraction -->
<g id="edge6" class="edge"><title>C3_Data&#45;&gt;generate_netcdf_file_for_C3_fraction</title>
<path fill="none" stroke="black" d="M1021.7,-182.297C1013.14,-173.735 1002.66,-163.256 993.304,-153.904"/>
<polygon fill="black" stroke="black" points="995.65,-151.301 986.104,-146.704 990.701,-156.25 995.65,-151.301"/>
</g>
<!-- C4_Data -->
<g id="node12" class="node"><title>C4_Data</title>
<path fill="#ffffcc" stroke="black" d="M610.735,-218.6C610.735,-218.6 563.265,-218.6 563.265,-218.6 557.265,-218.6 551.265,-212.6 551.265,-206.6 551.265,-206.6 551.265,-194.6 551.265,-194.6 551.265,-188.6 557.265,-182.6 563.265,-182.6 563.265,-182.6 610.735,-182.6 610.735,-182.6 616.735,-182.6 622.735,-188.6 622.735,-194.6 622.735,-194.6 622.735,-206.6 622.735,-206.6 622.735,-212.6 616.735,-218.6 610.735,-218.6"/>
<text text-anchor="middle" x="587" y="-196.4" font-family="Helvetica,sans-Serif" font-size="14.00">C4_Data</text>
</g>
<!-- C4_Data&#45;&gt;generate_netcdf_file_for_C4_fraction -->
<g id="edge12" class="edge"><title>C4_Data&#45;&gt;generate_netcdf_file_for_C4_fraction</title>
<path fill="none" stroke="black" d="M615.866,-182.476C631.295,-173.324 650.481,-161.942 667.097,-152.085"/>
<polygon fill="black" stroke="black" points="669.208,-154.902 676.023,-146.79 665.637,-148.882 669.208,-154.902"/>
</g>
<!-- Grass_variable -->
<g id="node13" class="node"><title>Grass_variable</title>
<path fill="#ffffcc" stroke="black" d="M378.121,-218.6C378.121,-218.6 291.879,-218.6 291.879,-218.6 285.879,-218.6 279.879,-212.6 279.879,-206.6 279.879,-206.6 279.879,-194.6 279.879,-194.6 279.879,-188.6 285.879,-182.6 291.879,-182.6 291.879,-182.6 378.121,-182.6 378.121,-182.6 384.121,-182.6 390.121,-188.6 390.121,-194.6 390.121,-194.6 390.121,-206.6 390.121,-206.6 390.121,-212.6 384.121,-218.6 378.121,-218.6"/>
<text text-anchor="middle" x="335" y="-196.4" font-family="Helvetica,sans-Serif" font-size="14.00">Grass_variable</text>
</g>
<!-- Grass_variable&#45;&gt;generate_netcdf_file_for_Grass_fraction -->
<g id="edge18" class="edge"><title>Grass_variable&#45;&gt;generate_netcdf_file_for_Grass_fraction</title>
<path fill="none" stroke="black" d="M358.73,-182.297C370.937,-173.396 385.985,-162.423 399.184,-152.799"/>
<polygon fill="black" stroke="black" points="401.525,-155.424 407.543,-146.704 397.4,-149.768 401.525,-155.424"/>
</g>
</g>
</svg>
