<?xml version="1.0" encoding="UTF-8" standalone="no"?>
<!DOCTYPE svg PUBLIC "-//W3C//DTD SVG 1.1//EN"
 "http://www.w3.org/Graphics/SVG/1.1/DTD/svg11.dtd">
<!-- Generated by graphviz version 2.38.0 (20140413.2041)
 -->
<!-- Title: Workflow Pages: 1 -->
<svg width="842pt" height="347pt"
 viewBox="0.00 0.00 842.00 346.80" xmlns="http://www.w3.org/2000/svg" xmlns:xlink="http://www.w3.org/1999/xlink">
<g id="graph0" class="graph" transform="scale(1 1) rotate(0) translate(4 342.8)">
<title>Workflow</title>
<polygon fill="white" stroke="none" points="-4,4 -4,-342.8 838,-342.8 838,4 -4,4"/>
<text text-anchor="middle" x="417" y="-318.6" font-family="Helvetica,sans-Serif" font-size="18.00">C3_C4_examine_pixels_for_grass</text>
<g id="clust1" class="cluster"><title>cluster_workflow_box_outer</title>
<polygon fill="none" stroke="black" stroke-width="2" points="8,-34 8,-275.2 826,-275.2 826,-34 8,-34"/>
</g>
<g id="clust2" class="cluster"><title>cluster_workflow_box_inner</title>
<polygon fill="none" stroke="black" stroke-width="0" points="16,-42 16,-267.2 818,-267.2 818,-42 16,-42"/>
</g>
<!-- examine_pixels_for_grass -->
<g id="node1" class="node"><title>examine_pixels_for_grass</title>
<polygon fill="#ccffcc" stroke="black" points="499.084,-172.6 320.916,-172.6 320.916,-136.6 499.084,-136.6 499.084,-172.6"/>
<text text-anchor="middle" x="410" y="-150.4" font-family="Helvetica,sans-Serif" font-size="14.00">examine_pixels_for_grass</text>
</g>
<!-- C3_Matrix -->
<g id="node2" class="node"><title>C3_Matrix</title>
<path fill="#ffffcc" stroke="black" d="M175.128,-50.5C175.128,-50.5 388.872,-50.5 388.872,-50.5 394.872,-50.5 400.872,-56.5 400.872,-62.5 400.872,-62.5 400.872,-88.1 400.872,-88.1 400.872,-94.1 394.872,-100.1 388.872,-100.1 388.872,-100.1 175.128,-100.1 175.128,-100.1 169.128,-100.1 163.128,-94.1 163.128,-88.1 163.128,-88.1 163.128,-62.5 163.128,-62.5 163.128,-56.5 169.128,-50.5 175.128,-50.5"/>
<text text-anchor="middle" x="282" y="-83.5" font-family="Helvetica,sans-Serif" font-size="14.00">C3_Matrix</text>
<polyline fill="none" stroke="black" points="163.128,-75.3 400.872,-75.3 "/>
<text text-anchor="middle" x="282" y="-58.7" font-family="Helvetica,sans-Serif" font-size="14.00">file:C3_{start_year}_{end_year}.mat</text>
</g>
<!-- examine_pixels_for_grass&#45;&gt;C3_Matrix -->
<g id="edge1" class="edge"><title>examine_pixels_for_grass&#45;&gt;C3_Matrix</title>
<path fill="none" stroke="black" d="M381.593,-136.445C366.54,-127.354 347.636,-115.938 330.353,-105.501"/>
<polygon fill="black" stroke="black" points="331.862,-102.323 321.492,-100.15 328.243,-108.315 331.862,-102.323"/>
</g>
<!-- C4_Matrix -->
<g id="node3" class="node"><title>C4_Matrix</title>
<path fill="#ffffcc" stroke="black" d="M431.128,-50.5C431.128,-50.5 644.872,-50.5 644.872,-50.5 650.872,-50.5 656.872,-56.5 656.872,-62.5 656.872,-62.5 656.872,-88.1 656.872,-88.1 656.872,-94.1 650.872,-100.1 644.872,-100.1 644.872,-100.1 431.128,-100.1 431.128,-100.1 425.128,-100.1 419.128,-94.1 419.128,-88.1 419.128,-88.1 419.128,-62.5 419.128,-62.5 419.128,-56.5 425.128,-50.5 431.128,-50.5"/>
<text text-anchor="middle" x="538" y="-83.5" font-family="Helvetica,sans-Serif" font-size="14.00">C4_Matrix</text>
<polyline fill="none" stroke="black" points="419.128,-75.3 656.872,-75.3 "/>
<text text-anchor="middle" x="538" y="-58.7" font-family="Helvetica,sans-Serif" font-size="14.00">file:C4_{start_year}_{end_year}.mat</text>
</g>
<!-- examine_pixels_for_grass&#45;&gt;C4_Matrix -->
<g id="edge2" class="edge"><title>examine_pixels_for_grass&#45;&gt;C4_Matrix</title>
<path fill="none" stroke="black" d="M438.407,-136.445C453.46,-127.354 472.364,-115.938 489.647,-105.501"/>
<polygon fill="black" stroke="black" points="491.757,-108.315 498.508,-100.15 488.138,-102.323 491.757,-108.315"/>
</g>
<!-- C3_Matrix_output_port -->
<g id="node10" class="node"><title>C3_Matrix_output_port</title>
<ellipse fill="#ffffff" stroke="black" cx="282" cy="-7" rx="7" ry="7"/>
</g>
<!-- C3_Matrix&#45;&gt;C3_Matrix_output_port -->
<g id="edge9" class="edge"><title>C3_Matrix&#45;&gt;C3_Matrix_output_port</title>
<path fill="none" stroke="black" d="M282,-50.3642C282,-41.694 282,-32.1105 282,-24.2546"/>
<polygon fill="black" stroke="black" points="285.5,-24.0006 282,-14.0006 278.5,-24.0007 285.5,-24.0006"/>
</g>
<!-- C4_Matrix_output_port -->
<g id="node11" class="node"><title>C4_Matrix_output_port</title>
<ellipse fill="#ffffff" stroke="black" cx="538" cy="-7" rx="7" ry="7"/>
</g>
<!-- C4_Matrix&#45;&gt;C4_Matrix_output_port -->
<g id="edge10" class="edge"><title>C4_Matrix&#45;&gt;C4_Matrix_output_port</title>
<path fill="none" stroke="black" d="M538,-50.3642C538,-41.694 538,-32.1105 538,-24.2546"/>
<polygon fill="black" stroke="black" points="541.5,-24.0006 538,-14.0006 534.5,-24.0007 541.5,-24.0006"/>
</g>
<!-- Tair_Matrix -->
<g id="node4" class="node"><title>Tair_Matrix</title>
<path fill="#ffffcc" stroke="black" d="M36.0218,-209.1C36.0218,-209.1 255.978,-209.1 255.978,-209.1 261.978,-209.1 267.978,-215.1 267.978,-221.1 267.978,-221.1 267.978,-246.7 267.978,-246.7 267.978,-252.7 261.978,-258.7 255.978,-258.7 255.978,-258.7 36.0218,-258.7 36.0218,-258.7 30.0218,-258.7 24.0218,-252.7 24.0218,-246.7 24.0218,-246.7 24.0218,-221.1 24.0218,-221.1 24.0218,-215.1 30.0218,-209.1 36.0218,-209.1"/>
<text text-anchor="middle" x="146" y="-242.1" font-family="Helvetica,sans-Serif" font-size="14.00">Tair_Matrix</text>
<polyline fill="none" stroke="black" points="24.0218,-233.9 267.978,-233.9 "/>
<text text-anchor="middle" x="146" y="-217.3" font-family="Helvetica,sans-Serif" font-size="14.00">file:Tair_{start_year}_{end_year}.mat</text>
</g>
<!-- Tair_Matrix&#45;&gt;examine_pixels_for_grass -->
<g id="edge3" class="edge"><title>Tair_Matrix&#45;&gt;examine_pixels_for_grass</title>
<path fill="none" stroke="black" d="M227.363,-209.077C264.199,-198.291 307.237,-185.689 342.279,-175.429"/>
<polygon fill="black" stroke="black" points="343.326,-178.77 351.939,-172.6 341.358,-172.052 343.326,-178.77"/>
</g>
<!-- Rain_Matrix -->
<g id="node5" class="node"><title>Rain_Matrix</title>
<path fill="#ffffcc" stroke="black" d="M297.684,-209.1C297.684,-209.1 522.316,-209.1 522.316,-209.1 528.316,-209.1 534.316,-215.1 534.316,-221.1 534.316,-221.1 534.316,-246.7 534.316,-246.7 534.316,-252.7 528.316,-258.7 522.316,-258.7 522.316,-258.7 297.684,-258.7 297.684,-258.7 291.684,-258.7 285.684,-252.7 285.684,-246.7 285.684,-246.7 285.684,-221.1 285.684,-221.1 285.684,-215.1 291.684,-209.1 297.684,-209.1"/>
<text text-anchor="middle" x="410" y="-242.1" font-family="Helvetica,sans-Serif" font-size="14.00">Rain_Matrix</text>
<polyline fill="none" stroke="black" points="285.684,-233.9 534.316,-233.9 "/>
<text text-anchor="middle" x="410" y="-217.3" font-family="Helvetica,sans-Serif" font-size="14.00">file:Rain_{start_year}_{end_year}.mat</text>
</g>
<!-- Rain_Matrix&#45;&gt;examine_pixels_for_grass -->
<g id="edge4" class="edge"><title>Rain_Matrix&#45;&gt;examine_pixels_for_grass</title>
<path fill="none" stroke="black" d="M410,-208.866C410,-200.639 410,-191.376 410,-182.909"/>
<polygon fill="black" stroke="black" points="413.5,-182.749 410,-172.749 406.5,-182.749 413.5,-182.749"/>
</g>
<!-- Grass_variable -->
<g id="node6" class="node"><title>Grass_variable</title>
<path fill="#ffffcc" stroke="black" d="M564.406,-209.1C564.406,-209.1 797.594,-209.1 797.594,-209.1 803.594,-209.1 809.594,-215.1 809.594,-221.1 809.594,-221.1 809.594,-246.7 809.594,-246.7 809.594,-252.7 803.594,-258.7 797.594,-258.7 797.594,-258.7 564.406,-258.7 564.406,-258.7 558.406,-258.7 552.406,-252.7 552.406,-246.7 552.406,-246.7 552.406,-221.1 552.406,-221.1 552.406,-215.1 558.406,-209.1 564.406,-209.1"/>
<text text-anchor="middle" x="681" y="-242.1" font-family="Helvetica,sans-Serif" font-size="14.00">Grass_variable</text>
<polyline fill="none" stroke="black" points="552.406,-233.9 809.594,-233.9 "/>
<text text-anchor="middle" x="681" y="-217.3" font-family="Helvetica,sans-Serif" font-size="14.00">file:Grass_{start_year}_{end_year}.mat</text>
</g>
<!-- Grass_variable&#45;&gt;examine_pixels_for_grass -->
<g id="edge5" class="edge"><title>Grass_variable&#45;&gt;examine_pixels_for_grass</title>
<path fill="none" stroke="black" d="M597.48,-209.077C559.667,-198.291 515.488,-185.689 479.516,-175.429"/>
<polygon fill="black" stroke="black" points="480.177,-171.978 469.6,-172.6 478.257,-178.709 480.177,-171.978"/>
</g>
<!-- Tair_Matrix_input_port -->
<g id="node7" class="node"><title>Tair_Matrix_input_port</title>
<ellipse fill="#ffffff" stroke="black" cx="146" cy="-302.2" rx="7" ry="7"/>
</g>
<!-- Tair_Matrix_input_port&#45;&gt;Tair_Matrix -->
<g id="edge6" class="edge"><title>Tair_Matrix_input_port&#45;&gt;Tair_Matrix</title>
<path fill="none" stroke="black" d="M146,-295.081C146,-288.991 146,-279.133 146,-269.142"/>
<polygon fill="black" stroke="black" points="149.5,-268.836 146,-258.836 142.5,-268.836 149.5,-268.836"/>
</g>
<!-- Rain_Matrix_input_port -->
<g id="node8" class="node"><title>Rain_Matrix_input_port</title>
<ellipse fill="#ffffff" stroke="black" cx="410" cy="-302.2" rx="7" ry="7"/>
</g>
<!-- Rain_Matrix_input_port&#45;&gt;Rain_Matrix -->
<g id="edge7" class="edge"><title>Rain_Matrix_input_port&#45;&gt;Rain_Matrix</title>
<path fill="none" stroke="black" d="M410,-295.081C410,-288.991 410,-279.133 410,-269.142"/>
<polygon fill="black" stroke="black" points="413.5,-268.836 410,-258.836 406.5,-268.836 413.5,-268.836"/>
</g>
<!-- Grass_variable_input_port -->
<g id="node9" class="node"><title>Grass_variable_input_port</title>
<ellipse fill="#ffffff" stroke="black" cx="681" cy="-302.2" rx="7" ry="7"/>
</g>
<!-- Grass_variable_input_port&#45;&gt;Grass_variable -->
<g id="edge8" class="edge"><title>Grass_variable_input_port&#45;&gt;Grass_variable</title>
<path fill="none" stroke="black" d="M681,-295.081C681,-288.991 681,-279.133 681,-269.142"/>
<polygon fill="black" stroke="black" points="684.5,-268.836 681,-258.836 677.5,-268.836 684.5,-268.836"/>
</g>
</g>
</svg>
