<?xml version="1.0" encoding="UTF-8" standalone="no"?>
<!DOCTYPE svg PUBLIC "-//W3C//DTD SVG 1.1//EN"
 "http://www.w3.org/Graphics/SVG/1.1/DTD/svg11.dtd">
<!-- Generated by graphviz version 2.38.0 (20140413.2041)
 -->
<!-- Title: Workflow Pages: 1 -->
<svg width="566pt" height="295pt"
 viewBox="0.00 0.00 566.00 294.80" xmlns="http://www.w3.org/2000/svg" xmlns:xlink="http://www.w3.org/1999/xlink">
<g id="graph0" class="graph" transform="scale(1 1) rotate(0) translate(4 290.8)">
<title>Workflow</title>
<polygon fill="white" stroke="none" points="-4,4 -4,-290.8 562,-290.8 562,4 -4,4"/>
<text text-anchor="middle" x="279" y="-266.6" font-family="Helvetica,sans-Serif" font-size="18.00">C3_C4_examine_pixels_for_grass</text>
<g id="clust1" class="cluster"><title>cluster_workflow_box_outer</title>
<polygon fill="none" stroke="black" stroke-width="2" points="8,-8 8,-249.2 550,-249.2 550,-8 8,-8"/>
</g>
<g id="clust2" class="cluster"><title>cluster_workflow_box_inner</title>
<polygon fill="none" stroke="black" stroke-width="0" points="16,-16 16,-241.2 542,-241.2 542,-16 16,-16"/>
</g>
<!-- examine_pixels_for_grass -->
<g id="node1" class="node"><title>examine_pixels_for_grass</title>
<polygon fill="#ccffcc" stroke="black" points="362.084,-146.6 183.916,-146.6 183.916,-110.6 362.084,-110.6 362.084,-146.6"/>
<text text-anchor="middle" x="273" y="-124.4" font-family="Helvetica,sans-Serif" font-size="14.00">examine_pixels_for_grass</text>
</g>
<!-- C3_Matrix -->
<g id="node2" class="node"><title>C3_Matrix</title>
<path fill="#ffffcc" stroke="black" d="M44.1284,-24.5C44.1284,-24.5 257.872,-24.5 257.872,-24.5 263.872,-24.5 269.872,-30.5 269.872,-36.5 269.872,-36.5 269.872,-62.1 269.872,-62.1 269.872,-68.1 263.872,-74.1 257.872,-74.1 257.872,-74.1 44.1284,-74.1 44.1284,-74.1 38.1284,-74.1 32.1284,-68.1 32.1284,-62.1 32.1284,-62.1 32.1284,-36.5 32.1284,-36.5 32.1284,-30.5 38.1284,-24.5 44.1284,-24.5"/>
<text text-anchor="middle" x="151" y="-57.5" font-family="Helvetica,sans-Serif" font-size="14.00">C3_Matrix</text>
<polyline fill="none" stroke="black" points="32.1284,-49.3 269.872,-49.3 "/>
<text text-anchor="middle" x="151" y="-32.7" font-family="Helvetica,sans-Serif" font-size="14.00">file:C3_{start_year}_{end_year}.mat</text>
</g>
<!-- examine_pixels_for_grass&#45;&gt;C3_Matrix -->
<g id="edge1" class="edge"><title>examine_pixels_for_grass&#45;&gt;C3_Matrix</title>
<path fill="none" stroke="black" d="M245.924,-110.445C231.709,-101.438 213.889,-90.1471 197.54,-79.7883"/>
<polygon fill="black" stroke="black" points="198.962,-76.5454 188.641,-74.1497 195.215,-82.4584 198.962,-76.5454"/>
</g>
<!-- C4_Matrix -->
<g id="node3" class="node"><title>C4_Matrix</title>
<path fill="#ffffcc" stroke="black" d="M300.128,-24.5C300.128,-24.5 513.872,-24.5 513.872,-24.5 519.872,-24.5 525.872,-30.5 525.872,-36.5 525.872,-36.5 525.872,-62.1 525.872,-62.1 525.872,-68.1 519.872,-74.1 513.872,-74.1 513.872,-74.1 300.128,-74.1 300.128,-74.1 294.128,-74.1 288.128,-68.1 288.128,-62.1 288.128,-62.1 288.128,-36.5 288.128,-36.5 288.128,-30.5 294.128,-24.5 300.128,-24.5"/>
<text text-anchor="middle" x="407" y="-57.5" font-family="Helvetica,sans-Serif" font-size="14.00">C4_Matrix</text>
<polyline fill="none" stroke="black" points="288.128,-49.3 525.872,-49.3 "/>
<text text-anchor="middle" x="407" y="-32.7" font-family="Helvetica,sans-Serif" font-size="14.00">file:C4_{start_year}_{end_year}.mat</text>
</g>
<!-- examine_pixels_for_grass&#45;&gt;C4_Matrix -->
<g id="edge2" class="edge"><title>examine_pixels_for_grass&#45;&gt;C4_Matrix</title>
<path fill="none" stroke="black" d="M302.739,-110.445C318.642,-101.271 338.651,-89.7282 356.878,-79.2138"/>
<polygon fill="black" stroke="black" points="358.743,-82.1783 365.656,-74.1497 355.245,-76.1148 358.743,-82.1783"/>
</g>
<!-- Tair_Matrix -->
<g id="node4" class="node"><title>Tair_Matrix</title>
<path fill="#ffffcc" stroke="black" d="M302.022,-183.1C302.022,-183.1 521.978,-183.1 521.978,-183.1 527.978,-183.1 533.978,-189.1 533.978,-195.1 533.978,-195.1 533.978,-220.7 533.978,-220.7 533.978,-226.7 527.978,-232.7 521.978,-232.7 521.978,-232.7 302.022,-232.7 302.022,-232.7 296.022,-232.7 290.022,-226.7 290.022,-220.7 290.022,-220.7 290.022,-195.1 290.022,-195.1 290.022,-189.1 296.022,-183.1 302.022,-183.1"/>
<text text-anchor="middle" x="412" y="-216.1" font-family="Helvetica,sans-Serif" font-size="14.00">Tair_Matrix</text>
<polyline fill="none" stroke="black" points="290.022,-207.9 533.978,-207.9 "/>
<text text-anchor="middle" x="412" y="-191.3" font-family="Helvetica,sans-Serif" font-size="14.00">file:Tair_{start_year}_{end_year}.mat</text>
</g>
<!-- Tair_Matrix&#45;&gt;examine_pixels_for_grass -->
<g id="edge3" class="edge"><title>Tair_Matrix&#45;&gt;examine_pixels_for_grass</title>
<path fill="none" stroke="black" d="M369.161,-183.077C351.092,-173.028 330.19,-161.404 312.497,-151.565"/>
<polygon fill="black" stroke="black" points="314.011,-148.402 303.57,-146.6 310.608,-154.519 314.011,-148.402"/>
</g>
<!-- Rain_Matrix -->
<g id="node5" class="node"><title>Rain_Matrix</title>
<path fill="#ffffcc" stroke="black" d="M35.6838,-183.1C35.6838,-183.1 260.316,-183.1 260.316,-183.1 266.316,-183.1 272.316,-189.1 272.316,-195.1 272.316,-195.1 272.316,-220.7 272.316,-220.7 272.316,-226.7 266.316,-232.7 260.316,-232.7 260.316,-232.7 35.6838,-232.7 35.6838,-232.7 29.6838,-232.7 23.6838,-226.7 23.6838,-220.7 23.6838,-220.7 23.6838,-195.1 23.6838,-195.1 23.6838,-189.1 29.6838,-183.1 35.6838,-183.1"/>
<text text-anchor="middle" x="148" y="-216.1" font-family="Helvetica,sans-Serif" font-size="14.00">Rain_Matrix</text>
<polyline fill="none" stroke="black" points="23.6838,-207.9 272.316,-207.9 "/>
<text text-anchor="middle" x="148" y="-191.3" font-family="Helvetica,sans-Serif" font-size="14.00">file:Rain_{start_year}_{end_year}.mat</text>
</g>
<!-- Rain_Matrix&#45;&gt;examine_pixels_for_grass -->
<g id="edge4" class="edge"><title>Rain_Matrix&#45;&gt;examine_pixels_for_grass</title>
<path fill="none" stroke="black" d="M186.524,-183.077C202.475,-173.213 220.881,-161.83 236.602,-152.108"/>
<polygon fill="black" stroke="black" points="238.845,-154.837 245.509,-146.6 235.163,-148.883 238.845,-154.837"/>
</g>
</g>
</svg>
