<?xml version="1.0" encoding="UTF-8" standalone="no"?>
<!DOCTYPE svg PUBLIC "-//W3C//DTD SVG 1.1//EN"
 "http://www.w3.org/Graphics/SVG/1.1/DTD/svg11.dtd">
<!-- Generated by graphviz version 2.38.0 (20140413.2041)
 -->
<!-- Title: Workflow Pages: 1 -->
<svg width="1442pt" height="295pt"
 viewBox="0.00 0.00 1442.00 294.80" xmlns="http://www.w3.org/2000/svg" xmlns:xlink="http://www.w3.org/1999/xlink">
<g id="graph0" class="graph" transform="scale(1 1) rotate(0) translate(4 290.8)">
<title>Workflow</title>
<polygon fill="white" stroke="none" points="-4,4 -4,-290.8 1438,-290.8 1438,4 -4,4"/>
<text text-anchor="middle" x="717" y="-266.6" font-family="Helvetica,sans-Serif" font-size="18.00">C3_C4_generate_results_step</text>
<g id="clust1" class="cluster"><title>cluster_workflow_box_outer</title>
<polygon fill="none" stroke="black" stroke-width="2" points="8,-8 8,-249.2 1426,-249.2 1426,-8 8,-8"/>
</g>
<g id="clust2" class="cluster"><title>cluster_workflow_box_inner</title>
<polygon fill="none" stroke="black" stroke-width="0" points="16,-16 16,-241.2 1418,-241.2 1418,-16 16,-16"/>
</g>
<!-- generate_netcdf_file_for_C3_fraction -->
<g id="node1" class="node"><title>generate_netcdf_file_for_C3_fraction</title>
<polygon fill="#ccffcc" stroke="black" points="1294.29,-146.6 1047.71,-146.6 1047.71,-110.6 1294.29,-110.6 1294.29,-146.6"/>
<text text-anchor="middle" x="1171" y="-124.4" font-family="Helvetica,sans-Serif" font-size="14.00">generate_netcdf_file_for_C3_fraction</text>
</g>
<!-- C3_fraction_data -->
<g id="node4" class="node"><title>C3_fraction_data</title>
<path fill="#ffffcc" stroke="black" d="M964.074,-24.5C964.074,-24.5 1397.93,-24.5 1397.93,-24.5 1403.93,-24.5 1409.93,-30.5 1409.93,-36.5 1409.93,-36.5 1409.93,-62.1 1409.93,-62.1 1409.93,-68.1 1403.93,-74.1 1397.93,-74.1 1397.93,-74.1 964.074,-74.1 964.074,-74.1 958.074,-74.1 952.074,-68.1 952.074,-62.1 952.074,-62.1 952.074,-36.5 952.074,-36.5 952.074,-30.5 958.074,-24.5 964.074,-24.5"/>
<text text-anchor="middle" x="1181" y="-57.5" font-family="Helvetica,sans-Serif" font-size="14.00">C3_fraction_data</text>
<polyline fill="none" stroke="black" points="952.074,-49.3 1409.93,-49.3 "/>
<text text-anchor="middle" x="1181" y="-32.7" font-family="Helvetica,sans-Serif" font-size="14.00">file:outputs/SYNMAP_PRESENTVEG_C3Grass_RelaFrac_NA_v2.0.nc</text>
</g>
<!-- generate_netcdf_file_for_C3_fraction&#45;&gt;C3_fraction_data -->
<g id="edge1" class="edge"><title>generate_netcdf_file_for_C3_fraction&#45;&gt;C3_fraction_data</title>
<path fill="none" stroke="black" d="M1173.22,-110.445C1174.22,-102.689 1175.45,-93.2393 1176.62,-84.1498"/>
<polygon fill="black" stroke="black" points="1180.1,-84.5161 1177.91,-74.1497 1173.16,-83.618 1180.1,-84.5161"/>
</g>
<!-- generate_netcdf_file_for_C4_fraction -->
<g id="node2" class="node"><title>generate_netcdf_file_for_C4_fraction</title>
<polygon fill="#ccffcc" stroke="black" points="828.295,-146.6 581.705,-146.6 581.705,-110.6 828.295,-110.6 828.295,-146.6"/>
<text text-anchor="middle" x="705" y="-124.4" font-family="Helvetica,sans-Serif" font-size="14.00">generate_netcdf_file_for_C4_fraction</text>
</g>
<!-- C4_fraction_data -->
<g id="node5" class="node"><title>C4_fraction_data</title>
<path fill="#ffffcc" stroke="black" d="M488.074,-24.5C488.074,-24.5 921.926,-24.5 921.926,-24.5 927.926,-24.5 933.926,-30.5 933.926,-36.5 933.926,-36.5 933.926,-62.1 933.926,-62.1 933.926,-68.1 927.926,-74.1 921.926,-74.1 921.926,-74.1 488.074,-74.1 488.074,-74.1 482.074,-74.1 476.074,-68.1 476.074,-62.1 476.074,-62.1 476.074,-36.5 476.074,-36.5 476.074,-30.5 482.074,-24.5 488.074,-24.5"/>
<text text-anchor="middle" x="705" y="-57.5" font-family="Helvetica,sans-Serif" font-size="14.00">C4_fraction_data</text>
<polyline fill="none" stroke="black" points="476.074,-49.3 933.926,-49.3 "/>
<text text-anchor="middle" x="705" y="-32.7" font-family="Helvetica,sans-Serif" font-size="14.00">file:outputs/SYNMAP_PRESENTVEG_C4Grass_RelaFrac_NA_v2.0.nc</text>
</g>
<!-- generate_netcdf_file_for_C4_fraction&#45;&gt;C4_fraction_data -->
<g id="edge4" class="edge"><title>generate_netcdf_file_for_C4_fraction&#45;&gt;C4_fraction_data</title>
<path fill="none" stroke="black" d="M705,-110.445C705,-102.689 705,-93.2393 705,-84.1498"/>
<polygon fill="black" stroke="black" points="708.5,-84.1496 705,-74.1497 701.5,-84.1497 708.5,-84.1496"/>
</g>
<!-- generate_netcdf_file_for_Grass_fraction -->
<g id="node3" class="node"><title>generate_netcdf_file_for_Grass_fraction</title>
<polygon fill="#ccffcc" stroke="black" points="383.739,-146.6 118.261,-146.6 118.261,-110.6 383.739,-110.6 383.739,-146.6"/>
<text text-anchor="middle" x="251" y="-124.4" font-family="Helvetica,sans-Serif" font-size="14.00">generate_netcdf_file_for_Grass_fraction</text>
</g>
<!-- Grass_fraction_data -->
<g id="node6" class="node"><title>Grass_fraction_data</title>
<path fill="#ffffcc" stroke="black" d="M36.127,-24.5C36.127,-24.5 445.873,-24.5 445.873,-24.5 451.873,-24.5 457.873,-30.5 457.873,-36.5 457.873,-36.5 457.873,-62.1 457.873,-62.1 457.873,-68.1 451.873,-74.1 445.873,-74.1 445.873,-74.1 36.127,-74.1 36.127,-74.1 30.127,-74.1 24.127,-68.1 24.127,-62.1 24.127,-62.1 24.127,-36.5 24.127,-36.5 24.127,-30.5 30.127,-24.5 36.127,-24.5"/>
<text text-anchor="middle" x="241" y="-57.5" font-family="Helvetica,sans-Serif" font-size="14.00">Grass_fraction_data</text>
<polyline fill="none" stroke="black" points="24.127,-49.3 457.873,-49.3 "/>
<text text-anchor="middle" x="241" y="-32.7" font-family="Helvetica,sans-Serif" font-size="14.00">file:outputs/SYNMAP_PRESENTVEG_Grass_Fraction_NA_v2.0.nc</text>
</g>
<!-- generate_netcdf_file_for_Grass_fraction&#45;&gt;Grass_fraction_data -->
<g id="edge7" class="edge"><title>generate_netcdf_file_for_Grass_fraction&#45;&gt;Grass_fraction_data</title>
<path fill="none" stroke="black" d="M248.781,-110.445C247.777,-102.689 246.555,-93.2393 245.379,-84.1498"/>
<polygon fill="black" stroke="black" points="248.839,-83.618 244.085,-74.1497 241.897,-84.5161 248.839,-83.618"/>
</g>
<!-- land_cover_map_mat -->
<g id="node7" class="node"><title>land_cover_map_mat</title>
<path fill="#ffffcc" stroke="black" d="M703.337,-183.1C703.337,-183.1 1002.66,-183.1 1002.66,-183.1 1008.66,-183.1 1014.66,-189.1 1014.66,-195.1 1014.66,-195.1 1014.66,-220.7 1014.66,-220.7 1014.66,-226.7 1008.66,-232.7 1002.66,-232.7 1002.66,-232.7 703.337,-232.7 703.337,-232.7 697.337,-232.7 691.337,-226.7 691.337,-220.7 691.337,-220.7 691.337,-195.1 691.337,-195.1 691.337,-189.1 697.337,-183.1 703.337,-183.1"/>
<text text-anchor="middle" x="853" y="-216.1" font-family="Helvetica,sans-Serif" font-size="14.00">land_cover_map_mat</text>
<polyline fill="none" stroke="black" points="691.337,-207.9 1014.66,-207.9 "/>
<text text-anchor="middle" x="853" y="-191.3" font-family="Helvetica,sans-Serif" font-size="14.00">file:land_cover_map_{start_year}_{end_year}.mat</text>
</g>
<!-- land_cover_map_mat&#45;&gt;generate_netcdf_file_for_C3_fraction -->
<g id="edge2" class="edge"><title>land_cover_map_mat&#45;&gt;generate_netcdf_file_for_C3_fraction</title>
<path fill="none" stroke="black" d="M951.005,-183.077C996.04,-172.13 1048.77,-159.312 1091.31,-148.97"/>
<polygon fill="black" stroke="black" points="1092.17,-152.363 1101.06,-146.6 1090.52,-145.562 1092.17,-152.363"/>
</g>
<!-- land_cover_map_mat&#45;&gt;generate_netcdf_file_for_C4_fraction -->
<g id="edge5" class="edge"><title>land_cover_map_mat&#45;&gt;generate_netcdf_file_for_C4_fraction</title>
<path fill="none" stroke="black" d="M807.387,-183.077C787.972,-172.936 765.484,-161.191 746.537,-151.295"/>
<polygon fill="black" stroke="black" points="748.034,-148.128 737.549,-146.6 744.793,-154.332 748.034,-148.128"/>
</g>
<!-- land_cover_map_mat&#45;&gt;generate_netcdf_file_for_Grass_fraction -->
<g id="edge8" class="edge"><title>land_cover_map_mat&#45;&gt;generate_netcdf_file_for_Grass_fraction</title>
<path fill="none" stroke="black" d="M690.997,-183.8C687.974,-183.394 684.973,-182.994 682,-182.6 586.124,-169.894 478.107,-156.613 394.193,-146.524"/>
<polygon fill="black" stroke="black" points="394.427,-143.027 384.081,-145.31 393.593,-149.978 394.427,-143.027"/>
</g>
<!-- C3_Matrix -->
<g id="node8" class="node"><title>C3_Matrix</title>
<path fill="#ffffcc" stroke="black" d="M1064.13,-183.1C1064.13,-183.1 1277.87,-183.1 1277.87,-183.1 1283.87,-183.1 1289.87,-189.1 1289.87,-195.1 1289.87,-195.1 1289.87,-220.7 1289.87,-220.7 1289.87,-226.7 1283.87,-232.7 1277.87,-232.7 1277.87,-232.7 1064.13,-232.7 1064.13,-232.7 1058.13,-232.7 1052.13,-226.7 1052.13,-220.7 1052.13,-220.7 1052.13,-195.1 1052.13,-195.1 1052.13,-189.1 1058.13,-183.1 1064.13,-183.1"/>
<text text-anchor="middle" x="1171" y="-216.1" font-family="Helvetica,sans-Serif" font-size="14.00">C3_Matrix</text>
<polyline fill="none" stroke="black" points="1052.13,-207.9 1289.87,-207.9 "/>
<text text-anchor="middle" x="1171" y="-191.3" font-family="Helvetica,sans-Serif" font-size="14.00">file:C3_{start_year}_{end_year}.mat</text>
</g>
<!-- C3_Matrix&#45;&gt;generate_netcdf_file_for_C3_fraction -->
<g id="edge3" class="edge"><title>C3_Matrix&#45;&gt;generate_netcdf_file_for_C3_fraction</title>
<path fill="none" stroke="black" d="M1171,-182.866C1171,-174.639 1171,-165.376 1171,-156.909"/>
<polygon fill="black" stroke="black" points="1174.5,-156.749 1171,-146.749 1167.5,-156.749 1174.5,-156.749"/>
</g>
<!-- C4_Matrix -->
<g id="node9" class="node"><title>C4_Matrix</title>
<path fill="#ffffcc" stroke="black" d="M447.128,-183.1C447.128,-183.1 660.872,-183.1 660.872,-183.1 666.872,-183.1 672.872,-189.1 672.872,-195.1 672.872,-195.1 672.872,-220.7 672.872,-220.7 672.872,-226.7 666.872,-232.7 660.872,-232.7 660.872,-232.7 447.128,-232.7 447.128,-232.7 441.128,-232.7 435.128,-226.7 435.128,-220.7 435.128,-220.7 435.128,-195.1 435.128,-195.1 435.128,-189.1 441.128,-183.1 447.128,-183.1"/>
<text text-anchor="middle" x="554" y="-216.1" font-family="Helvetica,sans-Serif" font-size="14.00">C4_Matrix</text>
<polyline fill="none" stroke="black" points="435.128,-207.9 672.872,-207.9 "/>
<text text-anchor="middle" x="554" y="-191.3" font-family="Helvetica,sans-Serif" font-size="14.00">file:C4_{start_year}_{end_year}.mat</text>
</g>
<!-- C4_Matrix&#45;&gt;generate_netcdf_file_for_C4_fraction -->
<g id="edge6" class="edge"><title>C4_Matrix&#45;&gt;generate_netcdf_file_for_C4_fraction</title>
<path fill="none" stroke="black" d="M600.537,-183.077C620.436,-172.89 643.499,-161.084 662.884,-151.16"/>
<polygon fill="black" stroke="black" points="664.484,-154.273 671.791,-146.6 661.295,-148.042 664.484,-154.273"/>
</g>
<!-- Grass_Matrix -->
<g id="node10" class="node"><title>Grass_Matrix</title>
<path fill="#ffffcc" stroke="black" d="M134.406,-183.1C134.406,-183.1 367.594,-183.1 367.594,-183.1 373.594,-183.1 379.594,-189.1 379.594,-195.1 379.594,-195.1 379.594,-220.7 379.594,-220.7 379.594,-226.7 373.594,-232.7 367.594,-232.7 367.594,-232.7 134.406,-232.7 134.406,-232.7 128.406,-232.7 122.406,-226.7 122.406,-220.7 122.406,-220.7 122.406,-195.1 122.406,-195.1 122.406,-189.1 128.406,-183.1 134.406,-183.1"/>
<text text-anchor="middle" x="251" y="-216.1" font-family="Helvetica,sans-Serif" font-size="14.00">Grass_Matrix</text>
<polyline fill="none" stroke="black" points="122.406,-207.9 379.594,-207.9 "/>
<text text-anchor="middle" x="251" y="-191.3" font-family="Helvetica,sans-Serif" font-size="14.00">file:Grass_{start_year}_{end_year}.mat</text>
</g>
<!-- Grass_Matrix&#45;&gt;generate_netcdf_file_for_Grass_fraction -->
<g id="edge9" class="edge"><title>Grass_Matrix&#45;&gt;generate_netcdf_file_for_Grass_fraction</title>
<path fill="none" stroke="black" d="M251,-182.866C251,-174.639 251,-165.376 251,-156.909"/>
<polygon fill="black" stroke="black" points="254.5,-156.749 251,-146.749 247.5,-156.749 254.5,-156.749"/>
</g>
</g>
</svg>
