<?xml version="1.0" encoding="UTF-8" standalone="no"?>
<!DOCTYPE svg PUBLIC "-//W3C//DTD SVG 1.1//EN"
 "http://www.w3.org/Graphics/SVG/1.1/DTD/svg11.dtd">
<!-- Generated by graphviz version 2.38.0 (20140413.2041)
 -->
<!-- Title: Workflow Pages: 1 -->
<svg width="1723pt" height="468pt"
 viewBox="0.00 0.00 1723.00 468.00" xmlns="http://www.w3.org/2000/svg" xmlns:xlink="http://www.w3.org/1999/xlink">
<g id="graph0" class="graph" transform="scale(1 1) rotate(0) translate(4 464)">
<title>Workflow</title>
<polygon fill="white" stroke="none" points="-4,4 -4,-464 1719,-464 1719,4 -4,4"/>
<text text-anchor="middle" x="857.5" y="-439.8" font-family="Helvetica,sans-Serif" font-size="18.00">C3_C4_prepare_step</text>
<g id="clust1" class="cluster"><title>cluster_workflow_box_outer</title>
<polygon fill="none" stroke="black" stroke-width="2" points="8,-8 8,-422.4 1707,-422.4 1707,-8 8,-8"/>
</g>
<g id="clust2" class="cluster"><title>cluster_workflow_box_inner</title>
<polygon fill="none" stroke="black" stroke-width="0" points="16,-16 16,-414.4 1699,-414.4 1699,-16 16,-16"/>
</g>
<!-- fetch_SYNMAP_land_cover_map_variable -->
<g id="node1" class="node"><title>fetch_SYNMAP_land_cover_map_variable</title>
<polygon fill="#ccffcc" stroke="black" points="1415.78,-312.5 1134.22,-312.5 1134.22,-276.5 1415.78,-276.5 1415.78,-312.5"/>
<text text-anchor="middle" x="1275" y="-290.3" font-family="Helvetica,sans-Serif" font-size="14.00">fetch_SYNMAP_land_cover_map_variable</text>
</g>
<!-- lon_variable -->
<g id="node11" class="node"><title>lon_variable</title>
<path fill="#ffffcc" stroke="black" d="M1183.96,-225.9C1183.96,-225.9 1116.04,-225.9 1116.04,-225.9 1110.04,-225.9 1104.04,-219.9 1104.04,-213.9 1104.04,-213.9 1104.04,-201.9 1104.04,-201.9 1104.04,-195.9 1110.04,-189.9 1116.04,-189.9 1116.04,-189.9 1183.96,-189.9 1183.96,-189.9 1189.96,-189.9 1195.96,-195.9 1195.96,-201.9 1195.96,-201.9 1195.96,-213.9 1195.96,-213.9 1195.96,-219.9 1189.96,-225.9 1183.96,-225.9"/>
<text text-anchor="middle" x="1150" y="-203.7" font-family="Helvetica,sans-Serif" font-size="14.00">lon_variable</text>
</g>
<!-- fetch_SYNMAP_land_cover_map_variable&#45;&gt;lon_variable -->
<g id="edge1" class="edge"><title>fetch_SYNMAP_land_cover_map_variable&#45;&gt;lon_variable</title>
<path fill="none" stroke="black" d="M1249.7,-276.38C1230.73,-263.537 1204.56,-245.825 1183.79,-231.77"/>
<polygon fill="black" stroke="black" points="1185.5,-228.701 1175.26,-225.995 1181.58,-234.498 1185.5,-228.701"/>
</g>
<!-- lat_variable -->
<g id="node12" class="node"><title>lat_variable</title>
<path fill="#ffffcc" stroke="black" d="M1289.57,-225.9C1289.57,-225.9 1226.43,-225.9 1226.43,-225.9 1220.43,-225.9 1214.43,-219.9 1214.43,-213.9 1214.43,-213.9 1214.43,-201.9 1214.43,-201.9 1214.43,-195.9 1220.43,-189.9 1226.43,-189.9 1226.43,-189.9 1289.57,-189.9 1289.57,-189.9 1295.57,-189.9 1301.57,-195.9 1301.57,-201.9 1301.57,-201.9 1301.57,-213.9 1301.57,-213.9 1301.57,-219.9 1295.57,-225.9 1289.57,-225.9"/>
<text text-anchor="middle" x="1258" y="-203.7" font-family="Helvetica,sans-Serif" font-size="14.00">lat_variable</text>
</g>
<!-- fetch_SYNMAP_land_cover_map_variable&#45;&gt;lat_variable -->
<g id="edge2" class="edge"><title>fetch_SYNMAP_land_cover_map_variable&#45;&gt;lat_variable</title>
<path fill="none" stroke="black" d="M1271.56,-276.38C1269.23,-264.798 1266.11,-249.257 1263.45,-236.009"/>
<polygon fill="black" stroke="black" points="1266.84,-235.109 1261.44,-225.995 1259.97,-236.488 1266.84,-235.109"/>
</g>
<!-- lon_bnds_variable -->
<g id="node13" class="node"><title>lon_bnds_variable</title>
<path fill="#ffffcc" stroke="black" d="M1437.59,-225.9C1437.59,-225.9 1332.41,-225.9 1332.41,-225.9 1326.41,-225.9 1320.41,-219.9 1320.41,-213.9 1320.41,-213.9 1320.41,-201.9 1320.41,-201.9 1320.41,-195.9 1326.41,-189.9 1332.41,-189.9 1332.41,-189.9 1437.59,-189.9 1437.59,-189.9 1443.59,-189.9 1449.59,-195.9 1449.59,-201.9 1449.59,-201.9 1449.59,-213.9 1449.59,-213.9 1449.59,-219.9 1443.59,-225.9 1437.59,-225.9"/>
<text text-anchor="middle" x="1385" y="-203.7" font-family="Helvetica,sans-Serif" font-size="14.00">lon_bnds_variable</text>
</g>
<!-- fetch_SYNMAP_land_cover_map_variable&#45;&gt;lon_bnds_variable -->
<g id="edge3" class="edge"><title>fetch_SYNMAP_land_cover_map_variable&#45;&gt;lon_bnds_variable</title>
<path fill="none" stroke="black" d="M1297.26,-276.38C1313.81,-263.652 1336.58,-246.141 1354.77,-232.147"/>
<polygon fill="black" stroke="black" points="1356.98,-234.865 1362.77,-225.995 1352.71,-229.317 1356.98,-234.865"/>
</g>
<!-- lat_bnds_variable -->
<g id="node14" class="node"><title>lat_bnds_variable</title>
<path fill="#ffffcc" stroke="black" d="M1581.7,-225.9C1581.7,-225.9 1480.3,-225.9 1480.3,-225.9 1474.3,-225.9 1468.3,-219.9 1468.3,-213.9 1468.3,-213.9 1468.3,-201.9 1468.3,-201.9 1468.3,-195.9 1474.3,-189.9 1480.3,-189.9 1480.3,-189.9 1581.7,-189.9 1581.7,-189.9 1587.7,-189.9 1593.7,-195.9 1593.7,-201.9 1593.7,-201.9 1593.7,-213.9 1593.7,-213.9 1593.7,-219.9 1587.7,-225.9 1581.7,-225.9"/>
<text text-anchor="middle" x="1531" y="-203.7" font-family="Helvetica,sans-Serif" font-size="14.00">lat_bnds_variable</text>
</g>
<!-- fetch_SYNMAP_land_cover_map_variable&#45;&gt;lat_bnds_variable -->
<g id="edge4" class="edge"><title>fetch_SYNMAP_land_cover_map_variable&#45;&gt;lat_bnds_variable</title>
<path fill="none" stroke="black" d="M1327.39,-276.468C1364.23,-264.457 1414.66,-247.947 1459,-233.2 1462.94,-231.888 1467.01,-230.532 1471.1,-229.161"/>
<polygon fill="black" stroke="black" points="1472.3,-232.451 1480.66,-225.951 1470.07,-225.814 1472.3,-232.451"/>
</g>
<!-- save_SYNMAP_land_cover_map_variable -->
<g id="node2" class="node"><title>save_SYNMAP_land_cover_map_variable</title>
<polygon fill="#ccffcc" stroke="black" points="1461,-146.6 1181,-146.6 1181,-110.6 1461,-110.6 1461,-146.6"/>
<text text-anchor="middle" x="1321" y="-124.4" font-family="Helvetica,sans-Serif" font-size="14.00">save_SYNMAP_land_cover_map_variable</text>
</g>
<!-- land_cover_map_mat -->
<g id="node9" class="node"><title>land_cover_map_mat</title>
<path fill="#ffffcc" stroke="black" d="M1171.34,-24.5C1171.34,-24.5 1470.66,-24.5 1470.66,-24.5 1476.66,-24.5 1482.66,-30.5 1482.66,-36.5 1482.66,-36.5 1482.66,-62.1 1482.66,-62.1 1482.66,-68.1 1476.66,-74.1 1470.66,-74.1 1470.66,-74.1 1171.34,-74.1 1171.34,-74.1 1165.34,-74.1 1159.34,-68.1 1159.34,-62.1 1159.34,-62.1 1159.34,-36.5 1159.34,-36.5 1159.34,-30.5 1165.34,-24.5 1171.34,-24.5"/>
<text text-anchor="middle" x="1321" y="-57.5" font-family="Helvetica,sans-Serif" font-size="14.00">land_cover_map_mat</text>
<polyline fill="none" stroke="black" points="1159.34,-49.3 1482.66,-49.3 "/>
<text text-anchor="middle" x="1321" y="-32.7" font-family="Helvetica,sans-Serif" font-size="14.00">file:land_cover_map_{start_year}_{end_year}.mat</text>
</g>
<!-- save_SYNMAP_land_cover_map_variable&#45;&gt;land_cover_map_mat -->
<g id="edge6" class="edge"><title>save_SYNMAP_land_cover_map_variable&#45;&gt;land_cover_map_mat</title>
<path fill="none" stroke="black" d="M1321,-110.445C1321,-102.689 1321,-93.2393 1321,-84.1498"/>
<polygon fill="black" stroke="black" points="1324.5,-84.1496 1321,-74.1497 1317.5,-84.1497 1324.5,-84.1496"/>
</g>
<!-- fetch_monthly_mean_air_temperature_data -->
<g id="node3" class="node"><title>fetch_monthly_mean_air_temperature_data</title>
<polygon fill="#ccffcc" stroke="black" points="1091.52,-312.5 804.479,-312.5 804.479,-276.5 1091.52,-276.5 1091.52,-312.5"/>
<text text-anchor="middle" x="948" y="-290.3" font-family="Helvetica,sans-Serif" font-size="14.00">fetch_monthly_mean_air_temperature_data</text>
</g>
<!-- Tair_Matrix -->
<g id="node6" class="node"><title>Tair_Matrix</title>
<path fill="#ffffcc" stroke="black" d="M838.022,-183.1C838.022,-183.1 1057.98,-183.1 1057.98,-183.1 1063.98,-183.1 1069.98,-189.1 1069.98,-195.1 1069.98,-195.1 1069.98,-220.7 1069.98,-220.7 1069.98,-226.7 1063.98,-232.7 1057.98,-232.7 1057.98,-232.7 838.022,-232.7 838.022,-232.7 832.022,-232.7 826.022,-226.7 826.022,-220.7 826.022,-220.7 826.022,-195.1 826.022,-195.1 826.022,-189.1 832.022,-183.1 838.022,-183.1"/>
<text text-anchor="middle" x="948" y="-216.1" font-family="Helvetica,sans-Serif" font-size="14.00">Tair_Matrix</text>
<polyline fill="none" stroke="black" points="826.022,-207.9 1069.98,-207.9 "/>
<text text-anchor="middle" x="948" y="-191.3" font-family="Helvetica,sans-Serif" font-size="14.00">file:Tair_{start_year}_{end_year}.mat</text>
</g>
<!-- fetch_monthly_mean_air_temperature_data&#45;&gt;Tair_Matrix -->
<g id="edge11" class="edge"><title>fetch_monthly_mean_air_temperature_data&#45;&gt;Tair_Matrix</title>
<path fill="none" stroke="black" d="M948,-276.38C948,-266.769 948,-254.431 948,-242.939"/>
<polygon fill="black" stroke="black" points="951.5,-242.726 948,-232.726 944.5,-242.726 951.5,-242.726"/>
</g>
<!-- fetch_monthly_mean_precipitation_data -->
<g id="node4" class="node"><title>fetch_monthly_mean_precipitation_data</title>
<polygon fill="#ccffcc" stroke="black" points="465.186,-312.5 200.814,-312.5 200.814,-276.5 465.186,-276.5 465.186,-312.5"/>
<text text-anchor="middle" x="333" y="-290.3" font-family="Helvetica,sans-Serif" font-size="14.00">fetch_monthly_mean_precipitation_data</text>
</g>
<!-- Rain_Matrix -->
<g id="node7" class="node"><title>Rain_Matrix</title>
<path fill="#ffffcc" stroke="black" d="M220.684,-183.1C220.684,-183.1 445.316,-183.1 445.316,-183.1 451.316,-183.1 457.316,-189.1 457.316,-195.1 457.316,-195.1 457.316,-220.7 457.316,-220.7 457.316,-226.7 451.316,-232.7 445.316,-232.7 445.316,-232.7 220.684,-232.7 220.684,-232.7 214.684,-232.7 208.684,-226.7 208.684,-220.7 208.684,-220.7 208.684,-195.1 208.684,-195.1 208.684,-189.1 214.684,-183.1 220.684,-183.1"/>
<text text-anchor="middle" x="333" y="-216.1" font-family="Helvetica,sans-Serif" font-size="14.00">Rain_Matrix</text>
<polyline fill="none" stroke="black" points="208.684,-207.9 457.316,-207.9 "/>
<text text-anchor="middle" x="333" y="-191.3" font-family="Helvetica,sans-Serif" font-size="14.00">file:Rain_{start_year}_{end_year}.mat</text>
</g>
<!-- fetch_monthly_mean_precipitation_data&#45;&gt;Rain_Matrix -->
<g id="edge13" class="edge"><title>fetch_monthly_mean_precipitation_data&#45;&gt;Rain_Matrix</title>
<path fill="none" stroke="black" d="M333,-276.38C333,-266.769 333,-254.431 333,-242.939"/>
<polygon fill="black" stroke="black" points="336.5,-242.726 333,-232.726 329.5,-242.726 336.5,-242.726"/>
</g>
<!-- initialize_Grass_Matrix -->
<g id="node5" class="node"><title>initialize_Grass_Matrix</title>
<polygon fill="#ccffcc" stroke="black" points="1691.27,-399.1 1534.73,-399.1 1534.73,-363.1 1691.27,-363.1 1691.27,-399.1"/>
<text text-anchor="middle" x="1613" y="-376.9" font-family="Helvetica,sans-Serif" font-size="14.00">initialize_Grass_Matrix</text>
</g>
<!-- Grass_variable -->
<g id="node8" class="node"><title>Grass_variable</title>
<path fill="#ffffcc" stroke="black" d="M1445.41,-269.7C1445.41,-269.7 1678.59,-269.7 1678.59,-269.7 1684.59,-269.7 1690.59,-275.7 1690.59,-281.7 1690.59,-281.7 1690.59,-307.3 1690.59,-307.3 1690.59,-313.3 1684.59,-319.3 1678.59,-319.3 1678.59,-319.3 1445.41,-319.3 1445.41,-319.3 1439.41,-319.3 1433.41,-313.3 1433.41,-307.3 1433.41,-307.3 1433.41,-281.7 1433.41,-281.7 1433.41,-275.7 1439.41,-269.7 1445.41,-269.7"/>
<text text-anchor="middle" x="1562" y="-302.7" font-family="Helvetica,sans-Serif" font-size="14.00">Grass_variable</text>
<polyline fill="none" stroke="black" points="1433.41,-294.5 1690.59,-294.5 "/>
<text text-anchor="middle" x="1562" y="-277.9" font-family="Helvetica,sans-Serif" font-size="14.00">file:Grass_{start_year}_{end_year}.mat</text>
</g>
<!-- initialize_Grass_Matrix&#45;&gt;Grass_variable -->
<g id="edge15" class="edge"><title>initialize_Grass_Matrix&#45;&gt;Grass_variable</title>
<path fill="none" stroke="black" d="M1602.68,-362.98C1596.65,-352.977 1588.84,-340.019 1581.67,-328.137"/>
<polygon fill="black" stroke="black" points="1584.52,-326.083 1576.36,-319.326 1578.53,-329.697 1584.52,-326.083"/>
</g>
<!-- SYNMAP_land_cover_map_data -->
<g id="node10" class="node"><title>SYNMAP_land_cover_map_data</title>
<path fill="#ffffcc" stroke="black" d="M1265.31,-356.3C1265.31,-356.3 1504.69,-356.3 1504.69,-356.3 1510.69,-356.3 1516.69,-362.3 1516.69,-368.3 1516.69,-368.3 1516.69,-393.9 1516.69,-393.9 1516.69,-399.9 1510.69,-405.9 1504.69,-405.9 1504.69,-405.9 1265.31,-405.9 1265.31,-405.9 1259.31,-405.9 1253.31,-399.9 1253.31,-393.9 1253.31,-393.9 1253.31,-368.3 1253.31,-368.3 1253.31,-362.3 1259.31,-356.3 1265.31,-356.3"/>
<text text-anchor="middle" x="1385" y="-389.3" font-family="Helvetica,sans-Serif" font-size="14.00">SYNMAP_land_cover_map_data</text>
<polyline fill="none" stroke="black" points="1253.31,-381.1 1516.69,-381.1 "/>
<text text-anchor="middle" x="1385" y="-364.5" font-family="Helvetica,sans-Serif" font-size="14.00">inputs/land_cover/SYNMAP_NA_QD.nc</text>
</g>
<!-- SYNMAP_land_cover_map_data&#45;&gt;fetch_SYNMAP_land_cover_map_variable -->
<g id="edge5" class="edge"><title>SYNMAP_land_cover_map_data&#45;&gt;fetch_SYNMAP_land_cover_map_variable</title>
<path fill="none" stroke="black" d="M1353.77,-356.083C1338.55,-344.378 1320.32,-330.359 1305.24,-318.756"/>
<polygon fill="black" stroke="black" points="1307.28,-315.91 1297.22,-312.588 1303.01,-321.459 1307.28,-315.91"/>
</g>
<!-- lon_variable&#45;&gt;save_SYNMAP_land_cover_map_variable -->
<g id="edge7" class="edge"><title>lon_variable&#45;&gt;save_SYNMAP_land_cover_map_variable</title>
<path fill="none" stroke="black" d="M1187.95,-189.745C1213.3,-178.286 1246.82,-163.131 1273.88,-150.901"/>
<polygon fill="black" stroke="black" points="1275.49,-154.016 1283.16,-146.707 1272.6,-147.637 1275.49,-154.016"/>
</g>
<!-- lat_variable&#45;&gt;save_SYNMAP_land_cover_map_variable -->
<g id="edge8" class="edge"><title>lat_variable&#45;&gt;save_SYNMAP_land_cover_map_variable</title>
<path fill="none" stroke="black" d="M1271.98,-189.745C1280.38,-179.437 1291.22,-166.138 1300.57,-154.667"/>
<polygon fill="black" stroke="black" points="1303.45,-156.67 1307.06,-146.707 1298.03,-152.248 1303.45,-156.67"/>
</g>
<!-- lon_bnds_variable&#45;&gt;save_SYNMAP_land_cover_map_variable -->
<g id="edge9" class="edge"><title>lon_bnds_variable&#45;&gt;save_SYNMAP_land_cover_map_variable</title>
<path fill="none" stroke="black" d="M1370.8,-189.745C1362.26,-179.437 1351.25,-166.138 1341.75,-154.667"/>
<polygon fill="black" stroke="black" points="1344.24,-152.178 1335.16,-146.707 1338.85,-156.642 1344.24,-152.178"/>
</g>
<!-- lat_bnds_variable&#45;&gt;save_SYNMAP_land_cover_map_variable -->
<g id="edge10" class="edge"><title>lat_bnds_variable&#45;&gt;save_SYNMAP_land_cover_map_variable</title>
<path fill="none" stroke="black" d="M1484.65,-189.84C1452.88,-178.146 1410.56,-162.568 1376.92,-150.183"/>
<polygon fill="black" stroke="black" points="1377.82,-146.786 1367.23,-146.616 1375.4,-153.355 1377.82,-146.786"/>
</g>
<!-- mean_airtemp -->
<g id="node15" class="node"><title>mean_airtemp</title>
<path fill="#ffffcc" stroke="black" d="M672.314,-356.3C672.314,-356.3 1223.69,-356.3 1223.69,-356.3 1229.69,-356.3 1235.69,-362.3 1235.69,-368.3 1235.69,-368.3 1235.69,-393.9 1235.69,-393.9 1235.69,-399.9 1229.69,-405.9 1223.69,-405.9 1223.69,-405.9 672.314,-405.9 672.314,-405.9 666.314,-405.9 660.314,-399.9 660.314,-393.9 660.314,-393.9 660.314,-368.3 660.314,-368.3 660.314,-362.3 666.314,-356.3 672.314,-356.3"/>
<text text-anchor="middle" x="948" y="-389.3" font-family="Helvetica,sans-Serif" font-size="14.00">mean_airtemp</text>
<polyline fill="none" stroke="black" points="660.314,-381.1 1235.69,-381.1 "/>
<text text-anchor="middle" x="948" y="-364.5" font-family="Helvetica,sans-Serif" font-size="14.00">file:inputs/narr_air.2m_monthly/air.2m_monthly_{start_year}_{end_year}_mean.{month}.nc</text>
</g>
<!-- mean_airtemp&#45;&gt;fetch_monthly_mean_air_temperature_data -->
<g id="edge12" class="edge"><title>mean_airtemp&#45;&gt;fetch_monthly_mean_air_temperature_data</title>
<path fill="none" stroke="black" d="M948,-356.083C948,-345.678 948,-333.445 948,-322.706"/>
<polygon fill="black" stroke="black" points="951.5,-322.588 948,-312.588 944.5,-322.588 951.5,-322.588"/>
</g>
<!-- mean_precip -->
<g id="node16" class="node"><title>mean_precip</title>
<path fill="#ffffcc" stroke="black" d="M35.51,-356.3C35.51,-356.3 630.49,-356.3 630.49,-356.3 636.49,-356.3 642.49,-362.3 642.49,-368.3 642.49,-368.3 642.49,-393.9 642.49,-393.9 642.49,-399.9 636.49,-405.9 630.49,-405.9 630.49,-405.9 35.51,-405.9 35.51,-405.9 29.51,-405.9 23.51,-399.9 23.51,-393.9 23.51,-393.9 23.51,-368.3 23.51,-368.3 23.51,-362.3 29.51,-356.3 35.51,-356.3"/>
<text text-anchor="middle" x="333" y="-389.3" font-family="Helvetica,sans-Serif" font-size="14.00">mean_precip</text>
<polyline fill="none" stroke="black" points="23.51,-381.1 642.49,-381.1 "/>
<text text-anchor="middle" x="333" y="-364.5" font-family="Helvetica,sans-Serif" font-size="14.00">file:inputs/narr_apcp_rescaled_monthly/apcp_monthly_{start_year}_{end_year}_mean.{month}.nc</text>
</g>
<!-- mean_precip&#45;&gt;fetch_monthly_mean_precipitation_data -->
<g id="edge14" class="edge"><title>mean_precip&#45;&gt;fetch_monthly_mean_precipitation_data</title>
<path fill="none" stroke="black" d="M333,-356.083C333,-345.678 333,-333.445 333,-322.706"/>
<polygon fill="black" stroke="black" points="336.5,-322.588 333,-312.588 329.5,-322.588 336.5,-322.588"/>
</g>
</g>
</svg>
