<?xml version="1.0" encoding="UTF-8" standalone="no"?>
<!DOCTYPE svg PUBLIC "-//W3C//DTD SVG 1.1//EN"
 "http://www.w3.org/Graphics/SVG/1.1/DTD/svg11.dtd">
<!-- Generated by graphviz version 2.38.0 (20140413.2041)
 -->
<!-- Title: Workflow Pages: 1 -->
<svg width="1878pt" height="547pt"
 viewBox="0.00 0.00 1878.00 546.80" xmlns="http://www.w3.org/2000/svg" xmlns:xlink="http://www.w3.org/1999/xlink">
<g id="graph0" class="graph" transform="scale(1 1) rotate(0) translate(4 542.8)">
<title>Workflow</title>
<polygon fill="white" stroke="none" points="-4,4 -4,-542.8 1874,-542.8 1874,4 -4,4"/>
<text text-anchor="middle" x="935" y="-518.6" font-family="Courier,monospace" font-size="18.00">calculate_goal_model</text>
<g id="clust1" class="cluster"><title>cluster_workflow_box_outer</title>
<polygon fill="none" stroke="black" stroke-width="2" points="8,-62 8,-447.2 1862,-447.2 1862,-62 8,-62"/>
</g>
<g id="clust2" class="cluster"><title>cluster_workflow_box_inner</title>
<polygon fill="none" stroke="white" stroke-width="2" points="16,-70 16,-439.2 1854,-439.2 1854,-70 16,-70"/>
</g>
<g id="clust3" class="cluster"><title>cluster_input_ports_group_outer</title>
<polygon fill="none" stroke="white" points="957,-455.2 957,-501.2 1163,-501.2 1163,-455.2 957,-455.2"/>
</g>
<g id="clust4" class="cluster"><title>cluster_input_ports_group_inner</title>
<polygon fill="none" stroke="white" points="965,-463.2 965,-493.2 1155,-493.2 1155,-463.2 965,-463.2"/>
</g>
<g id="clust5" class="cluster"><title>cluster_output_ports_group_outer</title>
<polygon fill="none" stroke="white" points="1009,-8 1009,-54 1119,-54 1119,-8 1009,-8"/>
</g>
<g id="clust6" class="cluster"><title>cluster_output_ports_group_inner</title>
<polygon fill="none" stroke="white" points="1017,-16 1017,-46 1111,-46 1111,-16 1017,-16"/>
</g>
<!-- set_up_configuration_and_start_provenance_tracking -->
<g id="node1" class="node"><title>set_up_configuration_and_start_provenance_tracking</title>
<polygon fill="#ccffcc" stroke="black" points="1746.93,-344.6 1311.07,-344.6 1311.07,-308.6 1746.93,-308.6 1746.93,-344.6"/>
<text text-anchor="middle" x="1529" y="-322.4" font-family="Courier,monospace" font-size="14.00">set_up_configuration_and_start_provenance_tracking</text>
</g>
<!-- dir_goal -->
<g id="node18" class="node"><title>dir_goal</title>
<path fill="#fcfcfc" stroke="black" d="M1446.79,-272.6C1446.79,-272.6 1405.21,-272.6 1405.21,-272.6 1399.21,-272.6 1393.21,-266.6 1393.21,-260.6 1393.21,-260.6 1393.21,-248.6 1393.21,-248.6 1393.21,-242.6 1399.21,-236.6 1405.21,-236.6 1405.21,-236.6 1446.79,-236.6 1446.79,-236.6 1452.79,-236.6 1458.79,-242.6 1458.79,-248.6 1458.79,-248.6 1458.79,-260.6 1458.79,-260.6 1458.79,-266.6 1452.79,-272.6 1446.79,-272.6"/>
<text text-anchor="middle" x="1426" y="-250.4" font-family="Helvetica,sans-Serif" font-size="14.00">dir_goal</text>
</g>
<!-- set_up_configuration_and_start_provenance_tracking&#45;&gt;dir_goal -->
<g id="edge1" class="edge"><title>set_up_configuration_and_start_provenance_tracking&#45;&gt;dir_goal</title>
<path fill="none" stroke="black" d="M1503.8,-308.476C1490.59,-299.493 1474.21,-288.363 1459.89,-278.634"/>
<polygon fill="black" stroke="black" points="1461.53,-275.516 1451.29,-272.79 1457.6,-281.305 1461.53,-275.516"/>
</g>
<!-- read_in_OHI_region_rasters -->
<g id="node2" class="node"><title>read_in_OHI_region_rasters</title>
<polygon fill="#ccffcc" stroke="black" points="1096.36,-344.6 861.636,-344.6 861.636,-308.6 1096.36,-308.6 1096.36,-344.6"/>
<text text-anchor="middle" x="979" y="-322.4" font-family="Courier,monospace" font-size="14.00">read_in_OHI_region_rasters</text>
</g>
<!-- rast_3nm -->
<g id="node13" class="node"><title>rast_3nm</title>
<path fill="#ffffcc" stroke="black" d="M868.343,-272.6C868.343,-272.6 817.657,-272.6 817.657,-272.6 811.657,-272.6 805.657,-266.6 805.657,-260.6 805.657,-260.6 805.657,-248.6 805.657,-248.6 805.657,-242.6 811.657,-236.6 817.657,-236.6 817.657,-236.6 868.343,-236.6 868.343,-236.6 874.343,-236.6 880.343,-242.6 880.343,-248.6 880.343,-248.6 880.343,-260.6 880.343,-260.6 880.343,-266.6 874.343,-272.6 868.343,-272.6"/>
<text text-anchor="middle" x="843" y="-250.4" font-family="Helvetica,sans-Serif" font-size="14.00">rast_3nm</text>
</g>
<!-- read_in_OHI_region_rasters&#45;&gt;rast_3nm -->
<g id="edge3" class="edge"><title>read_in_OHI_region_rasters&#45;&gt;rast_3nm</title>
<path fill="none" stroke="black" d="M945.731,-308.476C927.537,-299.112 904.809,-287.414 885.36,-277.403"/>
<polygon fill="black" stroke="black" points="886.89,-274.254 876.397,-272.79 883.687,-280.478 886.89,-274.254"/>
</g>
<!-- rast_1km -->
<g id="node14" class="node"><title>rast_1km</title>
<path fill="#ffffcc" stroke="black" d="M959.561,-272.6C959.561,-272.6 910.439,-272.6 910.439,-272.6 904.439,-272.6 898.439,-266.6 898.439,-260.6 898.439,-260.6 898.439,-248.6 898.439,-248.6 898.439,-242.6 904.439,-236.6 910.439,-236.6 910.439,-236.6 959.561,-236.6 959.561,-236.6 965.561,-236.6 971.561,-242.6 971.561,-248.6 971.561,-248.6 971.561,-260.6 971.561,-260.6 971.561,-266.6 965.561,-272.6 959.561,-272.6"/>
<text text-anchor="middle" x="935" y="-250.4" font-family="Helvetica,sans-Serif" font-size="14.00">rast_1km</text>
</g>
<!-- read_in_OHI_region_rasters&#45;&gt;rast_1km -->
<g id="edge4" class="edge"><title>read_in_OHI_region_rasters&#45;&gt;rast_1km</title>
<path fill="none" stroke="black" d="M968.124,-308.297C963.008,-300.159 956.805,-290.289 951.155,-281.301"/>
<polygon fill="black" stroke="black" points="954.036,-279.308 945.751,-272.704 948.11,-283.033 954.036,-279.308"/>
</g>
<!-- rast_ws -->
<g id="node15" class="node"><title>rast_ws</title>
<path fill="#ffffcc" stroke="black" d="M1042.22,-272.6C1042.22,-272.6 1001.78,-272.6 1001.78,-272.6 995.777,-272.6 989.777,-266.6 989.777,-260.6 989.777,-260.6 989.777,-248.6 989.777,-248.6 989.777,-242.6 995.777,-236.6 1001.78,-236.6 1001.78,-236.6 1042.22,-236.6 1042.22,-236.6 1048.22,-236.6 1054.22,-242.6 1054.22,-248.6 1054.22,-248.6 1054.22,-260.6 1054.22,-260.6 1054.22,-266.6 1048.22,-272.6 1042.22,-272.6"/>
<text text-anchor="middle" x="1022" y="-250.4" font-family="Helvetica,sans-Serif" font-size="14.00">rast_ws</text>
</g>
<!-- read_in_OHI_region_rasters&#45;&gt;rast_ws -->
<g id="edge5" class="edge"><title>read_in_OHI_region_rasters&#45;&gt;rast_ws</title>
<path fill="none" stroke="black" d="M989.629,-308.297C994.628,-300.159 1000.69,-290.289 1006.21,-281.301"/>
<polygon fill="black" stroke="black" points="1009.24,-283.057 1011.49,-272.704 1003.28,-279.393 1009.24,-283.057"/>
</g>
<!-- rast_pep -->
<g id="node16" class="node"><title>rast_pep</title>
<path fill="#ffffcc" stroke="black" d="M1130.47,-272.6C1130.47,-272.6 1083.53,-272.6 1083.53,-272.6 1077.53,-272.6 1071.53,-266.6 1071.53,-260.6 1071.53,-260.6 1071.53,-248.6 1071.53,-248.6 1071.53,-242.6 1077.53,-236.6 1083.53,-236.6 1083.53,-236.6 1130.47,-236.6 1130.47,-236.6 1136.47,-236.6 1142.47,-242.6 1142.47,-248.6 1142.47,-248.6 1142.47,-260.6 1142.47,-260.6 1142.47,-266.6 1136.47,-272.6 1130.47,-272.6"/>
<text text-anchor="middle" x="1107" y="-250.4" font-family="Helvetica,sans-Serif" font-size="14.00">rast_pep</text>
</g>
<!-- read_in_OHI_region_rasters&#45;&gt;rast_pep -->
<g id="edge6" class="edge"><title>read_in_OHI_region_rasters&#45;&gt;rast_pep</title>
<path fill="none" stroke="black" d="M1010.31,-308.476C1027.2,-299.239 1048.25,-287.731 1066.38,-277.812"/>
<polygon fill="black" stroke="black" points="1068.47,-280.659 1075.57,-272.79 1065.11,-274.517 1068.47,-280.659"/>
</g>
<!-- rast_wdpa_pep -->
<g id="node17" class="node"><title>rast_wdpa_pep</title>
<path fill="#ffffcc" stroke="black" d="M1259.7,-272.6C1259.7,-272.6 1172.3,-272.6 1172.3,-272.6 1166.3,-272.6 1160.3,-266.6 1160.3,-260.6 1160.3,-260.6 1160.3,-248.6 1160.3,-248.6 1160.3,-242.6 1166.3,-236.6 1172.3,-236.6 1172.3,-236.6 1259.7,-236.6 1259.7,-236.6 1265.7,-236.6 1271.7,-242.6 1271.7,-248.6 1271.7,-248.6 1271.7,-260.6 1271.7,-260.6 1271.7,-266.6 1265.7,-272.6 1259.7,-272.6"/>
<text text-anchor="middle" x="1216" y="-250.4" font-family="Helvetica,sans-Serif" font-size="14.00">rast_wdpa_pep</text>
</g>
<!-- read_in_OHI_region_rasters&#45;&gt;rast_wdpa_pep -->
<g id="edge7" class="edge"><title>read_in_OHI_region_rasters&#45;&gt;rast_wdpa_pep</title>
<path fill="none" stroke="black" d="M1036.67,-308.566C1070.99,-298.43 1114.64,-285.537 1150.29,-275.009"/>
<polygon fill="black" stroke="black" points="1151.52,-278.296 1160.11,-272.106 1149.53,-271.582 1151.52,-278.296"/>
</g>
<!-- outputs_zonal_stats_dataframes_for_protected_cells -->
<g id="node3" class="node"><title>outputs_zonal_stats_dataframes_for_protected_cells</title>
<polygon fill="#ccffcc" stroke="black" points="1281.93,-200.6 846.07,-200.6 846.07,-164.6 1281.93,-164.6 1281.93,-200.6"/>
<text text-anchor="middle" x="1064" y="-178.4" font-family="Courier,monospace" font-size="14.00">outputs_zonal_stats_dataframes_for_protected_cells</text>
</g>
<!-- zonal_3nm_file -->
<g id="node4" class="node"><title>zonal_3nm_file</title>
<path fill="#ffffcc" stroke="black" d="M682.913,-78.5C682.913,-78.5 909.087,-78.5 909.087,-78.5 915.087,-78.5 921.087,-84.5 921.087,-90.5 921.087,-90.5 921.087,-116.1 921.087,-116.1 921.087,-122.1 915.087,-128.1 909.087,-128.1 909.087,-128.1 682.913,-128.1 682.913,-128.1 676.913,-128.1 670.913,-122.1 670.913,-116.1 670.913,-116.1 670.913,-90.5 670.913,-90.5 670.913,-84.5 676.913,-78.5 682.913,-78.5"/>
<text text-anchor="middle" x="796" y="-111.5" font-family="Helvetica,sans-Serif" font-size="14.00">zonal_3nm_file</text>
<polyline fill="none" stroke="black" points="670.913,-103.3 921.087,-103.3 "/>
<text text-anchor="middle" x="796" y="-86.7" font-family="Helvetica,sans-Serif" font-size="14.00">file:{dir_goal}/int/zonal_stats_3nm.csv</text>
</g>
<!-- outputs_zonal_stats_dataframes_for_protected_cells&#45;&gt;zonal_3nm_file -->
<g id="edge13" class="edge"><title>outputs_zonal_stats_dataframes_for_protected_cells&#45;&gt;zonal_3nm_file</title>
<path fill="none" stroke="black" d="M1004.85,-164.54C970.678,-154.683 926.938,-142.067 888.324,-130.929"/>
<polygon fill="black" stroke="black" points="889.205,-127.541 878.627,-128.132 887.265,-134.267 889.205,-127.541"/>
</g>
<!-- zonal_1km_file -->
<g id="node5" class="node"><title>zonal_1km_file</title>
<path fill="#ffffcc" stroke="black" d="M951.304,-78.5C951.304,-78.5 1176.7,-78.5 1176.7,-78.5 1182.7,-78.5 1188.7,-84.5 1188.7,-90.5 1188.7,-90.5 1188.7,-116.1 1188.7,-116.1 1188.7,-122.1 1182.7,-128.1 1176.7,-128.1 1176.7,-128.1 951.304,-128.1 951.304,-128.1 945.304,-128.1 939.304,-122.1 939.304,-116.1 939.304,-116.1 939.304,-90.5 939.304,-90.5 939.304,-84.5 945.304,-78.5 951.304,-78.5"/>
<text text-anchor="middle" x="1064" y="-111.5" font-family="Helvetica,sans-Serif" font-size="14.00">zonal_1km_file</text>
<polyline fill="none" stroke="black" points="939.304,-103.3 1188.7,-103.3 "/>
<text text-anchor="middle" x="1064" y="-86.7" font-family="Helvetica,sans-Serif" font-size="14.00">file:{dir_goal}/int/zonal_stats_1km.csv</text>
</g>
<!-- outputs_zonal_stats_dataframes_for_protected_cells&#45;&gt;zonal_1km_file -->
<g id="edge14" class="edge"><title>outputs_zonal_stats_dataframes_for_protected_cells&#45;&gt;zonal_1km_file</title>
<path fill="none" stroke="black" d="M1064,-164.445C1064,-156.689 1064,-147.239 1064,-138.15"/>
<polygon fill="black" stroke="black" points="1067.5,-138.15 1064,-128.15 1060.5,-138.15 1067.5,-138.15"/>
</g>
<!-- zonal_ws_file -->
<g id="node6" class="node"><title>zonal_ws_file</title>
<path fill="#ffffcc" stroke="black" d="M1218.97,-78.5C1218.97,-78.5 1435.03,-78.5 1435.03,-78.5 1441.03,-78.5 1447.03,-84.5 1447.03,-90.5 1447.03,-90.5 1447.03,-116.1 1447.03,-116.1 1447.03,-122.1 1441.03,-128.1 1435.03,-128.1 1435.03,-128.1 1218.97,-128.1 1218.97,-128.1 1212.97,-128.1 1206.97,-122.1 1206.97,-116.1 1206.97,-116.1 1206.97,-90.5 1206.97,-90.5 1206.97,-84.5 1212.97,-78.5 1218.97,-78.5"/>
<text text-anchor="middle" x="1327" y="-111.5" font-family="Helvetica,sans-Serif" font-size="14.00">zonal_ws_file</text>
<polyline fill="none" stroke="black" points="1206.97,-103.3 1447.03,-103.3 "/>
<text text-anchor="middle" x="1327" y="-86.7" font-family="Helvetica,sans-Serif" font-size="14.00">file:{dir_goal}/int/zonal_stats_ws.csv</text>
</g>
<!-- outputs_zonal_stats_dataframes_for_protected_cells&#45;&gt;zonal_ws_file -->
<g id="edge15" class="edge"><title>outputs_zonal_stats_dataframes_for_protected_cells&#45;&gt;zonal_ws_file</title>
<path fill="none" stroke="black" d="M1122.04,-164.54C1155.37,-154.745 1197.96,-142.226 1235.68,-131.14"/>
<polygon fill="black" stroke="black" points="1237.06,-134.384 1245.66,-128.206 1235.08,-127.668 1237.06,-134.384"/>
</g>
<!-- zonal_3nm_file_output_port -->
<g id="node25" class="node"><title>zonal_3nm_file_output_port</title>
<ellipse fill="#ffffff" stroke="black" cx="1032" cy="-31" rx="7" ry="7"/>
</g>
<!-- zonal_3nm_file&#45;&gt;zonal_3nm_file_output_port -->
<g id="edge28" class="edge"><title>zonal_3nm_file&#45;&gt;zonal_3nm_file_output_port</title>
<path fill="none" stroke="black" d="M874.981,-78.4597C893.054,-73.0285 912.187,-67.2981 930,-62 960.312,-52.9843 995.737,-42.5993 1015.85,-36.7158"/>
<polygon fill="black" stroke="black" points="1016.94,-40.0464 1025.55,-33.8818 1014.97,-33.3275 1016.94,-40.0464"/>
</g>
<!-- zonal_1km_file_output_port -->
<g id="node26" class="node"><title>zonal_1km_file_output_port</title>
<ellipse fill="#ffffff" stroke="black" cx="1064" cy="-31" rx="7" ry="7"/>
</g>
<!-- zonal_1km_file&#45;&gt;zonal_1km_file_output_port -->
<g id="edge29" class="edge"><title>zonal_1km_file&#45;&gt;zonal_1km_file_output_port</title>
<path fill="none" stroke="black" d="M1064,-78.4996C1064,-68.5289 1064,-57.1933 1064,-48.2105"/>
<polygon fill="black" stroke="black" points="1067.5,-48.0698 1064,-38.0698 1060.5,-48.0699 1067.5,-48.0698"/>
</g>
<!-- zonal_ws_file_output_port -->
<g id="node27" class="node"><title>zonal_ws_file_output_port</title>
<ellipse fill="#ffffff" stroke="black" cx="1096" cy="-31" rx="7" ry="7"/>
</g>
<!-- zonal_ws_file&#45;&gt;zonal_ws_file_output_port -->
<g id="edge30" class="edge"><title>zonal_ws_file&#45;&gt;zonal_ws_file_output_port</title>
<path fill="none" stroke="black" d="M1251.35,-78.4342C1233.85,-72.9776 1215.29,-67.2428 1198,-62 1167.74,-52.823 1132.3,-42.4925 1112.16,-36.6629"/>
<polygon fill="black" stroke="black" points="1113.03,-33.2718 1102.46,-33.858 1111.09,-39.9966 1113.03,-33.2718"/>
</g>
<!-- setup_R -->
<g id="node7" class="node"><title>setup_R</title>
<path fill="#ffffcc" stroke="black" d="M1834.13,-423.9C1834.13,-423.9 1789.87,-423.9 1789.87,-423.9 1783.87,-423.9 1777.87,-417.9 1777.87,-411.9 1777.87,-411.9 1777.87,-399.9 1777.87,-399.9 1777.87,-393.9 1783.87,-387.9 1789.87,-387.9 1789.87,-387.9 1834.13,-387.9 1834.13,-387.9 1840.13,-387.9 1846.13,-393.9 1846.13,-399.9 1846.13,-399.9 1846.13,-411.9 1846.13,-411.9 1846.13,-417.9 1840.13,-423.9 1834.13,-423.9"/>
<text text-anchor="middle" x="1812" y="-401.7" font-family="Helvetica,sans-Serif" font-size="14.00">setup_R</text>
</g>
<!-- setup_R&#45;&gt;set_up_configuration_and_start_provenance_tracking -->
<g id="edge2" class="edge"><title>setup_R&#45;&gt;set_up_configuration_and_start_provenance_tracking</title>
<path fill="none" stroke="black" d="M1784.37,-387.71C1779.37,-385.064 1774.12,-382.563 1769,-380.6 1730.71,-365.929 1687.34,-354.804 1648.11,-346.63"/>
<polygon fill="black" stroke="black" points="1648.72,-343.184 1638.23,-344.615 1647.33,-350.043 1648.72,-343.184"/>
</g>
<!-- rast_3nm_raster_file -->
<g id="node8" class="node"><title>rast_3nm_raster_file</title>
<path fill="#ffffcc" stroke="black" d="M1432.18,-381.1C1432.18,-381.1 1747.82,-381.1 1747.82,-381.1 1753.82,-381.1 1759.82,-387.1 1759.82,-393.1 1759.82,-393.1 1759.82,-418.7 1759.82,-418.7 1759.82,-424.7 1753.82,-430.7 1747.82,-430.7 1747.82,-430.7 1432.18,-430.7 1432.18,-430.7 1426.18,-430.7 1420.18,-424.7 1420.18,-418.7 1420.18,-418.7 1420.18,-393.1 1420.18,-393.1 1420.18,-387.1 1426.18,-381.1 1432.18,-381.1"/>
<text text-anchor="middle" x="1590" y="-414.1" font-family="Helvetica,sans-Serif" font-size="14.00">rast_3nm_raster_file</text>
<polyline fill="none" stroke="black" points="1420.18,-405.9 1759.82,-405.9 "/>
<text text-anchor="middle" x="1590" y="-389.3" font-family="Helvetica,sans-Serif" font-size="14.00">file:{dir_goal}/spatial/hs_offshore_3nm_raster_500m</text>
</g>
<!-- rast_3nm_raster_file&#45;&gt;read_in_OHI_region_rasters -->
<g id="edge8" class="edge"><title>rast_3nm_raster_file&#45;&gt;read_in_OHI_region_rasters</title>
<path fill="none" stroke="black" d="M1419.94,-381.76C1416.94,-381.369 1413.95,-380.982 1411,-380.6 1308.64,-367.374 1192.52,-353.173 1106.47,-342.803"/>
<polygon fill="black" stroke="black" points="1106.74,-339.31 1096.4,-341.59 1105.91,-346.26 1106.74,-339.31"/>
</g>
<!-- rast_1km_raster_file -->
<g id="node9" class="node"><title>rast_1km_raster_file</title>
<path fill="#ffffcc" stroke="black" d="M1088.18,-381.1C1088.18,-381.1 1389.82,-381.1 1389.82,-381.1 1395.82,-381.1 1401.82,-387.1 1401.82,-393.1 1401.82,-393.1 1401.82,-418.7 1401.82,-418.7 1401.82,-424.7 1395.82,-430.7 1389.82,-430.7 1389.82,-430.7 1088.18,-430.7 1088.18,-430.7 1082.18,-430.7 1076.18,-424.7 1076.18,-418.7 1076.18,-418.7 1076.18,-393.1 1076.18,-393.1 1076.18,-387.1 1082.18,-381.1 1088.18,-381.1"/>
<text text-anchor="middle" x="1239" y="-414.1" font-family="Helvetica,sans-Serif" font-size="14.00">rast_1km_raster_file</text>
<polyline fill="none" stroke="black" points="1076.18,-405.9 1401.82,-405.9 "/>
<text text-anchor="middle" x="1239" y="-389.3" font-family="Helvetica,sans-Serif" font-size="14.00">file:{dir_goal}/spatial/hs_inland_1km_raster_500m</text>
</g>
<!-- rast_1km_raster_file&#45;&gt;read_in_OHI_region_rasters -->
<g id="edge9" class="edge"><title>rast_1km_raster_file&#45;&gt;read_in_OHI_region_rasters</title>
<path fill="none" stroke="black" d="M1158.87,-381.077C1122.75,-370.337 1080.57,-357.797 1046.14,-347.561"/>
<polygon fill="black" stroke="black" points="1046.76,-344.095 1036.18,-344.6 1044.77,-350.805 1046.76,-344.095"/>
</g>
<!-- rast_ws_raster_file -->
<g id="node10" class="node"><title>rast_ws_raster_file</title>
<path fill="#ffffcc" stroke="black" d="M715.782,-381.1C715.782,-381.1 1046.22,-381.1 1046.22,-381.1 1052.22,-381.1 1058.22,-387.1 1058.22,-393.1 1058.22,-393.1 1058.22,-418.7 1058.22,-418.7 1058.22,-424.7 1052.22,-430.7 1046.22,-430.7 1046.22,-430.7 715.782,-430.7 715.782,-430.7 709.782,-430.7 703.782,-424.7 703.782,-418.7 703.782,-418.7 703.782,-393.1 703.782,-393.1 703.782,-387.1 709.782,-381.1 715.782,-381.1"/>
<text text-anchor="middle" x="881" y="-414.1" font-family="Helvetica,sans-Serif" font-size="14.00">rast_ws_raster_file</text>
<polyline fill="none" stroke="black" points="703.782,-405.9 1058.22,-405.9 "/>
<text text-anchor="middle" x="881" y="-389.3" font-family="Helvetica,sans-Serif" font-size="14.00">file:{dir_goal}/spatial/howe_sound_watershed_500m.tif</text>
</g>
<!-- rast_ws_raster_file&#45;&gt;read_in_OHI_region_rasters -->
<g id="edge10" class="edge"><title>rast_ws_raster_file&#45;&gt;read_in_OHI_region_rasters</title>
<path fill="none" stroke="black" d="M911.203,-381.077C923.358,-371.489 937.331,-360.467 949.423,-350.93"/>
<polygon fill="black" stroke="black" points="951.763,-353.542 957.447,-344.6 947.428,-348.045 951.763,-353.542"/>
</g>
<!-- rast_pep_file -->
<g id="node11" class="node"><title>rast_pep_file</title>
<path fill="#ffffcc" stroke="black" d="M343.782,-381.1C343.782,-381.1 674.218,-381.1 674.218,-381.1 680.218,-381.1 686.218,-387.1 686.218,-393.1 686.218,-393.1 686.218,-418.7 686.218,-418.7 686.218,-424.7 680.218,-430.7 674.218,-430.7 674.218,-430.7 343.782,-430.7 343.782,-430.7 337.782,-430.7 331.782,-424.7 331.782,-418.7 331.782,-418.7 331.782,-393.1 331.782,-393.1 331.782,-387.1 337.782,-381.1 343.782,-381.1"/>
<text text-anchor="middle" x="509" y="-414.1" font-family="Helvetica,sans-Serif" font-size="14.00">rast_pep_file</text>
<polyline fill="none" stroke="black" points="331.782,-405.9 686.218,-405.9 "/>
<text text-anchor="middle" x="509" y="-389.3" font-family="Helvetica,sans-Serif" font-size="14.00">file:{dir_goal}/spatial/howe_sound_watershed_500m.tif</text>
</g>
<!-- rast_pep_file&#45;&gt;read_in_OHI_region_rasters -->
<g id="edge11" class="edge"><title>rast_pep_file&#45;&gt;read_in_OHI_region_rasters</title>
<path fill="none" stroke="black" d="M653.851,-381.077C721.953,-369.876 801.961,-356.717 865.57,-346.256"/>
<polygon fill="black" stroke="black" points="866.334,-349.677 875.634,-344.6 865.198,-342.77 866.334,-349.677"/>
</g>
<!-- rast_wdpa_pep_file -->
<g id="node12" class="node"><title>rast_wdpa_pep_file</title>
<path fill="#ffffcc" stroke="black" d="M36.0744,-381.1C36.0744,-381.1 301.926,-381.1 301.926,-381.1 307.926,-381.1 313.926,-387.1 313.926,-393.1 313.926,-393.1 313.926,-418.7 313.926,-418.7 313.926,-424.7 307.926,-430.7 301.926,-430.7 301.926,-430.7 36.0744,-430.7 36.0744,-430.7 30.0744,-430.7 24.0744,-424.7 24.0744,-418.7 24.0744,-418.7 24.0744,-393.1 24.0744,-393.1 24.0744,-387.1 30.0744,-381.1 36.0744,-381.1"/>
<text text-anchor="middle" x="169" y="-414.1" font-family="Helvetica,sans-Serif" font-size="14.00">rast_wdpa_pep_file</text>
<polyline fill="none" stroke="black" points="24.0744,-405.9 313.926,-405.9 "/>
<text text-anchor="middle" x="169" y="-389.3" font-family="Helvetica,sans-Serif" font-size="14.00">file:{dir_goal}/spatial/hs_wdpa_rast_500m.tif</text>
</g>
<!-- rast_wdpa_pep_file&#45;&gt;read_in_OHI_region_rasters -->
<g id="edge12" class="edge"><title>rast_wdpa_pep_file&#45;&gt;read_in_OHI_region_rasters</title>
<path fill="none" stroke="black" d="M314.048,-381.698C317.057,-381.319 320.044,-380.952 323,-380.6 506.143,-358.784 719.144,-343.408 851.533,-335.024"/>
<polygon fill="black" stroke="black" points="851.954,-338.505 861.714,-334.383 851.514,-331.519 851.954,-338.505"/>
</g>
<!-- rast_3nm&#45;&gt;outputs_zonal_stats_dataframes_for_protected_cells -->
<g id="edge17" class="edge"><title>rast_3nm&#45;&gt;outputs_zonal_stats_dataframes_for_protected_cells</title>
<path fill="none" stroke="black" d="M880.34,-239.588C883.263,-238.556 886.175,-237.549 889,-236.6 923.635,-224.967 962.499,-213.081 994.789,-203.522"/>
<polygon fill="black" stroke="black" points="995.986,-206.818 1004.59,-200.632 994.006,-200.104 995.986,-206.818"/>
</g>
<!-- rast_1km&#45;&gt;outputs_zonal_stats_dataframes_for_protected_cells -->
<g id="edge18" class="edge"><title>rast_1km&#45;&gt;outputs_zonal_stats_dataframes_for_protected_cells</title>
<path fill="none" stroke="black" d="M966.557,-236.476C983.658,-227.196 1004.98,-215.625 1023.32,-205.675"/>
<polygon fill="black" stroke="black" points="1025.2,-208.635 1032.32,-200.79 1021.86,-202.483 1025.2,-208.635"/>
</g>
<!-- rast_ws&#45;&gt;outputs_zonal_stats_dataframes_for_protected_cells -->
<g id="edge19" class="edge"><title>rast_ws&#45;&gt;outputs_zonal_stats_dataframes_for_protected_cells</title>
<path fill="none" stroke="black" d="M1032.38,-236.297C1037.26,-228.159 1043.19,-218.289 1048.58,-209.301"/>
<polygon fill="black" stroke="black" points="1051.59,-211.08 1053.74,-200.704 1045.59,-207.479 1051.59,-211.08"/>
</g>
<!-- rast_pep&#45;&gt;outputs_zonal_stats_dataframes_for_protected_cells -->
<g id="edge20" class="edge"><title>rast_pep&#45;&gt;outputs_zonal_stats_dataframes_for_protected_cells</title>
<path fill="none" stroke="black" d="M1096.37,-236.297C1091.37,-228.159 1085.31,-218.289 1079.79,-209.301"/>
<polygon fill="black" stroke="black" points="1082.72,-207.393 1074.51,-200.704 1076.76,-211.057 1082.72,-207.393"/>
</g>
<!-- rast_wdpa_pep&#45;&gt;outputs_zonal_stats_dataframes_for_protected_cells -->
<g id="edge21" class="edge"><title>rast_wdpa_pep&#45;&gt;outputs_zonal_stats_dataframes_for_protected_cells</title>
<path fill="none" stroke="black" d="M1178.82,-236.476C1158.13,-226.949 1132.2,-215.007 1110.22,-204.883"/>
<polygon fill="black" stroke="black" points="1111.61,-201.672 1101.06,-200.668 1108.68,-208.03 1111.61,-201.672"/>
</g>
<!-- dir_goal&#45;&gt;outputs_zonal_stats_dataframes_for_protected_cells -->
<g id="edge16" class="edge"><title>dir_goal&#45;&gt;outputs_zonal_stats_dataframes_for_protected_cells</title>
<path fill="none" stroke="black" d="M1392.92,-247.202C1341.13,-237.189 1238.92,-217.425 1162.11,-202.572"/>
<polygon fill="black" stroke="black" points="1162.41,-199.065 1151.93,-200.603 1161.08,-205.938 1162.41,-199.065"/>
</g>
<!-- setup_R_input_port -->
<g id="node19" class="node"><title>setup_R_input_port</title>
<ellipse fill="#ffffff" stroke="black" cx="1140" cy="-478.2" rx="7" ry="7"/>
</g>
<!-- setup_R_input_port&#45;&gt;setup_R -->
<g id="edge22" class="edge"><title>setup_R_input_port&#45;&gt;setup_R</title>
<path fill="none" stroke="black" d="M1147.16,-477.157C1212.78,-476.729 1708.84,-472.657 1769,-447.2 1777.4,-443.646 1785.16,-437.682 1791.71,-431.417"/>
<polygon fill="black" stroke="black" points="1794.39,-433.68 1798.81,-424.051 1789.35,-428.822 1794.39,-433.68"/>
</g>
<!-- rast_3nm_raster_file_input_port -->
<g id="node20" class="node"><title>rast_3nm_raster_file_input_port</title>
<ellipse fill="#ffffff" stroke="black" cx="1108" cy="-478.2" rx="7" ry="7"/>
</g>
<!-- rast_3nm_raster_file_input_port&#45;&gt;rast_3nm_raster_file -->
<g id="edge23" class="edge"><title>rast_3nm_raster_file_input_port&#45;&gt;rast_3nm_raster_file</title>
<path fill="none" stroke="black" d="M1110.43,-471.324C1112.97,-466.053 1117.48,-458.634 1124,-455.2 1138.11,-447.765 1395.17,-449.183 1411,-447.2 1436.81,-443.966 1464.37,-438.694 1489.93,-433.014"/>
<polygon fill="black" stroke="black" points="1491.02,-436.357 1500,-430.735 1489.47,-429.53 1491.02,-436.357"/>
</g>
<!-- rast_1km_raster_file_input_port -->
<g id="node21" class="node"><title>rast_1km_raster_file_input_port</title>
<ellipse fill="#ffffff" stroke="black" cx="1076" cy="-478.2" rx="7" ry="7"/>
</g>
<!-- rast_1km_raster_file_input_port&#45;&gt;rast_1km_raster_file -->
<g id="edge24" class="edge"><title>rast_1km_raster_file_input_port&#45;&gt;rast_1km_raster_file</title>
<path fill="none" stroke="black" d="M1078.69,-471.738C1081.41,-466.759 1086.05,-459.539 1092,-455.2 1103.09,-447.116 1115.62,-440.335 1128.55,-434.659"/>
<polygon fill="black" stroke="black" points="1130.14,-437.789 1138.03,-430.718 1127.45,-431.325 1130.14,-437.789"/>
</g>
<!-- rast_ws_raster_file_input_port -->
<g id="node22" class="node"><title>rast_ws_raster_file_input_port</title>
<ellipse fill="#ffffff" stroke="black" cx="1044" cy="-478.2" rx="7" ry="7"/>
</g>
<!-- rast_ws_raster_file_input_port&#45;&gt;rast_ws_raster_file -->
<g id="edge25" class="edge"><title>rast_ws_raster_file_input_port&#45;&gt;rast_ws_raster_file</title>
<path fill="none" stroke="black" d="M1041.31,-471.738C1038.59,-466.759 1033.95,-459.539 1028,-455.2 1016.91,-447.116 1004.38,-440.335 991.448,-434.659"/>
<polygon fill="black" stroke="black" points="992.545,-431.325 981.968,-430.718 989.858,-437.789 992.545,-431.325"/>
</g>
<!-- rast_pep_file_input_port -->
<g id="node23" class="node"><title>rast_pep_file_input_port</title>
<ellipse fill="#ffffff" stroke="black" cx="1012" cy="-478.2" rx="7" ry="7"/>
</g>
<!-- rast_pep_file_input_port&#45;&gt;rast_pep_file -->
<g id="edge26" class="edge"><title>rast_pep_file_input_port&#45;&gt;rast_pep_file</title>
<path fill="none" stroke="black" d="M1009.57,-471.322C1007.04,-466.049 1002.52,-458.63 996,-455.2 981.195,-447.412 711.608,-449.202 695,-447.2 668.094,-443.957 639.336,-438.654 612.674,-432.946"/>
<polygon fill="black" stroke="black" points="613.083,-429.453 602.566,-430.742 611.591,-436.292 613.083,-429.453"/>
</g>
<!-- rast_wdpa_pep_file_input_port -->
<g id="node24" class="node"><title>rast_wdpa_pep_file_input_port</title>
<ellipse fill="#ffffff" stroke="black" cx="980" cy="-478.2" rx="7" ry="7"/>
</g>
<!-- rast_wdpa_pep_file_input_port&#45;&gt;rast_wdpa_pep_file -->
<g id="edge27" class="edge"><title>rast_wdpa_pep_file_input_port&#45;&gt;rast_wdpa_pep_file</title>
<path fill="none" stroke="black" d="M972.705,-477.079C909.748,-476 457.334,-467.611 323,-447.2 301.32,-443.906 278.285,-438.782 256.817,-433.28"/>
<polygon fill="black" stroke="black" points="257.635,-429.876 247.074,-430.73 255.862,-436.648 257.635,-429.876"/>
</g>
</g>
</svg>
