<?xml version="1.0" encoding="UTF-8" standalone="no"?>
<!DOCTYPE svg PUBLIC "-//W3C//DTD SVG 1.1//EN"
 "http://www.w3.org/Graphics/SVG/1.1/DTD/svg11.dtd">
<!-- Generated by graphviz version 2.38.0 (20140413.2041)
 -->
<!-- Title: Workflow Pages: 1 -->
<svg width="1832pt" height="547pt"
 viewBox="0.00 0.00 1832.00 546.80" xmlns="http://www.w3.org/2000/svg" xmlns:xlink="http://www.w3.org/1999/xlink">
<g id="graph0" class="graph" transform="scale(1 1) rotate(0) translate(4 542.8)">
<title>Workflow</title>
<polygon fill="white" stroke="none" points="-4,4 -4,-542.8 1828,-542.8 1828,4 -4,4"/>
<text text-anchor="middle" x="912" y="-518.6" font-family="Courier,monospace" font-size="18.00">lsp_zonal_stats</text>
<g id="clust5" class="cluster"><title>cluster_output_ports_group_outer</title>
<polygon fill="none" stroke="white" points="996,-8 996,-54 1106,-54 1106,-8 996,-8"/>
</g>
<g id="clust6" class="cluster"><title>cluster_output_ports_group_inner</title>
<polygon fill="none" stroke="white" points="1004,-16 1004,-46 1098,-46 1098,-16 1004,-16"/>
</g>
<g id="clust1" class="cluster"><title>cluster_workflow_box_outer</title>
<polygon fill="none" stroke="black" stroke-width="2" points="8,-62 8,-447.2 1816,-447.2 1816,-62 8,-62"/>
</g>
<g id="clust2" class="cluster"><title>cluster_workflow_box_inner</title>
<polygon fill="none" stroke="white" stroke-width="2" points="16,-70 16,-439.2 1808,-439.2 1808,-70 16,-70"/>
</g>
<g id="clust3" class="cluster"><title>cluster_input_ports_group_outer</title>
<polygon fill="none" stroke="white" points="943,-455.2 943,-501.2 1149,-501.2 1149,-455.2 943,-455.2"/>
</g>
<g id="clust4" class="cluster"><title>cluster_input_ports_group_inner</title>
<polygon fill="none" stroke="white" points="951,-463.2 951,-493.2 1141,-493.2 1141,-463.2 951,-463.2"/>
</g>
<!-- set_up_configuration_and_start_provenance_tracking -->
<g id="node1" class="node"><title>set_up_configuration_and_start_provenance_tracking</title>
<polygon fill="#ccffcc" stroke="black" points="1707.93,-344.6 1272.07,-344.6 1272.07,-308.6 1707.93,-308.6 1707.93,-344.6"/>
<text text-anchor="middle" x="1490" y="-322.4" font-family="Courier,monospace" font-size="14.00">set_up_configuration_and_start_provenance_tracking</text>
</g>
<!-- dir_goal -->
<g id="node18" class="node"><title>dir_goal</title>
<path fill="#fcfcfc" stroke="black" d="M1417.79,-272.6C1417.79,-272.6 1376.21,-272.6 1376.21,-272.6 1370.21,-272.6 1364.21,-266.6 1364.21,-260.6 1364.21,-260.6 1364.21,-248.6 1364.21,-248.6 1364.21,-242.6 1370.21,-236.6 1376.21,-236.6 1376.21,-236.6 1417.79,-236.6 1417.79,-236.6 1423.79,-236.6 1429.79,-242.6 1429.79,-248.6 1429.79,-248.6 1429.79,-260.6 1429.79,-260.6 1429.79,-266.6 1423.79,-272.6 1417.79,-272.6"/>
<text text-anchor="middle" x="1397" y="-250.4" font-family="Helvetica,sans-Serif" font-size="14.00">dir_goal</text>
</g>
<!-- set_up_configuration_and_start_provenance_tracking&#45;&gt;dir_goal -->
<g id="edge1" class="edge"><title>set_up_configuration_and_start_provenance_tracking&#45;&gt;dir_goal</title>
<path fill="none" stroke="black" d="M1467.01,-308.297C1455.19,-299.396 1440.61,-288.423 1427.82,-278.799"/>
<polygon fill="black" stroke="black" points="1429.82,-275.922 1419.72,-272.704 1425.61,-281.515 1429.82,-275.922"/>
</g>
<!-- read_in_OHI_region_rasters -->
<g id="node2" class="node"><title>read_in_OHI_region_rasters</title>
<polygon fill="#ccffcc" stroke="black" points="1072.36,-344.6 837.636,-344.6 837.636,-308.6 1072.36,-308.6 1072.36,-344.6"/>
<text text-anchor="middle" x="955" y="-322.4" font-family="Courier,monospace" font-size="14.00">read_in_OHI_region_rasters</text>
</g>
<!-- rast_3nm -->
<g id="node13" class="node"><title>rast_3nm</title>
<path fill="#ffffcc" stroke="black" d="M1242.34,-272.6C1242.34,-272.6 1191.66,-272.6 1191.66,-272.6 1185.66,-272.6 1179.66,-266.6 1179.66,-260.6 1179.66,-260.6 1179.66,-248.6 1179.66,-248.6 1179.66,-242.6 1185.66,-236.6 1191.66,-236.6 1191.66,-236.6 1242.34,-236.6 1242.34,-236.6 1248.34,-236.6 1254.34,-242.6 1254.34,-248.6 1254.34,-248.6 1254.34,-260.6 1254.34,-260.6 1254.34,-266.6 1248.34,-272.6 1242.34,-272.6"/>
<text text-anchor="middle" x="1217" y="-250.4" font-family="Helvetica,sans-Serif" font-size="14.00">rast_3nm</text>
</g>
<!-- read_in_OHI_region_rasters&#45;&gt;rast_3nm -->
<g id="edge3" class="edge"><title>read_in_OHI_region_rasters&#45;&gt;rast_3nm</title>
<path fill="none" stroke="black" d="M1033.57,-308.581C1072.3,-299.659 1119.8,-287.924 1169.98,-272.757"/>
<polygon fill="black" stroke="black" points="1171.17,-276.052 1179.71,-269.782 1169.13,-269.358 1171.17,-276.052"/>
</g>
<!-- rast_1km -->
<g id="node14" class="node"><title>rast_1km</title>
<path fill="#ffffcc" stroke="black" d="M849.561,-272.6C849.561,-272.6 800.439,-272.6 800.439,-272.6 794.439,-272.6 788.439,-266.6 788.439,-260.6 788.439,-260.6 788.439,-248.6 788.439,-248.6 788.439,-242.6 794.439,-236.6 800.439,-236.6 800.439,-236.6 849.561,-236.6 849.561,-236.6 855.561,-236.6 861.561,-242.6 861.561,-248.6 861.561,-248.6 861.561,-260.6 861.561,-260.6 861.561,-266.6 855.561,-272.6 849.561,-272.6"/>
<text text-anchor="middle" x="825" y="-250.4" font-family="Helvetica,sans-Serif" font-size="14.00">rast_1km</text>
</g>
<!-- read_in_OHI_region_rasters&#45;&gt;rast_1km -->
<g id="edge4" class="edge"><title>read_in_OHI_region_rasters&#45;&gt;rast_1km</title>
<path fill="none" stroke="black" d="M923.198,-308.476C905.886,-299.154 884.279,-287.519 865.744,-277.539"/>
<polygon fill="black" stroke="black" points="867.388,-274.449 856.924,-272.79 864.069,-280.612 867.388,-274.449"/>
</g>
<!-- rast_ws -->
<g id="node15" class="node"><title>rast_ws</title>
<path fill="#ffffcc" stroke="black" d="M932.223,-272.6C932.223,-272.6 891.777,-272.6 891.777,-272.6 885.777,-272.6 879.777,-266.6 879.777,-260.6 879.777,-260.6 879.777,-248.6 879.777,-248.6 879.777,-242.6 885.777,-236.6 891.777,-236.6 891.777,-236.6 932.223,-236.6 932.223,-236.6 938.223,-236.6 944.223,-242.6 944.223,-248.6 944.223,-248.6 944.223,-260.6 944.223,-260.6 944.223,-266.6 938.223,-272.6 932.223,-272.6"/>
<text text-anchor="middle" x="912" y="-250.4" font-family="Helvetica,sans-Serif" font-size="14.00">rast_ws</text>
</g>
<!-- read_in_OHI_region_rasters&#45;&gt;rast_ws -->
<g id="edge5" class="edge"><title>read_in_OHI_region_rasters&#45;&gt;rast_ws</title>
<path fill="none" stroke="black" d="M944.371,-308.297C939.372,-300.159 933.309,-290.289 927.788,-281.301"/>
<polygon fill="black" stroke="black" points="930.723,-279.393 922.507,-272.704 924.759,-283.057 930.723,-279.393"/>
</g>
<!-- rast_pep -->
<g id="node16" class="node"><title>rast_pep</title>
<path fill="#ffffcc" stroke="black" d="M1020.47,-272.6C1020.47,-272.6 973.534,-272.6 973.534,-272.6 967.534,-272.6 961.534,-266.6 961.534,-260.6 961.534,-260.6 961.534,-248.6 961.534,-248.6 961.534,-242.6 967.534,-236.6 973.534,-236.6 973.534,-236.6 1020.47,-236.6 1020.47,-236.6 1026.47,-236.6 1032.47,-242.6 1032.47,-248.6 1032.47,-248.6 1032.47,-260.6 1032.47,-260.6 1032.47,-266.6 1026.47,-272.6 1020.47,-272.6"/>
<text text-anchor="middle" x="997" y="-250.4" font-family="Helvetica,sans-Serif" font-size="14.00">rast_pep</text>
</g>
<!-- read_in_OHI_region_rasters&#45;&gt;rast_pep -->
<g id="edge6" class="edge"><title>read_in_OHI_region_rasters&#45;&gt;rast_pep</title>
<path fill="none" stroke="black" d="M965.382,-308.297C970.265,-300.159 976.187,-290.289 981.579,-281.301"/>
<polygon fill="black" stroke="black" points="984.594,-283.08 986.737,-272.704 978.591,-279.479 984.594,-283.08"/>
</g>
<!-- rast_wdpa_pep -->
<g id="node17" class="node"><title>rast_wdpa_pep</title>
<path fill="#ffffcc" stroke="black" d="M1149.7,-272.6C1149.7,-272.6 1062.3,-272.6 1062.3,-272.6 1056.3,-272.6 1050.3,-266.6 1050.3,-260.6 1050.3,-260.6 1050.3,-248.6 1050.3,-248.6 1050.3,-242.6 1056.3,-236.6 1062.3,-236.6 1062.3,-236.6 1149.7,-236.6 1149.7,-236.6 1155.7,-236.6 1161.7,-242.6 1161.7,-248.6 1161.7,-248.6 1161.7,-260.6 1161.7,-260.6 1161.7,-266.6 1155.7,-272.6 1149.7,-272.6"/>
<text text-anchor="middle" x="1106" y="-250.4" font-family="Helvetica,sans-Serif" font-size="14.00">rast_wdpa_pep</text>
</g>
<!-- read_in_OHI_region_rasters&#45;&gt;rast_wdpa_pep -->
<g id="edge7" class="edge"><title>read_in_OHI_region_rasters&#45;&gt;rast_wdpa_pep</title>
<path fill="none" stroke="black" d="M991.939,-308.476C1012.49,-298.949 1038.25,-287.007 1060.09,-276.883"/>
<polygon fill="black" stroke="black" points="1061.58,-280.05 1069.18,-272.668 1058.64,-273.699 1061.58,-280.05"/>
</g>
<!-- outputs_zonal_stats_dataframes_for_protected_cells -->
<g id="node3" class="node"><title>outputs_zonal_stats_dataframes_for_protected_cells</title>
<polygon fill="#ccffcc" stroke="black" points="1268.93,-200.6 833.07,-200.6 833.07,-164.6 1268.93,-164.6 1268.93,-200.6"/>
<text text-anchor="middle" x="1051" y="-178.4" font-family="Courier,monospace" font-size="14.00">outputs_zonal_stats_dataframes_for_protected_cells</text>
</g>
<!-- zonal_3nm_file -->
<g id="node4" class="node"><title>zonal_3nm_file</title>
<path fill="#ffffcc" stroke="black" d="M1205.91,-78.5C1205.91,-78.5 1432.09,-78.5 1432.09,-78.5 1438.09,-78.5 1444.09,-84.5 1444.09,-90.5 1444.09,-90.5 1444.09,-116.1 1444.09,-116.1 1444.09,-122.1 1438.09,-128.1 1432.09,-128.1 1432.09,-128.1 1205.91,-128.1 1205.91,-128.1 1199.91,-128.1 1193.91,-122.1 1193.91,-116.1 1193.91,-116.1 1193.91,-90.5 1193.91,-90.5 1193.91,-84.5 1199.91,-78.5 1205.91,-78.5"/>
<text text-anchor="middle" x="1319" y="-111.5" font-family="Helvetica,sans-Serif" font-size="14.00">zonal_3nm_file</text>
<polyline fill="none" stroke="black" points="1193.91,-103.3 1444.09,-103.3 "/>
<text text-anchor="middle" x="1319" y="-86.7" font-family="Helvetica,sans-Serif" font-size="14.00">file:{dir_goal}/int/zonal_stats_3nm.csv</text>
</g>
<!-- outputs_zonal_stats_dataframes_for_protected_cells&#45;&gt;zonal_3nm_file -->
<g id="edge13" class="edge"><title>outputs_zonal_stats_dataframes_for_protected_cells&#45;&gt;zonal_3nm_file</title>
<path fill="none" stroke="black" d="M1110.15,-164.54C1144.32,-154.683 1188.06,-142.067 1226.68,-130.929"/>
<polygon fill="black" stroke="black" points="1227.73,-134.267 1236.37,-128.132 1225.79,-127.541 1227.73,-134.267"/>
</g>
<!-- zonal_1km_file -->
<g id="node5" class="node"><title>zonal_1km_file</title>
<path fill="#ffffcc" stroke="black" d="M938.304,-78.5C938.304,-78.5 1163.7,-78.5 1163.7,-78.5 1169.7,-78.5 1175.7,-84.5 1175.7,-90.5 1175.7,-90.5 1175.7,-116.1 1175.7,-116.1 1175.7,-122.1 1169.7,-128.1 1163.7,-128.1 1163.7,-128.1 938.304,-128.1 938.304,-128.1 932.304,-128.1 926.304,-122.1 926.304,-116.1 926.304,-116.1 926.304,-90.5 926.304,-90.5 926.304,-84.5 932.304,-78.5 938.304,-78.5"/>
<text text-anchor="middle" x="1051" y="-111.5" font-family="Helvetica,sans-Serif" font-size="14.00">zonal_1km_file</text>
<polyline fill="none" stroke="black" points="926.304,-103.3 1175.7,-103.3 "/>
<text text-anchor="middle" x="1051" y="-86.7" font-family="Helvetica,sans-Serif" font-size="14.00">file:{dir_goal}/int/zonal_stats_1km.csv</text>
</g>
<!-- outputs_zonal_stats_dataframes_for_protected_cells&#45;&gt;zonal_1km_file -->
<g id="edge14" class="edge"><title>outputs_zonal_stats_dataframes_for_protected_cells&#45;&gt;zonal_1km_file</title>
<path fill="none" stroke="black" d="M1051,-164.445C1051,-156.689 1051,-147.239 1051,-138.15"/>
<polygon fill="black" stroke="black" points="1054.5,-138.15 1051,-128.15 1047.5,-138.15 1054.5,-138.15"/>
</g>
<!-- zonal_ws_file -->
<g id="node6" class="node"><title>zonal_ws_file</title>
<path fill="#ffffcc" stroke="black" d="M679.973,-78.5C679.973,-78.5 896.027,-78.5 896.027,-78.5 902.027,-78.5 908.027,-84.5 908.027,-90.5 908.027,-90.5 908.027,-116.1 908.027,-116.1 908.027,-122.1 902.027,-128.1 896.027,-128.1 896.027,-128.1 679.973,-128.1 679.973,-128.1 673.973,-128.1 667.973,-122.1 667.973,-116.1 667.973,-116.1 667.973,-90.5 667.973,-90.5 667.973,-84.5 673.973,-78.5 679.973,-78.5"/>
<text text-anchor="middle" x="788" y="-111.5" font-family="Helvetica,sans-Serif" font-size="14.00">zonal_ws_file</text>
<polyline fill="none" stroke="black" points="667.973,-103.3 908.027,-103.3 "/>
<text text-anchor="middle" x="788" y="-86.7" font-family="Helvetica,sans-Serif" font-size="14.00">file:{dir_goal}/int/zonal_stats_ws.csv</text>
</g>
<!-- outputs_zonal_stats_dataframes_for_protected_cells&#45;&gt;zonal_ws_file -->
<g id="edge15" class="edge"><title>outputs_zonal_stats_dataframes_for_protected_cells&#45;&gt;zonal_ws_file</title>
<path fill="none" stroke="black" d="M992.958,-164.54C959.631,-154.745 917.036,-142.226 879.319,-131.14"/>
<polygon fill="black" stroke="black" points="879.916,-127.668 869.335,-128.206 877.942,-134.384 879.916,-127.668"/>
</g>
<!-- zonal_3nm_file_output_port -->
<g id="node25" class="node"><title>zonal_3nm_file_output_port</title>
<ellipse fill="#ffffff" stroke="black" cx="1083" cy="-31" rx="7" ry="7"/>
</g>
<!-- zonal_3nm_file&#45;&gt;zonal_3nm_file_output_port -->
<g id="edge28" class="edge"><title>zonal_3nm_file&#45;&gt;zonal_3nm_file_output_port</title>
<path fill="none" stroke="black" d="M1240.02,-78.4597C1221.95,-73.0285 1202.81,-67.2981 1185,-62 1154.69,-52.9843 1119.26,-42.5993 1099.15,-36.7158"/>
<polygon fill="black" stroke="black" points="1100.03,-33.3275 1089.45,-33.8818 1098.06,-40.0464 1100.03,-33.3275"/>
</g>
<!-- zonal_1km_file_output_port -->
<g id="node26" class="node"><title>zonal_1km_file_output_port</title>
<ellipse fill="#ffffff" stroke="black" cx="1051" cy="-31" rx="7" ry="7"/>
</g>
<!-- zonal_1km_file&#45;&gt;zonal_1km_file_output_port -->
<g id="edge29" class="edge"><title>zonal_1km_file&#45;&gt;zonal_1km_file_output_port</title>
<path fill="none" stroke="black" d="M1051,-78.4996C1051,-68.5289 1051,-57.1933 1051,-48.2105"/>
<polygon fill="black" stroke="black" points="1054.5,-48.0698 1051,-38.0698 1047.5,-48.0699 1054.5,-48.0698"/>
</g>
<!-- zonal_ws_file_output_port -->
<g id="node27" class="node"><title>zonal_ws_file_output_port</title>
<ellipse fill="#ffffff" stroke="black" cx="1019" cy="-31" rx="7" ry="7"/>
</g>
<!-- zonal_ws_file&#45;&gt;zonal_ws_file_output_port -->
<g id="edge30" class="edge"><title>zonal_ws_file&#45;&gt;zonal_ws_file_output_port</title>
<path fill="none" stroke="black" d="M863.65,-78.4342C881.151,-72.9776 899.711,-67.2428 917,-62 947.264,-52.823 982.705,-42.4925 1002.84,-36.6629"/>
<polygon fill="black" stroke="black" points="1003.91,-39.9966 1012.54,-33.858 1001.97,-33.2718 1003.91,-39.9966"/>
</g>
<!-- setup_R -->
<g id="node7" class="node"><title>setup_R</title>
<path fill="#ffffcc" stroke="black" d="M1788.13,-423.9C1788.13,-423.9 1743.87,-423.9 1743.87,-423.9 1737.87,-423.9 1731.87,-417.9 1731.87,-411.9 1731.87,-411.9 1731.87,-399.9 1731.87,-399.9 1731.87,-393.9 1737.87,-387.9 1743.87,-387.9 1743.87,-387.9 1788.13,-387.9 1788.13,-387.9 1794.13,-387.9 1800.13,-393.9 1800.13,-399.9 1800.13,-399.9 1800.13,-411.9 1800.13,-411.9 1800.13,-417.9 1794.13,-423.9 1788.13,-423.9"/>
<text text-anchor="middle" x="1766" y="-401.7" font-family="Helvetica,sans-Serif" font-size="14.00">setup_R</text>
</g>
<!-- setup_R&#45;&gt;set_up_configuration_and_start_provenance_tracking -->
<g id="edge2" class="edge"><title>setup_R&#45;&gt;set_up_configuration_and_start_provenance_tracking</title>
<path fill="none" stroke="black" d="M1738.36,-387.737C1733.37,-385.088 1728.12,-382.579 1723,-380.6 1685.53,-366.108 1643.06,-354.996 1604.74,-346.781"/>
<polygon fill="black" stroke="black" points="1605.08,-343.276 1594.58,-344.647 1603.65,-350.126 1605.08,-343.276"/>
</g>
<!-- rast_3nm_raster_file -->
<g id="node8" class="node"><title>rast_3nm_raster_file</title>
<path fill="#ffffcc" stroke="black" d="M1063.79,-381.1C1063.79,-381.1 1394.21,-381.1 1394.21,-381.1 1400.21,-381.1 1406.21,-387.1 1406.21,-393.1 1406.21,-393.1 1406.21,-418.7 1406.21,-418.7 1406.21,-424.7 1400.21,-430.7 1394.21,-430.7 1394.21,-430.7 1063.79,-430.7 1063.79,-430.7 1057.79,-430.7 1051.79,-424.7 1051.79,-418.7 1051.79,-418.7 1051.79,-393.1 1051.79,-393.1 1051.79,-387.1 1057.79,-381.1 1063.79,-381.1"/>
<text text-anchor="middle" x="1229" y="-414.1" font-family="Helvetica,sans-Serif" font-size="14.00">rast_3nm_raster_file</text>
<polyline fill="none" stroke="black" points="1051.79,-405.9 1406.21,-405.9 "/>
<text text-anchor="middle" x="1229" y="-389.3" font-family="Helvetica,sans-Serif" font-size="14.00">file:{dir_goal}/spatial/hs_offshore_3nm_raster_500m.tif</text>
</g>
<!-- rast_3nm_raster_file&#45;&gt;read_in_OHI_region_rasters -->
<g id="edge8" class="edge"><title>rast_3nm_raster_file&#45;&gt;read_in_OHI_region_rasters</title>
<path fill="none" stroke="black" d="M1144.56,-381.077C1106.32,-370.291 1061.66,-357.689 1025.29,-347.429"/>
<polygon fill="black" stroke="black" points="1025.83,-343.947 1015.26,-344.6 1023.93,-350.684 1025.83,-343.947"/>
</g>
<!-- rast_1km_raster_file -->
<g id="node9" class="node"><title>rast_1km_raster_file</title>
<path fill="#ffffcc" stroke="black" d="M705.795,-381.1C705.795,-381.1 1022.2,-381.1 1022.2,-381.1 1028.2,-381.1 1034.2,-387.1 1034.2,-393.1 1034.2,-393.1 1034.2,-418.7 1034.2,-418.7 1034.2,-424.7 1028.2,-430.7 1022.2,-430.7 1022.2,-430.7 705.795,-430.7 705.795,-430.7 699.795,-430.7 693.795,-424.7 693.795,-418.7 693.795,-418.7 693.795,-393.1 693.795,-393.1 693.795,-387.1 699.795,-381.1 705.795,-381.1"/>
<text text-anchor="middle" x="864" y="-414.1" font-family="Helvetica,sans-Serif" font-size="14.00">rast_1km_raster_file</text>
<polyline fill="none" stroke="black" points="693.795,-405.9 1034.2,-405.9 "/>
<text text-anchor="middle" x="864" y="-389.3" font-family="Helvetica,sans-Serif" font-size="14.00">file:{dir_goal}/spatial/hs_inland_1km_raster_500m.tif</text>
</g>
<!-- rast_1km_raster_file&#45;&gt;read_in_OHI_region_rasters -->
<g id="edge9" class="edge"><title>rast_1km_raster_file&#45;&gt;read_in_OHI_region_rasters</title>
<path fill="none" stroke="black" d="M892.294,-380.866C903.378,-371.45 916.059,-360.678 927.104,-351.296"/>
<polygon fill="black" stroke="black" points="929.456,-353.891 934.811,-344.749 924.924,-348.556 929.456,-353.891"/>
</g>
<!-- rast_ws_raster_file -->
<g id="node10" class="node"><title>rast_ws_raster_file</title>
<path fill="#ffffcc" stroke="black" d="M333.782,-381.1C333.782,-381.1 664.218,-381.1 664.218,-381.1 670.218,-381.1 676.218,-387.1 676.218,-393.1 676.218,-393.1 676.218,-418.7 676.218,-418.7 676.218,-424.7 670.218,-430.7 664.218,-430.7 664.218,-430.7 333.782,-430.7 333.782,-430.7 327.782,-430.7 321.782,-424.7 321.782,-418.7 321.782,-418.7 321.782,-393.1 321.782,-393.1 321.782,-387.1 327.782,-381.1 333.782,-381.1"/>
<text text-anchor="middle" x="499" y="-414.1" font-family="Helvetica,sans-Serif" font-size="14.00">rast_ws_raster_file</text>
<polyline fill="none" stroke="black" points="321.782,-405.9 676.218,-405.9 "/>
<text text-anchor="middle" x="499" y="-389.3" font-family="Helvetica,sans-Serif" font-size="14.00">file:{dir_goal}/spatial/howe_sound_watershed_500m.tif</text>
</g>
<!-- rast_ws_raster_file&#45;&gt;read_in_OHI_region_rasters -->
<g id="edge10" class="edge"><title>rast_ws_raster_file&#45;&gt;read_in_OHI_region_rasters</title>
<path fill="none" stroke="black" d="M639.536,-381.077C705.474,-369.899 782.915,-356.771 844.568,-346.32"/>
<polygon fill="black" stroke="black" points="845.439,-349.723 854.713,-344.6 844.269,-342.821 845.439,-349.723"/>
</g>
<!-- rast_pep_file -->
<g id="node11" class="node"><title>rast_pep_file</title>
<path fill="#ffffcc" stroke="black" d="M36.1277,-381.1C36.1277,-381.1 291.872,-381.1 291.872,-381.1 297.872,-381.1 303.872,-387.1 303.872,-393.1 303.872,-393.1 303.872,-418.7 303.872,-418.7 303.872,-424.7 297.872,-430.7 291.872,-430.7 291.872,-430.7 36.1277,-430.7 36.1277,-430.7 30.1277,-430.7 24.1277,-424.7 24.1277,-418.7 24.1277,-418.7 24.1277,-393.1 24.1277,-393.1 24.1277,-387.1 30.1277,-381.1 36.1277,-381.1"/>
<text text-anchor="middle" x="164" y="-414.1" font-family="Helvetica,sans-Serif" font-size="14.00">rast_pep_file</text>
<polyline fill="none" stroke="black" points="24.1277,-405.9 303.872,-405.9 "/>
<text text-anchor="middle" x="164" y="-389.3" font-family="Helvetica,sans-Serif" font-size="14.00">file:{dir_goal}/spatial/hs_pep_rast_500m.tif</text>
</g>
<!-- rast_pep_file&#45;&gt;read_in_OHI_region_rasters -->
<g id="edge11" class="edge"><title>rast_pep_file&#45;&gt;read_in_OHI_region_rasters</title>
<path fill="none" stroke="black" d="M303.938,-381.747C306.985,-381.35 310.008,-380.967 313,-380.6 490.968,-358.777 697.822,-343.501 827.582,-335.131"/>
<polygon fill="black" stroke="black" points="827.809,-338.623 837.565,-334.491 827.361,-331.638 827.809,-338.623"/>
</g>
<!-- rast_wdpa_pep_file -->
<g id="node12" class="node"><title>rast_wdpa_pep_file</title>
<path fill="#ffffcc" stroke="black" d="M1436.07,-381.1C1436.07,-381.1 1701.93,-381.1 1701.93,-381.1 1707.93,-381.1 1713.93,-387.1 1713.93,-393.1 1713.93,-393.1 1713.93,-418.7 1713.93,-418.7 1713.93,-424.7 1707.93,-430.7 1701.93,-430.7 1701.93,-430.7 1436.07,-430.7 1436.07,-430.7 1430.07,-430.7 1424.07,-424.7 1424.07,-418.7 1424.07,-418.7 1424.07,-393.1 1424.07,-393.1 1424.07,-387.1 1430.07,-381.1 1436.07,-381.1"/>
<text text-anchor="middle" x="1569" y="-414.1" font-family="Helvetica,sans-Serif" font-size="14.00">rast_wdpa_pep_file</text>
<polyline fill="none" stroke="black" points="1424.07,-405.9 1713.93,-405.9 "/>
<text text-anchor="middle" x="1569" y="-389.3" font-family="Helvetica,sans-Serif" font-size="14.00">file:{dir_goal}/spatial/hs_wdpa_rast_500m.tif</text>
</g>
<!-- rast_wdpa_pep_file&#45;&gt;read_in_OHI_region_rasters -->
<g id="edge12" class="edge"><title>rast_wdpa_pep_file&#45;&gt;read_in_OHI_region_rasters</title>
<path fill="none" stroke="black" d="M1423.93,-381.837C1420.93,-381.415 1417.95,-381.003 1415,-380.6 1302.8,-365.291 1174.79,-350.782 1082.35,-340.828"/>
<polygon fill="black" stroke="black" points="1082.71,-337.346 1072.39,-339.758 1081.96,-344.306 1082.71,-337.346"/>
</g>
<!-- rast_3nm&#45;&gt;outputs_zonal_stats_dataframes_for_protected_cells -->
<g id="edge17" class="edge"><title>rast_3nm&#45;&gt;outputs_zonal_stats_dataframes_for_protected_cells</title>
<path fill="none" stroke="black" d="M1179.75,-237.891C1156.44,-228.061 1126.13,-215.28 1100.77,-204.588"/>
<polygon fill="black" stroke="black" points="1101.9,-201.264 1091.32,-200.603 1099.18,-207.714 1101.9,-201.264"/>
</g>
<!-- rast_1km&#45;&gt;outputs_zonal_stats_dataframes_for_protected_cells -->
<g id="edge18" class="edge"><title>rast_1km&#45;&gt;outputs_zonal_stats_dataframes_for_protected_cells</title>
<path fill="none" stroke="black" d="M861.58,-239.828C864.756,-238.709 867.929,-237.618 871,-236.6 906.601,-224.795 946.588,-212.889 979.815,-203.359"/>
<polygon fill="black" stroke="black" points="980.791,-206.72 989.446,-200.609 978.869,-199.989 980.791,-206.72"/>
</g>
<!-- rast_ws&#45;&gt;outputs_zonal_stats_dataframes_for_protected_cells -->
<g id="edge19" class="edge"><title>rast_ws&#45;&gt;outputs_zonal_stats_dataframes_for_protected_cells</title>
<path fill="none" stroke="black" d="M944.239,-237.365C963.156,-227.838 987.302,-215.678 1007.84,-205.333"/>
<polygon fill="black" stroke="black" points="1009.64,-208.348 1017,-200.724 1006.49,-202.096 1009.64,-208.348"/>
</g>
<!-- rast_pep&#45;&gt;outputs_zonal_stats_dataframes_for_protected_cells -->
<g id="edge20" class="edge"><title>rast_pep&#45;&gt;outputs_zonal_stats_dataframes_for_protected_cells</title>
<path fill="none" stroke="black" d="M1010.35,-236.297C1016.76,-227.989 1024.56,-217.877 1031.61,-208.741"/>
<polygon fill="black" stroke="black" points="1034.47,-210.76 1037.81,-200.704 1028.93,-206.484 1034.47,-210.76"/>
</g>
<!-- rast_wdpa_pep&#45;&gt;outputs_zonal_stats_dataframes_for_protected_cells -->
<g id="edge21" class="edge"><title>rast_wdpa_pep&#45;&gt;outputs_zonal_stats_dataframes_for_protected_cells</title>
<path fill="none" stroke="black" d="M1092.4,-236.297C1085.88,-227.989 1077.93,-217.877 1070.75,-208.741"/>
<polygon fill="black" stroke="black" points="1073.37,-206.405 1064.44,-200.704 1067.87,-210.73 1073.37,-206.405"/>
</g>
<!-- dir_goal&#45;&gt;outputs_zonal_stats_dataframes_for_protected_cells -->
<g id="edge16" class="edge"><title>dir_goal&#45;&gt;outputs_zonal_stats_dataframes_for_protected_cells</title>
<path fill="none" stroke="black" d="M1364.14,-246.951C1314.35,-236.88 1217.92,-217.371 1145.16,-202.65"/>
<polygon fill="black" stroke="black" points="1145.56,-199.159 1135.06,-200.606 1144.17,-206.02 1145.56,-199.159"/>
</g>
<!-- setup_R_input_port -->
<g id="node19" class="node"><title>setup_R_input_port</title>
<ellipse fill="#ffffff" stroke="black" cx="1126" cy="-478.2" rx="7" ry="7"/>
</g>
<!-- setup_R_input_port&#45;&gt;setup_R -->
<g id="edge22" class="edge"><title>setup_R_input_port&#45;&gt;setup_R</title>
<path fill="none" stroke="black" d="M1133.19,-477.138C1197.04,-476.545 1666.05,-471.387 1723,-447.2 1731.39,-443.636 1739.15,-437.668 1745.71,-431.404"/>
<polygon fill="black" stroke="black" points="1748.39,-433.667 1752.81,-424.039 1743.35,-428.808 1748.39,-433.667"/>
</g>
<!-- rast_3nm_raster_file_input_port -->
<g id="node20" class="node"><title>rast_3nm_raster_file_input_port</title>
<ellipse fill="#ffffff" stroke="black" cx="1062" cy="-478.2" rx="7" ry="7"/>
</g>
<!-- rast_3nm_raster_file_input_port&#45;&gt;rast_3nm_raster_file -->
<g id="edge23" class="edge"><title>rast_3nm_raster_file_input_port&#45;&gt;rast_3nm_raster_file</title>
<path fill="none" stroke="black" d="M1064.68,-471.727C1067.39,-466.741 1072.03,-459.515 1078,-455.2 1089.13,-447.157 1101.66,-440.414 1114.61,-434.771"/>
<polygon fill="black" stroke="black" points="1116.2,-437.902 1124.11,-430.853 1113.53,-431.431 1116.2,-437.902"/>
</g>
<!-- rast_1km_raster_file_input_port -->
<g id="node21" class="node"><title>rast_1km_raster_file_input_port</title>
<ellipse fill="#ffffff" stroke="black" cx="1030" cy="-478.2" rx="7" ry="7"/>
</g>
<!-- rast_1km_raster_file_input_port&#45;&gt;rast_1km_raster_file -->
<g id="edge24" class="edge"><title>rast_1km_raster_file_input_port&#45;&gt;rast_1km_raster_file</title>
<path fill="none" stroke="black" d="M1027.31,-471.73C1024.6,-466.745 1019.97,-459.521 1014,-455.2 1002.86,-447.13 990.301,-440.366 977.32,-434.708"/>
<polygon fill="black" stroke="black" points="978.385,-431.361 967.807,-430.78 975.714,-437.831 978.385,-431.361"/>
</g>
<!-- rast_ws_raster_file_input_port -->
<g id="node22" class="node"><title>rast_ws_raster_file_input_port</title>
<ellipse fill="#ffffff" stroke="black" cx="998" cy="-478.2" rx="7" ry="7"/>
</g>
<!-- rast_ws_raster_file_input_port&#45;&gt;rast_ws_raster_file -->
<g id="edge25" class="edge"><title>rast_ws_raster_file_input_port&#45;&gt;rast_ws_raster_file</title>
<path fill="none" stroke="black" d="M995.568,-471.323C993.035,-466.05 988.52,-458.631 982,-455.2 967.393,-447.513 701.387,-449.178 685,-447.2 658.095,-443.952 629.337,-438.648 602.675,-432.939"/>
<polygon fill="black" stroke="black" points="603.083,-429.446 592.567,-430.735 601.592,-436.285 603.083,-429.446"/>
</g>
<!-- rast_pep_file_input_port -->
<g id="node23" class="node"><title>rast_pep_file_input_port</title>
<ellipse fill="#ffffff" stroke="black" cx="966" cy="-478.2" rx="7" ry="7"/>
</g>
<!-- rast_pep_file_input_port&#45;&gt;rast_pep_file -->
<g id="edge26" class="edge"><title>rast_pep_file_input_port&#45;&gt;rast_pep_file</title>
<path fill="none" stroke="black" d="M958.748,-477.085C896.164,-476.062 446.431,-468.053 313,-447.2 292.086,-443.932 269.893,-438.843 249.201,-433.369"/>
<polygon fill="black" stroke="black" points="250.061,-429.976 239.494,-430.745 248.234,-436.734 250.061,-429.976"/>
</g>
<!-- rast_wdpa_pep_file_input_port -->
<g id="node24" class="node"><title>rast_wdpa_pep_file_input_port</title>
<ellipse fill="#ffffff" stroke="black" cx="1094" cy="-478.2" rx="7" ry="7"/>
</g>
<!-- rast_wdpa_pep_file_input_port&#45;&gt;rast_wdpa_pep_file -->
<g id="edge27" class="edge"><title>rast_wdpa_pep_file_input_port&#45;&gt;rast_wdpa_pep_file</title>
<path fill="none" stroke="black" d="M1096.43,-471.321C1098.96,-466.048 1103.48,-458.629 1110,-455.2 1125,-447.311 1398.22,-449.584 1415,-447.2 1437.07,-444.066 1460.51,-438.907 1482.28,-433.31"/>
<polygon fill="black" stroke="black" points="1483.37,-436.642 1492.15,-430.713 1481.59,-429.872 1483.37,-436.642"/>
</g>
</g>
</svg>
