<?xml version="1.0" encoding="UTF-8" standalone="no"?>
<!DOCTYPE svg PUBLIC "-//W3C//DTD SVG 1.1//EN"
 "http://www.w3.org/Graphics/SVG/1.1/DTD/svg11.dtd">
<!-- Generated by graphviz version 2.38.0 (20140413.2041)
 -->
<!-- Title: yw_data_view Pages: 1 -->
<svg width="1262pt" height="523pt"
 viewBox="0.00 0.00 1262.00 522.80" xmlns="http://www.w3.org/2000/svg" xmlns:xlink="http://www.w3.org/1999/xlink">
<g id="graph0" class="graph" transform="scale(1 1) rotate(0) translate(4 518.8)">
<title>yw_data_view</title>
<polygon fill="white" stroke="none" points="-4,4 -4,-518.8 1258,-518.8 1258,4 -4,4"/>
<text text-anchor="middle" x="627" y="-494.6" font-family="Courier,monospace" font-size="18.00">calculate_goal_model</text>
<g id="clust1" class="cluster"><title>cluster_workflow</title>
<polygon fill="none" stroke="black" stroke-width="2" points="8,-62 8,-423.2 1246,-423.2 1246,-62 8,-62"/>
</g>
<g id="clust2" class="cluster"><title>cluster_workflow_inner</title>
<polygon fill="none" stroke="white" stroke-width="2" points="16,-70 16,-415.2 1238,-415.2 1238,-70 16,-70"/>
</g>
<g id="clust3" class="cluster"><title>cluster_inflows</title>
<polygon fill="none" stroke="white" stroke-width="2" points="739,-431.2 739,-477.2 945,-477.2 945,-431.2 739,-431.2"/>
</g>
<g id="clust4" class="cluster"><title>cluster_inflows_inner</title>
<polygon fill="none" stroke="white" stroke-width="2" points="747,-439.2 747,-469.2 937,-469.2 937,-439.2 747,-439.2"/>
</g>
<g id="clust5" class="cluster"><title>cluster_outflows</title>
<polygon fill="none" stroke="white" stroke-width="2" points="676,-8 676,-54 786,-54 786,-8 676,-8"/>
</g>
<g id="clust6" class="cluster"><title>cluster_outflows_inner</title>
<polygon fill="none" stroke="white" stroke-width="2" points="684,-16 684,-46 778,-46 778,-16 684,-16"/>
</g>
<!-- set_up_configuration_and_start_provenance_tracking -->
<g id="node1" class="node"><title>set_up_configuration_and_start_provenance_tracking</title>
<polygon fill="#ccffcc" stroke="black" points="1229.93,-332.6 794.07,-332.6 794.07,-296.6 1229.93,-296.6 1229.93,-332.6"/>
<text text-anchor="middle" x="1012" y="-310.4" font-family="Courier,monospace" font-size="14.00">set_up_configuration_and_start_provenance_tracking</text>
</g>
<!-- dir_goal -->
<g id="node10" class="node"><title>dir_goal</title>
<path fill="#ffffcc" stroke="black" d="M988,-260.6C988,-260.6 958,-260.6 958,-260.6 952,-260.6 946,-254.6 946,-248.6 946,-248.6 946,-236.6 946,-236.6 946,-230.6 952,-224.6 958,-224.6 958,-224.6 988,-224.6 988,-224.6 994,-224.6 1000,-230.6 1000,-236.6 1000,-236.6 1000,-248.6 1000,-248.6 1000,-254.6 994,-260.6 988,-260.6"/>
<text text-anchor="middle" x="973" y="-239.9" font-family="Helvetica,sans-Serif" font-size="9.00">dir_goal</text>
</g>
<!-- set_up_configuration_and_start_provenance_tracking&#45;&gt;dir_goal -->
<g id="edge13" class="edge"><title>set_up_configuration_and_start_provenance_tracking&#45;&gt;dir_goal</title>
<path fill="none" stroke="black" d="M1002.36,-296.297C997.873,-288.244 992.441,-278.494 987.476,-269.582"/>
<polygon fill="black" stroke="black" points="990.454,-267.737 982.53,-260.704 984.339,-271.144 990.454,-267.737"/>
</g>
<!-- read_in_OHI_region_rasters -->
<g id="node2" class="node"><title>read_in_OHI_region_rasters</title>
<polygon fill="#ccffcc" stroke="black" points="776.364,-332.6 541.636,-332.6 541.636,-296.6 776.364,-296.6 776.364,-332.6"/>
<text text-anchor="middle" x="659" y="-310.4" font-family="Courier,monospace" font-size="14.00">read_in_OHI_region_rasters</text>
</g>
<!-- rast_3nm -->
<g id="node11" class="node"><title>rast_3nm</title>
<path fill="#ffffcc" stroke="black" d="M566,-260.6C566,-260.6 536,-260.6 536,-260.6 530,-260.6 524,-254.6 524,-248.6 524,-248.6 524,-236.6 524,-236.6 524,-230.6 530,-224.6 536,-224.6 536,-224.6 566,-224.6 566,-224.6 572,-224.6 578,-230.6 578,-236.6 578,-236.6 578,-248.6 578,-248.6 578,-254.6 572,-260.6 566,-260.6"/>
<text text-anchor="middle" x="551" y="-239.9" font-family="Helvetica,sans-Serif" font-size="9.00">rast_3nm</text>
</g>
<!-- read_in_OHI_region_rasters&#45;&gt;rast_3nm -->
<g id="edge14" class="edge"><title>read_in_OHI_region_rasters&#45;&gt;rast_3nm</title>
<path fill="none" stroke="black" d="M632.58,-296.476C618.59,-287.408 601.224,-276.152 586.114,-266.359"/>
<polygon fill="black" stroke="black" points="587.817,-263.292 577.521,-260.79 584.009,-269.166 587.817,-263.292"/>
</g>
<!-- rast_1km -->
<g id="node12" class="node"><title>rast_1km</title>
<path fill="#ffffcc" stroke="black" d="M638,-260.6C638,-260.6 608,-260.6 608,-260.6 602,-260.6 596,-254.6 596,-248.6 596,-248.6 596,-236.6 596,-236.6 596,-230.6 602,-224.6 608,-224.6 608,-224.6 638,-224.6 638,-224.6 644,-224.6 650,-230.6 650,-236.6 650,-236.6 650,-248.6 650,-248.6 650,-254.6 644,-260.6 638,-260.6"/>
<text text-anchor="middle" x="623" y="-239.9" font-family="Helvetica,sans-Serif" font-size="9.00">rast_1km</text>
</g>
<!-- read_in_OHI_region_rasters&#45;&gt;rast_1km -->
<g id="edge15" class="edge"><title>read_in_OHI_region_rasters&#45;&gt;rast_1km</title>
<path fill="none" stroke="black" d="M650.101,-296.297C646.003,-288.328 641.051,-278.7 636.507,-269.864"/>
<polygon fill="black" stroke="black" points="639.483,-267.996 631.797,-260.704 633.258,-271.198 639.483,-267.996"/>
</g>
<!-- rast_ws -->
<g id="node13" class="node"><title>rast_ws</title>
<path fill="#ffffcc" stroke="black" d="M710,-260.6C710,-260.6 680,-260.6 680,-260.6 674,-260.6 668,-254.6 668,-248.6 668,-248.6 668,-236.6 668,-236.6 668,-230.6 674,-224.6 680,-224.6 680,-224.6 710,-224.6 710,-224.6 716,-224.6 722,-230.6 722,-236.6 722,-236.6 722,-248.6 722,-248.6 722,-254.6 716,-260.6 710,-260.6"/>
<text text-anchor="middle" x="695" y="-239.9" font-family="Helvetica,sans-Serif" font-size="9.00">rast_ws</text>
</g>
<!-- read_in_OHI_region_rasters&#45;&gt;rast_ws -->
<g id="edge16" class="edge"><title>read_in_OHI_region_rasters&#45;&gt;rast_ws</title>
<path fill="none" stroke="black" d="M667.899,-296.297C671.997,-288.328 676.949,-278.7 681.493,-269.864"/>
<polygon fill="black" stroke="black" points="684.742,-271.198 686.203,-260.704 678.517,-267.996 684.742,-271.198"/>
</g>
<!-- rast_pep -->
<g id="node14" class="node"><title>rast_pep</title>
<path fill="#ffffcc" stroke="black" d="M782,-260.6C782,-260.6 752,-260.6 752,-260.6 746,-260.6 740,-254.6 740,-248.6 740,-248.6 740,-236.6 740,-236.6 740,-230.6 746,-224.6 752,-224.6 752,-224.6 782,-224.6 782,-224.6 788,-224.6 794,-230.6 794,-236.6 794,-236.6 794,-248.6 794,-248.6 794,-254.6 788,-260.6 782,-260.6"/>
<text text-anchor="middle" x="767" y="-239.9" font-family="Helvetica,sans-Serif" font-size="9.00">rast_pep</text>
</g>
<!-- read_in_OHI_region_rasters&#45;&gt;rast_pep -->
<g id="edge17" class="edge"><title>read_in_OHI_region_rasters&#45;&gt;rast_pep</title>
<path fill="none" stroke="black" d="M685.42,-296.476C699.41,-287.408 716.776,-276.152 731.886,-266.359"/>
<polygon fill="black" stroke="black" points="733.991,-269.166 740.479,-260.79 730.183,-263.292 733.991,-269.166"/>
</g>
<!-- rast_wdpa_pep -->
<g id="node15" class="node"><title>rast_wdpa_pep</title>
<path fill="#ffffcc" stroke="black" d="M877.524,-260.6C877.524,-260.6 824.476,-260.6 824.476,-260.6 818.476,-260.6 812.476,-254.6 812.476,-248.6 812.476,-248.6 812.476,-236.6 812.476,-236.6 812.476,-230.6 818.476,-224.6 824.476,-224.6 824.476,-224.6 877.524,-224.6 877.524,-224.6 883.524,-224.6 889.524,-230.6 889.524,-236.6 889.524,-236.6 889.524,-248.6 889.524,-248.6 889.524,-254.6 883.524,-260.6 877.524,-260.6"/>
<text text-anchor="middle" x="851" y="-239.9" font-family="Helvetica,sans-Serif" font-size="9.00">rast_wdpa_pep</text>
</g>
<!-- read_in_OHI_region_rasters&#45;&gt;rast_wdpa_pep -->
<g id="edge18" class="edge"><title>read_in_OHI_region_rasters&#45;&gt;rast_wdpa_pep</title>
<path fill="none" stroke="black" d="M705.968,-296.476C735.293,-285.785 772.961,-272.052 802.559,-261.261"/>
<polygon fill="black" stroke="black" points="804.067,-264.436 812.263,-257.723 801.669,-257.86 804.067,-264.436"/>
</g>
<!-- outputs_zonal_stats_dataframes_for_protected_cells -->
<g id="node3" class="node"><title>outputs_zonal_stats_dataframes_for_protected_cells</title>
<polygon fill="#ccffcc" stroke="black" points="948.93,-188.6 513.07,-188.6 513.07,-152.6 948.93,-152.6 948.93,-188.6"/>
<text text-anchor="middle" x="731" y="-166.4" font-family="Courier,monospace" font-size="14.00">outputs_zonal_stats_dataframes_for_protected_cells</text>
</g>
<!-- zonal_3nm_file -->
<g id="node16" class="node"><title>zonal_3nm_file</title>
<path fill="#ffe4b5" stroke="black" d="M409.816,-78.5C409.816,-78.5 596.184,-78.5 596.184,-78.5 602.184,-78.5 608.184,-84.5 608.184,-90.5 608.184,-90.5 608.184,-104.1 608.184,-104.1 608.184,-110.1 602.184,-116.1 596.184,-116.1 596.184,-116.1 409.816,-116.1 409.816,-116.1 403.816,-116.1 397.816,-110.1 397.816,-104.1 397.816,-104.1 397.816,-90.5 397.816,-90.5 397.816,-84.5 403.816,-78.5 409.816,-78.5"/>
<text text-anchor="middle" x="503" y="-104" font-family="Courier,monospace" font-weight="bold" font-size="9.00">zonal_3nm_file</text>
<polyline fill="none" stroke="black" points="397.816,-97.3 608.184,-97.3 "/>
<text text-anchor="start" x="405.816" y="-85.2" font-family="Courier,monospace" font-weight="bold" font-size="9.00">prep/lsp/vHS/int/zonal_stats_3nm.csv</text>
</g>
<!-- outputs_zonal_stats_dataframes_for_protected_cells&#45;&gt;zonal_3nm_file -->
<g id="edge19" class="edge"><title>outputs_zonal_stats_dataframes_for_protected_cells&#45;&gt;zonal_3nm_file</title>
<path fill="none" stroke="black" d="M676.388,-152.522C644.374,-142.51 603.689,-129.787 569.777,-119.182"/>
<polygon fill="black" stroke="black" points="570.536,-115.753 559.947,-116.108 568.447,-122.434 570.536,-115.753"/>
</g>
<!-- zonal_1km_file -->
<g id="node17" class="node"><title>zonal_1km_file</title>
<path fill="#ffe4b5" stroke="black" d="M637.816,-78.5C637.816,-78.5 824.184,-78.5 824.184,-78.5 830.184,-78.5 836.184,-84.5 836.184,-90.5 836.184,-90.5 836.184,-104.1 836.184,-104.1 836.184,-110.1 830.184,-116.1 824.184,-116.1 824.184,-116.1 637.816,-116.1 637.816,-116.1 631.816,-116.1 625.816,-110.1 625.816,-104.1 625.816,-104.1 625.816,-90.5 625.816,-90.5 625.816,-84.5 631.816,-78.5 637.816,-78.5"/>
<text text-anchor="middle" x="731" y="-104" font-family="Courier,monospace" font-weight="bold" font-size="9.00">zonal_1km_file</text>
<polyline fill="none" stroke="black" points="625.816,-97.3 836.184,-97.3 "/>
<text text-anchor="start" x="633.816" y="-85.2" font-family="Courier,monospace" font-weight="bold" font-size="9.00">prep/lsp/vHS/int/zonal_stats_1km.csv</text>
</g>
<!-- outputs_zonal_stats_dataframes_for_protected_cells&#45;&gt;zonal_1km_file -->
<g id="edge20" class="edge"><title>outputs_zonal_stats_dataframes_for_protected_cells&#45;&gt;zonal_1km_file</title>
<path fill="none" stroke="black" d="M731,-152.34C731,-144.605 731,-135.279 731,-126.568"/>
<polygon fill="black" stroke="black" points="734.5,-126.396 731,-116.396 727.5,-126.396 734.5,-126.396"/>
</g>
<!-- zonal_ws_file -->
<g id="node18" class="node"><title>zonal_ws_file</title>
<path fill="#ffe4b5" stroke="black" d="M866.516,-78.5C866.516,-78.5 1047.48,-78.5 1047.48,-78.5 1053.48,-78.5 1059.48,-84.5 1059.48,-90.5 1059.48,-90.5 1059.48,-104.1 1059.48,-104.1 1059.48,-110.1 1053.48,-116.1 1047.48,-116.1 1047.48,-116.1 866.516,-116.1 866.516,-116.1 860.516,-116.1 854.516,-110.1 854.516,-104.1 854.516,-104.1 854.516,-90.5 854.516,-90.5 854.516,-84.5 860.516,-78.5 866.516,-78.5"/>
<text text-anchor="middle" x="957" y="-104" font-family="Courier,monospace" font-weight="bold" font-size="9.00">zonal_ws_file</text>
<polyline fill="none" stroke="black" points="854.516,-97.3 1059.48,-97.3 "/>
<text text-anchor="start" x="862.516" y="-85.2" font-family="Courier,monospace" font-weight="bold" font-size="9.00">prep/lsp/vHS/int/zonal_stats_ws.csv</text>
</g>
<!-- outputs_zonal_stats_dataframes_for_protected_cells&#45;&gt;zonal_ws_file -->
<g id="edge21" class="edge"><title>outputs_zonal_stats_dataframes_for_protected_cells&#45;&gt;zonal_ws_file</title>
<path fill="none" stroke="black" d="M785.133,-152.522C816.867,-142.51 857.194,-129.787 890.809,-119.182"/>
<polygon fill="black" stroke="black" points="892.069,-122.455 900.552,-116.108 889.963,-115.779 892.069,-122.455"/>
</g>
<!-- setup_R -->
<g id="node4" class="node"><title>setup_R</title>
<path fill="#ffe4b5" stroke="black" d="M1188,-369.1C1188,-369.1 1218,-369.1 1218,-369.1 1224,-369.1 1230,-375.1 1230,-381.1 1230,-381.1 1230,-394.7 1230,-394.7 1230,-400.7 1224,-406.7 1218,-406.7 1218,-406.7 1188,-406.7 1188,-406.7 1182,-406.7 1176,-400.7 1176,-394.7 1176,-394.7 1176,-381.1 1176,-381.1 1176,-375.1 1182,-369.1 1188,-369.1"/>
<text text-anchor="middle" x="1202.9" y="-394.6" font-family="Courier,monospace" font-weight="bold" font-size="9.00">setup_R</text>
<polyline fill="none" stroke="black" points="1176,-387.9 1229.79,-387.9 "/>
<text text-anchor="middle" x="1202.9" y="-375.8" font-family="Courier,monospace" font-weight="bold" font-size="9.00"> </text>
</g>
<!-- setup_R&#45;&gt;set_up_configuration_and_start_provenance_tracking -->
<g id="edge1" class="edge"><title>setup_R&#45;&gt;set_up_configuration_and_start_provenance_tracking</title>
<path fill="none" stroke="black" d="M1175.67,-372.507C1172.77,-371.13 1169.84,-369.801 1167,-368.6 1138.18,-356.418 1105.5,-344.917 1077.6,-335.762"/>
<polygon fill="black" stroke="black" points="1078.54,-332.387 1067.95,-332.625 1076.38,-339.044 1078.54,-332.387"/>
</g>
<!-- rast_3nm_raster_file -->
<g id="node5" class="node"><title>rast_3nm_raster_file</title>
<path fill="#ffe4b5" stroke="black" d="M1046.01,-369.1C1046.01,-369.1 1145.99,-369.1 1145.99,-369.1 1151.99,-369.1 1157.99,-375.1 1157.99,-381.1 1157.99,-381.1 1157.99,-394.7 1157.99,-394.7 1157.99,-400.7 1151.99,-406.7 1145.99,-406.7 1145.99,-406.7 1046.01,-406.7 1046.01,-406.7 1040.01,-406.7 1034.01,-400.7 1034.01,-394.7 1034.01,-394.7 1034.01,-381.1 1034.01,-381.1 1034.01,-375.1 1040.01,-369.1 1046.01,-369.1"/>
<text text-anchor="middle" x="1096" y="-394.6" font-family="Courier,monospace" font-weight="bold" font-size="9.00">rast_3nm_raster_file</text>
<polyline fill="none" stroke="black" points="1034.01,-387.9 1157.99,-387.9 "/>
<text text-anchor="middle" x="1096" y="-375.8" font-family="Courier,monospace" font-weight="bold" font-size="9.00"> </text>
</g>
<!-- rast_3nm_raster_file&#45;&gt;read_in_OHI_region_rasters -->
<g id="edge3" class="edge"><title>rast_3nm_raster_file&#45;&gt;read_in_OHI_region_rasters</title>
<path fill="none" stroke="black" d="M1033.75,-370.448C1030.8,-369.796 1027.87,-369.176 1025,-368.6 1001.67,-363.918 882.614,-346.884 786.529,-333.375"/>
<polygon fill="black" stroke="black" points="786.81,-329.88 776.42,-331.955 785.836,-336.812 786.81,-329.88"/>
</g>
<!-- rast_1km_raster_file -->
<g id="node6" class="node"><title>rast_1km_raster_file</title>
<path fill="#ffe4b5" stroke="black" d="M904.009,-369.1C904.009,-369.1 1003.99,-369.1 1003.99,-369.1 1009.99,-369.1 1015.99,-375.1 1015.99,-381.1 1015.99,-381.1 1015.99,-394.7 1015.99,-394.7 1015.99,-400.7 1009.99,-406.7 1003.99,-406.7 1003.99,-406.7 904.009,-406.7 904.009,-406.7 898.009,-406.7 892.009,-400.7 892.009,-394.7 892.009,-394.7 892.009,-381.1 892.009,-381.1 892.009,-375.1 898.009,-369.1 904.009,-369.1"/>
<text text-anchor="middle" x="954" y="-394.6" font-family="Courier,monospace" font-weight="bold" font-size="9.00">rast_1km_raster_file</text>
<polyline fill="none" stroke="black" points="892.009,-387.9 1015.99,-387.9 "/>
<text text-anchor="middle" x="954" y="-375.8" font-family="Courier,monospace" font-weight="bold" font-size="9.00"> </text>
</g>
<!-- rast_1km_raster_file&#45;&gt;read_in_OHI_region_rasters -->
<g id="edge4" class="edge"><title>rast_1km_raster_file&#45;&gt;read_in_OHI_region_rasters</title>
<path fill="none" stroke="black" d="M891.68,-370.762C888.747,-370.026 885.842,-369.302 883,-368.6 836.668,-357.149 784.816,-344.848 742.677,-334.981"/>
<polygon fill="black" stroke="black" points="743.272,-331.526 732.737,-332.657 741.678,-338.342 743.272,-331.526"/>
</g>
<!-- rast_ws_raster_file -->
<g id="node7" class="node"><title>rast_ws_raster_file</title>
<path fill="#ffe4b5" stroke="black" d="M600.022,-369.1C600.022,-369.1 861.978,-369.1 861.978,-369.1 867.978,-369.1 873.978,-375.1 873.978,-381.1 873.978,-381.1 873.978,-394.7 873.978,-394.7 873.978,-400.7 867.978,-406.7 861.978,-406.7 861.978,-406.7 600.022,-406.7 600.022,-406.7 594.022,-406.7 588.022,-400.7 588.022,-394.7 588.022,-394.7 588.022,-381.1 588.022,-381.1 588.022,-375.1 594.022,-369.1 600.022,-369.1"/>
<text text-anchor="middle" x="731" y="-394.6" font-family="Courier,monospace" font-weight="bold" font-size="9.00">rast_ws_raster_file</text>
<polyline fill="none" stroke="black" points="588.022,-387.9 873.978,-387.9 "/>
<text text-anchor="start" x="596.022" y="-375.8" font-family="Courier,monospace" font-weight="bold" font-size="9.00">prep/lsp/vHS/spatial/howe_sound_watershed_500m.tif</text>
</g>
<!-- rast_ws_raster_file&#45;&gt;read_in_OHI_region_rasters -->
<g id="edge5" class="edge"><title>rast_ws_raster_file&#45;&gt;read_in_OHI_region_rasters</title>
<path fill="none" stroke="black" d="M712.831,-368.908C704.022,-360.184 693.306,-349.573 683.762,-340.121"/>
<polygon fill="black" stroke="black" points="685.986,-337.398 676.418,-332.848 681.06,-342.372 685.986,-337.398"/>
</g>
<!-- rast_pep_file -->
<g id="node8" class="node"><title>rast_pep_file</title>
<path fill="#ffe4b5" stroke="black" d="M296.022,-369.1C296.022,-369.1 557.978,-369.1 557.978,-369.1 563.978,-369.1 569.978,-375.1 569.978,-381.1 569.978,-381.1 569.978,-394.7 569.978,-394.7 569.978,-400.7 563.978,-406.7 557.978,-406.7 557.978,-406.7 296.022,-406.7 296.022,-406.7 290.022,-406.7 284.022,-400.7 284.022,-394.7 284.022,-394.7 284.022,-381.1 284.022,-381.1 284.022,-375.1 290.022,-369.1 296.022,-369.1"/>
<text text-anchor="middle" x="427" y="-394.6" font-family="Courier,monospace" font-weight="bold" font-size="9.00">rast_pep_file</text>
<polyline fill="none" stroke="black" points="284.022,-387.9 569.978,-387.9 "/>
<text text-anchor="start" x="292.022" y="-375.8" font-family="Courier,monospace" font-weight="bold" font-size="9.00">prep/lsp/vHS/spatial/howe_sound_watershed_500m.tif</text>
</g>
<!-- rast_pep_file&#45;&gt;read_in_OHI_region_rasters -->
<g id="edge6" class="edge"><title>rast_pep_file&#45;&gt;read_in_OHI_region_rasters</title>
<path fill="none" stroke="black" d="M484.945,-369.092C517.927,-358.956 559.345,-346.227 593.503,-335.729"/>
<polygon fill="black" stroke="black" points="594.86,-338.973 603.391,-332.69 592.804,-332.282 594.86,-338.973"/>
</g>
<!-- rast_wdpa_pep_file -->
<g id="node9" class="node"><title>rast_wdpa_pep_file</title>
<path fill="#ffe4b5" stroke="black" d="M35.6189,-369.1C35.6189,-369.1 254.381,-369.1 254.381,-369.1 260.381,-369.1 266.381,-375.1 266.381,-381.1 266.381,-381.1 266.381,-394.7 266.381,-394.7 266.381,-400.7 260.381,-406.7 254.381,-406.7 254.381,-406.7 35.6189,-406.7 35.6189,-406.7 29.6189,-406.7 23.6189,-400.7 23.6189,-394.7 23.6189,-394.7 23.6189,-381.1 23.6189,-381.1 23.6189,-375.1 29.6189,-369.1 35.6189,-369.1"/>
<text text-anchor="middle" x="145" y="-394.6" font-family="Courier,monospace" font-weight="bold" font-size="9.00">rast_wdpa_pep_file</text>
<polyline fill="none" stroke="black" points="23.6189,-387.9 266.381,-387.9 "/>
<text text-anchor="start" x="31.6189" y="-375.8" font-family="Courier,monospace" font-weight="bold" font-size="9.00">prep/lsp/vHS/spatial/hs_wdpa_rast_500m.tif</text>
</g>
<!-- rast_wdpa_pep_file&#45;&gt;read_in_OHI_region_rasters -->
<g id="edge7" class="edge"><title>rast_wdpa_pep_file&#45;&gt;read_in_OHI_region_rasters</title>
<path fill="none" stroke="black" d="M266.442,-369.794C269.322,-369.392 272.178,-368.993 275,-368.6 360.638,-356.662 457.04,-343.358 531.83,-333.065"/>
<polygon fill="black" stroke="black" points="532.34,-336.527 541.77,-331.697 531.386,-329.593 532.34,-336.527"/>
</g>
<!-- dir_goal&#45;&gt;outputs_zonal_stats_dataframes_for_protected_cells -->
<g id="edge2" class="edge"><title>dir_goal&#45;&gt;outputs_zonal_stats_dataframes_for_protected_cells</title>
<path fill="none" stroke="black" d="M945.71,-233.706C910.554,-223.537 848.204,-205.502 799.72,-191.478"/>
<polygon fill="black" stroke="black" points="800.488,-188.057 789.91,-188.64 798.543,-194.781 800.488,-188.057"/>
</g>
<!-- rast_3nm&#45;&gt;outputs_zonal_stats_dataframes_for_protected_cells -->
<g id="edge8" class="edge"><title>rast_3nm&#45;&gt;outputs_zonal_stats_dataframes_for_protected_cells</title>
<path fill="none" stroke="black" d="M578.011,-228.531C581.027,-227.165 584.068,-225.829 587,-224.6 614.449,-213.094 645.367,-201.536 671.498,-192.163"/>
<polygon fill="black" stroke="black" points="673.017,-195.337 681.261,-188.683 670.666,-188.744 673.017,-195.337"/>
</g>
<!-- rast_1km&#45;&gt;outputs_zonal_stats_dataframes_for_protected_cells -->
<g id="edge9" class="edge"><title>rast_1km&#45;&gt;outputs_zonal_stats_dataframes_for_protected_cells</title>
<path fill="none" stroke="black" d="M649.42,-224.476C663.41,-215.408 680.776,-204.152 695.886,-194.359"/>
<polygon fill="black" stroke="black" points="697.991,-197.166 704.479,-188.79 694.183,-191.292 697.991,-197.166"/>
</g>
<!-- rast_ws&#45;&gt;outputs_zonal_stats_dataframes_for_protected_cells -->
<g id="edge10" class="edge"><title>rast_ws&#45;&gt;outputs_zonal_stats_dataframes_for_protected_cells</title>
<path fill="none" stroke="black" d="M703.899,-224.297C707.997,-216.328 712.949,-206.7 717.493,-197.864"/>
<polygon fill="black" stroke="black" points="720.742,-199.198 722.203,-188.704 714.517,-195.996 720.742,-199.198"/>
</g>
<!-- rast_pep&#45;&gt;outputs_zonal_stats_dataframes_for_protected_cells -->
<g id="edge11" class="edge"><title>rast_pep&#45;&gt;outputs_zonal_stats_dataframes_for_protected_cells</title>
<path fill="none" stroke="black" d="M758.101,-224.297C754.003,-216.328 749.051,-206.7 744.507,-197.864"/>
<polygon fill="black" stroke="black" points="747.483,-195.996 739.797,-188.704 741.258,-199.198 747.483,-195.996"/>
</g>
<!-- rast_wdpa_pep&#45;&gt;outputs_zonal_stats_dataframes_for_protected_cells -->
<g id="edge12" class="edge"><title>rast_wdpa_pep&#45;&gt;outputs_zonal_stats_dataframes_for_protected_cells</title>
<path fill="none" stroke="black" d="M821.645,-224.476C805.955,-215.324 786.443,-203.942 769.546,-194.085"/>
<polygon fill="black" stroke="black" points="770.87,-190.805 760.468,-188.79 767.342,-196.852 770.87,-190.805"/>
</g>
<!-- zonal_3nm_file_outflow -->
<g id="node27" class="node"><title>zonal_3nm_file_outflow</title>
<ellipse fill="none" stroke="black" cx="699" cy="-31" rx="7" ry="7"/>
</g>
<!-- zonal_3nm_file&#45;&gt;zonal_3nm_file_outflow -->
<g id="edge30" class="edge"><title>zonal_3nm_file&#45;&gt;zonal_3nm_file_outflow</title>
<path fill="none" stroke="black" d="M557.337,-78.4743C599.566,-64.6204 655.392,-46.3061 682.635,-37.3688"/>
<polygon fill="black" stroke="black" points="684.026,-40.5959 692.437,-34.153 681.844,-33.9446 684.026,-40.5959"/>
</g>
<!-- zonal_1km_file_outflow -->
<g id="node26" class="node"><title>zonal_1km_file_outflow</title>
<ellipse fill="none" stroke="black" cx="731" cy="-31" rx="7" ry="7"/>
</g>
<!-- zonal_1km_file&#45;&gt;zonal_1km_file_outflow -->
<g id="edge29" class="edge"><title>zonal_1km_file&#45;&gt;zonal_1km_file_outflow</title>
<path fill="none" stroke="black" d="M731,-78.3889C731,-68.9828 731,-57.5389 731,-48.3712"/>
<polygon fill="black" stroke="black" points="734.5,-48.3008 731,-38.3008 727.5,-48.3008 734.5,-48.3008"/>
</g>
<!-- zonal_ws_file_outflow -->
<g id="node25" class="node"><title>zonal_ws_file_outflow</title>
<ellipse fill="none" stroke="black" cx="763" cy="-31" rx="7" ry="7"/>
</g>
<!-- zonal_ws_file&#45;&gt;zonal_ws_file_outflow -->
<g id="edge28" class="edge"><title>zonal_ws_file&#45;&gt;zonal_ws_file_outflow</title>
<path fill="none" stroke="black" d="M903.218,-78.4743C861.419,-64.6204 806.163,-46.3061 779.198,-37.3688"/>
<polygon fill="black" stroke="black" points="780.089,-33.9769 769.496,-34.153 777.887,-40.6215 780.089,-33.9769"/>
</g>
<!-- setup_R_inflow -->
<g id="node19" class="node"><title>setup_R_inflow</title>
<ellipse fill="none" stroke="black" cx="922" cy="-454.2" rx="7" ry="7"/>
</g>
<!-- setup_R_inflow&#45;&gt;setup_R -->
<g id="edge22" class="edge"><title>setup_R_inflow&#45;&gt;setup_R</title>
<path fill="none" stroke="black" d="M929.027,-452.932C964.401,-451.497 1123.03,-443.984 1167,-423.2 1172.07,-420.802 1176.89,-417.411 1181.26,-413.685"/>
<polygon fill="black" stroke="black" points="1183.72,-416.173 1188.58,-406.759 1178.91,-411.086 1183.72,-416.173"/>
</g>
<!-- rast_3nm_raster_file_inflow -->
<g id="node20" class="node"><title>rast_3nm_raster_file_inflow</title>
<ellipse fill="none" stroke="black" cx="890" cy="-454.2" rx="7" ry="7"/>
</g>
<!-- rast_3nm_raster_file_inflow&#45;&gt;rast_3nm_raster_file -->
<g id="edge23" class="edge"><title>rast_3nm_raster_file_inflow&#45;&gt;rast_3nm_raster_file</title>
<path fill="none" stroke="black" d="M892.465,-447.382C895.02,-442.152 899.551,-434.762 906,-431.2 929.201,-418.387 999.377,-429.977 1025,-423.2 1035.53,-420.415 1046.37,-416.047 1056.32,-411.35"/>
<polygon fill="black" stroke="black" points="1058.13,-414.359 1065.54,-406.786 1055.02,-408.086 1058.13,-414.359"/>
</g>
<!-- rast_1km_raster_file_inflow -->
<g id="node21" class="node"><title>rast_1km_raster_file_inflow</title>
<ellipse fill="none" stroke="black" cx="858" cy="-454.2" rx="7" ry="7"/>
</g>
<!-- rast_1km_raster_file_inflow&#45;&gt;rast_1km_raster_file -->
<g id="edge24" class="edge"><title>rast_1km_raster_file_inflow&#45;&gt;rast_1km_raster_file</title>
<path fill="none" stroke="black" d="M861.091,-447.586C863.952,-442.776 868.576,-435.902 874,-431.2 882.453,-423.873 892.392,-417.349 902.338,-411.749"/>
<polygon fill="black" stroke="black" points="904.274,-414.682 911.43,-406.869 900.964,-408.514 904.274,-414.682"/>
</g>
<!-- rast_ws_raster_file_inflow -->
<g id="node22" class="node"><title>rast_ws_raster_file_inflow</title>
<ellipse fill="none" stroke="black" cx="826" cy="-454.2" rx="7" ry="7"/>
</g>
<!-- rast_ws_raster_file_inflow&#45;&gt;rast_ws_raster_file -->
<g id="edge25" class="edge"><title>rast_ws_raster_file_inflow&#45;&gt;rast_ws_raster_file</title>
<path fill="none" stroke="black" d="M822.903,-447.593C820.038,-442.788 815.412,-435.916 810,-431.2 801.559,-423.844 791.62,-417.281 781.693,-411.646"/>
<polygon fill="black" stroke="black" points="783.083,-408.419 772.623,-406.736 779.751,-414.575 783.083,-408.419"/>
</g>
<!-- rast_pep_file_inflow -->
<g id="node23" class="node"><title>rast_pep_file_inflow</title>
<ellipse fill="none" stroke="black" cx="794" cy="-454.2" rx="7" ry="7"/>
</g>
<!-- rast_pep_file_inflow&#45;&gt;rast_pep_file -->
<g id="edge26" class="edge"><title>rast_pep_file_inflow&#45;&gt;rast_pep_file</title>
<path fill="none" stroke="black" d="M791.557,-447.342C789.017,-442.084 784.497,-434.674 778,-431.2 758.486,-420.764 600.939,-426.092 579,-423.2 554.249,-419.937 527.59,-414.57 503.615,-409.039"/>
<polygon fill="black" stroke="black" points="504.406,-405.629 493.87,-406.748 502.804,-412.444 504.406,-405.629"/>
</g>
<!-- rast_wdpa_pep_file_inflow -->
<g id="node24" class="node"><title>rast_wdpa_pep_file_inflow</title>
<ellipse fill="none" stroke="black" cx="762" cy="-454.2" rx="7" ry="7"/>
</g>
<!-- rast_wdpa_pep_file_inflow&#45;&gt;rast_wdpa_pep_file -->
<g id="edge27" class="edge"><title>rast_wdpa_pep_file_inflow&#45;&gt;rast_wdpa_pep_file</title>
<path fill="none" stroke="black" d="M754.792,-453.285C710.303,-453.703 468.604,-454.393 275,-423.2 254.497,-419.897 232.544,-414.747 212.625,-409.432"/>
<polygon fill="black" stroke="black" points="213.288,-405.986 202.72,-406.733 211.448,-412.739 213.288,-405.986"/>
</g>
</g>
</svg>
