<?xml version="1.0" encoding="UTF-8" standalone="no"?>
<!DOCTYPE svg PUBLIC "-//W3C//DTD SVG 1.1//EN"
 "http://www.w3.org/Graphics/SVG/1.1/DTD/svg11.dtd">
<!-- Generated by graphviz version 2.38.0 (20140413.2041)
 -->
<!-- Title: yw_data_view Pages: 1 -->
<svg width="1262pt" height="523pt"
 viewBox="0.00 0.00 1262.00 522.80" xmlns="http://www.w3.org/2000/svg" xmlns:xlink="http://www.w3.org/1999/xlink">
<g id="graph0" class="graph" transform="scale(1 1) rotate(0) translate(4 518.8)">
<title>yw_data_view</title>
<polygon fill="white" stroke="none" points="-4,4 -4,-518.8 1258,-518.8 1258,4 -4,4"/>
<text text-anchor="middle" x="627" y="-494.6" font-family="Courier,monospace" font-size="18.00">calculate_goal_model</text>
<g id="clust1" class="cluster"><title>cluster_workflow</title>
<polygon fill="none" stroke="black" stroke-width="2" points="8,-62 8,-423.2 1246,-423.2 1246,-62 8,-62"/>
</g>
<g id="clust2" class="cluster"><title>cluster_workflow_inner</title>
<polygon fill="none" stroke="white" stroke-width="2" points="16,-70 16,-415.2 1238,-415.2 1238,-70 16,-70"/>
</g>
<g id="clust3" class="cluster"><title>cluster_inflows</title>
<polygon fill="none" stroke="white" stroke-width="2" points="739,-431.2 739,-477.2 945,-477.2 945,-431.2 739,-431.2"/>
</g>
<g id="clust4" class="cluster"><title>cluster_inflows_inner</title>
<polygon fill="none" stroke="white" stroke-width="2" points="747,-439.2 747,-469.2 937,-469.2 937,-439.2 747,-439.2"/>
</g>
<g id="clust5" class="cluster"><title>cluster_outflows</title>
<polygon fill="none" stroke="white" stroke-width="2" points="704,-8 704,-54 750,-54 750,-8 704,-8"/>
</g>
<g id="clust6" class="cluster"><title>cluster_outflows_inner</title>
<polygon fill="none" stroke="white" stroke-width="2" points="712,-16 712,-46 742,-46 742,-16 712,-16"/>
</g>
<!-- read_in_OHI_region_rasters -->
<g id="node1" class="node"><title>read_in_OHI_region_rasters</title>
<polygon fill="#ccffcc" stroke="black" points="776.364,-332.6 541.636,-332.6 541.636,-296.6 776.364,-296.6 776.364,-332.6"/>
<text text-anchor="middle" x="659" y="-310.4" font-family="Courier,monospace" font-size="14.00">read_in_OHI_region_rasters</text>
</g>
<!-- rast_3nm -->
<g id="node5" class="node"><title>rast_3nm</title>
<path fill="#ffffcc" stroke="black" d="M531.343,-260.6C531.343,-260.6 480.657,-260.6 480.657,-260.6 474.657,-260.6 468.657,-254.6 468.657,-248.6 468.657,-248.6 468.657,-236.6 468.657,-236.6 468.657,-230.6 474.657,-224.6 480.657,-224.6 480.657,-224.6 531.343,-224.6 531.343,-224.6 537.343,-224.6 543.343,-230.6 543.343,-236.6 543.343,-236.6 543.343,-248.6 543.343,-248.6 543.343,-254.6 537.343,-260.6 531.343,-260.6"/>
<text text-anchor="middle" x="506" y="-238.4" font-family="Helvetica,sans-Serif" font-size="14.00">rast_3nm</text>
</g>
<!-- read_in_OHI_region_rasters&#45;&gt;rast_3nm -->
<g id="edge14" class="edge"><title>read_in_OHI_region_rasters&#45;&gt;rast_3nm</title>
<path fill="none" stroke="black" d="M621.572,-296.476C600.749,-286.949 574.646,-275.007 552.519,-264.883"/>
<polygon fill="black" stroke="black" points="553.856,-261.646 543.306,-260.668 550.944,-268.011 553.856,-261.646"/>
</g>
<!-- rast_1km -->
<g id="node6" class="node"><title>rast_1km</title>
<path fill="#ffffcc" stroke="black" d="M622.561,-260.6C622.561,-260.6 573.439,-260.6 573.439,-260.6 567.439,-260.6 561.439,-254.6 561.439,-248.6 561.439,-248.6 561.439,-236.6 561.439,-236.6 561.439,-230.6 567.439,-224.6 573.439,-224.6 573.439,-224.6 622.561,-224.6 622.561,-224.6 628.561,-224.6 634.561,-230.6 634.561,-236.6 634.561,-236.6 634.561,-248.6 634.561,-248.6 634.561,-254.6 628.561,-260.6 622.561,-260.6"/>
<text text-anchor="middle" x="598" y="-238.4" font-family="Helvetica,sans-Serif" font-size="14.00">rast_1km</text>
</g>
<!-- read_in_OHI_region_rasters&#45;&gt;rast_1km -->
<g id="edge15" class="edge"><title>read_in_OHI_region_rasters&#45;&gt;rast_1km</title>
<path fill="none" stroke="black" d="M643.921,-296.297C636.608,-287.905 627.69,-277.67 619.665,-268.461"/>
<polygon fill="black" stroke="black" points="622.114,-265.944 612.905,-260.704 616.836,-270.543 622.114,-265.944"/>
</g>
<!-- rast_ws -->
<g id="node7" class="node"><title>rast_ws</title>
<path fill="#ffffcc" stroke="black" d="M705.223,-260.6C705.223,-260.6 664.777,-260.6 664.777,-260.6 658.777,-260.6 652.777,-254.6 652.777,-248.6 652.777,-248.6 652.777,-236.6 652.777,-236.6 652.777,-230.6 658.777,-224.6 664.777,-224.6 664.777,-224.6 705.223,-224.6 705.223,-224.6 711.223,-224.6 717.223,-230.6 717.223,-236.6 717.223,-236.6 717.223,-248.6 717.223,-248.6 717.223,-254.6 711.223,-260.6 705.223,-260.6"/>
<text text-anchor="middle" x="685" y="-238.4" font-family="Helvetica,sans-Serif" font-size="14.00">rast_ws</text>
</g>
<!-- read_in_OHI_region_rasters&#45;&gt;rast_ws -->
<g id="edge16" class="edge"><title>read_in_OHI_region_rasters&#45;&gt;rast_ws</title>
<path fill="none" stroke="black" d="M665.427,-296.297C668.355,-288.413 671.887,-278.904 675.14,-270.146"/>
<polygon fill="black" stroke="black" points="678.446,-271.297 678.647,-260.704 671.884,-268.86 678.446,-271.297"/>
</g>
<!-- rast_pep -->
<g id="node8" class="node"><title>rast_pep</title>
<path fill="#ffffcc" stroke="black" d="M793.466,-260.6C793.466,-260.6 746.534,-260.6 746.534,-260.6 740.534,-260.6 734.534,-254.6 734.534,-248.6 734.534,-248.6 734.534,-236.6 734.534,-236.6 734.534,-230.6 740.534,-224.6 746.534,-224.6 746.534,-224.6 793.466,-224.6 793.466,-224.6 799.466,-224.6 805.466,-230.6 805.466,-236.6 805.466,-236.6 805.466,-248.6 805.466,-248.6 805.466,-254.6 799.466,-260.6 793.466,-260.6"/>
<text text-anchor="middle" x="770" y="-238.4" font-family="Helvetica,sans-Serif" font-size="14.00">rast_pep</text>
</g>
<!-- read_in_OHI_region_rasters&#45;&gt;rast_pep -->
<g id="edge17" class="edge"><title>read_in_OHI_region_rasters&#45;&gt;rast_pep</title>
<path fill="none" stroke="black" d="M686.154,-296.476C700.533,-287.408 718.381,-276.152 733.91,-266.359"/>
<polygon fill="black" stroke="black" points="736.15,-269.084 742.742,-260.79 732.416,-263.164 736.15,-269.084"/>
</g>
<!-- rast_wdpa_pep -->
<g id="node9" class="node"><title>rast_wdpa_pep</title>
<path fill="#ffffcc" stroke="black" d="M922.702,-260.6C922.702,-260.6 835.298,-260.6 835.298,-260.6 829.298,-260.6 823.298,-254.6 823.298,-248.6 823.298,-248.6 823.298,-236.6 823.298,-236.6 823.298,-230.6 829.298,-224.6 835.298,-224.6 835.298,-224.6 922.702,-224.6 922.702,-224.6 928.702,-224.6 934.702,-230.6 934.702,-236.6 934.702,-236.6 934.702,-248.6 934.702,-248.6 934.702,-254.6 928.702,-260.6 922.702,-260.6"/>
<text text-anchor="middle" x="879" y="-238.4" font-family="Helvetica,sans-Serif" font-size="14.00">rast_wdpa_pep</text>
</g>
<!-- read_in_OHI_region_rasters&#45;&gt;rast_wdpa_pep -->
<g id="edge18" class="edge"><title>read_in_OHI_region_rasters&#45;&gt;rast_wdpa_pep</title>
<path fill="none" stroke="black" d="M712.537,-296.566C743.543,-286.7 782.761,-274.222 815.341,-263.855"/>
<polygon fill="black" stroke="black" points="816.755,-267.078 825.223,-260.711 814.633,-260.408 816.755,-267.078"/>
</g>
<!-- set_up_configuration_and_start_provenance_tracking -->
<g id="node2" class="node"><title>set_up_configuration_and_start_provenance_tracking</title>
<polygon fill="#ccffcc" stroke="black" points="1229.93,-332.6 794.07,-332.6 794.07,-296.6 1229.93,-296.6 1229.93,-332.6"/>
<text text-anchor="middle" x="1012" y="-310.4" font-family="Courier,monospace" font-size="14.00">set_up_configuration_and_start_provenance_tracking</text>
</g>
<!-- dir_goal -->
<g id="node4" class="node"><title>dir_goal</title>
<path fill="#ffffcc" stroke="black" d="M1019.79,-260.6C1019.79,-260.6 978.213,-260.6 978.213,-260.6 972.213,-260.6 966.213,-254.6 966.213,-248.6 966.213,-248.6 966.213,-236.6 966.213,-236.6 966.213,-230.6 972.213,-224.6 978.213,-224.6 978.213,-224.6 1019.79,-224.6 1019.79,-224.6 1025.79,-224.6 1031.79,-230.6 1031.79,-236.6 1031.79,-236.6 1031.79,-248.6 1031.79,-248.6 1031.79,-254.6 1025.79,-260.6 1019.79,-260.6"/>
<text text-anchor="middle" x="999" y="-238.4" font-family="Helvetica,sans-Serif" font-size="14.00">dir_goal</text>
</g>
<!-- set_up_configuration_and_start_provenance_tracking&#45;&gt;dir_goal -->
<g id="edge13" class="edge"><title>set_up_configuration_and_start_provenance_tracking&#45;&gt;dir_goal</title>
<path fill="none" stroke="black" d="M1008.79,-296.297C1007.35,-288.583 1005.63,-279.312 1004.04,-270.712"/>
<polygon fill="black" stroke="black" points="1007.44,-269.897 1002.18,-260.704 1000.56,-271.175 1007.44,-269.897"/>
</g>
<!-- outputs_zonal_stats_dataframes_for_protected_cells -->
<g id="node3" class="node"><title>outputs_zonal_stats_dataframes_for_protected_cells</title>
<polygon fill="#ccffcc" stroke="black" points="944.93,-188.6 509.07,-188.6 509.07,-152.6 944.93,-152.6 944.93,-188.6"/>
<text text-anchor="middle" x="727" y="-166.4" font-family="Courier,monospace" font-size="14.00">outputs_zonal_stats_dataframes_for_protected_cells</text>
</g>
<!-- zonal_3nm_file -->
<g id="node16" class="node"><title>zonal_3nm_file</title>
<path fill="#ffe4b5" stroke="black" d="M633.816,-78.5C633.816,-78.5 820.184,-78.5 820.184,-78.5 826.184,-78.5 832.184,-84.5 832.184,-90.5 832.184,-90.5 832.184,-104.1 832.184,-104.1 832.184,-110.1 826.184,-116.1 820.184,-116.1 820.184,-116.1 633.816,-116.1 633.816,-116.1 627.816,-116.1 621.816,-110.1 621.816,-104.1 621.816,-104.1 621.816,-90.5 621.816,-90.5 621.816,-84.5 627.816,-78.5 633.816,-78.5"/>
<text text-anchor="middle" x="727" y="-104" font-family="Courier,monospace" font-weight="bold" font-size="9.00">zonal_3nm_file</text>
<polyline fill="none" stroke="black" points="621.816,-97.3 832.184,-97.3 "/>
<text text-anchor="start" x="629.816" y="-85.2" font-family="Courier,monospace" font-weight="bold" font-size="9.00">prep/lsp/vHS/int/zonal_stats_3nm.csv</text>
</g>
<!-- outputs_zonal_stats_dataframes_for_protected_cells&#45;&gt;zonal_3nm_file -->
<g id="edge19" class="edge"><title>outputs_zonal_stats_dataframes_for_protected_cells&#45;&gt;zonal_3nm_file</title>
<path fill="none" stroke="black" d="M727,-152.34C727,-144.605 727,-135.279 727,-126.568"/>
<polygon fill="black" stroke="black" points="730.5,-126.396 727,-116.396 723.5,-126.396 730.5,-126.396"/>
</g>
<!-- dir_goal&#45;&gt;outputs_zonal_stats_dataframes_for_protected_cells -->
<g id="edge2" class="edge"><title>dir_goal&#45;&gt;outputs_zonal_stats_dataframes_for_protected_cells</title>
<path fill="none" stroke="black" d="M965.939,-231.028C958.732,-228.822 951.129,-226.57 944,-224.6 900.489,-212.574 851.683,-200.527 811.392,-190.964"/>
<polygon fill="black" stroke="black" points="812.144,-187.545 801.607,-188.65 810.533,-194.357 812.144,-187.545"/>
</g>
<!-- rast_3nm&#45;&gt;outputs_zonal_stats_dataframes_for_protected_cells -->
<g id="edge4" class="edge"><title>rast_3nm&#45;&gt;outputs_zonal_stats_dataframes_for_protected_cells</title>
<path fill="none" stroke="black" d="M543.34,-227.588C546.263,-226.556 549.175,-225.549 552,-224.6 586.635,-212.967 625.499,-201.081 657.789,-191.522"/>
<polygon fill="black" stroke="black" points="658.986,-194.818 667.588,-188.632 657.006,-188.104 658.986,-194.818"/>
</g>
<!-- rast_1km&#45;&gt;outputs_zonal_stats_dataframes_for_protected_cells -->
<g id="edge7" class="edge"><title>rast_1km&#45;&gt;outputs_zonal_stats_dataframes_for_protected_cells</title>
<path fill="none" stroke="black" d="M629.557,-224.476C646.658,-215.196 667.982,-203.625 686.319,-193.675"/>
<polygon fill="black" stroke="black" points="688.202,-196.635 695.322,-188.79 684.863,-190.483 688.202,-196.635"/>
</g>
<!-- rast_ws&#45;&gt;outputs_zonal_stats_dataframes_for_protected_cells -->
<g id="edge9" class="edge"><title>rast_ws&#45;&gt;outputs_zonal_stats_dataframes_for_protected_cells</title>
<path fill="none" stroke="black" d="M695.382,-224.297C700.265,-216.159 706.187,-206.289 711.579,-197.301"/>
<polygon fill="black" stroke="black" points="714.594,-199.08 716.737,-188.704 708.591,-195.479 714.594,-199.08"/>
</g>
<!-- rast_pep&#45;&gt;outputs_zonal_stats_dataframes_for_protected_cells -->
<g id="edge11" class="edge"><title>rast_pep&#45;&gt;outputs_zonal_stats_dataframes_for_protected_cells</title>
<path fill="none" stroke="black" d="M759.371,-224.297C754.372,-216.159 748.309,-206.289 742.788,-197.301"/>
<polygon fill="black" stroke="black" points="745.723,-195.393 737.507,-188.704 739.759,-199.057 745.723,-195.393"/>
</g>
<!-- rast_wdpa_pep&#45;&gt;outputs_zonal_stats_dataframes_for_protected_cells -->
<g id="edge1" class="edge"><title>rast_wdpa_pep&#45;&gt;outputs_zonal_stats_dataframes_for_protected_cells</title>
<path fill="none" stroke="black" d="M841.817,-224.476C821.13,-214.949 795.198,-203.007 773.215,-192.883"/>
<polygon fill="black" stroke="black" points="774.61,-189.672 764.063,-188.668 771.682,-196.03 774.61,-189.672"/>
</g>
<!-- setup_R -->
<g id="node10" class="node"><title>setup_R</title>
<path fill="#ffe4b5" stroke="black" d="M1188,-369.1C1188,-369.1 1218,-369.1 1218,-369.1 1224,-369.1 1230,-375.1 1230,-381.1 1230,-381.1 1230,-394.7 1230,-394.7 1230,-400.7 1224,-406.7 1218,-406.7 1218,-406.7 1188,-406.7 1188,-406.7 1182,-406.7 1176,-400.7 1176,-394.7 1176,-394.7 1176,-381.1 1176,-381.1 1176,-375.1 1182,-369.1 1188,-369.1"/>
<text text-anchor="middle" x="1202.9" y="-394.6" font-family="Courier,monospace" font-weight="bold" font-size="9.00">setup_R</text>
<polyline fill="none" stroke="black" points="1176,-387.9 1229.79,-387.9 "/>
<text text-anchor="middle" x="1202.9" y="-375.8" font-family="Courier,monospace" font-weight="bold" font-size="9.00"> </text>
</g>
<!-- setup_R&#45;&gt;set_up_configuration_and_start_provenance_tracking -->
<g id="edge6" class="edge"><title>setup_R&#45;&gt;set_up_configuration_and_start_provenance_tracking</title>
<path fill="none" stroke="black" d="M1175.67,-372.507C1172.77,-371.13 1169.84,-369.801 1167,-368.6 1138.18,-356.418 1105.5,-344.917 1077.6,-335.762"/>
<polygon fill="black" stroke="black" points="1078.54,-332.387 1067.95,-332.625 1076.38,-339.044 1078.54,-332.387"/>
</g>
<!-- rast_3nm_raster_file -->
<g id="node11" class="node"><title>rast_3nm_raster_file</title>
<path fill="#ffe4b5" stroke="black" d="M1046.01,-369.1C1046.01,-369.1 1145.99,-369.1 1145.99,-369.1 1151.99,-369.1 1157.99,-375.1 1157.99,-381.1 1157.99,-381.1 1157.99,-394.7 1157.99,-394.7 1157.99,-400.7 1151.99,-406.7 1145.99,-406.7 1145.99,-406.7 1046.01,-406.7 1046.01,-406.7 1040.01,-406.7 1034.01,-400.7 1034.01,-394.7 1034.01,-394.7 1034.01,-381.1 1034.01,-381.1 1034.01,-375.1 1040.01,-369.1 1046.01,-369.1"/>
<text text-anchor="middle" x="1096" y="-394.6" font-family="Courier,monospace" font-weight="bold" font-size="9.00">rast_3nm_raster_file</text>
<polyline fill="none" stroke="black" points="1034.01,-387.9 1157.99,-387.9 "/>
<text text-anchor="middle" x="1096" y="-375.8" font-family="Courier,monospace" font-weight="bold" font-size="9.00"> </text>
</g>
<!-- rast_3nm_raster_file&#45;&gt;read_in_OHI_region_rasters -->
<g id="edge8" class="edge"><title>rast_3nm_raster_file&#45;&gt;read_in_OHI_region_rasters</title>
<path fill="none" stroke="black" d="M1033.75,-370.448C1030.8,-369.796 1027.87,-369.176 1025,-368.6 1001.67,-363.918 882.614,-346.884 786.529,-333.375"/>
<polygon fill="black" stroke="black" points="786.81,-329.88 776.42,-331.955 785.836,-336.812 786.81,-329.88"/>
</g>
<!-- rast_1km_raster_file -->
<g id="node12" class="node"><title>rast_1km_raster_file</title>
<path fill="#ffe4b5" stroke="black" d="M904.009,-369.1C904.009,-369.1 1003.99,-369.1 1003.99,-369.1 1009.99,-369.1 1015.99,-375.1 1015.99,-381.1 1015.99,-381.1 1015.99,-394.7 1015.99,-394.7 1015.99,-400.7 1009.99,-406.7 1003.99,-406.7 1003.99,-406.7 904.009,-406.7 904.009,-406.7 898.009,-406.7 892.009,-400.7 892.009,-394.7 892.009,-394.7 892.009,-381.1 892.009,-381.1 892.009,-375.1 898.009,-369.1 904.009,-369.1"/>
<text text-anchor="middle" x="954" y="-394.6" font-family="Courier,monospace" font-weight="bold" font-size="9.00">rast_1km_raster_file</text>
<polyline fill="none" stroke="black" points="892.009,-387.9 1015.99,-387.9 "/>
<text text-anchor="middle" x="954" y="-375.8" font-family="Courier,monospace" font-weight="bold" font-size="9.00"> </text>
</g>
<!-- rast_1km_raster_file&#45;&gt;read_in_OHI_region_rasters -->
<g id="edge10" class="edge"><title>rast_1km_raster_file&#45;&gt;read_in_OHI_region_rasters</title>
<path fill="none" stroke="black" d="M891.68,-370.762C888.747,-370.026 885.842,-369.302 883,-368.6 836.668,-357.149 784.816,-344.848 742.677,-334.981"/>
<polygon fill="black" stroke="black" points="743.272,-331.526 732.737,-332.657 741.678,-338.342 743.272,-331.526"/>
</g>
<!-- rast_ws_raster_file -->
<g id="node13" class="node"><title>rast_ws_raster_file</title>
<path fill="#ffe4b5" stroke="black" d="M600.022,-369.1C600.022,-369.1 861.978,-369.1 861.978,-369.1 867.978,-369.1 873.978,-375.1 873.978,-381.1 873.978,-381.1 873.978,-394.7 873.978,-394.7 873.978,-400.7 867.978,-406.7 861.978,-406.7 861.978,-406.7 600.022,-406.7 600.022,-406.7 594.022,-406.7 588.022,-400.7 588.022,-394.7 588.022,-394.7 588.022,-381.1 588.022,-381.1 588.022,-375.1 594.022,-369.1 600.022,-369.1"/>
<text text-anchor="middle" x="731" y="-394.6" font-family="Courier,monospace" font-weight="bold" font-size="9.00">rast_ws_raster_file</text>
<polyline fill="none" stroke="black" points="588.022,-387.9 873.978,-387.9 "/>
<text text-anchor="start" x="596.022" y="-375.8" font-family="Courier,monospace" font-weight="bold" font-size="9.00">prep/lsp/vHS/spatial/howe_sound_watershed_500m.tif</text>
</g>
<!-- rast_ws_raster_file&#45;&gt;read_in_OHI_region_rasters -->
<g id="edge12" class="edge"><title>rast_ws_raster_file&#45;&gt;read_in_OHI_region_rasters</title>
<path fill="none" stroke="black" d="M712.831,-368.908C704.022,-360.184 693.306,-349.573 683.762,-340.121"/>
<polygon fill="black" stroke="black" points="685.986,-337.398 676.418,-332.848 681.06,-342.372 685.986,-337.398"/>
</g>
<!-- rast_pep_file -->
<g id="node14" class="node"><title>rast_pep_file</title>
<path fill="#ffe4b5" stroke="black" d="M296.022,-369.1C296.022,-369.1 557.978,-369.1 557.978,-369.1 563.978,-369.1 569.978,-375.1 569.978,-381.1 569.978,-381.1 569.978,-394.7 569.978,-394.7 569.978,-400.7 563.978,-406.7 557.978,-406.7 557.978,-406.7 296.022,-406.7 296.022,-406.7 290.022,-406.7 284.022,-400.7 284.022,-394.7 284.022,-394.7 284.022,-381.1 284.022,-381.1 284.022,-375.1 290.022,-369.1 296.022,-369.1"/>
<text text-anchor="middle" x="427" y="-394.6" font-family="Courier,monospace" font-weight="bold" font-size="9.00">rast_pep_file</text>
<polyline fill="none" stroke="black" points="284.022,-387.9 569.978,-387.9 "/>
<text text-anchor="start" x="292.022" y="-375.8" font-family="Courier,monospace" font-weight="bold" font-size="9.00">prep/lsp/vHS/spatial/howe_sound_watershed_500m.tif</text>
</g>
<!-- rast_pep_file&#45;&gt;read_in_OHI_region_rasters -->
<g id="edge3" class="edge"><title>rast_pep_file&#45;&gt;read_in_OHI_region_rasters</title>
<path fill="none" stroke="black" d="M484.945,-369.092C517.927,-358.956 559.345,-346.227 593.503,-335.729"/>
<polygon fill="black" stroke="black" points="594.86,-338.973 603.391,-332.69 592.804,-332.282 594.86,-338.973"/>
</g>
<!-- rast_wdpa_pep_file -->
<g id="node15" class="node"><title>rast_wdpa_pep_file</title>
<path fill="#ffe4b5" stroke="black" d="M35.6189,-369.1C35.6189,-369.1 254.381,-369.1 254.381,-369.1 260.381,-369.1 266.381,-375.1 266.381,-381.1 266.381,-381.1 266.381,-394.7 266.381,-394.7 266.381,-400.7 260.381,-406.7 254.381,-406.7 254.381,-406.7 35.6189,-406.7 35.6189,-406.7 29.6189,-406.7 23.6189,-400.7 23.6189,-394.7 23.6189,-394.7 23.6189,-381.1 23.6189,-381.1 23.6189,-375.1 29.6189,-369.1 35.6189,-369.1"/>
<text text-anchor="middle" x="145" y="-394.6" font-family="Courier,monospace" font-weight="bold" font-size="9.00">rast_wdpa_pep_file</text>
<polyline fill="none" stroke="black" points="23.6189,-387.9 266.381,-387.9 "/>
<text text-anchor="start" x="31.6189" y="-375.8" font-family="Courier,monospace" font-weight="bold" font-size="9.00">prep/lsp/vHS/spatial/hs_wdpa_rast_500m.tif</text>
</g>
<!-- rast_wdpa_pep_file&#45;&gt;read_in_OHI_region_rasters -->
<g id="edge5" class="edge"><title>rast_wdpa_pep_file&#45;&gt;read_in_OHI_region_rasters</title>
<path fill="none" stroke="black" d="M266.442,-369.794C269.322,-369.392 272.178,-368.993 275,-368.6 360.638,-356.662 457.04,-343.358 531.83,-333.065"/>
<polygon fill="black" stroke="black" points="532.34,-336.527 541.77,-331.697 531.386,-329.593 532.34,-336.527"/>
</g>
<!-- zonal_3nm_file_outflow -->
<g id="node23" class="node"><title>zonal_3nm_file_outflow</title>
<ellipse fill="none" stroke="black" cx="727" cy="-31" rx="7" ry="7"/>
</g>
<!-- zonal_3nm_file&#45;&gt;zonal_3nm_file_outflow -->
<g id="edge26" class="edge"><title>zonal_3nm_file&#45;&gt;zonal_3nm_file_outflow</title>
<path fill="none" stroke="black" d="M727,-78.3889C727,-68.9828 727,-57.5389 727,-48.3712"/>
<polygon fill="black" stroke="black" points="730.5,-48.3008 727,-38.3008 723.5,-48.3008 730.5,-48.3008"/>
</g>
<!-- setup_R_inflow -->
<g id="node17" class="node"><title>setup_R_inflow</title>
<ellipse fill="none" stroke="black" cx="922" cy="-454.2" rx="7" ry="7"/>
</g>
<!-- setup_R_inflow&#45;&gt;setup_R -->
<g id="edge20" class="edge"><title>setup_R_inflow&#45;&gt;setup_R</title>
<path fill="none" stroke="black" d="M929.027,-452.932C964.401,-451.497 1123.03,-443.984 1167,-423.2 1172.07,-420.802 1176.89,-417.411 1181.26,-413.685"/>
<polygon fill="black" stroke="black" points="1183.72,-416.173 1188.58,-406.759 1178.91,-411.086 1183.72,-416.173"/>
</g>
<!-- rast_3nm_raster_file_inflow -->
<g id="node18" class="node"><title>rast_3nm_raster_file_inflow</title>
<ellipse fill="none" stroke="black" cx="890" cy="-454.2" rx="7" ry="7"/>
</g>
<!-- rast_3nm_raster_file_inflow&#45;&gt;rast_3nm_raster_file -->
<g id="edge21" class="edge"><title>rast_3nm_raster_file_inflow&#45;&gt;rast_3nm_raster_file</title>
<path fill="none" stroke="black" d="M892.465,-447.382C895.02,-442.152 899.551,-434.762 906,-431.2 929.201,-418.387 999.377,-429.977 1025,-423.2 1035.53,-420.415 1046.37,-416.047 1056.32,-411.35"/>
<polygon fill="black" stroke="black" points="1058.13,-414.359 1065.54,-406.786 1055.02,-408.086 1058.13,-414.359"/>
</g>
<!-- rast_1km_raster_file_inflow -->
<g id="node19" class="node"><title>rast_1km_raster_file_inflow</title>
<ellipse fill="none" stroke="black" cx="858" cy="-454.2" rx="7" ry="7"/>
</g>
<!-- rast_1km_raster_file_inflow&#45;&gt;rast_1km_raster_file -->
<g id="edge22" class="edge"><title>rast_1km_raster_file_inflow&#45;&gt;rast_1km_raster_file</title>
<path fill="none" stroke="black" d="M861.091,-447.586C863.952,-442.776 868.576,-435.902 874,-431.2 882.453,-423.873 892.392,-417.349 902.338,-411.749"/>
<polygon fill="black" stroke="black" points="904.274,-414.682 911.43,-406.869 900.964,-408.514 904.274,-414.682"/>
</g>
<!-- rast_ws_raster_file_inflow -->
<g id="node20" class="node"><title>rast_ws_raster_file_inflow</title>
<ellipse fill="none" stroke="black" cx="826" cy="-454.2" rx="7" ry="7"/>
</g>
<!-- rast_ws_raster_file_inflow&#45;&gt;rast_ws_raster_file -->
<g id="edge23" class="edge"><title>rast_ws_raster_file_inflow&#45;&gt;rast_ws_raster_file</title>
<path fill="none" stroke="black" d="M822.903,-447.593C820.038,-442.788 815.412,-435.916 810,-431.2 801.559,-423.844 791.62,-417.281 781.693,-411.646"/>
<polygon fill="black" stroke="black" points="783.083,-408.419 772.623,-406.736 779.751,-414.575 783.083,-408.419"/>
</g>
<!-- rast_pep_file_inflow -->
<g id="node21" class="node"><title>rast_pep_file_inflow</title>
<ellipse fill="none" stroke="black" cx="794" cy="-454.2" rx="7" ry="7"/>
</g>
<!-- rast_pep_file_inflow&#45;&gt;rast_pep_file -->
<g id="edge24" class="edge"><title>rast_pep_file_inflow&#45;&gt;rast_pep_file</title>
<path fill="none" stroke="black" d="M791.557,-447.342C789.017,-442.084 784.497,-434.674 778,-431.2 758.486,-420.764 600.939,-426.092 579,-423.2 554.249,-419.937 527.59,-414.57 503.615,-409.039"/>
<polygon fill="black" stroke="black" points="504.406,-405.629 493.87,-406.748 502.804,-412.444 504.406,-405.629"/>
</g>
<!-- rast_wdpa_pep_file_inflow -->
<g id="node22" class="node"><title>rast_wdpa_pep_file_inflow</title>
<ellipse fill="none" stroke="black" cx="762" cy="-454.2" rx="7" ry="7"/>
</g>
<!-- rast_wdpa_pep_file_inflow&#45;&gt;rast_wdpa_pep_file -->
<g id="edge25" class="edge"><title>rast_wdpa_pep_file_inflow&#45;&gt;rast_wdpa_pep_file</title>
<path fill="none" stroke="black" d="M754.792,-453.285C710.303,-453.703 468.604,-454.393 275,-423.2 254.497,-419.897 232.544,-414.747 212.625,-409.432"/>
<polygon fill="black" stroke="black" points="213.288,-405.986 202.72,-406.733 211.448,-412.739 213.288,-405.986"/>
</g>
</g>
</svg>
