<?xml version="1.0" encoding="UTF-8" standalone="no"?>
<!DOCTYPE svg PUBLIC "-//W3C//DTD SVG 1.1//EN"
 "http://www.w3.org/Graphics/SVG/1.1/DTD/svg11.dtd">
<!-- Generated by graphviz version 2.38.0 (20140413.2041)
 -->
<!-- Title: yw_data_view Pages: 1 -->
<svg width="1002pt" height="662pt"
 viewBox="0.00 0.00 1002.00 661.60" xmlns="http://www.w3.org/2000/svg" xmlns:xlink="http://www.w3.org/1999/xlink">
<g id="graph0" class="graph" transform="scale(1 1) rotate(0) translate(4 657.6)">
<title>yw_data_view</title>
<polygon fill="white" stroke="none" points="-4,4 -4,-657.6 998,-657.6 998,4 -4,4"/>
<text text-anchor="middle" x="497" y="-633.4" font-family="Courier,monospace" font-size="18.00">Rasterize_HS_WDPA_and_PEP</text>
<g id="clust3" class="cluster"><title>cluster_inflows</title>
<polygon fill="none" stroke="white" stroke-width="2" points="580,-570 580,-616 722,-616 722,-570 580,-570"/>
</g>
<g id="clust4" class="cluster"><title>cluster_inflows_inner</title>
<polygon fill="none" stroke="white" stroke-width="2" points="588,-578 588,-608 714,-608 714,-578 588,-578"/>
</g>
<g id="clust5" class="cluster"><title>cluster_outflows</title>
<polygon fill="none" stroke="white" stroke-width="2" points="609,-8 609,-54 687,-54 687,-8 609,-8"/>
</g>
<g id="clust6" class="cluster"><title>cluster_outflows_inner</title>
<polygon fill="none" stroke="white" stroke-width="2" points="617,-16 617,-46 679,-46 679,-16 617,-16"/>
</g>
<g id="clust1" class="cluster"><title>cluster_workflow</title>
<polygon fill="none" stroke="black" stroke-width="2" points="8,-62 8,-562 986,-562 986,-62 8,-62"/>
</g>
<g id="clust2" class="cluster"><title>cluster_workflow_inner</title>
<polygon fill="none" stroke="white" stroke-width="2" points="16,-70 16,-554 978,-554 978,-70 16,-70"/>
</g>
<!-- set_up_configuration_and_start_provenance_tracking -->
<g id="node1" class="node"><title>set_up_configuration_and_start_provenance_tracking</title>
<polygon fill="#ccffcc" stroke="black" points="596.93,-474 161.07,-474 161.07,-438 596.93,-438 596.93,-474"/>
<text text-anchor="middle" x="379" y="-451.8" font-family="Courier,monospace" font-size="14.00">set_up_configuration_and_start_provenance_tracking</text>
</g>
<!-- dir_spatial -->
<g id="node7" class="node"><title>dir_spatial</title>
<path fill="#ffffcc" stroke="black" d="M315.784,-402C315.784,-402 260.216,-402 260.216,-402 254.216,-402 248.216,-396 248.216,-390 248.216,-390 248.216,-378 248.216,-378 248.216,-372 254.216,-366 260.216,-366 260.216,-366 315.784,-366 315.784,-366 321.784,-366 327.784,-372 327.784,-378 327.784,-378 327.784,-390 327.784,-390 327.784,-396 321.784,-402 315.784,-402"/>
<text text-anchor="middle" x="288" y="-379.8" font-family="Helvetica,sans-Serif" font-size="14.00">dir_spatial</text>
</g>
<!-- set_up_configuration_and_start_provenance_tracking&#45;&gt;dir_spatial -->
<g id="edge13" class="edge"><title>set_up_configuration_and_start_provenance_tracking&#45;&gt;dir_spatial</title>
<path fill="none" stroke="black" d="M356.506,-437.697C345.045,-428.881 330.942,-418.032 318.516,-408.474"/>
<polygon fill="black" stroke="black" points="320.296,-405.427 310.236,-402.104 316.028,-410.976 320.296,-405.427"/>
</g>
<!-- dir_goal -->
<g id="node8" class="node"><title>dir_goal</title>
<path fill="#ffffcc" stroke="black" d="M399.787,-402C399.787,-402 358.213,-402 358.213,-402 352.213,-402 346.213,-396 346.213,-390 346.213,-390 346.213,-378 346.213,-378 346.213,-372 352.213,-366 358.213,-366 358.213,-366 399.787,-366 399.787,-366 405.787,-366 411.787,-372 411.787,-378 411.787,-378 411.787,-390 411.787,-390 411.787,-396 405.787,-402 399.787,-402"/>
<text text-anchor="middle" x="379" y="-379.8" font-family="Helvetica,sans-Serif" font-size="14.00">dir_goal</text>
</g>
<!-- set_up_configuration_and_start_provenance_tracking&#45;&gt;dir_goal -->
<g id="edge14" class="edge"><title>set_up_configuration_and_start_provenance_tracking&#45;&gt;dir_goal</title>
<path fill="none" stroke="black" d="M379,-437.697C379,-429.983 379,-420.712 379,-412.112"/>
<polygon fill="black" stroke="black" points="382.5,-412.104 379,-402.104 375.5,-412.104 382.5,-412.104"/>
</g>
<!-- rasterize_ohibc_rgn_raster_500m_shape_file_at_500m_resolution -->
<g id="node2" class="node"><title>rasterize_ohibc_rgn_raster_500m_shape_file_at_500m_resolution</title>
<polygon fill="#ccffcc" stroke="black" points="552.315,-330 23.6853,-330 23.6853,-294 552.315,-294 552.315,-330"/>
<text text-anchor="middle" x="288" y="-307.8" font-family="Courier,monospace" font-size="14.00">rasterize_ohibc_rgn_raster_500m_shape_file_at_500m_resolution</text>
</g>
<!-- extent_of_howe_sound -->
<g id="node10" class="node"><title>extent_of_howe_sound</title>
<path fill="#ffffcc" stroke="black" d="M535.235,-258C535.235,-258 398.765,-258 398.765,-258 392.765,-258 386.765,-252 386.765,-246 386.765,-246 386.765,-234 386.765,-234 386.765,-228 392.765,-222 398.765,-222 398.765,-222 535.235,-222 535.235,-222 541.235,-222 547.235,-228 547.235,-234 547.235,-234 547.235,-246 547.235,-246 547.235,-252 541.235,-258 535.235,-258"/>
<text text-anchor="middle" x="467" y="-235.8" font-family="Helvetica,sans-Serif" font-size="14.00">extent_of_howe_sound</text>
</g>
<!-- rasterize_ohibc_rgn_raster_500m_shape_file_at_500m_resolution&#45;&gt;extent_of_howe_sound -->
<g id="edge15" class="edge"><title>rasterize_ohibc_rgn_raster_500m_shape_file_at_500m_resolution&#45;&gt;extent_of_howe_sound</title>
<path fill="none" stroke="black" d="M331.788,-293.876C356.585,-284.179 387.781,-271.98 413.958,-261.743"/>
<polygon fill="black" stroke="black" points="415.315,-264.97 423.354,-258.068 412.766,-258.451 415.315,-264.97"/>
</g>
<!-- load_and_create_howe_sound_wdpa_pep_files -->
<g id="node3" class="node"><title>load_and_create_howe_sound_wdpa_pep_files</title>
<polygon fill="#ccffcc" stroke="black" points="950.343,-330 589.657,-330 589.657,-294 950.343,-294 950.343,-330"/>
<text text-anchor="middle" x="770" y="-307.8" font-family="Courier,monospace" font-size="14.00">load_and_create_howe_sound_wdpa_pep_files</text>
</g>
<!-- hs_wdpa_rast_file_handle -->
<g id="node13" class="node"><title>hs_wdpa_rast_file_handle</title>
<path fill="#ffffcc" stroke="black" d="M751.108,-258C751.108,-258 596.892,-258 596.892,-258 590.892,-258 584.892,-252 584.892,-246 584.892,-246 584.892,-234 584.892,-234 584.892,-228 590.892,-222 596.892,-222 596.892,-222 751.108,-222 751.108,-222 757.108,-222 763.108,-228 763.108,-234 763.108,-234 763.108,-246 763.108,-246 763.108,-252 757.108,-258 751.108,-258"/>
<text text-anchor="middle" x="674" y="-235.8" font-family="Helvetica,sans-Serif" font-size="14.00">hs_wdpa_rast_file_handle</text>
</g>
<!-- load_and_create_howe_sound_wdpa_pep_files&#45;&gt;hs_wdpa_rast_file_handle -->
<g id="edge16" class="edge"><title>load_and_create_howe_sound_wdpa_pep_files&#45;&gt;hs_wdpa_rast_file_handle</title>
<path fill="none" stroke="black" d="M746.27,-293.697C734.063,-284.796 719.015,-273.823 705.816,-264.199"/>
<polygon fill="black" stroke="black" points="707.6,-261.168 697.457,-258.104 703.475,-266.824 707.6,-261.168"/>
</g>
<!-- hs_pep_rast_file_handle -->
<g id="node14" class="node"><title>hs_pep_rast_file_handle</title>
<path fill="#ffffcc" stroke="black" d="M938.001,-258C938.001,-258 793.999,-258 793.999,-258 787.999,-258 781.999,-252 781.999,-246 781.999,-246 781.999,-234 781.999,-234 781.999,-228 787.999,-222 793.999,-222 793.999,-222 938.001,-222 938.001,-222 944.001,-222 950.001,-228 950.001,-234 950.001,-234 950.001,-246 950.001,-246 950.001,-252 944.001,-258 938.001,-258"/>
<text text-anchor="middle" x="866" y="-235.8" font-family="Helvetica,sans-Serif" font-size="14.00">hs_pep_rast_file_handle</text>
</g>
<!-- load_and_create_howe_sound_wdpa_pep_files&#45;&gt;hs_pep_rast_file_handle -->
<g id="edge17" class="edge"><title>load_and_create_howe_sound_wdpa_pep_files&#45;&gt;hs_pep_rast_file_handle</title>
<path fill="none" stroke="black" d="M793.73,-293.697C805.937,-284.796 820.985,-273.823 834.184,-264.199"/>
<polygon fill="black" stroke="black" points="836.525,-266.824 842.543,-258.104 832.4,-261.168 836.525,-266.824"/>
</g>
<!-- rasterize_howe_sound_wdpa_shape_file -->
<g id="node4" class="node"><title>rasterize_howe_sound_wdpa_shape_file</title>
<polygon fill="#ccffcc" stroke="black" points="642.35,-186 323.65,-186 323.65,-150 642.35,-150 642.35,-186"/>
<text text-anchor="middle" x="483" y="-163.8" font-family="Courier,monospace" font-size="14.00">rasterize_howe_sound_wdpa_shape_file</text>
</g>
<!-- hs_wdpa_rast_file -->
<g id="node15" class="node"><title>hs_wdpa_rast_file</title>
<path fill="#ffffcc" stroke="black" d="M582.305,-114C582.305,-114 477.695,-114 477.695,-114 471.695,-114 465.695,-108 465.695,-102 465.695,-102 465.695,-90 465.695,-90 465.695,-84 471.695,-78 477.695,-78 477.695,-78 582.305,-78 582.305,-78 588.305,-78 594.305,-84 594.305,-90 594.305,-90 594.305,-102 594.305,-102 594.305,-108 588.305,-114 582.305,-114"/>
<text text-anchor="middle" x="530" y="-91.8" font-family="Helvetica,sans-Serif" font-size="14.00">hs_wdpa_rast_file</text>
</g>
<!-- rasterize_howe_sound_wdpa_shape_file&#45;&gt;hs_wdpa_rast_file -->
<g id="edge18" class="edge"><title>rasterize_howe_sound_wdpa_shape_file&#45;&gt;hs_wdpa_rast_file</title>
<path fill="none" stroke="black" d="M494.618,-149.697C500.139,-141.474 506.847,-131.483 512.932,-122.421"/>
<polygon fill="black" stroke="black" points="515.847,-124.358 518.516,-114.104 510.035,-120.456 515.847,-124.358"/>
</g>
<!-- rasterize_howe_sound_pep_shape_file -->
<g id="node5" class="node"><title>rasterize_howe_sound_pep_shape_file</title>
<polygon fill="#ccffcc" stroke="black" points="969.951,-186 660.049,-186 660.049,-150 969.951,-150 969.951,-186"/>
<text text-anchor="middle" x="815" y="-163.8" font-family="Courier,monospace" font-size="14.00">rasterize_howe_sound_pep_shape_file</text>
</g>
<!-- hs_pep_rast_file -->
<g id="node16" class="node"><title>hs_pep_rast_file</title>
<path fill="#ffffcc" stroke="black" d="M814.199,-114C814.199,-114 719.801,-114 719.801,-114 713.801,-114 707.801,-108 707.801,-102 707.801,-102 707.801,-90 707.801,-90 707.801,-84 713.801,-78 719.801,-78 719.801,-78 814.199,-78 814.199,-78 820.199,-78 826.199,-84 826.199,-90 826.199,-90 826.199,-102 826.199,-102 826.199,-108 820.199,-114 814.199,-114"/>
<text text-anchor="middle" x="767" y="-91.8" font-family="Helvetica,sans-Serif" font-size="14.00">hs_pep_rast_file</text>
</g>
<!-- rasterize_howe_sound_pep_shape_file&#45;&gt;hs_pep_rast_file -->
<g id="edge19" class="edge"><title>rasterize_howe_sound_pep_shape_file&#45;&gt;hs_pep_rast_file</title>
<path fill="none" stroke="black" d="M803.135,-149.697C797.497,-141.474 790.646,-131.483 784.431,-122.421"/>
<polygon fill="black" stroke="black" points="787.271,-120.372 778.729,-114.104 781.497,-124.331 787.271,-120.372"/>
</g>
<!-- setup_R -->
<g id="node6" class="node"><title>setup_R</title>
<path fill="#ffffcc" stroke="black" d="M499.128,-546C499.128,-546 454.872,-546 454.872,-546 448.872,-546 442.872,-540 442.872,-534 442.872,-534 442.872,-522 442.872,-522 442.872,-516 448.872,-510 454.872,-510 454.872,-510 499.128,-510 499.128,-510 505.128,-510 511.128,-516 511.128,-522 511.128,-522 511.128,-534 511.128,-534 511.128,-540 505.128,-546 499.128,-546"/>
<text text-anchor="middle" x="477" y="-523.8" font-family="Helvetica,sans-Serif" font-size="14.00">setup_R</text>
</g>
<!-- setup_R&#45;&gt;set_up_configuration_and_start_provenance_tracking -->
<g id="edge1" class="edge"><title>setup_R&#45;&gt;set_up_configuration_and_start_provenance_tracking</title>
<path fill="none" stroke="black" d="M453.027,-509.876C440.45,-500.893 424.868,-489.763 411.248,-480.034"/>
<polygon fill="black" stroke="black" points="413.237,-477.154 403.066,-474.19 409.169,-482.85 413.237,-477.154"/>
</g>
<!-- dir_spatial&#45;&gt;rasterize_ohibc_rgn_raster_500m_shape_file_at_500m_resolution -->
<g id="edge2" class="edge"><title>dir_spatial&#45;&gt;rasterize_ohibc_rgn_raster_500m_shape_file_at_500m_resolution</title>
<path fill="none" stroke="black" d="M288,-365.697C288,-357.983 288,-348.712 288,-340.112"/>
<polygon fill="black" stroke="black" points="291.5,-340.104 288,-330.104 284.5,-340.104 291.5,-340.104"/>
</g>
<!-- dir_goal&#45;&gt;load_and_create_howe_sound_wdpa_pep_files -->
<g id="edge3" class="edge"><title>dir_goal&#45;&gt;load_and_create_howe_sound_wdpa_pep_files</title>
<path fill="none" stroke="black" d="M412.227,-368.732C415.165,-367.721 418.117,-366.791 421,-366 476.755,-350.71 538.81,-339.491 594.951,-331.42"/>
<polygon fill="black" stroke="black" points="595.585,-334.866 604.997,-330 594.605,-327.935 595.585,-334.866"/>
</g>
<!-- ohibc_rgn_raster_500m -->
<g id="node9" class="node"><title>ohibc_rgn_raster_500m</title>
<path fill="#ffffcc" stroke="black" d="M581.814,-402C581.814,-402 442.186,-402 442.186,-402 436.186,-402 430.186,-396 430.186,-390 430.186,-390 430.186,-378 430.186,-378 430.186,-372 436.186,-366 442.186,-366 442.186,-366 581.814,-366 581.814,-366 587.814,-366 593.814,-372 593.814,-378 593.814,-378 593.814,-390 593.814,-390 593.814,-396 587.814,-402 581.814,-402"/>
<text text-anchor="middle" x="512" y="-379.8" font-family="Helvetica,sans-Serif" font-size="14.00">ohibc_rgn_raster_500m</text>
</g>
<!-- ohibc_rgn_raster_500m&#45;&gt;rasterize_ohibc_rgn_raster_500m_shape_file_at_500m_resolution -->
<g id="edge4" class="edge"><title>ohibc_rgn_raster_500m&#45;&gt;rasterize_ohibc_rgn_raster_500m_shape_file_at_500m_resolution</title>
<path fill="none" stroke="black" d="M457.49,-365.966C425.784,-356.057 385.645,-343.514 352.387,-333.121"/>
<polygon fill="black" stroke="black" points="353.343,-329.753 342.755,-330.111 351.255,-336.434 353.343,-329.753"/>
</g>
<!-- extent_of_howe_sound&#45;&gt;rasterize_howe_sound_wdpa_shape_file -->
<g id="edge5" class="edge"><title>extent_of_howe_sound&#45;&gt;rasterize_howe_sound_wdpa_shape_file</title>
<path fill="none" stroke="black" d="M470.955,-221.697C472.718,-213.983 474.837,-204.712 476.803,-196.112"/>
<polygon fill="black" stroke="black" points="480.274,-196.633 479.09,-186.104 473.45,-195.073 480.274,-196.633"/>
</g>
<!-- extent_of_howe_sound&#45;&gt;rasterize_howe_sound_pep_shape_file -->
<g id="edge6" class="edge"><title>extent_of_howe_sound&#45;&gt;rasterize_howe_sound_pep_shape_file</title>
<path fill="none" stroke="black" d="M547.275,-222.853C598.863,-212.476 666.118,-198.948 720.313,-188.046"/>
<polygon fill="black" stroke="black" points="721.16,-191.446 730.274,-186.043 719.78,-184.583 721.16,-191.446"/>
</g>
<!-- hs_wdpa_shp_file -->
<g id="node11" class="node"><title>hs_wdpa_shp_file</title>
<path fill="#ffffcc" stroke="black" d="M728.036,-402C728.036,-402 623.964,-402 623.964,-402 617.964,-402 611.964,-396 611.964,-390 611.964,-390 611.964,-378 611.964,-378 611.964,-372 617.964,-366 623.964,-366 623.964,-366 728.036,-366 728.036,-366 734.036,-366 740.036,-372 740.036,-378 740.036,-378 740.036,-390 740.036,-390 740.036,-396 734.036,-402 728.036,-402"/>
<text text-anchor="middle" x="676" y="-379.8" font-family="Helvetica,sans-Serif" font-size="14.00">hs_wdpa_shp_file</text>
</g>
<!-- hs_wdpa_shp_file&#45;&gt;load_and_create_howe_sound_wdpa_pep_files -->
<g id="edge7" class="edge"><title>hs_wdpa_shp_file&#45;&gt;load_and_create_howe_sound_wdpa_pep_files</title>
<path fill="none" stroke="black" d="M699.236,-365.697C711.188,-356.796 725.923,-345.823 738.847,-336.199"/>
<polygon fill="black" stroke="black" points="741.101,-338.884 747.031,-330.104 736.92,-333.27 741.101,-338.884"/>
</g>
<!-- hs_wdpa_shp_file&#45;&gt;rasterize_howe_sound_wdpa_shape_file -->
<g id="edge8" class="edge"><title>hs_wdpa_shp_file&#45;&gt;rasterize_howe_sound_wdpa_shape_file</title>
<path fill="none" stroke="black" d="M628.274,-365.978C611.04,-357.614 592.917,-345.85 581,-330 551.391,-290.62 583.212,-263.072 556,-222 548.065,-210.023 536.443,-199.824 524.795,-191.667"/>
<polygon fill="black" stroke="black" points="526.634,-188.687 516.362,-186.092 522.774,-194.526 526.634,-188.687"/>
</g>
<!-- hs_pep_shp_file -->
<g id="node12" class="node"><title>hs_pep_shp_file</title>
<path fill="#ffffcc" stroke="black" d="M863.93,-402C863.93,-402 770.07,-402 770.07,-402 764.07,-402 758.07,-396 758.07,-390 758.07,-390 758.07,-378 758.07,-378 758.07,-372 764.07,-366 770.07,-366 770.07,-366 863.93,-366 863.93,-366 869.93,-366 875.93,-372 875.93,-378 875.93,-378 875.93,-390 875.93,-390 875.93,-396 869.93,-402 863.93,-402"/>
<text text-anchor="middle" x="817" y="-379.8" font-family="Helvetica,sans-Serif" font-size="14.00">hs_pep_shp_file</text>
</g>
<!-- hs_pep_shp_file&#45;&gt;load_and_create_howe_sound_wdpa_pep_files -->
<g id="edge9" class="edge"><title>hs_pep_shp_file&#45;&gt;load_and_create_howe_sound_wdpa_pep_files</title>
<path fill="none" stroke="black" d="M805.382,-365.697C799.861,-357.474 793.153,-347.483 787.068,-338.421"/>
<polygon fill="black" stroke="black" points="789.965,-336.456 781.484,-330.104 784.153,-340.358 789.965,-336.456"/>
</g>
<!-- hs_pep_shp_file&#45;&gt;rasterize_howe_sound_pep_shape_file -->
<g id="edge10" class="edge"><title>hs_pep_shp_file&#45;&gt;rasterize_howe_sound_pep_shape_file</title>
<path fill="none" stroke="black" d="M876.124,-376.717C906.223,-370.184 940.319,-356.913 959,-330 986.371,-290.569 986.461,-261.369 959,-222 949.408,-208.249 935.829,-198.055 920.803,-190.502"/>
<polygon fill="black" stroke="black" points="921.831,-187.123 911.282,-186.132 918.91,-193.484 921.831,-187.123"/>
</g>
<!-- hs_wdpa_rast_file_handle&#45;&gt;rasterize_howe_sound_wdpa_shape_file -->
<g id="edge11" class="edge"><title>hs_wdpa_rast_file_handle&#45;&gt;rasterize_howe_sound_wdpa_shape_file</title>
<path fill="none" stroke="black" d="M627.276,-221.876C600.701,-212.137 567.238,-199.872 539.231,-189.608"/>
<polygon fill="black" stroke="black" points="540.166,-186.223 529.572,-186.068 537.757,-192.796 540.166,-186.223"/>
</g>
<!-- hs_pep_rast_file_handle&#45;&gt;rasterize_howe_sound_pep_shape_file -->
<g id="edge12" class="edge"><title>hs_pep_rast_file_handle&#45;&gt;rasterize_howe_sound_pep_shape_file</title>
<path fill="none" stroke="black" d="M853.393,-221.697C847.403,-213.474 840.124,-203.483 833.521,-194.421"/>
<polygon fill="black" stroke="black" points="836.179,-192.126 827.462,-186.104 830.522,-196.248 836.179,-192.126"/>
</g>
<!-- hs_wdpa_rast_file_outflow -->
<g id="node22" class="node"><title>hs_wdpa_rast_file_outflow</title>
<ellipse fill="none" stroke="black" cx="632" cy="-31" rx="7" ry="7"/>
</g>
<!-- hs_wdpa_rast_file&#45;&gt;hs_wdpa_rast_file_outflow -->
<g id="edge25" class="edge"><title>hs_wdpa_rast_file&#45;&gt;hs_wdpa_rast_file_outflow</title>
<path fill="none" stroke="black" d="M557.603,-77.9513C576.962,-65.9941 602.064,-50.4901 617.596,-40.8964"/>
<polygon fill="black" stroke="black" points="619.597,-43.7748 626.265,-35.542 615.918,-37.8192 619.597,-43.7748"/>
</g>
<!-- hs_pep_rast_file_outflow -->
<g id="node21" class="node"><title>hs_pep_rast_file_outflow</title>
<ellipse fill="none" stroke="black" cx="664" cy="-31" rx="7" ry="7"/>
</g>
<!-- hs_pep_rast_file&#45;&gt;hs_pep_rast_file_outflow -->
<g id="edge24" class="edge"><title>hs_pep_rast_file&#45;&gt;hs_pep_rast_file_outflow</title>
<path fill="none" stroke="black" d="M739.127,-77.9513C719.578,-65.9941 694.23,-50.4901 678.545,-40.8964"/>
<polygon fill="black" stroke="black" points="680.148,-37.7742 669.791,-35.542 676.495,-43.7457 680.148,-37.7742"/>
</g>
<!-- setup_R_inflow -->
<g id="node17" class="node"><title>setup_R_inflow</title>
<ellipse fill="none" stroke="black" cx="603" cy="-593" rx="7" ry="7"/>
</g>
<!-- setup_R_inflow&#45;&gt;setup_R -->
<g id="edge20" class="edge"><title>setup_R_inflow&#45;&gt;setup_R</title>
<path fill="none" stroke="black" d="M596.923,-588.961C583.172,-582.086 548.651,-564.825 520.159,-550.58"/>
<polygon fill="black" stroke="black" points="521.664,-547.419 511.155,-546.077 518.534,-553.68 521.664,-547.419"/>
</g>
<!-- ohibc_rgn_raster_500m_inflow -->
<g id="node18" class="node"><title>ohibc_rgn_raster_500m_inflow</title>
<ellipse fill="none" stroke="black" cx="635" cy="-593" rx="7" ry="7"/>
</g>
<!-- ohibc_rgn_raster_500m_inflow&#45;&gt;ohibc_rgn_raster_500m -->
<g id="edge21" class="edge"><title>ohibc_rgn_raster_500m_inflow&#45;&gt;ohibc_rgn_raster_500m</title>
<path fill="none" stroke="black" d="M635.556,-586.014C637.285,-563.987 640.546,-486.21 606,-438 596.69,-425.008 583.146,-414.789 569.224,-406.938"/>
<polygon fill="black" stroke="black" points="570.54,-403.676 560.061,-402.116 567.28,-409.87 570.54,-403.676"/>
</g>
<!-- hs_wdpa_shp_file_inflow -->
<g id="node19" class="node"><title>hs_wdpa_shp_file_inflow</title>
<ellipse fill="none" stroke="black" cx="667" cy="-593" rx="7" ry="7"/>
</g>
<!-- hs_wdpa_shp_file_inflow&#45;&gt;hs_wdpa_shp_file -->
<g id="edge22" class="edge"><title>hs_wdpa_shp_file_inflow&#45;&gt;hs_wdpa_shp_file</title>
<path fill="none" stroke="black" d="M667.279,-585.578C668.413,-559.503 672.712,-460.635 674.82,-412.146"/>
<polygon fill="black" stroke="black" points="678.32,-412.205 675.258,-402.062 671.327,-411.901 678.32,-412.205"/>
</g>
<!-- hs_pep_shp_file_inflow -->
<g id="node20" class="node"><title>hs_pep_shp_file_inflow</title>
<ellipse fill="none" stroke="black" cx="699" cy="-593" rx="7" ry="7"/>
</g>
<!-- hs_pep_shp_file_inflow&#45;&gt;hs_pep_shp_file -->
<g id="edge23" class="edge"><title>hs_pep_shp_file_inflow&#45;&gt;hs_pep_shp_file</title>
<path fill="none" stroke="black" d="M702.156,-586.463C716.313,-561.629 774.469,-459.61 802.182,-410.994"/>
<polygon fill="black" stroke="black" points="805.385,-412.443 807.297,-402.022 799.304,-408.976 805.385,-412.443"/>
</g>
</g>
</svg>
