<?xml version="1.0" encoding="UTF-8" standalone="no"?>
<!DOCTYPE svg PUBLIC "-//W3C//DTD SVG 1.1//EN"
 "http://www.w3.org/Graphics/SVG/1.1/DTD/svg11.dtd">
<!-- Generated by graphviz version 2.38.0 (20140413.2041)
 -->
<!-- Title: yw_data_view Pages: 1 -->
<svg width="702pt" height="518pt"
 viewBox="0.00 0.00 702.00 517.60" xmlns="http://www.w3.org/2000/svg" xmlns:xlink="http://www.w3.org/1999/xlink">
<g id="graph0" class="graph" transform="scale(1 1) rotate(0) translate(4 513.6)">
<title>yw_data_view</title>
<polygon fill="white" stroke="none" points="-4,4 -4,-513.6 698,-513.6 698,4 -4,4"/>
<text text-anchor="middle" x="347" y="-489.4" font-family="Courier,monospace" font-size="18.00">Rasterize_HS_WDPA_and_PEP</text>
<g id="clust1" class="cluster"><title>cluster_workflow</title>
<polygon fill="none" stroke="black" stroke-width="2" points="8,-62 8,-418 686,-418 686,-62 8,-62"/>
</g>
<g id="clust2" class="cluster"><title>cluster_workflow_inner</title>
<polygon fill="none" stroke="white" stroke-width="2" points="16,-70 16,-410 678,-410 678,-70 16,-70"/>
</g>
<g id="clust3" class="cluster"><title>cluster_inflows</title>
<polygon fill="none" stroke="white" stroke-width="2" points="324,-426 324,-472 370,-472 370,-426 324,-426"/>
</g>
<g id="clust4" class="cluster"><title>cluster_inflows_inner</title>
<polygon fill="none" stroke="white" stroke-width="2" points="332,-434 332,-464 362,-464 362,-434 332,-434"/>
</g>
<g id="clust5" class="cluster"><title>cluster_outflows</title>
<polygon fill="none" stroke="white" stroke-width="2" points="305,-8 305,-54 383,-54 383,-8 305,-8"/>
</g>
<g id="clust6" class="cluster"><title>cluster_outflows_inner</title>
<polygon fill="none" stroke="white" stroke-width="2" points="313,-16 313,-46 375,-46 375,-16 313,-16"/>
</g>
<!-- rasterize_howe_sound_pep_shape_file -->
<g id="node1" class="node"><title>rasterize_howe_sound_pep_shape_file</title>
<polygon fill="#ccffcc" stroke="black" points="333.951,-186 24.049,-186 24.049,-150 333.951,-150 333.951,-186"/>
<text text-anchor="middle" x="179" y="-163.8" font-family="Courier,monospace" font-size="14.00">rasterize_howe_sound_pep_shape_file</text>
</g>
<!-- hs_pep_rast_file -->
<g id="node7" class="node"><title>hs_pep_rast_file</title>
<path fill="#ffffcc" stroke="black" d="M273.199,-114C273.199,-114 178.801,-114 178.801,-114 172.801,-114 166.801,-108 166.801,-102 166.801,-102 166.801,-90 166.801,-90 166.801,-84 172.801,-78 178.801,-78 178.801,-78 273.199,-78 273.199,-78 279.199,-78 285.199,-84 285.199,-90 285.199,-90 285.199,-102 285.199,-102 285.199,-108 279.199,-114 273.199,-114"/>
<text text-anchor="middle" x="226" y="-91.8" font-family="Helvetica,sans-Serif" font-size="14.00">hs_pep_rast_file</text>
</g>
<!-- rasterize_howe_sound_pep_shape_file&#45;&gt;hs_pep_rast_file -->
<g id="edge1" class="edge"><title>rasterize_howe_sound_pep_shape_file&#45;&gt;hs_pep_rast_file</title>
<path fill="none" stroke="black" d="M190.618,-149.697C196.139,-141.474 202.847,-131.483 208.932,-122.421"/>
<polygon fill="black" stroke="black" points="211.847,-124.358 214.516,-114.104 206.035,-120.456 211.847,-124.358"/>
</g>
<!-- rasterize_howe_sound_wdpa_shape_file -->
<g id="node2" class="node"><title>rasterize_howe_sound_wdpa_shape_file</title>
<polygon fill="#ccffcc" stroke="black" points="670.35,-186 351.65,-186 351.65,-150 670.35,-150 670.35,-186"/>
<text text-anchor="middle" x="511" y="-163.8" font-family="Courier,monospace" font-size="14.00">rasterize_howe_sound_wdpa_shape_file</text>
</g>
<!-- hs_wdpa_rast_file -->
<g id="node6" class="node"><title>hs_wdpa_rast_file</title>
<path fill="#ffffcc" stroke="black" d="M515.305,-114C515.305,-114 410.695,-114 410.695,-114 404.695,-114 398.695,-108 398.695,-102 398.695,-102 398.695,-90 398.695,-90 398.695,-84 404.695,-78 410.695,-78 410.695,-78 515.305,-78 515.305,-78 521.305,-78 527.305,-84 527.305,-90 527.305,-90 527.305,-102 527.305,-102 527.305,-108 521.305,-114 515.305,-114"/>
<text text-anchor="middle" x="463" y="-91.8" font-family="Helvetica,sans-Serif" font-size="14.00">hs_wdpa_rast_file</text>
</g>
<!-- rasterize_howe_sound_wdpa_shape_file&#45;&gt;hs_wdpa_rast_file -->
<g id="edge2" class="edge"><title>rasterize_howe_sound_wdpa_shape_file&#45;&gt;hs_wdpa_rast_file</title>
<path fill="none" stroke="black" d="M499.135,-149.697C493.497,-141.474 486.646,-131.483 480.431,-122.421"/>
<polygon fill="black" stroke="black" points="483.271,-120.372 474.729,-114.104 477.497,-124.331 483.271,-120.372"/>
</g>
<!-- rasterize_ohibc_rgn_raster_500m_shape_file_at_500m_resolution -->
<g id="node3" class="node"><title>rasterize_ohibc_rgn_raster_500m_shape_file_at_500m_resolution</title>
<polygon fill="#ccffcc" stroke="black" points="611.315,-330 82.6853,-330 82.6853,-294 611.315,-294 611.315,-330"/>
<text text-anchor="middle" x="347" y="-307.8" font-family="Courier,monospace" font-size="14.00">rasterize_ohibc_rgn_raster_500m_shape_file_at_500m_resolution</text>
</g>
<!-- extent_of_howe_sound -->
<g id="node5" class="node"><title>extent_of_howe_sound</title>
<path fill="#ffffcc" stroke="black" d="M415.235,-258C415.235,-258 278.765,-258 278.765,-258 272.765,-258 266.765,-252 266.765,-246 266.765,-246 266.765,-234 266.765,-234 266.765,-228 272.765,-222 278.765,-222 278.765,-222 415.235,-222 415.235,-222 421.235,-222 427.235,-228 427.235,-234 427.235,-234 427.235,-246 427.235,-246 427.235,-252 421.235,-258 415.235,-258"/>
<text text-anchor="middle" x="347" y="-235.8" font-family="Helvetica,sans-Serif" font-size="14.00">extent_of_howe_sound</text>
</g>
<!-- rasterize_ohibc_rgn_raster_500m_shape_file_at_500m_resolution&#45;&gt;extent_of_howe_sound -->
<g id="edge3" class="edge"><title>rasterize_ohibc_rgn_raster_500m_shape_file_at_500m_resolution&#45;&gt;extent_of_howe_sound</title>
<path fill="none" stroke="black" d="M347,-293.697C347,-285.983 347,-276.712 347,-268.112"/>
<polygon fill="black" stroke="black" points="350.5,-268.104 347,-258.104 343.5,-268.104 350.5,-268.104"/>
</g>
<!-- ohibc_rgn_raster_500m -->
<g id="node4" class="node"><title>ohibc_rgn_raster_500m</title>
<path fill="#ffffcc" stroke="black" d="M416.814,-402C416.814,-402 277.186,-402 277.186,-402 271.186,-402 265.186,-396 265.186,-390 265.186,-390 265.186,-378 265.186,-378 265.186,-372 271.186,-366 277.186,-366 277.186,-366 416.814,-366 416.814,-366 422.814,-366 428.814,-372 428.814,-378 428.814,-378 428.814,-390 428.814,-390 428.814,-396 422.814,-402 416.814,-402"/>
<text text-anchor="middle" x="347" y="-379.8" font-family="Helvetica,sans-Serif" font-size="14.00">ohibc_rgn_raster_500m</text>
</g>
<!-- ohibc_rgn_raster_500m&#45;&gt;rasterize_ohibc_rgn_raster_500m_shape_file_at_500m_resolution -->
<g id="edge4" class="edge"><title>ohibc_rgn_raster_500m&#45;&gt;rasterize_ohibc_rgn_raster_500m_shape_file_at_500m_resolution</title>
<path fill="none" stroke="black" d="M347,-365.697C347,-357.983 347,-348.712 347,-340.112"/>
<polygon fill="black" stroke="black" points="350.5,-340.104 347,-330.104 343.5,-340.104 350.5,-340.104"/>
</g>
<!-- extent_of_howe_sound&#45;&gt;rasterize_howe_sound_pep_shape_file -->
<g id="edge6" class="edge"><title>extent_of_howe_sound&#45;&gt;rasterize_howe_sound_pep_shape_file</title>
<path fill="none" stroke="black" d="M305.903,-221.876C282.834,-212.264 253.864,-200.193 229.43,-190.013"/>
<polygon fill="black" stroke="black" points="230.541,-186.684 219.964,-186.068 227.849,-193.145 230.541,-186.684"/>
</g>
<!-- extent_of_howe_sound&#45;&gt;rasterize_howe_sound_wdpa_shape_file -->
<g id="edge5" class="edge"><title>extent_of_howe_sound&#45;&gt;rasterize_howe_sound_wdpa_shape_file</title>
<path fill="none" stroke="black" d="M387.119,-221.876C409.638,-212.264 437.918,-200.193 461.771,-190.013"/>
<polygon fill="black" stroke="black" points="463.188,-193.213 471.011,-186.068 460.44,-186.775 463.188,-193.213"/>
</g>
<!-- hs_wdpa_rast_file_outflow -->
<g id="node10" class="node"><title>hs_wdpa_rast_file_outflow</title>
<ellipse fill="none" stroke="black" cx="360" cy="-31" rx="7" ry="7"/>
</g>
<!-- hs_wdpa_rast_file&#45;&gt;hs_wdpa_rast_file_outflow -->
<g id="edge9" class="edge"><title>hs_wdpa_rast_file&#45;&gt;hs_wdpa_rast_file_outflow</title>
<path fill="none" stroke="black" d="M435.127,-77.9513C415.578,-65.9941 390.23,-50.4901 374.545,-40.8964"/>
<polygon fill="black" stroke="black" points="376.148,-37.7742 365.791,-35.542 372.495,-43.7457 376.148,-37.7742"/>
</g>
<!-- hs_pep_rast_file_outflow -->
<g id="node9" class="node"><title>hs_pep_rast_file_outflow</title>
<ellipse fill="none" stroke="black" cx="328" cy="-31" rx="7" ry="7"/>
</g>
<!-- hs_pep_rast_file&#45;&gt;hs_pep_rast_file_outflow -->
<g id="edge8" class="edge"><title>hs_pep_rast_file&#45;&gt;hs_pep_rast_file_outflow</title>
<path fill="none" stroke="black" d="M253.603,-77.9513C272.962,-65.9941 298.064,-50.4901 313.596,-40.8964"/>
<polygon fill="black" stroke="black" points="315.597,-43.7748 322.265,-35.542 311.918,-37.8192 315.597,-43.7748"/>
</g>
<!-- ohibc_rgn_raster_500m_inflow -->
<g id="node8" class="node"><title>ohibc_rgn_raster_500m_inflow</title>
<ellipse fill="none" stroke="black" cx="347" cy="-449" rx="7" ry="7"/>
</g>
<!-- ohibc_rgn_raster_500m_inflow&#45;&gt;ohibc_rgn_raster_500m -->
<g id="edge7" class="edge"><title>ohibc_rgn_raster_500m_inflow&#45;&gt;ohibc_rgn_raster_500m</title>
<path fill="none" stroke="black" d="M347,-441.729C347,-434.795 347,-423.154 347,-412.215"/>
<polygon fill="black" stroke="black" points="350.5,-412.119 347,-402.119 343.5,-412.119 350.5,-412.119"/>
</g>
</g>
</svg>
