<?xml version="1.0" encoding="UTF-8" standalone="no"?>
<!DOCTYPE svg PUBLIC "-//W3C//DTD SVG 1.1//EN"
 "http://www.w3.org/Graphics/SVG/1.1/DTD/svg11.dtd">
<!-- Generated by graphviz version 2.38.0 (20140413.2041)
 -->
<!-- Title: yw_data_view Pages: 1 -->
<svg width="702pt" height="518pt"
 viewBox="0.00 0.00 702.00 517.60" xmlns="http://www.w3.org/2000/svg" xmlns:xlink="http://www.w3.org/1999/xlink">
<g id="graph0" class="graph" transform="scale(1 1) rotate(0) translate(4 513.6)">
<title>yw_data_view</title>
<polygon fill="white" stroke="none" points="-4,4 -4,-513.6 698,-513.6 698,4 -4,4"/>
<text text-anchor="middle" x="347" y="-489.4" font-family="Courier,monospace" font-size="18.00">Rasterize_HS_WDPA_and_PEP</text>
<g id="clust1" class="cluster"><title>cluster_workflow</title>
<polygon fill="none" stroke="black" stroke-width="2" points="8,-62 8,-418 686,-418 686,-62 8,-62"/>
</g>
<g id="clust2" class="cluster"><title>cluster_workflow_inner</title>
<polygon fill="none" stroke="white" stroke-width="2" points="16,-70 16,-410 678,-410 678,-70 16,-70"/>
</g>
<g id="clust3" class="cluster"><title>cluster_inflows</title>
<polygon fill="none" stroke="white" stroke-width="2" points="388,-426 388,-472 434,-472 434,-426 388,-426"/>
</g>
<g id="clust4" class="cluster"><title>cluster_inflows_inner</title>
<polygon fill="none" stroke="white" stroke-width="2" points="396,-434 396,-464 426,-464 426,-434 396,-434"/>
</g>
<g id="clust5" class="cluster"><title>cluster_outflows</title>
<polygon fill="none" stroke="white" stroke-width="2" points="305,-8 305,-54 383,-54 383,-8 305,-8"/>
</g>
<g id="clust6" class="cluster"><title>cluster_outflows_inner</title>
<polygon fill="none" stroke="white" stroke-width="2" points="313,-16 313,-46 375,-46 375,-16 313,-16"/>
</g>
<!-- rasterize_howe_sound_pep_shape_file -->
<g id="node1" class="node"><title>rasterize_howe_sound_pep_shape_file</title>
<polygon fill="#ccffcc" stroke="black" points="333.951,-186 24.049,-186 24.049,-150 333.951,-150 333.951,-186"/>
<text text-anchor="middle" x="179" y="-163.8" font-family="Courier,monospace" font-size="14.00">rasterize_howe_sound_pep_shape_file</text>
</g>
<!-- hs_pep_rast_file -->
<g id="node8" class="node"><title>hs_pep_rast_file</title>
<path fill="#ffffcc" stroke="black" d="M273.199,-114C273.199,-114 178.801,-114 178.801,-114 172.801,-114 166.801,-108 166.801,-102 166.801,-102 166.801,-90 166.801,-90 166.801,-84 172.801,-78 178.801,-78 178.801,-78 273.199,-78 273.199,-78 279.199,-78 285.199,-84 285.199,-90 285.199,-90 285.199,-102 285.199,-102 285.199,-108 279.199,-114 273.199,-114"/>
<text text-anchor="middle" x="226" y="-91.8" font-family="Helvetica,sans-Serif" font-size="14.00">hs_pep_rast_file</text>
</g>
<!-- rasterize_howe_sound_pep_shape_file&#45;&gt;hs_pep_rast_file -->
<g id="edge1" class="edge"><title>rasterize_howe_sound_pep_shape_file&#45;&gt;hs_pep_rast_file</title>
<path fill="none" stroke="black" d="M190.618,-149.697C196.139,-141.474 202.847,-131.483 208.932,-122.421"/>
<polygon fill="black" stroke="black" points="211.847,-124.358 214.516,-114.104 206.035,-120.456 211.847,-124.358"/>
</g>
<!-- load_and_create_howe_sound_wdpa_pep_files -->
<g id="node2" class="node"><title>load_and_create_howe_sound_wdpa_pep_files</title>
<polygon fill="#ccffcc" stroke="black" points="492.343,-330 131.657,-330 131.657,-294 492.343,-294 492.343,-330"/>
<text text-anchor="middle" x="312" y="-307.8" font-family="Courier,monospace" font-size="14.00">load_and_create_howe_sound_wdpa_pep_files</text>
</g>
<!-- hs_wdpa_rast_file_handle -->
<g id="node5" class="node"><title>hs_wdpa_rast_file_handle</title>
<path fill="#ffffcc" stroke="black" d="M464.108,-258C464.108,-258 309.892,-258 309.892,-258 303.892,-258 297.892,-252 297.892,-246 297.892,-246 297.892,-234 297.892,-234 297.892,-228 303.892,-222 309.892,-222 309.892,-222 464.108,-222 464.108,-222 470.108,-222 476.108,-228 476.108,-234 476.108,-234 476.108,-246 476.108,-246 476.108,-252 470.108,-258 464.108,-258"/>
<text text-anchor="middle" x="387" y="-235.8" font-family="Helvetica,sans-Serif" font-size="14.00">hs_wdpa_rast_file_handle</text>
</g>
<!-- load_and_create_howe_sound_wdpa_pep_files&#45;&gt;hs_wdpa_rast_file_handle -->
<g id="edge4" class="edge"><title>load_and_create_howe_sound_wdpa_pep_files&#45;&gt;hs_wdpa_rast_file_handle</title>
<path fill="none" stroke="black" d="M330.539,-293.697C339.803,-285.05 351.162,-274.449 361.257,-265.027"/>
<polygon fill="black" stroke="black" points="363.751,-267.486 368.674,-258.104 358.975,-262.369 363.751,-267.486"/>
</g>
<!-- hs_pep_rast_file_handle -->
<g id="node6" class="node"><title>hs_pep_rast_file_handle</title>
<path fill="#ffffcc" stroke="black" d="M259.001,-258C259.001,-258 114.999,-258 114.999,-258 108.999,-258 102.999,-252 102.999,-246 102.999,-246 102.999,-234 102.999,-234 102.999,-228 108.999,-222 114.999,-222 114.999,-222 259.001,-222 259.001,-222 265.001,-222 271.001,-228 271.001,-234 271.001,-234 271.001,-246 271.001,-246 271.001,-252 265.001,-258 259.001,-258"/>
<text text-anchor="middle" x="187" y="-235.8" font-family="Helvetica,sans-Serif" font-size="14.00">hs_pep_rast_file_handle</text>
</g>
<!-- load_and_create_howe_sound_wdpa_pep_files&#45;&gt;hs_pep_rast_file_handle -->
<g id="edge3" class="edge"><title>load_and_create_howe_sound_wdpa_pep_files&#45;&gt;hs_pep_rast_file_handle</title>
<path fill="none" stroke="black" d="M281.422,-293.876C264.926,-284.639 244.376,-273.131 226.664,-263.212"/>
<polygon fill="black" stroke="black" points="228.131,-260.022 217.696,-258.19 224.711,-266.13 228.131,-260.022"/>
</g>
<!-- rasterize_howe_sound_wdpa_shape_file -->
<g id="node3" class="node"><title>rasterize_howe_sound_wdpa_shape_file</title>
<polygon fill="#ccffcc" stroke="black" points="670.35,-186 351.65,-186 351.65,-150 670.35,-150 670.35,-186"/>
<text text-anchor="middle" x="511" y="-163.8" font-family="Courier,monospace" font-size="14.00">rasterize_howe_sound_wdpa_shape_file</text>
</g>
<!-- hs_wdpa_rast_file -->
<g id="node7" class="node"><title>hs_wdpa_rast_file</title>
<path fill="#ffffcc" stroke="black" d="M515.305,-114C515.305,-114 410.695,-114 410.695,-114 404.695,-114 398.695,-108 398.695,-102 398.695,-102 398.695,-90 398.695,-90 398.695,-84 404.695,-78 410.695,-78 410.695,-78 515.305,-78 515.305,-78 521.305,-78 527.305,-84 527.305,-90 527.305,-90 527.305,-102 527.305,-102 527.305,-108 521.305,-114 515.305,-114"/>
<text text-anchor="middle" x="463" y="-91.8" font-family="Helvetica,sans-Serif" font-size="14.00">hs_wdpa_rast_file</text>
</g>
<!-- rasterize_howe_sound_wdpa_shape_file&#45;&gt;hs_wdpa_rast_file -->
<g id="edge2" class="edge"><title>rasterize_howe_sound_wdpa_shape_file&#45;&gt;hs_wdpa_rast_file</title>
<path fill="none" stroke="black" d="M499.135,-149.697C493.497,-141.474 486.646,-131.483 480.431,-122.421"/>
<polygon fill="black" stroke="black" points="483.271,-120.372 474.729,-114.104 477.497,-124.331 483.271,-120.372"/>
</g>
<!-- hs_wdpa_shp_file -->
<g id="node4" class="node"><title>hs_wdpa_shp_file</title>
<path fill="#ffffcc" stroke="black" d="M463.036,-402C463.036,-402 358.964,-402 358.964,-402 352.964,-402 346.964,-396 346.964,-390 346.964,-390 346.964,-378 346.964,-378 346.964,-372 352.964,-366 358.964,-366 358.964,-366 463.036,-366 463.036,-366 469.036,-366 475.036,-372 475.036,-378 475.036,-378 475.036,-390 475.036,-390 475.036,-396 469.036,-402 463.036,-402"/>
<text text-anchor="middle" x="411" y="-379.8" font-family="Helvetica,sans-Serif" font-size="14.00">hs_wdpa_shp_file</text>
</g>
<!-- hs_wdpa_shp_file&#45;&gt;load_and_create_howe_sound_wdpa_pep_files -->
<g id="edge5" class="edge"><title>hs_wdpa_shp_file&#45;&gt;load_and_create_howe_sound_wdpa_pep_files</title>
<path fill="none" stroke="black" d="M386.782,-365.876C374.077,-356.893 358.336,-345.763 344.577,-336.034"/>
<polygon fill="black" stroke="black" points="346.497,-333.105 336.311,-330.19 342.456,-338.821 346.497,-333.105"/>
</g>
<!-- hs_wdpa_shp_file&#45;&gt;rasterize_howe_sound_wdpa_shape_file -->
<g id="edge6" class="edge"><title>hs_wdpa_shp_file&#45;&gt;rasterize_howe_sound_wdpa_shape_file</title>
<path fill="none" stroke="black" d="M458.55,-365.894C474.756,-357.609 491.233,-345.92 501,-330 526.241,-288.86 522.028,-230.141 516.58,-196.16"/>
<polygon fill="black" stroke="black" points="519.981,-195.293 514.803,-186.05 513.087,-196.504 519.981,-195.293"/>
</g>
<!-- hs_wdpa_rast_file_handle&#45;&gt;rasterize_howe_sound_wdpa_shape_file -->
<g id="edge7" class="edge"><title>hs_wdpa_rast_file_handle&#45;&gt;rasterize_howe_sound_wdpa_shape_file</title>
<path fill="none" stroke="black" d="M417.334,-221.876C433.697,-212.639 454.083,-201.131 471.654,-191.212"/>
<polygon fill="black" stroke="black" points="473.562,-194.154 480.55,-186.19 470.121,-188.058 473.562,-194.154"/>
</g>
<!-- hs_pep_rast_file_handle&#45;&gt;rasterize_howe_sound_pep_shape_file -->
<g id="edge8" class="edge"><title>hs_pep_rast_file_handle&#45;&gt;rasterize_howe_sound_pep_shape_file</title>
<path fill="none" stroke="black" d="M185.022,-221.697C184.141,-213.983 183.081,-204.712 182.099,-196.112"/>
<polygon fill="black" stroke="black" points="185.568,-195.642 180.955,-186.104 178.613,-196.437 185.568,-195.642"/>
</g>
<!-- hs_wdpa_rast_file_outflow -->
<g id="node11" class="node"><title>hs_wdpa_rast_file_outflow</title>
<ellipse fill="none" stroke="black" cx="360" cy="-31" rx="7" ry="7"/>
</g>
<!-- hs_wdpa_rast_file&#45;&gt;hs_wdpa_rast_file_outflow -->
<g id="edge11" class="edge"><title>hs_wdpa_rast_file&#45;&gt;hs_wdpa_rast_file_outflow</title>
<path fill="none" stroke="black" d="M435.127,-77.9513C415.578,-65.9941 390.23,-50.4901 374.545,-40.8964"/>
<polygon fill="black" stroke="black" points="376.148,-37.7742 365.791,-35.542 372.495,-43.7457 376.148,-37.7742"/>
</g>
<!-- hs_pep_rast_file_outflow -->
<g id="node10" class="node"><title>hs_pep_rast_file_outflow</title>
<ellipse fill="none" stroke="black" cx="328" cy="-31" rx="7" ry="7"/>
</g>
<!-- hs_pep_rast_file&#45;&gt;hs_pep_rast_file_outflow -->
<g id="edge10" class="edge"><title>hs_pep_rast_file&#45;&gt;hs_pep_rast_file_outflow</title>
<path fill="none" stroke="black" d="M253.603,-77.9513C272.962,-65.9941 298.064,-50.4901 313.596,-40.8964"/>
<polygon fill="black" stroke="black" points="315.597,-43.7748 322.265,-35.542 311.918,-37.8192 315.597,-43.7748"/>
</g>
<!-- hs_wdpa_shp_file_inflow -->
<g id="node9" class="node"><title>hs_wdpa_shp_file_inflow</title>
<ellipse fill="none" stroke="black" cx="411" cy="-449" rx="7" ry="7"/>
</g>
<!-- hs_wdpa_shp_file_inflow&#45;&gt;hs_wdpa_shp_file -->
<g id="edge9" class="edge"><title>hs_wdpa_shp_file_inflow&#45;&gt;hs_wdpa_shp_file</title>
<path fill="none" stroke="black" d="M411,-441.729C411,-434.795 411,-423.154 411,-412.215"/>
<polygon fill="black" stroke="black" points="414.5,-412.119 411,-402.119 407.5,-412.119 414.5,-412.119"/>
</g>
</g>
</svg>
