<?xml version="1.0" encoding="UTF-8" standalone="no"?>
<!DOCTYPE svg PUBLIC "-//W3C//DTD SVG 1.1//EN"
 "http://www.w3.org/Graphics/SVG/1.1/DTD/svg11.dtd">
<!-- Generated by graphviz version 2.38.0 (20140413.2041)
 -->
<!-- Title: yw_data_view Pages: 1 -->
<svg width="982pt" height="669pt"
 viewBox="0.00 0.00 982.00 669.40" xmlns="http://www.w3.org/2000/svg" xmlns:xlink="http://www.w3.org/1999/xlink">
<g id="graph0" class="graph" transform="scale(1 1) rotate(0) translate(4 665.4)">
<title>yw_data_view</title>
<polygon fill="white" stroke="none" points="-4,4 -4,-665.4 978,-665.4 978,4 -4,4"/>
<text text-anchor="middle" x="487" y="-641.2" font-family="Courier,monospace" font-size="18.00">Rasterize_HS_WDPA_and_PEP</text>
<g id="clust1" class="cluster"><title>cluster_workflow</title>
<polygon fill="none" stroke="black" stroke-width="2" points="8,-62 8,-569.8 966,-569.8 966,-62 8,-62"/>
</g>
<g id="clust2" class="cluster"><title>cluster_workflow_inner</title>
<polygon fill="none" stroke="white" stroke-width="2" points="16,-70 16,-561.8 958,-561.8 958,-70 16,-70"/>
</g>
<g id="clust3" class="cluster"><title>cluster_inflows</title>
<polygon fill="none" stroke="white" stroke-width="2" points="624,-577.8 624,-623.8 766,-623.8 766,-577.8 624,-577.8"/>
</g>
<g id="clust4" class="cluster"><title>cluster_inflows_inner</title>
<polygon fill="none" stroke="white" stroke-width="2" points="632,-585.8 632,-615.8 758,-615.8 758,-585.8 632,-585.8"/>
</g>
<g id="clust5" class="cluster"><title>cluster_outflows</title>
<polygon fill="none" stroke="white" stroke-width="2" points="727,-8 727,-54 773,-54 773,-8 727,-8"/>
</g>
<g id="clust6" class="cluster"><title>cluster_outflows_inner</title>
<polygon fill="none" stroke="white" stroke-width="2" points="735,-16 735,-46 765,-46 765,-16 735,-16"/>
</g>
<!-- load_and_create_howe_sound_wdpa_pep_files -->
<g id="node1" class="node"><title>load_and_create_howe_sound_wdpa_pep_files</title>
<polygon fill="#ccffcc" stroke="black" points="930.343,-332.6 569.657,-332.6 569.657,-296.6 930.343,-296.6 930.343,-332.6"/>
<text text-anchor="middle" x="750" y="-310.4" font-family="Courier,monospace" font-size="14.00">load_and_create_howe_sound_wdpa_pep_files</text>
</g>
<!-- hs_pep_rast_file_handle -->
<g id="node8" class="node"><title>hs_pep_rast_file_handle</title>
<path fill="#ffffcc" stroke="black" d="M822.001,-260.6C822.001,-260.6 677.999,-260.6 677.999,-260.6 671.999,-260.6 665.999,-254.6 665.999,-248.6 665.999,-248.6 665.999,-236.6 665.999,-236.6 665.999,-230.6 671.999,-224.6 677.999,-224.6 677.999,-224.6 822.001,-224.6 822.001,-224.6 828.001,-224.6 834.001,-230.6 834.001,-236.6 834.001,-236.6 834.001,-248.6 834.001,-248.6 834.001,-254.6 828.001,-260.6 822.001,-260.6"/>
<text text-anchor="middle" x="750" y="-238.4" font-family="Helvetica,sans-Serif" font-size="14.00">hs_pep_rast_file_handle</text>
</g>
<!-- load_and_create_howe_sound_wdpa_pep_files&#45;&gt;hs_pep_rast_file_handle -->
<g id="edge13" class="edge"><title>load_and_create_howe_sound_wdpa_pep_files&#45;&gt;hs_pep_rast_file_handle</title>
<path fill="none" stroke="black" d="M750,-296.297C750,-288.583 750,-279.312 750,-270.712"/>
<polygon fill="black" stroke="black" points="753.5,-270.704 750,-260.704 746.5,-270.704 753.5,-270.704"/>
</g>
<!-- rasterize_ohibc_rgn_raster_500m_shape_file_at_500m_resolution -->
<g id="node2" class="node"><title>rasterize_ohibc_rgn_raster_500m_shape_file_at_500m_resolution</title>
<polygon fill="#ccffcc" stroke="black" points="552.315,-332.6 23.6853,-332.6 23.6853,-296.6 552.315,-296.6 552.315,-332.6"/>
<text text-anchor="middle" x="288" y="-310.4" font-family="Courier,monospace" font-size="14.00">rasterize_ohibc_rgn_raster_500m_shape_file_at_500m_resolution</text>
</g>
<!-- extent_of_howe_sound -->
<g id="node7" class="node"><title>extent_of_howe_sound</title>
<path fill="#ffffcc" stroke="black" d="M495.235,-260.6C495.235,-260.6 358.765,-260.6 358.765,-260.6 352.765,-260.6 346.765,-254.6 346.765,-248.6 346.765,-248.6 346.765,-236.6 346.765,-236.6 346.765,-230.6 352.765,-224.6 358.765,-224.6 358.765,-224.6 495.235,-224.6 495.235,-224.6 501.235,-224.6 507.235,-230.6 507.235,-236.6 507.235,-236.6 507.235,-248.6 507.235,-248.6 507.235,-254.6 501.235,-260.6 495.235,-260.6"/>
<text text-anchor="middle" x="427" y="-238.4" font-family="Helvetica,sans-Serif" font-size="14.00">extent_of_howe_sound</text>
</g>
<!-- rasterize_ohibc_rgn_raster_500m_shape_file_at_500m_resolution&#45;&gt;extent_of_howe_sound -->
<g id="edge12" class="edge"><title>rasterize_ohibc_rgn_raster_500m_shape_file_at_500m_resolution&#45;&gt;extent_of_howe_sound</title>
<path fill="none" stroke="black" d="M322.003,-296.476C340.598,-287.112 363.827,-275.414 383.706,-265.403"/>
<polygon fill="black" stroke="black" points="385.509,-268.414 392.866,-260.79 382.36,-262.162 385.509,-268.414"/>
</g>
<!-- set_up_configuration_and_start_provenance_tracking -->
<g id="node3" class="node"><title>set_up_configuration_and_start_provenance_tracking</title>
<polygon fill="#ccffcc" stroke="black" points="592.93,-479.2 157.07,-479.2 157.07,-443.2 592.93,-443.2 592.93,-479.2"/>
<text text-anchor="middle" x="375" y="-457" font-family="Courier,monospace" font-size="14.00">set_up_configuration_and_start_provenance_tracking</text>
</g>
<!-- dir_spatial -->
<g id="node5" class="node"><title>dir_spatial</title>
<path fill="#ffffcc" stroke="black" d="M311.784,-405.9C311.784,-405.9 256.216,-405.9 256.216,-405.9 250.216,-405.9 244.216,-399.9 244.216,-393.9 244.216,-393.9 244.216,-381.9 244.216,-381.9 244.216,-375.9 250.216,-369.9 256.216,-369.9 256.216,-369.9 311.784,-369.9 311.784,-369.9 317.784,-369.9 323.784,-375.9 323.784,-381.9 323.784,-381.9 323.784,-393.9 323.784,-393.9 323.784,-399.9 317.784,-405.9 311.784,-405.9"/>
<text text-anchor="middle" x="284" y="-383.7" font-family="Helvetica,sans-Serif" font-size="14.00">dir_spatial</text>
</g>
<!-- set_up_configuration_and_start_provenance_tracking&#45;&gt;dir_spatial -->
<g id="edge10" class="edge"><title>set_up_configuration_and_start_provenance_tracking&#45;&gt;dir_spatial</title>
<path fill="none" stroke="black" d="M352.971,-442.94C341.235,-433.744 326.629,-422.301 313.884,-412.314"/>
<polygon fill="black" stroke="black" points="315.856,-409.413 305.826,-406.001 311.539,-414.923 315.856,-409.413"/>
</g>
<!-- dir_goal -->
<g id="node6" class="node"><title>dir_goal</title>
<path fill="#ffffcc" stroke="black" d="M395.787,-405.9C395.787,-405.9 354.213,-405.9 354.213,-405.9 348.213,-405.9 342.213,-399.9 342.213,-393.9 342.213,-393.9 342.213,-381.9 342.213,-381.9 342.213,-375.9 348.213,-369.9 354.213,-369.9 354.213,-369.9 395.787,-369.9 395.787,-369.9 401.787,-369.9 407.787,-375.9 407.787,-381.9 407.787,-381.9 407.787,-393.9 407.787,-393.9 407.787,-399.9 401.787,-405.9 395.787,-405.9"/>
<text text-anchor="middle" x="375" y="-383.7" font-family="Helvetica,sans-Serif" font-size="14.00">dir_goal</text>
</g>
<!-- set_up_configuration_and_start_provenance_tracking&#45;&gt;dir_goal -->
<g id="edge11" class="edge"><title>set_up_configuration_and_start_provenance_tracking&#45;&gt;dir_goal</title>
<path fill="none" stroke="black" d="M375,-442.94C375,-434.883 375,-425.1 375,-416.084"/>
<polygon fill="black" stroke="black" points="378.5,-416.001 375,-406.001 371.5,-416.001 378.5,-416.001"/>
</g>
<!-- rasterize_howe_sound_pep_shape_file -->
<g id="node4" class="node"><title>rasterize_howe_sound_pep_shape_file</title>
<polygon fill="#ccffcc" stroke="black" points="904.951,-188.6 595.049,-188.6 595.049,-152.6 904.951,-152.6 904.951,-188.6"/>
<text text-anchor="middle" x="750" y="-166.4" font-family="Courier,monospace" font-size="14.00">rasterize_howe_sound_pep_shape_file</text>
</g>
<!-- hs_pep_rast_file -->
<g id="node13" class="node"><title>hs_pep_rast_file</title>
<path fill="#ffe4b5" stroke="black" d="M643.318,-78.5C643.318,-78.5 856.682,-78.5 856.682,-78.5 862.682,-78.5 868.682,-84.5 868.682,-90.5 868.682,-90.5 868.682,-104.1 868.682,-104.1 868.682,-110.1 862.682,-116.1 856.682,-116.1 856.682,-116.1 643.318,-116.1 643.318,-116.1 637.318,-116.1 631.318,-110.1 631.318,-104.1 631.318,-104.1 631.318,-90.5 631.318,-90.5 631.318,-84.5 637.318,-78.5 643.318,-78.5"/>
<text text-anchor="middle" x="750" y="-104" font-family="Courier,monospace" font-weight="bold" font-size="9.00">hs_pep_rast_file</text>
<polyline fill="none" stroke="black" points="631.318,-97.3 868.682,-97.3 "/>
<text text-anchor="start" x="639.318" y="-85.2" font-family="Courier,monospace" font-weight="bold" font-size="9.00">prep/lsp/vHS/spatial/hs_pep_rast_500m.tif</text>
</g>
<!-- rasterize_howe_sound_pep_shape_file&#45;&gt;hs_pep_rast_file -->
<g id="edge14" class="edge"><title>rasterize_howe_sound_pep_shape_file&#45;&gt;hs_pep_rast_file</title>
<path fill="none" stroke="black" d="M750,-152.34C750,-144.605 750,-135.279 750,-126.568"/>
<polygon fill="black" stroke="black" points="753.5,-126.396 750,-116.396 746.5,-126.396 753.5,-126.396"/>
</g>
<!-- dir_spatial&#45;&gt;rasterize_ohibc_rgn_raster_500m_shape_file_at_500m_resolution -->
<g id="edge8" class="edge"><title>dir_spatial&#45;&gt;rasterize_ohibc_rgn_raster_500m_shape_file_at_500m_resolution</title>
<path fill="none" stroke="black" d="M284.968,-369.64C285.42,-361.583 285.969,-351.8 286.475,-342.784"/>
<polygon fill="black" stroke="black" points="289.975,-342.881 287.041,-332.701 282.986,-342.489 289.975,-342.881"/>
</g>
<!-- dir_goal&#45;&gt;load_and_create_howe_sound_wdpa_pep_files -->
<g id="edge7" class="edge"><title>dir_goal&#45;&gt;load_and_create_howe_sound_wdpa_pep_files</title>
<path fill="none" stroke="black" d="M408.187,-371.535C411.134,-370.447 414.099,-369.448 417,-368.6 469.259,-353.325 527.499,-342.153 580.476,-334.12"/>
<polygon fill="black" stroke="black" points="581.275,-337.54 590.651,-332.605 580.244,-330.616 581.275,-337.54"/>
</g>
<!-- extent_of_howe_sound&#45;&gt;rasterize_howe_sound_pep_shape_file -->
<g id="edge5" class="edge"><title>extent_of_howe_sound&#45;&gt;rasterize_howe_sound_pep_shape_file</title>
<path fill="none" stroke="black" d="M505.602,-224.566C552.683,-214.362 612.661,-201.364 661.417,-190.798"/>
<polygon fill="black" stroke="black" points="662.294,-194.189 671.326,-188.65 660.812,-187.348 662.294,-194.189"/>
</g>
<!-- hs_pep_rast_file_handle&#45;&gt;rasterize_howe_sound_pep_shape_file -->
<g id="edge1" class="edge"><title>hs_pep_rast_file_handle&#45;&gt;rasterize_howe_sound_pep_shape_file</title>
<path fill="none" stroke="black" d="M750,-224.297C750,-216.583 750,-207.312 750,-198.712"/>
<polygon fill="black" stroke="black" points="753.5,-198.704 750,-188.704 746.5,-198.704 753.5,-198.704"/>
</g>
<!-- setup_R -->
<g id="node9" class="node"><title>setup_R</title>
<path fill="#ffe4b5" stroke="black" d="M500,-515.7C500,-515.7 530,-515.7 530,-515.7 536,-515.7 542,-521.7 542,-527.7 542,-527.7 542,-541.3 542,-541.3 542,-547.3 536,-553.3 530,-553.3 530,-553.3 500,-553.3 500,-553.3 494,-553.3 488,-547.3 488,-541.3 488,-541.3 488,-527.7 488,-527.7 488,-521.7 494,-515.7 500,-515.7"/>
<text text-anchor="middle" x="514.897" y="-541.2" font-family="Courier,monospace" font-weight="bold" font-size="9.00">setup_R</text>
<polyline fill="none" stroke="black" points="488,-534.5 541.794,-534.5 "/>
<text text-anchor="middle" x="514.897" y="-522.4" font-family="Courier,monospace" font-weight="bold" font-size="9.00"> </text>
</g>
<!-- setup_R&#45;&gt;set_up_configuration_and_start_provenance_tracking -->
<g id="edge9" class="edge"><title>setup_R&#45;&gt;set_up_configuration_and_start_provenance_tracking</title>
<path fill="none" stroke="black" d="M487.674,-519.583C467.742,-509.432 440.344,-495.479 417.556,-483.873"/>
<polygon fill="black" stroke="black" points="418.931,-480.646 408.431,-479.226 415.754,-486.883 418.931,-480.646"/>
</g>
<!-- ohibc_rgn_raster_500m -->
<g id="node10" class="node"><title>ohibc_rgn_raster_500m</title>
<path fill="#ffe4b5" stroke="black" d="M437.52,-369.1C437.52,-369.1 672.48,-369.1 672.48,-369.1 678.48,-369.1 684.48,-375.1 684.48,-381.1 684.48,-381.1 684.48,-394.7 684.48,-394.7 684.48,-400.7 678.48,-406.7 672.48,-406.7 672.48,-406.7 437.52,-406.7 437.52,-406.7 431.52,-406.7 425.52,-400.7 425.52,-394.7 425.52,-394.7 425.52,-381.1 425.52,-381.1 425.52,-375.1 431.52,-369.1 437.52,-369.1"/>
<text text-anchor="middle" x="555" y="-394.6" font-family="Courier,monospace" font-weight="bold" font-size="9.00">ohibc_rgn_raster_500m</text>
<polyline fill="none" stroke="black" points="425.52,-387.9 684.48,-387.9 "/>
<text text-anchor="start" x="433.52" y="-375.8" font-family="Courier,monospace" font-weight="bold" font-size="9.00">prep/spatial/raster/ohibc_rgn_raster_500m.tif</text>
</g>
<!-- ohibc_rgn_raster_500m&#45;&gt;rasterize_ohibc_rgn_raster_500m_shape_file_at_500m_resolution -->
<g id="edge6" class="edge"><title>ohibc_rgn_raster_500m&#45;&gt;rasterize_ohibc_rgn_raster_500m_shape_file_at_500m_resolution</title>
<path fill="none" stroke="black" d="M488.313,-369.092C449.867,-358.825 401.461,-345.899 361.864,-335.325"/>
<polygon fill="black" stroke="black" points="362.563,-331.889 351.998,-332.69 360.757,-338.652 362.563,-331.889"/>
</g>
<!-- hs_wdpa_shp_file -->
<g id="node11" class="node"><title>hs_wdpa_shp_file</title>
<path fill="#ffe4b5" stroke="black" d="M714.807,-369.1C714.807,-369.1 793.193,-369.1 793.193,-369.1 799.193,-369.1 805.193,-375.1 805.193,-381.1 805.193,-381.1 805.193,-394.7 805.193,-394.7 805.193,-400.7 799.193,-406.7 793.193,-406.7 793.193,-406.7 714.807,-406.7 714.807,-406.7 708.807,-406.7 702.807,-400.7 702.807,-394.7 702.807,-394.7 702.807,-381.1 702.807,-381.1 702.807,-375.1 708.807,-369.1 714.807,-369.1"/>
<text text-anchor="middle" x="754" y="-394.6" font-family="Courier,monospace" font-weight="bold" font-size="9.00">hs_wdpa_shp_file</text>
<polyline fill="none" stroke="black" points="702.807,-387.9 805.193,-387.9 "/>
<text text-anchor="middle" x="754" y="-375.8" font-family="Courier,monospace" font-weight="bold" font-size="9.00"> </text>
</g>
<!-- hs_wdpa_shp_file&#45;&gt;load_and_create_howe_sound_wdpa_pep_files -->
<g id="edge4" class="edge"><title>hs_wdpa_shp_file&#45;&gt;load_and_create_howe_sound_wdpa_pep_files</title>
<path fill="none" stroke="black" d="M752.991,-368.908C752.55,-361.048 752.023,-351.656 751.535,-342.96"/>
<polygon fill="black" stroke="black" points="755.022,-342.637 750.968,-332.848 748.033,-343.029 755.022,-342.637"/>
</g>
<!-- hs_pep_shp_file -->
<g id="node12" class="node"><title>hs_pep_shp_file</title>
<path fill="#ffe4b5" stroke="black" d="M835.507,-369.1C835.507,-369.1 908.493,-369.1 908.493,-369.1 914.493,-369.1 920.493,-375.1 920.493,-381.1 920.493,-381.1 920.493,-394.7 920.493,-394.7 920.493,-400.7 914.493,-406.7 908.493,-406.7 908.493,-406.7 835.507,-406.7 835.507,-406.7 829.507,-406.7 823.507,-400.7 823.507,-394.7 823.507,-394.7 823.507,-381.1 823.507,-381.1 823.507,-375.1 829.507,-369.1 835.507,-369.1"/>
<text text-anchor="middle" x="872" y="-394.6" font-family="Courier,monospace" font-weight="bold" font-size="9.00">hs_pep_shp_file</text>
<polyline fill="none" stroke="black" points="823.507,-387.9 920.493,-387.9 "/>
<text text-anchor="middle" x="872" y="-375.8" font-family="Courier,monospace" font-weight="bold" font-size="9.00"> </text>
</g>
<!-- hs_pep_shp_file&#45;&gt;load_and_create_howe_sound_wdpa_pep_files -->
<g id="edge3" class="edge"><title>hs_pep_shp_file&#45;&gt;load_and_create_howe_sound_wdpa_pep_files</title>
<path fill="none" stroke="black" d="M841.529,-369.092C825.302,-359.608 805.191,-347.855 787.957,-337.783"/>
<polygon fill="black" stroke="black" points="789.642,-334.714 779.243,-332.69 786.11,-340.758 789.642,-334.714"/>
</g>
<!-- hs_pep_shp_file&#45;&gt;rasterize_howe_sound_pep_shape_file -->
<g id="edge2" class="edge"><title>hs_pep_shp_file&#45;&gt;rasterize_howe_sound_pep_shape_file</title>
<path fill="none" stroke="black" d="M904.899,-369.054C918.058,-360.022 931.784,-347.737 939,-332.6 945.885,-318.157 946.155,-310.911 939,-296.6 913.295,-245.19 855.367,-211.746 810.371,-192.506"/>
<polygon fill="black" stroke="black" points="811.56,-189.21 800.982,-188.615 808.88,-195.677 811.56,-189.21"/>
</g>
<!-- hs_pep_rast_file_outflow -->
<g id="node18" class="node"><title>hs_pep_rast_file_outflow</title>
<ellipse fill="none" stroke="black" cx="750" cy="-31" rx="7" ry="7"/>
</g>
<!-- hs_pep_rast_file&#45;&gt;hs_pep_rast_file_outflow -->
<g id="edge19" class="edge"><title>hs_pep_rast_file&#45;&gt;hs_pep_rast_file_outflow</title>
<path fill="none" stroke="black" d="M750,-78.3889C750,-68.9828 750,-57.5389 750,-48.3712"/>
<polygon fill="black" stroke="black" points="753.5,-48.3008 750,-38.3008 746.5,-48.3008 753.5,-48.3008"/>
</g>
<!-- setup_R_inflow -->
<g id="node14" class="node"><title>setup_R_inflow</title>
<ellipse fill="none" stroke="black" cx="647" cy="-600.8" rx="7" ry="7"/>
</g>
<!-- setup_R_inflow&#45;&gt;setup_R -->
<g id="edge15" class="edge"><title>setup_R_inflow&#45;&gt;setup_R</title>
<path fill="none" stroke="black" d="M640.985,-596.87C625.399,-589.278 582.731,-568.493 551.351,-553.207"/>
<polygon fill="black" stroke="black" points="552.54,-549.893 542.017,-548.661 549.474,-556.186 552.54,-549.893"/>
</g>
<!-- ohibc_rgn_raster_500m_inflow -->
<g id="node15" class="node"><title>ohibc_rgn_raster_500m_inflow</title>
<ellipse fill="none" stroke="black" cx="679" cy="-600.8" rx="7" ry="7"/>
</g>
<!-- ohibc_rgn_raster_500m_inflow&#45;&gt;ohibc_rgn_raster_500m -->
<g id="edge16" class="edge"><title>ohibc_rgn_raster_500m_inflow&#45;&gt;ohibc_rgn_raster_500m</title>
<path fill="none" stroke="black" d="M676.825,-594.112C668.668,-573.104 638.483,-498.255 602,-443.2 595.462,-433.333 587.309,-423.316 579.638,-414.618"/>
<polygon fill="black" stroke="black" points="582.092,-412.114 572.79,-407.043 576.9,-416.808 582.092,-412.114"/>
</g>
<!-- hs_wdpa_shp_file_inflow -->
<g id="node16" class="node"><title>hs_wdpa_shp_file_inflow</title>
<ellipse fill="none" stroke="black" cx="711" cy="-600.8" rx="7" ry="7"/>
</g>
<!-- hs_wdpa_shp_file_inflow&#45;&gt;hs_wdpa_shp_file -->
<g id="edge17" class="edge"><title>hs_wdpa_shp_file_inflow&#45;&gt;hs_wdpa_shp_file</title>
<path fill="none" stroke="black" d="M712.241,-593.716C717.5,-567.918 738.154,-466.617 748.306,-416.828"/>
<polygon fill="black" stroke="black" points="751.792,-417.248 750.36,-406.75 744.933,-415.85 751.792,-417.248"/>
</g>
<!-- hs_pep_shp_file_inflow -->
<g id="node17" class="node"><title>hs_pep_shp_file_inflow</title>
<ellipse fill="none" stroke="black" cx="743" cy="-600.8" rx="7" ry="7"/>
</g>
<!-- hs_pep_shp_file_inflow&#45;&gt;hs_pep_shp_file -->
<g id="edge18" class="edge"><title>hs_pep_shp_file_inflow&#45;&gt;hs_pep_shp_file</title>
<path fill="none" stroke="black" d="M746.45,-594.159C761.916,-568.875 825.414,-465.062 855.736,-415.489"/>
<polygon fill="black" stroke="black" points="858.761,-417.252 860.993,-406.895 852.789,-413.6 858.761,-417.252"/>
</g>
</g>
</svg>
