<?xml version="1.0" encoding="UTF-8" standalone="no"?>
<!DOCTYPE svg PUBLIC "-//W3C//DTD SVG 1.1//EN"
 "http://www.w3.org/Graphics/SVG/1.1/DTD/svg11.dtd">
<!-- Generated by graphviz version 2.38.0 (20140413.2041)
 -->
<!-- Title: yw_data_view Pages: 1 -->
<svg width="982pt" height="662pt"
 viewBox="0.00 0.00 982.00 661.60" xmlns="http://www.w3.org/2000/svg" xmlns:xlink="http://www.w3.org/1999/xlink">
<g id="graph0" class="graph" transform="scale(1 1) rotate(0) translate(4 657.6)">
<title>yw_data_view</title>
<polygon fill="white" stroke="none" points="-4,4 -4,-657.6 978,-657.6 978,4 -4,4"/>
<text text-anchor="middle" x="487" y="-633.4" font-family="Courier,monospace" font-size="18.00">Rasterize_HS_WDPA_and_PEP</text>
<g id="clust1" class="cluster"><title>cluster_workflow</title>
<polygon fill="none" stroke="black" stroke-width="2" points="8,-62 8,-562 966,-562 966,-62 8,-62"/>
</g>
<g id="clust2" class="cluster"><title>cluster_workflow_inner</title>
<polygon fill="none" stroke="white" stroke-width="2" points="16,-70 16,-554 958,-554 958,-70 16,-70"/>
</g>
<g id="clust3" class="cluster"><title>cluster_inflows</title>
<polygon fill="none" stroke="white" stroke-width="2" points="635,-570 635,-616 777,-616 777,-570 635,-570"/>
</g>
<g id="clust4" class="cluster"><title>cluster_inflows_inner</title>
<polygon fill="none" stroke="white" stroke-width="2" points="643,-578 643,-608 769,-608 769,-578 643,-578"/>
</g>
<g id="clust5" class="cluster"><title>cluster_outflows</title>
<polygon fill="none" stroke="white" stroke-width="2" points="727,-8 727,-54 773,-54 773,-8 727,-8"/>
</g>
<g id="clust6" class="cluster"><title>cluster_outflows_inner</title>
<polygon fill="none" stroke="white" stroke-width="2" points="735,-16 735,-46 765,-46 765,-16 735,-16"/>
</g>
<!-- load_and_create_howe_sound_wdpa_pep_files -->
<g id="node1" class="node"><title>load_and_create_howe_sound_wdpa_pep_files</title>
<polygon fill="#ccffcc" stroke="black" points="930.343,-330 569.657,-330 569.657,-294 930.343,-294 930.343,-330"/>
<text text-anchor="middle" x="750" y="-307.8" font-family="Courier,monospace" font-size="14.00">load_and_create_howe_sound_wdpa_pep_files</text>
</g>
<!-- hs_pep_rast_file_handle -->
<g id="node12" class="node"><title>hs_pep_rast_file_handle</title>
<path fill="#ffffcc" stroke="black" d="M822.001,-258C822.001,-258 677.999,-258 677.999,-258 671.999,-258 665.999,-252 665.999,-246 665.999,-246 665.999,-234 665.999,-234 665.999,-228 671.999,-222 677.999,-222 677.999,-222 822.001,-222 822.001,-222 828.001,-222 834.001,-228 834.001,-234 834.001,-234 834.001,-246 834.001,-246 834.001,-252 828.001,-258 822.001,-258"/>
<text text-anchor="middle" x="750" y="-235.8" font-family="Helvetica,sans-Serif" font-size="14.00">hs_pep_rast_file_handle</text>
</g>
<!-- load_and_create_howe_sound_wdpa_pep_files&#45;&gt;hs_pep_rast_file_handle -->
<g id="edge13" class="edge"><title>load_and_create_howe_sound_wdpa_pep_files&#45;&gt;hs_pep_rast_file_handle</title>
<path fill="none" stroke="black" d="M750,-293.697C750,-285.983 750,-276.712 750,-268.112"/>
<polygon fill="black" stroke="black" points="753.5,-268.104 750,-258.104 746.5,-268.104 753.5,-268.104"/>
</g>
<!-- rasterize_ohibc_rgn_raster_500m_shape_file_at_500m_resolution -->
<g id="node2" class="node"><title>rasterize_ohibc_rgn_raster_500m_shape_file_at_500m_resolution</title>
<polygon fill="#ccffcc" stroke="black" points="552.315,-330 23.6853,-330 23.6853,-294 552.315,-294 552.315,-330"/>
<text text-anchor="middle" x="288" y="-307.8" font-family="Courier,monospace" font-size="14.00">rasterize_ohibc_rgn_raster_500m_shape_file_at_500m_resolution</text>
</g>
<!-- extent_of_howe_sound -->
<g id="node9" class="node"><title>extent_of_howe_sound</title>
<path fill="#ffffcc" stroke="black" d="M495.235,-258C495.235,-258 358.765,-258 358.765,-258 352.765,-258 346.765,-252 346.765,-246 346.765,-246 346.765,-234 346.765,-234 346.765,-228 352.765,-222 358.765,-222 358.765,-222 495.235,-222 495.235,-222 501.235,-222 507.235,-228 507.235,-234 507.235,-234 507.235,-246 507.235,-246 507.235,-252 501.235,-258 495.235,-258"/>
<text text-anchor="middle" x="427" y="-235.8" font-family="Helvetica,sans-Serif" font-size="14.00">extent_of_howe_sound</text>
</g>
<!-- rasterize_ohibc_rgn_raster_500m_shape_file_at_500m_resolution&#45;&gt;extent_of_howe_sound -->
<g id="edge12" class="edge"><title>rasterize_ohibc_rgn_raster_500m_shape_file_at_500m_resolution&#45;&gt;extent_of_howe_sound</title>
<path fill="none" stroke="black" d="M322.003,-293.876C340.598,-284.512 363.827,-272.814 383.706,-262.803"/>
<polygon fill="black" stroke="black" points="385.509,-265.814 392.866,-258.19 382.36,-259.562 385.509,-265.814"/>
</g>
<!-- set_up_configuration_and_start_provenance_tracking -->
<g id="node3" class="node"><title>set_up_configuration_and_start_provenance_tracking</title>
<polygon fill="#ccffcc" stroke="black" points="651.93,-474 216.07,-474 216.07,-438 651.93,-438 651.93,-474"/>
<text text-anchor="middle" x="434" y="-451.8" font-family="Courier,monospace" font-size="14.00">set_up_configuration_and_start_provenance_tracking</text>
</g>
<!-- dir_spatial -->
<g id="node6" class="node"><title>dir_spatial</title>
<path fill="#ffffcc" stroke="black" d="M333.784,-402C333.784,-402 278.216,-402 278.216,-402 272.216,-402 266.216,-396 266.216,-390 266.216,-390 266.216,-378 266.216,-378 266.216,-372 272.216,-366 278.216,-366 278.216,-366 333.784,-366 333.784,-366 339.784,-366 345.784,-372 345.784,-378 345.784,-378 345.784,-390 345.784,-390 345.784,-396 339.784,-402 333.784,-402"/>
<text text-anchor="middle" x="306" y="-379.8" font-family="Helvetica,sans-Serif" font-size="14.00">dir_spatial</text>
</g>
<!-- set_up_configuration_and_start_provenance_tracking&#45;&gt;dir_spatial -->
<g id="edge10" class="edge"><title>set_up_configuration_and_start_provenance_tracking&#45;&gt;dir_spatial</title>
<path fill="none" stroke="black" d="M402.688,-437.876C385.797,-428.639 364.753,-417.131 346.615,-407.212"/>
<polygon fill="black" stroke="black" points="347.886,-403.917 337.433,-402.19 344.527,-410.059 347.886,-403.917"/>
</g>
<!-- dir_goal -->
<g id="node7" class="node"><title>dir_goal</title>
<path fill="#ffffcc" stroke="black" d="M454.787,-402C454.787,-402 413.213,-402 413.213,-402 407.213,-402 401.213,-396 401.213,-390 401.213,-390 401.213,-378 401.213,-378 401.213,-372 407.213,-366 413.213,-366 413.213,-366 454.787,-366 454.787,-366 460.787,-366 466.787,-372 466.787,-378 466.787,-378 466.787,-390 466.787,-390 466.787,-396 460.787,-402 454.787,-402"/>
<text text-anchor="middle" x="434" y="-379.8" font-family="Helvetica,sans-Serif" font-size="14.00">dir_goal</text>
</g>
<!-- set_up_configuration_and_start_provenance_tracking&#45;&gt;dir_goal -->
<g id="edge11" class="edge"><title>set_up_configuration_and_start_provenance_tracking&#45;&gt;dir_goal</title>
<path fill="none" stroke="black" d="M434,-437.697C434,-429.983 434,-420.712 434,-412.112"/>
<polygon fill="black" stroke="black" points="437.5,-412.104 434,-402.104 430.5,-412.104 437.5,-412.104"/>
</g>
<!-- rasterize_howe_sound_pep_shape_file -->
<g id="node4" class="node"><title>rasterize_howe_sound_pep_shape_file</title>
<polygon fill="#ccffcc" stroke="black" points="904.951,-186 595.049,-186 595.049,-150 904.951,-150 904.951,-186"/>
<text text-anchor="middle" x="750" y="-163.8" font-family="Courier,monospace" font-size="14.00">rasterize_howe_sound_pep_shape_file</text>
</g>
<!-- hs_pep_rast_file -->
<g id="node13" class="node"><title>hs_pep_rast_file</title>
<path fill="#ffffcc" stroke="black" d="M797.199,-114C797.199,-114 702.801,-114 702.801,-114 696.801,-114 690.801,-108 690.801,-102 690.801,-102 690.801,-90 690.801,-90 690.801,-84 696.801,-78 702.801,-78 702.801,-78 797.199,-78 797.199,-78 803.199,-78 809.199,-84 809.199,-90 809.199,-90 809.199,-102 809.199,-102 809.199,-108 803.199,-114 797.199,-114"/>
<text text-anchor="middle" x="750" y="-91.8" font-family="Helvetica,sans-Serif" font-size="14.00">hs_pep_rast_file</text>
</g>
<!-- rasterize_howe_sound_pep_shape_file&#45;&gt;hs_pep_rast_file -->
<g id="edge14" class="edge"><title>rasterize_howe_sound_pep_shape_file&#45;&gt;hs_pep_rast_file</title>
<path fill="none" stroke="black" d="M750,-149.697C750,-141.983 750,-132.712 750,-124.112"/>
<polygon fill="black" stroke="black" points="753.5,-124.104 750,-114.104 746.5,-124.104 753.5,-124.104"/>
</g>
<!-- setup_R -->
<g id="node5" class="node"><title>setup_R</title>
<path fill="#ffffcc" stroke="black" d="M554.128,-546C554.128,-546 509.872,-546 509.872,-546 503.872,-546 497.872,-540 497.872,-534 497.872,-534 497.872,-522 497.872,-522 497.872,-516 503.872,-510 509.872,-510 509.872,-510 554.128,-510 554.128,-510 560.128,-510 566.128,-516 566.128,-522 566.128,-522 566.128,-534 566.128,-534 566.128,-540 560.128,-546 554.128,-546"/>
<text text-anchor="middle" x="532" y="-523.8" font-family="Helvetica,sans-Serif" font-size="14.00">setup_R</text>
</g>
<!-- setup_R&#45;&gt;set_up_configuration_and_start_provenance_tracking -->
<g id="edge9" class="edge"><title>setup_R&#45;&gt;set_up_configuration_and_start_provenance_tracking</title>
<path fill="none" stroke="black" d="M508.027,-509.876C495.45,-500.893 479.868,-489.763 466.248,-480.034"/>
<polygon fill="black" stroke="black" points="468.237,-477.154 458.066,-474.19 464.169,-482.85 468.237,-477.154"/>
</g>
<!-- dir_spatial&#45;&gt;rasterize_ohibc_rgn_raster_500m_shape_file_at_500m_resolution -->
<g id="edge8" class="edge"><title>dir_spatial&#45;&gt;rasterize_ohibc_rgn_raster_500m_shape_file_at_500m_resolution</title>
<path fill="none" stroke="black" d="M301.551,-365.697C299.545,-357.898 297.131,-348.509 294.899,-339.829"/>
<polygon fill="black" stroke="black" points="298.278,-338.918 292.398,-330.104 291.499,-340.661 298.278,-338.918"/>
</g>
<!-- dir_goal&#45;&gt;load_and_create_howe_sound_wdpa_pep_files -->
<g id="edge7" class="edge"><title>dir_goal&#45;&gt;load_and_create_howe_sound_wdpa_pep_files</title>
<path fill="none" stroke="black" d="M466.801,-369.023C469.883,-367.922 472.983,-366.893 476,-366 524.144,-351.747 578.209,-340.348 625.512,-331.829"/>
<polygon fill="black" stroke="black" points="626.266,-335.25 635.499,-330.054 625.041,-328.358 626.266,-335.25"/>
</g>
<!-- ohibc_rgn_raster_500m -->
<g id="node8" class="node"><title>ohibc_rgn_raster_500m</title>
<path fill="#ffffcc" stroke="black" d="M636.814,-402C636.814,-402 497.186,-402 497.186,-402 491.186,-402 485.186,-396 485.186,-390 485.186,-390 485.186,-378 485.186,-378 485.186,-372 491.186,-366 497.186,-366 497.186,-366 636.814,-366 636.814,-366 642.814,-366 648.814,-372 648.814,-378 648.814,-378 648.814,-390 648.814,-390 648.814,-396 642.814,-402 636.814,-402"/>
<text text-anchor="middle" x="567" y="-379.8" font-family="Helvetica,sans-Serif" font-size="14.00">ohibc_rgn_raster_500m</text>
</g>
<!-- ohibc_rgn_raster_500m&#45;&gt;rasterize_ohibc_rgn_raster_500m_shape_file_at_500m_resolution -->
<g id="edge6" class="edge"><title>ohibc_rgn_raster_500m&#45;&gt;rasterize_ohibc_rgn_raster_500m_shape_file_at_500m_resolution</title>
<path fill="none" stroke="black" d="M499.106,-365.966C458.937,-355.887 407.9,-343.082 366.071,-332.588"/>
<polygon fill="black" stroke="black" points="366.75,-329.15 356.199,-330.111 365.046,-335.939 366.75,-329.15"/>
</g>
<!-- extent_of_howe_sound&#45;&gt;rasterize_howe_sound_pep_shape_file -->
<g id="edge5" class="edge"><title>extent_of_howe_sound&#45;&gt;rasterize_howe_sound_pep_shape_file</title>
<path fill="none" stroke="black" d="M505.602,-221.966C552.683,-211.762 612.661,-198.764 661.417,-188.198"/>
<polygon fill="black" stroke="black" points="662.294,-191.589 671.326,-186.05 660.812,-184.748 662.294,-191.589"/>
</g>
<!-- hs_wdpa_shp_file -->
<g id="node10" class="node"><title>hs_wdpa_shp_file</title>
<path fill="#ffffcc" stroke="black" d="M783.036,-402C783.036,-402 678.964,-402 678.964,-402 672.964,-402 666.964,-396 666.964,-390 666.964,-390 666.964,-378 666.964,-378 666.964,-372 672.964,-366 678.964,-366 678.964,-366 783.036,-366 783.036,-366 789.036,-366 795.036,-372 795.036,-378 795.036,-378 795.036,-390 795.036,-390 795.036,-396 789.036,-402 783.036,-402"/>
<text text-anchor="middle" x="731" y="-379.8" font-family="Helvetica,sans-Serif" font-size="14.00">hs_wdpa_shp_file</text>
</g>
<!-- hs_wdpa_shp_file&#45;&gt;load_and_create_howe_sound_wdpa_pep_files -->
<g id="edge4" class="edge"><title>hs_wdpa_shp_file&#45;&gt;load_and_create_howe_sound_wdpa_pep_files</title>
<path fill="none" stroke="black" d="M735.697,-365.697C737.813,-357.898 740.362,-348.509 742.718,-339.829"/>
<polygon fill="black" stroke="black" points="746.116,-340.672 745.357,-330.104 739.36,-338.838 746.116,-340.672"/>
</g>
<!-- hs_pep_shp_file -->
<g id="node11" class="node"><title>hs_pep_shp_file</title>
<path fill="#ffffcc" stroke="black" d="M918.93,-402C918.93,-402 825.07,-402 825.07,-402 819.07,-402 813.07,-396 813.07,-390 813.07,-390 813.07,-378 813.07,-378 813.07,-372 819.07,-366 825.07,-366 825.07,-366 918.93,-366 918.93,-366 924.93,-366 930.93,-372 930.93,-378 930.93,-378 930.93,-390 930.93,-390 930.93,-396 924.93,-402 918.93,-402"/>
<text text-anchor="middle" x="872" y="-379.8" font-family="Helvetica,sans-Serif" font-size="14.00">hs_pep_shp_file</text>
</g>
<!-- hs_pep_shp_file&#45;&gt;load_and_create_howe_sound_wdpa_pep_files -->
<g id="edge3" class="edge"><title>hs_pep_shp_file&#45;&gt;load_and_create_howe_sound_wdpa_pep_files</title>
<path fill="none" stroke="black" d="M842.155,-365.876C826.056,-356.639 805.999,-345.131 788.712,-335.212"/>
<polygon fill="black" stroke="black" points="790.375,-332.131 779.959,-330.19 786.891,-338.202 790.375,-332.131"/>
</g>
<!-- hs_pep_shp_file&#45;&gt;rasterize_howe_sound_pep_shape_file -->
<g id="edge2" class="edge"><title>hs_pep_shp_file&#45;&gt;rasterize_howe_sound_pep_shape_file</title>
<path fill="none" stroke="black" d="M904.527,-365.984C917.789,-357.18 931.699,-345.085 939,-330 945.971,-315.598 946.155,-308.311 939,-294 913.295,-242.59 855.367,-209.146 810.371,-189.906"/>
<polygon fill="black" stroke="black" points="811.56,-186.61 800.982,-186.015 808.88,-193.077 811.56,-186.61"/>
</g>
<!-- hs_pep_rast_file_handle&#45;&gt;rasterize_howe_sound_pep_shape_file -->
<g id="edge1" class="edge"><title>hs_pep_rast_file_handle&#45;&gt;rasterize_howe_sound_pep_shape_file</title>
<path fill="none" stroke="black" d="M750,-221.697C750,-213.983 750,-204.712 750,-196.112"/>
<polygon fill="black" stroke="black" points="753.5,-196.104 750,-186.104 746.5,-196.104 753.5,-196.104"/>
</g>
<!-- hs_pep_rast_file_outflow -->
<g id="node18" class="node"><title>hs_pep_rast_file_outflow</title>
<ellipse fill="none" stroke="black" cx="750" cy="-31" rx="7" ry="7"/>
</g>
<!-- hs_pep_rast_file&#45;&gt;hs_pep_rast_file_outflow -->
<g id="edge19" class="edge"><title>hs_pep_rast_file&#45;&gt;hs_pep_rast_file_outflow</title>
<path fill="none" stroke="black" d="M750,-77.785C750,-68.6656 750,-57.5197 750,-48.5085"/>
<polygon fill="black" stroke="black" points="753.5,-48.242 750,-38.242 746.5,-48.2421 753.5,-48.242"/>
</g>
<!-- setup_R_inflow -->
<g id="node14" class="node"><title>setup_R_inflow</title>
<ellipse fill="none" stroke="black" cx="658" cy="-593" rx="7" ry="7"/>
</g>
<!-- setup_R_inflow&#45;&gt;setup_R -->
<g id="edge15" class="edge"><title>setup_R_inflow&#45;&gt;setup_R</title>
<path fill="none" stroke="black" d="M651.923,-588.961C638.172,-582.086 603.651,-564.825 575.159,-550.58"/>
<polygon fill="black" stroke="black" points="576.664,-547.419 566.155,-546.077 573.534,-553.68 576.664,-547.419"/>
</g>
<!-- ohibc_rgn_raster_500m_inflow -->
<g id="node15" class="node"><title>ohibc_rgn_raster_500m_inflow</title>
<ellipse fill="none" stroke="black" cx="690" cy="-593" rx="7" ry="7"/>
</g>
<!-- ohibc_rgn_raster_500m_inflow&#45;&gt;ohibc_rgn_raster_500m -->
<g id="edge16" class="edge"><title>ohibc_rgn_raster_500m_inflow&#45;&gt;ohibc_rgn_raster_500m</title>
<path fill="none" stroke="black" d="M690.556,-586.014C692.285,-563.987 695.546,-486.21 661,-438 651.69,-425.008 638.146,-414.789 624.224,-406.938"/>
<polygon fill="black" stroke="black" points="625.54,-403.676 615.061,-402.116 622.28,-409.87 625.54,-403.676"/>
</g>
<!-- hs_wdpa_shp_file_inflow -->
<g id="node16" class="node"><title>hs_wdpa_shp_file_inflow</title>
<ellipse fill="none" stroke="black" cx="722" cy="-593" rx="7" ry="7"/>
</g>
<!-- hs_wdpa_shp_file_inflow&#45;&gt;hs_wdpa_shp_file -->
<g id="edge17" class="edge"><title>hs_wdpa_shp_file_inflow&#45;&gt;hs_wdpa_shp_file</title>
<path fill="none" stroke="black" d="M722.279,-585.578C723.413,-559.503 727.712,-460.635 729.82,-412.146"/>
<polygon fill="black" stroke="black" points="733.32,-412.205 730.258,-402.062 726.327,-411.901 733.32,-412.205"/>
</g>
<!-- hs_pep_shp_file_inflow -->
<g id="node17" class="node"><title>hs_pep_shp_file_inflow</title>
<ellipse fill="none" stroke="black" cx="754" cy="-593" rx="7" ry="7"/>
</g>
<!-- hs_pep_shp_file_inflow&#45;&gt;hs_pep_shp_file -->
<g id="edge18" class="edge"><title>hs_pep_shp_file_inflow&#45;&gt;hs_pep_shp_file</title>
<path fill="none" stroke="black" d="M757.156,-586.463C771.313,-561.629 829.469,-459.61 857.182,-410.994"/>
<polygon fill="black" stroke="black" points="860.385,-412.443 862.297,-402.022 854.304,-408.976 860.385,-412.443"/>
</g>
</g>
</svg>
