<?xml version="1.0" encoding="UTF-8" standalone="no"?>
<!DOCTYPE svg PUBLIC "-//W3C//DTD SVG 1.1//EN"
 "http://www.w3.org/Graphics/SVG/1.1/DTD/svg11.dtd">
<!-- Generated by graphviz version 2.38.0 (20140413.2041)
 -->
<!-- Title: yw_data_view Pages: 1 -->
<svg width="982pt" height="662pt"
 viewBox="0.00 0.00 982.00 661.60" xmlns="http://www.w3.org/2000/svg" xmlns:xlink="http://www.w3.org/1999/xlink">
<g id="graph0" class="graph" transform="scale(1 1) rotate(0) translate(4 657.6)">
<title>yw_data_view</title>
<polygon fill="white" stroke="none" points="-4,4 -4,-657.6 978,-657.6 978,4 -4,4"/>
<text text-anchor="middle" x="487" y="-633.4" font-family="Courier,monospace" font-size="18.00">Rasterize_HS_WDPA_and_PEP</text>
<g id="clust1" class="cluster"><title>cluster_workflow</title>
<polygon fill="none" stroke="black" stroke-width="2" points="8,-62 8,-562 966,-562 966,-62 8,-62"/>
</g>
<g id="clust2" class="cluster"><title>cluster_workflow_inner</title>
<polygon fill="none" stroke="white" stroke-width="2" points="16,-70 16,-554 958,-554 958,-70 16,-70"/>
</g>
<g id="clust3" class="cluster"><title>cluster_inflows</title>
<polygon fill="none" stroke="white" stroke-width="2" points="650,-570 650,-616 792,-616 792,-570 650,-570"/>
</g>
<g id="clust4" class="cluster"><title>cluster_inflows_inner</title>
<polygon fill="none" stroke="white" stroke-width="2" points="658,-578 658,-608 784,-608 784,-578 658,-578"/>
</g>
<g id="clust5" class="cluster"><title>cluster_outflows</title>
<polygon fill="none" stroke="white" stroke-width="2" points="727,-8 727,-54 773,-54 773,-8 727,-8"/>
</g>
<g id="clust6" class="cluster"><title>cluster_outflows_inner</title>
<polygon fill="none" stroke="white" stroke-width="2" points="735,-16 735,-46 765,-46 765,-16 735,-16"/>
</g>
<!-- load_and_create_howe_sound_wdpa_pep_files -->
<g id="node1" class="node"><title>load_and_create_howe_sound_wdpa_pep_files</title>
<polygon fill="#ccffcc" stroke="black" points="930.343,-330 569.657,-330 569.657,-294 930.343,-294 930.343,-330"/>
<text text-anchor="middle" x="750" y="-307.8" font-family="Courier,monospace" font-size="14.00">load_and_create_howe_sound_wdpa_pep_files</text>
</g>
<!-- hs_wdpa_rast_file_handle -->
<g id="node12" class="node"><title>hs_wdpa_rast_file_handle</title>
<path fill="#ffffcc" stroke="black" d="M827.108,-258C827.108,-258 672.892,-258 672.892,-258 666.892,-258 660.892,-252 660.892,-246 660.892,-246 660.892,-234 660.892,-234 660.892,-228 666.892,-222 672.892,-222 672.892,-222 827.108,-222 827.108,-222 833.108,-222 839.108,-228 839.108,-234 839.108,-234 839.108,-246 839.108,-246 839.108,-252 833.108,-258 827.108,-258"/>
<text text-anchor="middle" x="750" y="-235.8" font-family="Helvetica,sans-Serif" font-size="14.00">hs_wdpa_rast_file_handle</text>
</g>
<!-- load_and_create_howe_sound_wdpa_pep_files&#45;&gt;hs_wdpa_rast_file_handle -->
<g id="edge13" class="edge"><title>load_and_create_howe_sound_wdpa_pep_files&#45;&gt;hs_wdpa_rast_file_handle</title>
<path fill="none" stroke="black" d="M750,-293.697C750,-285.983 750,-276.712 750,-268.112"/>
<polygon fill="black" stroke="black" points="753.5,-268.104 750,-258.104 746.5,-268.104 753.5,-268.104"/>
</g>
<!-- rasterize_ohibc_rgn_raster_500m_shape_file_at_500m_resolution -->
<g id="node2" class="node"><title>rasterize_ohibc_rgn_raster_500m_shape_file_at_500m_resolution</title>
<polygon fill="#ccffcc" stroke="black" points="552.315,-330 23.6853,-330 23.6853,-294 552.315,-294 552.315,-330"/>
<text text-anchor="middle" x="288" y="-307.8" font-family="Courier,monospace" font-size="14.00">rasterize_ohibc_rgn_raster_500m_shape_file_at_500m_resolution</text>
</g>
<!-- extent_of_howe_sound -->
<g id="node9" class="node"><title>extent_of_howe_sound</title>
<path fill="#ffffcc" stroke="black" d="M493.235,-258C493.235,-258 356.765,-258 356.765,-258 350.765,-258 344.765,-252 344.765,-246 344.765,-246 344.765,-234 344.765,-234 344.765,-228 350.765,-222 356.765,-222 356.765,-222 493.235,-222 493.235,-222 499.235,-222 505.235,-228 505.235,-234 505.235,-234 505.235,-246 505.235,-246 505.235,-252 499.235,-258 493.235,-258"/>
<text text-anchor="middle" x="425" y="-235.8" font-family="Helvetica,sans-Serif" font-size="14.00">extent_of_howe_sound</text>
</g>
<!-- rasterize_ohibc_rgn_raster_500m_shape_file_at_500m_resolution&#45;&gt;extent_of_howe_sound -->
<g id="edge12" class="edge"><title>rasterize_ohibc_rgn_raster_500m_shape_file_at_500m_resolution&#45;&gt;extent_of_howe_sound</title>
<path fill="none" stroke="black" d="M321.514,-293.876C339.841,-284.512 362.736,-272.814 382.328,-262.803"/>
<polygon fill="black" stroke="black" points="384.045,-265.857 391.357,-258.19 380.86,-259.623 384.045,-265.857"/>
</g>
<!-- set_up_configuration_and_start_provenance_tracking -->
<g id="node3" class="node"><title>set_up_configuration_and_start_provenance_tracking</title>
<polygon fill="#ccffcc" stroke="black" points="673.93,-474 238.07,-474 238.07,-438 673.93,-438 673.93,-474"/>
<text text-anchor="middle" x="456" y="-451.8" font-family="Courier,monospace" font-size="14.00">set_up_configuration_and_start_provenance_tracking</text>
</g>
<!-- dir_spatial -->
<g id="node6" class="node"><title>dir_spatial</title>
<path fill="#ffffcc" stroke="black" d="M320.784,-402C320.784,-402 265.216,-402 265.216,-402 259.216,-402 253.216,-396 253.216,-390 253.216,-390 253.216,-378 253.216,-378 253.216,-372 259.216,-366 265.216,-366 265.216,-366 320.784,-366 320.784,-366 326.784,-366 332.784,-372 332.784,-378 332.784,-378 332.784,-390 332.784,-390 332.784,-396 326.784,-402 320.784,-402"/>
<text text-anchor="middle" x="293" y="-379.8" font-family="Helvetica,sans-Serif" font-size="14.00">dir_spatial</text>
</g>
<!-- set_up_configuration_and_start_provenance_tracking&#45;&gt;dir_spatial -->
<g id="edge10" class="edge"><title>set_up_configuration_and_start_provenance_tracking&#45;&gt;dir_spatial</title>
<path fill="none" stroke="black" d="M416.126,-437.876C393.843,-428.307 365.885,-416.3 342.244,-406.148"/>
<polygon fill="black" stroke="black" points="343.314,-402.798 332.745,-402.068 340.552,-409.23 343.314,-402.798"/>
</g>
<!-- dir_goal -->
<g id="node7" class="node"><title>dir_goal</title>
<path fill="#ffffcc" stroke="black" d="M641.787,-402C641.787,-402 600.213,-402 600.213,-402 594.213,-402 588.213,-396 588.213,-390 588.213,-390 588.213,-378 588.213,-378 588.213,-372 594.213,-366 600.213,-366 600.213,-366 641.787,-366 641.787,-366 647.787,-366 653.787,-372 653.787,-378 653.787,-378 653.787,-390 653.787,-390 653.787,-396 647.787,-402 641.787,-402"/>
<text text-anchor="middle" x="621" y="-379.8" font-family="Helvetica,sans-Serif" font-size="14.00">dir_goal</text>
</g>
<!-- set_up_configuration_and_start_provenance_tracking&#45;&gt;dir_goal -->
<g id="edge11" class="edge"><title>set_up_configuration_and_start_provenance_tracking&#45;&gt;dir_goal</title>
<path fill="none" stroke="black" d="M496.364,-437.876C521.32,-427.288 553.309,-413.718 578.63,-402.975"/>
<polygon fill="black" stroke="black" points="580.14,-406.136 587.979,-399.009 577.407,-399.692 580.14,-406.136"/>
</g>
<!-- rasterize_howe_sound_wdpa_shape_file -->
<g id="node4" class="node"><title>rasterize_howe_sound_wdpa_shape_file</title>
<polygon fill="#ccffcc" stroke="black" points="909.35,-186 590.65,-186 590.65,-150 909.35,-150 909.35,-186"/>
<text text-anchor="middle" x="750" y="-163.8" font-family="Courier,monospace" font-size="14.00">rasterize_howe_sound_wdpa_shape_file</text>
</g>
<!-- hs_wdpa_rast_file -->
<g id="node13" class="node"><title>hs_wdpa_rast_file</title>
<path fill="#ffffcc" stroke="black" d="M802.305,-114C802.305,-114 697.695,-114 697.695,-114 691.695,-114 685.695,-108 685.695,-102 685.695,-102 685.695,-90 685.695,-90 685.695,-84 691.695,-78 697.695,-78 697.695,-78 802.305,-78 802.305,-78 808.305,-78 814.305,-84 814.305,-90 814.305,-90 814.305,-102 814.305,-102 814.305,-108 808.305,-114 802.305,-114"/>
<text text-anchor="middle" x="750" y="-91.8" font-family="Helvetica,sans-Serif" font-size="14.00">hs_wdpa_rast_file</text>
</g>
<!-- rasterize_howe_sound_wdpa_shape_file&#45;&gt;hs_wdpa_rast_file -->
<g id="edge14" class="edge"><title>rasterize_howe_sound_wdpa_shape_file&#45;&gt;hs_wdpa_rast_file</title>
<path fill="none" stroke="black" d="M750,-149.697C750,-141.983 750,-132.712 750,-124.112"/>
<polygon fill="black" stroke="black" points="753.5,-124.104 750,-114.104 746.5,-124.104 753.5,-124.104"/>
</g>
<!-- setup_R -->
<g id="node5" class="node"><title>setup_R</title>
<path fill="#ffffcc" stroke="black" d="M570.128,-546C570.128,-546 525.872,-546 525.872,-546 519.872,-546 513.872,-540 513.872,-534 513.872,-534 513.872,-522 513.872,-522 513.872,-516 519.872,-510 525.872,-510 525.872,-510 570.128,-510 570.128,-510 576.128,-510 582.128,-516 582.128,-522 582.128,-522 582.128,-534 582.128,-534 582.128,-540 576.128,-546 570.128,-546"/>
<text text-anchor="middle" x="548" y="-523.8" font-family="Helvetica,sans-Serif" font-size="14.00">setup_R</text>
</g>
<!-- setup_R&#45;&gt;set_up_configuration_and_start_provenance_tracking -->
<g id="edge9" class="edge"><title>setup_R&#45;&gt;set_up_configuration_and_start_provenance_tracking</title>
<path fill="none" stroke="black" d="M525.258,-509.697C513.56,-500.796 499.139,-489.823 486.49,-480.199"/>
<polygon fill="black" stroke="black" points="488.558,-477.374 478.48,-474.104 484.319,-482.945 488.558,-477.374"/>
</g>
<!-- dir_spatial&#45;&gt;rasterize_ohibc_rgn_raster_500m_shape_file_at_500m_resolution -->
<g id="edge8" class="edge"><title>dir_spatial&#45;&gt;rasterize_ohibc_rgn_raster_500m_shape_file_at_500m_resolution</title>
<path fill="none" stroke="black" d="M291.764,-365.697C291.213,-357.983 290.551,-348.712 289.937,-340.112"/>
<polygon fill="black" stroke="black" points="293.425,-339.83 289.222,-330.104 286.443,-340.328 293.425,-339.83"/>
</g>
<!-- dir_goal&#45;&gt;load_and_create_howe_sound_wdpa_pep_files -->
<g id="edge7" class="edge"><title>dir_goal&#45;&gt;load_and_create_howe_sound_wdpa_pep_files</title>
<path fill="none" stroke="black" d="M652.557,-365.876C669.658,-356.596 690.982,-345.025 709.319,-335.075"/>
<polygon fill="black" stroke="black" points="711.202,-338.035 718.322,-330.19 707.863,-331.883 711.202,-338.035"/>
</g>
<!-- ohibc_rgn_raster_500m -->
<g id="node8" class="node"><title>ohibc_rgn_raster_500m</title>
<path fill="#ffffcc" stroke="black" d="M539.814,-402C539.814,-402 400.186,-402 400.186,-402 394.186,-402 388.186,-396 388.186,-390 388.186,-390 388.186,-378 388.186,-378 388.186,-372 394.186,-366 400.186,-366 400.186,-366 539.814,-366 539.814,-366 545.814,-366 551.814,-372 551.814,-378 551.814,-378 551.814,-390 551.814,-390 551.814,-396 545.814,-402 539.814,-402"/>
<text text-anchor="middle" x="470" y="-379.8" font-family="Helvetica,sans-Serif" font-size="14.00">ohibc_rgn_raster_500m</text>
</g>
<!-- ohibc_rgn_raster_500m&#45;&gt;rasterize_ohibc_rgn_raster_500m_shape_file_at_500m_resolution -->
<g id="edge6" class="edge"><title>ohibc_rgn_raster_500m&#45;&gt;rasterize_ohibc_rgn_raster_500m_shape_file_at_500m_resolution</title>
<path fill="none" stroke="black" d="M425.478,-365.876C400.266,-356.179 368.547,-343.98 341.931,-333.743"/>
<polygon fill="black" stroke="black" points="342.968,-330.391 332.378,-330.068 340.455,-336.925 342.968,-330.391"/>
</g>
<!-- extent_of_howe_sound&#45;&gt;rasterize_howe_sound_wdpa_shape_file -->
<g id="edge5" class="edge"><title>extent_of_howe_sound&#45;&gt;rasterize_howe_sound_wdpa_shape_file</title>
<path fill="none" stroke="black" d="M504.088,-221.966C551.462,-211.762 611.811,-198.764 660.869,-188.198"/>
<polygon fill="black" stroke="black" points="661.8,-191.577 670.839,-186.05 660.326,-184.734 661.8,-191.577"/>
</g>
<!-- hs_wdpa_shp_file -->
<g id="node10" class="node"><title>hs_wdpa_shp_file</title>
<path fill="#ffffcc" stroke="black" d="M933.036,-402C933.036,-402 828.964,-402 828.964,-402 822.964,-402 816.964,-396 816.964,-390 816.964,-390 816.964,-378 816.964,-378 816.964,-372 822.964,-366 828.964,-366 828.964,-366 933.036,-366 933.036,-366 939.036,-366 945.036,-372 945.036,-378 945.036,-378 945.036,-390 945.036,-390 945.036,-396 939.036,-402 933.036,-402"/>
<text text-anchor="middle" x="881" y="-379.8" font-family="Helvetica,sans-Serif" font-size="14.00">hs_wdpa_shp_file</text>
</g>
<!-- hs_wdpa_shp_file&#45;&gt;load_and_create_howe_sound_wdpa_pep_files -->
<g id="edge4" class="edge"><title>hs_wdpa_shp_file&#45;&gt;load_and_create_howe_sound_wdpa_pep_files</title>
<path fill="none" stroke="black" d="M848.954,-365.876C831.508,-356.554 809.735,-344.919 791.057,-334.939"/>
<polygon fill="black" stroke="black" points="792.639,-331.816 782.169,-330.19 789.34,-337.99 792.639,-331.816"/>
</g>
<!-- hs_wdpa_shp_file&#45;&gt;rasterize_howe_sound_wdpa_shape_file -->
<g id="edge3" class="edge"><title>hs_wdpa_shp_file&#45;&gt;rasterize_howe_sound_wdpa_shape_file</title>
<path fill="none" stroke="black" d="M908.34,-365.775C920.11,-356.718 932.617,-344.478 939,-330 945.454,-315.359 945.97,-308.402 939,-294 914.042,-242.427 856.31,-209.078 811.173,-189.909"/>
<polygon fill="black" stroke="black" points="812.329,-186.599 801.749,-186.032 809.666,-193.073 812.329,-186.599"/>
</g>
<!-- hs_pep_shp_file -->
<g id="node11" class="node"><title>hs_pep_shp_file</title>
<path fill="#ffffcc" stroke="black" d="M786.93,-402C786.93,-402 693.07,-402 693.07,-402 687.07,-402 681.07,-396 681.07,-390 681.07,-390 681.07,-378 681.07,-378 681.07,-372 687.07,-366 693.07,-366 693.07,-366 786.93,-366 786.93,-366 792.93,-366 798.93,-372 798.93,-378 798.93,-378 798.93,-390 798.93,-390 798.93,-396 792.93,-402 786.93,-402"/>
<text text-anchor="middle" x="740" y="-379.8" font-family="Helvetica,sans-Serif" font-size="14.00">hs_pep_shp_file</text>
</g>
<!-- hs_pep_shp_file&#45;&gt;load_and_create_howe_sound_wdpa_pep_files -->
<g id="edge2" class="edge"><title>hs_pep_shp_file&#45;&gt;load_and_create_howe_sound_wdpa_pep_files</title>
<path fill="none" stroke="black" d="M742.472,-365.697C743.574,-357.983 744.898,-348.712 746.127,-340.112"/>
<polygon fill="black" stroke="black" points="749.607,-340.499 747.557,-330.104 742.677,-339.509 749.607,-340.499"/>
</g>
<!-- hs_wdpa_rast_file_handle&#45;&gt;rasterize_howe_sound_wdpa_shape_file -->
<g id="edge1" class="edge"><title>hs_wdpa_rast_file_handle&#45;&gt;rasterize_howe_sound_wdpa_shape_file</title>
<path fill="none" stroke="black" d="M750,-221.697C750,-213.983 750,-204.712 750,-196.112"/>
<polygon fill="black" stroke="black" points="753.5,-196.104 750,-186.104 746.5,-196.104 753.5,-196.104"/>
</g>
<!-- hs_wdpa_rast_file_outflow -->
<g id="node18" class="node"><title>hs_wdpa_rast_file_outflow</title>
<ellipse fill="none" stroke="black" cx="750" cy="-31" rx="7" ry="7"/>
</g>
<!-- hs_wdpa_rast_file&#45;&gt;hs_wdpa_rast_file_outflow -->
<g id="edge19" class="edge"><title>hs_wdpa_rast_file&#45;&gt;hs_wdpa_rast_file_outflow</title>
<path fill="none" stroke="black" d="M750,-77.785C750,-68.6656 750,-57.5197 750,-48.5085"/>
<polygon fill="black" stroke="black" points="753.5,-48.242 750,-38.242 746.5,-48.2421 753.5,-48.242"/>
</g>
<!-- setup_R_inflow -->
<g id="node14" class="node"><title>setup_R_inflow</title>
<ellipse fill="none" stroke="black" cx="673" cy="-593" rx="7" ry="7"/>
</g>
<!-- setup_R_inflow&#45;&gt;setup_R -->
<g id="edge15" class="edge"><title>setup_R_inflow&#45;&gt;setup_R</title>
<path fill="none" stroke="black" d="M666.971,-588.961C653.329,-582.086 619.082,-564.825 590.817,-550.58"/>
<polygon fill="black" stroke="black" points="592.389,-547.453 581.883,-546.077 589.238,-553.703 592.389,-547.453"/>
</g>
<!-- ohibc_rgn_raster_500m_inflow -->
<g id="node15" class="node"><title>ohibc_rgn_raster_500m_inflow</title>
<ellipse fill="none" stroke="black" cx="705" cy="-593" rx="7" ry="7"/>
</g>
<!-- ohibc_rgn_raster_500m_inflow&#45;&gt;ohibc_rgn_raster_500m -->
<g id="edge16" class="edge"><title>ohibc_rgn_raster_500m_inflow&#45;&gt;ohibc_rgn_raster_500m</title>
<path fill="none" stroke="black" d="M706.238,-586.03C710.558,-563.391 722.637,-481.9 683,-438 674.375,-428.448 615.539,-414.218 561.887,-402.908"/>
<polygon fill="black" stroke="black" points="562.446,-399.449 551.942,-400.831 561.016,-406.301 562.446,-399.449"/>
</g>
<!-- hs_wdpa_shp_file_inflow -->
<g id="node16" class="node"><title>hs_wdpa_shp_file_inflow</title>
<ellipse fill="none" stroke="black" cx="769" cy="-593" rx="7" ry="7"/>
</g>
<!-- hs_wdpa_shp_file_inflow&#45;&gt;hs_wdpa_shp_file -->
<g id="edge17" class="edge"><title>hs_wdpa_shp_file_inflow&#45;&gt;hs_wdpa_shp_file</title>
<path fill="none" stroke="black" d="M771.996,-586.463C785.432,-561.629 840.631,-459.61 866.935,-410.994"/>
<polygon fill="black" stroke="black" points="870.109,-412.483 871.79,-402.022 863.953,-409.152 870.109,-412.483"/>
</g>
<!-- hs_pep_shp_file_inflow -->
<g id="node17" class="node"><title>hs_pep_shp_file_inflow</title>
<ellipse fill="none" stroke="black" cx="737" cy="-593" rx="7" ry="7"/>
</g>
<!-- hs_pep_shp_file_inflow&#45;&gt;hs_pep_shp_file -->
<g id="edge18" class="edge"><title>hs_pep_shp_file_inflow&#45;&gt;hs_pep_shp_file</title>
<path fill="none" stroke="black" d="M737.093,-585.578C737.471,-559.503 738.904,-460.635 739.607,-412.146"/>
<polygon fill="black" stroke="black" points="743.107,-412.112 739.753,-402.062 736.108,-412.01 743.107,-412.112"/>
</g>
</g>
</svg>
