<?xml version="1.0" encoding="UTF-8" standalone="no"?>
<!DOCTYPE svg PUBLIC "-//W3C//DTD SVG 1.1//EN"
 "http://www.w3.org/Graphics/SVG/1.1/DTD/svg11.dtd">
<!-- Generated by graphviz version 2.38.0 (20140413.2041)
 -->
<!-- Title: yw_data_view Pages: 1 -->
<svg width="2530pt" height="959pt"
 viewBox="0.00 0.00 2530.00 958.60" xmlns="http://www.w3.org/2000/svg" xmlns:xlink="http://www.w3.org/1999/xlink">
<g id="graph0" class="graph" transform="scale(1 1) rotate(0) translate(4 954.6)">
<title>yw_data_view</title>
<polygon fill="white" stroke="none" points="-4,4 -4,-954.6 2526,-954.6 2526,4 -4,4"/>
<text text-anchor="middle" x="1261" y="-930.4" font-family="Courier,monospace" font-size="18.00">Upstream graph for multiple runs</text>
<g id="clust1" class="cluster"><title>cluster_workflow</title>
<polygon fill="none" stroke="black" stroke-width="2" points="8,-8 8,-913 2514,-913 2514,-8 8,-8"/>
</g>
<g id="clust2" class="cluster"><title>cluster_workflow_inner</title>
<polygon fill="none" stroke="white" stroke-width="2" points="16,-16 16,-905 2506,-905 2506,-16 16,-16"/>
</g>
<!-- urn:uuid:4fcd5da4&#45;67af&#45;4f8d&#45;ad36&#45;c9cdf45621d4 -->
<g id="node1" class="node"><title>urn:uuid:4fcd5da4&#45;67af&#45;4f8d&#45;ad36&#45;c9cdf45621d4</title>
<polygon fill="black" stroke="black" points="1010.05,-263.9 1010.05,-322.3 1613.95,-322.3 1613.95,-263.9 1010.05,-263.9"/>
<text text-anchor="middle" x="1312" y="-305.7" font-family="Courier,monospace" font-weight="bold" font-size="14.00" fill="white">ohibc run 1 </text>
<text text-anchor="middle" x="1312" y="-288.9" font-family="Courier,monospace" font-weight="bold" font-size="14.00" fill="white"> /Users/slaughter/git/OHI&#45;Science/ohibc/combine_inland_and_offshore.R </text>
<text text-anchor="middle" x="1312" y="-272.1" font-family="Courier,monospace" font-weight="bold" font-size="14.00" fill="white"> urn:uuid:4fcd5da4&#45;67af&#45;4f8d&#45;ad36&#45;c9cdf45621d4</text>
</g>
<!-- /Users/slaughter/git/OHI&#45;Science/ohibc/prep/lsp/vHS/output/area_protected_total.csv -->
<g id="node9" class="node"><title>/Users/slaughter/git/OHI&#45;Science/ohibc/prep/lsp/vHS/output/area_protected_total.csv</title>
<path fill="#ffe4b5" stroke="black" d="M1532.13,-227.4C1532.13,-227.4 1091.87,-227.4 1091.87,-227.4 1085.87,-227.4 1079.87,-221.4 1079.87,-215.4 1079.87,-215.4 1079.87,-203.4 1079.87,-203.4 1079.87,-197.4 1085.87,-191.4 1091.87,-191.4 1091.87,-191.4 1532.13,-191.4 1532.13,-191.4 1538.13,-191.4 1544.13,-197.4 1544.13,-203.4 1544.13,-203.4 1544.13,-215.4 1544.13,-215.4 1544.13,-221.4 1538.13,-227.4 1532.13,-227.4"/>
<text text-anchor="middle" x="1312" y="-206.7" font-family="Courier,monospace" font-weight="bold" font-size="9.00">/Users/slaughter/git/OHI&#45;Science/ohibc/prep/lsp/vHS/output/area_protected_total.csv</text>
</g>
<!-- urn:uuid:4fcd5da4&#45;67af&#45;4f8d&#45;ad36&#45;c9cdf45621d4&#45;&gt;/Users/slaughter/git/OHI&#45;Science/ohibc/prep/lsp/vHS/output/area_protected_total.csv -->
<g id="edge17" class="edge"><title>urn:uuid:4fcd5da4&#45;67af&#45;4f8d&#45;ad36&#45;c9cdf45621d4&#45;&gt;/Users/slaughter/git/OHI&#45;Science/ohibc/prep/lsp/vHS/output/area_protected_total.csv</title>
<path fill="none" stroke="black" d="M1312,-263.525C1312,-255.207 1312,-246.139 1312,-237.889"/>
<polygon fill="black" stroke="black" points="1315.5,-237.645 1312,-227.645 1308.5,-237.645 1315.5,-237.645"/>
</g>
<!-- urn:uuid:53c74750&#45;d660&#45;479d&#45;8e59&#45;f54068835317 -->
<g id="node2" class="node"><title>urn:uuid:53c74750&#45;d660&#45;479d&#45;8e59&#45;f54068835317</title>
<polygon fill="black" stroke="black" points="1035.24,-431.3 1035.24,-489.7 1588.76,-489.7 1588.76,-431.3 1035.24,-431.3"/>
<text text-anchor="middle" x="1312" y="-473.1" font-family="Courier,monospace" font-weight="bold" font-size="14.00" fill="white">ohibc run 1 </text>
<text text-anchor="middle" x="1312" y="-456.3" font-family="Courier,monospace" font-weight="bold" font-size="14.00" fill="white"> /Users/slaughter/git/OHI&#45;Science/ohibc/summarize_zonal_stats.R </text>
<text text-anchor="middle" x="1312" y="-439.5" font-family="Courier,monospace" font-weight="bold" font-size="14.00" fill="white"> urn:uuid:53c74750&#45;d660&#45;479d&#45;8e59&#45;f54068835317</text>
</g>
<!-- /Users/slaughter/git/OHI&#45;Science/ohibc/prep/lsp/vHS/int/area_protected_3nm.csv -->
<g id="node16" class="node"><title>/Users/slaughter/git/OHI&#45;Science/ohibc/prep/lsp/vHS/int/area_protected_3nm.csv</title>
<path fill="#ffe4b5" stroke="black" d="M1063.63,-394.8C1063.63,-394.8 650.37,-394.8 650.37,-394.8 644.37,-394.8 638.37,-388.8 638.37,-382.8 638.37,-382.8 638.37,-370.8 638.37,-370.8 638.37,-364.8 644.37,-358.8 650.37,-358.8 650.37,-358.8 1063.63,-358.8 1063.63,-358.8 1069.63,-358.8 1075.63,-364.8 1075.63,-370.8 1075.63,-370.8 1075.63,-382.8 1075.63,-382.8 1075.63,-388.8 1069.63,-394.8 1063.63,-394.8"/>
<text text-anchor="middle" x="857" y="-374.1" font-family="Courier,monospace" font-weight="bold" font-size="9.00">/Users/slaughter/git/OHI&#45;Science/ohibc/prep/lsp/vHS/int/area_protected_3nm.csv</text>
</g>
<!-- urn:uuid:53c74750&#45;d660&#45;479d&#45;8e59&#45;f54068835317&#45;&gt;/Users/slaughter/git/OHI&#45;Science/ohibc/prep/lsp/vHS/int/area_protected_3nm.csv -->
<g id="edge24" class="edge"><title>urn:uuid:53c74750&#45;d660&#45;479d&#45;8e59&#45;f54068835317&#45;&gt;/Users/slaughter/git/OHI&#45;Science/ohibc/prep/lsp/vHS/int/area_protected_3nm.csv</title>
<path fill="none" stroke="black" d="M1154.78,-431.269C1091.05,-419.826 1019.16,-406.917 961.984,-396.651"/>
<polygon fill="black" stroke="black" points="962.311,-393.154 951.85,-394.831 961.074,-400.044 962.311,-393.154"/>
</g>
<!-- /Users/slaughter/git/OHI&#45;Science/ohibc/prep/lsp/vHS/int/area_protected_1km.csv -->
<g id="node17" class="node"><title>/Users/slaughter/git/OHI&#45;Science/ohibc/prep/lsp/vHS/int/area_protected_1km.csv</title>
<path fill="#ffe4b5" stroke="black" d="M1518.63,-394.8C1518.63,-394.8 1105.37,-394.8 1105.37,-394.8 1099.37,-394.8 1093.37,-388.8 1093.37,-382.8 1093.37,-382.8 1093.37,-370.8 1093.37,-370.8 1093.37,-364.8 1099.37,-358.8 1105.37,-358.8 1105.37,-358.8 1518.63,-358.8 1518.63,-358.8 1524.63,-358.8 1530.63,-364.8 1530.63,-370.8 1530.63,-370.8 1530.63,-382.8 1530.63,-382.8 1530.63,-388.8 1524.63,-394.8 1518.63,-394.8"/>
<text text-anchor="middle" x="1312" y="-374.1" font-family="Courier,monospace" font-weight="bold" font-size="9.00">/Users/slaughter/git/OHI&#45;Science/ohibc/prep/lsp/vHS/int/area_protected_1km.csv</text>
</g>
<!-- urn:uuid:53c74750&#45;d660&#45;479d&#45;8e59&#45;f54068835317&#45;&gt;/Users/slaughter/git/OHI&#45;Science/ohibc/prep/lsp/vHS/int/area_protected_1km.csv -->
<g id="edge25" class="edge"><title>urn:uuid:53c74750&#45;d660&#45;479d&#45;8e59&#45;f54068835317&#45;&gt;/Users/slaughter/git/OHI&#45;Science/ohibc/prep/lsp/vHS/int/area_protected_1km.csv</title>
<path fill="none" stroke="black" d="M1312,-430.925C1312,-422.607 1312,-413.539 1312,-405.289"/>
<polygon fill="black" stroke="black" points="1315.5,-405.045 1312,-395.045 1308.5,-405.045 1315.5,-405.045"/>
</g>
<!-- /Users/slaughter/git/OHI&#45;Science/ohibc/prep/lsp/vHS/int/area_protected_ws.csv -->
<g id="node20" class="node"><title>/Users/slaughter/git/OHI&#45;Science/ohibc/prep/lsp/vHS/int/area_protected_ws.csv</title>
<path fill="#ffe4b5" stroke="black" d="M1967.73,-394.8C1967.73,-394.8 1560.27,-394.8 1560.27,-394.8 1554.27,-394.8 1548.27,-388.8 1548.27,-382.8 1548.27,-382.8 1548.27,-370.8 1548.27,-370.8 1548.27,-364.8 1554.27,-358.8 1560.27,-358.8 1560.27,-358.8 1967.73,-358.8 1967.73,-358.8 1973.73,-358.8 1979.73,-364.8 1979.73,-370.8 1979.73,-370.8 1979.73,-382.8 1979.73,-382.8 1979.73,-388.8 1973.73,-394.8 1967.73,-394.8"/>
<text text-anchor="middle" x="1764" y="-374.1" font-family="Courier,monospace" font-weight="bold" font-size="9.00">/Users/slaughter/git/OHI&#45;Science/ohibc/prep/lsp/vHS/int/area_protected_ws.csv</text>
</g>
<!-- urn:uuid:53c74750&#45;d660&#45;479d&#45;8e59&#45;f54068835317&#45;&gt;/Users/slaughter/git/OHI&#45;Science/ohibc/prep/lsp/vHS/int/area_protected_ws.csv -->
<g id="edge27" class="edge"><title>urn:uuid:53c74750&#45;d660&#45;479d&#45;8e59&#45;f54068835317&#45;&gt;/Users/slaughter/git/OHI&#45;Science/ohibc/prep/lsp/vHS/int/area_protected_ws.csv</title>
<path fill="none" stroke="black" d="M1468.19,-431.269C1531.5,-419.826 1602.91,-406.917 1659.71,-396.651"/>
<polygon fill="black" stroke="black" points="1660.56,-400.054 1669.78,-394.831 1659.31,-393.166 1660.56,-400.054"/>
</g>
<!-- urn:uuid:f5d6b763&#45;c953&#45;48f4&#45;9a39&#45;4a61f45bfdd3 -->
<g id="node3" class="node"><title>urn:uuid:f5d6b763&#45;c953&#45;48f4&#45;9a39&#45;4a61f45bfdd3</title>
<polygon fill="black" stroke="black" points="1060.44,-598.7 1060.44,-657.1 1563.56,-657.1 1563.56,-598.7 1060.44,-598.7"/>
<text text-anchor="middle" x="1312" y="-640.5" font-family="Courier,monospace" font-weight="bold" font-size="14.00" fill="white">ohibc run 1 </text>
<text text-anchor="middle" x="1312" y="-623.7" font-family="Courier,monospace" font-weight="bold" font-size="14.00" fill="white"> /Users/slaughter/git/OHI&#45;Science/ohibc/lsp_zonal_stats.R </text>
<text text-anchor="middle" x="1312" y="-606.9" font-family="Courier,monospace" font-weight="bold" font-size="14.00" fill="white"> urn:uuid:f5d6b763&#45;c953&#45;48f4&#45;9a39&#45;4a61f45bfdd3</text>
</g>
<!-- /Users/slaughter/git/OHI&#45;Science/ohibc/prep/lsp/vHS/int/zonal_stats_1km.csv -->
<g id="node10" class="node"><title>/Users/slaughter/git/OHI&#45;Science/ohibc/prep/lsp/vHS/int/zonal_stats_1km.csv</title>
<path fill="#ffe4b5" stroke="black" d="M1074.43,-562.2C1074.43,-562.2 677.567,-562.2 677.567,-562.2 671.567,-562.2 665.567,-556.2 665.567,-550.2 665.567,-550.2 665.567,-538.2 665.567,-538.2 665.567,-532.2 671.567,-526.2 677.567,-526.2 677.567,-526.2 1074.43,-526.2 1074.43,-526.2 1080.43,-526.2 1086.43,-532.2 1086.43,-538.2 1086.43,-538.2 1086.43,-550.2 1086.43,-550.2 1086.43,-556.2 1080.43,-562.2 1074.43,-562.2"/>
<text text-anchor="middle" x="876" y="-541.5" font-family="Courier,monospace" font-weight="bold" font-size="9.00">/Users/slaughter/git/OHI&#45;Science/ohibc/prep/lsp/vHS/int/zonal_stats_1km.csv</text>
</g>
<!-- urn:uuid:f5d6b763&#45;c953&#45;48f4&#45;9a39&#45;4a61f45bfdd3&#45;&gt;/Users/slaughter/git/OHI&#45;Science/ohibc/prep/lsp/vHS/int/zonal_stats_1km.csv -->
<g id="edge18" class="edge"><title>urn:uuid:f5d6b763&#45;c953&#45;48f4&#45;9a39&#45;4a61f45bfdd3&#45;&gt;/Users/slaughter/git/OHI&#45;Science/ohibc/prep/lsp/vHS/int/zonal_stats_1km.csv</title>
<path fill="none" stroke="black" d="M1161.34,-598.669C1100.4,-587.249 1031.67,-574.371 976.941,-564.115"/>
<polygon fill="black" stroke="black" points="977.362,-560.633 966.889,-562.231 976.073,-567.513 977.362,-560.633"/>
</g>
<!-- /Users/slaughter/git/OHI&#45;Science/ohibc/prep/lsp/vHS/int/zonal_stats_ws.csv -->
<g id="node12" class="node"><title>/Users/slaughter/git/OHI&#45;Science/ohibc/prep/lsp/vHS/int/zonal_stats_ws.csv</title>
<path fill="#ffe4b5" stroke="black" d="M1507.53,-562.2C1507.53,-562.2 1116.47,-562.2 1116.47,-562.2 1110.47,-562.2 1104.47,-556.2 1104.47,-550.2 1104.47,-550.2 1104.47,-538.2 1104.47,-538.2 1104.47,-532.2 1110.47,-526.2 1116.47,-526.2 1116.47,-526.2 1507.53,-526.2 1507.53,-526.2 1513.53,-526.2 1519.53,-532.2 1519.53,-538.2 1519.53,-538.2 1519.53,-550.2 1519.53,-550.2 1519.53,-556.2 1513.53,-562.2 1507.53,-562.2"/>
<text text-anchor="middle" x="1312" y="-541.5" font-family="Courier,monospace" font-weight="bold" font-size="9.00">/Users/slaughter/git/OHI&#45;Science/ohibc/prep/lsp/vHS/int/zonal_stats_ws.csv</text>
</g>
<!-- urn:uuid:f5d6b763&#45;c953&#45;48f4&#45;9a39&#45;4a61f45bfdd3&#45;&gt;/Users/slaughter/git/OHI&#45;Science/ohibc/prep/lsp/vHS/int/zonal_stats_ws.csv -->
<g id="edge20" class="edge"><title>urn:uuid:f5d6b763&#45;c953&#45;48f4&#45;9a39&#45;4a61f45bfdd3&#45;&gt;/Users/slaughter/git/OHI&#45;Science/ohibc/prep/lsp/vHS/int/zonal_stats_ws.csv</title>
<path fill="none" stroke="black" d="M1312,-598.325C1312,-590.007 1312,-580.939 1312,-572.689"/>
<polygon fill="black" stroke="black" points="1315.5,-572.445 1312,-562.445 1308.5,-572.445 1315.5,-572.445"/>
</g>
<!-- /Users/slaughter/git/OHI&#45;Science/ohibc/prep/lsp/vHS/int/zonal_stats_3nm.csv -->
<g id="node21" class="node"><title>/Users/slaughter/git/OHI&#45;Science/ohibc/prep/lsp/vHS/int/zonal_stats_3nm.csv</title>
<path fill="#ffe4b5" stroke="black" d="M1946.43,-562.2C1946.43,-562.2 1549.57,-562.2 1549.57,-562.2 1543.57,-562.2 1537.57,-556.2 1537.57,-550.2 1537.57,-550.2 1537.57,-538.2 1537.57,-538.2 1537.57,-532.2 1543.57,-526.2 1549.57,-526.2 1549.57,-526.2 1946.43,-526.2 1946.43,-526.2 1952.43,-526.2 1958.43,-532.2 1958.43,-538.2 1958.43,-538.2 1958.43,-550.2 1958.43,-550.2 1958.43,-556.2 1952.43,-562.2 1946.43,-562.2"/>
<text text-anchor="middle" x="1748" y="-541.5" font-family="Courier,monospace" font-weight="bold" font-size="9.00">/Users/slaughter/git/OHI&#45;Science/ohibc/prep/lsp/vHS/int/zonal_stats_3nm.csv</text>
</g>
<!-- urn:uuid:f5d6b763&#45;c953&#45;48f4&#45;9a39&#45;4a61f45bfdd3&#45;&gt;/Users/slaughter/git/OHI&#45;Science/ohibc/prep/lsp/vHS/int/zonal_stats_3nm.csv -->
<g id="edge28" class="edge"><title>urn:uuid:f5d6b763&#45;c953&#45;48f4&#45;9a39&#45;4a61f45bfdd3&#45;&gt;/Users/slaughter/git/OHI&#45;Science/ohibc/prep/lsp/vHS/int/zonal_stats_3nm.csv</title>
<path fill="none" stroke="black" d="M1462.66,-598.669C1523.6,-587.249 1592.33,-574.371 1647.06,-564.115"/>
<polygon fill="black" stroke="black" points="1647.93,-567.513 1657.11,-562.231 1646.64,-560.633 1647.93,-567.513"/>
</g>
<!-- urn:uuid:167b320e&#45;9143&#45;4084&#45;882e&#45;7d19914767c0 -->
<g id="node4" class="node"><title>urn:uuid:167b320e&#45;9143&#45;4084&#45;882e&#45;7d19914767c0</title>
<polygon fill="black" stroke="black" points="110.045,-766.1 110.045,-824.5 671.955,-824.5 671.955,-766.1 110.045,-766.1"/>
<text text-anchor="middle" x="391" y="-807.9" font-family="Courier,monospace" font-weight="bold" font-size="14.00" fill="white">ohibc run 1 </text>
<text text-anchor="middle" x="391" y="-791.1" font-family="Courier,monospace" font-weight="bold" font-size="14.00" fill="white"> /Users/slaughter/git/OHI&#45;Science/ohibc/setup_watershed_raster.R </text>
<text text-anchor="middle" x="391" y="-774.3" font-family="Courier,monospace" font-weight="bold" font-size="14.00" fill="white"> urn:uuid:167b320e&#45;9143&#45;4084&#45;882e&#45;7d19914767c0</text>
</g>
<!-- /Users/slaughter/git/OHI&#45;Science/ohibc/prep/lsp/vHS/spatial/howe_sound_watershed_500m.tif -->
<g id="node13" class="node"><title>/Users/slaughter/git/OHI&#45;Science/ohibc/prep/lsp/vHS/spatial/howe_sound_watershed_500m.tif</title>
<path fill="#ffe4b5" stroke="black" d="M508.02,-729.6C508.02,-729.6 35.9799,-729.6 35.9799,-729.6 29.9799,-729.6 23.9799,-723.6 23.9799,-717.6 23.9799,-717.6 23.9799,-705.6 23.9799,-705.6 23.9799,-699.6 29.9799,-693.6 35.9799,-693.6 35.9799,-693.6 508.02,-693.6 508.02,-693.6 514.02,-693.6 520.02,-699.6 520.02,-705.6 520.02,-705.6 520.02,-717.6 520.02,-717.6 520.02,-723.6 514.02,-729.6 508.02,-729.6"/>
<text text-anchor="middle" x="272" y="-708.9" font-family="Courier,monospace" font-weight="bold" font-size="9.00">/Users/slaughter/git/OHI&#45;Science/ohibc/prep/lsp/vHS/spatial/howe_sound_watershed_500m.tif</text>
</g>
<!-- urn:uuid:167b320e&#45;9143&#45;4084&#45;882e&#45;7d19914767c0&#45;&gt;/Users/slaughter/git/OHI&#45;Science/ohibc/prep/lsp/vHS/spatial/howe_sound_watershed_500m.tif -->
<g id="edge21" class="edge"><title>urn:uuid:167b320e&#45;9143&#45;4084&#45;882e&#45;7d19914767c0&#45;&gt;/Users/slaughter/git/OHI&#45;Science/ohibc/prep/lsp/vHS/spatial/howe_sound_watershed_500m.tif</title>
<path fill="none" stroke="black" d="M349.714,-765.955C335.149,-755.955 318.972,-744.849 305.166,-735.37"/>
<polygon fill="black" stroke="black" points="307.136,-732.478 296.911,-729.703 303.174,-738.248 307.136,-732.478"/>
</g>
<!-- urn:uuid:3d6c8ed0&#45;83c0&#45;4b12&#45;9154&#45;2804f4317598 -->
<g id="node5" class="node"><title>urn:uuid:3d6c8ed0&#45;83c0&#45;4b12&#45;9154&#45;2804f4317598</title>
<polygon fill="black" stroke="black" points="860.444,-766.1 860.444,-824.5 1405.56,-824.5 1405.56,-766.1 860.444,-766.1"/>
<text text-anchor="middle" x="1133" y="-807.9" font-family="Courier,monospace" font-weight="bold" font-size="14.00" fill="white">ohibc run 1 </text>
<text text-anchor="middle" x="1133" y="-791.1" font-family="Courier,monospace" font-weight="bold" font-size="14.00" fill="white"> /Users/slaughter/git/OHI&#45;Science/ohibc/get_analysis_rasters.R </text>
<text text-anchor="middle" x="1133" y="-774.3" font-family="Courier,monospace" font-weight="bold" font-size="14.00" fill="white"> urn:uuid:3d6c8ed0&#45;83c0&#45;4b12&#45;9154&#45;2804f4317598</text>
</g>
<!-- /Users/slaughter/git/OHI&#45;Science/ohibc/prep/lsp/vHS/spatial/hs_offshore_3nm_raster_500m.tif -->
<g id="node8" class="node"><title>/Users/slaughter/git/OHI&#45;Science/ohibc/prep/lsp/vHS/spatial/hs_offshore_3nm_raster_500m.tif</title>
<path fill="#ffe4b5" stroke="black" d="M1033.82,-729.6C1033.82,-729.6 550.182,-729.6 550.182,-729.6 544.182,-729.6 538.182,-723.6 538.182,-717.6 538.182,-717.6 538.182,-705.6 538.182,-705.6 538.182,-699.6 544.182,-693.6 550.182,-693.6 550.182,-693.6 1033.82,-693.6 1033.82,-693.6 1039.82,-693.6 1045.82,-699.6 1045.82,-705.6 1045.82,-705.6 1045.82,-717.6 1045.82,-717.6 1045.82,-723.6 1039.82,-729.6 1033.82,-729.6"/>
<text text-anchor="middle" x="792" y="-708.9" font-family="Courier,monospace" font-weight="bold" font-size="9.00">/Users/slaughter/git/OHI&#45;Science/ohibc/prep/lsp/vHS/spatial/hs_offshore_3nm_raster_500m.tif</text>
</g>
<!-- urn:uuid:3d6c8ed0&#45;83c0&#45;4b12&#45;9154&#45;2804f4317598&#45;&gt;/Users/slaughter/git/OHI&#45;Science/ohibc/prep/lsp/vHS/spatial/hs_offshore_3nm_raster_500m.tif -->
<g id="edge16" class="edge"><title>urn:uuid:3d6c8ed0&#45;83c0&#45;4b12&#45;9154&#45;2804f4317598&#45;&gt;/Users/slaughter/git/OHI&#45;Science/ohibc/prep/lsp/vHS/spatial/hs_offshore_3nm_raster_500m.tif</title>
<path fill="none" stroke="black" d="M1015.17,-766.069C968.199,-754.815 915.314,-742.145 872.819,-731.963"/>
<polygon fill="black" stroke="black" points="873.625,-728.558 863.085,-729.631 871.994,-735.365 873.625,-728.558"/>
</g>
<!-- /Users/slaughter/git/OHI&#45;Science/ohibc/prep/lsp/vHS/spatial/hs_inland_1km_raster_500m.tif -->
<g id="node11" class="node"><title>/Users/slaughter/git/OHI&#45;Science/ohibc/prep/lsp/vHS/spatial/hs_inland_1km_raster_500m.tif</title>
<path fill="#ffe4b5" stroke="black" d="M1548.02,-729.6C1548.02,-729.6 1075.98,-729.6 1075.98,-729.6 1069.98,-729.6 1063.98,-723.6 1063.98,-717.6 1063.98,-717.6 1063.98,-705.6 1063.98,-705.6 1063.98,-699.6 1069.98,-693.6 1075.98,-693.6 1075.98,-693.6 1548.02,-693.6 1548.02,-693.6 1554.02,-693.6 1560.02,-699.6 1560.02,-705.6 1560.02,-705.6 1560.02,-717.6 1560.02,-717.6 1560.02,-723.6 1554.02,-729.6 1548.02,-729.6"/>
<text text-anchor="middle" x="1312" y="-708.9" font-family="Courier,monospace" font-weight="bold" font-size="9.00">/Users/slaughter/git/OHI&#45;Science/ohibc/prep/lsp/vHS/spatial/hs_inland_1km_raster_500m.tif</text>
</g>
<!-- urn:uuid:3d6c8ed0&#45;83c0&#45;4b12&#45;9154&#45;2804f4317598&#45;&gt;/Users/slaughter/git/OHI&#45;Science/ohibc/prep/lsp/vHS/spatial/hs_inland_1km_raster_500m.tif -->
<g id="edge19" class="edge"><title>urn:uuid:3d6c8ed0&#45;83c0&#45;4b12&#45;9154&#45;2804f4317598&#45;&gt;/Users/slaughter/git/OHI&#45;Science/ohibc/prep/lsp/vHS/spatial/hs_inland_1km_raster_500m.tif</title>
<path fill="none" stroke="black" d="M1194.85,-766.069C1218,-755.502 1243.89,-743.687 1265.43,-733.855"/>
<polygon fill="black" stroke="black" points="1267.04,-736.968 1274.69,-729.631 1264.14,-730.599 1267.04,-736.968"/>
</g>
<!-- urn:uuid:98b5270a&#45;1577&#45;4865&#45;970f&#45;17c6b0065374 -->
<g id="node6" class="node"><title>urn:uuid:98b5270a&#45;1577&#45;4865&#45;970f&#45;17c6b0065374</title>
<polygon fill="black" stroke="black" points="1508.45,-766.1 1508.45,-824.5 2095.55,-824.5 2095.55,-766.1 1508.45,-766.1"/>
<text text-anchor="middle" x="1802" y="-807.9" font-family="Courier,monospace" font-weight="bold" font-size="14.00" fill="white">ohibc run 1 </text>
<text text-anchor="middle" x="1802" y="-791.1" font-family="Courier,monospace" font-weight="bold" font-size="14.00" fill="white"> /Users/slaughter/git/OHI&#45;Science/ohibc/rasterize_HS_WDPA_and_PEP.R </text>
<text text-anchor="middle" x="1802" y="-774.3" font-family="Courier,monospace" font-weight="bold" font-size="14.00" fill="white"> urn:uuid:98b5270a&#45;1577&#45;4865&#45;970f&#45;17c6b0065374</text>
</g>
<!-- /Users/slaughter/git/OHI&#45;Science/ohibc/prep/lsp/vHS/spatial/hs_pep_rast_500m.tif -->
<g id="node14" class="node"><title>/Users/slaughter/git/OHI&#45;Science/ohibc/prep/lsp/vHS/spatial/hs_pep_rast_500m.tif</title>
<path fill="#ffe4b5" stroke="black" d="M2013.93,-729.6C2013.93,-729.6 1590.07,-729.6 1590.07,-729.6 1584.07,-729.6 1578.07,-723.6 1578.07,-717.6 1578.07,-717.6 1578.07,-705.6 1578.07,-705.6 1578.07,-699.6 1584.07,-693.6 1590.07,-693.6 1590.07,-693.6 2013.93,-693.6 2013.93,-693.6 2019.93,-693.6 2025.93,-699.6 2025.93,-705.6 2025.93,-705.6 2025.93,-717.6 2025.93,-717.6 2025.93,-723.6 2019.93,-729.6 2013.93,-729.6"/>
<text text-anchor="middle" x="1802" y="-708.9" font-family="Courier,monospace" font-weight="bold" font-size="9.00">/Users/slaughter/git/OHI&#45;Science/ohibc/prep/lsp/vHS/spatial/hs_pep_rast_500m.tif</text>
</g>
<!-- urn:uuid:98b5270a&#45;1577&#45;4865&#45;970f&#45;17c6b0065374&#45;&gt;/Users/slaughter/git/OHI&#45;Science/ohibc/prep/lsp/vHS/spatial/hs_pep_rast_500m.tif -->
<g id="edge22" class="edge"><title>urn:uuid:98b5270a&#45;1577&#45;4865&#45;970f&#45;17c6b0065374&#45;&gt;/Users/slaughter/git/OHI&#45;Science/ohibc/prep/lsp/vHS/spatial/hs_pep_rast_500m.tif</title>
<path fill="none" stroke="black" d="M1802,-765.725C1802,-757.407 1802,-748.339 1802,-740.089"/>
<polygon fill="black" stroke="black" points="1805.5,-739.845 1802,-729.845 1798.5,-739.845 1805.5,-739.845"/>
</g>
<!-- /Users/slaughter/git/OHI&#45;Science/ohibc/prep/lsp/vHS/spatial/hs_wdpa_rast_500m.tif -->
<g id="node15" class="node"><title>/Users/slaughter/git/OHI&#45;Science/ohibc/prep/lsp/vHS/spatial/hs_wdpa_rast_500m.tif</title>
<path fill="#ffe4b5" stroke="black" d="M2485.83,-729.6C2485.83,-729.6 2056.17,-729.6 2056.17,-729.6 2050.17,-729.6 2044.17,-723.6 2044.17,-717.6 2044.17,-717.6 2044.17,-705.6 2044.17,-705.6 2044.17,-699.6 2050.17,-693.6 2056.17,-693.6 2056.17,-693.6 2485.83,-693.6 2485.83,-693.6 2491.83,-693.6 2497.83,-699.6 2497.83,-705.6 2497.83,-705.6 2497.83,-717.6 2497.83,-717.6 2497.83,-723.6 2491.83,-729.6 2485.83,-729.6"/>
<text text-anchor="middle" x="2271" y="-708.9" font-family="Courier,monospace" font-weight="bold" font-size="9.00">/Users/slaughter/git/OHI&#45;Science/ohibc/prep/lsp/vHS/spatial/hs_wdpa_rast_500m.tif</text>
</g>
<!-- urn:uuid:98b5270a&#45;1577&#45;4865&#45;970f&#45;17c6b0065374&#45;&gt;/Users/slaughter/git/OHI&#45;Science/ohibc/prep/lsp/vHS/spatial/hs_wdpa_rast_500m.tif -->
<g id="edge23" class="edge"><title>urn:uuid:98b5270a&#45;1577&#45;4865&#45;970f&#45;17c6b0065374&#45;&gt;/Users/slaughter/git/OHI&#45;Science/ohibc/prep/lsp/vHS/spatial/hs_wdpa_rast_500m.tif</title>
<path fill="none" stroke="black" d="M1964.06,-766.069C2029.89,-754.602 2104.16,-741.664 2163.15,-731.387"/>
<polygon fill="black" stroke="black" points="2163.98,-734.796 2173.23,-729.631 2162.78,-727.899 2163.98,-734.796"/>
</g>
<!-- urn:uuid:53ada2f7&#45;5e25&#45;4845&#45;883e&#45;1049a90c321c -->
<g id="node7" class="node"><title>urn:uuid:53ada2f7&#45;5e25&#45;4845&#45;883e&#45;1049a90c321c</title>
<polygon fill="black" stroke="black" points="984.853,-96.5 984.853,-154.9 1639.15,-154.9 1639.15,-96.5 984.853,-96.5"/>
<text text-anchor="middle" x="1312" y="-138.3" font-family="Courier,monospace" font-weight="bold" font-size="14.00" fill="white">ohibc run 1 </text>
<text text-anchor="middle" x="1312" y="-121.5" font-family="Courier,monospace" font-weight="bold" font-size="14.00" fill="white"> /Users/slaughter/git/OHI&#45;Science/ohibc/estimate_status_and_trend_by_year.R </text>
<text text-anchor="middle" x="1312" y="-104.7" font-family="Courier,monospace" font-weight="bold" font-size="14.00" fill="white"> urn:uuid:53ada2f7&#45;5e25&#45;4845&#45;883e&#45;1049a90c321c</text>
</g>
<!-- /Users/slaughter/git/OHI&#45;Science/ohibc/prep/lsp/vHS/output/lsp_status.csv -->
<g id="node19" class="node"><title>/Users/slaughter/git/OHI&#45;Science/ohibc/prep/lsp/vHS/output/lsp_status.csv</title>
<path fill="#ffe4b5" stroke="black" d="M1505.13,-60C1505.13,-60 1118.87,-60 1118.87,-60 1112.87,-60 1106.87,-54 1106.87,-48 1106.87,-48 1106.87,-36 1106.87,-36 1106.87,-30 1112.87,-24 1118.87,-24 1118.87,-24 1505.13,-24 1505.13,-24 1511.13,-24 1517.13,-30 1517.13,-36 1517.13,-36 1517.13,-48 1517.13,-48 1517.13,-54 1511.13,-60 1505.13,-60"/>
<text text-anchor="middle" x="1312" y="-39.3" font-family="Courier,monospace" font-weight="bold" font-size="9.00">/Users/slaughter/git/OHI&#45;Science/ohibc/prep/lsp/vHS/output/lsp_status.csv</text>
</g>
<!-- urn:uuid:53ada2f7&#45;5e25&#45;4845&#45;883e&#45;1049a90c321c&#45;&gt;/Users/slaughter/git/OHI&#45;Science/ohibc/prep/lsp/vHS/output/lsp_status.csv -->
<g id="edge26" class="edge"><title>urn:uuid:53ada2f7&#45;5e25&#45;4845&#45;883e&#45;1049a90c321c&#45;&gt;/Users/slaughter/git/OHI&#45;Science/ohibc/prep/lsp/vHS/output/lsp_status.csv</title>
<path fill="none" stroke="black" d="M1312,-96.1253C1312,-87.8066 1312,-78.7391 1312,-70.4888"/>
<polygon fill="black" stroke="black" points="1315.5,-70.2453 1312,-60.2453 1308.5,-70.2454 1315.5,-70.2453"/>
</g>
<!-- /Users/slaughter/git/OHI&#45;Science/ohibc/prep/lsp/vHS/spatial/hs_offshore_3nm_raster_500m.tif&#45;&gt;urn:uuid:f5d6b763&#45;c953&#45;48f4&#45;9a39&#45;4a61f45bfdd3 -->
<g id="edge11" class="edge"><title>/Users/slaughter/git/OHI&#45;Science/ohibc/prep/lsp/vHS/spatial/hs_offshore_3nm_raster_500m.tif&#45;&gt;urn:uuid:f5d6b763&#45;c953&#45;48f4&#45;9a39&#45;4a61f45bfdd3</title>
<path fill="none" stroke="black" d="M900.376,-693.572C964.541,-683.491 1047.64,-670.434 1122.36,-658.695"/>
<polygon fill="black" stroke="black" points="1123.04,-662.132 1132.37,-657.122 1121.95,-655.217 1123.04,-662.132"/>
</g>
<!-- /Users/slaughter/git/OHI&#45;Science/ohibc/prep/lsp/vHS/output/area_protected_total.csv&#45;&gt;urn:uuid:53ada2f7&#45;5e25&#45;4845&#45;883e&#45;1049a90c321c -->
<g id="edge12" class="edge"><title>/Users/slaughter/git/OHI&#45;Science/ohibc/prep/lsp/vHS/output/area_protected_total.csv&#45;&gt;urn:uuid:53ada2f7&#45;5e25&#45;4845&#45;883e&#45;1049a90c321c</title>
<path fill="none" stroke="black" d="M1312,-191.074C1312,-183.45 1312,-174.169 1312,-165.054"/>
<polygon fill="black" stroke="black" points="1315.5,-164.931 1312,-154.931 1308.5,-164.931 1315.5,-164.931"/>
</g>
<!-- /Users/slaughter/git/OHI&#45;Science/ohibc/prep/lsp/vHS/int/zonal_stats_1km.csv&#45;&gt;urn:uuid:53c74750&#45;d660&#45;479d&#45;8e59&#45;f54068835317 -->
<g id="edge13" class="edge"><title>/Users/slaughter/git/OHI&#45;Science/ohibc/prep/lsp/vHS/int/zonal_stats_1km.csv&#45;&gt;urn:uuid:53c74750&#45;d660&#45;479d&#45;8e59&#45;f54068835317</title>
<path fill="none" stroke="black" d="M966.869,-526.172C1020.17,-516.185 1089.06,-503.276 1151.25,-491.622"/>
<polygon fill="black" stroke="black" points="1151.99,-495.044 1161.17,-489.762 1150.7,-488.164 1151.99,-495.044"/>
</g>
<!-- /Users/slaughter/git/OHI&#45;Science/ohibc/prep/lsp/vHS/spatial/hs_inland_1km_raster_500m.tif&#45;&gt;urn:uuid:f5d6b763&#45;c953&#45;48f4&#45;9a39&#45;4a61f45bfdd3 -->
<g id="edge14" class="edge"><title>/Users/slaughter/git/OHI&#45;Science/ohibc/prep/lsp/vHS/spatial/hs_inland_1km_raster_500m.tif&#45;&gt;urn:uuid:f5d6b763&#45;c953&#45;48f4&#45;9a39&#45;4a61f45bfdd3</title>
<path fill="none" stroke="black" d="M1312,-693.274C1312,-685.65 1312,-676.369 1312,-667.254"/>
<polygon fill="black" stroke="black" points="1315.5,-667.131 1312,-657.131 1308.5,-667.131 1315.5,-667.131"/>
</g>
<!-- /Users/slaughter/git/OHI&#45;Science/ohibc/prep/lsp/vHS/int/zonal_stats_ws.csv&#45;&gt;urn:uuid:53c74750&#45;d660&#45;479d&#45;8e59&#45;f54068835317 -->
<g id="edge15" class="edge"><title>/Users/slaughter/git/OHI&#45;Science/ohibc/prep/lsp/vHS/int/zonal_stats_ws.csv&#45;&gt;urn:uuid:53c74750&#45;d660&#45;479d&#45;8e59&#45;f54068835317</title>
<path fill="none" stroke="black" d="M1312,-525.874C1312,-518.25 1312,-508.969 1312,-499.854"/>
<polygon fill="black" stroke="black" points="1315.5,-499.731 1312,-489.731 1308.5,-499.731 1315.5,-499.731"/>
</g>
<!-- /Users/slaughter/git/OHI&#45;Science/ohibc/prep/lsp/vHS/spatial/howe_sound_watershed_500m.tif&#45;&gt;urn:uuid:f5d6b763&#45;c953&#45;48f4&#45;9a39&#45;4a61f45bfdd3 -->
<g id="edge1" class="edge"><title>/Users/slaughter/git/OHI&#45;Science/ohibc/prep/lsp/vHS/spatial/howe_sound_watershed_500m.tif&#45;&gt;urn:uuid:f5d6b763&#45;c953&#45;48f4&#45;9a39&#45;4a61f45bfdd3</title>
<path fill="none" stroke="black" d="M488.436,-693.597C651.777,-680.766 876.613,-663.103 1050.1,-649.474"/>
<polygon fill="black" stroke="black" points="1050.45,-652.958 1060.14,-648.685 1049.9,-645.979 1050.45,-652.958"/>
</g>
<!-- /Users/slaughter/git/OHI&#45;Science/ohibc/prep/lsp/vHS/spatial/hs_pep_rast_500m.tif&#45;&gt;urn:uuid:f5d6b763&#45;c953&#45;48f4&#45;9a39&#45;4a61f45bfdd3 -->
<g id="edge2" class="edge"><title>/Users/slaughter/git/OHI&#45;Science/ohibc/prep/lsp/vHS/spatial/hs_pep_rast_500m.tif&#45;&gt;urn:uuid:f5d6b763&#45;c953&#45;48f4&#45;9a39&#45;4a61f45bfdd3</title>
<path fill="none" stroke="black" d="M1699.88,-693.572C1639.73,-683.543 1561.92,-670.57 1491.79,-658.878"/>
<polygon fill="black" stroke="black" points="1491.94,-655.355 1481.51,-657.162 1490.79,-662.259 1491.94,-655.355"/>
</g>
<!-- /Users/slaughter/git/OHI&#45;Science/ohibc/prep/lsp/vHS/spatial/hs_wdpa_rast_500m.tif&#45;&gt;urn:uuid:f5d6b763&#45;c953&#45;48f4&#45;9a39&#45;4a61f45bfdd3 -->
<g id="edge3" class="edge"><title>/Users/slaughter/git/OHI&#45;Science/ohibc/prep/lsp/vHS/spatial/hs_wdpa_rast_500m.tif&#45;&gt;urn:uuid:f5d6b763&#45;c953&#45;48f4&#45;9a39&#45;4a61f45bfdd3</title>
<path fill="none" stroke="black" d="M2071.42,-693.597C1927.22,-681.312 1731.04,-664.599 1574.2,-651.237"/>
<polygon fill="black" stroke="black" points="1574.19,-647.724 1563.93,-650.362 1573.59,-654.699 1574.19,-647.724"/>
</g>
<!-- /Users/slaughter/git/OHI&#45;Science/ohibc/prep/lsp/vHS/int/area_protected_3nm.csv&#45;&gt;urn:uuid:4fcd5da4&#45;67af&#45;4f8d&#45;ad36&#45;c9cdf45621d4 -->
<g id="edge4" class="edge"><title>/Users/slaughter/git/OHI&#45;Science/ohibc/prep/lsp/vHS/int/area_protected_3nm.csv&#45;&gt;urn:uuid:4fcd5da4&#45;67af&#45;4f8d&#45;ad36&#45;c9cdf45621d4</title>
<path fill="none" stroke="black" d="M951.829,-358.772C1007.57,-348.764 1079.64,-335.823 1144.65,-324.15"/>
<polygon fill="black" stroke="black" points="1145.38,-327.575 1154.6,-322.362 1144.14,-320.685 1145.38,-327.575"/>
</g>
<!-- /Users/slaughter/git/OHI&#45;Science/ohibc/prep/lsp/vHS/int/area_protected_1km.csv&#45;&gt;urn:uuid:4fcd5da4&#45;67af&#45;4f8d&#45;ad36&#45;c9cdf45621d4 -->
<g id="edge5" class="edge"><title>/Users/slaughter/git/OHI&#45;Science/ohibc/prep/lsp/vHS/int/area_protected_1km.csv&#45;&gt;urn:uuid:4fcd5da4&#45;67af&#45;4f8d&#45;ad36&#45;c9cdf45621d4</title>
<path fill="none" stroke="black" d="M1312,-358.474C1312,-350.85 1312,-341.569 1312,-332.454"/>
<polygon fill="black" stroke="black" points="1315.5,-332.331 1312,-322.331 1308.5,-332.331 1315.5,-332.331"/>
</g>
<!-- /Users/slaughter/git/OHI&#45;Science/ohibc/prep/spatial/raster/ohibc_rgn_raster_500m.tif -->
<g id="node18" class="node"><title>/Users/slaughter/git/OHI&#45;Science/ohibc/prep/spatial/raster/ohibc_rgn_raster_500m.tif</title>
<path fill="#ffe4b5" stroke="black" d="M1355.52,-897C1355.52,-897 910.475,-897 910.475,-897 904.475,-897 898.475,-891 898.475,-885 898.475,-885 898.475,-873 898.475,-873 898.475,-867 904.475,-861 910.475,-861 910.475,-861 1355.52,-861 1355.52,-861 1361.52,-861 1367.52,-867 1367.52,-873 1367.52,-873 1367.52,-885 1367.52,-885 1367.52,-891 1361.52,-897 1355.52,-897"/>
<text text-anchor="middle" x="1133" y="-876.3" font-family="Courier,monospace" font-weight="bold" font-size="9.00">/Users/slaughter/git/OHI&#45;Science/ohibc/prep/spatial/raster/ohibc_rgn_raster_500m.tif</text>
</g>
<!-- /Users/slaughter/git/OHI&#45;Science/ohibc/prep/spatial/raster/ohibc_rgn_raster_500m.tif&#45;&gt;urn:uuid:167b320e&#45;9143&#45;4084&#45;882e&#45;7d19914767c0 -->
<g id="edge8" class="edge"><title>/Users/slaughter/git/OHI&#45;Science/ohibc/prep/spatial/raster/ohibc_rgn_raster_500m.tif&#45;&gt;urn:uuid:167b320e&#45;9143&#45;4084&#45;882e&#45;7d19914767c0</title>
<path fill="none" stroke="black" d="M978.356,-860.972C885.583,-850.757 765.065,-837.487 657.361,-825.628"/>
<polygon fill="black" stroke="black" points="657.636,-822.138 647.313,-824.522 656.869,-829.096 657.636,-822.138"/>
</g>
<!-- /Users/slaughter/git/OHI&#45;Science/ohibc/prep/spatial/raster/ohibc_rgn_raster_500m.tif&#45;&gt;urn:uuid:3d6c8ed0&#45;83c0&#45;4b12&#45;9154&#45;2804f4317598 -->
<g id="edge7" class="edge"><title>/Users/slaughter/git/OHI&#45;Science/ohibc/prep/spatial/raster/ohibc_rgn_raster_500m.tif&#45;&gt;urn:uuid:3d6c8ed0&#45;83c0&#45;4b12&#45;9154&#45;2804f4317598</title>
<path fill="none" stroke="black" d="M1133,-860.674C1133,-853.05 1133,-843.769 1133,-834.654"/>
<polygon fill="black" stroke="black" points="1136.5,-834.531 1133,-824.531 1129.5,-834.531 1136.5,-834.531"/>
</g>
<!-- /Users/slaughter/git/OHI&#45;Science/ohibc/prep/spatial/raster/ohibc_rgn_raster_500m.tif&#45;&gt;urn:uuid:98b5270a&#45;1577&#45;4865&#45;970f&#45;17c6b0065374 -->
<g id="edge6" class="edge"><title>/Users/slaughter/git/OHI&#45;Science/ohibc/prep/spatial/raster/ohibc_rgn_raster_500m.tif&#45;&gt;urn:uuid:98b5270a&#45;1577&#45;4865&#45;970f&#45;17c6b0065374</title>
<path fill="none" stroke="black" d="M1272.43,-860.972C1355.82,-850.788 1464.08,-837.568 1560.96,-825.736"/>
<polygon fill="black" stroke="black" points="1561.4,-829.209 1570.9,-824.522 1560.55,-822.26 1561.4,-829.209"/>
</g>
<!-- /Users/slaughter/git/OHI&#45;Science/ohibc/prep/lsp/vHS/int/area_protected_ws.csv&#45;&gt;urn:uuid:4fcd5da4&#45;67af&#45;4f8d&#45;ad36&#45;c9cdf45621d4 -->
<g id="edge9" class="edge"><title>/Users/slaughter/git/OHI&#45;Science/ohibc/prep/lsp/vHS/int/area_protected_ws.csv&#45;&gt;urn:uuid:4fcd5da4&#45;67af&#45;4f8d&#45;ad36&#45;c9cdf45621d4</title>
<path fill="none" stroke="black" d="M1669.8,-358.772C1614.43,-348.764 1542.83,-335.823 1478.25,-324.15"/>
<polygon fill="black" stroke="black" points="1478.82,-320.697 1468.36,-322.362 1477.58,-327.585 1478.82,-320.697"/>
</g>
<!-- /Users/slaughter/git/OHI&#45;Science/ohibc/prep/lsp/vHS/int/zonal_stats_3nm.csv&#45;&gt;urn:uuid:53c74750&#45;d660&#45;479d&#45;8e59&#45;f54068835317 -->
<g id="edge10" class="edge"><title>/Users/slaughter/git/OHI&#45;Science/ohibc/prep/lsp/vHS/int/zonal_stats_3nm.csv&#45;&gt;urn:uuid:53c74750&#45;d660&#45;479d&#45;8e59&#45;f54068835317</title>
<path fill="none" stroke="black" d="M1657.13,-526.172C1603.83,-516.185 1534.94,-503.276 1472.75,-491.622"/>
<polygon fill="black" stroke="black" points="1473.3,-488.164 1462.83,-489.762 1472.01,-495.044 1473.3,-488.164"/>
</g>
</g>
</svg>
