<?xml version="1.0" encoding="UTF-8" standalone="no"?>
<!DOCTYPE svg PUBLIC "-//W3C//DTD SVG 1.1//EN"
 "http://www.w3.org/Graphics/SVG/1.1/DTD/svg11.dtd">
<!-- Generated by graphviz version 2.38.0 (20140413.2041)
 -->
<!-- Title: yw_data_view Pages: 1 -->
<svg width="2556pt" height="965pt"
 viewBox="0.00 0.00 2556.00 964.60" xmlns="http://www.w3.org/2000/svg" xmlns:xlink="http://www.w3.org/1999/xlink">
<g id="graph0" class="graph" transform="scale(1 1) rotate(0) translate(4 960.6)">
<title>yw_data_view</title>
<polygon fill="white" stroke="none" points="-4,4 -4,-960.6 2552,-960.6 2552,4 -4,4"/>
<text text-anchor="middle" x="1274" y="-936.4" font-family="Courier,monospace" font-size="18.00">Upstream graph for multiple runs</text>
<g id="clust1" class="cluster"><title>cluster_workflow</title>
<polygon fill="none" stroke="black" stroke-width="2" points="8,-8 8,-919 2540,-919 2540,-8 8,-8"/>
</g>
<g id="clust2" class="cluster"><title>cluster_workflow_inner</title>
<polygon fill="none" stroke="white" stroke-width="2" points="16,-16 16,-911 2532,-911 2532,-16 16,-16"/>
</g>
<!-- urn:uuid:4fcd5da4&#45;67af&#45;4f8d&#45;ad36&#45;c9cdf45621d4 -->
<g id="node1" class="node"><title>urn:uuid:4fcd5da4&#45;67af&#45;4f8d&#45;ad36&#45;c9cdf45621d4</title>
<polygon fill="black" stroke="black" points="1023.05,-265.9 1023.05,-324.3 1626.95,-324.3 1626.95,-265.9 1023.05,-265.9"/>
<text text-anchor="middle" x="1325" y="-307.7" font-family="Courier,monospace" font-weight="bold" font-size="14.00" fill="white">ohibc run 1 </text>
<text text-anchor="middle" x="1325" y="-290.9" font-family="Courier,monospace" font-weight="bold" font-size="14.00" fill="white"> /Users/slaughter/git/OHI&#45;Science/ohibc/combine_inland_and_offshore.R </text>
<text text-anchor="middle" x="1325" y="-274.1" font-family="Courier,monospace" font-weight="bold" font-size="14.00" fill="white"> urn:uuid:4fcd5da4&#45;67af&#45;4f8d&#45;ad36&#45;c9cdf45621d4</text>
</g>
<!-- 9c23639cf9ce610831cc57a78e88bd8ff8b67a46253aff39154b57b58ab60832 -->
<g id="node10" class="node"><title>9c23639cf9ce610831cc57a78e88bd8ff8b67a46253aff39154b57b58ab60832</title>
<path fill="#ffe4b5" stroke="black" d="M1102.24,-192.9C1102.24,-192.9 1547.76,-192.9 1547.76,-192.9 1553.76,-192.9 1559.76,-198.9 1559.76,-204.9 1559.76,-204.9 1559.76,-216.9 1559.76,-216.9 1559.76,-222.9 1553.76,-228.9 1547.76,-228.9 1547.76,-228.9 1102.24,-228.9 1102.24,-228.9 1096.24,-228.9 1090.24,-222.9 1090.24,-216.9 1090.24,-216.9 1090.24,-204.9 1090.24,-204.9 1090.24,-198.9 1096.24,-192.9 1102.24,-192.9"/>
<text text-anchor="middle" x="1325" y="-213.6" font-family="Courier,monospace" font-weight="bold" font-size="9.00">/Users/slaughter/git/OHI&#45;Science/ohibc/prep/lsp/vHS/output/area_protected_total.csv </text>
<text text-anchor="middle" x="1325" y="-202.8" font-family="Courier,monospace" font-weight="bold" font-size="9.00"> 9c23639cf9ce610831cc57a78e88bd8ff8b67a46253aff39154b57b58ab60832</text>
</g>
<!-- urn:uuid:4fcd5da4&#45;67af&#45;4f8d&#45;ad36&#45;c9cdf45621d4&#45;&gt;9c23639cf9ce610831cc57a78e88bd8ff8b67a46253aff39154b57b58ab60832 -->
<g id="edge18" class="edge"><title>urn:uuid:4fcd5da4&#45;67af&#45;4f8d&#45;ad36&#45;c9cdf45621d4&#45;&gt;9c23639cf9ce610831cc57a78e88bd8ff8b67a46253aff39154b57b58ab60832</title>
<path fill="none" stroke="black" d="M1325,-265.811C1325,-257.191 1325,-247.735 1325,-239.182"/>
<polygon fill="black" stroke="black" points="1328.5,-238.963 1325,-228.963 1321.5,-238.963 1328.5,-238.963"/>
</g>
<!-- urn:uuid:53c74750&#45;d660&#45;479d&#45;8e59&#45;f54068835317 -->
<g id="node2" class="node"><title>urn:uuid:53c74750&#45;d660&#45;479d&#45;8e59&#45;f54068835317</title>
<polygon fill="black" stroke="black" points="1048.24,-434.3 1048.24,-492.7 1601.76,-492.7 1601.76,-434.3 1048.24,-434.3"/>
<text text-anchor="middle" x="1325" y="-476.1" font-family="Courier,monospace" font-weight="bold" font-size="14.00" fill="white">ohibc run 1 </text>
<text text-anchor="middle" x="1325" y="-459.3" font-family="Courier,monospace" font-weight="bold" font-size="14.00" fill="white"> /Users/slaughter/git/OHI&#45;Science/ohibc/summarize_zonal_stats.R </text>
<text text-anchor="middle" x="1325" y="-442.5" font-family="Courier,monospace" font-weight="bold" font-size="14.00" fill="white"> urn:uuid:53c74750&#45;d660&#45;479d&#45;8e59&#45;f54068835317</text>
</g>
<!-- b2cba129ff4ce7c9e83c13b36dc3ff95ce18b4cb4784758b3e94478d4e999b09 -->
<g id="node17" class="node"><title>b2cba129ff4ce7c9e83c13b36dc3ff95ce18b4cb4784758b3e94478d4e999b09</title>
<path fill="#ffe4b5" stroke="black" d="M654.736,-361.3C654.736,-361.3 1073.26,-361.3 1073.26,-361.3 1079.26,-361.3 1085.26,-367.3 1085.26,-373.3 1085.26,-373.3 1085.26,-385.3 1085.26,-385.3 1085.26,-391.3 1079.26,-397.3 1073.26,-397.3 1073.26,-397.3 654.736,-397.3 654.736,-397.3 648.736,-397.3 642.736,-391.3 642.736,-385.3 642.736,-385.3 642.736,-373.3 642.736,-373.3 642.736,-367.3 648.736,-361.3 654.736,-361.3"/>
<text text-anchor="middle" x="864" y="-382" font-family="Courier,monospace" font-weight="bold" font-size="9.00">/Users/slaughter/git/OHI&#45;Science/ohibc/prep/lsp/vHS/int/area_protected_3nm.csv </text>
<text text-anchor="middle" x="864" y="-371.2" font-family="Courier,monospace" font-weight="bold" font-size="9.00"> b2cba129ff4ce7c9e83c13b36dc3ff95ce18b4cb4784758b3e94478d4e999b09</text>
</g>
<!-- urn:uuid:53c74750&#45;d660&#45;479d&#45;8e59&#45;f54068835317&#45;&gt;b2cba129ff4ce7c9e83c13b36dc3ff95ce18b4cb4784758b3e94478d4e999b09 -->
<g id="edge25" class="edge"><title>urn:uuid:53c74750&#45;d660&#45;479d&#45;8e59&#45;f54068835317&#45;&gt;b2cba129ff4ce7c9e83c13b36dc3ff95ce18b4cb4784758b3e94478d4e999b09</title>
<path fill="none" stroke="black" d="M1166.67,-434.269C1101.53,-422.653 1027.83,-409.511 969.461,-399.105"/>
<polygon fill="black" stroke="black" points="969.95,-395.637 959.491,-397.327 968.721,-402.528 969.95,-395.637"/>
</g>
<!-- d792e5fe1c3c98a24dde23e00895f627ab2c0a102f5852dcc4f02e2ba9dba1eb -->
<g id="node18" class="node"><title>d792e5fe1c3c98a24dde23e00895f627ab2c0a102f5852dcc4f02e2ba9dba1eb</title>
<path fill="#ffe4b5" stroke="black" d="M1115.74,-361.3C1115.74,-361.3 1534.26,-361.3 1534.26,-361.3 1540.26,-361.3 1546.26,-367.3 1546.26,-373.3 1546.26,-373.3 1546.26,-385.3 1546.26,-385.3 1546.26,-391.3 1540.26,-397.3 1534.26,-397.3 1534.26,-397.3 1115.74,-397.3 1115.74,-397.3 1109.74,-397.3 1103.74,-391.3 1103.74,-385.3 1103.74,-385.3 1103.74,-373.3 1103.74,-373.3 1103.74,-367.3 1109.74,-361.3 1115.74,-361.3"/>
<text text-anchor="middle" x="1325" y="-382" font-family="Courier,monospace" font-weight="bold" font-size="9.00">/Users/slaughter/git/OHI&#45;Science/ohibc/prep/lsp/vHS/int/area_protected_1km.csv </text>
<text text-anchor="middle" x="1325" y="-371.2" font-family="Courier,monospace" font-weight="bold" font-size="9.00"> d792e5fe1c3c98a24dde23e00895f627ab2c0a102f5852dcc4f02e2ba9dba1eb</text>
</g>
<!-- urn:uuid:53c74750&#45;d660&#45;479d&#45;8e59&#45;f54068835317&#45;&gt;d792e5fe1c3c98a24dde23e00895f627ab2c0a102f5852dcc4f02e2ba9dba1eb -->
<g id="edge26" class="edge"><title>urn:uuid:53c74750&#45;d660&#45;479d&#45;8e59&#45;f54068835317&#45;&gt;d792e5fe1c3c98a24dde23e00895f627ab2c0a102f5852dcc4f02e2ba9dba1eb</title>
<path fill="none" stroke="black" d="M1325,-434.211C1325,-425.591 1325,-416.135 1325,-407.582"/>
<polygon fill="black" stroke="black" points="1328.5,-407.363 1325,-397.363 1321.5,-407.363 1328.5,-407.363"/>
</g>
<!-- bc918e73e8ffd7509cfd2f5173f4d13b17e620340a6ddae47c56f3b7697be7b1 -->
<g id="node21" class="node"><title>bc918e73e8ffd7509cfd2f5173f4d13b17e620340a6ddae47c56f3b7697be7b1</title>
<path fill="#ffe4b5" stroke="black" d="M1576.44,-361.3C1576.44,-361.3 1989.56,-361.3 1989.56,-361.3 1995.56,-361.3 2001.56,-367.3 2001.56,-373.3 2001.56,-373.3 2001.56,-385.3 2001.56,-385.3 2001.56,-391.3 1995.56,-397.3 1989.56,-397.3 1989.56,-397.3 1576.44,-397.3 1576.44,-397.3 1570.44,-397.3 1564.44,-391.3 1564.44,-385.3 1564.44,-385.3 1564.44,-373.3 1564.44,-373.3 1564.44,-367.3 1570.44,-361.3 1576.44,-361.3"/>
<text text-anchor="middle" x="1783" y="-382" font-family="Courier,monospace" font-weight="bold" font-size="9.00">/Users/slaughter/git/OHI&#45;Science/ohibc/prep/lsp/vHS/int/area_protected_ws.csv </text>
<text text-anchor="middle" x="1783" y="-371.2" font-family="Courier,monospace" font-weight="bold" font-size="9.00"> bc918e73e8ffd7509cfd2f5173f4d13b17e620340a6ddae47c56f3b7697be7b1</text>
</g>
<!-- urn:uuid:53c74750&#45;d660&#45;479d&#45;8e59&#45;f54068835317&#45;&gt;bc918e73e8ffd7509cfd2f5173f4d13b17e620340a6ddae47c56f3b7697be7b1 -->
<g id="edge28" class="edge"><title>urn:uuid:53c74750&#45;d660&#45;479d&#45;8e59&#45;f54068835317&#45;&gt;bc918e73e8ffd7509cfd2f5173f4d13b17e620340a6ddae47c56f3b7697be7b1</title>
<path fill="none" stroke="black" d="M1482.3,-434.269C1547.02,-422.653 1620.24,-409.511 1678.22,-399.105"/>
<polygon fill="black" stroke="black" points="1678.91,-402.538 1688.13,-397.327 1677.67,-395.648 1678.91,-402.538"/>
</g>
<!-- urn:uuid:f5d6b763&#45;c953&#45;48f4&#45;9a39&#45;4a61f45bfdd3 -->
<g id="node3" class="node"><title>urn:uuid:f5d6b763&#45;c953&#45;48f4&#45;9a39&#45;4a61f45bfdd3</title>
<polygon fill="black" stroke="black" points="1073.44,-602.7 1073.44,-661.1 1576.56,-661.1 1576.56,-602.7 1073.44,-602.7"/>
<text text-anchor="middle" x="1325" y="-644.5" font-family="Courier,monospace" font-weight="bold" font-size="14.00" fill="white">ohibc run 1 </text>
<text text-anchor="middle" x="1325" y="-627.7" font-family="Courier,monospace" font-weight="bold" font-size="14.00" fill="white"> /Users/slaughter/git/OHI&#45;Science/ohibc/lsp_zonal_stats.R </text>
<text text-anchor="middle" x="1325" y="-610.9" font-family="Courier,monospace" font-weight="bold" font-size="14.00" fill="white"> urn:uuid:f5d6b763&#45;c953&#45;48f4&#45;9a39&#45;4a61f45bfdd3</text>
</g>
<!-- e4f5dd01c6b2e03bbe67419aa6ea9c20d938478e5523a2b6dc057413f6db2bf5 -->
<g id="node8" class="node"><title>e4f5dd01c6b2e03bbe67419aa6ea9c20d938478e5523a2b6dc057413f6db2bf5</title>
<path fill="#ffe4b5" stroke="black" d="M679.834,-529.7C679.834,-529.7 1082.17,-529.7 1082.17,-529.7 1088.17,-529.7 1094.17,-535.7 1094.17,-541.7 1094.17,-541.7 1094.17,-553.7 1094.17,-553.7 1094.17,-559.7 1088.17,-565.7 1082.17,-565.7 1082.17,-565.7 679.834,-565.7 679.834,-565.7 673.834,-565.7 667.834,-559.7 667.834,-553.7 667.834,-553.7 667.834,-541.7 667.834,-541.7 667.834,-535.7 673.834,-529.7 679.834,-529.7"/>
<text text-anchor="middle" x="881" y="-550.4" font-family="Courier,monospace" font-weight="bold" font-size="9.00">/Users/slaughter/git/OHI&#45;Science/ohibc/prep/lsp/vHS/int/zonal_stats_3nm.csv </text>
<text text-anchor="middle" x="881" y="-539.6" font-family="Courier,monospace" font-weight="bold" font-size="9.00"> e4f5dd01c6b2e03bbe67419aa6ea9c20d938478e5523a2b6dc057413f6db2bf5</text>
</g>
<!-- urn:uuid:f5d6b763&#45;c953&#45;48f4&#45;9a39&#45;4a61f45bfdd3&#45;&gt;e4f5dd01c6b2e03bbe67419aa6ea9c20d938478e5523a2b6dc057413f6db2bf5 -->
<g id="edge16" class="edge"><title>urn:uuid:f5d6b763&#45;c953&#45;48f4&#45;9a39&#45;4a61f45bfdd3&#45;&gt;e4f5dd01c6b2e03bbe67419aa6ea9c20d938478e5523a2b6dc057413f6db2bf5</title>
<path fill="none" stroke="black" d="M1172.51,-602.669C1109.9,-591.077 1039.08,-577.966 982.921,-567.569"/>
<polygon fill="black" stroke="black" points="983.44,-564.106 972.969,-565.727 982.165,-570.989 983.44,-564.106"/>
</g>
<!-- 1a8556ac0c8124864b109286a0d419b9213d0084cc831c813a5905e887c291a1 -->
<g id="node11" class="node"><title>1a8556ac0c8124864b109286a0d419b9213d0084cc831c813a5905e887c291a1</title>
<path fill="#ffe4b5" stroke="black" d="M1123.83,-529.7C1123.83,-529.7 1526.17,-529.7 1526.17,-529.7 1532.17,-529.7 1538.17,-535.7 1538.17,-541.7 1538.17,-541.7 1538.17,-553.7 1538.17,-553.7 1538.17,-559.7 1532.17,-565.7 1526.17,-565.7 1526.17,-565.7 1123.83,-565.7 1123.83,-565.7 1117.83,-565.7 1111.83,-559.7 1111.83,-553.7 1111.83,-553.7 1111.83,-541.7 1111.83,-541.7 1111.83,-535.7 1117.83,-529.7 1123.83,-529.7"/>
<text text-anchor="middle" x="1325" y="-550.4" font-family="Courier,monospace" font-weight="bold" font-size="9.00">/Users/slaughter/git/OHI&#45;Science/ohibc/prep/lsp/vHS/int/zonal_stats_1km.csv </text>
<text text-anchor="middle" x="1325" y="-539.6" font-family="Courier,monospace" font-weight="bold" font-size="9.00"> 1a8556ac0c8124864b109286a0d419b9213d0084cc831c813a5905e887c291a1</text>
</g>
<!-- urn:uuid:f5d6b763&#45;c953&#45;48f4&#45;9a39&#45;4a61f45bfdd3&#45;&gt;1a8556ac0c8124864b109286a0d419b9213d0084cc831c813a5905e887c291a1 -->
<g id="edge19" class="edge"><title>urn:uuid:f5d6b763&#45;c953&#45;48f4&#45;9a39&#45;4a61f45bfdd3&#45;&gt;1a8556ac0c8124864b109286a0d419b9213d0084cc831c813a5905e887c291a1</title>
<path fill="none" stroke="black" d="M1325,-602.611C1325,-593.991 1325,-584.535 1325,-575.982"/>
<polygon fill="black" stroke="black" points="1328.5,-575.763 1325,-565.763 1321.5,-575.763 1328.5,-575.763"/>
</g>
<!-- cf404cbfa31cc0f7f4a397632797d8aa416eb621a214569945c833594b16b3c3 -->
<g id="node13" class="node"><title>cf404cbfa31cc0f7f4a397632797d8aa416eb621a214569945c833594b16b3c3</title>
<path fill="#ffe4b5" stroke="black" d="M1568.53,-529.7C1568.53,-529.7 1965.47,-529.7 1965.47,-529.7 1971.47,-529.7 1977.47,-535.7 1977.47,-541.7 1977.47,-541.7 1977.47,-553.7 1977.47,-553.7 1977.47,-559.7 1971.47,-565.7 1965.47,-565.7 1965.47,-565.7 1568.53,-565.7 1568.53,-565.7 1562.53,-565.7 1556.53,-559.7 1556.53,-553.7 1556.53,-553.7 1556.53,-541.7 1556.53,-541.7 1556.53,-535.7 1562.53,-529.7 1568.53,-529.7"/>
<text text-anchor="middle" x="1767" y="-550.4" font-family="Courier,monospace" font-weight="bold" font-size="9.00">/Users/slaughter/git/OHI&#45;Science/ohibc/prep/lsp/vHS/int/zonal_stats_ws.csv </text>
<text text-anchor="middle" x="1767" y="-539.6" font-family="Courier,monospace" font-weight="bold" font-size="9.00"> cf404cbfa31cc0f7f4a397632797d8aa416eb621a214569945c833594b16b3c3</text>
</g>
<!-- urn:uuid:f5d6b763&#45;c953&#45;48f4&#45;9a39&#45;4a61f45bfdd3&#45;&gt;cf404cbfa31cc0f7f4a397632797d8aa416eb621a214569945c833594b16b3c3 -->
<g id="edge21" class="edge"><title>urn:uuid:f5d6b763&#45;c953&#45;48f4&#45;9a39&#45;4a61f45bfdd3&#45;&gt;cf404cbfa31cc0f7f4a397632797d8aa416eb621a214569945c833594b16b3c3</title>
<path fill="none" stroke="black" d="M1476.8,-602.669C1539.13,-591.077 1609.63,-577.966 1665.54,-567.569"/>
<polygon fill="black" stroke="black" points="1666.25,-570.996 1675.44,-565.727 1664.97,-564.114 1666.25,-570.996"/>
</g>
<!-- urn:uuid:167b320e&#45;9143&#45;4084&#45;882e&#45;7d19914767c0 -->
<g id="node4" class="node"><title>urn:uuid:167b320e&#45;9143&#45;4084&#45;882e&#45;7d19914767c0</title>
<polygon fill="black" stroke="black" points="114.045,-771.1 114.045,-829.5 675.955,-829.5 675.955,-771.1 114.045,-771.1"/>
<text text-anchor="middle" x="395" y="-812.9" font-family="Courier,monospace" font-weight="bold" font-size="14.00" fill="white">ohibc run 1 </text>
<text text-anchor="middle" x="395" y="-796.1" font-family="Courier,monospace" font-weight="bold" font-size="14.00" fill="white"> /Users/slaughter/git/OHI&#45;Science/ohibc/setup_watershed_raster.R </text>
<text text-anchor="middle" x="395" y="-779.3" font-family="Courier,monospace" font-weight="bold" font-size="14.00" fill="white"> urn:uuid:167b320e&#45;9143&#45;4084&#45;882e&#45;7d19914767c0</text>
</g>
<!-- 98c477e500188e52b2399aec3cc8d1cecefa6315c5ed6bf6f36f8252e7c6103c -->
<g id="node14" class="node"><title>98c477e500188e52b2399aec3cc8d1cecefa6315c5ed6bf6f36f8252e7c6103c</title>
<path fill="#ffe4b5" stroke="black" d="M36.0405,-698.1C36.0405,-698.1 513.959,-698.1 513.959,-698.1 519.959,-698.1 525.959,-704.1 525.959,-710.1 525.959,-710.1 525.959,-722.1 525.959,-722.1 525.959,-728.1 519.959,-734.1 513.959,-734.1 513.959,-734.1 36.0405,-734.1 36.0405,-734.1 30.0405,-734.1 24.0405,-728.1 24.0405,-722.1 24.0405,-722.1 24.0405,-710.1 24.0405,-710.1 24.0405,-704.1 30.0405,-698.1 36.0405,-698.1"/>
<text text-anchor="middle" x="275" y="-718.8" font-family="Courier,monospace" font-weight="bold" font-size="9.00">/Users/slaughter/git/OHI&#45;Science/ohibc/prep/lsp/vHS/spatial/howe_sound_watershed_500m.tif </text>
<text text-anchor="middle" x="275" y="-708" font-family="Courier,monospace" font-weight="bold" font-size="9.00"> 98c477e500188e52b2399aec3cc8d1cecefa6315c5ed6bf6f36f8252e7c6103c</text>
</g>
<!-- urn:uuid:167b320e&#45;9143&#45;4084&#45;882e&#45;7d19914767c0&#45;&gt;98c477e500188e52b2399aec3cc8d1cecefa6315c5ed6bf6f36f8252e7c6103c -->
<g id="edge22" class="edge"><title>urn:uuid:167b320e&#45;9143&#45;4084&#45;882e&#45;7d19914767c0&#45;&gt;98c477e500188e52b2399aec3cc8d1cecefa6315c5ed6bf6f36f8252e7c6103c</title>
<path fill="none" stroke="black" d="M353.703,-771.011C338.881,-760.858 322.367,-749.546 308.309,-739.916"/>
<polygon fill="black" stroke="black" points="310.138,-736.927 299.91,-734.163 306.182,-742.702 310.138,-736.927"/>
</g>
<!-- urn:uuid:3d6c8ed0&#45;83c0&#45;4b12&#45;9154&#45;2804f4317598 -->
<g id="node5" class="node"><title>urn:uuid:3d6c8ed0&#45;83c0&#45;4b12&#45;9154&#45;2804f4317598</title>
<polygon fill="black" stroke="black" points="874.444,-771.1 874.444,-829.5 1419.56,-829.5 1419.56,-771.1 874.444,-771.1"/>
<text text-anchor="middle" x="1147" y="-812.9" font-family="Courier,monospace" font-weight="bold" font-size="14.00" fill="white">ohibc run 1 </text>
<text text-anchor="middle" x="1147" y="-796.1" font-family="Courier,monospace" font-weight="bold" font-size="14.00" fill="white"> /Users/slaughter/git/OHI&#45;Science/ohibc/get_analysis_rasters.R </text>
<text text-anchor="middle" x="1147" y="-779.3" font-family="Courier,monospace" font-weight="bold" font-size="14.00" fill="white"> urn:uuid:3d6c8ed0&#45;83c0&#45;4b12&#45;9154&#45;2804f4317598</text>
</g>
<!-- 5ba2c041bacec6ae9b550d578fb0667523ab9d610f043b13832a0ae6e2c84e10 -->
<g id="node9" class="node"><title>5ba2c041bacec6ae9b550d578fb0667523ab9d610f043b13832a0ae6e2c84e10</title>
<path fill="#ffe4b5" stroke="black" d="M555.641,-698.1C555.641,-698.1 1044.36,-698.1 1044.36,-698.1 1050.36,-698.1 1056.36,-704.1 1056.36,-710.1 1056.36,-710.1 1056.36,-722.1 1056.36,-722.1 1056.36,-728.1 1050.36,-734.1 1044.36,-734.1 1044.36,-734.1 555.641,-734.1 555.641,-734.1 549.641,-734.1 543.641,-728.1 543.641,-722.1 543.641,-722.1 543.641,-710.1 543.641,-710.1 543.641,-704.1 549.641,-698.1 555.641,-698.1"/>
<text text-anchor="middle" x="800" y="-718.8" font-family="Courier,monospace" font-weight="bold" font-size="9.00">/Users/slaughter/git/OHI&#45;Science/ohibc/prep/lsp/vHS/spatial/hs_offshore_3nm_raster_500m.tif </text>
<text text-anchor="middle" x="800" y="-708" font-family="Courier,monospace" font-weight="bold" font-size="9.00"> 5ba2c041bacec6ae9b550d578fb0667523ab9d610f043b13832a0ae6e2c84e10</text>
</g>
<!-- urn:uuid:3d6c8ed0&#45;83c0&#45;4b12&#45;9154&#45;2804f4317598&#45;&gt;5ba2c041bacec6ae9b550d578fb0667523ab9d610f043b13832a0ae6e2c84e10 -->
<g id="edge17" class="edge"><title>urn:uuid:3d6c8ed0&#45;83c0&#45;4b12&#45;9154&#45;2804f4317598&#45;&gt;5ba2c041bacec6ae9b550d578fb0667523ab9d610f043b13832a0ae6e2c84e10</title>
<path fill="none" stroke="black" d="M1027.58,-771.011C979.476,-759.616 925.206,-746.76 881.73,-736.461"/>
<polygon fill="black" stroke="black" points="882.313,-733.002 871.775,-734.103 880.699,-739.814 882.313,-733.002"/>
</g>
<!-- 85130403e425f79e80e52e3fcaa9c116f5cc0b01c4aa7ea4078c21c08d6ac2fd -->
<g id="node12" class="node"><title>85130403e425f79e80e52e3fcaa9c116f5cc0b01c4aa7ea4078c21c08d6ac2fd</title>
<path fill="#ffe4b5" stroke="black" d="M1086.04,-698.1C1086.04,-698.1 1563.96,-698.1 1563.96,-698.1 1569.96,-698.1 1575.96,-704.1 1575.96,-710.1 1575.96,-710.1 1575.96,-722.1 1575.96,-722.1 1575.96,-728.1 1569.96,-734.1 1563.96,-734.1 1563.96,-734.1 1086.04,-734.1 1086.04,-734.1 1080.04,-734.1 1074.04,-728.1 1074.04,-722.1 1074.04,-722.1 1074.04,-710.1 1074.04,-710.1 1074.04,-704.1 1080.04,-698.1 1086.04,-698.1"/>
<text text-anchor="middle" x="1325" y="-718.8" font-family="Courier,monospace" font-weight="bold" font-size="9.00">/Users/slaughter/git/OHI&#45;Science/ohibc/prep/lsp/vHS/spatial/hs_inland_1km_raster_500m.tif </text>
<text text-anchor="middle" x="1325" y="-708" font-family="Courier,monospace" font-weight="bold" font-size="9.00"> 85130403e425f79e80e52e3fcaa9c116f5cc0b01c4aa7ea4078c21c08d6ac2fd</text>
</g>
<!-- urn:uuid:3d6c8ed0&#45;83c0&#45;4b12&#45;9154&#45;2804f4317598&#45;&gt;85130403e425f79e80e52e3fcaa9c116f5cc0b01c4aa7ea4078c21c08d6ac2fd -->
<g id="edge20" class="edge"><title>urn:uuid:3d6c8ed0&#45;83c0&#45;4b12&#45;9154&#45;2804f4317598&#45;&gt;85130403e425f79e80e52e3fcaa9c116f5cc0b01c4aa7ea4078c21c08d6ac2fd</title>
<path fill="none" stroke="black" d="M1208.26,-771.011C1231.38,-760.332 1257.29,-748.369 1278.81,-738.431"/>
<polygon fill="black" stroke="black" points="1280.44,-741.533 1288.05,-734.163 1277.5,-735.178 1280.44,-741.533"/>
</g>
<!-- urn:uuid:98b5270a&#45;1577&#45;4865&#45;970f&#45;17c6b0065374 -->
<g id="node6" class="node"><title>urn:uuid:98b5270a&#45;1577&#45;4865&#45;970f&#45;17c6b0065374</title>
<polygon fill="black" stroke="black" points="1527.45,-771.1 1527.45,-829.5 2114.55,-829.5 2114.55,-771.1 1527.45,-771.1"/>
<text text-anchor="middle" x="1821" y="-812.9" font-family="Courier,monospace" font-weight="bold" font-size="14.00" fill="white">ohibc run 1 </text>
<text text-anchor="middle" x="1821" y="-796.1" font-family="Courier,monospace" font-weight="bold" font-size="14.00" fill="white"> /Users/slaughter/git/OHI&#45;Science/ohibc/rasterize_HS_WDPA_and_PEP.R </text>
<text text-anchor="middle" x="1821" y="-779.3" font-family="Courier,monospace" font-weight="bold" font-size="14.00" fill="white"> urn:uuid:98b5270a&#45;1577&#45;4865&#45;970f&#45;17c6b0065374</text>
</g>
<!-- 93cca45a93cbf195aac755354840087590d4788e06768d7db90481ef9b5d9bc3 -->
<g id="node15" class="node"><title>93cca45a93cbf195aac755354840087590d4788e06768d7db90481ef9b5d9bc3</title>
<path fill="#ffe4b5" stroke="black" d="M1606.34,-698.1C1606.34,-698.1 2035.66,-698.1 2035.66,-698.1 2041.66,-698.1 2047.66,-704.1 2047.66,-710.1 2047.66,-710.1 2047.66,-722.1 2047.66,-722.1 2047.66,-728.1 2041.66,-734.1 2035.66,-734.1 2035.66,-734.1 1606.34,-734.1 1606.34,-734.1 1600.34,-734.1 1594.34,-728.1 1594.34,-722.1 1594.34,-722.1 1594.34,-710.1 1594.34,-710.1 1594.34,-704.1 1600.34,-698.1 1606.34,-698.1"/>
<text text-anchor="middle" x="1821" y="-718.8" font-family="Courier,monospace" font-weight="bold" font-size="9.00">/Users/slaughter/git/OHI&#45;Science/ohibc/prep/lsp/vHS/spatial/hs_pep_rast_500m.tif </text>
<text text-anchor="middle" x="1821" y="-708" font-family="Courier,monospace" font-weight="bold" font-size="9.00"> 93cca45a93cbf195aac755354840087590d4788e06768d7db90481ef9b5d9bc3</text>
</g>
<!-- urn:uuid:98b5270a&#45;1577&#45;4865&#45;970f&#45;17c6b0065374&#45;&gt;93cca45a93cbf195aac755354840087590d4788e06768d7db90481ef9b5d9bc3 -->
<g id="edge23" class="edge"><title>urn:uuid:98b5270a&#45;1577&#45;4865&#45;970f&#45;17c6b0065374&#45;&gt;93cca45a93cbf195aac755354840087590d4788e06768d7db90481ef9b5d9bc3</title>
<path fill="none" stroke="black" d="M1821,-771.011C1821,-762.391 1821,-752.935 1821,-744.382"/>
<polygon fill="black" stroke="black" points="1824.5,-744.163 1821,-734.163 1817.5,-744.163 1824.5,-744.163"/>
</g>
<!-- b03456556a5921cabea227978673e751441b2255f877cb183d4eeb1475105593 -->
<g id="node16" class="node"><title>b03456556a5921cabea227978673e751441b2255f877cb183d4eeb1475105593</title>
<path fill="#ffe4b5" stroke="black" d="M2077.64,-698.1C2077.64,-698.1 2512.36,-698.1 2512.36,-698.1 2518.36,-698.1 2524.36,-704.1 2524.36,-710.1 2524.36,-710.1 2524.36,-722.1 2524.36,-722.1 2524.36,-728.1 2518.36,-734.1 2512.36,-734.1 2512.36,-734.1 2077.64,-734.1 2077.64,-734.1 2071.64,-734.1 2065.64,-728.1 2065.64,-722.1 2065.64,-722.1 2065.64,-710.1 2065.64,-710.1 2065.64,-704.1 2071.64,-698.1 2077.64,-698.1"/>
<text text-anchor="middle" x="2295" y="-718.8" font-family="Courier,monospace" font-weight="bold" font-size="9.00">/Users/slaughter/git/OHI&#45;Science/ohibc/prep/lsp/vHS/spatial/hs_wdpa_rast_500m.tif </text>
<text text-anchor="middle" x="2295" y="-708" font-family="Courier,monospace" font-weight="bold" font-size="9.00"> b03456556a5921cabea227978673e751441b2255f877cb183d4eeb1475105593</text>
</g>
<!-- urn:uuid:98b5270a&#45;1577&#45;4865&#45;970f&#45;17c6b0065374&#45;&gt;b03456556a5921cabea227978673e751441b2255f877cb183d4eeb1475105593 -->
<g id="edge24" class="edge"><title>urn:uuid:98b5270a&#45;1577&#45;4865&#45;970f&#45;17c6b0065374&#45;&gt;b03456556a5921cabea227978673e751441b2255f877cb183d4eeb1475105593</title>
<path fill="none" stroke="black" d="M1983.79,-771.069C2050.91,-759.429 2126.87,-746.257 2186.94,-735.84"/>
<polygon fill="black" stroke="black" points="2187.56,-739.284 2196.82,-734.127 2186.37,-732.387 2187.56,-739.284"/>
</g>
<!-- urn:uuid:53ada2f7&#45;5e25&#45;4845&#45;883e&#45;1049a90c321c -->
<g id="node7" class="node"><title>urn:uuid:53ada2f7&#45;5e25&#45;4845&#45;883e&#45;1049a90c321c</title>
<polygon fill="black" stroke="black" points="997.853,-97.5 997.853,-155.9 1652.15,-155.9 1652.15,-97.5 997.853,-97.5"/>
<text text-anchor="middle" x="1325" y="-139.3" font-family="Courier,monospace" font-weight="bold" font-size="14.00" fill="white">ohibc run 1 </text>
<text text-anchor="middle" x="1325" y="-122.5" font-family="Courier,monospace" font-weight="bold" font-size="14.00" fill="white"> /Users/slaughter/git/OHI&#45;Science/ohibc/estimate_status_and_trend_by_year.R </text>
<text text-anchor="middle" x="1325" y="-105.7" font-family="Courier,monospace" font-weight="bold" font-size="14.00" fill="white"> urn:uuid:53ada2f7&#45;5e25&#45;4845&#45;883e&#45;1049a90c321c</text>
</g>
<!-- 510e09f1f3ef8fcbc38c43a40e1698cea99ebea15fd64a26339169ba6ce238fc -->
<g id="node20" class="node"><title>510e09f1f3ef8fcbc38c43a40e1698cea99ebea15fd64a26339169ba6ce238fc</title>
<path fill="#ffe4b5" stroke="black" d="M1129.23,-24.5C1129.23,-24.5 1520.77,-24.5 1520.77,-24.5 1526.77,-24.5 1532.77,-30.5 1532.77,-36.5 1532.77,-36.5 1532.77,-48.5 1532.77,-48.5 1532.77,-54.5 1526.77,-60.5 1520.77,-60.5 1520.77,-60.5 1129.23,-60.5 1129.23,-60.5 1123.23,-60.5 1117.23,-54.5 1117.23,-48.5 1117.23,-48.5 1117.23,-36.5 1117.23,-36.5 1117.23,-30.5 1123.23,-24.5 1129.23,-24.5"/>
<text text-anchor="middle" x="1325" y="-45.2" font-family="Courier,monospace" font-weight="bold" font-size="9.00">/Users/slaughter/git/OHI&#45;Science/ohibc/prep/lsp/vHS/output/lsp_status.csv </text>
<text text-anchor="middle" x="1325" y="-34.4" font-family="Courier,monospace" font-weight="bold" font-size="9.00"> 510e09f1f3ef8fcbc38c43a40e1698cea99ebea15fd64a26339169ba6ce238fc</text>
</g>
<!-- urn:uuid:53ada2f7&#45;5e25&#45;4845&#45;883e&#45;1049a90c321c&#45;&gt;510e09f1f3ef8fcbc38c43a40e1698cea99ebea15fd64a26339169ba6ce238fc -->
<g id="edge27" class="edge"><title>urn:uuid:53ada2f7&#45;5e25&#45;4845&#45;883e&#45;1049a90c321c&#45;&gt;510e09f1f3ef8fcbc38c43a40e1698cea99ebea15fd64a26339169ba6ce238fc</title>
<path fill="none" stroke="black" d="M1325,-97.4114C1325,-88.7909 1325,-79.3349 1325,-70.7823"/>
<polygon fill="black" stroke="black" points="1328.5,-70.563 1325,-60.5631 1321.5,-70.5631 1328.5,-70.563"/>
</g>
<!-- e4f5dd01c6b2e03bbe67419aa6ea9c20d938478e5523a2b6dc057413f6db2bf5&#45;&gt;urn:uuid:53c74750&#45;d660&#45;479d&#45;8e59&#45;f54068835317 -->
<g id="edge14" class="edge"><title>e4f5dd01c6b2e03bbe67419aa6ea9c20d938478e5523a2b6dc057413f6db2bf5&#45;&gt;urn:uuid:53c74750&#45;d660&#45;479d&#45;8e59&#45;f54068835317</title>
<path fill="none" stroke="black" d="M972.997,-529.668C1027.61,-519.558 1098.42,-506.447 1162.2,-494.639"/>
<polygon fill="black" stroke="black" points="1163.18,-498.018 1172.38,-492.756 1161.91,-491.135 1163.18,-498.018"/>
</g>
<!-- 5ba2c041bacec6ae9b550d578fb0667523ab9d610f043b13832a0ae6e2c84e10&#45;&gt;urn:uuid:f5d6b763&#45;c953&#45;48f4&#45;9a39&#45;4a61f45bfdd3 -->
<g id="edge15" class="edge"><title>5ba2c041bacec6ae9b550d578fb0667523ab9d610f043b13832a0ae6e2c84e10&#45;&gt;urn:uuid:f5d6b763&#45;c953&#45;48f4&#45;9a39&#45;4a61f45bfdd3</title>
<path fill="none" stroke="black" d="M908.78,-698.068C973.957,-687.863 1058.65,-674.602 1134.62,-662.708"/>
<polygon fill="black" stroke="black" points="1135.46,-666.12 1144.79,-661.115 1134.37,-659.204 1135.46,-666.12"/>
</g>
<!-- 9c23639cf9ce610831cc57a78e88bd8ff8b67a46253aff39154b57b58ab60832&#45;&gt;urn:uuid:53ada2f7&#45;5e25&#45;4845&#45;883e&#45;1049a90c321c -->
<g id="edge1" class="edge"><title>9c23639cf9ce610831cc57a78e88bd8ff8b67a46253aff39154b57b58ab60832&#45;&gt;urn:uuid:53ada2f7&#45;5e25&#45;4845&#45;883e&#45;1049a90c321c</title>
<path fill="none" stroke="black" d="M1325,-192.868C1325,-185.063 1325,-175.471 1325,-166.07"/>
<polygon fill="black" stroke="black" points="1328.5,-166.037 1325,-156.037 1321.5,-166.037 1328.5,-166.037"/>
</g>
<!-- 1a8556ac0c8124864b109286a0d419b9213d0084cc831c813a5905e887c291a1&#45;&gt;urn:uuid:53c74750&#45;d660&#45;479d&#45;8e59&#45;f54068835317 -->
<g id="edge2" class="edge"><title>1a8556ac0c8124864b109286a0d419b9213d0084cc831c813a5905e887c291a1&#45;&gt;urn:uuid:53c74750&#45;d660&#45;479d&#45;8e59&#45;f54068835317</title>
<path fill="none" stroke="black" d="M1325,-529.668C1325,-521.863 1325,-512.271 1325,-502.87"/>
<polygon fill="black" stroke="black" points="1328.5,-502.837 1325,-492.837 1321.5,-502.837 1328.5,-502.837"/>
</g>
<!-- 85130403e425f79e80e52e3fcaa9c116f5cc0b01c4aa7ea4078c21c08d6ac2fd&#45;&gt;urn:uuid:f5d6b763&#45;c953&#45;48f4&#45;9a39&#45;4a61f45bfdd3 -->
<g id="edge3" class="edge"><title>85130403e425f79e80e52e3fcaa9c116f5cc0b01c4aa7ea4078c21c08d6ac2fd&#45;&gt;urn:uuid:f5d6b763&#45;c953&#45;48f4&#45;9a39&#45;4a61f45bfdd3</title>
<path fill="none" stroke="black" d="M1325,-698.068C1325,-690.263 1325,-680.671 1325,-671.27"/>
<polygon fill="black" stroke="black" points="1328.5,-671.237 1325,-661.237 1321.5,-671.237 1328.5,-671.237"/>
</g>
<!-- cf404cbfa31cc0f7f4a397632797d8aa416eb621a214569945c833594b16b3c3&#45;&gt;urn:uuid:53c74750&#45;d660&#45;479d&#45;8e59&#45;f54068835317 -->
<g id="edge4" class="edge"><title>cf404cbfa31cc0f7f4a397632797d8aa416eb621a214569945c833594b16b3c3&#45;&gt;urn:uuid:53c74750&#45;d660&#45;479d&#45;8e59&#45;f54068835317</title>
<path fill="none" stroke="black" d="M1675.42,-529.668C1621.05,-519.558 1550.56,-506.447 1487.06,-494.639"/>
<polygon fill="black" stroke="black" points="1487.41,-491.143 1476.93,-492.756 1486.13,-498.025 1487.41,-491.143"/>
</g>
<!-- 98c477e500188e52b2399aec3cc8d1cecefa6315c5ed6bf6f36f8252e7c6103c&#45;&gt;urn:uuid:f5d6b763&#45;c953&#45;48f4&#45;9a39&#45;4a61f45bfdd3 -->
<g id="edge5" class="edge"><title>98c477e500188e52b2399aec3cc8d1cecefa6315c5ed6bf6f36f8252e7c6103c&#45;&gt;urn:uuid:f5d6b763&#45;c953&#45;48f4&#45;9a39&#45;4a61f45bfdd3</title>
<path fill="none" stroke="black" d="M492.242,-698.093C658.092,-685.109 887.279,-667.167 1063.24,-653.392"/>
<polygon fill="black" stroke="black" points="1063.73,-656.864 1073.43,-652.595 1063.18,-649.886 1063.73,-656.864"/>
</g>
<!-- 93cca45a93cbf195aac755354840087590d4788e06768d7db90481ef9b5d9bc3&#45;&gt;urn:uuid:f5d6b763&#45;c953&#45;48f4&#45;9a39&#45;4a61f45bfdd3 -->
<g id="edge6" class="edge"><title>93cca45a93cbf195aac755354840087590d4788e06768d7db90481ef9b5d9bc3&#45;&gt;urn:uuid:f5d6b763&#45;c953&#45;48f4&#45;9a39&#45;4a61f45bfdd3</title>
<path fill="none" stroke="black" d="M1718.23,-698.068C1656.85,-687.895 1577.14,-674.685 1505.54,-662.821"/>
<polygon fill="black" stroke="black" points="1505.93,-659.338 1495.5,-661.156 1504.79,-666.244 1505.93,-659.338"/>
</g>
<!-- b03456556a5921cabea227978673e751441b2255f877cb183d4eeb1475105593&#45;&gt;urn:uuid:f5d6b763&#45;c953&#45;48f4&#45;9a39&#45;4a61f45bfdd3 -->
<g id="edge7" class="edge"><title>b03456556a5921cabea227978673e751441b2255f877cb183d4eeb1475105593&#45;&gt;urn:uuid:f5d6b763&#45;c953&#45;48f4&#45;9a39&#45;4a61f45bfdd3</title>
<path fill="none" stroke="black" d="M2094.31,-698.093C1947.3,-685.635 1746.43,-668.613 1586.81,-655.086"/>
<polygon fill="black" stroke="black" points="1587.1,-651.598 1576.84,-654.241 1586.5,-658.573 1587.1,-651.598"/>
</g>
<!-- b2cba129ff4ce7c9e83c13b36dc3ff95ce18b4cb4784758b3e94478d4e999b09&#45;&gt;urn:uuid:4fcd5da4&#45;67af&#45;4f8d&#45;ad36&#45;c9cdf45621d4 -->
<g id="edge8" class="edge"><title>b2cba129ff4ce7c9e83c13b36dc3ff95ce18b4cb4784758b3e94478d4e999b09&#45;&gt;urn:uuid:4fcd5da4&#45;67af&#45;4f8d&#45;ad36&#45;c9cdf45621d4</title>
<path fill="none" stroke="black" d="M959.519,-361.268C1016.34,-351.137 1090.05,-337.993 1156.38,-326.166"/>
<polygon fill="black" stroke="black" points="1157.3,-329.557 1166.53,-324.356 1156.07,-322.666 1157.3,-329.557"/>
</g>
<!-- d792e5fe1c3c98a24dde23e00895f627ab2c0a102f5852dcc4f02e2ba9dba1eb&#45;&gt;urn:uuid:4fcd5da4&#45;67af&#45;4f8d&#45;ad36&#45;c9cdf45621d4 -->
<g id="edge9" class="edge"><title>d792e5fe1c3c98a24dde23e00895f627ab2c0a102f5852dcc4f02e2ba9dba1eb&#45;&gt;urn:uuid:4fcd5da4&#45;67af&#45;4f8d&#45;ad36&#45;c9cdf45621d4</title>
<path fill="none" stroke="black" d="M1325,-361.268C1325,-353.463 1325,-343.871 1325,-334.47"/>
<polygon fill="black" stroke="black" points="1328.5,-334.437 1325,-324.437 1321.5,-334.437 1328.5,-334.437"/>
</g>
<!-- d77ded5e2122bfb7ccdd9a65fae815516063a2249b3173f188e00dc850cefc9c -->
<g id="node19" class="node"><title>d77ded5e2122bfb7ccdd9a65fae815516063a2249b3173f188e00dc850cefc9c</title>
<path fill="#ffe4b5" stroke="black" d="M921.538,-866.5C921.538,-866.5 1372.46,-866.5 1372.46,-866.5 1378.46,-866.5 1384.46,-872.5 1384.46,-878.5 1384.46,-878.5 1384.46,-890.5 1384.46,-890.5 1384.46,-896.5 1378.46,-902.5 1372.46,-902.5 1372.46,-902.5 921.538,-902.5 921.538,-902.5 915.538,-902.5 909.538,-896.5 909.538,-890.5 909.538,-890.5 909.538,-878.5 909.538,-878.5 909.538,-872.5 915.538,-866.5 921.538,-866.5"/>
<text text-anchor="middle" x="1147" y="-887.2" font-family="Courier,monospace" font-weight="bold" font-size="9.00">/Users/slaughter/git/OHI&#45;Science/ohibc/prep/spatial/raster/ohibc_rgn_raster_500m.tif </text>
<text text-anchor="middle" x="1147" y="-876.4" font-family="Courier,monospace" font-weight="bold" font-size="9.00"> d77ded5e2122bfb7ccdd9a65fae815516063a2249b3173f188e00dc850cefc9c</text>
</g>
<!-- d77ded5e2122bfb7ccdd9a65fae815516063a2249b3173f188e00dc850cefc9c&#45;&gt;urn:uuid:167b320e&#45;9143&#45;4084&#45;882e&#45;7d19914767c0 -->
<g id="edge12" class="edge"><title>d77ded5e2122bfb7ccdd9a65fae815516063a2249b3173f188e00dc850cefc9c&#45;&gt;urn:uuid:167b320e&#45;9143&#45;4084&#45;882e&#45;7d19914767c0</title>
<path fill="none" stroke="black" d="M991.185,-866.468C896.589,-856.128 773.284,-842.65 663.377,-830.636"/>
<polygon fill="black" stroke="black" points="663.445,-827.123 653.124,-829.515 662.684,-834.081 663.445,-827.123"/>
</g>
<!-- d77ded5e2122bfb7ccdd9a65fae815516063a2249b3173f188e00dc850cefc9c&#45;&gt;urn:uuid:3d6c8ed0&#45;83c0&#45;4b12&#45;9154&#45;2804f4317598 -->
<g id="edge11" class="edge"><title>d77ded5e2122bfb7ccdd9a65fae815516063a2249b3173f188e00dc850cefc9c&#45;&gt;urn:uuid:3d6c8ed0&#45;83c0&#45;4b12&#45;9154&#45;2804f4317598</title>
<path fill="none" stroke="black" d="M1147,-866.468C1147,-858.663 1147,-849.071 1147,-839.67"/>
<polygon fill="black" stroke="black" points="1150.5,-839.637 1147,-829.637 1143.5,-839.637 1150.5,-839.637"/>
</g>
<!-- d77ded5e2122bfb7ccdd9a65fae815516063a2249b3173f188e00dc850cefc9c&#45;&gt;urn:uuid:98b5270a&#45;1577&#45;4865&#45;970f&#45;17c6b0065374 -->
<g id="edge10" class="edge"><title>d77ded5e2122bfb7ccdd9a65fae815516063a2249b3173f188e00dc850cefc9c&#45;&gt;urn:uuid:98b5270a&#45;1577&#45;4865&#45;970f&#45;17c6b0065374</title>
<path fill="none" stroke="black" d="M1286.65,-866.468C1371.18,-856.159 1481.29,-842.731 1579.57,-830.745"/>
<polygon fill="black" stroke="black" points="1580.15,-834.2 1589.65,-829.515 1579.3,-827.252 1580.15,-834.2"/>
</g>
<!-- bc918e73e8ffd7509cfd2f5173f4d13b17e620340a6ddae47c56f3b7697be7b1&#45;&gt;urn:uuid:4fcd5da4&#45;67af&#45;4f8d&#45;ad36&#45;c9cdf45621d4 -->
<g id="edge13" class="edge"><title>bc918e73e8ffd7509cfd2f5173f4d13b17e620340a6ddae47c56f3b7697be7b1&#45;&gt;urn:uuid:4fcd5da4&#45;67af&#45;4f8d&#45;ad36&#45;c9cdf45621d4</title>
<path fill="none" stroke="black" d="M1688.1,-361.268C1631.65,-351.137 1558.42,-337.993 1492.52,-326.166"/>
<polygon fill="black" stroke="black" points="1492.9,-322.677 1482.43,-324.356 1491.66,-329.567 1492.9,-322.677"/>
</g>
</g>
</svg>
