<?xml version="1.0" encoding="UTF-8" standalone="no"?>
<!DOCTYPE svg PUBLIC "-//W3C//DTD SVG 1.1//EN"
 "http://www.w3.org/Graphics/SVG/1.1/DTD/svg11.dtd">
<!-- Generated by graphviz version 2.38.0 (20140413.2041)
 -->
<!-- Title: yw_data_view Pages: 1 -->
<svg width="542pt" height="374pt"
 viewBox="0.00 0.00 542.00 373.60" xmlns="http://www.w3.org/2000/svg" xmlns:xlink="http://www.w3.org/1999/xlink">
<g id="graph0" class="graph" transform="scale(1 1) rotate(0) translate(4 369.6)">
<title>yw_data_view</title>
<polygon fill="white" stroke="none" points="-4,4 -4,-369.6 538,-369.6 538,4 -4,4"/>
<text text-anchor="middle" x="267" y="-345.4" font-family="Courier,monospace" font-size="18.00">setup_BC_WDPA_polygons</text>
<g id="clust1" class="cluster"><title>cluster_workflow</title>
<polygon fill="none" stroke="black" stroke-width="2" points="8,-62 8,-274 526,-274 526,-62 8,-62"/>
</g>
<g id="clust2" class="cluster"><title>cluster_workflow_inner</title>
<polygon fill="none" stroke="white" stroke-width="2" points="16,-70 16,-266 518,-266 518,-70 16,-70"/>
</g>
<g id="clust3" class="cluster"><title>cluster_inflows</title>
<polygon fill="none" stroke="white" stroke-width="2" points="244,-282 244,-328 290,-328 290,-282 244,-282"/>
</g>
<g id="clust4" class="cluster"><title>cluster_inflows_inner</title>
<polygon fill="none" stroke="white" stroke-width="2" points="252,-290 252,-320 282,-320 282,-290 252,-290"/>
</g>
<g id="clust5" class="cluster"><title>cluster_outflows</title>
<polygon fill="none" stroke="white" stroke-width="2" points="244,-8 244,-54 290,-54 290,-8 244,-8"/>
</g>
<g id="clust6" class="cluster"><title>cluster_outflows_inner</title>
<polygon fill="none" stroke="white" stroke-width="2" points="252,-16 252,-46 282,-46 282,-16 252,-16"/>
</g>
<!-- create_BC_specific_polygon_subset_of_WDPA_global_dataset -->
<g id="node1" class="node"><title>create_BC_specific_polygon_subset_of_WDPA_global_dataset</title>
<polygon fill="#ccffcc" stroke="black" points="510.322,-186 23.6783,-186 23.6783,-150 510.322,-150 510.322,-186"/>
<text text-anchor="middle" x="267" y="-163.8" font-family="Courier,monospace" font-size="14.00">create_BC_specific_polygon_subset_of_WDPA_global_dataset</text>
</g>
<!-- BC_specific_polygon_subset_of_WDPA_global_dataset -->
<g id="node3" class="node"><title>BC_specific_polygon_subset_of_WDPA_global_dataset</title>
<path fill="#ffffcc" stroke="black" d="M436.771,-114C436.771,-114 97.2287,-114 97.2287,-114 91.2287,-114 85.2287,-108 85.2287,-102 85.2287,-102 85.2287,-90 85.2287,-90 85.2287,-84 91.2287,-78 97.2287,-78 97.2287,-78 436.771,-78 436.771,-78 442.771,-78 448.771,-84 448.771,-90 448.771,-90 448.771,-102 448.771,-102 448.771,-108 442.771,-114 436.771,-114"/>
<text text-anchor="middle" x="267" y="-91.8" font-family="Helvetica,sans-Serif" font-size="14.00">BC_specific_polygon_subset_of_WDPA_global_dataset</text>
</g>
<!-- create_BC_specific_polygon_subset_of_WDPA_global_dataset&#45;&gt;BC_specific_polygon_subset_of_WDPA_global_dataset -->
<g id="edge1" class="edge"><title>create_BC_specific_polygon_subset_of_WDPA_global_dataset&#45;&gt;BC_specific_polygon_subset_of_WDPA_global_dataset</title>
<path fill="none" stroke="black" d="M267,-149.697C267,-141.983 267,-132.712 267,-124.112"/>
<polygon fill="black" stroke="black" points="270.5,-124.104 267,-114.104 263.5,-124.104 270.5,-124.104"/>
</g>
<!-- original_WDPA_MPA_global_dataset -->
<g id="node2" class="node"><title>original_WDPA_MPA_global_dataset</title>
<path fill="#ffffcc" stroke="black" d="M378.825,-258C378.825,-258 155.175,-258 155.175,-258 149.175,-258 143.175,-252 143.175,-246 143.175,-246 143.175,-234 143.175,-234 143.175,-228 149.175,-222 155.175,-222 155.175,-222 378.825,-222 378.825,-222 384.825,-222 390.825,-228 390.825,-234 390.825,-234 390.825,-246 390.825,-246 390.825,-252 384.825,-258 378.825,-258"/>
<text text-anchor="middle" x="267" y="-235.8" font-family="Helvetica,sans-Serif" font-size="14.00">original_WDPA_MPA_global_dataset</text>
</g>
<!-- original_WDPA_MPA_global_dataset&#45;&gt;create_BC_specific_polygon_subset_of_WDPA_global_dataset -->
<g id="edge2" class="edge"><title>original_WDPA_MPA_global_dataset&#45;&gt;create_BC_specific_polygon_subset_of_WDPA_global_dataset</title>
<path fill="none" stroke="black" d="M267,-221.697C267,-213.983 267,-204.712 267,-196.112"/>
<polygon fill="black" stroke="black" points="270.5,-196.104 267,-186.104 263.5,-196.104 270.5,-196.104"/>
</g>
<!-- BC_specific_polygon_subset_of_WDPA_global_dataset_outflow -->
<g id="node5" class="node"><title>BC_specific_polygon_subset_of_WDPA_global_dataset_outflow</title>
<ellipse fill="none" stroke="black" cx="267" cy="-31" rx="7" ry="7"/>
</g>
<!-- BC_specific_polygon_subset_of_WDPA_global_dataset&#45;&gt;BC_specific_polygon_subset_of_WDPA_global_dataset_outflow -->
<g id="edge4" class="edge"><title>BC_specific_polygon_subset_of_WDPA_global_dataset&#45;&gt;BC_specific_polygon_subset_of_WDPA_global_dataset_outflow</title>
<path fill="none" stroke="black" d="M267,-77.785C267,-68.6656 267,-57.5197 267,-48.5085"/>
<polygon fill="black" stroke="black" points="270.5,-48.242 267,-38.242 263.5,-48.2421 270.5,-48.242"/>
</g>
<!-- original_WDPA_MPA_global_dataset_inflow -->
<g id="node4" class="node"><title>original_WDPA_MPA_global_dataset_inflow</title>
<ellipse fill="none" stroke="black" cx="267" cy="-305" rx="7" ry="7"/>
</g>
<!-- original_WDPA_MPA_global_dataset_inflow&#45;&gt;original_WDPA_MPA_global_dataset -->
<g id="edge3" class="edge"><title>original_WDPA_MPA_global_dataset_inflow&#45;&gt;original_WDPA_MPA_global_dataset</title>
<path fill="none" stroke="black" d="M267,-297.729C267,-290.795 267,-279.154 267,-268.215"/>
<polygon fill="black" stroke="black" points="270.5,-268.119 267,-258.119 263.5,-268.119 270.5,-268.119"/>
</g>
</g>
</svg>
