<?xml version="1.0" encoding="UTF-8" standalone="no"?>
<!DOCTYPE svg PUBLIC "-//W3C//DTD SVG 1.1//EN"
 "http://www.w3.org/Graphics/SVG/1.1/DTD/svg11.dtd">
<!-- Generated by graphviz version 2.38.0 (20140413.2041)
 -->
<!-- Title: yw_data_view Pages: 1 -->
<svg width="262pt" height="178pt"
 viewBox="0.00 0.00 261.56 178.20" xmlns="http://www.w3.org/2000/svg" xmlns:xlink="http://www.w3.org/1999/xlink">
<g id="graph0" class="graph" transform="scale(1 1) rotate(0) translate(4 174.2)">
<title>yw_data_view</title>
<polygon fill="white" stroke="none" points="-4,4 -4,-174.2 257.56,-174.2 257.56,4 -4,4"/>
<text text-anchor="middle" x="126.78" y="-150" font-family="Courier,monospace" font-size="18.00">setup_BC_WDPA_polygons</text>
<g id="clust1" class="cluster"><title>cluster_workflow</title>
<polygon fill="none" stroke="black" stroke-width="2" points="16.7802,-8 16.7802,-78.6 236.78,-78.6 236.78,-8 16.7802,-8"/>
</g>
<g id="clust2" class="cluster"><title>cluster_workflow_inner</title>
<polygon fill="none" stroke="white" stroke-width="2" points="24.7802,-16 24.7802,-70.6 228.78,-70.6 228.78,-16 24.7802,-16"/>
</g>
<g id="clust3" class="cluster"><title>cluster_inflows</title>
<polygon fill="none" stroke="white" stroke-width="2" points="103.78,-86.6 103.78,-132.6 149.78,-132.6 149.78,-86.6 103.78,-86.6"/>
</g>
<g id="clust4" class="cluster"><title>cluster_inflows_inner</title>
<polygon fill="none" stroke="white" stroke-width="2" points="111.78,-94.6 111.78,-124.6 141.78,-124.6 141.78,-94.6 111.78,-94.6"/>
</g>
<!-- original_WDPA_MPA_global_dataset -->
<g id="node1" class="node"><title>original_WDPA_MPA_global_dataset</title>
<path fill="#ffe4b5" stroke="black" d="M44.3946,-24.5C44.3946,-24.5 209.166,-24.5 209.166,-24.5 215.166,-24.5 221.166,-30.5 221.166,-36.5 221.166,-36.5 221.166,-50.1 221.166,-50.1 221.166,-56.1 215.166,-62.1 209.166,-62.1 209.166,-62.1 44.3946,-62.1 44.3946,-62.1 38.3946,-62.1 32.3946,-56.1 32.3946,-50.1 32.3946,-50.1 32.3946,-36.5 32.3946,-36.5 32.3946,-30.5 38.3946,-24.5 44.3946,-24.5"/>
<text text-anchor="middle" x="126.78" y="-50" font-family="Courier,monospace" font-weight="bold" font-size="9.00">original_WDPA_MPA_global_dataset</text>
<polyline fill="none" stroke="black" points="32.3946,-43.3 221.166,-43.3 "/>
<text text-anchor="middle" x="126.78" y="-31.2" font-family="Courier,monospace" font-weight="bold" font-size="9.00"> </text>
</g>
<!-- original_WDPA_MPA_global_dataset_inflow -->
<g id="node2" class="node"><title>original_WDPA_MPA_global_dataset_inflow</title>
<ellipse fill="none" stroke="black" cx="126.78" cy="-109.6" rx="7" ry="7"/>
</g>
<!-- original_WDPA_MPA_global_dataset_inflow&#45;&gt;original_WDPA_MPA_global_dataset -->
<g id="edge1" class="edge"><title>original_WDPA_MPA_global_dataset_inflow&#45;&gt;original_WDPA_MPA_global_dataset</title>
<path fill="none" stroke="black" d="M126.78,-102.2C126.78,-95.2186 126.78,-83.5632 126.78,-72.5324"/>
<polygon fill="black" stroke="black" points="130.28,-72.3207 126.78,-62.3207 123.28,-72.3207 130.28,-72.3207"/>
</g>
</g>
</svg>
