<?xml version="1.0" encoding="UTF-8" standalone="no"?>
<!DOCTYPE svg PUBLIC "-//W3C//DTD SVG 1.1//EN"
 "http://www.w3.org/Graphics/SVG/1.1/DTD/svg11.dtd">
<!-- Generated by graphviz version 2.38.0 (20140413.2041)
 -->
<!-- Title: yw_data_view Pages: 1 -->
<svg width="337pt" height="178pt"
 viewBox="0.00 0.00 337.15 178.20" xmlns="http://www.w3.org/2000/svg" xmlns:xlink="http://www.w3.org/1999/xlink">
<g id="graph0" class="graph" transform="scale(1 1) rotate(0) translate(4 174.2)">
<title>yw_data_view</title>
<polygon fill="white" stroke="none" points="-4,4 -4,-174.2 333.148,-174.2 333.148,4 -4,4"/>
<text text-anchor="middle" x="164.574" y="-150" font-family="Courier,monospace" font-size="18.00">Read_in_BC_WDPA_MPA_shapefile</text>
<g id="clust1" class="cluster"><title>cluster_workflow</title>
<polygon fill="none" stroke="black" stroke-width="2" points="54.5739,-8 54.5739,-78.6 274.574,-78.6 274.574,-8 54.5739,-8"/>
</g>
<g id="clust2" class="cluster"><title>cluster_workflow_inner</title>
<polygon fill="none" stroke="white" stroke-width="2" points="62.5739,-16 62.5739,-70.6 266.574,-70.6 266.574,-16 62.5739,-16"/>
</g>
<g id="clust3" class="cluster"><title>cluster_inflows</title>
<polygon fill="none" stroke="white" stroke-width="2" points="141.574,-86.6 141.574,-132.6 187.574,-132.6 187.574,-86.6 141.574,-86.6"/>
</g>
<g id="clust4" class="cluster"><title>cluster_inflows_inner</title>
<polygon fill="none" stroke="white" stroke-width="2" points="149.574,-94.6 149.574,-124.6 179.574,-124.6 179.574,-94.6 149.574,-94.6"/>
</g>
<!-- original_WDPA_MPA_global_dataset -->
<g id="node1" class="node"><title>original_WDPA_MPA_global_dataset</title>
<path fill="#ffe4b5" stroke="black" d="M82.1883,-24.5C82.1883,-24.5 246.96,-24.5 246.96,-24.5 252.96,-24.5 258.96,-30.5 258.96,-36.5 258.96,-36.5 258.96,-50.1 258.96,-50.1 258.96,-56.1 252.96,-62.1 246.96,-62.1 246.96,-62.1 82.1883,-62.1 82.1883,-62.1 76.1883,-62.1 70.1883,-56.1 70.1883,-50.1 70.1883,-50.1 70.1883,-36.5 70.1883,-36.5 70.1883,-30.5 76.1883,-24.5 82.1883,-24.5"/>
<text text-anchor="middle" x="164.574" y="-50" font-family="Courier,monospace" font-weight="bold" font-size="9.00">original_WDPA_MPA_global_dataset</text>
<polyline fill="none" stroke="black" points="70.1883,-43.3 258.96,-43.3 "/>
<text text-anchor="middle" x="164.574" y="-31.2" font-family="Courier,monospace" font-weight="bold" font-size="9.00"> </text>
</g>
<!-- original_WDPA_MPA_global_dataset_inflow -->
<g id="node2" class="node"><title>original_WDPA_MPA_global_dataset_inflow</title>
<ellipse fill="none" stroke="black" cx="164.574" cy="-109.6" rx="7" ry="7"/>
</g>
<!-- original_WDPA_MPA_global_dataset_inflow&#45;&gt;original_WDPA_MPA_global_dataset -->
<g id="edge1" class="edge"><title>original_WDPA_MPA_global_dataset_inflow&#45;&gt;original_WDPA_MPA_global_dataset</title>
<path fill="none" stroke="black" d="M164.574,-102.2C164.574,-95.2186 164.574,-83.5632 164.574,-72.5324"/>
<polygon fill="black" stroke="black" points="168.074,-72.3207 164.574,-62.3207 161.074,-72.3207 168.074,-72.3207"/>
</g>
</g>
</svg>
