<?xml version="1.0" encoding="UTF-8" standalone="no"?>
<!DOCTYPE svg PUBLIC "-//W3C//DTD SVG 1.1//EN"
 "http://www.w3.org/Graphics/SVG/1.1/DTD/svg11.dtd">
<!-- Generated by graphviz version 2.38.0 (20140413.2041)
 -->
<!-- Title: yw_data_view Pages: 1 -->
<svg width="337pt" height="176pt"
 viewBox="0.00 0.00 337.15 175.60" xmlns="http://www.w3.org/2000/svg" xmlns:xlink="http://www.w3.org/1999/xlink">
<g id="graph0" class="graph" transform="scale(1 1) rotate(0) translate(4 171.6)">
<title>yw_data_view</title>
<polygon fill="white" stroke="none" points="-4,4 -4,-171.6 333.148,-171.6 333.148,4 -4,4"/>
<text text-anchor="middle" x="164.574" y="-147.4" font-family="Courier,monospace" font-size="18.00">Read_in_BC_WDPA_MPA_shapefile</text>
<g id="clust1" class="cluster"><title>cluster_workflow</title>
<polygon fill="none" stroke="black" stroke-width="2" points="24.5739,-8 24.5739,-76 304.574,-76 304.574,-8 24.5739,-8"/>
</g>
<g id="clust2" class="cluster"><title>cluster_workflow_inner</title>
<polygon fill="none" stroke="white" stroke-width="2" points="32.5739,-16 32.5739,-68 296.574,-68 296.574,-16 32.5739,-16"/>
</g>
<g id="clust3" class="cluster"><title>cluster_inflows</title>
<polygon fill="none" stroke="white" stroke-width="2" points="141.574,-84 141.574,-130 187.574,-130 187.574,-84 141.574,-84"/>
</g>
<g id="clust4" class="cluster"><title>cluster_inflows_inner</title>
<polygon fill="none" stroke="white" stroke-width="2" points="149.574,-92 149.574,-122 179.574,-122 179.574,-92 149.574,-92"/>
</g>
<!-- original_WDPA_MPA_global_dataset -->
<g id="node1" class="node"><title>original_WDPA_MPA_global_dataset</title>
<path fill="#ffffcc" stroke="black" d="M276.399,-60C276.399,-60 52.7492,-60 52.7492,-60 46.7492,-60 40.7492,-54 40.7492,-48 40.7492,-48 40.7492,-36 40.7492,-36 40.7492,-30 46.7492,-24 52.7492,-24 52.7492,-24 276.399,-24 276.399,-24 282.399,-24 288.399,-30 288.399,-36 288.399,-36 288.399,-48 288.399,-48 288.399,-54 282.399,-60 276.399,-60"/>
<text text-anchor="middle" x="164.574" y="-37.8" font-family="Helvetica,sans-Serif" font-size="14.00">original_WDPA_MPA_global_dataset</text>
</g>
<!-- original_WDPA_MPA_global_dataset_inflow -->
<g id="node2" class="node"><title>original_WDPA_MPA_global_dataset_inflow</title>
<ellipse fill="none" stroke="black" cx="164.574" cy="-107" rx="7" ry="7"/>
</g>
<!-- original_WDPA_MPA_global_dataset_inflow&#45;&gt;original_WDPA_MPA_global_dataset -->
<g id="edge1" class="edge"><title>original_WDPA_MPA_global_dataset_inflow&#45;&gt;original_WDPA_MPA_global_dataset</title>
<path fill="none" stroke="black" d="M164.574,-99.729C164.574,-92.7948 164.574,-81.1535 164.574,-70.2147"/>
<polygon fill="black" stroke="black" points="168.074,-70.1188 164.574,-60.1188 161.074,-70.1189 168.074,-70.1188"/>
</g>
</g>
</svg>
