<?xml version="1.0" encoding="UTF-8" standalone="no"?>
<!DOCTYPE svg PUBLIC "-//W3C//DTD SVG 1.1//EN"
 "http://www.w3.org/Graphics/SVG/1.1/DTD/svg11.dtd">
<!-- Generated by graphviz version 2.38.0 (20140413.2041)
 -->
<!-- Title: yw_data_view Pages: 1 -->
<svg width="304pt" height="176pt"
 viewBox="0.00 0.00 304.00 175.60" xmlns="http://www.w3.org/2000/svg" xmlns:xlink="http://www.w3.org/1999/xlink">
<g id="graph0" class="graph" transform="scale(1 1) rotate(0) translate(4 171.6)">
<title>yw_data_view</title>
<polygon fill="white" stroke="none" points="-4,4 -4,-171.6 300,-171.6 300,4 -4,4"/>
<text text-anchor="middle" x="148" y="-147.4" font-family="Courier,monospace" font-size="18.00">setup_BC_WDPA_polygons</text>
<g id="clust1" class="cluster"><title>cluster_workflow</title>
<polygon fill="none" stroke="black" stroke-width="2" points="8,-8 8,-76 288,-76 288,-8 8,-8"/>
</g>
<g id="clust2" class="cluster"><title>cluster_workflow_inner</title>
<polygon fill="none" stroke="white" stroke-width="2" points="16,-16 16,-68 280,-68 280,-16 16,-16"/>
</g>
<g id="clust3" class="cluster"><title>cluster_inflows</title>
<polygon fill="none" stroke="white" stroke-width="2" points="125,-84 125,-130 171,-130 171,-84 125,-84"/>
</g>
<g id="clust4" class="cluster"><title>cluster_inflows_inner</title>
<polygon fill="none" stroke="white" stroke-width="2" points="133,-92 133,-122 163,-122 163,-92 133,-92"/>
</g>
<!-- original_WDPA_MPA_global_dataset -->
<g id="node1" class="node"><title>original_WDPA_MPA_global_dataset</title>
<path fill="#ffffcc" stroke="black" d="M259.825,-60C259.825,-60 36.1753,-60 36.1753,-60 30.1753,-60 24.1753,-54 24.1753,-48 24.1753,-48 24.1753,-36 24.1753,-36 24.1753,-30 30.1753,-24 36.1753,-24 36.1753,-24 259.825,-24 259.825,-24 265.825,-24 271.825,-30 271.825,-36 271.825,-36 271.825,-48 271.825,-48 271.825,-54 265.825,-60 259.825,-60"/>
<text text-anchor="middle" x="148" y="-37.8" font-family="Helvetica,sans-Serif" font-size="14.00">original_WDPA_MPA_global_dataset</text>
</g>
<!-- original_WDPA_MPA_global_dataset_inflow -->
<g id="node2" class="node"><title>original_WDPA_MPA_global_dataset_inflow</title>
<ellipse fill="none" stroke="black" cx="148" cy="-107" rx="7" ry="7"/>
</g>
<!-- original_WDPA_MPA_global_dataset_inflow&#45;&gt;original_WDPA_MPA_global_dataset -->
<g id="edge1" class="edge"><title>original_WDPA_MPA_global_dataset_inflow&#45;&gt;original_WDPA_MPA_global_dataset</title>
<path fill="none" stroke="black" d="M148,-99.729C148,-92.7948 148,-81.1535 148,-70.2147"/>
<polygon fill="black" stroke="black" points="151.5,-70.1188 148,-60.1188 144.5,-70.1189 151.5,-70.1188"/>
</g>
</g>
</svg>
