<?xml version="1.0" encoding="UTF-8" standalone="no"?>
<!DOCTYPE svg PUBLIC "-//W3C//DTD SVG 1.1//EN"
 "http://www.w3.org/Graphics/SVG/1.1/DTD/svg11.dtd">
<!-- Generated by graphviz version 2.38.0 (20140413.2041)
 -->
<!-- Title: yw_data_view Pages: 1 -->
<svg width="604pt" height="669pt"
 viewBox="0.00 0.00 604.00 669.40" xmlns="http://www.w3.org/2000/svg" xmlns:xlink="http://www.w3.org/1999/xlink">
<g id="graph0" class="graph" transform="scale(1 1) rotate(0) translate(4 665.4)">
<title>yw_data_view</title>
<polygon fill="white" stroke="none" points="-4,4 -4,-665.4 600,-665.4 600,4 -4,4"/>
<text text-anchor="middle" x="298" y="-641.2" font-family="Courier,monospace" font-size="18.00">setup_BC_PEP_polygons</text>
<g id="clust1" class="cluster"><title>cluster_workflow</title>
<polygon fill="none" stroke="black" stroke-width="2" points="8,-62 8,-569.8 588,-569.8 588,-62 8,-62"/>
</g>
<g id="clust2" class="cluster"><title>cluster_workflow_inner</title>
<polygon fill="none" stroke="white" stroke-width="2" points="16,-70 16,-561.8 580,-561.8 580,-70 16,-70"/>
</g>
<g id="clust3" class="cluster"><title>cluster_inflows</title>
<polygon fill="none" stroke="white" stroke-width="2" points="373,-577.8 373,-623.8 451,-623.8 451,-577.8 373,-577.8"/>
</g>
<g id="clust4" class="cluster"><title>cluster_inflows_inner</title>
<polygon fill="none" stroke="white" stroke-width="2" points="381,-585.8 381,-615.8 443,-615.8 443,-585.8 381,-585.8"/>
</g>
<g id="clust5" class="cluster"><title>cluster_outflows</title>
<polygon fill="none" stroke="white" stroke-width="2" points="127,-8 127,-54 173,-54 173,-8 127,-8"/>
</g>
<g id="clust6" class="cluster"><title>cluster_outflows_inner</title>
<polygon fill="none" stroke="white" stroke-width="2" points="135,-16 135,-46 165,-46 165,-16 135,-16"/>
</g>
<!-- read_TA_PEP_SVW_polygon -->
<g id="node1" class="node"><title>read_TA_PEP_SVW_polygon</title>
<polygon fill="#ccffcc" stroke="black" points="316.668,-332.6 107.332,-332.6 107.332,-296.6 316.668,-296.6 316.668,-332.6"/>
<text text-anchor="middle" x="212" y="-310.4" font-family="Courier,monospace" font-size="14.00">read_TA_PEP_SVW_polygon</text>
</g>
<!-- hs_pep_poly -->
<g id="node6" class="node"><title>hs_pep_poly</title>
<path fill="#ffffcc" stroke="black" d="M226.868,-260.6C226.868,-260.6 155.132,-260.6 155.132,-260.6 149.132,-260.6 143.132,-254.6 143.132,-248.6 143.132,-248.6 143.132,-236.6 143.132,-236.6 143.132,-230.6 149.132,-224.6 155.132,-224.6 155.132,-224.6 226.868,-224.6 226.868,-224.6 232.868,-224.6 238.868,-230.6 238.868,-236.6 238.868,-236.6 238.868,-248.6 238.868,-248.6 238.868,-254.6 232.868,-260.6 226.868,-260.6"/>
<text text-anchor="middle" x="191" y="-238.4" font-family="Helvetica,sans-Serif" font-size="14.00">hs_pep_poly</text>
</g>
<!-- read_TA_PEP_SVW_polygon&#45;&gt;hs_pep_poly -->
<g id="edge8" class="edge"><title>read_TA_PEP_SVW_polygon&#45;&gt;hs_pep_poly</title>
<path fill="none" stroke="black" d="M206.809,-296.297C204.469,-288.498 201.653,-279.109 199.049,-270.429"/>
<polygon fill="black" stroke="black" points="202.357,-269.277 196.131,-260.704 195.652,-271.288 202.357,-269.277"/>
</g>
<!-- set_up_Configuration_and_start_provenance_tracking -->
<g id="node2" class="node"><title>set_up_Configuration_and_start_provenance_tracking</title>
<polygon fill="#ccffcc" stroke="black" points="459.93,-479.2 24.07,-479.2 24.07,-443.2 459.93,-443.2 459.93,-479.2"/>
<text text-anchor="middle" x="242" y="-457" font-family="Courier,monospace" font-size="14.00">set_up_Configuration_and_start_provenance_tracking</text>
</g>
<!-- dir_anx -->
<g id="node4" class="node"><title>dir_anx</title>
<path fill="#ffffcc" stroke="black" d="M93.8977,-405.9C93.8977,-405.9 56.1023,-405.9 56.1023,-405.9 50.1023,-405.9 44.1023,-399.9 44.1023,-393.9 44.1023,-393.9 44.1023,-381.9 44.1023,-381.9 44.1023,-375.9 50.1023,-369.9 56.1023,-369.9 56.1023,-369.9 93.8977,-369.9 93.8977,-369.9 99.8977,-369.9 105.898,-375.9 105.898,-381.9 105.898,-381.9 105.898,-393.9 105.898,-393.9 105.898,-399.9 99.8977,-405.9 93.8977,-405.9"/>
<text text-anchor="middle" x="75" y="-383.7" font-family="Helvetica,sans-Serif" font-size="14.00">dir_anx</text>
</g>
<!-- set_up_Configuration_and_start_provenance_tracking&#45;&gt;dir_anx -->
<g id="edge6" class="edge"><title>set_up_Configuration_and_start_provenance_tracking&#45;&gt;dir_anx</title>
<path fill="none" stroke="black" d="M200.093,-443.127C177.4,-433.787 148.69,-421.821 115.455,-407.341"/>
<polygon fill="black" stroke="black" points="116.527,-403.99 105.963,-403.19 113.723,-410.403 116.527,-403.99"/>
</g>
<!-- dir_goal -->
<g id="node5" class="node"><title>dir_goal</title>
<path fill="#ffffcc" stroke="black" d="M77.7871,-332.6C77.7871,-332.6 36.2129,-332.6 36.2129,-332.6 30.2129,-332.6 24.2129,-326.6 24.2129,-320.6 24.2129,-320.6 24.2129,-308.6 24.2129,-308.6 24.2129,-302.6 30.2129,-296.6 36.2129,-296.6 36.2129,-296.6 77.7871,-296.6 77.7871,-296.6 83.7871,-296.6 89.7871,-302.6 89.7871,-308.6 89.7871,-308.6 89.7871,-320.6 89.7871,-320.6 89.7871,-326.6 83.7871,-332.6 77.7871,-332.6"/>
<text text-anchor="middle" x="57" y="-310.4" font-family="Helvetica,sans-Serif" font-size="14.00">dir_goal</text>
</g>
<!-- set_up_Configuration_and_start_provenance_tracking&#45;&gt;dir_goal -->
<g id="edge7" class="edge"><title>set_up_Configuration_and_start_provenance_tracking&#45;&gt;dir_goal</title>
<path fill="none" stroke="black" d="M125.625,-443.17C85.3285,-434.709 47.1695,-422.878 35,-407.2 20.4556,-388.463 29.4518,-361.556 39.9839,-341.751"/>
<polygon fill="black" stroke="black" points="43.0979,-343.356 45.016,-332.936 37.0187,-339.885 43.0979,-343.356"/>
</g>
<!-- write_hs_pep_poly -->
<g id="node3" class="node"><title>write_hs_pep_poly</title>
<polygon fill="#ccffcc" stroke="black" points="229.276,-188.6 70.7236,-188.6 70.7236,-152.6 229.276,-152.6 229.276,-188.6"/>
<text text-anchor="middle" x="150" y="-166.4" font-family="Courier,monospace" font-size="14.00">write_hs_pep_poly</text>
</g>
<!-- poly_hs_pep -->
<g id="node9" class="node"><title>poly_hs_pep</title>
<path fill="#ffe4b5" stroke="black" d="M56.8162,-78.5C56.8162,-78.5 243.184,-78.5 243.184,-78.5 249.184,-78.5 255.184,-84.5 255.184,-90.5 255.184,-90.5 255.184,-104.1 255.184,-104.1 255.184,-110.1 249.184,-116.1 243.184,-116.1 243.184,-116.1 56.8162,-116.1 56.8162,-116.1 50.8162,-116.1 44.8162,-110.1 44.8162,-104.1 44.8162,-104.1 44.8162,-90.5 44.8162,-90.5 44.8162,-84.5 50.8162,-78.5 56.8162,-78.5"/>
<text text-anchor="middle" x="150" y="-104" font-family="Courier,monospace" font-weight="bold" font-size="9.00">poly_hs_pep</text>
<polyline fill="none" stroke="black" points="44.8162,-97.3 255.184,-97.3 "/>
<text text-anchor="start" x="52.8162" y="-85.2" font-family="Courier,monospace" font-weight="bold" font-size="9.00">prep/lsp/vHS/spatial/hs_pep_poly.shp</text>
</g>
<!-- write_hs_pep_poly&#45;&gt;poly_hs_pep -->
<g id="edge9" class="edge"><title>write_hs_pep_poly&#45;&gt;poly_hs_pep</title>
<path fill="none" stroke="black" d="M150,-152.34C150,-144.605 150,-135.279 150,-126.568"/>
<polygon fill="black" stroke="black" points="153.5,-126.396 150,-116.396 146.5,-126.396 153.5,-126.396"/>
</g>
<!-- dir_anx&#45;&gt;read_TA_PEP_SVW_polygon -->
<g id="edge4" class="edge"><title>dir_anx&#45;&gt;read_TA_PEP_SVW_polygon</title>
<path fill="none" stroke="black" d="M106.087,-370.721C125.068,-360.843 149.577,-348.087 170.237,-337.335"/>
<polygon fill="black" stroke="black" points="171.87,-340.431 179.125,-332.709 168.639,-334.221 171.87,-340.431"/>
</g>
<!-- dir_goal&#45;&gt;write_hs_pep_poly -->
<g id="edge3" class="edge"><title>dir_goal&#45;&gt;write_hs_pep_poly</title>
<path fill="none" stroke="black" d="M68.218,-296.471C84.3474,-271.844 114.216,-226.238 133.047,-197.485"/>
<polygon fill="black" stroke="black" points="136.191,-199.072 138.742,-188.789 130.335,-195.237 136.191,-199.072"/>
</g>
<!-- hs_pep_poly&#45;&gt;write_hs_pep_poly -->
<g id="edge1" class="edge"><title>hs_pep_poly&#45;&gt;write_hs_pep_poly</title>
<path fill="none" stroke="black" d="M180.865,-224.297C176.148,-216.244 170.438,-206.494 165.218,-197.582"/>
<polygon fill="black" stroke="black" points="168.092,-195.564 160.018,-188.704 162.052,-199.102 168.092,-195.564"/>
</g>
<!-- setup_R -->
<g id="node7" class="node"><title>setup_R</title>
<path fill="#ffe4b5" stroke="black" d="M322,-515.7C322,-515.7 352,-515.7 352,-515.7 358,-515.7 364,-521.7 364,-527.7 364,-527.7 364,-541.3 364,-541.3 364,-547.3 358,-553.3 352,-553.3 352,-553.3 322,-553.3 322,-553.3 316,-553.3 310,-547.3 310,-541.3 310,-541.3 310,-527.7 310,-527.7 310,-521.7 316,-515.7 322,-515.7"/>
<text text-anchor="middle" x="336.897" y="-541.2" font-family="Courier,monospace" font-weight="bold" font-size="9.00">setup_R</text>
<polyline fill="none" stroke="black" points="310,-534.5 363.794,-534.5 "/>
<text text-anchor="middle" x="336.897" y="-522.4" font-family="Courier,monospace" font-weight="bold" font-size="9.00"> </text>
</g>
<!-- setup_R&#45;&gt;set_up_Configuration_and_start_provenance_tracking -->
<g id="edge5" class="edge"><title>setup_R&#45;&gt;set_up_Configuration_and_start_provenance_tracking</title>
<path fill="none" stroke="black" d="M313.027,-515.508C300.853,-506.371 285.92,-495.163 272.894,-485.387"/>
<polygon fill="black" stroke="black" points="274.756,-482.408 264.657,-479.205 270.554,-488.007 274.756,-482.408"/>
</g>
<!-- TA_PEP_SVW_polygon -->
<g id="node8" class="node"><title>TA_PEP_SVW_polygon</title>
<path fill="#ffe4b5" stroke="black" d="M136.036,-369.1C136.036,-369.1 559.964,-369.1 559.964,-369.1 565.964,-369.1 571.964,-375.1 571.964,-381.1 571.964,-381.1 571.964,-394.7 571.964,-394.7 571.964,-400.7 565.964,-406.7 559.964,-406.7 559.964,-406.7 136.036,-406.7 136.036,-406.7 130.036,-406.7 124.036,-400.7 124.036,-394.7 124.036,-394.7 124.036,-381.1 124.036,-381.1 124.036,-375.1 130.036,-369.1 136.036,-369.1"/>
<text text-anchor="middle" x="348" y="-394.6" font-family="Courier,monospace" font-weight="bold" font-size="9.00">TA_PEP_SVW_polygon</text>
<polyline fill="none" stroke="black" points="124.036,-387.9 571.964,-387.9 "/>
<text text-anchor="start" x="132.036" y="-375.8" font-family="Courier,monospace" font-weight="bold" font-size="9.00">/Volumes/ohi/git&#45;annex/bcprep/_raw_data/databc/TA_PEP_SVW/TA_PEP_SVW_polygon.shp</text>
</g>
<!-- TA_PEP_SVW_polygon&#45;&gt;read_TA_PEP_SVW_polygon -->
<g id="edge2" class="edge"><title>TA_PEP_SVW_polygon&#45;&gt;read_TA_PEP_SVW_polygon</title>
<path fill="none" stroke="black" d="M314.032,-369.092C295.694,-359.478 272.906,-347.531 253.521,-337.368"/>
<polygon fill="black" stroke="black" points="255.08,-334.234 244.598,-332.69 251.83,-340.433 255.08,-334.234"/>
</g>
<!-- poly_hs_pep_outflow -->
<g id="node12" class="node"><title>poly_hs_pep_outflow</title>
<ellipse fill="none" stroke="black" cx="150" cy="-31" rx="7" ry="7"/>
</g>
<!-- poly_hs_pep&#45;&gt;poly_hs_pep_outflow -->
<g id="edge12" class="edge"><title>poly_hs_pep&#45;&gt;poly_hs_pep_outflow</title>
<path fill="none" stroke="black" d="M150,-78.3889C150,-68.9828 150,-57.5389 150,-48.3712"/>
<polygon fill="black" stroke="black" points="153.5,-48.3008 150,-38.3008 146.5,-48.3008 153.5,-48.3008"/>
</g>
<!-- setup_R_inflow -->
<g id="node10" class="node"><title>setup_R_inflow</title>
<ellipse fill="none" stroke="black" cx="396" cy="-600.8" rx="7" ry="7"/>
</g>
<!-- setup_R_inflow&#45;&gt;setup_R -->
<g id="edge10" class="edge"><title>setup_R_inflow&#45;&gt;setup_R</title>
<path fill="none" stroke="black" d="M391.757,-595.176C385.236,-588.069 372.281,-573.95 360.608,-561.228"/>
<polygon fill="black" stroke="black" points="362.914,-558.565 353.575,-553.564 357.757,-563.298 362.914,-558.565"/>
</g>
<!-- TA_PEP_SVW_polygon_inflow -->
<g id="node11" class="node"><title>TA_PEP_SVW_polygon_inflow</title>
<ellipse fill="none" stroke="black" cx="428" cy="-600.8" rx="7" ry="7"/>
</g>
<!-- TA_PEP_SVW_polygon_inflow&#45;&gt;TA_PEP_SVW_polygon -->
<g id="edge11" class="edge"><title>TA_PEP_SVW_polygon_inflow&#45;&gt;TA_PEP_SVW_polygon</title>
<path fill="none" stroke="black" d="M431.982,-594.743C447.673,-574.164 502.751,-495.339 469,-443.2 460.037,-429.354 446.616,-419.005 431.934,-411.281"/>
<polygon fill="black" stroke="black" points="433.185,-407.998 422.658,-406.802 430.142,-414.302 433.185,-407.998"/>
</g>
</g>
</svg>
