<?xml version="1.0" encoding="UTF-8" standalone="no"?>
<!DOCTYPE svg PUBLIC "-//W3C//DTD SVG 1.1//EN"
 "http://www.w3.org/Graphics/SVG/1.1/DTD/svg11.dtd">
<!-- Generated by graphviz version 2.38.0 (20140413.2041)
 -->
<!-- Title: Workflow Pages: 1 -->
<svg width="1101pt" height="691pt"
 viewBox="0.00 0.00 1101.00 690.80" xmlns="http://www.w3.org/2000/svg" xmlns:xlink="http://www.w3.org/1999/xlink">
<g id="graph0" class="graph" transform="scale(1 1) rotate(0) translate(4 686.8)">
<title>Workflow</title>
<polygon fill="white" stroke="none" points="-4,4 -4,-686.8 1097,-686.8 1097,4 -4,4"/>
<text text-anchor="middle" x="546.5" y="-662.6" font-family="Courier,monospace" font-size="18.00">Rasterize_HS_WDPA_and_PEP</text>
<g id="clust1" class="cluster"><title>cluster_workflow_box_outer</title>
<polygon fill="none" stroke="black" stroke-width="2" points="8,-62 8,-591.2 1085,-591.2 1085,-62 8,-62"/>
</g>
<g id="clust2" class="cluster"><title>cluster_workflow_box_inner</title>
<polygon fill="none" stroke="white" stroke-width="2" points="16,-70 16,-583.2 1077,-583.2 1077,-70 16,-70"/>
</g>
<g id="clust3" class="cluster"><title>cluster_input_ports_group_outer</title>
<polygon fill="none" stroke="white" points="552,-599.2 552,-645.2 694,-645.2 694,-599.2 552,-599.2"/>
</g>
<g id="clust4" class="cluster"><title>cluster_input_ports_group_inner</title>
<polygon fill="none" stroke="white" points="560,-607.2 560,-637.2 686,-637.2 686,-607.2 560,-607.2"/>
</g>
<g id="clust5" class="cluster"><title>cluster_output_ports_group_outer</title>
<polygon fill="none" stroke="white" points="546,-8 546,-54 624,-54 624,-8 546,-8"/>
</g>
<g id="clust6" class="cluster"><title>cluster_output_ports_group_inner</title>
<polygon fill="none" stroke="white" points="554,-16 554,-46 616,-46 616,-16 554,-16"/>
</g>
<!-- set_up_configuration_and_start_provenance_tracking -->
<g id="node1" class="node"><title>set_up_configuration_and_start_provenance_tracking</title>
<polygon fill="#ccffcc" stroke="black" points="575.93,-503.2 140.07,-503.2 140.07,-467.2 575.93,-467.2 575.93,-503.2"/>
<text text-anchor="middle" x="358" y="-481" font-family="Courier,monospace" font-size="14.00">set_up_configuration_and_start_provenance_tracking</text>
</g>
<!-- dir_spatial -->
<g id="node15" class="node"><title>dir_spatial</title>
<path fill="#fcfcfc" stroke="black" d="M91.7843,-423.9C91.7843,-423.9 36.2157,-423.9 36.2157,-423.9 30.2157,-423.9 24.2157,-417.9 24.2157,-411.9 24.2157,-411.9 24.2157,-399.9 24.2157,-399.9 24.2157,-393.9 30.2157,-387.9 36.2157,-387.9 36.2157,-387.9 91.7843,-387.9 91.7843,-387.9 97.7843,-387.9 103.784,-393.9 103.784,-399.9 103.784,-399.9 103.784,-411.9 103.784,-411.9 103.784,-417.9 97.7843,-423.9 91.7843,-423.9"/>
<text text-anchor="middle" x="64" y="-401.7" font-family="Helvetica,sans-Serif" font-size="14.00">dir_spatial</text>
</g>
<!-- set_up_configuration_and_start_provenance_tracking&#45;&gt;dir_spatial -->
<g id="edge1" class="edge"><title>set_up_configuration_and_start_provenance_tracking&#45;&gt;dir_spatial</title>
<path fill="none" stroke="black" d="M250.088,-467.158C206.503,-458.683 156.167,-446.844 112,-431.2 109.317,-430.25 106.593,-429.182 103.876,-428.037"/>
<polygon fill="black" stroke="black" points="105.286,-424.833 94.731,-423.911 102.407,-431.214 105.286,-424.833"/>
</g>
<!-- dir_goal -->
<g id="node16" class="node"><title>dir_goal</title>
<path fill="#fcfcfc" stroke="black" d="M453.787,-423.9C453.787,-423.9 412.213,-423.9 412.213,-423.9 406.213,-423.9 400.213,-417.9 400.213,-411.9 400.213,-411.9 400.213,-399.9 400.213,-399.9 400.213,-393.9 406.213,-387.9 412.213,-387.9 412.213,-387.9 453.787,-387.9 453.787,-387.9 459.787,-387.9 465.787,-393.9 465.787,-399.9 465.787,-399.9 465.787,-411.9 465.787,-411.9 465.787,-417.9 459.787,-423.9 453.787,-423.9"/>
<text text-anchor="middle" x="433" y="-401.7" font-family="Helvetica,sans-Serif" font-size="14.00">dir_goal</text>
</g>
<!-- set_up_configuration_and_start_provenance_tracking&#45;&gt;dir_goal -->
<g id="edge2" class="edge"><title>set_up_configuration_and_start_provenance_tracking&#45;&gt;dir_goal</title>
<path fill="none" stroke="black" d="M374.645,-467.045C384.84,-456.536 398.052,-442.92 409.325,-431.301"/>
<polygon fill="black" stroke="black" points="411.95,-433.622 416.402,-424.007 406.926,-428.747 411.95,-433.622"/>
</g>
<!-- rasterize_ohibc_rgn_raster_500m_shape_file_at_500m_resolution -->
<g id="node2" class="node"><title>rasterize_ohibc_rgn_raster_500m_shape_file_at_500m_resolution</title>
<polygon fill="#ccffcc" stroke="black" points="572.315,-344.6 43.6853,-344.6 43.6853,-308.6 572.315,-308.6 572.315,-344.6"/>
<text text-anchor="middle" x="308" y="-322.4" font-family="Courier,monospace" font-size="14.00">rasterize_ohibc_rgn_raster_500m_shape_file_at_500m_resolution</text>
</g>
<!-- extent_of_howe_sound -->
<g id="node12" class="node"><title>extent_of_howe_sound</title>
<path fill="#ffffcc" stroke="black" d="M458.235,-272.6C458.235,-272.6 321.765,-272.6 321.765,-272.6 315.765,-272.6 309.765,-266.6 309.765,-260.6 309.765,-260.6 309.765,-248.6 309.765,-248.6 309.765,-242.6 315.765,-236.6 321.765,-236.6 321.765,-236.6 458.235,-236.6 458.235,-236.6 464.235,-236.6 470.235,-242.6 470.235,-248.6 470.235,-248.6 470.235,-260.6 470.235,-260.6 470.235,-266.6 464.235,-272.6 458.235,-272.6"/>
<text text-anchor="middle" x="390" y="-250.4" font-family="Helvetica,sans-Serif" font-size="14.00">extent_of_howe_sound</text>
</g>
<!-- rasterize_ohibc_rgn_raster_500m_shape_file_at_500m_resolution&#45;&gt;extent_of_howe_sound -->
<g id="edge4" class="edge"><title>rasterize_ohibc_rgn_raster_500m_shape_file_at_500m_resolution&#45;&gt;extent_of_howe_sound</title>
<path fill="none" stroke="black" d="M328.27,-308.297C338.498,-299.565 351.061,-288.84 362.178,-279.35"/>
<polygon fill="black" stroke="black" points="364.63,-281.859 369.963,-272.704 360.085,-276.535 364.63,-281.859"/>
</g>
<!-- load_and_create_howe_sound_wdpa_pep_files -->
<g id="node3" class="node"><title>load_and_create_howe_sound_wdpa_pep_files</title>
<polygon fill="#ccffcc" stroke="black" points="950.343,-344.6 589.657,-344.6 589.657,-308.6 950.343,-308.6 950.343,-344.6"/>
<text text-anchor="middle" x="770" y="-322.4" font-family="Courier,monospace" font-size="14.00">load_and_create_howe_sound_wdpa_pep_files</text>
</g>
<!-- hs_wdpa_rast_file_handle -->
<g id="node13" class="node"><title>hs_wdpa_rast_file_handle</title>
<path fill="#ffffcc" stroke="black" d="M655.108,-272.6C655.108,-272.6 500.892,-272.6 500.892,-272.6 494.892,-272.6 488.892,-266.6 488.892,-260.6 488.892,-260.6 488.892,-248.6 488.892,-248.6 488.892,-242.6 494.892,-236.6 500.892,-236.6 500.892,-236.6 655.108,-236.6 655.108,-236.6 661.108,-236.6 667.108,-242.6 667.108,-248.6 667.108,-248.6 667.108,-260.6 667.108,-260.6 667.108,-266.6 661.108,-272.6 655.108,-272.6"/>
<text text-anchor="middle" x="578" y="-250.4" font-family="Helvetica,sans-Serif" font-size="14.00">hs_wdpa_rast_file_handle</text>
</g>
<!-- load_and_create_howe_sound_wdpa_pep_files&#45;&gt;hs_wdpa_rast_file_handle -->
<g id="edge7" class="edge"><title>load_and_create_howe_sound_wdpa_pep_files&#45;&gt;hs_wdpa_rast_file_handle</title>
<path fill="none" stroke="black" d="M723.032,-308.476C696.317,-298.737 662.679,-286.472 634.525,-276.208"/>
<polygon fill="black" stroke="black" points="635.41,-272.805 624.816,-272.668 633.012,-279.382 635.41,-272.805"/>
</g>
<!-- hs_pep_rast_file_handle -->
<g id="node14" class="node"><title>hs_pep_rast_file_handle</title>
<path fill="#ffffcc" stroke="black" d="M842.001,-272.6C842.001,-272.6 697.999,-272.6 697.999,-272.6 691.999,-272.6 685.999,-266.6 685.999,-260.6 685.999,-260.6 685.999,-248.6 685.999,-248.6 685.999,-242.6 691.999,-236.6 697.999,-236.6 697.999,-236.6 842.001,-236.6 842.001,-236.6 848.001,-236.6 854.001,-242.6 854.001,-248.6 854.001,-248.6 854.001,-260.6 854.001,-260.6 854.001,-266.6 848.001,-272.6 842.001,-272.6"/>
<text text-anchor="middle" x="770" y="-250.4" font-family="Helvetica,sans-Serif" font-size="14.00">hs_pep_rast_file_handle</text>
</g>
<!-- load_and_create_howe_sound_wdpa_pep_files&#45;&gt;hs_pep_rast_file_handle -->
<g id="edge8" class="edge"><title>load_and_create_howe_sound_wdpa_pep_files&#45;&gt;hs_pep_rast_file_handle</title>
<path fill="none" stroke="black" d="M770,-308.297C770,-300.583 770,-291.312 770,-282.712"/>
<polygon fill="black" stroke="black" points="773.5,-282.704 770,-272.704 766.5,-282.704 773.5,-282.704"/>
</g>
<!-- rasterize_howe_sound_wdpa_shape_file -->
<g id="node4" class="node"><title>rasterize_howe_sound_wdpa_shape_file</title>
<polygon fill="#ccffcc" stroke="black" points="573.35,-200.6 254.65,-200.6 254.65,-164.6 573.35,-164.6 573.35,-200.6"/>
<text text-anchor="middle" x="414" y="-178.4" font-family="Courier,monospace" font-size="14.00">rasterize_howe_sound_wdpa_shape_file</text>
</g>
<!-- hs_wdpa_rast_file -->
<g id="node6" class="node"><title>hs_wdpa_rast_file</title>
<path fill="#ffffcc" stroke="black" d="M291.074,-78.5C291.074,-78.5 556.926,-78.5 556.926,-78.5 562.926,-78.5 568.926,-84.5 568.926,-90.5 568.926,-90.5 568.926,-116.1 568.926,-116.1 568.926,-122.1 562.926,-128.1 556.926,-128.1 556.926,-128.1 291.074,-128.1 291.074,-128.1 285.074,-128.1 279.074,-122.1 279.074,-116.1 279.074,-116.1 279.074,-90.5 279.074,-90.5 279.074,-84.5 285.074,-78.5 291.074,-78.5"/>
<text text-anchor="middle" x="424" y="-111.5" font-family="Helvetica,sans-Serif" font-size="14.00">hs_wdpa_rast_file</text>
<polyline fill="none" stroke="black" points="279.074,-103.3 568.926,-103.3 "/>
<text text-anchor="middle" x="424" y="-86.7" font-family="Helvetica,sans-Serif" font-size="14.00">file:{dir_goal}/spatial/hs_wdpa_rast_500m.tif</text>
</g>
<!-- rasterize_howe_sound_wdpa_shape_file&#45;&gt;hs_wdpa_rast_file -->
<g id="edge12" class="edge"><title>rasterize_howe_sound_wdpa_shape_file&#45;&gt;hs_wdpa_rast_file</title>
<path fill="none" stroke="black" d="M416.219,-164.445C417.223,-156.689 418.445,-147.239 419.621,-138.15"/>
<polygon fill="black" stroke="black" points="423.103,-138.516 420.915,-128.15 416.161,-137.618 423.103,-138.516"/>
</g>
<!-- rasterize_howe_sound_pep_shape_file -->
<g id="node5" class="node"><title>rasterize_howe_sound_pep_shape_file</title>
<polygon fill="#ccffcc" stroke="black" points="912.951,-200.6 603.049,-200.6 603.049,-164.6 912.951,-164.6 912.951,-200.6"/>
<text text-anchor="middle" x="758" y="-178.4" font-family="Courier,monospace" font-size="14.00">rasterize_howe_sound_pep_shape_file</text>
</g>
<!-- hs_pep_rast_file -->
<g id="node7" class="node"><title>hs_pep_rast_file</title>
<path fill="#ffffcc" stroke="black" d="M619.128,-78.5C619.128,-78.5 874.872,-78.5 874.872,-78.5 880.872,-78.5 886.872,-84.5 886.872,-90.5 886.872,-90.5 886.872,-116.1 886.872,-116.1 886.872,-122.1 880.872,-128.1 874.872,-128.1 874.872,-128.1 619.128,-128.1 619.128,-128.1 613.128,-128.1 607.128,-122.1 607.128,-116.1 607.128,-116.1 607.128,-90.5 607.128,-90.5 607.128,-84.5 613.128,-78.5 619.128,-78.5"/>
<text text-anchor="middle" x="747" y="-111.5" font-family="Helvetica,sans-Serif" font-size="14.00">hs_pep_rast_file</text>
<polyline fill="none" stroke="black" points="607.128,-103.3 886.872,-103.3 "/>
<text text-anchor="middle" x="747" y="-86.7" font-family="Helvetica,sans-Serif" font-size="14.00">file:{dir_goal}/spatial/hs_pep_rast_500m.tif</text>
</g>
<!-- rasterize_howe_sound_pep_shape_file&#45;&gt;hs_pep_rast_file -->
<g id="edge16" class="edge"><title>rasterize_howe_sound_pep_shape_file&#45;&gt;hs_pep_rast_file</title>
<path fill="none" stroke="black" d="M755.559,-164.445C754.455,-156.689 753.11,-147.239 751.817,-138.15"/>
<polygon fill="black" stroke="black" points="755.268,-137.557 750.394,-128.15 748.338,-138.543 755.268,-137.557"/>
</g>
<!-- hs_wdpa_rast_file_output_port -->
<g id="node21" class="node"><title>hs_wdpa_rast_file_output_port</title>
<ellipse fill="#ffffff" stroke="black" cx="569" cy="-31" rx="7" ry="7"/>
</g>
<!-- hs_wdpa_rast_file&#45;&gt;hs_wdpa_rast_file_output_port -->
<g id="edge24" class="edge"><title>hs_wdpa_rast_file&#45;&gt;hs_wdpa_rast_file_output_port</title>
<path fill="none" stroke="black" d="M473.09,-78.4996C501.243,-64.8505 534.671,-48.6438 553.704,-39.4161"/>
<polygon fill="black" stroke="black" points="555.414,-42.4766 562.885,-34.9646 552.36,-36.1779 555.414,-42.4766"/>
</g>
<!-- hs_pep_rast_file_output_port -->
<g id="node22" class="node"><title>hs_pep_rast_file_output_port</title>
<ellipse fill="#ffffff" stroke="black" cx="601" cy="-31" rx="7" ry="7"/>
</g>
<!-- hs_pep_rast_file&#45;&gt;hs_pep_rast_file_output_port -->
<g id="edge25" class="edge"><title>hs_pep_rast_file&#45;&gt;hs_pep_rast_file_output_port</title>
<path fill="none" stroke="black" d="M697.571,-78.4996C669.224,-64.8505 635.566,-48.6438 616.402,-39.4161"/>
<polygon fill="black" stroke="black" points="617.685,-36.1495 607.157,-34.9646 614.648,-42.4565 617.685,-36.1495"/>
</g>
<!-- setup_R -->
<g id="node8" class="node"><title>setup_R</title>
<path fill="#ffffcc" stroke="black" d="M472.128,-575.2C472.128,-575.2 427.872,-575.2 427.872,-575.2 421.872,-575.2 415.872,-569.2 415.872,-563.2 415.872,-563.2 415.872,-551.2 415.872,-551.2 415.872,-545.2 421.872,-539.2 427.872,-539.2 427.872,-539.2 472.128,-539.2 472.128,-539.2 478.128,-539.2 484.128,-545.2 484.128,-551.2 484.128,-551.2 484.128,-563.2 484.128,-563.2 484.128,-569.2 478.128,-575.2 472.128,-575.2"/>
<text text-anchor="middle" x="450" y="-553" font-family="Helvetica,sans-Serif" font-size="14.00">setup_R</text>
</g>
<!-- setup_R&#45;&gt;set_up_configuration_and_start_provenance_tracking -->
<g id="edge3" class="edge"><title>setup_R&#45;&gt;set_up_configuration_and_start_provenance_tracking</title>
<path fill="none" stroke="black" d="M427.258,-538.897C415.56,-529.996 401.139,-519.023 388.49,-509.399"/>
<polygon fill="black" stroke="black" points="390.558,-506.574 380.48,-503.304 386.319,-512.145 390.558,-506.574"/>
</g>
<!-- ohibc_rgn_raster_500m -->
<g id="node9" class="node"><title>ohibc_rgn_raster_500m</title>
<path fill="#ffffcc" stroke="black" d="M495.47,-381.1C495.47,-381.1 788.53,-381.1 788.53,-381.1 794.53,-381.1 800.53,-387.1 800.53,-393.1 800.53,-393.1 800.53,-418.7 800.53,-418.7 800.53,-424.7 794.53,-430.7 788.53,-430.7 788.53,-430.7 495.47,-430.7 495.47,-430.7 489.47,-430.7 483.47,-424.7 483.47,-418.7 483.47,-418.7 483.47,-393.1 483.47,-393.1 483.47,-387.1 489.47,-381.1 495.47,-381.1"/>
<text text-anchor="middle" x="642" y="-414.1" font-family="Helvetica,sans-Serif" font-size="14.00">ohibc_rgn_raster_500m</text>
<polyline fill="none" stroke="black" points="483.47,-405.9 800.53,-405.9 "/>
<text text-anchor="middle" x="642" y="-389.3" font-family="Helvetica,sans-Serif" font-size="14.00">file:{dir_spatial}/raster/ohibc_rgn_raster_500m.tif</text>
</g>
<!-- ohibc_rgn_raster_500m&#45;&gt;rasterize_ohibc_rgn_raster_500m_shape_file_at_500m_resolution -->
<g id="edge6" class="edge"><title>ohibc_rgn_raster_500m&#45;&gt;rasterize_ohibc_rgn_raster_500m_shape_file_at_500m_resolution</title>
<path fill="none" stroke="black" d="M539.064,-381.077C491.663,-370.106 436.147,-357.258 391.413,-346.905"/>
<polygon fill="black" stroke="black" points="391.988,-343.445 381.456,-344.6 390.409,-350.265 391.988,-343.445"/>
</g>
<!-- hs_wdpa_shp_file -->
<g id="node10" class="node"><title>hs_wdpa_shp_file</title>
<path fill="#ffffcc" stroke="black" d="M133.462,-381.1C133.462,-381.1 370.538,-381.1 370.538,-381.1 376.538,-381.1 382.538,-387.1 382.538,-393.1 382.538,-393.1 382.538,-418.7 382.538,-418.7 382.538,-424.7 376.538,-430.7 370.538,-430.7 370.538,-430.7 133.462,-430.7 133.462,-430.7 127.462,-430.7 121.462,-424.7 121.462,-418.7 121.462,-418.7 121.462,-393.1 121.462,-393.1 121.462,-387.1 127.462,-381.1 133.462,-381.1"/>
<text text-anchor="middle" x="252" y="-414.1" font-family="Helvetica,sans-Serif" font-size="14.00">hs_wdpa_shp_file</text>
<polyline fill="none" stroke="black" points="121.462,-405.9 382.538,-405.9 "/>
<text text-anchor="middle" x="252" y="-389.3" font-family="Helvetica,sans-Serif" font-size="14.00">file:{dir_goal}/spatial/hs_wdpa_poly.shp</text>
</g>
<!-- hs_wdpa_shp_file&#45;&gt;load_and_create_howe_sound_wdpa_pep_files -->
<g id="edge10" class="edge"><title>hs_wdpa_shp_file&#45;&gt;load_and_create_howe_sound_wdpa_pep_files</title>
<path fill="none" stroke="black" d="M382.568,-381.941C385.403,-381.485 388.217,-381.038 391,-380.6 469.981,-368.177 558.457,-355.722 630.048,-346.011"/>
<polygon fill="black" stroke="black" points="630.594,-349.469 640.035,-344.659 629.655,-342.532 630.594,-349.469"/>
</g>
<!-- hs_wdpa_shp_file&#45;&gt;rasterize_howe_sound_wdpa_shape_file -->
<g id="edge13" class="edge"><title>hs_wdpa_shp_file&#45;&gt;rasterize_howe_sound_wdpa_shape_file</title>
<path fill="none" stroke="black" d="M121.352,-382.283C82.3508,-372.708 46.8002,-360.126 35,-344.6 25.3186,-331.861 25.6241,-321.565 35,-308.6 83.0852,-242.108 167.796,-210.385 244.953,-195.492"/>
<polygon fill="black" stroke="black" points="245.61,-198.93 254.808,-193.672 244.339,-192.046 245.61,-198.93"/>
</g>
<!-- hs_pep_shp_file -->
<g id="node11" class="node"><title>hs_pep_shp_file</title>
<path fill="#ffffcc" stroke="black" d="M830.515,-381.1C830.515,-381.1 1057.48,-381.1 1057.48,-381.1 1063.48,-381.1 1069.48,-387.1 1069.48,-393.1 1069.48,-393.1 1069.48,-418.7 1069.48,-418.7 1069.48,-424.7 1063.48,-430.7 1057.48,-430.7 1057.48,-430.7 830.515,-430.7 830.515,-430.7 824.515,-430.7 818.515,-424.7 818.515,-418.7 818.515,-418.7 818.515,-393.1 818.515,-393.1 818.515,-387.1 824.515,-381.1 830.515,-381.1"/>
<text text-anchor="middle" x="944" y="-414.1" font-family="Helvetica,sans-Serif" font-size="14.00">hs_pep_shp_file</text>
<polyline fill="none" stroke="black" points="818.515,-405.9 1069.48,-405.9 "/>
<text text-anchor="middle" x="944" y="-389.3" font-family="Helvetica,sans-Serif" font-size="14.00">file:{dir_goal}/spatial/hs_pep_poly.shp</text>
</g>
<!-- hs_pep_shp_file&#45;&gt;load_and_create_howe_sound_wdpa_pep_files -->
<g id="edge11" class="edge"><title>hs_pep_shp_file&#45;&gt;load_and_create_howe_sound_wdpa_pep_files</title>
<path fill="none" stroke="black" d="M890.374,-381.077C867.133,-370.752 840.147,-358.763 817.623,-348.757"/>
<polygon fill="black" stroke="black" points="818.827,-345.462 808.267,-344.6 815.985,-351.859 818.827,-345.462"/>
</g>
<!-- hs_pep_shp_file&#45;&gt;rasterize_howe_sound_pep_shape_file -->
<g id="edge17" class="edge"><title>hs_pep_shp_file&#45;&gt;rasterize_howe_sound_pep_shape_file</title>
<path fill="none" stroke="black" d="M955.424,-380.718C963.25,-360.461 970.351,-331.301 959,-308.6 932.695,-255.989 872.967,-223.133 825.416,-204.387"/>
<polygon fill="black" stroke="black" points="826.367,-201.004 815.776,-200.712 823.873,-207.545 826.367,-201.004"/>
</g>
<!-- extent_of_howe_sound&#45;&gt;rasterize_howe_sound_wdpa_shape_file -->
<g id="edge14" class="edge"><title>extent_of_howe_sound&#45;&gt;rasterize_howe_sound_wdpa_shape_file</title>
<path fill="none" stroke="black" d="M395.933,-236.297C398.606,-228.498 401.826,-219.109 404.801,-210.429"/>
<polygon fill="black" stroke="black" points="408.203,-211.299 408.136,-200.704 401.582,-209.029 408.203,-211.299"/>
</g>
<!-- extent_of_howe_sound&#45;&gt;rasterize_howe_sound_pep_shape_file -->
<g id="edge18" class="edge"><title>extent_of_howe_sound&#45;&gt;rasterize_howe_sound_pep_shape_file</title>
<path fill="none" stroke="black" d="M470.304,-238.325C525.582,-227.81 599.399,-213.769 658.42,-202.542"/>
<polygon fill="black" stroke="black" points="659.338,-205.93 668.508,-200.623 658.03,-199.053 659.338,-205.93"/>
</g>
<!-- hs_wdpa_rast_file_handle&#45;&gt;rasterize_howe_sound_wdpa_shape_file -->
<g id="edge15" class="edge"><title>hs_wdpa_rast_file_handle&#45;&gt;rasterize_howe_sound_wdpa_shape_file</title>
<path fill="none" stroke="black" d="M537.881,-236.476C515.362,-226.864 487.082,-214.793 463.229,-204.613"/>
<polygon fill="black" stroke="black" points="464.56,-201.375 453.989,-200.668 461.812,-207.813 464.56,-201.375"/>
</g>
<!-- hs_pep_rast_file_handle&#45;&gt;rasterize_howe_sound_pep_shape_file -->
<g id="edge19" class="edge"><title>hs_pep_rast_file_handle&#45;&gt;rasterize_howe_sound_pep_shape_file</title>
<path fill="none" stroke="black" d="M767.034,-236.297C765.711,-228.583 764.122,-219.312 762.648,-210.712"/>
<polygon fill="black" stroke="black" points="766.072,-209.969 760.932,-200.704 759.172,-211.152 766.072,-209.969"/>
</g>
<!-- dir_spatial&#45;&gt;rasterize_ohibc_rgn_raster_500m_shape_file_at_500m_resolution -->
<g id="edge5" class="edge"><title>dir_spatial&#45;&gt;rasterize_ohibc_rgn_raster_500m_shape_file_at_500m_resolution</title>
<path fill="none" stroke="black" d="M95.342,-387.885C100.809,-385.25 106.506,-382.708 112,-380.6 146.746,-367.268 186.17,-355.918 220.503,-347.183"/>
<polygon fill="black" stroke="black" points="221.663,-350.501 230.512,-344.673 219.961,-343.711 221.663,-350.501"/>
</g>
<!-- dir_goal&#45;&gt;load_and_create_howe_sound_wdpa_pep_files -->
<g id="edge9" class="edge"><title>dir_goal&#45;&gt;load_and_create_howe_sound_wdpa_pep_files</title>
<path fill="none" stroke="black" d="M458.771,-387.759C463.677,-385.041 468.882,-382.504 474,-380.6 515.309,-365.235 561.564,-354.24 605.01,-346.404"/>
<polygon fill="black" stroke="black" points="605.865,-349.807 615.108,-344.629 604.653,-342.913 605.865,-349.807"/>
</g>
<!-- setup_R_input_port -->
<g id="node17" class="node"><title>setup_R_input_port</title>
<ellipse fill="#ffffff" stroke="black" cx="575" cy="-622.2" rx="7" ry="7"/>
</g>
<!-- setup_R_input_port&#45;&gt;setup_R -->
<g id="edge20" class="edge"><title>setup_R_input_port&#45;&gt;setup_R</title>
<path fill="none" stroke="black" d="M568.971,-618.161C555.329,-611.286 521.082,-594.025 492.817,-579.78"/>
<polygon fill="black" stroke="black" points="494.389,-576.653 483.883,-575.277 491.238,-582.903 494.389,-576.653"/>
</g>
<!-- hs_wdpa_shp_file_input_port -->
<g id="node18" class="node"><title>hs_wdpa_shp_file_input_port</title>
<ellipse fill="#ffffff" stroke="black" cx="607" cy="-622.2" rx="7" ry="7"/>
</g>
<!-- hs_wdpa_shp_file_input_port&#45;&gt;hs_wdpa_shp_file -->
<g id="edge21" class="edge"><title>hs_wdpa_shp_file_input_port&#45;&gt;hs_wdpa_shp_file</title>
<path fill="none" stroke="black" d="M608.326,-615.148C612.962,-592.214 626.037,-509.794 585,-467.2 584.101,-466.267 483.019,-448.042 392.47,-431.871"/>
<polygon fill="black" stroke="black" points="393.078,-428.424 382.619,-430.112 391.848,-435.315 393.078,-428.424"/>
</g>
<!-- hs_pep_shp_file_input_port -->
<g id="node19" class="node"><title>hs_pep_shp_file_input_port</title>
<ellipse fill="#ffffff" stroke="black" cx="671" cy="-622.2" rx="7" ry="7"/>
</g>
<!-- hs_pep_shp_file_input_port&#45;&gt;hs_pep_shp_file -->
<g id="edge22" class="edge"><title>hs_pep_shp_file_input_port&#45;&gt;hs_pep_shp_file</title>
<path fill="none" stroke="black" d="M676.21,-617.11C704.204,-595.136 837.993,-490.114 905.237,-437.328"/>
<polygon fill="black" stroke="black" points="907.781,-439.78 913.486,-430.853 903.459,-434.274 907.781,-439.78"/>
</g>
<!-- ohibc_rgn_raster_500m_input_port -->
<g id="node20" class="node"><title>ohibc_rgn_raster_500m_input_port</title>
<ellipse fill="#ffffff" stroke="black" cx="639" cy="-622.2" rx="7" ry="7"/>
</g>
<!-- ohibc_rgn_raster_500m_input_port&#45;&gt;ohibc_rgn_raster_500m -->
<g id="edge23" class="edge"><title>ohibc_rgn_raster_500m_input_port&#45;&gt;ohibc_rgn_raster_500m</title>
<path fill="none" stroke="black" d="M639.087,-615.018C639.44,-589.786 640.788,-493.471 641.52,-441.175"/>
<polygon fill="black" stroke="black" points="645.022,-441.079 641.662,-431.031 638.022,-440.981 645.022,-441.079"/>
</g>
</g>
</svg>
