<?xml version="1.0" encoding="UTF-8" standalone="no"?>
<!DOCTYPE svg PUBLIC "-//W3C//DTD SVG 1.1//EN"
 "http://www.w3.org/Graphics/SVG/1.1/DTD/svg11.dtd">
<!-- Generated by graphviz version 2.38.0 (20140413.2041)
 -->
<!-- Title: yw_data_view Pages: 1 -->
<svg width="702pt" height="518pt"
 viewBox="0.00 0.00 702.00 517.60" xmlns="http://www.w3.org/2000/svg" xmlns:xlink="http://www.w3.org/1999/xlink">
<g id="graph0" class="graph" transform="scale(1 1) rotate(0) translate(4 513.6)">
<title>yw_data_view</title>
<polygon fill="white" stroke="none" points="-4,4 -4,-513.6 698,-513.6 698,4 -4,4"/>
<text text-anchor="middle" x="347" y="-489.4" font-family="Courier,monospace" font-size="18.00">Rasterize_HS_WDPA_and_PEP</text>
<g id="clust1" class="cluster"><title>cluster_workflow</title>
<polygon fill="none" stroke="black" stroke-width="2" points="8,-62 8,-418 686,-418 686,-62 8,-62"/>
</g>
<g id="clust2" class="cluster"><title>cluster_workflow_inner</title>
<polygon fill="none" stroke="white" stroke-width="2" points="16,-70 16,-410 678,-410 678,-70 16,-70"/>
</g>
<g id="clust3" class="cluster"><title>cluster_inflows</title>
<polygon fill="none" stroke="white" stroke-width="2" points="392,-426 392,-472 438,-472 438,-426 392,-426"/>
</g>
<g id="clust4" class="cluster"><title>cluster_inflows_inner</title>
<polygon fill="none" stroke="white" stroke-width="2" points="400,-434 400,-464 430,-464 430,-434 400,-434"/>
</g>
<g id="clust5" class="cluster"><title>cluster_outflows</title>
<polygon fill="none" stroke="white" stroke-width="2" points="309,-8 309,-54 387,-54 387,-8 309,-8"/>
</g>
<g id="clust6" class="cluster"><title>cluster_outflows_inner</title>
<polygon fill="none" stroke="white" stroke-width="2" points="317,-16 317,-46 379,-46 379,-16 317,-16"/>
</g>
<!-- rasterize_howe_sound_wdpa_shape_file -->
<g id="node1" class="node"><title>rasterize_howe_sound_wdpa_shape_file</title>
<polygon fill="#ccffcc" stroke="black" points="342.35,-186 23.6502,-186 23.6502,-150 342.35,-150 342.35,-186"/>
<text text-anchor="middle" x="183" y="-163.8" font-family="Courier,monospace" font-size="14.00">rasterize_howe_sound_wdpa_shape_file</text>
</g>
<!-- hs_wdpa_rast_file -->
<g id="node7" class="node"><title>hs_wdpa_rast_file</title>
<path fill="#ffffcc" stroke="black" d="M282.305,-114C282.305,-114 177.695,-114 177.695,-114 171.695,-114 165.695,-108 165.695,-102 165.695,-102 165.695,-90 165.695,-90 165.695,-84 171.695,-78 177.695,-78 177.695,-78 282.305,-78 282.305,-78 288.305,-78 294.305,-84 294.305,-90 294.305,-90 294.305,-102 294.305,-102 294.305,-108 288.305,-114 282.305,-114"/>
<text text-anchor="middle" x="230" y="-91.8" font-family="Helvetica,sans-Serif" font-size="14.00">hs_wdpa_rast_file</text>
</g>
<!-- rasterize_howe_sound_wdpa_shape_file&#45;&gt;hs_wdpa_rast_file -->
<g id="edge2" class="edge"><title>rasterize_howe_sound_wdpa_shape_file&#45;&gt;hs_wdpa_rast_file</title>
<path fill="none" stroke="black" d="M194.618,-149.697C200.139,-141.474 206.847,-131.483 212.932,-122.421"/>
<polygon fill="black" stroke="black" points="215.847,-124.358 218.516,-114.104 210.035,-120.456 215.847,-124.358"/>
</g>
<!-- load_and_create_howe_sound_wdpa_pep_files -->
<g id="node2" class="node"><title>load_and_create_howe_sound_wdpa_pep_files</title>
<polygon fill="#ccffcc" stroke="black" points="496.343,-330 135.657,-330 135.657,-294 496.343,-294 496.343,-330"/>
<text text-anchor="middle" x="316" y="-307.8" font-family="Courier,monospace" font-size="14.00">load_and_create_howe_sound_wdpa_pep_files</text>
</g>
<!-- hs_wdpa_rast_file_handle -->
<g id="node5" class="node"><title>hs_wdpa_rast_file_handle</title>
<path fill="#ffffcc" stroke="black" d="M269.108,-258C269.108,-258 114.892,-258 114.892,-258 108.892,-258 102.892,-252 102.892,-246 102.892,-246 102.892,-234 102.892,-234 102.892,-228 108.892,-222 114.892,-222 114.892,-222 269.108,-222 269.108,-222 275.108,-222 281.108,-228 281.108,-234 281.108,-234 281.108,-246 281.108,-246 281.108,-252 275.108,-258 269.108,-258"/>
<text text-anchor="middle" x="192" y="-235.8" font-family="Helvetica,sans-Serif" font-size="14.00">hs_wdpa_rast_file_handle</text>
</g>
<!-- load_and_create_howe_sound_wdpa_pep_files&#45;&gt;hs_wdpa_rast_file_handle -->
<g id="edge4" class="edge"><title>load_and_create_howe_sound_wdpa_pep_files&#45;&gt;hs_wdpa_rast_file_handle</title>
<path fill="none" stroke="black" d="M285.666,-293.876C269.303,-284.639 248.917,-273.131 231.346,-263.212"/>
<polygon fill="black" stroke="black" points="232.879,-260.058 222.45,-258.19 229.438,-266.154 232.879,-260.058"/>
</g>
<!-- hs_pep_rast_file_handle -->
<g id="node6" class="node"><title>hs_pep_rast_file_handle</title>
<path fill="#ffffcc" stroke="black" d="M466.001,-258C466.001,-258 321.999,-258 321.999,-258 315.999,-258 309.999,-252 309.999,-246 309.999,-246 309.999,-234 309.999,-234 309.999,-228 315.999,-222 321.999,-222 321.999,-222 466.001,-222 466.001,-222 472.001,-222 478.001,-228 478.001,-234 478.001,-234 478.001,-246 478.001,-246 478.001,-252 472.001,-258 466.001,-258"/>
<text text-anchor="middle" x="394" y="-235.8" font-family="Helvetica,sans-Serif" font-size="14.00">hs_pep_rast_file_handle</text>
</g>
<!-- load_and_create_howe_sound_wdpa_pep_files&#45;&gt;hs_pep_rast_file_handle -->
<g id="edge3" class="edge"><title>load_and_create_howe_sound_wdpa_pep_files&#45;&gt;hs_pep_rast_file_handle</title>
<path fill="none" stroke="black" d="M335.281,-293.697C344.915,-285.05 356.729,-274.449 367.227,-265.027"/>
<polygon fill="black" stroke="black" points="369.836,-267.388 374.941,-258.104 365.161,-262.179 369.836,-267.388"/>
</g>
<!-- rasterize_howe_sound_pep_shape_file -->
<g id="node3" class="node"><title>rasterize_howe_sound_pep_shape_file</title>
<polygon fill="#ccffcc" stroke="black" points="669.951,-186 360.049,-186 360.049,-150 669.951,-150 669.951,-186"/>
<text text-anchor="middle" x="515" y="-163.8" font-family="Courier,monospace" font-size="14.00">rasterize_howe_sound_pep_shape_file</text>
</g>
<!-- hs_pep_rast_file -->
<g id="node8" class="node"><title>hs_pep_rast_file</title>
<path fill="#ffffcc" stroke="black" d="M514.199,-114C514.199,-114 419.801,-114 419.801,-114 413.801,-114 407.801,-108 407.801,-102 407.801,-102 407.801,-90 407.801,-90 407.801,-84 413.801,-78 419.801,-78 419.801,-78 514.199,-78 514.199,-78 520.199,-78 526.199,-84 526.199,-90 526.199,-90 526.199,-102 526.199,-102 526.199,-108 520.199,-114 514.199,-114"/>
<text text-anchor="middle" x="467" y="-91.8" font-family="Helvetica,sans-Serif" font-size="14.00">hs_pep_rast_file</text>
</g>
<!-- rasterize_howe_sound_pep_shape_file&#45;&gt;hs_pep_rast_file -->
<g id="edge1" class="edge"><title>rasterize_howe_sound_pep_shape_file&#45;&gt;hs_pep_rast_file</title>
<path fill="none" stroke="black" d="M503.135,-149.697C497.497,-141.474 490.646,-131.483 484.431,-122.421"/>
<polygon fill="black" stroke="black" points="487.271,-120.372 478.729,-114.104 481.497,-124.331 487.271,-120.372"/>
</g>
<!-- hs_pep_shp_file -->
<g id="node4" class="node"><title>hs_pep_shp_file</title>
<path fill="#ffffcc" stroke="black" d="M461.93,-402C461.93,-402 368.07,-402 368.07,-402 362.07,-402 356.07,-396 356.07,-390 356.07,-390 356.07,-378 356.07,-378 356.07,-372 362.07,-366 368.07,-366 368.07,-366 461.93,-366 461.93,-366 467.93,-366 473.93,-372 473.93,-378 473.93,-378 473.93,-390 473.93,-390 473.93,-396 467.93,-402 461.93,-402"/>
<text text-anchor="middle" x="415" y="-379.8" font-family="Helvetica,sans-Serif" font-size="14.00">hs_pep_shp_file</text>
</g>
<!-- hs_pep_shp_file&#45;&gt;load_and_create_howe_sound_wdpa_pep_files -->
<g id="edge5" class="edge"><title>hs_pep_shp_file&#45;&gt;load_and_create_howe_sound_wdpa_pep_files</title>
<path fill="none" stroke="black" d="M390.782,-365.876C378.077,-356.893 362.336,-345.763 348.577,-336.034"/>
<polygon fill="black" stroke="black" points="350.497,-333.105 340.311,-330.19 346.456,-338.821 350.497,-333.105"/>
</g>
<!-- hs_pep_shp_file&#45;&gt;rasterize_howe_sound_pep_shape_file -->
<g id="edge7" class="edge"><title>hs_pep_shp_file&#45;&gt;rasterize_howe_sound_pep_shape_file</title>
<path fill="none" stroke="black" d="M462.55,-365.894C478.756,-357.609 495.233,-345.92 505,-330 530.241,-288.86 526.028,-230.141 520.58,-196.16"/>
<polygon fill="black" stroke="black" points="523.981,-195.293 518.803,-186.05 517.087,-196.504 523.981,-195.293"/>
</g>
<!-- hs_wdpa_rast_file_handle&#45;&gt;rasterize_howe_sound_wdpa_shape_file -->
<g id="edge6" class="edge"><title>hs_wdpa_rast_file_handle&#45;&gt;rasterize_howe_sound_wdpa_shape_file</title>
<path fill="none" stroke="black" d="M189.775,-221.697C188.783,-213.983 187.592,-204.712 186.486,-196.112"/>
<polygon fill="black" stroke="black" points="189.946,-195.576 185.199,-186.104 183.003,-196.469 189.946,-195.576"/>
</g>
<!-- hs_pep_rast_file_handle&#45;&gt;rasterize_howe_sound_pep_shape_file -->
<g id="edge8" class="edge"><title>hs_pep_rast_file_handle&#45;&gt;rasterize_howe_sound_pep_shape_file</title>
<path fill="none" stroke="black" d="M423.6,-221.876C439.567,-212.639 459.46,-201.131 476.606,-191.212"/>
<polygon fill="black" stroke="black" points="478.383,-194.227 485.286,-186.19 474.878,-188.168 478.383,-194.227"/>
</g>
<!-- hs_wdpa_rast_file_outflow -->
<g id="node11" class="node"><title>hs_wdpa_rast_file_outflow</title>
<ellipse fill="none" stroke="black" cx="332" cy="-31" rx="7" ry="7"/>
</g>
<!-- hs_wdpa_rast_file&#45;&gt;hs_wdpa_rast_file_outflow -->
<g id="edge11" class="edge"><title>hs_wdpa_rast_file&#45;&gt;hs_wdpa_rast_file_outflow</title>
<path fill="none" stroke="black" d="M257.603,-77.9513C276.962,-65.9941 302.064,-50.4901 317.596,-40.8964"/>
<polygon fill="black" stroke="black" points="319.597,-43.7748 326.265,-35.542 315.918,-37.8192 319.597,-43.7748"/>
</g>
<!-- hs_pep_rast_file_outflow -->
<g id="node10" class="node"><title>hs_pep_rast_file_outflow</title>
<ellipse fill="none" stroke="black" cx="364" cy="-31" rx="7" ry="7"/>
</g>
<!-- hs_pep_rast_file&#45;&gt;hs_pep_rast_file_outflow -->
<g id="edge10" class="edge"><title>hs_pep_rast_file&#45;&gt;hs_pep_rast_file_outflow</title>
<path fill="none" stroke="black" d="M439.127,-77.9513C419.578,-65.9941 394.23,-50.4901 378.545,-40.8964"/>
<polygon fill="black" stroke="black" points="380.148,-37.7742 369.791,-35.542 376.495,-43.7457 380.148,-37.7742"/>
</g>
<!-- hs_pep_shp_file_inflow -->
<g id="node9" class="node"><title>hs_pep_shp_file_inflow</title>
<ellipse fill="none" stroke="black" cx="415" cy="-449" rx="7" ry="7"/>
</g>
<!-- hs_pep_shp_file_inflow&#45;&gt;hs_pep_shp_file -->
<g id="edge9" class="edge"><title>hs_pep_shp_file_inflow&#45;&gt;hs_pep_shp_file</title>
<path fill="none" stroke="black" d="M415,-441.729C415,-434.795 415,-423.154 415,-412.215"/>
<polygon fill="black" stroke="black" points="418.5,-412.119 415,-402.119 411.5,-412.119 418.5,-412.119"/>
</g>
</g>
</svg>
