<?xml version="1.0" encoding="UTF-8" standalone="no"?>
<!DOCTYPE svg PUBLIC "-//W3C//DTD SVG 1.1//EN"
 "http://www.w3.org/Graphics/SVG/1.1/DTD/svg11.dtd">
<!-- Generated by graphviz version 2.38.0 (20140413.2041)
 -->
<!-- Title: yw_data_view Pages: 1 -->
<svg width="1002pt" height="669pt"
 viewBox="0.00 0.00 1002.00 669.40" xmlns="http://www.w3.org/2000/svg" xmlns:xlink="http://www.w3.org/1999/xlink">
<g id="graph0" class="graph" transform="scale(1 1) rotate(0) translate(4 665.4)">
<title>yw_data_view</title>
<polygon fill="white" stroke="none" points="-4,4 -4,-665.4 998,-665.4 998,4 -4,4"/>
<text text-anchor="middle" x="497" y="-641.2" font-family="Courier,monospace" font-size="18.00">Rasterize_HS_WDPA_and_PEP</text>
<g id="clust1" class="cluster"><title>cluster_workflow</title>
<polygon fill="none" stroke="black" stroke-width="2" points="8,-62 8,-569.8 986,-569.8 986,-62 8,-62"/>
</g>
<g id="clust2" class="cluster"><title>cluster_workflow_inner</title>
<polygon fill="none" stroke="white" stroke-width="2" points="16,-70 16,-561.8 978,-561.8 978,-70 16,-70"/>
</g>
<g id="clust3" class="cluster"><title>cluster_inflows</title>
<polygon fill="none" stroke="white" stroke-width="2" points="611,-577.8 611,-623.8 753,-623.8 753,-577.8 611,-577.8"/>
</g>
<g id="clust4" class="cluster"><title>cluster_inflows_inner</title>
<polygon fill="none" stroke="white" stroke-width="2" points="619,-585.8 619,-615.8 745,-615.8 745,-585.8 619,-585.8"/>
</g>
<g id="clust5" class="cluster"><title>cluster_outflows</title>
<polygon fill="none" stroke="white" stroke-width="2" points="609,-8 609,-54 687,-54 687,-8 609,-8"/>
</g>
<g id="clust6" class="cluster"><title>cluster_outflows_inner</title>
<polygon fill="none" stroke="white" stroke-width="2" points="617,-16 617,-46 679,-46 679,-16 617,-16"/>
</g>
<!-- set_up_configuration_and_start_provenance_tracking -->
<g id="node1" class="node"><title>set_up_configuration_and_start_provenance_tracking</title>
<polygon fill="#ccffcc" stroke="black" points="579.93,-479.2 144.07,-479.2 144.07,-443.2 579.93,-443.2 579.93,-479.2"/>
<text text-anchor="middle" x="362" y="-457" font-family="Courier,monospace" font-size="14.00">set_up_configuration_and_start_provenance_tracking</text>
</g>
<!-- dir_spatial -->
<g id="node10" class="node"><title>dir_spatial</title>
<path fill="#ffffcc" stroke="black" d="M304.504,-405.9C304.504,-405.9 271.496,-405.9 271.496,-405.9 265.496,-405.9 259.496,-399.9 259.496,-393.9 259.496,-393.9 259.496,-381.9 259.496,-381.9 259.496,-375.9 265.496,-369.9 271.496,-369.9 271.496,-369.9 304.504,-369.9 304.504,-369.9 310.504,-369.9 316.504,-375.9 316.504,-381.9 316.504,-381.9 316.504,-393.9 316.504,-393.9 316.504,-399.9 310.504,-405.9 304.504,-405.9"/>
<text text-anchor="middle" x="288" y="-385.2" font-family="Helvetica,sans-Serif" font-size="9.00">dir_spatial</text>
</g>
<!-- set_up_configuration_and_start_provenance_tracking&#45;&gt;dir_spatial -->
<g id="edge13" class="edge"><title>set_up_configuration_and_start_provenance_tracking&#45;&gt;dir_spatial</title>
<path fill="none" stroke="black" d="M344.087,-442.94C334.815,-434.007 323.342,-422.953 313.193,-413.174"/>
<polygon fill="black" stroke="black" points="315.378,-410.419 305.748,-406.001 310.521,-415.46 315.378,-410.419"/>
</g>
<!-- dir_goal -->
<g id="node11" class="node"><title>dir_goal</title>
<path fill="#ffffcc" stroke="black" d="M377,-405.9C377,-405.9 347,-405.9 347,-405.9 341,-405.9 335,-399.9 335,-393.9 335,-393.9 335,-381.9 335,-381.9 335,-375.9 341,-369.9 347,-369.9 347,-369.9 377,-369.9 377,-369.9 383,-369.9 389,-375.9 389,-381.9 389,-381.9 389,-393.9 389,-393.9 389,-399.9 383,-405.9 377,-405.9"/>
<text text-anchor="middle" x="362" y="-385.2" font-family="Helvetica,sans-Serif" font-size="9.00">dir_goal</text>
</g>
<!-- set_up_configuration_and_start_provenance_tracking&#45;&gt;dir_goal -->
<g id="edge14" class="edge"><title>set_up_configuration_and_start_provenance_tracking&#45;&gt;dir_goal</title>
<path fill="none" stroke="black" d="M362,-442.94C362,-434.883 362,-425.1 362,-416.084"/>
<polygon fill="black" stroke="black" points="365.5,-416.001 362,-406.001 358.5,-416.001 365.5,-416.001"/>
</g>
<!-- rasterize_ohibc_rgn_raster_500m_shape_file_at_500m_resolution -->
<g id="node2" class="node"><title>rasterize_ohibc_rgn_raster_500m_shape_file_at_500m_resolution</title>
<polygon fill="#ccffcc" stroke="black" points="552.315,-332.6 23.6853,-332.6 23.6853,-296.6 552.315,-296.6 552.315,-332.6"/>
<text text-anchor="middle" x="288" y="-310.4" font-family="Courier,monospace" font-size="14.00">rasterize_ohibc_rgn_raster_500m_shape_file_at_500m_resolution</text>
</g>
<!-- extent_of_howe_sound -->
<g id="node12" class="node"><title>extent_of_howe_sound</title>
<path fill="#ffffcc" stroke="black" d="M525.544,-260.6C525.544,-260.6 440.456,-260.6 440.456,-260.6 434.456,-260.6 428.456,-254.6 428.456,-248.6 428.456,-248.6 428.456,-236.6 428.456,-236.6 428.456,-230.6 434.456,-224.6 440.456,-224.6 440.456,-224.6 525.544,-224.6 525.544,-224.6 531.544,-224.6 537.544,-230.6 537.544,-236.6 537.544,-236.6 537.544,-248.6 537.544,-248.6 537.544,-254.6 531.544,-260.6 525.544,-260.6"/>
<text text-anchor="middle" x="483" y="-239.9" font-family="Helvetica,sans-Serif" font-size="9.00">extent_of_howe_sound</text>
</g>
<!-- rasterize_ohibc_rgn_raster_500m_shape_file_at_500m_resolution&#45;&gt;extent_of_howe_sound -->
<g id="edge15" class="edge"><title>rasterize_ohibc_rgn_raster_500m_shape_file_at_500m_resolution&#45;&gt;extent_of_howe_sound</title>
<path fill="none" stroke="black" d="M335.702,-296.476C362.952,-286.694 397.297,-274.365 425.966,-264.074"/>
<polygon fill="black" stroke="black" points="427.223,-267.341 435.453,-260.668 424.858,-260.753 427.223,-267.341"/>
</g>
<!-- load_and_create_howe_sound_wdpa_pep_files -->
<g id="node3" class="node"><title>load_and_create_howe_sound_wdpa_pep_files</title>
<polygon fill="#ccffcc" stroke="black" points="950.343,-332.6 589.657,-332.6 589.657,-296.6 950.343,-296.6 950.343,-332.6"/>
<text text-anchor="middle" x="770" y="-310.4" font-family="Courier,monospace" font-size="14.00">load_and_create_howe_sound_wdpa_pep_files</text>
</g>
<!-- hs_wdpa_rast_file_handle -->
<g id="node13" class="node"><title>hs_wdpa_rast_file_handle</title>
<path fill="#ffffcc" stroke="black" d="M706.034,-260.6C706.034,-260.6 609.966,-260.6 609.966,-260.6 603.966,-260.6 597.966,-254.6 597.966,-248.6 597.966,-248.6 597.966,-236.6 597.966,-236.6 597.966,-230.6 603.966,-224.6 609.966,-224.6 609.966,-224.6 706.034,-224.6 706.034,-224.6 712.034,-224.6 718.034,-230.6 718.034,-236.6 718.034,-236.6 718.034,-248.6 718.034,-248.6 718.034,-254.6 712.034,-260.6 706.034,-260.6"/>
<text text-anchor="middle" x="658" y="-239.9" font-family="Helvetica,sans-Serif" font-size="9.00">hs_wdpa_rast_file_handle</text>
</g>
<!-- load_and_create_howe_sound_wdpa_pep_files&#45;&gt;hs_wdpa_rast_file_handle -->
<g id="edge16" class="edge"><title>load_and_create_howe_sound_wdpa_pep_files&#45;&gt;hs_wdpa_rast_file_handle</title>
<path fill="none" stroke="black" d="M742.602,-296.476C728.093,-287.408 710.084,-276.152 694.415,-266.359"/>
<polygon fill="black" stroke="black" points="695.839,-263.122 685.504,-260.79 692.129,-269.058 695.839,-263.122"/>
</g>
<!-- hs_pep_rast_file_handle -->
<g id="node14" class="node"><title>hs_pep_rast_file_handle</title>
<path fill="#ffffcc" stroke="black" d="M853.036,-260.6C853.036,-260.6 762.964,-260.6 762.964,-260.6 756.964,-260.6 750.964,-254.6 750.964,-248.6 750.964,-248.6 750.964,-236.6 750.964,-236.6 750.964,-230.6 756.964,-224.6 762.964,-224.6 762.964,-224.6 853.036,-224.6 853.036,-224.6 859.036,-224.6 865.036,-230.6 865.036,-236.6 865.036,-236.6 865.036,-248.6 865.036,-248.6 865.036,-254.6 859.036,-260.6 853.036,-260.6"/>
<text text-anchor="middle" x="808" y="-239.9" font-family="Helvetica,sans-Serif" font-size="9.00">hs_pep_rast_file_handle</text>
</g>
<!-- load_and_create_howe_sound_wdpa_pep_files&#45;&gt;hs_pep_rast_file_handle -->
<g id="edge17" class="edge"><title>load_and_create_howe_sound_wdpa_pep_files&#45;&gt;hs_pep_rast_file_handle</title>
<path fill="none" stroke="black" d="M779.393,-296.297C783.765,-288.244 789.057,-278.494 793.895,-269.582"/>
<polygon fill="black" stroke="black" points="797.02,-271.163 798.715,-260.704 790.868,-267.823 797.02,-271.163"/>
</g>
<!-- rasterize_howe_sound_wdpa_shape_file -->
<g id="node4" class="node"><title>rasterize_howe_sound_wdpa_shape_file</title>
<polygon fill="#ccffcc" stroke="black" points="642.35,-188.6 323.65,-188.6 323.65,-152.6 642.35,-152.6 642.35,-188.6"/>
<text text-anchor="middle" x="483" y="-166.4" font-family="Courier,monospace" font-size="14.00">rasterize_howe_sound_wdpa_shape_file</text>
</g>
<!-- hs_wdpa_rast_file -->
<g id="node15" class="node"><title>hs_wdpa_rast_file</title>
<path fill="#ffe4b5" stroke="black" d="M391.619,-78.5C391.619,-78.5 610.381,-78.5 610.381,-78.5 616.381,-78.5 622.381,-84.5 622.381,-90.5 622.381,-90.5 622.381,-104.1 622.381,-104.1 622.381,-110.1 616.381,-116.1 610.381,-116.1 610.381,-116.1 391.619,-116.1 391.619,-116.1 385.619,-116.1 379.619,-110.1 379.619,-104.1 379.619,-104.1 379.619,-90.5 379.619,-90.5 379.619,-84.5 385.619,-78.5 391.619,-78.5"/>
<text text-anchor="middle" x="501" y="-104" font-family="Courier,monospace" font-weight="bold" font-size="9.00">hs_wdpa_rast_file</text>
<polyline fill="none" stroke="black" points="379.619,-97.3 622.381,-97.3 "/>
<text text-anchor="start" x="387.619" y="-85.2" font-family="Courier,monospace" font-weight="bold" font-size="9.00">prep/lsp/vHS/spatial/hs_wdpa_rast_500m.tif</text>
</g>
<!-- rasterize_howe_sound_wdpa_shape_file&#45;&gt;hs_wdpa_rast_file -->
<g id="edge18" class="edge"><title>rasterize_howe_sound_wdpa_shape_file&#45;&gt;hs_wdpa_rast_file</title>
<path fill="none" stroke="black" d="M487.357,-152.34C489.332,-144.52 491.716,-135.074 493.936,-126.281"/>
<polygon fill="black" stroke="black" points="497.377,-126.948 496.432,-116.396 490.59,-125.235 497.377,-126.948"/>
</g>
<!-- rasterize_howe_sound_pep_shape_file -->
<g id="node5" class="node"><title>rasterize_howe_sound_pep_shape_file</title>
<polygon fill="#ccffcc" stroke="black" points="969.951,-188.6 660.049,-188.6 660.049,-152.6 969.951,-152.6 969.951,-188.6"/>
<text text-anchor="middle" x="815" y="-166.4" font-family="Courier,monospace" font-size="14.00">rasterize_howe_sound_pep_shape_file</text>
</g>
<!-- hs_pep_rast_file -->
<g id="node16" class="node"><title>hs_pep_rast_file</title>
<path fill="#ffe4b5" stroke="black" d="M689.318,-78.5C689.318,-78.5 902.682,-78.5 902.682,-78.5 908.682,-78.5 914.682,-84.5 914.682,-90.5 914.682,-90.5 914.682,-104.1 914.682,-104.1 914.682,-110.1 908.682,-116.1 902.682,-116.1 902.682,-116.1 689.318,-116.1 689.318,-116.1 683.318,-116.1 677.318,-110.1 677.318,-104.1 677.318,-104.1 677.318,-90.5 677.318,-90.5 677.318,-84.5 683.318,-78.5 689.318,-78.5"/>
<text text-anchor="middle" x="796" y="-104" font-family="Courier,monospace" font-weight="bold" font-size="9.00">hs_pep_rast_file</text>
<polyline fill="none" stroke="black" points="677.318,-97.3 914.682,-97.3 "/>
<text text-anchor="start" x="685.318" y="-85.2" font-family="Courier,monospace" font-weight="bold" font-size="9.00">prep/lsp/vHS/spatial/hs_pep_rast_500m.tif</text>
</g>
<!-- rasterize_howe_sound_pep_shape_file&#45;&gt;hs_pep_rast_file -->
<g id="edge19" class="edge"><title>rasterize_howe_sound_pep_shape_file&#45;&gt;hs_pep_rast_file</title>
<path fill="none" stroke="black" d="M810.401,-152.34C808.317,-144.52 805.799,-135.074 803.456,-126.281"/>
<polygon fill="black" stroke="black" points="806.779,-125.157 800.822,-116.396 800.015,-126.96 806.779,-125.157"/>
</g>
<!-- setup_R -->
<g id="node6" class="node"><title>setup_R</title>
<path fill="#ffe4b5" stroke="black" d="M487,-515.7C487,-515.7 517,-515.7 517,-515.7 523,-515.7 529,-521.7 529,-527.7 529,-527.7 529,-541.3 529,-541.3 529,-547.3 523,-553.3 517,-553.3 517,-553.3 487,-553.3 487,-553.3 481,-553.3 475,-547.3 475,-541.3 475,-541.3 475,-527.7 475,-527.7 475,-521.7 481,-515.7 487,-515.7"/>
<text text-anchor="middle" x="501.897" y="-541.2" font-family="Courier,monospace" font-weight="bold" font-size="9.00">setup_R</text>
<polyline fill="none" stroke="black" points="475,-534.5 528.794,-534.5 "/>
<text text-anchor="middle" x="501.897" y="-522.4" font-family="Courier,monospace" font-weight="bold" font-size="9.00"> </text>
</g>
<!-- setup_R&#45;&gt;set_up_configuration_and_start_provenance_tracking -->
<g id="edge1" class="edge"><title>setup_R&#45;&gt;set_up_configuration_and_start_provenance_tracking</title>
<path fill="none" stroke="black" d="M474.674,-519.583C454.742,-509.432 427.344,-495.479 404.556,-483.873"/>
<polygon fill="black" stroke="black" points="405.931,-480.646 395.431,-479.226 402.754,-486.883 405.931,-480.646"/>
</g>
<!-- ohibc_rgn_raster_500m -->
<g id="node7" class="node"><title>ohibc_rgn_raster_500m</title>
<path fill="#ffe4b5" stroke="black" d="M418.52,-369.1C418.52,-369.1 653.48,-369.1 653.48,-369.1 659.48,-369.1 665.48,-375.1 665.48,-381.1 665.48,-381.1 665.48,-394.7 665.48,-394.7 665.48,-400.7 659.48,-406.7 653.48,-406.7 653.48,-406.7 418.52,-406.7 418.52,-406.7 412.52,-406.7 406.52,-400.7 406.52,-394.7 406.52,-394.7 406.52,-381.1 406.52,-381.1 406.52,-375.1 412.52,-369.1 418.52,-369.1"/>
<text text-anchor="middle" x="536" y="-394.6" font-family="Courier,monospace" font-weight="bold" font-size="9.00">ohibc_rgn_raster_500m</text>
<polyline fill="none" stroke="black" points="406.52,-387.9 665.48,-387.9 "/>
<text text-anchor="start" x="414.52" y="-375.8" font-family="Courier,monospace" font-weight="bold" font-size="9.00">prep/spatial/raster/ohibc_rgn_raster_500m.tif</text>
</g>
<!-- ohibc_rgn_raster_500m&#45;&gt;rasterize_ohibc_rgn_raster_500m_shape_file_at_500m_resolution -->
<g id="edge4" class="edge"><title>ohibc_rgn_raster_500m&#45;&gt;rasterize_ohibc_rgn_raster_500m_shape_file_at_500m_resolution</title>
<path fill="none" stroke="black" d="M474.059,-369.092C438.5,-358.869 393.767,-346.008 357.076,-335.459"/>
<polygon fill="black" stroke="black" points="358.022,-332.09 347.444,-332.69 356.088,-338.817 358.022,-332.09"/>
</g>
<!-- hs_wdpa_shp_file -->
<g id="node8" class="node"><title>hs_wdpa_shp_file</title>
<path fill="#ffe4b5" stroke="black" d="M695.807,-369.1C695.807,-369.1 774.193,-369.1 774.193,-369.1 780.193,-369.1 786.193,-375.1 786.193,-381.1 786.193,-381.1 786.193,-394.7 786.193,-394.7 786.193,-400.7 780.193,-406.7 774.193,-406.7 774.193,-406.7 695.807,-406.7 695.807,-406.7 689.807,-406.7 683.807,-400.7 683.807,-394.7 683.807,-394.7 683.807,-381.1 683.807,-381.1 683.807,-375.1 689.807,-369.1 695.807,-369.1"/>
<text text-anchor="middle" x="735" y="-394.6" font-family="Courier,monospace" font-weight="bold" font-size="9.00">hs_wdpa_shp_file</text>
<polyline fill="none" stroke="black" points="683.807,-387.9 786.193,-387.9 "/>
<text text-anchor="middle" x="735" y="-375.8" font-family="Courier,monospace" font-weight="bold" font-size="9.00"> </text>
</g>
<!-- hs_wdpa_shp_file&#45;&gt;load_and_create_howe_sound_wdpa_pep_files -->
<g id="edge7" class="edge"><title>hs_wdpa_shp_file&#45;&gt;load_and_create_howe_sound_wdpa_pep_files</title>
<path fill="none" stroke="black" d="M743.832,-368.908C747.818,-360.789 752.606,-351.035 756.991,-342.102"/>
<polygon fill="black" stroke="black" points="760.268,-343.367 761.533,-332.848 753.985,-340.283 760.268,-343.367"/>
</g>
<!-- hs_wdpa_shp_file&#45;&gt;rasterize_howe_sound_wdpa_shape_file -->
<g id="edge8" class="edge"><title>hs_wdpa_shp_file&#45;&gt;rasterize_howe_sound_wdpa_shape_file</title>
<path fill="none" stroke="black" d="M683.521,-371.261C641.723,-358.153 588.512,-340.371 581,-332.6 546.027,-296.417 575.084,-266.357 547,-224.6 539.44,-213.359 528.816,-203.234 518.392,-194.919"/>
<polygon fill="black" stroke="black" points="520.219,-191.911 510.138,-188.651 515.985,-197.486 520.219,-191.911"/>
</g>
<!-- hs_pep_shp_file -->
<g id="node9" class="node"><title>hs_pep_shp_file</title>
<path fill="#ffe4b5" stroke="black" d="M816.507,-369.1C816.507,-369.1 889.493,-369.1 889.493,-369.1 895.493,-369.1 901.493,-375.1 901.493,-381.1 901.493,-381.1 901.493,-394.7 901.493,-394.7 901.493,-400.7 895.493,-406.7 889.493,-406.7 889.493,-406.7 816.507,-406.7 816.507,-406.7 810.507,-406.7 804.507,-400.7 804.507,-394.7 804.507,-394.7 804.507,-381.1 804.507,-381.1 804.507,-375.1 810.507,-369.1 816.507,-369.1"/>
<text text-anchor="middle" x="853" y="-394.6" font-family="Courier,monospace" font-weight="bold" font-size="9.00">hs_pep_shp_file</text>
<polyline fill="none" stroke="black" points="804.507,-387.9 901.493,-387.9 "/>
<text text-anchor="middle" x="853" y="-375.8" font-family="Courier,monospace" font-weight="bold" font-size="9.00"> </text>
</g>
<!-- hs_pep_shp_file&#45;&gt;load_and_create_howe_sound_wdpa_pep_files -->
<g id="edge9" class="edge"><title>hs_pep_shp_file&#45;&gt;load_and_create_howe_sound_wdpa_pep_files</title>
<path fill="none" stroke="black" d="M832.056,-368.908C821.622,-359.945 808.869,-348.99 797.643,-339.347"/>
<polygon fill="black" stroke="black" points="799.661,-336.466 789.795,-332.605 795.1,-341.776 799.661,-336.466"/>
</g>
<!-- hs_pep_shp_file&#45;&gt;rasterize_howe_sound_pep_shape_file -->
<g id="edge10" class="edge"><title>hs_pep_shp_file&#45;&gt;rasterize_howe_sound_pep_shape_file</title>
<path fill="none" stroke="black" d="M901.655,-374.514C923.157,-366.357 946.382,-353.241 959,-332.6 967.345,-318.949 965.64,-311.157 959,-296.6 938.127,-250.841 891.314,-215.371 856.7,-194.093"/>
<polygon fill="black" stroke="black" points="858.118,-190.862 847.74,-188.731 854.524,-196.869 858.118,-190.862"/>
</g>
<!-- dir_spatial&#45;&gt;rasterize_ohibc_rgn_raster_500m_shape_file_at_500m_resolution -->
<g id="edge2" class="edge"><title>dir_spatial&#45;&gt;rasterize_ohibc_rgn_raster_500m_shape_file_at_500m_resolution</title>
<path fill="none" stroke="black" d="M288,-369.64C288,-361.583 288,-351.8 288,-342.784"/>
<polygon fill="black" stroke="black" points="291.5,-342.701 288,-332.701 284.5,-342.701 291.5,-342.701"/>
</g>
<!-- dir_goal&#45;&gt;load_and_create_howe_sound_wdpa_pep_files -->
<g id="edge3" class="edge"><title>dir_goal&#45;&gt;load_and_create_howe_sound_wdpa_pep_files</title>
<path fill="none" stroke="black" d="M389.123,-371.947C392.064,-370.679 395.058,-369.529 398,-368.6 455.629,-350.4 520.264,-338.431 579.288,-330.568"/>
<polygon fill="black" stroke="black" points="580.007,-334.004 589.473,-329.244 579.105,-327.062 580.007,-334.004"/>
</g>
<!-- extent_of_howe_sound&#45;&gt;rasterize_howe_sound_wdpa_shape_file -->
<g id="edge5" class="edge"><title>extent_of_howe_sound&#45;&gt;rasterize_howe_sound_wdpa_shape_file</title>
<path fill="none" stroke="black" d="M483,-224.297C483,-216.583 483,-207.312 483,-198.712"/>
<polygon fill="black" stroke="black" points="486.5,-198.704 483,-188.704 479.5,-198.704 486.5,-198.704"/>
</g>
<!-- extent_of_howe_sound&#45;&gt;rasterize_howe_sound_pep_shape_file -->
<g id="edge6" class="edge"><title>extent_of_howe_sound&#45;&gt;rasterize_howe_sound_pep_shape_file</title>
<path fill="none" stroke="black" d="M537.823,-230.041C588.504,-219.355 664.774,-203.274 724.486,-190.684"/>
<polygon fill="black" stroke="black" points="725.235,-194.103 734.298,-188.616 723.791,-187.254 725.235,-194.103"/>
</g>
<!-- hs_wdpa_rast_file_handle&#45;&gt;rasterize_howe_sound_wdpa_shape_file -->
<g id="edge11" class="edge"><title>hs_wdpa_rast_file_handle&#45;&gt;rasterize_howe_sound_wdpa_shape_file</title>
<path fill="none" stroke="black" d="M615.19,-224.476C591.054,-214.822 560.716,-202.687 535.194,-192.478"/>
<polygon fill="black" stroke="black" points="536.255,-189.133 525.671,-188.668 533.656,-195.632 536.255,-189.133"/>
</g>
<!-- hs_pep_rast_file_handle&#45;&gt;rasterize_howe_sound_pep_shape_file -->
<g id="edge12" class="edge"><title>hs_pep_rast_file_handle&#45;&gt;rasterize_howe_sound_pep_shape_file</title>
<path fill="none" stroke="black" d="M809.73,-224.297C810.502,-216.583 811.429,-207.312 812.289,-198.712"/>
<polygon fill="black" stroke="black" points="815.777,-199.003 813.29,-188.704 808.812,-198.306 815.777,-199.003"/>
</g>
<!-- hs_wdpa_rast_file_outflow -->
<g id="node22" class="node"><title>hs_wdpa_rast_file_outflow</title>
<ellipse fill="none" stroke="black" cx="632" cy="-31" rx="7" ry="7"/>
</g>
<!-- hs_wdpa_rast_file&#45;&gt;hs_wdpa_rast_file_outflow -->
<g id="edge25" class="edge"><title>hs_wdpa_rast_file&#45;&gt;hs_wdpa_rast_file_outflow</title>
<path fill="none" stroke="black" d="M537.491,-78.3889C563.808,-65.4712 597.956,-48.7102 617.169,-39.2796"/>
<polygon fill="black" stroke="black" points="618.727,-42.4137 626.162,-34.8655 615.643,-36.1298 618.727,-42.4137"/>
</g>
<!-- hs_pep_rast_file_outflow -->
<g id="node21" class="node"><title>hs_pep_rast_file_outflow</title>
<ellipse fill="none" stroke="black" cx="664" cy="-31" rx="7" ry="7"/>
</g>
<!-- hs_pep_rast_file&#45;&gt;hs_pep_rast_file_outflow -->
<g id="edge24" class="edge"><title>hs_pep_rast_file&#45;&gt;hs_pep_rast_file_outflow</title>
<path fill="none" stroke="black" d="M759.231,-78.3889C732.712,-65.4712 698.304,-48.7102 678.944,-39.2796"/>
<polygon fill="black" stroke="black" points="680.405,-36.0982 669.882,-34.8655 677.34,-42.3913 680.405,-36.0982"/>
</g>
<!-- setup_R_inflow -->
<g id="node17" class="node"><title>setup_R_inflow</title>
<ellipse fill="none" stroke="black" cx="634" cy="-600.8" rx="7" ry="7"/>
</g>
<!-- setup_R_inflow&#45;&gt;setup_R -->
<g id="edge20" class="edge"><title>setup_R_inflow&#45;&gt;setup_R</title>
<path fill="none" stroke="black" d="M627.985,-596.87C612.399,-589.278 569.731,-568.493 538.351,-553.207"/>
<polygon fill="black" stroke="black" points="539.54,-549.893 529.017,-548.661 536.474,-556.186 539.54,-549.893"/>
</g>
<!-- ohibc_rgn_raster_500m_inflow -->
<g id="node18" class="node"><title>ohibc_rgn_raster_500m_inflow</title>
<ellipse fill="none" stroke="black" cx="666" cy="-600.8" rx="7" ry="7"/>
</g>
<!-- ohibc_rgn_raster_500m_inflow&#45;&gt;ohibc_rgn_raster_500m -->
<g id="edge21" class="edge"><title>ohibc_rgn_raster_500m_inflow&#45;&gt;ohibc_rgn_raster_500m</title>
<path fill="none" stroke="black" d="M663.933,-594.038C656.152,-572.773 627.113,-497.139 589,-443.2 581.768,-432.965 572.592,-422.838 563.916,-414.153"/>
<polygon fill="black" stroke="black" points="566.09,-411.386 556.481,-406.925 561.211,-416.405 566.09,-411.386"/>
</g>
<!-- hs_wdpa_shp_file_inflow -->
<g id="node19" class="node"><title>hs_wdpa_shp_file_inflow</title>
<ellipse fill="none" stroke="black" cx="698" cy="-600.8" rx="7" ry="7"/>
</g>
<!-- hs_wdpa_shp_file_inflow&#45;&gt;hs_wdpa_shp_file -->
<g id="edge22" class="edge"><title>hs_wdpa_shp_file_inflow&#45;&gt;hs_wdpa_shp_file</title>
<path fill="none" stroke="black" d="M699.067,-593.716C703.593,-567.918 721.365,-466.617 730.1,-416.828"/>
<polygon fill="black" stroke="black" points="733.588,-417.205 731.868,-406.75 726.693,-415.995 733.588,-417.205"/>
</g>
<!-- hs_pep_shp_file_inflow -->
<g id="node20" class="node"><title>hs_pep_shp_file_inflow</title>
<ellipse fill="none" stroke="black" cx="730" cy="-600.8" rx="7" ry="7"/>
</g>
<!-- hs_pep_shp_file_inflow&#45;&gt;hs_pep_shp_file -->
<g id="edge23" class="edge"><title>hs_pep_shp_file_inflow&#45;&gt;hs_pep_shp_file</title>
<path fill="none" stroke="black" d="M733.29,-594.159C748.005,-568.928 808.33,-465.493 837.312,-415.799"/>
<polygon fill="black" stroke="black" points="840.49,-417.297 842.505,-406.895 834.443,-413.77 840.49,-417.297"/>
</g>
</g>
</svg>
