<?xml version="1.0" encoding="UTF-8" standalone="no"?>
<!DOCTYPE svg PUBLIC "-//W3C//DTD SVG 1.1//EN"
 "http://www.w3.org/Graphics/SVG/1.1/DTD/svg11.dtd">
<!-- Generated by graphviz version 2.38.0 (20140413.2041)
 -->
<!-- Title: yw_data_view Pages: 1 -->
<svg width="982pt" height="669pt"
 viewBox="0.00 0.00 982.00 669.40" xmlns="http://www.w3.org/2000/svg" xmlns:xlink="http://www.w3.org/1999/xlink">
<g id="graph0" class="graph" transform="scale(1 1) rotate(0) translate(4 665.4)">
<title>yw_data_view</title>
<polygon fill="white" stroke="none" points="-4,4 -4,-665.4 978,-665.4 978,4 -4,4"/>
<text text-anchor="middle" x="487" y="-641.2" font-family="Courier,monospace" font-size="18.00">Rasterize_HS_WDPA_and_PEP</text>
<g id="clust1" class="cluster"><title>cluster_workflow</title>
<polygon fill="none" stroke="black" stroke-width="2" points="8,-62 8,-569.8 966,-569.8 966,-62 8,-62"/>
</g>
<g id="clust2" class="cluster"><title>cluster_workflow_inner</title>
<polygon fill="none" stroke="white" stroke-width="2" points="16,-70 16,-561.8 958,-561.8 958,-70 16,-70"/>
</g>
<g id="clust3" class="cluster"><title>cluster_inflows</title>
<polygon fill="none" stroke="white" stroke-width="2" points="662,-577.8 662,-623.8 804,-623.8 804,-577.8 662,-577.8"/>
</g>
<g id="clust4" class="cluster"><title>cluster_inflows_inner</title>
<polygon fill="none" stroke="white" stroke-width="2" points="670,-585.8 670,-615.8 796,-615.8 796,-585.8 670,-585.8"/>
</g>
<g id="clust5" class="cluster"><title>cluster_outflows</title>
<polygon fill="none" stroke="white" stroke-width="2" points="727,-8 727,-54 773,-54 773,-8 727,-8"/>
</g>
<g id="clust6" class="cluster"><title>cluster_outflows_inner</title>
<polygon fill="none" stroke="white" stroke-width="2" points="735,-16 735,-46 765,-46 765,-16 735,-16"/>
</g>
<!-- load_and_create_howe_sound_wdpa_pep_files -->
<g id="node1" class="node"><title>load_and_create_howe_sound_wdpa_pep_files</title>
<polygon fill="#ccffcc" stroke="black" points="930.343,-332.6 569.657,-332.6 569.657,-296.6 930.343,-296.6 930.343,-332.6"/>
<text text-anchor="middle" x="750" y="-310.4" font-family="Courier,monospace" font-size="14.00">load_and_create_howe_sound_wdpa_pep_files</text>
</g>
<!-- hs_wdpa_rast_file_handle -->
<g id="node8" class="node"><title>hs_wdpa_rast_file_handle</title>
<path fill="#ffffcc" stroke="black" d="M827.108,-260.6C827.108,-260.6 672.892,-260.6 672.892,-260.6 666.892,-260.6 660.892,-254.6 660.892,-248.6 660.892,-248.6 660.892,-236.6 660.892,-236.6 660.892,-230.6 666.892,-224.6 672.892,-224.6 672.892,-224.6 827.108,-224.6 827.108,-224.6 833.108,-224.6 839.108,-230.6 839.108,-236.6 839.108,-236.6 839.108,-248.6 839.108,-248.6 839.108,-254.6 833.108,-260.6 827.108,-260.6"/>
<text text-anchor="middle" x="750" y="-238.4" font-family="Helvetica,sans-Serif" font-size="14.00">hs_wdpa_rast_file_handle</text>
</g>
<!-- load_and_create_howe_sound_wdpa_pep_files&#45;&gt;hs_wdpa_rast_file_handle -->
<g id="edge13" class="edge"><title>load_and_create_howe_sound_wdpa_pep_files&#45;&gt;hs_wdpa_rast_file_handle</title>
<path fill="none" stroke="black" d="M750,-296.297C750,-288.583 750,-279.312 750,-270.712"/>
<polygon fill="black" stroke="black" points="753.5,-270.704 750,-260.704 746.5,-270.704 753.5,-270.704"/>
</g>
<!-- rasterize_ohibc_rgn_raster_500m_shape_file_at_500m_resolution -->
<g id="node2" class="node"><title>rasterize_ohibc_rgn_raster_500m_shape_file_at_500m_resolution</title>
<polygon fill="#ccffcc" stroke="black" points="552.315,-332.6 23.6853,-332.6 23.6853,-296.6 552.315,-296.6 552.315,-332.6"/>
<text text-anchor="middle" x="288" y="-310.4" font-family="Courier,monospace" font-size="14.00">rasterize_ohibc_rgn_raster_500m_shape_file_at_500m_resolution</text>
</g>
<!-- extent_of_howe_sound -->
<g id="node7" class="node"><title>extent_of_howe_sound</title>
<path fill="#ffffcc" stroke="black" d="M493.235,-260.6C493.235,-260.6 356.765,-260.6 356.765,-260.6 350.765,-260.6 344.765,-254.6 344.765,-248.6 344.765,-248.6 344.765,-236.6 344.765,-236.6 344.765,-230.6 350.765,-224.6 356.765,-224.6 356.765,-224.6 493.235,-224.6 493.235,-224.6 499.235,-224.6 505.235,-230.6 505.235,-236.6 505.235,-236.6 505.235,-248.6 505.235,-248.6 505.235,-254.6 499.235,-260.6 493.235,-260.6"/>
<text text-anchor="middle" x="425" y="-238.4" font-family="Helvetica,sans-Serif" font-size="14.00">extent_of_howe_sound</text>
</g>
<!-- rasterize_ohibc_rgn_raster_500m_shape_file_at_500m_resolution&#45;&gt;extent_of_howe_sound -->
<g id="edge12" class="edge"><title>rasterize_ohibc_rgn_raster_500m_shape_file_at_500m_resolution&#45;&gt;extent_of_howe_sound</title>
<path fill="none" stroke="black" d="M321.514,-296.476C339.841,-287.112 362.736,-275.414 382.328,-265.403"/>
<polygon fill="black" stroke="black" points="384.045,-268.457 391.357,-260.79 380.86,-262.223 384.045,-268.457"/>
</g>
<!-- set_up_configuration_and_start_provenance_tracking -->
<g id="node3" class="node"><title>set_up_configuration_and_start_provenance_tracking</title>
<polygon fill="#ccffcc" stroke="black" points="685.93,-479.2 250.07,-479.2 250.07,-443.2 685.93,-443.2 685.93,-479.2"/>
<text text-anchor="middle" x="468" y="-457" font-family="Courier,monospace" font-size="14.00">set_up_configuration_and_start_provenance_tracking</text>
</g>
<!-- dir_spatial -->
<g id="node5" class="node"><title>dir_spatial</title>
<path fill="#ffffcc" stroke="black" d="M313.784,-405.9C313.784,-405.9 258.216,-405.9 258.216,-405.9 252.216,-405.9 246.216,-399.9 246.216,-393.9 246.216,-393.9 246.216,-381.9 246.216,-381.9 246.216,-375.9 252.216,-369.9 258.216,-369.9 258.216,-369.9 313.784,-369.9 313.784,-369.9 319.784,-369.9 325.784,-375.9 325.784,-381.9 325.784,-381.9 325.784,-393.9 325.784,-393.9 325.784,-399.9 319.784,-405.9 313.784,-405.9"/>
<text text-anchor="middle" x="286" y="-383.7" font-family="Helvetica,sans-Serif" font-size="14.00">dir_spatial</text>
</g>
<!-- set_up_configuration_and_start_provenance_tracking&#45;&gt;dir_spatial -->
<g id="edge10" class="edge"><title>set_up_configuration_and_start_provenance_tracking&#45;&gt;dir_spatial</title>
<path fill="none" stroke="black" d="M424.406,-443.122C397.596,-432.619 363.169,-419.132 335.358,-408.236"/>
<polygon fill="black" stroke="black" points="336.408,-404.889 325.82,-404.5 333.855,-411.406 336.408,-404.889"/>
</g>
<!-- dir_goal -->
<g id="node6" class="node"><title>dir_goal</title>
<path fill="#ffffcc" stroke="black" d="M673.787,-405.9C673.787,-405.9 632.213,-405.9 632.213,-405.9 626.213,-405.9 620.213,-399.9 620.213,-393.9 620.213,-393.9 620.213,-381.9 620.213,-381.9 620.213,-375.9 626.213,-369.9 632.213,-369.9 632.213,-369.9 673.787,-369.9 673.787,-369.9 679.787,-369.9 685.787,-375.9 685.787,-381.9 685.787,-381.9 685.787,-393.9 685.787,-393.9 685.787,-399.9 679.787,-405.9 673.787,-405.9"/>
<text text-anchor="middle" x="653" y="-383.7" font-family="Helvetica,sans-Serif" font-size="14.00">dir_goal</text>
</g>
<!-- set_up_configuration_and_start_provenance_tracking&#45;&gt;dir_goal -->
<g id="edge11" class="edge"><title>set_up_configuration_and_start_provenance_tracking&#45;&gt;dir_goal</title>
<path fill="none" stroke="black" d="M515.923,-443.197C541.635,-433.9 574.026,-421.913 610.656,-407.247"/>
<polygon fill="black" stroke="black" points="612.09,-410.443 620.059,-403.461 609.475,-403.95 612.09,-410.443"/>
</g>
<!-- rasterize_howe_sound_wdpa_shape_file -->
<g id="node4" class="node"><title>rasterize_howe_sound_wdpa_shape_file</title>
<polygon fill="#ccffcc" stroke="black" points="909.35,-188.6 590.65,-188.6 590.65,-152.6 909.35,-152.6 909.35,-188.6"/>
<text text-anchor="middle" x="750" y="-166.4" font-family="Courier,monospace" font-size="14.00">rasterize_howe_sound_wdpa_shape_file</text>
</g>
<!-- hs_wdpa_rast_file -->
<g id="node13" class="node"><title>hs_wdpa_rast_file</title>
<path fill="#ffe4b5" stroke="black" d="M640.619,-78.5C640.619,-78.5 859.381,-78.5 859.381,-78.5 865.381,-78.5 871.381,-84.5 871.381,-90.5 871.381,-90.5 871.381,-104.1 871.381,-104.1 871.381,-110.1 865.381,-116.1 859.381,-116.1 859.381,-116.1 640.619,-116.1 640.619,-116.1 634.619,-116.1 628.619,-110.1 628.619,-104.1 628.619,-104.1 628.619,-90.5 628.619,-90.5 628.619,-84.5 634.619,-78.5 640.619,-78.5"/>
<text text-anchor="middle" x="750" y="-104" font-family="Courier,monospace" font-weight="bold" font-size="9.00">hs_wdpa_rast_file</text>
<polyline fill="none" stroke="black" points="628.619,-97.3 871.381,-97.3 "/>
<text text-anchor="start" x="636.619" y="-85.2" font-family="Courier,monospace" font-weight="bold" font-size="9.00">prep/lsp/vHS/spatial/hs_wdpa_rast_500m.tif</text>
</g>
<!-- rasterize_howe_sound_wdpa_shape_file&#45;&gt;hs_wdpa_rast_file -->
<g id="edge14" class="edge"><title>rasterize_howe_sound_wdpa_shape_file&#45;&gt;hs_wdpa_rast_file</title>
<path fill="none" stroke="black" d="M750,-152.34C750,-144.605 750,-135.279 750,-126.568"/>
<polygon fill="black" stroke="black" points="753.5,-126.396 750,-116.396 746.5,-126.396 753.5,-126.396"/>
</g>
<!-- dir_spatial&#45;&gt;rasterize_ohibc_rgn_raster_500m_shape_file_at_500m_resolution -->
<g id="edge8" class="edge"><title>dir_spatial&#45;&gt;rasterize_ohibc_rgn_raster_500m_shape_file_at_500m_resolution</title>
<path fill="none" stroke="black" d="M286.484,-369.64C286.71,-361.583 286.985,-351.8 287.237,-342.784"/>
<polygon fill="black" stroke="black" points="290.738,-342.795 287.52,-332.701 283.741,-342.599 290.738,-342.795"/>
</g>
<!-- dir_goal&#45;&gt;load_and_create_howe_sound_wdpa_pep_files -->
<g id="edge7" class="edge"><title>dir_goal&#45;&gt;load_and_create_howe_sound_wdpa_pep_files</title>
<path fill="none" stroke="black" d="M676.481,-369.64C689.111,-360.357 704.857,-348.782 718.534,-338.729"/>
<polygon fill="black" stroke="black" points="720.751,-341.444 726.735,-332.701 716.605,-335.803 720.751,-341.444"/>
</g>
<!-- extent_of_howe_sound&#45;&gt;rasterize_howe_sound_wdpa_shape_file -->
<g id="edge5" class="edge"><title>extent_of_howe_sound&#45;&gt;rasterize_howe_sound_wdpa_shape_file</title>
<path fill="none" stroke="black" d="M504.088,-224.566C551.462,-214.362 611.811,-201.364 660.869,-190.798"/>
<polygon fill="black" stroke="black" points="661.8,-194.177 670.839,-188.65 660.326,-187.334 661.8,-194.177"/>
</g>
<!-- hs_wdpa_rast_file_handle&#45;&gt;rasterize_howe_sound_wdpa_shape_file -->
<g id="edge1" class="edge"><title>hs_wdpa_rast_file_handle&#45;&gt;rasterize_howe_sound_wdpa_shape_file</title>
<path fill="none" stroke="black" d="M750,-224.297C750,-216.583 750,-207.312 750,-198.712"/>
<polygon fill="black" stroke="black" points="753.5,-198.704 750,-188.704 746.5,-198.704 753.5,-198.704"/>
</g>
<!-- setup_R -->
<g id="node9" class="node"><title>setup_R</title>
<path fill="#ffe4b5" stroke="black" d="M549,-515.7C549,-515.7 579,-515.7 579,-515.7 585,-515.7 591,-521.7 591,-527.7 591,-527.7 591,-541.3 591,-541.3 591,-547.3 585,-553.3 579,-553.3 579,-553.3 549,-553.3 549,-553.3 543,-553.3 537,-547.3 537,-541.3 537,-541.3 537,-527.7 537,-527.7 537,-521.7 543,-515.7 549,-515.7"/>
<text text-anchor="middle" x="563.897" y="-541.2" font-family="Courier,monospace" font-weight="bold" font-size="9.00">setup_R</text>
<polyline fill="none" stroke="black" points="537,-534.5 590.794,-534.5 "/>
<text text-anchor="middle" x="563.897" y="-522.4" font-family="Courier,monospace" font-weight="bold" font-size="9.00"> </text>
</g>
<!-- setup_R&#45;&gt;set_up_configuration_and_start_provenance_tracking -->
<g id="edge9" class="edge"><title>setup_R&#45;&gt;set_up_configuration_and_start_provenance_tracking</title>
<path fill="none" stroke="black" d="M539.775,-515.508C527.473,-506.371 512.383,-495.163 499.219,-485.387"/>
<polygon fill="black" stroke="black" points="501.01,-482.357 490.895,-479.205 496.836,-487.977 501.01,-482.357"/>
</g>
<!-- ohibc_rgn_raster_500m -->
<g id="node10" class="node"><title>ohibc_rgn_raster_500m</title>
<path fill="#ffe4b5" stroke="black" d="M355.52,-369.1C355.52,-369.1 590.48,-369.1 590.48,-369.1 596.48,-369.1 602.48,-375.1 602.48,-381.1 602.48,-381.1 602.48,-394.7 602.48,-394.7 602.48,-400.7 596.48,-406.7 590.48,-406.7 590.48,-406.7 355.52,-406.7 355.52,-406.7 349.52,-406.7 343.52,-400.7 343.52,-394.7 343.52,-394.7 343.52,-381.1 343.52,-381.1 343.52,-375.1 349.52,-369.1 355.52,-369.1"/>
<text text-anchor="middle" x="473" y="-394.6" font-family="Courier,monospace" font-weight="bold" font-size="9.00">ohibc_rgn_raster_500m</text>
<polyline fill="none" stroke="black" points="343.52,-387.9 602.48,-387.9 "/>
<text text-anchor="start" x="351.52" y="-375.8" font-family="Courier,monospace" font-weight="bold" font-size="9.00">prep/spatial/raster/ohibc_rgn_raster_500m.tif</text>
</g>
<!-- ohibc_rgn_raster_500m&#45;&gt;rasterize_ohibc_rgn_raster_500m_shape_file_at_500m_resolution -->
<g id="edge6" class="edge"><title>ohibc_rgn_raster_500m&#45;&gt;rasterize_ohibc_rgn_raster_500m_shape_file_at_500m_resolution</title>
<path fill="none" stroke="black" d="M426.794,-369.092C401.058,-359.173 368.881,-346.772 341.99,-336.408"/>
<polygon fill="black" stroke="black" points="342.933,-333.021 332.343,-332.69 340.416,-339.552 342.933,-333.021"/>
</g>
<!-- hs_wdpa_shp_file -->
<g id="node11" class="node"><title>hs_wdpa_shp_file</title>
<path fill="#ffe4b5" stroke="black" d="M830.807,-369.1C830.807,-369.1 909.193,-369.1 909.193,-369.1 915.193,-369.1 921.193,-375.1 921.193,-381.1 921.193,-381.1 921.193,-394.7 921.193,-394.7 921.193,-400.7 915.193,-406.7 909.193,-406.7 909.193,-406.7 830.807,-406.7 830.807,-406.7 824.807,-406.7 818.807,-400.7 818.807,-394.7 818.807,-394.7 818.807,-381.1 818.807,-381.1 818.807,-375.1 824.807,-369.1 830.807,-369.1"/>
<text text-anchor="middle" x="870" y="-394.6" font-family="Courier,monospace" font-weight="bold" font-size="9.00">hs_wdpa_shp_file</text>
<polyline fill="none" stroke="black" points="818.807,-387.9 921.193,-387.9 "/>
<text text-anchor="middle" x="870" y="-375.8" font-family="Courier,monospace" font-weight="bold" font-size="9.00"> </text>
</g>
<!-- hs_wdpa_shp_file&#45;&gt;load_and_create_howe_sound_wdpa_pep_files -->
<g id="edge4" class="edge"><title>hs_wdpa_shp_file&#45;&gt;load_and_create_howe_sound_wdpa_pep_files</title>
<path fill="none" stroke="black" d="M840.028,-369.092C824.214,-359.695 804.649,-348.07 787.802,-338.061"/>
<polygon fill="black" stroke="black" points="789.148,-334.789 778.763,-332.69 785.572,-340.807 789.148,-334.789"/>
</g>
<!-- hs_wdpa_shp_file&#45;&gt;rasterize_howe_sound_wdpa_shape_file -->
<g id="edge3" class="edge"><title>hs_wdpa_shp_file&#45;&gt;rasterize_howe_sound_wdpa_shape_file</title>
<path fill="none" stroke="black" d="M904.219,-369.022C917.655,-360.051 931.609,-347.821 939,-332.6 945.989,-318.207 945.97,-311.002 939,-296.6 914.042,-245.027 856.31,-211.678 811.173,-192.509"/>
<polygon fill="black" stroke="black" points="812.329,-189.199 801.749,-188.632 809.666,-195.673 812.329,-189.199"/>
</g>
<!-- hs_pep_shp_file -->
<g id="node12" class="node"><title>hs_pep_shp_file</title>
<path fill="#ffe4b5" stroke="black" d="M715.507,-369.1C715.507,-369.1 788.493,-369.1 788.493,-369.1 794.493,-369.1 800.493,-375.1 800.493,-381.1 800.493,-381.1 800.493,-394.7 800.493,-394.7 800.493,-400.7 794.493,-406.7 788.493,-406.7 788.493,-406.7 715.507,-406.7 715.507,-406.7 709.507,-406.7 703.507,-400.7 703.507,-394.7 703.507,-394.7 703.507,-381.1 703.507,-381.1 703.507,-375.1 709.507,-369.1 715.507,-369.1"/>
<text text-anchor="middle" x="752" y="-394.6" font-family="Courier,monospace" font-weight="bold" font-size="9.00">hs_pep_shp_file</text>
<polyline fill="none" stroke="black" points="703.507,-387.9 800.493,-387.9 "/>
<text text-anchor="middle" x="752" y="-375.8" font-family="Courier,monospace" font-weight="bold" font-size="9.00"> </text>
</g>
<!-- hs_pep_shp_file&#45;&gt;load_and_create_howe_sound_wdpa_pep_files -->
<g id="edge2" class="edge"><title>hs_pep_shp_file&#45;&gt;load_and_create_howe_sound_wdpa_pep_files</title>
<path fill="none" stroke="black" d="M751.495,-368.908C751.275,-361.048 751.011,-351.656 750.767,-342.96"/>
<polygon fill="black" stroke="black" points="754.263,-342.746 750.484,-332.848 747.266,-342.943 754.263,-342.746"/>
</g>
<!-- hs_wdpa_rast_file_outflow -->
<g id="node18" class="node"><title>hs_wdpa_rast_file_outflow</title>
<ellipse fill="none" stroke="black" cx="750" cy="-31" rx="7" ry="7"/>
</g>
<!-- hs_wdpa_rast_file&#45;&gt;hs_wdpa_rast_file_outflow -->
<g id="edge19" class="edge"><title>hs_wdpa_rast_file&#45;&gt;hs_wdpa_rast_file_outflow</title>
<path fill="none" stroke="black" d="M750,-78.3889C750,-68.9828 750,-57.5389 750,-48.3712"/>
<polygon fill="black" stroke="black" points="753.5,-48.3008 750,-38.3008 746.5,-48.3008 753.5,-48.3008"/>
</g>
<!-- setup_R_inflow -->
<g id="node14" class="node"><title>setup_R_inflow</title>
<ellipse fill="none" stroke="black" cx="685" cy="-600.8" rx="7" ry="7"/>
</g>
<!-- setup_R_inflow&#45;&gt;setup_R -->
<g id="edge15" class="edge"><title>setup_R_inflow&#45;&gt;setup_R</title>
<path fill="none" stroke="black" d="M679.164,-596.699C665.064,-589.206 628.225,-569.629 599.974,-554.617"/>
<polygon fill="black" stroke="black" points="601.616,-551.526 591.143,-549.924 598.331,-557.707 601.616,-551.526"/>
</g>
<!-- ohibc_rgn_raster_500m_inflow -->
<g id="node15" class="node"><title>ohibc_rgn_raster_500m_inflow</title>
<ellipse fill="none" stroke="black" cx="717" cy="-600.8" rx="7" ry="7"/>
</g>
<!-- ohibc_rgn_raster_500m_inflow&#45;&gt;ohibc_rgn_raster_500m -->
<g id="edge16" class="edge"><title>ohibc_rgn_raster_500m_inflow&#45;&gt;ohibc_rgn_raster_500m</title>
<path fill="none" stroke="black" d="M718.282,-593.726C722.758,-570.694 735.33,-487.793 695,-443.2 681.904,-428.72 646.071,-417.349 606.917,-408.835"/>
<polygon fill="black" stroke="black" points="607.408,-405.362 596.902,-406.732 605.97,-412.213 607.408,-405.362"/>
</g>
<!-- hs_wdpa_shp_file_inflow -->
<g id="node16" class="node"><title>hs_wdpa_shp_file_inflow</title>
<ellipse fill="none" stroke="black" cx="781" cy="-600.8" rx="7" ry="7"/>
</g>
<!-- hs_wdpa_shp_file_inflow&#45;&gt;hs_wdpa_shp_file -->
<g id="edge17" class="edge"><title>hs_wdpa_shp_file_inflow&#45;&gt;hs_wdpa_shp_file</title>
<path fill="none" stroke="black" d="M783.381,-594.159C794.006,-568.98 837.496,-465.923 858.518,-416.109"/>
<polygon fill="black" stroke="black" points="861.742,-417.469 862.406,-406.895 855.293,-414.748 861.742,-417.469"/>
</g>
<!-- hs_pep_shp_file_inflow -->
<g id="node17" class="node"><title>hs_pep_shp_file_inflow</title>
<ellipse fill="none" stroke="black" cx="749" cy="-600.8" rx="7" ry="7"/>
</g>
<!-- hs_pep_shp_file_inflow&#45;&gt;hs_pep_shp_file -->
<g id="edge18" class="edge"><title>hs_pep_shp_file_inflow&#45;&gt;hs_pep_shp_file</title>
<path fill="none" stroke="black" d="M749.087,-593.716C749.454,-567.918 750.894,-466.617 751.603,-416.828"/>
<polygon fill="black" stroke="black" points="755.103,-416.799 751.746,-406.75 748.104,-416.7 755.103,-416.799"/>
</g>
</g>
</svg>
