<?xml version="1.0" encoding="UTF-8" standalone="no"?>
<!DOCTYPE svg PUBLIC "-//W3C//DTD SVG 1.1//EN"
 "http://www.w3.org/Graphics/SVG/1.1/DTD/svg11.dtd">
<!-- Generated by graphviz version 2.38.0 (20140413.2041)
 -->
<!-- Title: Workflow Pages: 1 -->
<svg width="1442pt" height="347pt"
 viewBox="0.00 0.00 1442.00 346.80" xmlns="http://www.w3.org/2000/svg" xmlns:xlink="http://www.w3.org/1999/xlink">
<g id="graph0" class="graph" transform="scale(1 1) rotate(0) translate(4 342.8)">
<title>Workflow</title>
<polygon fill="white" stroke="none" points="-4,4 -4,-342.8 1438,-342.8 1438,4 -4,4"/>
<text text-anchor="middle" x="717" y="-318.6" font-family="Helvetica,sans-Serif" font-size="18.00">C3_C4_generate_results_step</text>
<g id="clust1" class="cluster"><title>cluster_workflow_box_outer</title>
<polygon fill="none" stroke="black" stroke-width="2" points="8,-34 8,-275.2 1426,-275.2 1426,-34 8,-34"/>
</g>
<g id="clust2" class="cluster"><title>cluster_workflow_box_inner</title>
<polygon fill="none" stroke="black" stroke-width="0" points="16,-42 16,-267.2 1418,-267.2 1418,-42 16,-42"/>
</g>
<!-- generate_netcdf_file_for_C3_fraction -->
<g id="node1" class="node"><title>generate_netcdf_file_for_C3_fraction</title>
<polygon fill="#ccffcc" stroke="black" points="828.295,-172.6 581.705,-172.6 581.705,-136.6 828.295,-136.6 828.295,-172.6"/>
<text text-anchor="middle" x="705" y="-150.4" font-family="Helvetica,sans-Serif" font-size="14.00">generate_netcdf_file_for_C3_fraction</text>
</g>
<!-- C3_fraction_data -->
<g id="node4" class="node"><title>C3_fraction_data</title>
<path fill="#ffffcc" stroke="black" d="M488.074,-50.5C488.074,-50.5 921.926,-50.5 921.926,-50.5 927.926,-50.5 933.926,-56.5 933.926,-62.5 933.926,-62.5 933.926,-88.1 933.926,-88.1 933.926,-94.1 927.926,-100.1 921.926,-100.1 921.926,-100.1 488.074,-100.1 488.074,-100.1 482.074,-100.1 476.074,-94.1 476.074,-88.1 476.074,-88.1 476.074,-62.5 476.074,-62.5 476.074,-56.5 482.074,-50.5 488.074,-50.5"/>
<text text-anchor="middle" x="705" y="-83.5" font-family="Helvetica,sans-Serif" font-size="14.00">C3_fraction_data</text>
<polyline fill="none" stroke="black" points="476.074,-75.3 933.926,-75.3 "/>
<text text-anchor="middle" x="705" y="-58.7" font-family="Helvetica,sans-Serif" font-size="14.00">file:outputs/SYNMAP_PRESENTVEG_C3Grass_RelaFrac_NA_v2.0.nc</text>
</g>
<!-- generate_netcdf_file_for_C3_fraction&#45;&gt;C3_fraction_data -->
<g id="edge1" class="edge"><title>generate_netcdf_file_for_C3_fraction&#45;&gt;C3_fraction_data</title>
<path fill="none" stroke="black" d="M705,-136.445C705,-128.689 705,-119.239 705,-110.15"/>
<polygon fill="black" stroke="black" points="708.5,-110.15 705,-100.15 701.5,-110.15 708.5,-110.15"/>
</g>
<!-- generate_netcdf_file_for_C4_fraction -->
<g id="node2" class="node"><title>generate_netcdf_file_for_C4_fraction</title>
<polygon fill="#ccffcc" stroke="black" points="1294.29,-172.6 1047.71,-172.6 1047.71,-136.6 1294.29,-136.6 1294.29,-172.6"/>
<text text-anchor="middle" x="1171" y="-150.4" font-family="Helvetica,sans-Serif" font-size="14.00">generate_netcdf_file_for_C4_fraction</text>
</g>
<!-- C4_fraction_data -->
<g id="node5" class="node"><title>C4_fraction_data</title>
<path fill="#ffffcc" stroke="black" d="M964.074,-50.5C964.074,-50.5 1397.93,-50.5 1397.93,-50.5 1403.93,-50.5 1409.93,-56.5 1409.93,-62.5 1409.93,-62.5 1409.93,-88.1 1409.93,-88.1 1409.93,-94.1 1403.93,-100.1 1397.93,-100.1 1397.93,-100.1 964.074,-100.1 964.074,-100.1 958.074,-100.1 952.074,-94.1 952.074,-88.1 952.074,-88.1 952.074,-62.5 952.074,-62.5 952.074,-56.5 958.074,-50.5 964.074,-50.5"/>
<text text-anchor="middle" x="1181" y="-83.5" font-family="Helvetica,sans-Serif" font-size="14.00">C4_fraction_data</text>
<polyline fill="none" stroke="black" points="952.074,-75.3 1409.93,-75.3 "/>
<text text-anchor="middle" x="1181" y="-58.7" font-family="Helvetica,sans-Serif" font-size="14.00">file:outputs/SYNMAP_PRESENTVEG_C4Grass_RelaFrac_NA_v2.0.nc</text>
</g>
<!-- generate_netcdf_file_for_C4_fraction&#45;&gt;C4_fraction_data -->
<g id="edge4" class="edge"><title>generate_netcdf_file_for_C4_fraction&#45;&gt;C4_fraction_data</title>
<path fill="none" stroke="black" d="M1173.22,-136.445C1174.22,-128.689 1175.45,-119.239 1176.62,-110.15"/>
<polygon fill="black" stroke="black" points="1180.1,-110.516 1177.91,-100.15 1173.16,-109.618 1180.1,-110.516"/>
</g>
<!-- generate_netcdf_file_for_Grass_fraction -->
<g id="node3" class="node"><title>generate_netcdf_file_for_Grass_fraction</title>
<polygon fill="#ccffcc" stroke="black" points="383.739,-172.6 118.261,-172.6 118.261,-136.6 383.739,-136.6 383.739,-172.6"/>
<text text-anchor="middle" x="251" y="-150.4" font-family="Helvetica,sans-Serif" font-size="14.00">generate_netcdf_file_for_Grass_fraction</text>
</g>
<!-- Grass_fraction_data -->
<g id="node6" class="node"><title>Grass_fraction_data</title>
<path fill="#ffffcc" stroke="black" d="M36.127,-50.5C36.127,-50.5 445.873,-50.5 445.873,-50.5 451.873,-50.5 457.873,-56.5 457.873,-62.5 457.873,-62.5 457.873,-88.1 457.873,-88.1 457.873,-94.1 451.873,-100.1 445.873,-100.1 445.873,-100.1 36.127,-100.1 36.127,-100.1 30.127,-100.1 24.127,-94.1 24.127,-88.1 24.127,-88.1 24.127,-62.5 24.127,-62.5 24.127,-56.5 30.127,-50.5 36.127,-50.5"/>
<text text-anchor="middle" x="241" y="-83.5" font-family="Helvetica,sans-Serif" font-size="14.00">Grass_fraction_data</text>
<polyline fill="none" stroke="black" points="24.127,-75.3 457.873,-75.3 "/>
<text text-anchor="middle" x="241" y="-58.7" font-family="Helvetica,sans-Serif" font-size="14.00">file:outputs/SYNMAP_PRESENTVEG_Grass_Fraction_NA_v2.0.nc</text>
</g>
<!-- generate_netcdf_file_for_Grass_fraction&#45;&gt;Grass_fraction_data -->
<g id="edge7" class="edge"><title>generate_netcdf_file_for_Grass_fraction&#45;&gt;Grass_fraction_data</title>
<path fill="none" stroke="black" d="M248.781,-136.445C247.777,-128.689 246.555,-119.239 245.379,-110.15"/>
<polygon fill="black" stroke="black" points="248.839,-109.618 244.085,-100.15 241.897,-110.516 248.839,-109.618"/>
</g>
<!-- C3_fraction_data_output_port -->
<g id="node15" class="node"><title>C3_fraction_data_output_port</title>
<ellipse fill="#ffffff" stroke="black" cx="705" cy="-7" rx="7" ry="7"/>
</g>
<!-- C3_fraction_data&#45;&gt;C3_fraction_data_output_port -->
<g id="edge14" class="edge"><title>C3_fraction_data&#45;&gt;C3_fraction_data_output_port</title>
<path fill="none" stroke="black" d="M705,-50.3642C705,-41.694 705,-32.1105 705,-24.2546"/>
<polygon fill="black" stroke="black" points="708.5,-24.0006 705,-14.0006 701.5,-24.0007 708.5,-24.0006"/>
</g>
<!-- C4_fraction_data_output_port -->
<g id="node16" class="node"><title>C4_fraction_data_output_port</title>
<ellipse fill="#ffffff" stroke="black" cx="1181" cy="-7" rx="7" ry="7"/>
</g>
<!-- C4_fraction_data&#45;&gt;C4_fraction_data_output_port -->
<g id="edge15" class="edge"><title>C4_fraction_data&#45;&gt;C4_fraction_data_output_port</title>
<path fill="none" stroke="black" d="M1181,-50.3642C1181,-41.694 1181,-32.1105 1181,-24.2546"/>
<polygon fill="black" stroke="black" points="1184.5,-24.0006 1181,-14.0006 1177.5,-24.0007 1184.5,-24.0006"/>
</g>
<!-- Grass_fraction_data_output_port -->
<g id="node17" class="node"><title>Grass_fraction_data_output_port</title>
<ellipse fill="#ffffff" stroke="black" cx="241" cy="-7" rx="7" ry="7"/>
</g>
<!-- Grass_fraction_data&#45;&gt;Grass_fraction_data_output_port -->
<g id="edge16" class="edge"><title>Grass_fraction_data&#45;&gt;Grass_fraction_data_output_port</title>
<path fill="none" stroke="black" d="M241,-50.3642C241,-41.694 241,-32.1105 241,-24.2546"/>
<polygon fill="black" stroke="black" points="244.5,-24.0006 241,-14.0006 237.5,-24.0007 244.5,-24.0006"/>
</g>
<!-- land_cover_map_mat -->
<g id="node7" class="node"><title>land_cover_map_mat</title>
<path fill="#ffffcc" stroke="black" d="M447.337,-209.1C447.337,-209.1 746.663,-209.1 746.663,-209.1 752.663,-209.1 758.663,-215.1 758.663,-221.1 758.663,-221.1 758.663,-246.7 758.663,-246.7 758.663,-252.7 752.663,-258.7 746.663,-258.7 746.663,-258.7 447.337,-258.7 447.337,-258.7 441.337,-258.7 435.337,-252.7 435.337,-246.7 435.337,-246.7 435.337,-221.1 435.337,-221.1 435.337,-215.1 441.337,-209.1 447.337,-209.1"/>
<text text-anchor="middle" x="597" y="-242.1" font-family="Helvetica,sans-Serif" font-size="14.00">land_cover_map_mat</text>
<polyline fill="none" stroke="black" points="435.337,-233.9 758.663,-233.9 "/>
<text text-anchor="middle" x="597" y="-217.3" font-family="Helvetica,sans-Serif" font-size="14.00">file:land_cover_map_{start_year}_{end_year}.mat</text>
</g>
<!-- land_cover_map_mat&#45;&gt;generate_netcdf_file_for_C3_fraction -->
<g id="edge2" class="edge"><title>land_cover_map_mat&#45;&gt;generate_netcdf_file_for_C3_fraction</title>
<path fill="none" stroke="black" d="M630.285,-209.077C643.809,-199.397 659.376,-188.255 672.788,-178.655"/>
<polygon fill="black" stroke="black" points="675.153,-181.267 681.248,-172.6 671.079,-175.575 675.153,-181.267"/>
</g>
<!-- land_cover_map_mat&#45;&gt;generate_netcdf_file_for_C4_fraction -->
<g id="edge5" class="edge"><title>land_cover_map_mat&#45;&gt;generate_netcdf_file_for_C4_fraction</title>
<path fill="none" stroke="black" d="M759.008,-209.834C762.029,-209.418 765.029,-209.006 768,-208.6 857.845,-196.309 959.037,-183.002 1037.54,-172.797"/>
<polygon fill="black" stroke="black" points="1038.02,-176.265 1047.49,-171.505 1037.12,-169.323 1038.02,-176.265"/>
</g>
<!-- land_cover_map_mat&#45;&gt;generate_netcdf_file_for_Grass_fraction -->
<g id="edge8" class="edge"><title>land_cover_map_mat&#45;&gt;generate_netcdf_file_for_Grass_fraction</title>
<path fill="none" stroke="black" d="M490.365,-209.077C441.159,-198.083 383.509,-185.204 337.117,-174.84"/>
<polygon fill="black" stroke="black" points="337.618,-171.365 327.095,-172.6 336.091,-178.197 337.618,-171.365"/>
</g>
<!-- C3_Matrix -->
<g id="node8" class="node"><title>C3_Matrix</title>
<path fill="#ffffcc" stroke="black" d="M789.128,-209.1C789.128,-209.1 1002.87,-209.1 1002.87,-209.1 1008.87,-209.1 1014.87,-215.1 1014.87,-221.1 1014.87,-221.1 1014.87,-246.7 1014.87,-246.7 1014.87,-252.7 1008.87,-258.7 1002.87,-258.7 1002.87,-258.7 789.128,-258.7 789.128,-258.7 783.128,-258.7 777.128,-252.7 777.128,-246.7 777.128,-246.7 777.128,-221.1 777.128,-221.1 777.128,-215.1 783.128,-209.1 789.128,-209.1"/>
<text text-anchor="middle" x="896" y="-242.1" font-family="Helvetica,sans-Serif" font-size="14.00">C3_Matrix</text>
<polyline fill="none" stroke="black" points="777.128,-233.9 1014.87,-233.9 "/>
<text text-anchor="middle" x="896" y="-217.3" font-family="Helvetica,sans-Serif" font-size="14.00">file:C3_{start_year}_{end_year}.mat</text>
</g>
<!-- C3_Matrix&#45;&gt;generate_netcdf_file_for_C3_fraction -->
<g id="edge3" class="edge"><title>C3_Matrix&#45;&gt;generate_netcdf_file_for_C3_fraction</title>
<path fill="none" stroke="black" d="M837.135,-209.077C811.282,-198.614 781.206,-186.442 756.285,-176.356"/>
<polygon fill="black" stroke="black" points="757.589,-173.108 747.006,-172.6 754.963,-179.596 757.589,-173.108"/>
</g>
<!-- C4_Matrix -->
<g id="node9" class="node"><title>C4_Matrix</title>
<path fill="#ffffcc" stroke="black" d="M1064.13,-209.1C1064.13,-209.1 1277.87,-209.1 1277.87,-209.1 1283.87,-209.1 1289.87,-215.1 1289.87,-221.1 1289.87,-221.1 1289.87,-246.7 1289.87,-246.7 1289.87,-252.7 1283.87,-258.7 1277.87,-258.7 1277.87,-258.7 1064.13,-258.7 1064.13,-258.7 1058.13,-258.7 1052.13,-252.7 1052.13,-246.7 1052.13,-246.7 1052.13,-221.1 1052.13,-221.1 1052.13,-215.1 1058.13,-209.1 1064.13,-209.1"/>
<text text-anchor="middle" x="1171" y="-242.1" font-family="Helvetica,sans-Serif" font-size="14.00">C4_Matrix</text>
<polyline fill="none" stroke="black" points="1052.13,-233.9 1289.87,-233.9 "/>
<text text-anchor="middle" x="1171" y="-217.3" font-family="Helvetica,sans-Serif" font-size="14.00">file:C4_{start_year}_{end_year}.mat</text>
</g>
<!-- C4_Matrix&#45;&gt;generate_netcdf_file_for_C4_fraction -->
<g id="edge6" class="edge"><title>C4_Matrix&#45;&gt;generate_netcdf_file_for_C4_fraction</title>
<path fill="none" stroke="black" d="M1171,-208.866C1171,-200.639 1171,-191.376 1171,-182.909"/>
<polygon fill="black" stroke="black" points="1174.5,-182.749 1171,-172.749 1167.5,-182.749 1174.5,-182.749"/>
</g>
<!-- Grass_Matrix -->
<g id="node10" class="node"><title>Grass_Matrix</title>
<path fill="#ffffcc" stroke="black" d="M134.406,-209.1C134.406,-209.1 367.594,-209.1 367.594,-209.1 373.594,-209.1 379.594,-215.1 379.594,-221.1 379.594,-221.1 379.594,-246.7 379.594,-246.7 379.594,-252.7 373.594,-258.7 367.594,-258.7 367.594,-258.7 134.406,-258.7 134.406,-258.7 128.406,-258.7 122.406,-252.7 122.406,-246.7 122.406,-246.7 122.406,-221.1 122.406,-221.1 122.406,-215.1 128.406,-209.1 134.406,-209.1"/>
<text text-anchor="middle" x="251" y="-242.1" font-family="Helvetica,sans-Serif" font-size="14.00">Grass_Matrix</text>
<polyline fill="none" stroke="black" points="122.406,-233.9 379.594,-233.9 "/>
<text text-anchor="middle" x="251" y="-217.3" font-family="Helvetica,sans-Serif" font-size="14.00">file:Grass_{start_year}_{end_year}.mat</text>
</g>
<!-- Grass_Matrix&#45;&gt;generate_netcdf_file_for_Grass_fraction -->
<g id="edge9" class="edge"><title>Grass_Matrix&#45;&gt;generate_netcdf_file_for_Grass_fraction</title>
<path fill="none" stroke="black" d="M251,-208.866C251,-200.639 251,-191.376 251,-182.909"/>
<polygon fill="black" stroke="black" points="254.5,-182.749 251,-172.749 247.5,-182.749 254.5,-182.749"/>
</g>
<!-- Grass_Matrix_input_port -->
<g id="node11" class="node"><title>Grass_Matrix_input_port</title>
<ellipse fill="#ffffff" stroke="black" cx="251" cy="-302.2" rx="7" ry="7"/>
</g>
<!-- Grass_Matrix_input_port&#45;&gt;Grass_Matrix -->
<g id="edge10" class="edge"><title>Grass_Matrix_input_port&#45;&gt;Grass_Matrix</title>
<path fill="none" stroke="black" d="M251,-295.081C251,-288.991 251,-279.133 251,-269.142"/>
<polygon fill="black" stroke="black" points="254.5,-268.836 251,-258.836 247.5,-268.836 254.5,-268.836"/>
</g>
<!-- land_cover_map_mat_input_port -->
<g id="node12" class="node"><title>land_cover_map_mat_input_port</title>
<ellipse fill="#ffffff" stroke="black" cx="597" cy="-302.2" rx="7" ry="7"/>
</g>
<!-- land_cover_map_mat_input_port&#45;&gt;land_cover_map_mat -->
<g id="edge11" class="edge"><title>land_cover_map_mat_input_port&#45;&gt;land_cover_map_mat</title>
<path fill="none" stroke="black" d="M597,-295.081C597,-288.991 597,-279.133 597,-269.142"/>
<polygon fill="black" stroke="black" points="600.5,-268.836 597,-258.836 593.5,-268.836 600.5,-268.836"/>
</g>
<!-- C3_Matrix_input_port -->
<g id="node13" class="node"><title>C3_Matrix_input_port</title>
<ellipse fill="#ffffff" stroke="black" cx="896" cy="-302.2" rx="7" ry="7"/>
</g>
<!-- C3_Matrix_input_port&#45;&gt;C3_Matrix -->
<g id="edge12" class="edge"><title>C3_Matrix_input_port&#45;&gt;C3_Matrix</title>
<path fill="none" stroke="black" d="M896,-295.081C896,-288.991 896,-279.133 896,-269.142"/>
<polygon fill="black" stroke="black" points="899.5,-268.836 896,-258.836 892.5,-268.836 899.5,-268.836"/>
</g>
<!-- C4_Matrix_input_port -->
<g id="node14" class="node"><title>C4_Matrix_input_port</title>
<ellipse fill="#ffffff" stroke="black" cx="1171" cy="-302.2" rx="7" ry="7"/>
</g>
<!-- C4_Matrix_input_port&#45;&gt;C4_Matrix -->
<g id="edge13" class="edge"><title>C4_Matrix_input_port&#45;&gt;C4_Matrix</title>
<path fill="none" stroke="black" d="M1171,-295.081C1171,-288.991 1171,-279.133 1171,-269.142"/>
<polygon fill="black" stroke="black" points="1174.5,-268.836 1171,-258.836 1167.5,-268.836 1174.5,-268.836"/>
</g>
</g>
</svg>
