<?xml version="1.0" encoding="UTF-8" standalone="no"?>
<!DOCTYPE svg PUBLIC "-//W3C//DTD SVG 1.1//EN"
 "http://www.w3.org/Graphics/SVG/1.1/DTD/svg11.dtd">
<!-- Generated by graphviz version 2.38.0 (20140413.2041)
 -->
<!-- Title: Workflow Pages: 1 -->
<svg width="1770pt" height="520pt"
 viewBox="0.00 0.00 1770.00 520.00" xmlns="http://www.w3.org/2000/svg" xmlns:xlink="http://www.w3.org/1999/xlink">
<g id="graph0" class="graph" transform="scale(1 1) rotate(0) translate(4 516)">
<title>Workflow</title>
<polygon fill="white" stroke="none" points="-4,4 -4,-516 1766,-516 1766,4 -4,4"/>
<text text-anchor="middle" x="881" y="-491.8" font-family="Helvetica,sans-Serif" font-size="18.00">C3_C4_prepare_step</text>
<g id="clust1" class="cluster"><title>cluster_workflow_box_outer</title>
<polygon fill="none" stroke="black" stroke-width="2" points="8,-34 8,-448.4 1708,-448.4 1708,-34 8,-34"/>
</g>
<g id="clust2" class="cluster"><title>cluster_workflow_box_inner</title>
<polygon fill="none" stroke="black" stroke-width="0" points="16,-42 16,-440.4 1700,-440.4 1700,-42 16,-42"/>
</g>
<!-- fetch_SYNMAP_land_cover_map_variable -->
<g id="node1" class="node"><title>fetch_SYNMAP_land_cover_map_variable</title>
<polygon fill="#ccffcc" stroke="black" points="318.783,-338.5 37.2167,-338.5 37.2167,-302.5 318.783,-302.5 318.783,-338.5"/>
<text text-anchor="middle" x="178" y="-316.3" font-family="Helvetica,sans-Serif" font-size="14.00">fetch_SYNMAP_land_cover_map_variable</text>
</g>
<!-- lon_variable -->
<g id="node11" class="node"><title>lon_variable</title>
<path fill="#ffffcc" stroke="black" d="M103.96,-251.9C103.96,-251.9 36.0402,-251.9 36.0402,-251.9 30.0402,-251.9 24.0402,-245.9 24.0402,-239.9 24.0402,-239.9 24.0402,-227.9 24.0402,-227.9 24.0402,-221.9 30.0402,-215.9 36.0402,-215.9 36.0402,-215.9 103.96,-215.9 103.96,-215.9 109.96,-215.9 115.96,-221.9 115.96,-227.9 115.96,-227.9 115.96,-239.9 115.96,-239.9 115.96,-245.9 109.96,-251.9 103.96,-251.9"/>
<text text-anchor="middle" x="70" y="-229.7" font-family="Helvetica,sans-Serif" font-size="14.00">lon_variable</text>
</g>
<!-- fetch_SYNMAP_land_cover_map_variable&#45;&gt;lon_variable -->
<g id="edge1" class="edge"><title>fetch_SYNMAP_land_cover_map_variable&#45;&gt;lon_variable</title>
<path fill="none" stroke="black" d="M156.145,-302.38C140.042,-289.766 117.944,-272.456 100.161,-258.526"/>
<polygon fill="black" stroke="black" points="101.854,-255.406 91.8229,-251.995 97.5369,-260.917 101.854,-255.406"/>
</g>
<!-- lat_variable -->
<g id="node12" class="node"><title>lat_variable</title>
<path fill="#ffffcc" stroke="black" d="M209.568,-251.9C209.568,-251.9 146.432,-251.9 146.432,-251.9 140.432,-251.9 134.432,-245.9 134.432,-239.9 134.432,-239.9 134.432,-227.9 134.432,-227.9 134.432,-221.9 140.432,-215.9 146.432,-215.9 146.432,-215.9 209.568,-215.9 209.568,-215.9 215.568,-215.9 221.568,-221.9 221.568,-227.9 221.568,-227.9 221.568,-239.9 221.568,-239.9 221.568,-245.9 215.568,-251.9 209.568,-251.9"/>
<text text-anchor="middle" x="178" y="-229.7" font-family="Helvetica,sans-Serif" font-size="14.00">lat_variable</text>
</g>
<!-- fetch_SYNMAP_land_cover_map_variable&#45;&gt;lat_variable -->
<g id="edge2" class="edge"><title>fetch_SYNMAP_land_cover_map_variable&#45;&gt;lat_variable</title>
<path fill="none" stroke="black" d="M178,-302.38C178,-290.798 178,-275.257 178,-262.009"/>
<polygon fill="black" stroke="black" points="181.5,-261.995 178,-251.995 174.5,-261.995 181.5,-261.995"/>
</g>
<!-- lon_bnds_variable -->
<g id="node13" class="node"><title>lon_bnds_variable</title>
<path fill="#ffffcc" stroke="black" d="M357.59,-251.9C357.59,-251.9 252.41,-251.9 252.41,-251.9 246.41,-251.9 240.41,-245.9 240.41,-239.9 240.41,-239.9 240.41,-227.9 240.41,-227.9 240.41,-221.9 246.41,-215.9 252.41,-215.9 252.41,-215.9 357.59,-215.9 357.59,-215.9 363.59,-215.9 369.59,-221.9 369.59,-227.9 369.59,-227.9 369.59,-239.9 369.59,-239.9 369.59,-245.9 363.59,-251.9 357.59,-251.9"/>
<text text-anchor="middle" x="305" y="-229.7" font-family="Helvetica,sans-Serif" font-size="14.00">lon_bnds_variable</text>
</g>
<!-- fetch_SYNMAP_land_cover_map_variable&#45;&gt;lon_bnds_variable -->
<g id="edge3" class="edge"><title>fetch_SYNMAP_land_cover_map_variable&#45;&gt;lon_bnds_variable</title>
<path fill="none" stroke="black" d="M203.7,-302.38C223.066,-289.48 249.807,-271.667 270.951,-257.582"/>
<polygon fill="black" stroke="black" points="272.956,-260.452 279.338,-251.995 269.075,-254.626 272.956,-260.452"/>
</g>
<!-- lat_bnds_variable -->
<g id="node14" class="node"><title>lat_bnds_variable</title>
<path fill="#ffffcc" stroke="black" d="M501.697,-251.9C501.697,-251.9 400.303,-251.9 400.303,-251.9 394.303,-251.9 388.303,-245.9 388.303,-239.9 388.303,-239.9 388.303,-227.9 388.303,-227.9 388.303,-221.9 394.303,-215.9 400.303,-215.9 400.303,-215.9 501.697,-215.9 501.697,-215.9 507.697,-215.9 513.697,-221.9 513.697,-227.9 513.697,-227.9 513.697,-239.9 513.697,-239.9 513.697,-245.9 507.697,-251.9 501.697,-251.9"/>
<text text-anchor="middle" x="451" y="-229.7" font-family="Helvetica,sans-Serif" font-size="14.00">lat_bnds_variable</text>
</g>
<!-- fetch_SYNMAP_land_cover_map_variable&#45;&gt;lat_bnds_variable -->
<g id="edge4" class="edge"><title>fetch_SYNMAP_land_cover_map_variable&#45;&gt;lat_bnds_variable</title>
<path fill="none" stroke="black" d="M236.651,-302.477C276.827,-290.676 331.27,-274.409 379,-259.2 383.03,-257.916 387.18,-256.572 391.357,-255.204"/>
<polygon fill="black" stroke="black" points="392.709,-258.443 401.107,-251.984 390.514,-251.796 392.709,-258.443"/>
</g>
<!-- save_SYNMAP_land_cover_map_variable -->
<g id="node2" class="node"><title>save_SYNMAP_land_cover_map_variable</title>
<polygon fill="#ccffcc" stroke="black" points="385.002,-172.6 104.998,-172.6 104.998,-136.6 385.002,-136.6 385.002,-172.6"/>
<text text-anchor="middle" x="245" y="-150.4" font-family="Helvetica,sans-Serif" font-size="14.00">save_SYNMAP_land_cover_map_variable</text>
</g>
<!-- land_cover_map_mat -->
<g id="node9" class="node"><title>land_cover_map_mat</title>
<path fill="#ffffcc" stroke="black" d="M95.3374,-50.5C95.3374,-50.5 394.663,-50.5 394.663,-50.5 400.663,-50.5 406.663,-56.5 406.663,-62.5 406.663,-62.5 406.663,-88.1 406.663,-88.1 406.663,-94.1 400.663,-100.1 394.663,-100.1 394.663,-100.1 95.3374,-100.1 95.3374,-100.1 89.3374,-100.1 83.3374,-94.1 83.3374,-88.1 83.3374,-88.1 83.3374,-62.5 83.3374,-62.5 83.3374,-56.5 89.3374,-50.5 95.3374,-50.5"/>
<text text-anchor="middle" x="245" y="-83.5" font-family="Helvetica,sans-Serif" font-size="14.00">land_cover_map_mat</text>
<polyline fill="none" stroke="black" points="83.3374,-75.3 406.663,-75.3 "/>
<text text-anchor="middle" x="245" y="-58.7" font-family="Helvetica,sans-Serif" font-size="14.00">file:land_cover_map_{start_year}_{end_year}.mat</text>
</g>
<!-- save_SYNMAP_land_cover_map_variable&#45;&gt;land_cover_map_mat -->
<g id="edge6" class="edge"><title>save_SYNMAP_land_cover_map_variable&#45;&gt;land_cover_map_mat</title>
<path fill="none" stroke="black" d="M245,-136.445C245,-128.689 245,-119.239 245,-110.15"/>
<polygon fill="black" stroke="black" points="248.5,-110.15 245,-100.15 241.5,-110.15 248.5,-110.15"/>
</g>
<!-- fetch_monthly_mean_air_temperature_data -->
<g id="node3" class="node"><title>fetch_monthly_mean_air_temperature_data</title>
<polygon fill="#ccffcc" stroke="black" points="915.521,-338.5 628.479,-338.5 628.479,-302.5 915.521,-302.5 915.521,-338.5"/>
<text text-anchor="middle" x="772" y="-316.3" font-family="Helvetica,sans-Serif" font-size="14.00">fetch_monthly_mean_air_temperature_data</text>
</g>
<!-- Tair_Matrix -->
<g id="node6" class="node"><title>Tair_Matrix</title>
<path fill="#ffffcc" stroke="black" d="M857.022,-209.1C857.022,-209.1 1076.98,-209.1 1076.98,-209.1 1082.98,-209.1 1088.98,-215.1 1088.98,-221.1 1088.98,-221.1 1088.98,-246.7 1088.98,-246.7 1088.98,-252.7 1082.98,-258.7 1076.98,-258.7 1076.98,-258.7 857.022,-258.7 857.022,-258.7 851.022,-258.7 845.022,-252.7 845.022,-246.7 845.022,-246.7 845.022,-221.1 845.022,-221.1 845.022,-215.1 851.022,-209.1 857.022,-209.1"/>
<text text-anchor="middle" x="967" y="-242.1" font-family="Helvetica,sans-Serif" font-size="14.00">Tair_Matrix</text>
<polyline fill="none" stroke="black" points="845.022,-233.9 1088.98,-233.9 "/>
<text text-anchor="middle" x="967" y="-217.3" font-family="Helvetica,sans-Serif" font-size="14.00">file:Tair_{start_year}_{end_year}.mat</text>
</g>
<!-- fetch_monthly_mean_air_temperature_data&#45;&gt;Tair_Matrix -->
<g id="edge11" class="edge"><title>fetch_monthly_mean_air_temperature_data&#45;&gt;Tair_Matrix</title>
<path fill="none" stroke="black" d="M811.461,-302.38C837.683,-291.003 872.712,-275.807 902.888,-262.715"/>
<polygon fill="black" stroke="black" points="904.301,-265.917 912.081,-258.726 901.515,-259.495 904.301,-265.917"/>
</g>
<!-- fetch_monthly_mean_precipitation_data -->
<g id="node4" class="node"><title>fetch_monthly_mean_precipitation_data</title>
<polygon fill="#ccffcc" stroke="black" points="1378.19,-338.5 1113.81,-338.5 1113.81,-302.5 1378.19,-302.5 1378.19,-338.5"/>
<text text-anchor="middle" x="1246" y="-316.3" font-family="Helvetica,sans-Serif" font-size="14.00">fetch_monthly_mean_precipitation_data</text>
</g>
<!-- Rain_Matrix -->
<g id="node7" class="node"><title>Rain_Matrix</title>
<path fill="#ffffcc" stroke="black" d="M1313.68,-209.1C1313.68,-209.1 1538.32,-209.1 1538.32,-209.1 1544.32,-209.1 1550.32,-215.1 1550.32,-221.1 1550.32,-221.1 1550.32,-246.7 1550.32,-246.7 1550.32,-252.7 1544.32,-258.7 1538.32,-258.7 1538.32,-258.7 1313.68,-258.7 1313.68,-258.7 1307.68,-258.7 1301.68,-252.7 1301.68,-246.7 1301.68,-246.7 1301.68,-221.1 1301.68,-221.1 1301.68,-215.1 1307.68,-209.1 1313.68,-209.1"/>
<text text-anchor="middle" x="1426" y="-242.1" font-family="Helvetica,sans-Serif" font-size="14.00">Rain_Matrix</text>
<polyline fill="none" stroke="black" points="1301.68,-233.9 1550.32,-233.9 "/>
<text text-anchor="middle" x="1426" y="-217.3" font-family="Helvetica,sans-Serif" font-size="14.00">file:Rain_{start_year}_{end_year}.mat</text>
</g>
<!-- fetch_monthly_mean_precipitation_data&#45;&gt;Rain_Matrix -->
<g id="edge13" class="edge"><title>fetch_monthly_mean_precipitation_data&#45;&gt;Rain_Matrix</title>
<path fill="none" stroke="black" d="M1282.43,-302.38C1306.42,-291.102 1338.41,-276.068 1366.1,-263.054"/>
<polygon fill="black" stroke="black" points="1367.74,-266.147 1375.31,-258.726 1364.77,-259.812 1367.74,-266.147"/>
</g>
<!-- initialize_Grass_Matrix -->
<g id="node5" class="node"><title>initialize_Grass_Matrix</title>
<polygon fill="#ccffcc" stroke="black" points="1692.27,-425.1 1535.73,-425.1 1535.73,-389.1 1692.27,-389.1 1692.27,-425.1"/>
<text text-anchor="middle" x="1614" y="-402.9" font-family="Helvetica,sans-Serif" font-size="14.00">initialize_Grass_Matrix</text>
</g>
<!-- Grass_variable -->
<g id="node8" class="node"><title>Grass_variable</title>
<path fill="#ffffcc" stroke="black" d="M1446.41,-295.7C1446.41,-295.7 1679.59,-295.7 1679.59,-295.7 1685.59,-295.7 1691.59,-301.7 1691.59,-307.7 1691.59,-307.7 1691.59,-333.3 1691.59,-333.3 1691.59,-339.3 1685.59,-345.3 1679.59,-345.3 1679.59,-345.3 1446.41,-345.3 1446.41,-345.3 1440.41,-345.3 1434.41,-339.3 1434.41,-333.3 1434.41,-333.3 1434.41,-307.7 1434.41,-307.7 1434.41,-301.7 1440.41,-295.7 1446.41,-295.7"/>
<text text-anchor="middle" x="1563" y="-328.7" font-family="Helvetica,sans-Serif" font-size="14.00">Grass_variable</text>
<polyline fill="none" stroke="black" points="1434.41,-320.5 1691.59,-320.5 "/>
<text text-anchor="middle" x="1563" y="-303.9" font-family="Helvetica,sans-Serif" font-size="14.00">file:Grass_{start_year}_{end_year}.mat</text>
</g>
<!-- initialize_Grass_Matrix&#45;&gt;Grass_variable -->
<g id="edge15" class="edge"><title>initialize_Grass_Matrix&#45;&gt;Grass_variable</title>
<path fill="none" stroke="black" d="M1603.68,-388.98C1597.65,-378.977 1589.84,-366.019 1582.67,-354.137"/>
<polygon fill="black" stroke="black" points="1585.52,-352.083 1577.36,-345.326 1579.53,-355.697 1585.52,-352.083"/>
</g>
<!-- Tair_Matrix_output_port -->
<g id="node20" class="node"><title>Tair_Matrix_output_port</title>
<ellipse fill="#ffffff" stroke="black" cx="1723" cy="-154.6" rx="7" ry="7"/>
</g>
<!-- Tair_Matrix&#45;&gt;Tair_Matrix_output_port -->
<g id="edge19" class="edge"><title>Tair_Matrix&#45;&gt;Tair_Matrix_output_port</title>
<path fill="none" stroke="black" d="M1089.16,-223.901C1295,-208.6 1690.07,-178.586 1704,-172.6 1706.63,-171.469 1709.15,-169.822 1711.44,-167.993"/>
<polygon fill="black" stroke="black" points="1714.18,-170.216 1718.92,-160.743 1709.31,-165.189 1714.18,-170.216"/>
</g>
<!-- Rain_Matrix_output_port -->
<g id="node21" class="node"><title>Rain_Matrix_output_port</title>
<ellipse fill="#ffffff" stroke="black" cx="1755" cy="-154.6" rx="7" ry="7"/>
</g>
<!-- Rain_Matrix&#45;&gt;Rain_Matrix_output_port -->
<g id="edge20" class="edge"><title>Rain_Matrix&#45;&gt;Rain_Matrix_output_port</title>
<path fill="none" stroke="black" d="M1550.55,-226.713C1610.52,-219.414 1681.67,-204.146 1739,-172.6 1740.92,-171.545 1742.74,-170.179 1744.42,-168.679"/>
<polygon fill="black" stroke="black" points="1747.33,-170.671 1751.43,-160.899 1742.13,-165.985 1747.33,-170.671"/>
</g>
<!-- Grass_variable_output_port -->
<g id="node22" class="node"><title>Grass_variable_output_port</title>
<ellipse fill="#ffffff" stroke="black" cx="1723" cy="-233.9" rx="7" ry="7"/>
</g>
<!-- Grass_variable&#45;&gt;Grass_variable_output_port -->
<g id="edge21" class="edge"><title>Grass_variable&#45;&gt;Grass_variable_output_port</title>
<path fill="none" stroke="black" d="M1637.83,-295.652C1660.4,-286.381 1684.37,-274.296 1704,-259.2 1707.71,-256.343 1711.11,-252.6 1713.97,-248.911"/>
<polygon fill="black" stroke="black" points="1717.05,-250.603 1719.85,-240.385 1711.29,-246.627 1717.05,-250.603"/>
</g>
<!-- land_cover_map_mat_output_port -->
<g id="node23" class="node"><title>land_cover_map_mat_output_port</title>
<ellipse fill="#ffffff" stroke="black" cx="245" cy="-7" rx="7" ry="7"/>
</g>
<!-- land_cover_map_mat&#45;&gt;land_cover_map_mat_output_port -->
<g id="edge22" class="edge"><title>land_cover_map_mat&#45;&gt;land_cover_map_mat_output_port</title>
<path fill="none" stroke="black" d="M245,-50.3642C245,-41.694 245,-32.1105 245,-24.2546"/>
<polygon fill="black" stroke="black" points="248.5,-24.0006 245,-14.0006 241.5,-24.0007 248.5,-24.0006"/>
</g>
<!-- SYNMAP_land_cover_map_data -->
<g id="node10" class="node"><title>SYNMAP_land_cover_map_data</title>
<path fill="#ffffcc" stroke="black" d="M36.3093,-382.3C36.3093,-382.3 275.691,-382.3 275.691,-382.3 281.691,-382.3 287.691,-388.3 287.691,-394.3 287.691,-394.3 287.691,-419.9 287.691,-419.9 287.691,-425.9 281.691,-431.9 275.691,-431.9 275.691,-431.9 36.3093,-431.9 36.3093,-431.9 30.3093,-431.9 24.3093,-425.9 24.3093,-419.9 24.3093,-419.9 24.3093,-394.3 24.3093,-394.3 24.3093,-388.3 30.3093,-382.3 36.3093,-382.3"/>
<text text-anchor="middle" x="156" y="-415.3" font-family="Helvetica,sans-Serif" font-size="14.00">SYNMAP_land_cover_map_data</text>
<polyline fill="none" stroke="black" points="24.3093,-407.1 287.691,-407.1 "/>
<text text-anchor="middle" x="156" y="-390.5" font-family="Helvetica,sans-Serif" font-size="14.00">inputs/land_cover/SYNMAP_NA_QD.nc</text>
</g>
<!-- SYNMAP_land_cover_map_data&#45;&gt;fetch_SYNMAP_land_cover_map_variable -->
<g id="edge5" class="edge"><title>SYNMAP_land_cover_map_data&#45;&gt;fetch_SYNMAP_land_cover_map_variable</title>
<path fill="none" stroke="black" d="M162.245,-382.083C164.979,-371.57 168.199,-359.19 171.012,-348.371"/>
<polygon fill="black" stroke="black" points="174.427,-349.147 173.556,-338.588 167.652,-347.385 174.427,-349.147"/>
</g>
<!-- lon_variable&#45;&gt;save_SYNMAP_land_cover_map_variable -->
<g id="edge7" class="edge"><title>lon_variable&#45;&gt;save_SYNMAP_land_cover_map_variable</title>
<path fill="none" stroke="black" d="M108.838,-215.745C134.78,-204.286 169.089,-189.131 196.777,-176.901"/>
<polygon fill="black" stroke="black" points="198.537,-179.95 206.27,-172.707 195.709,-173.546 198.537,-179.95"/>
</g>
<!-- lat_variable&#45;&gt;save_SYNMAP_land_cover_map_variable -->
<g id="edge8" class="edge"><title>lat_variable&#45;&gt;save_SYNMAP_land_cover_map_variable</title>
<path fill="none" stroke="black" d="M192.869,-215.745C201.891,-205.337 213.555,-191.879 223.562,-180.334"/>
<polygon fill="black" stroke="black" points="226.267,-182.556 230.172,-172.707 220.978,-177.972 226.267,-182.556"/>
</g>
<!-- lon_bnds_variable&#45;&gt;save_SYNMAP_land_cover_map_variable -->
<g id="edge9" class="edge"><title>lon_bnds_variable&#45;&gt;save_SYNMAP_land_cover_map_variable</title>
<path fill="none" stroke="black" d="M291.684,-215.745C283.683,-205.437 273.36,-192.138 264.457,-180.667"/>
<polygon fill="black" stroke="black" points="267.175,-178.461 258.279,-172.707 261.646,-182.753 267.175,-178.461"/>
</g>
<!-- lat_bnds_variable&#45;&gt;save_SYNMAP_land_cover_map_variable -->
<g id="edge10" class="edge"><title>lat_bnds_variable&#45;&gt;save_SYNMAP_land_cover_map_variable</title>
<path fill="none" stroke="black" d="M405.537,-215.84C374.371,-204.146 332.857,-188.568 299.853,-176.183"/>
<polygon fill="black" stroke="black" points="300.939,-172.852 290.346,-172.616 298.479,-179.406 300.939,-172.852"/>
</g>
<!-- mean_airtemp -->
<g id="node15" class="node"><title>mean_airtemp</title>
<path fill="#ffffcc" stroke="black" d="M317.314,-382.3C317.314,-382.3 868.686,-382.3 868.686,-382.3 874.686,-382.3 880.686,-388.3 880.686,-394.3 880.686,-394.3 880.686,-419.9 880.686,-419.9 880.686,-425.9 874.686,-431.9 868.686,-431.9 868.686,-431.9 317.314,-431.9 317.314,-431.9 311.314,-431.9 305.314,-425.9 305.314,-419.9 305.314,-419.9 305.314,-394.3 305.314,-394.3 305.314,-388.3 311.314,-382.3 317.314,-382.3"/>
<text text-anchor="middle" x="593" y="-415.3" font-family="Helvetica,sans-Serif" font-size="14.00">mean_airtemp</text>
<polyline fill="none" stroke="black" points="305.314,-407.1 880.686,-407.1 "/>
<text text-anchor="middle" x="593" y="-390.5" font-family="Helvetica,sans-Serif" font-size="14.00">file:inputs/narr_air.2m_monthly/air.2m_monthly_{start_year}_{end_year}_mean.{month}.nc</text>
</g>
<!-- mean_airtemp&#45;&gt;fetch_monthly_mean_air_temperature_data -->
<g id="edge12" class="edge"><title>mean_airtemp&#45;&gt;fetch_monthly_mean_air_temperature_data</title>
<path fill="none" stroke="black" d="M643.815,-382.083C669.844,-369.781 701.279,-354.925 726.504,-343.002"/>
<polygon fill="black" stroke="black" points="728.299,-346.026 735.844,-338.588 725.307,-339.697 728.299,-346.026"/>
</g>
<!-- mean_precip -->
<g id="node16" class="node"><title>mean_precip</title>
<path fill="#ffffcc" stroke="black" d="M910.51,-382.3C910.51,-382.3 1505.49,-382.3 1505.49,-382.3 1511.49,-382.3 1517.49,-388.3 1517.49,-394.3 1517.49,-394.3 1517.49,-419.9 1517.49,-419.9 1517.49,-425.9 1511.49,-431.9 1505.49,-431.9 1505.49,-431.9 910.51,-431.9 910.51,-431.9 904.51,-431.9 898.51,-425.9 898.51,-419.9 898.51,-419.9 898.51,-394.3 898.51,-394.3 898.51,-388.3 904.51,-382.3 910.51,-382.3"/>
<text text-anchor="middle" x="1208" y="-415.3" font-family="Helvetica,sans-Serif" font-size="14.00">mean_precip</text>
<polyline fill="none" stroke="black" points="898.51,-407.1 1517.49,-407.1 "/>
<text text-anchor="middle" x="1208" y="-390.5" font-family="Helvetica,sans-Serif" font-size="14.00">file:inputs/narr_apcp_rescaled_monthly/apcp_monthly_{start_year}_{end_year}_mean.{month}.nc</text>
</g>
<!-- mean_precip&#45;&gt;fetch_monthly_mean_precipitation_data -->
<g id="edge14" class="edge"><title>mean_precip&#45;&gt;fetch_monthly_mean_precipitation_data</title>
<path fill="none" stroke="black" d="M1218.79,-382.083C1223.56,-371.461 1229.19,-358.935 1234.08,-348.037"/>
<polygon fill="black" stroke="black" points="1237.42,-349.144 1238.32,-338.588 1231.03,-346.276 1237.42,-349.144"/>
</g>
<!-- SYNMAP_land_cover_map_data_input_port -->
<g id="node17" class="node"><title>SYNMAP_land_cover_map_data_input_port</title>
<ellipse fill="#ffffff" stroke="black" cx="156" cy="-475.4" rx="7" ry="7"/>
</g>
<!-- SYNMAP_land_cover_map_data_input_port&#45;&gt;SYNMAP_land_cover_map_data -->
<g id="edge16" class="edge"><title>SYNMAP_land_cover_map_data_input_port&#45;&gt;SYNMAP_land_cover_map_data</title>
<path fill="none" stroke="black" d="M156,-468.281C156,-462.191 156,-452.333 156,-442.342"/>
<polygon fill="black" stroke="black" points="159.5,-442.036 156,-432.036 152.5,-442.036 159.5,-442.036"/>
</g>
<!-- mean_airtemp_input_port -->
<g id="node18" class="node"><title>mean_airtemp_input_port</title>
<ellipse fill="#ffffff" stroke="black" cx="593" cy="-475.4" rx="7" ry="7"/>
</g>
<!-- mean_airtemp_input_port&#45;&gt;mean_airtemp -->
<g id="edge17" class="edge"><title>mean_airtemp_input_port&#45;&gt;mean_airtemp</title>
<path fill="none" stroke="black" d="M593,-468.281C593,-462.191 593,-452.333 593,-442.342"/>
<polygon fill="black" stroke="black" points="596.5,-442.036 593,-432.036 589.5,-442.036 596.5,-442.036"/>
</g>
<!-- mean_precip_input_port -->
<g id="node19" class="node"><title>mean_precip_input_port</title>
<ellipse fill="#ffffff" stroke="black" cx="1208" cy="-475.4" rx="7" ry="7"/>
</g>
<!-- mean_precip_input_port&#45;&gt;mean_precip -->
<g id="edge18" class="edge"><title>mean_precip_input_port&#45;&gt;mean_precip</title>
<path fill="none" stroke="black" d="M1208,-468.281C1208,-462.191 1208,-452.333 1208,-442.342"/>
<polygon fill="black" stroke="black" points="1211.5,-442.036 1208,-432.036 1204.5,-442.036 1211.5,-442.036"/>
</g>
</g>
</svg>
