<?xml version="1.0" encoding="UTF-8" standalone="no"?>
<!DOCTYPE svg PUBLIC "-//W3C//DTD SVG 1.1//EN"
 "http://www.w3.org/Graphics/SVG/1.1/DTD/svg11.dtd">
<!-- Generated by graphviz version 2.38.0 (20140413.2041)
 -->
<!-- Title: Workflow Pages: 1 -->
<svg width="915pt" height="547pt"
 viewBox="0.00 0.00 915.00 546.80" xmlns="http://www.w3.org/2000/svg" xmlns:xlink="http://www.w3.org/1999/xlink">
<g id="graph0" class="graph" transform="scale(1 1) rotate(0) translate(4 542.8)">
<title>Workflow</title>
<polygon fill="white" stroke="none" points="-4,4 -4,-542.8 911,-542.8 911,4 -4,4"/>
<text text-anchor="middle" x="453.5" y="-518.6" font-family="Courier,monospace" font-size="18.00">setup_watershed_raster</text>
<g id="clust1" class="cluster"><title>cluster_workflow_box_outer</title>
<polygon fill="none" stroke="black" stroke-width="2" points="8,-62 8,-447.2 899,-447.2 899,-62 8,-62"/>
</g>
<g id="clust2" class="cluster"><title>cluster_workflow_box_inner</title>
<polygon fill="none" stroke="white" stroke-width="2" points="16,-70 16,-439.2 891,-439.2 891,-70 16,-70"/>
</g>
<g id="clust3" class="cluster"><title>cluster_input_ports_group_outer</title>
<polygon fill="none" stroke="white" points="433,-455.2 433,-501.2 543,-501.2 543,-455.2 433,-455.2"/>
</g>
<g id="clust4" class="cluster"><title>cluster_input_ports_group_inner</title>
<polygon fill="none" stroke="white" points="441,-463.2 441,-493.2 535,-493.2 535,-463.2 441,-463.2"/>
</g>
<g id="clust5" class="cluster"><title>cluster_output_ports_group_outer</title>
<polygon fill="none" stroke="white" points="286,-8 286,-54 332,-54 332,-8 286,-8"/>
</g>
<g id="clust6" class="cluster"><title>cluster_output_ports_group_inner</title>
<polygon fill="none" stroke="white" points="294,-16 294,-46 324,-46 324,-16 294,-16"/>
</g>
<!-- set_up_configuration_and_start_provenance_tracking -->
<g id="node1" class="node"><title>set_up_configuration_and_start_provenance_tracking</title>
<polygon fill="#ccffcc" stroke="black" points="459.93,-359.2 24.07,-359.2 24.07,-323.2 459.93,-323.2 459.93,-359.2"/>
<text text-anchor="middle" x="242" y="-337" font-family="Courier,monospace" font-size="14.00">set_up_configuration_and_start_provenance_tracking</text>
</g>
<!-- dir_spatial -->
<g id="node7" class="node"><title>dir_spatial</title>
<path fill="#fcfcfc" stroke="black" d="M91.7843,-279.9C91.7843,-279.9 36.2157,-279.9 36.2157,-279.9 30.2157,-279.9 24.2157,-273.9 24.2157,-267.9 24.2157,-267.9 24.2157,-255.9 24.2157,-255.9 24.2157,-249.9 30.2157,-243.9 36.2157,-243.9 36.2157,-243.9 91.7843,-243.9 91.7843,-243.9 97.7843,-243.9 103.784,-249.9 103.784,-255.9 103.784,-255.9 103.784,-267.9 103.784,-267.9 103.784,-273.9 97.7843,-279.9 91.7843,-279.9"/>
<text text-anchor="middle" x="64" y="-257.7" font-family="Helvetica,sans-Serif" font-size="14.00">dir_spatial</text>
</g>
<!-- set_up_configuration_and_start_provenance_tracking&#45;&gt;dir_spatial -->
<g id="edge1" class="edge"><title>set_up_configuration_and_start_provenance_tracking&#45;&gt;dir_spatial</title>
<path fill="none" stroke="black" d="M198.38,-323.168C173.232,-313.128 141.123,-299.932 113,-287.2 110.962,-286.277 108.884,-285.319 106.79,-284.338"/>
<polygon fill="black" stroke="black" points="108.122,-281.096 97.5901,-279.947 105.107,-287.413 108.122,-281.096"/>
</g>
<!-- dir_goal -->
<g id="node8" class="node"><title>dir_goal</title>
<path fill="#fcfcfc" stroke="black" d="M175.787,-279.9C175.787,-279.9 134.213,-279.9 134.213,-279.9 128.213,-279.9 122.213,-273.9 122.213,-267.9 122.213,-267.9 122.213,-255.9 122.213,-255.9 122.213,-249.9 128.213,-243.9 134.213,-243.9 134.213,-243.9 175.787,-243.9 175.787,-243.9 181.787,-243.9 187.787,-249.9 187.787,-255.9 187.787,-255.9 187.787,-267.9 187.787,-267.9 187.787,-273.9 181.787,-279.9 175.787,-279.9"/>
<text text-anchor="middle" x="155" y="-257.7" font-family="Helvetica,sans-Serif" font-size="14.00">dir_goal</text>
</g>
<!-- set_up_configuration_and_start_provenance_tracking&#45;&gt;dir_goal -->
<g id="edge2" class="edge"><title>set_up_configuration_and_start_provenance_tracking&#45;&gt;dir_goal</title>
<path fill="none" stroke="black" d="M222.692,-323.045C210.752,-312.436 195.248,-298.661 182.09,-286.97"/>
<polygon fill="black" stroke="black" points="184.054,-284.033 174.254,-280.007 179.405,-289.266 184.054,-284.033"/>
</g>
<!-- raster_to_same_extents_resolution_as_500m_base_raster -->
<g id="node2" class="node"><title>raster_to_same_extents_resolution_as_500m_base_raster</title>
<polygon fill="#ccffcc" stroke="black" points="539.626,-200.6 78.3742,-200.6 78.3742,-164.6 539.626,-164.6 539.626,-200.6"/>
<text text-anchor="middle" x="309" y="-178.4" font-family="Courier,monospace" font-size="14.00">raster_to_same_extents_resolution_as_500m_base_raster</text>
</g>
<!-- rast_watershed -->
<g id="node3" class="node"><title>rast_watershed</title>
<path fill="#ffffcc" stroke="black" d="M143.782,-78.5C143.782,-78.5 474.218,-78.5 474.218,-78.5 480.218,-78.5 486.218,-84.5 486.218,-90.5 486.218,-90.5 486.218,-116.1 486.218,-116.1 486.218,-122.1 480.218,-128.1 474.218,-128.1 474.218,-128.1 143.782,-128.1 143.782,-128.1 137.782,-128.1 131.782,-122.1 131.782,-116.1 131.782,-116.1 131.782,-90.5 131.782,-90.5 131.782,-84.5 137.782,-78.5 143.782,-78.5"/>
<text text-anchor="middle" x="309" y="-111.5" font-family="Helvetica,sans-Serif" font-size="14.00">rast_watershed</text>
<polyline fill="none" stroke="black" points="131.782,-103.3 486.218,-103.3 "/>
<text text-anchor="middle" x="309" y="-86.7" font-family="Helvetica,sans-Serif" font-size="14.00">file:{dir_goal}/spatial/howe_sound_watershed_500m.tif</text>
</g>
<!-- raster_to_same_extents_resolution_as_500m_base_raster&#45;&gt;rast_watershed -->
<g id="edge4" class="edge"><title>raster_to_same_extents_resolution_as_500m_base_raster&#45;&gt;rast_watershed</title>
<path fill="none" stroke="black" d="M309,-164.445C309,-156.689 309,-147.239 309,-138.15"/>
<polygon fill="black" stroke="black" points="312.5,-138.15 309,-128.15 305.5,-138.15 312.5,-138.15"/>
</g>
<!-- rast_watershed_output_port -->
<g id="node12" class="node"><title>rast_watershed_output_port</title>
<ellipse fill="#ffffff" stroke="black" cx="309" cy="-31" rx="7" ry="7"/>
</g>
<!-- rast_watershed&#45;&gt;rast_watershed_output_port -->
<g id="edge12" class="edge"><title>rast_watershed&#45;&gt;rast_watershed_output_port</title>
<path fill="none" stroke="black" d="M309,-78.4996C309,-68.5289 309,-57.1933 309,-48.2105"/>
<polygon fill="black" stroke="black" points="312.5,-48.0698 309,-38.0698 305.5,-48.0699 312.5,-48.0698"/>
</g>
<!-- setup_R -->
<g id="node4" class="node"><title>setup_R</title>
<path fill="#ffffcc" stroke="black" d="M356.128,-431.2C356.128,-431.2 311.872,-431.2 311.872,-431.2 305.872,-431.2 299.872,-425.2 299.872,-419.2 299.872,-419.2 299.872,-407.2 299.872,-407.2 299.872,-401.2 305.872,-395.2 311.872,-395.2 311.872,-395.2 356.128,-395.2 356.128,-395.2 362.128,-395.2 368.128,-401.2 368.128,-407.2 368.128,-407.2 368.128,-419.2 368.128,-419.2 368.128,-425.2 362.128,-431.2 356.128,-431.2"/>
<text text-anchor="middle" x="334" y="-409" font-family="Helvetica,sans-Serif" font-size="14.00">setup_R</text>
</g>
<!-- setup_R&#45;&gt;set_up_configuration_and_start_provenance_tracking -->
<g id="edge3" class="edge"><title>setup_R&#45;&gt;set_up_configuration_and_start_provenance_tracking</title>
<path fill="none" stroke="black" d="M311.258,-394.897C299.56,-385.996 285.139,-375.023 272.49,-365.399"/>
<polygon fill="black" stroke="black" points="274.558,-362.574 264.48,-359.304 270.319,-368.145 274.558,-362.574"/>
</g>
<!-- rast_base -->
<g id="node5" class="node"><title>rast_base</title>
<path fill="#ffffcc" stroke="black" d="M217.47,-237.1C217.47,-237.1 510.53,-237.1 510.53,-237.1 516.53,-237.1 522.53,-243.1 522.53,-249.1 522.53,-249.1 522.53,-274.7 522.53,-274.7 522.53,-280.7 516.53,-286.7 510.53,-286.7 510.53,-286.7 217.47,-286.7 217.47,-286.7 211.47,-286.7 205.47,-280.7 205.47,-274.7 205.47,-274.7 205.47,-249.1 205.47,-249.1 205.47,-243.1 211.47,-237.1 217.47,-237.1"/>
<text text-anchor="middle" x="364" y="-270.1" font-family="Helvetica,sans-Serif" font-size="14.00">rast_base</text>
<polyline fill="none" stroke="black" points="205.47,-261.9 522.53,-261.9 "/>
<text text-anchor="middle" x="364" y="-245.3" font-family="Helvetica,sans-Serif" font-size="14.00">file:{dir_spatial}/raster/ohibc_rgn_raster_500m.tif</text>
</g>
<!-- rast_base&#45;&gt;raster_to_same_extents_resolution_as_500m_base_raster -->
<g id="edge7" class="edge"><title>rast_base&#45;&gt;raster_to_same_extents_resolution_as_500m_base_raster</title>
<path fill="none" stroke="black" d="M346.899,-236.866C340.59,-227.999 333.425,-217.929 327.036,-208.949"/>
<polygon fill="black" stroke="black" points="329.851,-206.868 321.202,-200.749 324.148,-210.927 329.851,-206.868"/>
</g>
<!-- howe_sound_watersheds -->
<g id="node6" class="node"><title>howe_sound_watersheds</title>
<path fill="#ffffcc" stroke="black" d="M553.008,-237.1C553.008,-237.1 870.992,-237.1 870.992,-237.1 876.992,-237.1 882.992,-243.1 882.992,-249.1 882.992,-249.1 882.992,-274.7 882.992,-274.7 882.992,-280.7 876.992,-286.7 870.992,-286.7 870.992,-286.7 553.008,-286.7 553.008,-286.7 547.008,-286.7 541.008,-280.7 541.008,-274.7 541.008,-274.7 541.008,-249.1 541.008,-249.1 541.008,-243.1 547.008,-237.1 553.008,-237.1"/>
<text text-anchor="middle" x="712" y="-270.1" font-family="Helvetica,sans-Serif" font-size="14.00">howe_sound_watersheds</text>
<polyline fill="none" stroke="black" points="541.008,-261.9 882.992,-261.9 "/>
<text text-anchor="middle" x="712" y="-245.3" font-family="Helvetica,sans-Serif" font-size="14.00">file:{dir_spatial}/watershed/howe_sound_watersheds</text>
</g>
<!-- howe_sound_watersheds&#45;&gt;raster_to_same_extents_resolution_as_500m_base_raster -->
<g id="edge8" class="edge"><title>howe_sound_watersheds&#45;&gt;raster_to_same_extents_resolution_as_500m_base_raster</title>
<path fill="none" stroke="black" d="M587.798,-237.077C529.885,-225.968 461.93,-212.934 407.61,-202.514"/>
<polygon fill="black" stroke="black" points="408.111,-199.047 397.631,-200.6 406.793,-205.922 408.111,-199.047"/>
</g>
<!-- dir_spatial&#45;&gt;raster_to_same_extents_resolution_as_500m_base_raster -->
<g id="edge5" class="edge"><title>dir_spatial&#45;&gt;raster_to_same_extents_resolution_as_500m_base_raster</title>
<path fill="none" stroke="black" d="M96.2853,-243.78C101.782,-241.187 107.495,-238.686 113,-236.6 147.951,-223.355 187.574,-211.99 222.003,-203.219"/>
<polygon fill="black" stroke="black" points="223.191,-206.529 232.037,-200.698 221.486,-199.74 223.191,-206.529"/>
</g>
<!-- dir_goal&#45;&gt;raster_to_same_extents_resolution_as_500m_base_raster -->
<g id="edge6" class="edge"><title>dir_goal&#45;&gt;raster_to_same_extents_resolution_as_500m_base_raster</title>
<path fill="none" stroke="black" d="M183.028,-243.806C187.334,-241.32 191.758,-238.845 196,-236.6 216.997,-225.487 240.735,-214.171 261.015,-204.865"/>
<polygon fill="black" stroke="black" points="262.718,-207.936 270.366,-200.604 259.815,-201.566 262.718,-207.936"/>
</g>
<!-- setup_R_input_port -->
<g id="node9" class="node"><title>setup_R_input_port</title>
<ellipse fill="#ffffff" stroke="black" cx="456" cy="-478.2" rx="7" ry="7"/>
</g>
<!-- setup_R_input_port&#45;&gt;setup_R -->
<g id="edge9" class="edge"><title>setup_R_input_port&#45;&gt;setup_R</title>
<path fill="none" stroke="black" d="M450.116,-474.161C436.859,-467.316 403.665,-450.175 376.148,-435.965"/>
<polygon fill="black" stroke="black" points="377.561,-432.756 367.07,-431.277 374.35,-438.975 377.561,-432.756"/>
</g>
<!-- rast_base_input_port -->
<g id="node10" class="node"><title>rast_base_input_port</title>
<ellipse fill="#ffffff" stroke="black" cx="488" cy="-478.2" rx="7" ry="7"/>
</g>
<!-- rast_base_input_port&#45;&gt;rast_base -->
<g id="edge10" class="edge"><title>rast_base_input_port&#45;&gt;rast_base</title>
<path fill="none" stroke="black" d="M489.016,-471.262C492.422,-449.399 501.484,-372.125 469,-323.2 460.606,-310.558 448.597,-300.251 435.679,-291.967"/>
<polygon fill="black" stroke="black" points="437.464,-288.956 427.088,-286.812 433.862,-294.958 437.464,-288.956"/>
</g>
<!-- howe_sound_watersheds_input_port -->
<g id="node11" class="node"><title>howe_sound_watersheds_input_port</title>
<ellipse fill="#ffffff" stroke="black" cx="520" cy="-478.2" rx="7" ry="7"/>
</g>
<!-- howe_sound_watersheds_input_port&#45;&gt;howe_sound_watersheds -->
<g id="edge11" class="edge"><title>howe_sound_watersheds_input_port&#45;&gt;howe_sound_watersheds</title>
<path fill="none" stroke="black" d="M524.371,-472.321C545.343,-448.914 636.571,-347.09 683.652,-294.54"/>
<polygon fill="black" stroke="black" points="686.472,-296.638 690.538,-286.854 681.259,-291.967 686.472,-296.638"/>
</g>
</g>
</svg>
