<?xml version="1.0" encoding="UTF-8" standalone="no"?>
<!DOCTYPE svg PUBLIC "-//W3C//DTD SVG 1.1//EN"
 "http://www.w3.org/Graphics/SVG/1.1/DTD/svg11.dtd">
<!-- Generated by graphviz version 2.38.0 (20140413.2041)
 -->
<!-- Title: Workflow Pages: 1 -->
<svg width="492pt" height="691pt"
 viewBox="0.00 0.00 492.00 690.80" xmlns="http://www.w3.org/2000/svg" xmlns:xlink="http://www.w3.org/1999/xlink">
<g id="graph0" class="graph" transform="scale(1 1) rotate(0) translate(4 686.8)">
<title>Workflow</title>
<polygon fill="white" stroke="none" points="-4,4 -4,-686.8 488,-686.8 488,4 -4,4"/>
<text text-anchor="middle" x="242" y="-662.6" font-family="Courier,monospace" font-size="18.00">setup_BC_PEP_polygons</text>
<g id="clust1" class="cluster"><title>cluster_workflow_box_outer</title>
<polygon fill="none" stroke="black" stroke-width="2" points="8,-62 8,-591.2 476,-591.2 476,-62 8,-62"/>
</g>
<g id="clust2" class="cluster"><title>cluster_workflow_box_inner</title>
<polygon fill="none" stroke="white" stroke-width="2" points="16,-70 16,-583.2 468,-583.2 468,-70 16,-70"/>
</g>
<g id="clust3" class="cluster"><title>cluster_input_ports_group_outer</title>
<polygon fill="none" stroke="white" points="353,-599.2 353,-645.2 431,-645.2 431,-599.2 353,-599.2"/>
</g>
<g id="clust4" class="cluster"><title>cluster_input_ports_group_inner</title>
<polygon fill="none" stroke="white" points="361,-607.2 361,-637.2 423,-637.2 423,-607.2 361,-607.2"/>
</g>
<g id="clust5" class="cluster"><title>cluster_output_ports_group_outer</title>
<polygon fill="none" stroke="white" points="142,-8 142,-54 188,-54 188,-8 142,-8"/>
</g>
<g id="clust6" class="cluster"><title>cluster_output_ports_group_inner</title>
<polygon fill="none" stroke="white" points="150,-16 150,-46 180,-46 180,-16 150,-16"/>
</g>
<!-- set_up_Configuration_and_start_provenance_tracking -->
<g id="node1" class="node"><title>set_up_Configuration_and_start_provenance_tracking</title>
<polygon fill="#ccffcc" stroke="black" points="459.93,-503.2 24.07,-503.2 24.07,-467.2 459.93,-467.2 459.93,-503.2"/>
<text text-anchor="middle" x="242" y="-481" font-family="Courier,monospace" font-size="14.00">set_up_Configuration_and_start_provenance_tracking</text>
</g>
<!-- dir_anx -->
<g id="node8" class="node"><title>dir_anx</title>
<path fill="#fcfcfc" stroke="black" d="M123.898,-423.9C123.898,-423.9 86.1023,-423.9 86.1023,-423.9 80.1023,-423.9 74.1023,-417.9 74.1023,-411.9 74.1023,-411.9 74.1023,-399.9 74.1023,-399.9 74.1023,-393.9 80.1023,-387.9 86.1023,-387.9 86.1023,-387.9 123.898,-387.9 123.898,-387.9 129.898,-387.9 135.898,-393.9 135.898,-399.9 135.898,-399.9 135.898,-411.9 135.898,-411.9 135.898,-417.9 129.898,-423.9 123.898,-423.9"/>
<text text-anchor="middle" x="105" y="-401.7" font-family="Helvetica,sans-Serif" font-size="14.00">dir_anx</text>
</g>
<!-- set_up_Configuration_and_start_provenance_tracking&#45;&gt;dir_anx -->
<g id="edge1" class="edge"><title>set_up_Configuration_and_start_provenance_tracking&#45;&gt;dir_anx</title>
<path fill="none" stroke="black" d="M209.903,-467.14C190.909,-456.926 166.446,-443.565 145,-431.2 143.891,-430.561 142.768,-429.908 141.635,-429.246"/>
<polygon fill="black" stroke="black" points="143.265,-426.144 132.877,-424.059 139.697,-432.167 143.265,-426.144"/>
</g>
<!-- dir_goal -->
<g id="node9" class="node"><title>dir_goal</title>
<path fill="#fcfcfc" stroke="black" d="M77.7871,-344.6C77.7871,-344.6 36.2129,-344.6 36.2129,-344.6 30.2129,-344.6 24.2129,-338.6 24.2129,-332.6 24.2129,-332.6 24.2129,-320.6 24.2129,-320.6 24.2129,-314.6 30.2129,-308.6 36.2129,-308.6 36.2129,-308.6 77.7871,-308.6 77.7871,-308.6 83.7871,-308.6 89.7871,-314.6 89.7871,-320.6 89.7871,-320.6 89.7871,-332.6 89.7871,-332.6 89.7871,-338.6 83.7871,-344.6 77.7871,-344.6"/>
<text text-anchor="middle" x="57" y="-322.4" font-family="Helvetica,sans-Serif" font-size="14.00">dir_goal</text>
</g>
<!-- set_up_Configuration_and_start_provenance_tracking&#45;&gt;dir_goal -->
<g id="edge2" class="edge"><title>set_up_Configuration_and_start_provenance_tracking&#45;&gt;dir_goal</title>
<path fill="none" stroke="black" d="M116.185,-467.189C96.4873,-459.189 78.2868,-447.682 65,-431.2 47.8959,-409.982 48.1932,-377.728 51.3102,-354.852"/>
<polygon fill="black" stroke="black" points="54.7991,-355.201 52.9453,-344.77 47.8894,-354.081 54.7991,-355.201"/>
</g>
<!-- read_TA_PEP_SVW_polygon -->
<g id="node2" class="node"><title>read_TA_PEP_SVW_polygon</title>
<polygon fill="#ccffcc" stroke="black" points="316.668,-344.6 107.332,-344.6 107.332,-308.6 316.668,-308.6 316.668,-344.6"/>
<text text-anchor="middle" x="212" y="-322.4" font-family="Courier,monospace" font-size="14.00">read_TA_PEP_SVW_polygon</text>
</g>
<!-- hs_pep_poly -->
<g id="node7" class="node"><title>hs_pep_poly</title>
<path fill="#ffffcc" stroke="black" d="M231.868,-272.6C231.868,-272.6 160.132,-272.6 160.132,-272.6 154.132,-272.6 148.132,-266.6 148.132,-260.6 148.132,-260.6 148.132,-248.6 148.132,-248.6 148.132,-242.6 154.132,-236.6 160.132,-236.6 160.132,-236.6 231.868,-236.6 231.868,-236.6 237.868,-236.6 243.868,-242.6 243.868,-248.6 243.868,-248.6 243.868,-260.6 243.868,-260.6 243.868,-266.6 237.868,-272.6 231.868,-272.6"/>
<text text-anchor="middle" x="196" y="-250.4" font-family="Helvetica,sans-Serif" font-size="14.00">hs_pep_poly</text>
</g>
<!-- read_TA_PEP_SVW_polygon&#45;&gt;hs_pep_poly -->
<g id="edge4" class="edge"><title>read_TA_PEP_SVW_polygon&#45;&gt;hs_pep_poly</title>
<path fill="none" stroke="black" d="M208.045,-308.297C206.282,-300.583 204.163,-291.312 202.197,-282.712"/>
<polygon fill="black" stroke="black" points="205.55,-281.673 199.91,-272.704 198.726,-283.233 205.55,-281.673"/>
</g>
<!-- write_hs_pep_poly -->
<g id="node3" class="node"><title>write_hs_pep_poly</title>
<polygon fill="#ccffcc" stroke="black" points="244.276,-200.6 85.7236,-200.6 85.7236,-164.6 244.276,-164.6 244.276,-200.6"/>
<text text-anchor="middle" x="165" y="-178.4" font-family="Courier,monospace" font-size="14.00">write_hs_pep_poly</text>
</g>
<!-- poly_hs_pep -->
<g id="node4" class="node"><title>poly_hs_pep</title>
<path fill="#ffffcc" stroke="black" d="M51.5155,-78.5C51.5155,-78.5 278.484,-78.5 278.484,-78.5 284.484,-78.5 290.484,-84.5 290.484,-90.5 290.484,-90.5 290.484,-116.1 290.484,-116.1 290.484,-122.1 284.484,-128.1 278.484,-128.1 278.484,-128.1 51.5155,-128.1 51.5155,-128.1 45.5155,-128.1 39.5155,-122.1 39.5155,-116.1 39.5155,-116.1 39.5155,-90.5 39.5155,-90.5 39.5155,-84.5 45.5155,-78.5 51.5155,-78.5"/>
<text text-anchor="middle" x="165" y="-111.5" font-family="Helvetica,sans-Serif" font-size="14.00">poly_hs_pep</text>
<polyline fill="none" stroke="black" points="39.5155,-103.3 290.484,-103.3 "/>
<text text-anchor="middle" x="165" y="-86.7" font-family="Helvetica,sans-Serif" font-size="14.00">file:{dir_goal}/spatial/hs_pep_poly.shp</text>
</g>
<!-- write_hs_pep_poly&#45;&gt;poly_hs_pep -->
<g id="edge7" class="edge"><title>write_hs_pep_poly&#45;&gt;poly_hs_pep</title>
<path fill="none" stroke="black" d="M165,-164.445C165,-156.689 165,-147.239 165,-138.15"/>
<polygon fill="black" stroke="black" points="168.5,-138.15 165,-128.15 161.5,-138.15 168.5,-138.15"/>
</g>
<!-- poly_hs_pep_output_port -->
<g id="node12" class="node"><title>poly_hs_pep_output_port</title>
<ellipse fill="#ffffff" stroke="black" cx="165" cy="-31" rx="7" ry="7"/>
</g>
<!-- poly_hs_pep&#45;&gt;poly_hs_pep_output_port -->
<g id="edge12" class="edge"><title>poly_hs_pep&#45;&gt;poly_hs_pep_output_port</title>
<path fill="none" stroke="black" d="M165,-78.4996C165,-68.5289 165,-57.1933 165,-48.2105"/>
<polygon fill="black" stroke="black" points="168.5,-48.0698 165,-38.0698 161.5,-48.0699 168.5,-48.0698"/>
</g>
<!-- setup_R -->
<g id="node5" class="node"><title>setup_R</title>
<path fill="#ffffcc" stroke="black" d="M353.128,-575.2C353.128,-575.2 308.872,-575.2 308.872,-575.2 302.872,-575.2 296.872,-569.2 296.872,-563.2 296.872,-563.2 296.872,-551.2 296.872,-551.2 296.872,-545.2 302.872,-539.2 308.872,-539.2 308.872,-539.2 353.128,-539.2 353.128,-539.2 359.128,-539.2 365.128,-545.2 365.128,-551.2 365.128,-551.2 365.128,-563.2 365.128,-563.2 365.128,-569.2 359.128,-575.2 353.128,-575.2"/>
<text text-anchor="middle" x="331" y="-553" font-family="Helvetica,sans-Serif" font-size="14.00">setup_R</text>
</g>
<!-- setup_R&#45;&gt;set_up_Configuration_and_start_provenance_tracking -->
<g id="edge3" class="edge"><title>setup_R&#45;&gt;set_up_Configuration_and_start_provenance_tracking</title>
<path fill="none" stroke="black" d="M309,-538.897C297.791,-530.081 283.998,-519.232 271.846,-509.674"/>
<polygon fill="black" stroke="black" points="273.771,-506.735 263.747,-503.304 269.443,-512.238 273.771,-506.735"/>
</g>
<!-- TA_PEP_SVW_polygon -->
<g id="node6" class="node"><title>TA_PEP_SVW_polygon</title>
<path fill="#ffffcc" stroke="black" d="M166.289,-381.1C166.289,-381.1 447.711,-381.1 447.711,-381.1 453.711,-381.1 459.711,-387.1 459.711,-393.1 459.711,-393.1 459.711,-418.7 459.711,-418.7 459.711,-424.7 453.711,-430.7 447.711,-430.7 447.711,-430.7 166.289,-430.7 166.289,-430.7 160.289,-430.7 154.289,-424.7 154.289,-418.7 154.289,-418.7 154.289,-393.1 154.289,-393.1 154.289,-387.1 160.289,-381.1 166.289,-381.1"/>
<text text-anchor="middle" x="307" y="-414.1" font-family="Helvetica,sans-Serif" font-size="14.00">TA_PEP_SVW_polygon</text>
<polyline fill="none" stroke="black" points="154.289,-405.9 459.711,-405.9 "/>
<text text-anchor="middle" x="307" y="-389.3" font-family="Helvetica,sans-Serif" font-size="14.00">file:{dir_anx}/_raw_data/databc/TA_PEP_SVW</text>
</g>
<!-- TA_PEP_SVW_polygon&#45;&gt;read_TA_PEP_SVW_polygon -->
<g id="edge6" class="edge"><title>TA_PEP_SVW_polygon&#45;&gt;read_TA_PEP_SVW_polygon</title>
<path fill="none" stroke="black" d="M277.722,-381.077C265.939,-371.489 252.393,-360.467 240.672,-350.93"/>
<polygon fill="black" stroke="black" points="242.859,-348.197 232.893,-344.6 238.441,-353.627 242.859,-348.197"/>
</g>
<!-- hs_pep_poly&#45;&gt;write_hs_pep_poly -->
<g id="edge8" class="edge"><title>hs_pep_poly&#45;&gt;write_hs_pep_poly</title>
<path fill="none" stroke="black" d="M188.337,-236.297C184.808,-228.328 180.544,-218.7 176.631,-209.864"/>
<polygon fill="black" stroke="black" points="179.824,-208.431 172.575,-200.704 173.424,-211.265 179.824,-208.431"/>
</g>
<!-- dir_anx&#45;&gt;read_TA_PEP_SVW_polygon -->
<g id="edge5" class="edge"><title>dir_anx&#45;&gt;read_TA_PEP_SVW_polygon</title>
<path fill="none" stroke="black" d="M128.747,-387.745C143.846,-376.836 163.583,-362.578 180.049,-350.683"/>
<polygon fill="black" stroke="black" points="182.263,-353.401 188.32,-344.707 178.164,-347.726 182.263,-353.401"/>
</g>
<!-- dir_goal&#45;&gt;write_hs_pep_poly -->
<g id="edge9" class="edge"><title>dir_goal&#45;&gt;write_hs_pep_poly</title>
<path fill="none" stroke="black" d="M70.0273,-308.471C88.8393,-283.737 123.745,-237.842 145.596,-209.112"/>
<polygon fill="black" stroke="black" points="148.659,-210.868 151.926,-200.789 143.087,-206.63 148.659,-210.868"/>
</g>
<!-- TA_PEP_SVW_polygon_input_port -->
<g id="node10" class="node"><title>TA_PEP_SVW_polygon_input_port</title>
<ellipse fill="#ffffff" stroke="black" cx="408" cy="-622.2" rx="7" ry="7"/>
</g>
<!-- TA_PEP_SVW_polygon_input_port&#45;&gt;TA_PEP_SVW_polygon -->
<g id="edge10" class="edge"><title>TA_PEP_SVW_polygon_input_port&#45;&gt;TA_PEP_SVW_polygon</title>
<path fill="none" stroke="black" d="M412.604,-616.808C432.147,-597.633 505.591,-519.864 469,-467.2 459.783,-453.934 447.279,-443.581 433.279,-435.502"/>
<polygon fill="black" stroke="black" points="434.855,-432.376 424.384,-430.76 431.562,-438.553 434.855,-432.376"/>
</g>
<!-- setup_R_input_port -->
<g id="node11" class="node"><title>setup_R_input_port</title>
<ellipse fill="#ffffff" stroke="black" cx="376" cy="-622.2" rx="7" ry="7"/>
</g>
<!-- setup_R_input_port&#45;&gt;setup_R -->
<g id="edge11" class="edge"><title>setup_R_input_port&#45;&gt;setup_R</title>
<path fill="none" stroke="black" d="M372.163,-615.829C367.067,-608.693 357.715,-595.6 349.211,-583.696"/>
<polygon fill="black" stroke="black" points="351.903,-581.443 343.243,-575.34 346.207,-585.511 351.903,-581.443"/>
</g>
</g>
</svg>
