<?xml version="1.0" encoding="UTF-8" standalone="no"?>
<!DOCTYPE svg PUBLIC "-//W3C//DTD SVG 1.1//EN"
 "http://www.w3.org/Graphics/SVG/1.1/DTD/svg11.dtd">
<!-- Generated by graphviz version 2.38.0 (20140413.2041)
 -->
<!-- Title: Workflow Pages: 1 -->
<svg width="642pt" height="691pt"
 viewBox="0.00 0.00 642.00 690.80" xmlns="http://www.w3.org/2000/svg" xmlns:xlink="http://www.w3.org/1999/xlink">
<g id="graph0" class="graph" transform="scale(1 1) rotate(0) translate(4 686.8)">
<title>Workflow</title>
<polygon fill="white" stroke="none" points="-4,4 -4,-686.8 638,-686.8 638,4 -4,4"/>
<text text-anchor="middle" x="317" y="-662.6" font-family="Courier,monospace" font-size="18.00">setup_BC_PEP_polygons</text>
<g id="clust1" class="cluster"><title>cluster_workflow_box_outer</title>
<polygon fill="none" stroke="black" stroke-width="2" points="8,-62 8,-591.2 626,-591.2 626,-62 8,-62"/>
</g>
<g id="clust2" class="cluster"><title>cluster_workflow_box_inner</title>
<polygon fill="none" stroke="white" stroke-width="2" points="16,-70 16,-583.2 618,-583.2 618,-70 16,-70"/>
</g>
<g id="clust3" class="cluster"><title>cluster_input_ports_group_outer</title>
<polygon fill="none" stroke="white" points="372,-599.2 372,-645.2 450,-645.2 450,-599.2 372,-599.2"/>
</g>
<g id="clust4" class="cluster"><title>cluster_input_ports_group_inner</title>
<polygon fill="none" stroke="white" points="380,-607.2 380,-637.2 442,-637.2 442,-607.2 380,-607.2"/>
</g>
<g id="clust5" class="cluster"><title>cluster_output_ports_group_outer</title>
<polygon fill="none" stroke="white" points="142,-8 142,-54 188,-54 188,-8 142,-8"/>
</g>
<g id="clust6" class="cluster"><title>cluster_output_ports_group_inner</title>
<polygon fill="none" stroke="white" points="150,-16 150,-46 180,-46 180,-16 150,-16"/>
</g>
<!-- set_up_Configuration_and_start_provenance_tracking -->
<g id="node1" class="node"><title>set_up_Configuration_and_start_provenance_tracking</title>
<polygon fill="#ccffcc" stroke="black" points="459.93,-503.2 24.07,-503.2 24.07,-467.2 459.93,-467.2 459.93,-503.2"/>
<text text-anchor="middle" x="242" y="-481" font-family="Courier,monospace" font-size="14.00">set_up_Configuration_and_start_provenance_tracking</text>
</g>
<!-- dir_anx -->
<g id="node8" class="node"><title>dir_anx</title>
<path fill="#fcfcfc" stroke="black" d="M93.8977,-423.9C93.8977,-423.9 56.1023,-423.9 56.1023,-423.9 50.1023,-423.9 44.1023,-417.9 44.1023,-411.9 44.1023,-411.9 44.1023,-399.9 44.1023,-399.9 44.1023,-393.9 50.1023,-387.9 56.1023,-387.9 56.1023,-387.9 93.8977,-387.9 93.8977,-387.9 99.8977,-387.9 105.898,-393.9 105.898,-399.9 105.898,-399.9 105.898,-411.9 105.898,-411.9 105.898,-417.9 99.8977,-423.9 93.8977,-423.9"/>
<text text-anchor="middle" x="75" y="-401.7" font-family="Helvetica,sans-Serif" font-size="14.00">dir_anx</text>
</g>
<!-- set_up_Configuration_and_start_provenance_tracking&#45;&gt;dir_anx -->
<g id="edge1" class="edge"><title>set_up_Configuration_and_start_provenance_tracking&#45;&gt;dir_anx</title>
<path fill="none" stroke="black" d="M196.585,-467.173C172.026,-457.488 141.405,-444.634 115,-431.2 113.642,-430.509 112.269,-429.789 110.889,-429.048"/>
<polygon fill="black" stroke="black" points="112.229,-425.786 101.797,-423.934 108.797,-431.887 112.229,-425.786"/>
</g>
<!-- dir_goal -->
<g id="node9" class="node"><title>dir_goal</title>
<path fill="#fcfcfc" stroke="black" d="M77.7871,-344.6C77.7871,-344.6 36.2129,-344.6 36.2129,-344.6 30.2129,-344.6 24.2129,-338.6 24.2129,-332.6 24.2129,-332.6 24.2129,-320.6 24.2129,-320.6 24.2129,-314.6 30.2129,-308.6 36.2129,-308.6 36.2129,-308.6 77.7871,-308.6 77.7871,-308.6 83.7871,-308.6 89.7871,-314.6 89.7871,-320.6 89.7871,-320.6 89.7871,-332.6 89.7871,-332.6 89.7871,-338.6 83.7871,-344.6 77.7871,-344.6"/>
<text text-anchor="middle" x="57" y="-322.4" font-family="Helvetica,sans-Serif" font-size="14.00">dir_goal</text>
</g>
<!-- set_up_Configuration_and_start_provenance_tracking&#45;&gt;dir_goal -->
<g id="edge2" class="edge"><title>set_up_Configuration_and_start_provenance_tracking&#45;&gt;dir_goal</title>
<path fill="none" stroke="black" d="M125.625,-467.17C85.3285,-458.709 47.1695,-446.878 35,-431.2 17.7579,-408.987 28.9671,-376.342 40.788,-353.656"/>
<polygon fill="black" stroke="black" points="43.8544,-355.343 45.6361,-344.9 37.7303,-351.953 43.8544,-355.343"/>
</g>
<!-- read_TA_PEP_SVW_polygon -->
<g id="node2" class="node"><title>read_TA_PEP_SVW_polygon</title>
<polygon fill="#ccffcc" stroke="black" points="316.668,-344.6 107.332,-344.6 107.332,-308.6 316.668,-308.6 316.668,-344.6"/>
<text text-anchor="middle" x="212" y="-322.4" font-family="Courier,monospace" font-size="14.00">read_TA_PEP_SVW_polygon</text>
</g>
<!-- hs_pep_poly -->
<g id="node7" class="node"><title>hs_pep_poly</title>
<path fill="#ffffcc" stroke="black" d="M231.868,-272.6C231.868,-272.6 160.132,-272.6 160.132,-272.6 154.132,-272.6 148.132,-266.6 148.132,-260.6 148.132,-260.6 148.132,-248.6 148.132,-248.6 148.132,-242.6 154.132,-236.6 160.132,-236.6 160.132,-236.6 231.868,-236.6 231.868,-236.6 237.868,-236.6 243.868,-242.6 243.868,-248.6 243.868,-248.6 243.868,-260.6 243.868,-260.6 243.868,-266.6 237.868,-272.6 231.868,-272.6"/>
<text text-anchor="middle" x="196" y="-250.4" font-family="Helvetica,sans-Serif" font-size="14.00">hs_pep_poly</text>
</g>
<!-- read_TA_PEP_SVW_polygon&#45;&gt;hs_pep_poly -->
<g id="edge4" class="edge"><title>read_TA_PEP_SVW_polygon&#45;&gt;hs_pep_poly</title>
<path fill="none" stroke="black" d="M208.045,-308.297C206.282,-300.583 204.163,-291.312 202.197,-282.712"/>
<polygon fill="black" stroke="black" points="205.55,-281.673 199.91,-272.704 198.726,-283.233 205.55,-281.673"/>
</g>
<!-- write_hs_pep_poly -->
<g id="node3" class="node"><title>write_hs_pep_poly</title>
<polygon fill="#ccffcc" stroke="black" points="244.276,-200.6 85.7236,-200.6 85.7236,-164.6 244.276,-164.6 244.276,-200.6"/>
<text text-anchor="middle" x="165" y="-178.4" font-family="Courier,monospace" font-size="14.00">write_hs_pep_poly</text>
</g>
<!-- poly_hs_pep -->
<g id="node4" class="node"><title>poly_hs_pep</title>
<path fill="#ffffcc" stroke="black" d="M51.5155,-78.5C51.5155,-78.5 278.484,-78.5 278.484,-78.5 284.484,-78.5 290.484,-84.5 290.484,-90.5 290.484,-90.5 290.484,-116.1 290.484,-116.1 290.484,-122.1 284.484,-128.1 278.484,-128.1 278.484,-128.1 51.5155,-128.1 51.5155,-128.1 45.5155,-128.1 39.5155,-122.1 39.5155,-116.1 39.5155,-116.1 39.5155,-90.5 39.5155,-90.5 39.5155,-84.5 45.5155,-78.5 51.5155,-78.5"/>
<text text-anchor="middle" x="165" y="-111.5" font-family="Helvetica,sans-Serif" font-size="14.00">poly_hs_pep</text>
<polyline fill="none" stroke="black" points="39.5155,-103.3 290.484,-103.3 "/>
<text text-anchor="middle" x="165" y="-86.7" font-family="Helvetica,sans-Serif" font-size="14.00">file:{dir_goal}/spatial/hs_pep_poly.shp</text>
</g>
<!-- write_hs_pep_poly&#45;&gt;poly_hs_pep -->
<g id="edge7" class="edge"><title>write_hs_pep_poly&#45;&gt;poly_hs_pep</title>
<path fill="none" stroke="black" d="M165,-164.445C165,-156.689 165,-147.239 165,-138.15"/>
<polygon fill="black" stroke="black" points="168.5,-138.15 165,-128.15 161.5,-138.15 168.5,-138.15"/>
</g>
<!-- poly_hs_pep_output_port -->
<g id="node12" class="node"><title>poly_hs_pep_output_port</title>
<ellipse fill="#ffffff" stroke="black" cx="165" cy="-31" rx="7" ry="7"/>
</g>
<!-- poly_hs_pep&#45;&gt;poly_hs_pep_output_port -->
<g id="edge12" class="edge"><title>poly_hs_pep&#45;&gt;poly_hs_pep_output_port</title>
<path fill="none" stroke="black" d="M165,-78.4996C165,-68.5289 165,-57.1933 165,-48.2105"/>
<polygon fill="black" stroke="black" points="168.5,-48.0698 165,-38.0698 161.5,-48.0699 168.5,-48.0698"/>
</g>
<!-- setup_R -->
<g id="node5" class="node"><title>setup_R</title>
<path fill="#ffffcc" stroke="black" d="M356.128,-575.2C356.128,-575.2 311.872,-575.2 311.872,-575.2 305.872,-575.2 299.872,-569.2 299.872,-563.2 299.872,-563.2 299.872,-551.2 299.872,-551.2 299.872,-545.2 305.872,-539.2 311.872,-539.2 311.872,-539.2 356.128,-539.2 356.128,-539.2 362.128,-539.2 368.128,-545.2 368.128,-551.2 368.128,-551.2 368.128,-563.2 368.128,-563.2 368.128,-569.2 362.128,-575.2 356.128,-575.2"/>
<text text-anchor="middle" x="334" y="-553" font-family="Helvetica,sans-Serif" font-size="14.00">setup_R</text>
</g>
<!-- setup_R&#45;&gt;set_up_Configuration_and_start_provenance_tracking -->
<g id="edge3" class="edge"><title>setup_R&#45;&gt;set_up_Configuration_and_start_provenance_tracking</title>
<path fill="none" stroke="black" d="M311.258,-538.897C299.56,-529.996 285.139,-519.023 272.49,-509.399"/>
<polygon fill="black" stroke="black" points="274.558,-506.574 264.48,-503.304 270.319,-512.145 274.558,-506.574"/>
</g>
<!-- TA_PEP_SVW_polygon -->
<g id="node6" class="node"><title>TA_PEP_SVW_polygon</title>
<path fill="#ffffcc" stroke="black" d="M136.039,-381.1C136.039,-381.1 597.961,-381.1 597.961,-381.1 603.961,-381.1 609.961,-387.1 609.961,-393.1 609.961,-393.1 609.961,-418.7 609.961,-418.7 609.961,-424.7 603.961,-430.7 597.961,-430.7 597.961,-430.7 136.039,-430.7 136.039,-430.7 130.039,-430.7 124.039,-424.7 124.039,-418.7 124.039,-418.7 124.039,-393.1 124.039,-393.1 124.039,-387.1 130.039,-381.1 136.039,-381.1"/>
<text text-anchor="middle" x="367" y="-414.1" font-family="Helvetica,sans-Serif" font-size="14.00">TA_PEP_SVW_polygon</text>
<polyline fill="none" stroke="black" points="124.039,-405.9 609.961,-405.9 "/>
<text text-anchor="middle" x="367" y="-389.3" font-family="Helvetica,sans-Serif" font-size="14.00">file:{dir_anx}/_raw_data/databc/TA_PEP_SVW/TA_PEP_SVW_polygon.shp</text>
</g>
<!-- TA_PEP_SVW_polygon&#45;&gt;read_TA_PEP_SVW_polygon -->
<g id="edge6" class="edge"><title>TA_PEP_SVW_polygon&#45;&gt;read_TA_PEP_SVW_polygon</title>
<path fill="none" stroke="black" d="M319.23,-381.077C298.804,-370.89 275.131,-359.084 255.231,-349.16"/>
<polygon fill="black" stroke="black" points="256.6,-345.931 246.089,-344.6 253.476,-352.195 256.6,-345.931"/>
</g>
<!-- hs_pep_poly&#45;&gt;write_hs_pep_poly -->
<g id="edge8" class="edge"><title>hs_pep_poly&#45;&gt;write_hs_pep_poly</title>
<path fill="none" stroke="black" d="M188.337,-236.297C184.808,-228.328 180.544,-218.7 176.631,-209.864"/>
<polygon fill="black" stroke="black" points="179.824,-208.431 172.575,-200.704 173.424,-211.265 179.824,-208.431"/>
</g>
<!-- dir_anx&#45;&gt;read_TA_PEP_SVW_polygon -->
<g id="edge5" class="edge"><title>dir_anx&#45;&gt;read_TA_PEP_SVW_polygon</title>
<path fill="none" stroke="black" d="M102.877,-387.741C106.927,-385.314 111.058,-382.873 115,-380.6 133.095,-370.167 153.338,-359.025 170.631,-349.663"/>
<polygon fill="black" stroke="black" points="172.764,-352.489 179.903,-344.66 169.44,-346.329 172.764,-352.489"/>
</g>
<!-- dir_goal&#45;&gt;write_hs_pep_poly -->
<g id="edge9" class="edge"><title>dir_goal&#45;&gt;write_hs_pep_poly</title>
<path fill="none" stroke="black" d="M70.0273,-308.471C88.8393,-283.737 123.745,-237.842 145.596,-209.112"/>
<polygon fill="black" stroke="black" points="148.659,-210.868 151.926,-200.789 143.087,-206.63 148.659,-210.868"/>
</g>
<!-- TA_PEP_SVW_polygon_input_port -->
<g id="node10" class="node"><title>TA_PEP_SVW_polygon_input_port</title>
<ellipse fill="#ffffff" stroke="black" cx="427" cy="-622.2" rx="7" ry="7"/>
</g>
<!-- TA_PEP_SVW_polygon_input_port&#45;&gt;TA_PEP_SVW_polygon -->
<g id="edge10" class="edge"><title>TA_PEP_SVW_polygon_input_port&#45;&gt;TA_PEP_SVW_polygon</title>
<path fill="none" stroke="black" d="M430.842,-616.334C445.998,-596.515 499.349,-520.397 469,-467.2 461.794,-454.57 450.791,-444.317 438.637,-436.091"/>
<polygon fill="black" stroke="black" points="440.402,-433.067 430.071,-430.717 436.681,-438.996 440.402,-433.067"/>
</g>
<!-- setup_R_input_port -->
<g id="node11" class="node"><title>setup_R_input_port</title>
<ellipse fill="#ffffff" stroke="black" cx="395" cy="-622.2" rx="7" ry="7"/>
</g>
<!-- setup_R_input_port&#45;&gt;setup_R -->
<g id="edge11" class="edge"><title>setup_R_input_port&#45;&gt;setup_R</title>
<path fill="none" stroke="black" d="M390.613,-616.669C383.717,-609.547 369.857,-595.233 357.578,-582.551"/>
<polygon fill="black" stroke="black" points="360.066,-580.089 350.595,-575.34 355.037,-584.958 360.066,-580.089"/>
</g>
</g>
</svg>
