<?xml version="1.0" encoding="UTF-8" standalone="no"?>
<!DOCTYPE svg PUBLIC "-//W3C//DTD SVG 1.1//EN"
 "http://www.w3.org/Graphics/SVG/1.1/DTD/svg11.dtd">
<!-- Generated by graphviz version 2.38.0 (20140413.2041)
 -->
<!-- Title: yw_data_view Pages: 1 -->
<svg width="518pt" height="374pt"
 viewBox="0.00 0.00 518.00 373.60" xmlns="http://www.w3.org/2000/svg" xmlns:xlink="http://www.w3.org/1999/xlink">
<g id="graph0" class="graph" transform="scale(1 1) rotate(0) translate(4 369.6)">
<title>yw_data_view</title>
<polygon fill="white" stroke="none" points="-4,4 -4,-369.6 514,-369.6 514,4 -4,4"/>
<text text-anchor="middle" x="255" y="-345.4" font-family="Courier,monospace" font-size="18.00">setup_watershed_raster</text>
<g id="clust1" class="cluster"><title>cluster_workflow</title>
<polygon fill="none" stroke="black" stroke-width="2" points="8,-62 8,-274 502,-274 502,-62 8,-62"/>
</g>
<g id="clust2" class="cluster"><title>cluster_workflow_inner</title>
<polygon fill="none" stroke="white" stroke-width="2" points="16,-70 16,-266 494,-266 494,-70 16,-70"/>
</g>
<g id="clust3" class="cluster"><title>cluster_inflows</title>
<polygon fill="none" stroke="white" stroke-width="2" points="232,-282 232,-328 278,-328 278,-282 232,-282"/>
</g>
<g id="clust4" class="cluster"><title>cluster_inflows_inner</title>
<polygon fill="none" stroke="white" stroke-width="2" points="240,-290 240,-320 270,-320 270,-290 240,-290"/>
</g>
<g id="clust5" class="cluster"><title>cluster_outflows</title>
<polygon fill="none" stroke="white" stroke-width="2" points="232,-8 232,-54 278,-54 278,-8 232,-8"/>
</g>
<g id="clust6" class="cluster"><title>cluster_outflows_inner</title>
<polygon fill="none" stroke="white" stroke-width="2" points="240,-16 240,-46 270,-46 270,-16 240,-16"/>
</g>
<!-- raster_to_same_extents_resolution_as_500m_base_raster -->
<g id="node1" class="node"><title>raster_to_same_extents_resolution_as_500m_base_raster</title>
<polygon fill="#ccffcc" stroke="black" points="485.626,-186 24.3742,-186 24.3742,-150 485.626,-150 485.626,-186"/>
<text text-anchor="middle" x="255" y="-163.8" font-family="Courier,monospace" font-size="14.00">raster_to_same_extents_resolution_as_500m_base_raster</text>
</g>
<!-- rast_watershed -->
<g id="node3" class="node"><title>rast_watershed</title>
<path fill="#ffffcc" stroke="black" d="M298.688,-114C298.688,-114 211.312,-114 211.312,-114 205.312,-114 199.312,-108 199.312,-102 199.312,-102 199.312,-90 199.312,-90 199.312,-84 205.312,-78 211.312,-78 211.312,-78 298.688,-78 298.688,-78 304.688,-78 310.688,-84 310.688,-90 310.688,-90 310.688,-102 310.688,-102 310.688,-108 304.688,-114 298.688,-114"/>
<text text-anchor="middle" x="255" y="-91.8" font-family="Helvetica,sans-Serif" font-size="14.00">rast_watershed</text>
</g>
<!-- raster_to_same_extents_resolution_as_500m_base_raster&#45;&gt;rast_watershed -->
<g id="edge1" class="edge"><title>raster_to_same_extents_resolution_as_500m_base_raster&#45;&gt;rast_watershed</title>
<path fill="none" stroke="black" d="M255,-149.697C255,-141.983 255,-132.712 255,-124.112"/>
<polygon fill="black" stroke="black" points="258.5,-124.104 255,-114.104 251.5,-124.104 258.5,-124.104"/>
</g>
<!-- howe_sound_watersheds -->
<g id="node2" class="node"><title>howe_sound_watersheds</title>
<path fill="#ffffcc" stroke="black" d="M330.221,-258C330.221,-258 179.779,-258 179.779,-258 173.779,-258 167.779,-252 167.779,-246 167.779,-246 167.779,-234 167.779,-234 167.779,-228 173.779,-222 179.779,-222 179.779,-222 330.221,-222 330.221,-222 336.221,-222 342.221,-228 342.221,-234 342.221,-234 342.221,-246 342.221,-246 342.221,-252 336.221,-258 330.221,-258"/>
<text text-anchor="middle" x="255" y="-235.8" font-family="Helvetica,sans-Serif" font-size="14.00">howe_sound_watersheds</text>
</g>
<!-- howe_sound_watersheds&#45;&gt;raster_to_same_extents_resolution_as_500m_base_raster -->
<g id="edge2" class="edge"><title>howe_sound_watersheds&#45;&gt;raster_to_same_extents_resolution_as_500m_base_raster</title>
<path fill="none" stroke="black" d="M255,-221.697C255,-213.983 255,-204.712 255,-196.112"/>
<polygon fill="black" stroke="black" points="258.5,-196.104 255,-186.104 251.5,-196.104 258.5,-196.104"/>
</g>
<!-- rast_watershed_outflow -->
<g id="node5" class="node"><title>rast_watershed_outflow</title>
<ellipse fill="none" stroke="black" cx="255" cy="-31" rx="7" ry="7"/>
</g>
<!-- rast_watershed&#45;&gt;rast_watershed_outflow -->
<g id="edge4" class="edge"><title>rast_watershed&#45;&gt;rast_watershed_outflow</title>
<path fill="none" stroke="black" d="M255,-77.785C255,-68.6656 255,-57.5197 255,-48.5085"/>
<polygon fill="black" stroke="black" points="258.5,-48.242 255,-38.242 251.5,-48.2421 258.5,-48.242"/>
</g>
<!-- howe_sound_watersheds_inflow -->
<g id="node4" class="node"><title>howe_sound_watersheds_inflow</title>
<ellipse fill="none" stroke="black" cx="255" cy="-305" rx="7" ry="7"/>
</g>
<!-- howe_sound_watersheds_inflow&#45;&gt;howe_sound_watersheds -->
<g id="edge3" class="edge"><title>howe_sound_watersheds_inflow&#45;&gt;howe_sound_watersheds</title>
<path fill="none" stroke="black" d="M255,-297.729C255,-290.795 255,-279.154 255,-268.215"/>
<polygon fill="black" stroke="black" points="258.5,-268.119 255,-258.119 251.5,-268.119 258.5,-268.119"/>
</g>
</g>
</svg>
