<?xml version="1.0" encoding="UTF-8" standalone="no"?>
<!DOCTYPE svg PUBLIC "-//W3C//DTD SVG 1.1//EN"
 "http://www.w3.org/Graphics/SVG/1.1/DTD/svg11.dtd">
<!-- Generated by graphviz version 2.38.0 (20140413.2041)
 -->
<!-- Title: yw_data_view Pages: 1 -->
<svg width="610pt" height="525pt"
 viewBox="0.00 0.00 610.00 525.40" xmlns="http://www.w3.org/2000/svg" xmlns:xlink="http://www.w3.org/1999/xlink">
<g id="graph0" class="graph" transform="scale(1 1) rotate(0) translate(4 521.4)">
<title>yw_data_view</title>
<polygon fill="white" stroke="none" points="-4,4 -4,-521.4 606,-521.4 606,4 -4,4"/>
<text text-anchor="middle" x="301" y="-497.2" font-family="Courier,monospace" font-size="18.00">setup_watershed_raster</text>
<g id="clust1" class="cluster"><title>cluster_workflow</title>
<polygon fill="none" stroke="black" stroke-width="2" points="8,-62 8,-425.8 594,-425.8 594,-62 8,-62"/>
</g>
<g id="clust2" class="cluster"><title>cluster_workflow_inner</title>
<polygon fill="none" stroke="white" stroke-width="2" points="16,-70 16,-417.8 586,-417.8 586,-70 16,-70"/>
</g>
<g id="clust3" class="cluster"><title>cluster_inflows</title>
<polygon fill="none" stroke="white" stroke-width="2" points="433,-433.8 433,-479.8 543,-479.8 543,-433.8 433,-433.8"/>
</g>
<g id="clust4" class="cluster"><title>cluster_inflows_inner</title>
<polygon fill="none" stroke="white" stroke-width="2" points="441,-441.8 441,-471.8 535,-471.8 535,-441.8 441,-441.8"/>
</g>
<g id="clust5" class="cluster"><title>cluster_outflows</title>
<polygon fill="none" stroke="white" stroke-width="2" points="255,-8 255,-54 301,-54 301,-8 255,-8"/>
</g>
<g id="clust6" class="cluster"><title>cluster_outflows_inner</title>
<polygon fill="none" stroke="white" stroke-width="2" points="263,-16 263,-46 293,-46 293,-16 263,-16"/>
</g>
<!-- set_up_configuration_and_start_provenance_tracking -->
<g id="node1" class="node"><title>set_up_configuration_and_start_provenance_tracking</title>
<polygon fill="#ccffcc" stroke="black" points="459.93,-335.2 24.07,-335.2 24.07,-299.2 459.93,-299.2 459.93,-335.2"/>
<text text-anchor="middle" x="242" y="-313" font-family="Courier,monospace" font-size="14.00">set_up_configuration_and_start_provenance_tracking</text>
</g>
<!-- dir_spatial -->
<g id="node6" class="node"><title>dir_spatial</title>
<path fill="#ffffcc" stroke="black" d="M69.504,-261.9C69.504,-261.9 36.496,-261.9 36.496,-261.9 30.496,-261.9 24.496,-255.9 24.496,-249.9 24.496,-249.9 24.496,-237.9 24.496,-237.9 24.496,-231.9 30.496,-225.9 36.496,-225.9 36.496,-225.9 69.504,-225.9 69.504,-225.9 75.504,-225.9 81.504,-231.9 81.504,-237.9 81.504,-237.9 81.504,-249.9 81.504,-249.9 81.504,-255.9 75.504,-261.9 69.504,-261.9"/>
<text text-anchor="middle" x="53" y="-241.2" font-family="Helvetica,sans-Serif" font-size="9.00">dir_spatial</text>
</g>
<!-- set_up_configuration_and_start_provenance_tracking&#45;&gt;dir_spatial -->
<g id="edge6" class="edge"><title>set_up_configuration_and_start_provenance_tracking&#45;&gt;dir_spatial</title>
<path fill="none" stroke="black" d="M188.696,-299.104C161.816,-290.112 128.622,-278.449 91.4346,-263.184"/>
<polygon fill="black" stroke="black" points="92.4733,-259.825 81.8955,-259.224 89.7899,-266.29 92.4733,-259.825"/>
</g>
<!-- dir_goal -->
<g id="node7" class="node"><title>dir_goal</title>
<path fill="#ffffcc" stroke="black" d="M142,-261.9C142,-261.9 112,-261.9 112,-261.9 106,-261.9 100,-255.9 100,-249.9 100,-249.9 100,-237.9 100,-237.9 100,-231.9 106,-225.9 112,-225.9 112,-225.9 142,-225.9 142,-225.9 148,-225.9 154,-231.9 154,-237.9 154,-237.9 154,-249.9 154,-249.9 154,-255.9 148,-261.9 142,-261.9"/>
<text text-anchor="middle" x="127" y="-241.2" font-family="Helvetica,sans-Serif" font-size="9.00">dir_goal</text>
</g>
<!-- set_up_configuration_and_start_provenance_tracking&#45;&gt;dir_goal -->
<g id="edge7" class="edge"><title>set_up_configuration_and_start_provenance_tracking&#45;&gt;dir_goal</title>
<path fill="none" stroke="black" d="M214.455,-299.122C199.093,-289.597 179.773,-277.619 163.201,-267.345"/>
<polygon fill="black" stroke="black" points="164.664,-264.134 154.321,-261.839 160.975,-270.083 164.664,-264.134"/>
</g>
<!-- raster_to_same_extents_resolution_as_500m_base_raster -->
<g id="node2" class="node"><title>raster_to_same_extents_resolution_as_500m_base_raster</title>
<polygon fill="#ccffcc" stroke="black" points="508.626,-188.6 47.3742,-188.6 47.3742,-152.6 508.626,-152.6 508.626,-188.6"/>
<text text-anchor="middle" x="278" y="-166.4" font-family="Courier,monospace" font-size="14.00">raster_to_same_extents_resolution_as_500m_base_raster</text>
</g>
<!-- rast_watershed -->
<g id="node8" class="node"><title>rast_watershed</title>
<path fill="#ffe4b5" stroke="black" d="M147.022,-78.5C147.022,-78.5 408.978,-78.5 408.978,-78.5 414.978,-78.5 420.978,-84.5 420.978,-90.5 420.978,-90.5 420.978,-104.1 420.978,-104.1 420.978,-110.1 414.978,-116.1 408.978,-116.1 408.978,-116.1 147.022,-116.1 147.022,-116.1 141.022,-116.1 135.022,-110.1 135.022,-104.1 135.022,-104.1 135.022,-90.5 135.022,-90.5 135.022,-84.5 141.022,-78.5 147.022,-78.5"/>
<text text-anchor="middle" x="278" y="-104" font-family="Courier,monospace" font-weight="bold" font-size="9.00">rast_watershed</text>
<polyline fill="none" stroke="black" points="135.022,-97.3 420.978,-97.3 "/>
<text text-anchor="start" x="143.022" y="-85.2" font-family="Courier,monospace" font-weight="bold" font-size="9.00">prep/lsp/vHS/spatial/howe_sound_watershed_500m.tif</text>
</g>
<!-- raster_to_same_extents_resolution_as_500m_base_raster&#45;&gt;rast_watershed -->
<g id="edge8" class="edge"><title>raster_to_same_extents_resolution_as_500m_base_raster&#45;&gt;rast_watershed</title>
<path fill="none" stroke="black" d="M278,-152.34C278,-144.605 278,-135.279 278,-126.568"/>
<polygon fill="black" stroke="black" points="281.5,-126.396 278,-116.396 274.5,-126.396 281.5,-126.396"/>
</g>
<!-- setup_R -->
<g id="node3" class="node"><title>setup_R</title>
<path fill="#ffe4b5" stroke="black" d="M323,-371.7C323,-371.7 353,-371.7 353,-371.7 359,-371.7 365,-377.7 365,-383.7 365,-383.7 365,-397.3 365,-397.3 365,-403.3 359,-409.3 353,-409.3 353,-409.3 323,-409.3 323,-409.3 317,-409.3 311,-403.3 311,-397.3 311,-397.3 311,-383.7 311,-383.7 311,-377.7 317,-371.7 323,-371.7"/>
<text text-anchor="middle" x="337.897" y="-397.2" font-family="Courier,monospace" font-weight="bold" font-size="9.00">setup_R</text>
<polyline fill="none" stroke="black" points="311,-390.5 364.794,-390.5 "/>
<text text-anchor="middle" x="337.897" y="-378.4" font-family="Courier,monospace" font-weight="bold" font-size="9.00"> </text>
</g>
<!-- setup_R&#45;&gt;set_up_configuration_and_start_provenance_tracking -->
<g id="edge1" class="edge"><title>setup_R&#45;&gt;set_up_configuration_and_start_provenance_tracking</title>
<path fill="none" stroke="black" d="M313.775,-371.508C301.473,-362.371 286.383,-351.163 273.219,-341.387"/>
<polygon fill="black" stroke="black" points="275.01,-338.357 264.895,-335.205 270.836,-343.977 275.01,-338.357"/>
</g>
<!-- rast_base -->
<g id="node4" class="node"><title>rast_base</title>
<path fill="#ffe4b5" stroke="black" d="M183.52,-225.1C183.52,-225.1 418.48,-225.1 418.48,-225.1 424.48,-225.1 430.48,-231.1 430.48,-237.1 430.48,-237.1 430.48,-250.7 430.48,-250.7 430.48,-256.7 424.48,-262.7 418.48,-262.7 418.48,-262.7 183.52,-262.7 183.52,-262.7 177.52,-262.7 171.52,-256.7 171.52,-250.7 171.52,-250.7 171.52,-237.1 171.52,-237.1 171.52,-231.1 177.52,-225.1 183.52,-225.1"/>
<text text-anchor="middle" x="301" y="-250.6" font-family="Courier,monospace" font-weight="bold" font-size="9.00">rast_base</text>
<polyline fill="none" stroke="black" points="171.52,-243.9 430.48,-243.9 "/>
<text text-anchor="start" x="179.52" y="-231.8" font-family="Courier,monospace" font-weight="bold" font-size="9.00">prep/spatial/raster/ohibc_rgn_raster_500m.tif</text>
</g>
<!-- rast_base&#45;&gt;raster_to_same_extents_resolution_as_500m_base_raster -->
<g id="edge4" class="edge"><title>rast_base&#45;&gt;raster_to_same_extents_resolution_as_500m_base_raster</title>
<path fill="none" stroke="black" d="M295.196,-224.908C292.605,-216.875 289.497,-207.242 286.641,-198.388"/>
<polygon fill="black" stroke="black" points="289.965,-197.291 283.564,-188.848 283.303,-199.44 289.965,-197.291"/>
</g>
<!-- howe_sound_watersheds -->
<g id="node5" class="node"><title>howe_sound_watersheds</title>
<path fill="#ffe4b5" stroke="black" d="M460.309,-225.1C460.309,-225.1 565.691,-225.1 565.691,-225.1 571.691,-225.1 577.691,-231.1 577.691,-237.1 577.691,-237.1 577.691,-250.7 577.691,-250.7 577.691,-256.7 571.691,-262.7 565.691,-262.7 565.691,-262.7 460.309,-262.7 460.309,-262.7 454.309,-262.7 448.309,-256.7 448.309,-250.7 448.309,-250.7 448.309,-237.1 448.309,-237.1 448.309,-231.1 454.309,-225.1 460.309,-225.1"/>
<text text-anchor="middle" x="513" y="-250.6" font-family="Courier,monospace" font-weight="bold" font-size="9.00">howe_sound_watersheds</text>
<polyline fill="none" stroke="black" points="448.309,-243.9 577.691,-243.9 "/>
<text text-anchor="middle" x="513" y="-231.8" font-family="Courier,monospace" font-weight="bold" font-size="9.00"> </text>
</g>
<!-- howe_sound_watersheds&#45;&gt;raster_to_same_extents_resolution_as_500m_base_raster -->
<g id="edge5" class="edge"><title>howe_sound_watersheds&#45;&gt;raster_to_same_extents_resolution_as_500m_base_raster</title>
<path fill="none" stroke="black" d="M454.306,-225.092C420.754,-214.912 378.584,-202.118 343.899,-191.594"/>
<polygon fill="black" stroke="black" points="344.913,-188.244 334.328,-188.69 342.881,-194.943 344.913,-188.244"/>
</g>
<!-- dir_spatial&#45;&gt;raster_to_same_extents_resolution_as_500m_base_raster -->
<g id="edge2" class="edge"><title>dir_spatial&#45;&gt;raster_to_same_extents_resolution_as_500m_base_raster</title>
<path fill="none" stroke="black" d="M81.8204,-228.386C84.888,-227.033 87.9875,-225.742 91,-224.6 125.173,-211.64 163.902,-200.159 197.216,-191.226"/>
<polygon fill="black" stroke="black" points="198.144,-194.601 206.914,-188.656 196.351,-187.835 198.144,-194.601"/>
</g>
<!-- dir_goal&#45;&gt;raster_to_same_extents_resolution_as_500m_base_raster -->
<g id="edge3" class="edge"><title>dir_goal&#45;&gt;raster_to_same_extents_resolution_as_500m_base_raster</title>
<path fill="none" stroke="black" d="M154.071,-228.998C157.076,-227.497 160.097,-226.006 163,-224.6 185.133,-213.879 209.882,-202.408 230.734,-192.888"/>
<polygon fill="black" stroke="black" points="232.367,-195.991 240.018,-188.662 229.466,-189.62 232.367,-195.991"/>
</g>
<!-- rast_watershed_outflow -->
<g id="node12" class="node"><title>rast_watershed_outflow</title>
<ellipse fill="none" stroke="black" cx="278" cy="-31" rx="7" ry="7"/>
</g>
<!-- rast_watershed&#45;&gt;rast_watershed_outflow -->
<g id="edge12" class="edge"><title>rast_watershed&#45;&gt;rast_watershed_outflow</title>
<path fill="none" stroke="black" d="M278,-78.3889C278,-68.9828 278,-57.5389 278,-48.3712"/>
<polygon fill="black" stroke="black" points="281.5,-48.3008 278,-38.3008 274.5,-48.3008 281.5,-48.3008"/>
</g>
<!-- setup_R_inflow -->
<g id="node9" class="node"><title>setup_R_inflow</title>
<ellipse fill="none" stroke="black" cx="456" cy="-456.8" rx="7" ry="7"/>
</g>
<!-- setup_R_inflow&#45;&gt;setup_R -->
<g id="edge9" class="edge"><title>setup_R_inflow&#45;&gt;setup_R</title>
<path fill="none" stroke="black" d="M450.309,-452.699C436.742,-445.306 401.588,-426.15 374.19,-411.22"/>
<polygon fill="black" stroke="black" points="375.694,-408.054 365.238,-406.343 372.345,-414.201 375.694,-408.054"/>
</g>
<!-- rast_base_inflow -->
<g id="node10" class="node"><title>rast_base_inflow</title>
<ellipse fill="none" stroke="black" cx="488" cy="-456.8" rx="7" ry="7"/>
</g>
<!-- rast_base_inflow&#45;&gt;rast_base -->
<g id="edge10" class="edge"><title>rast_base_inflow&#45;&gt;rast_base</title>
<path fill="none" stroke="black" d="M489.315,-449.832C493.933,-427.181 507.153,-345.478 469,-299.2 457.401,-285.131 442.122,-274.669 425.499,-266.897"/>
<polygon fill="black" stroke="black" points="426.709,-263.606 416.141,-262.849 423.93,-270.031 426.709,-263.606"/>
</g>
<!-- howe_sound_watersheds_inflow -->
<g id="node11" class="node"><title>howe_sound_watersheds_inflow</title>
<ellipse fill="none" stroke="black" cx="520" cy="-456.8" rx="7" ry="7"/>
</g>
<!-- howe_sound_watersheds_inflow&#45;&gt;howe_sound_watersheds -->
<g id="edge11" class="edge"><title>howe_sound_watersheds_inflow&#45;&gt;howe_sound_watersheds</title>
<path fill="none" stroke="black" d="M519.798,-449.716C518.942,-423.918 515.58,-322.617 513.927,-272.828"/>
<polygon fill="black" stroke="black" points="517.422,-272.629 513.592,-262.75 510.426,-272.861 517.422,-272.629"/>
</g>
</g>
</svg>
