<?xml version="1.0" encoding="UTF-8" standalone="no"?>
<!DOCTYPE svg PUBLIC "-//W3C//DTD SVG 1.1//EN"
 "http://www.w3.org/Graphics/SVG/1.1/DTD/svg11.dtd">
<!-- Generated by graphviz version 2.38.0 (20140413.2041)
 -->
<!-- Title: yw_data_view Pages: 1 -->
<svg width="644pt" height="525pt"
 viewBox="0.00 0.00 644.00 525.40" xmlns="http://www.w3.org/2000/svg" xmlns:xlink="http://www.w3.org/1999/xlink">
<g id="graph0" class="graph" transform="scale(1 1) rotate(0) translate(4 521.4)">
<title>yw_data_view</title>
<polygon fill="white" stroke="none" points="-4,4 -4,-521.4 640,-521.4 640,4 -4,4"/>
<text text-anchor="middle" x="318" y="-497.2" font-family="Courier,monospace" font-size="18.00">setup_watershed_raster</text>
<g id="clust1" class="cluster"><title>cluster_workflow</title>
<polygon fill="none" stroke="black" stroke-width="2" points="8,-62 8,-425.8 628,-425.8 628,-62 8,-62"/>
</g>
<g id="clust2" class="cluster"><title>cluster_workflow_inner</title>
<polygon fill="none" stroke="white" stroke-width="2" points="16,-70 16,-417.8 620,-417.8 620,-70 16,-70"/>
</g>
<g id="clust3" class="cluster"><title>cluster_inflows</title>
<polygon fill="none" stroke="white" stroke-width="2" points="433,-433.8 433,-479.8 543,-479.8 543,-433.8 433,-433.8"/>
</g>
<g id="clust4" class="cluster"><title>cluster_inflows_inner</title>
<polygon fill="none" stroke="white" stroke-width="2" points="441,-441.8 441,-471.8 535,-471.8 535,-441.8 441,-441.8"/>
</g>
<g id="clust5" class="cluster"><title>cluster_outflows</title>
<polygon fill="none" stroke="white" stroke-width="2" points="272,-8 272,-54 318,-54 318,-8 272,-8"/>
</g>
<g id="clust6" class="cluster"><title>cluster_outflows_inner</title>
<polygon fill="none" stroke="white" stroke-width="2" points="280,-16 280,-46 310,-46 310,-16 280,-16"/>
</g>
<!-- set_up_configuration_and_start_provenance_tracking -->
<g id="node1" class="node"><title>set_up_configuration_and_start_provenance_tracking</title>
<polygon fill="#ccffcc" stroke="black" points="459.93,-335.2 24.07,-335.2 24.07,-299.2 459.93,-299.2 459.93,-335.2"/>
<text text-anchor="middle" x="242" y="-313" font-family="Courier,monospace" font-size="14.00">set_up_configuration_and_start_provenance_tracking</text>
</g>
<!-- dir_spatial -->
<g id="node3" class="node"><title>dir_spatial</title>
<path fill="#ffffcc" stroke="black" d="M91.7843,-261.9C91.7843,-261.9 36.2157,-261.9 36.2157,-261.9 30.2157,-261.9 24.2157,-255.9 24.2157,-249.9 24.2157,-249.9 24.2157,-237.9 24.2157,-237.9 24.2157,-231.9 30.2157,-225.9 36.2157,-225.9 36.2157,-225.9 91.7843,-225.9 91.7843,-225.9 97.7843,-225.9 103.784,-231.9 103.784,-237.9 103.784,-237.9 103.784,-249.9 103.784,-249.9 103.784,-255.9 97.7843,-261.9 91.7843,-261.9"/>
<text text-anchor="middle" x="64" y="-239.7" font-family="Helvetica,sans-Serif" font-size="14.00">dir_spatial</text>
</g>
<!-- set_up_configuration_and_start_provenance_tracking&#45;&gt;dir_spatial -->
<g id="edge6" class="edge"><title>set_up_configuration_and_start_provenance_tracking&#45;&gt;dir_spatial</title>
<path fill="none" stroke="black" d="M199.365,-299.122C173.42,-288.729 140.181,-275.415 113.134,-264.581"/>
<polygon fill="black" stroke="black" points="114.432,-261.331 103.848,-260.862 111.829,-267.829 114.432,-261.331"/>
</g>
<!-- dir_goal -->
<g id="node4" class="node"><title>dir_goal</title>
<path fill="#ffffcc" stroke="black" d="M175.787,-261.9C175.787,-261.9 134.213,-261.9 134.213,-261.9 128.213,-261.9 122.213,-255.9 122.213,-249.9 122.213,-249.9 122.213,-237.9 122.213,-237.9 122.213,-231.9 128.213,-225.9 134.213,-225.9 134.213,-225.9 175.787,-225.9 175.787,-225.9 181.787,-225.9 187.787,-231.9 187.787,-237.9 187.787,-237.9 187.787,-249.9 187.787,-249.9 187.787,-255.9 181.787,-261.9 175.787,-261.9"/>
<text text-anchor="middle" x="155" y="-239.7" font-family="Helvetica,sans-Serif" font-size="14.00">dir_goal</text>
</g>
<!-- set_up_configuration_and_start_provenance_tracking&#45;&gt;dir_goal -->
<g id="edge7" class="edge"><title>set_up_configuration_and_start_provenance_tracking&#45;&gt;dir_goal</title>
<path fill="none" stroke="black" d="M220.94,-298.94C209.826,-289.832 196.021,-278.518 183.919,-268.6"/>
<polygon fill="black" stroke="black" points="185.819,-265.632 175.866,-262.001 181.382,-271.047 185.819,-265.632"/>
</g>
<!-- raster_to_same_extents_resolution_as_500m_base_raster -->
<g id="node2" class="node"><title>raster_to_same_extents_resolution_as_500m_base_raster</title>
<polygon fill="#ccffcc" stroke="black" points="525.626,-188.6 64.3742,-188.6 64.3742,-152.6 525.626,-152.6 525.626,-188.6"/>
<text text-anchor="middle" x="295" y="-166.4" font-family="Courier,monospace" font-size="14.00">raster_to_same_extents_resolution_as_500m_base_raster</text>
</g>
<!-- rast_watershed -->
<g id="node8" class="node"><title>rast_watershed</title>
<path fill="#ffe4b5" stroke="black" d="M164.022,-78.5C164.022,-78.5 425.978,-78.5 425.978,-78.5 431.978,-78.5 437.978,-84.5 437.978,-90.5 437.978,-90.5 437.978,-104.1 437.978,-104.1 437.978,-110.1 431.978,-116.1 425.978,-116.1 425.978,-116.1 164.022,-116.1 164.022,-116.1 158.022,-116.1 152.022,-110.1 152.022,-104.1 152.022,-104.1 152.022,-90.5 152.022,-90.5 152.022,-84.5 158.022,-78.5 164.022,-78.5"/>
<text text-anchor="middle" x="295" y="-104" font-family="Courier,monospace" font-weight="bold" font-size="9.00">rast_watershed</text>
<polyline fill="none" stroke="black" points="152.022,-97.3 437.978,-97.3 "/>
<text text-anchor="start" x="160.022" y="-85.2" font-family="Courier,monospace" font-weight="bold" font-size="9.00">prep/lsp/vHS/spatial/howe_sound_watershed_500m.tif</text>
</g>
<!-- raster_to_same_extents_resolution_as_500m_base_raster&#45;&gt;rast_watershed -->
<g id="edge8" class="edge"><title>raster_to_same_extents_resolution_as_500m_base_raster&#45;&gt;rast_watershed</title>
<path fill="none" stroke="black" d="M295,-152.34C295,-144.605 295,-135.279 295,-126.568"/>
<polygon fill="black" stroke="black" points="298.5,-126.396 295,-116.396 291.5,-126.396 298.5,-126.396"/>
</g>
<!-- dir_spatial&#45;&gt;raster_to_same_extents_resolution_as_500m_base_raster -->
<g id="edge4" class="edge"><title>dir_spatial&#45;&gt;raster_to_same_extents_resolution_as_500m_base_raster</title>
<path fill="none" stroke="black" d="M104.026,-227.676C107.053,-226.609 110.07,-225.572 113,-224.6 148.82,-212.714 189.071,-200.841 222.594,-191.355"/>
<polygon fill="black" stroke="black" points="223.637,-194.697 232.314,-188.618 221.74,-187.959 223.637,-194.697"/>
</g>
<!-- dir_goal&#45;&gt;raster_to_same_extents_resolution_as_500m_base_raster -->
<g id="edge3" class="edge"><title>dir_goal&#45;&gt;raster_to_same_extents_resolution_as_500m_base_raster</title>
<path fill="none" stroke="black" d="M187.824,-226.183C207.114,-216.359 231.71,-203.833 252.473,-193.258"/>
<polygon fill="black" stroke="black" points="254.087,-196.364 261.409,-188.707 250.91,-190.127 254.087,-196.364"/>
</g>
<!-- setup_R -->
<g id="node5" class="node"><title>setup_R</title>
<path fill="#ffe4b5" stroke="black" d="M323,-371.7C323,-371.7 353,-371.7 353,-371.7 359,-371.7 365,-377.7 365,-383.7 365,-383.7 365,-397.3 365,-397.3 365,-403.3 359,-409.3 353,-409.3 353,-409.3 323,-409.3 323,-409.3 317,-409.3 311,-403.3 311,-397.3 311,-397.3 311,-383.7 311,-383.7 311,-377.7 317,-371.7 323,-371.7"/>
<text text-anchor="middle" x="337.897" y="-397.2" font-family="Courier,monospace" font-weight="bold" font-size="9.00">setup_R</text>
<polyline fill="none" stroke="black" points="311,-390.5 364.794,-390.5 "/>
<text text-anchor="middle" x="337.897" y="-378.4" font-family="Courier,monospace" font-weight="bold" font-size="9.00"> </text>
</g>
<!-- setup_R&#45;&gt;set_up_configuration_and_start_provenance_tracking -->
<g id="edge5" class="edge"><title>setup_R&#45;&gt;set_up_configuration_and_start_provenance_tracking</title>
<path fill="none" stroke="black" d="M313.775,-371.508C301.473,-362.371 286.383,-351.163 273.219,-341.387"/>
<polygon fill="black" stroke="black" points="275.01,-338.357 264.895,-335.205 270.836,-343.977 275.01,-338.357"/>
</g>
<!-- rast_base -->
<g id="node6" class="node"><title>rast_base</title>
<path fill="#ffe4b5" stroke="black" d="M217.52,-225.1C217.52,-225.1 452.48,-225.1 452.48,-225.1 458.48,-225.1 464.48,-231.1 464.48,-237.1 464.48,-237.1 464.48,-250.7 464.48,-250.7 464.48,-256.7 458.48,-262.7 452.48,-262.7 452.48,-262.7 217.52,-262.7 217.52,-262.7 211.52,-262.7 205.52,-256.7 205.52,-250.7 205.52,-250.7 205.52,-237.1 205.52,-237.1 205.52,-231.1 211.52,-225.1 217.52,-225.1"/>
<text text-anchor="middle" x="335" y="-250.6" font-family="Courier,monospace" font-weight="bold" font-size="9.00">rast_base</text>
<polyline fill="none" stroke="black" points="205.52,-243.9 464.48,-243.9 "/>
<text text-anchor="start" x="213.52" y="-231.8" font-family="Courier,monospace" font-weight="bold" font-size="9.00">prep/spatial/raster/ohibc_rgn_raster_500m.tif</text>
</g>
<!-- rast_base&#45;&gt;raster_to_same_extents_resolution_as_500m_base_raster -->
<g id="edge2" class="edge"><title>rast_base&#45;&gt;raster_to_same_extents_resolution_as_500m_base_raster</title>
<path fill="none" stroke="black" d="M324.906,-224.908C320.303,-216.702 314.763,-206.827 309.708,-197.817"/>
<polygon fill="black" stroke="black" points="312.622,-195.857 304.677,-188.848 306.517,-199.282 312.622,-195.857"/>
</g>
<!-- howe_sound_watersheds -->
<g id="node7" class="node"><title>howe_sound_watersheds</title>
<path fill="#ffe4b5" stroke="black" d="M494.309,-225.1C494.309,-225.1 599.691,-225.1 599.691,-225.1 605.691,-225.1 611.691,-231.1 611.691,-237.1 611.691,-237.1 611.691,-250.7 611.691,-250.7 611.691,-256.7 605.691,-262.7 599.691,-262.7 599.691,-262.7 494.309,-262.7 494.309,-262.7 488.309,-262.7 482.309,-256.7 482.309,-250.7 482.309,-250.7 482.309,-237.1 482.309,-237.1 482.309,-231.1 488.309,-225.1 494.309,-225.1"/>
<text text-anchor="middle" x="547" y="-250.6" font-family="Courier,monospace" font-weight="bold" font-size="9.00">howe_sound_watersheds</text>
<polyline fill="none" stroke="black" points="482.309,-243.9 611.691,-243.9 "/>
<text text-anchor="middle" x="547" y="-231.8" font-family="Courier,monospace" font-weight="bold" font-size="9.00"> </text>
</g>
<!-- howe_sound_watersheds&#45;&gt;raster_to_same_extents_resolution_as_500m_base_raster -->
<g id="edge1" class="edge"><title>howe_sound_watersheds&#45;&gt;raster_to_same_extents_resolution_as_500m_base_raster</title>
<path fill="none" stroke="black" d="M484.06,-225.092C447.927,-214.869 402.473,-202.008 365.19,-191.459"/>
<polygon fill="black" stroke="black" points="365.978,-188.045 355.403,-188.69 364.072,-194.781 365.978,-188.045"/>
</g>
<!-- rast_watershed_outflow -->
<g id="node12" class="node"><title>rast_watershed_outflow</title>
<ellipse fill="none" stroke="black" cx="295" cy="-31" rx="7" ry="7"/>
</g>
<!-- rast_watershed&#45;&gt;rast_watershed_outflow -->
<g id="edge12" class="edge"><title>rast_watershed&#45;&gt;rast_watershed_outflow</title>
<path fill="none" stroke="black" d="M295,-78.3889C295,-68.9828 295,-57.5389 295,-48.3712"/>
<polygon fill="black" stroke="black" points="298.5,-48.3008 295,-38.3008 291.5,-48.3008 298.5,-48.3008"/>
</g>
<!-- setup_R_inflow -->
<g id="node9" class="node"><title>setup_R_inflow</title>
<ellipse fill="none" stroke="black" cx="456" cy="-456.8" rx="7" ry="7"/>
</g>
<!-- setup_R_inflow&#45;&gt;setup_R -->
<g id="edge9" class="edge"><title>setup_R_inflow&#45;&gt;setup_R</title>
<path fill="none" stroke="black" d="M450.309,-452.699C436.742,-445.306 401.588,-426.15 374.19,-411.22"/>
<polygon fill="black" stroke="black" points="375.694,-408.054 365.238,-406.343 372.345,-414.201 375.694,-408.054"/>
</g>
<!-- rast_base_inflow -->
<g id="node10" class="node"><title>rast_base_inflow</title>
<ellipse fill="none" stroke="black" cx="488" cy="-456.8" rx="7" ry="7"/>
</g>
<!-- rast_base_inflow&#45;&gt;rast_base -->
<g id="edge10" class="edge"><title>rast_base_inflow&#45;&gt;rast_base</title>
<path fill="none" stroke="black" d="M489.267,-449.607C493.551,-426.835 505.287,-346.611 469,-299.2 458.287,-285.203 443.37,-274.8 427.36,-267.071"/>
<polygon fill="black" stroke="black" points="428.39,-263.698 417.831,-262.823 425.539,-270.091 428.39,-263.698"/>
</g>
<!-- howe_sound_watersheds_inflow -->
<g id="node11" class="node"><title>howe_sound_watersheds_inflow</title>
<ellipse fill="none" stroke="black" cx="520" cy="-456.8" rx="7" ry="7"/>
</g>
<!-- howe_sound_watersheds_inflow&#45;&gt;howe_sound_watersheds -->
<g id="edge11" class="edge"><title>howe_sound_watersheds_inflow&#45;&gt;howe_sound_watersheds</title>
<path fill="none" stroke="black" d="M520.779,-449.716C524.082,-423.918 537.05,-322.617 543.425,-272.828"/>
<polygon fill="black" stroke="black" points="546.916,-273.114 544.715,-262.75 539.973,-272.225 546.916,-273.114"/>
</g>
</g>
</svg>
