<?xml version="1.0" encoding="UTF-8" standalone="no"?>
<!DOCTYPE svg PUBLIC "-//W3C//DTD SVG 1.1//EN"
 "http://www.w3.org/Graphics/SVG/1.1/DTD/svg11.dtd">
<!-- Generated by graphviz version 2.38.0 (20140413.2041)
 -->
<!-- Title: yw_data_view Pages: 1 -->
<svg width="905pt" height="518pt"
 viewBox="0.00 0.00 905.00 517.60" xmlns="http://www.w3.org/2000/svg" xmlns:xlink="http://www.w3.org/1999/xlink">
<g id="graph0" class="graph" transform="scale(1 1) rotate(0) translate(4 513.6)">
<title>yw_data_view</title>
<polygon fill="white" stroke="none" points="-4,4 -4,-513.6 901,-513.6 901,4 -4,4"/>
<text text-anchor="middle" x="448.5" y="-489.4" font-family="Courier,monospace" font-size="18.00">estimate_status_and_trend_by_year</text>
<g id="clust1" class="cluster"><title>cluster_workflow</title>
<polygon fill="none" stroke="black" stroke-width="2" points="8,-62 8,-418 889,-418 889,-62 8,-62"/>
</g>
<g id="clust2" class="cluster"><title>cluster_workflow_inner</title>
<polygon fill="none" stroke="white" stroke-width="2" points="16,-70 16,-410 881,-410 881,-70 16,-70"/>
</g>
<g id="clust3" class="cluster"><title>cluster_inflows</title>
<polygon fill="none" stroke="white" stroke-width="2" points="427,-426 427,-472 473,-472 473,-426 427,-426"/>
</g>
<g id="clust4" class="cluster"><title>cluster_inflows_inner</title>
<polygon fill="none" stroke="white" stroke-width="2" points="435,-434 435,-464 465,-464 465,-434 435,-434"/>
</g>
<g id="clust5" class="cluster"><title>cluster_outflows</title>
<polygon fill="none" stroke="white" stroke-width="2" points="398,-8 398,-54 508,-54 508,-8 398,-8"/>
</g>
<g id="clust6" class="cluster"><title>cluster_outflows_inner</title>
<polygon fill="none" stroke="white" stroke-width="2" points="406,-16 406,-46 500,-46 500,-16 406,-16"/>
</g>
<!-- write_status_to_csv_file -->
<g id="node1" class="node"><title>write_status_to_csv_file</title>
<polygon fill="#ccffcc" stroke="black" points="241.567,-186 24.4332,-186 24.4332,-150 241.567,-150 241.567,-186"/>
<text text-anchor="middle" x="133" y="-163.8" font-family="Courier,monospace" font-size="14.00">write_status_to_csv_file</text>
</g>
<!-- lsp_status_file -->
<g id="node8" class="node"><title>lsp_status_file</title>
<path fill="#ffffcc" stroke="black" d="M240.188,-114C240.188,-114 159.812,-114 159.812,-114 153.812,-114 147.812,-108 147.812,-102 147.812,-102 147.812,-90 147.812,-90 147.812,-84 153.812,-78 159.812,-78 159.812,-78 240.188,-78 240.188,-78 246.188,-78 252.188,-84 252.188,-90 252.188,-90 252.188,-102 252.188,-102 252.188,-108 246.188,-114 240.188,-114"/>
<text text-anchor="middle" x="200" y="-91.8" font-family="Helvetica,sans-Serif" font-size="14.00">lsp_status_file</text>
</g>
<!-- write_status_to_csv_file&#45;&gt;lsp_status_file -->
<g id="edge4" class="edge"><title>write_status_to_csv_file&#45;&gt;lsp_status_file</title>
<path fill="none" stroke="black" d="M149.562,-149.697C157.675,-141.22 167.588,-130.864 176.471,-121.583"/>
<polygon fill="black" stroke="black" points="179.243,-123.749 183.629,-114.104 174.186,-118.908 179.243,-123.749"/>
</g>
<!-- save_year_by_year_status_and_trend_estimates -->
<g id="node2" class="node"><title>save_year_by_year_status_and_trend_estimates</title>
<polygon fill="#ccffcc" stroke="black" points="645.539,-186 260.461,-186 260.461,-150 645.539,-150 645.539,-186"/>
<text text-anchor="middle" x="453" y="-163.8" font-family="Courier,monospace" font-size="14.00">save_year_by_year_status_and_trend_estimates</text>
</g>
<!-- lsp_status_trend_summary_db_file -->
<g id="node11" class="node"><title>lsp_status_trend_summary_db_file</title>
<path fill="#ffffcc" stroke="black" d="M557.546,-114C557.546,-114 348.454,-114 348.454,-114 342.454,-114 336.454,-108 336.454,-102 336.454,-102 336.454,-90 336.454,-90 336.454,-84 342.454,-78 348.454,-78 348.454,-78 557.546,-78 557.546,-78 563.546,-78 569.546,-84 569.546,-90 569.546,-90 569.546,-102 569.546,-102 569.546,-108 563.546,-114 557.546,-114"/>
<text text-anchor="middle" x="453" y="-91.8" font-family="Helvetica,sans-Serif" font-size="14.00">lsp_status_trend_summary_db_file</text>
</g>
<!-- save_year_by_year_status_and_trend_estimates&#45;&gt;lsp_status_trend_summary_db_file -->
<g id="edge1" class="edge"><title>save_year_by_year_status_and_trend_estimates&#45;&gt;lsp_status_trend_summary_db_file</title>
<path fill="none" stroke="black" d="M453,-149.697C453,-141.983 453,-132.712 453,-124.112"/>
<polygon fill="black" stroke="black" points="456.5,-124.104 453,-114.104 449.5,-124.104 456.5,-124.104"/>
</g>
<!-- write_trend_to_csv_file -->
<g id="node3" class="node"><title>write_trend_to_csv_file</title>
<polygon fill="#ccffcc" stroke="black" points="872.668,-186 663.332,-186 663.332,-150 872.668,-150 872.668,-186"/>
<text text-anchor="middle" x="768" y="-163.8" font-family="Courier,monospace" font-size="14.00">write_trend_to_csv_file</text>
</g>
<!-- lsp_trend_file -->
<g id="node10" class="node"><title>lsp_trend_file</title>
<path fill="#ffffcc" stroke="black" d="M739.74,-114C739.74,-114 664.26,-114 664.26,-114 658.26,-114 652.26,-108 652.26,-102 652.26,-102 652.26,-90 652.26,-90 652.26,-84 658.26,-78 664.26,-78 664.26,-78 739.74,-78 739.74,-78 745.74,-78 751.74,-84 751.74,-90 751.74,-90 751.74,-102 751.74,-102 751.74,-108 745.74,-114 739.74,-114"/>
<text text-anchor="middle" x="702" y="-91.8" font-family="Helvetica,sans-Serif" font-size="14.00">lsp_trend_file</text>
</g>
<!-- write_trend_to_csv_file&#45;&gt;lsp_trend_file -->
<g id="edge2" class="edge"><title>write_trend_to_csv_file&#45;&gt;lsp_trend_file</title>
<path fill="none" stroke="black" d="M751.685,-149.697C743.693,-141.22 733.928,-130.864 725.178,-121.583"/>
<polygon fill="black" stroke="black" points="727.534,-118.979 718.127,-114.104 722.441,-123.781 727.534,-118.979"/>
</g>
<!-- output_estimate_status_file_by_region_since_1980 -->
<g id="node4" class="node"><title>output_estimate_status_file_by_region_since_1980</title>
<polygon fill="#ccffcc" stroke="black" points="443.633,-330 24.3672,-330 24.3672,-294 443.633,-294 443.633,-330"/>
<text text-anchor="middle" x="234" y="-307.8" font-family="Courier,monospace" font-size="14.00">output_estimate_status_file_by_region_since_1980</text>
</g>
<!-- status_df_data -->
<g id="node7" class="node"><title>status_df_data</title>
<path fill="#ffffcc" stroke="black" d="M275.823,-258C275.823,-258 192.177,-258 192.177,-258 186.177,-258 180.177,-252 180.177,-246 180.177,-246 180.177,-234 180.177,-234 180.177,-228 186.177,-222 192.177,-222 192.177,-222 275.823,-222 275.823,-222 281.823,-222 287.823,-228 287.823,-234 287.823,-234 287.823,-246 287.823,-246 287.823,-252 281.823,-258 275.823,-258"/>
<text text-anchor="middle" x="234" y="-235.8" font-family="Helvetica,sans-Serif" font-size="14.00">status_df_data</text>
</g>
<!-- output_estimate_status_file_by_region_since_1980&#45;&gt;status_df_data -->
<g id="edge5" class="edge"><title>output_estimate_status_file_by_region_since_1980&#45;&gt;status_df_data</title>
<path fill="none" stroke="black" d="M234,-293.697C234,-285.983 234,-276.712 234,-268.112"/>
<polygon fill="black" stroke="black" points="237.5,-268.104 234,-258.104 230.5,-268.104 237.5,-268.104"/>
</g>
<!-- output_estimate_trend_file_by_region_since_1980 -->
<g id="node5" class="node"><title>output_estimate_trend_file_by_region_since_1980</title>
<polygon fill="#ccffcc" stroke="black" points="872.234,-330 461.766,-330 461.766,-294 872.234,-294 872.234,-330"/>
<text text-anchor="middle" x="667" y="-307.8" font-family="Courier,monospace" font-size="14.00">output_estimate_trend_file_by_region_since_1980</text>
</g>
<!-- trend_df_data -->
<g id="node9" class="node"><title>trend_df_data</title>
<path fill="#ffffcc" stroke="black" d="M706.376,-258C706.376,-258 627.624,-258 627.624,-258 621.624,-258 615.624,-252 615.624,-246 615.624,-246 615.624,-234 615.624,-234 615.624,-228 621.624,-222 627.624,-222 627.624,-222 706.376,-222 706.376,-222 712.376,-222 718.376,-228 718.376,-234 718.376,-234 718.376,-246 718.376,-246 718.376,-252 712.376,-258 706.376,-258"/>
<text text-anchor="middle" x="667" y="-235.8" font-family="Helvetica,sans-Serif" font-size="14.00">trend_df_data</text>
</g>
<!-- output_estimate_trend_file_by_region_since_1980&#45;&gt;trend_df_data -->
<g id="edge3" class="edge"><title>output_estimate_trend_file_by_region_since_1980&#45;&gt;trend_df_data</title>
<path fill="none" stroke="black" d="M667,-293.697C667,-285.983 667,-276.712 667,-268.112"/>
<polygon fill="black" stroke="black" points="670.5,-268.104 667,-258.104 663.5,-268.104 670.5,-268.104"/>
</g>
<!-- area_protected_total_file -->
<g id="node6" class="node"><title>area_protected_total_file</title>
<path fill="#ffffcc" stroke="black" d="M523.05,-402C523.05,-402 376.95,-402 376.95,-402 370.95,-402 364.95,-396 364.95,-390 364.95,-390 364.95,-378 364.95,-378 364.95,-372 370.95,-366 376.95,-366 376.95,-366 523.05,-366 523.05,-366 529.05,-366 535.05,-372 535.05,-378 535.05,-378 535.05,-390 535.05,-390 535.05,-396 529.05,-402 523.05,-402"/>
<text text-anchor="middle" x="450" y="-379.8" font-family="Helvetica,sans-Serif" font-size="14.00">area_protected_total_file</text>
</g>
<!-- area_protected_total_file&#45;&gt;output_estimate_status_file_by_region_since_1980 -->
<g id="edge6" class="edge"><title>area_protected_total_file&#45;&gt;output_estimate_status_file_by_region_since_1980</title>
<path fill="none" stroke="black" d="M397.437,-365.966C366.994,-356.1 328.489,-343.622 296.501,-333.255"/>
<polygon fill="black" stroke="black" points="297.391,-329.864 286.799,-330.111 295.233,-336.523 297.391,-329.864"/>
</g>
<!-- area_protected_total_file&#45;&gt;output_estimate_trend_file_by_region_since_1980 -->
<g id="edge8" class="edge"><title>area_protected_total_file&#45;&gt;output_estimate_trend_file_by_region_since_1980</title>
<path fill="none" stroke="black" d="M502.807,-365.966C533.39,-356.1 572.073,-343.622 604.21,-333.255"/>
<polygon fill="black" stroke="black" points="605.514,-336.512 613.957,-330.111 603.365,-329.85 605.514,-336.512"/>
</g>
<!-- status_df_data&#45;&gt;write_status_to_csv_file -->
<g id="edge7" class="edge"><title>status_df_data&#45;&gt;write_status_to_csv_file</title>
<path fill="none" stroke="black" d="M209.293,-221.876C196.331,-212.893 180.272,-201.763 166.235,-192.034"/>
<polygon fill="black" stroke="black" points="168.015,-189.009 157.802,-186.19 164.028,-194.763 168.015,-189.009"/>
</g>
<!-- status_df_data&#45;&gt;save_year_by_year_status_and_trend_estimates -->
<g id="edge10" class="edge"><title>status_df_data&#45;&gt;save_year_by_year_status_and_trend_estimates</title>
<path fill="none" stroke="black" d="M287.293,-221.966C318.159,-212.1 357.198,-199.622 389.631,-189.255"/>
<polygon fill="black" stroke="black" points="391.008,-192.489 399.468,-186.111 388.877,-185.822 391.008,-192.489"/>
</g>
<!-- lsp_status_file_outflow -->
<g id="node15" class="node"><title>lsp_status_file_outflow</title>
<ellipse fill="none" stroke="black" cx="421" cy="-31" rx="7" ry="7"/>
</g>
<!-- lsp_status_file&#45;&gt;lsp_status_file_outflow -->
<g id="edge15" class="edge"><title>lsp_status_file&#45;&gt;lsp_status_file_outflow</title>
<path fill="none" stroke="black" d="M252.374,-80.0699C301.712,-66.0053 372.662,-45.7797 404.472,-36.7115"/>
<polygon fill="black" stroke="black" points="405.651,-40.0149 414.309,-33.9075 403.732,-33.2831 405.651,-40.0149"/>
</g>
<!-- trend_df_data&#45;&gt;save_year_by_year_status_and_trend_estimates -->
<g id="edge11" class="edge"><title>trend_df_data&#45;&gt;save_year_by_year_status_and_trend_estimates</title>
<path fill="none" stroke="black" d="M615.742,-222.233C585.485,-212.336 546.979,-199.741 515.019,-189.287"/>
<polygon fill="black" stroke="black" points="515.919,-185.899 505.327,-186.116 513.743,-192.552 515.919,-185.899"/>
</g>
<!-- trend_df_data&#45;&gt;write_trend_to_csv_file -->
<g id="edge9" class="edge"><title>trend_df_data&#45;&gt;write_trend_to_csv_file</title>
<path fill="none" stroke="black" d="M691.707,-221.876C704.669,-212.893 720.728,-201.763 734.765,-192.034"/>
<polygon fill="black" stroke="black" points="736.972,-194.763 743.198,-186.19 732.985,-189.009 736.972,-194.763"/>
</g>
<!-- lsp_trend_file_outflow -->
<g id="node14" class="node"><title>lsp_trend_file_outflow</title>
<ellipse fill="none" stroke="black" cx="485" cy="-31" rx="7" ry="7"/>
</g>
<!-- lsp_trend_file&#45;&gt;lsp_trend_file_outflow -->
<g id="edge14" class="edge"><title>lsp_trend_file&#45;&gt;lsp_trend_file_outflow</title>
<path fill="none" stroke="black" d="M652.216,-80.5465C603.85,-66.5048 533.208,-45.9959 501.49,-36.7874"/>
<polygon fill="black" stroke="black" points="502.258,-33.366 491.679,-33.9391 500.307,-40.0885 502.258,-33.366"/>
</g>
<!-- lsp_status_trend_summary_db_file_outflow -->
<g id="node13" class="node"><title>lsp_status_trend_summary_db_file_outflow</title>
<ellipse fill="none" stroke="black" cx="453" cy="-31" rx="7" ry="7"/>
</g>
<!-- lsp_status_trend_summary_db_file&#45;&gt;lsp_status_trend_summary_db_file_outflow -->
<g id="edge13" class="edge"><title>lsp_status_trend_summary_db_file&#45;&gt;lsp_status_trend_summary_db_file_outflow</title>
<path fill="none" stroke="black" d="M453,-77.785C453,-68.6656 453,-57.5197 453,-48.5085"/>
<polygon fill="black" stroke="black" points="456.5,-48.242 453,-38.242 449.5,-48.2421 456.5,-48.242"/>
</g>
<!-- area_protected_total_file_inflow -->
<g id="node12" class="node"><title>area_protected_total_file_inflow</title>
<ellipse fill="none" stroke="black" cx="450" cy="-449" rx="7" ry="7"/>
</g>
<!-- area_protected_total_file_inflow&#45;&gt;area_protected_total_file -->
<g id="edge12" class="edge"><title>area_protected_total_file_inflow&#45;&gt;area_protected_total_file</title>
<path fill="none" stroke="black" d="M450,-441.729C450,-434.795 450,-423.154 450,-412.215"/>
<polygon fill="black" stroke="black" points="453.5,-412.119 450,-402.119 446.5,-412.119 453.5,-412.119"/>
</g>
</g>
</svg>
