<?xml version="1.0" encoding="UTF-8" standalone="no"?>
<!DOCTYPE svg PUBLIC "-//W3C//DTD SVG 1.1//EN"
 "http://www.w3.org/Graphics/SVG/1.1/DTD/svg11.dtd">
<!-- Generated by graphviz version 2.38.0 (20140413.2041)
 -->
<!-- Title: yw_data_view Pages: 1 -->
<svg width="576pt" height="813pt"
 viewBox="0.00 0.00 575.76 813.40" xmlns="http://www.w3.org/2000/svg" xmlns:xlink="http://www.w3.org/1999/xlink">
<g id="graph0" class="graph" transform="scale(1 1) rotate(0) translate(4 809.4)">
<title>yw_data_view</title>
<polygon fill="white" stroke="none" points="-4,4 -4,-809.4 571.759,-809.4 571.759,4 -4,4"/>
<text text-anchor="middle" x="283.88" y="-785.2" font-family="Courier,monospace" font-size="18.00">estimate_status_and_trend_by_year</text>
<g id="clust1" class="cluster"><title>cluster_workflow</title>
<polygon fill="none" stroke="black" stroke-width="2" points="8,-62 8,-713.8 555,-713.8 555,-62 8,-62"/>
</g>
<g id="clust2" class="cluster"><title>cluster_workflow_inner</title>
<polygon fill="none" stroke="white" stroke-width="2" points="16,-70 16,-705.8 547,-705.8 547,-70 16,-70"/>
</g>
<g id="clust3" class="cluster"><title>cluster_inflows</title>
<polygon fill="none" stroke="white" stroke-width="2" points="431,-721.8 431,-767.8 509,-767.8 509,-721.8 431,-721.8"/>
</g>
<g id="clust4" class="cluster"><title>cluster_inflows_inner</title>
<polygon fill="none" stroke="white" stroke-width="2" points="439,-729.8 439,-759.8 501,-759.8 501,-729.8 439,-729.8"/>
</g>
<g id="clust5" class="cluster"><title>cluster_outflows</title>
<polygon fill="none" stroke="white" stroke-width="2" points="206,-8 206,-54 252,-54 252,-8 206,-8"/>
</g>
<g id="clust6" class="cluster"><title>cluster_outflows_inner</title>
<polygon fill="none" stroke="white" stroke-width="2" points="214,-16 214,-46 244,-46 244,-16 214,-16"/>
</g>
<!-- output_estimate_trend_file_by_region_since_1980 -->
<g id="node1" class="node"><title>output_estimate_trend_file_by_region_since_1980</title>
<polygon fill="#ccffcc" stroke="black" points="434.234,-332.6 23.7657,-332.6 23.7657,-296.6 434.234,-296.6 434.234,-332.6"/>
<text text-anchor="middle" x="229" y="-310.4" font-family="Courier,monospace" font-size="14.00">output_estimate_trend_file_by_region_since_1980</text>
</g>
<!-- trend_df_data -->
<g id="node9" class="node"><title>trend_df_data</title>
<path fill="#ffffcc" stroke="black" d="M268.376,-260.6C268.376,-260.6 189.624,-260.6 189.624,-260.6 183.624,-260.6 177.624,-254.6 177.624,-248.6 177.624,-248.6 177.624,-236.6 177.624,-236.6 177.624,-230.6 183.624,-224.6 189.624,-224.6 189.624,-224.6 268.376,-224.6 268.376,-224.6 274.376,-224.6 280.376,-230.6 280.376,-236.6 280.376,-236.6 280.376,-248.6 280.376,-248.6 280.376,-254.6 274.376,-260.6 268.376,-260.6"/>
<text text-anchor="middle" x="229" y="-238.4" font-family="Helvetica,sans-Serif" font-size="14.00">trend_df_data</text>
</g>
<!-- output_estimate_trend_file_by_region_since_1980&#45;&gt;trend_df_data -->
<g id="edge11" class="edge"><title>output_estimate_trend_file_by_region_since_1980&#45;&gt;trend_df_data</title>
<path fill="none" stroke="black" d="M229,-296.297C229,-288.583 229,-279.312 229,-270.712"/>
<polygon fill="black" stroke="black" points="232.5,-270.704 229,-260.704 225.5,-270.704 232.5,-270.704"/>
</g>
<!-- define_param_year_span -->
<g id="node2" class="node"><title>define_param_year_span</title>
<polygon fill="#ccffcc" stroke="black" points="538.269,-479.2 337.731,-479.2 337.731,-443.2 538.269,-443.2 538.269,-479.2"/>
<text text-anchor="middle" x="438" y="-457" font-family="Courier,monospace" font-size="14.00">define_param_year_span</text>
</g>
<!-- year_span -->
<g id="node8" class="node"><title>year_span</title>
<path fill="#ffffcc" stroke="black" d="M255.857,-405.9C255.857,-405.9 198.143,-405.9 198.143,-405.9 192.143,-405.9 186.143,-399.9 186.143,-393.9 186.143,-393.9 186.143,-381.9 186.143,-381.9 186.143,-375.9 192.143,-369.9 198.143,-369.9 198.143,-369.9 255.857,-369.9 255.857,-369.9 261.857,-369.9 267.857,-375.9 267.857,-381.9 267.857,-381.9 267.857,-393.9 267.857,-393.9 267.857,-399.9 261.857,-405.9 255.857,-405.9"/>
<text text-anchor="middle" x="227" y="-383.7" font-family="Helvetica,sans-Serif" font-size="14.00">year_span</text>
</g>
<!-- define_param_year_span&#45;&gt;year_span -->
<g id="edge10" class="edge"><title>define_param_year_span&#45;&gt;year_span</title>
<path fill="none" stroke="black" d="M383.812,-443.088C354.53,-433.699 317.556,-421.616 277.321,-407.611"/>
<polygon fill="black" stroke="black" points="278.456,-404.301 267.861,-404.304 276.146,-410.908 278.456,-404.301"/>
</g>
<!-- create_new_stats_and_trend_file -->
<g id="node3" class="node"><title>create_new_stats_and_trend_file</title>
<polygon fill="#ccffcc" stroke="black" points="300.357,-479.2 23.6432,-479.2 23.6432,-443.2 300.357,-443.2 300.357,-479.2"/>
<text text-anchor="middle" x="162" y="-457" font-family="Courier,monospace" font-size="14.00">create_new_stats_and_trend_file</text>
</g>
<!-- trend_file_handle -->
<g id="node7" class="node"><title>trend_file_handle</title>
<path fill="#ffffcc" stroke="black" d="M135.871,-405.9C135.871,-405.9 36.1292,-405.9 36.1292,-405.9 30.1292,-405.9 24.1292,-399.9 24.1292,-393.9 24.1292,-393.9 24.1292,-381.9 24.1292,-381.9 24.1292,-375.9 30.1292,-369.9 36.1292,-369.9 36.1292,-369.9 135.871,-369.9 135.871,-369.9 141.871,-369.9 147.871,-375.9 147.871,-381.9 147.871,-381.9 147.871,-393.9 147.871,-393.9 147.871,-399.9 141.871,-405.9 135.871,-405.9"/>
<text text-anchor="middle" x="86" y="-383.7" font-family="Helvetica,sans-Serif" font-size="14.00">trend_file_handle</text>
</g>
<!-- create_new_stats_and_trend_file&#45;&gt;trend_file_handle -->
<g id="edge9" class="edge"><title>create_new_stats_and_trend_file&#45;&gt;trend_file_handle</title>
<path fill="none" stroke="black" d="M143.603,-442.94C133.987,-433.92 122.066,-422.736 111.568,-412.887"/>
<polygon fill="black" stroke="black" points="113.916,-410.29 104.228,-406.001 109.126,-415.395 113.916,-410.29"/>
</g>
<!-- set_up_configuration_and_start_provenance_tracking -->
<g id="node4" class="node"><title>set_up_configuration_and_start_provenance_tracking</title>
<polygon fill="#ccffcc" stroke="black" points="536.93,-623.2 101.07,-623.2 101.07,-587.2 536.93,-587.2 536.93,-623.2"/>
<text text-anchor="middle" x="319" y="-601" font-family="Courier,monospace" font-size="14.00">set_up_configuration_and_start_provenance_tracking</text>
</g>
<!-- dir_goal -->
<g id="node6" class="node"><title>dir_goal</title>
<path fill="#ffffcc" stroke="black" d="M339.787,-551.2C339.787,-551.2 298.213,-551.2 298.213,-551.2 292.213,-551.2 286.213,-545.2 286.213,-539.2 286.213,-539.2 286.213,-527.2 286.213,-527.2 286.213,-521.2 292.213,-515.2 298.213,-515.2 298.213,-515.2 339.787,-515.2 339.787,-515.2 345.787,-515.2 351.787,-521.2 351.787,-527.2 351.787,-527.2 351.787,-539.2 351.787,-539.2 351.787,-545.2 345.787,-551.2 339.787,-551.2"/>
<text text-anchor="middle" x="319" y="-529" font-family="Helvetica,sans-Serif" font-size="14.00">dir_goal</text>
</g>
<!-- set_up_configuration_and_start_provenance_tracking&#45;&gt;dir_goal -->
<g id="edge8" class="edge"><title>set_up_configuration_and_start_provenance_tracking&#45;&gt;dir_goal</title>
<path fill="none" stroke="black" d="M319,-586.897C319,-579.183 319,-569.912 319,-561.312"/>
<polygon fill="black" stroke="black" points="322.5,-561.304 319,-551.304 315.5,-561.304 322.5,-561.304"/>
</g>
<!-- write_trend_to_csv_file -->
<g id="node5" class="node"><title>write_trend_to_csv_file</title>
<polygon fill="#ccffcc" stroke="black" points="333.668,-188.6 124.332,-188.6 124.332,-152.6 333.668,-152.6 333.668,-188.6"/>
<text text-anchor="middle" x="229" y="-166.4" font-family="Courier,monospace" font-size="14.00">write_trend_to_csv_file</text>
</g>
<!-- lsp_trend_file -->
<g id="node12" class="node"><title>lsp_trend_file</title>
<path fill="#ffe4b5" stroke="black" d="M143.915,-78.5C143.915,-78.5 314.085,-78.5 314.085,-78.5 320.085,-78.5 326.085,-84.5 326.085,-90.5 326.085,-90.5 326.085,-104.1 326.085,-104.1 326.085,-110.1 320.085,-116.1 314.085,-116.1 314.085,-116.1 143.915,-116.1 143.915,-116.1 137.915,-116.1 131.915,-110.1 131.915,-104.1 131.915,-104.1 131.915,-90.5 131.915,-90.5 131.915,-84.5 137.915,-78.5 143.915,-78.5"/>
<text text-anchor="middle" x="229" y="-104" font-family="Courier,monospace" font-weight="bold" font-size="9.00">lsp_trend_file</text>
<polyline fill="none" stroke="black" points="131.915,-97.3 326.085,-97.3 "/>
<text text-anchor="start" x="139.915" y="-85.2" font-family="Courier,monospace" font-weight="bold" font-size="9.00">prep/lsp/vHS/output/lsp_trend.csv</text>
</g>
<!-- write_trend_to_csv_file&#45;&gt;lsp_trend_file -->
<g id="edge12" class="edge"><title>write_trend_to_csv_file&#45;&gt;lsp_trend_file</title>
<path fill="none" stroke="black" d="M229,-152.34C229,-144.605 229,-135.279 229,-126.568"/>
<polygon fill="black" stroke="black" points="232.5,-126.396 229,-116.396 225.5,-126.396 232.5,-126.396"/>
</g>
<!-- dir_goal&#45;&gt;output_estimate_trend_file_by_region_since_1980 -->
<g id="edge5" class="edge"><title>dir_goal&#45;&gt;output_estimate_trend_file_by_region_since_1980</title>
<path fill="none" stroke="black" d="M322.291,-514.913C324.988,-495.169 325.992,-463.04 309,-443.2 269.445,-397.014 213.911,-455.526 177,-407.2 160.662,-385.809 180.303,-358.733 199.951,-339.582"/>
<polygon fill="black" stroke="black" points="202.46,-342.029 207.406,-332.659 197.697,-336.899 202.46,-342.029"/>
</g>
<!-- dir_goal&#45;&gt;create_new_stats_and_trend_file -->
<g id="edge6" class="edge"><title>dir_goal&#45;&gt;create_new_stats_and_trend_file</title>
<path fill="none" stroke="black" d="M286.088,-517.526C263.922,-507.643 234.337,-494.452 209.613,-483.429"/>
<polygon fill="black" stroke="black" points="210.96,-480.197 200.402,-479.322 208.11,-486.591 210.96,-480.197"/>
</g>
<!-- trend_file_handle&#45;&gt;output_estimate_trend_file_by_region_since_1980 -->
<g id="edge4" class="edge"><title>trend_file_handle&#45;&gt;output_estimate_trend_file_by_region_since_1980</title>
<path fill="none" stroke="black" d="M120.252,-369.822C139.83,-360.06 164.576,-347.722 185.515,-337.282"/>
<polygon fill="black" stroke="black" points="187.144,-340.38 194.532,-332.786 184.021,-334.116 187.144,-340.38"/>
</g>
<!-- year_span&#45;&gt;output_estimate_trend_file_by_region_since_1980 -->
<g id="edge3" class="edge"><title>year_span&#45;&gt;output_estimate_trend_file_by_region_since_1980</title>
<path fill="none" stroke="black" d="M227.484,-369.64C227.71,-361.583 227.985,-351.8 228.237,-342.784"/>
<polygon fill="black" stroke="black" points="231.738,-342.795 228.52,-332.701 224.741,-342.599 231.738,-342.795"/>
</g>
<!-- trend_df_data&#45;&gt;write_trend_to_csv_file -->
<g id="edge1" class="edge"><title>trend_df_data&#45;&gt;write_trend_to_csv_file</title>
<path fill="none" stroke="black" d="M229,-224.297C229,-216.583 229,-207.312 229,-198.712"/>
<polygon fill="black" stroke="black" points="232.5,-198.704 229,-188.704 225.5,-198.704 232.5,-198.704"/>
</g>
<!-- setup_R -->
<g id="node10" class="node"><title>setup_R</title>
<path fill="#ffe4b5" stroke="black" d="M394,-659.7C394,-659.7 424,-659.7 424,-659.7 430,-659.7 436,-665.7 436,-671.7 436,-671.7 436,-685.3 436,-685.3 436,-691.3 430,-697.3 424,-697.3 424,-697.3 394,-697.3 394,-697.3 388,-697.3 382,-691.3 382,-685.3 382,-685.3 382,-671.7 382,-671.7 382,-665.7 388,-659.7 394,-659.7"/>
<text text-anchor="middle" x="408.897" y="-685.2" font-family="Courier,monospace" font-weight="bold" font-size="9.00">setup_R</text>
<polyline fill="none" stroke="black" points="382,-678.5 435.794,-678.5 "/>
<text text-anchor="middle" x="408.897" y="-666.4" font-family="Courier,monospace" font-weight="bold" font-size="9.00"> </text>
</g>
<!-- setup_R&#45;&gt;set_up_configuration_and_start_provenance_tracking -->
<g id="edge7" class="edge"><title>setup_R&#45;&gt;set_up_configuration_and_start_provenance_tracking</title>
<path fill="none" stroke="black" d="M386.289,-659.508C374.866,-650.458 360.878,-639.377 348.621,-629.666"/>
<polygon fill="black" stroke="black" points="350.476,-626.671 340.464,-623.205 346.129,-632.158 350.476,-626.671"/>
</g>
<!-- area_protected_total_file -->
<g id="node11" class="node"><title>area_protected_total_file</title>
<path fill="#ffe4b5" stroke="black" d="M297.22,-369.1C297.22,-369.1 526.78,-369.1 526.78,-369.1 532.78,-369.1 538.78,-375.1 538.78,-381.1 538.78,-381.1 538.78,-394.7 538.78,-394.7 538.78,-400.7 532.78,-406.7 526.78,-406.7 526.78,-406.7 297.22,-406.7 297.22,-406.7 291.22,-406.7 285.22,-400.7 285.22,-394.7 285.22,-394.7 285.22,-381.1 285.22,-381.1 285.22,-375.1 291.22,-369.1 297.22,-369.1"/>
<text text-anchor="middle" x="412" y="-394.6" font-family="Courier,monospace" font-weight="bold" font-size="9.00">area_protected_total_file</text>
<polyline fill="none" stroke="black" points="285.22,-387.9 538.78,-387.9 "/>
<text text-anchor="start" x="293.22" y="-375.8" font-family="Courier,monospace" font-weight="bold" font-size="9.00">prep/lsp/vHS/output/area_protected_total.csv</text>
</g>
<!-- area_protected_total_file&#45;&gt;output_estimate_trend_file_by_region_since_1980 -->
<g id="edge2" class="edge"><title>area_protected_total_file&#45;&gt;output_estimate_trend_file_by_region_since_1980</title>
<path fill="none" stroke="black" d="M366.293,-369.092C340.836,-359.173 309.007,-346.772 282.406,-336.408"/>
<polygon fill="black" stroke="black" points="283.452,-333.059 272.864,-332.69 280.911,-339.582 283.452,-333.059"/>
</g>
<!-- lsp_trend_file_outflow -->
<g id="node15" class="node"><title>lsp_trend_file_outflow</title>
<ellipse fill="none" stroke="black" cx="229" cy="-31" rx="7" ry="7"/>
</g>
<!-- lsp_trend_file&#45;&gt;lsp_trend_file_outflow -->
<g id="edge15" class="edge"><title>lsp_trend_file&#45;&gt;lsp_trend_file_outflow</title>
<path fill="none" stroke="black" d="M229,-78.3889C229,-68.9828 229,-57.5389 229,-48.3712"/>
<polygon fill="black" stroke="black" points="232.5,-48.3008 229,-38.3008 225.5,-48.3008 232.5,-48.3008"/>
</g>
<!-- setup_R_inflow -->
<g id="node13" class="node"><title>setup_R_inflow</title>
<ellipse fill="none" stroke="black" cx="454" cy="-744.8" rx="7" ry="7"/>
</g>
<!-- setup_R_inflow&#45;&gt;setup_R -->
<g id="edge13" class="edge"><title>setup_R_inflow&#45;&gt;setup_R</title>
<path fill="none" stroke="black" d="M450.469,-738.754C445.486,-731.634 436.034,-718.129 427.412,-705.808"/>
<polygon fill="black" stroke="black" points="430.241,-703.747 421.64,-697.561 424.506,-707.761 430.241,-703.747"/>
</g>
<!-- area_protected_total_file_inflow -->
<g id="node14" class="node"><title>area_protected_total_file_inflow</title>
<ellipse fill="none" stroke="black" cx="486" cy="-744.8" rx="7" ry="7"/>
</g>
<!-- area_protected_total_file_inflow&#45;&gt;area_protected_total_file -->
<g id="edge14" class="edge"><title>area_protected_total_file_inflow&#45;&gt;area_protected_total_file</title>
<path fill="none" stroke="black" d="M490.765,-739.586C507.987,-723.866 566,-666.44 566,-606.2 566,-606.2 566,-606.2 566,-532.2 566,-491.753 573.037,-474.152 547,-443.2 535.131,-429.09 519.057,-418.613 502.141,-410.842"/>
<polygon fill="black" stroke="black" points="503.248,-407.51 492.677,-406.798 500.497,-413.946 503.248,-407.51"/>
</g>
</g>
</svg>
