<?xml version="1.0" encoding="UTF-8" standalone="no"?>
<!DOCTYPE svg PUBLIC "-//W3C//DTD SVG 1.1//EN"
 "http://www.w3.org/Graphics/SVG/1.1/DTD/svg11.dtd">
<!-- Generated by graphviz version 2.38.0 (20140413.2041)
 -->
<!-- Title: yw_data_view Pages: 1 -->
<svg width="905pt" height="813pt"
 viewBox="0.00 0.00 905.00 813.40" xmlns="http://www.w3.org/2000/svg" xmlns:xlink="http://www.w3.org/1999/xlink">
<g id="graph0" class="graph" transform="scale(1 1) rotate(0) translate(4 809.4)">
<title>yw_data_view</title>
<polygon fill="white" stroke="none" points="-4,4 -4,-809.4 901,-809.4 901,4 -4,4"/>
<text text-anchor="middle" x="448.5" y="-785.2" font-family="Courier,monospace" font-size="18.00">estimate_status_and_trend_by_year</text>
<g id="clust1" class="cluster"><title>cluster_workflow</title>
<polygon fill="none" stroke="black" stroke-width="2" points="8,-62 8,-713.8 889,-713.8 889,-62 8,-62"/>
</g>
<g id="clust2" class="cluster"><title>cluster_workflow_inner</title>
<polygon fill="none" stroke="white" stroke-width="2" points="16,-70 16,-705.8 881,-705.8 881,-70 16,-70"/>
</g>
<g id="clust3" class="cluster"><title>cluster_inflows</title>
<polygon fill="none" stroke="white" stroke-width="2" points="543,-721.8 543,-767.8 621,-767.8 621,-721.8 543,-721.8"/>
</g>
<g id="clust4" class="cluster"><title>cluster_inflows_inner</title>
<polygon fill="none" stroke="white" stroke-width="2" points="551,-729.8 551,-759.8 613,-759.8 613,-729.8 551,-729.8"/>
</g>
<g id="clust5" class="cluster"><title>cluster_outflows</title>
<polygon fill="none" stroke="white" stroke-width="2" points="389,-8 389,-54 499,-54 499,-8 389,-8"/>
</g>
<g id="clust6" class="cluster"><title>cluster_outflows_inner</title>
<polygon fill="none" stroke="white" stroke-width="2" points="397,-16 397,-46 491,-46 491,-16 397,-16"/>
</g>
<!-- set_up_configuration_and_start_provenance_tracking -->
<g id="node1" class="node"><title>set_up_configuration_and_start_provenance_tracking</title>
<polygon fill="#ccffcc" stroke="black" points="529.93,-623.2 94.07,-623.2 94.07,-587.2 529.93,-587.2 529.93,-623.2"/>
<text text-anchor="middle" x="312" y="-601" font-family="Courier,monospace" font-size="14.00">set_up_configuration_and_start_provenance_tracking</text>
</g>
<!-- dir_goal -->
<g id="node11" class="node"><title>dir_goal</title>
<path fill="#ffffcc" stroke="black" d="M283,-551.2C283,-551.2 253,-551.2 253,-551.2 247,-551.2 241,-545.2 241,-539.2 241,-539.2 241,-527.2 241,-527.2 241,-521.2 247,-515.2 253,-515.2 253,-515.2 283,-515.2 283,-515.2 289,-515.2 295,-521.2 295,-527.2 295,-527.2 295,-539.2 295,-539.2 295,-545.2 289,-551.2 283,-551.2"/>
<text text-anchor="middle" x="268" y="-530.5" font-family="Helvetica,sans-Serif" font-size="9.00">dir_goal</text>
</g>
<!-- set_up_configuration_and_start_provenance_tracking&#45;&gt;dir_goal -->
<g id="edge15" class="edge"><title>set_up_configuration_and_start_provenance_tracking&#45;&gt;dir_goal</title>
<path fill="none" stroke="black" d="M301.124,-586.897C296.008,-578.759 289.805,-568.889 284.155,-559.901"/>
<polygon fill="black" stroke="black" points="287.036,-557.908 278.751,-551.304 281.11,-561.633 287.036,-557.908"/>
</g>
<!-- create_new_stats_and_trend_file -->
<g id="node2" class="node"><title>create_new_stats_and_trend_file</title>
<polygon fill="#ccffcc" stroke="black" points="362.357,-479.2 85.6432,-479.2 85.6432,-443.2 362.357,-443.2 362.357,-479.2"/>
<text text-anchor="middle" x="224" y="-457" font-family="Courier,monospace" font-size="14.00">create_new_stats_and_trend_file</text>
</g>
<!-- status_file_handle -->
<g id="node12" class="node"><title>status_file_handle</title>
<path fill="#ffffcc" stroke="black" d="M569.027,-405.9C569.027,-405.9 504.973,-405.9 504.973,-405.9 498.973,-405.9 492.973,-399.9 492.973,-393.9 492.973,-393.9 492.973,-381.9 492.973,-381.9 492.973,-375.9 498.973,-369.9 504.973,-369.9 504.973,-369.9 569.027,-369.9 569.027,-369.9 575.027,-369.9 581.027,-375.9 581.027,-381.9 581.027,-381.9 581.027,-393.9 581.027,-393.9 581.027,-399.9 575.027,-405.9 569.027,-405.9"/>
<text text-anchor="middle" x="537" y="-385.2" font-family="Helvetica,sans-Serif" font-size="9.00">status_file_handle</text>
</g>
<!-- create_new_stats_and_trend_file&#45;&gt;status_file_handle -->
<g id="edge16" class="edge"><title>create_new_stats_and_trend_file&#45;&gt;status_file_handle</title>
<path fill="none" stroke="black" d="M323.182,-443.152C369.402,-434.448 425.209,-422.86 483.187,-407.259"/>
<polygon fill="black" stroke="black" points="484.161,-410.622 492.889,-404.616 482.321,-403.868 484.161,-410.622"/>
</g>
<!-- trend_file_handle -->
<g id="node13" class="node"><title>trend_file_handle</title>
<path fill="#ffffcc" stroke="black" d="M256.524,-405.9C256.524,-405.9 195.476,-405.9 195.476,-405.9 189.476,-405.9 183.476,-399.9 183.476,-393.9 183.476,-393.9 183.476,-381.9 183.476,-381.9 183.476,-375.9 189.476,-369.9 195.476,-369.9 195.476,-369.9 256.524,-369.9 256.524,-369.9 262.524,-369.9 268.524,-375.9 268.524,-381.9 268.524,-381.9 268.524,-393.9 268.524,-393.9 268.524,-399.9 262.524,-405.9 256.524,-405.9"/>
<text text-anchor="middle" x="226" y="-385.2" font-family="Helvetica,sans-Serif" font-size="9.00">trend_file_handle</text>
</g>
<!-- create_new_stats_and_trend_file&#45;&gt;trend_file_handle -->
<g id="edge17" class="edge"><title>create_new_stats_and_trend_file&#45;&gt;trend_file_handle</title>
<path fill="none" stroke="black" d="M224.484,-442.94C224.71,-434.883 224.985,-425.1 225.237,-416.084"/>
<polygon fill="black" stroke="black" points="228.738,-416.095 225.52,-406.001 221.741,-415.899 228.738,-416.095"/>
</g>
<!-- define_param_year_span -->
<g id="node3" class="node"><title>define_param_year_span</title>
<polygon fill="#ccffcc" stroke="black" points="581.269,-479.2 380.731,-479.2 380.731,-443.2 581.269,-443.2 581.269,-479.2"/>
<text text-anchor="middle" x="481" y="-457" font-family="Courier,monospace" font-size="14.00">define_param_year_span</text>
</g>
<!-- year_span -->
<g id="node14" class="node"><title>year_span</title>
<path fill="#ffffcc" stroke="black" d="M463.015,-405.9C463.015,-405.9 428.985,-405.9 428.985,-405.9 422.985,-405.9 416.985,-399.9 416.985,-393.9 416.985,-393.9 416.985,-381.9 416.985,-381.9 416.985,-375.9 422.985,-369.9 428.985,-369.9 428.985,-369.9 463.015,-369.9 463.015,-369.9 469.015,-369.9 475.015,-375.9 475.015,-381.9 475.015,-381.9 475.015,-393.9 475.015,-393.9 475.015,-399.9 469.015,-405.9 463.015,-405.9"/>
<text text-anchor="middle" x="446" y="-385.2" font-family="Helvetica,sans-Serif" font-size="9.00">year_span</text>
</g>
<!-- define_param_year_span&#45;&gt;year_span -->
<g id="edge18" class="edge"><title>define_param_year_span&#45;&gt;year_span</title>
<path fill="none" stroke="black" d="M472.527,-442.94C468.443,-434.62 463.456,-424.46 458.912,-415.204"/>
<polygon fill="black" stroke="black" points="461.943,-413.435 454.395,-406.001 455.659,-416.52 461.943,-413.435"/>
</g>
<!-- output_estimate_status_file_by_region_since_1980 -->
<g id="node4" class="node"><title>output_estimate_status_file_by_region_since_1980</title>
<polygon fill="#ccffcc" stroke="black" points="871.633,-332.6 452.367,-332.6 452.367,-296.6 871.633,-296.6 871.633,-332.6"/>
<text text-anchor="middle" x="662" y="-310.4" font-family="Courier,monospace" font-size="14.00">output_estimate_status_file_by_region_since_1980</text>
</g>
<!-- status_df_data -->
<g id="node15" class="node"><title>status_df_data</title>
<path fill="#ffffcc" stroke="black" d="M687.529,-260.6C687.529,-260.6 636.471,-260.6 636.471,-260.6 630.471,-260.6 624.471,-254.6 624.471,-248.6 624.471,-248.6 624.471,-236.6 624.471,-236.6 624.471,-230.6 630.471,-224.6 636.471,-224.6 636.471,-224.6 687.529,-224.6 687.529,-224.6 693.529,-224.6 699.529,-230.6 699.529,-236.6 699.529,-236.6 699.529,-248.6 699.529,-248.6 699.529,-254.6 693.529,-260.6 687.529,-260.6"/>
<text text-anchor="middle" x="662" y="-239.9" font-family="Helvetica,sans-Serif" font-size="9.00">status_df_data</text>
</g>
<!-- output_estimate_status_file_by_region_since_1980&#45;&gt;status_df_data -->
<g id="edge19" class="edge"><title>output_estimate_status_file_by_region_since_1980&#45;&gt;status_df_data</title>
<path fill="none" stroke="black" d="M662,-296.297C662,-288.583 662,-279.312 662,-270.712"/>
<polygon fill="black" stroke="black" points="665.5,-270.704 662,-260.704 658.5,-270.704 665.5,-270.704"/>
</g>
<!-- write_status_to_csv_file -->
<g id="node5" class="node"><title>write_status_to_csv_file</title>
<polygon fill="#ccffcc" stroke="black" points="872.567,-188.6 655.433,-188.6 655.433,-152.6 872.567,-152.6 872.567,-188.6"/>
<text text-anchor="middle" x="764" y="-166.4" font-family="Courier,monospace" font-size="14.00">write_status_to_csv_file</text>
</g>
<!-- lsp_status_file -->
<g id="node17" class="node"><title>lsp_status_file</title>
<path fill="#ffe4b5" stroke="black" d="M622.215,-78.5C622.215,-78.5 797.785,-78.5 797.785,-78.5 803.785,-78.5 809.785,-84.5 809.785,-90.5 809.785,-90.5 809.785,-104.1 809.785,-104.1 809.785,-110.1 803.785,-116.1 797.785,-116.1 797.785,-116.1 622.215,-116.1 622.215,-116.1 616.215,-116.1 610.215,-110.1 610.215,-104.1 610.215,-104.1 610.215,-90.5 610.215,-90.5 610.215,-84.5 616.215,-78.5 622.215,-78.5"/>
<text text-anchor="middle" x="710" y="-104" font-family="Courier,monospace" font-weight="bold" font-size="9.00">lsp_status_file</text>
<polyline fill="none" stroke="black" points="610.215,-97.3 809.785,-97.3 "/>
<text text-anchor="start" x="618.215" y="-85.2" font-family="Courier,monospace" font-weight="bold" font-size="9.00">prep/lsp/vHS/output/lsp_status.csv</text>
</g>
<!-- write_status_to_csv_file&#45;&gt;lsp_status_file -->
<g id="edge20" class="edge"><title>write_status_to_csv_file&#45;&gt;lsp_status_file</title>
<path fill="none" stroke="black" d="M750.928,-152.34C744.619,-144.01 736.913,-133.835 729.896,-124.57"/>
<polygon fill="black" stroke="black" points="732.533,-122.254 723.705,-116.396 726.952,-126.481 732.533,-122.254"/>
</g>
<!-- output_estimate_trend_file_by_region_since_1980 -->
<g id="node6" class="node"><title>output_estimate_trend_file_by_region_since_1980</title>
<polygon fill="#ccffcc" stroke="black" points="434.234,-332.6 23.7657,-332.6 23.7657,-296.6 434.234,-296.6 434.234,-332.6"/>
<text text-anchor="middle" x="229" y="-310.4" font-family="Courier,monospace" font-size="14.00">output_estimate_trend_file_by_region_since_1980</text>
</g>
<!-- trend_df_data -->
<g id="node16" class="node"><title>trend_df_data</title>
<path fill="#ffffcc" stroke="black" d="M252.529,-260.6C252.529,-260.6 205.471,-260.6 205.471,-260.6 199.471,-260.6 193.471,-254.6 193.471,-248.6 193.471,-248.6 193.471,-236.6 193.471,-236.6 193.471,-230.6 199.471,-224.6 205.471,-224.6 205.471,-224.6 252.529,-224.6 252.529,-224.6 258.529,-224.6 264.529,-230.6 264.529,-236.6 264.529,-236.6 264.529,-248.6 264.529,-248.6 264.529,-254.6 258.529,-260.6 252.529,-260.6"/>
<text text-anchor="middle" x="229" y="-239.9" font-family="Helvetica,sans-Serif" font-size="9.00">trend_df_data</text>
</g>
<!-- output_estimate_trend_file_by_region_since_1980&#45;&gt;trend_df_data -->
<g id="edge21" class="edge"><title>output_estimate_trend_file_by_region_since_1980&#45;&gt;trend_df_data</title>
<path fill="none" stroke="black" d="M229,-296.297C229,-288.583 229,-279.312 229,-270.712"/>
<polygon fill="black" stroke="black" points="232.5,-270.704 229,-260.704 225.5,-270.704 232.5,-270.704"/>
</g>
<!-- write_trend_to_csv_file -->
<g id="node7" class="node"><title>write_trend_to_csv_file</title>
<polygon fill="#ccffcc" stroke="black" points="233.668,-188.6 24.3321,-188.6 24.3321,-152.6 233.668,-152.6 233.668,-188.6"/>
<text text-anchor="middle" x="129" y="-166.4" font-family="Courier,monospace" font-size="14.00">write_trend_to_csv_file</text>
</g>
<!-- lsp_trend_file -->
<g id="node18" class="node"><title>lsp_trend_file</title>
<path fill="#ffe4b5" stroke="black" d="M96.9148,-78.5C96.9148,-78.5 267.085,-78.5 267.085,-78.5 273.085,-78.5 279.085,-84.5 279.085,-90.5 279.085,-90.5 279.085,-104.1 279.085,-104.1 279.085,-110.1 273.085,-116.1 267.085,-116.1 267.085,-116.1 96.9148,-116.1 96.9148,-116.1 90.9148,-116.1 84.9148,-110.1 84.9148,-104.1 84.9148,-104.1 84.9148,-90.5 84.9148,-90.5 84.9148,-84.5 90.9148,-78.5 96.9148,-78.5"/>
<text text-anchor="middle" x="182" y="-104" font-family="Courier,monospace" font-weight="bold" font-size="9.00">lsp_trend_file</text>
<polyline fill="none" stroke="black" points="84.9148,-97.3 279.085,-97.3 "/>
<text text-anchor="start" x="92.9148" y="-85.2" font-family="Courier,monospace" font-weight="bold" font-size="9.00">prep/lsp/vHS/output/lsp_trend.csv</text>
</g>
<!-- write_trend_to_csv_file&#45;&gt;lsp_trend_file -->
<g id="edge22" class="edge"><title>write_trend_to_csv_file&#45;&gt;lsp_trend_file</title>
<path fill="none" stroke="black" d="M141.83,-152.34C148.022,-144.01 155.586,-133.835 162.473,-124.57"/>
<polygon fill="black" stroke="black" points="165.392,-126.509 168.549,-116.396 159.774,-122.333 165.392,-126.509"/>
</g>
<!-- save_year_by_year_status_and_trend_estimates -->
<g id="node8" class="node"><title>save_year_by_year_status_and_trend_estimates</title>
<polygon fill="#ccffcc" stroke="black" points="636.539,-188.6 251.461,-188.6 251.461,-152.6 636.539,-152.6 636.539,-188.6"/>
<text text-anchor="middle" x="444" y="-166.4" font-family="Courier,monospace" font-size="14.00">save_year_by_year_status_and_trend_estimates</text>
</g>
<!-- lsp_status_trend_summary_db_file -->
<g id="node19" class="node"><title>lsp_status_trend_summary_db_file</title>
<path fill="#ffe4b5" stroke="black" d="M361.614,-78.5C361.614,-78.5 526.386,-78.5 526.386,-78.5 532.386,-78.5 538.386,-84.5 538.386,-90.5 538.386,-90.5 538.386,-104.1 538.386,-104.1 538.386,-110.1 532.386,-116.1 526.386,-116.1 526.386,-116.1 361.614,-116.1 361.614,-116.1 355.614,-116.1 349.614,-110.1 349.614,-104.1 349.614,-104.1 349.614,-90.5 349.614,-90.5 349.614,-84.5 355.614,-78.5 361.614,-78.5"/>
<text text-anchor="middle" x="444" y="-104" font-family="Courier,monospace" font-weight="bold" font-size="9.00">lsp_status_trend_summary_db_file</text>
<polyline fill="none" stroke="black" points="349.614,-97.3 538.386,-97.3 "/>
<text text-anchor="middle" x="444" y="-85.2" font-family="Courier,monospace" font-weight="bold" font-size="9.00"> </text>
</g>
<!-- save_year_by_year_status_and_trend_estimates&#45;&gt;lsp_status_trend_summary_db_file -->
<g id="edge23" class="edge"><title>save_year_by_year_status_and_trend_estimates&#45;&gt;lsp_status_trend_summary_db_file</title>
<path fill="none" stroke="black" d="M444,-152.34C444,-144.605 444,-135.279 444,-126.568"/>
<polygon fill="black" stroke="black" points="447.5,-126.396 444,-116.396 440.5,-126.396 447.5,-126.396"/>
</g>
<!-- setup_R -->
<g id="node9" class="node"><title>setup_R</title>
<path fill="#ffe4b5" stroke="black" d="M463,-659.7C463,-659.7 493,-659.7 493,-659.7 499,-659.7 505,-665.7 505,-671.7 505,-671.7 505,-685.3 505,-685.3 505,-691.3 499,-697.3 493,-697.3 493,-697.3 463,-697.3 463,-697.3 457,-697.3 451,-691.3 451,-685.3 451,-685.3 451,-671.7 451,-671.7 451,-665.7 457,-659.7 463,-659.7"/>
<text text-anchor="middle" x="477.897" y="-685.2" font-family="Courier,monospace" font-weight="bold" font-size="9.00">setup_R</text>
<polyline fill="none" stroke="black" points="451,-678.5 504.794,-678.5 "/>
<text text-anchor="middle" x="477.897" y="-666.4" font-family="Courier,monospace" font-weight="bold" font-size="9.00"> </text>
</g>
<!-- setup_R&#45;&gt;set_up_configuration_and_start_provenance_tracking -->
<g id="edge1" class="edge"><title>setup_R&#45;&gt;set_up_configuration_and_start_provenance_tracking</title>
<path fill="none" stroke="black" d="M450.96,-665.886C426.67,-655.453 390.413,-639.88 361.024,-627.257"/>
<polygon fill="black" stroke="black" points="362.317,-624.003 351.747,-623.272 359.554,-630.435 362.317,-624.003"/>
</g>
<!-- area_protected_total_file -->
<g id="node10" class="node"><title>area_protected_total_file</title>
<path fill="#ffe4b5" stroke="black" d="M631.22,-369.1C631.22,-369.1 860.78,-369.1 860.78,-369.1 866.78,-369.1 872.78,-375.1 872.78,-381.1 872.78,-381.1 872.78,-394.7 872.78,-394.7 872.78,-400.7 866.78,-406.7 860.78,-406.7 860.78,-406.7 631.22,-406.7 631.22,-406.7 625.22,-406.7 619.22,-400.7 619.22,-394.7 619.22,-394.7 619.22,-381.1 619.22,-381.1 619.22,-375.1 625.22,-369.1 631.22,-369.1"/>
<text text-anchor="middle" x="746" y="-394.6" font-family="Courier,monospace" font-weight="bold" font-size="9.00">area_protected_total_file</text>
<polyline fill="none" stroke="black" points="619.22,-387.9 872.78,-387.9 "/>
<text text-anchor="start" x="627.22" y="-375.8" font-family="Courier,monospace" font-weight="bold" font-size="9.00">prep/lsp/vHS/output/area_protected_total.csv</text>
</g>
<!-- area_protected_total_file&#45;&gt;output_estimate_status_file_by_region_since_1980 -->
<g id="edge9" class="edge"><title>area_protected_total_file&#45;&gt;output_estimate_status_file_by_region_since_1980</title>
<path fill="none" stroke="black" d="M724.803,-368.908C714.244,-359.945 701.337,-348.99 689.977,-339.347"/>
<polygon fill="black" stroke="black" points="691.922,-336.407 682.033,-332.605 687.392,-341.744 691.922,-336.407"/>
</g>
<!-- area_protected_total_file&#45;&gt;output_estimate_trend_file_by_region_since_1980 -->
<g id="edge10" class="edge"><title>area_protected_total_file&#45;&gt;output_estimate_trend_file_by_region_since_1980</title>
<path fill="none" stroke="black" d="M619.197,-369.412C541.358,-358.678 441.781,-344.945 362.704,-334.039"/>
<polygon fill="black" stroke="black" points="363.058,-330.555 352.674,-332.656 362.102,-337.489 363.058,-330.555"/>
</g>
<!-- dir_goal&#45;&gt;create_new_stats_and_trend_file -->
<g id="edge2" class="edge"><title>dir_goal&#45;&gt;create_new_stats_and_trend_file</title>
<path fill="none" stroke="black" d="M257.124,-514.897C252.008,-506.759 245.805,-496.889 240.155,-487.901"/>
<polygon fill="black" stroke="black" points="243.036,-485.908 234.751,-479.304 237.11,-489.633 243.036,-485.908"/>
</g>
<!-- dir_goal&#45;&gt;output_estimate_status_file_by_region_since_1980 -->
<g id="edge3" class="edge"><title>dir_goal&#45;&gt;output_estimate_status_file_by_region_since_1980</title>
<path fill="none" stroke="black" d="M295.038,-531.617C364.808,-529.532 548.363,-520.186 590,-479.2 625.599,-444.158 587.049,-412.968 610,-368.6 615.543,-357.885 623.982,-347.921 632.46,-339.591"/>
<polygon fill="black" stroke="black" points="634.913,-342.089 639.848,-332.714 630.144,-336.966 634.913,-342.089"/>
</g>
<!-- dir_goal&#45;&gt;output_estimate_trend_file_by_region_since_1980 -->
<g id="edge4" class="edge"><title>dir_goal&#45;&gt;output_estimate_trend_file_by_region_since_1980</title>
<path fill="none" stroke="black" d="M240.784,-528.691C192.917,-521.901 96.8384,-505.293 77,-479.2 35.5719,-424.711 123.584,-367.566 182.2,-337.345"/>
<polygon fill="black" stroke="black" points="183.985,-340.365 191.331,-332.731 180.828,-334.117 183.985,-340.365"/>
</g>
<!-- status_file_handle&#45;&gt;output_estimate_status_file_by_region_since_1980 -->
<g id="edge5" class="edge"><title>status_file_handle&#45;&gt;output_estimate_status_file_by_region_since_1980</title>
<path fill="none" stroke="black" d="M566.941,-369.822C583.67,-360.279 604.718,-348.274 622.753,-337.987"/>
<polygon fill="black" stroke="black" points="624.918,-340.781 631.87,-332.786 621.45,-334.7 624.918,-340.781"/>
</g>
<!-- trend_file_handle&#45;&gt;output_estimate_trend_file_by_region_since_1980 -->
<g id="edge6" class="edge"><title>trend_file_handle&#45;&gt;output_estimate_trend_file_by_region_since_1980</title>
<path fill="none" stroke="black" d="M226.726,-369.64C227.065,-361.583 227.477,-351.8 227.856,-342.784"/>
<polygon fill="black" stroke="black" points="231.357,-342.839 228.28,-332.701 224.363,-342.545 231.357,-342.839"/>
</g>
<!-- year_span&#45;&gt;output_estimate_status_file_by_region_since_1980 -->
<g id="edge7" class="edge"><title>year_span&#45;&gt;output_estimate_status_file_by_region_since_1980</title>
<path fill="none" stroke="black" d="M475.254,-372.242C478.182,-370.948 481.132,-369.71 484,-368.6 516.84,-355.897 554.052,-344.387 585.931,-335.364"/>
<polygon fill="black" stroke="black" points="586.956,-338.712 595.642,-332.645 585.069,-331.971 586.956,-338.712"/>
</g>
<!-- year_span&#45;&gt;output_estimate_trend_file_by_region_since_1980 -->
<g id="edge8" class="edge"><title>year_span&#45;&gt;output_estimate_trend_file_by_region_since_1980</title>
<path fill="none" stroke="black" d="M416.734,-377.284C384.604,-366.727 332.091,-349.473 290.762,-335.893"/>
<polygon fill="black" stroke="black" points="291.647,-332.5 281.055,-332.704 289.462,-339.15 291.647,-332.5"/>
</g>
<!-- status_df_data&#45;&gt;write_status_to_csv_file -->
<g id="edge11" class="edge"><title>status_df_data&#45;&gt;write_status_to_csv_file</title>
<path fill="none" stroke="black" d="M686.952,-224.476C700.042,-215.493 716.26,-204.363 730.436,-194.634"/>
<polygon fill="black" stroke="black" points="732.687,-197.334 738.952,-188.79 728.726,-191.562 732.687,-197.334"/>
</g>
<!-- status_df_data&#45;&gt;save_year_by_year_status_and_trend_estimates -->
<g id="edge12" class="edge"><title>status_df_data&#45;&gt;save_year_by_year_status_and_trend_estimates</title>
<path fill="none" stroke="black" d="M624.027,-229.407C591.776,-219.051 544.832,-203.977 506.967,-191.819"/>
<polygon fill="black" stroke="black" points="507.641,-188.359 497.05,-188.634 505.501,-195.024 507.641,-188.359"/>
</g>
<!-- trend_df_data&#45;&gt;write_trend_to_csv_file -->
<g id="edge13" class="edge"><title>trend_df_data&#45;&gt;write_trend_to_csv_file</title>
<path fill="none" stroke="black" d="M204.537,-224.476C191.704,-215.493 175.804,-204.363 161.906,-194.634"/>
<polygon fill="black" stroke="black" points="163.756,-191.657 153.557,-188.79 159.742,-197.392 163.756,-191.657"/>
</g>
<!-- trend_df_data&#45;&gt;save_year_by_year_status_and_trend_estimates -->
<g id="edge14" class="edge"><title>trend_df_data&#45;&gt;save_year_by_year_status_and_trend_estimates</title>
<path fill="none" stroke="black" d="M264.986,-229.884C296.809,-219.523 343.935,-204.179 381.847,-191.836"/>
<polygon fill="black" stroke="black" points="383.347,-195.028 391.772,-188.604 381.18,-188.372 383.347,-195.028"/>
</g>
<!-- lsp_status_file_outflow -->
<g id="node24" class="node"><title>lsp_status_file_outflow</title>
<ellipse fill="none" stroke="black" cx="476" cy="-31" rx="7" ry="7"/>
</g>
<!-- lsp_status_file&#45;&gt;lsp_status_file_outflow -->
<g id="edge28" class="edge"><title>lsp_status_file&#45;&gt;lsp_status_file_outflow</title>
<path fill="none" stroke="black" d="M645.129,-78.4743C593.077,-64.1712 523.723,-45.1137 492.484,-36.5295"/>
<polygon fill="black" stroke="black" points="493.063,-33.0589 482.493,-33.7841 491.208,-39.8087 493.063,-33.0589"/>
</g>
<!-- lsp_trend_file_outflow -->
<g id="node23" class="node"><title>lsp_trend_file_outflow</title>
<ellipse fill="none" stroke="black" cx="412" cy="-31" rx="7" ry="7"/>
</g>
<!-- lsp_trend_file&#45;&gt;lsp_trend_file_outflow -->
<g id="edge27" class="edge"><title>lsp_trend_file&#45;&gt;lsp_trend_file_outflow</title>
<path fill="none" stroke="black" d="M245.762,-78.4743C296.688,-64.2372 364.464,-45.2893 395.371,-36.6489"/>
<polygon fill="black" stroke="black" points="396.611,-39.9366 405.299,-33.8733 394.726,-33.1951 396.611,-39.9366"/>
</g>
<!-- lsp_status_trend_summary_db_file_outflow -->
<g id="node22" class="node"><title>lsp_status_trend_summary_db_file_outflow</title>
<ellipse fill="none" stroke="black" cx="444" cy="-31" rx="7" ry="7"/>
</g>
<!-- lsp_status_trend_summary_db_file&#45;&gt;lsp_status_trend_summary_db_file_outflow -->
<g id="edge26" class="edge"><title>lsp_status_trend_summary_db_file&#45;&gt;lsp_status_trend_summary_db_file_outflow</title>
<path fill="none" stroke="black" d="M444,-78.3889C444,-68.9828 444,-57.5389 444,-48.3712"/>
<polygon fill="black" stroke="black" points="447.5,-48.3008 444,-38.3008 440.5,-48.3008 447.5,-48.3008"/>
</g>
<!-- setup_R_inflow -->
<g id="node20" class="node"><title>setup_R_inflow</title>
<ellipse fill="none" stroke="black" cx="566" cy="-744.8" rx="7" ry="7"/>
</g>
<!-- setup_R_inflow&#45;&gt;setup_R -->
<g id="edge24" class="edge"><title>setup_R_inflow&#45;&gt;setup_R</title>
<path fill="none" stroke="black" d="M560.759,-739.97C551.068,-732.89 529.639,-717.231 511.014,-703.623"/>
<polygon fill="black" stroke="black" points="512.846,-700.627 502.707,-697.553 508.716,-706.279 512.846,-700.627"/>
</g>
<!-- area_protected_total_file_inflow -->
<g id="node21" class="node"><title>area_protected_total_file_inflow</title>
<ellipse fill="none" stroke="black" cx="598" cy="-744.8" rx="7" ry="7"/>
</g>
<!-- area_protected_total_file_inflow&#45;&gt;area_protected_total_file -->
<g id="edge25" class="edge"><title>area_protected_total_file_inflow&#45;&gt;area_protected_total_file</title>
<path fill="none" stroke="black" d="M603.04,-739.912C621.867,-724.91 687,-668.506 687,-606.2 687,-606.2 687,-606.2 687,-532.2 687,-488.932 710.284,-443.474 727.597,-415.653"/>
<polygon fill="black" stroke="black" points="730.744,-417.23 733.198,-406.923 724.852,-413.45 730.744,-417.23"/>
</g>
</g>
</svg>
