<?xml version="1.0" encoding="UTF-8" standalone="no"?>
<!DOCTYPE svg PUBLIC "-//W3C//DTD SVG 1.1//EN"
 "http://www.w3.org/Graphics/SVG/1.1/DTD/svg11.dtd">
<!-- Generated by graphviz version 2.38.0 (20140413.2041)
 -->
<!-- Title: yw_data_view Pages: 1 -->
<svg width="904pt" height="813pt"
 viewBox="0.00 0.00 904.00 813.40" xmlns="http://www.w3.org/2000/svg" xmlns:xlink="http://www.w3.org/1999/xlink">
<g id="graph0" class="graph" transform="scale(1 1) rotate(0) translate(4 809.4)">
<title>yw_data_view</title>
<polygon fill="white" stroke="none" points="-4,4 -4,-809.4 900,-809.4 900,4 -4,4"/>
<text text-anchor="middle" x="448" y="-785.2" font-family="Courier,monospace" font-size="18.00">estimate_status_and_trend_by_year</text>
<g id="clust1" class="cluster"><title>cluster_workflow</title>
<polygon fill="none" stroke="black" stroke-width="2" points="8,-62 8,-713.8 888,-713.8 888,-62 8,-62"/>
</g>
<g id="clust2" class="cluster"><title>cluster_workflow_inner</title>
<polygon fill="none" stroke="white" stroke-width="2" points="16,-70 16,-705.8 880,-705.8 880,-70 16,-70"/>
</g>
<g id="clust3" class="cluster"><title>cluster_inflows</title>
<polygon fill="none" stroke="white" stroke-width="2" points="542,-721.8 542,-767.8 620,-767.8 620,-721.8 542,-721.8"/>
</g>
<g id="clust4" class="cluster"><title>cluster_inflows_inner</title>
<polygon fill="none" stroke="white" stroke-width="2" points="550,-729.8 550,-759.8 612,-759.8 612,-729.8 550,-729.8"/>
</g>
<g id="clust5" class="cluster"><title>cluster_outflows</title>
<polygon fill="none" stroke="white" stroke-width="2" points="427,-8 427,-54 473,-54 473,-8 427,-8"/>
</g>
<g id="clust6" class="cluster"><title>cluster_outflows_inner</title>
<polygon fill="none" stroke="white" stroke-width="2" points="435,-16 435,-46 465,-46 465,-16 435,-16"/>
</g>
<!-- output_estimate_trend_file_by_region_since_1980 -->
<g id="node1" class="node"><title>output_estimate_trend_file_by_region_since_1980</title>
<polygon fill="#ccffcc" stroke="black" points="872.234,-332.6 461.766,-332.6 461.766,-296.6 872.234,-296.6 872.234,-332.6"/>
<text text-anchor="middle" x="667" y="-310.4" font-family="Courier,monospace" font-size="14.00">output_estimate_trend_file_by_region_since_1980</text>
</g>
<!-- trend_df_data -->
<g id="node12" class="node"><title>trend_df_data</title>
<path fill="#ffffcc" stroke="black" d="M628.376,-260.6C628.376,-260.6 549.624,-260.6 549.624,-260.6 543.624,-260.6 537.624,-254.6 537.624,-248.6 537.624,-248.6 537.624,-236.6 537.624,-236.6 537.624,-230.6 543.624,-224.6 549.624,-224.6 549.624,-224.6 628.376,-224.6 628.376,-224.6 634.376,-224.6 640.376,-230.6 640.376,-236.6 640.376,-236.6 640.376,-248.6 640.376,-248.6 640.376,-254.6 634.376,-260.6 628.376,-260.6"/>
<text text-anchor="middle" x="589" y="-238.4" font-family="Helvetica,sans-Serif" font-size="14.00">trend_df_data</text>
</g>
<!-- output_estimate_trend_file_by_region_since_1980&#45;&gt;trend_df_data -->
<g id="edge18" class="edge"><title>output_estimate_trend_file_by_region_since_1980&#45;&gt;trend_df_data</title>
<path fill="none" stroke="black" d="M647.719,-296.297C638.085,-287.65 626.271,-277.049 615.773,-267.627"/>
<polygon fill="black" stroke="black" points="617.839,-264.779 608.059,-260.704 613.164,-269.988 617.839,-264.779"/>
</g>
<!-- output_estimate_status_file_by_region_since_1980 -->
<g id="node2" class="node"><title>output_estimate_status_file_by_region_since_1980</title>
<polygon fill="#ccffcc" stroke="black" points="443.633,-332.6 24.3672,-332.6 24.3672,-296.6 443.633,-296.6 443.633,-332.6"/>
<text text-anchor="middle" x="234" y="-310.4" font-family="Courier,monospace" font-size="14.00">output_estimate_status_file_by_region_since_1980</text>
</g>
<!-- status_df_data -->
<g id="node11" class="node"><title>status_df_data</title>
<path fill="#ffffcc" stroke="black" d="M352.823,-260.6C352.823,-260.6 269.177,-260.6 269.177,-260.6 263.177,-260.6 257.177,-254.6 257.177,-248.6 257.177,-248.6 257.177,-236.6 257.177,-236.6 257.177,-230.6 263.177,-224.6 269.177,-224.6 269.177,-224.6 352.823,-224.6 352.823,-224.6 358.823,-224.6 364.823,-230.6 364.823,-236.6 364.823,-236.6 364.823,-248.6 364.823,-248.6 364.823,-254.6 358.823,-260.6 352.823,-260.6"/>
<text text-anchor="middle" x="311" y="-238.4" font-family="Helvetica,sans-Serif" font-size="14.00">status_df_data</text>
</g>
<!-- output_estimate_status_file_by_region_since_1980&#45;&gt;status_df_data -->
<g id="edge17" class="edge"><title>output_estimate_status_file_by_region_since_1980&#45;&gt;status_df_data</title>
<path fill="none" stroke="black" d="M253.034,-296.297C262.545,-287.65 274.207,-277.049 284.57,-267.627"/>
<polygon fill="black" stroke="black" points="287.14,-270.021 292.185,-260.704 282.431,-264.841 287.14,-270.021"/>
</g>
<!-- define_param_year_span -->
<g id="node3" class="node"><title>define_param_year_span</title>
<polygon fill="#ccffcc" stroke="black" points="580.269,-479.2 379.731,-479.2 379.731,-443.2 580.269,-443.2 580.269,-479.2"/>
<text text-anchor="middle" x="480" y="-457" font-family="Courier,monospace" font-size="14.00">define_param_year_span</text>
</g>
<!-- year_span -->
<g id="node10" class="node"><title>year_span</title>
<path fill="#ffffcc" stroke="black" d="M426.857,-405.9C426.857,-405.9 369.143,-405.9 369.143,-405.9 363.143,-405.9 357.143,-399.9 357.143,-393.9 357.143,-393.9 357.143,-381.9 357.143,-381.9 357.143,-375.9 363.143,-369.9 369.143,-369.9 369.143,-369.9 426.857,-369.9 426.857,-369.9 432.857,-369.9 438.857,-375.9 438.857,-381.9 438.857,-381.9 438.857,-393.9 438.857,-393.9 438.857,-399.9 432.857,-405.9 426.857,-405.9"/>
<text text-anchor="middle" x="398" y="-383.7" font-family="Helvetica,sans-Serif" font-size="14.00">year_span</text>
</g>
<!-- define_param_year_span&#45;&gt;year_span -->
<g id="edge16" class="edge"><title>define_param_year_span&#45;&gt;year_span</title>
<path fill="none" stroke="black" d="M460.15,-442.94C449.675,-433.832 436.663,-422.518 425.257,-412.6"/>
<polygon fill="black" stroke="black" points="427.51,-409.921 417.667,-406.001 422.917,-415.204 427.51,-409.921"/>
</g>
<!-- create_new_stats_and_trend_file -->
<g id="node4" class="node"><title>create_new_stats_and_trend_file</title>
<polygon fill="#ccffcc" stroke="black" points="361.357,-479.2 84.6432,-479.2 84.6432,-443.2 361.357,-443.2 361.357,-479.2"/>
<text text-anchor="middle" x="223" y="-457" font-family="Courier,monospace" font-size="14.00">create_new_stats_and_trend_file</text>
</g>
<!-- status_file_handle -->
<g id="node8" class="node"><title>status_file_handle</title>
<path fill="#ffffcc" stroke="black" d="M280.318,-405.9C280.318,-405.9 175.682,-405.9 175.682,-405.9 169.682,-405.9 163.682,-399.9 163.682,-393.9 163.682,-393.9 163.682,-381.9 163.682,-381.9 163.682,-375.9 169.682,-369.9 175.682,-369.9 175.682,-369.9 280.318,-369.9 280.318,-369.9 286.318,-369.9 292.318,-375.9 292.318,-381.9 292.318,-381.9 292.318,-393.9 292.318,-393.9 292.318,-399.9 286.318,-405.9 280.318,-405.9"/>
<text text-anchor="middle" x="228" y="-383.7" font-family="Helvetica,sans-Serif" font-size="14.00">status_file_handle</text>
</g>
<!-- create_new_stats_and_trend_file&#45;&gt;status_file_handle -->
<g id="edge14" class="edge"><title>create_new_stats_and_trend_file&#45;&gt;status_file_handle</title>
<path fill="none" stroke="black" d="M224.21,-442.94C224.775,-434.883 225.461,-425.1 226.094,-416.084"/>
<polygon fill="black" stroke="black" points="229.593,-416.221 226.801,-406.001 222.61,-415.731 229.593,-416.221"/>
</g>
<!-- trend_file_handle -->
<g id="node9" class="node"><title>trend_file_handle</title>
<path fill="#ffffcc" stroke="black" d="M567.871,-405.9C567.871,-405.9 468.129,-405.9 468.129,-405.9 462.129,-405.9 456.129,-399.9 456.129,-393.9 456.129,-393.9 456.129,-381.9 456.129,-381.9 456.129,-375.9 462.129,-369.9 468.129,-369.9 468.129,-369.9 567.871,-369.9 567.871,-369.9 573.871,-369.9 579.871,-375.9 579.871,-381.9 579.871,-381.9 579.871,-393.9 579.871,-393.9 579.871,-399.9 573.871,-405.9 567.871,-405.9"/>
<text text-anchor="middle" x="518" y="-383.7" font-family="Helvetica,sans-Serif" font-size="14.00">trend_file_handle</text>
</g>
<!-- create_new_stats_and_trend_file&#45;&gt;trend_file_handle -->
<g id="edge15" class="edge"><title>create_new_stats_and_trend_file&#45;&gt;trend_file_handle</title>
<path fill="none" stroke="black" d="M297.342,-443.168C338.752,-433.568 391.482,-421.159 446.291,-407.602"/>
<polygon fill="black" stroke="black" points="447.321,-410.952 456.184,-405.148 445.636,-404.158 447.321,-410.952"/>
</g>
<!-- set_up_configuration_and_start_provenance_tracking -->
<g id="node5" class="node"><title>set_up_configuration_and_start_provenance_tracking</title>
<polygon fill="#ccffcc" stroke="black" points="529.93,-623.2 94.07,-623.2 94.07,-587.2 529.93,-587.2 529.93,-623.2"/>
<text text-anchor="middle" x="312" y="-601" font-family="Courier,monospace" font-size="14.00">set_up_configuration_and_start_provenance_tracking</text>
</g>
<!-- dir_goal -->
<g id="node7" class="node"><title>dir_goal</title>
<path fill="#ffffcc" stroke="black" d="M288.787,-551.2C288.787,-551.2 247.213,-551.2 247.213,-551.2 241.213,-551.2 235.213,-545.2 235.213,-539.2 235.213,-539.2 235.213,-527.2 235.213,-527.2 235.213,-521.2 241.213,-515.2 247.213,-515.2 247.213,-515.2 288.787,-515.2 288.787,-515.2 294.787,-515.2 300.787,-521.2 300.787,-527.2 300.787,-527.2 300.787,-539.2 300.787,-539.2 300.787,-545.2 294.787,-551.2 288.787,-551.2"/>
<text text-anchor="middle" x="268" y="-529" font-family="Helvetica,sans-Serif" font-size="14.00">dir_goal</text>
</g>
<!-- set_up_configuration_and_start_provenance_tracking&#45;&gt;dir_goal -->
<g id="edge13" class="edge"><title>set_up_configuration_and_start_provenance_tracking&#45;&gt;dir_goal</title>
<path fill="none" stroke="black" d="M301.124,-586.897C296.008,-578.759 289.805,-568.889 284.155,-559.901"/>
<polygon fill="black" stroke="black" points="287.036,-557.908 278.751,-551.304 281.11,-561.633 287.036,-557.908"/>
</g>
<!-- save_year_by_year_status_and_trend_estimates -->
<g id="node6" class="node"><title>save_year_by_year_status_and_trend_estimates</title>
<polygon fill="#ccffcc" stroke="black" points="642.539,-188.6 257.461,-188.6 257.461,-152.6 642.539,-152.6 642.539,-188.6"/>
<text text-anchor="middle" x="450" y="-166.4" font-family="Courier,monospace" font-size="14.00">save_year_by_year_status_and_trend_estimates</text>
</g>
<!-- lsp_status_trend_summary_db_file -->
<g id="node15" class="node"><title>lsp_status_trend_summary_db_file</title>
<path fill="#ffe4b5" stroke="black" d="M367.614,-78.5C367.614,-78.5 532.386,-78.5 532.386,-78.5 538.386,-78.5 544.386,-84.5 544.386,-90.5 544.386,-90.5 544.386,-104.1 544.386,-104.1 544.386,-110.1 538.386,-116.1 532.386,-116.1 532.386,-116.1 367.614,-116.1 367.614,-116.1 361.614,-116.1 355.614,-110.1 355.614,-104.1 355.614,-104.1 355.614,-90.5 355.614,-90.5 355.614,-84.5 361.614,-78.5 367.614,-78.5"/>
<text text-anchor="middle" x="450" y="-104" font-family="Courier,monospace" font-weight="bold" font-size="9.00">lsp_status_trend_summary_db_file</text>
<polyline fill="none" stroke="black" points="355.614,-97.3 544.386,-97.3 "/>
<text text-anchor="middle" x="450" y="-85.2" font-family="Courier,monospace" font-weight="bold" font-size="9.00"> </text>
</g>
<!-- save_year_by_year_status_and_trend_estimates&#45;&gt;lsp_status_trend_summary_db_file -->
<g id="edge19" class="edge"><title>save_year_by_year_status_and_trend_estimates&#45;&gt;lsp_status_trend_summary_db_file</title>
<path fill="none" stroke="black" d="M450,-152.34C450,-144.605 450,-135.279 450,-126.568"/>
<polygon fill="black" stroke="black" points="453.5,-126.396 450,-116.396 446.5,-126.396 453.5,-126.396"/>
</g>
<!-- dir_goal&#45;&gt;output_estimate_trend_file_by_region_since_1980 -->
<g id="edge9" class="edge"><title>dir_goal&#45;&gt;output_estimate_trend_file_by_region_since_1980</title>
<path fill="none" stroke="black" d="M301.031,-531.409C374.603,-528.939 548.656,-518.933 589,-479.2 624.591,-444.149 584.848,-412.326 609,-368.6 615.131,-357.5 624.459,-347.472 633.852,-339.201"/>
<polygon fill="black" stroke="black" points="636.239,-341.768 641.69,-332.683 631.763,-336.387 636.239,-341.768"/>
</g>
<!-- dir_goal&#45;&gt;output_estimate_status_file_by_region_since_1980 -->
<g id="edge10" class="edge"><title>dir_goal&#45;&gt;output_estimate_status_file_by_region_since_1980</title>
<path fill="none" stroke="black" d="M235.149,-527.929C185.535,-520.729 95.2193,-504.443 76,-479.2 33.796,-423.767 124.824,-367.03 185.478,-337.12"/>
<polygon fill="black" stroke="black" points="187.078,-340.234 194.557,-332.729 184.03,-333.932 187.078,-340.234"/>
</g>
<!-- dir_goal&#45;&gt;create_new_stats_and_trend_file -->
<g id="edge11" class="edge"><title>dir_goal&#45;&gt;create_new_stats_and_trend_file</title>
<path fill="none" stroke="black" d="M256.876,-514.897C251.645,-506.759 245.3,-496.889 239.522,-487.901"/>
<polygon fill="black" stroke="black" points="242.347,-485.823 233.996,-479.304 236.459,-489.609 242.347,-485.823"/>
</g>
<!-- status_file_handle&#45;&gt;output_estimate_status_file_by_region_since_1980 -->
<g id="edge8" class="edge"><title>status_file_handle&#45;&gt;output_estimate_status_file_by_region_since_1980</title>
<path fill="none" stroke="black" d="M229.452,-369.64C230.13,-361.583 230.954,-351.8 231.712,-342.784"/>
<polygon fill="black" stroke="black" points="235.21,-342.959 232.561,-332.701 228.235,-342.372 235.21,-342.959"/>
</g>
<!-- trend_file_handle&#45;&gt;output_estimate_trend_file_by_region_since_1980 -->
<g id="edge7" class="edge"><title>trend_file_handle&#45;&gt;output_estimate_trend_file_by_region_since_1980</title>
<path fill="none" stroke="black" d="M553.689,-369.822C574.255,-359.981 600.295,-347.52 622.225,-337.026"/>
<polygon fill="black" stroke="black" points="623.834,-340.136 631.344,-332.662 620.813,-333.822 623.834,-340.136"/>
</g>
<!-- year_span&#45;&gt;output_estimate_trend_file_by_region_since_1980 -->
<g id="edge5" class="edge"><title>year_span&#45;&gt;output_estimate_trend_file_by_region_since_1980</title>
<path fill="none" stroke="black" d="M438.78,-371.249C441.55,-370.316 444.308,-369.424 447,-368.6 488.993,-355.752 536.257,-344.019 576.183,-334.878"/>
<polygon fill="black" stroke="black" points="577.192,-338.238 586.169,-332.61 575.642,-331.412 577.192,-338.238"/>
</g>
<!-- year_span&#45;&gt;output_estimate_status_file_by_region_since_1980 -->
<g id="edge6" class="edge"><title>year_span&#45;&gt;output_estimate_status_file_by_region_since_1980</title>
<path fill="none" stroke="black" d="M358.718,-369.822C335.88,-359.893 306.908,-347.297 282.637,-336.745"/>
<polygon fill="black" stroke="black" points="283.812,-333.44 273.245,-332.662 281.021,-339.859 283.812,-333.44"/>
</g>
<!-- status_df_data&#45;&gt;save_year_by_year_status_and_trend_estimates -->
<g id="edge2" class="edge"><title>status_df_data&#45;&gt;save_year_by_year_status_and_trend_estimates</title>
<path fill="none" stroke="black" d="M345.003,-224.476C363.598,-215.112 386.827,-203.414 406.706,-193.403"/>
<polygon fill="black" stroke="black" points="408.509,-196.414 415.866,-188.79 405.36,-190.162 408.509,-196.414"/>
</g>
<!-- trend_df_data&#45;&gt;save_year_by_year_status_and_trend_estimates -->
<g id="edge1" class="edge"><title>trend_df_data&#45;&gt;save_year_by_year_status_and_trend_estimates</title>
<path fill="none" stroke="black" d="M554.997,-224.476C536.402,-215.112 513.173,-203.414 493.294,-193.403"/>
<polygon fill="black" stroke="black" points="494.64,-190.162 484.134,-188.79 491.491,-196.414 494.64,-190.162"/>
</g>
<!-- setup_R -->
<g id="node13" class="node"><title>setup_R</title>
<path fill="#ffe4b5" stroke="black" d="M462,-659.7C462,-659.7 492,-659.7 492,-659.7 498,-659.7 504,-665.7 504,-671.7 504,-671.7 504,-685.3 504,-685.3 504,-691.3 498,-697.3 492,-697.3 492,-697.3 462,-697.3 462,-697.3 456,-697.3 450,-691.3 450,-685.3 450,-685.3 450,-671.7 450,-671.7 450,-665.7 456,-659.7 462,-659.7"/>
<text text-anchor="middle" x="476.897" y="-685.2" font-family="Courier,monospace" font-weight="bold" font-size="9.00">setup_R</text>
<polyline fill="none" stroke="black" points="450,-678.5 503.794,-678.5 "/>
<text text-anchor="middle" x="476.897" y="-666.4" font-family="Courier,monospace" font-weight="bold" font-size="9.00"> </text>
</g>
<!-- setup_R&#45;&gt;set_up_configuration_and_start_provenance_tracking -->
<g id="edge12" class="edge"><title>setup_R&#45;&gt;set_up_configuration_and_start_provenance_tracking</title>
<path fill="none" stroke="black" d="M449.754,-665.726C425.741,-655.35 390.169,-639.979 361.189,-627.456"/>
<polygon fill="black" stroke="black" points="362.208,-624.083 351.64,-623.329 359.431,-630.509 362.208,-624.083"/>
</g>
<!-- area_protected_total_file -->
<g id="node14" class="node"><title>area_protected_total_file</title>
<path fill="#ffe4b5" stroke="black" d="M630.22,-369.1C630.22,-369.1 859.78,-369.1 859.78,-369.1 865.78,-369.1 871.78,-375.1 871.78,-381.1 871.78,-381.1 871.78,-394.7 871.78,-394.7 871.78,-400.7 865.78,-406.7 859.78,-406.7 859.78,-406.7 630.22,-406.7 630.22,-406.7 624.22,-406.7 618.22,-400.7 618.22,-394.7 618.22,-394.7 618.22,-381.1 618.22,-381.1 618.22,-375.1 624.22,-369.1 630.22,-369.1"/>
<text text-anchor="middle" x="745" y="-394.6" font-family="Courier,monospace" font-weight="bold" font-size="9.00">area_protected_total_file</text>
<polyline fill="none" stroke="black" points="618.22,-387.9 871.78,-387.9 "/>
<text text-anchor="start" x="626.22" y="-375.8" font-family="Courier,monospace" font-weight="bold" font-size="9.00">prep/lsp/vHS/output/area_protected_total.csv</text>
</g>
<!-- area_protected_total_file&#45;&gt;output_estimate_trend_file_by_region_since_1980 -->
<g id="edge3" class="edge"><title>area_protected_total_file&#45;&gt;output_estimate_trend_file_by_region_since_1980</title>
<path fill="none" stroke="black" d="M725.317,-368.908C715.607,-360.032 703.76,-349.202 693.286,-339.628"/>
<polygon fill="black" stroke="black" points="695.345,-336.768 685.602,-332.605 690.622,-341.935 695.345,-336.768"/>
</g>
<!-- area_protected_total_file&#45;&gt;output_estimate_status_file_by_region_since_1980 -->
<g id="edge4" class="edge"><title>area_protected_total_file&#45;&gt;output_estimate_status_file_by_region_since_1980</title>
<path fill="none" stroke="black" d="M618.029,-369.184C541.367,-358.487 443.832,-344.878 366.241,-334.052"/>
<polygon fill="black" stroke="black" points="366.302,-330.526 355.914,-332.611 365.334,-337.459 366.302,-330.526"/>
</g>
<!-- lsp_status_trend_summary_db_file_outflow -->
<g id="node18" class="node"><title>lsp_status_trend_summary_db_file_outflow</title>
<ellipse fill="none" stroke="black" cx="450" cy="-31" rx="7" ry="7"/>
</g>
<!-- lsp_status_trend_summary_db_file&#45;&gt;lsp_status_trend_summary_db_file_outflow -->
<g id="edge22" class="edge"><title>lsp_status_trend_summary_db_file&#45;&gt;lsp_status_trend_summary_db_file_outflow</title>
<path fill="none" stroke="black" d="M450,-78.3889C450,-68.9828 450,-57.5389 450,-48.3712"/>
<polygon fill="black" stroke="black" points="453.5,-48.3008 450,-38.3008 446.5,-48.3008 453.5,-48.3008"/>
</g>
<!-- setup_R_inflow -->
<g id="node16" class="node"><title>setup_R_inflow</title>
<ellipse fill="none" stroke="black" cx="565" cy="-744.8" rx="7" ry="7"/>
</g>
<!-- setup_R_inflow&#45;&gt;setup_R -->
<g id="edge20" class="edge"><title>setup_R_inflow&#45;&gt;setup_R</title>
<path fill="none" stroke="black" d="M559.759,-739.97C550.068,-732.89 528.639,-717.231 510.014,-703.623"/>
<polygon fill="black" stroke="black" points="511.846,-700.627 501.707,-697.553 507.716,-706.279 511.846,-700.627"/>
</g>
<!-- area_protected_total_file_inflow -->
<g id="node17" class="node"><title>area_protected_total_file_inflow</title>
<ellipse fill="none" stroke="black" cx="597" cy="-744.8" rx="7" ry="7"/>
</g>
<!-- area_protected_total_file_inflow&#45;&gt;area_protected_total_file -->
<g id="edge21" class="edge"><title>area_protected_total_file_inflow&#45;&gt;area_protected_total_file</title>
<path fill="none" stroke="black" d="M602.04,-739.912C620.867,-724.91 686,-668.506 686,-606.2 686,-606.2 686,-606.2 686,-532.2 686,-488.932 709.284,-443.474 726.597,-415.653"/>
<polygon fill="black" stroke="black" points="729.744,-417.23 732.198,-406.923 723.852,-413.45 729.744,-417.23"/>
</g>
</g>
</svg>
