<?xml version="1.0" encoding="UTF-8" standalone="no"?>
<!DOCTYPE svg PUBLIC "-//W3C//DTD SVG 1.1//EN"
 "http://www.w3.org/Graphics/SVG/1.1/DTD/svg11.dtd">
<!-- Generated by graphviz version 2.38.0 (20140413.2041)
 -->
<!-- Title: yw_data_view Pages: 1 -->
<svg width="904pt" height="806pt"
 viewBox="0.00 0.00 904.00 805.60" xmlns="http://www.w3.org/2000/svg" xmlns:xlink="http://www.w3.org/1999/xlink">
<g id="graph0" class="graph" transform="scale(1 1) rotate(0) translate(4 801.6)">
<title>yw_data_view</title>
<polygon fill="white" stroke="none" points="-4,4 -4,-801.6 900,-801.6 900,4 -4,4"/>
<text text-anchor="middle" x="448" y="-777.4" font-family="Courier,monospace" font-size="18.00">estimate_status_and_trend_by_year</text>
<g id="clust1" class="cluster"><title>cluster_workflow</title>
<polygon fill="none" stroke="black" stroke-width="2" points="8,-62 8,-706 888,-706 888,-62 8,-62"/>
</g>
<g id="clust2" class="cluster"><title>cluster_workflow_inner</title>
<polygon fill="none" stroke="white" stroke-width="2" points="16,-70 16,-698 880,-698 880,-70 16,-70"/>
</g>
<g id="clust3" class="cluster"><title>cluster_inflows</title>
<polygon fill="none" stroke="white" stroke-width="2" points="562,-714 562,-760 640,-760 640,-714 562,-714"/>
</g>
<g id="clust4" class="cluster"><title>cluster_inflows_inner</title>
<polygon fill="none" stroke="white" stroke-width="2" points="570,-722 570,-752 632,-752 632,-722 570,-722"/>
</g>
<g id="clust5" class="cluster"><title>cluster_outflows</title>
<polygon fill="none" stroke="white" stroke-width="2" points="427,-8 427,-54 473,-54 473,-8 427,-8"/>
</g>
<g id="clust6" class="cluster"><title>cluster_outflows_inner</title>
<polygon fill="none" stroke="white" stroke-width="2" points="435,-16 435,-46 465,-46 465,-16 435,-16"/>
</g>
<!-- output_estimate_trend_file_by_region_since_1980 -->
<g id="node1" class="node"><title>output_estimate_trend_file_by_region_since_1980</title>
<polygon fill="#ccffcc" stroke="black" points="872.234,-330 461.766,-330 461.766,-294 872.234,-294 872.234,-330"/>
<text text-anchor="middle" x="667" y="-307.8" font-family="Courier,monospace" font-size="14.00">output_estimate_trend_file_by_region_since_1980</text>
</g>
<!-- trend_df_data -->
<g id="node14" class="node"><title>trend_df_data</title>
<path fill="#ffffcc" stroke="black" d="M628.376,-258C628.376,-258 549.624,-258 549.624,-258 543.624,-258 537.624,-252 537.624,-246 537.624,-246 537.624,-234 537.624,-234 537.624,-228 543.624,-222 549.624,-222 549.624,-222 628.376,-222 628.376,-222 634.376,-222 640.376,-228 640.376,-234 640.376,-234 640.376,-246 640.376,-246 640.376,-252 634.376,-258 628.376,-258"/>
<text text-anchor="middle" x="589" y="-235.8" font-family="Helvetica,sans-Serif" font-size="14.00">trend_df_data</text>
</g>
<!-- output_estimate_trend_file_by_region_since_1980&#45;&gt;trend_df_data -->
<g id="edge18" class="edge"><title>output_estimate_trend_file_by_region_since_1980&#45;&gt;trend_df_data</title>
<path fill="none" stroke="black" d="M647.719,-293.697C638.085,-285.05 626.271,-274.449 615.773,-265.027"/>
<polygon fill="black" stroke="black" points="617.839,-262.179 608.059,-258.104 613.164,-267.388 617.839,-262.179"/>
</g>
<!-- output_estimate_status_file_by_region_since_1980 -->
<g id="node2" class="node"><title>output_estimate_status_file_by_region_since_1980</title>
<polygon fill="#ccffcc" stroke="black" points="443.633,-330 24.3672,-330 24.3672,-294 443.633,-294 443.633,-330"/>
<text text-anchor="middle" x="234" y="-307.8" font-family="Courier,monospace" font-size="14.00">output_estimate_status_file_by_region_since_1980</text>
</g>
<!-- status_df_data -->
<g id="node13" class="node"><title>status_df_data</title>
<path fill="#ffffcc" stroke="black" d="M352.823,-258C352.823,-258 269.177,-258 269.177,-258 263.177,-258 257.177,-252 257.177,-246 257.177,-246 257.177,-234 257.177,-234 257.177,-228 263.177,-222 269.177,-222 269.177,-222 352.823,-222 352.823,-222 358.823,-222 364.823,-228 364.823,-234 364.823,-234 364.823,-246 364.823,-246 364.823,-252 358.823,-258 352.823,-258"/>
<text text-anchor="middle" x="311" y="-235.8" font-family="Helvetica,sans-Serif" font-size="14.00">status_df_data</text>
</g>
<!-- output_estimate_status_file_by_region_since_1980&#45;&gt;status_df_data -->
<g id="edge17" class="edge"><title>output_estimate_status_file_by_region_since_1980&#45;&gt;status_df_data</title>
<path fill="none" stroke="black" d="M253.034,-293.697C262.545,-285.05 274.207,-274.449 284.57,-265.027"/>
<polygon fill="black" stroke="black" points="287.14,-267.421 292.185,-258.104 282.431,-262.241 287.14,-267.421"/>
</g>
<!-- define_param_year_span -->
<g id="node3" class="node"><title>define_param_year_span</title>
<polygon fill="#ccffcc" stroke="black" points="633.269,-474 432.731,-474 432.731,-438 633.269,-438 633.269,-474"/>
<text text-anchor="middle" x="533" y="-451.8" font-family="Courier,monospace" font-size="14.00">define_param_year_span</text>
</g>
<!-- year_span -->
<g id="node11" class="node"><title>year_span</title>
<path fill="#ffffcc" stroke="black" d="M479.857,-402C479.857,-402 422.143,-402 422.143,-402 416.143,-402 410.143,-396 410.143,-390 410.143,-390 410.143,-378 410.143,-378 410.143,-372 416.143,-366 422.143,-366 422.143,-366 479.857,-366 479.857,-366 485.857,-366 491.857,-372 491.857,-378 491.857,-378 491.857,-390 491.857,-390 491.857,-396 485.857,-402 479.857,-402"/>
<text text-anchor="middle" x="451" y="-379.8" font-family="Helvetica,sans-Serif" font-size="14.00">year_span</text>
</g>
<!-- define_param_year_span&#45;&gt;year_span -->
<g id="edge16" class="edge"><title>define_param_year_span&#45;&gt;year_span</title>
<path fill="none" stroke="black" d="M512.73,-437.697C502.502,-428.965 489.939,-418.24 478.822,-408.75"/>
<polygon fill="black" stroke="black" points="480.915,-405.935 471.037,-402.104 476.37,-411.259 480.915,-405.935"/>
</g>
<!-- create_new_stats_and_trend_file -->
<g id="node4" class="node"><title>create_new_stats_and_trend_file</title>
<polygon fill="#ccffcc" stroke="black" points="414.357,-474 137.643,-474 137.643,-438 414.357,-438 414.357,-474"/>
<text text-anchor="middle" x="276" y="-451.8" font-family="Courier,monospace" font-size="14.00">create_new_stats_and_trend_file</text>
</g>
<!-- status_file_handle -->
<g id="node9" class="node"><title>status_file_handle</title>
<path fill="#ffffcc" stroke="black" d="M300.318,-402C300.318,-402 195.682,-402 195.682,-402 189.682,-402 183.682,-396 183.682,-390 183.682,-390 183.682,-378 183.682,-378 183.682,-372 189.682,-366 195.682,-366 195.682,-366 300.318,-366 300.318,-366 306.318,-366 312.318,-372 312.318,-378 312.318,-378 312.318,-390 312.318,-390 312.318,-396 306.318,-402 300.318,-402"/>
<text text-anchor="middle" x="248" y="-379.8" font-family="Helvetica,sans-Serif" font-size="14.00">status_file_handle</text>
</g>
<!-- create_new_stats_and_trend_file&#45;&gt;status_file_handle -->
<g id="edge14" class="edge"><title>create_new_stats_and_trend_file&#45;&gt;status_file_handle</title>
<path fill="none" stroke="black" d="M269.079,-437.697C265.925,-429.813 262.122,-420.304 258.619,-411.546"/>
<polygon fill="black" stroke="black" points="261.805,-410.089 254.842,-402.104 255.306,-412.689 261.805,-410.089"/>
</g>
<!-- trend_file_handle -->
<g id="node10" class="node"><title>trend_file_handle</title>
<path fill="#ffffcc" stroke="black" d="M620.871,-402C620.871,-402 521.129,-402 521.129,-402 515.129,-402 509.129,-396 509.129,-390 509.129,-390 509.129,-378 509.129,-378 509.129,-372 515.129,-366 521.129,-366 521.129,-366 620.871,-366 620.871,-366 626.871,-366 632.871,-372 632.871,-378 632.871,-378 632.871,-390 632.871,-390 632.871,-396 626.871,-402 620.871,-402"/>
<text text-anchor="middle" x="571" y="-379.8" font-family="Helvetica,sans-Serif" font-size="14.00">trend_file_handle</text>
</g>
<!-- create_new_stats_and_trend_file&#45;&gt;trend_file_handle -->
<g id="edge15" class="edge"><title>create_new_stats_and_trend_file&#45;&gt;trend_file_handle</title>
<path fill="none" stroke="black" d="M348.989,-437.942C390.537,-428.2 443.82,-415.654 499.177,-402.429"/>
<polygon fill="black" stroke="black" points="500.257,-405.77 509.169,-400.041 498.629,-398.962 500.257,-405.77"/>
</g>
<!-- set_up_configuration_and_start_provenance_tracking -->
<g id="node5" class="node"><title>set_up_configuration_and_start_provenance_tracking</title>
<polygon fill="#ccffcc" stroke="black" points="534.93,-618 99.07,-618 99.07,-582 534.93,-582 534.93,-618"/>
<text text-anchor="middle" x="317" y="-595.8" font-family="Courier,monospace" font-size="14.00">set_up_configuration_and_start_provenance_tracking</text>
</g>
<!-- dir_goal -->
<g id="node8" class="node"><title>dir_goal</title>
<path fill="#ffffcc" stroke="black" d="M310.787,-546C310.787,-546 269.213,-546 269.213,-546 263.213,-546 257.213,-540 257.213,-534 257.213,-534 257.213,-522 257.213,-522 257.213,-516 263.213,-510 269.213,-510 269.213,-510 310.787,-510 310.787,-510 316.787,-510 322.787,-516 322.787,-522 322.787,-522 322.787,-534 322.787,-534 322.787,-540 316.787,-546 310.787,-546"/>
<text text-anchor="middle" x="290" y="-523.8" font-family="Helvetica,sans-Serif" font-size="14.00">dir_goal</text>
</g>
<!-- set_up_configuration_and_start_provenance_tracking&#45;&gt;dir_goal -->
<g id="edge13" class="edge"><title>set_up_configuration_and_start_provenance_tracking&#45;&gt;dir_goal</title>
<path fill="none" stroke="black" d="M310.326,-581.697C307.285,-573.813 303.617,-564.304 300.239,-555.546"/>
<polygon fill="black" stroke="black" points="303.462,-554.175 296.597,-546.104 296.931,-556.694 303.462,-554.175"/>
</g>
<!-- save_year_by_year_status_and_trend_estimates -->
<g id="node6" class="node"><title>save_year_by_year_status_and_trend_estimates</title>
<polygon fill="#ccffcc" stroke="black" points="642.539,-186 257.461,-186 257.461,-150 642.539,-150 642.539,-186"/>
<text text-anchor="middle" x="450" y="-163.8" font-family="Courier,monospace" font-size="14.00">save_year_by_year_status_and_trend_estimates</text>
</g>
<!-- lsp_status_trend_summary_db_file -->
<g id="node15" class="node"><title>lsp_status_trend_summary_db_file</title>
<path fill="#ffffcc" stroke="black" d="M554.546,-114C554.546,-114 345.454,-114 345.454,-114 339.454,-114 333.454,-108 333.454,-102 333.454,-102 333.454,-90 333.454,-90 333.454,-84 339.454,-78 345.454,-78 345.454,-78 554.546,-78 554.546,-78 560.546,-78 566.546,-84 566.546,-90 566.546,-90 566.546,-102 566.546,-102 566.546,-108 560.546,-114 554.546,-114"/>
<text text-anchor="middle" x="450" y="-91.8" font-family="Helvetica,sans-Serif" font-size="14.00">lsp_status_trend_summary_db_file</text>
</g>
<!-- save_year_by_year_status_and_trend_estimates&#45;&gt;lsp_status_trend_summary_db_file -->
<g id="edge19" class="edge"><title>save_year_by_year_status_and_trend_estimates&#45;&gt;lsp_status_trend_summary_db_file</title>
<path fill="none" stroke="black" d="M450,-149.697C450,-141.983 450,-132.712 450,-124.112"/>
<polygon fill="black" stroke="black" points="453.5,-124.104 450,-114.104 446.5,-124.104 453.5,-124.104"/>
</g>
<!-- setup_R -->
<g id="node7" class="node"><title>setup_R</title>
<path fill="#ffffcc" stroke="black" d="M506.128,-690C506.128,-690 461.872,-690 461.872,-690 455.872,-690 449.872,-684 449.872,-678 449.872,-678 449.872,-666 449.872,-666 449.872,-660 455.872,-654 461.872,-654 461.872,-654 506.128,-654 506.128,-654 512.128,-654 518.128,-660 518.128,-666 518.128,-666 518.128,-678 518.128,-678 518.128,-684 512.128,-690 506.128,-690"/>
<text text-anchor="middle" x="484" y="-667.8" font-family="Helvetica,sans-Serif" font-size="14.00">setup_R</text>
</g>
<!-- setup_R&#45;&gt;set_up_configuration_and_start_provenance_tracking -->
<g id="edge12" class="edge"><title>setup_R&#45;&gt;set_up_configuration_and_start_provenance_tracking</title>
<path fill="none" stroke="black" d="M449.802,-656.666C426.005,-646.691 393.885,-633.227 367.195,-622.04"/>
<polygon fill="black" stroke="black" points="368.208,-618.67 357.633,-618.032 365.502,-625.125 368.208,-618.67"/>
</g>
<!-- dir_goal&#45;&gt;output_estimate_trend_file_by_region_since_1980 -->
<g id="edge9" class="edge"><title>dir_goal&#45;&gt;output_estimate_trend_file_by_region_since_1980</title>
<path fill="none" stroke="black" d="M323.007,-526.82C401.774,-525.668 597.489,-518.307 642,-474 651.333,-464.71 660.316,-383.745 664.52,-340.295"/>
<polygon fill="black" stroke="black" points="668.025,-340.409 665.484,-330.124 661.056,-339.749 668.025,-340.409"/>
</g>
<!-- dir_goal&#45;&gt;output_estimate_status_file_by_region_since_1980 -->
<g id="edge10" class="edge"><title>dir_goal&#45;&gt;output_estimate_status_file_by_region_since_1980</title>
<path fill="none" stroke="black" d="M256.956,-526.757C218.98,-524.482 158.154,-514.29 129,-474 94.4294,-426.224 157.623,-367.688 200.079,-336.014"/>
<polygon fill="black" stroke="black" points="202.242,-338.768 208.259,-330.048 198.117,-333.113 202.242,-338.768"/>
</g>
<!-- dir_goal&#45;&gt;create_new_stats_and_trend_file -->
<g id="edge11" class="edge"><title>dir_goal&#45;&gt;create_new_stats_and_trend_file</title>
<path fill="none" stroke="black" d="M286.539,-509.697C284.997,-501.983 283.142,-492.712 281.422,-484.112"/>
<polygon fill="black" stroke="black" points="284.814,-483.224 279.421,-474.104 277.95,-484.597 284.814,-483.224"/>
</g>
<!-- status_file_handle&#45;&gt;output_estimate_status_file_by_region_since_1980 -->
<g id="edge8" class="edge"><title>status_file_handle&#45;&gt;output_estimate_status_file_by_region_since_1980</title>
<path fill="none" stroke="black" d="M244.539,-365.697C242.997,-357.983 241.142,-348.712 239.422,-340.112"/>
<polygon fill="black" stroke="black" points="242.814,-339.224 237.421,-330.104 235.95,-340.597 242.814,-339.224"/>
</g>
<!-- trend_file_handle&#45;&gt;output_estimate_trend_file_by_region_since_1980 -->
<g id="edge7" class="edge"><title>trend_file_handle&#45;&gt;output_estimate_trend_file_by_region_since_1980</title>
<path fill="none" stroke="black" d="M594.73,-365.697C606.937,-356.796 621.985,-345.823 635.184,-336.199"/>
<polygon fill="black" stroke="black" points="637.525,-338.824 643.543,-330.104 633.4,-333.168 637.525,-338.824"/>
</g>
<!-- year_span&#45;&gt;output_estimate_trend_file_by_region_since_1980 -->
<g id="edge5" class="edge"><title>year_span&#45;&gt;output_estimate_trend_file_by_region_since_1980</title>
<path fill="none" stroke="black" d="M491.879,-368.726C494.625,-367.796 497.351,-366.88 500,-366 533.603,-354.841 571.175,-342.872 602.159,-333.137"/>
<polygon fill="black" stroke="black" points="603.479,-336.391 611.974,-330.059 601.384,-329.712 603.479,-336.391"/>
</g>
<!-- year_span&#45;&gt;output_estimate_status_file_by_region_since_1980 -->
<g id="edge6" class="edge"><title>year_span&#45;&gt;output_estimate_status_file_by_region_since_1980</title>
<path fill="none" stroke="black" d="M410.184,-369.834C378.177,-359.509 333.086,-344.963 296.533,-333.172"/>
<polygon fill="black" stroke="black" points="297.546,-329.821 286.954,-330.082 295.397,-336.483 297.546,-329.821"/>
</g>
<!-- area_protected_total_file -->
<g id="node12" class="node"><title>area_protected_total_file</title>
<path fill="#ffffcc" stroke="black" d="M829.05,-402C829.05,-402 682.95,-402 682.95,-402 676.95,-402 670.95,-396 670.95,-390 670.95,-390 670.95,-378 670.95,-378 670.95,-372 676.95,-366 682.95,-366 682.95,-366 829.05,-366 829.05,-366 835.05,-366 841.05,-372 841.05,-378 841.05,-378 841.05,-390 841.05,-390 841.05,-396 835.05,-402 829.05,-402"/>
<text text-anchor="middle" x="756" y="-379.8" font-family="Helvetica,sans-Serif" font-size="14.00">area_protected_total_file</text>
</g>
<!-- area_protected_total_file&#45;&gt;output_estimate_trend_file_by_region_since_1980 -->
<g id="edge3" class="edge"><title>area_protected_total_file&#45;&gt;output_estimate_trend_file_by_region_since_1980</title>
<path fill="none" stroke="black" d="M734,-365.697C722.791,-356.881 708.998,-346.032 696.846,-336.474"/>
<polygon fill="black" stroke="black" points="698.771,-333.535 688.747,-330.104 694.443,-339.038 698.771,-333.535"/>
</g>
<!-- area_protected_total_file&#45;&gt;output_estimate_status_file_by_region_since_1980 -->
<g id="edge4" class="edge"><title>area_protected_total_file&#45;&gt;output_estimate_status_file_by_region_since_1980</title>
<path fill="none" stroke="black" d="M670.742,-370.107C661.052,-368.695 651.315,-367.299 642,-366 555.339,-353.911 458.193,-341.256 380.439,-331.344"/>
<polygon fill="black" stroke="black" points="380.448,-327.817 370.086,-330.026 379.564,-334.761 380.448,-327.817"/>
</g>
<!-- status_df_data&#45;&gt;save_year_by_year_status_and_trend_estimates -->
<g id="edge2" class="edge"><title>status_df_data&#45;&gt;save_year_by_year_status_and_trend_estimates</title>
<path fill="none" stroke="black" d="M345.003,-221.876C363.598,-212.512 386.827,-200.814 406.706,-190.803"/>
<polygon fill="black" stroke="black" points="408.509,-193.814 415.866,-186.19 405.36,-187.562 408.509,-193.814"/>
</g>
<!-- trend_df_data&#45;&gt;save_year_by_year_status_and_trend_estimates -->
<g id="edge1" class="edge"><title>trend_df_data&#45;&gt;save_year_by_year_status_and_trend_estimates</title>
<path fill="none" stroke="black" d="M554.997,-221.876C536.402,-212.512 513.173,-200.814 493.294,-190.803"/>
<polygon fill="black" stroke="black" points="494.64,-187.562 484.134,-186.19 491.491,-193.814 494.64,-187.562"/>
</g>
<!-- lsp_status_trend_summary_db_file_outflow -->
<g id="node18" class="node"><title>lsp_status_trend_summary_db_file_outflow</title>
<ellipse fill="none" stroke="black" cx="450" cy="-31" rx="7" ry="7"/>
</g>
<!-- lsp_status_trend_summary_db_file&#45;&gt;lsp_status_trend_summary_db_file_outflow -->
<g id="edge22" class="edge"><title>lsp_status_trend_summary_db_file&#45;&gt;lsp_status_trend_summary_db_file_outflow</title>
<path fill="none" stroke="black" d="M450,-77.785C450,-68.6656 450,-57.5197 450,-48.5085"/>
<polygon fill="black" stroke="black" points="453.5,-48.242 450,-38.242 446.5,-48.2421 453.5,-48.242"/>
</g>
<!-- setup_R_inflow -->
<g id="node16" class="node"><title>setup_R_inflow</title>
<ellipse fill="none" stroke="black" cx="585" cy="-737" rx="7" ry="7"/>
</g>
<!-- setup_R_inflow&#45;&gt;setup_R -->
<g id="edge20" class="edge"><title>setup_R_inflow&#45;&gt;setup_R</title>
<path fill="none" stroke="black" d="M579.28,-732.432C568.007,-725.401 542.106,-709.244 520.15,-695.549"/>
<polygon fill="black" stroke="black" points="521.996,-692.576 511.659,-690.253 518.292,-698.515 521.996,-692.576"/>
</g>
<!-- area_protected_total_file_inflow -->
<g id="node17" class="node"><title>area_protected_total_file_inflow</title>
<ellipse fill="none" stroke="black" cx="617" cy="-737" rx="7" ry="7"/>
</g>
<!-- area_protected_total_file_inflow&#45;&gt;area_protected_total_file -->
<g id="edge21" class="edge"><title>area_protected_total_file_inflow&#45;&gt;area_protected_total_file</title>
<path fill="none" stroke="black" d="M622.43,-732.562C643.409,-718.812 718,-665.396 718,-601 718,-601 718,-601 718,-527 718,-485.633 733.235,-439.722 744.412,-411.605"/>
<polygon fill="black" stroke="black" points="747.756,-412.673 748.31,-402.093 741.279,-410.019 747.756,-412.673"/>
</g>
</g>
</svg>
