<?xml version="1.0" encoding="UTF-8" standalone="no"?>
<!DOCTYPE svg PUBLIC "-//W3C//DTD SVG 1.1//EN"
 "http://www.w3.org/Graphics/SVG/1.1/DTD/svg11.dtd">
<!-- Generated by graphviz version 2.38.0 (20140413.2041)
 -->
<!-- Title: rm_data_view Pages: 1 -->
<svg width="542pt" height="554pt"
 viewBox="0.00 0.00 542.00 553.60" xmlns="http://www.w3.org/2000/svg" xmlns:xlink="http://www.w3.org/1999/xlink">
<g id="graph0" class="graph" transform="scale(1 1) rotate(0) translate(4 549.6)">
<title>rm_data_view</title>
<polygon fill="white" stroke="none" points="-4,4 -4,-549.6 538,-549.6 538,4 -4,4"/>
<text text-anchor="middle" x="267" y="-525.4" font-family="Courier,monospace" font-size="18.00">multiple_runs</text>
<g id="clust1" class="cluster"><title>cluster_workflow</title>
<polygon fill="none" stroke="black" stroke-width="2" points="8,-8 8,-508 526,-508 526,-8 8,-8"/>
</g>
<g id="clust2" class="cluster"><title>cluster_workflow_inner</title>
<polygon fill="none" stroke="white" stroke-width="2" points="16,-16 16,-500 518,-500 518,-16 16,-16"/>
</g>
<!-- r_script_1_run_1 -->
<g id="node1" class="node"><title>r_script_1_run_1</title>
<polygon fill="black" stroke="black" points="342.378,-420 191.622,-420 191.622,-384 342.378,-384 342.378,-420"/>
<text text-anchor="middle" x="267" y="-397.8" font-family="Courier,monospace" font-weight="bold" font-size="14.00" fill="white">r_script_1_run_1</text>
</g>
<!-- data_output11 -->
<g id="node9" class="node"><title>data_output11</title>
<path fill="#ffe4b5" stroke="black" d="M340.189,-348C340.189,-348 277.811,-348 277.811,-348 271.811,-348 265.811,-342 265.811,-336 265.811,-336 265.811,-324 265.811,-324 265.811,-318 271.811,-312 277.811,-312 277.811,-312 340.189,-312 340.189,-312 346.189,-312 352.189,-318 352.189,-324 352.189,-324 352.189,-336 352.189,-336 352.189,-342 346.189,-348 340.189,-348"/>
<text text-anchor="middle" x="309" y="-327.3" font-family="Courier,monospace" font-weight="bold" font-size="9.00">data_output11</text>
</g>
<!-- r_script_1_run_1&#45;&gt;data_output11 -->
<g id="edge11" class="edge"><title>r_script_1_run_1&#45;&gt;data_output11</title>
<path fill="none" stroke="black" d="M277.382,-383.697C282.265,-375.559 288.187,-365.689 293.579,-356.701"/>
<polygon fill="black" stroke="black" points="296.594,-358.48 298.737,-348.104 290.591,-354.879 296.594,-358.48"/>
</g>
<!-- r_script_2_run_1 -->
<g id="node2" class="node"><title>r_script_2_run_1</title>
<polygon fill="black" stroke="black" points="300.378,-276 149.622,-276 149.622,-240 300.378,-240 300.378,-276"/>
<text text-anchor="middle" x="225" y="-253.8" font-family="Courier,monospace" font-weight="bold" font-size="14.00" fill="white">r_script_2_run_1</text>
</g>
<!-- data_output21 -->
<g id="node10" class="node"><title>data_output21</title>
<path fill="#ffe4b5" stroke="black" d="M272.189,-204C272.189,-204 209.811,-204 209.811,-204 203.811,-204 197.811,-198 197.811,-192 197.811,-192 197.811,-180 197.811,-180 197.811,-174 203.811,-168 209.811,-168 209.811,-168 272.189,-168 272.189,-168 278.189,-168 284.189,-174 284.189,-180 284.189,-180 284.189,-192 284.189,-192 284.189,-198 278.189,-204 272.189,-204"/>
<text text-anchor="middle" x="241" y="-183.3" font-family="Courier,monospace" font-weight="bold" font-size="9.00">data_output21</text>
</g>
<!-- r_script_2_run_1&#45;&gt;data_output21 -->
<g id="edge12" class="edge"><title>r_script_2_run_1&#45;&gt;data_output21</title>
<path fill="none" stroke="black" d="M228.955,-239.697C230.718,-231.983 232.837,-222.712 234.803,-214.112"/>
<polygon fill="black" stroke="black" points="238.274,-214.633 237.09,-204.104 231.45,-213.073 238.274,-214.633"/>
</g>
<!-- r_script_1_run_2 -->
<g id="node3" class="node"><title>r_script_1_run_2</title>
<polygon fill="black" stroke="black" points="510.378,-420 359.622,-420 359.622,-384 510.378,-384 510.378,-420"/>
<text text-anchor="middle" x="435" y="-397.8" font-family="Courier,monospace" font-weight="bold" font-size="14.00" fill="white">r_script_1_run_2</text>
</g>
<!-- r_script_1_run_2&#45;&gt;data_output11 -->
<g id="edge13" class="edge"><title>r_script_1_run_2&#45;&gt;data_output11</title>
<path fill="none" stroke="black" d="M404.177,-383.876C387.55,-374.639 366.835,-363.131 348.981,-353.212"/>
<polygon fill="black" stroke="black" points="350.383,-349.987 339.942,-348.19 346.983,-356.106 350.383,-349.987"/>
</g>
<!-- r_script_2_run_2 -->
<g id="node4" class="node"><title>r_script_2_run_2</title>
<polygon fill="black" stroke="black" points="468.378,-276 317.622,-276 317.622,-240 468.378,-240 468.378,-276"/>
<text text-anchor="middle" x="393" y="-253.8" font-family="Courier,monospace" font-weight="bold" font-size="14.00" fill="white">r_script_2_run_2</text>
</g>
<!-- data_output22 -->
<g id="node11" class="node"><title>data_output22</title>
<path fill="#ffe4b5" stroke="black" d="M408.189,-204C408.189,-204 345.811,-204 345.811,-204 339.811,-204 333.811,-198 333.811,-192 333.811,-192 333.811,-180 333.811,-180 333.811,-174 339.811,-168 345.811,-168 345.811,-168 408.189,-168 408.189,-168 414.189,-168 420.189,-174 420.189,-180 420.189,-180 420.189,-192 420.189,-192 420.189,-198 414.189,-204 408.189,-204"/>
<text text-anchor="middle" x="377" y="-183.3" font-family="Courier,monospace" font-weight="bold" font-size="9.00">data_output22</text>
</g>
<!-- r_script_2_run_2&#45;&gt;data_output22 -->
<g id="edge14" class="edge"><title>r_script_2_run_2&#45;&gt;data_output22</title>
<path fill="none" stroke="black" d="M389.045,-239.697C387.282,-231.983 385.163,-222.712 383.197,-214.112"/>
<polygon fill="black" stroke="black" points="386.55,-213.073 380.91,-204.104 379.726,-214.633 386.55,-213.073"/>
</g>
<!-- r_script_3_run_1 -->
<g id="node5" class="node"><title>r_script_3_run_1</title>
<polygon fill="black" stroke="black" points="368.378,-132 217.622,-132 217.622,-96 368.378,-96 368.378,-132"/>
<text text-anchor="middle" x="293" y="-109.8" font-family="Courier,monospace" font-weight="bold" font-size="14.00" fill="white">r_script_3_run_1</text>
</g>
<!-- data_output31 -->
<g id="node12" class="node"><title>data_output31</title>
<path fill="#ffe4b5" stroke="black" d="M324.189,-60C324.189,-60 261.811,-60 261.811,-60 255.811,-60 249.811,-54 249.811,-48 249.811,-48 249.811,-36 249.811,-36 249.811,-30 255.811,-24 261.811,-24 261.811,-24 324.189,-24 324.189,-24 330.189,-24 336.189,-30 336.189,-36 336.189,-36 336.189,-48 336.189,-48 336.189,-54 330.189,-60 324.189,-60"/>
<text text-anchor="middle" x="293" y="-39.3" font-family="Courier,monospace" font-weight="bold" font-size="9.00">data_output31</text>
</g>
<!-- r_script_3_run_1&#45;&gt;data_output31 -->
<g id="edge15" class="edge"><title>r_script_3_run_1&#45;&gt;data_output31</title>
<path fill="none" stroke="black" d="M293,-95.6966C293,-87.9827 293,-78.7125 293,-70.1124"/>
<polygon fill="black" stroke="black" points="296.5,-70.1043 293,-60.1043 289.5,-70.1044 296.5,-70.1043"/>
</g>
<!-- r_script_1_run_3 -->
<g id="node6" class="node"><title>r_script_1_run_3</title>
<polygon fill="black" stroke="black" points="174.378,-420 23.6219,-420 23.6219,-384 174.378,-384 174.378,-420"/>
<text text-anchor="middle" x="99" y="-397.8" font-family="Courier,monospace" font-weight="bold" font-size="14.00" fill="white">r_script_1_run_3</text>
</g>
<!-- data_output11_2 -->
<g id="node15" class="node"><title>data_output11_2</title>
<path fill="#ffe4b5" stroke="black" d="M135.487,-348C135.487,-348 62.5135,-348 62.5135,-348 56.5135,-348 50.5135,-342 50.5135,-336 50.5135,-336 50.5135,-324 50.5135,-324 50.5135,-318 56.5135,-312 62.5135,-312 62.5135,-312 135.487,-312 135.487,-312 141.487,-312 147.487,-318 147.487,-324 147.487,-324 147.487,-336 147.487,-336 147.487,-342 141.487,-348 135.487,-348"/>
<text text-anchor="middle" x="99" y="-327.3" font-family="Courier,monospace" font-weight="bold" font-size="9.00">data_output11_2</text>
</g>
<!-- r_script_1_run_3&#45;&gt;data_output11_2 -->
<g id="edge16" class="edge"><title>r_script_1_run_3&#45;&gt;data_output11_2</title>
<path fill="none" stroke="black" d="M99,-383.697C99,-375.983 99,-366.712 99,-358.112"/>
<polygon fill="black" stroke="black" points="102.5,-358.104 99,-348.104 95.5001,-358.104 102.5,-358.104"/>
</g>
<!-- data_input11 -->
<g id="node7" class="node"><title>data_input11</title>
<path fill="#ffe4b5" stroke="black" d="M453.289,-492C453.289,-492 396.711,-492 396.711,-492 390.711,-492 384.711,-486 384.711,-480 384.711,-480 384.711,-468 384.711,-468 384.711,-462 390.711,-456 396.711,-456 396.711,-456 453.289,-456 453.289,-456 459.289,-456 465.289,-462 465.289,-468 465.289,-468 465.289,-480 465.289,-480 465.289,-486 459.289,-492 453.289,-492"/>
<text text-anchor="middle" x="425" y="-471.3" font-family="Courier,monospace" font-weight="bold" font-size="9.00">data_input11</text>
</g>
<!-- data_input11&#45;&gt;r_script_1_run_1 -->
<g id="edge1" class="edge"><title>data_input11&#45;&gt;r_script_1_run_1</title>
<path fill="none" stroke="black" d="M386.349,-455.876C364.749,-446.307 337.649,-434.3 314.734,-424.148"/>
<polygon fill="black" stroke="black" points="316.086,-420.919 305.526,-420.068 313.251,-427.319 316.086,-420.919"/>
</g>
<!-- data_input11&#45;&gt;r_script_1_run_2 -->
<g id="edge4" class="edge"><title>data_input11&#45;&gt;r_script_1_run_2</title>
<path fill="none" stroke="black" d="M427.472,-455.697C428.574,-447.983 429.898,-438.712 431.127,-430.112"/>
<polygon fill="black" stroke="black" points="434.607,-430.499 432.557,-420.104 427.677,-429.509 434.607,-430.499"/>
</g>
<!-- data_input12 -->
<g id="node8" class="node"><title>data_input12</title>
<path fill="#ffe4b5" stroke="black" d="M345.289,-492C345.289,-492 288.711,-492 288.711,-492 282.711,-492 276.711,-486 276.711,-480 276.711,-480 276.711,-468 276.711,-468 276.711,-462 282.711,-456 288.711,-456 288.711,-456 345.289,-456 345.289,-456 351.289,-456 357.289,-462 357.289,-468 357.289,-468 357.289,-480 357.289,-480 357.289,-486 351.289,-492 345.289,-492"/>
<text text-anchor="middle" x="317" y="-471.3" font-family="Courier,monospace" font-weight="bold" font-size="9.00">data_input12</text>
</g>
<!-- data_input12&#45;&gt;r_script_1_run_1 -->
<g id="edge2" class="edge"><title>data_input12&#45;&gt;r_script_1_run_1</title>
<path fill="none" stroke="black" d="M304.64,-455.697C298.767,-447.474 291.631,-437.483 285.158,-428.421"/>
<polygon fill="black" stroke="black" points="287.878,-426.207 279.217,-420.104 282.182,-430.276 287.878,-426.207"/>
</g>
<!-- data_input12&#45;&gt;r_script_1_run_2 -->
<g id="edge5" class="edge"><title>data_input12&#45;&gt;r_script_1_run_2</title>
<path fill="none" stroke="black" d="M345.866,-455.876C361.295,-446.724 380.481,-435.342 397.097,-425.485"/>
<polygon fill="black" stroke="black" points="399.208,-428.302 406.023,-420.19 395.637,-422.282 399.208,-428.302"/>
</g>
<!-- data_output11&#45;&gt;r_script_2_run_1 -->
<g id="edge3" class="edge"><title>data_output11&#45;&gt;r_script_2_run_1</title>
<path fill="none" stroke="black" d="M288.236,-311.697C277.759,-302.965 264.889,-292.24 253.5,-282.75"/>
<polygon fill="black" stroke="black" points="255.448,-279.817 245.525,-276.104 250.967,-285.195 255.448,-279.817"/>
</g>
<!-- data_output11&#45;&gt;r_script_2_run_2 -->
<g id="edge6" class="edge"><title>data_output11&#45;&gt;r_script_2_run_2</title>
<path fill="none" stroke="black" d="M329.764,-311.697C340.241,-302.965 353.111,-292.24 364.5,-282.75"/>
<polygon fill="black" stroke="black" points="367.033,-285.195 372.475,-276.104 362.552,-279.817 367.033,-285.195"/>
</g>
<!-- data_output21&#45;&gt;r_script_3_run_1 -->
<g id="edge7" class="edge"><title>data_output21&#45;&gt;r_script_3_run_1</title>
<path fill="none" stroke="black" d="M253.854,-167.697C260.025,-159.389 267.537,-149.277 274.324,-140.141"/>
<polygon fill="black" stroke="black" points="277.14,-142.219 280.294,-132.104 271.521,-138.045 277.14,-142.219"/>
</g>
<!-- data_output22&#45;&gt;r_script_3_run_1 -->
<g id="edge8" class="edge"><title>data_output22&#45;&gt;r_script_3_run_1</title>
<path fill="none" stroke="black" d="M356.236,-167.697C345.759,-158.965 332.889,-148.24 321.5,-138.75"/>
<polygon fill="black" stroke="black" points="323.448,-135.817 313.525,-132.104 318.967,-141.195 323.448,-135.817"/>
</g>
<!-- data_input11_2 -->
<g id="node13" class="node"><title>data_input11_2</title>
<path fill="#ffe4b5" stroke="black" d="M227.588,-492C227.588,-492 160.412,-492 160.412,-492 154.412,-492 148.412,-486 148.412,-480 148.412,-480 148.412,-468 148.412,-468 148.412,-462 154.412,-456 160.412,-456 160.412,-456 227.588,-456 227.588,-456 233.588,-456 239.588,-462 239.588,-468 239.588,-468 239.588,-480 239.588,-480 239.588,-486 233.588,-492 227.588,-492"/>
<text text-anchor="middle" x="194" y="-471.3" font-family="Courier,monospace" font-weight="bold" font-size="9.00">data_input11_2</text>
</g>
<!-- data_input11_2&#45;&gt;r_script_1_run_3 -->
<g id="edge9" class="edge"><title>data_input11_2&#45;&gt;r_script_1_run_3</title>
<path fill="none" stroke="black" d="M170.517,-455.697C158.437,-446.796 143.546,-435.823 130.484,-426.199"/>
<polygon fill="black" stroke="black" points="132.34,-423.219 122.213,-420.104 128.187,-428.854 132.34,-423.219"/>
</g>
<!-- data_input12_2 -->
<g id="node14" class="node"><title>data_input12_2</title>
<path fill="#ffe4b5" stroke="black" d="M117.588,-492C117.588,-492 50.4117,-492 50.4117,-492 44.4117,-492 38.4117,-486 38.4117,-480 38.4117,-480 38.4117,-468 38.4117,-468 38.4117,-462 44.4117,-456 50.4117,-456 50.4117,-456 117.588,-456 117.588,-456 123.588,-456 129.588,-462 129.588,-468 129.588,-468 129.588,-480 129.588,-480 129.588,-486 123.588,-492 117.588,-492"/>
<text text-anchor="middle" x="84" y="-471.3" font-family="Courier,monospace" font-weight="bold" font-size="9.00">data_input12_2</text>
</g>
<!-- data_input12_2&#45;&gt;r_script_1_run_3 -->
<g id="edge10" class="edge"><title>data_input12_2&#45;&gt;r_script_1_run_3</title>
<path fill="none" stroke="black" d="M87.7079,-455.697C89.3608,-447.983 91.3473,-438.712 93.1902,-430.112"/>
<polygon fill="black" stroke="black" points="96.6617,-430.616 95.3348,-420.104 89.8171,-429.149 96.6617,-430.616"/>
</g>
</g>
</svg>
