<?xml version="1.0" encoding="UTF-8" standalone="no"?>
<!DOCTYPE svg PUBLIC "-//W3C//DTD SVG 1.1//EN"
 "http://www.w3.org/Graphics/SVG/1.1/DTD/svg11.dtd">
<!-- Generated by graphviz version 2.38.0 (20140413.2041)
 -->
<!-- Title: rm_data_view Pages: 1 -->
<svg width="685pt" height="2020pt"
 viewBox="0.00 0.00 685.36 2019.60" xmlns="http://www.w3.org/2000/svg" xmlns:xlink="http://www.w3.org/1999/xlink">
<g id="graph0" class="graph" transform="scale(1 1) rotate(0) translate(4 2015.6)">
<title>rm_data_view</title>
<polygon fill="white" stroke="none" points="-4,4 -4,-2015.6 681.36,-2015.6 681.36,4 -4,4"/>
<text text-anchor="middle" x="338.68" y="-1991.4" font-family="Courier,monospace" font-size="18.00">multiple_runs</text>
<g id="clust1" class="cluster"><title>cluster_workflow</title>
<polygon fill="none" stroke="black" stroke-width="2" points="8,-8 8,-1974 547.318,-1974 547.318,-8 8,-8"/>
</g>
<g id="clust2" class="cluster"><title>cluster_workflow_inner</title>
<polygon fill="none" stroke="white" stroke-width="2" points="16,-16 16,-1966 539.318,-1966 539.318,-16 16,-16"/>
</g>
<!-- urn:uuid:528959d1&#45;d66d&#45;4ec7&#45;9dd6&#45;81deafbb4c47 -->
<g id="node1" class="node"><title>urn:uuid:528959d1&#45;d66d&#45;4ec7&#45;9dd6&#45;81deafbb4c47</title>
<polygon fill="black" stroke="black" points="76.4912,-1916.2 76.4912,-1957.8 478.827,-1957.8 478.827,-1916.2 76.4912,-1916.2"/>
<text text-anchor="middle" x="277.659" y="-1941.2" font-family="Courier,monospace" font-weight="bold" font-size="14.00" fill="white">ohibc run 1 </text>
<text text-anchor="middle" x="277.659" y="-1924.4" font-family="Courier,monospace" font-weight="bold" font-size="14.00" fill="white"> urn:uuid:528959d1&#45;d66d&#45;4ec7&#45;9dd6&#45;81deafbb4c47</text>
</g>
<!-- urn:uuid:21be88bf&#45;e44e&#45;44c8&#45;bc98&#45;f08657fd1aa3 -->
<g id="node2" class="node"><title>urn:uuid:21be88bf&#45;e44e&#45;44c8&#45;bc98&#45;f08657fd1aa3</title>
<polygon fill="black" stroke="black" points="76.4912,-1855.2 76.4912,-1896.8 478.827,-1896.8 478.827,-1855.2 76.4912,-1855.2"/>
<text text-anchor="middle" x="277.659" y="-1880.2" font-family="Courier,monospace" font-weight="bold" font-size="14.00" fill="white">ohibc run 1 </text>
<text text-anchor="middle" x="277.659" y="-1863.4" font-family="Courier,monospace" font-weight="bold" font-size="14.00" fill="white"> urn:uuid:21be88bf&#45;e44e&#45;44c8&#45;bc98&#45;f08657fd1aa3</text>
</g>
<!-- urn:uuid:98b5270a&#45;1577&#45;4865&#45;970f&#45;17c6b0065374 -->
<g id="node3" class="node"><title>urn:uuid:98b5270a&#45;1577&#45;4865&#45;970f&#45;17c6b0065374</title>
<polygon fill="black" stroke="black" points="76.4912,-1794.2 76.4912,-1835.8 478.827,-1835.8 478.827,-1794.2 76.4912,-1794.2"/>
<text text-anchor="middle" x="277.659" y="-1819.2" font-family="Courier,monospace" font-weight="bold" font-size="14.00" fill="white">ohibc run 1 </text>
<text text-anchor="middle" x="277.659" y="-1802.4" font-family="Courier,monospace" font-weight="bold" font-size="14.00" fill="white"> urn:uuid:98b5270a&#45;1577&#45;4865&#45;970f&#45;17c6b0065374</text>
</g>
<!-- urn:uuid:3d6c8ed0&#45;83c0&#45;4b12&#45;9154&#45;2804f4317598 -->
<g id="node4" class="node"><title>urn:uuid:3d6c8ed0&#45;83c0&#45;4b12&#45;9154&#45;2804f4317598</title>
<polygon fill="black" stroke="black" points="76.4912,-1733.2 76.4912,-1774.8 478.827,-1774.8 478.827,-1733.2 76.4912,-1733.2"/>
<text text-anchor="middle" x="277.659" y="-1758.2" font-family="Courier,monospace" font-weight="bold" font-size="14.00" fill="white">ohibc run 1 </text>
<text text-anchor="middle" x="277.659" y="-1741.4" font-family="Courier,monospace" font-weight="bold" font-size="14.00" fill="white"> urn:uuid:3d6c8ed0&#45;83c0&#45;4b12&#45;9154&#45;2804f4317598</text>
</g>
<!-- urn:uuid:167b320e&#45;9143&#45;4084&#45;882e&#45;7d19914767c0 -->
<g id="node5" class="node"><title>urn:uuid:167b320e&#45;9143&#45;4084&#45;882e&#45;7d19914767c0</title>
<polygon fill="black" stroke="black" points="76.4912,-1672.2 76.4912,-1713.8 478.827,-1713.8 478.827,-1672.2 76.4912,-1672.2"/>
<text text-anchor="middle" x="277.659" y="-1697.2" font-family="Courier,monospace" font-weight="bold" font-size="14.00" fill="white">ohibc run 1 </text>
<text text-anchor="middle" x="277.659" y="-1680.4" font-family="Courier,monospace" font-weight="bold" font-size="14.00" fill="white"> urn:uuid:167b320e&#45;9143&#45;4084&#45;882e&#45;7d19914767c0</text>
</g>
<!-- urn:uuid:f5d6b763&#45;c953&#45;48f4&#45;9a39&#45;4a61f45bfdd3 -->
<g id="node6" class="node"><title>urn:uuid:f5d6b763&#45;c953&#45;48f4&#45;9a39&#45;4a61f45bfdd3</title>
<polygon fill="black" stroke="black" points="76.4912,-1611.2 76.4912,-1652.8 478.827,-1652.8 478.827,-1611.2 76.4912,-1611.2"/>
<text text-anchor="middle" x="277.659" y="-1636.2" font-family="Courier,monospace" font-weight="bold" font-size="14.00" fill="white">ohibc run 1 </text>
<text text-anchor="middle" x="277.659" y="-1619.4" font-family="Courier,monospace" font-weight="bold" font-size="14.00" fill="white"> urn:uuid:f5d6b763&#45;c953&#45;48f4&#45;9a39&#45;4a61f45bfdd3</text>
</g>
<!-- urn:uuid:53c74750&#45;d660&#45;479d&#45;8e59&#45;f54068835317 -->
<g id="node7" class="node"><title>urn:uuid:53c74750&#45;d660&#45;479d&#45;8e59&#45;f54068835317</title>
<polygon fill="black" stroke="black" points="76.4912,-1550.2 76.4912,-1591.8 478.827,-1591.8 478.827,-1550.2 76.4912,-1550.2"/>
<text text-anchor="middle" x="277.659" y="-1575.2" font-family="Courier,monospace" font-weight="bold" font-size="14.00" fill="white">ohibc run 1 </text>
<text text-anchor="middle" x="277.659" y="-1558.4" font-family="Courier,monospace" font-weight="bold" font-size="14.00" fill="white"> urn:uuid:53c74750&#45;d660&#45;479d&#45;8e59&#45;f54068835317</text>
</g>
<!-- urn:uuid:4fcd5da4&#45;67af&#45;4f8d&#45;ad36&#45;c9cdf45621d4 -->
<g id="node8" class="node"><title>urn:uuid:4fcd5da4&#45;67af&#45;4f8d&#45;ad36&#45;c9cdf45621d4</title>
<polygon fill="black" stroke="black" points="76.4912,-1489.2 76.4912,-1530.8 478.827,-1530.8 478.827,-1489.2 76.4912,-1489.2"/>
<text text-anchor="middle" x="277.659" y="-1514.2" font-family="Courier,monospace" font-weight="bold" font-size="14.00" fill="white">ohibc run 1 </text>
<text text-anchor="middle" x="277.659" y="-1497.4" font-family="Courier,monospace" font-weight="bold" font-size="14.00" fill="white"> urn:uuid:4fcd5da4&#45;67af&#45;4f8d&#45;ad36&#45;c9cdf45621d4</text>
</g>
<!-- urn:uuid:53ada2f7&#45;5e25&#45;4845&#45;883e&#45;1049a90c321c -->
<g id="node9" class="node"><title>urn:uuid:53ada2f7&#45;5e25&#45;4845&#45;883e&#45;1049a90c321c</title>
<polygon fill="black" stroke="black" points="76.4912,-1428.2 76.4912,-1469.8 478.827,-1469.8 478.827,-1428.2 76.4912,-1428.2"/>
<text text-anchor="middle" x="277.659" y="-1453.2" font-family="Courier,monospace" font-weight="bold" font-size="14.00" fill="white">ohibc run 1 </text>
<text text-anchor="middle" x="277.659" y="-1436.4" font-family="Courier,monospace" font-weight="bold" font-size="14.00" fill="white"> urn:uuid:53ada2f7&#45;5e25&#45;4845&#45;883e&#45;1049a90c321c</text>
</g>
<!-- /Users/slaughter/git/OHI&#45;Science/ohibc/setup_BC_WDPA_polygons.R -->
<g id="node10" class="node"><title>/Users/slaughter/git/OHI&#45;Science/ohibc/setup_BC_WDPA_polygons.R</title>
<path fill="#ffe4b5" stroke="black" d="M443.802,-1410C443.802,-1410 111.516,-1410 111.516,-1410 105.516,-1410 99.5157,-1404 99.5157,-1398 99.5157,-1398 99.5157,-1386 99.5157,-1386 99.5157,-1380 105.516,-1374 111.516,-1374 111.516,-1374 443.802,-1374 443.802,-1374 449.802,-1374 455.802,-1380 455.802,-1386 455.802,-1386 455.802,-1398 455.802,-1398 455.802,-1404 449.802,-1410 443.802,-1410"/>
<text text-anchor="middle" x="277.659" y="-1389.3" font-family="Courier,monospace" font-weight="bold" font-size="9.00">/Users/slaughter/git/OHI&#45;Science/ohibc/setup_BC_WDPA_polygons.R</text>
</g>
<!-- /Volumes/ohi/git&#45;annex/bcprep/_raw_data/databc/TA_PEP_SVW/TA_PEP_SVW_polygon.shp -->
<g id="node11" class="node"><title>/Volumes/ohi/git&#45;annex/bcprep/_raw_data/databc/TA_PEP_SVW/TA_PEP_SVW_polygon.shp</title>
<path fill="#ffe4b5" stroke="black" d="M489.587,-1356C489.587,-1356 65.731,-1356 65.731,-1356 59.731,-1356 53.731,-1350 53.731,-1344 53.731,-1344 53.731,-1332 53.731,-1332 53.731,-1326 59.731,-1320 65.731,-1320 65.731,-1320 489.587,-1320 489.587,-1320 495.587,-1320 501.587,-1326 501.587,-1332 501.587,-1332 501.587,-1344 501.587,-1344 501.587,-1350 495.587,-1356 489.587,-1356"/>
<text text-anchor="middle" x="277.659" y="-1335.3" font-family="Courier,monospace" font-weight="bold" font-size="9.00">/Volumes/ohi/git&#45;annex/bcprep/_raw_data/databc/TA_PEP_SVW/TA_PEP_SVW_polygon.shp</text>
</g>
<!-- ohibc run 1 -->
<g id="node36" class="node"><title>ohibc run 1</title>
<ellipse fill="none" stroke="black" cx="622.339" cy="-690" rx="55.042" ry="18"/>
<text text-anchor="middle" x="622.339" y="-685.8" font-family="Times,serif" font-size="14.00">ohibc run 1</text>
</g>
<!-- /Volumes/ohi/git&#45;annex/bcprep/_raw_data/databc/TA_PEP_SVW/TA_PEP_SVW_polygon.shp&#45;&gt;ohibc run 1 -->
<g id="edge1" class="edge"><title>/Volumes/ohi/git&#45;annex/bcprep/_raw_data/databc/TA_PEP_SVW/TA_PEP_SVW_polygon.shp&#45;&gt;ohibc run 1</title>
<path fill="none" stroke="black" d="M380.544,-1356C437.072,-1359.81 504.416,-1353.12 547.318,-1311 590.243,-1268.86 614.319,-834.35 620.014,-718.341"/>
<polygon fill="black" stroke="black" points="623.52,-718.29 620.508,-708.132 616.529,-717.952 623.52,-718.29"/>
</g>
<!-- /Users/slaughter/git/OHI&#45;Science/ohibc/prep/lsp/vHS/spatial/hs_pep_poly.shp -->
<g id="node12" class="node"><title>/Users/slaughter/git/OHI&#45;Science/ohibc/prep/lsp/vHS/spatial/hs_pep_poly.shp</title>
<path fill="#ffe4b5" stroke="black" d="M476.092,-1302C476.092,-1302 79.2265,-1302 79.2265,-1302 73.2265,-1302 67.2265,-1296 67.2265,-1290 67.2265,-1290 67.2265,-1278 67.2265,-1278 67.2265,-1272 73.2265,-1266 79.2265,-1266 79.2265,-1266 476.092,-1266 476.092,-1266 482.092,-1266 488.092,-1272 488.092,-1278 488.092,-1278 488.092,-1290 488.092,-1290 488.092,-1296 482.092,-1302 476.092,-1302"/>
<text text-anchor="middle" x="277.659" y="-1281.3" font-family="Courier,monospace" font-weight="bold" font-size="9.00">/Users/slaughter/git/OHI&#45;Science/ohibc/prep/lsp/vHS/spatial/hs_pep_poly.shp</text>
</g>
<!-- /Users/slaughter/git/OHI&#45;Science/ohibc/setup_BC_PEP_polygons.R -->
<g id="node13" class="node"><title>/Users/slaughter/git/OHI&#45;Science/ohibc/setup_BC_PEP_polygons.R</title>
<path fill="#ffe4b5" stroke="black" d="M440.903,-1248C440.903,-1248 114.415,-1248 114.415,-1248 108.415,-1248 102.415,-1242 102.415,-1236 102.415,-1236 102.415,-1224 102.415,-1224 102.415,-1218 108.415,-1212 114.415,-1212 114.415,-1212 440.903,-1212 440.903,-1212 446.903,-1212 452.903,-1218 452.903,-1224 452.903,-1224 452.903,-1236 452.903,-1236 452.903,-1242 446.903,-1248 440.903,-1248"/>
<text text-anchor="middle" x="277.659" y="-1227.3" font-family="Courier,monospace" font-weight="bold" font-size="9.00">/Users/slaughter/git/OHI&#45;Science/ohibc/setup_BC_PEP_polygons.R</text>
</g>
<!-- /Users/slaughter/git/OHI&#45;Science/ohibc/prep/spatial/raster/ohibc_rgn_raster_500m.tif -->
<g id="node14" class="node"><title>/Users/slaughter/git/OHI&#45;Science/ohibc/prep/spatial/raster/ohibc_rgn_raster_500m.tif</title>
<path fill="#ffe4b5" stroke="black" d="M500.184,-1194C500.184,-1194 55.1344,-1194 55.1344,-1194 49.1344,-1194 43.1344,-1188 43.1344,-1182 43.1344,-1182 43.1344,-1170 43.1344,-1170 43.1344,-1164 49.1344,-1158 55.1344,-1158 55.1344,-1158 500.184,-1158 500.184,-1158 506.184,-1158 512.184,-1164 512.184,-1170 512.184,-1170 512.184,-1182 512.184,-1182 512.184,-1188 506.184,-1194 500.184,-1194"/>
<text text-anchor="middle" x="277.659" y="-1173.3" font-family="Courier,monospace" font-weight="bold" font-size="9.00">/Users/slaughter/git/OHI&#45;Science/ohibc/prep/spatial/raster/ohibc_rgn_raster_500m.tif</text>
</g>
<!-- /Users/slaughter/git/OHI&#45;Science/ohibc/prep/spatial/raster/ohibc_rgn_raster_500m.tif&#45;&gt;ohibc run 1 -->
<g id="edge2" class="edge"><title>/Users/slaughter/git/OHI&#45;Science/ohibc/prep/spatial/raster/ohibc_rgn_raster_500m.tif&#45;&gt;ohibc run 1</title>
<path fill="none" stroke="black" d="M505.975,-1158C521.089,-1151.3 535.119,-1142.49 547.318,-1131 608.373,-1073.49 619.08,-806.836 620.948,-718.158"/>
<polygon fill="black" stroke="black" points="624.45,-718.083 621.139,-708.019 617.451,-717.952 624.45,-718.083"/>
</g>
<!-- /Users/slaughter/git/OHI&#45;Science/ohibc/prep/spatial/raster/ohibc_rgn_raster_500m.tif&#45;&gt;ohibc run 1 -->
<g id="edge3" class="edge"><title>/Users/slaughter/git/OHI&#45;Science/ohibc/prep/spatial/raster/ohibc_rgn_raster_500m.tif&#45;&gt;ohibc run 1</title>
<path fill="none" stroke="black" d="M512.251,-1173.03C524.977,-1166.78 536.826,-1158.88 547.318,-1149 610.2,-1089.77 619.676,-808.695 621.093,-718.166"/>
<polygon fill="black" stroke="black" points="624.594,-718.145 621.229,-708.098 617.594,-718.05 624.594,-718.145"/>
</g>
<!-- /Users/slaughter/git/OHI&#45;Science/ohibc/prep/spatial/raster/ohibc_rgn_raster_500m.tif&#45;&gt;ohibc run 1 -->
<g id="edge4" class="edge"><title>/Users/slaughter/git/OHI&#45;Science/ohibc/prep/spatial/raster/ohibc_rgn_raster_500m.tif&#45;&gt;ohibc run 1</title>
<path fill="none" stroke="black" d="M309.219,-1194.06C364.672,-1213.21 482.145,-1228.39 547.318,-1167 611.818,-1106.24 620.128,-812.083 621.187,-718.208"/>
<polygon fill="black" stroke="black" points="624.689,-718.058 621.282,-708.026 617.689,-717.993 624.689,-718.058"/>
</g>
<!-- /Users/slaughter/git/OHI&#45;Science/ohibc/prep/lsp/vHS/spatial/hs_wdpa_rast_500m.tif -->
<g id="node15" class="node"><title>/Users/slaughter/git/OHI&#45;Science/ohibc/prep/lsp/vHS/spatial/hs_wdpa_rast_500m.tif</title>
<path fill="#ffe4b5" stroke="black" d="M492.486,-1140C492.486,-1140 62.8318,-1140 62.8318,-1140 56.8318,-1140 50.8318,-1134 50.8318,-1128 50.8318,-1128 50.8318,-1116 50.8318,-1116 50.8318,-1110 56.8318,-1104 62.8318,-1104 62.8318,-1104 492.486,-1104 492.486,-1104 498.486,-1104 504.486,-1110 504.486,-1116 504.486,-1116 504.486,-1128 504.486,-1128 504.486,-1134 498.486,-1140 492.486,-1140"/>
<text text-anchor="middle" x="277.659" y="-1119.3" font-family="Courier,monospace" font-weight="bold" font-size="9.00">/Users/slaughter/git/OHI&#45;Science/ohibc/prep/lsp/vHS/spatial/hs_wdpa_rast_500m.tif</text>
</g>
<!-- /Users/slaughter/git/OHI&#45;Science/ohibc/prep/lsp/vHS/spatial/hs_wdpa_rast_500m.tif&#45;&gt;ohibc run 1 -->
<g id="edge9" class="edge"><title>/Users/slaughter/git/OHI&#45;Science/ohibc/prep/lsp/vHS/spatial/hs_wdpa_rast_500m.tif&#45;&gt;ohibc run 1</title>
<path fill="none" stroke="black" d="M504.434,-1113.24C520.092,-1106.56 534.656,-1097.68 547.318,-1086 601.872,-1035.68 616.627,-800.47 620.254,-718.271"/>
<polygon fill="black" stroke="black" points="623.756,-718.293 620.678,-708.155 616.762,-718 623.756,-718.293"/>
</g>
<!-- /Users/slaughter/git/OHI&#45;Science/ohibc/prep/lsp/vHS/spatial/hs_pep_rast_500m.tif -->
<g id="node16" class="node"><title>/Users/slaughter/git/OHI&#45;Science/ohibc/prep/lsp/vHS/spatial/hs_pep_rast_500m.tif</title>
<path fill="#ffe4b5" stroke="black" d="M489.587,-1086C489.587,-1086 65.731,-1086 65.731,-1086 59.731,-1086 53.731,-1080 53.731,-1074 53.731,-1074 53.731,-1062 53.731,-1062 53.731,-1056 59.731,-1050 65.731,-1050 65.731,-1050 489.587,-1050 489.587,-1050 495.587,-1050 501.587,-1056 501.587,-1062 501.587,-1062 501.587,-1074 501.587,-1074 501.587,-1080 495.587,-1086 489.587,-1086"/>
<text text-anchor="middle" x="277.659" y="-1065.3" font-family="Courier,monospace" font-weight="bold" font-size="9.00">/Users/slaughter/git/OHI&#45;Science/ohibc/prep/lsp/vHS/spatial/hs_pep_rast_500m.tif</text>
</g>
<!-- /Users/slaughter/git/OHI&#45;Science/ohibc/prep/lsp/vHS/spatial/hs_pep_rast_500m.tif&#45;&gt;ohibc run 1 -->
<g id="edge8" class="edge"><title>/Users/slaughter/git/OHI&#45;Science/ohibc/prep/lsp/vHS/spatial/hs_pep_rast_500m.tif&#45;&gt;ohibc run 1</title>
<path fill="none" stroke="black" d="M501.834,-1059.79C518.421,-1053.1 533.888,-1044.06 547.318,-1032 594.47,-989.67 613.431,-792.855 619.225,-718.42"/>
<polygon fill="black" stroke="black" points="622.722,-718.594 619.987,-708.358 615.742,-718.066 622.722,-718.594"/>
</g>
<!-- /Users/slaughter/git/OHI&#45;Science/ohibc/rasterize_HS_WDPA_and_PEP.R -->
<g id="node17" class="node"><title>/Users/slaughter/git/OHI&#45;Science/ohibc/rasterize_HS_WDPA_and_PEP.R</title>
<path fill="#ffe4b5" stroke="black" d="M452,-1032C452,-1032 103.318,-1032 103.318,-1032 97.3183,-1032 91.3183,-1026 91.3183,-1020 91.3183,-1020 91.3183,-1008 91.3183,-1008 91.3183,-1002 97.3183,-996 103.318,-996 103.318,-996 452,-996 452,-996 458,-996 464,-1002 464,-1008 464,-1008 464,-1020 464,-1020 464,-1026 458,-1032 452,-1032"/>
<text text-anchor="middle" x="277.659" y="-1011.3" font-family="Courier,monospace" font-weight="bold" font-size="9.00">/Users/slaughter/git/OHI&#45;Science/ohibc/rasterize_HS_WDPA_and_PEP.R</text>
</g>
<!-- /Users/slaughter/git/OHI&#45;Science/ohibc/prep/lsp/vHS/spatial/hs_inland_1km_raster_500m.tif -->
<g id="node18" class="node"><title>/Users/slaughter/git/OHI&#45;Science/ohibc/prep/lsp/vHS/spatial/hs_inland_1km_raster_500m.tif</title>
<path fill="#ffe4b5" stroke="black" d="M513.679,-978C513.679,-978 41.6389,-978 41.6389,-978 35.6389,-978 29.6389,-972 29.6389,-966 29.6389,-966 29.6389,-954 29.6389,-954 29.6389,-948 35.6389,-942 41.6389,-942 41.6389,-942 513.679,-942 513.679,-942 519.679,-942 525.679,-948 525.679,-954 525.679,-954 525.679,-966 525.679,-966 525.679,-972 519.679,-978 513.679,-978"/>
<text text-anchor="middle" x="277.659" y="-957.3" font-family="Courier,monospace" font-weight="bold" font-size="9.00">/Users/slaughter/git/OHI&#45;Science/ohibc/prep/lsp/vHS/spatial/hs_inland_1km_raster_500m.tif</text>
</g>
<!-- /Users/slaughter/git/OHI&#45;Science/ohibc/prep/lsp/vHS/spatial/hs_inland_1km_raster_500m.tif&#45;&gt;ohibc run 1 -->
<g id="edge6" class="edge"><title>/Users/slaughter/git/OHI&#45;Science/ohibc/prep/lsp/vHS/spatial/hs_inland_1km_raster_500m.tif&#45;&gt;ohibc run 1</title>
<path fill="none" stroke="black" d="M519.877,-941.95C529.592,-936.928 538.805,-930.992 547.318,-924 610.341,-872.235 620.937,-768.451 621.964,-718.21"/>
<polygon fill="black" stroke="black" points="625.465,-718.087 622.052,-708.057 618.465,-718.026 625.465,-718.087"/>
</g>
<!-- /Users/slaughter/git/OHI&#45;Science/ohibc/prep/lsp/vHS/spatial/hs_offshore_3nm_raster_500m.tif -->
<g id="node19" class="node"><title>/Users/slaughter/git/OHI&#45;Science/ohibc/prep/lsp/vHS/spatial/hs_offshore_3nm_raster_500m.tif</title>
<path fill="#ffe4b5" stroke="black" d="M519.477,-924C519.477,-924 35.8409,-924 35.8409,-924 29.8409,-924 23.8409,-918 23.8409,-912 23.8409,-912 23.8409,-900 23.8409,-900 23.8409,-894 29.8409,-888 35.8409,-888 35.8409,-888 519.477,-888 519.477,-888 525.477,-888 531.477,-894 531.477,-900 531.477,-900 531.477,-912 531.477,-912 531.477,-918 525.477,-924 519.477,-924"/>
<text text-anchor="middle" x="277.659" y="-903.3" font-family="Courier,monospace" font-weight="bold" font-size="9.00">/Users/slaughter/git/OHI&#45;Science/ohibc/prep/lsp/vHS/spatial/hs_offshore_3nm_raster_500m.tif</text>
</g>
<!-- /Users/slaughter/git/OHI&#45;Science/ohibc/prep/lsp/vHS/spatial/hs_offshore_3nm_raster_500m.tif&#45;&gt;ohibc run 1 -->
<g id="edge5" class="edge"><title>/Users/slaughter/git/OHI&#45;Science/ohibc/prep/lsp/vHS/spatial/hs_offshore_3nm_raster_500m.tif&#45;&gt;ohibc run 1</title>
<path fill="none" stroke="black" d="M517.64,-887.878C528.106,-882.918 538.074,-877.011 547.318,-870 596.161,-832.959 612.804,-758.989 618.454,-718.205"/>
<polygon fill="black" stroke="black" points="621.948,-718.474 619.721,-708.116 615.002,-717.602 621.948,-718.474"/>
</g>
<!-- /Users/slaughter/git/OHI&#45;Science/ohibc/get_analysis_rasters.R -->
<g id="node20" class="node"><title>/Users/slaughter/git/OHI&#45;Science/ohibc/get_analysis_rasters.R</title>
<path fill="#ffe4b5" stroke="black" d="M438.504,-870C438.504,-870 116.814,-870 116.814,-870 110.814,-870 104.814,-864 104.814,-858 104.814,-858 104.814,-846 104.814,-846 104.814,-840 110.814,-834 116.814,-834 116.814,-834 438.504,-834 438.504,-834 444.504,-834 450.504,-840 450.504,-846 450.504,-846 450.504,-858 450.504,-858 450.504,-864 444.504,-870 438.504,-870"/>
<text text-anchor="middle" x="277.659" y="-849.3" font-family="Courier,monospace" font-weight="bold" font-size="9.00">/Users/slaughter/git/OHI&#45;Science/ohibc/get_analysis_rasters.R</text>
</g>
<!-- /Users/slaughter/git/OHI&#45;Science/ohibc/prep/lsp/vHS/spatial/howe_sound_watershed_500m.tif -->
<g id="node21" class="node"><title>/Users/slaughter/git/OHI&#45;Science/ohibc/prep/lsp/vHS/spatial/howe_sound_watershed_500m.tif</title>
<path fill="#ffe4b5" stroke="black" d="M513.679,-816C513.679,-816 41.6389,-816 41.6389,-816 35.6389,-816 29.6389,-810 29.6389,-804 29.6389,-804 29.6389,-792 29.6389,-792 29.6389,-786 35.6389,-780 41.6389,-780 41.6389,-780 513.679,-780 513.679,-780 519.679,-780 525.679,-786 525.679,-792 525.679,-792 525.679,-804 525.679,-804 525.679,-810 519.679,-816 513.679,-816"/>
<text text-anchor="middle" x="277.659" y="-795.3" font-family="Courier,monospace" font-weight="bold" font-size="9.00">/Users/slaughter/git/OHI&#45;Science/ohibc/prep/lsp/vHS/spatial/howe_sound_watershed_500m.tif</text>
</g>
<!-- /Users/slaughter/git/OHI&#45;Science/ohibc/prep/lsp/vHS/spatial/howe_sound_watershed_500m.tif&#45;&gt;ohibc run 1 -->
<g id="edge7" class="edge"><title>/Users/slaughter/git/OHI&#45;Science/ohibc/prep/lsp/vHS/spatial/howe_sound_watershed_500m.tif&#45;&gt;ohibc run 1</title>
<path fill="none" stroke="black" d="M500.497,-779.957C516.756,-775.298 532.55,-769.414 547.318,-762 568.63,-751.301 586.798,-731.698 599.801,-715.509"/>
<polygon fill="black" stroke="black" points="602.723,-717.455 606.12,-707.419 597.206,-713.146 602.723,-717.455"/>
</g>
<!-- /Users/slaughter/git/OHI&#45;Science/ohibc/setup_watershed_raster.R -->
<g id="node22" class="node"><title>/Users/slaughter/git/OHI&#45;Science/ohibc/setup_watershed_raster.R</title>
<path fill="#ffe4b5" stroke="black" d="M443.802,-762C443.802,-762 111.516,-762 111.516,-762 105.516,-762 99.5157,-756 99.5157,-750 99.5157,-750 99.5157,-738 99.5157,-738 99.5157,-732 105.516,-726 111.516,-726 111.516,-726 443.802,-726 443.802,-726 449.802,-726 455.802,-732 455.802,-738 455.802,-738 455.802,-750 455.802,-750 455.802,-756 449.802,-762 443.802,-762"/>
<text text-anchor="middle" x="277.659" y="-741.3" font-family="Courier,monospace" font-weight="bold" font-size="9.00">/Users/slaughter/git/OHI&#45;Science/ohibc/setup_watershed_raster.R</text>
</g>
<!-- /Users/slaughter/git/OHI&#45;Science/ohibc/prep/lsp/vHS/int/zonal_stats_3nm.csv -->
<g id="node23" class="node"><title>/Users/slaughter/git/OHI&#45;Science/ohibc/prep/lsp/vHS/int/zonal_stats_3nm.csv</title>
<path fill="#ffe4b5" stroke="black" d="M476.092,-708C476.092,-708 79.2265,-708 79.2265,-708 73.2265,-708 67.2265,-702 67.2265,-696 67.2265,-696 67.2265,-684 67.2265,-684 67.2265,-678 73.2265,-672 79.2265,-672 79.2265,-672 476.092,-672 476.092,-672 482.092,-672 488.092,-678 488.092,-684 488.092,-684 488.092,-696 488.092,-696 488.092,-702 482.092,-708 476.092,-708"/>
<text text-anchor="middle" x="277.659" y="-687.3" font-family="Courier,monospace" font-weight="bold" font-size="9.00">/Users/slaughter/git/OHI&#45;Science/ohibc/prep/lsp/vHS/int/zonal_stats_3nm.csv</text>
</g>
<!-- /Users/slaughter/git/OHI&#45;Science/ohibc/prep/lsp/vHS/int/zonal_stats_3nm.csv&#45;&gt;ohibc run 1 -->
<g id="edge10" class="edge"><title>/Users/slaughter/git/OHI&#45;Science/ohibc/prep/lsp/vHS/int/zonal_stats_3nm.csv&#45;&gt;ohibc run 1</title>
<path fill="none" stroke="black" d="M488.36,-683.403C514.034,-683.61 538.497,-684.029 559.279,-684.66"/>
<polygon fill="black" stroke="black" points="559.375,-688.165 569.485,-684.998 559.607,-681.169 559.375,-688.165"/>
</g>
<!-- /Users/slaughter/git/OHI&#45;Science/ohibc/prep/lsp/vHS/int/zonal_stats_1km.csv -->
<g id="node24" class="node"><title>/Users/slaughter/git/OHI&#45;Science/ohibc/prep/lsp/vHS/int/zonal_stats_1km.csv</title>
<path fill="#ffe4b5" stroke="black" d="M476.092,-654C476.092,-654 79.2265,-654 79.2265,-654 73.2265,-654 67.2265,-648 67.2265,-642 67.2265,-642 67.2265,-630 67.2265,-630 67.2265,-624 73.2265,-618 79.2265,-618 79.2265,-618 476.092,-618 476.092,-618 482.092,-618 488.092,-624 488.092,-630 488.092,-630 488.092,-642 488.092,-642 488.092,-648 482.092,-654 476.092,-654"/>
<text text-anchor="middle" x="277.659" y="-633.3" font-family="Courier,monospace" font-weight="bold" font-size="9.00">/Users/slaughter/git/OHI&#45;Science/ohibc/prep/lsp/vHS/int/zonal_stats_1km.csv</text>
</g>
<!-- /Users/slaughter/git/OHI&#45;Science/ohibc/prep/lsp/vHS/int/zonal_stats_1km.csv&#45;&gt;ohibc run 1 -->
<g id="edge11" class="edge"><title>/Users/slaughter/git/OHI&#45;Science/ohibc/prep/lsp/vHS/int/zonal_stats_1km.csv&#45;&gt;ohibc run 1</title>
<path fill="none" stroke="black" d="M488.124,-642.945C508.239,-645.974 528.24,-649.634 547.318,-654 562.233,-657.413 578.245,-662.998 591.548,-668.956"/>
<polygon fill="black" stroke="black" points="590.171,-672.177 600.702,-673.334 593.191,-665.862 590.171,-672.177"/>
</g>
<!-- /Users/slaughter/git/OHI&#45;Science/ohibc/prep/lsp/vHS/int/zonal_stats_ws.csv -->
<g id="node25" class="node"><title>/Users/slaughter/git/OHI&#45;Science/ohibc/prep/lsp/vHS/int/zonal_stats_ws.csv</title>
<path fill="#ffe4b5" stroke="black" d="M473.193,-600C473.193,-600 82.1254,-600 82.1254,-600 76.1254,-600 70.1254,-594 70.1254,-588 70.1254,-588 70.1254,-576 70.1254,-576 70.1254,-570 76.1254,-564 82.1254,-564 82.1254,-564 473.193,-564 473.193,-564 479.193,-564 485.193,-570 485.193,-576 485.193,-576 485.193,-588 485.193,-588 485.193,-594 479.193,-600 473.193,-600"/>
<text text-anchor="middle" x="277.659" y="-579.3" font-family="Courier,monospace" font-weight="bold" font-size="9.00">/Users/slaughter/git/OHI&#45;Science/ohibc/prep/lsp/vHS/int/zonal_stats_ws.csv</text>
</g>
<!-- /Users/slaughter/git/OHI&#45;Science/ohibc/prep/lsp/vHS/int/zonal_stats_ws.csv&#45;&gt;ohibc run 1 -->
<g id="edge12" class="edge"><title>/Users/slaughter/git/OHI&#45;Science/ohibc/prep/lsp/vHS/int/zonal_stats_ws.csv&#45;&gt;ohibc run 1</title>
<path fill="none" stroke="black" d="M485.509,-578.219C507.027,-583.255 528.047,-590.325 547.318,-600 574.457,-613.625 596.499,-641.689 609.269,-663.1"/>
<polygon fill="black" stroke="black" points="606.371,-665.089 614.315,-672.1 612.477,-661.666 606.371,-665.089"/>
</g>
<!-- /Users/slaughter/git/OHI&#45;Science/ohibc/lsp_zonal_stats.R -->
<g id="node26" class="node"><title>/Users/slaughter/git/OHI&#45;Science/ohibc/lsp_zonal_stats.R</title>
<path fill="#ffe4b5" stroke="black" d="M425.009,-546C425.009,-546 130.309,-546 130.309,-546 124.309,-546 118.309,-540 118.309,-534 118.309,-534 118.309,-522 118.309,-522 118.309,-516 124.309,-510 130.309,-510 130.309,-510 425.009,-510 425.009,-510 431.009,-510 437.009,-516 437.009,-522 437.009,-522 437.009,-534 437.009,-534 437.009,-540 431.009,-546 425.009,-546"/>
<text text-anchor="middle" x="277.659" y="-525.3" font-family="Courier,monospace" font-weight="bold" font-size="9.00">/Users/slaughter/git/OHI&#45;Science/ohibc/lsp_zonal_stats.R</text>
</g>
<!-- /Users/slaughter/git/OHI&#45;Science/ohibc/prep/lsp/vHS/int/area_protected_ws.csv -->
<g id="node27" class="node"><title>/Users/slaughter/git/OHI&#45;Science/ohibc/prep/lsp/vHS/int/area_protected_ws.csv</title>
<path fill="#ffe4b5" stroke="black" d="M481.39,-492C481.39,-492 73.9283,-492 73.9283,-492 67.9283,-492 61.9283,-486 61.9283,-480 61.9283,-480 61.9283,-468 61.9283,-468 61.9283,-462 67.9283,-456 73.9283,-456 73.9283,-456 481.39,-456 481.39,-456 487.39,-456 493.39,-462 493.39,-468 493.39,-468 493.39,-480 493.39,-480 493.39,-486 487.39,-492 481.39,-492"/>
<text text-anchor="middle" x="277.659" y="-471.3" font-family="Courier,monospace" font-weight="bold" font-size="9.00">/Users/slaughter/git/OHI&#45;Science/ohibc/prep/lsp/vHS/int/area_protected_ws.csv</text>
</g>
<!-- /Users/slaughter/git/OHI&#45;Science/ohibc/prep/lsp/vHS/int/area_protected_ws.csv&#45;&gt;ohibc run 1 -->
<g id="edge15" class="edge"><title>/Users/slaughter/git/OHI&#45;Science/ohibc/prep/lsp/vHS/int/area_protected_ws.csv&#45;&gt;ohibc run 1</title>
<path fill="none" stroke="black" d="M342.658,-455.991C401.754,-447.45 488.957,-447.741 547.318,-492 600.753,-532.524 615.648,-617.245 619.774,-661.754"/>
<polygon fill="black" stroke="black" points="616.299,-662.21 620.59,-671.896 623.277,-661.648 616.299,-662.21"/>
</g>
<!-- /Users/slaughter/git/OHI&#45;Science/ohibc/prep/lsp/vHS/int/area_protected_3nm.csv -->
<g id="node28" class="node"><title>/Users/slaughter/git/OHI&#45;Science/ohibc/prep/lsp/vHS/int/area_protected_3nm.csv</title>
<path fill="#ffe4b5" stroke="black" d="M484.289,-438C484.289,-438 71.0292,-438 71.0292,-438 65.0292,-438 59.0292,-432 59.0292,-426 59.0292,-426 59.0292,-414 59.0292,-414 59.0292,-408 65.0292,-402 71.0292,-402 71.0292,-402 484.289,-402 484.289,-402 490.289,-402 496.289,-408 496.289,-414 496.289,-414 496.289,-426 496.289,-426 496.289,-432 490.289,-438 484.289,-438"/>
<text text-anchor="middle" x="277.659" y="-417.3" font-family="Courier,monospace" font-weight="bold" font-size="9.00">/Users/slaughter/git/OHI&#45;Science/ohibc/prep/lsp/vHS/int/area_protected_3nm.csv</text>
</g>
<!-- /Users/slaughter/git/OHI&#45;Science/ohibc/prep/lsp/vHS/int/area_protected_3nm.csv&#45;&gt;ohibc run 1 -->
<g id="edge13" class="edge"><title>/Users/slaughter/git/OHI&#45;Science/ohibc/prep/lsp/vHS/int/area_protected_3nm.csv&#45;&gt;ohibc run 1</title>
<path fill="none" stroke="black" d="M337.266,-401.985C396.922,-391.784 488.725,-389.874 547.318,-438 614.75,-493.387 622.163,-608.325 622.053,-661.824"/>
<polygon fill="black" stroke="black" points="618.552,-661.929 621.941,-671.967 625.552,-662.006 618.552,-661.929"/>
</g>
<!-- /Users/slaughter/git/OHI&#45;Science/ohibc/prep/lsp/vHS/int/area_protected_1km.csv -->
<g id="node29" class="node"><title>/Users/slaughter/git/OHI&#45;Science/ohibc/prep/lsp/vHS/int/area_protected_1km.csv</title>
<path fill="#ffe4b5" stroke="black" d="M484.289,-384C484.289,-384 71.0292,-384 71.0292,-384 65.0292,-384 59.0292,-378 59.0292,-372 59.0292,-372 59.0292,-360 59.0292,-360 59.0292,-354 65.0292,-348 71.0292,-348 71.0292,-348 484.289,-348 484.289,-348 490.289,-348 496.289,-354 496.289,-360 496.289,-360 496.289,-372 496.289,-372 496.289,-378 490.289,-384 484.289,-384"/>
<text text-anchor="middle" x="277.659" y="-363.3" font-family="Courier,monospace" font-weight="bold" font-size="9.00">/Users/slaughter/git/OHI&#45;Science/ohibc/prep/lsp/vHS/int/area_protected_1km.csv</text>
</g>
<!-- /Users/slaughter/git/OHI&#45;Science/ohibc/prep/lsp/vHS/int/area_protected_1km.csv&#45;&gt;ohibc run 1 -->
<g id="edge14" class="edge"><title>/Users/slaughter/git/OHI&#45;Science/ohibc/prep/lsp/vHS/int/area_protected_1km.csv&#45;&gt;ohibc run 1</title>
<path fill="none" stroke="black" d="M334.468,-347.982C394.417,-336.79 488.919,-333.463 547.318,-384 588.989,-420.061 611.724,-592.636 618.855,-661.641"/>
<polygon fill="black" stroke="black" points="615.391,-662.186 619.865,-671.79 622.357,-661.492 615.391,-662.186"/>
</g>
<!-- /Users/slaughter/git/OHI&#45;Science/ohibc/summarize_zonal_stats.R -->
<g id="node30" class="node"><title>/Users/slaughter/git/OHI&#45;Science/ohibc/summarize_zonal_stats.R</title>
<path fill="#ffe4b5" stroke="black" d="M440.903,-330C440.903,-330 114.415,-330 114.415,-330 108.415,-330 102.415,-324 102.415,-318 102.415,-318 102.415,-306 102.415,-306 102.415,-300 108.415,-294 114.415,-294 114.415,-294 440.903,-294 440.903,-294 446.903,-294 452.903,-300 452.903,-306 452.903,-306 452.903,-318 452.903,-318 452.903,-324 446.903,-330 440.903,-330"/>
<text text-anchor="middle" x="277.659" y="-309.3" font-family="Courier,monospace" font-weight="bold" font-size="9.00">/Users/slaughter/git/OHI&#45;Science/ohibc/summarize_zonal_stats.R</text>
</g>
<!-- /Users/slaughter/git/OHI&#45;Science/ohibc/prep/lsp/vHS/output/area_protected_total.csv -->
<g id="node31" class="node"><title>/Users/slaughter/git/OHI&#45;Science/ohibc/prep/lsp/vHS/output/area_protected_total.csv</title>
<path fill="#ffe4b5" stroke="black" d="M497.784,-276C497.784,-276 57.5337,-276 57.5337,-276 51.5337,-276 45.5337,-270 45.5337,-264 45.5337,-264 45.5337,-252 45.5337,-252 45.5337,-246 51.5337,-240 57.5337,-240 57.5337,-240 497.784,-240 497.784,-240 503.784,-240 509.784,-246 509.784,-252 509.784,-252 509.784,-264 509.784,-264 509.784,-270 503.784,-276 497.784,-276"/>
<text text-anchor="middle" x="277.659" y="-255.3" font-family="Courier,monospace" font-weight="bold" font-size="9.00">/Users/slaughter/git/OHI&#45;Science/ohibc/prep/lsp/vHS/output/area_protected_total.csv</text>
</g>
<!-- /Users/slaughter/git/OHI&#45;Science/ohibc/prep/lsp/vHS/output/area_protected_total.csv&#45;&gt;ohibc run 1 -->
<g id="edge16" class="edge"><title>/Users/slaughter/git/OHI&#45;Science/ohibc/prep/lsp/vHS/output/area_protected_total.csv&#45;&gt;ohibc run 1</title>
<path fill="none" stroke="black" d="M309.531,-239.924C364.961,-221.064 481.68,-206.45 547.318,-267 604.376,-319.635 617.898,-574.515 620.686,-661.543"/>
<polygon fill="black" stroke="black" points="617.194,-661.866 620.987,-671.759 624.191,-661.66 617.194,-661.866"/>
</g>
<!-- /Users/slaughter/git/OHI&#45;Science/ohibc/prep/lsp/vHS/output/area_protected_total.csv&#45;&gt;ohibc run 1 -->
<g id="edge17" class="edge"><title>/Users/slaughter/git/OHI&#45;Science/ohibc/prep/lsp/vHS/output/area_protected_total.csv&#45;&gt;ohibc run 1</title>
<path fill="none" stroke="black" d="M509.821,-260.184C523.435,-266.528 536.12,-274.67 547.318,-285 602.808,-336.188 617.122,-578.659 620.431,-661.882"/>
<polygon fill="black" stroke="black" points="616.933,-662.016 620.805,-671.878 623.929,-661.754 616.933,-662.016"/>
</g>
<!-- /Users/slaughter/git/OHI&#45;Science/ohibc/combine_inland_and_offshore.R -->
<g id="node32" class="node"><title>/Users/slaughter/git/OHI&#45;Science/ohibc/combine_inland_and_offshore.R</title>
<path fill="#ffe4b5" stroke="black" d="M457.298,-222C457.298,-222 98.0202,-222 98.0202,-222 92.0202,-222 86.0202,-216 86.0202,-210 86.0202,-210 86.0202,-198 86.0202,-198 86.0202,-192 92.0202,-186 98.0202,-186 98.0202,-186 457.298,-186 457.298,-186 463.298,-186 469.298,-192 469.298,-198 469.298,-198 469.298,-210 469.298,-210 469.298,-216 463.298,-222 457.298,-222"/>
<text text-anchor="middle" x="277.659" y="-201.3" font-family="Courier,monospace" font-weight="bold" font-size="9.00">/Users/slaughter/git/OHI&#45;Science/ohibc/combine_inland_and_offshore.R</text>
</g>
<!-- /Users/slaughter/git/OHI&#45;Science/ohibc/prep/lsp/vHS/output/lsp_status.csv -->
<g id="node33" class="node"><title>/Users/slaughter/git/OHI&#45;Science/ohibc/prep/lsp/vHS/output/lsp_status.csv</title>
<path fill="#ffe4b5" stroke="black" d="M470.793,-168C470.793,-168 84.5247,-168 84.5247,-168 78.5247,-168 72.5247,-162 72.5247,-156 72.5247,-156 72.5247,-144 72.5247,-144 72.5247,-138 78.5247,-132 84.5247,-132 84.5247,-132 470.793,-132 470.793,-132 476.793,-132 482.793,-138 482.793,-144 482.793,-144 482.793,-156 482.793,-156 482.793,-162 476.793,-168 470.793,-168"/>
<text text-anchor="middle" x="277.659" y="-147.3" font-family="Courier,monospace" font-weight="bold" font-size="9.00">/Users/slaughter/git/OHI&#45;Science/ohibc/prep/lsp/vHS/output/lsp_status.csv</text>
</g>
<!-- /Users/slaughter/git/OHI&#45;Science/ohibc/prep/lsp/vHS/output/lsp_trend.csv -->
<g id="node34" class="node"><title>/Users/slaughter/git/OHI&#45;Science/ohibc/prep/lsp/vHS/output/lsp_trend.csv</title>
<path fill="#ffe4b5" stroke="black" d="M467.894,-114C467.894,-114 87.4238,-114 87.4238,-114 81.4238,-114 75.4238,-108 75.4238,-102 75.4238,-102 75.4238,-90 75.4238,-90 75.4238,-84 81.4238,-78 87.4238,-78 87.4238,-78 467.894,-78 467.894,-78 473.894,-78 479.894,-84 479.894,-90 479.894,-90 479.894,-102 479.894,-102 479.894,-108 473.894,-114 467.894,-114"/>
<text text-anchor="middle" x="277.659" y="-93.3" font-family="Courier,monospace" font-weight="bold" font-size="9.00">/Users/slaughter/git/OHI&#45;Science/ohibc/prep/lsp/vHS/output/lsp_trend.csv</text>
</g>
<!-- /Users/slaughter/git/OHI&#45;Science/ohibc/estimate_status_and_trend_by_year.R -->
<g id="node35" class="node"><title>/Users/slaughter/git/OHI&#45;Science/ohibc/estimate_status_and_trend_by_year.R</title>
<path fill="#ffe4b5" stroke="black" d="M473.193,-60C473.193,-60 82.1254,-60 82.1254,-60 76.1254,-60 70.1254,-54 70.1254,-48 70.1254,-48 70.1254,-36 70.1254,-36 70.1254,-30 76.1254,-24 82.1254,-24 82.1254,-24 473.193,-24 473.193,-24 479.193,-24 485.193,-30 485.193,-36 485.193,-36 485.193,-48 485.193,-48 485.193,-54 479.193,-60 473.193,-60"/>
<text text-anchor="middle" x="277.659" y="-39.3" font-family="Courier,monospace" font-weight="bold" font-size="9.00">/Users/slaughter/git/OHI&#45;Science/ohibc/estimate_status_and_trend_by_year.R</text>
</g>
<!-- ohibc run 1&#45;&gt;/Users/slaughter/git/OHI&#45;Science/ohibc/prep/lsp/vHS/spatial/hs_pep_poly.shp -->
<g id="edge18" class="edge"><title>ohibc run 1&#45;&gt;/Users/slaughter/git/OHI&#45;Science/ohibc/prep/lsp/vHS/spatial/hs_pep_poly.shp</title>
<path fill="none" stroke="black" d="M620.297,-708.055C614.795,-800.462 587.83,-1217.67 547.318,-1257 533.069,-1270.83 516.178,-1280.83 497.91,-1287.87"/>
<polygon fill="black" stroke="black" points="496.499,-1284.66 488.238,-1291.3 498.833,-1291.26 496.499,-1284.66"/>
</g>
<!-- ohibc run 1&#45;&gt;/Users/slaughter/git/OHI&#45;Science/ohibc/prep/lsp/vHS/spatial/hs_wdpa_rast_500m.tif -->
<g id="edge19" class="edge"><title>ohibc run 1&#45;&gt;/Users/slaughter/git/OHI&#45;Science/ohibc/prep/lsp/vHS/spatial/hs_wdpa_rast_500m.tif</title>
<path fill="none" stroke="black" d="M620.902,-708.317C618.645,-781.553 606.029,-1049.84 547.318,-1104 492.485,-1154.58 402.004,-1152.71 341.386,-1141.89"/>
<polygon fill="black" stroke="black" points="342.031,-1138.45 331.551,-1140.01 340.715,-1145.33 342.031,-1138.45"/>
</g>
<!-- ohibc run 1&#45;&gt;/Users/slaughter/git/OHI&#45;Science/ohibc/prep/lsp/vHS/spatial/hs_pep_rast_500m.tif -->
<g id="edge20" class="edge"><title>ohibc run 1&#45;&gt;/Users/slaughter/git/OHI&#45;Science/ohibc/prep/lsp/vHS/spatial/hs_pep_rast_500m.tif</title>
<path fill="none" stroke="black" d="M620.465,-708.066C616.566,-774.812 598.643,-1003.92 547.318,-1050 492.414,-1099.29 403.468,-1098.18 343.093,-1087.91"/>
<polygon fill="black" stroke="black" points="343.381,-1084.41 332.914,-1086.05 342.119,-1091.29 343.381,-1084.41"/>
</g>
<!-- ohibc run 1&#45;&gt;/Users/slaughter/git/OHI&#45;Science/ohibc/prep/lsp/vHS/spatial/hs_inland_1km_raster_500m.tif -->
<g id="edge21" class="edge"><title>ohibc run 1&#45;&gt;/Users/slaughter/git/OHI&#45;Science/ohibc/prep/lsp/vHS/spatial/hs_inland_1km_raster_500m.tif</title>
<path fill="none" stroke="black" d="M621.941,-708.033C622.9,-755.556 619.396,-882.797 547.318,-942 491.93,-987.494 406.863,-988.275 347.331,-979.608"/>
<polygon fill="black" stroke="black" points="347.69,-976.121 337.266,-978.015 346.596,-983.035 347.69,-976.121"/>
</g>
<!-- ohibc run 1&#45;&gt;/Users/slaughter/git/OHI&#45;Science/ohibc/prep/lsp/vHS/spatial/hs_offshore_3nm_raster_500m.tif -->
<g id="edge22" class="edge"><title>ohibc run 1&#45;&gt;/Users/slaughter/git/OHI&#45;Science/ohibc/prep/lsp/vHS/spatial/hs_offshore_3nm_raster_500m.tif</title>
<path fill="none" stroke="black" d="M620.59,-708.104C617.842,-748.484 605.159,-844.135 547.318,-888 492.149,-929.839 411.206,-932.386 352.596,-925.326"/>
<polygon fill="black" stroke="black" points="353.031,-921.853 342.658,-924.009 352.112,-928.792 353.031,-921.853"/>
</g>
<!-- ohibc run 1&#45;&gt;/Users/slaughter/git/OHI&#45;Science/ohibc/prep/lsp/vHS/spatial/howe_sound_watershed_500m.tif -->
<g id="edge23" class="edge"><title>ohibc run 1&#45;&gt;/Users/slaughter/git/OHI&#45;Science/ohibc/prep/lsp/vHS/spatial/howe_sound_watershed_500m.tif</title>
<path fill="none" stroke="black" d="M614.315,-707.9C602.911,-729.689 578.474,-764.359 547.318,-780 543.43,-781.952 539.47,-783.798 535.45,-785.543"/>
<polygon fill="black" stroke="black" points="533.888,-782.4 525.963,-789.432 536.544,-788.877 533.888,-782.4"/>
</g>
<!-- ohibc run 1&#45;&gt;/Users/slaughter/git/OHI&#45;Science/ohibc/prep/lsp/vHS/int/zonal_stats_3nm.csv -->
<g id="edge24" class="edge"><title>ohibc run 1&#45;&gt;/Users/slaughter/git/OHI&#45;Science/ohibc/prep/lsp/vHS/int/zonal_stats_3nm.csv</title>
<path fill="none" stroke="black" d="M569.485,-695.002C549.306,-695.73 524.724,-696.231 498.49,-696.504"/>
<polygon fill="black" stroke="black" points="498.327,-693.005 488.36,-696.597 498.392,-700.005 498.327,-693.005"/>
</g>
<!-- ohibc run 1&#45;&gt;/Users/slaughter/git/OHI&#45;Science/ohibc/prep/lsp/vHS/int/zonal_stats_1km.csv -->
<g id="edge25" class="edge"><title>ohibc run 1&#45;&gt;/Users/slaughter/git/OHI&#45;Science/ohibc/prep/lsp/vHS/int/zonal_stats_1km.csv</title>
<path fill="none" stroke="black" d="M575.677,-680.151C566.416,-677.123 556.652,-674.136 547.318,-672 515.224,-664.656 480.518,-659.309 447.049,-655.231"/>
<polygon fill="black" stroke="black" points="447.049,-651.706 436.707,-654.005 446.225,-658.658 447.049,-651.706"/>
</g>
<!-- ohibc run 1&#45;&gt;/Users/slaughter/git/OHI&#45;Science/ohibc/prep/lsp/vHS/int/zonal_stats_ws.csv -->
<g id="edge26" class="edge"><title>ohibc run 1&#45;&gt;/Users/slaughter/git/OHI&#45;Science/ohibc/prep/lsp/vHS/int/zonal_stats_ws.csv</title>
<path fill="none" stroke="black" d="M606.12,-672.581C593.036,-655.407 572.345,-630.564 547.318,-618 530.983,-609.799 513.391,-603.47 495.304,-598.601"/>
<polygon fill="black" stroke="black" points="496.063,-595.182 485.509,-596.115 494.34,-601.967 496.063,-595.182"/>
</g>
<!-- ohibc run 1&#45;&gt;/Users/slaughter/git/OHI&#45;Science/ohibc/prep/lsp/vHS/int/area_protected_ws.csv -->
<g id="edge27" class="edge"><title>ohibc run 1&#45;&gt;/Users/slaughter/git/OHI&#45;Science/ohibc/prep/lsp/vHS/int/area_protected_ws.csv</title>
<path fill="none" stroke="black" d="M619.721,-671.884C615.521,-634.526 600.526,-550.352 547.318,-510 533.814,-499.759 518.766,-491.872 502.879,-485.853"/>
<polygon fill="black" stroke="black" points="504.028,-482.547 493.433,-482.522 501.7,-489.149 504.028,-482.547"/>
</g>
<!-- ohibc run 1&#45;&gt;/Users/slaughter/git/OHI&#45;Science/ohibc/prep/lsp/vHS/int/area_protected_3nm.csv -->
<g id="edge28" class="edge"><title>ohibc run 1&#45;&gt;/Users/slaughter/git/OHI&#45;Science/ohibc/prep/lsp/vHS/int/area_protected_3nm.csv</title>
<path fill="none" stroke="black" d="M622.052,-671.943C622.21,-627.059 614.965,-511.564 547.318,-456 534.794,-445.713 520.752,-437.712 505.831,-431.545"/>
<polygon fill="black" stroke="black" points="507.023,-428.254 496.433,-427.939 504.515,-434.789 507.023,-428.254"/>
</g>
<!-- ohibc run 1&#45;&gt;/Users/slaughter/git/OHI&#45;Science/ohibc/prep/lsp/vHS/int/area_protected_1km.csv -->
<g id="edge29" class="edge"><title>ohibc run 1&#45;&gt;/Users/slaughter/git/OHI&#45;Science/ohibc/prep/lsp/vHS/int/area_protected_1km.csv</title>
<path fill="none" stroke="black" d="M619.066,-671.836C612.182,-614.137 589.41,-438.425 547.318,-402 534.916,-391.267 520.885,-382.964 505.903,-376.604"/>
<polygon fill="black" stroke="black" points="507.045,-373.292 496.457,-372.89 504.483,-379.806 507.045,-373.292"/>
</g>
<!-- ohibc run 1&#45;&gt;/Users/slaughter/git/OHI&#45;Science/ohibc/prep/lsp/vHS/output/area_protected_total.csv -->
<g id="edge30" class="edge"><title>ohibc run 1&#45;&gt;/Users/slaughter/git/OHI&#45;Science/ohibc/prep/lsp/vHS/output/area_protected_total.csv</title>
<path fill="none" stroke="black" d="M620.511,-671.56C617.358,-600.711 603.271,-354.615 547.318,-303 537.365,-293.818 526.237,-286.365 514.327,-280.341"/>
<polygon fill="black" stroke="black" points="515.613,-277.079 505.073,-276.008 512.645,-283.419 515.613,-277.079"/>
</g>
<!-- ohibc run 1&#45;&gt;/Users/slaughter/git/OHI&#45;Science/ohibc/prep/lsp/vHS/output/lsp_status.csv -->
<g id="edge31" class="edge"><title>ohibc run 1&#45;&gt;/Users/slaughter/git/OHI&#45;Science/ohibc/prep/lsp/vHS/output/lsp_status.csv</title>
<path fill="none" stroke="black" d="M621.566,-671.784C622.196,-588.715 620.265,-246.866 547.318,-177 531.682,-162.025 512.944,-151.574 492.731,-144.503"/>
<polygon fill="black" stroke="black" points="493.614,-141.11 483.023,-141.393 491.479,-147.777 493.614,-141.11"/>
</g>
<!-- ohibc run 1&#45;&gt;/Users/slaughter/git/OHI&#45;Science/ohibc/prep/lsp/vHS/output/lsp_trend.csv -->
<g id="edge32" class="edge"><title>ohibc run 1&#45;&gt;/Users/slaughter/git/OHI&#45;Science/ohibc/prep/lsp/vHS/output/lsp_trend.csv</title>
<path fill="none" stroke="black" d="M620.297,-671.945C614.795,-579.538 587.83,-162.328 547.318,-123 530.984,-107.143 511.179,-96.3306 489.807,-89.2194"/>
<polygon fill="black" stroke="black" points="490.809,-85.8657 480.223,-86.3012 488.77,-92.5622 490.809,-85.8657"/>
</g>
</g>
</svg>
