<?xml version="1.0" encoding="UTF-8" standalone="no"?>
<!DOCTYPE svg PUBLIC "-//W3C//DTD SVG 1.1//EN"
 "http://www.w3.org/Graphics/SVG/1.1/DTD/svg11.dtd">
<!-- Generated by graphviz version 2.38.0 (20140413.2041)
 -->
<!-- Title: rm_data_view Pages: 1 -->
<svg width="542pt" height="554pt"
 viewBox="0.00 0.00 542.00 553.60" xmlns="http://www.w3.org/2000/svg" xmlns:xlink="http://www.w3.org/1999/xlink">
<g id="graph0" class="graph" transform="scale(1 1) rotate(0) translate(4 549.6)">
<title>rm_data_view</title>
<polygon fill="white" stroke="none" points="-4,4 -4,-549.6 538,-549.6 538,4 -4,4"/>
<text text-anchor="middle" x="267" y="-525.4" font-family="Courier,monospace" font-size="18.00">multiple_runs</text>
<g id="clust1" class="cluster"><title>cluster_workflow</title>
<polygon fill="none" stroke="black" stroke-width="2" points="8,-8 8,-508 526,-508 526,-8 8,-8"/>
</g>
<g id="clust2" class="cluster"><title>cluster_workflow_inner</title>
<polygon fill="none" stroke="white" stroke-width="2" points="16,-16 16,-500 518,-500 518,-16 16,-16"/>
</g>
<!-- r_script_1_run_1 -->
<g id="node1" class="node"><title>r_script_1_run_1</title>
<polygon fill="#ccffcc" stroke="black" points="342.378,-420 191.622,-420 191.622,-384 342.378,-384 342.378,-420"/>
<text text-anchor="middle" x="267" y="-397.8" font-family="Courier,monospace" font-size="14.00">r_script_1_run_1</text>
</g>
<!-- data_output11 -->
<g id="node9" class="node"><title>data_output11</title>
<path fill="#ffffcc" stroke="black" d="M349.999,-348C349.999,-348 268.001,-348 268.001,-348 262.001,-348 256.001,-342 256.001,-336 256.001,-336 256.001,-324 256.001,-324 256.001,-318 262.001,-312 268.001,-312 268.001,-312 349.999,-312 349.999,-312 355.999,-312 361.999,-318 361.999,-324 361.999,-324 361.999,-336 361.999,-336 361.999,-342 355.999,-348 349.999,-348"/>
<text text-anchor="middle" x="309" y="-325.8" font-family="Helvetica,sans-Serif" font-size="14.00">data_output11</text>
</g>
<!-- r_script_1_run_1&#45;&gt;data_output11 -->
<g id="edge11" class="edge"><title>r_script_1_run_1&#45;&gt;data_output11</title>
<path fill="none" stroke="black" d="M277.382,-383.697C282.265,-375.559 288.187,-365.689 293.579,-356.701"/>
<polygon fill="black" stroke="black" points="296.594,-358.48 298.737,-348.104 290.591,-354.879 296.594,-358.48"/>
</g>
<!-- r_script_2_run_1 -->
<g id="node2" class="node"><title>r_script_2_run_1</title>
<polygon fill="#ccffcc" stroke="black" points="300.378,-276 149.622,-276 149.622,-240 300.378,-240 300.378,-276"/>
<text text-anchor="middle" x="225" y="-253.8" font-family="Courier,monospace" font-size="14.00">r_script_2_run_1</text>
</g>
<!-- data_output21 -->
<g id="node10" class="node"><title>data_output21</title>
<path fill="#ffffcc" stroke="black" d="M276.999,-204C276.999,-204 195.001,-204 195.001,-204 189.001,-204 183.001,-198 183.001,-192 183.001,-192 183.001,-180 183.001,-180 183.001,-174 189.001,-168 195.001,-168 195.001,-168 276.999,-168 276.999,-168 282.999,-168 288.999,-174 288.999,-180 288.999,-180 288.999,-192 288.999,-192 288.999,-198 282.999,-204 276.999,-204"/>
<text text-anchor="middle" x="236" y="-181.8" font-family="Helvetica,sans-Serif" font-size="14.00">data_output21</text>
</g>
<!-- r_script_2_run_1&#45;&gt;data_output21 -->
<g id="edge12" class="edge"><title>r_script_2_run_1&#45;&gt;data_output21</title>
<path fill="none" stroke="black" d="M227.719,-239.697C228.931,-231.983 230.388,-222.712 231.739,-214.112"/>
<polygon fill="black" stroke="black" points="235.217,-214.526 233.312,-204.104 228.302,-213.44 235.217,-214.526"/>
</g>
<!-- r_script_1_run_2 -->
<g id="node3" class="node"><title>r_script_1_run_2</title>
<polygon fill="#ccffcc" stroke="black" points="510.378,-420 359.622,-420 359.622,-384 510.378,-384 510.378,-420"/>
<text text-anchor="middle" x="435" y="-397.8" font-family="Courier,monospace" font-size="14.00">r_script_1_run_2</text>
</g>
<!-- r_script_1_run_2&#45;&gt;data_output11 -->
<g id="edge13" class="edge"><title>r_script_1_run_2&#45;&gt;data_output11</title>
<path fill="none" stroke="black" d="M404.177,-383.876C387.55,-374.639 366.835,-363.131 348.981,-353.212"/>
<polygon fill="black" stroke="black" points="350.383,-349.987 339.942,-348.19 346.983,-356.106 350.383,-349.987"/>
</g>
<!-- r_script_2_run_2 -->
<g id="node4" class="node"><title>r_script_2_run_2</title>
<polygon fill="#ccffcc" stroke="black" points="468.378,-276 317.622,-276 317.622,-240 468.378,-240 468.378,-276"/>
<text text-anchor="middle" x="393" y="-253.8" font-family="Courier,monospace" font-size="14.00">r_script_2_run_2</text>
</g>
<!-- data_output22 -->
<g id="node11" class="node"><title>data_output22</title>
<path fill="#ffffcc" stroke="black" d="M421.999,-204C421.999,-204 340.001,-204 340.001,-204 334.001,-204 328.001,-198 328.001,-192 328.001,-192 328.001,-180 328.001,-180 328.001,-174 334.001,-168 340.001,-168 340.001,-168 421.999,-168 421.999,-168 427.999,-168 433.999,-174 433.999,-180 433.999,-180 433.999,-192 433.999,-192 433.999,-198 427.999,-204 421.999,-204"/>
<text text-anchor="middle" x="381" y="-181.8" font-family="Helvetica,sans-Serif" font-size="14.00">data_output22</text>
</g>
<!-- r_script_2_run_2&#45;&gt;data_output22 -->
<g id="edge14" class="edge"><title>r_script_2_run_2&#45;&gt;data_output22</title>
<path fill="none" stroke="black" d="M390.034,-239.697C388.711,-231.983 387.122,-222.712 385.648,-214.112"/>
<polygon fill="black" stroke="black" points="389.072,-213.369 383.932,-204.104 382.172,-214.552 389.072,-213.369"/>
</g>
<!-- r_script_3_run_1 -->
<g id="node5" class="node"><title>r_script_3_run_1</title>
<polygon fill="#ccffcc" stroke="black" points="372.378,-132 221.622,-132 221.622,-96 372.378,-96 372.378,-132"/>
<text text-anchor="middle" x="297" y="-109.8" font-family="Courier,monospace" font-size="14.00">r_script_3_run_1</text>
</g>
<!-- data_output31 -->
<g id="node12" class="node"><title>data_output31</title>
<path fill="#ffffcc" stroke="black" d="M337.999,-60C337.999,-60 256.001,-60 256.001,-60 250.001,-60 244.001,-54 244.001,-48 244.001,-48 244.001,-36 244.001,-36 244.001,-30 250.001,-24 256.001,-24 256.001,-24 337.999,-24 337.999,-24 343.999,-24 349.999,-30 349.999,-36 349.999,-36 349.999,-48 349.999,-48 349.999,-54 343.999,-60 337.999,-60"/>
<text text-anchor="middle" x="297" y="-37.8" font-family="Helvetica,sans-Serif" font-size="14.00">data_output31</text>
</g>
<!-- r_script_3_run_1&#45;&gt;data_output31 -->
<g id="edge15" class="edge"><title>r_script_3_run_1&#45;&gt;data_output31</title>
<path fill="none" stroke="black" d="M297,-95.6966C297,-87.9827 297,-78.7125 297,-70.1124"/>
<polygon fill="black" stroke="black" points="300.5,-70.1043 297,-60.1043 293.5,-70.1044 300.5,-70.1043"/>
</g>
<!-- r_script_1_run_3 -->
<g id="node6" class="node"><title>r_script_1_run_3</title>
<polygon fill="#ccffcc" stroke="black" points="174.378,-420 23.6219,-420 23.6219,-384 174.378,-384 174.378,-420"/>
<text text-anchor="middle" x="99" y="-397.8" font-family="Courier,monospace" font-size="14.00">r_script_1_run_3</text>
</g>
<!-- data_output11_2 -->
<g id="node15" class="node"><title>data_output11_2</title>
<path fill="#ffffcc" stroke="black" d="M147.563,-348C147.563,-348 50.437,-348 50.437,-348 44.437,-348 38.437,-342 38.437,-336 38.437,-336 38.437,-324 38.437,-324 38.437,-318 44.437,-312 50.437,-312 50.437,-312 147.563,-312 147.563,-312 153.563,-312 159.563,-318 159.563,-324 159.563,-324 159.563,-336 159.563,-336 159.563,-342 153.563,-348 147.563,-348"/>
<text text-anchor="middle" x="99" y="-325.8" font-family="Helvetica,sans-Serif" font-size="14.00">data_output11_2</text>
</g>
<!-- r_script_1_run_3&#45;&gt;data_output11_2 -->
<g id="edge16" class="edge"><title>r_script_1_run_3&#45;&gt;data_output11_2</title>
<path fill="none" stroke="black" d="M99,-383.697C99,-375.983 99,-366.712 99,-358.112"/>
<polygon fill="black" stroke="black" points="102.5,-358.104 99,-348.104 95.5001,-358.104 102.5,-358.104"/>
</g>
<!-- data_input11 -->
<g id="node7" class="node"><title>data_input11</title>
<path fill="#ffffcc" stroke="black" d="M484.431,-492C484.431,-492 411.569,-492 411.569,-492 405.569,-492 399.569,-486 399.569,-480 399.569,-480 399.569,-468 399.569,-468 399.569,-462 405.569,-456 411.569,-456 411.569,-456 484.431,-456 484.431,-456 490.431,-456 496.431,-462 496.431,-468 496.431,-468 496.431,-480 496.431,-480 496.431,-486 490.431,-492 484.431,-492"/>
<text text-anchor="middle" x="448" y="-469.8" font-family="Helvetica,sans-Serif" font-size="14.00">data_input11</text>
</g>
<!-- data_input11&#45;&gt;r_script_1_run_1 -->
<g id="edge1" class="edge"><title>data_input11&#45;&gt;r_script_1_run_1</title>
<path fill="none" stroke="black" d="M403.722,-455.876C378.649,-446.179 347.104,-433.98 320.635,-423.743"/>
<polygon fill="black" stroke="black" points="321.723,-420.411 311.134,-420.068 319.198,-426.94 321.723,-420.411"/>
</g>
<!-- data_input11&#45;&gt;r_script_1_run_2 -->
<g id="edge4" class="edge"><title>data_input11&#45;&gt;r_script_1_run_2</title>
<path fill="none" stroke="black" d="M444.787,-455.697C443.354,-447.983 441.632,-438.712 440.035,-430.112"/>
<polygon fill="black" stroke="black" points="443.444,-429.297 438.177,-420.104 436.561,-430.575 443.444,-429.297"/>
</g>
<!-- data_input12 -->
<g id="node8" class="node"><title>data_input12</title>
<path fill="#ffffcc" stroke="black" d="M369.431,-492C369.431,-492 296.569,-492 296.569,-492 290.569,-492 284.569,-486 284.569,-480 284.569,-480 284.569,-468 284.569,-468 284.569,-462 290.569,-456 296.569,-456 296.569,-456 369.431,-456 369.431,-456 375.431,-456 381.431,-462 381.431,-468 381.431,-468 381.431,-480 381.431,-480 381.431,-486 375.431,-492 369.431,-492"/>
<text text-anchor="middle" x="333" y="-469.8" font-family="Helvetica,sans-Serif" font-size="14.00">data_input12</text>
</g>
<!-- data_input12&#45;&gt;r_script_1_run_1 -->
<g id="edge2" class="edge"><title>data_input12&#45;&gt;r_script_1_run_1</title>
<path fill="none" stroke="black" d="M316.685,-455.697C308.693,-447.22 298.928,-436.864 290.178,-427.583"/>
<polygon fill="black" stroke="black" points="292.534,-424.979 283.127,-420.104 287.441,-429.781 292.534,-424.979"/>
</g>
<!-- data_input12&#45;&gt;r_script_1_run_2 -->
<g id="edge5" class="edge"><title>data_input12&#45;&gt;r_script_1_run_2</title>
<path fill="none" stroke="black" d="M357.952,-455.876C371.042,-446.893 387.26,-435.763 401.436,-426.034"/>
<polygon fill="black" stroke="black" points="403.687,-428.734 409.952,-420.19 399.726,-422.962 403.687,-428.734"/>
</g>
<!-- data_output11&#45;&gt;r_script_2_run_1 -->
<g id="edge3" class="edge"><title>data_output11&#45;&gt;r_script_2_run_1</title>
<path fill="none" stroke="black" d="M288.236,-311.697C277.759,-302.965 264.889,-292.24 253.5,-282.75"/>
<polygon fill="black" stroke="black" points="255.448,-279.817 245.525,-276.104 250.967,-285.195 255.448,-279.817"/>
</g>
<!-- data_output11&#45;&gt;r_script_2_run_2 -->
<g id="edge6" class="edge"><title>data_output11&#45;&gt;r_script_2_run_2</title>
<path fill="none" stroke="black" d="M329.764,-311.697C340.241,-302.965 353.111,-292.24 364.5,-282.75"/>
<polygon fill="black" stroke="black" points="367.033,-285.195 372.475,-276.104 362.552,-279.817 367.033,-285.195"/>
</g>
<!-- data_output21&#45;&gt;r_script_3_run_1 -->
<g id="edge7" class="edge"><title>data_output21&#45;&gt;r_script_3_run_1</title>
<path fill="none" stroke="black" d="M251.079,-167.697C258.392,-159.305 267.31,-149.07 275.335,-139.861"/>
<polygon fill="black" stroke="black" points="278.164,-141.943 282.095,-132.104 272.886,-137.344 278.164,-141.943"/>
</g>
<!-- data_output22&#45;&gt;r_script_3_run_1 -->
<g id="edge8" class="edge"><title>data_output22&#45;&gt;r_script_3_run_1</title>
<path fill="none" stroke="black" d="M360.236,-167.697C349.759,-158.965 336.889,-148.24 325.5,-138.75"/>
<polygon fill="black" stroke="black" points="327.448,-135.817 317.525,-132.104 322.967,-141.195 327.448,-135.817"/>
</g>
<!-- data_input11_2 -->
<g id="node13" class="node"><title>data_input11_2</title>
<path fill="#ffffcc" stroke="black" d="M254.498,-492C254.498,-492 165.502,-492 165.502,-492 159.502,-492 153.502,-486 153.502,-480 153.502,-480 153.502,-468 153.502,-468 153.502,-462 159.502,-456 165.502,-456 165.502,-456 254.498,-456 254.498,-456 260.498,-456 266.498,-462 266.498,-468 266.498,-468 266.498,-480 266.498,-480 266.498,-486 260.498,-492 254.498,-492"/>
<text text-anchor="middle" x="210" y="-469.8" font-family="Helvetica,sans-Serif" font-size="14.00">data_input11_2</text>
</g>
<!-- data_input11_2&#45;&gt;r_script_1_run_3 -->
<g id="edge9" class="edge"><title>data_input11_2&#45;&gt;r_script_1_run_3</title>
<path fill="none" stroke="black" d="M182.846,-455.876C168.467,-446.808 150.619,-435.552 135.09,-425.759"/>
<polygon fill="black" stroke="black" points="136.584,-422.564 126.258,-420.19 132.85,-428.484 136.584,-422.564"/>
</g>
<!-- data_input12_2 -->
<g id="node14" class="node"><title>data_input12_2</title>
<path fill="#ffffcc" stroke="black" d="M124.498,-492C124.498,-492 35.5025,-492 35.5025,-492 29.5025,-492 23.5025,-486 23.5025,-480 23.5025,-480 23.5025,-468 23.5025,-468 23.5025,-462 29.5025,-456 35.5025,-456 35.5025,-456 124.498,-456 124.498,-456 130.498,-456 136.498,-462 136.498,-468 136.498,-468 136.498,-480 136.498,-480 136.498,-486 130.498,-492 124.498,-492"/>
<text text-anchor="middle" x="80" y="-469.8" font-family="Helvetica,sans-Serif" font-size="14.00">data_input12_2</text>
</g>
<!-- data_input12_2&#45;&gt;r_script_1_run_3 -->
<g id="edge10" class="edge"><title>data_input12_2&#45;&gt;r_script_1_run_3</title>
<path fill="none" stroke="black" d="M84.6966,-455.697C86.8134,-447.898 89.362,-438.509 91.7178,-429.829"/>
<polygon fill="black" stroke="black" points="95.1156,-430.672 94.3574,-420.104 88.36,-428.838 95.1156,-430.672"/>
</g>
</g>
</svg>
