<?xml version="1.0" encoding="UTF-8" standalone="no"?>
<!DOCTYPE svg PUBLIC "-//W3C//DTD SVG 1.1//EN"
 "http://www.w3.org/Graphics/SVG/1.1/DTD/svg11.dtd">
<!-- Generated by graphviz version 2.38.0 (20140413.2041)
 -->
<!-- Title: yw_data_view Pages: 1 -->
<svg width="1213pt" height="770pt"
 viewBox="0.00 0.00 1213.23 769.60" xmlns="http://www.w3.org/2000/svg" xmlns:xlink="http://www.w3.org/1999/xlink">
<g id="graph0" class="graph" transform="scale(1 1) rotate(0) translate(4 765.6)">
<title>yw_data_view</title>
<polygon fill="white" stroke="none" points="-4,4 -4,-765.6 1209.23,-765.6 1209.23,4 -4,4"/>
<text text-anchor="middle" x="602.614" y="-741.4" font-family="Courier,monospace" font-size="18.00">Upstream graph for multiple runs</text>
<g id="clust1" class="cluster"><title>cluster_workflow</title>
<polygon fill="none" stroke="black" stroke-width="2" points="8,-8 8,-724 1197.23,-724 1197.23,-8 8,-8"/>
</g>
<g id="clust2" class="cluster"><title>cluster_workflow_inner</title>
<polygon fill="none" stroke="white" stroke-width="2" points="16,-16 16,-716 1189.23,-716 1189.23,-16 16,-16"/>
</g>
<!-- ohibc run 1 -->
<g id="node1" class="node"><title>ohibc run 1</title>
<polygon fill="black" stroke="black" points="638.102,-384 529.331,-384 529.331,-348 638.102,-348 638.102,-384"/>
<text text-anchor="middle" x="583.717" y="-361.8" font-family="Courier,monospace" font-weight="bold" font-size="14.00" fill="white">ohibc run 1</text>
</g>
<!-- /Users/slaughter/git/OHI&#45;Science/ohibc/prep/lsp/vHS/spatial/hs_offshore_3nm_raster_500m.tif -->
<g id="node2" class="node"><title>/Users/slaughter/git/OHI&#45;Science/ohibc/prep/lsp/vHS/spatial/hs_offshore_3nm_raster_500m.tif</title>
<path fill="#ffe4b5" stroke="black" d="M1169.39,-60C1169.39,-60 685.75,-60 685.75,-60 679.75,-60 673.75,-54 673.75,-48 673.75,-48 673.75,-36 673.75,-36 673.75,-30 679.75,-24 685.75,-24 685.75,-24 1169.39,-24 1169.39,-24 1175.39,-24 1181.39,-30 1181.39,-36 1181.39,-36 1181.39,-48 1181.39,-48 1181.39,-54 1175.39,-60 1169.39,-60"/>
<text text-anchor="middle" x="927.568" y="-39.3" font-family="Courier,monospace" font-weight="bold" font-size="9.00">/Users/slaughter/git/OHI&#45;Science/ohibc/prep/lsp/vHS/spatial/hs_offshore_3nm_raster_500m.tif</text>
</g>
<!-- ohibc run 1&#45;&gt;/Users/slaughter/git/OHI&#45;Science/ohibc/prep/lsp/vHS/spatial/hs_offshore_3nm_raster_500m.tif -->
<g id="edge14" class="edge"><title>ohibc run 1&#45;&gt;/Users/slaughter/git/OHI&#45;Science/ohibc/prep/lsp/vHS/spatial/hs_offshore_3nm_raster_500m.tif</title>
<path fill="none" stroke="black" d="M584.004,-347.984C582.505,-295.541 584.505,-143.667 666.045,-66.9531"/>
<polygon fill="black" stroke="black" points="668.484,-69.4686 673.648,-60.2173 663.842,-64.2293 668.484,-69.4686"/>
</g>
<!-- /Users/slaughter/git/OHI&#45;Science/ohibc/prep/lsp/vHS/output/area_protected_total.csv -->
<g id="node3" class="node"><title>/Users/slaughter/git/OHI&#45;Science/ohibc/prep/lsp/vHS/output/area_protected_total.csv</title>
<path fill="#ffe4b5" stroke="black" d="M1147.69,-114C1147.69,-114 707.443,-114 707.443,-114 701.443,-114 695.443,-108 695.443,-102 695.443,-102 695.443,-90 695.443,-90 695.443,-84 701.443,-78 707.443,-78 707.443,-78 1147.69,-78 1147.69,-78 1153.69,-78 1159.69,-84 1159.69,-90 1159.69,-90 1159.69,-102 1159.69,-102 1159.69,-108 1153.69,-114 1147.69,-114"/>
<text text-anchor="middle" x="927.568" y="-93.3" font-family="Courier,monospace" font-weight="bold" font-size="9.00">/Users/slaughter/git/OHI&#45;Science/ohibc/prep/lsp/vHS/output/area_protected_total.csv</text>
</g>
<!-- ohibc run 1&#45;&gt;/Users/slaughter/git/OHI&#45;Science/ohibc/prep/lsp/vHS/output/area_protected_total.csv -->
<g id="edge15" class="edge"><title>ohibc run 1&#45;&gt;/Users/slaughter/git/OHI&#45;Science/ohibc/prep/lsp/vHS/output/area_protected_total.csv</title>
<path fill="none" stroke="black" d="M585.073,-347.901C586.981,-300.193 598.982,-172.48 673.909,-114 723.18,-75.5441 795.303,-71.3845 849.892,-76.8637"/>
<polygon fill="black" stroke="black" points="849.541,-80.3463 859.871,-77.9929 850.328,-73.3907 849.541,-80.3463"/>
</g>
<!-- /Users/slaughter/git/OHI&#45;Science/ohibc/prep/lsp/vHS/int/area_protected_3nm.csv -->
<g id="node4" class="node"><title>/Users/slaughter/git/OHI&#45;Science/ohibc/prep/lsp/vHS/int/area_protected_3nm.csv</title>
<path fill="#ffe4b5" stroke="black" d="M1134.2,-168C1134.2,-168 720.938,-168 720.938,-168 714.938,-168 708.938,-162 708.938,-156 708.938,-156 708.938,-144 708.938,-144 708.938,-138 714.938,-132 720.938,-132 720.938,-132 1134.2,-132 1134.2,-132 1140.2,-132 1146.2,-138 1146.2,-144 1146.2,-144 1146.2,-156 1146.2,-156 1146.2,-162 1140.2,-168 1134.2,-168"/>
<text text-anchor="middle" x="927.568" y="-147.3" font-family="Courier,monospace" font-weight="bold" font-size="9.00">/Users/slaughter/git/OHI&#45;Science/ohibc/prep/lsp/vHS/int/area_protected_3nm.csv</text>
</g>
<!-- ohibc run 1&#45;&gt;/Users/slaughter/git/OHI&#45;Science/ohibc/prep/lsp/vHS/int/area_protected_3nm.csv -->
<g id="edge16" class="edge"><title>ohibc run 1&#45;&gt;/Users/slaughter/git/OHI&#45;Science/ohibc/prep/lsp/vHS/int/area_protected_3nm.csv</title>
<path fill="none" stroke="black" d="M586.624,-347.834C592.362,-307.302 612.998,-211.316 673.909,-168 720.926,-134.565 785.844,-128.245 838.102,-131.261"/>
<polygon fill="black" stroke="black" points="838.155,-134.774 848.376,-131.984 838.646,-127.791 838.155,-134.774"/>
</g>
<!-- /Users/slaughter/git/OHI&#45;Science/ohibc/prep/lsp/vHS/int/zonal_stats_3nm.csv -->
<g id="node5" class="node"><title>/Users/slaughter/git/OHI&#45;Science/ohibc/prep/lsp/vHS/int/zonal_stats_3nm.csv</title>
<path fill="#ffe4b5" stroke="black" d="M1126,-222C1126,-222 729.136,-222 729.136,-222 723.136,-222 717.136,-216 717.136,-210 717.136,-210 717.136,-198 717.136,-198 717.136,-192 723.136,-186 729.136,-186 729.136,-186 1126,-186 1126,-186 1132,-186 1138,-192 1138,-198 1138,-198 1138,-210 1138,-210 1138,-216 1132,-222 1126,-222"/>
<text text-anchor="middle" x="927.568" y="-201.3" font-family="Courier,monospace" font-weight="bold" font-size="9.00">/Users/slaughter/git/OHI&#45;Science/ohibc/prep/lsp/vHS/int/zonal_stats_3nm.csv</text>
</g>
<!-- ohibc run 1&#45;&gt;/Users/slaughter/git/OHI&#45;Science/ohibc/prep/lsp/vHS/int/zonal_stats_3nm.csv -->
<g id="edge17" class="edge"><title>ohibc run 1&#45;&gt;/Users/slaughter/git/OHI&#45;Science/ohibc/prep/lsp/vHS/int/zonal_stats_3nm.csv</title>
<path fill="none" stroke="black" d="M589.06,-347.968C599.024,-315.86 626.396,-250.915 673.909,-222 684.465,-215.576 695.736,-210.234 707.439,-205.827"/>
<polygon fill="black" stroke="black" points="708.643,-209.114 716.912,-202.49 706.317,-202.512 708.643,-209.114"/>
</g>
<!-- /Users/slaughter/git/OHI&#45;Science/ohibc/prep/lsp/vHS/spatial/howe_sound_watershed_500m.tif -->
<g id="node6" class="node"><title>/Users/slaughter/git/OHI&#45;Science/ohibc/prep/lsp/vHS/spatial/howe_sound_watershed_500m.tif</title>
<path fill="#ffe4b5" stroke="black" d="M1163.59,-276C1163.59,-276 691.548,-276 691.548,-276 685.548,-276 679.548,-270 679.548,-264 679.548,-264 679.548,-252 679.548,-252 679.548,-246 685.548,-240 691.548,-240 691.548,-240 1163.59,-240 1163.59,-240 1169.59,-240 1175.59,-246 1175.59,-252 1175.59,-252 1175.59,-264 1175.59,-264 1175.59,-270 1169.59,-276 1163.59,-276"/>
<text text-anchor="middle" x="927.568" y="-255.3" font-family="Courier,monospace" font-weight="bold" font-size="9.00">/Users/slaughter/git/OHI&#45;Science/ohibc/prep/lsp/vHS/spatial/howe_sound_watershed_500m.tif</text>
</g>
<!-- ohibc run 1&#45;&gt;/Users/slaughter/git/OHI&#45;Science/ohibc/prep/lsp/vHS/spatial/howe_sound_watershed_500m.tif -->
<g id="edge18" class="edge"><title>ohibc run 1&#45;&gt;/Users/slaughter/git/OHI&#45;Science/ohibc/prep/lsp/vHS/spatial/howe_sound_watershed_500m.tif</title>
<path fill="none" stroke="black" d="M594.06,-347.75C607.602,-327.655 634.519,-296.881 670.143,-278.119"/>
<polygon fill="black" stroke="black" points="671.924,-281.145 679.384,-273.622 668.861,-274.85 671.924,-281.145"/>
</g>
<!-- /Users/slaughter/git/OHI&#45;Science/ohibc/prep/lsp/vHS/int/area_protected_ws.csv -->
<g id="node7" class="node"><title>/Users/slaughter/git/OHI&#45;Science/ohibc/prep/lsp/vHS/int/area_protected_ws.csv</title>
<path fill="#ffe4b5" stroke="black" d="M1131.3,-330C1131.3,-330 723.837,-330 723.837,-330 717.837,-330 711.837,-324 711.837,-318 711.837,-318 711.837,-306 711.837,-306 711.837,-300 717.837,-294 723.837,-294 723.837,-294 1131.3,-294 1131.3,-294 1137.3,-294 1143.3,-300 1143.3,-306 1143.3,-306 1143.3,-318 1143.3,-318 1143.3,-324 1137.3,-330 1131.3,-330"/>
<text text-anchor="middle" x="927.568" y="-309.3" font-family="Courier,monospace" font-weight="bold" font-size="9.00">/Users/slaughter/git/OHI&#45;Science/ohibc/prep/lsp/vHS/int/area_protected_ws.csv</text>
</g>
<!-- ohibc run 1&#45;&gt;/Users/slaughter/git/OHI&#45;Science/ohibc/prep/lsp/vHS/int/area_protected_ws.csv -->
<g id="edge19" class="edge"><title>ohibc run 1&#45;&gt;/Users/slaughter/git/OHI&#45;Science/ohibc/prep/lsp/vHS/int/area_protected_ws.csv</title>
<path fill="none" stroke="black" d="M613.689,-347.874C630.967,-340.974 653.455,-334.15 673.909,-330 683.054,-328.144 692.412,-326.411 701.887,-324.797"/>
<polygon fill="black" stroke="black" points="702.503,-328.243 711.798,-323.159 701.361,-321.337 702.503,-328.243"/>
</g>
<!-- /Users/slaughter/git/OHI&#45;Science/ohibc/prep/lsp/vHS/int/zonal_stats_ws.csv -->
<g id="node8" class="node"><title>/Users/slaughter/git/OHI&#45;Science/ohibc/prep/lsp/vHS/int/zonal_stats_ws.csv</title>
<path fill="#ffe4b5" stroke="black" d="M1123.1,-384C1123.1,-384 732.034,-384 732.034,-384 726.034,-384 720.034,-378 720.034,-372 720.034,-372 720.034,-360 720.034,-360 720.034,-354 726.034,-348 732.034,-348 732.034,-348 1123.1,-348 1123.1,-348 1129.1,-348 1135.1,-354 1135.1,-360 1135.1,-360 1135.1,-372 1135.1,-372 1135.1,-378 1129.1,-384 1123.1,-384"/>
<text text-anchor="middle" x="927.568" y="-363.3" font-family="Courier,monospace" font-weight="bold" font-size="9.00">/Users/slaughter/git/OHI&#45;Science/ohibc/prep/lsp/vHS/int/zonal_stats_ws.csv</text>
</g>
<!-- ohibc run 1&#45;&gt;/Users/slaughter/git/OHI&#45;Science/ohibc/prep/lsp/vHS/int/zonal_stats_ws.csv -->
<g id="edge20" class="edge"><title>ohibc run 1&#45;&gt;/Users/slaughter/git/OHI&#45;Science/ohibc/prep/lsp/vHS/int/zonal_stats_ws.csv</title>
<path fill="none" stroke="black" d="M638.131,-360.938C658.529,-360.221 683.254,-359.733 709.552,-359.473"/>
<polygon fill="black" stroke="black" points="709.734,-362.972 719.703,-359.384 709.672,-355.972 709.734,-362.972"/>
</g>
<!-- /Users/slaughter/git/OHI&#45;Science/ohibc/prep/lsp/vHS/spatial/hs_wdpa_rast_500m.tif -->
<g id="node9" class="node"><title>/Users/slaughter/git/OHI&#45;Science/ohibc/prep/lsp/vHS/spatial/hs_wdpa_rast_500m.tif</title>
<path fill="#ffe4b5" stroke="black" d="M1142.4,-438C1142.4,-438 712.741,-438 712.741,-438 706.741,-438 700.741,-432 700.741,-426 700.741,-426 700.741,-414 700.741,-414 700.741,-408 706.741,-402 712.741,-402 712.741,-402 1142.4,-402 1142.4,-402 1148.4,-402 1154.4,-408 1154.4,-414 1154.4,-414 1154.4,-426 1154.4,-426 1154.4,-432 1148.4,-438 1142.4,-438"/>
<text text-anchor="middle" x="927.568" y="-417.3" font-family="Courier,monospace" font-weight="bold" font-size="9.00">/Users/slaughter/git/OHI&#45;Science/ohibc/prep/lsp/vHS/spatial/hs_wdpa_rast_500m.tif</text>
</g>
<!-- ohibc run 1&#45;&gt;/Users/slaughter/git/OHI&#45;Science/ohibc/prep/lsp/vHS/spatial/hs_wdpa_rast_500m.tif -->
<g id="edge21" class="edge"><title>ohibc run 1&#45;&gt;/Users/slaughter/git/OHI&#45;Science/ohibc/prep/lsp/vHS/spatial/hs_wdpa_rast_500m.tif</title>
<path fill="none" stroke="black" d="M638.069,-375.143C649.773,-378.359 662.176,-381.619 673.909,-384 709.376,-391.197 748.058,-396.554 784.252,-400.808"/>
<polygon fill="black" stroke="black" points="784.055,-404.308 794.39,-401.979 784.858,-397.354 784.055,-404.308"/>
</g>
<!-- /Users/slaughter/git/OHI&#45;Science/ohibc/prep/lsp/vHS/output/lsp_trend.csv -->
<g id="node10" class="node"><title>/Users/slaughter/git/OHI&#45;Science/ohibc/prep/lsp/vHS/output/lsp_trend.csv</title>
<path fill="#ffe4b5" stroke="black" d="M1117.8,-492C1117.8,-492 737.333,-492 737.333,-492 731.333,-492 725.333,-486 725.333,-480 725.333,-480 725.333,-468 725.333,-468 725.333,-462 731.333,-456 737.333,-456 737.333,-456 1117.8,-456 1117.8,-456 1123.8,-456 1129.8,-462 1129.8,-468 1129.8,-468 1129.8,-480 1129.8,-480 1129.8,-486 1123.8,-492 1117.8,-492"/>
<text text-anchor="middle" x="927.568" y="-471.3" font-family="Courier,monospace" font-weight="bold" font-size="9.00">/Users/slaughter/git/OHI&#45;Science/ohibc/prep/lsp/vHS/output/lsp_trend.csv</text>
</g>
<!-- ohibc run 1&#45;&gt;/Users/slaughter/git/OHI&#45;Science/ohibc/prep/lsp/vHS/output/lsp_trend.csv -->
<g id="edge22" class="edge"><title>ohibc run 1&#45;&gt;/Users/slaughter/git/OHI&#45;Science/ohibc/prep/lsp/vHS/output/lsp_trend.csv</title>
<path fill="none" stroke="black" d="M598.579,-384.071C614.471,-403.304 642.422,-432.868 673.909,-447 687.071,-452.907 700.993,-457.746 715.267,-461.693"/>
<polygon fill="black" stroke="black" points="714.64,-465.146 725.199,-464.285 716.407,-458.373 714.64,-465.146"/>
</g>
<!-- /Users/slaughter/git/OHI&#45;Science/ohibc/prep/lsp/vHS/spatial/hs_inland_1km_raster_500m.tif -->
<g id="node11" class="node"><title>/Users/slaughter/git/OHI&#45;Science/ohibc/prep/lsp/vHS/spatial/hs_inland_1km_raster_500m.tif</title>
<path fill="#ffe4b5" stroke="black" d="M1163.59,-546C1163.59,-546 691.548,-546 691.548,-546 685.548,-546 679.548,-540 679.548,-534 679.548,-534 679.548,-522 679.548,-522 679.548,-516 685.548,-510 691.548,-510 691.548,-510 1163.59,-510 1163.59,-510 1169.59,-510 1175.59,-516 1175.59,-522 1175.59,-522 1175.59,-534 1175.59,-534 1175.59,-540 1169.59,-546 1163.59,-546"/>
<text text-anchor="middle" x="927.568" y="-525.3" font-family="Courier,monospace" font-weight="bold" font-size="9.00">/Users/slaughter/git/OHI&#45;Science/ohibc/prep/lsp/vHS/spatial/hs_inland_1km_raster_500m.tif</text>
</g>
<!-- ohibc run 1&#45;&gt;/Users/slaughter/git/OHI&#45;Science/ohibc/prep/lsp/vHS/spatial/hs_inland_1km_raster_500m.tif -->
<g id="edge23" class="edge"><title>ohibc run 1&#45;&gt;/Users/slaughter/git/OHI&#45;Science/ohibc/prep/lsp/vHS/spatial/hs_inland_1km_raster_500m.tif</title>
<path fill="none" stroke="black" d="M593.242,-384.193C605.655,-412.742 631.915,-466.444 673.909,-492 682.976,-497.518 692.571,-502.237 702.513,-506.267"/>
<polygon fill="black" stroke="black" points="701.556,-509.647 712.147,-509.922 704.039,-503.102 701.556,-509.647"/>
</g>
<!-- /Users/slaughter/git/OHI&#45;Science/ohibc/prep/lsp/vHS/int/area_protected_1km.csv -->
<g id="node12" class="node"><title>/Users/slaughter/git/OHI&#45;Science/ohibc/prep/lsp/vHS/int/area_protected_1km.csv</title>
<path fill="#ffe4b5" stroke="black" d="M1134.2,-600C1134.2,-600 720.938,-600 720.938,-600 714.938,-600 708.938,-594 708.938,-588 708.938,-588 708.938,-576 708.938,-576 708.938,-570 714.938,-564 720.938,-564 720.938,-564 1134.2,-564 1134.2,-564 1140.2,-564 1146.2,-570 1146.2,-576 1146.2,-576 1146.2,-588 1146.2,-588 1146.2,-594 1140.2,-600 1134.2,-600"/>
<text text-anchor="middle" x="927.568" y="-579.3" font-family="Courier,monospace" font-weight="bold" font-size="9.00">/Users/slaughter/git/OHI&#45;Science/ohibc/prep/lsp/vHS/int/area_protected_1km.csv</text>
</g>
<!-- ohibc run 1&#45;&gt;/Users/slaughter/git/OHI&#45;Science/ohibc/prep/lsp/vHS/int/area_protected_1km.csv -->
<g id="edge24" class="edge"><title>ohibc run 1&#45;&gt;/Users/slaughter/git/OHI&#45;Science/ohibc/prep/lsp/vHS/int/area_protected_1km.csv</title>
<path fill="none" stroke="black" d="M588.303,-384.218C595.926,-421.736 617.877,-506.153 673.909,-546 681.914,-551.692 690.437,-556.599 699.329,-560.819"/>
<polygon fill="black" stroke="black" points="698.16,-564.129 708.722,-564.972 700.991,-557.727 698.16,-564.129"/>
</g>
<!-- /Users/slaughter/git/OHI&#45;Science/ohibc/prep/lsp/vHS/int/zonal_stats_1km.csv -->
<g id="node14" class="node"><title>/Users/slaughter/git/OHI&#45;Science/ohibc/prep/lsp/vHS/int/zonal_stats_1km.csv</title>
<path fill="#ffe4b5" stroke="black" d="M1126,-654C1126,-654 729.136,-654 729.136,-654 723.136,-654 717.136,-648 717.136,-642 717.136,-642 717.136,-630 717.136,-630 717.136,-624 723.136,-618 729.136,-618 729.136,-618 1126,-618 1126,-618 1132,-618 1138,-624 1138,-630 1138,-630 1138,-642 1138,-642 1138,-648 1132,-654 1126,-654"/>
<text text-anchor="middle" x="927.568" y="-633.3" font-family="Courier,monospace" font-weight="bold" font-size="9.00">/Users/slaughter/git/OHI&#45;Science/ohibc/prep/lsp/vHS/int/zonal_stats_1km.csv</text>
</g>
<!-- ohibc run 1&#45;&gt;/Users/slaughter/git/OHI&#45;Science/ohibc/prep/lsp/vHS/int/zonal_stats_1km.csv -->
<g id="edge25" class="edge"><title>ohibc run 1&#45;&gt;/Users/slaughter/git/OHI&#45;Science/ohibc/prep/lsp/vHS/int/zonal_stats_1km.csv</title>
<path fill="none" stroke="black" d="M585.551,-384.159C588.694,-429.245 603.588,-545.114 673.909,-600 684.301,-608.111 695.709,-614.696 707.756,-620.016"/>
<polygon fill="black" stroke="black" points="706.505,-623.286 717.085,-623.841 709.161,-616.809 706.505,-623.286"/>
</g>
<!-- /Users/slaughter/git/OHI&#45;Science/ohibc/prep/lsp/vHS/spatial/hs_pep_rast_500m.tif -->
<g id="node15" class="node"><title>/Users/slaughter/git/OHI&#45;Science/ohibc/prep/lsp/vHS/spatial/hs_pep_rast_500m.tif</title>
<path fill="#ffe4b5" stroke="black" d="M1139.5,-708C1139.5,-708 715.64,-708 715.64,-708 709.64,-708 703.64,-702 703.64,-696 703.64,-696 703.64,-684 703.64,-684 703.64,-678 709.64,-672 715.64,-672 715.64,-672 1139.5,-672 1139.5,-672 1145.5,-672 1151.5,-678 1151.5,-684 1151.5,-684 1151.5,-696 1151.5,-696 1151.5,-702 1145.5,-708 1139.5,-708"/>
<text text-anchor="middle" x="927.568" y="-687.3" font-family="Courier,monospace" font-weight="bold" font-size="9.00">/Users/slaughter/git/OHI&#45;Science/ohibc/prep/lsp/vHS/spatial/hs_pep_rast_500m.tif</text>
</g>
<!-- ohibc run 1&#45;&gt;/Users/slaughter/git/OHI&#45;Science/ohibc/prep/lsp/vHS/spatial/hs_pep_rast_500m.tif -->
<g id="edge26" class="edge"><title>ohibc run 1&#45;&gt;/Users/slaughter/git/OHI&#45;Science/ohibc/prep/lsp/vHS/spatial/hs_pep_rast_500m.tif</title>
<path fill="none" stroke="black" d="M583.808,-384.274C582.907,-436.186 589.19,-583.685 673.909,-654 680.294,-659.299 687.104,-663.965 694.243,-668.067"/>
<polygon fill="black" stroke="black" points="692.982,-671.36 703.454,-672.965 696.268,-665.179 692.982,-671.36"/>
</g>
<!-- /Users/slaughter/git/OHI&#45;Science/ohibc/prep/lsp/vHS/spatial/hs_offshore_3nm_raster_500m.tif&#45;&gt;ohibc run 1 -->
<g id="edge11" class="edge"><title>/Users/slaughter/git/OHI&#45;Science/ohibc/prep/lsp/vHS/spatial/hs_offshore_3nm_raster_500m.tif&#45;&gt;ohibc run 1</title>
<path fill="none" stroke="black" d="M701.396,-60.0645C691.634,-65.0312 682.395,-70.9565 673.909,-78 594.154,-144.195 583.913,-278.794 583.738,-337.651"/>
<polygon fill="black" stroke="black" points="580.238,-337.751 583.808,-347.726 587.238,-337.702 580.238,-337.751"/>
</g>
<!-- /Users/slaughter/git/OHI&#45;Science/ohibc/prep/lsp/vHS/output/area_protected_total.csv&#45;&gt;ohibc run 1 -->
<g id="edge12" class="edge"><title>/Users/slaughter/git/OHI&#45;Science/ohibc/prep/lsp/vHS/output/area_protected_total.csv&#45;&gt;ohibc run 1</title>
<path fill="none" stroke="black" d="M703.093,-114.123C692.762,-119.041 682.951,-124.943 673.909,-132 608.395,-183.134 590.989,-287.198 586.375,-337.644"/>
<polygon fill="black" stroke="black" points="582.868,-337.591 585.551,-347.841 589.845,-338.155 582.868,-337.591"/>
</g>
<!-- /Users/slaughter/git/OHI&#45;Science/ohibc/prep/lsp/vHS/int/area_protected_3nm.csv&#45;&gt;ohibc run 1 -->
<g id="edge13" class="edge"><title>/Users/slaughter/git/OHI&#45;Science/ohibc/prep/lsp/vHS/int/area_protected_3nm.csv&#45;&gt;ohibc run 1</title>
<path fill="none" stroke="black" d="M708.722,-167.028C696.421,-172.087 684.694,-178.33 673.909,-186 622.364,-222.656 599.66,-297.029 590.42,-337.913"/>
<polygon fill="black" stroke="black" points="586.978,-337.27 588.303,-347.782 593.822,-338.738 586.978,-337.27"/>
</g>
<!-- /Users/slaughter/git/OHI&#45;Science/ohibc/prep/lsp/vHS/int/zonal_stats_3nm.csv&#45;&gt;ohibc run 1 -->
<g id="edge1" class="edge"><title>/Users/slaughter/git/OHI&#45;Science/ohibc/prep/lsp/vHS/int/zonal_stats_3nm.csv&#45;&gt;ohibc run 1</title>
<path fill="none" stroke="black" d="M716.912,-220.442C701.813,-225.456 687.287,-231.858 673.909,-240 636.18,-262.961 611.152,-308.64 597.454,-338.386"/>
<polygon fill="black" stroke="black" points="594.129,-337.25 593.242,-347.807 600.519,-340.107 594.129,-337.25"/>
</g>
<!-- /Users/slaughter/git/OHI&#45;Science/ohibc/prep/lsp/vHS/spatial/howe_sound_watershed_500m.tif&#45;&gt;ohibc run 1 -->
<g id="edge2" class="edge"><title>/Users/slaughter/git/OHI&#45;Science/ohibc/prep/lsp/vHS/spatial/howe_sound_watershed_500m.tif&#45;&gt;ohibc run 1</title>
<path fill="none" stroke="black" d="M727.847,-276.034C709.186,-280.52 690.913,-286.368 673.909,-294 649.913,-304.77 627.972,-324.502 611.855,-340.727"/>
<polygon fill="black" stroke="black" points="609.347,-338.286 604.874,-347.89 614.36,-343.172 609.347,-338.286"/>
</g>
<!-- /Users/slaughter/git/OHI&#45;Science/ohibc/prep/lsp/vHS/int/area_protected_ws.csv&#45;&gt;ohibc run 1 -->
<g id="edge3" class="edge"><title>/Users/slaughter/git/OHI&#45;Science/ohibc/prep/lsp/vHS/int/area_protected_ws.csv&#45;&gt;ohibc run 1</title>
<path fill="none" stroke="black" d="M794.39,-330.021C755.36,-334.455 712.711,-340.126 673.909,-348 665.384,-349.73 656.506,-351.924 647.799,-354.228"/>
<polygon fill="black" stroke="black" points="646.81,-350.87 638.069,-356.857 648.635,-357.627 646.81,-350.87"/>
</g>
<!-- /Users/slaughter/git/OHI&#45;Science/ohibc/prep/lsp/vHS/int/zonal_stats_ws.csv&#45;&gt;ohibc run 1 -->
<g id="edge4" class="edge"><title>/Users/slaughter/git/OHI&#45;Science/ohibc/prep/lsp/vHS/int/zonal_stats_ws.csv&#45;&gt;ohibc run 1</title>
<path fill="none" stroke="black" d="M719.703,-372.616C693.869,-372.42 669.183,-372.01 648.151,-371.386"/>
<polygon fill="black" stroke="black" points="648.239,-367.887 638.131,-371.062 648.013,-374.883 648.239,-367.887"/>
</g>
<!-- /Users/slaughter/git/OHI&#45;Science/ohibc/prep/lsp/vHS/spatial/hs_wdpa_rast_500m.tif&#45;&gt;ohibc run 1 -->
<g id="edge5" class="edge"><title>/Users/slaughter/git/OHI&#45;Science/ohibc/prep/lsp/vHS/spatial/hs_wdpa_rast_500m.tif&#45;&gt;ohibc run 1</title>
<path fill="none" stroke="black" d="M700.675,-406.995C691.614,-405.441 682.664,-403.777 673.909,-402 657.131,-398.595 638.983,-393.392 623.466,-387.823"/>
<polygon fill="black" stroke="black" points="624.28,-384.389 613.689,-384.126 621.804,-390.937 624.28,-384.389"/>
</g>
<!-- /Users/slaughter/git/OHI&#45;Science/ohibc/prep/lsp/vHS/spatial/hs_inland_1km_raster_500m.tif&#45;&gt;ohibc run 1 -->
<g id="edge6" class="edge"><title>/Users/slaughter/git/OHI&#45;Science/ohibc/prep/lsp/vHS/spatial/hs_inland_1km_raster_500m.tif&#45;&gt;ohibc run 1</title>
<path fill="none" stroke="black" d="M679.339,-513.175C677.51,-512.148 675.699,-511.089 673.909,-510 630.85,-483.796 604.334,-428 592.324,-393.872"/>
<polygon fill="black" stroke="black" points="595.531,-392.422 589.06,-384.032 588.887,-394.626 595.531,-392.422"/>
</g>
<!-- /Users/slaughter/git/OHI&#45;Science/ohibc/prep/lsp/vHS/int/area_protected_1km.csv&#45;&gt;ohibc run 1 -->
<g id="edge7" class="edge"><title>/Users/slaughter/git/OHI&#45;Science/ohibc/prep/lsp/vHS/int/area_protected_1km.csv&#45;&gt;ohibc run 1</title>
<path fill="none" stroke="black" d="M848.376,-600.016C794.579,-604.478 724.06,-599.664 673.909,-564 617.519,-523.899 595.647,-438.656 588.158,-394.063"/>
<polygon fill="black" stroke="black" points="591.615,-393.512 586.624,-384.166 584.697,-394.585 591.615,-393.512"/>
</g>
<!-- /Users/slaughter/git/OHI&#45;Science/ohibc/prep/spatial/raster/ohibc_rgn_raster_500m.tif -->
<g id="node13" class="node"><title>/Users/slaughter/git/OHI&#45;Science/ohibc/prep/spatial/raster/ohibc_rgn_raster_500m.tif</title>
<path fill="#ffe4b5" stroke="black" d="M481.287,-384C481.287,-384 36.2376,-384 36.2376,-384 30.2376,-384 24.2376,-378 24.2376,-372 24.2376,-372 24.2376,-360 24.2376,-360 24.2376,-354 30.2376,-348 36.2376,-348 36.2376,-348 481.287,-348 481.287,-348 487.287,-348 493.287,-354 493.287,-360 493.287,-360 493.287,-372 493.287,-372 493.287,-378 487.287,-384 481.287,-384"/>
<text text-anchor="middle" x="258.762" y="-363.3" font-family="Courier,monospace" font-weight="bold" font-size="9.00">/Users/slaughter/git/OHI&#45;Science/ohibc/prep/spatial/raster/ohibc_rgn_raster_500m.tif</text>
</g>
<!-- /Users/slaughter/git/OHI&#45;Science/ohibc/prep/spatial/raster/ohibc_rgn_raster_500m.tif&#45;&gt;ohibc run 1 -->
<g id="edge8" class="edge"><title>/Users/slaughter/git/OHI&#45;Science/ohibc/prep/spatial/raster/ohibc_rgn_raster_500m.tif&#45;&gt;ohibc run 1</title>
<path fill="none" stroke="black" d="M493.613,-366C502.53,-366 511.075,-366 519.103,-366"/>
<polygon fill="black" stroke="black" points="519.345,-369.5 529.345,-366 519.345,-362.5 519.345,-369.5"/>
</g>
<!-- /Users/slaughter/git/OHI&#45;Science/ohibc/prep/lsp/vHS/int/zonal_stats_1km.csv&#45;&gt;ohibc run 1 -->
<g id="edge9" class="edge"><title>/Users/slaughter/git/OHI&#45;Science/ohibc/prep/lsp/vHS/int/zonal_stats_1km.csv&#45;&gt;ohibc run 1</title>
<path fill="none" stroke="black" d="M859.871,-654.007C804.369,-661 726.246,-658.849 673.909,-618 603.812,-563.289 588.79,-447.982 585.582,-394.281"/>
<polygon fill="black" stroke="black" points="589.068,-393.911 585.073,-384.099 582.077,-394.261 589.068,-393.911"/>
</g>
<!-- /Users/slaughter/git/OHI&#45;Science/ohibc/prep/lsp/vHS/spatial/hs_pep_rast_500m.tif&#45;&gt;ohibc run 1 -->
<g id="edge10" class="edge"><title>/Users/slaughter/git/OHI&#45;Science/ohibc/prep/lsp/vHS/spatial/hs_pep_rast_500m.tif&#45;&gt;ohibc run 1</title>
<path fill="none" stroke="black" d="M864.729,-708.023C808.575,-716.36 726.694,-715.811 673.909,-672 589.69,-602.1 582.984,-455.923 583.792,-394.188"/>
<polygon fill="black" stroke="black" points="587.295,-394.087 584.004,-384.016 580.297,-393.941 587.295,-394.087"/>
</g>
</g>
</svg>
