<?xml version="1.0" encoding="UTF-8" standalone="no"?>
<!DOCTYPE svg PUBLIC "-//W3C//DTD SVG 1.1//EN"
 "http://www.w3.org/Graphics/SVG/1.1/DTD/svg11.dtd">
<!-- Generated by graphviz version 2.38.0 (20140413.2041)
 -->
<!-- Title: yw_data_view Pages: 1 -->
<svg width="2882pt" height="1418pt"
 viewBox="0.00 0.00 2881.98 1417.60" xmlns="http://www.w3.org/2000/svg" xmlns:xlink="http://www.w3.org/1999/xlink">
<g id="graph0" class="graph" transform="scale(1 1) rotate(0) translate(4 1413.6)">
<title>yw_data_view</title>
<polygon fill="white" stroke="none" points="-4,4 -4,-1413.6 2877.98,-1413.6 2877.98,4 -4,4"/>
<text text-anchor="middle" x="1436.99" y="-1389.4" font-family="Courier,monospace" font-size="18.00">Upstream graph for multiple runs</text>
<g id="clust1" class="cluster"><title>cluster_workflow</title>
<polygon fill="none" stroke="black" stroke-width="2" points="8,-8 8,-1372 2865.98,-1372 2865.98,-8 8,-8"/>
</g>
<g id="clust2" class="cluster"><title>cluster_workflow_inner</title>
<polygon fill="none" stroke="white" stroke-width="2" points="16,-16 16,-1364 2857.98,-1364 2857.98,-16 16,-16"/>
</g>
<!-- examine_pixels_for_grass_threshold_2_5 -->
<g id="node1" class="node"><title>examine_pixels_for_grass_threshold_2_5</title>
<polygon fill="black" stroke="black" points="1549.75,-681 1214.45,-681 1214.45,-645 1549.75,-645 1549.75,-681"/>
<text text-anchor="middle" x="1382.1" y="-658.8" font-family="Courier,monospace" font-weight="bold" font-size="14.00" fill="white">examine_pixels_for_grass_threshold_2_5</text>
</g>
<!-- 70BDC55B1CB42B3F2C4ECE8544E84C6B46FD3A190D028162B33A653544691E64 -->
<g id="node30" class="node"><title>70BDC55B1CB42B3F2C4ECE8544E84C6B46FD3A190D028162B33A653544691E64</title>
<path fill="#ffe4b5" stroke="black" d="M1956.69,-667C1956.69,-667 1635,-667 1635,-667 1629,-667 1623,-661 1623,-655 1623,-655 1623,-643 1623,-643 1623,-637 1629,-631 1635,-631 1635,-631 1956.69,-631 1956.69,-631 1962.69,-631 1968.69,-637 1968.69,-643 1968.69,-643 1968.69,-655 1968.69,-655 1968.69,-661 1962.69,-667 1956.69,-667"/>
<text text-anchor="middle" x="1795.84" y="-646.3" font-family="Courier,monospace" font-weight="bold" font-size="9.00">/Users/syc/Documents/C3_C4_mapping/workspace/C3_2000_2010.mat</text>
</g>
<!-- examine_pixels_for_grass_threshold_2_5&#45;&gt;70BDC55B1CB42B3F2C4ECE8544E84C6B46FD3A190D028162B33A653544691E64 -->
<g id="edge37" class="edge"><title>examine_pixels_for_grass_threshold_2_5&#45;&gt;70BDC55B1CB42B3F2C4ECE8544E84C6B46FD3A190D028162B33A653544691E64</title>
<path fill="none" stroke="black" d="M1549.68,-657.336C1570.57,-656.626 1592.03,-655.896 1613.14,-655.178"/>
<polygon fill="black" stroke="black" points="1613.26,-658.676 1623.14,-654.838 1613.02,-651.68 1613.26,-658.676"/>
</g>
<!-- E614BAC90E95D162AB82B832C7607B60E6FDBF2C4A3D95AEB99F4AE27F142965 -->
<g id="node35" class="node"><title>E614BAC90E95D162AB82B832C7607B60E6FDBF2C4A3D95AEB99F4AE27F142965</title>
<path fill="#ffe4b5" stroke="black" d="M1956.69,-721C1956.69,-721 1635,-721 1635,-721 1629,-721 1623,-715 1623,-709 1623,-709 1623,-697 1623,-697 1623,-691 1629,-685 1635,-685 1635,-685 1956.69,-685 1956.69,-685 1962.69,-685 1968.69,-691 1968.69,-697 1968.69,-697 1968.69,-709 1968.69,-709 1968.69,-715 1962.69,-721 1956.69,-721"/>
<text text-anchor="middle" x="1795.84" y="-700.3" font-family="Courier,monospace" font-weight="bold" font-size="9.00">/Users/syc/Documents/C3_C4_mapping/workspace/C4_2000_2010.mat</text>
</g>
<!-- examine_pixels_for_grass_threshold_2_5&#45;&gt;E614BAC90E95D162AB82B832C7607B60E6FDBF2C4A3D95AEB99F4AE27F142965 -->
<g id="edge39" class="edge"><title>examine_pixels_for_grass_threshold_2_5&#45;&gt;E614BAC90E95D162AB82B832C7607B60E6FDBF2C4A3D95AEB99F4AE27F142965</title>
<path fill="none" stroke="black" d="M1549.68,-679.183C1570.57,-681.213 1592.03,-683.297 1613.14,-685.348"/>
<polygon fill="black" stroke="black" points="1612.84,-688.836 1623.14,-686.319 1613.52,-681.868 1612.84,-688.836"/>
</g>
<!-- prepare_step -->
<g id="node2" class="node"><title>prepare_step</title>
<polygon fill="black" stroke="black" points="743.383,-708 626.816,-708 626.816,-672 743.383,-672 743.383,-708"/>
<text text-anchor="middle" x="685.1" y="-685.8" font-family="Courier,monospace" font-weight="bold" font-size="14.00" fill="white">prepare_step</text>
</g>
<!-- E30030F5FB22D0F2539D35CC24D4F9D85BBD49F29877171B2EFAC52AEC38F47D -->
<g id="node10" class="node"><title>E30030F5FB22D0F2539D35CC24D4F9D85BBD49F29877171B2EFAC52AEC38F47D</title>
<path fill="#ffe4b5" stroke="black" d="M1126.41,-681C1126.41,-681 794.119,-681 794.119,-681 788.119,-681 782.119,-675 782.119,-669 782.119,-669 782.119,-657 782.119,-657 782.119,-651 788.119,-645 794.119,-645 794.119,-645 1126.41,-645 1126.41,-645 1132.41,-645 1138.41,-651 1138.41,-657 1138.41,-657 1138.41,-669 1138.41,-669 1138.41,-675 1132.41,-681 1126.41,-681"/>
<text text-anchor="middle" x="960.263" y="-660.3" font-family="Courier,monospace" font-weight="bold" font-size="9.00">/Users/syc/Documents/C3_C4_mapping/workspace/Rain_2000_2010.mat</text>
</g>
<!-- prepare_step&#45;&gt;E30030F5FB22D0F2539D35CC24D4F9D85BBD49F29877171B2EFAC52AEC38F47D -->
<g id="edge33" class="edge"><title>prepare_step&#45;&gt;E30030F5FB22D0F2539D35CC24D4F9D85BBD49F29877171B2EFAC52AEC38F47D</title>
<path fill="none" stroke="black" d="M743.697,-684.307C752.56,-683.431 762.1,-682.488 772.058,-681.504"/>
<polygon fill="black" stroke="black" points="772.538,-684.973 782.145,-680.507 771.849,-678.007 772.538,-684.973"/>
</g>
<!-- 8115888C619C2D8799EB5D1F66F3AC469BBD75536D17F50E3D400BB5E3581F47 -->
<g id="node12" class="node"><title>8115888C619C2D8799EB5D1F66F3AC469BBD75536D17F50E3D400BB5E3581F47</title>
<path fill="#ffe4b5" stroke="black" d="M1128.81,-627C1128.81,-627 791.72,-627 791.72,-627 785.72,-627 779.72,-621 779.72,-615 779.72,-615 779.72,-603 779.72,-603 779.72,-597 785.72,-591 791.72,-591 791.72,-591 1128.81,-591 1128.81,-591 1134.81,-591 1140.81,-597 1140.81,-603 1140.81,-603 1140.81,-615 1140.81,-615 1140.81,-621 1134.81,-627 1128.81,-627"/>
<text text-anchor="middle" x="960.263" y="-606.3" font-family="Courier,monospace" font-weight="bold" font-size="9.00">/Users/syc/Documents/C3_C4_mapping/workspace/Grass_2000_2010.mat</text>
</g>
<!-- prepare_step&#45;&gt;8115888C619C2D8799EB5D1F66F3AC469BBD75536D17F50E3D400BB5E3581F47 -->
<g id="edge35" class="edge"><title>prepare_step&#45;&gt;8115888C619C2D8799EB5D1F66F3AC469BBD75536D17F50E3D400BB5E3581F47</title>
<path fill="none" stroke="black" d="M711.393,-671.861C729.498,-659.781 754.919,-644.6 779.491,-636 785.996,-633.723 792.699,-631.639 799.519,-629.73"/>
<polygon fill="black" stroke="black" points="800.819,-633.006 809.585,-627.057 799.022,-626.241 800.819,-633.006"/>
</g>
<!-- 65DD1DF1967A1CEFDFEDD27758298E7E0D597466C10C01A23597BD669A7CB887 -->
<g id="node29" class="node"><title>65DD1DF1967A1CEFDFEDD27758298E7E0D597466C10C01A23597BD669A7CB887</title>
<path fill="#ffe4b5" stroke="black" d="M1575.24,-770C1575.24,-770 1188.97,-770 1188.97,-770 1182.97,-770 1176.97,-764 1176.97,-758 1176.97,-758 1176.97,-746 1176.97,-746 1176.97,-740 1182.97,-734 1188.97,-734 1188.97,-734 1575.24,-734 1575.24,-734 1581.24,-734 1587.24,-740 1587.24,-746 1587.24,-746 1587.24,-758 1587.24,-758 1587.24,-764 1581.24,-770 1575.24,-770"/>
<text text-anchor="middle" x="1382.1" y="-749.3" font-family="Courier,monospace" font-weight="bold" font-size="9.00">/Users/syc/Documents/C3_C4_mapping/workspace/land_cover_map_2000_2010.mat</text>
</g>
<!-- prepare_step&#45;&gt;65DD1DF1967A1CEFDFEDD27758298E7E0D597466C10C01A23597BD669A7CB887 -->
<g id="edge36" class="edge"><title>prepare_step&#45;&gt;65DD1DF1967A1CEFDFEDD27758298E7E0D597466C10C01A23597BD669A7CB887</title>
<path fill="none" stroke="black" d="M709.532,-708.119C727.556,-720.872 753.67,-736.888 779.491,-744 928.255,-784.975 1105.65,-781.325 1229.11,-770.908"/>
<polygon fill="black" stroke="black" points="1229.73,-774.367 1239.39,-770.014 1229.12,-767.393 1229.73,-774.367"/>
</g>
<!-- 656CC995E1A12D144D9B64AF03AB0A8D7C17EC343C7EABFC0D6044AAF4FEB200 -->
<g id="node34" class="node"><title>656CC995E1A12D144D9B64AF03AB0A8D7C17EC343C7EABFC0D6044AAF4FEB200</title>
<path fill="#ffe4b5" stroke="black" d="M1126.41,-735C1126.41,-735 794.119,-735 794.119,-735 788.119,-735 782.119,-729 782.119,-723 782.119,-723 782.119,-711 782.119,-711 782.119,-705 788.119,-699 794.119,-699 794.119,-699 1126.41,-699 1126.41,-699 1132.41,-699 1138.41,-705 1138.41,-711 1138.41,-711 1138.41,-723 1138.41,-723 1138.41,-729 1132.41,-735 1126.41,-735"/>
<text text-anchor="middle" x="960.263" y="-714.3" font-family="Courier,monospace" font-weight="bold" font-size="9.00">/Users/syc/Documents/C3_C4_mapping/workspace/Tair_2000_2010.mat</text>
</g>
<!-- prepare_step&#45;&gt;656CC995E1A12D144D9B64AF03AB0A8D7C17EC343C7EABFC0D6044AAF4FEB200 -->
<g id="edge38" class="edge"><title>prepare_step&#45;&gt;656CC995E1A12D144D9B64AF03AB0A8D7C17EC343C7EABFC0D6044AAF4FEB200</title>
<path fill="none" stroke="black" d="M743.697,-695.693C752.56,-696.569 762.1,-697.512 772.058,-698.496"/>
<polygon fill="black" stroke="black" points="771.849,-701.993 782.145,-699.493 772.538,-695.027 771.849,-701.993"/>
</g>
<!-- generate_final_results_threshold_2_5 -->
<g id="node3" class="node"><title>generate_final_results_threshold_2_5</title>
<polygon fill="black" stroke="black" points="2323.04,-694 2004.34,-694 2004.34,-658 2323.04,-658 2323.04,-694"/>
<text text-anchor="middle" x="2163.69" y="-671.8" font-family="Courier,monospace" font-weight="bold" font-size="14.00" fill="white">generate_final_results_threshold_2_5</text>
</g>
<!-- 0C46DBB4A07906AF9F91F09E04919A90108FEE10453F096E1079841CAA0C001D -->
<g id="node11" class="node"><title>0C46DBB4A07906AF9F91F09E04919A90108FEE10453F096E1079841CAA0C001D</title>
<path fill="#ffe4b5" stroke="black" d="M2838.04,-694C2838.04,-694 2370.8,-694 2370.8,-694 2364.8,-694 2358.8,-688 2358.8,-682 2358.8,-682 2358.8,-670 2358.8,-670 2358.8,-664 2364.8,-658 2370.8,-658 2370.8,-658 2838.04,-658 2838.04,-658 2844.04,-658 2850.04,-664 2850.04,-670 2850.04,-670 2850.04,-682 2850.04,-682 2850.04,-688 2844.04,-694 2838.04,-694"/>
<text text-anchor="middle" x="2604.42" y="-673.3" font-family="Courier,monospace" font-weight="bold" font-size="9.00">/Users/syc/Documents/C3_C4_mapping/outputs/SYNMAP_PRESENTVEG_C3Grass_RelaFrac_NA_v2.0.nc</text>
</g>
<!-- generate_final_results_threshold_2_5&#45;&gt;0C46DBB4A07906AF9F91F09E04919A90108FEE10453F096E1079841CAA0C001D -->
<g id="edge34" class="edge"><title>generate_final_results_threshold_2_5&#45;&gt;0C46DBB4A07906AF9F91F09E04919A90108FEE10453F096E1079841CAA0C001D</title>
<path fill="none" stroke="black" d="M2323.08,-676C2331.46,-676 2339.97,-676 2348.55,-676"/>
<polygon fill="black" stroke="black" points="2348.66,-679.5 2358.66,-676 2348.66,-672.5 2348.66,-679.5"/>
</g>
<!-- 1CDD6CBC4B49343588641240FFC7D8D95E329C2443E02028A5D4DBC691296D49 -->
<g id="node4" class="node"><title>1CDD6CBC4B49343588641240FFC7D8D95E329C2443E02028A5D4DBC691296D49</title>
<path fill="#ffe4b5" stroke="black" d="M576.163,-1356C576.163,-1356 38.5449,-1356 38.5449,-1356 32.5449,-1356 26.5449,-1350 26.5449,-1344 26.5449,-1344 26.5449,-1332 26.5449,-1332 26.5449,-1326 32.5449,-1320 38.5449,-1320 38.5449,-1320 576.163,-1320 576.163,-1320 582.163,-1320 588.163,-1326 588.163,-1332 588.163,-1332 588.163,-1344 588.163,-1344 588.163,-1350 582.163,-1356 576.163,-1356"/>
<text text-anchor="middle" x="307.354" y="-1335.3" font-family="Courier,monospace" font-weight="bold" font-size="9.00">/Users/syc/Documents/C3_C4_mapping/inputs/narr_apcp_rescaled_monthly/apcp_monthly_2000_2010_mean.8.nc</text>
</g>
<!-- 1CDD6CBC4B49343588641240FFC7D8D95E329C2443E02028A5D4DBC691296D49&#45;&gt;prepare_step -->
<g id="edge21" class="edge"><title>1CDD6CBC4B49343588641240FFC7D8D95E329C2443E02028A5D4DBC691296D49&#45;&gt;prepare_step</title>
<path fill="none" stroke="black" d="M403.256,-1356.03C464.597,-1361.85 541.825,-1357.32 590.708,-1311 677.832,-1228.45 684.175,-828.565 684.244,-718.24"/>
<polygon fill="black" stroke="black" points="687.744,-718.201 684.232,-708.205 680.744,-718.209 687.744,-718.201"/>
</g>
<!-- A95C36F1BEAA92D5AF6D64475233926ED75CB4AD5F712B3752E967D2397D3557 -->
<g id="node5" class="node"><title>A95C36F1BEAA92D5AF6D64475233926ED75CB4AD5F712B3752E967D2397D3557</title>
<path fill="#ffe4b5" stroke="black" d="M565.067,-1302C565.067,-1302 49.6413,-1302 49.6413,-1302 43.6413,-1302 37.6413,-1296 37.6413,-1290 37.6413,-1290 37.6413,-1278 37.6413,-1278 37.6413,-1272 43.6413,-1266 49.6413,-1266 49.6413,-1266 565.067,-1266 565.067,-1266 571.067,-1266 577.067,-1272 577.067,-1278 577.067,-1278 577.067,-1290 577.067,-1290 577.067,-1296 571.067,-1302 565.067,-1302"/>
<text text-anchor="middle" x="307.354" y="-1281.3" font-family="Courier,monospace" font-weight="bold" font-size="9.00">/Users/syc/Documents/C3_C4_mapping/inputs/narr_air.2m_monthly/air.2m_monthly_2000_2010_mean.12.nc</text>
</g>
<!-- A95C36F1BEAA92D5AF6D64475233926ED75CB4AD5F712B3752E967D2397D3557&#45;&gt;prepare_step -->
<g id="edge22" class="edge"><title>A95C36F1BEAA92D5AF6D64475233926ED75CB4AD5F712B3752E967D2397D3557&#45;&gt;prepare_step</title>
<path fill="none" stroke="black" d="M405.405,-1302.02C466.268,-1307.41 542.132,-1302.38 590.708,-1257 670.355,-1182.59 682.077,-822.092 683.802,-718.121"/>
<polygon fill="black" stroke="black" points="687.302,-718.121 683.95,-708.071 680.303,-718.018 687.302,-718.121"/>
</g>
<!-- C8DBF4422E63F5C80AF7E448A9C8EF1E6BB2DDE0347E272B9A79A13275D5C65B -->
<g id="node6" class="node"><title>C8DBF4422E63F5C80AF7E448A9C8EF1E6BB2DDE0347E272B9A79A13275D5C65B</title>
<path fill="#ffe4b5" stroke="black" d="M562.668,-1248C562.668,-1248 52.0404,-1248 52.0404,-1248 46.0404,-1248 40.0404,-1242 40.0404,-1236 40.0404,-1236 40.0404,-1224 40.0404,-1224 40.0404,-1218 46.0404,-1212 52.0404,-1212 52.0404,-1212 562.668,-1212 562.668,-1212 568.668,-1212 574.668,-1218 574.668,-1224 574.668,-1224 574.668,-1236 574.668,-1236 574.668,-1242 568.668,-1248 562.668,-1248"/>
<text text-anchor="middle" x="307.354" y="-1227.3" font-family="Courier,monospace" font-weight="bold" font-size="9.00">/Users/syc/Documents/C3_C4_mapping/inputs/narr_air.2m_monthly/air.2m_monthly_2000_2010_mean.4.nc</text>
</g>
<!-- C8DBF4422E63F5C80AF7E448A9C8EF1E6BB2DDE0347E272B9A79A13275D5C65B&#45;&gt;prepare_step -->
<g id="edge23" class="edge"><title>C8DBF4422E63F5C80AF7E448A9C8EF1E6BB2DDE0347E272B9A79A13275D5C65B&#45;&gt;prepare_step</title>
<path fill="none" stroke="black" d="M408.201,-1248C468.429,-1252.84 542.568,-1247.22 590.708,-1203 662.837,-1136.74 679.756,-815.969 683.264,-718.287"/>
<polygon fill="black" stroke="black" points="686.763,-718.38 683.605,-708.267 679.767,-718.143 686.763,-718.38"/>
</g>
<!-- CD810700A529A9C5A19F493C967CE953016C0617E329F9F02BF63E4F8F147314 -->
<g id="node7" class="node"><title>CD810700A529A9C5A19F493C967CE953016C0617E329F9F02BF63E4F8F147314</title>
<path fill="#ffe4b5" stroke="black" d="M562.668,-1194C562.668,-1194 52.0404,-1194 52.0404,-1194 46.0404,-1194 40.0404,-1188 40.0404,-1182 40.0404,-1182 40.0404,-1170 40.0404,-1170 40.0404,-1164 46.0404,-1158 52.0404,-1158 52.0404,-1158 562.668,-1158 562.668,-1158 568.668,-1158 574.668,-1164 574.668,-1170 574.668,-1170 574.668,-1182 574.668,-1182 574.668,-1188 568.668,-1194 562.668,-1194"/>
<text text-anchor="middle" x="307.354" y="-1173.3" font-family="Courier,monospace" font-weight="bold" font-size="9.00">/Users/syc/Documents/C3_C4_mapping/inputs/narr_air.2m_monthly/air.2m_monthly_2000_2010_mean.5.nc</text>
</g>
<!-- CD810700A529A9C5A19F493C967CE953016C0617E329F9F02BF63E4F8F147314&#45;&gt;prepare_step -->
<g id="edge26" class="edge"><title>CD810700A529A9C5A19F493C967CE953016C0617E329F9F02BF63E4F8F147314&#45;&gt;prepare_step</title>
<path fill="none" stroke="black" d="M412.668,-1194.01C471.883,-1198.04 543.395,-1191.57 590.708,-1149 655.406,-1090.79 677.203,-809.029 682.61,-718.248"/>
<polygon fill="black" stroke="black" points="686.111,-718.336 683.19,-708.152 679.122,-717.935 686.111,-718.336"/>
</g>
<!-- 58C4CEFE49F168D954AC423E967370E1C14C7F4A7735DB77DD76D22BCF2517E4 -->
<g id="node8" class="node"><title>58C4CEFE49F168D954AC423E967370E1C14C7F4A7735DB77DD76D22BCF2517E4</title>
<path fill="#ffe4b5" stroke="black" d="M576.163,-1140C576.163,-1140 38.5449,-1140 38.5449,-1140 32.5449,-1140 26.5449,-1134 26.5449,-1128 26.5449,-1128 26.5449,-1116 26.5449,-1116 26.5449,-1110 32.5449,-1104 38.5449,-1104 38.5449,-1104 576.163,-1104 576.163,-1104 582.163,-1104 588.163,-1110 588.163,-1116 588.163,-1116 588.163,-1128 588.163,-1128 588.163,-1134 582.163,-1140 576.163,-1140"/>
<text text-anchor="middle" x="307.354" y="-1119.3" font-family="Courier,monospace" font-weight="bold" font-size="9.00">/Users/syc/Documents/C3_C4_mapping/inputs/narr_apcp_rescaled_monthly/apcp_monthly_2000_2010_mean.1.nc</text>
</g>
<!-- 58C4CEFE49F168D954AC423E967370E1C14C7F4A7735DB77DD76D22BCF2517E4&#45;&gt;prepare_step -->
<g id="edge25" class="edge"><title>58C4CEFE49F168D954AC423E967370E1C14C7F4A7735DB77DD76D22BCF2517E4&#45;&gt;prepare_step</title>
<path fill="none" stroke="black" d="M579.489,-1103.9C583.353,-1101.13 587.098,-1098.16 590.708,-1095 648.018,-1044.76 674.338,-801.673 681.789,-718.205"/>
<polygon fill="black" stroke="black" points="685.281,-718.445 682.661,-708.179 678.308,-717.838 685.281,-718.445"/>
</g>
<!-- 7905923272AF2C50A905C4A2EE4FA5FCCB11FC88C845F58F2DBB7994312F84B7 -->
<g id="node9" class="node"><title>7905923272AF2C50A905C4A2EE4FA5FCCB11FC88C845F58F2DBB7994312F84B7</title>
<path fill="#ffe4b5" stroke="black" d="M576.163,-1086C576.163,-1086 38.5449,-1086 38.5449,-1086 32.5449,-1086 26.5449,-1080 26.5449,-1074 26.5449,-1074 26.5449,-1062 26.5449,-1062 26.5449,-1056 32.5449,-1050 38.5449,-1050 38.5449,-1050 576.163,-1050 576.163,-1050 582.163,-1050 588.163,-1056 588.163,-1062 588.163,-1062 588.163,-1074 588.163,-1074 588.163,-1080 582.163,-1086 576.163,-1086"/>
<text text-anchor="middle" x="307.354" y="-1065.3" font-family="Courier,monospace" font-weight="bold" font-size="9.00">/Users/syc/Documents/C3_C4_mapping/inputs/narr_apcp_rescaled_monthly/apcp_monthly_2000_2010_mean.9.nc</text>
</g>
<!-- 7905923272AF2C50A905C4A2EE4FA5FCCB11FC88C845F58F2DBB7994312F84B7&#45;&gt;prepare_step -->
<g id="edge24" class="edge"><title>7905923272AF2C50A905C4A2EE4FA5FCCB11FC88C845F58F2DBB7994312F84B7&#45;&gt;prepare_step</title>
<path fill="none" stroke="black" d="M579.043,-1049.94C583.057,-1047.16 586.952,-1044.18 590.708,-1041 640.571,-998.742 670.919,-794.755 680.66,-718.681"/>
<polygon fill="black" stroke="black" points="684.176,-718.778 681.948,-708.42 677.23,-717.906 684.176,-718.778"/>
</g>
<!-- E30030F5FB22D0F2539D35CC24D4F9D85BBD49F29877171B2EFAC52AEC38F47D&#45;&gt;examine_pixels_for_grass_threshold_2_5 -->
<g id="edge27" class="edge"><title>E30030F5FB22D0F2539D35CC24D4F9D85BBD49F29877171B2EFAC52AEC38F47D&#45;&gt;examine_pixels_for_grass_threshold_2_5</title>
<path fill="none" stroke="black" d="M1138.4,-663C1160.15,-663 1182.38,-663 1204.13,-663"/>
<polygon fill="black" stroke="black" points="1204.42,-666.5 1214.42,-663 1204.42,-659.5 1204.42,-666.5"/>
</g>
<!-- 8115888C619C2D8799EB5D1F66F3AC469BBD75536D17F50E3D400BB5E3581F47&#45;&gt;examine_pixels_for_grass_threshold_2_5 -->
<g id="edge32" class="edge"><title>8115888C619C2D8799EB5D1F66F3AC469BBD75536D17F50E3D400BB5E3581F47&#45;&gt;examine_pixels_for_grass_threshold_2_5</title>
<path fill="none" stroke="black" d="M1101.35,-627.019C1142.97,-632.371 1188.71,-638.255 1230.94,-643.686"/>
<polygon fill="black" stroke="black" points="1230.66,-647.179 1241.02,-644.983 1231.55,-640.236 1230.66,-647.179"/>
</g>
<!-- 8115888C619C2D8799EB5D1F66F3AC469BBD75536D17F50E3D400BB5E3581F47&#45;&gt;generate_final_results_threshold_2_5 -->
<g id="edge31" class="edge"><title>8115888C619C2D8799EB5D1F66F3AC469BBD75536D17F50E3D400BB5E3581F47&#45;&gt;generate_final_results_threshold_2_5</title>
<path fill="none" stroke="black" d="M1141.1,-597.426C1343.44,-587.62 1681.35,-580.924 1968.51,-622 2014.14,-628.527 2064.22,-642.634 2102.1,-654.793"/>
<polygon fill="black" stroke="black" points="2101.35,-658.232 2111.95,-657.999 2103.52,-651.576 2101.35,-658.232"/>
</g>
<!-- 3606623B1031344BAD21823733C6F45E9950C1D2BC092DF3C02A84606E162B81 -->
<g id="node13" class="node"><title>3606623B1031344BAD21823733C6F45E9950C1D2BC092DF3C02A84606E162B81</title>
<path fill="#ffe4b5" stroke="black" d="M562.668,-1032C562.668,-1032 52.0404,-1032 52.0404,-1032 46.0404,-1032 40.0404,-1026 40.0404,-1020 40.0404,-1020 40.0404,-1008 40.0404,-1008 40.0404,-1002 46.0404,-996 52.0404,-996 52.0404,-996 562.668,-996 562.668,-996 568.668,-996 574.668,-1002 574.668,-1008 574.668,-1008 574.668,-1020 574.668,-1020 574.668,-1026 568.668,-1032 562.668,-1032"/>
<text text-anchor="middle" x="307.354" y="-1011.3" font-family="Courier,monospace" font-weight="bold" font-size="9.00">/Users/syc/Documents/C3_C4_mapping/inputs/narr_air.2m_monthly/air.2m_monthly_2000_2010_mean.6.nc</text>
</g>
<!-- 3606623B1031344BAD21823733C6F45E9950C1D2BC092DF3C02A84606E162B81&#45;&gt;prepare_step -->
<g id="edge30" class="edge"><title>3606623B1031344BAD21823733C6F45E9950C1D2BC092DF3C02A84606E162B81&#45;&gt;prepare_step</title>
<path fill="none" stroke="black" d="M574.529,-998.48C580.136,-995.002 585.542,-991.184 590.708,-987 673.946,-919.588 684.278,-778.576 684.699,-718.304"/>
<polygon fill="black" stroke="black" points="688.198,-718.018 684.677,-708.025 681.198,-718.032 688.198,-718.018"/>
</g>
<!-- 5B33CD6DE4C825B6EE8F447DB0047E78E4F4E33DFB0D56723BA614C622EEB470 -->
<g id="node14" class="node"><title>5B33CD6DE4C825B6EE8F447DB0047E78E4F4E33DFB0D56723BA614C622EEB470</title>
<path fill="#ffe4b5" stroke="black" d="M576.163,-978C576.163,-978 38.5449,-978 38.5449,-978 32.5449,-978 26.5449,-972 26.5449,-966 26.5449,-966 26.5449,-954 26.5449,-954 26.5449,-948 32.5449,-942 38.5449,-942 38.5449,-942 576.163,-942 576.163,-942 582.163,-942 588.163,-948 588.163,-954 588.163,-954 588.163,-966 588.163,-966 588.163,-972 582.163,-978 576.163,-978"/>
<text text-anchor="middle" x="307.354" y="-957.3" font-family="Courier,monospace" font-weight="bold" font-size="9.00">/Users/syc/Documents/C3_C4_mapping/inputs/narr_apcp_rescaled_monthly/apcp_monthly_2000_2010_mean.2.nc</text>
</g>
<!-- 5B33CD6DE4C825B6EE8F447DB0047E78E4F4E33DFB0D56723BA614C622EEB470&#45;&gt;prepare_step -->
<g id="edge29" class="edge"><title>5B33CD6DE4C825B6EE8F447DB0047E78E4F4E33DFB0D56723BA614C622EEB470&#45;&gt;prepare_step</title>
<path fill="none" stroke="black" d="M577.65,-941.955C582.133,-939.183 586.493,-936.202 590.708,-933 659.757,-880.552 677.764,-770.237 682.453,-718.246"/>
<polygon fill="black" stroke="black" points="685.958,-718.326 683.265,-708.079 678.98,-717.769 685.958,-718.326"/>
</g>
<!-- 6FDA536154E1D8843433E2779D96D0F0DB882A0FE208128CF05F2711C1A27CC5 -->
<g id="node15" class="node"><title>6FDA536154E1D8843433E2779D96D0F0DB882A0FE208128CF05F2711C1A27CC5</title>
<path fill="#ffe4b5" stroke="black" d="M578.562,-924C578.562,-924 36.1458,-924 36.1458,-924 30.1458,-924 24.1458,-918 24.1458,-912 24.1458,-912 24.1458,-900 24.1458,-900 24.1458,-894 30.1458,-888 36.1458,-888 36.1458,-888 578.562,-888 578.562,-888 584.562,-888 590.562,-894 590.562,-900 590.562,-900 590.562,-912 590.562,-912 590.562,-918 584.562,-924 578.562,-924"/>
<text text-anchor="middle" x="307.354" y="-903.3" font-family="Courier,monospace" font-weight="bold" font-size="9.00">/Users/syc/Documents/C3_C4_mapping/inputs/narr_apcp_rescaled_monthly/apcp_monthly_2000_2010_mean.10.nc</text>
</g>
<!-- 6FDA536154E1D8843433E2779D96D0F0DB882A0FE208128CF05F2711C1A27CC5&#45;&gt;prepare_step -->
<g id="edge28" class="edge"><title>6FDA536154E1D8843433E2779D96D0F0DB882A0FE208128CF05F2711C1A27CC5&#45;&gt;prepare_step</title>
<path fill="none" stroke="black" d="M576.291,-887.955C581.233,-885.194 586.046,-882.214 590.708,-879 645.849,-840.985 669.878,-760.746 679.099,-718.072"/>
<polygon fill="black" stroke="black" points="682.568,-718.578 681.134,-708.08 675.709,-717.181 682.568,-718.578"/>
</g>
<!-- 146CAEDE18E76B699FBC69AD01A4768889358957CB5EE470002CD1B8AB96FB0D -->
<g id="node16" class="node"><title>146CAEDE18E76B699FBC69AD01A4768889358957CB5EE470002CD1B8AB96FB0D</title>
<path fill="#ffe4b5" stroke="black" d="M486.993,-870C486.993,-870 127.715,-870 127.715,-870 121.715,-870 115.715,-864 115.715,-858 115.715,-858 115.715,-846 115.715,-846 115.715,-840 121.715,-834 127.715,-834 127.715,-834 486.993,-834 486.993,-834 492.993,-834 498.993,-840 498.993,-846 498.993,-846 498.993,-858 498.993,-858 498.993,-864 492.993,-870 486.993,-870"/>
<text text-anchor="middle" x="307.354" y="-849.3" font-family="Courier,monospace" font-weight="bold" font-size="9.00">/Users/syc/Documents/C3_C4_mapping/inputs/land_cover/SYNMAP_NA_QD.nc</text>
</g>
<!-- 146CAEDE18E76B699FBC69AD01A4768889358957CB5EE470002CD1B8AB96FB0D&#45;&gt;prepare_step -->
<g id="edge3" class="edge"><title>146CAEDE18E76B699FBC69AD01A4768889358957CB5EE470002CD1B8AB96FB0D&#45;&gt;prepare_step</title>
<path fill="none" stroke="black" d="M499.236,-856.382C531.307,-850.905 563.099,-841.194 590.708,-825 632.188,-800.67 659.561,-749.762 673.403,-717.883"/>
<polygon fill="black" stroke="black" points="676.798,-718.835 677.422,-708.259 670.338,-716.138 676.798,-718.835"/>
</g>
<!-- 9CEB2AC2702DF4A80950CA1347691DEC62F0F9B32DA25B6DB42F6E4A15AAE980 -->
<g id="node17" class="node"><title>9CEB2AC2702DF4A80950CA1347691DEC62F0F9B32DA25B6DB42F6E4A15AAE980</title>
<path fill="#ffe4b5" stroke="black" d="M562.668,-816C562.668,-816 52.0404,-816 52.0404,-816 46.0404,-816 40.0404,-810 40.0404,-804 40.0404,-804 40.0404,-792 40.0404,-792 40.0404,-786 46.0404,-780 52.0404,-780 52.0404,-780 562.668,-780 562.668,-780 568.668,-780 574.668,-786 574.668,-792 574.668,-792 574.668,-804 574.668,-804 574.668,-810 568.668,-816 562.668,-816"/>
<text text-anchor="middle" x="307.354" y="-795.3" font-family="Courier,monospace" font-weight="bold" font-size="9.00">/Users/syc/Documents/C3_C4_mapping/inputs/narr_air.2m_monthly/air.2m_monthly_2000_2010_mean.7.nc</text>
</g>
<!-- 9CEB2AC2702DF4A80950CA1347691DEC62F0F9B32DA25B6DB42F6E4A15AAE980&#45;&gt;prepare_step -->
<g id="edge2" class="edge"><title>9CEB2AC2702DF4A80950CA1347691DEC62F0F9B32DA25B6DB42F6E4A15AAE980&#45;&gt;prepare_step</title>
<path fill="none" stroke="black" d="M567.019,-779.964C575.096,-777.276 583.014,-774.298 590.708,-771 619.189,-758.794 645.25,-734.593 662.561,-715.808"/>
<polygon fill="black" stroke="black" points="665.363,-717.925 669.426,-708.14 660.148,-713.256 665.363,-717.925"/>
</g>
<!-- C53FA0776E9D38564ECBD29F09E8DEAF3ACC8B4499298E15A73C007D7B805C32 -->
<g id="node18" class="node"><title>C53FA0776E9D38564ECBD29F09E8DEAF3ACC8B4499298E15A73C007D7B805C32</title>
<path fill="#ffe4b5" stroke="black" d="M576.163,-762C576.163,-762 38.5449,-762 38.5449,-762 32.5449,-762 26.5449,-756 26.5449,-750 26.5449,-750 26.5449,-738 26.5449,-738 26.5449,-732 32.5449,-726 38.5449,-726 38.5449,-726 576.163,-726 576.163,-726 582.163,-726 588.163,-732 588.163,-738 588.163,-738 588.163,-750 588.163,-750 588.163,-756 582.163,-762 576.163,-762"/>
<text text-anchor="middle" x="307.354" y="-741.3" font-family="Courier,monospace" font-weight="bold" font-size="9.00">/Users/syc/Documents/C3_C4_mapping/inputs/narr_apcp_rescaled_monthly/apcp_monthly_2000_2010_mean.3.nc</text>
</g>
<!-- C53FA0776E9D38564ECBD29F09E8DEAF3ACC8B4499298E15A73C007D7B805C32&#45;&gt;prepare_step -->
<g id="edge1" class="edge"><title>C53FA0776E9D38564ECBD29F09E8DEAF3ACC8B4499298E15A73C007D7B805C32&#45;&gt;prepare_step</title>
<path fill="none" stroke="black" d="M535.805,-725.967C554.44,-723.361 572.931,-720.389 590.708,-717 599.596,-715.306 608.857,-713.137 617.945,-710.767"/>
<polygon fill="black" stroke="black" points="618.972,-714.115 627.713,-708.129 617.146,-707.357 618.972,-714.115"/>
</g>
<!-- 2EF6924F4824E33DC3785E76EB4BA4CC3B719C720C47E50CB03DA763019C95AE -->
<g id="node19" class="node"><title>2EF6924F4824E33DC3785E76EB4BA4CC3B719C720C47E50CB03DA763019C95AE</title>
<path fill="#ffe4b5" stroke="black" d="M578.562,-708C578.562,-708 36.1458,-708 36.1458,-708 30.1458,-708 24.1458,-702 24.1458,-696 24.1458,-696 24.1458,-684 24.1458,-684 24.1458,-678 30.1458,-672 36.1458,-672 36.1458,-672 578.562,-672 578.562,-672 584.562,-672 590.562,-678 590.562,-684 590.562,-684 590.562,-696 590.562,-696 590.562,-702 584.562,-708 578.562,-708"/>
<text text-anchor="middle" x="307.354" y="-687.3" font-family="Courier,monospace" font-weight="bold" font-size="9.00">/Users/syc/Documents/C3_C4_mapping/inputs/narr_apcp_rescaled_monthly/apcp_monthly_2000_2010_mean.11.nc</text>
</g>
<!-- 2EF6924F4824E33DC3785E76EB4BA4CC3B719C720C47E50CB03DA763019C95AE&#45;&gt;prepare_step -->
<g id="edge4" class="edge"><title>2EF6924F4824E33DC3785E76EB4BA4CC3B719C720C47E50CB03DA763019C95AE&#45;&gt;prepare_step</title>
<path fill="none" stroke="black" d="M590.736,-690C599.795,-690 608.457,-690 616.598,-690"/>
<polygon fill="black" stroke="black" points="616.622,-693.5 626.622,-690 616.622,-686.5 616.622,-693.5"/>
</g>
<!-- 6D5586A1EE8628DB8CA0909E7876442ABA813C31698B9FC11A13AFAF37444CCB -->
<g id="node20" class="node"><title>6D5586A1EE8628DB8CA0909E7876442ABA813C31698B9FC11A13AFAF37444CCB</title>
<path fill="#ffe4b5" stroke="black" d="M562.668,-654C562.668,-654 52.0404,-654 52.0404,-654 46.0404,-654 40.0404,-648 40.0404,-642 40.0404,-642 40.0404,-630 40.0404,-630 40.0404,-624 46.0404,-618 52.0404,-618 52.0404,-618 562.668,-618 562.668,-618 568.668,-618 574.668,-624 574.668,-630 574.668,-630 574.668,-642 574.668,-642 574.668,-648 568.668,-654 562.668,-654"/>
<text text-anchor="middle" x="307.354" y="-633.3" font-family="Courier,monospace" font-weight="bold" font-size="9.00">/Users/syc/Documents/C3_C4_mapping/inputs/narr_air.2m_monthly/air.2m_monthly_2000_2010_mean.8.nc</text>
</g>
<!-- 6D5586A1EE8628DB8CA0909E7876442ABA813C31698B9FC11A13AFAF37444CCB&#45;&gt;prepare_step -->
<g id="edge6" class="edge"><title>6D5586A1EE8628DB8CA0909E7876442ABA813C31698B9FC11A13AFAF37444CCB&#45;&gt;prepare_step</title>
<path fill="none" stroke="black" d="M535.805,-654.033C554.44,-656.639 572.931,-659.611 590.708,-663 599.596,-664.694 608.857,-666.863 617.945,-669.233"/>
<polygon fill="black" stroke="black" points="617.146,-672.643 627.713,-671.871 618.972,-665.885 617.146,-672.643"/>
</g>
<!-- BF613CC21E5139F3F56FEDE81FB457614E2DDDF3D17D7FCFDB245F5030E040EF -->
<g id="node21" class="node"><title>BF613CC21E5139F3F56FEDE81FB457614E2DDDF3D17D7FCFDB245F5030E040EF</title>
<path fill="#ffe4b5" stroke="black" d="M576.163,-600C576.163,-600 38.5449,-600 38.5449,-600 32.5449,-600 26.5449,-594 26.5449,-588 26.5449,-588 26.5449,-576 26.5449,-576 26.5449,-570 32.5449,-564 38.5449,-564 38.5449,-564 576.163,-564 576.163,-564 582.163,-564 588.163,-570 588.163,-576 588.163,-576 588.163,-588 588.163,-588 588.163,-594 582.163,-600 576.163,-600"/>
<text text-anchor="middle" x="307.354" y="-579.3" font-family="Courier,monospace" font-weight="bold" font-size="9.00">/Users/syc/Documents/C3_C4_mapping/inputs/narr_apcp_rescaled_monthly/apcp_monthly_2000_2010_mean.4.nc</text>
</g>
<!-- BF613CC21E5139F3F56FEDE81FB457614E2DDDF3D17D7FCFDB245F5030E040EF&#45;&gt;prepare_step -->
<g id="edge5" class="edge"><title>BF613CC21E5139F3F56FEDE81FB457614E2DDDF3D17D7FCFDB245F5030E040EF&#45;&gt;prepare_step</title>
<path fill="none" stroke="black" d="M567.019,-600.036C575.096,-602.724 583.014,-605.702 590.708,-609 619.189,-621.206 645.25,-645.407 662.561,-664.192"/>
<polygon fill="black" stroke="black" points="660.148,-666.744 669.426,-671.86 665.363,-662.075 660.148,-666.744"/>
</g>
<!-- D5821A7D33D9945DA78C5538D6254F0A0039856ACF4C45640E8C8BAC0B61F41A -->
<g id="node22" class="node"><title>D5821A7D33D9945DA78C5538D6254F0A0039856ACF4C45640E8C8BAC0B61F41A</title>
<path fill="#ffe4b5" stroke="black" d="M578.562,-546C578.562,-546 36.1458,-546 36.1458,-546 30.1458,-546 24.1458,-540 24.1458,-534 24.1458,-534 24.1458,-522 24.1458,-522 24.1458,-516 30.1458,-510 36.1458,-510 36.1458,-510 578.562,-510 578.562,-510 584.562,-510 590.562,-516 590.562,-522 590.562,-522 590.562,-534 590.562,-534 590.562,-540 584.562,-546 578.562,-546"/>
<text text-anchor="middle" x="307.354" y="-525.3" font-family="Courier,monospace" font-weight="bold" font-size="9.00">/Users/syc/Documents/C3_C4_mapping/inputs/narr_apcp_rescaled_monthly/apcp_monthly_2000_2010_mean.12.nc</text>
</g>
<!-- D5821A7D33D9945DA78C5538D6254F0A0039856ACF4C45640E8C8BAC0B61F41A&#45;&gt;prepare_step -->
<g id="edge7" class="edge"><title>D5821A7D33D9945DA78C5538D6254F0A0039856ACF4C45640E8C8BAC0B61F41A&#45;&gt;prepare_step</title>
<path fill="none" stroke="black" d="M573.672,-546.043C579.497,-548.782 585.186,-551.761 590.708,-555 632.188,-579.33 659.561,-630.238 673.403,-662.117"/>
<polygon fill="black" stroke="black" points="670.338,-663.862 677.422,-671.741 676.798,-661.165 670.338,-663.862"/>
</g>
<!-- 63C4ECEF94847C23631F3310218BAE1EAE3B05C011247335F6A9E55BA9D37E58 -->
<g id="node23" class="node"><title>63C4ECEF94847C23631F3310218BAE1EAE3B05C011247335F6A9E55BA9D37E58</title>
<path fill="#ffe4b5" stroke="black" d="M562.668,-492C562.668,-492 52.0404,-492 52.0404,-492 46.0404,-492 40.0404,-486 40.0404,-480 40.0404,-480 40.0404,-468 40.0404,-468 40.0404,-462 46.0404,-456 52.0404,-456 52.0404,-456 562.668,-456 562.668,-456 568.668,-456 574.668,-462 574.668,-468 574.668,-468 574.668,-480 574.668,-480 574.668,-486 568.668,-492 562.668,-492"/>
<text text-anchor="middle" x="307.354" y="-471.3" font-family="Courier,monospace" font-weight="bold" font-size="9.00">/Users/syc/Documents/C3_C4_mapping/inputs/narr_air.2m_monthly/air.2m_monthly_2000_2010_mean.1.nc</text>
</g>
<!-- 63C4ECEF94847C23631F3310218BAE1EAE3B05C011247335F6A9E55BA9D37E58&#45;&gt;prepare_step -->
<g id="edge10" class="edge"><title>63C4ECEF94847C23631F3310218BAE1EAE3B05C011247335F6A9E55BA9D37E58&#45;&gt;prepare_step</title>
<path fill="none" stroke="black" d="M574.676,-491.153C580.184,-494.161 585.539,-497.436 590.708,-501 645.849,-539.015 669.878,-619.254 679.099,-661.928"/>
<polygon fill="black" stroke="black" points="675.709,-662.819 681.134,-671.92 682.568,-661.422 675.709,-662.819"/>
</g>
<!-- EDC855FCB78B3EC39587E754363E68455EFCBCB2DF2EB83F6F1F595184D1152C -->
<g id="node24" class="node"><title>EDC855FCB78B3EC39587E754363E68455EFCBCB2DF2EB83F6F1F595184D1152C</title>
<path fill="#ffe4b5" stroke="black" d="M562.668,-438C562.668,-438 52.0404,-438 52.0404,-438 46.0404,-438 40.0404,-432 40.0404,-426 40.0404,-426 40.0404,-414 40.0404,-414 40.0404,-408 46.0404,-402 52.0404,-402 52.0404,-402 562.668,-402 562.668,-402 568.668,-402 574.668,-408 574.668,-414 574.668,-414 574.668,-426 574.668,-426 574.668,-432 568.668,-438 562.668,-438"/>
<text text-anchor="middle" x="307.354" y="-417.3" font-family="Courier,monospace" font-weight="bold" font-size="9.00">/Users/syc/Documents/C3_C4_mapping/inputs/narr_air.2m_monthly/air.2m_monthly_2000_2010_mean.9.nc</text>
</g>
<!-- EDC855FCB78B3EC39587E754363E68455EFCBCB2DF2EB83F6F1F595184D1152C&#45;&gt;prepare_step -->
<g id="edge9" class="edge"><title>EDC855FCB78B3EC39587E754363E68455EFCBCB2DF2EB83F6F1F595184D1152C&#45;&gt;prepare_step</title>
<path fill="none" stroke="black" d="M574.818,-436.332C580.302,-439.579 585.61,-443.128 590.708,-447 659.757,-499.448 677.764,-609.763 682.453,-661.754"/>
<polygon fill="black" stroke="black" points="678.98,-662.231 683.265,-671.921 685.958,-661.674 678.98,-662.231"/>
</g>
<!-- A691D2A9283F29CF817D7EF4345275E85EF0FE62D0FD74A87026E8C34DB82732 -->
<g id="node25" class="node"><title>A691D2A9283F29CF817D7EF4345275E85EF0FE62D0FD74A87026E8C34DB82732</title>
<path fill="#ffe4b5" stroke="black" d="M576.163,-384C576.163,-384 38.5449,-384 38.5449,-384 32.5449,-384 26.5449,-378 26.5449,-372 26.5449,-372 26.5449,-360 26.5449,-360 26.5449,-354 32.5449,-348 38.5449,-348 38.5449,-348 576.163,-348 576.163,-348 582.163,-348 588.163,-354 588.163,-360 588.163,-360 588.163,-372 588.163,-372 588.163,-378 582.163,-384 576.163,-384"/>
<text text-anchor="middle" x="307.354" y="-363.3" font-family="Courier,monospace" font-weight="bold" font-size="9.00">/Users/syc/Documents/C3_C4_mapping/inputs/narr_apcp_rescaled_monthly/apcp_monthly_2000_2010_mean.5.nc</text>
</g>
<!-- A691D2A9283F29CF817D7EF4345275E85EF0FE62D0FD74A87026E8C34DB82732&#45;&gt;prepare_step -->
<g id="edge8" class="edge"><title>A691D2A9283F29CF817D7EF4345275E85EF0FE62D0FD74A87026E8C34DB82732&#45;&gt;prepare_step</title>
<path fill="none" stroke="black" d="M578.543,-384.091C582.725,-386.858 586.786,-389.823 590.708,-393 673.946,-460.412 684.278,-601.424 684.699,-661.696"/>
<polygon fill="black" stroke="black" points="681.198,-661.968 684.677,-671.975 688.198,-661.982 681.198,-661.968"/>
</g>
<!-- 88749C888762E88A5DD548502830328D7AB4804245C20C4B8594CE173B44F603 -->
<g id="node26" class="node"><title>88749C888762E88A5DD548502830328D7AB4804245C20C4B8594CE173B44F603</title>
<path fill="#ffe4b5" stroke="black" d="M562.668,-330C562.668,-330 52.0404,-330 52.0404,-330 46.0404,-330 40.0404,-324 40.0404,-318 40.0404,-318 40.0404,-306 40.0404,-306 40.0404,-300 46.0404,-294 52.0404,-294 52.0404,-294 562.668,-294 562.668,-294 568.668,-294 574.668,-300 574.668,-306 574.668,-306 574.668,-318 574.668,-318 574.668,-324 568.668,-330 562.668,-330"/>
<text text-anchor="middle" x="307.354" y="-309.3" font-family="Courier,monospace" font-weight="bold" font-size="9.00">/Users/syc/Documents/C3_C4_mapping/inputs/narr_air.2m_monthly/air.2m_monthly_2000_2010_mean.2.nc</text>
</g>
<!-- 88749C888762E88A5DD548502830328D7AB4804245C20C4B8594CE173B44F603&#45;&gt;prepare_step -->
<g id="edge13" class="edge"><title>88749C888762E88A5DD548502830328D7AB4804245C20C4B8594CE173B44F603&#45;&gt;prepare_step</title>
<path fill="none" stroke="black" d="M574.783,-327.212C580.315,-330.782 585.637,-334.702 590.708,-339 640.571,-381.258 670.919,-585.245 680.66,-661.319"/>
<polygon fill="black" stroke="black" points="677.23,-662.094 681.948,-671.58 684.176,-661.222 677.23,-662.094"/>
</g>
<!-- EBB49302CBEF26B0CA8AEF8483C69E9FE80532F4DFB3A9BD98C600324A43F6C3 -->
<g id="node27" class="node"><title>EBB49302CBEF26B0CA8AEF8483C69E9FE80532F4DFB3A9BD98C600324A43F6C3</title>
<path fill="#ffe4b5" stroke="black" d="M565.067,-276C565.067,-276 49.6413,-276 49.6413,-276 43.6413,-276 37.6413,-270 37.6413,-264 37.6413,-264 37.6413,-252 37.6413,-252 37.6413,-246 43.6413,-240 49.6413,-240 49.6413,-240 565.067,-240 565.067,-240 571.067,-240 577.067,-246 577.067,-252 577.067,-252 577.067,-264 577.067,-264 577.067,-270 571.067,-276 565.067,-276"/>
<text text-anchor="middle" x="307.354" y="-255.3" font-family="Courier,monospace" font-weight="bold" font-size="9.00">/Users/syc/Documents/C3_C4_mapping/inputs/narr_air.2m_monthly/air.2m_monthly_2000_2010_mean.10.nc</text>
</g>
<!-- EBB49302CBEF26B0CA8AEF8483C69E9FE80532F4DFB3A9BD98C600324A43F6C3&#45;&gt;prepare_step -->
<g id="edge12" class="edge"><title>EBB49302CBEF26B0CA8AEF8483C69E9FE80532F4DFB3A9BD98C600324A43F6C3&#45;&gt;prepare_step</title>
<path fill="none" stroke="black" d="M577.096,-274.418C581.811,-277.665 586.357,-281.186 590.708,-285 648.018,-335.239 674.338,-578.327 681.789,-661.795"/>
<polygon fill="black" stroke="black" points="678.308,-662.162 682.661,-671.821 685.281,-661.555 678.308,-662.162"/>
</g>
<!-- A806C3DBAE01848D744C05997CD57B19EA6952CBDB7DEE3E39447864A8A8EE74 -->
<g id="node28" class="node"><title>A806C3DBAE01848D744C05997CD57B19EA6952CBDB7DEE3E39447864A8A8EE74</title>
<path fill="#ffe4b5" stroke="black" d="M576.163,-222C576.163,-222 38.5449,-222 38.5449,-222 32.5449,-222 26.5449,-216 26.5449,-210 26.5449,-210 26.5449,-198 26.5449,-198 26.5449,-192 32.5449,-186 38.5449,-186 38.5449,-186 576.163,-186 576.163,-186 582.163,-186 588.163,-192 588.163,-198 588.163,-198 588.163,-210 588.163,-210 588.163,-216 582.163,-222 576.163,-222"/>
<text text-anchor="middle" x="307.354" y="-201.3" font-family="Courier,monospace" font-weight="bold" font-size="9.00">/Users/syc/Documents/C3_C4_mapping/inputs/narr_apcp_rescaled_monthly/apcp_monthly_2000_2010_mean.6.nc</text>
</g>
<!-- A806C3DBAE01848D744C05997CD57B19EA6952CBDB7DEE3E39447864A8A8EE74&#45;&gt;prepare_step -->
<g id="edge11" class="edge"><title>A806C3DBAE01848D744C05997CD57B19EA6952CBDB7DEE3E39447864A8A8EE74&#45;&gt;prepare_step</title>
<path fill="none" stroke="black" d="M412.668,-185.994C471.883,-181.961 543.395,-188.428 590.708,-231 655.406,-289.214 677.203,-570.971 682.61,-661.752"/>
<polygon fill="black" stroke="black" points="679.122,-662.065 683.19,-671.848 686.111,-661.664 679.122,-662.065"/>
</g>
<!-- 65DD1DF1967A1CEFDFEDD27758298E7E0D597466C10C01A23597BD669A7CB887&#45;&gt;generate_final_results_threshold_2_5 -->
<g id="edge14" class="edge"><title>65DD1DF1967A1CEFDFEDD27758298E7E0D597466C10C01A23597BD669A7CB887&#45;&gt;generate_final_results_threshold_2_5</title>
<path fill="none" stroke="black" d="M1587.41,-755.973C1700.38,-755.255 1842.89,-749.552 1968.51,-730 2013.58,-722.986 2063.1,-709.114 2100.85,-697.187"/>
<polygon fill="black" stroke="black" points="2102.22,-700.423 2110.67,-694.042 2100.08,-693.757 2102.22,-700.423"/>
</g>
<!-- 70BDC55B1CB42B3F2C4ECE8544E84C6B46FD3A190D028162B33A653544691E64&#45;&gt;generate_final_results_threshold_2_5 -->
<g id="edge15" class="edge"><title>70BDC55B1CB42B3F2C4ECE8544E84C6B46FD3A190D028162B33A653544691E64&#45;&gt;generate_final_results_threshold_2_5</title>
<path fill="none" stroke="black" d="M1968.52,-661.67C1977.12,-662.305 1985.76,-662.943 1994.36,-663.577"/>
<polygon fill="black" stroke="black" points="1994.2,-667.075 2004.43,-664.32 1994.71,-660.094 1994.2,-667.075"/>
</g>
<!-- DB290F1948C36B5B58221B2AA19FB5D35C4C836020B0FD2E7F3358D0357C9E12 -->
<g id="node31" class="node"><title>DB290F1948C36B5B58221B2AA19FB5D35C4C836020B0FD2E7F3358D0357C9E12</title>
<path fill="#ffe4b5" stroke="black" d="M562.668,-168C562.668,-168 52.0404,-168 52.0404,-168 46.0404,-168 40.0404,-162 40.0404,-156 40.0404,-156 40.0404,-144 40.0404,-144 40.0404,-138 46.0404,-132 52.0404,-132 52.0404,-132 562.668,-132 562.668,-132 568.668,-132 574.668,-138 574.668,-144 574.668,-144 574.668,-156 574.668,-156 574.668,-162 568.668,-168 562.668,-168"/>
<text text-anchor="middle" x="307.354" y="-147.3" font-family="Courier,monospace" font-weight="bold" font-size="9.00">/Users/syc/Documents/C3_C4_mapping/inputs/narr_air.2m_monthly/air.2m_monthly_2000_2010_mean.3.nc</text>
</g>
<!-- DB290F1948C36B5B58221B2AA19FB5D35C4C836020B0FD2E7F3358D0357C9E12&#45;&gt;prepare_step -->
<g id="edge18" class="edge"><title>DB290F1948C36B5B58221B2AA19FB5D35C4C836020B0FD2E7F3358D0357C9E12&#45;&gt;prepare_step</title>
<path fill="none" stroke="black" d="M408.201,-131.997C468.429,-127.156 542.568,-132.775 590.708,-177 662.837,-243.261 679.756,-564.031 683.264,-661.713"/>
<polygon fill="black" stroke="black" points="679.767,-661.857 683.605,-671.733 686.763,-661.62 679.767,-661.857"/>
</g>
<!-- 830C305341047E53FA500D47C18E3A60FC017853E6290EE907615CA4296F1A85 -->
<g id="node32" class="node"><title>830C305341047E53FA500D47C18E3A60FC017853E6290EE907615CA4296F1A85</title>
<path fill="#ffe4b5" stroke="black" d="M565.067,-114C565.067,-114 49.6413,-114 49.6413,-114 43.6413,-114 37.6413,-108 37.6413,-102 37.6413,-102 37.6413,-90 37.6413,-90 37.6413,-84 43.6413,-78 49.6413,-78 49.6413,-78 565.067,-78 565.067,-78 571.067,-78 577.067,-84 577.067,-90 577.067,-90 577.067,-102 577.067,-102 577.067,-108 571.067,-114 565.067,-114"/>
<text text-anchor="middle" x="307.354" y="-93.3" font-family="Courier,monospace" font-weight="bold" font-size="9.00">/Users/syc/Documents/C3_C4_mapping/inputs/narr_air.2m_monthly/air.2m_monthly_2000_2010_mean.11.nc</text>
</g>
<!-- 830C305341047E53FA500D47C18E3A60FC017853E6290EE907615CA4296F1A85&#45;&gt;prepare_step -->
<g id="edge17" class="edge"><title>830C305341047E53FA500D47C18E3A60FC017853E6290EE907615CA4296F1A85&#45;&gt;prepare_step</title>
<path fill="none" stroke="black" d="M405.405,-77.9764C466.268,-72.589 542.132,-77.6155 590.708,-123 670.355,-197.414 682.077,-557.908 683.802,-661.879"/>
<polygon fill="black" stroke="black" points="680.303,-661.982 683.95,-671.929 687.302,-661.879 680.303,-661.982"/>
</g>
<!-- 7918730F93CD56CE2C6242CF812287ABC460A990576A5E1355ED89C61196F7EA -->
<g id="node33" class="node"><title>7918730F93CD56CE2C6242CF812287ABC460A990576A5E1355ED89C61196F7EA</title>
<path fill="#ffe4b5" stroke="black" d="M576.163,-60C576.163,-60 38.5449,-60 38.5449,-60 32.5449,-60 26.5449,-54 26.5449,-48 26.5449,-48 26.5449,-36 26.5449,-36 26.5449,-30 32.5449,-24 38.5449,-24 38.5449,-24 576.163,-24 576.163,-24 582.163,-24 588.163,-30 588.163,-36 588.163,-36 588.163,-48 588.163,-48 588.163,-54 582.163,-60 576.163,-60"/>
<text text-anchor="middle" x="307.354" y="-39.3" font-family="Courier,monospace" font-weight="bold" font-size="9.00">/Users/syc/Documents/C3_C4_mapping/inputs/narr_apcp_rescaled_monthly/apcp_monthly_2000_2010_mean.7.nc</text>
</g>
<!-- 7918730F93CD56CE2C6242CF812287ABC460A990576A5E1355ED89C61196F7EA&#45;&gt;prepare_step -->
<g id="edge16" class="edge"><title>7918730F93CD56CE2C6242CF812287ABC460A990576A5E1355ED89C61196F7EA&#45;&gt;prepare_step</title>
<path fill="none" stroke="black" d="M403.256,-23.968C464.597,-18.1462 541.825,-22.6844 590.708,-69 677.832,-151.547 684.175,-551.435 684.244,-661.76"/>
<polygon fill="black" stroke="black" points="680.744,-661.791 684.232,-671.795 687.744,-661.799 680.744,-661.791"/>
</g>
<!-- 656CC995E1A12D144D9B64AF03AB0A8D7C17EC343C7EABFC0D6044AAF4FEB200&#45;&gt;examine_pixels_for_grass_threshold_2_5 -->
<g id="edge20" class="edge"><title>656CC995E1A12D144D9B64AF03AB0A8D7C17EC343C7EABFC0D6044AAF4FEB200&#45;&gt;examine_pixels_for_grass_threshold_2_5</title>
<path fill="none" stroke="black" d="M1101.35,-698.981C1142.97,-693.629 1188.71,-687.745 1230.94,-682.314"/>
<polygon fill="black" stroke="black" points="1231.55,-685.764 1241.02,-681.017 1230.66,-678.821 1231.55,-685.764"/>
</g>
<!-- E614BAC90E95D162AB82B832C7607B60E6FDBF2C4A3D95AEB99F4AE27F142965&#45;&gt;generate_final_results_threshold_2_5 -->
<g id="edge19" class="edge"><title>E614BAC90E95D162AB82B832C7607B60E6FDBF2C4A3D95AEB99F4AE27F142965&#45;&gt;generate_final_results_threshold_2_5</title>
<path fill="none" stroke="black" d="M1968.52,-690.33C1977.12,-689.695 1985.76,-689.057 1994.36,-688.423"/>
<polygon fill="black" stroke="black" points="1994.71,-691.906 2004.43,-687.68 1994.2,-684.925 1994.71,-691.906"/>
</g>
</g>
</svg>
