<?xml version="1.0" encoding="UTF-8" standalone="no"?>
<!DOCTYPE svg PUBLIC "-//W3C//DTD SVG 1.1//EN"
 "http://www.w3.org/Graphics/SVG/1.1/DTD/svg11.dtd">
<!-- Generated by graphviz version 2.38.0 (20140413.2041)
 -->
<!-- Title: yw_data_view Pages: 1 -->
<svg width="2882pt" height="1418pt"
 viewBox="0.00 0.00 2881.98 1417.60" xmlns="http://www.w3.org/2000/svg" xmlns:xlink="http://www.w3.org/1999/xlink">
<g id="graph0" class="graph" transform="scale(1 1) rotate(0) translate(4 1413.6)">
<title>yw_data_view</title>
<polygon fill="white" stroke="none" points="-4,4 -4,-1413.6 2877.98,-1413.6 2877.98,4 -4,4"/>
<text text-anchor="middle" x="1436.99" y="-1389.4" font-family="Courier,monospace" font-size="18.00">Upstream graph for multiple runs</text>
<g id="clust1" class="cluster"><title>cluster_workflow</title>
<polygon fill="none" stroke="black" stroke-width="2" points="8,-8 8,-1372 2865.98,-1372 2865.98,-8 8,-8"/>
</g>
<g id="clust2" class="cluster"><title>cluster_workflow_inner</title>
<polygon fill="none" stroke="white" stroke-width="2" points="16,-16 16,-1364 2857.98,-1364 2857.98,-16 16,-16"/>
</g>
<!-- examine_pixels_for_grass_threshold_2_5 -->
<g id="node1" class="node"><title>examine_pixels_for_grass_threshold_2_5</title>
<polygon fill="black" stroke="black" points="1549.75,-681 1214.45,-681 1214.45,-645 1549.75,-645 1549.75,-681"/>
<text text-anchor="middle" x="1382.1" y="-658.8" font-family="Courier,monospace" font-weight="bold" font-size="14.00" fill="white">examine_pixels_for_grass_threshold_2_5</text>
</g>
<!-- /Users/syc/Documents/C3_C4_mapping/workspace/C4_2000_2010.mat -->
<g id="node4" class="node"><title>/Users/syc/Documents/C3_C4_mapping/workspace/C4_2000_2010.mat</title>
<path fill="#ffe4b5" stroke="black" d="M1956.69,-667C1956.69,-667 1635,-667 1635,-667 1629,-667 1623,-661 1623,-655 1623,-655 1623,-643 1623,-643 1623,-637 1629,-631 1635,-631 1635,-631 1956.69,-631 1956.69,-631 1962.69,-631 1968.69,-637 1968.69,-643 1968.69,-643 1968.69,-655 1968.69,-655 1968.69,-661 1962.69,-667 1956.69,-667"/>
<text text-anchor="middle" x="1795.84" y="-646.3" font-family="Courier,monospace" font-weight="bold" font-size="9.00">/Users/syc/Documents/C3_C4_mapping/workspace/C4_2000_2010.mat</text>
</g>
<!-- examine_pixels_for_grass_threshold_2_5&#45;&gt;/Users/syc/Documents/C3_C4_mapping/workspace/C4_2000_2010.mat -->
<g id="edge33" class="edge"><title>examine_pixels_for_grass_threshold_2_5&#45;&gt;/Users/syc/Documents/C3_C4_mapping/workspace/C4_2000_2010.mat</title>
<path fill="none" stroke="black" d="M1549.68,-657.336C1570.57,-656.626 1592.03,-655.896 1613.14,-655.178"/>
<polygon fill="black" stroke="black" points="1613.26,-658.676 1623.14,-654.838 1613.02,-651.68 1613.26,-658.676"/>
</g>
<!-- /Users/syc/Documents/C3_C4_mapping/workspace/C3_2000_2010.mat -->
<g id="node20" class="node"><title>/Users/syc/Documents/C3_C4_mapping/workspace/C3_2000_2010.mat</title>
<path fill="#ffe4b5" stroke="black" d="M1956.69,-721C1956.69,-721 1635,-721 1635,-721 1629,-721 1623,-715 1623,-709 1623,-709 1623,-697 1623,-697 1623,-691 1629,-685 1635,-685 1635,-685 1956.69,-685 1956.69,-685 1962.69,-685 1968.69,-691 1968.69,-697 1968.69,-697 1968.69,-709 1968.69,-709 1968.69,-715 1962.69,-721 1956.69,-721"/>
<text text-anchor="middle" x="1795.84" y="-700.3" font-family="Courier,monospace" font-weight="bold" font-size="9.00">/Users/syc/Documents/C3_C4_mapping/workspace/C3_2000_2010.mat</text>
</g>
<!-- examine_pixels_for_grass_threshold_2_5&#45;&gt;/Users/syc/Documents/C3_C4_mapping/workspace/C3_2000_2010.mat -->
<g id="edge36" class="edge"><title>examine_pixels_for_grass_threshold_2_5&#45;&gt;/Users/syc/Documents/C3_C4_mapping/workspace/C3_2000_2010.mat</title>
<path fill="none" stroke="black" d="M1549.68,-679.183C1570.57,-681.213 1592.03,-683.297 1613.14,-685.348"/>
<polygon fill="black" stroke="black" points="1612.84,-688.836 1623.14,-686.319 1613.52,-681.868 1612.84,-688.836"/>
</g>
<!-- prepare_step -->
<g id="node2" class="node"><title>prepare_step</title>
<polygon fill="black" stroke="black" points="743.383,-708 626.816,-708 626.816,-672 743.383,-672 743.383,-708"/>
<text text-anchor="middle" x="685.1" y="-685.8" font-family="Courier,monospace" font-weight="bold" font-size="14.00" fill="white">prepare_step</text>
</g>
<!-- /Users/syc/Documents/C3_C4_mapping/workspace/Grass_2000_2010.mat -->
<g id="node8" class="node"><title>/Users/syc/Documents/C3_C4_mapping/workspace/Grass_2000_2010.mat</title>
<path fill="#ffe4b5" stroke="black" d="M1128.81,-627C1128.81,-627 791.72,-627 791.72,-627 785.72,-627 779.72,-621 779.72,-615 779.72,-615 779.72,-603 779.72,-603 779.72,-597 785.72,-591 791.72,-591 791.72,-591 1128.81,-591 1128.81,-591 1134.81,-591 1140.81,-597 1140.81,-603 1140.81,-603 1140.81,-615 1140.81,-615 1140.81,-621 1134.81,-627 1128.81,-627"/>
<text text-anchor="middle" x="960.263" y="-606.3" font-family="Courier,monospace" font-weight="bold" font-size="9.00">/Users/syc/Documents/C3_C4_mapping/workspace/Grass_2000_2010.mat</text>
</g>
<!-- prepare_step&#45;&gt;/Users/syc/Documents/C3_C4_mapping/workspace/Grass_2000_2010.mat -->
<g id="edge34" class="edge"><title>prepare_step&#45;&gt;/Users/syc/Documents/C3_C4_mapping/workspace/Grass_2000_2010.mat</title>
<path fill="none" stroke="black" d="M711.393,-671.861C729.498,-659.781 754.919,-644.6 779.491,-636 785.996,-633.723 792.699,-631.639 799.519,-629.73"/>
<polygon fill="black" stroke="black" points="800.819,-633.006 809.585,-627.057 799.022,-626.241 800.819,-633.006"/>
</g>
<!-- /Users/syc/Documents/C3_C4_mapping/workspace/Rain_2000_2010.mat -->
<g id="node23" class="node"><title>/Users/syc/Documents/C3_C4_mapping/workspace/Rain_2000_2010.mat</title>
<path fill="#ffe4b5" stroke="black" d="M1126.41,-681C1126.41,-681 794.119,-681 794.119,-681 788.119,-681 782.119,-675 782.119,-669 782.119,-669 782.119,-657 782.119,-657 782.119,-651 788.119,-645 794.119,-645 794.119,-645 1126.41,-645 1126.41,-645 1132.41,-645 1138.41,-651 1138.41,-657 1138.41,-657 1138.41,-669 1138.41,-669 1138.41,-675 1132.41,-681 1126.41,-681"/>
<text text-anchor="middle" x="960.263" y="-660.3" font-family="Courier,monospace" font-weight="bold" font-size="9.00">/Users/syc/Documents/C3_C4_mapping/workspace/Rain_2000_2010.mat</text>
</g>
<!-- prepare_step&#45;&gt;/Users/syc/Documents/C3_C4_mapping/workspace/Rain_2000_2010.mat -->
<g id="edge37" class="edge"><title>prepare_step&#45;&gt;/Users/syc/Documents/C3_C4_mapping/workspace/Rain_2000_2010.mat</title>
<path fill="none" stroke="black" d="M743.697,-684.307C752.56,-683.431 762.1,-682.488 772.058,-681.504"/>
<polygon fill="black" stroke="black" points="772.538,-684.973 782.145,-680.507 771.849,-678.007 772.538,-684.973"/>
</g>
<!-- /Users/syc/Documents/C3_C4_mapping/workspace/Tair_2000_2010.mat -->
<g id="node33" class="node"><title>/Users/syc/Documents/C3_C4_mapping/workspace/Tair_2000_2010.mat</title>
<path fill="#ffe4b5" stroke="black" d="M1126.41,-735C1126.41,-735 794.119,-735 794.119,-735 788.119,-735 782.119,-729 782.119,-723 782.119,-723 782.119,-711 782.119,-711 782.119,-705 788.119,-699 794.119,-699 794.119,-699 1126.41,-699 1126.41,-699 1132.41,-699 1138.41,-705 1138.41,-711 1138.41,-711 1138.41,-723 1138.41,-723 1138.41,-729 1132.41,-735 1126.41,-735"/>
<text text-anchor="middle" x="960.263" y="-714.3" font-family="Courier,monospace" font-weight="bold" font-size="9.00">/Users/syc/Documents/C3_C4_mapping/workspace/Tair_2000_2010.mat</text>
</g>
<!-- prepare_step&#45;&gt;/Users/syc/Documents/C3_C4_mapping/workspace/Tair_2000_2010.mat -->
<g id="edge38" class="edge"><title>prepare_step&#45;&gt;/Users/syc/Documents/C3_C4_mapping/workspace/Tair_2000_2010.mat</title>
<path fill="none" stroke="black" d="M743.697,-695.693C752.56,-696.569 762.1,-697.512 772.058,-698.496"/>
<polygon fill="black" stroke="black" points="771.849,-701.993 782.145,-699.493 772.538,-695.027 771.849,-701.993"/>
</g>
<!-- /Users/syc/Documents/C3_C4_mapping/workspace/land_cover_map_2000_2010.mat -->
<g id="node34" class="node"><title>/Users/syc/Documents/C3_C4_mapping/workspace/land_cover_map_2000_2010.mat</title>
<path fill="#ffe4b5" stroke="black" d="M1575.24,-770C1575.24,-770 1188.97,-770 1188.97,-770 1182.97,-770 1176.97,-764 1176.97,-758 1176.97,-758 1176.97,-746 1176.97,-746 1176.97,-740 1182.97,-734 1188.97,-734 1188.97,-734 1575.24,-734 1575.24,-734 1581.24,-734 1587.24,-740 1587.24,-746 1587.24,-746 1587.24,-758 1587.24,-758 1587.24,-764 1581.24,-770 1575.24,-770"/>
<text text-anchor="middle" x="1382.1" y="-749.3" font-family="Courier,monospace" font-weight="bold" font-size="9.00">/Users/syc/Documents/C3_C4_mapping/workspace/land_cover_map_2000_2010.mat</text>
</g>
<!-- prepare_step&#45;&gt;/Users/syc/Documents/C3_C4_mapping/workspace/land_cover_map_2000_2010.mat -->
<g id="edge39" class="edge"><title>prepare_step&#45;&gt;/Users/syc/Documents/C3_C4_mapping/workspace/land_cover_map_2000_2010.mat</title>
<path fill="none" stroke="black" d="M709.532,-708.119C727.556,-720.872 753.67,-736.888 779.491,-744 928.255,-784.975 1105.65,-781.325 1229.11,-770.908"/>
<polygon fill="black" stroke="black" points="1229.73,-774.367 1239.39,-770.014 1229.12,-767.393 1229.73,-774.367"/>
</g>
<!-- generate_final_results_threshold_2_5 -->
<g id="node3" class="node"><title>generate_final_results_threshold_2_5</title>
<polygon fill="black" stroke="black" points="2323.04,-694 2004.34,-694 2004.34,-658 2323.04,-658 2323.04,-694"/>
<text text-anchor="middle" x="2163.69" y="-671.8" font-family="Courier,monospace" font-weight="bold" font-size="14.00" fill="white">generate_final_results_threshold_2_5</text>
</g>
<!-- /Users/syc/Documents/C3_C4_mapping/outputs/SYNMAP_PRESENTVEG_C3Grass_RelaFrac_NA_v2.0.nc -->
<g id="node12" class="node"><title>/Users/syc/Documents/C3_C4_mapping/outputs/SYNMAP_PRESENTVEG_C3Grass_RelaFrac_NA_v2.0.nc</title>
<path fill="#ffe4b5" stroke="black" d="M2838.04,-694C2838.04,-694 2370.8,-694 2370.8,-694 2364.8,-694 2358.8,-688 2358.8,-682 2358.8,-682 2358.8,-670 2358.8,-670 2358.8,-664 2364.8,-658 2370.8,-658 2370.8,-658 2838.04,-658 2838.04,-658 2844.04,-658 2850.04,-664 2850.04,-670 2850.04,-670 2850.04,-682 2850.04,-682 2850.04,-688 2844.04,-694 2838.04,-694"/>
<text text-anchor="middle" x="2604.42" y="-673.3" font-family="Courier,monospace" font-weight="bold" font-size="9.00">/Users/syc/Documents/C3_C4_mapping/outputs/SYNMAP_PRESENTVEG_C3Grass_RelaFrac_NA_v2.0.nc</text>
</g>
<!-- generate_final_results_threshold_2_5&#45;&gt;/Users/syc/Documents/C3_C4_mapping/outputs/SYNMAP_PRESENTVEG_C3Grass_RelaFrac_NA_v2.0.nc -->
<g id="edge35" class="edge"><title>generate_final_results_threshold_2_5&#45;&gt;/Users/syc/Documents/C3_C4_mapping/outputs/SYNMAP_PRESENTVEG_C3Grass_RelaFrac_NA_v2.0.nc</title>
<path fill="none" stroke="black" d="M2323.08,-676C2331.46,-676 2339.97,-676 2348.55,-676"/>
<polygon fill="black" stroke="black" points="2348.66,-679.5 2358.66,-676 2348.66,-672.5 2348.66,-679.5"/>
</g>
<!-- /Users/syc/Documents/C3_C4_mapping/workspace/C4_2000_2010.mat&#45;&gt;generate_final_results_threshold_2_5 -->
<g id="edge27" class="edge"><title>/Users/syc/Documents/C3_C4_mapping/workspace/C4_2000_2010.mat&#45;&gt;generate_final_results_threshold_2_5</title>
<path fill="none" stroke="black" d="M1968.52,-661.67C1977.12,-662.305 1985.76,-662.943 1994.36,-663.577"/>
<polygon fill="black" stroke="black" points="1994.2,-667.075 2004.43,-664.32 1994.71,-660.094 1994.2,-667.075"/>
</g>
<!-- /Users/syc/Documents/C3_C4_mapping/inputs/narr_apcp_rescaled_monthly/apcp_monthly_2000_2010_mean.7.nc -->
<g id="node5" class="node"><title>/Users/syc/Documents/C3_C4_mapping/inputs/narr_apcp_rescaled_monthly/apcp_monthly_2000_2010_mean.7.nc</title>
<path fill="#ffe4b5" stroke="black" d="M576.163,-1356C576.163,-1356 38.5449,-1356 38.5449,-1356 32.5449,-1356 26.5449,-1350 26.5449,-1344 26.5449,-1344 26.5449,-1332 26.5449,-1332 26.5449,-1326 32.5449,-1320 38.5449,-1320 38.5449,-1320 576.163,-1320 576.163,-1320 582.163,-1320 588.163,-1326 588.163,-1332 588.163,-1332 588.163,-1344 588.163,-1344 588.163,-1350 582.163,-1356 576.163,-1356"/>
<text text-anchor="middle" x="307.354" y="-1335.3" font-family="Courier,monospace" font-weight="bold" font-size="9.00">/Users/syc/Documents/C3_C4_mapping/inputs/narr_apcp_rescaled_monthly/apcp_monthly_2000_2010_mean.7.nc</text>
</g>
<!-- /Users/syc/Documents/C3_C4_mapping/inputs/narr_apcp_rescaled_monthly/apcp_monthly_2000_2010_mean.7.nc&#45;&gt;prepare_step -->
<g id="edge24" class="edge"><title>/Users/syc/Documents/C3_C4_mapping/inputs/narr_apcp_rescaled_monthly/apcp_monthly_2000_2010_mean.7.nc&#45;&gt;prepare_step</title>
<path fill="none" stroke="black" d="M403.256,-1356.03C464.597,-1361.85 541.825,-1357.32 590.708,-1311 677.832,-1228.45 684.175,-828.565 684.244,-718.24"/>
<polygon fill="black" stroke="black" points="687.744,-718.201 684.232,-708.205 680.744,-718.209 687.744,-718.201"/>
</g>
<!-- /Users/syc/Documents/C3_C4_mapping/inputs/narr_air.2m_monthly/air.2m_monthly_2000_2010_mean.11.nc -->
<g id="node6" class="node"><title>/Users/syc/Documents/C3_C4_mapping/inputs/narr_air.2m_monthly/air.2m_monthly_2000_2010_mean.11.nc</title>
<path fill="#ffe4b5" stroke="black" d="M565.067,-1302C565.067,-1302 49.6413,-1302 49.6413,-1302 43.6413,-1302 37.6413,-1296 37.6413,-1290 37.6413,-1290 37.6413,-1278 37.6413,-1278 37.6413,-1272 43.6413,-1266 49.6413,-1266 49.6413,-1266 565.067,-1266 565.067,-1266 571.067,-1266 577.067,-1272 577.067,-1278 577.067,-1278 577.067,-1290 577.067,-1290 577.067,-1296 571.067,-1302 565.067,-1302"/>
<text text-anchor="middle" x="307.354" y="-1281.3" font-family="Courier,monospace" font-weight="bold" font-size="9.00">/Users/syc/Documents/C3_C4_mapping/inputs/narr_air.2m_monthly/air.2m_monthly_2000_2010_mean.11.nc</text>
</g>
<!-- /Users/syc/Documents/C3_C4_mapping/inputs/narr_air.2m_monthly/air.2m_monthly_2000_2010_mean.11.nc&#45;&gt;prepare_step -->
<g id="edge25" class="edge"><title>/Users/syc/Documents/C3_C4_mapping/inputs/narr_air.2m_monthly/air.2m_monthly_2000_2010_mean.11.nc&#45;&gt;prepare_step</title>
<path fill="none" stroke="black" d="M405.405,-1302.02C466.268,-1307.41 542.132,-1302.38 590.708,-1257 670.355,-1182.59 682.077,-822.092 683.802,-718.121"/>
<polygon fill="black" stroke="black" points="687.302,-718.121 683.95,-708.071 680.303,-718.018 687.302,-718.121"/>
</g>
<!-- /Users/syc/Documents/C3_C4_mapping/inputs/narr_air.2m_monthly/air.2m_monthly_2000_2010_mean.3.nc -->
<g id="node7" class="node"><title>/Users/syc/Documents/C3_C4_mapping/inputs/narr_air.2m_monthly/air.2m_monthly_2000_2010_mean.3.nc</title>
<path fill="#ffe4b5" stroke="black" d="M562.668,-1248C562.668,-1248 52.0404,-1248 52.0404,-1248 46.0404,-1248 40.0404,-1242 40.0404,-1236 40.0404,-1236 40.0404,-1224 40.0404,-1224 40.0404,-1218 46.0404,-1212 52.0404,-1212 52.0404,-1212 562.668,-1212 562.668,-1212 568.668,-1212 574.668,-1218 574.668,-1224 574.668,-1224 574.668,-1236 574.668,-1236 574.668,-1242 568.668,-1248 562.668,-1248"/>
<text text-anchor="middle" x="307.354" y="-1227.3" font-family="Courier,monospace" font-weight="bold" font-size="9.00">/Users/syc/Documents/C3_C4_mapping/inputs/narr_air.2m_monthly/air.2m_monthly_2000_2010_mean.3.nc</text>
</g>
<!-- /Users/syc/Documents/C3_C4_mapping/inputs/narr_air.2m_monthly/air.2m_monthly_2000_2010_mean.3.nc&#45;&gt;prepare_step -->
<g id="edge26" class="edge"><title>/Users/syc/Documents/C3_C4_mapping/inputs/narr_air.2m_monthly/air.2m_monthly_2000_2010_mean.3.nc&#45;&gt;prepare_step</title>
<path fill="none" stroke="black" d="M408.201,-1248C468.429,-1252.84 542.568,-1247.22 590.708,-1203 662.837,-1136.74 679.756,-815.969 683.264,-718.287"/>
<polygon fill="black" stroke="black" points="686.763,-718.38 683.605,-708.267 679.767,-718.143 686.763,-718.38"/>
</g>
<!-- /Users/syc/Documents/C3_C4_mapping/workspace/Grass_2000_2010.mat&#45;&gt;examine_pixels_for_grass_threshold_2_5 -->
<g id="edge31" class="edge"><title>/Users/syc/Documents/C3_C4_mapping/workspace/Grass_2000_2010.mat&#45;&gt;examine_pixels_for_grass_threshold_2_5</title>
<path fill="none" stroke="black" d="M1101.35,-627.019C1142.97,-632.371 1188.71,-638.255 1230.94,-643.686"/>
<polygon fill="black" stroke="black" points="1230.66,-647.179 1241.02,-644.983 1231.55,-640.236 1230.66,-647.179"/>
</g>
<!-- /Users/syc/Documents/C3_C4_mapping/workspace/Grass_2000_2010.mat&#45;&gt;generate_final_results_threshold_2_5 -->
<g id="edge30" class="edge"><title>/Users/syc/Documents/C3_C4_mapping/workspace/Grass_2000_2010.mat&#45;&gt;generate_final_results_threshold_2_5</title>
<path fill="none" stroke="black" d="M1141.1,-597.426C1343.44,-587.62 1681.35,-580.924 1968.51,-622 2014.14,-628.527 2064.22,-642.634 2102.1,-654.793"/>
<polygon fill="black" stroke="black" points="2101.35,-658.232 2111.95,-657.999 2103.52,-651.576 2101.35,-658.232"/>
</g>
<!-- /Users/syc/Documents/C3_C4_mapping/inputs/narr_air.2m_monthly/air.2m_monthly_2000_2010_mean.8.nc -->
<g id="node9" class="node"><title>/Users/syc/Documents/C3_C4_mapping/inputs/narr_air.2m_monthly/air.2m_monthly_2000_2010_mean.8.nc</title>
<path fill="#ffe4b5" stroke="black" d="M562.668,-1194C562.668,-1194 52.0404,-1194 52.0404,-1194 46.0404,-1194 40.0404,-1188 40.0404,-1182 40.0404,-1182 40.0404,-1170 40.0404,-1170 40.0404,-1164 46.0404,-1158 52.0404,-1158 52.0404,-1158 562.668,-1158 562.668,-1158 568.668,-1158 574.668,-1164 574.668,-1170 574.668,-1170 574.668,-1182 574.668,-1182 574.668,-1188 568.668,-1194 562.668,-1194"/>
<text text-anchor="middle" x="307.354" y="-1173.3" font-family="Courier,monospace" font-weight="bold" font-size="9.00">/Users/syc/Documents/C3_C4_mapping/inputs/narr_air.2m_monthly/air.2m_monthly_2000_2010_mean.8.nc</text>
</g>
<!-- /Users/syc/Documents/C3_C4_mapping/inputs/narr_air.2m_monthly/air.2m_monthly_2000_2010_mean.8.nc&#45;&gt;prepare_step -->
<g id="edge29" class="edge"><title>/Users/syc/Documents/C3_C4_mapping/inputs/narr_air.2m_monthly/air.2m_monthly_2000_2010_mean.8.nc&#45;&gt;prepare_step</title>
<path fill="none" stroke="black" d="M412.668,-1194.01C471.883,-1198.04 543.395,-1191.57 590.708,-1149 655.406,-1090.79 677.203,-809.029 682.61,-718.248"/>
<polygon fill="black" stroke="black" points="686.111,-718.336 683.19,-708.152 679.122,-717.935 686.111,-718.336"/>
</g>
<!-- /Users/syc/Documents/C3_C4_mapping/inputs/narr_apcp_rescaled_monthly/apcp_monthly_2000_2010_mean.4.nc -->
<g id="node10" class="node"><title>/Users/syc/Documents/C3_C4_mapping/inputs/narr_apcp_rescaled_monthly/apcp_monthly_2000_2010_mean.4.nc</title>
<path fill="#ffe4b5" stroke="black" d="M576.163,-1140C576.163,-1140 38.5449,-1140 38.5449,-1140 32.5449,-1140 26.5449,-1134 26.5449,-1128 26.5449,-1128 26.5449,-1116 26.5449,-1116 26.5449,-1110 32.5449,-1104 38.5449,-1104 38.5449,-1104 576.163,-1104 576.163,-1104 582.163,-1104 588.163,-1110 588.163,-1116 588.163,-1116 588.163,-1128 588.163,-1128 588.163,-1134 582.163,-1140 576.163,-1140"/>
<text text-anchor="middle" x="307.354" y="-1119.3" font-family="Courier,monospace" font-weight="bold" font-size="9.00">/Users/syc/Documents/C3_C4_mapping/inputs/narr_apcp_rescaled_monthly/apcp_monthly_2000_2010_mean.4.nc</text>
</g>
<!-- /Users/syc/Documents/C3_C4_mapping/inputs/narr_apcp_rescaled_monthly/apcp_monthly_2000_2010_mean.4.nc&#45;&gt;prepare_step -->
<g id="edge28" class="edge"><title>/Users/syc/Documents/C3_C4_mapping/inputs/narr_apcp_rescaled_monthly/apcp_monthly_2000_2010_mean.4.nc&#45;&gt;prepare_step</title>
<path fill="none" stroke="black" d="M579.489,-1103.9C583.353,-1101.13 587.098,-1098.16 590.708,-1095 648.018,-1044.76 674.338,-801.673 681.789,-718.205"/>
<polygon fill="black" stroke="black" points="685.281,-718.445 682.661,-708.179 678.308,-717.838 685.281,-718.445"/>
</g>
<!-- /Users/syc/Documents/C3_C4_mapping/inputs/narr_apcp_rescaled_monthly/apcp_monthly_2000_2010_mean.12.nc -->
<g id="node11" class="node"><title>/Users/syc/Documents/C3_C4_mapping/inputs/narr_apcp_rescaled_monthly/apcp_monthly_2000_2010_mean.12.nc</title>
<path fill="#ffe4b5" stroke="black" d="M578.562,-1086C578.562,-1086 36.1458,-1086 36.1458,-1086 30.1458,-1086 24.1458,-1080 24.1458,-1074 24.1458,-1074 24.1458,-1062 24.1458,-1062 24.1458,-1056 30.1458,-1050 36.1458,-1050 36.1458,-1050 578.562,-1050 578.562,-1050 584.562,-1050 590.562,-1056 590.562,-1062 590.562,-1062 590.562,-1074 590.562,-1074 590.562,-1080 584.562,-1086 578.562,-1086"/>
<text text-anchor="middle" x="307.354" y="-1065.3" font-family="Courier,monospace" font-weight="bold" font-size="9.00">/Users/syc/Documents/C3_C4_mapping/inputs/narr_apcp_rescaled_monthly/apcp_monthly_2000_2010_mean.12.nc</text>
</g>
<!-- /Users/syc/Documents/C3_C4_mapping/inputs/narr_apcp_rescaled_monthly/apcp_monthly_2000_2010_mean.12.nc&#45;&gt;prepare_step -->
<g id="edge32" class="edge"><title>/Users/syc/Documents/C3_C4_mapping/inputs/narr_apcp_rescaled_monthly/apcp_monthly_2000_2010_mean.12.nc&#45;&gt;prepare_step</title>
<path fill="none" stroke="black" d="M579.043,-1049.94C583.057,-1047.16 586.952,-1044.18 590.708,-1041 640.571,-998.742 670.919,-794.755 680.66,-718.681"/>
<polygon fill="black" stroke="black" points="684.176,-718.778 681.948,-708.42 677.23,-717.906 684.176,-718.778"/>
</g>
<!-- /Users/syc/Documents/C3_C4_mapping/inputs/narr_air.2m_monthly/air.2m_monthly_2000_2010_mean.5.nc -->
<g id="node13" class="node"><title>/Users/syc/Documents/C3_C4_mapping/inputs/narr_air.2m_monthly/air.2m_monthly_2000_2010_mean.5.nc</title>
<path fill="#ffe4b5" stroke="black" d="M562.668,-1032C562.668,-1032 52.0404,-1032 52.0404,-1032 46.0404,-1032 40.0404,-1026 40.0404,-1020 40.0404,-1020 40.0404,-1008 40.0404,-1008 40.0404,-1002 46.0404,-996 52.0404,-996 52.0404,-996 562.668,-996 562.668,-996 568.668,-996 574.668,-1002 574.668,-1008 574.668,-1008 574.668,-1020 574.668,-1020 574.668,-1026 568.668,-1032 562.668,-1032"/>
<text text-anchor="middle" x="307.354" y="-1011.3" font-family="Courier,monospace" font-weight="bold" font-size="9.00">/Users/syc/Documents/C3_C4_mapping/inputs/narr_air.2m_monthly/air.2m_monthly_2000_2010_mean.5.nc</text>
</g>
<!-- /Users/syc/Documents/C3_C4_mapping/inputs/narr_air.2m_monthly/air.2m_monthly_2000_2010_mean.5.nc&#45;&gt;prepare_step -->
<g id="edge3" class="edge"><title>/Users/syc/Documents/C3_C4_mapping/inputs/narr_air.2m_monthly/air.2m_monthly_2000_2010_mean.5.nc&#45;&gt;prepare_step</title>
<path fill="none" stroke="black" d="M574.529,-998.48C580.136,-995.002 585.542,-991.184 590.708,-987 673.946,-919.588 684.278,-778.576 684.699,-718.304"/>
<polygon fill="black" stroke="black" points="688.198,-718.018 684.677,-708.025 681.198,-718.032 688.198,-718.018"/>
</g>
<!-- /Users/syc/Documents/C3_C4_mapping/inputs/narr_apcp_rescaled_monthly/apcp_monthly_2000_2010_mean.1.nc -->
<g id="node14" class="node"><title>/Users/syc/Documents/C3_C4_mapping/inputs/narr_apcp_rescaled_monthly/apcp_monthly_2000_2010_mean.1.nc</title>
<path fill="#ffe4b5" stroke="black" d="M576.163,-978C576.163,-978 38.5449,-978 38.5449,-978 32.5449,-978 26.5449,-972 26.5449,-966 26.5449,-966 26.5449,-954 26.5449,-954 26.5449,-948 32.5449,-942 38.5449,-942 38.5449,-942 576.163,-942 576.163,-942 582.163,-942 588.163,-948 588.163,-954 588.163,-954 588.163,-966 588.163,-966 588.163,-972 582.163,-978 576.163,-978"/>
<text text-anchor="middle" x="307.354" y="-957.3" font-family="Courier,monospace" font-weight="bold" font-size="9.00">/Users/syc/Documents/C3_C4_mapping/inputs/narr_apcp_rescaled_monthly/apcp_monthly_2000_2010_mean.1.nc</text>
</g>
<!-- /Users/syc/Documents/C3_C4_mapping/inputs/narr_apcp_rescaled_monthly/apcp_monthly_2000_2010_mean.1.nc&#45;&gt;prepare_step -->
<g id="edge2" class="edge"><title>/Users/syc/Documents/C3_C4_mapping/inputs/narr_apcp_rescaled_monthly/apcp_monthly_2000_2010_mean.1.nc&#45;&gt;prepare_step</title>
<path fill="none" stroke="black" d="M577.65,-941.955C582.133,-939.183 586.493,-936.202 590.708,-933 659.757,-880.552 677.764,-770.237 682.453,-718.246"/>
<polygon fill="black" stroke="black" points="685.958,-718.326 683.265,-708.079 678.98,-717.769 685.958,-718.326"/>
</g>
<!-- /Users/syc/Documents/C3_C4_mapping/inputs/narr_apcp_rescaled_monthly/apcp_monthly_2000_2010_mean.9.nc -->
<g id="node15" class="node"><title>/Users/syc/Documents/C3_C4_mapping/inputs/narr_apcp_rescaled_monthly/apcp_monthly_2000_2010_mean.9.nc</title>
<path fill="#ffe4b5" stroke="black" d="M576.163,-924C576.163,-924 38.5449,-924 38.5449,-924 32.5449,-924 26.5449,-918 26.5449,-912 26.5449,-912 26.5449,-900 26.5449,-900 26.5449,-894 32.5449,-888 38.5449,-888 38.5449,-888 576.163,-888 576.163,-888 582.163,-888 588.163,-894 588.163,-900 588.163,-900 588.163,-912 588.163,-912 588.163,-918 582.163,-924 576.163,-924"/>
<text text-anchor="middle" x="307.354" y="-903.3" font-family="Courier,monospace" font-weight="bold" font-size="9.00">/Users/syc/Documents/C3_C4_mapping/inputs/narr_apcp_rescaled_monthly/apcp_monthly_2000_2010_mean.9.nc</text>
</g>
<!-- /Users/syc/Documents/C3_C4_mapping/inputs/narr_apcp_rescaled_monthly/apcp_monthly_2000_2010_mean.9.nc&#45;&gt;prepare_step -->
<g id="edge1" class="edge"><title>/Users/syc/Documents/C3_C4_mapping/inputs/narr_apcp_rescaled_monthly/apcp_monthly_2000_2010_mean.9.nc&#45;&gt;prepare_step</title>
<path fill="none" stroke="black" d="M576.291,-887.955C581.233,-885.194 586.046,-882.214 590.708,-879 645.849,-840.985 669.878,-760.746 679.099,-718.072"/>
<polygon fill="black" stroke="black" points="682.568,-718.578 681.134,-708.08 675.709,-717.181 682.568,-718.578"/>
</g>
<!-- /Users/syc/Documents/C3_C4_mapping/inputs/narr_air.2m_monthly/air.2m_monthly_2000_2010_mean.2.nc -->
<g id="node16" class="node"><title>/Users/syc/Documents/C3_C4_mapping/inputs/narr_air.2m_monthly/air.2m_monthly_2000_2010_mean.2.nc</title>
<path fill="#ffe4b5" stroke="black" d="M562.668,-870C562.668,-870 52.0404,-870 52.0404,-870 46.0404,-870 40.0404,-864 40.0404,-858 40.0404,-858 40.0404,-846 40.0404,-846 40.0404,-840 46.0404,-834 52.0404,-834 52.0404,-834 562.668,-834 562.668,-834 568.668,-834 574.668,-840 574.668,-846 574.668,-846 574.668,-858 574.668,-858 574.668,-864 568.668,-870 562.668,-870"/>
<text text-anchor="middle" x="307.354" y="-849.3" font-family="Courier,monospace" font-weight="bold" font-size="9.00">/Users/syc/Documents/C3_C4_mapping/inputs/narr_air.2m_monthly/air.2m_monthly_2000_2010_mean.2.nc</text>
</g>
<!-- /Users/syc/Documents/C3_C4_mapping/inputs/narr_air.2m_monthly/air.2m_monthly_2000_2010_mean.2.nc&#45;&gt;prepare_step -->
<g id="edge6" class="edge"><title>/Users/syc/Documents/C3_C4_mapping/inputs/narr_air.2m_monthly/air.2m_monthly_2000_2010_mean.2.nc&#45;&gt;prepare_step</title>
<path fill="none" stroke="black" d="M573.672,-833.957C579.497,-831.218 585.186,-828.239 590.708,-825 632.188,-800.67 659.561,-749.762 673.403,-717.883"/>
<polygon fill="black" stroke="black" points="676.798,-718.835 677.422,-708.259 670.338,-716.138 676.798,-718.835"/>
</g>
<!-- /Users/syc/Documents/C3_C4_mapping/inputs/narr_air.2m_monthly/air.2m_monthly_2000_2010_mean.10.nc -->
<g id="node17" class="node"><title>/Users/syc/Documents/C3_C4_mapping/inputs/narr_air.2m_monthly/air.2m_monthly_2000_2010_mean.10.nc</title>
<path fill="#ffe4b5" stroke="black" d="M565.067,-816C565.067,-816 49.6413,-816 49.6413,-816 43.6413,-816 37.6413,-810 37.6413,-804 37.6413,-804 37.6413,-792 37.6413,-792 37.6413,-786 43.6413,-780 49.6413,-780 49.6413,-780 565.067,-780 565.067,-780 571.067,-780 577.067,-786 577.067,-792 577.067,-792 577.067,-804 577.067,-804 577.067,-810 571.067,-816 565.067,-816"/>
<text text-anchor="middle" x="307.354" y="-795.3" font-family="Courier,monospace" font-weight="bold" font-size="9.00">/Users/syc/Documents/C3_C4_mapping/inputs/narr_air.2m_monthly/air.2m_monthly_2000_2010_mean.10.nc</text>
</g>
<!-- /Users/syc/Documents/C3_C4_mapping/inputs/narr_air.2m_monthly/air.2m_monthly_2000_2010_mean.10.nc&#45;&gt;prepare_step -->
<g id="edge5" class="edge"><title>/Users/syc/Documents/C3_C4_mapping/inputs/narr_air.2m_monthly/air.2m_monthly_2000_2010_mean.10.nc&#45;&gt;prepare_step</title>
<path fill="none" stroke="black" d="M567.019,-779.964C575.096,-777.276 583.014,-774.298 590.708,-771 619.189,-758.794 645.25,-734.593 662.561,-715.808"/>
<polygon fill="black" stroke="black" points="665.363,-717.925 669.426,-708.14 660.148,-713.256 665.363,-717.925"/>
</g>
<!-- /Users/syc/Documents/C3_C4_mapping/inputs/narr_apcp_rescaled_monthly/apcp_monthly_2000_2010_mean.6.nc -->
<g id="node18" class="node"><title>/Users/syc/Documents/C3_C4_mapping/inputs/narr_apcp_rescaled_monthly/apcp_monthly_2000_2010_mean.6.nc</title>
<path fill="#ffe4b5" stroke="black" d="M576.163,-762C576.163,-762 38.5449,-762 38.5449,-762 32.5449,-762 26.5449,-756 26.5449,-750 26.5449,-750 26.5449,-738 26.5449,-738 26.5449,-732 32.5449,-726 38.5449,-726 38.5449,-726 576.163,-726 576.163,-726 582.163,-726 588.163,-732 588.163,-738 588.163,-738 588.163,-750 588.163,-750 588.163,-756 582.163,-762 576.163,-762"/>
<text text-anchor="middle" x="307.354" y="-741.3" font-family="Courier,monospace" font-weight="bold" font-size="9.00">/Users/syc/Documents/C3_C4_mapping/inputs/narr_apcp_rescaled_monthly/apcp_monthly_2000_2010_mean.6.nc</text>
</g>
<!-- /Users/syc/Documents/C3_C4_mapping/inputs/narr_apcp_rescaled_monthly/apcp_monthly_2000_2010_mean.6.nc&#45;&gt;prepare_step -->
<g id="edge4" class="edge"><title>/Users/syc/Documents/C3_C4_mapping/inputs/narr_apcp_rescaled_monthly/apcp_monthly_2000_2010_mean.6.nc&#45;&gt;prepare_step</title>
<path fill="none" stroke="black" d="M535.805,-725.967C554.44,-723.361 572.931,-720.389 590.708,-717 599.596,-715.306 608.857,-713.137 617.945,-710.767"/>
<polygon fill="black" stroke="black" points="618.972,-714.115 627.713,-708.129 617.146,-707.357 618.972,-714.115"/>
</g>
<!-- /Users/syc/Documents/C3_C4_mapping/inputs/land_cover/SYNMAP_NA_QD.nc -->
<g id="node19" class="node"><title>/Users/syc/Documents/C3_C4_mapping/inputs/land_cover/SYNMAP_NA_QD.nc</title>
<path fill="#ffe4b5" stroke="black" d="M486.993,-708C486.993,-708 127.715,-708 127.715,-708 121.715,-708 115.715,-702 115.715,-696 115.715,-696 115.715,-684 115.715,-684 115.715,-678 121.715,-672 127.715,-672 127.715,-672 486.993,-672 486.993,-672 492.993,-672 498.993,-678 498.993,-684 498.993,-684 498.993,-696 498.993,-696 498.993,-702 492.993,-708 486.993,-708"/>
<text text-anchor="middle" x="307.354" y="-687.3" font-family="Courier,monospace" font-weight="bold" font-size="9.00">/Users/syc/Documents/C3_C4_mapping/inputs/land_cover/SYNMAP_NA_QD.nc</text>
</g>
<!-- /Users/syc/Documents/C3_C4_mapping/inputs/land_cover/SYNMAP_NA_QD.nc&#45;&gt;prepare_step -->
<g id="edge7" class="edge"><title>/Users/syc/Documents/C3_C4_mapping/inputs/land_cover/SYNMAP_NA_QD.nc&#45;&gt;prepare_step</title>
<path fill="none" stroke="black" d="M498.979,-690C541.124,-690 583.085,-690 616.375,-690"/>
<polygon fill="black" stroke="black" points="616.418,-693.5 626.418,-690 616.418,-686.5 616.418,-693.5"/>
</g>
<!-- /Users/syc/Documents/C3_C4_mapping/workspace/C3_2000_2010.mat&#45;&gt;generate_final_results_threshold_2_5 -->
<g id="edge8" class="edge"><title>/Users/syc/Documents/C3_C4_mapping/workspace/C3_2000_2010.mat&#45;&gt;generate_final_results_threshold_2_5</title>
<path fill="none" stroke="black" d="M1968.52,-690.33C1977.12,-689.695 1985.76,-689.057 1994.36,-688.423"/>
<polygon fill="black" stroke="black" points="1994.71,-691.906 2004.43,-687.68 1994.2,-684.925 1994.71,-691.906"/>
</g>
<!-- /Users/syc/Documents/C3_C4_mapping/inputs/narr_air.2m_monthly/air.2m_monthly_2000_2010_mean.7.nc -->
<g id="node21" class="node"><title>/Users/syc/Documents/C3_C4_mapping/inputs/narr_air.2m_monthly/air.2m_monthly_2000_2010_mean.7.nc</title>
<path fill="#ffe4b5" stroke="black" d="M562.668,-654C562.668,-654 52.0404,-654 52.0404,-654 46.0404,-654 40.0404,-648 40.0404,-642 40.0404,-642 40.0404,-630 40.0404,-630 40.0404,-624 46.0404,-618 52.0404,-618 52.0404,-618 562.668,-618 562.668,-618 568.668,-618 574.668,-624 574.668,-630 574.668,-630 574.668,-642 574.668,-642 574.668,-648 568.668,-654 562.668,-654"/>
<text text-anchor="middle" x="307.354" y="-633.3" font-family="Courier,monospace" font-weight="bold" font-size="9.00">/Users/syc/Documents/C3_C4_mapping/inputs/narr_air.2m_monthly/air.2m_monthly_2000_2010_mean.7.nc</text>
</g>
<!-- /Users/syc/Documents/C3_C4_mapping/inputs/narr_air.2m_monthly/air.2m_monthly_2000_2010_mean.7.nc&#45;&gt;prepare_step -->
<g id="edge10" class="edge"><title>/Users/syc/Documents/C3_C4_mapping/inputs/narr_air.2m_monthly/air.2m_monthly_2000_2010_mean.7.nc&#45;&gt;prepare_step</title>
<path fill="none" stroke="black" d="M535.805,-654.033C554.44,-656.639 572.931,-659.611 590.708,-663 599.596,-664.694 608.857,-666.863 617.945,-669.233"/>
<polygon fill="black" stroke="black" points="617.146,-672.643 627.713,-671.871 618.972,-665.885 617.146,-672.643"/>
</g>
<!-- /Users/syc/Documents/C3_C4_mapping/inputs/narr_apcp_rescaled_monthly/apcp_monthly_2000_2010_mean.3.nc -->
<g id="node22" class="node"><title>/Users/syc/Documents/C3_C4_mapping/inputs/narr_apcp_rescaled_monthly/apcp_monthly_2000_2010_mean.3.nc</title>
<path fill="#ffe4b5" stroke="black" d="M576.163,-600C576.163,-600 38.5449,-600 38.5449,-600 32.5449,-600 26.5449,-594 26.5449,-588 26.5449,-588 26.5449,-576 26.5449,-576 26.5449,-570 32.5449,-564 38.5449,-564 38.5449,-564 576.163,-564 576.163,-564 582.163,-564 588.163,-570 588.163,-576 588.163,-576 588.163,-588 588.163,-588 588.163,-594 582.163,-600 576.163,-600"/>
<text text-anchor="middle" x="307.354" y="-579.3" font-family="Courier,monospace" font-weight="bold" font-size="9.00">/Users/syc/Documents/C3_C4_mapping/inputs/narr_apcp_rescaled_monthly/apcp_monthly_2000_2010_mean.3.nc</text>
</g>
<!-- /Users/syc/Documents/C3_C4_mapping/inputs/narr_apcp_rescaled_monthly/apcp_monthly_2000_2010_mean.3.nc&#45;&gt;prepare_step -->
<g id="edge9" class="edge"><title>/Users/syc/Documents/C3_C4_mapping/inputs/narr_apcp_rescaled_monthly/apcp_monthly_2000_2010_mean.3.nc&#45;&gt;prepare_step</title>
<path fill="none" stroke="black" d="M567.019,-600.036C575.096,-602.724 583.014,-605.702 590.708,-609 619.189,-621.206 645.25,-645.407 662.561,-664.192"/>
<polygon fill="black" stroke="black" points="660.148,-666.744 669.426,-671.86 665.363,-662.075 660.148,-666.744"/>
</g>
<!-- /Users/syc/Documents/C3_C4_mapping/workspace/Rain_2000_2010.mat&#45;&gt;examine_pixels_for_grass_threshold_2_5 -->
<g id="edge12" class="edge"><title>/Users/syc/Documents/C3_C4_mapping/workspace/Rain_2000_2010.mat&#45;&gt;examine_pixels_for_grass_threshold_2_5</title>
<path fill="none" stroke="black" d="M1138.4,-663C1160.15,-663 1182.38,-663 1204.13,-663"/>
<polygon fill="black" stroke="black" points="1204.42,-666.5 1214.42,-663 1204.42,-659.5 1204.42,-666.5"/>
</g>
<!-- /Users/syc/Documents/C3_C4_mapping/inputs/narr_apcp_rescaled_monthly/apcp_monthly_2000_2010_mean.11.nc -->
<g id="node24" class="node"><title>/Users/syc/Documents/C3_C4_mapping/inputs/narr_apcp_rescaled_monthly/apcp_monthly_2000_2010_mean.11.nc</title>
<path fill="#ffe4b5" stroke="black" d="M578.562,-546C578.562,-546 36.1458,-546 36.1458,-546 30.1458,-546 24.1458,-540 24.1458,-534 24.1458,-534 24.1458,-522 24.1458,-522 24.1458,-516 30.1458,-510 36.1458,-510 36.1458,-510 578.562,-510 578.562,-510 584.562,-510 590.562,-516 590.562,-522 590.562,-522 590.562,-534 590.562,-534 590.562,-540 584.562,-546 578.562,-546"/>
<text text-anchor="middle" x="307.354" y="-525.3" font-family="Courier,monospace" font-weight="bold" font-size="9.00">/Users/syc/Documents/C3_C4_mapping/inputs/narr_apcp_rescaled_monthly/apcp_monthly_2000_2010_mean.11.nc</text>
</g>
<!-- /Users/syc/Documents/C3_C4_mapping/inputs/narr_apcp_rescaled_monthly/apcp_monthly_2000_2010_mean.11.nc&#45;&gt;prepare_step -->
<g id="edge11" class="edge"><title>/Users/syc/Documents/C3_C4_mapping/inputs/narr_apcp_rescaled_monthly/apcp_monthly_2000_2010_mean.11.nc&#45;&gt;prepare_step</title>
<path fill="none" stroke="black" d="M573.672,-546.043C579.497,-548.782 585.186,-551.761 590.708,-555 632.188,-579.33 659.561,-630.238 673.403,-662.117"/>
<polygon fill="black" stroke="black" points="670.338,-663.862 677.422,-671.741 676.798,-661.165 670.338,-663.862"/>
</g>
<!-- /Users/syc/Documents/C3_C4_mapping/inputs/narr_air.2m_monthly/air.2m_monthly_2000_2010_mean.4.nc -->
<g id="node25" class="node"><title>/Users/syc/Documents/C3_C4_mapping/inputs/narr_air.2m_monthly/air.2m_monthly_2000_2010_mean.4.nc</title>
<path fill="#ffe4b5" stroke="black" d="M562.668,-492C562.668,-492 52.0404,-492 52.0404,-492 46.0404,-492 40.0404,-486 40.0404,-480 40.0404,-480 40.0404,-468 40.0404,-468 40.0404,-462 46.0404,-456 52.0404,-456 52.0404,-456 562.668,-456 562.668,-456 568.668,-456 574.668,-462 574.668,-468 574.668,-468 574.668,-480 574.668,-480 574.668,-486 568.668,-492 562.668,-492"/>
<text text-anchor="middle" x="307.354" y="-471.3" font-family="Courier,monospace" font-weight="bold" font-size="9.00">/Users/syc/Documents/C3_C4_mapping/inputs/narr_air.2m_monthly/air.2m_monthly_2000_2010_mean.4.nc</text>
</g>
<!-- /Users/syc/Documents/C3_C4_mapping/inputs/narr_air.2m_monthly/air.2m_monthly_2000_2010_mean.4.nc&#45;&gt;prepare_step -->
<g id="edge15" class="edge"><title>/Users/syc/Documents/C3_C4_mapping/inputs/narr_air.2m_monthly/air.2m_monthly_2000_2010_mean.4.nc&#45;&gt;prepare_step</title>
<path fill="none" stroke="black" d="M574.676,-491.153C580.184,-494.161 585.539,-497.436 590.708,-501 645.849,-539.015 669.878,-619.254 679.099,-661.928"/>
<polygon fill="black" stroke="black" points="675.709,-662.819 681.134,-671.92 682.568,-661.422 675.709,-662.819"/>
</g>
<!-- /Users/syc/Documents/C3_C4_mapping/inputs/narr_air.2m_monthly/air.2m_monthly_2000_2010_mean.12.nc -->
<g id="node26" class="node"><title>/Users/syc/Documents/C3_C4_mapping/inputs/narr_air.2m_monthly/air.2m_monthly_2000_2010_mean.12.nc</title>
<path fill="#ffe4b5" stroke="black" d="M565.067,-438C565.067,-438 49.6413,-438 49.6413,-438 43.6413,-438 37.6413,-432 37.6413,-426 37.6413,-426 37.6413,-414 37.6413,-414 37.6413,-408 43.6413,-402 49.6413,-402 49.6413,-402 565.067,-402 565.067,-402 571.067,-402 577.067,-408 577.067,-414 577.067,-414 577.067,-426 577.067,-426 577.067,-432 571.067,-438 565.067,-438"/>
<text text-anchor="middle" x="307.354" y="-417.3" font-family="Courier,monospace" font-weight="bold" font-size="9.00">/Users/syc/Documents/C3_C4_mapping/inputs/narr_air.2m_monthly/air.2m_monthly_2000_2010_mean.12.nc</text>
</g>
<!-- /Users/syc/Documents/C3_C4_mapping/inputs/narr_air.2m_monthly/air.2m_monthly_2000_2010_mean.12.nc&#45;&gt;prepare_step -->
<g id="edge14" class="edge"><title>/Users/syc/Documents/C3_C4_mapping/inputs/narr_air.2m_monthly/air.2m_monthly_2000_2010_mean.12.nc&#45;&gt;prepare_step</title>
<path fill="none" stroke="black" d="M577.337,-437.852C581.931,-440.679 586.395,-443.724 590.708,-447 659.757,-499.448 677.764,-609.763 682.453,-661.754"/>
<polygon fill="black" stroke="black" points="678.98,-662.231 683.265,-671.921 685.958,-661.674 678.98,-662.231"/>
</g>
<!-- /Users/syc/Documents/C3_C4_mapping/inputs/narr_apcp_rescaled_monthly/apcp_monthly_2000_2010_mean.8.nc -->
<g id="node27" class="node"><title>/Users/syc/Documents/C3_C4_mapping/inputs/narr_apcp_rescaled_monthly/apcp_monthly_2000_2010_mean.8.nc</title>
<path fill="#ffe4b5" stroke="black" d="M576.163,-384C576.163,-384 38.5449,-384 38.5449,-384 32.5449,-384 26.5449,-378 26.5449,-372 26.5449,-372 26.5449,-360 26.5449,-360 26.5449,-354 32.5449,-348 38.5449,-348 38.5449,-348 576.163,-348 576.163,-348 582.163,-348 588.163,-354 588.163,-360 588.163,-360 588.163,-372 588.163,-372 588.163,-378 582.163,-384 576.163,-384"/>
<text text-anchor="middle" x="307.354" y="-363.3" font-family="Courier,monospace" font-weight="bold" font-size="9.00">/Users/syc/Documents/C3_C4_mapping/inputs/narr_apcp_rescaled_monthly/apcp_monthly_2000_2010_mean.8.nc</text>
</g>
<!-- /Users/syc/Documents/C3_C4_mapping/inputs/narr_apcp_rescaled_monthly/apcp_monthly_2000_2010_mean.8.nc&#45;&gt;prepare_step -->
<g id="edge13" class="edge"><title>/Users/syc/Documents/C3_C4_mapping/inputs/narr_apcp_rescaled_monthly/apcp_monthly_2000_2010_mean.8.nc&#45;&gt;prepare_step</title>
<path fill="none" stroke="black" d="M578.543,-384.091C582.725,-386.858 586.786,-389.823 590.708,-393 673.946,-460.412 684.278,-601.424 684.699,-661.696"/>
<polygon fill="black" stroke="black" points="681.198,-661.968 684.677,-671.975 688.198,-661.982 681.198,-661.968"/>
</g>
<!-- /Users/syc/Documents/C3_C4_mapping/inputs/narr_air.2m_monthly/air.2m_monthly_2000_2010_mean.9.nc -->
<g id="node28" class="node"><title>/Users/syc/Documents/C3_C4_mapping/inputs/narr_air.2m_monthly/air.2m_monthly_2000_2010_mean.9.nc</title>
<path fill="#ffe4b5" stroke="black" d="M562.668,-330C562.668,-330 52.0404,-330 52.0404,-330 46.0404,-330 40.0404,-324 40.0404,-318 40.0404,-318 40.0404,-306 40.0404,-306 40.0404,-300 46.0404,-294 52.0404,-294 52.0404,-294 562.668,-294 562.668,-294 568.668,-294 574.668,-300 574.668,-306 574.668,-306 574.668,-318 574.668,-318 574.668,-324 568.668,-330 562.668,-330"/>
<text text-anchor="middle" x="307.354" y="-309.3" font-family="Courier,monospace" font-weight="bold" font-size="9.00">/Users/syc/Documents/C3_C4_mapping/inputs/narr_air.2m_monthly/air.2m_monthly_2000_2010_mean.9.nc</text>
</g>
<!-- /Users/syc/Documents/C3_C4_mapping/inputs/narr_air.2m_monthly/air.2m_monthly_2000_2010_mean.9.nc&#45;&gt;prepare_step -->
<g id="edge17" class="edge"><title>/Users/syc/Documents/C3_C4_mapping/inputs/narr_air.2m_monthly/air.2m_monthly_2000_2010_mean.9.nc&#45;&gt;prepare_step</title>
<path fill="none" stroke="black" d="M574.783,-327.212C580.315,-330.782 585.637,-334.702 590.708,-339 640.571,-381.258 670.919,-585.245 680.66,-661.319"/>
<polygon fill="black" stroke="black" points="677.23,-662.094 681.948,-671.58 684.176,-661.222 677.23,-662.094"/>
</g>
<!-- /Users/syc/Documents/C3_C4_mapping/inputs/narr_apcp_rescaled_monthly/apcp_monthly_2000_2010_mean.5.nc -->
<g id="node29" class="node"><title>/Users/syc/Documents/C3_C4_mapping/inputs/narr_apcp_rescaled_monthly/apcp_monthly_2000_2010_mean.5.nc</title>
<path fill="#ffe4b5" stroke="black" d="M576.163,-276C576.163,-276 38.5449,-276 38.5449,-276 32.5449,-276 26.5449,-270 26.5449,-264 26.5449,-264 26.5449,-252 26.5449,-252 26.5449,-246 32.5449,-240 38.5449,-240 38.5449,-240 576.163,-240 576.163,-240 582.163,-240 588.163,-246 588.163,-252 588.163,-252 588.163,-264 588.163,-264 588.163,-270 582.163,-276 576.163,-276"/>
<text text-anchor="middle" x="307.354" y="-255.3" font-family="Courier,monospace" font-weight="bold" font-size="9.00">/Users/syc/Documents/C3_C4_mapping/inputs/narr_apcp_rescaled_monthly/apcp_monthly_2000_2010_mean.5.nc</text>
</g>
<!-- /Users/syc/Documents/C3_C4_mapping/inputs/narr_apcp_rescaled_monthly/apcp_monthly_2000_2010_mean.5.nc&#45;&gt;prepare_step -->
<g id="edge16" class="edge"><title>/Users/syc/Documents/C3_C4_mapping/inputs/narr_apcp_rescaled_monthly/apcp_monthly_2000_2010_mean.5.nc&#45;&gt;prepare_step</title>
<path fill="none" stroke="black" d="M579.489,-276.1C583.353,-278.872 587.098,-281.835 590.708,-285 648.018,-335.239 674.338,-578.327 681.789,-661.795"/>
<polygon fill="black" stroke="black" points="678.308,-662.162 682.661,-671.821 685.281,-661.555 678.308,-662.162"/>
</g>
<!-- /Users/syc/Documents/C3_C4_mapping/inputs/narr_air.2m_monthly/air.2m_monthly_2000_2010_mean.1.nc -->
<g id="node30" class="node"><title>/Users/syc/Documents/C3_C4_mapping/inputs/narr_air.2m_monthly/air.2m_monthly_2000_2010_mean.1.nc</title>
<path fill="#ffe4b5" stroke="black" d="M562.668,-222C562.668,-222 52.0404,-222 52.0404,-222 46.0404,-222 40.0404,-216 40.0404,-210 40.0404,-210 40.0404,-198 40.0404,-198 40.0404,-192 46.0404,-186 52.0404,-186 52.0404,-186 562.668,-186 562.668,-186 568.668,-186 574.668,-192 574.668,-198 574.668,-198 574.668,-210 574.668,-210 574.668,-216 568.668,-222 562.668,-222"/>
<text text-anchor="middle" x="307.354" y="-201.3" font-family="Courier,monospace" font-weight="bold" font-size="9.00">/Users/syc/Documents/C3_C4_mapping/inputs/narr_air.2m_monthly/air.2m_monthly_2000_2010_mean.1.nc</text>
</g>
<!-- /Users/syc/Documents/C3_C4_mapping/inputs/narr_air.2m_monthly/air.2m_monthly_2000_2010_mean.1.nc&#45;&gt;prepare_step -->
<g id="edge18" class="edge"><title>/Users/syc/Documents/C3_C4_mapping/inputs/narr_air.2m_monthly/air.2m_monthly_2000_2010_mean.1.nc&#45;&gt;prepare_step</title>
<path fill="none" stroke="black" d="M412.668,-185.994C471.883,-181.961 543.395,-188.428 590.708,-231 655.406,-289.214 677.203,-570.971 682.61,-661.752"/>
<polygon fill="black" stroke="black" points="679.122,-662.065 683.19,-671.848 686.111,-661.664 679.122,-662.065"/>
</g>
<!-- /Users/syc/Documents/C3_C4_mapping/inputs/narr_air.2m_monthly/air.2m_monthly_2000_2010_mean.6.nc -->
<g id="node31" class="node"><title>/Users/syc/Documents/C3_C4_mapping/inputs/narr_air.2m_monthly/air.2m_monthly_2000_2010_mean.6.nc</title>
<path fill="#ffe4b5" stroke="black" d="M562.668,-168C562.668,-168 52.0404,-168 52.0404,-168 46.0404,-168 40.0404,-162 40.0404,-156 40.0404,-156 40.0404,-144 40.0404,-144 40.0404,-138 46.0404,-132 52.0404,-132 52.0404,-132 562.668,-132 562.668,-132 568.668,-132 574.668,-138 574.668,-144 574.668,-144 574.668,-156 574.668,-156 574.668,-162 568.668,-168 562.668,-168"/>
<text text-anchor="middle" x="307.354" y="-147.3" font-family="Courier,monospace" font-weight="bold" font-size="9.00">/Users/syc/Documents/C3_C4_mapping/inputs/narr_air.2m_monthly/air.2m_monthly_2000_2010_mean.6.nc</text>
</g>
<!-- /Users/syc/Documents/C3_C4_mapping/inputs/narr_air.2m_monthly/air.2m_monthly_2000_2010_mean.6.nc&#45;&gt;prepare_step -->
<g id="edge21" class="edge"><title>/Users/syc/Documents/C3_C4_mapping/inputs/narr_air.2m_monthly/air.2m_monthly_2000_2010_mean.6.nc&#45;&gt;prepare_step</title>
<path fill="none" stroke="black" d="M408.201,-131.997C468.429,-127.156 542.568,-132.775 590.708,-177 662.837,-243.261 679.756,-564.031 683.264,-661.713"/>
<polygon fill="black" stroke="black" points="679.767,-661.857 683.605,-671.733 686.763,-661.62 679.767,-661.857"/>
</g>
<!-- /Users/syc/Documents/C3_C4_mapping/inputs/narr_apcp_rescaled_monthly/apcp_monthly_2000_2010_mean.2.nc -->
<g id="node32" class="node"><title>/Users/syc/Documents/C3_C4_mapping/inputs/narr_apcp_rescaled_monthly/apcp_monthly_2000_2010_mean.2.nc</title>
<path fill="#ffe4b5" stroke="black" d="M576.163,-114C576.163,-114 38.5449,-114 38.5449,-114 32.5449,-114 26.5449,-108 26.5449,-102 26.5449,-102 26.5449,-90 26.5449,-90 26.5449,-84 32.5449,-78 38.5449,-78 38.5449,-78 576.163,-78 576.163,-78 582.163,-78 588.163,-84 588.163,-90 588.163,-90 588.163,-102 588.163,-102 588.163,-108 582.163,-114 576.163,-114"/>
<text text-anchor="middle" x="307.354" y="-93.3" font-family="Courier,monospace" font-weight="bold" font-size="9.00">/Users/syc/Documents/C3_C4_mapping/inputs/narr_apcp_rescaled_monthly/apcp_monthly_2000_2010_mean.2.nc</text>
</g>
<!-- /Users/syc/Documents/C3_C4_mapping/inputs/narr_apcp_rescaled_monthly/apcp_monthly_2000_2010_mean.2.nc&#45;&gt;prepare_step -->
<g id="edge20" class="edge"><title>/Users/syc/Documents/C3_C4_mapping/inputs/narr_apcp_rescaled_monthly/apcp_monthly_2000_2010_mean.2.nc&#45;&gt;prepare_step</title>
<path fill="none" stroke="black" d="M405.405,-77.9764C466.268,-72.589 542.132,-77.6155 590.708,-123 670.355,-197.414 682.077,-557.908 683.802,-661.879"/>
<polygon fill="black" stroke="black" points="680.303,-661.982 683.95,-671.929 687.302,-661.879 680.303,-661.982"/>
</g>
<!-- /Users/syc/Documents/C3_C4_mapping/workspace/Tair_2000_2010.mat&#45;&gt;examine_pixels_for_grass_threshold_2_5 -->
<g id="edge23" class="edge"><title>/Users/syc/Documents/C3_C4_mapping/workspace/Tair_2000_2010.mat&#45;&gt;examine_pixels_for_grass_threshold_2_5</title>
<path fill="none" stroke="black" d="M1101.35,-698.981C1142.97,-693.629 1188.71,-687.745 1230.94,-682.314"/>
<polygon fill="black" stroke="black" points="1231.55,-685.764 1241.02,-681.017 1230.66,-678.821 1231.55,-685.764"/>
</g>
<!-- /Users/syc/Documents/C3_C4_mapping/workspace/land_cover_map_2000_2010.mat&#45;&gt;generate_final_results_threshold_2_5 -->
<g id="edge22" class="edge"><title>/Users/syc/Documents/C3_C4_mapping/workspace/land_cover_map_2000_2010.mat&#45;&gt;generate_final_results_threshold_2_5</title>
<path fill="none" stroke="black" d="M1587.41,-755.973C1700.38,-755.255 1842.89,-749.552 1968.51,-730 2013.58,-722.986 2063.1,-709.114 2100.85,-697.187"/>
<polygon fill="black" stroke="black" points="2102.22,-700.423 2110.67,-694.042 2100.08,-693.757 2102.22,-700.423"/>
</g>
<!-- /Users/syc/Documents/C3_C4_mapping/inputs/narr_apcp_rescaled_monthly/apcp_monthly_2000_2010_mean.10.nc -->
<g id="node35" class="node"><title>/Users/syc/Documents/C3_C4_mapping/inputs/narr_apcp_rescaled_monthly/apcp_monthly_2000_2010_mean.10.nc</title>
<path fill="#ffe4b5" stroke="black" d="M578.562,-60C578.562,-60 36.1458,-60 36.1458,-60 30.1458,-60 24.1458,-54 24.1458,-48 24.1458,-48 24.1458,-36 24.1458,-36 24.1458,-30 30.1458,-24 36.1458,-24 36.1458,-24 578.562,-24 578.562,-24 584.562,-24 590.562,-30 590.562,-36 590.562,-36 590.562,-48 590.562,-48 590.562,-54 584.562,-60 578.562,-60"/>
<text text-anchor="middle" x="307.354" y="-39.3" font-family="Courier,monospace" font-weight="bold" font-size="9.00">/Users/syc/Documents/C3_C4_mapping/inputs/narr_apcp_rescaled_monthly/apcp_monthly_2000_2010_mean.10.nc</text>
</g>
<!-- /Users/syc/Documents/C3_C4_mapping/inputs/narr_apcp_rescaled_monthly/apcp_monthly_2000_2010_mean.10.nc&#45;&gt;prepare_step -->
<g id="edge19" class="edge"><title>/Users/syc/Documents/C3_C4_mapping/inputs/narr_apcp_rescaled_monthly/apcp_monthly_2000_2010_mean.10.nc&#45;&gt;prepare_step</title>
<path fill="none" stroke="black" d="M403.256,-23.968C464.597,-18.1462 541.825,-22.6844 590.708,-69 677.832,-151.547 684.175,-551.435 684.244,-661.76"/>
<polygon fill="black" stroke="black" points="680.744,-661.791 684.232,-671.795 687.744,-661.799 680.744,-661.791"/>
</g>
</g>
</svg>
