<?xml version="1.0" encoding="UTF-8" standalone="no"?>
<!DOCTYPE svg PUBLIC "-//W3C//DTD SVG 1.1//EN"
 "http://www.w3.org/Graphics/SVG/1.1/DTD/svg11.dtd">
<!-- Generated by graphviz version 2.38.0 (20140413.2041)
 -->
<!-- Title: yw_data_view Pages: 1 -->
<svg width="5164pt" height="344pt"
 viewBox="0.00 0.00 5163.84 343.60" xmlns="http://www.w3.org/2000/svg" xmlns:xlink="http://www.w3.org/1999/xlink">
<g id="graph0" class="graph" transform="scale(1 1) rotate(0) translate(4 339.6)">
<title>yw_data_view</title>
<polygon fill="white" stroke="none" points="-4,4 -4,-339.6 5159.84,-339.6 5159.84,4 -4,4"/>
<text text-anchor="middle" x="2577.92" y="-315.4" font-family="Courier,monospace" font-size="18.00">Upstream graph for multiple runs</text>
<g id="clust1" class="cluster"><title>cluster_workflow</title>
<polygon fill="none" stroke="black" stroke-width="2" points="8,-8 8,-298 5147.84,-298 5147.84,-8 8,-8"/>
</g>
<g id="clust2" class="cluster"><title>cluster_workflow_inner</title>
<polygon fill="none" stroke="white" stroke-width="2" points="16,-16 16,-290 5139.84,-290 5139.84,-16 16,-16"/>
</g>
<!-- urn:uuid:4fcd5da4&#45;67af&#45;4f8d&#45;ad36&#45;c9cdf45621d4 -->
<g id="node1" class="node"><title>urn:uuid:4fcd5da4&#45;67af&#45;4f8d&#45;ad36&#45;c9cdf45621d4</title>
<polygon fill="black" stroke="black" points="3339.51,-132.2 3339.51,-173.8 3741.84,-173.8 3741.84,-132.2 3339.51,-132.2"/>
<text text-anchor="middle" x="3540.68" y="-157.2" font-family="Courier,monospace" font-weight="bold" font-size="14.00" fill="white">ohibc run 1 </text>
<text text-anchor="middle" x="3540.68" y="-140.4" font-family="Courier,monospace" font-weight="bold" font-size="14.00" fill="white"> urn:uuid:4fcd5da4&#45;67af&#45;4f8d&#45;ad36&#45;c9cdf45621d4</text>
</g>
<!-- 9c23639cf9ce610831cc57a78e88bd8ff8b67a46253aff39154b57b58ab60832 -->
<g id="node9" class="node"><title>9c23639cf9ce610831cc57a78e88bd8ff8b67a46253aff39154b57b58ab60832</title>
<path fill="#ffe4b5" stroke="black" d="M3789.84,-135C3789.84,-135 4235.37,-135 4235.37,-135 4241.37,-135 4247.37,-141 4247.37,-147 4247.37,-147 4247.37,-159 4247.37,-159 4247.37,-165 4241.37,-171 4235.37,-171 4235.37,-171 3789.84,-171 3789.84,-171 3783.84,-171 3777.84,-165 3777.84,-159 3777.84,-159 3777.84,-147 3777.84,-147 3777.84,-141 3783.84,-135 3789.84,-135"/>
<text text-anchor="middle" x="4012.61" y="-155.9" font-family="Courier,monospace" font-weight="bold" font-size="9.00">/Users/slaughter/git/OHI&#45;Science/ohibc/prep/lsp/vHS/output/area_protected_total.csv </text>
<text text-anchor="middle" x="4012.61" y="-145.1" font-family="Courier,monospace" font-weight="bold" font-size="9.00"> 9c23639cf9ce610831cc57a78e88bd8ff8b67a46253aff39154b57b58ab60832</text>
</g>
<!-- urn:uuid:4fcd5da4&#45;67af&#45;4f8d&#45;ad36&#45;c9cdf45621d4&#45;&gt;9c23639cf9ce610831cc57a78e88bd8ff8b67a46253aff39154b57b58ab60832 -->
<g id="edge17" class="edge"><title>urn:uuid:4fcd5da4&#45;67af&#45;4f8d&#45;ad36&#45;c9cdf45621d4&#45;&gt;9c23639cf9ce610831cc57a78e88bd8ff8b67a46253aff39154b57b58ab60832</title>
<path fill="none" stroke="black" d="M3741.99,-153C3750.51,-153 3759.1,-153 3767.7,-153"/>
<polygon fill="black" stroke="black" points="3767.8,-156.5 3777.8,-153 3767.8,-149.5 3767.8,-156.5"/>
</g>
<!-- urn:uuid:53c74750&#45;d660&#45;479d&#45;8e59&#45;f54068835317 -->
<g id="node2" class="node"><title>urn:uuid:53c74750&#45;d660&#45;479d&#45;8e59&#45;f54068835317</title>
<polygon fill="black" stroke="black" points="2422.64,-132.2 2422.64,-173.8 2824.98,-173.8 2824.98,-132.2 2422.64,-132.2"/>
<text text-anchor="middle" x="2623.81" y="-157.2" font-family="Courier,monospace" font-weight="bold" font-size="14.00" fill="white">ohibc run 1 </text>
<text text-anchor="middle" x="2623.81" y="-140.4" font-family="Courier,monospace" font-weight="bold" font-size="14.00" fill="white"> urn:uuid:53c74750&#45;d660&#45;479d&#45;8e59&#45;f54068835317</text>
</g>
<!-- b2cba129ff4ce7c9e83c13b36dc3ff95ce18b4cb4784758b3e94478d4e999b09 -->
<g id="node16" class="node"><title>b2cba129ff4ce7c9e83c13b36dc3ff95ce18b4cb4784758b3e94478d4e999b09</title>
<path fill="#ffe4b5" stroke="black" d="M2872.98,-80C2872.98,-80 3291.51,-80 3291.51,-80 3297.51,-80 3303.51,-86 3303.51,-92 3303.51,-92 3303.51,-104 3303.51,-104 3303.51,-110 3297.51,-116 3291.51,-116 3291.51,-116 2872.98,-116 2872.98,-116 2866.98,-116 2860.98,-110 2860.98,-104 2860.98,-104 2860.98,-92 2860.98,-92 2860.98,-86 2866.98,-80 2872.98,-80"/>
<text text-anchor="middle" x="3082.24" y="-100.9" font-family="Courier,monospace" font-weight="bold" font-size="9.00">/Users/slaughter/git/OHI&#45;Science/ohibc/prep/lsp/vHS/int/area_protected_3nm.csv </text>
<text text-anchor="middle" x="3082.24" y="-90.1" font-family="Courier,monospace" font-weight="bold" font-size="9.00"> b2cba129ff4ce7c9e83c13b36dc3ff95ce18b4cb4784758b3e94478d4e999b09</text>
</g>
<!-- urn:uuid:53c74750&#45;d660&#45;479d&#45;8e59&#45;f54068835317&#45;&gt;b2cba129ff4ce7c9e83c13b36dc3ff95ce18b4cb4784758b3e94478d4e999b09 -->
<g id="edge24" class="edge"><title>urn:uuid:53c74750&#45;d660&#45;479d&#45;8e59&#45;f54068835317&#45;&gt;b2cba129ff4ce7c9e83c13b36dc3ff95ce18b4cb4784758b3e94478d4e999b09</title>
<path fill="none" stroke="black" d="M2797.69,-132.168C2838.4,-127.263 2881.61,-122.056 2921.69,-117.226"/>
<polygon fill="black" stroke="black" points="2922.31,-120.677 2931.82,-116.006 2921.47,-113.728 2922.31,-120.677"/>
</g>
<!-- d792e5fe1c3c98a24dde23e00895f627ab2c0a102f5852dcc4f02e2ba9dba1eb -->
<g id="node17" class="node"><title>d792e5fe1c3c98a24dde23e00895f627ab2c0a102f5852dcc4f02e2ba9dba1eb</title>
<path fill="#ffe4b5" stroke="black" d="M2872.98,-135C2872.98,-135 3291.51,-135 3291.51,-135 3297.51,-135 3303.51,-141 3303.51,-147 3303.51,-147 3303.51,-159 3303.51,-159 3303.51,-165 3297.51,-171 3291.51,-171 3291.51,-171 2872.98,-171 2872.98,-171 2866.98,-171 2860.98,-165 2860.98,-159 2860.98,-159 2860.98,-147 2860.98,-147 2860.98,-141 2866.98,-135 2872.98,-135"/>
<text text-anchor="middle" x="3082.24" y="-155.9" font-family="Courier,monospace" font-weight="bold" font-size="9.00">/Users/slaughter/git/OHI&#45;Science/ohibc/prep/lsp/vHS/int/area_protected_1km.csv </text>
<text text-anchor="middle" x="3082.24" y="-145.1" font-family="Courier,monospace" font-weight="bold" font-size="9.00"> d792e5fe1c3c98a24dde23e00895f627ab2c0a102f5852dcc4f02e2ba9dba1eb</text>
</g>
<!-- urn:uuid:53c74750&#45;d660&#45;479d&#45;8e59&#45;f54068835317&#45;&gt;d792e5fe1c3c98a24dde23e00895f627ab2c0a102f5852dcc4f02e2ba9dba1eb -->
<g id="edge25" class="edge"><title>urn:uuid:53c74750&#45;d660&#45;479d&#45;8e59&#45;f54068835317&#45;&gt;d792e5fe1c3c98a24dde23e00895f627ab2c0a102f5852dcc4f02e2ba9dba1eb</title>
<path fill="none" stroke="black" d="M2825.01,-153C2833.53,-153 2842.11,-153 2850.69,-153"/>
<polygon fill="black" stroke="black" points="2850.76,-156.5 2860.76,-153 2850.76,-149.5 2850.76,-156.5"/>
</g>
<!-- bc918e73e8ffd7509cfd2f5173f4d13b17e620340a6ddae47c56f3b7697be7b1 -->
<g id="node19" class="node"><title>bc918e73e8ffd7509cfd2f5173f4d13b17e620340a6ddae47c56f3b7697be7b1</title>
<path fill="#ffe4b5" stroke="black" d="M2875.68,-190C2875.68,-190 3288.81,-190 3288.81,-190 3294.81,-190 3300.81,-196 3300.81,-202 3300.81,-202 3300.81,-214 3300.81,-214 3300.81,-220 3294.81,-226 3288.81,-226 3288.81,-226 2875.68,-226 2875.68,-226 2869.68,-226 2863.68,-220 2863.68,-214 2863.68,-214 2863.68,-202 2863.68,-202 2863.68,-196 2869.68,-190 2875.68,-190"/>
<text text-anchor="middle" x="3082.24" y="-210.9" font-family="Courier,monospace" font-weight="bold" font-size="9.00">/Users/slaughter/git/OHI&#45;Science/ohibc/prep/lsp/vHS/int/area_protected_ws.csv </text>
<text text-anchor="middle" x="3082.24" y="-200.1" font-family="Courier,monospace" font-weight="bold" font-size="9.00"> bc918e73e8ffd7509cfd2f5173f4d13b17e620340a6ddae47c56f3b7697be7b1</text>
</g>
<!-- urn:uuid:53c74750&#45;d660&#45;479d&#45;8e59&#45;f54068835317&#45;&gt;bc918e73e8ffd7509cfd2f5173f4d13b17e620340a6ddae47c56f3b7697be7b1 -->
<g id="edge26" class="edge"><title>urn:uuid:53c74750&#45;d660&#45;479d&#45;8e59&#45;f54068835317&#45;&gt;bc918e73e8ffd7509cfd2f5173f4d13b17e620340a6ddae47c56f3b7697be7b1</title>
<path fill="none" stroke="black" d="M2797.69,-173.832C2838.4,-178.737 2881.61,-183.944 2921.69,-188.774"/>
<polygon fill="black" stroke="black" points="2921.47,-192.272 2931.82,-189.994 2922.31,-185.323 2921.47,-192.272"/>
</g>
<!-- urn:uuid:f5d6b763&#45;c953&#45;48f4&#45;9a39&#45;4a61f45bfdd3 -->
<g id="node3" class="node"><title>urn:uuid:f5d6b763&#45;c953&#45;48f4&#45;9a39&#45;4a61f45bfdd3</title>
<polygon fill="black" stroke="black" points="1521.98,-132.2 1521.98,-173.8 1924.31,-173.8 1924.31,-132.2 1521.98,-132.2"/>
<text text-anchor="middle" x="1723.14" y="-157.2" font-family="Courier,monospace" font-weight="bold" font-size="14.00" fill="white">ohibc run 1 </text>
<text text-anchor="middle" x="1723.14" y="-140.4" font-family="Courier,monospace" font-weight="bold" font-size="14.00" fill="white"> urn:uuid:f5d6b763&#45;c953&#45;48f4&#45;9a39&#45;4a61f45bfdd3</text>
</g>
<!-- 1a8556ac0c8124864b109286a0d419b9213d0084cc831c813a5905e887c291a1 -->
<g id="node10" class="node"><title>1a8556ac0c8124864b109286a0d419b9213d0084cc831c813a5905e887c291a1</title>
<path fill="#ffe4b5" stroke="black" d="M1972.31,-80C1972.31,-80 2374.64,-80 2374.64,-80 2380.64,-80 2386.64,-86 2386.64,-92 2386.64,-92 2386.64,-104 2386.64,-104 2386.64,-110 2380.64,-116 2374.64,-116 2374.64,-116 1972.31,-116 1972.31,-116 1966.31,-116 1960.31,-110 1960.31,-104 1960.31,-104 1960.31,-92 1960.31,-92 1960.31,-86 1966.31,-80 1972.31,-80"/>
<text text-anchor="middle" x="2173.48" y="-100.9" font-family="Courier,monospace" font-weight="bold" font-size="9.00">/Users/slaughter/git/OHI&#45;Science/ohibc/prep/lsp/vHS/int/zonal_stats_1km.csv </text>
<text text-anchor="middle" x="2173.48" y="-90.1" font-family="Courier,monospace" font-weight="bold" font-size="9.00"> 1a8556ac0c8124864b109286a0d419b9213d0084cc831c813a5905e887c291a1</text>
</g>
<!-- urn:uuid:f5d6b763&#45;c953&#45;48f4&#45;9a39&#45;4a61f45bfdd3&#45;&gt;1a8556ac0c8124864b109286a0d419b9213d0084cc831c813a5905e887c291a1 -->
<g id="edge18" class="edge"><title>urn:uuid:f5d6b763&#45;c953&#45;48f4&#45;9a39&#45;4a61f45bfdd3&#45;&gt;1a8556ac0c8124864b109286a0d419b9213d0084cc831c813a5905e887c291a1</title>
<path fill="none" stroke="black" d="M1893.96,-132.168C1933.94,-127.263 1976.38,-122.056 2015.76,-117.226"/>
<polygon fill="black" stroke="black" points="2016.2,-120.698 2025.7,-116.006 2015.35,-113.75 2016.2,-120.698"/>
</g>
<!-- cf404cbfa31cc0f7f4a397632797d8aa416eb621a214569945c833594b16b3c3 -->
<g id="node12" class="node"><title>cf404cbfa31cc0f7f4a397632797d8aa416eb621a214569945c833594b16b3c3</title>
<path fill="#ffe4b5" stroke="black" d="M1975.01,-135C1975.01,-135 2371.94,-135 2371.94,-135 2377.94,-135 2383.94,-141 2383.94,-147 2383.94,-147 2383.94,-159 2383.94,-159 2383.94,-165 2377.94,-171 2371.94,-171 2371.94,-171 1975.01,-171 1975.01,-171 1969.01,-171 1963.01,-165 1963.01,-159 1963.01,-159 1963.01,-147 1963.01,-147 1963.01,-141 1969.01,-135 1975.01,-135"/>
<text text-anchor="middle" x="2173.48" y="-155.9" font-family="Courier,monospace" font-weight="bold" font-size="9.00">/Users/slaughter/git/OHI&#45;Science/ohibc/prep/lsp/vHS/int/zonal_stats_ws.csv </text>
<text text-anchor="middle" x="2173.48" y="-145.1" font-family="Courier,monospace" font-weight="bold" font-size="9.00"> cf404cbfa31cc0f7f4a397632797d8aa416eb621a214569945c833594b16b3c3</text>
</g>
<!-- urn:uuid:f5d6b763&#45;c953&#45;48f4&#45;9a39&#45;4a61f45bfdd3&#45;&gt;cf404cbfa31cc0f7f4a397632797d8aa416eb621a214569945c833594b16b3c3 -->
<g id="edge20" class="edge"><title>urn:uuid:f5d6b763&#45;c953&#45;48f4&#45;9a39&#45;4a61f45bfdd3&#45;&gt;cf404cbfa31cc0f7f4a397632797d8aa416eb621a214569945c833594b16b3c3</title>
<path fill="none" stroke="black" d="M1924.38,-153C1933.72,-153 1943.11,-153 1952.5,-153"/>
<polygon fill="black" stroke="black" points="1952.68,-156.5 1962.68,-153 1952.68,-149.5 1952.68,-156.5"/>
</g>
<!-- e4f5dd01c6b2e03bbe67419aa6ea9c20d938478e5523a2b6dc057413f6db2bf5 -->
<g id="node21" class="node"><title>e4f5dd01c6b2e03bbe67419aa6ea9c20d938478e5523a2b6dc057413f6db2bf5</title>
<path fill="#ffe4b5" stroke="black" d="M1972.31,-190C1972.31,-190 2374.64,-190 2374.64,-190 2380.64,-190 2386.64,-196 2386.64,-202 2386.64,-202 2386.64,-214 2386.64,-214 2386.64,-220 2380.64,-226 2374.64,-226 2374.64,-226 1972.31,-226 1972.31,-226 1966.31,-226 1960.31,-220 1960.31,-214 1960.31,-214 1960.31,-202 1960.31,-202 1960.31,-196 1966.31,-190 1972.31,-190"/>
<text text-anchor="middle" x="2173.48" y="-210.9" font-family="Courier,monospace" font-weight="bold" font-size="9.00">/Users/slaughter/git/OHI&#45;Science/ohibc/prep/lsp/vHS/int/zonal_stats_3nm.csv </text>
<text text-anchor="middle" x="2173.48" y="-200.1" font-family="Courier,monospace" font-weight="bold" font-size="9.00"> e4f5dd01c6b2e03bbe67419aa6ea9c20d938478e5523a2b6dc057413f6db2bf5</text>
</g>
<!-- urn:uuid:f5d6b763&#45;c953&#45;48f4&#45;9a39&#45;4a61f45bfdd3&#45;&gt;e4f5dd01c6b2e03bbe67419aa6ea9c20d938478e5523a2b6dc057413f6db2bf5 -->
<g id="edge28" class="edge"><title>urn:uuid:f5d6b763&#45;c953&#45;48f4&#45;9a39&#45;4a61f45bfdd3&#45;&gt;e4f5dd01c6b2e03bbe67419aa6ea9c20d938478e5523a2b6dc057413f6db2bf5</title>
<path fill="none" stroke="black" d="M1893.96,-173.832C1933.94,-178.737 1976.38,-183.944 2015.76,-188.774"/>
<polygon fill="black" stroke="black" points="2015.35,-192.25 2025.7,-189.994 2016.2,-185.302 2015.35,-192.25"/>
</g>
<!-- urn:uuid:167b320e&#45;9143&#45;4084&#45;882e&#45;7d19914767c0 -->
<g id="node4" class="node"><title>urn:uuid:167b320e&#45;9143&#45;4084&#45;882e&#45;7d19914767c0</title>
<polygon fill="black" stroke="black" points="534.924,-35.2 534.924,-76.8 937.259,-76.8 937.259,-35.2 534.924,-35.2"/>
<text text-anchor="middle" x="736.091" y="-60.2" font-family="Courier,monospace" font-weight="bold" font-size="14.00" fill="white">ohibc run 1 </text>
<text text-anchor="middle" x="736.091" y="-43.4" font-family="Courier,monospace" font-weight="bold" font-size="14.00" fill="white"> urn:uuid:167b320e&#45;9143&#45;4084&#45;882e&#45;7d19914767c0</text>
</g>
<!-- 98c477e500188e52b2399aec3cc8d1cecefa6315c5ed6bf6f36f8252e7c6103c -->
<g id="node13" class="node"><title>98c477e500188e52b2399aec3cc8d1cecefa6315c5ed6bf6f36f8252e7c6103c</title>
<path fill="#ffe4b5" stroke="black" d="M990.658,-25C990.658,-25 1468.58,-25 1468.58,-25 1474.58,-25 1480.58,-31 1480.58,-37 1480.58,-37 1480.58,-49 1480.58,-49 1480.58,-55 1474.58,-61 1468.58,-61 1468.58,-61 990.658,-61 990.658,-61 984.658,-61 978.658,-55 978.658,-49 978.658,-49 978.658,-37 978.658,-37 978.658,-31 984.658,-25 990.658,-25"/>
<text text-anchor="middle" x="1229.62" y="-45.9" font-family="Courier,monospace" font-weight="bold" font-size="9.00">/Users/slaughter/git/OHI&#45;Science/ohibc/prep/lsp/vHS/spatial/howe_sound_watershed_500m.tif </text>
<text text-anchor="middle" x="1229.62" y="-35.1" font-family="Courier,monospace" font-weight="bold" font-size="9.00"> 98c477e500188e52b2399aec3cc8d1cecefa6315c5ed6bf6f36f8252e7c6103c</text>
</g>
<!-- urn:uuid:167b320e&#45;9143&#45;4084&#45;882e&#45;7d19914767c0&#45;&gt;98c477e500188e52b2399aec3cc8d1cecefa6315c5ed6bf6f36f8252e7c6103c -->
<g id="edge21" class="edge"><title>urn:uuid:167b320e&#45;9143&#45;4084&#45;882e&#45;7d19914767c0&#45;&gt;98c477e500188e52b2399aec3cc8d1cecefa6315c5ed6bf6f36f8252e7c6103c</title>
<path fill="none" stroke="black" d="M937.368,-50.703C947.528,-50.4343 957.796,-50.1628 968.098,-49.8903"/>
<polygon fill="black" stroke="black" points="968.505,-53.3808 978.409,-49.6176 968.32,-46.3833 968.505,-53.3808"/>
</g>
<!-- urn:uuid:3d6c8ed0&#45;83c0&#45;4b12&#45;9154&#45;2804f4317598 -->
<g id="node5" class="node"><title>urn:uuid:3d6c8ed0&#45;83c0&#45;4b12&#45;9154&#45;2804f4317598</title>
<polygon fill="black" stroke="black" points="534.924,-116.2 534.924,-157.8 937.259,-157.8 937.259,-116.2 534.924,-116.2"/>
<text text-anchor="middle" x="736.091" y="-141.2" font-family="Courier,monospace" font-weight="bold" font-size="14.00" fill="white">ohibc run 1 </text>
<text text-anchor="middle" x="736.091" y="-124.4" font-family="Courier,monospace" font-weight="bold" font-size="14.00" fill="white"> urn:uuid:3d6c8ed0&#45;83c0&#45;4b12&#45;9154&#45;2804f4317598</text>
</g>
<!-- 5ba2c041bacec6ae9b550d578fb0667523ab9d610f043b13832a0ae6e2c84e10 -->
<g id="node8" class="node"><title>5ba2c041bacec6ae9b550d578fb0667523ab9d610f043b13832a0ae6e2c84e10</title>
<path fill="#ffe4b5" stroke="black" d="M985.259,-80C985.259,-80 1473.98,-80 1473.98,-80 1479.98,-80 1485.98,-86 1485.98,-92 1485.98,-92 1485.98,-104 1485.98,-104 1485.98,-110 1479.98,-116 1473.98,-116 1473.98,-116 985.259,-116 985.259,-116 979.259,-116 973.259,-110 973.259,-104 973.259,-104 973.259,-92 973.259,-92 973.259,-86 979.259,-80 985.259,-80"/>
<text text-anchor="middle" x="1229.62" y="-100.9" font-family="Courier,monospace" font-weight="bold" font-size="9.00">/Users/slaughter/git/OHI&#45;Science/ohibc/prep/lsp/vHS/spatial/hs_offshore_3nm_raster_500m.tif </text>
<text text-anchor="middle" x="1229.62" y="-90.1" font-family="Courier,monospace" font-weight="bold" font-size="9.00"> 5ba2c041bacec6ae9b550d578fb0667523ab9d610f043b13832a0ae6e2c84e10</text>
</g>
<!-- urn:uuid:3d6c8ed0&#45;83c0&#45;4b12&#45;9154&#45;2804f4317598&#45;&gt;5ba2c041bacec6ae9b550d578fb0667523ab9d610f043b13832a0ae6e2c84e10 -->
<g id="edge16" class="edge"><title>urn:uuid:3d6c8ed0&#45;83c0&#45;4b12&#45;9154&#45;2804f4317598&#45;&gt;5ba2c041bacec6ae9b550d578fb0667523ab9d610f043b13832a0ae6e2c84e10</title>
<path fill="none" stroke="black" d="M937.368,-121.109C955.186,-119.695 973.333,-118.255 991.419,-116.82"/>
<polygon fill="black" stroke="black" points="991.766,-120.304 1001.46,-116.024 991.212,-113.326 991.766,-120.304"/>
</g>
<!-- 85130403e425f79e80e52e3fcaa9c116f5cc0b01c4aa7ea4078c21c08d6ac2fd -->
<g id="node11" class="node"><title>85130403e425f79e80e52e3fcaa9c116f5cc0b01c4aa7ea4078c21c08d6ac2fd</title>
<path fill="#ffe4b5" stroke="black" d="M990.658,-135C990.658,-135 1468.58,-135 1468.58,-135 1474.58,-135 1480.58,-141 1480.58,-147 1480.58,-147 1480.58,-159 1480.58,-159 1480.58,-165 1474.58,-171 1468.58,-171 1468.58,-171 990.658,-171 990.658,-171 984.658,-171 978.658,-165 978.658,-159 978.658,-159 978.658,-147 978.658,-147 978.658,-141 984.658,-135 990.658,-135"/>
<text text-anchor="middle" x="1229.62" y="-155.9" font-family="Courier,monospace" font-weight="bold" font-size="9.00">/Users/slaughter/git/OHI&#45;Science/ohibc/prep/lsp/vHS/spatial/hs_inland_1km_raster_500m.tif </text>
<text text-anchor="middle" x="1229.62" y="-145.1" font-family="Courier,monospace" font-weight="bold" font-size="9.00"> 85130403e425f79e80e52e3fcaa9c116f5cc0b01c4aa7ea4078c21c08d6ac2fd</text>
</g>
<!-- urn:uuid:3d6c8ed0&#45;83c0&#45;4b12&#45;9154&#45;2804f4317598&#45;&gt;85130403e425f79e80e52e3fcaa9c116f5cc0b01c4aa7ea4078c21c08d6ac2fd -->
<g id="edge19" class="edge"><title>urn:uuid:3d6c8ed0&#45;83c0&#45;4b12&#45;9154&#45;2804f4317598&#45;&gt;85130403e425f79e80e52e3fcaa9c116f5cc0b01c4aa7ea4078c21c08d6ac2fd</title>
<path fill="none" stroke="black" d="M937.368,-143.519C947.528,-143.85 957.796,-144.184 968.098,-144.52"/>
<polygon fill="black" stroke="black" points="968.3,-148.028 978.409,-144.855 968.528,-141.032 968.3,-148.028"/>
</g>
<!-- urn:uuid:98b5270a&#45;1577&#45;4865&#45;970f&#45;17c6b0065374 -->
<g id="node6" class="node"><title>urn:uuid:98b5270a&#45;1577&#45;4865&#45;970f&#45;17c6b0065374</title>
<polygon fill="black" stroke="black" points="534.924,-187.2 534.924,-228.8 937.259,-228.8 937.259,-187.2 534.924,-187.2"/>
<text text-anchor="middle" x="736.091" y="-212.2" font-family="Courier,monospace" font-weight="bold" font-size="14.00" fill="white">ohibc run 1 </text>
<text text-anchor="middle" x="736.091" y="-195.4" font-family="Courier,monospace" font-weight="bold" font-size="14.00" fill="white"> urn:uuid:98b5270a&#45;1577&#45;4865&#45;970f&#45;17c6b0065374</text>
</g>
<!-- 93cca45a93cbf195aac755354840087590d4788e06768d7db90481ef9b5d9bc3 -->
<g id="node14" class="node"><title>93cca45a93cbf195aac755354840087590d4788e06768d7db90481ef9b5d9bc3</title>
<path fill="#ffe4b5" stroke="black" d="M1014.95,-190C1014.95,-190 1444.28,-190 1444.28,-190 1450.28,-190 1456.28,-196 1456.28,-202 1456.28,-202 1456.28,-214 1456.28,-214 1456.28,-220 1450.28,-226 1444.28,-226 1444.28,-226 1014.95,-226 1014.95,-226 1008.95,-226 1002.95,-220 1002.95,-214 1002.95,-214 1002.95,-202 1002.95,-202 1002.95,-196 1008.95,-190 1014.95,-190"/>
<text text-anchor="middle" x="1229.62" y="-210.9" font-family="Courier,monospace" font-weight="bold" font-size="9.00">/Users/slaughter/git/OHI&#45;Science/ohibc/prep/lsp/vHS/spatial/hs_pep_rast_500m.tif </text>
<text text-anchor="middle" x="1229.62" y="-200.1" font-family="Courier,monospace" font-weight="bold" font-size="9.00"> 93cca45a93cbf195aac755354840087590d4788e06768d7db90481ef9b5d9bc3</text>
</g>
<!-- urn:uuid:98b5270a&#45;1577&#45;4865&#45;970f&#45;17c6b0065374&#45;&gt;93cca45a93cbf195aac755354840087590d4788e06768d7db90481ef9b5d9bc3 -->
<g id="edge22" class="edge"><title>urn:uuid:98b5270a&#45;1577&#45;4865&#45;970f&#45;17c6b0065374&#45;&gt;93cca45a93cbf195aac755354840087590d4788e06768d7db90481ef9b5d9bc3</title>
<path fill="none" stroke="black" d="M937.368,-208C955.522,-208 974.018,-208 992.443,-208"/>
<polygon fill="black" stroke="black" points="992.669,-211.5 1002.67,-208 992.669,-204.5 992.669,-211.5"/>
</g>
<!-- b03456556a5921cabea227978673e751441b2255f877cb183d4eeb1475105593 -->
<g id="node15" class="node"><title>b03456556a5921cabea227978673e751441b2255f877cb183d4eeb1475105593</title>
<path fill="#ffe4b5" stroke="black" d="M1012.25,-245C1012.25,-245 1446.98,-245 1446.98,-245 1452.98,-245 1458.98,-251 1458.98,-257 1458.98,-257 1458.98,-269 1458.98,-269 1458.98,-275 1452.98,-281 1446.98,-281 1446.98,-281 1012.25,-281 1012.25,-281 1006.25,-281 1000.25,-275 1000.25,-269 1000.25,-269 1000.25,-257 1000.25,-257 1000.25,-251 1006.25,-245 1012.25,-245"/>
<text text-anchor="middle" x="1229.62" y="-265.9" font-family="Courier,monospace" font-weight="bold" font-size="9.00">/Users/slaughter/git/OHI&#45;Science/ohibc/prep/lsp/vHS/spatial/hs_wdpa_rast_500m.tif </text>
<text text-anchor="middle" x="1229.62" y="-255.1" font-family="Courier,monospace" font-weight="bold" font-size="9.00"> b03456556a5921cabea227978673e751441b2255f877cb183d4eeb1475105593</text>
</g>
<!-- urn:uuid:98b5270a&#45;1577&#45;4865&#45;970f&#45;17c6b0065374&#45;&gt;b03456556a5921cabea227978673e751441b2255f877cb183d4eeb1475105593 -->
<g id="edge23" class="edge"><title>urn:uuid:98b5270a&#45;1577&#45;4865&#45;970f&#45;17c6b0065374&#45;&gt;b03456556a5921cabea227978673e751441b2255f877cb183d4eeb1475105593</title>
<path fill="none" stroke="black" d="M910.538,-228.818C931.663,-231.279 952.949,-233.722 973.259,-236 996.622,-238.62 1021.2,-241.306 1045.49,-243.92"/>
<polygon fill="black" stroke="black" points="1045.19,-247.409 1055.51,-244.996 1045.94,-240.449 1045.19,-247.409"/>
</g>
<!-- urn:uuid:53ada2f7&#45;5e25&#45;4845&#45;883e&#45;1049a90c321c -->
<g id="node7" class="node"><title>urn:uuid:53ada2f7&#45;5e25&#45;4845&#45;883e&#45;1049a90c321c</title>
<polygon fill="black" stroke="black" points="4283.37,-132.2 4283.37,-173.8 4685.7,-173.8 4685.7,-132.2 4283.37,-132.2"/>
<text text-anchor="middle" x="4484.54" y="-157.2" font-family="Courier,monospace" font-weight="bold" font-size="14.00" fill="white">ohibc run 1 </text>
<text text-anchor="middle" x="4484.54" y="-140.4" font-family="Courier,monospace" font-weight="bold" font-size="14.00" fill="white"> urn:uuid:53ada2f7&#45;5e25&#45;4845&#45;883e&#45;1049a90c321c</text>
</g>
<!-- 97b9fe2837579bac75e964fe212402ba5ac595bb539bce4f7897be9cdcb55638 -->
<g id="node20" class="node"><title>97b9fe2837579bac75e964fe212402ba5ac595bb539bce4f7897be9cdcb55638</title>
<path fill="#ffe4b5" stroke="black" d="M4733.7,-135C4733.7,-135 5119.84,-135 5119.84,-135 5125.84,-135 5131.84,-141 5131.84,-147 5131.84,-147 5131.84,-159 5131.84,-159 5131.84,-165 5125.84,-171 5119.84,-171 5119.84,-171 4733.7,-171 4733.7,-171 4727.7,-171 4721.7,-165 4721.7,-159 4721.7,-159 4721.7,-147 4721.7,-147 4721.7,-141 4727.7,-135 4733.7,-135"/>
<text text-anchor="middle" x="4926.77" y="-155.9" font-family="Courier,monospace" font-weight="bold" font-size="9.00">/Users/slaughter/git/OHI&#45;Science/ohibc/prep/lsp/vHS/output/lsp_trend.csv </text>
<text text-anchor="middle" x="4926.77" y="-145.1" font-family="Courier,monospace" font-weight="bold" font-size="9.00"> 97b9fe2837579bac75e964fe212402ba5ac595bb539bce4f7897be9cdcb55638</text>
</g>
<!-- urn:uuid:53ada2f7&#45;5e25&#45;4845&#45;883e&#45;1049a90c321c&#45;&gt;97b9fe2837579bac75e964fe212402ba5ac595bb539bce4f7897be9cdcb55638 -->
<g id="edge27" class="edge"><title>urn:uuid:53ada2f7&#45;5e25&#45;4845&#45;883e&#45;1049a90c321c&#45;&gt;97b9fe2837579bac75e964fe212402ba5ac595bb539bce4f7897be9cdcb55638</title>
<path fill="none" stroke="black" d="M4686.01,-153C4694.4,-153 4702.83,-153 4711.24,-153"/>
<polygon fill="black" stroke="black" points="4711.5,-156.5 4721.5,-153 4711.5,-149.5 4711.5,-156.5"/>
</g>
<!-- 5ba2c041bacec6ae9b550d578fb0667523ab9d610f043b13832a0ae6e2c84e10&#45;&gt;urn:uuid:f5d6b763&#45;c953&#45;48f4&#45;9a39&#45;4a61f45bfdd3 -->
<g id="edge11" class="edge"><title>5ba2c041bacec6ae9b550d578fb0667523ab9d610f043b13832a0ae6e2c84e10&#45;&gt;urn:uuid:f5d6b763&#45;c953&#45;48f4&#45;9a39&#45;4a61f45bfdd3</title>
<path fill="none" stroke="black" d="M1403.73,-116.004C1431.25,-118.952 1459.39,-122.019 1485.98,-125 1502.95,-126.904 1520.61,-128.924 1538.29,-130.973"/>
<polygon fill="black" stroke="black" points="1538.36,-134.504 1548.7,-132.182 1539.17,-127.551 1538.36,-134.504"/>
</g>
<!-- 9c23639cf9ce610831cc57a78e88bd8ff8b67a46253aff39154b57b58ab60832&#45;&gt;urn:uuid:53ada2f7&#45;5e25&#45;4845&#45;883e&#45;1049a90c321c -->
<g id="edge12" class="edge"><title>9c23639cf9ce610831cc57a78e88bd8ff8b67a46253aff39154b57b58ab60832&#45;&gt;urn:uuid:53ada2f7&#45;5e25&#45;4845&#45;883e&#45;1049a90c321c</title>
<path fill="none" stroke="black" d="M4247.54,-153C4256.14,-153 4264.74,-153 4273.3,-153"/>
<polygon fill="black" stroke="black" points="4273.32,-156.5 4283.32,-153 4273.32,-149.5 4273.32,-156.5"/>
</g>
<!-- 1a8556ac0c8124864b109286a0d419b9213d0084cc831c813a5905e887c291a1&#45;&gt;urn:uuid:53c74750&#45;d660&#45;479d&#45;8e59&#45;f54068835317 -->
<g id="edge13" class="edge"><title>1a8556ac0c8124864b109286a0d419b9213d0084cc831c813a5905e887c291a1&#45;&gt;urn:uuid:53c74750&#45;d660&#45;479d&#45;8e59&#45;f54068835317</title>
<path fill="none" stroke="black" d="M2321.28,-116.009C2360.21,-120.785 2402.68,-125.995 2443.14,-130.959"/>
<polygon fill="black" stroke="black" points="2442.75,-134.437 2453.11,-132.181 2443.61,-127.489 2442.75,-134.437"/>
</g>
<!-- 85130403e425f79e80e52e3fcaa9c116f5cc0b01c4aa7ea4078c21c08d6ac2fd&#45;&gt;urn:uuid:f5d6b763&#45;c953&#45;48f4&#45;9a39&#45;4a61f45bfdd3 -->
<g id="edge14" class="edge"><title>85130403e425f79e80e52e3fcaa9c116f5cc0b01c4aa7ea4078c21c08d6ac2fd&#45;&gt;urn:uuid:f5d6b763&#45;c953&#45;48f4&#45;9a39&#45;4a61f45bfdd3</title>
<path fill="none" stroke="black" d="M1480.7,-153C1491.02,-153 1501.32,-153 1511.55,-153"/>
<polygon fill="black" stroke="black" points="1511.74,-156.5 1521.74,-153 1511.74,-149.5 1511.74,-156.5"/>
</g>
<!-- cf404cbfa31cc0f7f4a397632797d8aa416eb621a214569945c833594b16b3c3&#45;&gt;urn:uuid:53c74750&#45;d660&#45;479d&#45;8e59&#45;f54068835317 -->
<g id="edge15" class="edge"><title>cf404cbfa31cc0f7f4a397632797d8aa416eb621a214569945c833594b16b3c3&#45;&gt;urn:uuid:53c74750&#45;d660&#45;479d&#45;8e59&#45;f54068835317</title>
<path fill="none" stroke="black" d="M2384.21,-153C2393.58,-153 2402.98,-153 2412.36,-153"/>
<polygon fill="black" stroke="black" points="2412.51,-156.5 2422.51,-153 2412.51,-149.5 2412.51,-156.5"/>
</g>
<!-- 98c477e500188e52b2399aec3cc8d1cecefa6315c5ed6bf6f36f8252e7c6103c&#45;&gt;urn:uuid:f5d6b763&#45;c953&#45;48f4&#45;9a39&#45;4a61f45bfdd3 -->
<g id="edge1" class="edge"><title>98c477e500188e52b2399aec3cc8d1cecefa6315c5ed6bf6f36f8252e7c6103c&#45;&gt;urn:uuid:f5d6b763&#45;c953&#45;48f4&#45;9a39&#45;4a61f45bfdd3</title>
<path fill="none" stroke="black" d="M1439.27,-61.011C1455.15,-63.6157 1470.86,-66.5943 1485.98,-70 1548.25,-84.0334 1616.81,-109.286 1663.94,-128.265"/>
<polygon fill="black" stroke="black" points="1662.79,-131.573 1673.37,-132.092 1665.42,-125.087 1662.79,-131.573"/>
</g>
<!-- 93cca45a93cbf195aac755354840087590d4788e06768d7db90481ef9b5d9bc3&#45;&gt;urn:uuid:f5d6b763&#45;c953&#45;48f4&#45;9a39&#45;4a61f45bfdd3 -->
<g id="edge2" class="edge"><title>93cca45a93cbf195aac755354840087590d4788e06768d7db90481ef9b5d9bc3&#45;&gt;urn:uuid:f5d6b763&#45;c953&#45;48f4&#45;9a39&#45;4a61f45bfdd3</title>
<path fill="none" stroke="black" d="M1403.73,-189.996C1431.25,-187.048 1459.39,-183.981 1485.98,-181 1502.95,-179.096 1520.61,-177.076 1538.29,-175.027"/>
<polygon fill="black" stroke="black" points="1539.17,-178.449 1548.7,-173.818 1538.36,-171.496 1539.17,-178.449"/>
</g>
<!-- b03456556a5921cabea227978673e751441b2255f877cb183d4eeb1475105593&#45;&gt;urn:uuid:f5d6b763&#45;c953&#45;48f4&#45;9a39&#45;4a61f45bfdd3 -->
<g id="edge3" class="edge"><title>b03456556a5921cabea227978673e751441b2255f877cb183d4eeb1475105593&#45;&gt;urn:uuid:f5d6b763&#45;c953&#45;48f4&#45;9a39&#45;4a61f45bfdd3</title>
<path fill="none" stroke="black" d="M1439.27,-244.989C1455.15,-242.384 1470.86,-239.406 1485.98,-236 1548.25,-221.967 1616.81,-196.714 1663.94,-177.735"/>
<polygon fill="black" stroke="black" points="1665.42,-180.913 1673.37,-173.908 1662.79,-174.427 1665.42,-180.913"/>
</g>
<!-- b2cba129ff4ce7c9e83c13b36dc3ff95ce18b4cb4784758b3e94478d4e999b09&#45;&gt;urn:uuid:4fcd5da4&#45;67af&#45;4f8d&#45;ad36&#45;c9cdf45621d4 -->
<g id="edge4" class="edge"><title>b2cba129ff4ce7c9e83c13b36dc3ff95ce18b4cb4784758b3e94478d4e999b09&#45;&gt;urn:uuid:4fcd5da4&#45;67af&#45;4f8d&#45;ad36&#45;c9cdf45621d4</title>
<path fill="none" stroke="black" d="M3232.7,-116.009C3272.33,-120.785 3315.57,-125.995 3356.76,-130.959"/>
<polygon fill="black" stroke="black" points="3356.56,-134.46 3366.9,-132.181 3357.4,-127.51 3356.56,-134.46"/>
</g>
<!-- d792e5fe1c3c98a24dde23e00895f627ab2c0a102f5852dcc4f02e2ba9dba1eb&#45;&gt;urn:uuid:4fcd5da4&#45;67af&#45;4f8d&#45;ad36&#45;c9cdf45621d4 -->
<g id="edge5" class="edge"><title>d792e5fe1c3c98a24dde23e00895f627ab2c0a102f5852dcc4f02e2ba9dba1eb&#45;&gt;urn:uuid:4fcd5da4&#45;67af&#45;4f8d&#45;ad36&#45;c9cdf45621d4</title>
<path fill="none" stroke="black" d="M3303.77,-153C3312.19,-153 3320.63,-153 3329.03,-153"/>
<polygon fill="black" stroke="black" points="3329.26,-156.5 3339.26,-153 3329.26,-149.5 3329.26,-156.5"/>
</g>
<!-- d77ded5e2122bfb7ccdd9a65fae815516063a2249b3173f188e00dc850cefc9c -->
<g id="node18" class="node"><title>d77ded5e2122bfb7ccdd9a65fae815516063a2249b3173f188e00dc850cefc9c</title>
<path fill="#ffe4b5" stroke="black" d="M36,-119C36,-119 486.924,-119 486.924,-119 492.924,-119 498.924,-125 498.924,-131 498.924,-131 498.924,-143 498.924,-143 498.924,-149 492.924,-155 486.924,-155 486.924,-155 36,-155 36,-155 30,-155 24,-149 24,-143 24,-143 24,-131 24,-131 24,-125 30,-119 36,-119"/>
<text text-anchor="middle" x="261.462" y="-139.9" font-family="Courier,monospace" font-weight="bold" font-size="9.00">/Users/slaughter/git/OHI&#45;Science/ohibc/prep/spatial/raster/ohibc_rgn_raster_500m.tif </text>
<text text-anchor="middle" x="261.462" y="-129.1" font-family="Courier,monospace" font-weight="bold" font-size="9.00"> d77ded5e2122bfb7ccdd9a65fae815516063a2249b3173f188e00dc850cefc9c</text>
</g>
<!-- d77ded5e2122bfb7ccdd9a65fae815516063a2249b3173f188e00dc850cefc9c&#45;&gt;urn:uuid:167b320e&#45;9143&#45;4084&#45;882e&#45;7d19914767c0 -->
<g id="edge8" class="edge"><title>d77ded5e2122bfb7ccdd9a65fae815516063a2249b3173f188e00dc850cefc9c&#45;&gt;urn:uuid:167b320e&#45;9143&#45;4084&#45;882e&#45;7d19914767c0</title>
<path fill="none" stroke="black" d="M367.647,-118.973C437.283,-107.039 529.146,-91.2952 603.6,-78.5352"/>
<polygon fill="black" stroke="black" points="604.254,-81.9742 613.519,-76.8352 603.072,-75.0748 604.254,-81.9742"/>
</g>
<!-- d77ded5e2122bfb7ccdd9a65fae815516063a2249b3173f188e00dc850cefc9c&#45;&gt;urn:uuid:3d6c8ed0&#45;83c0&#45;4b12&#45;9154&#45;2804f4317598 -->
<g id="edge7" class="edge"><title>d77ded5e2122bfb7ccdd9a65fae815516063a2249b3173f188e00dc850cefc9c&#45;&gt;urn:uuid:3d6c8ed0&#45;83c0&#45;4b12&#45;9154&#45;2804f4317598</title>
<path fill="none" stroke="black" d="M499.123,-137C507.564,-137 516.005,-137 524.401,-137"/>
<polygon fill="black" stroke="black" points="524.619,-140.5 534.619,-137 524.619,-133.5 524.619,-140.5"/>
</g>
<!-- d77ded5e2122bfb7ccdd9a65fae815516063a2249b3173f188e00dc850cefc9c&#45;&gt;urn:uuid:98b5270a&#45;1577&#45;4865&#45;970f&#45;17c6b0065374 -->
<g id="edge6" class="edge"><title>d77ded5e2122bfb7ccdd9a65fae815516063a2249b3173f188e00dc850cefc9c&#45;&gt;urn:uuid:98b5270a&#45;1577&#45;4865&#45;970f&#45;17c6b0065374</title>
<path fill="none" stroke="black" d="M382.337,-155.008C444.377,-164.328 520.692,-175.792 586.452,-185.671"/>
<polygon fill="black" stroke="black" points="586.083,-189.155 596.492,-187.179 587.123,-182.232 586.083,-189.155"/>
</g>
<!-- bc918e73e8ffd7509cfd2f5173f4d13b17e620340a6ddae47c56f3b7697be7b1&#45;&gt;urn:uuid:4fcd5da4&#45;67af&#45;4f8d&#45;ad36&#45;c9cdf45621d4 -->
<g id="edge9" class="edge"><title>bc918e73e8ffd7509cfd2f5173f4d13b17e620340a6ddae47c56f3b7697be7b1&#45;&gt;urn:uuid:4fcd5da4&#45;67af&#45;4f8d&#45;ad36&#45;c9cdf45621d4</title>
<path fill="none" stroke="black" d="M3232.7,-189.991C3272.33,-185.215 3315.57,-180.005 3356.76,-175.041"/>
<polygon fill="black" stroke="black" points="3357.4,-178.49 3366.9,-173.819 3356.56,-171.54 3357.4,-178.49"/>
</g>
<!-- e4f5dd01c6b2e03bbe67419aa6ea9c20d938478e5523a2b6dc057413f6db2bf5&#45;&gt;urn:uuid:53c74750&#45;d660&#45;479d&#45;8e59&#45;f54068835317 -->
<g id="edge10" class="edge"><title>e4f5dd01c6b2e03bbe67419aa6ea9c20d938478e5523a2b6dc057413f6db2bf5&#45;&gt;urn:uuid:53c74750&#45;d660&#45;479d&#45;8e59&#45;f54068835317</title>
<path fill="none" stroke="black" d="M2321.28,-189.991C2360.21,-185.215 2402.68,-180.005 2443.14,-175.041"/>
<polygon fill="black" stroke="black" points="2443.61,-178.511 2453.11,-173.819 2442.75,-171.563 2443.61,-178.511"/>
</g>
</g>
</svg>
