<?xml version="1.0" encoding="UTF-8" standalone="no"?>
<!DOCTYPE svg PUBLIC "-//W3C//DTD SVG 1.1//EN"
 "http://www.w3.org/Graphics/SVG/1.1/DTD/svg11.dtd">
<!-- Generated by graphviz version 2.38.0 (20140413.2041)
 -->
<!-- Title: yw_data_view Pages: 1 -->
<svg width="5137pt" height="338pt"
 viewBox="0.00 0.00 5136.84 337.60" xmlns="http://www.w3.org/2000/svg" xmlns:xlink="http://www.w3.org/1999/xlink">
<g id="graph0" class="graph" transform="scale(1 1) rotate(0) translate(4 333.6)">
<title>yw_data_view</title>
<polygon fill="white" stroke="none" points="-4,4 -4,-333.6 5132.84,-333.6 5132.84,4 -4,4"/>
<text text-anchor="middle" x="2564.42" y="-309.4" font-family="Courier,monospace" font-size="18.00">Upstream graph for multiple runs</text>
<g id="clust1" class="cluster"><title>cluster_workflow</title>
<polygon fill="none" stroke="black" stroke-width="2" points="8,-8 8,-292 5120.84,-292 5120.84,-8 8,-8"/>
</g>
<g id="clust2" class="cluster"><title>cluster_workflow_inner</title>
<polygon fill="none" stroke="white" stroke-width="2" points="16,-16 16,-284 5112.84,-284 5112.84,-16 16,-16"/>
</g>
<!-- urn:uuid:4fcd5da4&#45;67af&#45;4f8d&#45;ad36&#45;c9cdf45621d4 -->
<g id="node1" class="node"><title>urn:uuid:4fcd5da4&#45;67af&#45;4f8d&#45;ad36&#45;c9cdf45621d4</title>
<polygon fill="black" stroke="black" points="3317.91,-129.2 3317.91,-170.8 3720.25,-170.8 3720.25,-129.2 3317.91,-129.2"/>
<text text-anchor="middle" x="3519.08" y="-154.2" font-family="Courier,monospace" font-weight="bold" font-size="14.00" fill="white">ohibc run 1 </text>
<text text-anchor="middle" x="3519.08" y="-137.4" font-family="Courier,monospace" font-weight="bold" font-size="14.00" fill="white"> urn:uuid:4fcd5da4&#45;67af&#45;4f8d&#45;ad36&#45;c9cdf45621d4</text>
</g>
<!-- /Users/slaughter/git/OHI&#45;Science/ohibc/prep/lsp/vHS/output/area_protected_total.csv -->
<g id="node14" class="node"><title>/Users/slaughter/git/OHI&#45;Science/ohibc/prep/lsp/vHS/output/area_protected_total.csv</title>
<path fill="#ffe4b5" stroke="black" d="M4208.44,-168C4208.44,-168 3768.18,-168 3768.18,-168 3762.18,-168 3756.18,-162 3756.18,-156 3756.18,-156 3756.18,-144 3756.18,-144 3756.18,-138 3762.18,-132 3768.18,-132 3768.18,-132 4208.44,-132 4208.44,-132 4214.44,-132 4220.44,-138 4220.44,-144 4220.44,-144 4220.44,-156 4220.44,-156 4220.44,-162 4214.44,-168 4208.44,-168"/>
<text text-anchor="middle" x="3988.31" y="-147.3" font-family="Courier,monospace" font-weight="bold" font-size="9.00">/Users/slaughter/git/OHI&#45;Science/ohibc/prep/lsp/vHS/output/area_protected_total.csv</text>
</g>
<!-- urn:uuid:4fcd5da4&#45;67af&#45;4f8d&#45;ad36&#45;c9cdf45621d4&#45;&gt;/Users/slaughter/git/OHI&#45;Science/ohibc/prep/lsp/vHS/output/area_protected_total.csv -->
<g id="edge21" class="edge"><title>urn:uuid:4fcd5da4&#45;67af&#45;4f8d&#45;ad36&#45;c9cdf45621d4&#45;&gt;/Users/slaughter/git/OHI&#45;Science/ohibc/prep/lsp/vHS/output/area_protected_total.csv</title>
<path fill="none" stroke="black" d="M3720.26,-150C3728.81,-150 3737.41,-150 3746.03,-150"/>
<polygon fill="black" stroke="black" points="3746.15,-153.5 3756.15,-150 3746.15,-146.5 3746.15,-153.5"/>
</g>
<!-- urn:uuid:53c74750&#45;d660&#45;479d&#45;8e59&#45;f54068835317 -->
<g id="node2" class="node"><title>urn:uuid:53c74750&#45;d660&#45;479d&#45;8e59&#45;f54068835317</title>
<polygon fill="black" stroke="black" points="2406.45,-129.2 2406.45,-170.8 2808.78,-170.8 2808.78,-129.2 2406.45,-129.2"/>
<text text-anchor="middle" x="2607.61" y="-154.2" font-family="Courier,monospace" font-weight="bold" font-size="14.00" fill="white">ohibc run 1 </text>
<text text-anchor="middle" x="2607.61" y="-137.4" font-family="Courier,monospace" font-weight="bold" font-size="14.00" fill="white"> urn:uuid:53c74750&#45;d660&#45;479d&#45;8e59&#45;f54068835317</text>
</g>
<!-- /Users/slaughter/git/OHI&#45;Science/ohibc/prep/lsp/vHS/int/area_protected_1km.csv -->
<g id="node9" class="node"><title>/Users/slaughter/git/OHI&#45;Science/ohibc/prep/lsp/vHS/int/area_protected_1km.csv</title>
<path fill="#ffe4b5" stroke="black" d="M3269.98,-114C3269.98,-114 2856.72,-114 2856.72,-114 2850.72,-114 2844.72,-108 2844.72,-102 2844.72,-102 2844.72,-90 2844.72,-90 2844.72,-84 2850.72,-78 2856.72,-78 2856.72,-78 3269.98,-78 3269.98,-78 3275.98,-78 3281.98,-84 3281.98,-90 3281.98,-90 3281.98,-102 3281.98,-102 3281.98,-108 3275.98,-114 3269.98,-114"/>
<text text-anchor="middle" x="3063.35" y="-93.3" font-family="Courier,monospace" font-weight="bold" font-size="9.00">/Users/slaughter/git/OHI&#45;Science/ohibc/prep/lsp/vHS/int/area_protected_1km.csv</text>
</g>
<!-- urn:uuid:53c74750&#45;d660&#45;479d&#45;8e59&#45;f54068835317&#45;&gt;/Users/slaughter/git/OHI&#45;Science/ohibc/prep/lsp/vHS/int/area_protected_1km.csv -->
<g id="edge17" class="edge"><title>urn:uuid:53c74750&#45;d660&#45;479d&#45;8e59&#45;f54068835317&#45;&gt;/Users/slaughter/git/OHI&#45;Science/ohibc/prep/lsp/vHS/int/area_protected_1km.csv</title>
<path fill="none" stroke="black" d="M2783.39,-129.199C2822,-124.604 2862.75,-119.755 2900.81,-115.225"/>
<polygon fill="black" stroke="black" points="2901.43,-118.676 2910.94,-114.019 2900.6,-111.725 2901.43,-118.676"/>
</g>
<!-- /Users/slaughter/git/OHI&#45;Science/ohibc/prep/lsp/vHS/int/area_protected_3nm.csv -->
<g id="node16" class="node"><title>/Users/slaughter/git/OHI&#45;Science/ohibc/prep/lsp/vHS/int/area_protected_3nm.csv</title>
<path fill="#ffe4b5" stroke="black" d="M3269.98,-168C3269.98,-168 2856.72,-168 2856.72,-168 2850.72,-168 2844.72,-162 2844.72,-156 2844.72,-156 2844.72,-144 2844.72,-144 2844.72,-138 2850.72,-132 2856.72,-132 2856.72,-132 3269.98,-132 3269.98,-132 3275.98,-132 3281.98,-138 3281.98,-144 3281.98,-144 3281.98,-156 3281.98,-156 3281.98,-162 3275.98,-168 3269.98,-168"/>
<text text-anchor="middle" x="3063.35" y="-147.3" font-family="Courier,monospace" font-weight="bold" font-size="9.00">/Users/slaughter/git/OHI&#45;Science/ohibc/prep/lsp/vHS/int/area_protected_3nm.csv</text>
</g>
<!-- urn:uuid:53c74750&#45;d660&#45;479d&#45;8e59&#45;f54068835317&#45;&gt;/Users/slaughter/git/OHI&#45;Science/ohibc/prep/lsp/vHS/int/area_protected_3nm.csv -->
<g id="edge23" class="edge"><title>urn:uuid:53c74750&#45;d660&#45;479d&#45;8e59&#45;f54068835317&#45;&gt;/Users/slaughter/git/OHI&#45;Science/ohibc/prep/lsp/vHS/int/area_protected_3nm.csv</title>
<path fill="none" stroke="black" d="M2808.95,-150C2817.48,-150 2826.06,-150 2834.65,-150"/>
<polygon fill="black" stroke="black" points="2834.72,-153.5 2844.72,-150 2834.72,-146.5 2834.72,-153.5"/>
</g>
<!-- /Users/slaughter/git/OHI&#45;Science/ohibc/prep/lsp/vHS/int/area_protected_ws.csv -->
<g id="node19" class="node"><title>/Users/slaughter/git/OHI&#45;Science/ohibc/prep/lsp/vHS/int/area_protected_ws.csv</title>
<path fill="#ffe4b5" stroke="black" d="M3267.08,-222C3267.08,-222 2859.62,-222 2859.62,-222 2853.62,-222 2847.62,-216 2847.62,-210 2847.62,-210 2847.62,-198 2847.62,-198 2847.62,-192 2853.62,-186 2859.62,-186 2859.62,-186 3267.08,-186 3267.08,-186 3273.08,-186 3279.08,-192 3279.08,-198 3279.08,-198 3279.08,-210 3279.08,-210 3279.08,-216 3273.08,-222 3267.08,-222"/>
<text text-anchor="middle" x="3063.35" y="-201.3" font-family="Courier,monospace" font-weight="bold" font-size="9.00">/Users/slaughter/git/OHI&#45;Science/ohibc/prep/lsp/vHS/int/area_protected_ws.csv</text>
</g>
<!-- urn:uuid:53c74750&#45;d660&#45;479d&#45;8e59&#45;f54068835317&#45;&gt;/Users/slaughter/git/OHI&#45;Science/ohibc/prep/lsp/vHS/int/area_protected_ws.csv -->
<g id="edge26" class="edge"><title>urn:uuid:53c74750&#45;d660&#45;479d&#45;8e59&#45;f54068835317&#45;&gt;/Users/slaughter/git/OHI&#45;Science/ohibc/prep/lsp/vHS/int/area_protected_ws.csv</title>
<path fill="none" stroke="black" d="M2783.39,-170.801C2822,-175.396 2862.75,-180.245 2900.81,-184.775"/>
<polygon fill="black" stroke="black" points="2900.6,-188.275 2910.94,-185.981 2901.43,-181.324 2900.6,-188.275"/>
</g>
<!-- urn:uuid:f5d6b763&#45;c953&#45;48f4&#45;9a39&#45;4a61f45bfdd3 -->
<g id="node3" class="node"><title>urn:uuid:f5d6b763&#45;c953&#45;48f4&#45;9a39&#45;4a61f45bfdd3</title>
<polygon fill="black" stroke="black" points="1511.18,-129.2 1511.18,-170.8 1913.51,-170.8 1913.51,-129.2 1511.18,-129.2"/>
<text text-anchor="middle" x="1712.35" y="-154.2" font-family="Courier,monospace" font-weight="bold" font-size="14.00" fill="white">ohibc run 1 </text>
<text text-anchor="middle" x="1712.35" y="-137.4" font-family="Courier,monospace" font-weight="bold" font-size="14.00" fill="white"> urn:uuid:f5d6b763&#45;c953&#45;48f4&#45;9a39&#45;4a61f45bfdd3</text>
</g>
<!-- /Users/slaughter/git/OHI&#45;Science/ohibc/prep/lsp/vHS/int/zonal_stats_1km.csv -->
<g id="node11" class="node"><title>/Users/slaughter/git/OHI&#45;Science/ohibc/prep/lsp/vHS/int/zonal_stats_1km.csv</title>
<path fill="#ffe4b5" stroke="black" d="M2358.41,-114C2358.41,-114 1961.55,-114 1961.55,-114 1955.55,-114 1949.55,-108 1949.55,-102 1949.55,-102 1949.55,-90 1949.55,-90 1949.55,-84 1955.55,-78 1961.55,-78 1961.55,-78 2358.41,-78 2358.41,-78 2364.41,-78 2370.41,-84 2370.41,-90 2370.41,-90 2370.41,-102 2370.41,-102 2370.41,-108 2364.41,-114 2358.41,-114"/>
<text text-anchor="middle" x="2159.98" y="-93.3" font-family="Courier,monospace" font-weight="bold" font-size="9.00">/Users/slaughter/git/OHI&#45;Science/ohibc/prep/lsp/vHS/int/zonal_stats_1km.csv</text>
</g>
<!-- urn:uuid:f5d6b763&#45;c953&#45;48f4&#45;9a39&#45;4a61f45bfdd3&#45;&gt;/Users/slaughter/git/OHI&#45;Science/ohibc/prep/lsp/vHS/int/zonal_stats_1km.csv -->
<g id="edge18" class="edge"><title>urn:uuid:f5d6b763&#45;c953&#45;48f4&#45;9a39&#45;4a61f45bfdd3&#45;&gt;/Users/slaughter/git/OHI&#45;Science/ohibc/prep/lsp/vHS/int/zonal_stats_1km.csv</title>
<path fill="none" stroke="black" d="M1885,-129.199C1922.93,-124.604 1962.94,-119.755 2000.32,-115.225"/>
<polygon fill="black" stroke="black" points="2000.77,-118.696 2010.28,-114.019 1999.93,-111.747 2000.77,-118.696"/>
</g>
<!-- /Users/slaughter/git/OHI&#45;Science/ohibc/prep/lsp/vHS/int/zonal_stats_3nm.csv -->
<g id="node17" class="node"><title>/Users/slaughter/git/OHI&#45;Science/ohibc/prep/lsp/vHS/int/zonal_stats_3nm.csv</title>
<path fill="#ffe4b5" stroke="black" d="M2358.41,-168C2358.41,-168 1961.55,-168 1961.55,-168 1955.55,-168 1949.55,-162 1949.55,-156 1949.55,-156 1949.55,-144 1949.55,-144 1949.55,-138 1955.55,-132 1961.55,-132 1961.55,-132 2358.41,-132 2358.41,-132 2364.41,-132 2370.41,-138 2370.41,-144 2370.41,-144 2370.41,-156 2370.41,-156 2370.41,-162 2364.41,-168 2358.41,-168"/>
<text text-anchor="middle" x="2159.98" y="-147.3" font-family="Courier,monospace" font-weight="bold" font-size="9.00">/Users/slaughter/git/OHI&#45;Science/ohibc/prep/lsp/vHS/int/zonal_stats_3nm.csv</text>
</g>
<!-- urn:uuid:f5d6b763&#45;c953&#45;48f4&#45;9a39&#45;4a61f45bfdd3&#45;&gt;/Users/slaughter/git/OHI&#45;Science/ohibc/prep/lsp/vHS/int/zonal_stats_3nm.csv -->
<g id="edge24" class="edge"><title>urn:uuid:f5d6b763&#45;c953&#45;48f4&#45;9a39&#45;4a61f45bfdd3&#45;&gt;/Users/slaughter/git/OHI&#45;Science/ohibc/prep/lsp/vHS/int/zonal_stats_3nm.csv</title>
<path fill="none" stroke="black" d="M1913.68,-150C1922.23,-150 1930.84,-150 1939.43,-150"/>
<polygon fill="black" stroke="black" points="1939.52,-153.5 1949.52,-150 1939.52,-146.5 1939.52,-153.5"/>
</g>
<!-- /Users/slaughter/git/OHI&#45;Science/ohibc/prep/lsp/vHS/int/zonal_stats_ws.csv -->
<g id="node20" class="node"><title>/Users/slaughter/git/OHI&#45;Science/ohibc/prep/lsp/vHS/int/zonal_stats_ws.csv</title>
<path fill="#ffe4b5" stroke="black" d="M2355.51,-222C2355.51,-222 1964.45,-222 1964.45,-222 1958.45,-222 1952.45,-216 1952.45,-210 1952.45,-210 1952.45,-198 1952.45,-198 1952.45,-192 1958.45,-186 1964.45,-186 1964.45,-186 2355.51,-186 2355.51,-186 2361.51,-186 2367.51,-192 2367.51,-198 2367.51,-198 2367.51,-210 2367.51,-210 2367.51,-216 2361.51,-222 2355.51,-222"/>
<text text-anchor="middle" x="2159.98" y="-201.3" font-family="Courier,monospace" font-weight="bold" font-size="9.00">/Users/slaughter/git/OHI&#45;Science/ohibc/prep/lsp/vHS/int/zonal_stats_ws.csv</text>
</g>
<!-- urn:uuid:f5d6b763&#45;c953&#45;48f4&#45;9a39&#45;4a61f45bfdd3&#45;&gt;/Users/slaughter/git/OHI&#45;Science/ohibc/prep/lsp/vHS/int/zonal_stats_ws.csv -->
<g id="edge27" class="edge"><title>urn:uuid:f5d6b763&#45;c953&#45;48f4&#45;9a39&#45;4a61f45bfdd3&#45;&gt;/Users/slaughter/git/OHI&#45;Science/ohibc/prep/lsp/vHS/int/zonal_stats_ws.csv</title>
<path fill="none" stroke="black" d="M1885,-170.801C1922.93,-175.396 1962.94,-180.245 2000.32,-184.775"/>
<polygon fill="black" stroke="black" points="1999.93,-188.253 2010.28,-185.981 2000.77,-181.304 1999.93,-188.253"/>
</g>
<!-- urn:uuid:167b320e&#45;9143&#45;4084&#45;882e&#45;7d19914767c0 -->
<g id="node4" class="node"><title>urn:uuid:167b320e&#45;9143&#45;4084&#45;882e&#45;7d19914767c0</title>
<polygon fill="black" stroke="black" points="529.524,-34.2 529.524,-75.8 931.86,-75.8 931.86,-34.2 529.524,-34.2"/>
<text text-anchor="middle" x="730.692" y="-59.2" font-family="Courier,monospace" font-weight="bold" font-size="14.00" fill="white">ohibc run 1 </text>
<text text-anchor="middle" x="730.692" y="-42.4" font-family="Courier,monospace" font-weight="bold" font-size="14.00" fill="white"> urn:uuid:167b320e&#45;9143&#45;4084&#45;882e&#45;7d19914767c0</text>
</g>
<!-- /Users/slaughter/git/OHI&#45;Science/ohibc/prep/lsp/vHS/spatial/howe_sound_watershed_500m.tif -->
<g id="node18" class="node"><title>/Users/slaughter/git/OHI&#45;Science/ohibc/prep/lsp/vHS/spatial/howe_sound_watershed_500m.tif</title>
<path fill="#ffe4b5" stroke="black" d="M1457.54,-60C1457.54,-60 985.499,-60 985.499,-60 979.499,-60 973.499,-54 973.499,-48 973.499,-48 973.499,-36 973.499,-36 973.499,-30 979.499,-24 985.499,-24 985.499,-24 1457.54,-24 1457.54,-24 1463.54,-24 1469.54,-30 1469.54,-36 1469.54,-36 1469.54,-48 1469.54,-48 1469.54,-54 1463.54,-60 1457.54,-60"/>
<text text-anchor="middle" x="1221.52" y="-39.3" font-family="Courier,monospace" font-weight="bold" font-size="9.00">/Users/slaughter/git/OHI&#45;Science/ohibc/prep/lsp/vHS/spatial/howe_sound_watershed_500m.tif</text>
</g>
<!-- urn:uuid:167b320e&#45;9143&#45;4084&#45;882e&#45;7d19914767c0&#45;&gt;/Users/slaughter/git/OHI&#45;Science/ohibc/prep/lsp/vHS/spatial/howe_sound_watershed_500m.tif -->
<g id="edge25" class="edge"><title>urn:uuid:167b320e&#45;9143&#45;4084&#45;882e&#45;7d19914767c0&#45;&gt;/Users/slaughter/git/OHI&#45;Science/ohibc/prep/lsp/vHS/spatial/howe_sound_watershed_500m.tif</title>
<path fill="none" stroke="black" d="M931.927,-49.6749C942.317,-49.3986 952.817,-49.1193 963.349,-48.8392"/>
<polygon fill="black" stroke="black" points="963.551,-52.3352 973.454,-48.5705 963.364,-45.3377 963.551,-52.3352"/>
</g>
<!-- urn:uuid:3d6c8ed0&#45;83c0&#45;4b12&#45;9154&#45;2804f4317598 -->
<g id="node5" class="node"><title>urn:uuid:3d6c8ed0&#45;83c0&#45;4b12&#45;9154&#45;2804f4317598</title>
<polygon fill="black" stroke="black" points="529.524,-113.2 529.524,-154.8 931.86,-154.8 931.86,-113.2 529.524,-113.2"/>
<text text-anchor="middle" x="730.692" y="-138.2" font-family="Courier,monospace" font-weight="bold" font-size="14.00" fill="white">ohibc run 1 </text>
<text text-anchor="middle" x="730.692" y="-121.4" font-family="Courier,monospace" font-weight="bold" font-size="14.00" fill="white"> urn:uuid:3d6c8ed0&#45;83c0&#45;4b12&#45;9154&#45;2804f4317598</text>
</g>
<!-- /Users/slaughter/git/OHI&#45;Science/ohibc/prep/lsp/vHS/spatial/hs_inland_1km_raster_500m.tif -->
<g id="node8" class="node"><title>/Users/slaughter/git/OHI&#45;Science/ohibc/prep/lsp/vHS/spatial/hs_inland_1km_raster_500m.tif</title>
<path fill="#ffe4b5" stroke="black" d="M1457.54,-114C1457.54,-114 985.499,-114 985.499,-114 979.499,-114 973.499,-108 973.499,-102 973.499,-102 973.499,-90 973.499,-90 973.499,-84 979.499,-78 985.499,-78 985.499,-78 1457.54,-78 1457.54,-78 1463.54,-78 1469.54,-84 1469.54,-90 1469.54,-90 1469.54,-102 1469.54,-102 1469.54,-108 1463.54,-114 1457.54,-114"/>
<text text-anchor="middle" x="1221.52" y="-93.3" font-family="Courier,monospace" font-weight="bold" font-size="9.00">/Users/slaughter/git/OHI&#45;Science/ohibc/prep/lsp/vHS/spatial/hs_inland_1km_raster_500m.tif</text>
</g>
<!-- urn:uuid:3d6c8ed0&#45;83c0&#45;4b12&#45;9154&#45;2804f4317598&#45;&gt;/Users/slaughter/git/OHI&#45;Science/ohibc/prep/lsp/vHS/spatial/hs_inland_1km_raster_500m.tif -->
<g id="edge16" class="edge"><title>urn:uuid:3d6c8ed0&#45;83c0&#45;4b12&#45;9154&#45;2804f4317598&#45;&gt;/Users/slaughter/git/OHI&#45;Science/ohibc/prep/lsp/vHS/spatial/hs_inland_1km_raster_500m.tif</title>
<path fill="none" stroke="black" d="M931.927,-118.434C947.284,-117.241 962.881,-116.028 978.465,-114.817"/>
<polygon fill="black" stroke="black" points="979.003,-118.285 988.702,-114.021 978.46,-111.306 979.003,-118.285"/>
</g>
<!-- /Users/slaughter/git/OHI&#45;Science/ohibc/prep/lsp/vHS/spatial/hs_offshore_3nm_raster_500m.tif -->
<g id="node13" class="node"><title>/Users/slaughter/git/OHI&#45;Science/ohibc/prep/lsp/vHS/spatial/hs_offshore_3nm_raster_500m.tif</title>
<path fill="#ffe4b5" stroke="black" d="M1463.34,-168C1463.34,-168 979.701,-168 979.701,-168 973.701,-168 967.701,-162 967.701,-156 967.701,-156 967.701,-144 967.701,-144 967.701,-138 973.701,-132 979.701,-132 979.701,-132 1463.34,-132 1463.34,-132 1469.34,-132 1475.34,-138 1475.34,-144 1475.34,-144 1475.34,-156 1475.34,-156 1475.34,-162 1469.34,-168 1463.34,-168"/>
<text text-anchor="middle" x="1221.52" y="-147.3" font-family="Courier,monospace" font-weight="bold" font-size="9.00">/Users/slaughter/git/OHI&#45;Science/ohibc/prep/lsp/vHS/spatial/hs_offshore_3nm_raster_500m.tif</text>
</g>
<!-- urn:uuid:3d6c8ed0&#45;83c0&#45;4b12&#45;9154&#45;2804f4317598&#45;&gt;/Users/slaughter/git/OHI&#45;Science/ohibc/prep/lsp/vHS/spatial/hs_offshore_3nm_raster_500m.tif -->
<g id="edge20" class="edge"><title>urn:uuid:3d6c8ed0&#45;83c0&#45;4b12&#45;9154&#45;2804f4317598&#45;&gt;/Users/slaughter/git/OHI&#45;Science/ohibc/prep/lsp/vHS/spatial/hs_offshore_3nm_raster_500m.tif</title>
<path fill="none" stroke="black" d="M931.927,-140.554C940.455,-140.833 949.057,-141.115 957.69,-141.397"/>
<polygon fill="black" stroke="black" points="957.727,-144.9 967.836,-141.729 957.956,-137.904 957.727,-144.9"/>
</g>
<!-- urn:uuid:98b5270a&#45;1577&#45;4865&#45;970f&#45;17c6b0065374 -->
<g id="node6" class="node"><title>urn:uuid:98b5270a&#45;1577&#45;4865&#45;970f&#45;17c6b0065374</title>
<polygon fill="black" stroke="black" points="529.524,-183.2 529.524,-224.8 931.86,-224.8 931.86,-183.2 529.524,-183.2"/>
<text text-anchor="middle" x="730.692" y="-208.2" font-family="Courier,monospace" font-weight="bold" font-size="14.00" fill="white">ohibc run 1 </text>
<text text-anchor="middle" x="730.692" y="-191.4" font-family="Courier,monospace" font-weight="bold" font-size="14.00" fill="white"> urn:uuid:98b5270a&#45;1577&#45;4865&#45;970f&#45;17c6b0065374</text>
</g>
<!-- /Users/slaughter/git/OHI&#45;Science/ohibc/prep/lsp/vHS/spatial/hs_pep_rast_500m.tif -->
<g id="node12" class="node"><title>/Users/slaughter/git/OHI&#45;Science/ohibc/prep/lsp/vHS/spatial/hs_pep_rast_500m.tif</title>
<path fill="#ffe4b5" stroke="black" d="M1433.45,-222C1433.45,-222 1009.59,-222 1009.59,-222 1003.59,-222 997.591,-216 997.591,-210 997.591,-210 997.591,-198 997.591,-198 997.591,-192 1003.59,-186 1009.59,-186 1009.59,-186 1433.45,-186 1433.45,-186 1439.45,-186 1445.45,-192 1445.45,-198 1445.45,-198 1445.45,-210 1445.45,-210 1445.45,-216 1439.45,-222 1433.45,-222"/>
<text text-anchor="middle" x="1221.52" y="-201.3" font-family="Courier,monospace" font-weight="bold" font-size="9.00">/Users/slaughter/git/OHI&#45;Science/ohibc/prep/lsp/vHS/spatial/hs_pep_rast_500m.tif</text>
</g>
<!-- urn:uuid:98b5270a&#45;1577&#45;4865&#45;970f&#45;17c6b0065374&#45;&gt;/Users/slaughter/git/OHI&#45;Science/ohibc/prep/lsp/vHS/spatial/hs_pep_rast_500m.tif -->
<g id="edge19" class="edge"><title>urn:uuid:98b5270a&#45;1577&#45;4865&#45;970f&#45;17c6b0065374&#45;&gt;/Users/slaughter/git/OHI&#45;Science/ohibc/prep/lsp/vHS/spatial/hs_pep_rast_500m.tif</title>
<path fill="none" stroke="black" d="M931.927,-204C950.254,-204 968.923,-204 987.505,-204"/>
<polygon fill="black" stroke="black" points="987.513,-207.5 997.513,-204 987.512,-200.5 987.513,-207.5"/>
</g>
<!-- /Users/slaughter/git/OHI&#45;Science/ohibc/prep/lsp/vHS/spatial/hs_wdpa_rast_500m.tif -->
<g id="node21" class="node"><title>/Users/slaughter/git/OHI&#45;Science/ohibc/prep/lsp/vHS/spatial/hs_wdpa_rast_500m.tif</title>
<path fill="#ffe4b5" stroke="black" d="M1436.35,-276C1436.35,-276 1006.69,-276 1006.69,-276 1000.69,-276 994.692,-270 994.692,-264 994.692,-264 994.692,-252 994.692,-252 994.692,-246 1000.69,-240 1006.69,-240 1006.69,-240 1436.35,-240 1436.35,-240 1442.35,-240 1448.35,-246 1448.35,-252 1448.35,-252 1448.35,-264 1448.35,-264 1448.35,-270 1442.35,-276 1436.35,-276"/>
<text text-anchor="middle" x="1221.52" y="-255.3" font-family="Courier,monospace" font-weight="bold" font-size="9.00">/Users/slaughter/git/OHI&#45;Science/ohibc/prep/lsp/vHS/spatial/hs_wdpa_rast_500m.tif</text>
</g>
<!-- urn:uuid:98b5270a&#45;1577&#45;4865&#45;970f&#45;17c6b0065374&#45;&gt;/Users/slaughter/git/OHI&#45;Science/ohibc/prep/lsp/vHS/spatial/hs_wdpa_rast_500m.tif -->
<g id="edge28" class="edge"><title>urn:uuid:98b5270a&#45;1577&#45;4865&#45;970f&#45;17c6b0065374&#45;&gt;/Users/slaughter/git/OHI&#45;Science/ohibc/prep/lsp/vHS/spatial/hs_wdpa_rast_500m.tif</title>
<path fill="none" stroke="black" d="M912.517,-224.811C931.205,-226.92 949.914,-229.015 967.86,-231 991.271,-233.589 1015.91,-236.273 1040.24,-238.899"/>
<polygon fill="black" stroke="black" points="1039.96,-242.389 1050.28,-239.981 1040.71,-235.429 1039.96,-242.389"/>
</g>
<!-- urn:uuid:53ada2f7&#45;5e25&#45;4845&#45;883e&#45;1049a90c321c -->
<g id="node7" class="node"><title>urn:uuid:53ada2f7&#45;5e25&#45;4845&#45;883e&#45;1049a90c321c</title>
<polygon fill="black" stroke="black" points="4256.37,-129.2 4256.37,-170.8 4658.71,-170.8 4658.71,-129.2 4256.37,-129.2"/>
<text text-anchor="middle" x="4457.54" y="-154.2" font-family="Courier,monospace" font-weight="bold" font-size="14.00" fill="white">ohibc run 1 </text>
<text text-anchor="middle" x="4457.54" y="-137.4" font-family="Courier,monospace" font-weight="bold" font-size="14.00" fill="white"> urn:uuid:53ada2f7&#45;5e25&#45;4845&#45;883e&#45;1049a90c321c</text>
</g>
<!-- /Users/slaughter/git/OHI&#45;Science/ohibc/prep/lsp/vHS/output/lsp_status.csv -->
<g id="node15" class="node"><title>/Users/slaughter/git/OHI&#45;Science/ohibc/prep/lsp/vHS/output/lsp_status.csv</title>
<path fill="#ffe4b5" stroke="black" d="M5092.91,-168C5092.91,-168 4706.64,-168 4706.64,-168 4700.64,-168 4694.64,-162 4694.64,-156 4694.64,-156 4694.64,-144 4694.64,-144 4694.64,-138 4700.64,-132 4706.64,-132 4706.64,-132 5092.91,-132 5092.91,-132 5098.91,-132 5104.91,-138 5104.91,-144 5104.91,-144 5104.91,-156 5104.91,-156 5104.91,-162 5098.91,-168 5092.91,-168"/>
<text text-anchor="middle" x="4899.78" y="-147.3" font-family="Courier,monospace" font-weight="bold" font-size="9.00">/Users/slaughter/git/OHI&#45;Science/ohibc/prep/lsp/vHS/output/lsp_status.csv</text>
</g>
<!-- urn:uuid:53ada2f7&#45;5e25&#45;4845&#45;883e&#45;1049a90c321c&#45;&gt;/Users/slaughter/git/OHI&#45;Science/ohibc/prep/lsp/vHS/output/lsp_status.csv -->
<g id="edge22" class="edge"><title>urn:uuid:53ada2f7&#45;5e25&#45;4845&#45;883e&#45;1049a90c321c&#45;&gt;/Users/slaughter/git/OHI&#45;Science/ohibc/prep/lsp/vHS/output/lsp_status.csv</title>
<path fill="none" stroke="black" d="M4659.01,-150C4667.4,-150 4675.83,-150 4684.25,-150"/>
<polygon fill="black" stroke="black" points="4684.51,-153.5 4694.51,-150 4684.51,-146.5 4684.51,-153.5"/>
</g>
<!-- /Users/slaughter/git/OHI&#45;Science/ohibc/prep/lsp/vHS/spatial/hs_inland_1km_raster_500m.tif&#45;&gt;urn:uuid:f5d6b763&#45;c953&#45;48f4&#45;9a39&#45;4a61f45bfdd3 -->
<g id="edge11" class="edge"><title>/Users/slaughter/git/OHI&#45;Science/ohibc/prep/lsp/vHS/spatial/hs_inland_1km_raster_500m.tif&#45;&gt;urn:uuid:f5d6b763&#45;c953&#45;48f4&#45;9a39&#45;4a61f45bfdd3</title>
<path fill="none" stroke="black" d="M1392.76,-114.019C1420.32,-116.986 1448.54,-120.054 1475.18,-123 1489.9,-124.628 1505.13,-126.33 1520.45,-128.054"/>
<polygon fill="black" stroke="black" points="1520.19,-131.547 1530.52,-129.189 1520.98,-124.591 1520.19,-131.547"/>
</g>
<!-- /Users/slaughter/git/OHI&#45;Science/ohibc/prep/lsp/vHS/int/area_protected_1km.csv&#45;&gt;urn:uuid:4fcd5da4&#45;67af&#45;4f8d&#45;ad36&#45;c9cdf45621d4 -->
<g id="edge12" class="edge"><title>/Users/slaughter/git/OHI&#45;Science/ohibc/prep/lsp/vHS/int/area_protected_1km.csv&#45;&gt;urn:uuid:4fcd5da4&#45;67af&#45;4f8d&#45;ad36&#45;c9cdf45621d4</title>
<path fill="none" stroke="black" d="M3215.75,-114.019C3253.24,-118.481 3293.84,-123.313 3332.76,-127.944"/>
<polygon fill="black" stroke="black" points="3332.8,-131.474 3343.14,-129.181 3333.63,-124.523 3332.8,-131.474"/>
</g>
<!-- /Users/slaughter/git/OHI&#45;Science/ohibc/prep/spatial/raster/ohibc_rgn_raster_500m.tif -->
<g id="node10" class="node"><title>/Users/slaughter/git/OHI&#45;Science/ohibc/prep/spatial/raster/ohibc_rgn_raster_500m.tif</title>
<path fill="#ffe4b5" stroke="black" d="M481.287,-152C481.287,-152 36.2376,-152 36.2376,-152 30.2376,-152 24.2376,-146 24.2376,-140 24.2376,-140 24.2376,-128 24.2376,-128 24.2376,-122 30.2376,-116 36.2376,-116 36.2376,-116 481.287,-116 481.287,-116 487.287,-116 493.287,-122 493.287,-128 493.287,-128 493.287,-140 493.287,-140 493.287,-146 487.287,-152 481.287,-152"/>
<text text-anchor="middle" x="258.762" y="-131.3" font-family="Courier,monospace" font-weight="bold" font-size="9.00">/Users/slaughter/git/OHI&#45;Science/ohibc/prep/spatial/raster/ohibc_rgn_raster_500m.tif</text>
</g>
<!-- /Users/slaughter/git/OHI&#45;Science/ohibc/prep/spatial/raster/ohibc_rgn_raster_500m.tif&#45;&gt;urn:uuid:167b320e&#45;9143&#45;4084&#45;882e&#45;7d19914767c0 -->
<g id="edge15" class="edge"><title>/Users/slaughter/git/OHI&#45;Science/ohibc/prep/spatial/raster/ohibc_rgn_raster_500m.tif&#45;&gt;urn:uuid:167b320e&#45;9143&#45;4084&#45;882e&#45;7d19914767c0</title>
<path fill="none" stroke="black" d="M366.985,-115.975C434.899,-104.558 523.269,-89.7018 595.779,-77.5122"/>
<polygon fill="black" stroke="black" points="596.62,-80.92 605.901,-75.8105 595.459,-74.0168 596.62,-80.92"/>
</g>
<!-- /Users/slaughter/git/OHI&#45;Science/ohibc/prep/spatial/raster/ohibc_rgn_raster_500m.tif&#45;&gt;urn:uuid:3d6c8ed0&#45;83c0&#45;4b12&#45;9154&#45;2804f4317598 -->
<g id="edge14" class="edge"><title>/Users/slaughter/git/OHI&#45;Science/ohibc/prep/spatial/raster/ohibc_rgn_raster_500m.tif&#45;&gt;urn:uuid:3d6c8ed0&#45;83c0&#45;4b12&#45;9154&#45;2804f4317598</title>
<path fill="none" stroke="black" d="M493.35,-134C502.043,-134 510.737,-134 519.387,-134"/>
<polygon fill="black" stroke="black" points="519.517,-137.5 529.517,-134 519.517,-130.5 519.517,-137.5"/>
</g>
<!-- /Users/slaughter/git/OHI&#45;Science/ohibc/prep/spatial/raster/ohibc_rgn_raster_500m.tif&#45;&gt;urn:uuid:98b5270a&#45;1577&#45;4865&#45;970f&#45;17c6b0065374 -->
<g id="edge13" class="edge"><title>/Users/slaughter/git/OHI&#45;Science/ohibc/prep/spatial/raster/ohibc_rgn_raster_500m.tif&#45;&gt;urn:uuid:98b5270a&#45;1577&#45;4865&#45;970f&#45;17c6b0065374</title>
<path fill="none" stroke="black" d="M380.781,-152.027C441.443,-161.063 515.475,-172.091 579.713,-181.659"/>
<polygon fill="black" stroke="black" points="579.529,-185.17 589.935,-183.182 580.56,-178.247 579.529,-185.17"/>
</g>
<!-- /Users/slaughter/git/OHI&#45;Science/ohibc/prep/lsp/vHS/int/zonal_stats_1km.csv&#45;&gt;urn:uuid:53c74750&#45;d660&#45;479d&#45;8e59&#45;f54068835317 -->
<g id="edge1" class="edge"><title>/Users/slaughter/git/OHI&#45;Science/ohibc/prep/lsp/vHS/int/zonal_stats_1km.csv&#45;&gt;urn:uuid:53c74750&#45;d660&#45;479d&#45;8e59&#45;f54068835317</title>
<path fill="none" stroke="black" d="M2309.68,-114.019C2346.51,-118.481 2386.38,-123.313 2424.6,-127.944"/>
<polygon fill="black" stroke="black" points="2424.45,-131.452 2434.8,-129.181 2425.3,-124.503 2424.45,-131.452"/>
</g>
<!-- /Users/slaughter/git/OHI&#45;Science/ohibc/prep/lsp/vHS/spatial/hs_pep_rast_500m.tif&#45;&gt;urn:uuid:f5d6b763&#45;c953&#45;48f4&#45;9a39&#45;4a61f45bfdd3 -->
<g id="edge2" class="edge"><title>/Users/slaughter/git/OHI&#45;Science/ohibc/prep/lsp/vHS/spatial/hs_pep_rast_500m.tif&#45;&gt;urn:uuid:f5d6b763&#45;c953&#45;48f4&#45;9a39&#45;4a61f45bfdd3</title>
<path fill="none" stroke="black" d="M1392.76,-185.981C1420.32,-183.014 1448.54,-179.946 1475.18,-177 1489.9,-175.372 1505.13,-173.67 1520.45,-171.946"/>
<polygon fill="black" stroke="black" points="1520.98,-175.409 1530.52,-170.811 1520.19,-168.453 1520.98,-175.409"/>
</g>
<!-- /Users/slaughter/git/OHI&#45;Science/ohibc/prep/lsp/vHS/spatial/hs_offshore_3nm_raster_500m.tif&#45;&gt;urn:uuid:f5d6b763&#45;c953&#45;48f4&#45;9a39&#45;4a61f45bfdd3 -->
<g id="edge3" class="edge"><title>/Users/slaughter/git/OHI&#45;Science/ohibc/prep/lsp/vHS/spatial/hs_offshore_3nm_raster_500m.tif&#45;&gt;urn:uuid:f5d6b763&#45;c953&#45;48f4&#45;9a39&#45;4a61f45bfdd3</title>
<path fill="none" stroke="black" d="M1475.52,-150C1483.97,-150 1492.4,-150 1500.78,-150"/>
<polygon fill="black" stroke="black" points="1500.97,-153.5 1510.97,-150 1500.97,-146.5 1500.97,-153.5"/>
</g>
<!-- /Users/slaughter/git/OHI&#45;Science/ohibc/prep/lsp/vHS/output/area_protected_total.csv&#45;&gt;urn:uuid:53ada2f7&#45;5e25&#45;4845&#45;883e&#45;1049a90c321c -->
<g id="edge4" class="edge"><title>/Users/slaughter/git/OHI&#45;Science/ohibc/prep/lsp/vHS/output/area_protected_total.csv&#45;&gt;urn:uuid:53ada2f7&#45;5e25&#45;4845&#45;883e&#45;1049a90c321c</title>
<path fill="none" stroke="black" d="M4220.53,-150C4229.11,-150 4237.7,-150 4246.25,-150"/>
<polygon fill="black" stroke="black" points="4246.26,-153.5 4256.26,-150 4246.26,-146.5 4246.26,-153.5"/>
</g>
<!-- /Users/slaughter/git/OHI&#45;Science/ohibc/prep/lsp/vHS/int/area_protected_3nm.csv&#45;&gt;urn:uuid:4fcd5da4&#45;67af&#45;4f8d&#45;ad36&#45;c9cdf45621d4 -->
<g id="edge5" class="edge"><title>/Users/slaughter/git/OHI&#45;Science/ohibc/prep/lsp/vHS/int/area_protected_3nm.csv&#45;&gt;urn:uuid:4fcd5da4&#45;67af&#45;4f8d&#45;ad36&#45;c9cdf45621d4</title>
<path fill="none" stroke="black" d="M3282.24,-150C3290.64,-150 3299.06,-150 3307.45,-150"/>
<polygon fill="black" stroke="black" points="3307.66,-153.5 3317.66,-150 3307.66,-146.5 3307.66,-153.5"/>
</g>
<!-- /Users/slaughter/git/OHI&#45;Science/ohibc/prep/lsp/vHS/int/zonal_stats_3nm.csv&#45;&gt;urn:uuid:53c74750&#45;d660&#45;479d&#45;8e59&#45;f54068835317 -->
<g id="edge6" class="edge"><title>/Users/slaughter/git/OHI&#45;Science/ohibc/prep/lsp/vHS/int/zonal_stats_3nm.csv&#45;&gt;urn:uuid:53c74750&#45;d660&#45;479d&#45;8e59&#45;f54068835317</title>
<path fill="none" stroke="black" d="M2370.42,-150C2379.03,-150 2387.66,-150 2396.27,-150"/>
<polygon fill="black" stroke="black" points="2396.36,-153.5 2406.36,-150 2396.36,-146.5 2396.36,-153.5"/>
</g>
<!-- /Users/slaughter/git/OHI&#45;Science/ohibc/prep/lsp/vHS/spatial/howe_sound_watershed_500m.tif&#45;&gt;urn:uuid:f5d6b763&#45;c953&#45;48f4&#45;9a39&#45;4a61f45bfdd3 -->
<g id="edge7" class="edge"><title>/Users/slaughter/git/OHI&#45;Science/ohibc/prep/lsp/vHS/spatial/howe_sound_watershed_500m.tif&#45;&gt;urn:uuid:f5d6b763&#45;c953&#45;48f4&#45;9a39&#45;4a61f45bfdd3</title>
<path fill="none" stroke="black" d="M1427.92,-60.0333C1443.98,-62.6348 1459.89,-65.6064 1475.18,-69 1536.74,-82.6647 1604.6,-106.956 1651.72,-125.384"/>
<polygon fill="black" stroke="black" points="1650.57,-128.692 1661.15,-129.104 1653.13,-122.18 1650.57,-128.692"/>
</g>
<!-- /Users/slaughter/git/OHI&#45;Science/ohibc/prep/lsp/vHS/int/area_protected_ws.csv&#45;&gt;urn:uuid:4fcd5da4&#45;67af&#45;4f8d&#45;ad36&#45;c9cdf45621d4 -->
<g id="edge8" class="edge"><title>/Users/slaughter/git/OHI&#45;Science/ohibc/prep/lsp/vHS/int/area_protected_ws.csv&#45;&gt;urn:uuid:4fcd5da4&#45;67af&#45;4f8d&#45;ad36&#45;c9cdf45621d4</title>
<path fill="none" stroke="black" d="M3215.75,-185.981C3253.24,-181.519 3293.84,-176.687 3332.76,-172.056"/>
<polygon fill="black" stroke="black" points="3333.63,-175.477 3343.14,-170.819 3332.8,-168.526 3333.63,-175.477"/>
</g>
<!-- /Users/slaughter/git/OHI&#45;Science/ohibc/prep/lsp/vHS/int/zonal_stats_ws.csv&#45;&gt;urn:uuid:53c74750&#45;d660&#45;479d&#45;8e59&#45;f54068835317 -->
<g id="edge9" class="edge"><title>/Users/slaughter/git/OHI&#45;Science/ohibc/prep/lsp/vHS/int/zonal_stats_ws.csv&#45;&gt;urn:uuid:53c74750&#45;d660&#45;479d&#45;8e59&#45;f54068835317</title>
<path fill="none" stroke="black" d="M2309.68,-185.981C2346.51,-181.519 2386.38,-176.687 2424.6,-172.056"/>
<polygon fill="black" stroke="black" points="2425.3,-175.497 2434.8,-170.819 2424.45,-168.548 2425.3,-175.497"/>
</g>
<!-- /Users/slaughter/git/OHI&#45;Science/ohibc/prep/lsp/vHS/spatial/hs_wdpa_rast_500m.tif&#45;&gt;urn:uuid:f5d6b763&#45;c953&#45;48f4&#45;9a39&#45;4a61f45bfdd3 -->
<g id="edge10" class="edge"><title>/Users/slaughter/git/OHI&#45;Science/ohibc/prep/lsp/vHS/spatial/hs_wdpa_rast_500m.tif&#45;&gt;urn:uuid:f5d6b763&#45;c953&#45;48f4&#45;9a39&#45;4a61f45bfdd3</title>
<path fill="none" stroke="black" d="M1427.92,-239.967C1443.98,-237.365 1459.89,-234.394 1475.18,-231 1536.74,-217.335 1604.6,-193.044 1651.72,-174.616"/>
<polygon fill="black" stroke="black" points="1653.13,-177.82 1661.15,-170.896 1650.57,-171.308 1653.13,-177.82"/>
</g>
</g>
</svg>
