<?xml version="1.0" encoding="UTF-8" standalone="no"?>
<!DOCTYPE svg PUBLIC "-//W3C//DTD SVG 1.1//EN"
 "http://www.w3.org/Graphics/SVG/1.1/DTD/svg11.dtd">
<!-- Generated by graphviz version 2.38.0 (20140413.2041)
 -->
<!-- Title: yw_data_view Pages: 1 -->
<svg width="592pt" height="518pt"
 viewBox="0.00 0.00 592.00 517.60" xmlns="http://www.w3.org/2000/svg" xmlns:xlink="http://www.w3.org/1999/xlink">
<g id="graph0" class="graph" transform="scale(1 1) rotate(0) translate(4 513.6)">
<title>yw_data_view</title>
<polygon fill="white" stroke="none" points="-4,4 -4,-513.6 588,-513.6 588,4 -4,4"/>
<text text-anchor="middle" x="292" y="-489.4" font-family="Courier,monospace" font-size="18.00">combine_scores_for_inland_and_offshore</text>
<g id="clust1" class="cluster"><title>cluster_workflow</title>
<polygon fill="none" stroke="black" stroke-width="2" points="8,-62 8,-418 576,-418 576,-62 8,-62"/>
</g>
<g id="clust2" class="cluster"><title>cluster_workflow_inner</title>
<polygon fill="none" stroke="white" stroke-width="2" points="16,-70 16,-410 568,-410 568,-70 16,-70"/>
</g>
<g id="clust3" class="cluster"><title>cluster_inflows</title>
<polygon fill="none" stroke="white" stroke-width="2" points="269,-426 269,-472 315,-472 315,-426 269,-426"/>
</g>
<g id="clust4" class="cluster"><title>cluster_inflows_inner</title>
<polygon fill="none" stroke="white" stroke-width="2" points="277,-434 277,-464 307,-464 307,-434 277,-434"/>
</g>
<g id="clust5" class="cluster"><title>cluster_outflows</title>
<polygon fill="none" stroke="white" stroke-width="2" points="269,-8 269,-54 315,-54 315,-8 269,-8"/>
</g>
<g id="clust6" class="cluster"><title>cluster_outflows_inner</title>
<polygon fill="none" stroke="white" stroke-width="2" points="277,-16 277,-46 307,-46 307,-16 277,-16"/>
</g>
<!-- combine_scores_for_inland_and_offshore_and_write_output_layers -->
<g id="node1" class="node"><title>combine_scores_for_inland_and_offshore_and_write_output_layers</title>
<polygon fill="#ccffcc" stroke="black" points="560.213,-186 23.7867,-186 23.7867,-150 560.213,-150 560.213,-186"/>
<text text-anchor="middle" x="292" y="-163.8" font-family="Courier,monospace" font-size="14.00">combine_scores_for_inland_and_offshore_and_write_output_layers</text>
</g>
<!-- area_protected_total_file -->
<g id="node5" class="node"><title>area_protected_total_file</title>
<path fill="#ffffcc" stroke="black" d="M365.05,-114C365.05,-114 218.95,-114 218.95,-114 212.95,-114 206.95,-108 206.95,-102 206.95,-102 206.95,-90 206.95,-90 206.95,-84 212.95,-78 218.95,-78 218.95,-78 365.05,-78 365.05,-78 371.05,-78 377.05,-84 377.05,-90 377.05,-90 377.05,-102 377.05,-102 377.05,-108 371.05,-114 365.05,-114"/>
<text text-anchor="middle" x="292" y="-91.8" font-family="Helvetica,sans-Serif" font-size="14.00">area_protected_total_file</text>
</g>
<!-- combine_scores_for_inland_and_offshore_and_write_output_layers&#45;&gt;area_protected_total_file -->
<g id="edge1" class="edge"><title>combine_scores_for_inland_and_offshore_and_write_output_layers&#45;&gt;area_protected_total_file</title>
<path fill="none" stroke="black" d="M292,-149.697C292,-141.983 292,-132.712 292,-124.112"/>
<polygon fill="black" stroke="black" points="295.5,-124.104 292,-114.104 288.5,-124.104 295.5,-124.104"/>
</g>
<!-- read_in_area_weighted_average_of_inland_watershed_score -->
<g id="node2" class="node"><title>read_in_area_weighted_average_of_inland_watershed_score</title>
<polygon fill="#ccffcc" stroke="black" points="530.923,-330 53.077,-330 53.077,-294 530.923,-294 530.923,-330"/>
<text text-anchor="middle" x="292" y="-307.8" font-family="Courier,monospace" font-size="14.00">read_in_area_weighted_average_of_inland_watershed_score</text>
</g>
<!-- prot_ws -->
<g id="node4" class="node"><title>prot_ws</title>
<path fill="#ffffcc" stroke="black" d="M312.506,-258C312.506,-258 271.494,-258 271.494,-258 265.494,-258 259.494,-252 259.494,-246 259.494,-246 259.494,-234 259.494,-234 259.494,-228 265.494,-222 271.494,-222 271.494,-222 312.506,-222 312.506,-222 318.506,-222 324.506,-228 324.506,-234 324.506,-234 324.506,-246 324.506,-246 324.506,-252 318.506,-258 312.506,-258"/>
<text text-anchor="middle" x="292" y="-235.8" font-family="Helvetica,sans-Serif" font-size="14.00">prot_ws</text>
</g>
<!-- read_in_area_weighted_average_of_inland_watershed_score&#45;&gt;prot_ws -->
<g id="edge2" class="edge"><title>read_in_area_weighted_average_of_inland_watershed_score&#45;&gt;prot_ws</title>
<path fill="none" stroke="black" d="M292,-293.697C292,-285.983 292,-276.712 292,-268.112"/>
<polygon fill="black" stroke="black" points="295.5,-268.104 292,-258.104 288.5,-268.104 295.5,-268.104"/>
</g>
<!-- prot_ws_stats_file -->
<g id="node3" class="node"><title>prot_ws_stats_file</title>
<path fill="#ffffcc" stroke="black" d="M344.021,-402C344.021,-402 239.979,-402 239.979,-402 233.979,-402 227.979,-396 227.979,-390 227.979,-390 227.979,-378 227.979,-378 227.979,-372 233.979,-366 239.979,-366 239.979,-366 344.021,-366 344.021,-366 350.021,-366 356.021,-372 356.021,-378 356.021,-378 356.021,-390 356.021,-390 356.021,-396 350.021,-402 344.021,-402"/>
<text text-anchor="middle" x="292" y="-379.8" font-family="Helvetica,sans-Serif" font-size="14.00">prot_ws_stats_file</text>
</g>
<!-- prot_ws_stats_file&#45;&gt;read_in_area_weighted_average_of_inland_watershed_score -->
<g id="edge3" class="edge"><title>prot_ws_stats_file&#45;&gt;read_in_area_weighted_average_of_inland_watershed_score</title>
<path fill="none" stroke="black" d="M292,-365.697C292,-357.983 292,-348.712 292,-340.112"/>
<polygon fill="black" stroke="black" points="295.5,-340.104 292,-330.104 288.5,-340.104 295.5,-340.104"/>
</g>
<!-- prot_ws&#45;&gt;combine_scores_for_inland_and_offshore_and_write_output_layers -->
<g id="edge4" class="edge"><title>prot_ws&#45;&gt;combine_scores_for_inland_and_offshore_and_write_output_layers</title>
<path fill="none" stroke="black" d="M292,-221.697C292,-213.983 292,-204.712 292,-196.112"/>
<polygon fill="black" stroke="black" points="295.5,-196.104 292,-186.104 288.5,-196.104 295.5,-196.104"/>
</g>
<!-- area_protected_total_file_outflow -->
<g id="node7" class="node"><title>area_protected_total_file_outflow</title>
<ellipse fill="none" stroke="black" cx="292" cy="-31" rx="7" ry="7"/>
</g>
<!-- area_protected_total_file&#45;&gt;area_protected_total_file_outflow -->
<g id="edge6" class="edge"><title>area_protected_total_file&#45;&gt;area_protected_total_file_outflow</title>
<path fill="none" stroke="black" d="M292,-77.785C292,-68.6656 292,-57.5197 292,-48.5085"/>
<polygon fill="black" stroke="black" points="295.5,-48.242 292,-38.242 288.5,-48.2421 295.5,-48.242"/>
</g>
<!-- prot_ws_stats_file_inflow -->
<g id="node6" class="node"><title>prot_ws_stats_file_inflow</title>
<ellipse fill="none" stroke="black" cx="292" cy="-449" rx="7" ry="7"/>
</g>
<!-- prot_ws_stats_file_inflow&#45;&gt;prot_ws_stats_file -->
<g id="edge5" class="edge"><title>prot_ws_stats_file_inflow&#45;&gt;prot_ws_stats_file</title>
<path fill="none" stroke="black" d="M292,-441.729C292,-434.795 292,-423.154 292,-412.215"/>
<polygon fill="black" stroke="black" points="295.5,-412.119 292,-402.119 288.5,-412.119 295.5,-412.119"/>
</g>
</g>
</svg>
