<?xml version="1.0" encoding="UTF-8" standalone="no"?>
<!DOCTYPE svg PUBLIC "-//W3C//DTD SVG 1.1//EN"
 "http://www.w3.org/Graphics/SVG/1.1/DTD/svg11.dtd">
<!-- Generated by graphviz version 2.38.0 (20140413.2041)
 -->
<!-- Title: rm_data_view Pages: 1 -->
<svg width="4982pt" height="982pt"
 viewBox="0.00 0.00 4982.00 982.00" xmlns="http://www.w3.org/2000/svg" xmlns:xlink="http://www.w3.org/1999/xlink">
<g id="graph0" class="graph" transform="scale(1 1) rotate(0) translate(4 978)">
<title>rm_data_view</title>
<polygon fill="white" stroke="none" points="-4,4 -4,-978 4978,-978 4978,4 -4,4"/>
<text text-anchor="middle" x="2487" y="-953.8" font-family="Courier,monospace" font-size="18.00">multiple_runs</text>
<g id="clust1" class="cluster"><title>cluster_workflow</title>
<polygon fill="none" stroke="black" stroke-width="2" points="8,-8 8,-936.4 4966,-936.4 4966,-8 8,-8"/>
</g>
<g id="clust2" class="cluster"><title>cluster_workflow_inner</title>
<polygon fill="none" stroke="white" stroke-width="2" points="16,-16 16,-928.4 4958,-928.4 4958,-16 16,-16"/>
</g>
<!-- urn:uuid:528959d1&#45;d66d&#45;4ec7&#45;9dd6&#45;81deafbb4c47 -->
<g id="node1" class="node"><title>urn:uuid:528959d1&#45;d66d&#45;4ec7&#45;9dd6&#45;81deafbb4c47</title>
<polygon fill="black" stroke="black" points="4388.05,-861.5 4388.05,-919.9 4949.95,-919.9 4949.95,-861.5 4388.05,-861.5"/>
<text text-anchor="middle" x="4669" y="-903.3" font-family="Courier,monospace" font-weight="bold" font-size="14.00" fill="white">ohibc run 1 </text>
<text text-anchor="middle" x="4669" y="-886.5" font-family="Courier,monospace" font-weight="bold" font-size="14.00" fill="white"> /Users/slaughter/git/OHI&#45;Science/ohibc/setup_BC_WDPA_polygons.R </text>
<text text-anchor="middle" x="4669" y="-869.7" font-family="Courier,monospace" font-weight="bold" font-size="14.00" fill="white"> urn:uuid:528959d1&#45;d66d&#45;4ec7&#45;9dd6&#45;81deafbb4c47</text>
</g>
<!-- urn:uuid:21be88bf&#45;e44e&#45;44c8&#45;bc98&#45;f08657fd1aa3 -->
<g id="node2" class="node"><title>urn:uuid:21be88bf&#45;e44e&#45;44c8&#45;bc98&#45;f08657fd1aa3</title>
<polygon fill="black" stroke="black" points="3646.24,-766.1 3646.24,-824.5 4199.76,-824.5 4199.76,-766.1 3646.24,-766.1"/>
<text text-anchor="middle" x="3923" y="-807.9" font-family="Courier,monospace" font-weight="bold" font-size="14.00" fill="white">ohibc run 1 </text>
<text text-anchor="middle" x="3923" y="-791.1" font-family="Courier,monospace" font-weight="bold" font-size="14.00" fill="white"> /Users/slaughter/git/OHI&#45;Science/ohibc/setup_BC_PEP_polygons.R </text>
<text text-anchor="middle" x="3923" y="-774.3" font-family="Courier,monospace" font-weight="bold" font-size="14.00" fill="white"> urn:uuid:21be88bf&#45;e44e&#45;44c8&#45;bc98&#45;f08657fd1aa3</text>
</g>
<!-- /Users/slaughter/git/OHI&#45;Science/ohibc/prep/lsp/vHS/spatial/hs_pep_poly.shp -->
<g id="node12" class="node"><title>/Users/slaughter/git/OHI&#45;Science/ohibc/prep/lsp/vHS/spatial/hs_pep_poly.shp</title>
<path fill="#ffe4b5" stroke="black" d="M4121.43,-729.6C4121.43,-729.6 3724.57,-729.6 3724.57,-729.6 3718.57,-729.6 3712.57,-723.6 3712.57,-717.6 3712.57,-717.6 3712.57,-705.6 3712.57,-705.6 3712.57,-699.6 3718.57,-693.6 3724.57,-693.6 3724.57,-693.6 4121.43,-693.6 4121.43,-693.6 4127.43,-693.6 4133.43,-699.6 4133.43,-705.6 4133.43,-705.6 4133.43,-717.6 4133.43,-717.6 4133.43,-723.6 4127.43,-729.6 4121.43,-729.6"/>
<text text-anchor="middle" x="3923" y="-708.9" font-family="Courier,monospace" font-weight="bold" font-size="9.00">/Users/slaughter/git/OHI&#45;Science/ohibc/prep/lsp/vHS/spatial/hs_pep_poly.shp</text>
</g>
<!-- urn:uuid:21be88bf&#45;e44e&#45;44c8&#45;bc98&#45;f08657fd1aa3&#45;&gt;/Users/slaughter/git/OHI&#45;Science/ohibc/prep/lsp/vHS/spatial/hs_pep_poly.shp -->
<g id="edge18" class="edge"><title>urn:uuid:21be88bf&#45;e44e&#45;44c8&#45;bc98&#45;f08657fd1aa3&#45;&gt;/Users/slaughter/git/OHI&#45;Science/ohibc/prep/lsp/vHS/spatial/hs_pep_poly.shp</title>
<path fill="none" stroke="black" d="M3923,-765.725C3923,-757.407 3923,-748.339 3923,-740.089"/>
<polygon fill="black" stroke="black" points="3926.5,-739.845 3923,-729.845 3919.5,-739.845 3926.5,-739.845"/>
</g>
<!-- urn:uuid:98b5270a&#45;1577&#45;4865&#45;970f&#45;17c6b0065374 -->
<g id="node3" class="node"><title>urn:uuid:98b5270a&#45;1577&#45;4865&#45;970f&#45;17c6b0065374</title>
<polygon fill="black" stroke="black" points="1572.45,-766.1 1572.45,-824.5 2159.55,-824.5 2159.55,-766.1 1572.45,-766.1"/>
<text text-anchor="middle" x="1866" y="-807.9" font-family="Courier,monospace" font-weight="bold" font-size="14.00" fill="white">ohibc run 1 </text>
<text text-anchor="middle" x="1866" y="-791.1" font-family="Courier,monospace" font-weight="bold" font-size="14.00" fill="white"> /Users/slaughter/git/OHI&#45;Science/ohibc/rasterize_HS_WDPA_and_PEP.R </text>
<text text-anchor="middle" x="1866" y="-774.3" font-family="Courier,monospace" font-weight="bold" font-size="14.00" fill="white"> urn:uuid:98b5270a&#45;1577&#45;4865&#45;970f&#45;17c6b0065374</text>
</g>
<!-- /Users/slaughter/git/OHI&#45;Science/ohibc/prep/lsp/vHS/spatial/hs_wdpa_rast_500m.tif -->
<g id="node15" class="node"><title>/Users/slaughter/git/OHI&#45;Science/ohibc/prep/lsp/vHS/spatial/hs_wdpa_rast_500m.tif</title>
<path fill="#ffe4b5" stroke="black" d="M1611.83,-729.6C1611.83,-729.6 1182.17,-729.6 1182.17,-729.6 1176.17,-729.6 1170.17,-723.6 1170.17,-717.6 1170.17,-717.6 1170.17,-705.6 1170.17,-705.6 1170.17,-699.6 1176.17,-693.6 1182.17,-693.6 1182.17,-693.6 1611.83,-693.6 1611.83,-693.6 1617.83,-693.6 1623.83,-699.6 1623.83,-705.6 1623.83,-705.6 1623.83,-717.6 1623.83,-717.6 1623.83,-723.6 1617.83,-729.6 1611.83,-729.6"/>
<text text-anchor="middle" x="1397" y="-708.9" font-family="Courier,monospace" font-weight="bold" font-size="9.00">/Users/slaughter/git/OHI&#45;Science/ohibc/prep/lsp/vHS/spatial/hs_wdpa_rast_500m.tif</text>
</g>
<!-- urn:uuid:98b5270a&#45;1577&#45;4865&#45;970f&#45;17c6b0065374&#45;&gt;/Users/slaughter/git/OHI&#45;Science/ohibc/prep/lsp/vHS/spatial/hs_wdpa_rast_500m.tif -->
<g id="edge19" class="edge"><title>urn:uuid:98b5270a&#45;1577&#45;4865&#45;970f&#45;17c6b0065374&#45;&gt;/Users/slaughter/git/OHI&#45;Science/ohibc/prep/lsp/vHS/spatial/hs_wdpa_rast_500m.tif</title>
<path fill="none" stroke="black" d="M1703.94,-766.069C1638.11,-754.602 1563.84,-741.664 1504.85,-731.387"/>
<polygon fill="black" stroke="black" points="1505.22,-727.899 1494.77,-729.631 1504.02,-734.796 1505.22,-727.899"/>
</g>
<!-- /Users/slaughter/git/OHI&#45;Science/ohibc/prep/lsp/vHS/spatial/hs_pep_rast_500m.tif -->
<g id="node16" class="node"><title>/Users/slaughter/git/OHI&#45;Science/ohibc/prep/lsp/vHS/spatial/hs_pep_rast_500m.tif</title>
<path fill="#ffe4b5" stroke="black" d="M2077.93,-729.6C2077.93,-729.6 1654.07,-729.6 1654.07,-729.6 1648.07,-729.6 1642.07,-723.6 1642.07,-717.6 1642.07,-717.6 1642.07,-705.6 1642.07,-705.6 1642.07,-699.6 1648.07,-693.6 1654.07,-693.6 1654.07,-693.6 2077.93,-693.6 2077.93,-693.6 2083.93,-693.6 2089.93,-699.6 2089.93,-705.6 2089.93,-705.6 2089.93,-717.6 2089.93,-717.6 2089.93,-723.6 2083.93,-729.6 2077.93,-729.6"/>
<text text-anchor="middle" x="1866" y="-708.9" font-family="Courier,monospace" font-weight="bold" font-size="9.00">/Users/slaughter/git/OHI&#45;Science/ohibc/prep/lsp/vHS/spatial/hs_pep_rast_500m.tif</text>
</g>
<!-- urn:uuid:98b5270a&#45;1577&#45;4865&#45;970f&#45;17c6b0065374&#45;&gt;/Users/slaughter/git/OHI&#45;Science/ohibc/prep/lsp/vHS/spatial/hs_pep_rast_500m.tif -->
<g id="edge20" class="edge"><title>urn:uuid:98b5270a&#45;1577&#45;4865&#45;970f&#45;17c6b0065374&#45;&gt;/Users/slaughter/git/OHI&#45;Science/ohibc/prep/lsp/vHS/spatial/hs_pep_rast_500m.tif</title>
<path fill="none" stroke="black" d="M1866,-765.725C1866,-757.407 1866,-748.339 1866,-740.089"/>
<polygon fill="black" stroke="black" points="1869.5,-739.845 1866,-729.845 1862.5,-739.845 1869.5,-739.845"/>
</g>
<!-- urn:uuid:3d6c8ed0&#45;83c0&#45;4b12&#45;9154&#45;2804f4317598 -->
<g id="node4" class="node"><title>urn:uuid:3d6c8ed0&#45;83c0&#45;4b12&#45;9154&#45;2804f4317598</title>
<polygon fill="black" stroke="black" points="2502.44,-766.1 2502.44,-824.5 3047.56,-824.5 3047.56,-766.1 2502.44,-766.1"/>
<text text-anchor="middle" x="2775" y="-807.9" font-family="Courier,monospace" font-weight="bold" font-size="14.00" fill="white">ohibc run 1 </text>
<text text-anchor="middle" x="2775" y="-791.1" font-family="Courier,monospace" font-weight="bold" font-size="14.00" fill="white"> /Users/slaughter/git/OHI&#45;Science/ohibc/get_analysis_rasters.R </text>
<text text-anchor="middle" x="2775" y="-774.3" font-family="Courier,monospace" font-weight="bold" font-size="14.00" fill="white"> urn:uuid:3d6c8ed0&#45;83c0&#45;4b12&#45;9154&#45;2804f4317598</text>
</g>
<!-- /Users/slaughter/git/OHI&#45;Science/ohibc/prep/lsp/vHS/spatial/hs_inland_1km_raster_500m.tif -->
<g id="node18" class="node"><title>/Users/slaughter/git/OHI&#45;Science/ohibc/prep/lsp/vHS/spatial/hs_inland_1km_raster_500m.tif</title>
<path fill="#ffe4b5" stroke="black" d="M2592.02,-729.6C2592.02,-729.6 2119.98,-729.6 2119.98,-729.6 2113.98,-729.6 2107.98,-723.6 2107.98,-717.6 2107.98,-717.6 2107.98,-705.6 2107.98,-705.6 2107.98,-699.6 2113.98,-693.6 2119.98,-693.6 2119.98,-693.6 2592.02,-693.6 2592.02,-693.6 2598.02,-693.6 2604.02,-699.6 2604.02,-705.6 2604.02,-705.6 2604.02,-717.6 2604.02,-717.6 2604.02,-723.6 2598.02,-729.6 2592.02,-729.6"/>
<text text-anchor="middle" x="2356" y="-708.9" font-family="Courier,monospace" font-weight="bold" font-size="9.00">/Users/slaughter/git/OHI&#45;Science/ohibc/prep/lsp/vHS/spatial/hs_inland_1km_raster_500m.tif</text>
</g>
<!-- urn:uuid:3d6c8ed0&#45;83c0&#45;4b12&#45;9154&#45;2804f4317598&#45;&gt;/Users/slaughter/git/OHI&#45;Science/ohibc/prep/lsp/vHS/spatial/hs_inland_1km_raster_500m.tif -->
<g id="edge21" class="edge"><title>urn:uuid:3d6c8ed0&#45;83c0&#45;4b12&#45;9154&#45;2804f4317598&#45;&gt;/Users/slaughter/git/OHI&#45;Science/ohibc/prep/lsp/vHS/spatial/hs_inland_1km_raster_500m.tif</title>
<path fill="none" stroke="black" d="M2630.22,-766.069C2571.77,-754.673 2505.88,-741.824 2453.33,-731.579"/>
<polygon fill="black" stroke="black" points="2453.83,-728.11 2443.35,-729.631 2452.49,-734.98 2453.83,-728.11"/>
</g>
<!-- /Users/slaughter/git/OHI&#45;Science/ohibc/prep/lsp/vHS/spatial/hs_offshore_3nm_raster_500m.tif -->
<g id="node19" class="node"><title>/Users/slaughter/git/OHI&#45;Science/ohibc/prep/lsp/vHS/spatial/hs_offshore_3nm_raster_500m.tif</title>
<path fill="#ffe4b5" stroke="black" d="M3117.82,-729.6C3117.82,-729.6 2634.18,-729.6 2634.18,-729.6 2628.18,-729.6 2622.18,-723.6 2622.18,-717.6 2622.18,-717.6 2622.18,-705.6 2622.18,-705.6 2622.18,-699.6 2628.18,-693.6 2634.18,-693.6 2634.18,-693.6 3117.82,-693.6 3117.82,-693.6 3123.82,-693.6 3129.82,-699.6 3129.82,-705.6 3129.82,-705.6 3129.82,-717.6 3129.82,-717.6 3129.82,-723.6 3123.82,-729.6 3117.82,-729.6"/>
<text text-anchor="middle" x="2876" y="-708.9" font-family="Courier,monospace" font-weight="bold" font-size="9.00">/Users/slaughter/git/OHI&#45;Science/ohibc/prep/lsp/vHS/spatial/hs_offshore_3nm_raster_500m.tif</text>
</g>
<!-- urn:uuid:3d6c8ed0&#45;83c0&#45;4b12&#45;9154&#45;2804f4317598&#45;&gt;/Users/slaughter/git/OHI&#45;Science/ohibc/prep/lsp/vHS/spatial/hs_offshore_3nm_raster_500m.tif -->
<g id="edge22" class="edge"><title>urn:uuid:3d6c8ed0&#45;83c0&#45;4b12&#45;9154&#45;2804f4317598&#45;&gt;/Users/slaughter/git/OHI&#45;Science/ohibc/prep/lsp/vHS/spatial/hs_offshore_3nm_raster_500m.tif</title>
<path fill="none" stroke="black" d="M2810.04,-765.955C2822.05,-756.238 2835.36,-745.477 2846.85,-736.179"/>
<polygon fill="black" stroke="black" points="2849.28,-738.713 2854.86,-729.703 2844.88,-733.271 2849.28,-738.713"/>
</g>
<!-- urn:uuid:167b320e&#45;9143&#45;4084&#45;882e&#45;7d19914767c0 -->
<g id="node5" class="node"><title>urn:uuid:167b320e&#45;9143&#45;4084&#45;882e&#45;7d19914767c0</title>
<polygon fill="black" stroke="black" points="3066.05,-766.1 3066.05,-824.5 3627.95,-824.5 3627.95,-766.1 3066.05,-766.1"/>
<text text-anchor="middle" x="3347" y="-807.9" font-family="Courier,monospace" font-weight="bold" font-size="14.00" fill="white">ohibc run 1 </text>
<text text-anchor="middle" x="3347" y="-791.1" font-family="Courier,monospace" font-weight="bold" font-size="14.00" fill="white"> /Users/slaughter/git/OHI&#45;Science/ohibc/setup_watershed_raster.R </text>
<text text-anchor="middle" x="3347" y="-774.3" font-family="Courier,monospace" font-weight="bold" font-size="14.00" fill="white"> urn:uuid:167b320e&#45;9143&#45;4084&#45;882e&#45;7d19914767c0</text>
</g>
<!-- /Users/slaughter/git/OHI&#45;Science/ohibc/prep/lsp/vHS/spatial/howe_sound_watershed_500m.tif -->
<g id="node21" class="node"><title>/Users/slaughter/git/OHI&#45;Science/ohibc/prep/lsp/vHS/spatial/howe_sound_watershed_500m.tif</title>
<path fill="#ffe4b5" stroke="black" d="M3632.02,-729.6C3632.02,-729.6 3159.98,-729.6 3159.98,-729.6 3153.98,-729.6 3147.98,-723.6 3147.98,-717.6 3147.98,-717.6 3147.98,-705.6 3147.98,-705.6 3147.98,-699.6 3153.98,-693.6 3159.98,-693.6 3159.98,-693.6 3632.02,-693.6 3632.02,-693.6 3638.02,-693.6 3644.02,-699.6 3644.02,-705.6 3644.02,-705.6 3644.02,-717.6 3644.02,-717.6 3644.02,-723.6 3638.02,-729.6 3632.02,-729.6"/>
<text text-anchor="middle" x="3396" y="-708.9" font-family="Courier,monospace" font-weight="bold" font-size="9.00">/Users/slaughter/git/OHI&#45;Science/ohibc/prep/lsp/vHS/spatial/howe_sound_watershed_500m.tif</text>
</g>
<!-- urn:uuid:167b320e&#45;9143&#45;4084&#45;882e&#45;7d19914767c0&#45;&gt;/Users/slaughter/git/OHI&#45;Science/ohibc/prep/lsp/vHS/spatial/howe_sound_watershed_500m.tif -->
<g id="edge23" class="edge"><title>urn:uuid:167b320e&#45;9143&#45;4084&#45;882e&#45;7d19914767c0&#45;&gt;/Users/slaughter/git/OHI&#45;Science/ohibc/prep/lsp/vHS/spatial/howe_sound_watershed_500m.tif</title>
<path fill="none" stroke="black" d="M3364.14,-765.725C3369.46,-756.846 3375.3,-747.113 3380.51,-738.432"/>
<polygon fill="black" stroke="black" points="3383.52,-740.221 3385.66,-729.845 3377.51,-736.621 3383.52,-740.221"/>
</g>
<!-- urn:uuid:f5d6b763&#45;c953&#45;48f4&#45;9a39&#45;4a61f45bfdd3 -->
<g id="node6" class="node"><title>urn:uuid:f5d6b763&#45;c953&#45;48f4&#45;9a39&#45;4a61f45bfdd3</title>
<polygon fill="black" stroke="black" points="2104.44,-598.7 2104.44,-657.1 2607.56,-657.1 2607.56,-598.7 2104.44,-598.7"/>
<text text-anchor="middle" x="2356" y="-640.5" font-family="Courier,monospace" font-weight="bold" font-size="14.00" fill="white">ohibc run 1 </text>
<text text-anchor="middle" x="2356" y="-623.7" font-family="Courier,monospace" font-weight="bold" font-size="14.00" fill="white"> /Users/slaughter/git/OHI&#45;Science/ohibc/lsp_zonal_stats.R </text>
<text text-anchor="middle" x="2356" y="-606.9" font-family="Courier,monospace" font-weight="bold" font-size="14.00" fill="white"> urn:uuid:f5d6b763&#45;c953&#45;48f4&#45;9a39&#45;4a61f45bfdd3</text>
</g>
<!-- /Users/slaughter/git/OHI&#45;Science/ohibc/prep/lsp/vHS/int/zonal_stats_3nm.csv -->
<g id="node23" class="node"><title>/Users/slaughter/git/OHI&#45;Science/ohibc/prep/lsp/vHS/int/zonal_stats_3nm.csv</title>
<path fill="#ffe4b5" stroke="black" d="M2115.43,-562.2C2115.43,-562.2 1718.57,-562.2 1718.57,-562.2 1712.57,-562.2 1706.57,-556.2 1706.57,-550.2 1706.57,-550.2 1706.57,-538.2 1706.57,-538.2 1706.57,-532.2 1712.57,-526.2 1718.57,-526.2 1718.57,-526.2 2115.43,-526.2 2115.43,-526.2 2121.43,-526.2 2127.43,-532.2 2127.43,-538.2 2127.43,-538.2 2127.43,-550.2 2127.43,-550.2 2127.43,-556.2 2121.43,-562.2 2115.43,-562.2"/>
<text text-anchor="middle" x="1917" y="-541.5" font-family="Courier,monospace" font-weight="bold" font-size="9.00">/Users/slaughter/git/OHI&#45;Science/ohibc/prep/lsp/vHS/int/zonal_stats_3nm.csv</text>
</g>
<!-- urn:uuid:f5d6b763&#45;c953&#45;48f4&#45;9a39&#45;4a61f45bfdd3&#45;&gt;/Users/slaughter/git/OHI&#45;Science/ohibc/prep/lsp/vHS/int/zonal_stats_3nm.csv -->
<g id="edge24" class="edge"><title>urn:uuid:f5d6b763&#45;c953&#45;48f4&#45;9a39&#45;4a61f45bfdd3&#45;&gt;/Users/slaughter/git/OHI&#45;Science/ohibc/prep/lsp/vHS/int/zonal_stats_3nm.csv</title>
<path fill="none" stroke="black" d="M2204.31,-598.669C2142.95,-587.249 2073.74,-574.371 2018.64,-564.115"/>
<polygon fill="black" stroke="black" points="2018.99,-560.62 2008.51,-562.231 2017.71,-567.502 2018.99,-560.62"/>
</g>
<!-- /Users/slaughter/git/OHI&#45;Science/ohibc/prep/lsp/vHS/int/zonal_stats_1km.csv -->
<g id="node24" class="node"><title>/Users/slaughter/git/OHI&#45;Science/ohibc/prep/lsp/vHS/int/zonal_stats_1km.csv</title>
<path fill="#ffe4b5" stroke="black" d="M2554.43,-562.2C2554.43,-562.2 2157.57,-562.2 2157.57,-562.2 2151.57,-562.2 2145.57,-556.2 2145.57,-550.2 2145.57,-550.2 2145.57,-538.2 2145.57,-538.2 2145.57,-532.2 2151.57,-526.2 2157.57,-526.2 2157.57,-526.2 2554.43,-526.2 2554.43,-526.2 2560.43,-526.2 2566.43,-532.2 2566.43,-538.2 2566.43,-538.2 2566.43,-550.2 2566.43,-550.2 2566.43,-556.2 2560.43,-562.2 2554.43,-562.2"/>
<text text-anchor="middle" x="2356" y="-541.5" font-family="Courier,monospace" font-weight="bold" font-size="9.00">/Users/slaughter/git/OHI&#45;Science/ohibc/prep/lsp/vHS/int/zonal_stats_1km.csv</text>
</g>
<!-- urn:uuid:f5d6b763&#45;c953&#45;48f4&#45;9a39&#45;4a61f45bfdd3&#45;&gt;/Users/slaughter/git/OHI&#45;Science/ohibc/prep/lsp/vHS/int/zonal_stats_1km.csv -->
<g id="edge25" class="edge"><title>urn:uuid:f5d6b763&#45;c953&#45;48f4&#45;9a39&#45;4a61f45bfdd3&#45;&gt;/Users/slaughter/git/OHI&#45;Science/ohibc/prep/lsp/vHS/int/zonal_stats_1km.csv</title>
<path fill="none" stroke="black" d="M2356,-598.325C2356,-590.007 2356,-580.939 2356,-572.689"/>
<polygon fill="black" stroke="black" points="2359.5,-572.445 2356,-562.445 2352.5,-572.445 2359.5,-572.445"/>
</g>
<!-- /Users/slaughter/git/OHI&#45;Science/ohibc/prep/lsp/vHS/int/zonal_stats_ws.csv -->
<g id="node25" class="node"><title>/Users/slaughter/git/OHI&#45;Science/ohibc/prep/lsp/vHS/int/zonal_stats_ws.csv</title>
<path fill="#ffe4b5" stroke="black" d="M2987.53,-562.2C2987.53,-562.2 2596.47,-562.2 2596.47,-562.2 2590.47,-562.2 2584.47,-556.2 2584.47,-550.2 2584.47,-550.2 2584.47,-538.2 2584.47,-538.2 2584.47,-532.2 2590.47,-526.2 2596.47,-526.2 2596.47,-526.2 2987.53,-526.2 2987.53,-526.2 2993.53,-526.2 2999.53,-532.2 2999.53,-538.2 2999.53,-538.2 2999.53,-550.2 2999.53,-550.2 2999.53,-556.2 2993.53,-562.2 2987.53,-562.2"/>
<text text-anchor="middle" x="2792" y="-541.5" font-family="Courier,monospace" font-weight="bold" font-size="9.00">/Users/slaughter/git/OHI&#45;Science/ohibc/prep/lsp/vHS/int/zonal_stats_ws.csv</text>
</g>
<!-- urn:uuid:f5d6b763&#45;c953&#45;48f4&#45;9a39&#45;4a61f45bfdd3&#45;&gt;/Users/slaughter/git/OHI&#45;Science/ohibc/prep/lsp/vHS/int/zonal_stats_ws.csv -->
<g id="edge26" class="edge"><title>urn:uuid:f5d6b763&#45;c953&#45;48f4&#45;9a39&#45;4a61f45bfdd3&#45;&gt;/Users/slaughter/git/OHI&#45;Science/ohibc/prep/lsp/vHS/int/zonal_stats_ws.csv</title>
<path fill="none" stroke="black" d="M2506.66,-598.669C2567.6,-587.249 2636.33,-574.371 2691.06,-564.115"/>
<polygon fill="black" stroke="black" points="2691.93,-567.513 2701.11,-562.231 2690.64,-560.633 2691.93,-567.513"/>
</g>
<!-- urn:uuid:53c74750&#45;d660&#45;479d&#45;8e59&#45;f54068835317 -->
<g id="node7" class="node"><title>urn:uuid:53c74750&#45;d660&#45;479d&#45;8e59&#45;f54068835317</title>
<polygon fill="black" stroke="black" points="2079.24,-431.3 2079.24,-489.7 2632.76,-489.7 2632.76,-431.3 2079.24,-431.3"/>
<text text-anchor="middle" x="2356" y="-473.1" font-family="Courier,monospace" font-weight="bold" font-size="14.00" fill="white">ohibc run 1 </text>
<text text-anchor="middle" x="2356" y="-456.3" font-family="Courier,monospace" font-weight="bold" font-size="14.00" fill="white"> /Users/slaughter/git/OHI&#45;Science/ohibc/summarize_zonal_stats.R </text>
<text text-anchor="middle" x="2356" y="-439.5" font-family="Courier,monospace" font-weight="bold" font-size="14.00" fill="white"> urn:uuid:53c74750&#45;d660&#45;479d&#45;8e59&#45;f54068835317</text>
</g>
<!-- /Users/slaughter/git/OHI&#45;Science/ohibc/prep/lsp/vHS/int/area_protected_ws.csv -->
<g id="node27" class="node"><title>/Users/slaughter/git/OHI&#45;Science/ohibc/prep/lsp/vHS/int/area_protected_ws.csv</title>
<path fill="#ffe4b5" stroke="black" d="M2107.73,-394.8C2107.73,-394.8 1700.27,-394.8 1700.27,-394.8 1694.27,-394.8 1688.27,-388.8 1688.27,-382.8 1688.27,-382.8 1688.27,-370.8 1688.27,-370.8 1688.27,-364.8 1694.27,-358.8 1700.27,-358.8 1700.27,-358.8 2107.73,-358.8 2107.73,-358.8 2113.73,-358.8 2119.73,-364.8 2119.73,-370.8 2119.73,-370.8 2119.73,-382.8 2119.73,-382.8 2119.73,-388.8 2113.73,-394.8 2107.73,-394.8"/>
<text text-anchor="middle" x="1904" y="-374.1" font-family="Courier,monospace" font-weight="bold" font-size="9.00">/Users/slaughter/git/OHI&#45;Science/ohibc/prep/lsp/vHS/int/area_protected_ws.csv</text>
</g>
<!-- urn:uuid:53c74750&#45;d660&#45;479d&#45;8e59&#45;f54068835317&#45;&gt;/Users/slaughter/git/OHI&#45;Science/ohibc/prep/lsp/vHS/int/area_protected_ws.csv -->
<g id="edge27" class="edge"><title>urn:uuid:53c74750&#45;d660&#45;479d&#45;8e59&#45;f54068835317&#45;&gt;/Users/slaughter/git/OHI&#45;Science/ohibc/prep/lsp/vHS/int/area_protected_ws.csv</title>
<path fill="none" stroke="black" d="M2199.81,-431.269C2136.5,-419.826 2065.09,-406.917 2008.29,-396.651"/>
<polygon fill="black" stroke="black" points="2008.69,-393.166 1998.22,-394.831 2007.44,-400.054 2008.69,-393.166"/>
</g>
<!-- /Users/slaughter/git/OHI&#45;Science/ohibc/prep/lsp/vHS/int/area_protected_3nm.csv -->
<g id="node28" class="node"><title>/Users/slaughter/git/OHI&#45;Science/ohibc/prep/lsp/vHS/int/area_protected_3nm.csv</title>
<path fill="#ffe4b5" stroke="black" d="M2562.63,-394.8C2562.63,-394.8 2149.37,-394.8 2149.37,-394.8 2143.37,-394.8 2137.37,-388.8 2137.37,-382.8 2137.37,-382.8 2137.37,-370.8 2137.37,-370.8 2137.37,-364.8 2143.37,-358.8 2149.37,-358.8 2149.37,-358.8 2562.63,-358.8 2562.63,-358.8 2568.63,-358.8 2574.63,-364.8 2574.63,-370.8 2574.63,-370.8 2574.63,-382.8 2574.63,-382.8 2574.63,-388.8 2568.63,-394.8 2562.63,-394.8"/>
<text text-anchor="middle" x="2356" y="-374.1" font-family="Courier,monospace" font-weight="bold" font-size="9.00">/Users/slaughter/git/OHI&#45;Science/ohibc/prep/lsp/vHS/int/area_protected_3nm.csv</text>
</g>
<!-- urn:uuid:53c74750&#45;d660&#45;479d&#45;8e59&#45;f54068835317&#45;&gt;/Users/slaughter/git/OHI&#45;Science/ohibc/prep/lsp/vHS/int/area_protected_3nm.csv -->
<g id="edge28" class="edge"><title>urn:uuid:53c74750&#45;d660&#45;479d&#45;8e59&#45;f54068835317&#45;&gt;/Users/slaughter/git/OHI&#45;Science/ohibc/prep/lsp/vHS/int/area_protected_3nm.csv</title>
<path fill="none" stroke="black" d="M2356,-430.925C2356,-422.607 2356,-413.539 2356,-405.289"/>
<polygon fill="black" stroke="black" points="2359.5,-405.045 2356,-395.045 2352.5,-405.045 2359.5,-405.045"/>
</g>
<!-- /Users/slaughter/git/OHI&#45;Science/ohibc/prep/lsp/vHS/int/area_protected_1km.csv -->
<g id="node29" class="node"><title>/Users/slaughter/git/OHI&#45;Science/ohibc/prep/lsp/vHS/int/area_protected_1km.csv</title>
<path fill="#ffe4b5" stroke="black" d="M3017.63,-394.8C3017.63,-394.8 2604.37,-394.8 2604.37,-394.8 2598.37,-394.8 2592.37,-388.8 2592.37,-382.8 2592.37,-382.8 2592.37,-370.8 2592.37,-370.8 2592.37,-364.8 2598.37,-358.8 2604.37,-358.8 2604.37,-358.8 3017.63,-358.8 3017.63,-358.8 3023.63,-358.8 3029.63,-364.8 3029.63,-370.8 3029.63,-370.8 3029.63,-382.8 3029.63,-382.8 3029.63,-388.8 3023.63,-394.8 3017.63,-394.8"/>
<text text-anchor="middle" x="2811" y="-374.1" font-family="Courier,monospace" font-weight="bold" font-size="9.00">/Users/slaughter/git/OHI&#45;Science/ohibc/prep/lsp/vHS/int/area_protected_1km.csv</text>
</g>
<!-- urn:uuid:53c74750&#45;d660&#45;479d&#45;8e59&#45;f54068835317&#45;&gt;/Users/slaughter/git/OHI&#45;Science/ohibc/prep/lsp/vHS/int/area_protected_1km.csv -->
<g id="edge29" class="edge"><title>urn:uuid:53c74750&#45;d660&#45;479d&#45;8e59&#45;f54068835317&#45;&gt;/Users/slaughter/git/OHI&#45;Science/ohibc/prep/lsp/vHS/int/area_protected_1km.csv</title>
<path fill="none" stroke="black" d="M2513.22,-431.269C2576.95,-419.826 2648.84,-406.917 2706.02,-396.651"/>
<polygon fill="black" stroke="black" points="2706.93,-400.044 2716.15,-394.831 2705.69,-393.154 2706.93,-400.044"/>
</g>
<!-- urn:uuid:4fcd5da4&#45;67af&#45;4f8d&#45;ad36&#45;c9cdf45621d4 -->
<g id="node8" class="node"><title>urn:uuid:4fcd5da4&#45;67af&#45;4f8d&#45;ad36&#45;c9cdf45621d4</title>
<polygon fill="black" stroke="black" points="2054.05,-263.9 2054.05,-322.3 2657.95,-322.3 2657.95,-263.9 2054.05,-263.9"/>
<text text-anchor="middle" x="2356" y="-305.7" font-family="Courier,monospace" font-weight="bold" font-size="14.00" fill="white">ohibc run 1 </text>
<text text-anchor="middle" x="2356" y="-288.9" font-family="Courier,monospace" font-weight="bold" font-size="14.00" fill="white"> /Users/slaughter/git/OHI&#45;Science/ohibc/combine_inland_and_offshore.R </text>
<text text-anchor="middle" x="2356" y="-272.1" font-family="Courier,monospace" font-weight="bold" font-size="14.00" fill="white"> urn:uuid:4fcd5da4&#45;67af&#45;4f8d&#45;ad36&#45;c9cdf45621d4</text>
</g>
<!-- /Users/slaughter/git/OHI&#45;Science/ohibc/prep/lsp/vHS/output/area_protected_total.csv -->
<g id="node31" class="node"><title>/Users/slaughter/git/OHI&#45;Science/ohibc/prep/lsp/vHS/output/area_protected_total.csv</title>
<path fill="#ffe4b5" stroke="black" d="M2576.13,-227.4C2576.13,-227.4 2135.87,-227.4 2135.87,-227.4 2129.87,-227.4 2123.87,-221.4 2123.87,-215.4 2123.87,-215.4 2123.87,-203.4 2123.87,-203.4 2123.87,-197.4 2129.87,-191.4 2135.87,-191.4 2135.87,-191.4 2576.13,-191.4 2576.13,-191.4 2582.13,-191.4 2588.13,-197.4 2588.13,-203.4 2588.13,-203.4 2588.13,-215.4 2588.13,-215.4 2588.13,-221.4 2582.13,-227.4 2576.13,-227.4"/>
<text text-anchor="middle" x="2356" y="-206.7" font-family="Courier,monospace" font-weight="bold" font-size="9.00">/Users/slaughter/git/OHI&#45;Science/ohibc/prep/lsp/vHS/output/area_protected_total.csv</text>
</g>
<!-- urn:uuid:4fcd5da4&#45;67af&#45;4f8d&#45;ad36&#45;c9cdf45621d4&#45;&gt;/Users/slaughter/git/OHI&#45;Science/ohibc/prep/lsp/vHS/output/area_protected_total.csv -->
<g id="edge30" class="edge"><title>urn:uuid:4fcd5da4&#45;67af&#45;4f8d&#45;ad36&#45;c9cdf45621d4&#45;&gt;/Users/slaughter/git/OHI&#45;Science/ohibc/prep/lsp/vHS/output/area_protected_total.csv</title>
<path fill="none" stroke="black" d="M2356,-263.525C2356,-255.207 2356,-246.139 2356,-237.889"/>
<polygon fill="black" stroke="black" points="2359.5,-237.645 2356,-227.645 2352.5,-237.645 2359.5,-237.645"/>
</g>
<!-- urn:uuid:53ada2f7&#45;5e25&#45;4845&#45;883e&#45;1049a90c321c -->
<g id="node9" class="node"><title>urn:uuid:53ada2f7&#45;5e25&#45;4845&#45;883e&#45;1049a90c321c</title>
<polygon fill="black" stroke="black" points="2028.85,-96.5 2028.85,-154.9 2683.15,-154.9 2683.15,-96.5 2028.85,-96.5"/>
<text text-anchor="middle" x="2356" y="-138.3" font-family="Courier,monospace" font-weight="bold" font-size="14.00" fill="white">ohibc run 1 </text>
<text text-anchor="middle" x="2356" y="-121.5" font-family="Courier,monospace" font-weight="bold" font-size="14.00" fill="white"> /Users/slaughter/git/OHI&#45;Science/ohibc/estimate_status_and_trend_by_year.R </text>
<text text-anchor="middle" x="2356" y="-104.7" font-family="Courier,monospace" font-weight="bold" font-size="14.00" fill="white"> urn:uuid:53ada2f7&#45;5e25&#45;4845&#45;883e&#45;1049a90c321c</text>
</g>
<!-- /Users/slaughter/git/OHI&#45;Science/ohibc/prep/lsp/vHS/output/lsp_status.csv -->
<g id="node33" class="node"><title>/Users/slaughter/git/OHI&#45;Science/ohibc/prep/lsp/vHS/output/lsp_status.csv</title>
<path fill="#ffe4b5" stroke="black" d="M2336.13,-60C2336.13,-60 1949.87,-60 1949.87,-60 1943.87,-60 1937.87,-54 1937.87,-48 1937.87,-48 1937.87,-36 1937.87,-36 1937.87,-30 1943.87,-24 1949.87,-24 1949.87,-24 2336.13,-24 2336.13,-24 2342.13,-24 2348.13,-30 2348.13,-36 2348.13,-36 2348.13,-48 2348.13,-48 2348.13,-54 2342.13,-60 2336.13,-60"/>
<text text-anchor="middle" x="2143" y="-39.3" font-family="Courier,monospace" font-weight="bold" font-size="9.00">/Users/slaughter/git/OHI&#45;Science/ohibc/prep/lsp/vHS/output/lsp_status.csv</text>
</g>
<!-- urn:uuid:53ada2f7&#45;5e25&#45;4845&#45;883e&#45;1049a90c321c&#45;&gt;/Users/slaughter/git/OHI&#45;Science/ohibc/prep/lsp/vHS/output/lsp_status.csv -->
<g id="edge31" class="edge"><title>urn:uuid:53ada2f7&#45;5e25&#45;4845&#45;883e&#45;1049a90c321c&#45;&gt;/Users/slaughter/git/OHI&#45;Science/ohibc/prep/lsp/vHS/output/lsp_status.csv</title>
<path fill="none" stroke="black" d="M2282.4,-96.4691C2254.36,-85.7129 2222.94,-73.6623 2197.04,-63.7279"/>
<polygon fill="black" stroke="black" points="2197.99,-60.3447 2187.4,-60.0312 2195.49,-66.8804 2197.99,-60.3447"/>
</g>
<!-- /Users/slaughter/git/OHI&#45;Science/ohibc/prep/lsp/vHS/output/lsp_trend.csv -->
<g id="node34" class="node"><title>/Users/slaughter/git/OHI&#45;Science/ohibc/prep/lsp/vHS/output/lsp_trend.csv</title>
<path fill="#ffe4b5" stroke="black" d="M2758.24,-60C2758.24,-60 2377.76,-60 2377.76,-60 2371.76,-60 2365.76,-54 2365.76,-48 2365.76,-48 2365.76,-36 2365.76,-36 2365.76,-30 2371.76,-24 2377.76,-24 2377.76,-24 2758.24,-24 2758.24,-24 2764.24,-24 2770.24,-30 2770.24,-36 2770.24,-36 2770.24,-48 2770.24,-48 2770.24,-54 2764.24,-60 2758.24,-60"/>
<text text-anchor="middle" x="2568" y="-39.3" font-family="Courier,monospace" font-weight="bold" font-size="9.00">/Users/slaughter/git/OHI&#45;Science/ohibc/prep/lsp/vHS/output/lsp_trend.csv</text>
</g>
<!-- urn:uuid:53ada2f7&#45;5e25&#45;4845&#45;883e&#45;1049a90c321c&#45;&gt;/Users/slaughter/git/OHI&#45;Science/ohibc/prep/lsp/vHS/output/lsp_trend.csv -->
<g id="edge32" class="edge"><title>urn:uuid:53ada2f7&#45;5e25&#45;4845&#45;883e&#45;1049a90c321c&#45;&gt;/Users/slaughter/git/OHI&#45;Science/ohibc/prep/lsp/vHS/output/lsp_trend.csv</title>
<path fill="none" stroke="black" d="M2429.26,-96.4691C2457.17,-85.7129 2488.44,-73.6623 2514.21,-63.7279"/>
<polygon fill="black" stroke="black" points="2515.73,-66.8932 2523.81,-60.0312 2513.22,-60.3614 2515.73,-66.8932"/>
</g>
<!-- /Users/slaughter/git/OHI&#45;Science/ohibc/setup_BC_WDPA_polygons.R -->
<g id="node10" class="node"><title>/Users/slaughter/git/OHI&#45;Science/ohibc/setup_BC_WDPA_polygons.R</title>
<path fill="#ffe4b5" stroke="black" d="M4358.14,-908.7C4358.14,-908.7 4025.86,-908.7 4025.86,-908.7 4019.86,-908.7 4013.86,-902.7 4013.86,-896.7 4013.86,-896.7 4013.86,-884.7 4013.86,-884.7 4013.86,-878.7 4019.86,-872.7 4025.86,-872.7 4025.86,-872.7 4358.14,-872.7 4358.14,-872.7 4364.14,-872.7 4370.14,-878.7 4370.14,-884.7 4370.14,-884.7 4370.14,-896.7 4370.14,-896.7 4370.14,-902.7 4364.14,-908.7 4358.14,-908.7"/>
<text text-anchor="middle" x="4192" y="-888" font-family="Courier,monospace" font-weight="bold" font-size="9.00">/Users/slaughter/git/OHI&#45;Science/ohibc/setup_BC_WDPA_polygons.R</text>
</g>
<!-- /Volumes/ohi/git&#45;annex/bcprep/_raw_data/databc/TA_PEP_SVW/TA_PEP_SVW_polygon.shp -->
<g id="node11" class="node"><title>/Volumes/ohi/git&#45;annex/bcprep/_raw_data/databc/TA_PEP_SVW/TA_PEP_SVW_polygon.shp</title>
<path fill="#ffe4b5" stroke="black" d="M3983.93,-908.7C3983.93,-908.7 3560.07,-908.7 3560.07,-908.7 3554.07,-908.7 3548.07,-902.7 3548.07,-896.7 3548.07,-896.7 3548.07,-884.7 3548.07,-884.7 3548.07,-878.7 3554.07,-872.7 3560.07,-872.7 3560.07,-872.7 3983.93,-872.7 3983.93,-872.7 3989.93,-872.7 3995.93,-878.7 3995.93,-884.7 3995.93,-884.7 3995.93,-896.7 3995.93,-896.7 3995.93,-902.7 3989.93,-908.7 3983.93,-908.7"/>
<text text-anchor="middle" x="3772" y="-888" font-family="Courier,monospace" font-weight="bold" font-size="9.00">/Volumes/ohi/git&#45;annex/bcprep/_raw_data/databc/TA_PEP_SVW/TA_PEP_SVW_polygon.shp</text>
</g>
<!-- /Volumes/ohi/git&#45;annex/bcprep/_raw_data/databc/TA_PEP_SVW/TA_PEP_SVW_polygon.shp&#45;&gt;urn:uuid:21be88bf&#45;e44e&#45;44c8&#45;bc98&#45;f08657fd1aa3 -->
<g id="edge1" class="edge"><title>/Volumes/ohi/git&#45;annex/bcprep/_raw_data/databc/TA_PEP_SVW/TA_PEP_SVW_polygon.shp&#45;&gt;urn:uuid:21be88bf&#45;e44e&#45;44c8&#45;bc98&#45;f08657fd1aa3</title>
<path fill="none" stroke="black" d="M3799.7,-872.569C3818.95,-860.661 3845.24,-844.396 3868.61,-829.944"/>
<polygon fill="black" stroke="black" points="3870.73,-832.744 3877.4,-824.507 3867.05,-826.791 3870.73,-832.744"/>
</g>
<!-- /Users/slaughter/git/OHI&#45;Science/ohibc/setup_BC_PEP_polygons.R -->
<g id="node13" class="node"><title>/Users/slaughter/git/OHI&#45;Science/ohibc/setup_BC_PEP_polygons.R</title>
<path fill="#ffe4b5" stroke="black" d="M3518.24,-908.7C3518.24,-908.7 3191.76,-908.7 3191.76,-908.7 3185.76,-908.7 3179.76,-902.7 3179.76,-896.7 3179.76,-896.7 3179.76,-884.7 3179.76,-884.7 3179.76,-878.7 3185.76,-872.7 3191.76,-872.7 3191.76,-872.7 3518.24,-872.7 3518.24,-872.7 3524.24,-872.7 3530.24,-878.7 3530.24,-884.7 3530.24,-884.7 3530.24,-896.7 3530.24,-896.7 3530.24,-902.7 3524.24,-908.7 3518.24,-908.7"/>
<text text-anchor="middle" x="3355" y="-888" font-family="Courier,monospace" font-weight="bold" font-size="9.00">/Users/slaughter/git/OHI&#45;Science/ohibc/setup_BC_PEP_polygons.R</text>
</g>
<!-- /Users/slaughter/git/OHI&#45;Science/ohibc/prep/spatial/raster/ohibc_rgn_raster_500m.tif -->
<g id="node14" class="node"><title>/Users/slaughter/git/OHI&#45;Science/ohibc/prep/spatial/raster/ohibc_rgn_raster_500m.tif</title>
<path fill="#ffe4b5" stroke="black" d="M3149.52,-908.7C3149.52,-908.7 2704.48,-908.7 2704.48,-908.7 2698.48,-908.7 2692.48,-902.7 2692.48,-896.7 2692.48,-896.7 2692.48,-884.7 2692.48,-884.7 2692.48,-878.7 2698.48,-872.7 2704.48,-872.7 2704.48,-872.7 3149.52,-872.7 3149.52,-872.7 3155.52,-872.7 3161.52,-878.7 3161.52,-884.7 3161.52,-884.7 3161.52,-896.7 3161.52,-896.7 3161.52,-902.7 3155.52,-908.7 3149.52,-908.7"/>
<text text-anchor="middle" x="2927" y="-888" font-family="Courier,monospace" font-weight="bold" font-size="9.00">/Users/slaughter/git/OHI&#45;Science/ohibc/prep/spatial/raster/ohibc_rgn_raster_500m.tif</text>
</g>
<!-- /Users/slaughter/git/OHI&#45;Science/ohibc/prep/spatial/raster/ohibc_rgn_raster_500m.tif&#45;&gt;urn:uuid:98b5270a&#45;1577&#45;4865&#45;970f&#45;17c6b0065374 -->
<g id="edge2" class="edge"><title>/Users/slaughter/git/OHI&#45;Science/ohibc/prep/spatial/raster/ohibc_rgn_raster_500m.tif&#45;&gt;urn:uuid:98b5270a&#45;1577&#45;4865&#45;970f&#45;17c6b0065374</title>
<path fill="none" stroke="black" d="M2790.31,-872.693C2755.35,-868.599 2717.81,-864.424 2683,-861 2513.44,-844.32 2323.75,-829.088 2169.86,-817.599"/>
<polygon fill="black" stroke="black" points="2170.01,-814.101 2159.77,-816.848 2169.49,-821.081 2170.01,-814.101"/>
</g>
<!-- /Users/slaughter/git/OHI&#45;Science/ohibc/prep/spatial/raster/ohibc_rgn_raster_500m.tif&#45;&gt;urn:uuid:3d6c8ed0&#45;83c0&#45;4b12&#45;9154&#45;2804f4317598 -->
<g id="edge3" class="edge"><title>/Users/slaughter/git/OHI&#45;Science/ohibc/prep/spatial/raster/ohibc_rgn_raster_500m.tif&#45;&gt;urn:uuid:3d6c8ed0&#45;83c0&#45;4b12&#45;9154&#45;2804f4317598</title>
<path fill="none" stroke="black" d="M2899.12,-872.569C2879.66,-860.609 2853.04,-844.252 2829.44,-829.753"/>
<polygon fill="black" stroke="black" points="2831.26,-826.761 2820.9,-824.507 2827.59,-832.725 2831.26,-826.761"/>
</g>
<!-- /Users/slaughter/git/OHI&#45;Science/ohibc/prep/spatial/raster/ohibc_rgn_raster_500m.tif&#45;&gt;urn:uuid:167b320e&#45;9143&#45;4084&#45;882e&#45;7d19914767c0 -->
<g id="edge4" class="edge"><title>/Users/slaughter/git/OHI&#45;Science/ohibc/prep/spatial/raster/ohibc_rgn_raster_500m.tif&#45;&gt;urn:uuid:167b320e&#45;9143&#45;4084&#45;882e&#45;7d19914767c0</title>
<path fill="none" stroke="black" d="M3003.55,-872.678C3061.05,-859.889 3141.36,-842.031 3209.86,-826.798"/>
<polygon fill="black" stroke="black" points="3210.87,-830.158 3219.87,-824.571 3209.35,-823.325 3210.87,-830.158"/>
</g>
<!-- /Users/slaughter/git/OHI&#45;Science/ohibc/prep/lsp/vHS/spatial/hs_wdpa_rast_500m.tif&#45;&gt;urn:uuid:f5d6b763&#45;c953&#45;48f4&#45;9a39&#45;4a61f45bfdd3 -->
<g id="edge9" class="edge"><title>/Users/slaughter/git/OHI&#45;Science/ohibc/prep/lsp/vHS/spatial/hs_wdpa_rast_500m.tif&#45;&gt;urn:uuid:f5d6b763&#45;c953&#45;48f4&#45;9a39&#45;4a61f45bfdd3</title>
<path fill="none" stroke="black" d="M1596.58,-693.597C1740.78,-681.312 1936.96,-664.599 2093.8,-651.237"/>
<polygon fill="black" stroke="black" points="2094.41,-654.699 2104.07,-650.362 2093.81,-647.724 2094.41,-654.699"/>
</g>
<!-- /Users/slaughter/git/OHI&#45;Science/ohibc/prep/lsp/vHS/spatial/hs_pep_rast_500m.tif&#45;&gt;urn:uuid:f5d6b763&#45;c953&#45;48f4&#45;9a39&#45;4a61f45bfdd3 -->
<g id="edge8" class="edge"><title>/Users/slaughter/git/OHI&#45;Science/ohibc/prep/lsp/vHS/spatial/hs_pep_rast_500m.tif&#45;&gt;urn:uuid:f5d6b763&#45;c953&#45;48f4&#45;9a39&#45;4a61f45bfdd3</title>
<path fill="none" stroke="black" d="M1968.12,-693.572C2028.27,-683.543 2106.08,-670.57 2176.21,-658.878"/>
<polygon fill="black" stroke="black" points="2177.21,-662.259 2186.49,-657.162 2176.06,-655.355 2177.21,-662.259"/>
</g>
<!-- /Users/slaughter/git/OHI&#45;Science/ohibc/rasterize_HS_WDPA_and_PEP.R -->
<g id="node17" class="node"><title>/Users/slaughter/git/OHI&#45;Science/ohibc/rasterize_HS_WDPA_and_PEP.R</title>
<path fill="#ffe4b5" stroke="black" d="M2662.34,-908.7C2662.34,-908.7 2313.66,-908.7 2313.66,-908.7 2307.66,-908.7 2301.66,-902.7 2301.66,-896.7 2301.66,-896.7 2301.66,-884.7 2301.66,-884.7 2301.66,-878.7 2307.66,-872.7 2313.66,-872.7 2313.66,-872.7 2662.34,-872.7 2662.34,-872.7 2668.34,-872.7 2674.34,-878.7 2674.34,-884.7 2674.34,-884.7 2674.34,-896.7 2674.34,-896.7 2674.34,-902.7 2668.34,-908.7 2662.34,-908.7"/>
<text text-anchor="middle" x="2488" y="-888" font-family="Courier,monospace" font-weight="bold" font-size="9.00">/Users/slaughter/git/OHI&#45;Science/ohibc/rasterize_HS_WDPA_and_PEP.R</text>
</g>
<!-- /Users/slaughter/git/OHI&#45;Science/ohibc/prep/lsp/vHS/spatial/hs_inland_1km_raster_500m.tif&#45;&gt;urn:uuid:f5d6b763&#45;c953&#45;48f4&#45;9a39&#45;4a61f45bfdd3 -->
<g id="edge6" class="edge"><title>/Users/slaughter/git/OHI&#45;Science/ohibc/prep/lsp/vHS/spatial/hs_inland_1km_raster_500m.tif&#45;&gt;urn:uuid:f5d6b763&#45;c953&#45;48f4&#45;9a39&#45;4a61f45bfdd3</title>
<path fill="none" stroke="black" d="M2356,-693.274C2356,-685.65 2356,-676.369 2356,-667.254"/>
<polygon fill="black" stroke="black" points="2359.5,-667.131 2356,-657.131 2352.5,-667.131 2359.5,-667.131"/>
</g>
<!-- /Users/slaughter/git/OHI&#45;Science/ohibc/prep/lsp/vHS/spatial/hs_offshore_3nm_raster_500m.tif&#45;&gt;urn:uuid:f5d6b763&#45;c953&#45;48f4&#45;9a39&#45;4a61f45bfdd3 -->
<g id="edge5" class="edge"><title>/Users/slaughter/git/OHI&#45;Science/ohibc/prep/lsp/vHS/spatial/hs_offshore_3nm_raster_500m.tif&#45;&gt;urn:uuid:f5d6b763&#45;c953&#45;48f4&#45;9a39&#45;4a61f45bfdd3</title>
<path fill="none" stroke="black" d="M2767.62,-693.572C2703.46,-683.491 2620.36,-670.434 2545.64,-658.695"/>
<polygon fill="black" stroke="black" points="2546.05,-655.217 2535.63,-657.122 2544.96,-662.132 2546.05,-655.217"/>
</g>
<!-- /Users/slaughter/git/OHI&#45;Science/ohibc/get_analysis_rasters.R -->
<g id="node20" class="node"><title>/Users/slaughter/git/OHI&#45;Science/ohibc/get_analysis_rasters.R</title>
<path fill="#ffe4b5" stroke="black" d="M2271.85,-908.7C2271.85,-908.7 1950.15,-908.7 1950.15,-908.7 1944.15,-908.7 1938.15,-902.7 1938.15,-896.7 1938.15,-896.7 1938.15,-884.7 1938.15,-884.7 1938.15,-878.7 1944.15,-872.7 1950.15,-872.7 1950.15,-872.7 2271.85,-872.7 2271.85,-872.7 2277.85,-872.7 2283.85,-878.7 2283.85,-884.7 2283.85,-884.7 2283.85,-896.7 2283.85,-896.7 2283.85,-902.7 2277.85,-908.7 2271.85,-908.7"/>
<text text-anchor="middle" x="2111" y="-888" font-family="Courier,monospace" font-weight="bold" font-size="9.00">/Users/slaughter/git/OHI&#45;Science/ohibc/get_analysis_rasters.R</text>
</g>
<!-- /Users/slaughter/git/OHI&#45;Science/ohibc/prep/lsp/vHS/spatial/howe_sound_watershed_500m.tif&#45;&gt;urn:uuid:f5d6b763&#45;c953&#45;48f4&#45;9a39&#45;4a61f45bfdd3 -->
<g id="edge7" class="edge"><title>/Users/slaughter/git/OHI&#45;Science/ohibc/prep/lsp/vHS/spatial/howe_sound_watershed_500m.tif&#45;&gt;urn:uuid:f5d6b763&#45;c953&#45;48f4&#45;9a39&#45;4a61f45bfdd3</title>
<path fill="none" stroke="black" d="M3179.56,-693.597C3016.22,-680.766 2791.39,-663.103 2617.9,-649.474"/>
<polygon fill="black" stroke="black" points="2618.1,-645.979 2607.86,-648.685 2617.55,-652.958 2618.1,-645.979"/>
</g>
<!-- /Users/slaughter/git/OHI&#45;Science/ohibc/setup_watershed_raster.R -->
<g id="node22" class="node"><title>/Users/slaughter/git/OHI&#45;Science/ohibc/setup_watershed_raster.R</title>
<path fill="#ffe4b5" stroke="black" d="M1908.14,-908.7C1908.14,-908.7 1575.86,-908.7 1575.86,-908.7 1569.86,-908.7 1563.86,-902.7 1563.86,-896.7 1563.86,-896.7 1563.86,-884.7 1563.86,-884.7 1563.86,-878.7 1569.86,-872.7 1575.86,-872.7 1575.86,-872.7 1908.14,-872.7 1908.14,-872.7 1914.14,-872.7 1920.14,-878.7 1920.14,-884.7 1920.14,-884.7 1920.14,-896.7 1920.14,-896.7 1920.14,-902.7 1914.14,-908.7 1908.14,-908.7"/>
<text text-anchor="middle" x="1742" y="-888" font-family="Courier,monospace" font-weight="bold" font-size="9.00">/Users/slaughter/git/OHI&#45;Science/ohibc/setup_watershed_raster.R</text>
</g>
<!-- /Users/slaughter/git/OHI&#45;Science/ohibc/prep/lsp/vHS/int/zonal_stats_3nm.csv&#45;&gt;urn:uuid:53c74750&#45;d660&#45;479d&#45;8e59&#45;f54068835317 -->
<g id="edge10" class="edge"><title>/Users/slaughter/git/OHI&#45;Science/ohibc/prep/lsp/vHS/int/zonal_stats_3nm.csv&#45;&gt;urn:uuid:53c74750&#45;d660&#45;479d&#45;8e59&#45;f54068835317</title>
<path fill="none" stroke="black" d="M2008.49,-526.172C2062.16,-516.185 2131.52,-503.276 2194.15,-491.622"/>
<polygon fill="black" stroke="black" points="2194.95,-495.033 2204.14,-489.762 2193.67,-488.151 2194.95,-495.033"/>
</g>
<!-- /Users/slaughter/git/OHI&#45;Science/ohibc/prep/lsp/vHS/int/zonal_stats_1km.csv&#45;&gt;urn:uuid:53c74750&#45;d660&#45;479d&#45;8e59&#45;f54068835317 -->
<g id="edge11" class="edge"><title>/Users/slaughter/git/OHI&#45;Science/ohibc/prep/lsp/vHS/int/zonal_stats_1km.csv&#45;&gt;urn:uuid:53c74750&#45;d660&#45;479d&#45;8e59&#45;f54068835317</title>
<path fill="none" stroke="black" d="M2356,-525.874C2356,-518.25 2356,-508.969 2356,-499.854"/>
<polygon fill="black" stroke="black" points="2359.5,-499.731 2356,-489.731 2352.5,-499.731 2359.5,-499.731"/>
</g>
<!-- /Users/slaughter/git/OHI&#45;Science/ohibc/prep/lsp/vHS/int/zonal_stats_ws.csv&#45;&gt;urn:uuid:53c74750&#45;d660&#45;479d&#45;8e59&#45;f54068835317 -->
<g id="edge12" class="edge"><title>/Users/slaughter/git/OHI&#45;Science/ohibc/prep/lsp/vHS/int/zonal_stats_ws.csv&#45;&gt;urn:uuid:53c74750&#45;d660&#45;479d&#45;8e59&#45;f54068835317</title>
<path fill="none" stroke="black" d="M2701.13,-526.172C2647.83,-516.185 2578.94,-503.276 2516.75,-491.622"/>
<polygon fill="black" stroke="black" points="2517.3,-488.164 2506.83,-489.762 2516.01,-495.044 2517.3,-488.164"/>
</g>
<!-- /Users/slaughter/git/OHI&#45;Science/ohibc/lsp_zonal_stats.R -->
<g id="node26" class="node"><title>/Users/slaughter/git/OHI&#45;Science/ohibc/lsp_zonal_stats.R</title>
<path fill="#ffe4b5" stroke="black" d="M1534.35,-908.7C1534.35,-908.7 1239.65,-908.7 1239.65,-908.7 1233.65,-908.7 1227.65,-902.7 1227.65,-896.7 1227.65,-896.7 1227.65,-884.7 1227.65,-884.7 1227.65,-878.7 1233.65,-872.7 1239.65,-872.7 1239.65,-872.7 1534.35,-872.7 1534.35,-872.7 1540.35,-872.7 1546.35,-878.7 1546.35,-884.7 1546.35,-884.7 1546.35,-896.7 1546.35,-896.7 1546.35,-902.7 1540.35,-908.7 1534.35,-908.7"/>
<text text-anchor="middle" x="1387" y="-888" font-family="Courier,monospace" font-weight="bold" font-size="9.00">/Users/slaughter/git/OHI&#45;Science/ohibc/lsp_zonal_stats.R</text>
</g>
<!-- /Users/slaughter/git/OHI&#45;Science/ohibc/prep/lsp/vHS/int/area_protected_ws.csv&#45;&gt;urn:uuid:4fcd5da4&#45;67af&#45;4f8d&#45;ad36&#45;c9cdf45621d4 -->
<g id="edge15" class="edge"><title>/Users/slaughter/git/OHI&#45;Science/ohibc/prep/lsp/vHS/int/area_protected_ws.csv&#45;&gt;urn:uuid:4fcd5da4&#45;67af&#45;4f8d&#45;ad36&#45;c9cdf45621d4</title>
<path fill="none" stroke="black" d="M1998.2,-358.772C2053.57,-348.764 2125.17,-335.823 2189.75,-324.15"/>
<polygon fill="black" stroke="black" points="2190.42,-327.585 2199.64,-322.362 2189.18,-320.697 2190.42,-327.585"/>
</g>
<!-- /Users/slaughter/git/OHI&#45;Science/ohibc/prep/lsp/vHS/int/area_protected_3nm.csv&#45;&gt;urn:uuid:4fcd5da4&#45;67af&#45;4f8d&#45;ad36&#45;c9cdf45621d4 -->
<g id="edge13" class="edge"><title>/Users/slaughter/git/OHI&#45;Science/ohibc/prep/lsp/vHS/int/area_protected_3nm.csv&#45;&gt;urn:uuid:4fcd5da4&#45;67af&#45;4f8d&#45;ad36&#45;c9cdf45621d4</title>
<path fill="none" stroke="black" d="M2356,-358.474C2356,-350.85 2356,-341.569 2356,-332.454"/>
<polygon fill="black" stroke="black" points="2359.5,-332.331 2356,-322.331 2352.5,-332.331 2359.5,-332.331"/>
</g>
<!-- /Users/slaughter/git/OHI&#45;Science/ohibc/prep/lsp/vHS/int/area_protected_1km.csv&#45;&gt;urn:uuid:4fcd5da4&#45;67af&#45;4f8d&#45;ad36&#45;c9cdf45621d4 -->
<g id="edge14" class="edge"><title>/Users/slaughter/git/OHI&#45;Science/ohibc/prep/lsp/vHS/int/area_protected_1km.csv&#45;&gt;urn:uuid:4fcd5da4&#45;67af&#45;4f8d&#45;ad36&#45;c9cdf45621d4</title>
<path fill="none" stroke="black" d="M2716.17,-358.772C2660.43,-348.764 2588.36,-335.823 2523.35,-324.15"/>
<polygon fill="black" stroke="black" points="2523.86,-320.685 2513.4,-322.362 2522.62,-327.575 2523.86,-320.685"/>
</g>
<!-- /Users/slaughter/git/OHI&#45;Science/ohibc/summarize_zonal_stats.R -->
<g id="node30" class="node"><title>/Users/slaughter/git/OHI&#45;Science/ohibc/summarize_zonal_stats.R</title>
<path fill="#ffe4b5" stroke="black" d="M1197.24,-908.7C1197.24,-908.7 870.756,-908.7 870.756,-908.7 864.756,-908.7 858.756,-902.7 858.756,-896.7 858.756,-896.7 858.756,-884.7 858.756,-884.7 858.756,-878.7 864.756,-872.7 870.756,-872.7 870.756,-872.7 1197.24,-872.7 1197.24,-872.7 1203.24,-872.7 1209.24,-878.7 1209.24,-884.7 1209.24,-884.7 1209.24,-896.7 1209.24,-896.7 1209.24,-902.7 1203.24,-908.7 1197.24,-908.7"/>
<text text-anchor="middle" x="1034" y="-888" font-family="Courier,monospace" font-weight="bold" font-size="9.00">/Users/slaughter/git/OHI&#45;Science/ohibc/summarize_zonal_stats.R</text>
</g>
<!-- /Users/slaughter/git/OHI&#45;Science/ohibc/prep/lsp/vHS/output/area_protected_total.csv&#45;&gt;urn:uuid:53ada2f7&#45;5e25&#45;4845&#45;883e&#45;1049a90c321c -->
<g id="edge16" class="edge"><title>/Users/slaughter/git/OHI&#45;Science/ohibc/prep/lsp/vHS/output/area_protected_total.csv&#45;&gt;urn:uuid:53ada2f7&#45;5e25&#45;4845&#45;883e&#45;1049a90c321c</title>
<path fill="none" stroke="black" d="M2350.36,-191.074C2349.55,-183.45 2349.18,-174.169 2349.26,-165.054"/>
<polygon fill="black" stroke="black" points="2352.76,-165.025 2349.54,-154.931 2345.77,-164.829 2352.76,-165.025"/>
</g>
<!-- /Users/slaughter/git/OHI&#45;Science/ohibc/prep/lsp/vHS/output/area_protected_total.csv&#45;&gt;urn:uuid:53ada2f7&#45;5e25&#45;4845&#45;883e&#45;1049a90c321c -->
<g id="edge17" class="edge"><title>/Users/slaughter/git/OHI&#45;Science/ohibc/prep/lsp/vHS/output/area_protected_total.csv&#45;&gt;urn:uuid:53ada2f7&#45;5e25&#45;4845&#45;883e&#45;1049a90c321c</title>
<path fill="none" stroke="black" d="M2361.64,-191.074C2362.45,-183.45 2362.82,-174.169 2362.74,-165.054"/>
<polygon fill="black" stroke="black" points="2366.23,-164.829 2362.46,-154.931 2359.24,-165.025 2366.23,-164.829"/>
</g>
<!-- /Users/slaughter/git/OHI&#45;Science/ohibc/combine_inland_and_offshore.R -->
<g id="node32" class="node"><title>/Users/slaughter/git/OHI&#45;Science/ohibc/combine_inland_and_offshore.R</title>
<path fill="#ffe4b5" stroke="black" d="M828.639,-908.7C828.639,-908.7 469.361,-908.7 469.361,-908.7 463.361,-908.7 457.361,-902.7 457.361,-896.7 457.361,-896.7 457.361,-884.7 457.361,-884.7 457.361,-878.7 463.361,-872.7 469.361,-872.7 469.361,-872.7 828.639,-872.7 828.639,-872.7 834.639,-872.7 840.639,-878.7 840.639,-884.7 840.639,-884.7 840.639,-896.7 840.639,-896.7 840.639,-902.7 834.639,-908.7 828.639,-908.7"/>
<text text-anchor="middle" x="649" y="-888" font-family="Courier,monospace" font-weight="bold" font-size="9.00">/Users/slaughter/git/OHI&#45;Science/ohibc/combine_inland_and_offshore.R</text>
</g>
<!-- /Users/slaughter/git/OHI&#45;Science/ohibc/estimate_status_and_trend_by_year.R -->
<g id="node35" class="node"><title>/Users/slaughter/git/OHI&#45;Science/ohibc/estimate_status_and_trend_by_year.R</title>
<path fill="#ffe4b5" stroke="black" d="M427.534,-908.7C427.534,-908.7 36.4663,-908.7 36.4663,-908.7 30.4663,-908.7 24.4663,-902.7 24.4663,-896.7 24.4663,-896.7 24.4663,-884.7 24.4663,-884.7 24.4663,-878.7 30.4663,-872.7 36.4663,-872.7 36.4663,-872.7 427.534,-872.7 427.534,-872.7 433.534,-872.7 439.534,-878.7 439.534,-884.7 439.534,-884.7 439.534,-896.7 439.534,-896.7 439.534,-902.7 433.534,-908.7 427.534,-908.7"/>
<text text-anchor="middle" x="232" y="-888" font-family="Courier,monospace" font-weight="bold" font-size="9.00">/Users/slaughter/git/OHI&#45;Science/ohibc/estimate_status_and_trend_by_year.R</text>
</g>
</g>
</svg>
