<?xml version="1.0" encoding="UTF-8" standalone="no"?>
<!DOCTYPE svg PUBLIC "-//W3C//DTD SVG 1.1//EN"
 "http://www.w3.org/Graphics/SVG/1.1/DTD/svg11.dtd">
<!-- Generated by graphviz version 2.38.0 (20140413.2041)
 -->
<!-- Title: rm_data_view Pages: 1 -->
<svg width="6119pt" height="740pt"
 viewBox="0.00 0.00 6119.48 739.60" xmlns="http://www.w3.org/2000/svg" xmlns:xlink="http://www.w3.org/1999/xlink">
<g id="graph0" class="graph" transform="scale(1 1) rotate(0) translate(4 735.6)">
<title>rm_data_view</title>
<polygon fill="white" stroke="none" points="-4,4 -4,-735.6 6115.48,-735.6 6115.48,4 -4,4"/>
<text text-anchor="middle" x="3055.74" y="-711.4" font-family="Courier,monospace" font-size="18.00">multiple_runs</text>
<g id="clust1" class="cluster"><title>cluster_workflow</title>
<polygon fill="none" stroke="black" stroke-width="2" points="8,-8 8,-694 6103.48,-694 6103.48,-8 8,-8"/>
</g>
<g id="clust2" class="cluster"><title>cluster_workflow_inner</title>
<polygon fill="none" stroke="white" stroke-width="2" points="16,-16 16,-686 6095.48,-686 6095.48,-16 16,-16"/>
</g>
<!-- urn:uuid:528959d1&#45;d66d&#45;4ec7&#45;9dd6&#45;81deafbb4c47 -->
<g id="node1" class="node"><title>urn:uuid:528959d1&#45;d66d&#45;4ec7&#45;9dd6&#45;81deafbb4c47</title>
<polygon fill="black" stroke="black" points="24,-618.8 24,-677.2 585.909,-677.2 585.909,-618.8 24,-618.8"/>
<text text-anchor="middle" x="304.954" y="-660.6" font-family="Courier,monospace" font-weight="bold" font-size="14.00" fill="white">ohibc run 1 </text>
<text text-anchor="middle" x="304.954" y="-643.8" font-family="Courier,monospace" font-weight="bold" font-size="14.00" fill="white"> /Users/slaughter/git/OHI&#45;Science/ohibc/setup_BC_WDPA_polygons.R </text>
<text text-anchor="middle" x="304.954" y="-627" font-family="Courier,monospace" font-weight="bold" font-size="14.00" fill="white"> urn:uuid:528959d1&#45;d66d&#45;4ec7&#45;9dd6&#45;81deafbb4c47</text>
</g>
<!-- urn:uuid:21be88bf&#45;e44e&#45;44c8&#45;bc98&#45;f08657fd1aa3 -->
<g id="node2" class="node"><title>urn:uuid:21be88bf&#45;e44e&#45;44c8&#45;bc98&#45;f08657fd1aa3</title>
<polygon fill="black" stroke="black" points="638.706,-521.8 638.706,-580.2 1192.22,-580.2 1192.22,-521.8 638.706,-521.8"/>
<text text-anchor="middle" x="915.461" y="-563.6" font-family="Courier,monospace" font-weight="bold" font-size="14.00" fill="white">ohibc run 1 </text>
<text text-anchor="middle" x="915.461" y="-546.8" font-family="Courier,monospace" font-weight="bold" font-size="14.00" fill="white"> /Users/slaughter/git/OHI&#45;Science/ohibc/setup_BC_PEP_polygons.R </text>
<text text-anchor="middle" x="915.461" y="-530" font-family="Courier,monospace" font-weight="bold" font-size="14.00" fill="white"> urn:uuid:21be88bf&#45;e44e&#45;44c8&#45;bc98&#45;f08657fd1aa3</text>
</g>
<!-- /Users/slaughter/git/OHI&#45;Science/ohibc/prep/lsp/vHS/spatial/hs_pep_poly.shp -->
<g id="node12" class="node"><title>/Users/slaughter/git/OHI&#45;Science/ohibc/prep/lsp/vHS/spatial/hs_pep_poly.shp</title>
<path fill="#ffe4b5" stroke="black" d="M1697.11,-569C1697.11,-569 1300.24,-569 1300.24,-569 1294.24,-569 1288.24,-563 1288.24,-557 1288.24,-557 1288.24,-545 1288.24,-545 1288.24,-539 1294.24,-533 1300.24,-533 1300.24,-533 1697.11,-533 1697.11,-533 1703.11,-533 1709.11,-539 1709.11,-545 1709.11,-545 1709.11,-557 1709.11,-557 1709.11,-563 1703.11,-569 1697.11,-569"/>
<text text-anchor="middle" x="1498.67" y="-548.3" font-family="Courier,monospace" font-weight="bold" font-size="9.00">/Users/slaughter/git/OHI&#45;Science/ohibc/prep/lsp/vHS/spatial/hs_pep_poly.shp</text>
</g>
<!-- urn:uuid:21be88bf&#45;e44e&#45;44c8&#45;bc98&#45;f08657fd1aa3&#45;&gt;/Users/slaughter/git/OHI&#45;Science/ohibc/prep/lsp/vHS/spatial/hs_pep_poly.shp -->
<g id="edge18" class="edge"><title>urn:uuid:21be88bf&#45;e44e&#45;44c8&#45;bc98&#45;f08657fd1aa3&#45;&gt;/Users/slaughter/git/OHI&#45;Science/ohibc/prep/lsp/vHS/spatial/hs_pep_poly.shp</title>
<path fill="none" stroke="black" d="M1192.6,-551C1221.16,-551 1249.91,-551 1277.74,-551"/>
<polygon fill="black" stroke="black" points="1277.95,-554.5 1287.95,-551 1277.95,-547.5 1277.95,-554.5"/>
</g>
<!-- urn:uuid:98b5270a&#45;1577&#45;4865&#45;970f&#45;17c6b0065374 -->
<g id="node3" class="node"><title>urn:uuid:98b5270a&#45;1577&#45;4865&#45;970f&#45;17c6b0065374</title>
<polygon fill="black" stroke="black" points="621.909,-286.8 621.909,-345.2 1209.01,-345.2 1209.01,-286.8 621.909,-286.8"/>
<text text-anchor="middle" x="915.461" y="-328.6" font-family="Courier,monospace" font-weight="bold" font-size="14.00" fill="white">ohibc run 1 </text>
<text text-anchor="middle" x="915.461" y="-311.8" font-family="Courier,monospace" font-weight="bold" font-size="14.00" fill="white"> /Users/slaughter/git/OHI&#45;Science/ohibc/rasterize_HS_WDPA_and_PEP.R </text>
<text text-anchor="middle" x="915.461" y="-295" font-family="Courier,monospace" font-weight="bold" font-size="14.00" fill="white"> urn:uuid:98b5270a&#45;1577&#45;4865&#45;970f&#45;17c6b0065374</text>
</g>
<!-- /Users/slaughter/git/OHI&#45;Science/ohibc/prep/lsp/vHS/spatial/hs_wdpa_rast_500m.tif -->
<g id="node15" class="node"><title>/Users/slaughter/git/OHI&#45;Science/ohibc/prep/lsp/vHS/spatial/hs_wdpa_rast_500m.tif</title>
<path fill="#ffe4b5" stroke="black" d="M1713.5,-280C1713.5,-280 1283.85,-280 1283.85,-280 1277.85,-280 1271.85,-274 1271.85,-268 1271.85,-268 1271.85,-256 1271.85,-256 1271.85,-250 1277.85,-244 1283.85,-244 1283.85,-244 1713.5,-244 1713.5,-244 1719.5,-244 1725.5,-250 1725.5,-256 1725.5,-256 1725.5,-268 1725.5,-268 1725.5,-274 1719.5,-280 1713.5,-280"/>
<text text-anchor="middle" x="1498.67" y="-259.3" font-family="Courier,monospace" font-weight="bold" font-size="9.00">/Users/slaughter/git/OHI&#45;Science/ohibc/prep/lsp/vHS/spatial/hs_wdpa_rast_500m.tif</text>
</g>
<!-- urn:uuid:98b5270a&#45;1577&#45;4865&#45;970f&#45;17c6b0065374&#45;&gt;/Users/slaughter/git/OHI&#45;Science/ohibc/prep/lsp/vHS/spatial/hs_wdpa_rast_500m.tif -->
<g id="edge19" class="edge"><title>urn:uuid:98b5270a&#45;1577&#45;4865&#45;970f&#45;17c6b0065374&#45;&gt;/Users/slaughter/git/OHI&#45;Science/ohibc/prep/lsp/vHS/spatial/hs_wdpa_rast_500m.tif</title>
<path fill="none" stroke="black" d="M1209.2,-288.802C1237.74,-286.15 1266.26,-283.5 1293.65,-280.955"/>
<polygon fill="black" stroke="black" points="1294.06,-284.433 1303.69,-280.023 1293.41,-277.463 1294.06,-284.433"/>
</g>
<!-- /Users/slaughter/git/OHI&#45;Science/ohibc/prep/lsp/vHS/spatial/hs_pep_rast_500m.tif -->
<g id="node16" class="node"><title>/Users/slaughter/git/OHI&#45;Science/ohibc/prep/lsp/vHS/spatial/hs_pep_rast_500m.tif</title>
<path fill="#ffe4b5" stroke="black" d="M1710.6,-334C1710.6,-334 1286.74,-334 1286.74,-334 1280.74,-334 1274.74,-328 1274.74,-322 1274.74,-322 1274.74,-310 1274.74,-310 1274.74,-304 1280.74,-298 1286.74,-298 1286.74,-298 1710.6,-298 1710.6,-298 1716.6,-298 1722.6,-304 1722.6,-310 1722.6,-310 1722.6,-322 1722.6,-322 1722.6,-328 1716.6,-334 1710.6,-334"/>
<text text-anchor="middle" x="1498.67" y="-313.3" font-family="Courier,monospace" font-weight="bold" font-size="9.00">/Users/slaughter/git/OHI&#45;Science/ohibc/prep/lsp/vHS/spatial/hs_pep_rast_500m.tif</text>
</g>
<!-- urn:uuid:98b5270a&#45;1577&#45;4865&#45;970f&#45;17c6b0065374&#45;&gt;/Users/slaughter/git/OHI&#45;Science/ohibc/prep/lsp/vHS/spatial/hs_pep_rast_500m.tif -->
<g id="edge20" class="edge"><title>urn:uuid:98b5270a&#45;1577&#45;4865&#45;970f&#45;17c6b0065374&#45;&gt;/Users/slaughter/git/OHI&#45;Science/ohibc/prep/lsp/vHS/spatial/hs_pep_rast_500m.tif</title>
<path fill="none" stroke="black" d="M1209.2,-316C1227.78,-316 1246.36,-316 1264.61,-316"/>
<polygon fill="black" stroke="black" points="1264.72,-319.5 1274.72,-316 1264.72,-312.5 1264.72,-319.5"/>
</g>
<!-- urn:uuid:3d6c8ed0&#45;83c0&#45;4b12&#45;9154&#45;2804f4317598 -->
<g id="node4" class="node"><title>urn:uuid:3d6c8ed0&#45;83c0&#45;4b12&#45;9154&#45;2804f4317598</title>
<polygon fill="black" stroke="black" points="642.905,-367.8 642.905,-426.2 1188.02,-426.2 1188.02,-367.8 642.905,-367.8"/>
<text text-anchor="middle" x="915.461" y="-409.6" font-family="Courier,monospace" font-weight="bold" font-size="14.00" fill="white">ohibc run 1 </text>
<text text-anchor="middle" x="915.461" y="-392.8" font-family="Courier,monospace" font-weight="bold" font-size="14.00" fill="white"> /Users/slaughter/git/OHI&#45;Science/ohibc/get_analysis_rasters.R </text>
<text text-anchor="middle" x="915.461" y="-376" font-family="Courier,monospace" font-weight="bold" font-size="14.00" fill="white"> urn:uuid:3d6c8ed0&#45;83c0&#45;4b12&#45;9154&#45;2804f4317598</text>
</g>
<!-- /Users/slaughter/git/OHI&#45;Science/ohibc/prep/lsp/vHS/spatial/hs_inland_1km_raster_500m.tif -->
<g id="node18" class="node"><title>/Users/slaughter/git/OHI&#45;Science/ohibc/prep/lsp/vHS/spatial/hs_inland_1km_raster_500m.tif</title>
<path fill="#ffe4b5" stroke="black" d="M1734.69,-388C1734.69,-388 1262.65,-388 1262.65,-388 1256.65,-388 1250.65,-382 1250.65,-376 1250.65,-376 1250.65,-364 1250.65,-364 1250.65,-358 1256.65,-352 1262.65,-352 1262.65,-352 1734.69,-352 1734.69,-352 1740.69,-352 1746.69,-358 1746.69,-364 1746.69,-364 1746.69,-376 1746.69,-376 1746.69,-382 1740.69,-388 1734.69,-388"/>
<text text-anchor="middle" x="1498.67" y="-367.3" font-family="Courier,monospace" font-weight="bold" font-size="9.00">/Users/slaughter/git/OHI&#45;Science/ohibc/prep/lsp/vHS/spatial/hs_inland_1km_raster_500m.tif</text>
</g>
<!-- urn:uuid:3d6c8ed0&#45;83c0&#45;4b12&#45;9154&#45;2804f4317598&#45;&gt;/Users/slaughter/git/OHI&#45;Science/ohibc/prep/lsp/vHS/spatial/hs_inland_1km_raster_500m.tif -->
<g id="edge21" class="edge"><title>urn:uuid:3d6c8ed0&#45;83c0&#45;4b12&#45;9154&#45;2804f4317598&#45;&gt;/Users/slaughter/git/OHI&#45;Science/ohibc/prep/lsp/vHS/spatial/hs_inland_1km_raster_500m.tif</title>
<path fill="none" stroke="black" d="M1188.35,-384.37C1205.64,-383.566 1223.01,-382.759 1240.23,-381.959"/>
<polygon fill="black" stroke="black" points="1240.52,-385.45 1250.35,-381.489 1240.2,-378.457 1240.52,-385.45"/>
</g>
<!-- /Users/slaughter/git/OHI&#45;Science/ohibc/prep/lsp/vHS/spatial/hs_offshore_3nm_raster_500m.tif -->
<g id="node19" class="node"><title>/Users/slaughter/git/OHI&#45;Science/ohibc/prep/lsp/vHS/spatial/hs_offshore_3nm_raster_500m.tif</title>
<path fill="#ffe4b5" stroke="black" d="M1740.49,-442C1740.49,-442 1256.85,-442 1256.85,-442 1250.85,-442 1244.85,-436 1244.85,-430 1244.85,-430 1244.85,-418 1244.85,-418 1244.85,-412 1250.85,-406 1256.85,-406 1256.85,-406 1740.49,-406 1740.49,-406 1746.49,-406 1752.49,-412 1752.49,-418 1752.49,-418 1752.49,-430 1752.49,-430 1752.49,-436 1746.49,-442 1740.49,-442"/>
<text text-anchor="middle" x="1498.67" y="-421.3" font-family="Courier,monospace" font-weight="bold" font-size="9.00">/Users/slaughter/git/OHI&#45;Science/ohibc/prep/lsp/vHS/spatial/hs_offshore_3nm_raster_500m.tif</text>
</g>
<!-- urn:uuid:3d6c8ed0&#45;83c0&#45;4b12&#45;9154&#45;2804f4317598&#45;&gt;/Users/slaughter/git/OHI&#45;Science/ohibc/prep/lsp/vHS/spatial/hs_offshore_3nm_raster_500m.tif -->
<g id="edge22" class="edge"><title>urn:uuid:3d6c8ed0&#45;83c0&#45;4b12&#45;9154&#45;2804f4317598&#45;&gt;/Users/slaughter/git/OHI&#45;Science/ohibc/prep/lsp/vHS/spatial/hs_offshore_3nm_raster_500m.tif</title>
<path fill="none" stroke="black" d="M1188.35,-409.63C1203.74,-410.345 1219.2,-411.064 1234.55,-411.777"/>
<polygon fill="black" stroke="black" points="1234.48,-415.277 1244.63,-412.245 1234.8,-408.285 1234.48,-415.277"/>
</g>
<!-- urn:uuid:167b320e&#45;9143&#45;4084&#45;882e&#45;7d19914767c0 -->
<g id="node5" class="node"><title>urn:uuid:167b320e&#45;9143&#45;4084&#45;882e&#45;7d19914767c0</title>
<polygon fill="black" stroke="black" points="634.507,-444.8 634.507,-503.2 1196.42,-503.2 1196.42,-444.8 634.507,-444.8"/>
<text text-anchor="middle" x="915.461" y="-486.6" font-family="Courier,monospace" font-weight="bold" font-size="14.00" fill="white">ohibc run 1 </text>
<text text-anchor="middle" x="915.461" y="-469.8" font-family="Courier,monospace" font-weight="bold" font-size="14.00" fill="white"> /Users/slaughter/git/OHI&#45;Science/ohibc/setup_watershed_raster.R </text>
<text text-anchor="middle" x="915.461" y="-453" font-family="Courier,monospace" font-weight="bold" font-size="14.00" fill="white"> urn:uuid:167b320e&#45;9143&#45;4084&#45;882e&#45;7d19914767c0</text>
</g>
<!-- /Users/slaughter/git/OHI&#45;Science/ohibc/prep/lsp/vHS/spatial/howe_sound_watershed_500m.tif -->
<g id="node21" class="node"><title>/Users/slaughter/git/OHI&#45;Science/ohibc/prep/lsp/vHS/spatial/howe_sound_watershed_500m.tif</title>
<path fill="#ffe4b5" stroke="black" d="M1734.69,-496C1734.69,-496 1262.65,-496 1262.65,-496 1256.65,-496 1250.65,-490 1250.65,-484 1250.65,-484 1250.65,-472 1250.65,-472 1250.65,-466 1256.65,-460 1262.65,-460 1262.65,-460 1734.69,-460 1734.69,-460 1740.69,-460 1746.69,-466 1746.69,-472 1746.69,-472 1746.69,-484 1746.69,-484 1746.69,-490 1740.69,-496 1734.69,-496"/>
<text text-anchor="middle" x="1498.67" y="-475.3" font-family="Courier,monospace" font-weight="bold" font-size="9.00">/Users/slaughter/git/OHI&#45;Science/ohibc/prep/lsp/vHS/spatial/howe_sound_watershed_500m.tif</text>
</g>
<!-- urn:uuid:167b320e&#45;9143&#45;4084&#45;882e&#45;7d19914767c0&#45;&gt;/Users/slaughter/git/OHI&#45;Science/ohibc/prep/lsp/vHS/spatial/howe_sound_watershed_500m.tif -->
<g id="edge23" class="edge"><title>urn:uuid:167b320e&#45;9143&#45;4084&#45;882e&#45;7d19914767c0&#45;&gt;/Users/slaughter/git/OHI&#45;Science/ohibc/prep/lsp/vHS/spatial/howe_sound_watershed_500m.tif</title>
<path fill="none" stroke="black" d="M1196.43,-475.927C1211.06,-476.028 1225.74,-476.128 1240.3,-476.229"/>
<polygon fill="black" stroke="black" points="1240.33,-479.729 1250.36,-476.298 1240.38,-472.729 1240.33,-479.729"/>
</g>
<!-- urn:uuid:f5d6b763&#45;c953&#45;48f4&#45;9a39&#45;4a61f45bfdd3 -->
<g id="node6" class="node"><title>urn:uuid:f5d6b763&#45;c953&#45;48f4&#45;9a39&#45;4a61f45bfdd3</title>
<polygon fill="black" stroke="black" points="1788.33,-340.8 1788.33,-399.2 2291.45,-399.2 2291.45,-340.8 1788.33,-340.8"/>
<text text-anchor="middle" x="2039.89" y="-382.6" font-family="Courier,monospace" font-weight="bold" font-size="14.00" fill="white">ohibc run 1 </text>
<text text-anchor="middle" x="2039.89" y="-365.8" font-family="Courier,monospace" font-weight="bold" font-size="14.00" fill="white"> /Users/slaughter/git/OHI&#45;Science/ohibc/lsp_zonal_stats.R </text>
<text text-anchor="middle" x="2039.89" y="-349" font-family="Courier,monospace" font-weight="bold" font-size="14.00" fill="white"> urn:uuid:f5d6b763&#45;c953&#45;48f4&#45;9a39&#45;4a61f45bfdd3</text>
</g>
<!-- /Users/slaughter/git/OHI&#45;Science/ohibc/prep/lsp/vHS/int/zonal_stats_3nm.csv -->
<g id="node23" class="node"><title>/Users/slaughter/git/OHI&#45;Science/ohibc/prep/lsp/vHS/int/zonal_stats_3nm.csv</title>
<path fill="#ffe4b5" stroke="black" d="M2736.35,-334C2736.35,-334 2339.48,-334 2339.48,-334 2333.48,-334 2327.48,-328 2327.48,-322 2327.48,-322 2327.48,-310 2327.48,-310 2327.48,-304 2333.48,-298 2339.48,-298 2339.48,-298 2736.35,-298 2736.35,-298 2742.35,-298 2748.35,-304 2748.35,-310 2748.35,-310 2748.35,-322 2748.35,-322 2748.35,-328 2742.35,-334 2736.35,-334"/>
<text text-anchor="middle" x="2537.92" y="-313.3" font-family="Courier,monospace" font-weight="bold" font-size="9.00">/Users/slaughter/git/OHI&#45;Science/ohibc/prep/lsp/vHS/int/zonal_stats_3nm.csv</text>
</g>
<!-- urn:uuid:f5d6b763&#45;c953&#45;48f4&#45;9a39&#45;4a61f45bfdd3&#45;&gt;/Users/slaughter/git/OHI&#45;Science/ohibc/prep/lsp/vHS/int/zonal_stats_3nm.csv -->
<g id="edge24" class="edge"><title>urn:uuid:f5d6b763&#45;c953&#45;48f4&#45;9a39&#45;4a61f45bfdd3&#45;&gt;/Users/slaughter/git/OHI&#45;Science/ohibc/prep/lsp/vHS/int/zonal_stats_3nm.csv</title>
<path fill="none" stroke="black" d="M2291.81,-342.684C2315.36,-340.12 2338.87,-337.56 2361.5,-335.097"/>
<polygon fill="black" stroke="black" points="2361.92,-338.571 2371.49,-334.01 2361.17,-331.613 2361.92,-338.571"/>
</g>
<!-- /Users/slaughter/git/OHI&#45;Science/ohibc/prep/lsp/vHS/int/zonal_stats_1km.csv -->
<g id="node24" class="node"><title>/Users/slaughter/git/OHI&#45;Science/ohibc/prep/lsp/vHS/int/zonal_stats_1km.csv</title>
<path fill="#ffe4b5" stroke="black" d="M2736.35,-388C2736.35,-388 2339.48,-388 2339.48,-388 2333.48,-388 2327.48,-382 2327.48,-376 2327.48,-376 2327.48,-364 2327.48,-364 2327.48,-358 2333.48,-352 2339.48,-352 2339.48,-352 2736.35,-352 2736.35,-352 2742.35,-352 2748.35,-358 2748.35,-364 2748.35,-364 2748.35,-376 2748.35,-376 2748.35,-382 2742.35,-388 2736.35,-388"/>
<text text-anchor="middle" x="2537.92" y="-367.3" font-family="Courier,monospace" font-weight="bold" font-size="9.00">/Users/slaughter/git/OHI&#45;Science/ohibc/prep/lsp/vHS/int/zonal_stats_1km.csv</text>
</g>
<!-- urn:uuid:f5d6b763&#45;c953&#45;48f4&#45;9a39&#45;4a61f45bfdd3&#45;&gt;/Users/slaughter/git/OHI&#45;Science/ohibc/prep/lsp/vHS/int/zonal_stats_1km.csv -->
<g id="edge25" class="edge"><title>urn:uuid:f5d6b763&#45;c953&#45;48f4&#45;9a39&#45;4a61f45bfdd3&#45;&gt;/Users/slaughter/git/OHI&#45;Science/ohibc/prep/lsp/vHS/int/zonal_stats_1km.csv</title>
<path fill="none" stroke="black" d="M2291.81,-370C2300.27,-370 2308.72,-370 2317.13,-370"/>
<polygon fill="black" stroke="black" points="2317.36,-373.5 2327.36,-370 2317.36,-366.5 2317.36,-373.5"/>
</g>
<!-- /Users/slaughter/git/OHI&#45;Science/ohibc/prep/lsp/vHS/int/zonal_stats_ws.csv -->
<g id="node25" class="node"><title>/Users/slaughter/git/OHI&#45;Science/ohibc/prep/lsp/vHS/int/zonal_stats_ws.csv</title>
<path fill="#ffe4b5" stroke="black" d="M2733.45,-442C2733.45,-442 2342.38,-442 2342.38,-442 2336.38,-442 2330.38,-436 2330.38,-430 2330.38,-430 2330.38,-418 2330.38,-418 2330.38,-412 2336.38,-406 2342.38,-406 2342.38,-406 2733.45,-406 2733.45,-406 2739.45,-406 2745.45,-412 2745.45,-418 2745.45,-418 2745.45,-430 2745.45,-430 2745.45,-436 2739.45,-442 2733.45,-442"/>
<text text-anchor="middle" x="2537.92" y="-421.3" font-family="Courier,monospace" font-weight="bold" font-size="9.00">/Users/slaughter/git/OHI&#45;Science/ohibc/prep/lsp/vHS/int/zonal_stats_ws.csv</text>
</g>
<!-- urn:uuid:f5d6b763&#45;c953&#45;48f4&#45;9a39&#45;4a61f45bfdd3&#45;&gt;/Users/slaughter/git/OHI&#45;Science/ohibc/prep/lsp/vHS/int/zonal_stats_ws.csv -->
<g id="edge26" class="edge"><title>urn:uuid:f5d6b763&#45;c953&#45;48f4&#45;9a39&#45;4a61f45bfdd3&#45;&gt;/Users/slaughter/git/OHI&#45;Science/ohibc/prep/lsp/vHS/int/zonal_stats_ws.csv</title>
<path fill="none" stroke="black" d="M2291.81,-397.316C2315.36,-399.88 2338.87,-402.44 2361.5,-404.903"/>
<polygon fill="black" stroke="black" points="2361.17,-408.387 2371.49,-405.99 2361.92,-401.429 2361.17,-408.387"/>
</g>
<!-- urn:uuid:53c74750&#45;d660&#45;479d&#45;8e59&#45;f54068835317 -->
<g id="node7" class="node"><title>urn:uuid:53c74750&#45;d660&#45;479d&#45;8e59&#45;f54068835317</title>
<polygon fill="black" stroke="black" points="2784.38,-340.8 2784.38,-399.2 3337.89,-399.2 3337.89,-340.8 2784.38,-340.8"/>
<text text-anchor="middle" x="3061.14" y="-382.6" font-family="Courier,monospace" font-weight="bold" font-size="14.00" fill="white">ohibc run 1 </text>
<text text-anchor="middle" x="3061.14" y="-365.8" font-family="Courier,monospace" font-weight="bold" font-size="14.00" fill="white"> /Users/slaughter/git/OHI&#45;Science/ohibc/summarize_zonal_stats.R </text>
<text text-anchor="middle" x="3061.14" y="-349" font-family="Courier,monospace" font-weight="bold" font-size="14.00" fill="white"> urn:uuid:53c74750&#45;d660&#45;479d&#45;8e59&#45;f54068835317</text>
</g>
<!-- /Users/slaughter/git/OHI&#45;Science/ohibc/prep/lsp/vHS/int/area_protected_ws.csv -->
<g id="node27" class="node"><title>/Users/slaughter/git/OHI&#45;Science/ohibc/prep/lsp/vHS/int/area_protected_ws.csv</title>
<path fill="#ffe4b5" stroke="black" d="M3796.19,-334C3796.19,-334 3388.73,-334 3388.73,-334 3382.73,-334 3376.73,-328 3376.73,-322 3376.73,-322 3376.73,-310 3376.73,-310 3376.73,-304 3382.73,-298 3388.73,-298 3388.73,-298 3796.19,-298 3796.19,-298 3802.19,-298 3808.19,-304 3808.19,-310 3808.19,-310 3808.19,-322 3808.19,-322 3808.19,-328 3802.19,-334 3796.19,-334"/>
<text text-anchor="middle" x="3592.46" y="-313.3" font-family="Courier,monospace" font-weight="bold" font-size="9.00">/Users/slaughter/git/OHI&#45;Science/ohibc/prep/lsp/vHS/int/area_protected_ws.csv</text>
</g>
<!-- urn:uuid:53c74750&#45;d660&#45;479d&#45;8e59&#45;f54068835317&#45;&gt;/Users/slaughter/git/OHI&#45;Science/ohibc/prep/lsp/vHS/int/area_protected_ws.csv -->
<g id="edge27" class="edge"><title>urn:uuid:53c74750&#45;d660&#45;479d&#45;8e59&#45;f54068835317&#45;&gt;/Users/slaughter/git/OHI&#45;Science/ohibc/prep/lsp/vHS/int/area_protected_ws.csv</title>
<path fill="none" stroke="black" d="M3338.04,-341.853C3360.57,-339.555 3382.99,-337.268 3404.65,-335.058"/>
<polygon fill="black" stroke="black" points="3405.28,-338.512 3414.87,-334.015 3404.57,-331.548 3405.28,-338.512"/>
</g>
<!-- /Users/slaughter/git/OHI&#45;Science/ohibc/prep/lsp/vHS/int/area_protected_3nm.csv -->
<g id="node28" class="node"><title>/Users/slaughter/git/OHI&#45;Science/ohibc/prep/lsp/vHS/int/area_protected_3nm.csv</title>
<path fill="#ffe4b5" stroke="black" d="M3799.09,-388C3799.09,-388 3385.83,-388 3385.83,-388 3379.83,-388 3373.83,-382 3373.83,-376 3373.83,-376 3373.83,-364 3373.83,-364 3373.83,-358 3379.83,-352 3385.83,-352 3385.83,-352 3799.09,-352 3799.09,-352 3805.09,-352 3811.09,-358 3811.09,-364 3811.09,-364 3811.09,-376 3811.09,-376 3811.09,-382 3805.09,-388 3799.09,-388"/>
<text text-anchor="middle" x="3592.46" y="-367.3" font-family="Courier,monospace" font-weight="bold" font-size="9.00">/Users/slaughter/git/OHI&#45;Science/ohibc/prep/lsp/vHS/int/area_protected_3nm.csv</text>
</g>
<!-- urn:uuid:53c74750&#45;d660&#45;479d&#45;8e59&#45;f54068835317&#45;&gt;/Users/slaughter/git/OHI&#45;Science/ohibc/prep/lsp/vHS/int/area_protected_3nm.csv -->
<g id="edge28" class="edge"><title>urn:uuid:53c74750&#45;d660&#45;479d&#45;8e59&#45;f54068835317&#45;&gt;/Users/slaughter/git/OHI&#45;Science/ohibc/prep/lsp/vHS/int/area_protected_3nm.csv</title>
<path fill="none" stroke="black" d="M3338.04,-370C3346.51,-370 3354.97,-370 3363.38,-370"/>
<polygon fill="black" stroke="black" points="3363.61,-373.5 3373.61,-370 3363.61,-366.5 3363.61,-373.5"/>
</g>
<!-- /Users/slaughter/git/OHI&#45;Science/ohibc/prep/lsp/vHS/int/area_protected_1km.csv -->
<g id="node29" class="node"><title>/Users/slaughter/git/OHI&#45;Science/ohibc/prep/lsp/vHS/int/area_protected_1km.csv</title>
<path fill="#ffe4b5" stroke="black" d="M3799.09,-442C3799.09,-442 3385.83,-442 3385.83,-442 3379.83,-442 3373.83,-436 3373.83,-430 3373.83,-430 3373.83,-418 3373.83,-418 3373.83,-412 3379.83,-406 3385.83,-406 3385.83,-406 3799.09,-406 3799.09,-406 3805.09,-406 3811.09,-412 3811.09,-418 3811.09,-418 3811.09,-430 3811.09,-430 3811.09,-436 3805.09,-442 3799.09,-442"/>
<text text-anchor="middle" x="3592.46" y="-421.3" font-family="Courier,monospace" font-weight="bold" font-size="9.00">/Users/slaughter/git/OHI&#45;Science/ohibc/prep/lsp/vHS/int/area_protected_1km.csv</text>
</g>
<!-- urn:uuid:53c74750&#45;d660&#45;479d&#45;8e59&#45;f54068835317&#45;&gt;/Users/slaughter/git/OHI&#45;Science/ohibc/prep/lsp/vHS/int/area_protected_1km.csv -->
<g id="edge29" class="edge"><title>urn:uuid:53c74750&#45;d660&#45;479d&#45;8e59&#45;f54068835317&#45;&gt;/Users/slaughter/git/OHI&#45;Science/ohibc/prep/lsp/vHS/int/area_protected_1km.csv</title>
<path fill="none" stroke="black" d="M3338.04,-398.147C3360.57,-400.445 3382.99,-402.732 3404.65,-404.942"/>
<polygon fill="black" stroke="black" points="3404.57,-408.452 3414.87,-405.985 3405.28,-401.488 3404.57,-408.452"/>
</g>
<!-- urn:uuid:4fcd5da4&#45;67af&#45;4f8d&#45;ad36&#45;c9cdf45621d4 -->
<g id="node8" class="node"><title>urn:uuid:4fcd5da4&#45;67af&#45;4f8d&#45;ad36&#45;c9cdf45621d4</title>
<polygon fill="black" stroke="black" points="3847.02,-340.8 3847.02,-399.2 4450.93,-399.2 4450.93,-340.8 3847.02,-340.8"/>
<text text-anchor="middle" x="4148.97" y="-382.6" font-family="Courier,monospace" font-weight="bold" font-size="14.00" fill="white">ohibc run 1 </text>
<text text-anchor="middle" x="4148.97" y="-365.8" font-family="Courier,monospace" font-weight="bold" font-size="14.00" fill="white"> /Users/slaughter/git/OHI&#45;Science/ohibc/combine_inland_and_offshore.R </text>
<text text-anchor="middle" x="4148.97" y="-349" font-family="Courier,monospace" font-weight="bold" font-size="14.00" fill="white"> urn:uuid:4fcd5da4&#45;67af&#45;4f8d&#45;ad36&#45;c9cdf45621d4</text>
</g>
<!-- /Users/slaughter/git/OHI&#45;Science/ohibc/prep/lsp/vHS/output/area_protected_total.csv -->
<g id="node31" class="node"><title>/Users/slaughter/git/OHI&#45;Science/ohibc/prep/lsp/vHS/output/area_protected_total.csv</title>
<path fill="#ffe4b5" stroke="black" d="M4939.11,-388C4939.11,-388 4498.86,-388 4498.86,-388 4492.86,-388 4486.86,-382 4486.86,-376 4486.86,-376 4486.86,-364 4486.86,-364 4486.86,-358 4492.86,-352 4498.86,-352 4498.86,-352 4939.11,-352 4939.11,-352 4945.11,-352 4951.11,-358 4951.11,-364 4951.11,-364 4951.11,-376 4951.11,-376 4951.11,-382 4945.11,-388 4939.11,-388"/>
<text text-anchor="middle" x="4718.99" y="-367.3" font-family="Courier,monospace" font-weight="bold" font-size="9.00">/Users/slaughter/git/OHI&#45;Science/ohibc/prep/lsp/vHS/output/area_protected_total.csv</text>
</g>
<!-- urn:uuid:4fcd5da4&#45;67af&#45;4f8d&#45;ad36&#45;c9cdf45621d4&#45;&gt;/Users/slaughter/git/OHI&#45;Science/ohibc/prep/lsp/vHS/output/area_protected_total.csv -->
<g id="edge30" class="edge"><title>urn:uuid:4fcd5da4&#45;67af&#45;4f8d&#45;ad36&#45;c9cdf45621d4&#45;&gt;/Users/slaughter/git/OHI&#45;Science/ohibc/prep/lsp/vHS/output/area_protected_total.csv</title>
<path fill="none" stroke="black" d="M4451.03,-370C4459.53,-370 4468.02,-370 4476.45,-370"/>
<polygon fill="black" stroke="black" points="4476.71,-373.5 4486.71,-370 4476.71,-366.5 4476.71,-373.5"/>
</g>
<!-- urn:uuid:53ada2f7&#45;5e25&#45;4845&#45;883e&#45;1049a90c321c -->
<g id="node9" class="node"><title>urn:uuid:53ada2f7&#45;5e25&#45;4845&#45;883e&#45;1049a90c321c</title>
<polygon fill="black" stroke="black" points="4987.05,-340.8 4987.05,-399.2 5641.34,-399.2 5641.34,-340.8 4987.05,-340.8"/>
<text text-anchor="middle" x="5314.2" y="-382.6" font-family="Courier,monospace" font-weight="bold" font-size="14.00" fill="white">ohibc run 1 </text>
<text text-anchor="middle" x="5314.2" y="-365.8" font-family="Courier,monospace" font-weight="bold" font-size="14.00" fill="white"> /Users/slaughter/git/OHI&#45;Science/ohibc/estimate_status_and_trend_by_year.R </text>
<text text-anchor="middle" x="5314.2" y="-349" font-family="Courier,monospace" font-weight="bold" font-size="14.00" fill="white"> urn:uuid:53ada2f7&#45;5e25&#45;4845&#45;883e&#45;1049a90c321c</text>
</g>
<!-- /Users/slaughter/git/OHI&#45;Science/ohibc/prep/lsp/vHS/output/lsp_status.csv -->
<g id="node33" class="node"><title>/Users/slaughter/git/OHI&#45;Science/ohibc/prep/lsp/vHS/output/lsp_status.csv</title>
<path fill="#ffe4b5" stroke="black" d="M6075.55,-361C6075.55,-361 5689.28,-361 5689.28,-361 5683.28,-361 5677.28,-355 5677.28,-349 5677.28,-349 5677.28,-337 5677.28,-337 5677.28,-331 5683.28,-325 5689.28,-325 5689.28,-325 6075.55,-325 6075.55,-325 6081.55,-325 6087.55,-331 6087.55,-337 6087.55,-337 6087.55,-349 6087.55,-349 6087.55,-355 6081.55,-361 6075.55,-361"/>
<text text-anchor="middle" x="5882.41" y="-340.3" font-family="Courier,monospace" font-weight="bold" font-size="9.00">/Users/slaughter/git/OHI&#45;Science/ohibc/prep/lsp/vHS/output/lsp_status.csv</text>
</g>
<!-- urn:uuid:53ada2f7&#45;5e25&#45;4845&#45;883e&#45;1049a90c321c&#45;&gt;/Users/slaughter/git/OHI&#45;Science/ohibc/prep/lsp/vHS/output/lsp_status.csv -->
<g id="edge31" class="edge"><title>urn:uuid:53ada2f7&#45;5e25&#45;4845&#45;883e&#45;1049a90c321c&#45;&gt;/Users/slaughter/git/OHI&#45;Science/ohibc/prep/lsp/vHS/output/lsp_status.csv</title>
<path fill="none" stroke="black" d="M5641.7,-354.431C5650.16,-354.027 5658.57,-353.626 5666.9,-353.229"/>
<polygon fill="black" stroke="black" points="5667.19,-356.719 5677.02,-352.747 5666.86,-349.727 5667.19,-356.719"/>
</g>
<!-- /Users/slaughter/git/OHI&#45;Science/ohibc/prep/lsp/vHS/output/lsp_trend.csv -->
<g id="node34" class="node"><title>/Users/slaughter/git/OHI&#45;Science/ohibc/prep/lsp/vHS/output/lsp_trend.csv</title>
<path fill="#ffe4b5" stroke="black" d="M6072.65,-415C6072.65,-415 5692.18,-415 5692.18,-415 5686.18,-415 5680.18,-409 5680.18,-403 5680.18,-403 5680.18,-391 5680.18,-391 5680.18,-385 5686.18,-379 5692.18,-379 5692.18,-379 6072.65,-379 6072.65,-379 6078.65,-379 6084.65,-385 6084.65,-391 6084.65,-391 6084.65,-403 6084.65,-403 6084.65,-409 6078.65,-415 6072.65,-415"/>
<text text-anchor="middle" x="5882.41" y="-394.3" font-family="Courier,monospace" font-weight="bold" font-size="9.00">/Users/slaughter/git/OHI&#45;Science/ohibc/prep/lsp/vHS/output/lsp_trend.csv</text>
</g>
<!-- urn:uuid:53ada2f7&#45;5e25&#45;4845&#45;883e&#45;1049a90c321c&#45;&gt;/Users/slaughter/git/OHI&#45;Science/ohibc/prep/lsp/vHS/output/lsp_trend.csv -->
<g id="edge32" class="edge"><title>urn:uuid:53ada2f7&#45;5e25&#45;4845&#45;883e&#45;1049a90c321c&#45;&gt;/Users/slaughter/git/OHI&#45;Science/ohibc/prep/lsp/vHS/output/lsp_trend.csv</title>
<path fill="none" stroke="black" d="M5641.7,-385.569C5651.16,-386.021 5660.56,-386.469 5669.85,-386.912"/>
<polygon fill="black" stroke="black" points="5669.73,-390.41 5679.89,-387.39 5670.06,-383.418 5669.73,-390.41"/>
</g>
<!-- /Users/slaughter/git/OHI&#45;Science/ohibc/setup_BC_WDPA_polygons.R -->
<g id="node10" class="node"><title>/Users/slaughter/git/OHI&#45;Science/ohibc/setup_BC_WDPA_polygons.R</title>
<path fill="#ffe4b5" stroke="black" d="M471.098,-600C471.098,-600 138.811,-600 138.811,-600 132.811,-600 126.811,-594 126.811,-588 126.811,-588 126.811,-576 126.811,-576 126.811,-570 132.811,-564 138.811,-564 138.811,-564 471.098,-564 471.098,-564 477.098,-564 483.098,-570 483.098,-576 483.098,-576 483.098,-588 483.098,-588 483.098,-594 477.098,-600 471.098,-600"/>
<text text-anchor="middle" x="304.954" y="-579.3" font-family="Courier,monospace" font-weight="bold" font-size="9.00">/Users/slaughter/git/OHI&#45;Science/ohibc/setup_BC_WDPA_polygons.R</text>
</g>
<!-- /Volumes/ohi/git&#45;annex/bcprep/_raw_data/databc/TA_PEP_SVW/TA_PEP_SVW_polygon.shp -->
<g id="node11" class="node"><title>/Volumes/ohi/git&#45;annex/bcprep/_raw_data/databc/TA_PEP_SVW/TA_PEP_SVW_polygon.shp</title>
<path fill="#ffe4b5" stroke="black" d="M516.883,-546C516.883,-546 93.0265,-546 93.0265,-546 87.0265,-546 81.0265,-540 81.0265,-534 81.0265,-534 81.0265,-522 81.0265,-522 81.0265,-516 87.0265,-510 93.0265,-510 93.0265,-510 516.883,-510 516.883,-510 522.883,-510 528.883,-516 528.883,-522 528.883,-522 528.883,-534 528.883,-534 528.883,-540 522.883,-546 516.883,-546"/>
<text text-anchor="middle" x="304.954" y="-525.3" font-family="Courier,monospace" font-weight="bold" font-size="9.00">/Volumes/ohi/git&#45;annex/bcprep/_raw_data/databc/TA_PEP_SVW/TA_PEP_SVW_polygon.shp</text>
</g>
<!-- /Volumes/ohi/git&#45;annex/bcprep/_raw_data/databc/TA_PEP_SVW/TA_PEP_SVW_polygon.shp&#45;&gt;urn:uuid:21be88bf&#45;e44e&#45;44c8&#45;bc98&#45;f08657fd1aa3 -->
<g id="edge1" class="edge"><title>/Volumes/ohi/git&#45;annex/bcprep/_raw_data/databc/TA_PEP_SVW/TA_PEP_SVW_polygon.shp&#45;&gt;urn:uuid:21be88bf&#45;e44e&#45;44c8&#45;bc98&#45;f08657fd1aa3</title>
<path fill="none" stroke="black" d="M529.085,-536.434C561.361,-537.654 594.952,-538.923 628.253,-540.182"/>
<polygon fill="black" stroke="black" points="628.452,-543.692 638.577,-540.572 628.716,-536.697 628.452,-543.692"/>
</g>
<!-- /Users/slaughter/git/OHI&#45;Science/ohibc/setup_BC_PEP_polygons.R -->
<g id="node13" class="node"><title>/Users/slaughter/git/OHI&#45;Science/ohibc/setup_BC_PEP_polygons.R</title>
<path fill="#ffe4b5" stroke="black" d="M468.199,-492C468.199,-492 141.71,-492 141.71,-492 135.71,-492 129.71,-486 129.71,-480 129.71,-480 129.71,-468 129.71,-468 129.71,-462 135.71,-456 141.71,-456 141.71,-456 468.199,-456 468.199,-456 474.199,-456 480.199,-462 480.199,-468 480.199,-468 480.199,-480 480.199,-480 480.199,-486 474.199,-492 468.199,-492"/>
<text text-anchor="middle" x="304.954" y="-471.3" font-family="Courier,monospace" font-weight="bold" font-size="9.00">/Users/slaughter/git/OHI&#45;Science/ohibc/setup_BC_PEP_polygons.R</text>
</g>
<!-- /Users/slaughter/git/OHI&#45;Science/ohibc/prep/spatial/raster/ohibc_rgn_raster_500m.tif -->
<g id="node14" class="node"><title>/Users/slaughter/git/OHI&#45;Science/ohibc/prep/spatial/raster/ohibc_rgn_raster_500m.tif</title>
<path fill="#ffe4b5" stroke="black" d="M527.479,-438C527.479,-438 82.4299,-438 82.4299,-438 76.4299,-438 70.4299,-432 70.4299,-426 70.4299,-426 70.4299,-414 70.4299,-414 70.4299,-408 76.4299,-402 82.4299,-402 82.4299,-402 527.479,-402 527.479,-402 533.479,-402 539.479,-408 539.479,-414 539.479,-414 539.479,-426 539.479,-426 539.479,-432 533.479,-438 527.479,-438"/>
<text text-anchor="middle" x="304.954" y="-417.3" font-family="Courier,monospace" font-weight="bold" font-size="9.00">/Users/slaughter/git/OHI&#45;Science/ohibc/prep/spatial/raster/ohibc_rgn_raster_500m.tif</text>
</g>
<!-- /Users/slaughter/git/OHI&#45;Science/ohibc/prep/spatial/raster/ohibc_rgn_raster_500m.tif&#45;&gt;urn:uuid:98b5270a&#45;1577&#45;4865&#45;970f&#45;17c6b0065374 -->
<g id="edge2" class="edge"><title>/Users/slaughter/git/OHI&#45;Science/ohibc/prep/spatial/raster/ohibc_rgn_raster_500m.tif&#45;&gt;urn:uuid:98b5270a&#45;1577&#45;4865&#45;970f&#45;17c6b0065374</title>
<path fill="none" stroke="black" d="M539.506,-409.746C555.549,-405.329 571.177,-399.823 585.909,-393 606.158,-383.622 601.883,-367.846 621.909,-358 628.478,-354.77 635.223,-351.77 642.105,-348.984"/>
<polygon fill="black" stroke="black" points="643.51,-352.193 651.569,-345.316 640.98,-345.666 643.51,-352.193"/>
</g>
<!-- /Users/slaughter/git/OHI&#45;Science/ohibc/prep/spatial/raster/ohibc_rgn_raster_500m.tif&#45;&gt;urn:uuid:3d6c8ed0&#45;83c0&#45;4b12&#45;9154&#45;2804f4317598 -->
<g id="edge3" class="edge"><title>/Users/slaughter/git/OHI&#45;Science/ohibc/prep/spatial/raster/ohibc_rgn_raster_500m.tif&#45;&gt;urn:uuid:3d6c8ed0&#45;83c0&#45;4b12&#45;9154&#45;2804f4317598</title>
<path fill="none" stroke="black" d="M539.914,-411.157C570.292,-410.009 601.659,-408.823 632.711,-407.649"/>
<polygon fill="black" stroke="black" points="632.92,-411.144 642.781,-407.269 632.656,-404.149 632.92,-411.144"/>
</g>
<!-- /Users/slaughter/git/OHI&#45;Science/ohibc/prep/spatial/raster/ohibc_rgn_raster_500m.tif&#45;&gt;urn:uuid:167b320e&#45;9143&#45;4084&#45;882e&#45;7d19914767c0 -->
<g id="edge4" class="edge"><title>/Users/slaughter/git/OHI&#45;Science/ohibc/prep/spatial/raster/ohibc_rgn_raster_500m.tif&#45;&gt;urn:uuid:167b320e&#45;9143&#45;4084&#45;882e&#45;7d19914767c0</title>
<path fill="none" stroke="black" d="M509.001,-438.019C545.963,-441.299 585.173,-444.778 624.081,-448.231"/>
<polygon fill="black" stroke="black" points="624.232,-451.758 634.502,-449.156 624.851,-444.786 624.232,-451.758"/>
</g>
<!-- /Users/slaughter/git/OHI&#45;Science/ohibc/prep/lsp/vHS/spatial/hs_wdpa_rast_500m.tif&#45;&gt;urn:uuid:f5d6b763&#45;c953&#45;48f4&#45;9a39&#45;4a61f45bfdd3 -->
<g id="edge9" class="edge"><title>/Users/slaughter/git/OHI&#45;Science/ohibc/prep/lsp/vHS/spatial/hs_wdpa_rast_500m.tif&#45;&gt;urn:uuid:f5d6b763&#45;c953&#45;48f4&#45;9a39&#45;4a61f45bfdd3</title>
<path fill="none" stroke="black" d="M1698.41,-280.026C1716.7,-282.652 1734.9,-285.63 1752.33,-289 1815.78,-301.266 1885.58,-320.864 1940.41,-337.71"/>
<polygon fill="black" stroke="black" points="1939.53,-341.102 1950.12,-340.713 1941.6,-334.415 1939.53,-341.102"/>
</g>
<!-- /Users/slaughter/git/OHI&#45;Science/ohibc/prep/lsp/vHS/spatial/hs_pep_rast_500m.tif&#45;&gt;urn:uuid:f5d6b763&#45;c953&#45;48f4&#45;9a39&#45;4a61f45bfdd3 -->
<g id="edge8" class="edge"><title>/Users/slaughter/git/OHI&#45;Science/ohibc/prep/lsp/vHS/spatial/hs_pep_rast_500m.tif&#45;&gt;urn:uuid:f5d6b763&#45;c953&#45;48f4&#45;9a39&#45;4a61f45bfdd3</title>
<path fill="none" stroke="black" d="M1679.6,-334.019C1711.1,-337.174 1744.45,-340.513 1777.62,-343.835"/>
<polygon fill="black" stroke="black" points="1777.61,-347.352 1787.91,-344.866 1778.31,-340.387 1777.61,-347.352"/>
</g>
<!-- /Users/slaughter/git/OHI&#45;Science/ohibc/rasterize_HS_WDPA_and_PEP.R -->
<g id="node17" class="node"><title>/Users/slaughter/git/OHI&#45;Science/ohibc/rasterize_HS_WDPA_and_PEP.R</title>
<path fill="#ffe4b5" stroke="black" d="M479.295,-384C479.295,-384 130.614,-384 130.614,-384 124.614,-384 118.614,-378 118.614,-372 118.614,-372 118.614,-360 118.614,-360 118.614,-354 124.614,-348 130.614,-348 130.614,-348 479.295,-348 479.295,-348 485.295,-348 491.295,-354 491.295,-360 491.295,-360 491.295,-372 491.295,-372 491.295,-378 485.295,-384 479.295,-384"/>
<text text-anchor="middle" x="304.954" y="-363.3" font-family="Courier,monospace" font-weight="bold" font-size="9.00">/Users/slaughter/git/OHI&#45;Science/ohibc/rasterize_HS_WDPA_and_PEP.R</text>
</g>
<!-- /Users/slaughter/git/OHI&#45;Science/ohibc/prep/lsp/vHS/spatial/hs_inland_1km_raster_500m.tif&#45;&gt;urn:uuid:f5d6b763&#45;c953&#45;48f4&#45;9a39&#45;4a61f45bfdd3 -->
<g id="edge6" class="edge"><title>/Users/slaughter/git/OHI&#45;Science/ohibc/prep/lsp/vHS/spatial/hs_inland_1km_raster_500m.tif&#45;&gt;urn:uuid:f5d6b763&#45;c953&#45;48f4&#45;9a39&#45;4a61f45bfdd3</title>
<path fill="none" stroke="black" d="M1746.79,-370C1757.08,-370 1767.41,-370 1777.73,-370"/>
<polygon fill="black" stroke="black" points="1778.03,-373.5 1788.03,-370 1778.03,-366.5 1778.03,-373.5"/>
</g>
<!-- /Users/slaughter/git/OHI&#45;Science/ohibc/prep/lsp/vHS/spatial/hs_offshore_3nm_raster_500m.tif&#45;&gt;urn:uuid:f5d6b763&#45;c953&#45;48f4&#45;9a39&#45;4a61f45bfdd3 -->
<g id="edge5" class="edge"><title>/Users/slaughter/git/OHI&#45;Science/ohibc/prep/lsp/vHS/spatial/hs_offshore_3nm_raster_500m.tif&#45;&gt;urn:uuid:f5d6b763&#45;c953&#45;48f4&#45;9a39&#45;4a61f45bfdd3</title>
<path fill="none" stroke="black" d="M1679.6,-405.981C1711.1,-402.826 1744.45,-399.487 1777.62,-396.165"/>
<polygon fill="black" stroke="black" points="1778.31,-399.613 1787.91,-395.134 1777.61,-392.648 1778.31,-399.613"/>
</g>
<!-- /Users/slaughter/git/OHI&#45;Science/ohibc/get_analysis_rasters.R -->
<g id="node20" class="node"><title>/Users/slaughter/git/OHI&#45;Science/ohibc/get_analysis_rasters.R</title>
<path fill="#ffe4b5" stroke="black" d="M465.8,-330C465.8,-330 144.109,-330 144.109,-330 138.109,-330 132.109,-324 132.109,-318 132.109,-318 132.109,-306 132.109,-306 132.109,-300 138.109,-294 144.109,-294 144.109,-294 465.8,-294 465.8,-294 471.8,-294 477.8,-300 477.8,-306 477.8,-306 477.8,-318 477.8,-318 477.8,-324 471.8,-330 465.8,-330"/>
<text text-anchor="middle" x="304.954" y="-309.3" font-family="Courier,monospace" font-weight="bold" font-size="9.00">/Users/slaughter/git/OHI&#45;Science/ohibc/get_analysis_rasters.R</text>
</g>
<!-- /Users/slaughter/git/OHI&#45;Science/ohibc/prep/lsp/vHS/spatial/howe_sound_watershed_500m.tif&#45;&gt;urn:uuid:f5d6b763&#45;c953&#45;48f4&#45;9a39&#45;4a61f45bfdd3 -->
<g id="edge7" class="edge"><title>/Users/slaughter/git/OHI&#45;Science/ohibc/prep/lsp/vHS/spatial/howe_sound_watershed_500m.tif&#45;&gt;urn:uuid:f5d6b763&#45;c953&#45;48f4&#45;9a39&#45;4a61f45bfdd3</title>
<path fill="none" stroke="black" d="M1698.41,-459.974C1716.7,-457.348 1734.9,-454.37 1752.33,-451 1815.78,-438.734 1885.58,-419.136 1940.41,-402.29"/>
<polygon fill="black" stroke="black" points="1941.6,-405.585 1950.12,-399.287 1939.53,-398.898 1941.6,-405.585"/>
</g>
<!-- /Users/slaughter/git/OHI&#45;Science/ohibc/setup_watershed_raster.R -->
<g id="node22" class="node"><title>/Users/slaughter/git/OHI&#45;Science/ohibc/setup_watershed_raster.R</title>
<path fill="#ffe4b5" stroke="black" d="M471.098,-276C471.098,-276 138.811,-276 138.811,-276 132.811,-276 126.811,-270 126.811,-264 126.811,-264 126.811,-252 126.811,-252 126.811,-246 132.811,-240 138.811,-240 138.811,-240 471.098,-240 471.098,-240 477.098,-240 483.098,-246 483.098,-252 483.098,-252 483.098,-264 483.098,-264 483.098,-270 477.098,-276 471.098,-276"/>
<text text-anchor="middle" x="304.954" y="-255.3" font-family="Courier,monospace" font-weight="bold" font-size="9.00">/Users/slaughter/git/OHI&#45;Science/ohibc/setup_watershed_raster.R</text>
</g>
<!-- /Users/slaughter/git/OHI&#45;Science/ohibc/prep/lsp/vHS/int/zonal_stats_3nm.csv&#45;&gt;urn:uuid:53c74750&#45;d660&#45;479d&#45;8e59&#45;f54068835317 -->
<g id="edge10" class="edge"><title>/Users/slaughter/git/OHI&#45;Science/ohibc/prep/lsp/vHS/int/zonal_stats_3nm.csv&#45;&gt;urn:uuid:53c74750&#45;d660&#45;479d&#45;8e59&#45;f54068835317</title>
<path fill="none" stroke="black" d="M2712.84,-334.019C2732.77,-336.084 2753.47,-338.228 2774.39,-340.395"/>
<polygon fill="black" stroke="black" points="2774.03,-343.877 2784.34,-341.426 2774.75,-336.914 2774.03,-343.877"/>
</g>
<!-- /Users/slaughter/git/OHI&#45;Science/ohibc/prep/lsp/vHS/int/zonal_stats_1km.csv&#45;&gt;urn:uuid:53c74750&#45;d660&#45;479d&#45;8e59&#45;f54068835317 -->
<g id="edge11" class="edge"><title>/Users/slaughter/git/OHI&#45;Science/ohibc/prep/lsp/vHS/int/zonal_stats_1km.csv&#45;&gt;urn:uuid:53c74750&#45;d660&#45;479d&#45;8e59&#45;f54068835317</title>
<path fill="none" stroke="black" d="M2748.66,-370C2757.1,-370 2765.61,-370 2774.16,-370"/>
<polygon fill="black" stroke="black" points="2774.21,-373.5 2784.21,-370 2774.21,-366.5 2774.21,-373.5"/>
</g>
<!-- /Users/slaughter/git/OHI&#45;Science/ohibc/prep/lsp/vHS/int/zonal_stats_ws.csv&#45;&gt;urn:uuid:53c74750&#45;d660&#45;479d&#45;8e59&#45;f54068835317 -->
<g id="edge12" class="edge"><title>/Users/slaughter/git/OHI&#45;Science/ohibc/prep/lsp/vHS/int/zonal_stats_ws.csv&#45;&gt;urn:uuid:53c74750&#45;d660&#45;479d&#45;8e59&#45;f54068835317</title>
<path fill="none" stroke="black" d="M2712.84,-405.981C2732.77,-403.916 2753.47,-401.772 2774.39,-399.605"/>
<polygon fill="black" stroke="black" points="2774.75,-403.086 2784.34,-398.574 2774.03,-396.123 2774.75,-403.086"/>
</g>
<!-- /Users/slaughter/git/OHI&#45;Science/ohibc/lsp_zonal_stats.R -->
<g id="node26" class="node"><title>/Users/slaughter/git/OHI&#45;Science/ohibc/lsp_zonal_stats.R</title>
<path fill="#ffe4b5" stroke="black" d="M452.304,-222C452.304,-222 157.605,-222 157.605,-222 151.605,-222 145.605,-216 145.605,-210 145.605,-210 145.605,-198 145.605,-198 145.605,-192 151.605,-186 157.605,-186 157.605,-186 452.304,-186 452.304,-186 458.304,-186 464.304,-192 464.304,-198 464.304,-198 464.304,-210 464.304,-210 464.304,-216 458.304,-222 452.304,-222"/>
<text text-anchor="middle" x="304.954" y="-201.3" font-family="Courier,monospace" font-weight="bold" font-size="9.00">/Users/slaughter/git/OHI&#45;Science/ohibc/lsp_zonal_stats.R</text>
</g>
<!-- /Users/slaughter/git/OHI&#45;Science/ohibc/prep/lsp/vHS/int/area_protected_ws.csv&#45;&gt;urn:uuid:4fcd5da4&#45;67af&#45;4f8d&#45;ad36&#45;c9cdf45621d4 -->
<g id="edge15" class="edge"><title>/Users/slaughter/git/OHI&#45;Science/ohibc/prep/lsp/vHS/int/area_protected_ws.csv&#45;&gt;urn:uuid:4fcd5da4&#45;67af&#45;4f8d&#45;ad36&#45;c9cdf45621d4</title>
<path fill="none" stroke="black" d="M3778.49,-334.019C3797.84,-335.903 3817.87,-337.854 3838.14,-339.827"/>
<polygon fill="black" stroke="black" points="3837.81,-343.312 3848.1,-340.798 3838.49,-336.345 3837.81,-343.312"/>
</g>
<!-- /Users/slaughter/git/OHI&#45;Science/ohibc/prep/lsp/vHS/int/area_protected_3nm.csv&#45;&gt;urn:uuid:4fcd5da4&#45;67af&#45;4f8d&#45;ad36&#45;c9cdf45621d4 -->
<g id="edge13" class="edge"><title>/Users/slaughter/git/OHI&#45;Science/ohibc/prep/lsp/vHS/int/area_protected_3nm.csv&#45;&gt;urn:uuid:4fcd5da4&#45;67af&#45;4f8d&#45;ad36&#45;c9cdf45621d4</title>
<path fill="none" stroke="black" d="M3811.03,-370C3819.53,-370 3828.12,-370 3836.74,-370"/>
<polygon fill="black" stroke="black" points="3836.89,-373.5 3846.89,-370 3836.89,-366.5 3836.89,-373.5"/>
</g>
<!-- /Users/slaughter/git/OHI&#45;Science/ohibc/prep/lsp/vHS/int/area_protected_1km.csv&#45;&gt;urn:uuid:4fcd5da4&#45;67af&#45;4f8d&#45;ad36&#45;c9cdf45621d4 -->
<g id="edge14" class="edge"><title>/Users/slaughter/git/OHI&#45;Science/ohibc/prep/lsp/vHS/int/area_protected_1km.csv&#45;&gt;urn:uuid:4fcd5da4&#45;67af&#45;4f8d&#45;ad36&#45;c9cdf45621d4</title>
<path fill="none" stroke="black" d="M3778.49,-405.981C3797.84,-404.097 3817.87,-402.146 3838.14,-400.173"/>
<polygon fill="black" stroke="black" points="3838.49,-403.655 3848.1,-399.202 3837.81,-396.688 3838.49,-403.655"/>
</g>
<!-- /Users/slaughter/git/OHI&#45;Science/ohibc/summarize_zonal_stats.R -->
<g id="node30" class="node"><title>/Users/slaughter/git/OHI&#45;Science/ohibc/summarize_zonal_stats.R</title>
<path fill="#ffe4b5" stroke="black" d="M468.199,-168C468.199,-168 141.71,-168 141.71,-168 135.71,-168 129.71,-162 129.71,-156 129.71,-156 129.71,-144 129.71,-144 129.71,-138 135.71,-132 141.71,-132 141.71,-132 468.199,-132 468.199,-132 474.199,-132 480.199,-138 480.199,-144 480.199,-144 480.199,-156 480.199,-156 480.199,-162 474.199,-168 468.199,-168"/>
<text text-anchor="middle" x="304.954" y="-147.3" font-family="Courier,monospace" font-weight="bold" font-size="9.00">/Users/slaughter/git/OHI&#45;Science/ohibc/summarize_zonal_stats.R</text>
</g>
<!-- /Users/slaughter/git/OHI&#45;Science/ohibc/prep/lsp/vHS/output/area_protected_total.csv&#45;&gt;urn:uuid:53ada2f7&#45;5e25&#45;4845&#45;883e&#45;1049a90c321c -->
<g id="edge16" class="edge"><title>/Users/slaughter/git/OHI&#45;Science/ohibc/prep/lsp/vHS/output/area_protected_total.csv&#45;&gt;urn:uuid:53ada2f7&#45;5e25&#45;4845&#45;883e&#45;1049a90c321c</title>
<path fill="none" stroke="black" d="M4951.46,-363.397C4959.87,-363.358 4968.36,-363.327 4976.89,-363.304"/>
<polygon fill="black" stroke="black" points="4976.93,-366.804 4986.93,-363.28 4976.92,-359.804 4976.93,-366.804"/>
</g>
<!-- /Users/slaughter/git/OHI&#45;Science/ohibc/prep/lsp/vHS/output/area_protected_total.csv&#45;&gt;urn:uuid:53ada2f7&#45;5e25&#45;4845&#45;883e&#45;1049a90c321c -->
<g id="edge17" class="edge"><title>/Users/slaughter/git/OHI&#45;Science/ohibc/prep/lsp/vHS/output/area_protected_total.csv&#45;&gt;urn:uuid:53ada2f7&#45;5e25&#45;4845&#45;883e&#45;1049a90c321c</title>
<path fill="none" stroke="black" d="M4951.46,-376.603C4959.87,-376.642 4968.36,-376.673 4976.89,-376.696"/>
<polygon fill="black" stroke="black" points="4976.92,-380.196 4986.93,-376.72 4976.93,-373.196 4976.92,-380.196"/>
</g>
<!-- /Users/slaughter/git/OHI&#45;Science/ohibc/combine_inland_and_offshore.R -->
<g id="node32" class="node"><title>/Users/slaughter/git/OHI&#45;Science/ohibc/combine_inland_and_offshore.R</title>
<path fill="#ffe4b5" stroke="black" d="M484.593,-114C484.593,-114 125.316,-114 125.316,-114 119.316,-114 113.316,-108 113.316,-102 113.316,-102 113.316,-90 113.316,-90 113.316,-84 119.316,-78 125.316,-78 125.316,-78 484.593,-78 484.593,-78 490.593,-78 496.593,-84 496.593,-90 496.593,-90 496.593,-102 496.593,-102 496.593,-108 490.593,-114 484.593,-114"/>
<text text-anchor="middle" x="304.954" y="-93.3" font-family="Courier,monospace" font-weight="bold" font-size="9.00">/Users/slaughter/git/OHI&#45;Science/ohibc/combine_inland_and_offshore.R</text>
</g>
<!-- /Users/slaughter/git/OHI&#45;Science/ohibc/estimate_status_and_trend_by_year.R -->
<g id="node35" class="node"><title>/Users/slaughter/git/OHI&#45;Science/ohibc/estimate_status_and_trend_by_year.R</title>
<path fill="#ffe4b5" stroke="black" d="M500.488,-60C500.488,-60 109.421,-60 109.421,-60 103.421,-60 97.4208,-54 97.4208,-48 97.4208,-48 97.4208,-36 97.4208,-36 97.4208,-30 103.421,-24 109.421,-24 109.421,-24 500.488,-24 500.488,-24 506.488,-24 512.488,-30 512.488,-36 512.488,-36 512.488,-48 512.488,-48 512.488,-54 506.488,-60 500.488,-60"/>
<text text-anchor="middle" x="304.954" y="-39.3" font-family="Courier,monospace" font-weight="bold" font-size="9.00">/Users/slaughter/git/OHI&#45;Science/ohibc/estimate_status_and_trend_by_year.R</text>
</g>
</g>
</svg>
