<?xml version="1.0" encoding="UTF-8" standalone="no"?>
<!DOCTYPE svg PUBLIC "-//W3C//DTD SVG 1.1//EN"
 "http://www.w3.org/Graphics/SVG/1.1/DTD/svg11.dtd">
<!-- Generated by graphviz version 2.38.0 (20140413.2041)
 -->
<!-- Title: yw_data_view Pages: 1 -->
<svg width="6054pt" height="344pt"
 viewBox="0.00 0.00 6054.09 343.60" xmlns="http://www.w3.org/2000/svg" xmlns:xlink="http://www.w3.org/1999/xlink">
<g id="graph0" class="graph" transform="scale(1 1) rotate(0) translate(4 339.6)">
<title>yw_data_view</title>
<polygon fill="white" stroke="none" points="-4,4 -4,-339.6 6050.09,-339.6 6050.09,4 -4,4"/>
<text text-anchor="middle" x="3023.04" y="-315.4" font-family="Courier,monospace" font-size="18.00">Upstream graph for multiple runs</text>
<g id="clust1" class="cluster"><title>cluster_workflow</title>
<polygon fill="none" stroke="black" stroke-width="2" points="8,-8 8,-298 6038.09,-298 6038.09,-8 8,-8"/>
</g>
<g id="clust2" class="cluster"><title>cluster_workflow_inner</title>
<polygon fill="none" stroke="white" stroke-width="2" points="16,-16 16,-290 6030.09,-290 6030.09,-16 16,-16"/>
</g>
<!-- urn:uuid:4fcd5da4&#45;67af&#45;4f8d&#45;ad36&#45;c9cdf45621d4 -->
<g id="node1" class="node"><title>urn:uuid:4fcd5da4&#45;67af&#45;4f8d&#45;ad36&#45;c9cdf45621d4</title>
<polygon fill="black" stroke="black" points="3776.24,-123.8 3776.24,-182.2 4380.14,-182.2 4380.14,-123.8 3776.24,-123.8"/>
<text text-anchor="middle" x="4078.19" y="-165.6" font-family="Courier,monospace" font-weight="bold" font-size="14.00" fill="white">ohibc run 1 </text>
<text text-anchor="middle" x="4078.19" y="-148.8" font-family="Courier,monospace" font-weight="bold" font-size="14.00" fill="white"> /Users/slaughter/git/OHI&#45;Science/ohibc/combine_inland_and_offshore.R </text>
<text text-anchor="middle" x="4078.19" y="-132" font-family="Courier,monospace" font-weight="bold" font-size="14.00" fill="white"> urn:uuid:4fcd5da4&#45;67af&#45;4f8d&#45;ad36&#45;c9cdf45621d4</text>
</g>
<!-- 9c23639cf9ce610831cc57a78e88bd8ff8b67a46253aff39154b57b58ab60832 -->
<g id="node9" class="node"><title>9c23639cf9ce610831cc57a78e88bd8ff8b67a46253aff39154b57b58ab60832</title>
<path fill="#ffe4b5" stroke="black" d="M4428.14,-135C4428.14,-135 4873.66,-135 4873.66,-135 4879.66,-135 4885.66,-141 4885.66,-147 4885.66,-147 4885.66,-159 4885.66,-159 4885.66,-165 4879.66,-171 4873.66,-171 4873.66,-171 4428.14,-171 4428.14,-171 4422.14,-171 4416.14,-165 4416.14,-159 4416.14,-159 4416.14,-147 4416.14,-147 4416.14,-141 4422.14,-135 4428.14,-135"/>
<text text-anchor="middle" x="4650.9" y="-155.9" font-family="Courier,monospace" font-weight="bold" font-size="9.00">/Users/slaughter/git/OHI&#45;Science/ohibc/prep/lsp/vHS/output/area_protected_total.csv </text>
<text text-anchor="middle" x="4650.9" y="-145.1" font-family="Courier,monospace" font-weight="bold" font-size="9.00"> 9c23639cf9ce610831cc57a78e88bd8ff8b67a46253aff39154b57b58ab60832</text>
</g>
<!-- urn:uuid:4fcd5da4&#45;67af&#45;4f8d&#45;ad36&#45;c9cdf45621d4&#45;&gt;9c23639cf9ce610831cc57a78e88bd8ff8b67a46253aff39154b57b58ab60832 -->
<g id="edge17" class="edge"><title>urn:uuid:4fcd5da4&#45;67af&#45;4f8d&#45;ad36&#45;c9cdf45621d4&#45;&gt;9c23639cf9ce610831cc57a78e88bd8ff8b67a46253aff39154b57b58ab60832</title>
<path fill="none" stroke="black" d="M4380.42,-153C4388.9,-153 4397.36,-153 4405.77,-153"/>
<polygon fill="black" stroke="black" points="4406,-156.5 4416,-153 4406,-149.5 4406,-156.5"/>
</g>
<!-- urn:uuid:53c74750&#45;d660&#45;479d&#45;8e59&#45;f54068835317 -->
<g id="node2" class="node"><title>urn:uuid:53c74750&#45;d660&#45;479d&#45;8e59&#45;f54068835317</title>
<polygon fill="black" stroke="black" points="2708.2,-123.8 2708.2,-182.2 3261.71,-182.2 3261.71,-123.8 2708.2,-123.8"/>
<text text-anchor="middle" x="2984.95" y="-165.6" font-family="Courier,monospace" font-weight="bold" font-size="14.00" fill="white">ohibc run 1 </text>
<text text-anchor="middle" x="2984.95" y="-148.8" font-family="Courier,monospace" font-weight="bold" font-size="14.00" fill="white"> /Users/slaughter/git/OHI&#45;Science/ohibc/summarize_zonal_stats.R </text>
<text text-anchor="middle" x="2984.95" y="-132" font-family="Courier,monospace" font-weight="bold" font-size="14.00" fill="white"> urn:uuid:53c74750&#45;d660&#45;479d&#45;8e59&#45;f54068835317</text>
</g>
<!-- b2cba129ff4ce7c9e83c13b36dc3ff95ce18b4cb4784758b3e94478d4e999b09 -->
<g id="node16" class="node"><title>b2cba129ff4ce7c9e83c13b36dc3ff95ce18b4cb4784758b3e94478d4e999b09</title>
<path fill="#ffe4b5" stroke="black" d="M3309.71,-80C3309.71,-80 3728.24,-80 3728.24,-80 3734.24,-80 3740.24,-86 3740.24,-92 3740.24,-92 3740.24,-104 3740.24,-104 3740.24,-110 3734.24,-116 3728.24,-116 3728.24,-116 3309.71,-116 3309.71,-116 3303.71,-116 3297.71,-110 3297.71,-104 3297.71,-104 3297.71,-92 3297.71,-92 3297.71,-86 3303.71,-80 3309.71,-80"/>
<text text-anchor="middle" x="3518.97" y="-100.9" font-family="Courier,monospace" font-weight="bold" font-size="9.00">/Users/slaughter/git/OHI&#45;Science/ohibc/prep/lsp/vHS/int/area_protected_3nm.csv </text>
<text text-anchor="middle" x="3518.97" y="-90.1" font-family="Courier,monospace" font-weight="bold" font-size="9.00"> b2cba129ff4ce7c9e83c13b36dc3ff95ce18b4cb4784758b3e94478d4e999b09</text>
</g>
<!-- urn:uuid:53c74750&#45;d660&#45;479d&#45;8e59&#45;f54068835317&#45;&gt;b2cba129ff4ce7c9e83c13b36dc3ff95ce18b4cb4784758b3e94478d4e999b09 -->
<g id="edge24" class="edge"><title>urn:uuid:53c74750&#45;d660&#45;479d&#45;8e59&#45;f54068835317&#45;&gt;b2cba129ff4ce7c9e83c13b36dc3ff95ce18b4cb4784758b3e94478d4e999b09</title>
<path fill="none" stroke="black" d="M3262.09,-124.453C3286.22,-121.958 3310.25,-119.474 3333.36,-117.085"/>
<polygon fill="black" stroke="black" points="3333.97,-120.54 3343.56,-116.03 3333.25,-113.577 3333.97,-120.54"/>
</g>
<!-- d792e5fe1c3c98a24dde23e00895f627ab2c0a102f5852dcc4f02e2ba9dba1eb -->
<g id="node17" class="node"><title>d792e5fe1c3c98a24dde23e00895f627ab2c0a102f5852dcc4f02e2ba9dba1eb</title>
<path fill="#ffe4b5" stroke="black" d="M3309.71,-135C3309.71,-135 3728.24,-135 3728.24,-135 3734.24,-135 3740.24,-141 3740.24,-147 3740.24,-147 3740.24,-159 3740.24,-159 3740.24,-165 3734.24,-171 3728.24,-171 3728.24,-171 3309.71,-171 3309.71,-171 3303.71,-171 3297.71,-165 3297.71,-159 3297.71,-159 3297.71,-147 3297.71,-147 3297.71,-141 3303.71,-135 3309.71,-135"/>
<text text-anchor="middle" x="3518.97" y="-155.9" font-family="Courier,monospace" font-weight="bold" font-size="9.00">/Users/slaughter/git/OHI&#45;Science/ohibc/prep/lsp/vHS/int/area_protected_1km.csv </text>
<text text-anchor="middle" x="3518.97" y="-145.1" font-family="Courier,monospace" font-weight="bold" font-size="9.00"> d792e5fe1c3c98a24dde23e00895f627ab2c0a102f5852dcc4f02e2ba9dba1eb</text>
</g>
<!-- urn:uuid:53c74750&#45;d660&#45;479d&#45;8e59&#45;f54068835317&#45;&gt;d792e5fe1c3c98a24dde23e00895f627ab2c0a102f5852dcc4f02e2ba9dba1eb -->
<g id="edge25" class="edge"><title>urn:uuid:53c74750&#45;d660&#45;479d&#45;8e59&#45;f54068835317&#45;&gt;d792e5fe1c3c98a24dde23e00895f627ab2c0a102f5852dcc4f02e2ba9dba1eb</title>
<path fill="none" stroke="black" d="M3262.09,-153C3270.54,-153 3278.98,-153 3287.38,-153"/>
<polygon fill="black" stroke="black" points="3287.59,-156.5 3297.59,-153 3287.59,-149.5 3287.59,-156.5"/>
</g>
<!-- bc918e73e8ffd7509cfd2f5173f4d13b17e620340a6ddae47c56f3b7697be7b1 -->
<g id="node19" class="node"><title>bc918e73e8ffd7509cfd2f5173f4d13b17e620340a6ddae47c56f3b7697be7b1</title>
<path fill="#ffe4b5" stroke="black" d="M3312.41,-190C3312.41,-190 3725.54,-190 3725.54,-190 3731.54,-190 3737.54,-196 3737.54,-202 3737.54,-202 3737.54,-214 3737.54,-214 3737.54,-220 3731.54,-226 3725.54,-226 3725.54,-226 3312.41,-226 3312.41,-226 3306.41,-226 3300.41,-220 3300.41,-214 3300.41,-214 3300.41,-202 3300.41,-202 3300.41,-196 3306.41,-190 3312.41,-190"/>
<text text-anchor="middle" x="3518.97" y="-210.9" font-family="Courier,monospace" font-weight="bold" font-size="9.00">/Users/slaughter/git/OHI&#45;Science/ohibc/prep/lsp/vHS/int/area_protected_ws.csv </text>
<text text-anchor="middle" x="3518.97" y="-200.1" font-family="Courier,monospace" font-weight="bold" font-size="9.00"> bc918e73e8ffd7509cfd2f5173f4d13b17e620340a6ddae47c56f3b7697be7b1</text>
</g>
<!-- urn:uuid:53c74750&#45;d660&#45;479d&#45;8e59&#45;f54068835317&#45;&gt;bc918e73e8ffd7509cfd2f5173f4d13b17e620340a6ddae47c56f3b7697be7b1 -->
<g id="edge26" class="edge"><title>urn:uuid:53c74750&#45;d660&#45;479d&#45;8e59&#45;f54068835317&#45;&gt;bc918e73e8ffd7509cfd2f5173f4d13b17e620340a6ddae47c56f3b7697be7b1</title>
<path fill="none" stroke="black" d="M3262.09,-181.547C3286.22,-184.042 3310.25,-186.526 3333.36,-188.915"/>
<polygon fill="black" stroke="black" points="3333.25,-192.423 3343.56,-189.97 3333.97,-185.46 3333.25,-192.423"/>
</g>
<!-- urn:uuid:f5d6b763&#45;c953&#45;48f4&#45;9a39&#45;4a61f45bfdd3 -->
<g id="node3" class="node"><title>urn:uuid:f5d6b763&#45;c953&#45;48f4&#45;9a39&#45;4a61f45bfdd3</title>
<polygon fill="black" stroke="black" points="1706.75,-123.8 1706.75,-182.2 2209.86,-182.2 2209.86,-123.8 1706.75,-123.8"/>
<text text-anchor="middle" x="1958.3" y="-165.6" font-family="Courier,monospace" font-weight="bold" font-size="14.00" fill="white">ohibc run 1 </text>
<text text-anchor="middle" x="1958.3" y="-148.8" font-family="Courier,monospace" font-weight="bold" font-size="14.00" fill="white"> /Users/slaughter/git/OHI&#45;Science/ohibc/lsp_zonal_stats.R </text>
<text text-anchor="middle" x="1958.3" y="-132" font-family="Courier,monospace" font-weight="bold" font-size="14.00" fill="white"> urn:uuid:f5d6b763&#45;c953&#45;48f4&#45;9a39&#45;4a61f45bfdd3</text>
</g>
<!-- 1a8556ac0c8124864b109286a0d419b9213d0084cc831c813a5905e887c291a1 -->
<g id="node10" class="node"><title>1a8556ac0c8124864b109286a0d419b9213d0084cc831c813a5905e887c291a1</title>
<path fill="#ffe4b5" stroke="black" d="M2257.86,-80C2257.86,-80 2660.2,-80 2660.2,-80 2666.2,-80 2672.2,-86 2672.2,-92 2672.2,-92 2672.2,-104 2672.2,-104 2672.2,-110 2666.2,-116 2660.2,-116 2660.2,-116 2257.86,-116 2257.86,-116 2251.86,-116 2245.86,-110 2245.86,-104 2245.86,-104 2245.86,-92 2245.86,-92 2245.86,-86 2251.86,-80 2257.86,-80"/>
<text text-anchor="middle" x="2459.03" y="-100.9" font-family="Courier,monospace" font-weight="bold" font-size="9.00">/Users/slaughter/git/OHI&#45;Science/ohibc/prep/lsp/vHS/int/zonal_stats_1km.csv </text>
<text text-anchor="middle" x="2459.03" y="-90.1" font-family="Courier,monospace" font-weight="bold" font-size="9.00"> 1a8556ac0c8124864b109286a0d419b9213d0084cc831c813a5905e887c291a1</text>
</g>
<!-- urn:uuid:f5d6b763&#45;c953&#45;48f4&#45;9a39&#45;4a61f45bfdd3&#45;&gt;1a8556ac0c8124864b109286a0d419b9213d0084cc831c813a5905e887c291a1 -->
<g id="edge18" class="edge"><title>urn:uuid:f5d6b763&#45;c953&#45;48f4&#45;9a39&#45;4a61f45bfdd3&#45;&gt;1a8556ac0c8124864b109286a0d419b9213d0084cc831c813a5905e887c291a1</title>
<path fill="none" stroke="black" d="M2210.13,-125.339C2235.28,-122.565 2260.41,-119.794 2284.5,-117.137"/>
<polygon fill="black" stroke="black" points="2285.2,-120.581 2294.75,-116.006 2284.43,-113.624 2285.2,-120.581"/>
</g>
<!-- cf404cbfa31cc0f7f4a397632797d8aa416eb621a214569945c833594b16b3c3 -->
<g id="node12" class="node"><title>cf404cbfa31cc0f7f4a397632797d8aa416eb621a214569945c833594b16b3c3</title>
<path fill="#ffe4b5" stroke="black" d="M2260.56,-135C2260.56,-135 2657.5,-135 2657.5,-135 2663.5,-135 2669.5,-141 2669.5,-147 2669.5,-147 2669.5,-159 2669.5,-159 2669.5,-165 2663.5,-171 2657.5,-171 2657.5,-171 2260.56,-171 2260.56,-171 2254.56,-171 2248.56,-165 2248.56,-159 2248.56,-159 2248.56,-147 2248.56,-147 2248.56,-141 2254.56,-135 2260.56,-135"/>
<text text-anchor="middle" x="2459.03" y="-155.9" font-family="Courier,monospace" font-weight="bold" font-size="9.00">/Users/slaughter/git/OHI&#45;Science/ohibc/prep/lsp/vHS/int/zonal_stats_ws.csv </text>
<text text-anchor="middle" x="2459.03" y="-145.1" font-family="Courier,monospace" font-weight="bold" font-size="9.00"> cf404cbfa31cc0f7f4a397632797d8aa416eb621a214569945c833594b16b3c3</text>
</g>
<!-- urn:uuid:f5d6b763&#45;c953&#45;48f4&#45;9a39&#45;4a61f45bfdd3&#45;&gt;cf404cbfa31cc0f7f4a397632797d8aa416eb621a214569945c833594b16b3c3 -->
<g id="edge20" class="edge"><title>urn:uuid:f5d6b763&#45;c953&#45;48f4&#45;9a39&#45;4a61f45bfdd3&#45;&gt;cf404cbfa31cc0f7f4a397632797d8aa416eb621a214569945c833594b16b3c3</title>
<path fill="none" stroke="black" d="M2210.13,-153C2219.57,-153 2229.01,-153 2238.39,-153"/>
<polygon fill="black" stroke="black" points="2238.54,-156.5 2248.54,-153 2238.54,-149.5 2238.54,-156.5"/>
</g>
<!-- e4f5dd01c6b2e03bbe67419aa6ea9c20d938478e5523a2b6dc057413f6db2bf5 -->
<g id="node21" class="node"><title>e4f5dd01c6b2e03bbe67419aa6ea9c20d938478e5523a2b6dc057413f6db2bf5</title>
<path fill="#ffe4b5" stroke="black" d="M2257.86,-190C2257.86,-190 2660.2,-190 2660.2,-190 2666.2,-190 2672.2,-196 2672.2,-202 2672.2,-202 2672.2,-214 2672.2,-214 2672.2,-220 2666.2,-226 2660.2,-226 2660.2,-226 2257.86,-226 2257.86,-226 2251.86,-226 2245.86,-220 2245.86,-214 2245.86,-214 2245.86,-202 2245.86,-202 2245.86,-196 2251.86,-190 2257.86,-190"/>
<text text-anchor="middle" x="2459.03" y="-210.9" font-family="Courier,monospace" font-weight="bold" font-size="9.00">/Users/slaughter/git/OHI&#45;Science/ohibc/prep/lsp/vHS/int/zonal_stats_3nm.csv </text>
<text text-anchor="middle" x="2459.03" y="-200.1" font-family="Courier,monospace" font-weight="bold" font-size="9.00"> e4f5dd01c6b2e03bbe67419aa6ea9c20d938478e5523a2b6dc057413f6db2bf5</text>
</g>
<!-- urn:uuid:f5d6b763&#45;c953&#45;48f4&#45;9a39&#45;4a61f45bfdd3&#45;&gt;e4f5dd01c6b2e03bbe67419aa6ea9c20d938478e5523a2b6dc057413f6db2bf5 -->
<g id="edge28" class="edge"><title>urn:uuid:f5d6b763&#45;c953&#45;48f4&#45;9a39&#45;4a61f45bfdd3&#45;&gt;e4f5dd01c6b2e03bbe67419aa6ea9c20d938478e5523a2b6dc057413f6db2bf5</title>
<path fill="none" stroke="black" d="M2210.13,-180.661C2235.28,-183.435 2260.41,-186.206 2284.5,-188.863"/>
<polygon fill="black" stroke="black" points="2284.43,-192.376 2294.75,-189.994 2285.2,-185.419 2284.43,-192.376"/>
</g>
<!-- urn:uuid:167b320e&#45;9143&#45;4084&#45;882e&#45;7d19914767c0 -->
<g id="node4" class="node"><title>urn:uuid:167b320e&#45;9143&#45;4084&#45;882e&#45;7d19914767c0</title>
<polygon fill="black" stroke="black" points="547.521,-24.8 547.521,-83.2 1109.43,-83.2 1109.43,-24.8 547.521,-24.8"/>
<text text-anchor="middle" x="828.476" y="-66.6" font-family="Courier,monospace" font-weight="bold" font-size="14.00" fill="white">ohibc run 1 </text>
<text text-anchor="middle" x="828.476" y="-49.8" font-family="Courier,monospace" font-weight="bold" font-size="14.00" fill="white"> /Users/slaughter/git/OHI&#45;Science/ohibc/setup_watershed_raster.R </text>
<text text-anchor="middle" x="828.476" y="-33" font-family="Courier,monospace" font-weight="bold" font-size="14.00" fill="white"> urn:uuid:167b320e&#45;9143&#45;4084&#45;882e&#45;7d19914767c0</text>
</g>
<!-- 98c477e500188e52b2399aec3cc8d1cecefa6315c5ed6bf6f36f8252e7c6103c -->
<g id="node13" class="node"><title>98c477e500188e52b2399aec3cc8d1cecefa6315c5ed6bf6f36f8252e7c6103c</title>
<path fill="#ffe4b5" stroke="black" d="M1175.43,-25C1175.43,-25 1653.35,-25 1653.35,-25 1659.35,-25 1665.35,-31 1665.35,-37 1665.35,-37 1665.35,-49 1665.35,-49 1665.35,-55 1659.35,-61 1653.35,-61 1653.35,-61 1175.43,-61 1175.43,-61 1169.43,-61 1163.43,-55 1163.43,-49 1163.43,-49 1163.43,-37 1163.43,-37 1163.43,-31 1169.43,-25 1175.43,-25"/>
<text text-anchor="middle" x="1414.39" y="-45.9" font-family="Courier,monospace" font-weight="bold" font-size="9.00">/Users/slaughter/git/OHI&#45;Science/ohibc/prep/lsp/vHS/spatial/howe_sound_watershed_500m.tif </text>
<text text-anchor="middle" x="1414.39" y="-35.1" font-family="Courier,monospace" font-weight="bold" font-size="9.00"> 98c477e500188e52b2399aec3cc8d1cecefa6315c5ed6bf6f36f8252e7c6103c</text>
</g>
<!-- urn:uuid:167b320e&#45;9143&#45;4084&#45;882e&#45;7d19914767c0&#45;&gt;98c477e500188e52b2399aec3cc8d1cecefa6315c5ed6bf6f36f8252e7c6103c -->
<g id="edge21" class="edge"><title>urn:uuid:167b320e&#45;9143&#45;4084&#45;882e&#45;7d19914767c0&#45;&gt;98c477e500188e52b2399aec3cc8d1cecefa6315c5ed6bf6f36f8252e7c6103c</title>
<path fill="none" stroke="black" d="M1109.46,-48.7255C1124.08,-48.45 1138.75,-48.1737 1153.31,-47.8995"/>
<polygon fill="black" stroke="black" points="1153.44,-51.3978 1163.37,-47.71 1153.3,-44.399 1153.44,-51.3978"/>
</g>
<!-- urn:uuid:3d6c8ed0&#45;83c0&#45;4b12&#45;9154&#45;2804f4317598 -->
<g id="node5" class="node"><title>urn:uuid:3d6c8ed0&#45;83c0&#45;4b12&#45;9154&#45;2804f4317598</title>
<polygon fill="black" stroke="black" points="555.92,-101.8 555.92,-160.2 1101.03,-160.2 1101.03,-101.8 555.92,-101.8"/>
<text text-anchor="middle" x="828.476" y="-143.6" font-family="Courier,monospace" font-weight="bold" font-size="14.00" fill="white">ohibc run 1 </text>
<text text-anchor="middle" x="828.476" y="-126.8" font-family="Courier,monospace" font-weight="bold" font-size="14.00" fill="white"> /Users/slaughter/git/OHI&#45;Science/ohibc/get_analysis_rasters.R </text>
<text text-anchor="middle" x="828.476" y="-110" font-family="Courier,monospace" font-weight="bold" font-size="14.00" fill="white"> urn:uuid:3d6c8ed0&#45;83c0&#45;4b12&#45;9154&#45;2804f4317598</text>
</g>
<!-- 5ba2c041bacec6ae9b550d578fb0667523ab9d610f043b13832a0ae6e2c84e10 -->
<g id="node8" class="node"><title>5ba2c041bacec6ae9b550d578fb0667523ab9d610f043b13832a0ae6e2c84e10</title>
<path fill="#ffe4b5" stroke="black" d="M1170.03,-80C1170.03,-80 1658.75,-80 1658.75,-80 1664.75,-80 1670.75,-86 1670.75,-92 1670.75,-92 1670.75,-104 1670.75,-104 1670.75,-110 1664.75,-116 1658.75,-116 1658.75,-116 1170.03,-116 1170.03,-116 1164.03,-116 1158.03,-110 1158.03,-104 1158.03,-104 1158.03,-92 1158.03,-92 1158.03,-86 1164.03,-80 1170.03,-80"/>
<text text-anchor="middle" x="1414.39" y="-100.9" font-family="Courier,monospace" font-weight="bold" font-size="9.00">/Users/slaughter/git/OHI&#45;Science/ohibc/prep/lsp/vHS/spatial/hs_offshore_3nm_raster_500m.tif </text>
<text text-anchor="middle" x="1414.39" y="-90.1" font-family="Courier,monospace" font-weight="bold" font-size="9.00"> 5ba2c041bacec6ae9b550d578fb0667523ab9d610f043b13832a0ae6e2c84e10</text>
</g>
<!-- urn:uuid:3d6c8ed0&#45;83c0&#45;4b12&#45;9154&#45;2804f4317598&#45;&gt;5ba2c041bacec6ae9b550d578fb0667523ab9d610f043b13832a0ae6e2c84e10 -->
<g id="edge16" class="edge"><title>urn:uuid:3d6c8ed0&#45;83c0&#45;4b12&#45;9154&#45;2804f4317598&#45;&gt;5ba2c041bacec6ae9b550d578fb0667523ab9d610f043b13832a0ae6e2c84e10</title>
<path fill="none" stroke="black" d="M1101.35,-115.635C1116.72,-114.766 1132.18,-113.893 1147.53,-113.025"/>
<polygon fill="black" stroke="black" points="1147.82,-116.514 1157.61,-112.455 1147.43,-109.525 1147.82,-116.514"/>
</g>
<!-- 85130403e425f79e80e52e3fcaa9c116f5cc0b01c4aa7ea4078c21c08d6ac2fd -->
<g id="node11" class="node"><title>85130403e425f79e80e52e3fcaa9c116f5cc0b01c4aa7ea4078c21c08d6ac2fd</title>
<path fill="#ffe4b5" stroke="black" d="M1175.43,-135C1175.43,-135 1653.35,-135 1653.35,-135 1659.35,-135 1665.35,-141 1665.35,-147 1665.35,-147 1665.35,-159 1665.35,-159 1665.35,-165 1659.35,-171 1653.35,-171 1653.35,-171 1175.43,-171 1175.43,-171 1169.43,-171 1163.43,-165 1163.43,-159 1163.43,-159 1163.43,-147 1163.43,-147 1163.43,-141 1169.43,-135 1175.43,-135"/>
<text text-anchor="middle" x="1414.39" y="-155.9" font-family="Courier,monospace" font-weight="bold" font-size="9.00">/Users/slaughter/git/OHI&#45;Science/ohibc/prep/lsp/vHS/spatial/hs_inland_1km_raster_500m.tif </text>
<text text-anchor="middle" x="1414.39" y="-145.1" font-family="Courier,monospace" font-weight="bold" font-size="9.00"> 85130403e425f79e80e52e3fcaa9c116f5cc0b01c4aa7ea4078c21c08d6ac2fd</text>
</g>
<!-- urn:uuid:3d6c8ed0&#45;83c0&#45;4b12&#45;9154&#45;2804f4317598&#45;&gt;85130403e425f79e80e52e3fcaa9c116f5cc0b01c4aa7ea4078c21c08d6ac2fd -->
<g id="edge19" class="edge"><title>urn:uuid:3d6c8ed0&#45;83c0&#45;4b12&#45;9154&#45;2804f4317598&#45;&gt;85130403e425f79e80e52e3fcaa9c116f5cc0b01c4aa7ea4078c21c08d6ac2fd</title>
<path fill="none" stroke="black" d="M1101.35,-141.243C1118.63,-141.895 1136.02,-142.549 1153.25,-143.199"/>
<polygon fill="black" stroke="black" points="1153.25,-146.701 1163.38,-143.58 1153.51,-139.706 1153.25,-146.701"/>
</g>
<!-- urn:uuid:98b5270a&#45;1577&#45;4865&#45;970f&#45;17c6b0065374 -->
<g id="node6" class="node"><title>urn:uuid:98b5270a&#45;1577&#45;4865&#45;970f&#45;17c6b0065374</title>
<polygon fill="black" stroke="black" points="534.923,-178.8 534.923,-237.2 1122.03,-237.2 1122.03,-178.8 534.923,-178.8"/>
<text text-anchor="middle" x="828.476" y="-220.6" font-family="Courier,monospace" font-weight="bold" font-size="14.00" fill="white">ohibc run 1 </text>
<text text-anchor="middle" x="828.476" y="-203.8" font-family="Courier,monospace" font-weight="bold" font-size="14.00" fill="white"> /Users/slaughter/git/OHI&#45;Science/ohibc/rasterize_HS_WDPA_and_PEP.R </text>
<text text-anchor="middle" x="828.476" y="-187" font-family="Courier,monospace" font-weight="bold" font-size="14.00" fill="white"> urn:uuid:98b5270a&#45;1577&#45;4865&#45;970f&#45;17c6b0065374</text>
</g>
<!-- 93cca45a93cbf195aac755354840087590d4788e06768d7db90481ef9b5d9bc3 -->
<g id="node14" class="node"><title>93cca45a93cbf195aac755354840087590d4788e06768d7db90481ef9b5d9bc3</title>
<path fill="#ffe4b5" stroke="black" d="M1199.72,-190C1199.72,-190 1629.05,-190 1629.05,-190 1635.05,-190 1641.05,-196 1641.05,-202 1641.05,-202 1641.05,-214 1641.05,-214 1641.05,-220 1635.05,-226 1629.05,-226 1629.05,-226 1199.72,-226 1199.72,-226 1193.72,-226 1187.72,-220 1187.72,-214 1187.72,-214 1187.72,-202 1187.72,-202 1187.72,-196 1193.72,-190 1199.72,-190"/>
<text text-anchor="middle" x="1414.39" y="-210.9" font-family="Courier,monospace" font-weight="bold" font-size="9.00">/Users/slaughter/git/OHI&#45;Science/ohibc/prep/lsp/vHS/spatial/hs_pep_rast_500m.tif </text>
<text text-anchor="middle" x="1414.39" y="-200.1" font-family="Courier,monospace" font-weight="bold" font-size="9.00"> 93cca45a93cbf195aac755354840087590d4788e06768d7db90481ef9b5d9bc3</text>
</g>
<!-- urn:uuid:98b5270a&#45;1577&#45;4865&#45;970f&#45;17c6b0065374&#45;&gt;93cca45a93cbf195aac755354840087590d4788e06768d7db90481ef9b5d9bc3 -->
<g id="edge22" class="edge"><title>urn:uuid:98b5270a&#45;1577&#45;4865&#45;970f&#45;17c6b0065374&#45;&gt;93cca45a93cbf195aac755354840087590d4788e06768d7db90481ef9b5d9bc3</title>
<path fill="none" stroke="black" d="M1122.29,-208C1140.77,-208 1159.26,-208 1177.44,-208"/>
<polygon fill="black" stroke="black" points="1177.51,-211.5 1187.51,-208 1177.51,-204.5 1177.51,-211.5"/>
</g>
<!-- b03456556a5921cabea227978673e751441b2255f877cb183d4eeb1475105593 -->
<g id="node15" class="node"><title>b03456556a5921cabea227978673e751441b2255f877cb183d4eeb1475105593</title>
<path fill="#ffe4b5" stroke="black" d="M1197.02,-245C1197.02,-245 1631.75,-245 1631.75,-245 1637.75,-245 1643.75,-251 1643.75,-257 1643.75,-257 1643.75,-269 1643.75,-269 1643.75,-275 1637.75,-281 1631.75,-281 1631.75,-281 1197.02,-281 1197.02,-281 1191.02,-281 1185.02,-275 1185.02,-269 1185.02,-269 1185.02,-257 1185.02,-257 1185.02,-251 1191.02,-245 1197.02,-245"/>
<text text-anchor="middle" x="1414.39" y="-265.9" font-family="Courier,monospace" font-weight="bold" font-size="9.00">/Users/slaughter/git/OHI&#45;Science/ohibc/prep/lsp/vHS/spatial/hs_wdpa_rast_500m.tif </text>
<text text-anchor="middle" x="1414.39" y="-255.1" font-family="Courier,monospace" font-weight="bold" font-size="9.00"> b03456556a5921cabea227978673e751441b2255f877cb183d4eeb1475105593</text>
</g>
<!-- urn:uuid:98b5270a&#45;1577&#45;4865&#45;970f&#45;17c6b0065374&#45;&gt;b03456556a5921cabea227978673e751441b2255f877cb183d4eeb1475105593 -->
<g id="edge23" class="edge"><title>urn:uuid:98b5270a&#45;1577&#45;4865&#45;970f&#45;17c6b0065374&#45;&gt;b03456556a5921cabea227978673e751441b2255f877cb183d4eeb1475105593</title>
<path fill="none" stroke="black" d="M1122.29,-235.581C1152.58,-238.434 1182.86,-241.286 1211.82,-244.014"/>
<polygon fill="black" stroke="black" points="1211.72,-247.52 1222,-244.973 1212.38,-240.551 1211.72,-247.52"/>
</g>
<!-- urn:uuid:53ada2f7&#45;5e25&#45;4845&#45;883e&#45;1049a90c321c -->
<g id="node7" class="node"><title>urn:uuid:53ada2f7&#45;5e25&#45;4845&#45;883e&#45;1049a90c321c</title>
<polygon fill="black" stroke="black" points="4921.66,-123.8 4921.66,-182.2 5575.96,-182.2 5575.96,-123.8 4921.66,-123.8"/>
<text text-anchor="middle" x="5248.81" y="-165.6" font-family="Courier,monospace" font-weight="bold" font-size="14.00" fill="white">ohibc run 1 </text>
<text text-anchor="middle" x="5248.81" y="-148.8" font-family="Courier,monospace" font-weight="bold" font-size="14.00" fill="white"> /Users/slaughter/git/OHI&#45;Science/ohibc/estimate_status_and_trend_by_year.R </text>
<text text-anchor="middle" x="5248.81" y="-132" font-family="Courier,monospace" font-weight="bold" font-size="14.00" fill="white"> urn:uuid:53ada2f7&#45;5e25&#45;4845&#45;883e&#45;1049a90c321c</text>
</g>
<!-- 97b9fe2837579bac75e964fe212402ba5ac595bb539bce4f7897be9cdcb55638 -->
<g id="node20" class="node"><title>97b9fe2837579bac75e964fe212402ba5ac595bb539bce4f7897be9cdcb55638</title>
<path fill="#ffe4b5" stroke="black" d="M5623.96,-135C5623.96,-135 6010.09,-135 6010.09,-135 6016.09,-135 6022.09,-141 6022.09,-147 6022.09,-147 6022.09,-159 6022.09,-159 6022.09,-165 6016.09,-171 6010.09,-171 6010.09,-171 5623.96,-171 5623.96,-171 5617.96,-171 5611.96,-165 5611.96,-159 5611.96,-159 5611.96,-147 5611.96,-147 5611.96,-141 5617.96,-135 5623.96,-135"/>
<text text-anchor="middle" x="5817.02" y="-155.9" font-family="Courier,monospace" font-weight="bold" font-size="9.00">/Users/slaughter/git/OHI&#45;Science/ohibc/prep/lsp/vHS/output/lsp_trend.csv </text>
<text text-anchor="middle" x="5817.02" y="-145.1" font-family="Courier,monospace" font-weight="bold" font-size="9.00"> 97b9fe2837579bac75e964fe212402ba5ac595bb539bce4f7897be9cdcb55638</text>
</g>
<!-- urn:uuid:53ada2f7&#45;5e25&#45;4845&#45;883e&#45;1049a90c321c&#45;&gt;97b9fe2837579bac75e964fe212402ba5ac595bb539bce4f7897be9cdcb55638 -->
<g id="edge27" class="edge"><title>urn:uuid:53ada2f7&#45;5e25&#45;4845&#45;883e&#45;1049a90c321c&#45;&gt;97b9fe2837579bac75e964fe212402ba5ac595bb539bce4f7897be9cdcb55638</title>
<path fill="none" stroke="black" d="M5576.31,-153C5584.77,-153 5593.18,-153 5601.51,-153"/>
<polygon fill="black" stroke="black" points="5601.63,-156.5 5611.63,-153 5601.63,-149.5 5601.63,-156.5"/>
</g>
<!-- 5ba2c041bacec6ae9b550d578fb0667523ab9d610f043b13832a0ae6e2c84e10&#45;&gt;urn:uuid:f5d6b763&#45;c953&#45;48f4&#45;9a39&#45;4a61f45bfdd3 -->
<g id="edge12" class="edge"><title>5ba2c041bacec6ae9b550d578fb0667523ab9d610f043b13832a0ae6e2c84e10&#45;&gt;urn:uuid:f5d6b763&#45;c953&#45;48f4&#45;9a39&#45;4a61f45bfdd3</title>
<path fill="none" stroke="black" d="M1592.83,-116.009C1625.98,-119.374 1661.26,-122.954 1696.32,-126.513"/>
<polygon fill="black" stroke="black" points="1696.39,-130.038 1706.7,-127.565 1697.1,-123.073 1696.39,-130.038"/>
</g>
<!-- 9c23639cf9ce610831cc57a78e88bd8ff8b67a46253aff39154b57b58ab60832&#45;&gt;urn:uuid:53ada2f7&#45;5e25&#45;4845&#45;883e&#45;1049a90c321c -->
<g id="edge13" class="edge"><title>9c23639cf9ce610831cc57a78e88bd8ff8b67a46253aff39154b57b58ab60832&#45;&gt;urn:uuid:53ada2f7&#45;5e25&#45;4845&#45;883e&#45;1049a90c321c</title>
<path fill="none" stroke="black" d="M4885.71,-153C4894.15,-153 4902.65,-153 4911.21,-153"/>
<polygon fill="black" stroke="black" points="4911.26,-156.5 4921.26,-153 4911.26,-149.5 4911.26,-156.5"/>
</g>
<!-- 1a8556ac0c8124864b109286a0d419b9213d0084cc831c813a5905e887c291a1&#45;&gt;urn:uuid:53c74750&#45;d660&#45;479d&#45;8e59&#45;f54068835317 -->
<g id="edge14" class="edge"><title>1a8556ac0c8124864b109286a0d419b9213d0084cc831c813a5905e887c291a1&#45;&gt;urn:uuid:53c74750&#45;d660&#45;479d&#45;8e59&#45;f54068835317</title>
<path fill="none" stroke="black" d="M2631.58,-116.009C2653.03,-118.261 2675.4,-120.609 2698.01,-122.982"/>
<polygon fill="black" stroke="black" points="2697.75,-126.474 2708.06,-124.037 2698.48,-119.512 2697.75,-126.474"/>
</g>
<!-- 85130403e425f79e80e52e3fcaa9c116f5cc0b01c4aa7ea4078c21c08d6ac2fd&#45;&gt;urn:uuid:f5d6b763&#45;c953&#45;48f4&#45;9a39&#45;4a61f45bfdd3 -->
<g id="edge15" class="edge"><title>85130403e425f79e80e52e3fcaa9c116f5cc0b01c4aa7ea4078c21c08d6ac2fd&#45;&gt;urn:uuid:f5d6b763&#45;c953&#45;48f4&#45;9a39&#45;4a61f45bfdd3</title>
<path fill="none" stroke="black" d="M1665.72,-153C1675.92,-153 1686.15,-153 1696.36,-153"/>
<polygon fill="black" stroke="black" points="1696.56,-156.5 1706.56,-153 1696.56,-149.5 1696.56,-156.5"/>
</g>
<!-- cf404cbfa31cc0f7f4a397632797d8aa416eb621a214569945c833594b16b3c3&#45;&gt;urn:uuid:53c74750&#45;d660&#45;479d&#45;8e59&#45;f54068835317 -->
<g id="edge1" class="edge"><title>cf404cbfa31cc0f7f4a397632797d8aa416eb621a214569945c833594b16b3c3&#45;&gt;urn:uuid:53c74750&#45;d660&#45;479d&#45;8e59&#45;f54068835317</title>
<path fill="none" stroke="black" d="M2669.73,-153C2679.04,-153 2688.44,-153 2697.89,-153"/>
<polygon fill="black" stroke="black" points="2698.15,-156.5 2708.15,-153 2698.15,-149.5 2698.15,-156.5"/>
</g>
<!-- 98c477e500188e52b2399aec3cc8d1cecefa6315c5ed6bf6f36f8252e7c6103c&#45;&gt;urn:uuid:f5d6b763&#45;c953&#45;48f4&#45;9a39&#45;4a61f45bfdd3 -->
<g id="edge2" class="edge"><title>98c477e500188e52b2399aec3cc8d1cecefa6315c5ed6bf6f36f8252e7c6103c&#45;&gt;urn:uuid:f5d6b763&#45;c953&#45;48f4&#45;9a39&#45;4a61f45bfdd3</title>
<path fill="none" stroke="black" d="M1617.65,-61.0494C1635.67,-63.6637 1653.57,-66.633 1670.75,-70 1735.24,-82.646 1806.19,-103.145 1861.36,-120.607"/>
<polygon fill="black" stroke="black" points="1860.54,-124.016 1871.13,-123.717 1862.66,-117.347 1860.54,-124.016"/>
</g>
<!-- 93cca45a93cbf195aac755354840087590d4788e06768d7db90481ef9b5d9bc3&#45;&gt;urn:uuid:f5d6b763&#45;c953&#45;48f4&#45;9a39&#45;4a61f45bfdd3 -->
<g id="edge3" class="edge"><title>93cca45a93cbf195aac755354840087590d4788e06768d7db90481ef9b5d9bc3&#45;&gt;urn:uuid:f5d6b763&#45;c953&#45;48f4&#45;9a39&#45;4a61f45bfdd3</title>
<path fill="none" stroke="black" d="M1592.83,-189.991C1625.98,-186.626 1661.26,-183.046 1696.32,-179.487"/>
<polygon fill="black" stroke="black" points="1697.1,-182.927 1706.7,-178.435 1696.39,-175.962 1697.1,-182.927"/>
</g>
<!-- b03456556a5921cabea227978673e751441b2255f877cb183d4eeb1475105593&#45;&gt;urn:uuid:f5d6b763&#45;c953&#45;48f4&#45;9a39&#45;4a61f45bfdd3 -->
<g id="edge4" class="edge"><title>b03456556a5921cabea227978673e751441b2255f877cb183d4eeb1475105593&#45;&gt;urn:uuid:f5d6b763&#45;c953&#45;48f4&#45;9a39&#45;4a61f45bfdd3</title>
<path fill="none" stroke="black" d="M1617.65,-244.951C1635.67,-242.336 1653.57,-239.367 1670.75,-236 1735.24,-223.354 1806.19,-202.855 1861.36,-185.393"/>
<polygon fill="black" stroke="black" points="1862.66,-188.653 1871.13,-182.283 1860.54,-181.984 1862.66,-188.653"/>
</g>
<!-- b2cba129ff4ce7c9e83c13b36dc3ff95ce18b4cb4784758b3e94478d4e999b09&#45;&gt;urn:uuid:4fcd5da4&#45;67af&#45;4f8d&#45;ad36&#45;c9cdf45621d4 -->
<g id="edge5" class="edge"><title>b2cba129ff4ce7c9e83c13b36dc3ff95ce18b4cb4784758b3e94478d4e999b09&#45;&gt;urn:uuid:4fcd5da4&#45;67af&#45;4f8d&#45;ad36&#45;c9cdf45621d4</title>
<path fill="none" stroke="black" d="M3702.42,-116.009C3724.64,-118.202 3747.79,-120.487 3771.2,-122.797"/>
<polygon fill="black" stroke="black" points="3770.95,-126.29 3781.24,-123.789 3771.64,-119.324 3770.95,-126.29"/>
</g>
<!-- d792e5fe1c3c98a24dde23e00895f627ab2c0a102f5852dcc4f02e2ba9dba1eb&#45;&gt;urn:uuid:4fcd5da4&#45;67af&#45;4f8d&#45;ad36&#45;c9cdf45621d4 -->
<g id="edge6" class="edge"><title>d792e5fe1c3c98a24dde23e00895f627ab2c0a102f5852dcc4f02e2ba9dba1eb&#45;&gt;urn:uuid:4fcd5da4&#45;67af&#45;4f8d&#45;ad36&#45;c9cdf45621d4</title>
<path fill="none" stroke="black" d="M3740.6,-153C3749.01,-153 3757.5,-153 3766.02,-153"/>
<polygon fill="black" stroke="black" points="3766.05,-156.5 3776.05,-153 3766.05,-149.5 3766.05,-156.5"/>
</g>
<!-- d77ded5e2122bfb7ccdd9a65fae815516063a2249b3173f188e00dc850cefc9c -->
<g id="node18" class="node"><title>d77ded5e2122bfb7ccdd9a65fae815516063a2249b3173f188e00dc850cefc9c</title>
<path fill="#ffe4b5" stroke="black" d="M36,-113C36,-113 486.923,-113 486.923,-113 492.923,-113 498.923,-119 498.923,-125 498.923,-125 498.923,-137 498.923,-137 498.923,-143 492.923,-149 486.923,-149 486.923,-149 36,-149 36,-149 30,-149 24,-143 24,-137 24,-137 24,-125 24,-125 24,-119 30,-113 36,-113"/>
<text text-anchor="middle" x="261.462" y="-133.9" font-family="Courier,monospace" font-weight="bold" font-size="9.00">/Users/slaughter/git/OHI&#45;Science/ohibc/prep/spatial/raster/ohibc_rgn_raster_500m.tif </text>
<text text-anchor="middle" x="261.462" y="-123.1" font-family="Courier,monospace" font-weight="bold" font-size="9.00"> d77ded5e2122bfb7ccdd9a65fae815516063a2249b3173f188e00dc850cefc9c</text>
</g>
<!-- d77ded5e2122bfb7ccdd9a65fae815516063a2249b3173f188e00dc850cefc9c&#45;&gt;urn:uuid:167b320e&#45;9143&#45;4084&#45;882e&#45;7d19914767c0 -->
<g id="edge9" class="edge"><title>d77ded5e2122bfb7ccdd9a65fae815516063a2249b3173f188e00dc850cefc9c&#45;&gt;urn:uuid:167b320e&#45;9143&#45;4084&#45;882e&#45;7d19914767c0</title>
<path fill="none" stroke="black" d="M385.84,-112.993C432.527,-106.271 486.158,-98.657 534.923,-92 552.882,-89.5484 571.467,-87.0485 590.161,-84.5604"/>
<polygon fill="black" stroke="black" points="590.796,-88.0069 600.248,-83.2203 589.874,-81.0678 590.796,-88.0069"/>
</g>
<!-- d77ded5e2122bfb7ccdd9a65fae815516063a2249b3173f188e00dc850cefc9c&#45;&gt;urn:uuid:3d6c8ed0&#45;83c0&#45;4b12&#45;9154&#45;2804f4317598 -->
<g id="edge8" class="edge"><title>d77ded5e2122bfb7ccdd9a65fae815516063a2249b3173f188e00dc850cefc9c&#45;&gt;urn:uuid:3d6c8ed0&#45;83c0&#45;4b12&#45;9154&#45;2804f4317598</title>
<path fill="none" stroke="black" d="M499.214,-131C514.583,-131 530.139,-131 545.691,-131"/>
<polygon fill="black" stroke="black" points="545.909,-134.5 555.909,-131 545.909,-127.5 545.909,-134.5"/>
</g>
<!-- d77ded5e2122bfb7ccdd9a65fae815516063a2249b3173f188e00dc850cefc9c&#45;&gt;urn:uuid:98b5270a&#45;1577&#45;4865&#45;970f&#45;17c6b0065374 -->
<g id="edge7" class="edge"><title>d77ded5e2122bfb7ccdd9a65fae815516063a2249b3173f188e00dc850cefc9c&#45;&gt;urn:uuid:98b5270a&#45;1577&#45;4865&#45;970f&#45;17c6b0065374</title>
<path fill="none" stroke="black" d="M385.84,-149.007C432.527,-155.729 486.158,-163.343 534.923,-170 552.882,-172.452 571.467,-174.952 590.161,-177.44"/>
<polygon fill="black" stroke="black" points="589.874,-180.932 600.248,-178.78 590.796,-173.993 589.874,-180.932"/>
</g>
<!-- bc918e73e8ffd7509cfd2f5173f4d13b17e620340a6ddae47c56f3b7697be7b1&#45;&gt;urn:uuid:4fcd5da4&#45;67af&#45;4f8d&#45;ad36&#45;c9cdf45621d4 -->
<g id="edge10" class="edge"><title>bc918e73e8ffd7509cfd2f5173f4d13b17e620340a6ddae47c56f3b7697be7b1&#45;&gt;urn:uuid:4fcd5da4&#45;67af&#45;4f8d&#45;ad36&#45;c9cdf45621d4</title>
<path fill="none" stroke="black" d="M3702.42,-189.991C3724.64,-187.798 3747.79,-185.513 3771.2,-183.203"/>
<polygon fill="black" stroke="black" points="3771.64,-186.676 3781.24,-182.211 3770.95,-179.71 3771.64,-186.676"/>
</g>
<!-- e4f5dd01c6b2e03bbe67419aa6ea9c20d938478e5523a2b6dc057413f6db2bf5&#45;&gt;urn:uuid:53c74750&#45;d660&#45;479d&#45;8e59&#45;f54068835317 -->
<g id="edge11" class="edge"><title>e4f5dd01c6b2e03bbe67419aa6ea9c20d938478e5523a2b6dc057413f6db2bf5&#45;&gt;urn:uuid:53c74750&#45;d660&#45;479d&#45;8e59&#45;f54068835317</title>
<path fill="none" stroke="black" d="M2631.58,-189.991C2653.03,-187.739 2675.4,-185.391 2698.01,-183.018"/>
<polygon fill="black" stroke="black" points="2698.48,-186.488 2708.06,-181.963 2697.75,-179.526 2698.48,-186.488"/>
</g>
</g>
</svg>
