<?xml version="1.0" encoding="UTF-8" standalone="no"?>
<!DOCTYPE svg PUBLIC "-//W3C//DTD SVG 1.1//EN"
 "http://www.w3.org/Graphics/SVG/1.1/DTD/svg11.dtd">
<!-- Generated by graphviz version 2.38.0 (20140413.2041)
 -->
<!-- Title: yw_data_view Pages: 1 -->
<svg width="6027pt" height="338pt"
 viewBox="0.00 0.00 6027.09 337.60" xmlns="http://www.w3.org/2000/svg" xmlns:xlink="http://www.w3.org/1999/xlink">
<g id="graph0" class="graph" transform="scale(1 1) rotate(0) translate(4 333.6)">
<title>yw_data_view</title>
<polygon fill="white" stroke="none" points="-4,4 -4,-333.6 6023.09,-333.6 6023.09,4 -4,4"/>
<text text-anchor="middle" x="3009.55" y="-309.4" font-family="Courier,monospace" font-size="18.00">Upstream graph for multiple runs</text>
<g id="clust1" class="cluster"><title>cluster_workflow</title>
<polygon fill="none" stroke="black" stroke-width="2" points="8,-8 8,-292 6011.09,-292 6011.09,-8 8,-8"/>
</g>
<g id="clust2" class="cluster"><title>cluster_workflow_inner</title>
<polygon fill="none" stroke="white" stroke-width="2" points="16,-16 16,-284 6003.09,-284 6003.09,-16 16,-16"/>
</g>
<!-- urn:uuid:4fcd5da4&#45;67af&#45;4f8d&#45;ad36&#45;c9cdf45621d4 -->
<g id="node1" class="node"><title>urn:uuid:4fcd5da4&#45;67af&#45;4f8d&#45;ad36&#45;c9cdf45621d4</title>
<polygon fill="black" stroke="black" points="3754.64,-120.8 3754.64,-179.2 4358.54,-179.2 4358.54,-120.8 3754.64,-120.8"/>
<text text-anchor="middle" x="4056.59" y="-162.6" font-family="Courier,monospace" font-weight="bold" font-size="14.00" fill="white">ohibc run 1 </text>
<text text-anchor="middle" x="4056.59" y="-145.8" font-family="Courier,monospace" font-weight="bold" font-size="14.00" fill="white"> /Users/slaughter/git/OHI&#45;Science/ohibc/combine_inland_and_offshore.R </text>
<text text-anchor="middle" x="4056.59" y="-129" font-family="Courier,monospace" font-weight="bold" font-size="14.00" fill="white"> urn:uuid:4fcd5da4&#45;67af&#45;4f8d&#45;ad36&#45;c9cdf45621d4</text>
</g>
<!-- /Users/slaughter/git/OHI&#45;Science/ohibc/prep/lsp/vHS/output/area_protected_total.csv -->
<g id="node16" class="node"><title>/Users/slaughter/git/OHI&#45;Science/ohibc/prep/lsp/vHS/output/area_protected_total.csv</title>
<path fill="#ffe4b5" stroke="black" d="M4846.73,-168C4846.73,-168 4406.48,-168 4406.48,-168 4400.48,-168 4394.48,-162 4394.48,-156 4394.48,-156 4394.48,-144 4394.48,-144 4394.48,-138 4400.48,-132 4406.48,-132 4406.48,-132 4846.73,-132 4846.73,-132 4852.73,-132 4858.73,-138 4858.73,-144 4858.73,-144 4858.73,-156 4858.73,-156 4858.73,-162 4852.73,-168 4846.73,-168"/>
<text text-anchor="middle" x="4626.6" y="-147.3" font-family="Courier,monospace" font-weight="bold" font-size="9.00">/Users/slaughter/git/OHI&#45;Science/ohibc/prep/lsp/vHS/output/area_protected_total.csv</text>
</g>
<!-- urn:uuid:4fcd5da4&#45;67af&#45;4f8d&#45;ad36&#45;c9cdf45621d4&#45;&gt;/Users/slaughter/git/OHI&#45;Science/ohibc/prep/lsp/vHS/output/area_protected_total.csv -->
<g id="edge23" class="edge"><title>urn:uuid:4fcd5da4&#45;67af&#45;4f8d&#45;ad36&#45;c9cdf45621d4&#45;&gt;/Users/slaughter/git/OHI&#45;Science/ohibc/prep/lsp/vHS/output/area_protected_total.csv</title>
<path fill="none" stroke="black" d="M4358.64,-150C4367.15,-150 4375.63,-150 4384.06,-150"/>
<polygon fill="black" stroke="black" points="4384.32,-153.5 4394.32,-150 4384.32,-146.5 4384.32,-153.5"/>
</g>
<!-- urn:uuid:53c74750&#45;d660&#45;479d&#45;8e59&#45;f54068835317 -->
<g id="node2" class="node"><title>urn:uuid:53c74750&#45;d660&#45;479d&#45;8e59&#45;f54068835317</title>
<polygon fill="black" stroke="black" points="2692,-120.8 2692,-179.2 3245.51,-179.2 3245.51,-120.8 2692,-120.8"/>
<text text-anchor="middle" x="2968.75" y="-162.6" font-family="Courier,monospace" font-weight="bold" font-size="14.00" fill="white">ohibc run 1 </text>
<text text-anchor="middle" x="2968.75" y="-145.8" font-family="Courier,monospace" font-weight="bold" font-size="14.00" fill="white"> /Users/slaughter/git/OHI&#45;Science/ohibc/summarize_zonal_stats.R </text>
<text text-anchor="middle" x="2968.75" y="-129" font-family="Courier,monospace" font-weight="bold" font-size="14.00" fill="white"> urn:uuid:53c74750&#45;d660&#45;479d&#45;8e59&#45;f54068835317</text>
</g>
<!-- /Users/slaughter/git/OHI&#45;Science/ohibc/prep/lsp/vHS/int/area_protected_3nm.csv -->
<g id="node9" class="node"><title>/Users/slaughter/git/OHI&#45;Science/ohibc/prep/lsp/vHS/int/area_protected_3nm.csv</title>
<path fill="#ffe4b5" stroke="black" d="M3706.7,-114C3706.7,-114 3293.44,-114 3293.44,-114 3287.44,-114 3281.44,-108 3281.44,-102 3281.44,-102 3281.44,-90 3281.44,-90 3281.44,-84 3287.44,-78 3293.44,-78 3293.44,-78 3706.7,-78 3706.7,-78 3712.7,-78 3718.7,-84 3718.7,-90 3718.7,-90 3718.7,-102 3718.7,-102 3718.7,-108 3712.7,-114 3706.7,-114"/>
<text text-anchor="middle" x="3500.07" y="-93.3" font-family="Courier,monospace" font-weight="bold" font-size="9.00">/Users/slaughter/git/OHI&#45;Science/ohibc/prep/lsp/vHS/int/area_protected_3nm.csv</text>
</g>
<!-- urn:uuid:53c74750&#45;d660&#45;479d&#45;8e59&#45;f54068835317&#45;&gt;/Users/slaughter/git/OHI&#45;Science/ohibc/prep/lsp/vHS/int/area_protected_3nm.csv -->
<g id="edge17" class="edge"><title>urn:uuid:53c74750&#45;d660&#45;479d&#45;8e59&#45;f54068835317&#45;&gt;/Users/slaughter/git/OHI&#45;Science/ohibc/prep/lsp/vHS/int/area_protected_3nm.csv</title>
<path fill="none" stroke="black" d="M3245.65,-121.853C3268.18,-119.555 3290.6,-117.268 3312.26,-115.058"/>
<polygon fill="black" stroke="black" points="3312.9,-118.512 3322.49,-114.015 3312.19,-111.548 3312.9,-118.512"/>
</g>
<!-- /Users/slaughter/git/OHI&#45;Science/ohibc/prep/lsp/vHS/int/area_protected_1km.csv -->
<g id="node10" class="node"><title>/Users/slaughter/git/OHI&#45;Science/ohibc/prep/lsp/vHS/int/area_protected_1km.csv</title>
<path fill="#ffe4b5" stroke="black" d="M3706.7,-168C3706.7,-168 3293.44,-168 3293.44,-168 3287.44,-168 3281.44,-162 3281.44,-156 3281.44,-156 3281.44,-144 3281.44,-144 3281.44,-138 3287.44,-132 3293.44,-132 3293.44,-132 3706.7,-132 3706.7,-132 3712.7,-132 3718.7,-138 3718.7,-144 3718.7,-144 3718.7,-156 3718.7,-156 3718.7,-162 3712.7,-168 3706.7,-168"/>
<text text-anchor="middle" x="3500.07" y="-147.3" font-family="Courier,monospace" font-weight="bold" font-size="9.00">/Users/slaughter/git/OHI&#45;Science/ohibc/prep/lsp/vHS/int/area_protected_1km.csv</text>
</g>
<!-- urn:uuid:53c74750&#45;d660&#45;479d&#45;8e59&#45;f54068835317&#45;&gt;/Users/slaughter/git/OHI&#45;Science/ohibc/prep/lsp/vHS/int/area_protected_1km.csv -->
<g id="edge18" class="edge"><title>urn:uuid:53c74750&#45;d660&#45;479d&#45;8e59&#45;f54068835317&#45;&gt;/Users/slaughter/git/OHI&#45;Science/ohibc/prep/lsp/vHS/int/area_protected_1km.csv</title>
<path fill="none" stroke="black" d="M3245.65,-150C3254.13,-150 3262.59,-150 3270.99,-150"/>
<polygon fill="black" stroke="black" points="3271.22,-153.5 3281.22,-150 3271.22,-146.5 3271.22,-153.5"/>
</g>
<!-- /Users/slaughter/git/OHI&#45;Science/ohibc/prep/lsp/vHS/int/area_protected_ws.csv -->
<g id="node13" class="node"><title>/Users/slaughter/git/OHI&#45;Science/ohibc/prep/lsp/vHS/int/area_protected_ws.csv</title>
<path fill="#ffe4b5" stroke="black" d="M3703.8,-222C3703.8,-222 3296.34,-222 3296.34,-222 3290.34,-222 3284.34,-216 3284.34,-210 3284.34,-210 3284.34,-198 3284.34,-198 3284.34,-192 3290.34,-186 3296.34,-186 3296.34,-186 3703.8,-186 3703.8,-186 3709.8,-186 3715.8,-192 3715.8,-198 3715.8,-198 3715.8,-210 3715.8,-210 3715.8,-216 3709.8,-222 3703.8,-222"/>
<text text-anchor="middle" x="3500.07" y="-201.3" font-family="Courier,monospace" font-weight="bold" font-size="9.00">/Users/slaughter/git/OHI&#45;Science/ohibc/prep/lsp/vHS/int/area_protected_ws.csv</text>
</g>
<!-- urn:uuid:53c74750&#45;d660&#45;479d&#45;8e59&#45;f54068835317&#45;&gt;/Users/slaughter/git/OHI&#45;Science/ohibc/prep/lsp/vHS/int/area_protected_ws.csv -->
<g id="edge20" class="edge"><title>urn:uuid:53c74750&#45;d660&#45;479d&#45;8e59&#45;f54068835317&#45;&gt;/Users/slaughter/git/OHI&#45;Science/ohibc/prep/lsp/vHS/int/area_protected_ws.csv</title>
<path fill="none" stroke="black" d="M3245.65,-178.147C3268.18,-180.445 3290.6,-182.732 3312.26,-184.942"/>
<polygon fill="black" stroke="black" points="3312.19,-188.452 3322.49,-185.985 3312.9,-181.488 3312.19,-188.452"/>
</g>
<!-- urn:uuid:f5d6b763&#45;c953&#45;48f4&#45;9a39&#45;4a61f45bfdd3 -->
<g id="node3" class="node"><title>urn:uuid:f5d6b763&#45;c953&#45;48f4&#45;9a39&#45;4a61f45bfdd3</title>
<polygon fill="black" stroke="black" points="1695.95,-120.8 1695.95,-179.2 2199.07,-179.2 2199.07,-120.8 1695.95,-120.8"/>
<text text-anchor="middle" x="1947.51" y="-162.6" font-family="Courier,monospace" font-weight="bold" font-size="14.00" fill="white">ohibc run 1 </text>
<text text-anchor="middle" x="1947.51" y="-145.8" font-family="Courier,monospace" font-weight="bold" font-size="14.00" fill="white"> /Users/slaughter/git/OHI&#45;Science/ohibc/lsp_zonal_stats.R </text>
<text text-anchor="middle" x="1947.51" y="-129" font-family="Courier,monospace" font-weight="bold" font-size="14.00" fill="white"> urn:uuid:f5d6b763&#45;c953&#45;48f4&#45;9a39&#45;4a61f45bfdd3</text>
</g>
<!-- /Users/slaughter/git/OHI&#45;Science/ohibc/prep/lsp/vHS/int/zonal_stats_3nm.csv -->
<g id="node14" class="node"><title>/Users/slaughter/git/OHI&#45;Science/ohibc/prep/lsp/vHS/int/zonal_stats_3nm.csv</title>
<path fill="#ffe4b5" stroke="black" d="M2643.96,-114C2643.96,-114 2247.1,-114 2247.1,-114 2241.1,-114 2235.1,-108 2235.1,-102 2235.1,-102 2235.1,-90 2235.1,-90 2235.1,-84 2241.1,-78 2247.1,-78 2247.1,-78 2643.96,-78 2643.96,-78 2649.96,-78 2655.96,-84 2655.96,-90 2655.96,-90 2655.96,-102 2655.96,-102 2655.96,-108 2649.96,-114 2643.96,-114"/>
<text text-anchor="middle" x="2445.53" y="-93.3" font-family="Courier,monospace" font-weight="bold" font-size="9.00">/Users/slaughter/git/OHI&#45;Science/ohibc/prep/lsp/vHS/int/zonal_stats_3nm.csv</text>
</g>
<!-- urn:uuid:f5d6b763&#45;c953&#45;48f4&#45;9a39&#45;4a61f45bfdd3&#45;&gt;/Users/slaughter/git/OHI&#45;Science/ohibc/prep/lsp/vHS/int/zonal_stats_3nm.csv -->
<g id="edge21" class="edge"><title>urn:uuid:f5d6b763&#45;c953&#45;48f4&#45;9a39&#45;4a61f45bfdd3&#45;&gt;/Users/slaughter/git/OHI&#45;Science/ohibc/prep/lsp/vHS/int/zonal_stats_3nm.csv</title>
<path fill="none" stroke="black" d="M2199.43,-122.684C2222.97,-120.12 2246.49,-117.56 2269.12,-115.097"/>
<polygon fill="black" stroke="black" points="2269.54,-118.571 2279.1,-114.01 2268.78,-111.613 2269.54,-118.571"/>
</g>
<!-- /Users/slaughter/git/OHI&#45;Science/ohibc/prep/lsp/vHS/int/zonal_stats_1km.csv -->
<g id="node17" class="node"><title>/Users/slaughter/git/OHI&#45;Science/ohibc/prep/lsp/vHS/int/zonal_stats_1km.csv</title>
<path fill="#ffe4b5" stroke="black" d="M2643.96,-168C2643.96,-168 2247.1,-168 2247.1,-168 2241.1,-168 2235.1,-162 2235.1,-156 2235.1,-156 2235.1,-144 2235.1,-144 2235.1,-138 2241.1,-132 2247.1,-132 2247.1,-132 2643.96,-132 2643.96,-132 2649.96,-132 2655.96,-138 2655.96,-144 2655.96,-144 2655.96,-156 2655.96,-156 2655.96,-162 2649.96,-168 2643.96,-168"/>
<text text-anchor="middle" x="2445.53" y="-147.3" font-family="Courier,monospace" font-weight="bold" font-size="9.00">/Users/slaughter/git/OHI&#45;Science/ohibc/prep/lsp/vHS/int/zonal_stats_1km.csv</text>
</g>
<!-- urn:uuid:f5d6b763&#45;c953&#45;48f4&#45;9a39&#45;4a61f45bfdd3&#45;&gt;/Users/slaughter/git/OHI&#45;Science/ohibc/prep/lsp/vHS/int/zonal_stats_1km.csv -->
<g id="edge24" class="edge"><title>urn:uuid:f5d6b763&#45;c953&#45;48f4&#45;9a39&#45;4a61f45bfdd3&#45;&gt;/Users/slaughter/git/OHI&#45;Science/ohibc/prep/lsp/vHS/int/zonal_stats_1km.csv</title>
<path fill="none" stroke="black" d="M2199.43,-150C2207.88,-150 2216.33,-150 2224.74,-150"/>
<polygon fill="black" stroke="black" points="2224.97,-153.5 2234.97,-150 2224.97,-146.5 2224.97,-153.5"/>
</g>
<!-- /Users/slaughter/git/OHI&#45;Science/ohibc/prep/lsp/vHS/int/zonal_stats_ws.csv -->
<g id="node19" class="node"><title>/Users/slaughter/git/OHI&#45;Science/ohibc/prep/lsp/vHS/int/zonal_stats_ws.csv</title>
<path fill="#ffe4b5" stroke="black" d="M2641.07,-222C2641.07,-222 2250,-222 2250,-222 2244,-222 2238,-216 2238,-210 2238,-210 2238,-198 2238,-198 2238,-192 2244,-186 2250,-186 2250,-186 2641.07,-186 2641.07,-186 2647.07,-186 2653.07,-192 2653.07,-198 2653.07,-198 2653.07,-210 2653.07,-210 2653.07,-216 2647.07,-222 2641.07,-222"/>
<text text-anchor="middle" x="2445.53" y="-201.3" font-family="Courier,monospace" font-weight="bold" font-size="9.00">/Users/slaughter/git/OHI&#45;Science/ohibc/prep/lsp/vHS/int/zonal_stats_ws.csv</text>
</g>
<!-- urn:uuid:f5d6b763&#45;c953&#45;48f4&#45;9a39&#45;4a61f45bfdd3&#45;&gt;/Users/slaughter/git/OHI&#45;Science/ohibc/prep/lsp/vHS/int/zonal_stats_ws.csv -->
<g id="edge26" class="edge"><title>urn:uuid:f5d6b763&#45;c953&#45;48f4&#45;9a39&#45;4a61f45bfdd3&#45;&gt;/Users/slaughter/git/OHI&#45;Science/ohibc/prep/lsp/vHS/int/zonal_stats_ws.csv</title>
<path fill="none" stroke="black" d="M2199.43,-177.316C2222.97,-179.88 2246.49,-182.44 2269.12,-184.903"/>
<polygon fill="black" stroke="black" points="2268.78,-188.387 2279.1,-185.99 2269.54,-181.429 2268.78,-188.387"/>
</g>
<!-- urn:uuid:167b320e&#45;9143&#45;4084&#45;882e&#45;7d19914767c0 -->
<g id="node4" class="node"><title>urn:uuid:167b320e&#45;9143&#45;4084&#45;882e&#45;7d19914767c0</title>
<polygon fill="black" stroke="black" points="542.122,-24.8 542.122,-83.2 1104.03,-83.2 1104.03,-24.8 542.122,-24.8"/>
<text text-anchor="middle" x="823.077" y="-66.6" font-family="Courier,monospace" font-weight="bold" font-size="14.00" fill="white">ohibc run 1 </text>
<text text-anchor="middle" x="823.077" y="-49.8" font-family="Courier,monospace" font-weight="bold" font-size="14.00" fill="white"> /Users/slaughter/git/OHI&#45;Science/ohibc/setup_watershed_raster.R </text>
<text text-anchor="middle" x="823.077" y="-33" font-family="Courier,monospace" font-weight="bold" font-size="14.00" fill="white"> urn:uuid:167b320e&#45;9143&#45;4084&#45;882e&#45;7d19914767c0</text>
</g>
<!-- /Users/slaughter/git/OHI&#45;Science/ohibc/prep/lsp/vHS/spatial/howe_sound_watershed_500m.tif -->
<g id="node20" class="node"><title>/Users/slaughter/git/OHI&#45;Science/ohibc/prep/lsp/vHS/spatial/howe_sound_watershed_500m.tif</title>
<path fill="#ffe4b5" stroke="black" d="M1642.31,-60C1642.31,-60 1170.27,-60 1170.27,-60 1164.27,-60 1158.27,-54 1158.27,-48 1158.27,-48 1158.27,-36 1158.27,-36 1158.27,-30 1164.27,-24 1170.27,-24 1170.27,-24 1642.31,-24 1642.31,-24 1648.31,-24 1654.31,-30 1654.31,-36 1654.31,-36 1654.31,-48 1654.31,-48 1654.31,-54 1648.31,-60 1642.31,-60"/>
<text text-anchor="middle" x="1406.29" y="-39.3" font-family="Courier,monospace" font-weight="bold" font-size="9.00">/Users/slaughter/git/OHI&#45;Science/ohibc/prep/lsp/vHS/spatial/howe_sound_watershed_500m.tif</text>
</g>
<!-- urn:uuid:167b320e&#45;9143&#45;4084&#45;882e&#45;7d19914767c0&#45;&gt;/Users/slaughter/git/OHI&#45;Science/ohibc/prep/lsp/vHS/spatial/howe_sound_watershed_500m.tif -->
<g id="edge27" class="edge"><title>urn:uuid:167b320e&#45;9143&#45;4084&#45;882e&#45;7d19914767c0&#45;&gt;/Users/slaughter/git/OHI&#45;Science/ohibc/prep/lsp/vHS/spatial/howe_sound_watershed_500m.tif</title>
<path fill="none" stroke="black" d="M1104.04,-48.2197C1118.68,-47.9175 1133.35,-47.6146 1147.91,-47.3139"/>
<polygon fill="black" stroke="black" points="1148.05,-50.812 1157.97,-47.1062 1147.9,-43.8135 1148.05,-50.812"/>
</g>
<!-- urn:uuid:3d6c8ed0&#45;83c0&#45;4b12&#45;9154&#45;2804f4317598 -->
<g id="node5" class="node"><title>urn:uuid:3d6c8ed0&#45;83c0&#45;4b12&#45;9154&#45;2804f4317598</title>
<polygon fill="black" stroke="black" points="550.521,-101.8 550.521,-160.2 1095.63,-160.2 1095.63,-101.8 550.521,-101.8"/>
<text text-anchor="middle" x="823.077" y="-143.6" font-family="Courier,monospace" font-weight="bold" font-size="14.00" fill="white">ohibc run 1 </text>
<text text-anchor="middle" x="823.077" y="-126.8" font-family="Courier,monospace" font-weight="bold" font-size="14.00" fill="white"> /Users/slaughter/git/OHI&#45;Science/ohibc/get_analysis_rasters.R </text>
<text text-anchor="middle" x="823.077" y="-110" font-family="Courier,monospace" font-weight="bold" font-size="14.00" fill="white"> urn:uuid:3d6c8ed0&#45;83c0&#45;4b12&#45;9154&#45;2804f4317598</text>
</g>
<!-- /Users/slaughter/git/OHI&#45;Science/ohibc/prep/lsp/vHS/spatial/hs_offshore_3nm_raster_500m.tif -->
<g id="node15" class="node"><title>/Users/slaughter/git/OHI&#45;Science/ohibc/prep/lsp/vHS/spatial/hs_offshore_3nm_raster_500m.tif</title>
<path fill="#ffe4b5" stroke="black" d="M1648.11,-114C1648.11,-114 1164.47,-114 1164.47,-114 1158.47,-114 1152.47,-108 1152.47,-102 1152.47,-102 1152.47,-90 1152.47,-90 1152.47,-84 1158.47,-78 1164.47,-78 1164.47,-78 1648.11,-78 1648.11,-78 1654.11,-78 1660.11,-84 1660.11,-90 1660.11,-90 1660.11,-102 1660.11,-102 1660.11,-108 1654.11,-114 1648.11,-114"/>
<text text-anchor="middle" x="1406.29" y="-93.3" font-family="Courier,monospace" font-weight="bold" font-size="9.00">/Users/slaughter/git/OHI&#45;Science/ohibc/prep/lsp/vHS/spatial/hs_offshore_3nm_raster_500m.tif</text>
</g>
<!-- urn:uuid:3d6c8ed0&#45;83c0&#45;4b12&#45;9154&#45;2804f4317598&#45;&gt;/Users/slaughter/git/OHI&#45;Science/ohibc/prep/lsp/vHS/spatial/hs_offshore_3nm_raster_500m.tif -->
<g id="edge22" class="edge"><title>urn:uuid:3d6c8ed0&#45;83c0&#45;4b12&#45;9154&#45;2804f4317598&#45;&gt;/Users/slaughter/git/OHI&#45;Science/ohibc/prep/lsp/vHS/spatial/hs_offshore_3nm_raster_500m.tif</title>
<path fill="none" stroke="black" d="M1095.96,-114.627C1111.35,-113.7 1126.81,-112.77 1142.17,-111.845"/>
<polygon fill="black" stroke="black" points="1142.47,-115.333 1152.24,-111.238 1142.05,-108.346 1142.47,-115.333"/>
</g>
<!-- /Users/slaughter/git/OHI&#45;Science/ohibc/prep/lsp/vHS/spatial/hs_inland_1km_raster_500m.tif -->
<g id="node18" class="node"><title>/Users/slaughter/git/OHI&#45;Science/ohibc/prep/lsp/vHS/spatial/hs_inland_1km_raster_500m.tif</title>
<path fill="#ffe4b5" stroke="black" d="M1642.31,-168C1642.31,-168 1170.27,-168 1170.27,-168 1164.27,-168 1158.27,-162 1158.27,-156 1158.27,-156 1158.27,-144 1158.27,-144 1158.27,-138 1164.27,-132 1170.27,-132 1170.27,-132 1642.31,-132 1642.31,-132 1648.31,-132 1654.31,-138 1654.31,-144 1654.31,-144 1654.31,-156 1654.31,-156 1654.31,-162 1648.31,-168 1642.31,-168"/>
<text text-anchor="middle" x="1406.29" y="-147.3" font-family="Courier,monospace" font-weight="bold" font-size="9.00">/Users/slaughter/git/OHI&#45;Science/ohibc/prep/lsp/vHS/spatial/hs_inland_1km_raster_500m.tif</text>
</g>
<!-- urn:uuid:3d6c8ed0&#45;83c0&#45;4b12&#45;9154&#45;2804f4317598&#45;&gt;/Users/slaughter/git/OHI&#45;Science/ohibc/prep/lsp/vHS/spatial/hs_inland_1km_raster_500m.tif -->
<g id="edge25" class="edge"><title>urn:uuid:3d6c8ed0&#45;83c0&#45;4b12&#45;9154&#45;2804f4317598&#45;&gt;/Users/slaughter/git/OHI&#45;Science/ohibc/prep/lsp/vHS/spatial/hs_inland_1km_raster_500m.tif</title>
<path fill="none" stroke="black" d="M1095.96,-139.888C1113.25,-140.453 1130.63,-141.021 1147.85,-141.584"/>
<polygon fill="black" stroke="black" points="1147.86,-145.086 1157.97,-141.915 1148.09,-138.09 1147.86,-145.086"/>
</g>
<!-- urn:uuid:98b5270a&#45;1577&#45;4865&#45;970f&#45;17c6b0065374 -->
<g id="node6" class="node"><title>urn:uuid:98b5270a&#45;1577&#45;4865&#45;970f&#45;17c6b0065374</title>
<polygon fill="black" stroke="black" points="529.524,-178.8 529.524,-237.2 1116.63,-237.2 1116.63,-178.8 529.524,-178.8"/>
<text text-anchor="middle" x="823.077" y="-220.6" font-family="Courier,monospace" font-weight="bold" font-size="14.00" fill="white">ohibc run 1 </text>
<text text-anchor="middle" x="823.077" y="-203.8" font-family="Courier,monospace" font-weight="bold" font-size="14.00" fill="white"> /Users/slaughter/git/OHI&#45;Science/ohibc/rasterize_HS_WDPA_and_PEP.R </text>
<text text-anchor="middle" x="823.077" y="-187" font-family="Courier,monospace" font-weight="bold" font-size="14.00" fill="white"> urn:uuid:98b5270a&#45;1577&#45;4865&#45;970f&#45;17c6b0065374</text>
</g>
<!-- /Users/slaughter/git/OHI&#45;Science/ohibc/prep/lsp/vHS/spatial/hs_wdpa_rast_500m.tif -->
<g id="node8" class="node"><title>/Users/slaughter/git/OHI&#45;Science/ohibc/prep/lsp/vHS/spatial/hs_wdpa_rast_500m.tif</title>
<path fill="#ffe4b5" stroke="black" d="M1621.12,-222C1621.12,-222 1191.46,-222 1191.46,-222 1185.46,-222 1179.46,-216 1179.46,-210 1179.46,-210 1179.46,-198 1179.46,-198 1179.46,-192 1185.46,-186 1191.46,-186 1191.46,-186 1621.12,-186 1621.12,-186 1627.12,-186 1633.12,-192 1633.12,-198 1633.12,-198 1633.12,-210 1633.12,-210 1633.12,-216 1627.12,-222 1621.12,-222"/>
<text text-anchor="middle" x="1406.29" y="-201.3" font-family="Courier,monospace" font-weight="bold" font-size="9.00">/Users/slaughter/git/OHI&#45;Science/ohibc/prep/lsp/vHS/spatial/hs_wdpa_rast_500m.tif</text>
</g>
<!-- urn:uuid:98b5270a&#45;1577&#45;4865&#45;970f&#45;17c6b0065374&#45;&gt;/Users/slaughter/git/OHI&#45;Science/ohibc/prep/lsp/vHS/spatial/hs_wdpa_rast_500m.tif -->
<g id="edge16" class="edge"><title>urn:uuid:98b5270a&#45;1577&#45;4865&#45;970f&#45;17c6b0065374&#45;&gt;/Users/slaughter/git/OHI&#45;Science/ohibc/prep/lsp/vHS/spatial/hs_wdpa_rast_500m.tif</title>
<path fill="none" stroke="black" d="M1116.81,-205.985C1134.4,-205.864 1151.98,-205.743 1169.28,-205.624"/>
<polygon fill="black" stroke="black" points="1169.47,-209.123 1179.44,-205.554 1169.42,-202.123 1169.47,-209.123"/>
</g>
<!-- /Users/slaughter/git/OHI&#45;Science/ohibc/prep/lsp/vHS/spatial/hs_pep_rast_500m.tif -->
<g id="node21" class="node"><title>/Users/slaughter/git/OHI&#45;Science/ohibc/prep/lsp/vHS/spatial/hs_pep_rast_500m.tif</title>
<path fill="#ffe4b5" stroke="black" d="M1618.22,-276C1618.22,-276 1194.36,-276 1194.36,-276 1188.36,-276 1182.36,-270 1182.36,-264 1182.36,-264 1182.36,-252 1182.36,-252 1182.36,-246 1188.36,-240 1194.36,-240 1194.36,-240 1618.22,-240 1618.22,-240 1624.22,-240 1630.22,-246 1630.22,-252 1630.22,-252 1630.22,-264 1630.22,-264 1630.22,-270 1624.22,-276 1618.22,-276"/>
<text text-anchor="middle" x="1406.29" y="-255.3" font-family="Courier,monospace" font-weight="bold" font-size="9.00">/Users/slaughter/git/OHI&#45;Science/ohibc/prep/lsp/vHS/spatial/hs_pep_rast_500m.tif</text>
</g>
<!-- urn:uuid:98b5270a&#45;1577&#45;4865&#45;970f&#45;17c6b0065374&#45;&gt;/Users/slaughter/git/OHI&#45;Science/ohibc/prep/lsp/vHS/spatial/hs_pep_rast_500m.tif -->
<g id="edge28" class="edge"><title>urn:uuid:98b5270a&#45;1577&#45;4865&#45;970f&#45;17c6b0065374&#45;&gt;/Users/slaughter/git/OHI&#45;Science/ohibc/prep/lsp/vHS/spatial/hs_pep_rast_500m.tif</title>
<path fill="none" stroke="black" d="M1116.81,-233.183C1140.06,-235.183 1163.29,-237.181 1185.9,-239.127"/>
<polygon fill="black" stroke="black" points="1185.64,-242.617 1195.9,-239.987 1186.24,-235.643 1185.64,-242.617"/>
</g>
<!-- urn:uuid:53ada2f7&#45;5e25&#45;4845&#45;883e&#45;1049a90c321c -->
<g id="node7" class="node"><title>urn:uuid:53ada2f7&#45;5e25&#45;4845&#45;883e&#45;1049a90c321c</title>
<polygon fill="black" stroke="black" points="4894.67,-120.8 4894.67,-179.2 5548.96,-179.2 5548.96,-120.8 4894.67,-120.8"/>
<text text-anchor="middle" x="5221.81" y="-162.6" font-family="Courier,monospace" font-weight="bold" font-size="14.00" fill="white">ohibc run 1 </text>
<text text-anchor="middle" x="5221.81" y="-145.8" font-family="Courier,monospace" font-weight="bold" font-size="14.00" fill="white"> /Users/slaughter/git/OHI&#45;Science/ohibc/estimate_status_and_trend_by_year.R </text>
<text text-anchor="middle" x="5221.81" y="-129" font-family="Courier,monospace" font-weight="bold" font-size="14.00" fill="white"> urn:uuid:53ada2f7&#45;5e25&#45;4845&#45;883e&#45;1049a90c321c</text>
</g>
<!-- /Users/slaughter/git/OHI&#45;Science/ohibc/prep/lsp/vHS/output/lsp_status.csv -->
<g id="node12" class="node"><title>/Users/slaughter/git/OHI&#45;Science/ohibc/prep/lsp/vHS/output/lsp_status.csv</title>
<path fill="#ffe4b5" stroke="black" d="M5983.16,-168C5983.16,-168 5596.89,-168 5596.89,-168 5590.89,-168 5584.89,-162 5584.89,-156 5584.89,-156 5584.89,-144 5584.89,-144 5584.89,-138 5590.89,-132 5596.89,-132 5596.89,-132 5983.16,-132 5983.16,-132 5989.16,-132 5995.16,-138 5995.16,-144 5995.16,-144 5995.16,-156 5995.16,-156 5995.16,-162 5989.16,-168 5983.16,-168"/>
<text text-anchor="middle" x="5790.03" y="-147.3" font-family="Courier,monospace" font-weight="bold" font-size="9.00">/Users/slaughter/git/OHI&#45;Science/ohibc/prep/lsp/vHS/output/lsp_status.csv</text>
</g>
<!-- urn:uuid:53ada2f7&#45;5e25&#45;4845&#45;883e&#45;1049a90c321c&#45;&gt;/Users/slaughter/git/OHI&#45;Science/ohibc/prep/lsp/vHS/output/lsp_status.csv -->
<g id="edge19" class="edge"><title>urn:uuid:53ada2f7&#45;5e25&#45;4845&#45;883e&#45;1049a90c321c&#45;&gt;/Users/slaughter/git/OHI&#45;Science/ohibc/prep/lsp/vHS/output/lsp_status.csv</title>
<path fill="none" stroke="black" d="M5549.31,-150C5557.78,-150 5566.19,-150 5574.52,-150"/>
<polygon fill="black" stroke="black" points="5574.63,-153.5 5584.63,-150 5574.63,-146.5 5574.63,-153.5"/>
</g>
<!-- /Users/slaughter/git/OHI&#45;Science/ohibc/prep/lsp/vHS/spatial/hs_wdpa_rast_500m.tif&#45;&gt;urn:uuid:f5d6b763&#45;c953&#45;48f4&#45;9a39&#45;4a61f45bfdd3 -->
<g id="edge9" class="edge"><title>/Users/slaughter/git/OHI&#45;Science/ohibc/prep/lsp/vHS/spatial/hs_wdpa_rast_500m.tif&#45;&gt;urn:uuid:f5d6b763&#45;c953&#45;48f4&#45;9a39&#45;4a61f45bfdd3</title>
<path fill="none" stroke="black" d="M1587.21,-185.981C1618.72,-182.826 1652.06,-179.487 1685.24,-176.165"/>
<polygon fill="black" stroke="black" points="1685.93,-179.613 1695.53,-175.134 1685.23,-172.648 1685.93,-179.613"/>
</g>
<!-- /Users/slaughter/git/OHI&#45;Science/ohibc/prep/lsp/vHS/int/area_protected_3nm.csv&#45;&gt;urn:uuid:4fcd5da4&#45;67af&#45;4f8d&#45;ad36&#45;c9cdf45621d4 -->
<g id="edge10" class="edge"><title>/Users/slaughter/git/OHI&#45;Science/ohibc/prep/lsp/vHS/int/area_protected_3nm.csv&#45;&gt;urn:uuid:4fcd5da4&#45;67af&#45;4f8d&#45;ad36&#45;c9cdf45621d4</title>
<path fill="none" stroke="black" d="M3686.11,-114.019C3705.46,-115.903 3725.49,-117.854 3745.75,-119.827"/>
<polygon fill="black" stroke="black" points="3745.42,-123.312 3755.72,-120.798 3746.1,-116.345 3745.42,-123.312"/>
</g>
<!-- /Users/slaughter/git/OHI&#45;Science/ohibc/prep/lsp/vHS/int/area_protected_1km.csv&#45;&gt;urn:uuid:4fcd5da4&#45;67af&#45;4f8d&#45;ad36&#45;c9cdf45621d4 -->
<g id="edge11" class="edge"><title>/Users/slaughter/git/OHI&#45;Science/ohibc/prep/lsp/vHS/int/area_protected_1km.csv&#45;&gt;urn:uuid:4fcd5da4&#45;67af&#45;4f8d&#45;ad36&#45;c9cdf45621d4</title>
<path fill="none" stroke="black" d="M3718.64,-150C3727.15,-150 3735.73,-150 3744.36,-150"/>
<polygon fill="black" stroke="black" points="3744.51,-153.5 3754.51,-150 3744.51,-146.5 3744.51,-153.5"/>
</g>
<!-- /Users/slaughter/git/OHI&#45;Science/ohibc/prep/spatial/raster/ohibc_rgn_raster_500m.tif -->
<g id="node11" class="node"><title>/Users/slaughter/git/OHI&#45;Science/ohibc/prep/spatial/raster/ohibc_rgn_raster_500m.tif</title>
<path fill="#ffe4b5" stroke="black" d="M481.287,-149C481.287,-149 36.2376,-149 36.2376,-149 30.2376,-149 24.2376,-143 24.2376,-137 24.2376,-137 24.2376,-125 24.2376,-125 24.2376,-119 30.2376,-113 36.2376,-113 36.2376,-113 481.287,-113 481.287,-113 487.287,-113 493.287,-119 493.287,-125 493.287,-125 493.287,-137 493.287,-137 493.287,-143 487.287,-149 481.287,-149"/>
<text text-anchor="middle" x="258.762" y="-128.3" font-family="Courier,monospace" font-weight="bold" font-size="9.00">/Users/slaughter/git/OHI&#45;Science/ohibc/prep/spatial/raster/ohibc_rgn_raster_500m.tif</text>
</g>
<!-- /Users/slaughter/git/OHI&#45;Science/ohibc/prep/spatial/raster/ohibc_rgn_raster_500m.tif&#45;&gt;urn:uuid:167b320e&#45;9143&#45;4084&#45;882e&#45;7d19914767c0 -->
<g id="edge14" class="edge"><title>/Users/slaughter/git/OHI&#45;Science/ohibc/prep/spatial/raster/ohibc_rgn_raster_500m.tif&#45;&gt;urn:uuid:167b320e&#45;9143&#45;4084&#45;882e&#45;7d19914767c0</title>
<path fill="none" stroke="black" d="M381.913,-112.96C428.136,-106.234 481.237,-98.6262 529.524,-92 547.374,-89.5506 565.842,-87.0568 584.422,-84.5771"/>
<polygon fill="black" stroke="black" points="584.997,-88.0315 594.448,-83.2418 584.073,-81.0928 584.997,-88.0315"/>
</g>
<!-- /Users/slaughter/git/OHI&#45;Science/ohibc/prep/spatial/raster/ohibc_rgn_raster_500m.tif&#45;&gt;urn:uuid:3d6c8ed0&#45;83c0&#45;4b12&#45;9154&#45;2804f4317598 -->
<g id="edge13" class="edge"><title>/Users/slaughter/git/OHI&#45;Science/ohibc/prep/spatial/raster/ohibc_rgn_raster_500m.tif&#45;&gt;urn:uuid:3d6c8ed0&#45;83c0&#45;4b12&#45;9154&#45;2804f4317598</title>
<path fill="none" stroke="black" d="M493.349,-131C508.82,-131 524.488,-131 540.16,-131"/>
<polygon fill="black" stroke="black" points="540.456,-134.5 550.456,-131 540.456,-127.5 540.456,-134.5"/>
</g>
<!-- /Users/slaughter/git/OHI&#45;Science/ohibc/prep/spatial/raster/ohibc_rgn_raster_500m.tif&#45;&gt;urn:uuid:98b5270a&#45;1577&#45;4865&#45;970f&#45;17c6b0065374 -->
<g id="edge12" class="edge"><title>/Users/slaughter/git/OHI&#45;Science/ohibc/prep/spatial/raster/ohibc_rgn_raster_500m.tif&#45;&gt;urn:uuid:98b5270a&#45;1577&#45;4865&#45;970f&#45;17c6b0065374</title>
<path fill="none" stroke="black" d="M381.913,-149.04C428.136,-155.766 481.237,-163.374 529.524,-170 547.374,-172.449 565.842,-174.943 584.422,-177.423"/>
<polygon fill="black" stroke="black" points="584.073,-180.907 594.448,-178.758 584.997,-173.968 584.073,-180.907"/>
</g>
<!-- /Users/slaughter/git/OHI&#45;Science/ohibc/prep/lsp/vHS/int/area_protected_ws.csv&#45;&gt;urn:uuid:4fcd5da4&#45;67af&#45;4f8d&#45;ad36&#45;c9cdf45621d4 -->
<g id="edge15" class="edge"><title>/Users/slaughter/git/OHI&#45;Science/ohibc/prep/lsp/vHS/int/area_protected_ws.csv&#45;&gt;urn:uuid:4fcd5da4&#45;67af&#45;4f8d&#45;ad36&#45;c9cdf45621d4</title>
<path fill="none" stroke="black" d="M3686.11,-185.981C3705.46,-184.097 3725.49,-182.146 3745.75,-180.173"/>
<polygon fill="black" stroke="black" points="3746.1,-183.655 3755.72,-179.202 3745.42,-176.688 3746.1,-183.655"/>
</g>
<!-- /Users/slaughter/git/OHI&#45;Science/ohibc/prep/lsp/vHS/int/zonal_stats_3nm.csv&#45;&gt;urn:uuid:53c74750&#45;d660&#45;479d&#45;8e59&#45;f54068835317 -->
<g id="edge1" class="edge"><title>/Users/slaughter/git/OHI&#45;Science/ohibc/prep/lsp/vHS/int/zonal_stats_3nm.csv&#45;&gt;urn:uuid:53c74750&#45;d660&#45;479d&#45;8e59&#45;f54068835317</title>
<path fill="none" stroke="black" d="M2620.45,-114.019C2640.39,-116.084 2661.09,-118.228 2682,-120.395"/>
<polygon fill="black" stroke="black" points="2681.65,-123.877 2691.95,-121.426 2682.37,-116.914 2681.65,-123.877"/>
</g>
<!-- /Users/slaughter/git/OHI&#45;Science/ohibc/prep/lsp/vHS/spatial/hs_offshore_3nm_raster_500m.tif&#45;&gt;urn:uuid:f5d6b763&#45;c953&#45;48f4&#45;9a39&#45;4a61f45bfdd3 -->
<g id="edge2" class="edge"><title>/Users/slaughter/git/OHI&#45;Science/ohibc/prep/lsp/vHS/spatial/hs_offshore_3nm_raster_500m.tif&#45;&gt;urn:uuid:f5d6b763&#45;c953&#45;48f4&#45;9a39&#45;4a61f45bfdd3</title>
<path fill="none" stroke="black" d="M1587.21,-114.019C1618.72,-117.174 1652.06,-120.513 1685.24,-123.835"/>
<polygon fill="black" stroke="black" points="1685.23,-127.352 1695.53,-124.866 1685.93,-120.387 1685.23,-127.352"/>
</g>
<!-- /Users/slaughter/git/OHI&#45;Science/ohibc/prep/lsp/vHS/output/area_protected_total.csv&#45;&gt;urn:uuid:53ada2f7&#45;5e25&#45;4845&#45;883e&#45;1049a90c321c -->
<g id="edge3" class="edge"><title>/Users/slaughter/git/OHI&#45;Science/ohibc/prep/lsp/vHS/output/area_protected_total.csv&#45;&gt;urn:uuid:53ada2f7&#45;5e25&#45;4845&#45;883e&#45;1049a90c321c</title>
<path fill="none" stroke="black" d="M4859.08,-150C4867.49,-150 4875.98,-150 4884.51,-150"/>
<polygon fill="black" stroke="black" points="4884.54,-153.5 4894.54,-150 4884.54,-146.5 4884.54,-153.5"/>
</g>
<!-- /Users/slaughter/git/OHI&#45;Science/ohibc/prep/lsp/vHS/int/zonal_stats_1km.csv&#45;&gt;urn:uuid:53c74750&#45;d660&#45;479d&#45;8e59&#45;f54068835317 -->
<g id="edge4" class="edge"><title>/Users/slaughter/git/OHI&#45;Science/ohibc/prep/lsp/vHS/int/zonal_stats_1km.csv&#45;&gt;urn:uuid:53c74750&#45;d660&#45;479d&#45;8e59&#45;f54068835317</title>
<path fill="none" stroke="black" d="M2656.28,-150C2664.72,-150 2673.23,-150 2681.78,-150"/>
<polygon fill="black" stroke="black" points="2681.83,-153.5 2691.83,-150 2681.83,-146.5 2681.83,-153.5"/>
</g>
<!-- /Users/slaughter/git/OHI&#45;Science/ohibc/prep/lsp/vHS/spatial/hs_inland_1km_raster_500m.tif&#45;&gt;urn:uuid:f5d6b763&#45;c953&#45;48f4&#45;9a39&#45;4a61f45bfdd3 -->
<g id="edge5" class="edge"><title>/Users/slaughter/git/OHI&#45;Science/ohibc/prep/lsp/vHS/spatial/hs_inland_1km_raster_500m.tif&#45;&gt;urn:uuid:f5d6b763&#45;c953&#45;48f4&#45;9a39&#45;4a61f45bfdd3</title>
<path fill="none" stroke="black" d="M1654.41,-150C1664.7,-150 1675.03,-150 1685.34,-150"/>
<polygon fill="black" stroke="black" points="1685.65,-153.5 1695.65,-150 1685.65,-146.5 1685.65,-153.5"/>
</g>
<!-- /Users/slaughter/git/OHI&#45;Science/ohibc/prep/lsp/vHS/int/zonal_stats_ws.csv&#45;&gt;urn:uuid:53c74750&#45;d660&#45;479d&#45;8e59&#45;f54068835317 -->
<g id="edge6" class="edge"><title>/Users/slaughter/git/OHI&#45;Science/ohibc/prep/lsp/vHS/int/zonal_stats_ws.csv&#45;&gt;urn:uuid:53c74750&#45;d660&#45;479d&#45;8e59&#45;f54068835317</title>
<path fill="none" stroke="black" d="M2620.45,-185.981C2640.39,-183.916 2661.09,-181.772 2682,-179.605"/>
<polygon fill="black" stroke="black" points="2682.37,-183.086 2691.95,-178.574 2681.65,-176.123 2682.37,-183.086"/>
</g>
<!-- /Users/slaughter/git/OHI&#45;Science/ohibc/prep/lsp/vHS/spatial/howe_sound_watershed_500m.tif&#45;&gt;urn:uuid:f5d6b763&#45;c953&#45;48f4&#45;9a39&#45;4a61f45bfdd3 -->
<g id="edge7" class="edge"><title>/Users/slaughter/git/OHI&#45;Science/ohibc/prep/lsp/vHS/spatial/howe_sound_watershed_500m.tif&#45;&gt;urn:uuid:f5d6b763&#45;c953&#45;48f4&#45;9a39&#45;4a61f45bfdd3</title>
<path fill="none" stroke="black" d="M1606.03,-60.0262C1624.32,-62.6518 1642.51,-65.6297 1659.95,-69 1723.39,-81.2658 1793.2,-100.864 1848.03,-117.71"/>
<polygon fill="black" stroke="black" points="1847.15,-121.102 1857.74,-120.713 1849.22,-114.415 1847.15,-121.102"/>
</g>
<!-- /Users/slaughter/git/OHI&#45;Science/ohibc/prep/lsp/vHS/spatial/hs_pep_rast_500m.tif&#45;&gt;urn:uuid:f5d6b763&#45;c953&#45;48f4&#45;9a39&#45;4a61f45bfdd3 -->
<g id="edge8" class="edge"><title>/Users/slaughter/git/OHI&#45;Science/ohibc/prep/lsp/vHS/spatial/hs_pep_rast_500m.tif&#45;&gt;urn:uuid:f5d6b763&#45;c953&#45;48f4&#45;9a39&#45;4a61f45bfdd3</title>
<path fill="none" stroke="black" d="M1606.03,-239.974C1624.32,-237.348 1642.51,-234.37 1659.95,-231 1723.39,-218.734 1793.2,-199.136 1848.03,-182.29"/>
<polygon fill="black" stroke="black" points="1849.22,-185.585 1857.74,-179.287 1847.15,-178.898 1849.22,-185.585"/>
</g>
</g>
</svg>
