<?xml version="1.0" encoding="UTF-8" standalone="no"?>
<!DOCTYPE svg PUBLIC "-//W3C//DTD SVG 1.1//EN"
 "http://www.w3.org/Graphics/SVG/1.1/DTD/svg11.dtd">
<!-- Generated by graphviz version 2.38.0 (20140413.2041)
 -->
<!-- Title: yw_data_view Pages: 1 -->
<svg width="6022pt" height="338pt"
 viewBox="0.00 0.00 6021.69 337.60" xmlns="http://www.w3.org/2000/svg" xmlns:xlink="http://www.w3.org/1999/xlink">
<g id="graph0" class="graph" transform="scale(1 1) rotate(0) translate(4 333.6)">
<title>yw_data_view</title>
<polygon fill="white" stroke="none" points="-4,4 -4,-333.6 6017.69,-333.6 6017.69,4 -4,4"/>
<text text-anchor="middle" x="3006.85" y="-309.4" font-family="Courier,monospace" font-size="18.00">Upstream graph for multiple runs</text>
<g id="clust1" class="cluster"><title>cluster_workflow</title>
<polygon fill="none" stroke="black" stroke-width="2" points="8,-8 8,-292 6005.69,-292 6005.69,-8 8,-8"/>
</g>
<g id="clust2" class="cluster"><title>cluster_workflow_inner</title>
<polygon fill="none" stroke="white" stroke-width="2" points="16,-16 16,-284 5997.69,-284 5997.69,-16 16,-16"/>
</g>
<!-- urn:uuid:4fcd5da4&#45;67af&#45;4f8d&#45;ad36&#45;c9cdf45621d4 -->
<g id="node1" class="node"><title>urn:uuid:4fcd5da4&#45;67af&#45;4f8d&#45;ad36&#45;c9cdf45621d4</title>
<polygon fill="black" stroke="black" points="3754.64,-120.8 3754.64,-179.2 4358.54,-179.2 4358.54,-120.8 3754.64,-120.8"/>
<text text-anchor="middle" x="4056.59" y="-162.6" font-family="Courier,monospace" font-weight="bold" font-size="14.00" fill="white">ohibc run 1 </text>
<text text-anchor="middle" x="4056.59" y="-145.8" font-family="Courier,monospace" font-weight="bold" font-size="14.00" fill="white"> /Users/slaughter/git/OHI&#45;Science/ohibc/combine_inland_and_offshore.R </text>
<text text-anchor="middle" x="4056.59" y="-129" font-family="Courier,monospace" font-weight="bold" font-size="14.00" fill="white"> urn:uuid:4fcd5da4&#45;67af&#45;4f8d&#45;ad36&#45;c9cdf45621d4</text>
</g>
<!-- /Users/slaughter/git/OHI&#45;Science/ohibc/prep/lsp/vHS/output/area_protected_total.csv -->
<g id="node20" class="node"><title>/Users/slaughter/git/OHI&#45;Science/ohibc/prep/lsp/vHS/output/area_protected_total.csv</title>
<path fill="#ffe4b5" stroke="black" d="M4846.73,-168C4846.73,-168 4406.48,-168 4406.48,-168 4400.48,-168 4394.48,-162 4394.48,-156 4394.48,-156 4394.48,-144 4394.48,-144 4394.48,-138 4400.48,-132 4406.48,-132 4406.48,-132 4846.73,-132 4846.73,-132 4852.73,-132 4858.73,-138 4858.73,-144 4858.73,-144 4858.73,-156 4858.73,-156 4858.73,-162 4852.73,-168 4846.73,-168"/>
<text text-anchor="middle" x="4626.6" y="-147.3" font-family="Courier,monospace" font-weight="bold" font-size="9.00">/Users/slaughter/git/OHI&#45;Science/ohibc/prep/lsp/vHS/output/area_protected_total.csv</text>
</g>
<!-- urn:uuid:4fcd5da4&#45;67af&#45;4f8d&#45;ad36&#45;c9cdf45621d4&#45;&gt;/Users/slaughter/git/OHI&#45;Science/ohibc/prep/lsp/vHS/output/area_protected_total.csv -->
<g id="edge27" class="edge"><title>urn:uuid:4fcd5da4&#45;67af&#45;4f8d&#45;ad36&#45;c9cdf45621d4&#45;&gt;/Users/slaughter/git/OHI&#45;Science/ohibc/prep/lsp/vHS/output/area_protected_total.csv</title>
<path fill="none" stroke="black" d="M4358.64,-150C4367.15,-150 4375.63,-150 4384.06,-150"/>
<polygon fill="black" stroke="black" points="4384.32,-153.5 4394.32,-150 4384.32,-146.5 4384.32,-153.5"/>
</g>
<!-- urn:uuid:53c74750&#45;d660&#45;479d&#45;8e59&#45;f54068835317 -->
<g id="node2" class="node"><title>urn:uuid:53c74750&#45;d660&#45;479d&#45;8e59&#45;f54068835317</title>
<polygon fill="black" stroke="black" points="2692,-120.8 2692,-179.2 3245.51,-179.2 3245.51,-120.8 2692,-120.8"/>
<text text-anchor="middle" x="2968.75" y="-162.6" font-family="Courier,monospace" font-weight="bold" font-size="14.00" fill="white">ohibc run 1 </text>
<text text-anchor="middle" x="2968.75" y="-145.8" font-family="Courier,monospace" font-weight="bold" font-size="14.00" fill="white"> /Users/slaughter/git/OHI&#45;Science/ohibc/summarize_zonal_stats.R </text>
<text text-anchor="middle" x="2968.75" y="-129" font-family="Courier,monospace" font-weight="bold" font-size="14.00" fill="white"> urn:uuid:53c74750&#45;d660&#45;479d&#45;8e59&#45;f54068835317</text>
</g>
<!-- /Users/slaughter/git/OHI&#45;Science/ohibc/prep/lsp/vHS/int/area_protected_ws.csv -->
<g id="node10" class="node"><title>/Users/slaughter/git/OHI&#45;Science/ohibc/prep/lsp/vHS/int/area_protected_ws.csv</title>
<path fill="#ffe4b5" stroke="black" d="M3703.8,-114C3703.8,-114 3296.34,-114 3296.34,-114 3290.34,-114 3284.34,-108 3284.34,-102 3284.34,-102 3284.34,-90 3284.34,-90 3284.34,-84 3290.34,-78 3296.34,-78 3296.34,-78 3703.8,-78 3703.8,-78 3709.8,-78 3715.8,-84 3715.8,-90 3715.8,-90 3715.8,-102 3715.8,-102 3715.8,-108 3709.8,-114 3703.8,-114"/>
<text text-anchor="middle" x="3500.07" y="-93.3" font-family="Courier,monospace" font-weight="bold" font-size="9.00">/Users/slaughter/git/OHI&#45;Science/ohibc/prep/lsp/vHS/int/area_protected_ws.csv</text>
</g>
<!-- urn:uuid:53c74750&#45;d660&#45;479d&#45;8e59&#45;f54068835317&#45;&gt;/Users/slaughter/git/OHI&#45;Science/ohibc/prep/lsp/vHS/int/area_protected_ws.csv -->
<g id="edge18" class="edge"><title>urn:uuid:53c74750&#45;d660&#45;479d&#45;8e59&#45;f54068835317&#45;&gt;/Users/slaughter/git/OHI&#45;Science/ohibc/prep/lsp/vHS/int/area_protected_ws.csv</title>
<path fill="none" stroke="black" d="M3245.65,-121.853C3268.18,-119.555 3290.6,-117.268 3312.26,-115.058"/>
<polygon fill="black" stroke="black" points="3312.9,-118.512 3322.49,-114.015 3312.19,-111.548 3312.9,-118.512"/>
</g>
<!-- /Users/slaughter/git/OHI&#45;Science/ohibc/prep/lsp/vHS/int/area_protected_1km.csv -->
<g id="node11" class="node"><title>/Users/slaughter/git/OHI&#45;Science/ohibc/prep/lsp/vHS/int/area_protected_1km.csv</title>
<path fill="#ffe4b5" stroke="black" d="M3706.7,-168C3706.7,-168 3293.44,-168 3293.44,-168 3287.44,-168 3281.44,-162 3281.44,-156 3281.44,-156 3281.44,-144 3281.44,-144 3281.44,-138 3287.44,-132 3293.44,-132 3293.44,-132 3706.7,-132 3706.7,-132 3712.7,-132 3718.7,-138 3718.7,-144 3718.7,-144 3718.7,-156 3718.7,-156 3718.7,-162 3712.7,-168 3706.7,-168"/>
<text text-anchor="middle" x="3500.07" y="-147.3" font-family="Courier,monospace" font-weight="bold" font-size="9.00">/Users/slaughter/git/OHI&#45;Science/ohibc/prep/lsp/vHS/int/area_protected_1km.csv</text>
</g>
<!-- urn:uuid:53c74750&#45;d660&#45;479d&#45;8e59&#45;f54068835317&#45;&gt;/Users/slaughter/git/OHI&#45;Science/ohibc/prep/lsp/vHS/int/area_protected_1km.csv -->
<g id="edge19" class="edge"><title>urn:uuid:53c74750&#45;d660&#45;479d&#45;8e59&#45;f54068835317&#45;&gt;/Users/slaughter/git/OHI&#45;Science/ohibc/prep/lsp/vHS/int/area_protected_1km.csv</title>
<path fill="none" stroke="black" d="M3245.65,-150C3254.13,-150 3262.59,-150 3270.99,-150"/>
<polygon fill="black" stroke="black" points="3271.22,-153.5 3281.22,-150 3271.22,-146.5 3271.22,-153.5"/>
</g>
<!-- /Users/slaughter/git/OHI&#45;Science/ohibc/prep/lsp/vHS/int/area_protected_3nm.csv -->
<g id="node16" class="node"><title>/Users/slaughter/git/OHI&#45;Science/ohibc/prep/lsp/vHS/int/area_protected_3nm.csv</title>
<path fill="#ffe4b5" stroke="black" d="M3706.7,-222C3706.7,-222 3293.44,-222 3293.44,-222 3287.44,-222 3281.44,-216 3281.44,-210 3281.44,-210 3281.44,-198 3281.44,-198 3281.44,-192 3287.44,-186 3293.44,-186 3293.44,-186 3706.7,-186 3706.7,-186 3712.7,-186 3718.7,-192 3718.7,-198 3718.7,-198 3718.7,-210 3718.7,-210 3718.7,-216 3712.7,-222 3706.7,-222"/>
<text text-anchor="middle" x="3500.07" y="-201.3" font-family="Courier,monospace" font-weight="bold" font-size="9.00">/Users/slaughter/git/OHI&#45;Science/ohibc/prep/lsp/vHS/int/area_protected_3nm.csv</text>
</g>
<!-- urn:uuid:53c74750&#45;d660&#45;479d&#45;8e59&#45;f54068835317&#45;&gt;/Users/slaughter/git/OHI&#45;Science/ohibc/prep/lsp/vHS/int/area_protected_3nm.csv -->
<g id="edge23" class="edge"><title>urn:uuid:53c74750&#45;d660&#45;479d&#45;8e59&#45;f54068835317&#45;&gt;/Users/slaughter/git/OHI&#45;Science/ohibc/prep/lsp/vHS/int/area_protected_3nm.csv</title>
<path fill="none" stroke="black" d="M3245.65,-178.147C3268.18,-180.445 3290.6,-182.732 3312.26,-184.942"/>
<polygon fill="black" stroke="black" points="3312.19,-188.452 3322.49,-185.985 3312.9,-181.488 3312.19,-188.452"/>
</g>
<!-- urn:uuid:f5d6b763&#45;c953&#45;48f4&#45;9a39&#45;4a61f45bfdd3 -->
<g id="node3" class="node"><title>urn:uuid:f5d6b763&#45;c953&#45;48f4&#45;9a39&#45;4a61f45bfdd3</title>
<polygon fill="black" stroke="black" points="1695.95,-120.8 1695.95,-179.2 2199.07,-179.2 2199.07,-120.8 1695.95,-120.8"/>
<text text-anchor="middle" x="1947.51" y="-162.6" font-family="Courier,monospace" font-weight="bold" font-size="14.00" fill="white">ohibc run 1 </text>
<text text-anchor="middle" x="1947.51" y="-145.8" font-family="Courier,monospace" font-weight="bold" font-size="14.00" fill="white"> /Users/slaughter/git/OHI&#45;Science/ohibc/lsp_zonal_stats.R </text>
<text text-anchor="middle" x="1947.51" y="-129" font-family="Courier,monospace" font-weight="bold" font-size="14.00" fill="white"> urn:uuid:f5d6b763&#45;c953&#45;48f4&#45;9a39&#45;4a61f45bfdd3</text>
</g>
<!-- /Users/slaughter/git/OHI&#45;Science/ohibc/prep/lsp/vHS/int/zonal_stats_3nm.csv -->
<g id="node9" class="node"><title>/Users/slaughter/git/OHI&#45;Science/ohibc/prep/lsp/vHS/int/zonal_stats_3nm.csv</title>
<path fill="#ffe4b5" stroke="black" d="M2643.96,-114C2643.96,-114 2247.1,-114 2247.1,-114 2241.1,-114 2235.1,-108 2235.1,-102 2235.1,-102 2235.1,-90 2235.1,-90 2235.1,-84 2241.1,-78 2247.1,-78 2247.1,-78 2643.96,-78 2643.96,-78 2649.96,-78 2655.96,-84 2655.96,-90 2655.96,-90 2655.96,-102 2655.96,-102 2655.96,-108 2649.96,-114 2643.96,-114"/>
<text text-anchor="middle" x="2445.53" y="-93.3" font-family="Courier,monospace" font-weight="bold" font-size="9.00">/Users/slaughter/git/OHI&#45;Science/ohibc/prep/lsp/vHS/int/zonal_stats_3nm.csv</text>
</g>
<!-- urn:uuid:f5d6b763&#45;c953&#45;48f4&#45;9a39&#45;4a61f45bfdd3&#45;&gt;/Users/slaughter/git/OHI&#45;Science/ohibc/prep/lsp/vHS/int/zonal_stats_3nm.csv -->
<g id="edge17" class="edge"><title>urn:uuid:f5d6b763&#45;c953&#45;48f4&#45;9a39&#45;4a61f45bfdd3&#45;&gt;/Users/slaughter/git/OHI&#45;Science/ohibc/prep/lsp/vHS/int/zonal_stats_3nm.csv</title>
<path fill="none" stroke="black" d="M2199.43,-122.684C2222.97,-120.12 2246.49,-117.56 2269.12,-115.097"/>
<polygon fill="black" stroke="black" points="2269.54,-118.571 2279.1,-114.01 2268.78,-111.613 2269.54,-118.571"/>
</g>
<!-- /Users/slaughter/git/OHI&#45;Science/ohibc/prep/lsp/vHS/int/zonal_stats_1km.csv -->
<g id="node17" class="node"><title>/Users/slaughter/git/OHI&#45;Science/ohibc/prep/lsp/vHS/int/zonal_stats_1km.csv</title>
<path fill="#ffe4b5" stroke="black" d="M2643.96,-168C2643.96,-168 2247.1,-168 2247.1,-168 2241.1,-168 2235.1,-162 2235.1,-156 2235.1,-156 2235.1,-144 2235.1,-144 2235.1,-138 2241.1,-132 2247.1,-132 2247.1,-132 2643.96,-132 2643.96,-132 2649.96,-132 2655.96,-138 2655.96,-144 2655.96,-144 2655.96,-156 2655.96,-156 2655.96,-162 2649.96,-168 2643.96,-168"/>
<text text-anchor="middle" x="2445.53" y="-147.3" font-family="Courier,monospace" font-weight="bold" font-size="9.00">/Users/slaughter/git/OHI&#45;Science/ohibc/prep/lsp/vHS/int/zonal_stats_1km.csv</text>
</g>
<!-- urn:uuid:f5d6b763&#45;c953&#45;48f4&#45;9a39&#45;4a61f45bfdd3&#45;&gt;/Users/slaughter/git/OHI&#45;Science/ohibc/prep/lsp/vHS/int/zonal_stats_1km.csv -->
<g id="edge24" class="edge"><title>urn:uuid:f5d6b763&#45;c953&#45;48f4&#45;9a39&#45;4a61f45bfdd3&#45;&gt;/Users/slaughter/git/OHI&#45;Science/ohibc/prep/lsp/vHS/int/zonal_stats_1km.csv</title>
<path fill="none" stroke="black" d="M2199.43,-150C2207.88,-150 2216.33,-150 2224.74,-150"/>
<polygon fill="black" stroke="black" points="2224.97,-153.5 2234.97,-150 2224.97,-146.5 2224.97,-153.5"/>
</g>
<!-- /Users/slaughter/git/OHI&#45;Science/ohibc/prep/lsp/vHS/int/zonal_stats_ws.csv -->
<g id="node19" class="node"><title>/Users/slaughter/git/OHI&#45;Science/ohibc/prep/lsp/vHS/int/zonal_stats_ws.csv</title>
<path fill="#ffe4b5" stroke="black" d="M2641.07,-222C2641.07,-222 2250,-222 2250,-222 2244,-222 2238,-216 2238,-210 2238,-210 2238,-198 2238,-198 2238,-192 2244,-186 2250,-186 2250,-186 2641.07,-186 2641.07,-186 2647.07,-186 2653.07,-192 2653.07,-198 2653.07,-198 2653.07,-210 2653.07,-210 2653.07,-216 2647.07,-222 2641.07,-222"/>
<text text-anchor="middle" x="2445.53" y="-201.3" font-family="Courier,monospace" font-weight="bold" font-size="9.00">/Users/slaughter/git/OHI&#45;Science/ohibc/prep/lsp/vHS/int/zonal_stats_ws.csv</text>
</g>
<!-- urn:uuid:f5d6b763&#45;c953&#45;48f4&#45;9a39&#45;4a61f45bfdd3&#45;&gt;/Users/slaughter/git/OHI&#45;Science/ohibc/prep/lsp/vHS/int/zonal_stats_ws.csv -->
<g id="edge26" class="edge"><title>urn:uuid:f5d6b763&#45;c953&#45;48f4&#45;9a39&#45;4a61f45bfdd3&#45;&gt;/Users/slaughter/git/OHI&#45;Science/ohibc/prep/lsp/vHS/int/zonal_stats_ws.csv</title>
<path fill="none" stroke="black" d="M2199.43,-177.316C2222.97,-179.88 2246.49,-182.44 2269.12,-184.903"/>
<polygon fill="black" stroke="black" points="2268.78,-188.387 2279.1,-185.99 2269.54,-181.429 2268.78,-188.387"/>
</g>
<!-- urn:uuid:167b320e&#45;9143&#45;4084&#45;882e&#45;7d19914767c0 -->
<g id="node4" class="node"><title>urn:uuid:167b320e&#45;9143&#45;4084&#45;882e&#45;7d19914767c0</title>
<polygon fill="black" stroke="black" points="542.122,-24.8 542.122,-83.2 1104.03,-83.2 1104.03,-24.8 542.122,-24.8"/>
<text text-anchor="middle" x="823.077" y="-66.6" font-family="Courier,monospace" font-weight="bold" font-size="14.00" fill="white">ohibc run 1 </text>
<text text-anchor="middle" x="823.077" y="-49.8" font-family="Courier,monospace" font-weight="bold" font-size="14.00" fill="white"> /Users/slaughter/git/OHI&#45;Science/ohibc/setup_watershed_raster.R </text>
<text text-anchor="middle" x="823.077" y="-33" font-family="Courier,monospace" font-weight="bold" font-size="14.00" fill="white"> urn:uuid:167b320e&#45;9143&#45;4084&#45;882e&#45;7d19914767c0</text>
</g>
<!-- /Users/slaughter/git/OHI&#45;Science/ohibc/prep/lsp/vHS/spatial/howe_sound_watershed_500m.tif -->
<g id="node18" class="node"><title>/Users/slaughter/git/OHI&#45;Science/ohibc/prep/lsp/vHS/spatial/howe_sound_watershed_500m.tif</title>
<path fill="#ffe4b5" stroke="black" d="M1642.31,-60C1642.31,-60 1170.27,-60 1170.27,-60 1164.27,-60 1158.27,-54 1158.27,-48 1158.27,-48 1158.27,-36 1158.27,-36 1158.27,-30 1164.27,-24 1170.27,-24 1170.27,-24 1642.31,-24 1642.31,-24 1648.31,-24 1654.31,-30 1654.31,-36 1654.31,-36 1654.31,-48 1654.31,-48 1654.31,-54 1648.31,-60 1642.31,-60"/>
<text text-anchor="middle" x="1406.29" y="-39.3" font-family="Courier,monospace" font-weight="bold" font-size="9.00">/Users/slaughter/git/OHI&#45;Science/ohibc/prep/lsp/vHS/spatial/howe_sound_watershed_500m.tif</text>
</g>
<!-- urn:uuid:167b320e&#45;9143&#45;4084&#45;882e&#45;7d19914767c0&#45;&gt;/Users/slaughter/git/OHI&#45;Science/ohibc/prep/lsp/vHS/spatial/howe_sound_watershed_500m.tif -->
<g id="edge25" class="edge"><title>urn:uuid:167b320e&#45;9143&#45;4084&#45;882e&#45;7d19914767c0&#45;&gt;/Users/slaughter/git/OHI&#45;Science/ohibc/prep/lsp/vHS/spatial/howe_sound_watershed_500m.tif</title>
<path fill="none" stroke="black" d="M1104.04,-48.2197C1118.68,-47.9175 1133.35,-47.6146 1147.91,-47.3139"/>
<polygon fill="black" stroke="black" points="1148.05,-50.812 1157.97,-47.1062 1147.9,-43.8135 1148.05,-50.812"/>
</g>
<!-- urn:uuid:3d6c8ed0&#45;83c0&#45;4b12&#45;9154&#45;2804f4317598 -->
<g id="node5" class="node"><title>urn:uuid:3d6c8ed0&#45;83c0&#45;4b12&#45;9154&#45;2804f4317598</title>
<polygon fill="black" stroke="black" points="550.521,-101.8 550.521,-160.2 1095.63,-160.2 1095.63,-101.8 550.521,-101.8"/>
<text text-anchor="middle" x="823.077" y="-143.6" font-family="Courier,monospace" font-weight="bold" font-size="14.00" fill="white">ohibc run 1 </text>
<text text-anchor="middle" x="823.077" y="-126.8" font-family="Courier,monospace" font-weight="bold" font-size="14.00" fill="white"> /Users/slaughter/git/OHI&#45;Science/ohibc/get_analysis_rasters.R </text>
<text text-anchor="middle" x="823.077" y="-110" font-family="Courier,monospace" font-weight="bold" font-size="14.00" fill="white"> urn:uuid:3d6c8ed0&#45;83c0&#45;4b12&#45;9154&#45;2804f4317598</text>
</g>
<!-- /Users/slaughter/git/OHI&#45;Science/ohibc/prep/lsp/vHS/spatial/hs_inland_1km_raster_500m.tif -->
<g id="node8" class="node"><title>/Users/slaughter/git/OHI&#45;Science/ohibc/prep/lsp/vHS/spatial/hs_inland_1km_raster_500m.tif</title>
<path fill="#ffe4b5" stroke="black" d="M1642.31,-114C1642.31,-114 1170.27,-114 1170.27,-114 1164.27,-114 1158.27,-108 1158.27,-102 1158.27,-102 1158.27,-90 1158.27,-90 1158.27,-84 1164.27,-78 1170.27,-78 1170.27,-78 1642.31,-78 1642.31,-78 1648.31,-78 1654.31,-84 1654.31,-90 1654.31,-90 1654.31,-102 1654.31,-102 1654.31,-108 1648.31,-114 1642.31,-114"/>
<text text-anchor="middle" x="1406.29" y="-93.3" font-family="Courier,monospace" font-weight="bold" font-size="9.00">/Users/slaughter/git/OHI&#45;Science/ohibc/prep/lsp/vHS/spatial/hs_inland_1km_raster_500m.tif</text>
</g>
<!-- urn:uuid:3d6c8ed0&#45;83c0&#45;4b12&#45;9154&#45;2804f4317598&#45;&gt;/Users/slaughter/git/OHI&#45;Science/ohibc/prep/lsp/vHS/spatial/hs_inland_1km_raster_500m.tif -->
<g id="edge16" class="edge"><title>urn:uuid:3d6c8ed0&#45;83c0&#45;4b12&#45;9154&#45;2804f4317598&#45;&gt;/Users/slaughter/git/OHI&#45;Science/ohibc/prep/lsp/vHS/spatial/hs_inland_1km_raster_500m.tif</title>
<path fill="none" stroke="black" d="M1095.96,-114.627C1113.25,-113.586 1130.63,-112.54 1147.85,-111.503"/>
<polygon fill="black" stroke="black" points="1148.19,-114.988 1157.97,-110.894 1147.77,-108.001 1148.19,-114.988"/>
</g>
<!-- /Users/slaughter/git/OHI&#45;Science/ohibc/prep/lsp/vHS/spatial/hs_offshore_3nm_raster_500m.tif -->
<g id="node14" class="node"><title>/Users/slaughter/git/OHI&#45;Science/ohibc/prep/lsp/vHS/spatial/hs_offshore_3nm_raster_500m.tif</title>
<path fill="#ffe4b5" stroke="black" d="M1648.11,-168C1648.11,-168 1164.47,-168 1164.47,-168 1158.47,-168 1152.47,-162 1152.47,-156 1152.47,-156 1152.47,-144 1152.47,-144 1152.47,-138 1158.47,-132 1164.47,-132 1164.47,-132 1648.11,-132 1648.11,-132 1654.11,-132 1660.11,-138 1660.11,-144 1660.11,-144 1660.11,-156 1660.11,-156 1660.11,-162 1654.11,-168 1648.11,-168"/>
<text text-anchor="middle" x="1406.29" y="-147.3" font-family="Courier,monospace" font-weight="bold" font-size="9.00">/Users/slaughter/git/OHI&#45;Science/ohibc/prep/lsp/vHS/spatial/hs_offshore_3nm_raster_500m.tif</text>
</g>
<!-- urn:uuid:3d6c8ed0&#45;83c0&#45;4b12&#45;9154&#45;2804f4317598&#45;&gt;/Users/slaughter/git/OHI&#45;Science/ohibc/prep/lsp/vHS/spatial/hs_offshore_3nm_raster_500m.tif -->
<g id="edge21" class="edge"><title>urn:uuid:3d6c8ed0&#45;83c0&#45;4b12&#45;9154&#45;2804f4317598&#45;&gt;/Users/slaughter/git/OHI&#45;Science/ohibc/prep/lsp/vHS/spatial/hs_offshore_3nm_raster_500m.tif</title>
<path fill="none" stroke="black" d="M1095.96,-139.888C1111.35,-140.391 1126.81,-140.897 1142.17,-141.399"/>
<polygon fill="black" stroke="black" points="1142.14,-144.899 1152.24,-141.728 1142.36,-137.903 1142.14,-144.899"/>
</g>
<!-- urn:uuid:98b5270a&#45;1577&#45;4865&#45;970f&#45;17c6b0065374 -->
<g id="node6" class="node"><title>urn:uuid:98b5270a&#45;1577&#45;4865&#45;970f&#45;17c6b0065374</title>
<polygon fill="black" stroke="black" points="529.524,-178.8 529.524,-237.2 1116.63,-237.2 1116.63,-178.8 529.524,-178.8"/>
<text text-anchor="middle" x="823.077" y="-220.6" font-family="Courier,monospace" font-weight="bold" font-size="14.00" fill="white">ohibc run 1 </text>
<text text-anchor="middle" x="823.077" y="-203.8" font-family="Courier,monospace" font-weight="bold" font-size="14.00" fill="white"> /Users/slaughter/git/OHI&#45;Science/ohibc/rasterize_HS_WDPA_and_PEP.R </text>
<text text-anchor="middle" x="823.077" y="-187" font-family="Courier,monospace" font-weight="bold" font-size="14.00" fill="white"> urn:uuid:98b5270a&#45;1577&#45;4865&#45;970f&#45;17c6b0065374</text>
</g>
<!-- /Users/slaughter/git/OHI&#45;Science/ohibc/prep/lsp/vHS/spatial/hs_pep_rast_500m.tif -->
<g id="node15" class="node"><title>/Users/slaughter/git/OHI&#45;Science/ohibc/prep/lsp/vHS/spatial/hs_pep_rast_500m.tif</title>
<path fill="#ffe4b5" stroke="black" d="M1618.22,-222C1618.22,-222 1194.36,-222 1194.36,-222 1188.36,-222 1182.36,-216 1182.36,-210 1182.36,-210 1182.36,-198 1182.36,-198 1182.36,-192 1188.36,-186 1194.36,-186 1194.36,-186 1618.22,-186 1618.22,-186 1624.22,-186 1630.22,-192 1630.22,-198 1630.22,-198 1630.22,-210 1630.22,-210 1630.22,-216 1624.22,-222 1618.22,-222"/>
<text text-anchor="middle" x="1406.29" y="-201.3" font-family="Courier,monospace" font-weight="bold" font-size="9.00">/Users/slaughter/git/OHI&#45;Science/ohibc/prep/lsp/vHS/spatial/hs_pep_rast_500m.tif</text>
</g>
<!-- urn:uuid:98b5270a&#45;1577&#45;4865&#45;970f&#45;17c6b0065374&#45;&gt;/Users/slaughter/git/OHI&#45;Science/ohibc/prep/lsp/vHS/spatial/hs_pep_rast_500m.tif -->
<g id="edge22" class="edge"><title>urn:uuid:98b5270a&#45;1577&#45;4865&#45;970f&#45;17c6b0065374&#45;&gt;/Users/slaughter/git/OHI&#45;Science/ohibc/prep/lsp/vHS/spatial/hs_pep_rast_500m.tif</title>
<path fill="none" stroke="black" d="M1116.81,-205.985C1135.4,-205.857 1153.97,-205.73 1172.23,-205.604"/>
<polygon fill="black" stroke="black" points="1172.36,-209.103 1182.34,-205.534 1172.31,-202.103 1172.36,-209.103"/>
</g>
<!-- /Users/slaughter/git/OHI&#45;Science/ohibc/prep/lsp/vHS/spatial/hs_wdpa_rast_500m.tif -->
<g id="node21" class="node"><title>/Users/slaughter/git/OHI&#45;Science/ohibc/prep/lsp/vHS/spatial/hs_wdpa_rast_500m.tif</title>
<path fill="#ffe4b5" stroke="black" d="M1621.12,-276C1621.12,-276 1191.46,-276 1191.46,-276 1185.46,-276 1179.46,-270 1179.46,-264 1179.46,-264 1179.46,-252 1179.46,-252 1179.46,-246 1185.46,-240 1191.46,-240 1191.46,-240 1621.12,-240 1621.12,-240 1627.12,-240 1633.12,-246 1633.12,-252 1633.12,-252 1633.12,-264 1633.12,-264 1633.12,-270 1627.12,-276 1621.12,-276"/>
<text text-anchor="middle" x="1406.29" y="-255.3" font-family="Courier,monospace" font-weight="bold" font-size="9.00">/Users/slaughter/git/OHI&#45;Science/ohibc/prep/lsp/vHS/spatial/hs_wdpa_rast_500m.tif</text>
</g>
<!-- urn:uuid:98b5270a&#45;1577&#45;4865&#45;970f&#45;17c6b0065374&#45;&gt;/Users/slaughter/git/OHI&#45;Science/ohibc/prep/lsp/vHS/spatial/hs_wdpa_rast_500m.tif -->
<g id="edge28" class="edge"><title>urn:uuid:98b5270a&#45;1577&#45;4865&#45;970f&#45;17c6b0065374&#45;&gt;/Users/slaughter/git/OHI&#45;Science/ohibc/prep/lsp/vHS/spatial/hs_wdpa_rast_500m.tif</title>
<path fill="none" stroke="black" d="M1116.81,-233.183C1140.06,-235.183 1163.29,-237.181 1185.9,-239.127"/>
<polygon fill="black" stroke="black" points="1185.64,-242.617 1195.9,-239.987 1186.24,-235.643 1185.64,-242.617"/>
</g>
<!-- urn:uuid:53ada2f7&#45;5e25&#45;4845&#45;883e&#45;1049a90c321c -->
<g id="node7" class="node"><title>urn:uuid:53ada2f7&#45;5e25&#45;4845&#45;883e&#45;1049a90c321c</title>
<polygon fill="black" stroke="black" points="4894.67,-120.8 4894.67,-179.2 5548.96,-179.2 5548.96,-120.8 4894.67,-120.8"/>
<text text-anchor="middle" x="5221.81" y="-162.6" font-family="Courier,monospace" font-weight="bold" font-size="14.00" fill="white">ohibc run 1 </text>
<text text-anchor="middle" x="5221.81" y="-145.8" font-family="Courier,monospace" font-weight="bold" font-size="14.00" fill="white"> /Users/slaughter/git/OHI&#45;Science/ohibc/estimate_status_and_trend_by_year.R </text>
<text text-anchor="middle" x="5221.81" y="-129" font-family="Courier,monospace" font-weight="bold" font-size="14.00" fill="white"> urn:uuid:53ada2f7&#45;5e25&#45;4845&#45;883e&#45;1049a90c321c</text>
</g>
<!-- /Users/slaughter/git/OHI&#45;Science/ohibc/prep/lsp/vHS/output/lsp_trend.csv -->
<g id="node13" class="node"><title>/Users/slaughter/git/OHI&#45;Science/ohibc/prep/lsp/vHS/output/lsp_trend.csv</title>
<path fill="#ffe4b5" stroke="black" d="M5977.56,-168C5977.56,-168 5597.09,-168 5597.09,-168 5591.09,-168 5585.09,-162 5585.09,-156 5585.09,-156 5585.09,-144 5585.09,-144 5585.09,-138 5591.09,-132 5597.09,-132 5597.09,-132 5977.56,-132 5977.56,-132 5983.56,-132 5989.56,-138 5989.56,-144 5989.56,-144 5989.56,-156 5989.56,-156 5989.56,-162 5983.56,-168 5977.56,-168"/>
<text text-anchor="middle" x="5787.33" y="-147.3" font-family="Courier,monospace" font-weight="bold" font-size="9.00">/Users/slaughter/git/OHI&#45;Science/ohibc/prep/lsp/vHS/output/lsp_trend.csv</text>
</g>
<!-- urn:uuid:53ada2f7&#45;5e25&#45;4845&#45;883e&#45;1049a90c321c&#45;&gt;/Users/slaughter/git/OHI&#45;Science/ohibc/prep/lsp/vHS/output/lsp_trend.csv -->
<g id="edge20" class="edge"><title>urn:uuid:53ada2f7&#45;5e25&#45;4845&#45;883e&#45;1049a90c321c&#45;&gt;/Users/slaughter/git/OHI&#45;Science/ohibc/prep/lsp/vHS/output/lsp_trend.csv</title>
<path fill="none" stroke="black" d="M5548.98,-150C5557.73,-150 5566.42,-150 5575.01,-150"/>
<polygon fill="black" stroke="black" points="5575.05,-153.5 5585.05,-150 5575.05,-146.5 5575.05,-153.5"/>
</g>
<!-- /Users/slaughter/git/OHI&#45;Science/ohibc/prep/lsp/vHS/spatial/hs_inland_1km_raster_500m.tif&#45;&gt;urn:uuid:f5d6b763&#45;c953&#45;48f4&#45;9a39&#45;4a61f45bfdd3 -->
<g id="edge9" class="edge"><title>/Users/slaughter/git/OHI&#45;Science/ohibc/prep/lsp/vHS/spatial/hs_inland_1km_raster_500m.tif&#45;&gt;urn:uuid:f5d6b763&#45;c953&#45;48f4&#45;9a39&#45;4a61f45bfdd3</title>
<path fill="none" stroke="black" d="M1587.21,-114.019C1618.72,-117.174 1652.06,-120.513 1685.24,-123.835"/>
<polygon fill="black" stroke="black" points="1685.23,-127.352 1695.53,-124.866 1685.93,-120.387 1685.23,-127.352"/>
</g>
<!-- /Users/slaughter/git/OHI&#45;Science/ohibc/prep/lsp/vHS/int/zonal_stats_3nm.csv&#45;&gt;urn:uuid:53c74750&#45;d660&#45;479d&#45;8e59&#45;f54068835317 -->
<g id="edge10" class="edge"><title>/Users/slaughter/git/OHI&#45;Science/ohibc/prep/lsp/vHS/int/zonal_stats_3nm.csv&#45;&gt;urn:uuid:53c74750&#45;d660&#45;479d&#45;8e59&#45;f54068835317</title>
<path fill="none" stroke="black" d="M2620.45,-114.019C2640.39,-116.084 2661.09,-118.228 2682,-120.395"/>
<polygon fill="black" stroke="black" points="2681.65,-123.877 2691.95,-121.426 2682.37,-116.914 2681.65,-123.877"/>
</g>
<!-- /Users/slaughter/git/OHI&#45;Science/ohibc/prep/lsp/vHS/int/area_protected_ws.csv&#45;&gt;urn:uuid:4fcd5da4&#45;67af&#45;4f8d&#45;ad36&#45;c9cdf45621d4 -->
<g id="edge15" class="edge"><title>/Users/slaughter/git/OHI&#45;Science/ohibc/prep/lsp/vHS/int/area_protected_ws.csv&#45;&gt;urn:uuid:4fcd5da4&#45;67af&#45;4f8d&#45;ad36&#45;c9cdf45621d4</title>
<path fill="none" stroke="black" d="M3686.11,-114.019C3705.46,-115.903 3725.49,-117.854 3745.75,-119.827"/>
<polygon fill="black" stroke="black" points="3745.42,-123.312 3755.72,-120.798 3746.1,-116.345 3745.42,-123.312"/>
</g>
<!-- /Users/slaughter/git/OHI&#45;Science/ohibc/prep/lsp/vHS/int/area_protected_1km.csv&#45;&gt;urn:uuid:4fcd5da4&#45;67af&#45;4f8d&#45;ad36&#45;c9cdf45621d4 -->
<g id="edge14" class="edge"><title>/Users/slaughter/git/OHI&#45;Science/ohibc/prep/lsp/vHS/int/area_protected_1km.csv&#45;&gt;urn:uuid:4fcd5da4&#45;67af&#45;4f8d&#45;ad36&#45;c9cdf45621d4</title>
<path fill="none" stroke="black" d="M3718.64,-150C3727.15,-150 3735.73,-150 3744.36,-150"/>
<polygon fill="black" stroke="black" points="3744.51,-153.5 3754.51,-150 3744.51,-146.5 3744.51,-153.5"/>
</g>
<!-- /Users/slaughter/git/OHI&#45;Science/ohibc/prep/spatial/raster/ohibc_rgn_raster_500m.tif -->
<g id="node12" class="node"><title>/Users/slaughter/git/OHI&#45;Science/ohibc/prep/spatial/raster/ohibc_rgn_raster_500m.tif</title>
<path fill="#ffe4b5" stroke="black" d="M481.287,-149C481.287,-149 36.2376,-149 36.2376,-149 30.2376,-149 24.2376,-143 24.2376,-137 24.2376,-137 24.2376,-125 24.2376,-125 24.2376,-119 30.2376,-113 36.2376,-113 36.2376,-113 481.287,-113 481.287,-113 487.287,-113 493.287,-119 493.287,-125 493.287,-125 493.287,-137 493.287,-137 493.287,-143 487.287,-149 481.287,-149"/>
<text text-anchor="middle" x="258.762" y="-128.3" font-family="Courier,monospace" font-weight="bold" font-size="9.00">/Users/slaughter/git/OHI&#45;Science/ohibc/prep/spatial/raster/ohibc_rgn_raster_500m.tif</text>
</g>
<!-- /Users/slaughter/git/OHI&#45;Science/ohibc/prep/spatial/raster/ohibc_rgn_raster_500m.tif&#45;&gt;urn:uuid:167b320e&#45;9143&#45;4084&#45;882e&#45;7d19914767c0 -->
<g id="edge13" class="edge"><title>/Users/slaughter/git/OHI&#45;Science/ohibc/prep/spatial/raster/ohibc_rgn_raster_500m.tif&#45;&gt;urn:uuid:167b320e&#45;9143&#45;4084&#45;882e&#45;7d19914767c0</title>
<path fill="none" stroke="black" d="M381.913,-112.96C428.136,-106.234 481.237,-98.6262 529.524,-92 547.374,-89.5506 565.842,-87.0568 584.422,-84.5771"/>
<polygon fill="black" stroke="black" points="584.997,-88.0315 594.448,-83.2418 584.073,-81.0928 584.997,-88.0315"/>
</g>
<!-- /Users/slaughter/git/OHI&#45;Science/ohibc/prep/spatial/raster/ohibc_rgn_raster_500m.tif&#45;&gt;urn:uuid:3d6c8ed0&#45;83c0&#45;4b12&#45;9154&#45;2804f4317598 -->
<g id="edge12" class="edge"><title>/Users/slaughter/git/OHI&#45;Science/ohibc/prep/spatial/raster/ohibc_rgn_raster_500m.tif&#45;&gt;urn:uuid:3d6c8ed0&#45;83c0&#45;4b12&#45;9154&#45;2804f4317598</title>
<path fill="none" stroke="black" d="M493.349,-131C508.82,-131 524.488,-131 540.16,-131"/>
<polygon fill="black" stroke="black" points="540.456,-134.5 550.456,-131 540.456,-127.5 540.456,-134.5"/>
</g>
<!-- /Users/slaughter/git/OHI&#45;Science/ohibc/prep/spatial/raster/ohibc_rgn_raster_500m.tif&#45;&gt;urn:uuid:98b5270a&#45;1577&#45;4865&#45;970f&#45;17c6b0065374 -->
<g id="edge11" class="edge"><title>/Users/slaughter/git/OHI&#45;Science/ohibc/prep/spatial/raster/ohibc_rgn_raster_500m.tif&#45;&gt;urn:uuid:98b5270a&#45;1577&#45;4865&#45;970f&#45;17c6b0065374</title>
<path fill="none" stroke="black" d="M381.913,-149.04C428.136,-155.766 481.237,-163.374 529.524,-170 547.374,-172.449 565.842,-174.943 584.422,-177.423"/>
<polygon fill="black" stroke="black" points="584.073,-180.907 594.448,-178.758 584.997,-173.968 584.073,-180.907"/>
</g>
<!-- /Users/slaughter/git/OHI&#45;Science/ohibc/prep/lsp/vHS/spatial/hs_offshore_3nm_raster_500m.tif&#45;&gt;urn:uuid:f5d6b763&#45;c953&#45;48f4&#45;9a39&#45;4a61f45bfdd3 -->
<g id="edge2" class="edge"><title>/Users/slaughter/git/OHI&#45;Science/ohibc/prep/lsp/vHS/spatial/hs_offshore_3nm_raster_500m.tif&#45;&gt;urn:uuid:f5d6b763&#45;c953&#45;48f4&#45;9a39&#45;4a61f45bfdd3</title>
<path fill="none" stroke="black" d="M1660.32,-150C1668.68,-150 1677.07,-150 1685.45,-150"/>
<polygon fill="black" stroke="black" points="1685.65,-153.5 1695.65,-150 1685.65,-146.5 1685.65,-153.5"/>
</g>
<!-- /Users/slaughter/git/OHI&#45;Science/ohibc/prep/lsp/vHS/spatial/hs_pep_rast_500m.tif&#45;&gt;urn:uuid:f5d6b763&#45;c953&#45;48f4&#45;9a39&#45;4a61f45bfdd3 -->
<g id="edge1" class="edge"><title>/Users/slaughter/git/OHI&#45;Science/ohibc/prep/lsp/vHS/spatial/hs_pep_rast_500m.tif&#45;&gt;urn:uuid:f5d6b763&#45;c953&#45;48f4&#45;9a39&#45;4a61f45bfdd3</title>
<path fill="none" stroke="black" d="M1587.21,-185.981C1618.72,-182.826 1652.06,-179.487 1685.24,-176.165"/>
<polygon fill="black" stroke="black" points="1685.93,-179.613 1695.53,-175.134 1685.23,-172.648 1685.93,-179.613"/>
</g>
<!-- /Users/slaughter/git/OHI&#45;Science/ohibc/prep/lsp/vHS/int/area_protected_3nm.csv&#45;&gt;urn:uuid:4fcd5da4&#45;67af&#45;4f8d&#45;ad36&#45;c9cdf45621d4 -->
<g id="edge3" class="edge"><title>/Users/slaughter/git/OHI&#45;Science/ohibc/prep/lsp/vHS/int/area_protected_3nm.csv&#45;&gt;urn:uuid:4fcd5da4&#45;67af&#45;4f8d&#45;ad36&#45;c9cdf45621d4</title>
<path fill="none" stroke="black" d="M3686.11,-185.981C3705.46,-184.097 3725.49,-182.146 3745.75,-180.173"/>
<polygon fill="black" stroke="black" points="3746.1,-183.655 3755.72,-179.202 3745.42,-176.688 3746.1,-183.655"/>
</g>
<!-- /Users/slaughter/git/OHI&#45;Science/ohibc/prep/lsp/vHS/int/zonal_stats_1km.csv&#45;&gt;urn:uuid:53c74750&#45;d660&#45;479d&#45;8e59&#45;f54068835317 -->
<g id="edge5" class="edge"><title>/Users/slaughter/git/OHI&#45;Science/ohibc/prep/lsp/vHS/int/zonal_stats_1km.csv&#45;&gt;urn:uuid:53c74750&#45;d660&#45;479d&#45;8e59&#45;f54068835317</title>
<path fill="none" stroke="black" d="M2656.28,-150C2664.72,-150 2673.23,-150 2681.78,-150"/>
<polygon fill="black" stroke="black" points="2681.83,-153.5 2691.83,-150 2681.83,-146.5 2681.83,-153.5"/>
</g>
<!-- /Users/slaughter/git/OHI&#45;Science/ohibc/prep/lsp/vHS/spatial/howe_sound_watershed_500m.tif&#45;&gt;urn:uuid:f5d6b763&#45;c953&#45;48f4&#45;9a39&#45;4a61f45bfdd3 -->
<g id="edge4" class="edge"><title>/Users/slaughter/git/OHI&#45;Science/ohibc/prep/lsp/vHS/spatial/howe_sound_watershed_500m.tif&#45;&gt;urn:uuid:f5d6b763&#45;c953&#45;48f4&#45;9a39&#45;4a61f45bfdd3</title>
<path fill="none" stroke="black" d="M1606.03,-60.0262C1624.32,-62.6518 1642.51,-65.6297 1659.95,-69 1723.39,-81.2658 1793.2,-100.864 1848.03,-117.71"/>
<polygon fill="black" stroke="black" points="1847.15,-121.102 1857.74,-120.713 1849.22,-114.415 1847.15,-121.102"/>
</g>
<!-- /Users/slaughter/git/OHI&#45;Science/ohibc/prep/lsp/vHS/int/zonal_stats_ws.csv&#45;&gt;urn:uuid:53c74750&#45;d660&#45;479d&#45;8e59&#45;f54068835317 -->
<g id="edge6" class="edge"><title>/Users/slaughter/git/OHI&#45;Science/ohibc/prep/lsp/vHS/int/zonal_stats_ws.csv&#45;&gt;urn:uuid:53c74750&#45;d660&#45;479d&#45;8e59&#45;f54068835317</title>
<path fill="none" stroke="black" d="M2620.45,-185.981C2640.39,-183.916 2661.09,-181.772 2682,-179.605"/>
<polygon fill="black" stroke="black" points="2682.37,-183.086 2691.95,-178.574 2681.65,-176.123 2682.37,-183.086"/>
</g>
<!-- /Users/slaughter/git/OHI&#45;Science/ohibc/prep/lsp/vHS/output/area_protected_total.csv&#45;&gt;urn:uuid:53ada2f7&#45;5e25&#45;4845&#45;883e&#45;1049a90c321c -->
<g id="edge7" class="edge"><title>/Users/slaughter/git/OHI&#45;Science/ohibc/prep/lsp/vHS/output/area_protected_total.csv&#45;&gt;urn:uuid:53ada2f7&#45;5e25&#45;4845&#45;883e&#45;1049a90c321c</title>
<path fill="none" stroke="black" d="M4859.08,-150C4867.49,-150 4875.98,-150 4884.51,-150"/>
<polygon fill="black" stroke="black" points="4884.54,-153.5 4894.54,-150 4884.54,-146.5 4884.54,-153.5"/>
</g>
<!-- /Users/slaughter/git/OHI&#45;Science/ohibc/prep/lsp/vHS/spatial/hs_wdpa_rast_500m.tif&#45;&gt;urn:uuid:f5d6b763&#45;c953&#45;48f4&#45;9a39&#45;4a61f45bfdd3 -->
<g id="edge8" class="edge"><title>/Users/slaughter/git/OHI&#45;Science/ohibc/prep/lsp/vHS/spatial/hs_wdpa_rast_500m.tif&#45;&gt;urn:uuid:f5d6b763&#45;c953&#45;48f4&#45;9a39&#45;4a61f45bfdd3</title>
<path fill="none" stroke="black" d="M1606.03,-239.974C1624.32,-237.348 1642.51,-234.37 1659.95,-231 1723.39,-218.734 1793.2,-199.136 1848.03,-182.29"/>
<polygon fill="black" stroke="black" points="1849.22,-185.585 1857.74,-179.287 1847.15,-178.898 1849.22,-185.585"/>
</g>
</g>
</svg>
