<?xml version="1.0" encoding="UTF-8" standalone="no"?>
<!DOCTYPE svg PUBLIC "-//W3C//DTD SVG 1.1//EN"
 "http://www.w3.org/Graphics/SVG/1.1/DTD/svg11.dtd">
<!-- Generated by graphviz version 2.38.0 (20140413.2041)
 -->
<!-- Title: Workflow Pages: 1 -->
<svg width="1046pt" height="635pt"
 viewBox="0.00 0.00 1046.00 634.80" xmlns="http://www.w3.org/2000/svg" xmlns:xlink="http://www.w3.org/1999/xlink">
<g id="graph0" class="graph" transform="scale(1 1) rotate(0) translate(4 630.8)">
<title>Workflow</title>
<polygon fill="white" stroke="none" points="-4,4 -4,-630.8 1042,-630.8 1042,4 -4,4"/>
<text text-anchor="middle" x="519" y="-606.6" font-family="Helvetica,sans-Serif" font-size="18.00">combine_scores_for_inland_&amp;_offshore_&amp;_outputs</text>
<g id="clust1" class="cluster"><title>cluster_workflow_box_outer</title>
<polygon fill="none" stroke="black" stroke-width="2" points="22,-34 22,-563.2 984,-563.2 984,-34 22,-34"/>
</g>
<g id="clust2" class="cluster"><title>cluster_workflow_box_inner</title>
<polygon fill="none" stroke="black" stroke-width="0" points="30,-42 30,-555.2 976,-555.2 976,-42 30,-42"/>
</g>
<!-- set_up_configuration_and_start_provenance_tracking -->
<g id="node1" class="node"><title>set_up_configuration_and_start_provenance_tracking</title>
<polygon fill="#ccffcc" stroke="black" points="537.784,-475.2 188.216,-475.2 188.216,-439.2 537.784,-439.2 537.784,-475.2"/>
<text text-anchor="middle" x="363" y="-453" font-family="Helvetica,sans-Serif" font-size="14.00">set_up_configuration_and_start_provenance_tracking</text>
</g>
<!-- dir_goal -->
<g id="node12" class="node"><title>dir_goal</title>
<path fill="#fcfcfc" stroke="black" d="M383.787,-395.9C383.787,-395.9 342.213,-395.9 342.213,-395.9 336.213,-395.9 330.213,-389.9 330.213,-383.9 330.213,-383.9 330.213,-371.9 330.213,-371.9 330.213,-365.9 336.213,-359.9 342.213,-359.9 342.213,-359.9 383.787,-359.9 383.787,-359.9 389.787,-359.9 395.787,-365.9 395.787,-371.9 395.787,-371.9 395.787,-383.9 395.787,-383.9 395.787,-389.9 389.787,-395.9 383.787,-395.9"/>
<text text-anchor="middle" x="363" y="-373.7" font-family="Helvetica,sans-Serif" font-size="14.00">dir_goal</text>
</g>
<!-- set_up_configuration_and_start_provenance_tracking&#45;&gt;dir_goal -->
<g id="edge1" class="edge"><title>set_up_configuration_and_start_provenance_tracking&#45;&gt;dir_goal</title>
<path fill="none" stroke="black" d="M363,-439.045C363,-429.437 363,-417.232 363,-406.33"/>
<polygon fill="black" stroke="black" points="366.5,-406.007 363,-396.007 359.5,-406.007 366.5,-406.007"/>
</g>
<!-- read_in_protected_area_&amp;_total_area_by_region -->
<g id="node2" class="node"><title>read_in_protected_area_&amp;_total_area_by_region</title>
<polygon fill="#ccffcc" stroke="black" points="616.5,-316.6 295.5,-316.6 295.5,-280.6 616.5,-280.6 616.5,-316.6"/>
<text text-anchor="middle" x="456" y="-294.4" font-family="Helvetica,sans-Serif" font-size="14.00">read_in_protected_area_&amp;_total_area_by_region</text>
</g>
<!-- prot_1km -->
<g id="node9" class="node"><title>prot_1km</title>
<path fill="#ffffcc" stroke="black" d="M388.343,-244.6C388.343,-244.6 337.657,-244.6 337.657,-244.6 331.657,-244.6 325.657,-238.6 325.657,-232.6 325.657,-232.6 325.657,-220.6 325.657,-220.6 325.657,-214.6 331.657,-208.6 337.657,-208.6 337.657,-208.6 388.343,-208.6 388.343,-208.6 394.343,-208.6 400.343,-214.6 400.343,-220.6 400.343,-220.6 400.343,-232.6 400.343,-232.6 400.343,-238.6 394.343,-244.6 388.343,-244.6"/>
<text text-anchor="middle" x="363" y="-222.4" font-family="Helvetica,sans-Serif" font-size="14.00">prot_1km</text>
</g>
<!-- read_in_protected_area_&amp;_total_area_by_region&#45;&gt;prot_1km -->
<g id="edge4" class="edge"><title>read_in_protected_area_&amp;_total_area_by_region&#45;&gt;prot_1km</title>
<path fill="none" stroke="black" d="M433.011,-280.297C421.186,-271.396 406.608,-260.423 393.821,-250.799"/>
<polygon fill="black" stroke="black" points="395.819,-247.922 385.724,-244.704 391.609,-253.515 395.819,-247.922"/>
</g>
<!-- prot_3nm -->
<g id="node10" class="node"><title>prot_3nm</title>
<path fill="#ffffcc" stroke="black" d="M481.625,-244.6C481.625,-244.6 430.375,-244.6 430.375,-244.6 424.375,-244.6 418.375,-238.6 418.375,-232.6 418.375,-232.6 418.375,-220.6 418.375,-220.6 418.375,-214.6 424.375,-208.6 430.375,-208.6 430.375,-208.6 481.625,-208.6 481.625,-208.6 487.625,-208.6 493.625,-214.6 493.625,-220.6 493.625,-220.6 493.625,-232.6 493.625,-232.6 493.625,-238.6 487.625,-244.6 481.625,-244.6"/>
<text text-anchor="middle" x="456" y="-222.4" font-family="Helvetica,sans-Serif" font-size="14.00">prot_3nm</text>
</g>
<!-- read_in_protected_area_&amp;_total_area_by_region&#45;&gt;prot_3nm -->
<g id="edge3" class="edge"><title>read_in_protected_area_&amp;_total_area_by_region&#45;&gt;prot_3nm</title>
<path fill="none" stroke="black" d="M456,-280.297C456,-272.583 456,-263.312 456,-254.712"/>
<polygon fill="black" stroke="black" points="459.5,-254.704 456,-244.704 452.5,-254.704 459.5,-254.704"/>
</g>
<!-- prot_ws -->
<g id="node11" class="node"><title>prot_ws</title>
<path fill="#ffffcc" stroke="black" d="M564.506,-244.6C564.506,-244.6 523.494,-244.6 523.494,-244.6 517.494,-244.6 511.494,-238.6 511.494,-232.6 511.494,-232.6 511.494,-220.6 511.494,-220.6 511.494,-214.6 517.494,-208.6 523.494,-208.6 523.494,-208.6 564.506,-208.6 564.506,-208.6 570.506,-208.6 576.506,-214.6 576.506,-220.6 576.506,-220.6 576.506,-232.6 576.506,-232.6 576.506,-238.6 570.506,-244.6 564.506,-244.6"/>
<text text-anchor="middle" x="544" y="-222.4" font-family="Helvetica,sans-Serif" font-size="14.00">prot_ws</text>
</g>
<!-- read_in_protected_area_&amp;_total_area_by_region&#45;&gt;prot_ws -->
<g id="edge5" class="edge"><title>read_in_protected_area_&amp;_total_area_by_region&#45;&gt;prot_ws</title>
<path fill="none" stroke="black" d="M477.753,-280.297C488.836,-271.481 502.474,-260.632 514.49,-251.074"/>
<polygon fill="black" stroke="black" points="516.85,-253.669 522.497,-244.704 512.493,-248.19 516.85,-253.669"/>
</g>
<!-- combine_scores_for_inland_&amp;_offshore_&amp;_write_output_layers -->
<g id="node3" class="node"><title>combine_scores_for_inland_&amp;_offshore_&amp;_write_output_layers</title>
<polygon fill="#ccffcc" stroke="black" points="660.381,-172.6 251.619,-172.6 251.619,-136.6 660.381,-136.6 660.381,-172.6"/>
<text text-anchor="middle" x="456" y="-150.4" font-family="Helvetica,sans-Serif" font-size="14.00">combine_scores_for_inland_&amp;_offshore_&amp;_write_output_layers</text>
</g>
<!-- area_protected_total_file -->
<g id="node4" class="node"><title>area_protected_total_file</title>
<path fill="#ffffcc" stroke="black" d="M319.561,-50.5C319.561,-50.5 592.439,-50.5 592.439,-50.5 598.439,-50.5 604.439,-56.5 604.439,-62.5 604.439,-62.5 604.439,-88.1 604.439,-88.1 604.439,-94.1 598.439,-100.1 592.439,-100.1 592.439,-100.1 319.561,-100.1 319.561,-100.1 313.561,-100.1 307.561,-94.1 307.561,-88.1 307.561,-88.1 307.561,-62.5 307.561,-62.5 307.561,-56.5 313.561,-50.5 319.561,-50.5"/>
<text text-anchor="middle" x="456" y="-83.5" font-family="Helvetica,sans-Serif" font-size="14.00">area_protected_total_file</text>
<polyline fill="none" stroke="black" points="307.561,-75.3 604.439,-75.3 "/>
<text text-anchor="middle" x="456" y="-58.7" font-family="Helvetica,sans-Serif" font-size="14.00">file:{dir_goal}/output/area_protected_total.csv</text>
</g>
<!-- combine_scores_for_inland_&amp;_offshore_&amp;_write_output_layers&#45;&gt;area_protected_total_file -->
<g id="edge10" class="edge"><title>combine_scores_for_inland_&amp;_offshore_&amp;_write_output_layers&#45;&gt;area_protected_total_file</title>
<path fill="none" stroke="black" d="M456,-136.445C456,-128.689 456,-119.239 456,-110.15"/>
<polygon fill="black" stroke="black" points="459.5,-110.15 456,-100.15 452.5,-110.15 459.5,-110.15"/>
</g>
<!-- area_protected_total_file_output_port -->
<g id="node17" class="node"><title>area_protected_total_file_output_port</title>
<ellipse fill="#ffffff" stroke="black" cx="456" cy="-7" rx="7" ry="7"/>
</g>
<!-- area_protected_total_file&#45;&gt;area_protected_total_file_output_port -->
<g id="edge18" class="edge"><title>area_protected_total_file&#45;&gt;area_protected_total_file_output_port</title>
<path fill="none" stroke="black" d="M456,-50.3642C456,-41.694 456,-32.1105 456,-24.2546"/>
<polygon fill="black" stroke="black" points="459.5,-24.0006 456,-14.0006 452.5,-24.0007 459.5,-24.0006"/>
</g>
<!-- setup.R -->
<g id="node5" class="node"><title>setup.R</title>
<path fill="#ffffcc" stroke="black" d="M383.236,-547.2C383.236,-547.2 342.764,-547.2 342.764,-547.2 336.764,-547.2 330.764,-541.2 330.764,-535.2 330.764,-535.2 330.764,-523.2 330.764,-523.2 330.764,-517.2 336.764,-511.2 342.764,-511.2 342.764,-511.2 383.236,-511.2 383.236,-511.2 389.236,-511.2 395.236,-517.2 395.236,-523.2 395.236,-523.2 395.236,-535.2 395.236,-535.2 395.236,-541.2 389.236,-547.2 383.236,-547.2"/>
<text text-anchor="middle" x="363" y="-525" font-family="Helvetica,sans-Serif" font-size="14.00">setup.R</text>
</g>
<!-- setup.R&#45;&gt;set_up_configuration_and_start_provenance_tracking -->
<g id="edge2" class="edge"><title>setup.R&#45;&gt;set_up_configuration_and_start_provenance_tracking</title>
<path fill="none" stroke="black" d="M363,-510.897C363,-503.183 363,-493.912 363,-485.312"/>
<polygon fill="black" stroke="black" points="366.5,-485.304 363,-475.304 359.5,-485.304 366.5,-485.304"/>
</g>
<!-- prot_3nm_stats_file -->
<g id="node6" class="node"><title>prot_3nm_stats_file</title>
<path fill="#ffffcc" stroke="black" d="M50.2406,-353.1C50.2406,-353.1 299.759,-353.1 299.759,-353.1 305.759,-353.1 311.759,-359.1 311.759,-365.1 311.759,-365.1 311.759,-390.7 311.759,-390.7 311.759,-396.7 305.759,-402.7 299.759,-402.7 299.759,-402.7 50.2406,-402.7 50.2406,-402.7 44.2406,-402.7 38.2406,-396.7 38.2406,-390.7 38.2406,-390.7 38.2406,-365.1 38.2406,-365.1 38.2406,-359.1 44.2406,-353.1 50.2406,-353.1"/>
<text text-anchor="middle" x="175" y="-386.1" font-family="Helvetica,sans-Serif" font-size="14.00">prot_3nm_stats_file</text>
<polyline fill="none" stroke="black" points="38.2406,-377.9 311.759,-377.9 "/>
<text text-anchor="middle" x="175" y="-361.3" font-family="Helvetica,sans-Serif" font-size="14.00">file:{dir_goal}/int/area_protected_3nm.csv</text>
</g>
<!-- prot_3nm_stats_file&#45;&gt;read_in_protected_area_&amp;_total_area_by_region -->
<g id="edge7" class="edge"><title>prot_3nm_stats_file&#45;&gt;read_in_protected_area_&amp;_total_area_by_region</title>
<path fill="none" stroke="black" d="M261.602,-353.077C300.978,-342.245 347.011,-329.582 384.396,-319.297"/>
<polygon fill="black" stroke="black" points="385.487,-322.628 394.2,-316.6 383.63,-315.878 385.487,-322.628"/>
</g>
<!-- prot_1km_stats_file -->
<g id="node7" class="node"><title>prot_1km_stats_file</title>
<path fill="#ffffcc" stroke="black" d="M425.632,-353.1C425.632,-353.1 674.368,-353.1 674.368,-353.1 680.368,-353.1 686.368,-359.1 686.368,-365.1 686.368,-365.1 686.368,-390.7 686.368,-390.7 686.368,-396.7 680.368,-402.7 674.368,-402.7 674.368,-402.7 425.632,-402.7 425.632,-402.7 419.632,-402.7 413.632,-396.7 413.632,-390.7 413.632,-390.7 413.632,-365.1 413.632,-365.1 413.632,-359.1 419.632,-353.1 425.632,-353.1"/>
<text text-anchor="middle" x="550" y="-386.1" font-family="Helvetica,sans-Serif" font-size="14.00">prot_1km_stats_file</text>
<polyline fill="none" stroke="black" points="413.632,-377.9 686.368,-377.9 "/>
<text text-anchor="middle" x="550" y="-361.3" font-family="Helvetica,sans-Serif" font-size="14.00">file:{dir_goal}/int/area_protected_1km.csv</text>
</g>
<!-- prot_1km_stats_file&#45;&gt;read_in_protected_area_&amp;_total_area_by_region -->
<g id="edge8" class="edge"><title>prot_1km_stats_file&#45;&gt;read_in_protected_area_&amp;_total_area_by_region</title>
<path fill="none" stroke="black" d="M521.03,-353.077C509.483,-343.581 496.225,-332.679 484.705,-323.206"/>
<polygon fill="black" stroke="black" points="486.62,-320.249 476.673,-316.6 482.174,-325.655 486.62,-320.249"/>
</g>
<!-- prot_ws_stats_file -->
<g id="node8" class="node"><title>prot_ws_stats_file</title>
<path fill="#ffffcc" stroke="black" d="M716.3,-353.1C716.3,-353.1 955.7,-353.1 955.7,-353.1 961.7,-353.1 967.7,-359.1 967.7,-365.1 967.7,-365.1 967.7,-390.7 967.7,-390.7 967.7,-396.7 961.7,-402.7 955.7,-402.7 955.7,-402.7 716.3,-402.7 716.3,-402.7 710.3,-402.7 704.3,-396.7 704.3,-390.7 704.3,-390.7 704.3,-365.1 704.3,-365.1 704.3,-359.1 710.3,-353.1 716.3,-353.1"/>
<text text-anchor="middle" x="836" y="-386.1" font-family="Helvetica,sans-Serif" font-size="14.00">prot_ws_stats_file</text>
<polyline fill="none" stroke="black" points="704.3,-377.9 967.7,-377.9 "/>
<text text-anchor="middle" x="836" y="-361.3" font-family="Helvetica,sans-Serif" font-size="14.00">file:{dir_goal}/int/area_protected_ws.csv</text>
</g>
<!-- prot_ws_stats_file&#45;&gt;read_in_protected_area_&amp;_total_area_by_region -->
<g id="edge9" class="edge"><title>prot_ws_stats_file&#45;&gt;read_in_protected_area_&amp;_total_area_by_region</title>
<path fill="none" stroke="black" d="M718.887,-353.077C664.505,-342.014 600.734,-329.042 549.62,-318.644"/>
<polygon fill="black" stroke="black" points="550.07,-315.164 539.573,-316.6 548.674,-322.024 550.07,-315.164"/>
</g>
<!-- prot_1km&#45;&gt;combine_scores_for_inland_&amp;_offshore_&amp;_write_output_layers -->
<g id="edge11" class="edge"><title>prot_1km&#45;&gt;combine_scores_for_inland_&amp;_offshore_&amp;_write_output_layers</title>
<path fill="none" stroke="black" d="M385.989,-208.297C397.814,-199.396 412.392,-188.423 425.179,-178.799"/>
<polygon fill="black" stroke="black" points="427.391,-181.515 433.276,-172.704 423.181,-175.922 427.391,-181.515"/>
</g>
<!-- prot_3nm&#45;&gt;combine_scores_for_inland_&amp;_offshore_&amp;_write_output_layers -->
<g id="edge12" class="edge"><title>prot_3nm&#45;&gt;combine_scores_for_inland_&amp;_offshore_&amp;_write_output_layers</title>
<path fill="none" stroke="black" d="M456,-208.297C456,-200.583 456,-191.312 456,-182.712"/>
<polygon fill="black" stroke="black" points="459.5,-182.704 456,-172.704 452.5,-182.704 459.5,-182.704"/>
</g>
<!-- prot_ws&#45;&gt;combine_scores_for_inland_&amp;_offshore_&amp;_write_output_layers -->
<g id="edge13" class="edge"><title>prot_ws&#45;&gt;combine_scores_for_inland_&amp;_offshore_&amp;_write_output_layers</title>
<path fill="none" stroke="black" d="M522.247,-208.297C511.164,-199.481 497.526,-188.632 485.51,-179.074"/>
<polygon fill="black" stroke="black" points="487.507,-176.19 477.503,-172.704 483.15,-181.669 487.507,-176.19"/>
</g>
<!-- dir_goal&#45;&gt;read_in_protected_area_&amp;_total_area_by_region -->
<g id="edge6" class="edge"><title>dir_goal&#45;&gt;read_in_protected_area_&amp;_total_area_by_region</title>
<path fill="none" stroke="black" d="M383.64,-359.745C396.523,-349.036 413.289,-335.1 427.439,-323.34"/>
<polygon fill="black" stroke="black" points="429.965,-325.791 435.418,-316.707 425.49,-320.408 429.965,-325.791"/>
</g>
<!-- setup.R_input_port -->
<g id="node13" class="node"><title>setup.R_input_port</title>
<ellipse fill="#ffffff" stroke="black" cx="363" cy="-590.2" rx="7" ry="7"/>
</g>
<!-- setup.R_input_port&#45;&gt;setup.R -->
<g id="edge14" class="edge"><title>setup.R_input_port&#45;&gt;setup.R</title>
<path fill="none" stroke="black" d="M363,-582.886C363,-576.686 363,-566.795 363,-557.248"/>
<polygon fill="black" stroke="black" points="366.5,-557.216 363,-547.216 359.5,-557.216 366.5,-557.216"/>
</g>
<!-- prot_3nm_stats_file_input_port -->
<g id="node14" class="node"><title>prot_3nm_stats_file_input_port</title>
<ellipse fill="#ffffff" stroke="black" cx="7" cy="-457.2" rx="7" ry="7"/>
</g>
<!-- prot_3nm_stats_file_input_port&#45;&gt;prot_3nm_stats_file -->
<g id="edge15" class="edge"><title>prot_3nm_stats_file_input_port&#45;&gt;prot_3nm_stats_file</title>
<path fill="none" stroke="black" d="M11.323,-451.526C14.9585,-447.805 20.4401,-442.664 26,-439.2 46.4132,-426.481 69.97,-415.491 92.24,-406.508"/>
<polygon fill="black" stroke="black" points="93.6729,-409.705 101.693,-402.782 91.1057,-403.193 93.6729,-409.705"/>
</g>
<!-- prot_1km_stats_file_input_port -->
<g id="node15" class="node"><title>prot_1km_stats_file_input_port</title>
<ellipse fill="#ffffff" stroke="black" cx="999" cy="-457.2" rx="7" ry="7"/>
</g>
<!-- prot_1km_stats_file_input_port&#45;&gt;prot_1km_stats_file -->
<g id="edge16" class="edge"><title>prot_1km_stats_file_input_port&#45;&gt;prot_1km_stats_file</title>
<path fill="none" stroke="black" d="M994.891,-451.127C991.38,-447.175 985.961,-441.918 980,-439.2 866.781,-387.58 823.524,-420.008 696.674,-403.352"/>
<polygon fill="black" stroke="black" points="696.974,-399.86 686.587,-401.948 696.009,-406.793 696.974,-399.86"/>
</g>
<!-- prot_ws_stats_file_input_port -->
<g id="node16" class="node"><title>prot_ws_stats_file_input_port</title>
<ellipse fill="#ffffff" stroke="black" cx="1031" cy="-457.2" rx="7" ry="7"/>
</g>
<!-- prot_ws_stats_file_input_port&#45;&gt;prot_ws_stats_file -->
<g id="edge17" class="edge"><title>prot_ws_stats_file_input_port&#45;&gt;prot_ws_stats_file</title>
<path fill="none" stroke="black" d="M1027.31,-451.095C1024.36,-447.336 1019.91,-442.351 1015,-439.2 993.678,-425.524 968.926,-414.611 944.755,-406.039"/>
<polygon fill="black" stroke="black" points="945.764,-402.685 935.17,-402.748 943.491,-409.306 945.764,-402.685"/>
</g>
</g>
</svg>
