<?xml version="1.0" encoding="UTF-8" standalone="no"?>
<!DOCTYPE svg PUBLIC "-//W3C//DTD SVG 1.1//EN"
 "http://www.w3.org/Graphics/SVG/1.1/DTD/svg11.dtd">
<!-- Generated by graphviz version 2.38.0 (20140413.2041)
 -->
<!-- Title: Workflow Pages: 1 -->
<svg width="840pt" height="793pt"
 viewBox="0.00 0.00 840.00 793.40" xmlns="http://www.w3.org/2000/svg" xmlns:xlink="http://www.w3.org/1999/xlink">
<g id="graph0" class="graph" transform="scale(1 1) rotate(0) translate(4 789.4)">
<title>Workflow</title>
<polygon fill="white" stroke="none" points="-4,4 -4,-789.4 836,-789.4 836,4 -4,4"/>
<text text-anchor="middle" x="416" y="-765.2" font-family="Helvetica,sans-Serif" font-size="18.00">Write_year_by_year_status_&amp;_trend_estimates</text>
<g id="clust1" class="cluster"><title>cluster_workflow_box_outer</title>
<polygon fill="none" stroke="black" stroke-width="2" points="22,-34 22,-721.8 778,-721.8 778,-34 22,-34"/>
</g>
<g id="clust2" class="cluster"><title>cluster_workflow_box_inner</title>
<polygon fill="none" stroke="black" stroke-width="0" points="30,-42 30,-713.8 770,-713.8 770,-42 30,-42"/>
</g>
<!-- set_up_configuration_and_start_provenance_tracking -->
<g id="node1" class="node"><title>set_up_configuration_and_start_provenance_tracking</title>
<polygon fill="#ccffcc" stroke="black" points="761.784,-633.8 412.216,-633.8 412.216,-597.8 761.784,-597.8 761.784,-633.8"/>
<text text-anchor="middle" x="587" y="-611.6" font-family="Helvetica,sans-Serif" font-size="14.00">set_up_configuration_and_start_provenance_tracking</text>
</g>
<!-- dir_goal -->
<g id="node16" class="node"><title>dir_goal</title>
<path fill="#fcfcfc" stroke="black" d="M616.787,-561.8C616.787,-561.8 575.213,-561.8 575.213,-561.8 569.213,-561.8 563.213,-555.8 563.213,-549.8 563.213,-549.8 563.213,-537.8 563.213,-537.8 563.213,-531.8 569.213,-525.8 575.213,-525.8 575.213,-525.8 616.787,-525.8 616.787,-525.8 622.787,-525.8 628.787,-531.8 628.787,-537.8 628.787,-537.8 628.787,-549.8 628.787,-549.8 628.787,-555.8 622.787,-561.8 616.787,-561.8"/>
<text text-anchor="middle" x="596" y="-539.6" font-family="Helvetica,sans-Serif" font-size="14.00">dir_goal</text>
</g>
<!-- set_up_configuration_and_start_provenance_tracking&#45;&gt;dir_goal -->
<g id="edge1" class="edge"><title>set_up_configuration_and_start_provenance_tracking&#45;&gt;dir_goal</title>
<path fill="none" stroke="black" d="M589.225,-597.497C590.217,-589.783 591.408,-580.512 592.514,-571.912"/>
<polygon fill="black" stroke="black" points="595.997,-572.269 593.801,-561.904 589.054,-571.376 595.997,-572.269"/>
</g>
<!-- create_new_stats_&amp;_trend_file -->
<g id="node2" class="node"><title>create_new_stats_&amp;_trend_file</title>
<polygon fill="#ccffcc" stroke="black" points="717.17,-489.8 508.83,-489.8 508.83,-453.8 717.17,-453.8 717.17,-489.8"/>
<text text-anchor="middle" x="613" y="-467.6" font-family="Helvetica,sans-Serif" font-size="14.00">create_new_stats_&amp;_trend_file</text>
</g>
<!-- status_file_handle -->
<g id="node12" class="node"><title>status_file_handle</title>
<path fill="#ffffcc" stroke="black" d="M588.318,-410.5C588.318,-410.5 483.682,-410.5 483.682,-410.5 477.682,-410.5 471.682,-404.5 471.682,-398.5 471.682,-398.5 471.682,-386.5 471.682,-386.5 471.682,-380.5 477.682,-374.5 483.682,-374.5 483.682,-374.5 588.318,-374.5 588.318,-374.5 594.318,-374.5 600.318,-380.5 600.318,-386.5 600.318,-386.5 600.318,-398.5 600.318,-398.5 600.318,-404.5 594.318,-410.5 588.318,-410.5"/>
<text text-anchor="middle" x="536" y="-388.3" font-family="Helvetica,sans-Serif" font-size="14.00">status_file_handle</text>
</g>
<!-- create_new_stats_&amp;_trend_file&#45;&gt;status_file_handle -->
<g id="edge3" class="edge"><title>create_new_stats_&amp;_trend_file&#45;&gt;status_file_handle</title>
<path fill="none" stroke="black" d="M595.911,-453.645C585.444,-443.136 571.88,-429.52 560.307,-417.901"/>
<polygon fill="black" stroke="black" points="562.578,-415.222 553.041,-410.607 557.619,-420.162 562.578,-415.222"/>
</g>
<!-- trend_file_handle -->
<g id="node13" class="node"><title>trend_file_handle</title>
<path fill="#ffffcc" stroke="black" d="M729.871,-410.5C729.871,-410.5 630.129,-410.5 630.129,-410.5 624.129,-410.5 618.129,-404.5 618.129,-398.5 618.129,-398.5 618.129,-386.5 618.129,-386.5 618.129,-380.5 624.129,-374.5 630.129,-374.5 630.129,-374.5 729.871,-374.5 729.871,-374.5 735.871,-374.5 741.871,-380.5 741.871,-386.5 741.871,-386.5 741.871,-398.5 741.871,-398.5 741.871,-404.5 735.871,-410.5 729.871,-410.5"/>
<text text-anchor="middle" x="680" y="-388.3" font-family="Helvetica,sans-Serif" font-size="14.00">trend_file_handle</text>
</g>
<!-- create_new_stats_&amp;_trend_file&#45;&gt;trend_file_handle -->
<g id="edge4" class="edge"><title>create_new_stats_&amp;_trend_file&#45;&gt;trend_file_handle</title>
<path fill="none" stroke="black" d="M627.869,-453.645C636.891,-443.237 648.555,-429.779 658.562,-418.234"/>
<polygon fill="black" stroke="black" points="661.267,-420.456 665.172,-410.607 655.978,-415.872 661.267,-420.456"/>
</g>
<!-- define_param_year_span -->
<g id="node3" class="node"><title>define_param_year_span</title>
<polygon fill="#ccffcc" stroke="black" points="491.218,-489.8 316.782,-489.8 316.782,-453.8 491.218,-453.8 491.218,-489.8"/>
<text text-anchor="middle" x="404" y="-467.6" font-family="Helvetica,sans-Serif" font-size="14.00">define_param_year_span</text>
</g>
<!-- year_span -->
<g id="node17" class="node"><title>year_span</title>
<path fill="#fcfcfc" stroke="black" d="M441.857,-410.5C441.857,-410.5 384.143,-410.5 384.143,-410.5 378.143,-410.5 372.143,-404.5 372.143,-398.5 372.143,-398.5 372.143,-386.5 372.143,-386.5 372.143,-380.5 378.143,-374.5 384.143,-374.5 384.143,-374.5 441.857,-374.5 441.857,-374.5 447.857,-374.5 453.857,-380.5 453.857,-386.5 453.857,-386.5 453.857,-398.5 453.857,-398.5 453.857,-404.5 447.857,-410.5 441.857,-410.5"/>
<text text-anchor="middle" x="413" y="-388.3" font-family="Helvetica,sans-Serif" font-size="14.00">year_span</text>
</g>
<!-- define_param_year_span&#45;&gt;year_span -->
<g id="edge6" class="edge"><title>define_param_year_span&#45;&gt;year_span</title>
<path fill="none" stroke="black" d="M405.997,-453.645C407.128,-443.937 408.567,-431.577 409.846,-420.59"/>
<polygon fill="black" stroke="black" points="413.328,-420.945 411.008,-410.607 406.375,-420.136 413.328,-420.945"/>
</g>
<!-- output_estimate_status_file_by_region_since_1980 -->
<g id="node4" class="node"><title>output_estimate_status_file_by_region_since_1980</title>
<polygon fill="#ccffcc" stroke="black" points="383.501,-331.2 48.4988,-331.2 48.4988,-295.2 383.501,-295.2 383.501,-331.2"/>
<text text-anchor="middle" x="216" y="-309" font-family="Helvetica,sans-Serif" font-size="14.00">output_estimate_status_file_by_region_since_1980</text>
</g>
<!-- lsp_status_file -->
<g id="node7" class="node"><title>lsp_status_file</title>
<path fill="#ffffcc" stroke="black" d="M178.243,-209.1C178.243,-209.1 385.757,-209.1 385.757,-209.1 391.757,-209.1 397.757,-215.1 397.757,-221.1 397.757,-221.1 397.757,-246.7 397.757,-246.7 397.757,-252.7 391.757,-258.7 385.757,-258.7 385.757,-258.7 178.243,-258.7 178.243,-258.7 172.243,-258.7 166.243,-252.7 166.243,-246.7 166.243,-246.7 166.243,-221.1 166.243,-221.1 166.243,-215.1 172.243,-209.1 178.243,-209.1"/>
<text text-anchor="middle" x="282" y="-242.1" font-family="Helvetica,sans-Serif" font-size="14.00">lsp_status_file</text>
<polyline fill="none" stroke="black" points="166.243,-233.9 397.757,-233.9 "/>
<text text-anchor="middle" x="282" y="-217.3" font-family="Helvetica,sans-Serif" font-size="14.00">file:{dir_goal}/output/lsp_status.csv</text>
</g>
<!-- output_estimate_status_file_by_region_since_1980&#45;&gt;lsp_status_file -->
<g id="edge7" class="edge"><title>output_estimate_status_file_by_region_since_1980&#45;&gt;lsp_status_file</title>
<path fill="none" stroke="black" d="M230.648,-295.045C237.839,-286.621 246.736,-276.201 255.093,-266.413"/>
<polygon fill="black" stroke="black" points="257.805,-268.627 261.637,-258.75 252.482,-264.082 257.805,-268.627"/>
</g>
<!-- status_df_data -->
<g id="node14" class="node"><title>status_df_data</title>
<path fill="#ffffcc" stroke="black" d="M135.823,-251.9C135.823,-251.9 52.1767,-251.9 52.1767,-251.9 46.1767,-251.9 40.1767,-245.9 40.1767,-239.9 40.1767,-239.9 40.1767,-227.9 40.1767,-227.9 40.1767,-221.9 46.1767,-215.9 52.1767,-215.9 52.1767,-215.9 135.823,-215.9 135.823,-215.9 141.823,-215.9 147.823,-221.9 147.823,-227.9 147.823,-227.9 147.823,-239.9 147.823,-239.9 147.823,-245.9 141.823,-251.9 135.823,-251.9"/>
<text text-anchor="middle" x="94" y="-229.7" font-family="Helvetica,sans-Serif" font-size="14.00">status_df_data</text>
</g>
<!-- output_estimate_status_file_by_region_since_1980&#45;&gt;status_df_data -->
<g id="edge8" class="edge"><title>output_estimate_status_file_by_region_since_1980&#45;&gt;status_df_data</title>
<path fill="none" stroke="black" d="M188.924,-295.045C171.471,-283.986 148.585,-269.485 129.657,-257.493"/>
<polygon fill="black" stroke="black" points="131.321,-254.403 121,-252.007 127.574,-260.316 131.321,-254.403"/>
</g>
<!-- output_estimate_trend_file_by_region_since_1980 -->
<g id="node5" class="node"><title>output_estimate_trend_file_by_region_since_1980</title>
<polygon fill="#ccffcc" stroke="black" points="750.554,-331.2 421.446,-331.2 421.446,-295.2 750.554,-295.2 750.554,-331.2"/>
<text text-anchor="middle" x="586" y="-309" font-family="Helvetica,sans-Serif" font-size="14.00">output_estimate_trend_file_by_region_since_1980</text>
</g>
<!-- lsp_trend_file -->
<g id="node8" class="node"><title>lsp_trend_file</title>
<path fill="#ffffcc" stroke="black" d="M547.966,-209.1C547.966,-209.1 750.034,-209.1 750.034,-209.1 756.034,-209.1 762.034,-215.1 762.034,-221.1 762.034,-221.1 762.034,-246.7 762.034,-246.7 762.034,-252.7 756.034,-258.7 750.034,-258.7 750.034,-258.7 547.966,-258.7 547.966,-258.7 541.966,-258.7 535.966,-252.7 535.966,-246.7 535.966,-246.7 535.966,-221.1 535.966,-221.1 535.966,-215.1 541.966,-209.1 547.966,-209.1"/>
<text text-anchor="middle" x="649" y="-242.1" font-family="Helvetica,sans-Serif" font-size="14.00">lsp_trend_file</text>
<polyline fill="none" stroke="black" points="535.966,-233.9 762.034,-233.9 "/>
<text text-anchor="middle" x="649" y="-217.3" font-family="Helvetica,sans-Serif" font-size="14.00">file:{dir_goal}/output/lsp_trend.csv</text>
</g>
<!-- output_estimate_trend_file_by_region_since_1980&#45;&gt;lsp_trend_file -->
<g id="edge13" class="edge"><title>output_estimate_trend_file_by_region_since_1980&#45;&gt;lsp_trend_file</title>
<path fill="none" stroke="black" d="M599.982,-295.045C606.779,-286.705 615.171,-276.407 623.079,-266.704"/>
<polygon fill="black" stroke="black" points="625.958,-268.712 629.562,-258.75 620.532,-264.29 625.958,-268.712"/>
</g>
<!-- trend_df_data -->
<g id="node15" class="node"><title>trend_df_data</title>
<path fill="#ffffcc" stroke="black" d="M506.376,-251.9C506.376,-251.9 427.624,-251.9 427.624,-251.9 421.624,-251.9 415.624,-245.9 415.624,-239.9 415.624,-239.9 415.624,-227.9 415.624,-227.9 415.624,-221.9 421.624,-215.9 427.624,-215.9 427.624,-215.9 506.376,-215.9 506.376,-215.9 512.376,-215.9 518.376,-221.9 518.376,-227.9 518.376,-227.9 518.376,-239.9 518.376,-239.9 518.376,-245.9 512.376,-251.9 506.376,-251.9"/>
<text text-anchor="middle" x="467" y="-229.7" font-family="Helvetica,sans-Serif" font-size="14.00">trend_df_data</text>
</g>
<!-- output_estimate_trend_file_by_region_since_1980&#45;&gt;trend_df_data -->
<g id="edge14" class="edge"><title>output_estimate_trend_file_by_region_since_1980&#45;&gt;trend_df_data</title>
<path fill="none" stroke="black" d="M559.59,-295.045C542.566,-283.986 520.242,-269.485 501.781,-257.493"/>
<polygon fill="black" stroke="black" points="503.629,-254.52 493.336,-252.007 499.816,-260.39 503.629,-254.52"/>
</g>
<!-- save_year_by_year_status_&amp;_trend_estimates -->
<g id="node6" class="node"><title>save_year_by_year_status_&amp;_trend_estimates</title>
<polygon fill="#ccffcc" stroke="black" points="482.756,-172.6 175.244,-172.6 175.244,-136.6 482.756,-136.6 482.756,-172.6"/>
<text text-anchor="middle" x="329" y="-150.4" font-family="Helvetica,sans-Serif" font-size="14.00">save_year_by_year_status_&amp;_trend_estimates</text>
</g>
<!-- lsp_status_trend_summary_db_file -->
<g id="node9" class="node"><title>lsp_status_trend_summary_db_file</title>
<path fill="#ffffcc" stroke="black" d="M224.477,-50.5C224.477,-50.5 433.523,-50.5 433.523,-50.5 439.523,-50.5 445.523,-56.5 445.523,-62.5 445.523,-62.5 445.523,-88.1 445.523,-88.1 445.523,-94.1 439.523,-100.1 433.523,-100.1 433.523,-100.1 224.477,-100.1 224.477,-100.1 218.477,-100.1 212.477,-94.1 212.477,-88.1 212.477,-88.1 212.477,-62.5 212.477,-62.5 212.477,-56.5 218.477,-50.5 224.477,-50.5"/>
<text text-anchor="middle" x="329" y="-83.5" font-family="Helvetica,sans-Serif" font-size="14.00">lsp_status_trend_summary_db_file</text>
<polyline fill="none" stroke="black" points="212.477,-75.3 445.523,-75.3 "/>
<text text-anchor="middle" x="329" y="-58.7" font-family="Helvetica,sans-Serif" font-size="14.00">dbfile://</text>
</g>
<!-- save_year_by_year_status_&amp;_trend_estimates&#45;&gt;lsp_status_trend_summary_db_file -->
<g id="edge19" class="edge"><title>save_year_by_year_status_&amp;_trend_estimates&#45;&gt;lsp_status_trend_summary_db_file</title>
<path fill="none" stroke="black" d="M329,-136.445C329,-128.689 329,-119.239 329,-110.15"/>
<polygon fill="black" stroke="black" points="332.5,-110.15 329,-100.15 325.5,-110.15 332.5,-110.15"/>
</g>
<!-- lsp_status_file_output_port -->
<g id="node20" class="node"><title>lsp_status_file_output_port</title>
<ellipse fill="#ffffff" stroke="black" cx="793" cy="-154.6" rx="7" ry="7"/>
</g>
<!-- lsp_status_file&#45;&gt;lsp_status_file_output_port -->
<g id="edge24" class="edge"><title>lsp_status_file&#45;&gt;lsp_status_file_output_port</title>
<path fill="none" stroke="black" d="M398.044,-209.956C401.057,-209.484 404.047,-209.031 407,-208.6 569.177,-184.936 623.941,-238.506 774,-172.6 776.624,-171.448 779.136,-169.79 781.425,-167.958"/>
<polygon fill="black" stroke="black" points="784.156,-170.186 788.911,-160.717 779.29,-165.154 784.156,-170.186"/>
</g>
<!-- lsp_trend_file_output_port -->
<g id="node21" class="node"><title>lsp_trend_file_output_port</title>
<ellipse fill="#ffffff" stroke="black" cx="825" cy="-154.6" rx="7" ry="7"/>
</g>
<!-- lsp_trend_file&#45;&gt;lsp_trend_file_output_port -->
<g id="edge25" class="edge"><title>lsp_trend_file&#45;&gt;lsp_trend_file_output_port</title>
<path fill="none" stroke="black" d="M733.884,-209.019C759.222,-199.799 786.277,-187.75 809,-172.6 810.821,-171.386 812.586,-169.928 814.237,-168.382"/>
<polygon fill="black" stroke="black" points="817.13,-170.403 821.281,-160.655 811.957,-165.688 817.13,-170.403"/>
</g>
<!-- lsp_status_trend_summary_db_file_output_port -->
<g id="node22" class="node"><title>lsp_status_trend_summary_db_file_output_port</title>
<ellipse fill="#ffffff" stroke="black" cx="329" cy="-7" rx="7" ry="7"/>
</g>
<!-- lsp_status_trend_summary_db_file&#45;&gt;lsp_status_trend_summary_db_file_output_port -->
<g id="edge26" class="edge"><title>lsp_status_trend_summary_db_file&#45;&gt;lsp_status_trend_summary_db_file_output_port</title>
<path fill="none" stroke="black" d="M329,-50.3642C329,-41.694 329,-32.1105 329,-24.2546"/>
<polygon fill="black" stroke="black" points="332.5,-24.0006 329,-14.0006 325.5,-24.0007 332.5,-24.0006"/>
</g>
<!-- setup.R -->
<g id="node10" class="node"><title>setup.R</title>
<path fill="#ffffcc" stroke="black" d="M607.236,-705.8C607.236,-705.8 566.764,-705.8 566.764,-705.8 560.764,-705.8 554.764,-699.8 554.764,-693.8 554.764,-693.8 554.764,-681.8 554.764,-681.8 554.764,-675.8 560.764,-669.8 566.764,-669.8 566.764,-669.8 607.236,-669.8 607.236,-669.8 613.236,-669.8 619.236,-675.8 619.236,-681.8 619.236,-681.8 619.236,-693.8 619.236,-693.8 619.236,-699.8 613.236,-705.8 607.236,-705.8"/>
<text text-anchor="middle" x="587" y="-683.6" font-family="Helvetica,sans-Serif" font-size="14.00">setup.R</text>
</g>
<!-- setup.R&#45;&gt;set_up_configuration_and_start_provenance_tracking -->
<g id="edge2" class="edge"><title>setup.R&#45;&gt;set_up_configuration_and_start_provenance_tracking</title>
<path fill="none" stroke="black" d="M587,-669.497C587,-661.783 587,-652.512 587,-643.912"/>
<polygon fill="black" stroke="black" points="590.5,-643.904 587,-633.904 583.5,-643.904 590.5,-643.904"/>
</g>
<!-- area_protected_total_file -->
<g id="node11" class="node"><title>area_protected_total_file</title>
<path fill="#ffffcc" stroke="black" d="M69.5611,-367.7C69.5611,-367.7 342.439,-367.7 342.439,-367.7 348.439,-367.7 354.439,-373.7 354.439,-379.7 354.439,-379.7 354.439,-405.3 354.439,-405.3 354.439,-411.3 348.439,-417.3 342.439,-417.3 342.439,-417.3 69.5611,-417.3 69.5611,-417.3 63.5611,-417.3 57.5611,-411.3 57.5611,-405.3 57.5611,-405.3 57.5611,-379.7 57.5611,-379.7 57.5611,-373.7 63.5611,-367.7 69.5611,-367.7"/>
<text text-anchor="middle" x="206" y="-400.7" font-family="Helvetica,sans-Serif" font-size="14.00">area_protected_total_file</text>
<polyline fill="none" stroke="black" points="57.5611,-392.5 354.439,-392.5 "/>
<text text-anchor="middle" x="206" y="-375.9" font-family="Helvetica,sans-Serif" font-size="14.00">file:{dir_goal}/output/area_protected_total.csv</text>
</g>
<!-- area_protected_total_file&#45;&gt;output_estimate_status_file_by_region_since_1980 -->
<g id="edge11" class="edge"><title>area_protected_total_file&#45;&gt;output_estimate_status_file_by_region_since_1980</title>
<path fill="none" stroke="black" d="M209.109,-367.466C210.174,-359.239 211.372,-349.976 212.467,-341.509"/>
<polygon fill="black" stroke="black" points="215.969,-341.716 213.781,-331.349 209.027,-340.818 215.969,-341.716"/>
</g>
<!-- area_protected_total_file&#45;&gt;output_estimate_trend_file_by_region_since_1980 -->
<g id="edge17" class="edge"><title>area_protected_total_file&#45;&gt;output_estimate_trend_file_by_region_since_1980</title>
<path fill="none" stroke="black" d="M323.113,-367.677C377.495,-356.614 441.266,-343.642 492.38,-333.244"/>
<polygon fill="black" stroke="black" points="493.326,-336.624 502.427,-331.2 491.93,-329.764 493.326,-336.624"/>
</g>
<!-- status_file_handle&#45;&gt;output_estimate_status_file_by_region_since_1980 -->
<g id="edge12" class="edge"><title>status_file_handle&#45;&gt;output_estimate_status_file_by_region_since_1980</title>
<path fill="none" stroke="black" d="M487.142,-374.415C479.12,-371.847 470.861,-369.345 463,-367.2 415.403,-354.214 361.943,-342.406 316.962,-333.25"/>
<polygon fill="black" stroke="black" points="317.404,-329.768 306.909,-331.218 316.017,-336.629 317.404,-329.768"/>
</g>
<!-- trend_file_handle&#45;&gt;output_estimate_trend_file_by_region_since_1980 -->
<g id="edge18" class="edge"><title>trend_file_handle&#45;&gt;output_estimate_trend_file_by_region_since_1980</title>
<path fill="none" stroke="black" d="M659.138,-374.345C646.117,-363.636 629.17,-349.7 614.868,-337.94"/>
<polygon fill="black" stroke="black" points="616.75,-334.956 606.803,-331.307 612.304,-340.362 616.75,-334.956"/>
</g>
<!-- status_df_data&#45;&gt;save_year_by_year_status_&amp;_trend_estimates -->
<g id="edge20" class="edge"><title>status_df_data&#45;&gt;save_year_by_year_status_&amp;_trend_estimates</title>
<path fill="none" stroke="black" d="M136.893,-215.9C143.595,-213.376 150.465,-210.864 157,-208.6 190.847,-196.873 228.873,-185.021 260.546,-175.507"/>
<polygon fill="black" stroke="black" points="261.582,-178.85 270.16,-172.632 259.577,-172.144 261.582,-178.85"/>
</g>
<!-- trend_df_data&#45;&gt;save_year_by_year_status_&amp;_trend_estimates -->
<g id="edge21" class="edge"><title>trend_df_data&#45;&gt;save_year_by_year_status_&amp;_trend_estimates</title>
<path fill="none" stroke="black" d="M436.373,-215.745C416.363,-204.536 390.039,-189.791 368.464,-177.706"/>
<polygon fill="black" stroke="black" points="369.976,-174.541 359.541,-172.707 366.555,-180.648 369.976,-174.541"/>
</g>
<!-- dir_goal&#45;&gt;create_new_stats_&amp;_trend_file -->
<g id="edge5" class="edge"><title>dir_goal&#45;&gt;create_new_stats_&amp;_trend_file</title>
<path fill="none" stroke="black" d="M600.202,-525.497C602.096,-517.698 604.377,-508.309 606.484,-499.629"/>
<polygon fill="black" stroke="black" points="609.887,-500.448 608.846,-489.904 603.085,-498.796 609.887,-500.448"/>
</g>
<!-- dir_goal&#45;&gt;output_estimate_status_file_by_region_since_1980 -->
<g id="edge10" class="edge"><title>dir_goal&#45;&gt;output_estimate_status_file_by_region_since_1980</title>
<path fill="none" stroke="black" d="M562.9,-540.596C454.318,-532.6 112.286,-501.079 49,-417.8 35.3932,-399.895 35.7191,-385.349 49,-367.2 59.061,-353.452 72.7131,-343.182 87.9034,-335.527"/>
<polygon fill="black" stroke="black" points="89.4024,-338.69 97.0095,-331.316 86.464,-332.337 89.4024,-338.69"/>
</g>
<!-- dir_goal&#45;&gt;output_estimate_trend_file_by_region_since_1980 -->
<g id="edge15" class="edge"><title>dir_goal&#45;&gt;output_estimate_trend_file_by_region_since_1980</title>
<path fill="none" stroke="black" d="M628.882,-537.297C658.102,-530.77 700.087,-517.122 726,-489.8 764.268,-449.451 783.762,-412.135 751,-367.2 740.924,-353.38 727.187,-343.085 711.913,-335.43"/>
<polygon fill="black" stroke="black" points="713.305,-332.218 702.758,-331.221 710.382,-338.578 713.305,-332.218"/>
</g>
<!-- year_span&#45;&gt;output_estimate_status_file_by_region_since_1980 -->
<g id="edge9" class="edge"><title>year_span&#45;&gt;output_estimate_status_file_by_region_since_1980</title>
<path fill="none" stroke="black" d="M379.064,-374.409C373.731,-371.897 368.247,-369.413 363,-367.2 335.173,-355.461 303.748,-343.908 277.118,-334.601"/>
<polygon fill="black" stroke="black" points="278.134,-331.249 267.539,-331.277 275.839,-337.862 278.134,-331.249"/>
</g>
<!-- year_span&#45;&gt;output_estimate_trend_file_by_region_since_1980 -->
<g id="edge16" class="edge"><title>year_span&#45;&gt;output_estimate_trend_file_by_region_since_1980</title>
<path fill="none" stroke="black" d="M447.601,-374.431C452.746,-371.967 457.999,-369.491 463,-367.2 486.768,-356.31 513.385,-344.762 535.764,-335.235"/>
<polygon fill="black" stroke="black" points="537.237,-338.412 545.074,-331.283 534.502,-331.969 537.237,-338.412"/>
</g>
<!-- setup.R_input_port -->
<g id="node18" class="node"><title>setup.R_input_port</title>
<ellipse fill="#ffffff" stroke="black" cx="587" cy="-748.8" rx="7" ry="7"/>
</g>
<!-- setup.R_input_port&#45;&gt;setup.R -->
<g id="edge22" class="edge"><title>setup.R_input_port&#45;&gt;setup.R</title>
<path fill="none" stroke="black" d="M587,-741.486C587,-735.286 587,-725.395 587,-715.848"/>
<polygon fill="black" stroke="black" points="590.5,-715.816 587,-705.816 583.5,-715.816 590.5,-715.816"/>
</g>
<!-- area_protected_total_file_input_port -->
<g id="node19" class="node"><title>area_protected_total_file_input_port</title>
<ellipse fill="#ffffff" stroke="black" cx="7" cy="-471.8" rx="7" ry="7"/>
</g>
<!-- area_protected_total_file_input_port&#45;&gt;area_protected_total_file -->
<g id="edge23" class="edge"><title>area_protected_total_file_input_port&#45;&gt;area_protected_total_file</title>
<path fill="none" stroke="black" d="M11.2677,-466.034C14.8712,-462.26 20.3366,-457.092 26,-453.8 49.1172,-440.361 75.6615,-429.384 101.139,-420.658"/>
<polygon fill="black" stroke="black" points="102.462,-423.906 110.841,-417.423 100.248,-417.266 102.462,-423.906"/>
</g>
</g>
</svg>
