<?xml version="1.0" encoding="UTF-8" standalone="no"?>
<!DOCTYPE svg PUBLIC "-//W3C//DTD SVG 1.1//EN"
 "http://www.w3.org/Graphics/SVG/1.1/DTD/svg11.dtd">
<!-- Generated by graphviz version 2.38.0 (20140413.2041)
 -->
<!-- Title: Workflow Pages: 1 -->
<svg width="1874pt" height="491pt"
 viewBox="0.00 0.00 1874.00 490.80" xmlns="http://www.w3.org/2000/svg" xmlns:xlink="http://www.w3.org/1999/xlink">
<g id="graph0" class="graph" transform="scale(1 1) rotate(0) translate(4 486.8)">
<title>Workflow</title>
<polygon fill="white" stroke="none" points="-4,4 -4,-486.8 1870,-486.8 1870,4 -4,4"/>
<text text-anchor="middle" x="933" y="-462.6" font-family="Helvetica,sans-Serif" font-size="18.00">calculate_goal_model</text>
<g id="clust1" class="cluster"><title>cluster_workflow_box_outer</title>
<polygon fill="none" stroke="black" stroke-width="2" points="8,-34 8,-419.2 1858,-419.2 1858,-34 8,-34"/>
</g>
<g id="clust2" class="cluster"><title>cluster_workflow_box_inner</title>
<polygon fill="none" stroke="black" stroke-width="0" points="16,-42 16,-411.2 1850,-411.2 1850,-42 16,-42"/>
</g>
<!-- set_up_configuration_and_start_provenance_tracking -->
<g id="node1" class="node"><title>set_up_configuration_and_start_provenance_tracking</title>
<polygon fill="#ccffcc" stroke="black" points="460.784,-316.6 111.216,-316.6 111.216,-280.6 460.784,-280.6 460.784,-316.6"/>
<text text-anchor="middle" x="286" y="-294.4" font-family="Helvetica,sans-Serif" font-size="14.00">set_up_configuration_and_start_provenance_tracking</text>
</g>
<!-- dir_goal -->
<g id="node18" class="node"><title>dir_goal</title>
<path fill="#fcfcfc" stroke="black" d="M392.787,-244.6C392.787,-244.6 351.213,-244.6 351.213,-244.6 345.213,-244.6 339.213,-238.6 339.213,-232.6 339.213,-232.6 339.213,-220.6 339.213,-220.6 339.213,-214.6 345.213,-208.6 351.213,-208.6 351.213,-208.6 392.787,-208.6 392.787,-208.6 398.787,-208.6 404.787,-214.6 404.787,-220.6 404.787,-220.6 404.787,-232.6 404.787,-232.6 404.787,-238.6 398.787,-244.6 392.787,-244.6"/>
<text text-anchor="middle" x="372" y="-222.4" font-family="Helvetica,sans-Serif" font-size="14.00">dir_goal</text>
</g>
<!-- set_up_configuration_and_start_provenance_tracking&#45;&gt;dir_goal -->
<g id="edge1" class="edge"><title>set_up_configuration_and_start_provenance_tracking&#45;&gt;dir_goal</title>
<path fill="none" stroke="black" d="M307.258,-280.297C318.089,-271.481 331.418,-260.632 343.16,-251.074"/>
<polygon fill="black" stroke="black" points="345.44,-253.732 350.986,-244.704 341.021,-248.303 345.44,-253.732"/>
</g>
<!-- read_in_OHI_region_rasters -->
<g id="node2" class="node"><title>read_in_OHI_region_rasters</title>
<polygon fill="#ccffcc" stroke="black" points="902.091,-316.6 709.909,-316.6 709.909,-280.6 902.091,-280.6 902.091,-316.6"/>
<text text-anchor="middle" x="806" y="-294.4" font-family="Helvetica,sans-Serif" font-size="14.00">read_in_OHI_region_rasters</text>
</g>
<!-- rast_3nm -->
<g id="node13" class="node"><title>rast_3nm</title>
<path fill="#ffffcc" stroke="black" d="M996.343,-244.6C996.343,-244.6 945.657,-244.6 945.657,-244.6 939.657,-244.6 933.657,-238.6 933.657,-232.6 933.657,-232.6 933.657,-220.6 933.657,-220.6 933.657,-214.6 939.657,-208.6 945.657,-208.6 945.657,-208.6 996.343,-208.6 996.343,-208.6 1002.34,-208.6 1008.34,-214.6 1008.34,-220.6 1008.34,-220.6 1008.34,-232.6 1008.34,-232.6 1008.34,-238.6 1002.34,-244.6 996.343,-244.6"/>
<text text-anchor="middle" x="971" y="-222.4" font-family="Helvetica,sans-Serif" font-size="14.00">rast_3nm</text>
</g>
<!-- read_in_OHI_region_rasters&#45;&gt;rast_3nm -->
<g id="edge3" class="edge"><title>read_in_OHI_region_rasters&#45;&gt;rast_3nm</title>
<path fill="none" stroke="black" d="M846.364,-280.476C869.863,-270.507 899.596,-257.893 924.128,-247.485"/>
<polygon fill="black" stroke="black" points="925.756,-250.596 933.595,-243.469 923.022,-244.152 925.756,-250.596"/>
</g>
<!-- rast_1km -->
<g id="node14" class="node"><title>rast_1km</title>
<path fill="#ffffcc" stroke="black" d="M603.561,-244.6C603.561,-244.6 554.439,-244.6 554.439,-244.6 548.439,-244.6 542.439,-238.6 542.439,-232.6 542.439,-232.6 542.439,-220.6 542.439,-220.6 542.439,-214.6 548.439,-208.6 554.439,-208.6 554.439,-208.6 603.561,-208.6 603.561,-208.6 609.561,-208.6 615.561,-214.6 615.561,-220.6 615.561,-220.6 615.561,-232.6 615.561,-232.6 615.561,-238.6 609.561,-244.6 603.561,-244.6"/>
<text text-anchor="middle" x="579" y="-222.4" font-family="Helvetica,sans-Serif" font-size="14.00">rast_1km</text>
</g>
<!-- read_in_OHI_region_rasters&#45;&gt;rast_1km -->
<g id="edge4" class="edge"><title>read_in_OHI_region_rasters&#45;&gt;rast_1km</title>
<path fill="none" stroke="black" d="M743.681,-280.501C710.956,-271.255 670.033,-259.274 625.202,-244.559"/>
<polygon fill="black" stroke="black" points="626.171,-241.193 615.578,-241.377 623.974,-247.839 626.171,-241.193"/>
</g>
<!-- rast_ws -->
<g id="node15" class="node"><title>rast_ws</title>
<path fill="#ffffcc" stroke="black" d="M686.223,-244.6C686.223,-244.6 645.777,-244.6 645.777,-244.6 639.777,-244.6 633.777,-238.6 633.777,-232.6 633.777,-232.6 633.777,-220.6 633.777,-220.6 633.777,-214.6 639.777,-208.6 645.777,-208.6 645.777,-208.6 686.223,-208.6 686.223,-208.6 692.223,-208.6 698.223,-214.6 698.223,-220.6 698.223,-220.6 698.223,-232.6 698.223,-232.6 698.223,-238.6 692.223,-244.6 686.223,-244.6"/>
<text text-anchor="middle" x="666" y="-222.4" font-family="Helvetica,sans-Serif" font-size="14.00">rast_ws</text>
</g>
<!-- read_in_OHI_region_rasters&#45;&gt;rast_ws -->
<g id="edge5" class="edge"><title>read_in_OHI_region_rasters&#45;&gt;rast_ws</title>
<path fill="none" stroke="black" d="M771.752,-280.476C752.377,-270.789 728.007,-258.603 707.546,-248.373"/>
<polygon fill="black" stroke="black" points="708.961,-245.167 698.451,-243.826 705.83,-251.428 708.961,-245.167"/>
</g>
<!-- rast_pep -->
<g id="node16" class="node"><title>rast_pep</title>
<path fill="#ffffcc" stroke="black" d="M774.466,-244.6C774.466,-244.6 727.534,-244.6 727.534,-244.6 721.534,-244.6 715.534,-238.6 715.534,-232.6 715.534,-232.6 715.534,-220.6 715.534,-220.6 715.534,-214.6 721.534,-208.6 727.534,-208.6 727.534,-208.6 774.466,-208.6 774.466,-208.6 780.466,-208.6 786.466,-214.6 786.466,-220.6 786.466,-220.6 786.466,-232.6 786.466,-232.6 786.466,-238.6 780.466,-244.6 774.466,-244.6"/>
<text text-anchor="middle" x="751" y="-222.4" font-family="Helvetica,sans-Serif" font-size="14.00">rast_pep</text>
</g>
<!-- read_in_OHI_region_rasters&#45;&gt;rast_pep -->
<g id="edge6" class="edge"><title>read_in_OHI_region_rasters&#45;&gt;rast_pep</title>
<path fill="none" stroke="black" d="M792.404,-280.297C785.877,-271.989 777.932,-261.877 770.753,-252.741"/>
<polygon fill="black" stroke="black" points="773.369,-250.405 764.439,-244.704 767.865,-254.73 773.369,-250.405"/>
</g>
<!-- rast_wdpa_pep -->
<g id="node17" class="node"><title>rast_wdpa_pep</title>
<path fill="#ffffcc" stroke="black" d="M903.702,-244.6C903.702,-244.6 816.298,-244.6 816.298,-244.6 810.298,-244.6 804.298,-238.6 804.298,-232.6 804.298,-232.6 804.298,-220.6 804.298,-220.6 804.298,-214.6 810.298,-208.6 816.298,-208.6 816.298,-208.6 903.702,-208.6 903.702,-208.6 909.702,-208.6 915.702,-214.6 915.702,-220.6 915.702,-220.6 915.702,-232.6 915.702,-232.6 915.702,-238.6 909.702,-244.6 903.702,-244.6"/>
<text text-anchor="middle" x="860" y="-222.4" font-family="Helvetica,sans-Serif" font-size="14.00">rast_wdpa_pep</text>
</g>
<!-- read_in_OHI_region_rasters&#45;&gt;rast_wdpa_pep -->
<g id="edge7" class="edge"><title>read_in_OHI_region_rasters&#45;&gt;rast_wdpa_pep</title>
<path fill="none" stroke="black" d="M819.348,-280.297C825.757,-271.989 833.558,-261.877 840.606,-252.741"/>
<polygon fill="black" stroke="black" points="843.468,-254.76 846.805,-244.704 837.926,-250.484 843.468,-254.76"/>
</g>
<!-- outputs_stats_for_protected_cells -->
<g id="node3" class="node"><title>outputs_stats_for_protected_cells</title>
<polygon fill="#ccffcc" stroke="black" points="820.79,-172.6 595.21,-172.6 595.21,-136.6 820.79,-136.6 820.79,-172.6"/>
<text text-anchor="middle" x="708" y="-150.4" font-family="Helvetica,sans-Serif" font-size="14.00">outputs_stats_for_protected_cells</text>
</g>
<!-- zonal_3nm_file -->
<g id="node4" class="node"><title>zonal_3nm_file</title>
<path fill="#ffffcc" stroke="black" d="M326.913,-50.5C326.913,-50.5 553.087,-50.5 553.087,-50.5 559.087,-50.5 565.087,-56.5 565.087,-62.5 565.087,-62.5 565.087,-88.1 565.087,-88.1 565.087,-94.1 559.087,-100.1 553.087,-100.1 553.087,-100.1 326.913,-100.1 326.913,-100.1 320.913,-100.1 314.913,-94.1 314.913,-88.1 314.913,-88.1 314.913,-62.5 314.913,-62.5 314.913,-56.5 320.913,-50.5 326.913,-50.5"/>
<text text-anchor="middle" x="440" y="-83.5" font-family="Helvetica,sans-Serif" font-size="14.00">zonal_3nm_file</text>
<polyline fill="none" stroke="black" points="314.913,-75.3 565.087,-75.3 "/>
<text text-anchor="middle" x="440" y="-58.7" font-family="Helvetica,sans-Serif" font-size="14.00">file:{dir_goal}/int/zonal_stats_3nm.csv</text>
</g>
<!-- outputs_stats_for_protected_cells&#45;&gt;zonal_3nm_file -->
<g id="edge13" class="edge"><title>outputs_stats_for_protected_cells&#45;&gt;zonal_3nm_file</title>
<path fill="none" stroke="black" d="M648.854,-136.54C614.678,-126.683 570.938,-114.067 532.324,-102.929"/>
<polygon fill="black" stroke="black" points="533.205,-99.5408 522.627,-100.132 531.265,-106.267 533.205,-99.5408"/>
</g>
<!-- zonal_1km_file -->
<g id="node5" class="node"><title>zonal_1km_file</title>
<path fill="#ffffcc" stroke="black" d="M595.304,-50.5C595.304,-50.5 820.696,-50.5 820.696,-50.5 826.696,-50.5 832.696,-56.5 832.696,-62.5 832.696,-62.5 832.696,-88.1 832.696,-88.1 832.696,-94.1 826.696,-100.1 820.696,-100.1 820.696,-100.1 595.304,-100.1 595.304,-100.1 589.304,-100.1 583.304,-94.1 583.304,-88.1 583.304,-88.1 583.304,-62.5 583.304,-62.5 583.304,-56.5 589.304,-50.5 595.304,-50.5"/>
<text text-anchor="middle" x="708" y="-83.5" font-family="Helvetica,sans-Serif" font-size="14.00">zonal_1km_file</text>
<polyline fill="none" stroke="black" points="583.304,-75.3 832.696,-75.3 "/>
<text text-anchor="middle" x="708" y="-58.7" font-family="Helvetica,sans-Serif" font-size="14.00">file:{dir_goal}/int/zonal_stats_1km.csv</text>
</g>
<!-- outputs_stats_for_protected_cells&#45;&gt;zonal_1km_file -->
<g id="edge14" class="edge"><title>outputs_stats_for_protected_cells&#45;&gt;zonal_1km_file</title>
<path fill="none" stroke="black" d="M708,-136.445C708,-128.689 708,-119.239 708,-110.15"/>
<polygon fill="black" stroke="black" points="711.5,-110.15 708,-100.15 704.5,-110.15 711.5,-110.15"/>
</g>
<!-- zonal_ws_file -->
<g id="node6" class="node"><title>zonal_ws_file</title>
<path fill="#ffffcc" stroke="black" d="M862.973,-50.5C862.973,-50.5 1079.03,-50.5 1079.03,-50.5 1085.03,-50.5 1091.03,-56.5 1091.03,-62.5 1091.03,-62.5 1091.03,-88.1 1091.03,-88.1 1091.03,-94.1 1085.03,-100.1 1079.03,-100.1 1079.03,-100.1 862.973,-100.1 862.973,-100.1 856.973,-100.1 850.973,-94.1 850.973,-88.1 850.973,-88.1 850.973,-62.5 850.973,-62.5 850.973,-56.5 856.973,-50.5 862.973,-50.5"/>
<text text-anchor="middle" x="971" y="-83.5" font-family="Helvetica,sans-Serif" font-size="14.00">zonal_ws_file</text>
<polyline fill="none" stroke="black" points="850.973,-75.3 1091.03,-75.3 "/>
<text text-anchor="middle" x="971" y="-58.7" font-family="Helvetica,sans-Serif" font-size="14.00">file:{dir_goal}/int/zonal_stats_ws.csv</text>
</g>
<!-- outputs_stats_for_protected_cells&#45;&gt;zonal_ws_file -->
<g id="edge15" class="edge"><title>outputs_stats_for_protected_cells&#45;&gt;zonal_ws_file</title>
<path fill="none" stroke="black" d="M766.042,-136.54C799.369,-126.745 841.964,-114.226 879.681,-103.14"/>
<polygon fill="black" stroke="black" points="881.058,-106.384 889.665,-100.206 879.084,-99.6677 881.058,-106.384"/>
</g>
<!-- zonal_3nm_file_output_port -->
<g id="node25" class="node"><title>zonal_3nm_file_output_port</title>
<ellipse fill="#ffffff" stroke="black" cx="440" cy="-7" rx="7" ry="7"/>
</g>
<!-- zonal_3nm_file&#45;&gt;zonal_3nm_file_output_port -->
<g id="edge28" class="edge"><title>zonal_3nm_file&#45;&gt;zonal_3nm_file_output_port</title>
<path fill="none" stroke="black" d="M440,-50.3642C440,-41.694 440,-32.1105 440,-24.2546"/>
<polygon fill="black" stroke="black" points="443.5,-24.0006 440,-14.0006 436.5,-24.0007 443.5,-24.0006"/>
</g>
<!-- zonal_1km_file_output_port -->
<g id="node26" class="node"><title>zonal_1km_file_output_port</title>
<ellipse fill="#ffffff" stroke="black" cx="708" cy="-7" rx="7" ry="7"/>
</g>
<!-- zonal_1km_file&#45;&gt;zonal_1km_file_output_port -->
<g id="edge29" class="edge"><title>zonal_1km_file&#45;&gt;zonal_1km_file_output_port</title>
<path fill="none" stroke="black" d="M708,-50.3642C708,-41.694 708,-32.1105 708,-24.2546"/>
<polygon fill="black" stroke="black" points="711.5,-24.0006 708,-14.0006 704.5,-24.0007 711.5,-24.0006"/>
</g>
<!-- zonal_ws_file_output_port -->
<g id="node27" class="node"><title>zonal_ws_file_output_port</title>
<ellipse fill="#ffffff" stroke="black" cx="971" cy="-7" rx="7" ry="7"/>
</g>
<!-- zonal_ws_file&#45;&gt;zonal_ws_file_output_port -->
<g id="edge30" class="edge"><title>zonal_ws_file&#45;&gt;zonal_ws_file_output_port</title>
<path fill="none" stroke="black" d="M971,-50.3642C971,-41.694 971,-32.1105 971,-24.2546"/>
<polygon fill="black" stroke="black" points="974.5,-24.0006 971,-14.0006 967.5,-24.0007 974.5,-24.0006"/>
</g>
<!-- setup.R -->
<g id="node7" class="node"><title>setup.R</title>
<path fill="#ffffcc" stroke="black" d="M76.236,-395.9C76.236,-395.9 35.764,-395.9 35.764,-395.9 29.764,-395.9 23.764,-389.9 23.764,-383.9 23.764,-383.9 23.764,-371.9 23.764,-371.9 23.764,-365.9 29.764,-359.9 35.764,-359.9 35.764,-359.9 76.236,-359.9 76.236,-359.9 82.236,-359.9 88.236,-365.9 88.236,-371.9 88.236,-371.9 88.236,-383.9 88.236,-383.9 88.236,-389.9 82.236,-395.9 76.236,-395.9"/>
<text text-anchor="middle" x="56" y="-373.7" font-family="Helvetica,sans-Serif" font-size="14.00">setup.R</text>
</g>
<!-- setup.R&#45;&gt;set_up_configuration_and_start_provenance_tracking -->
<g id="edge2" class="edge"><title>setup.R&#45;&gt;set_up_configuration_and_start_provenance_tracking</title>
<path fill="none" stroke="black" d="M82.8243,-359.662C87.4465,-357.083 92.2833,-354.618 97,-352.6 128.944,-338.935 165.421,-327.749 197.754,-319.233"/>
<polygon fill="black" stroke="black" points="198.839,-322.568 207.645,-316.677 197.088,-315.791 198.839,-322.568"/>
</g>
<!-- rast_3nm_raster_file -->
<g id="node8" class="node"><title>rast_3nm_raster_file</title>
<path fill="#ffffcc" stroke="black" d="M118.179,-353.1C118.179,-353.1 433.821,-353.1 433.821,-353.1 439.821,-353.1 445.821,-359.1 445.821,-365.1 445.821,-365.1 445.821,-390.7 445.821,-390.7 445.821,-396.7 439.821,-402.7 433.821,-402.7 433.821,-402.7 118.179,-402.7 118.179,-402.7 112.179,-402.7 106.179,-396.7 106.179,-390.7 106.179,-390.7 106.179,-365.1 106.179,-365.1 106.179,-359.1 112.179,-353.1 118.179,-353.1"/>
<text text-anchor="middle" x="276" y="-386.1" font-family="Helvetica,sans-Serif" font-size="14.00">rast_3nm_raster_file</text>
<polyline fill="none" stroke="black" points="106.179,-377.9 445.821,-377.9 "/>
<text text-anchor="middle" x="276" y="-361.3" font-family="Helvetica,sans-Serif" font-size="14.00">file:{dir_goal}/spatial/hs_offshore_3nm_raster_500m</text>
</g>
<!-- rast_3nm_raster_file&#45;&gt;read_in_OHI_region_rasters -->
<g id="edge8" class="edge"><title>rast_3nm_raster_file&#45;&gt;read_in_OHI_region_rasters</title>
<path fill="none" stroke="black" d="M439.342,-353.077C524.02,-340.727 625.021,-325.996 699.556,-315.125"/>
<polygon fill="black" stroke="black" points="700.502,-318.524 709.893,-313.617 699.492,-311.597 700.502,-318.524"/>
</g>
<!-- rast_1km_raster_file -->
<g id="node9" class="node"><title>rast_1km_raster_file</title>
<path fill="#ffffcc" stroke="black" d="M476.185,-353.1C476.185,-353.1 777.815,-353.1 777.815,-353.1 783.815,-353.1 789.815,-359.1 789.815,-365.1 789.815,-365.1 789.815,-390.7 789.815,-390.7 789.815,-396.7 783.815,-402.7 777.815,-402.7 777.815,-402.7 476.185,-402.7 476.185,-402.7 470.185,-402.7 464.185,-396.7 464.185,-390.7 464.185,-390.7 464.185,-365.1 464.185,-365.1 464.185,-359.1 470.185,-353.1 476.185,-353.1"/>
<text text-anchor="middle" x="627" y="-386.1" font-family="Helvetica,sans-Serif" font-size="14.00">rast_1km_raster_file</text>
<polyline fill="none" stroke="black" points="464.185,-377.9 789.815,-377.9 "/>
<text text-anchor="middle" x="627" y="-361.3" font-family="Helvetica,sans-Serif" font-size="14.00">file:{dir_goal}/spatial/hs_inland_1km_raster_500m</text>
</g>
<!-- rast_1km_raster_file&#45;&gt;read_in_OHI_region_rasters -->
<g id="edge9" class="edge"><title>rast_1km_raster_file&#45;&gt;read_in_OHI_region_rasters</title>
<path fill="none" stroke="black" d="M682.166,-353.077C706.182,-342.706 734.085,-330.656 757.318,-320.623"/>
<polygon fill="black" stroke="black" points="758.84,-323.778 766.633,-316.6 756.065,-317.352 758.84,-323.778"/>
</g>
<!-- rast_ws_raster_file -->
<g id="node10" class="node"><title>rast_ws_raster_file</title>
<path fill="#ffffcc" stroke="black" d="M819.782,-353.1C819.782,-353.1 1150.22,-353.1 1150.22,-353.1 1156.22,-353.1 1162.22,-359.1 1162.22,-365.1 1162.22,-365.1 1162.22,-390.7 1162.22,-390.7 1162.22,-396.7 1156.22,-402.7 1150.22,-402.7 1150.22,-402.7 819.782,-402.7 819.782,-402.7 813.782,-402.7 807.782,-396.7 807.782,-390.7 807.782,-390.7 807.782,-365.1 807.782,-365.1 807.782,-359.1 813.782,-353.1 819.782,-353.1"/>
<text text-anchor="middle" x="985" y="-386.1" font-family="Helvetica,sans-Serif" font-size="14.00">rast_ws_raster_file</text>
<polyline fill="none" stroke="black" points="807.782,-377.9 1162.22,-377.9 "/>
<text text-anchor="middle" x="985" y="-361.3" font-family="Helvetica,sans-Serif" font-size="14.00">file:{dir_goal}/spatial/howe_sound_watershed_500m.tif</text>
</g>
<!-- rast_ws_raster_file&#45;&gt;read_in_OHI_region_rasters -->
<g id="edge10" class="edge"><title>rast_ws_raster_file&#45;&gt;read_in_OHI_region_rasters</title>
<path fill="none" stroke="black" d="M929.834,-353.077C905.818,-342.706 877.915,-330.656 854.682,-320.623"/>
<polygon fill="black" stroke="black" points="855.935,-317.352 845.367,-316.6 853.16,-323.778 855.935,-317.352"/>
</g>
<!-- rast_pep_file -->
<g id="node11" class="node"><title>rast_pep_file</title>
<path fill="#ffffcc" stroke="black" d="M1191.78,-353.1C1191.78,-353.1 1522.22,-353.1 1522.22,-353.1 1528.22,-353.1 1534.22,-359.1 1534.22,-365.1 1534.22,-365.1 1534.22,-390.7 1534.22,-390.7 1534.22,-396.7 1528.22,-402.7 1522.22,-402.7 1522.22,-402.7 1191.78,-402.7 1191.78,-402.7 1185.78,-402.7 1179.78,-396.7 1179.78,-390.7 1179.78,-390.7 1179.78,-365.1 1179.78,-365.1 1179.78,-359.1 1185.78,-353.1 1191.78,-353.1"/>
<text text-anchor="middle" x="1357" y="-386.1" font-family="Helvetica,sans-Serif" font-size="14.00">rast_pep_file</text>
<polyline fill="none" stroke="black" points="1179.78,-377.9 1534.22,-377.9 "/>
<text text-anchor="middle" x="1357" y="-361.3" font-family="Helvetica,sans-Serif" font-size="14.00">file:{dir_goal}/spatial/howe_sound_watershed_500m.tif</text>
</g>
<!-- rast_pep_file&#45;&gt;read_in_OHI_region_rasters -->
<g id="edge11" class="edge"><title>rast_pep_file&#45;&gt;read_in_OHI_region_rasters</title>
<path fill="none" stroke="black" d="M1187.19,-353.077C1097.61,-340.51 990.467,-325.479 912.616,-314.557"/>
<polygon fill="black" stroke="black" points="912.701,-311.035 902.312,-313.112 911.728,-317.967 912.701,-311.035"/>
</g>
<!-- rast_wdpa_pep_file -->
<g id="node12" class="node"><title>rast_wdpa_pep_file</title>
<path fill="#ffffcc" stroke="black" d="M1564.07,-353.1C1564.07,-353.1 1829.93,-353.1 1829.93,-353.1 1835.93,-353.1 1841.93,-359.1 1841.93,-365.1 1841.93,-365.1 1841.93,-390.7 1841.93,-390.7 1841.93,-396.7 1835.93,-402.7 1829.93,-402.7 1829.93,-402.7 1564.07,-402.7 1564.07,-402.7 1558.07,-402.7 1552.07,-396.7 1552.07,-390.7 1552.07,-390.7 1552.07,-365.1 1552.07,-365.1 1552.07,-359.1 1558.07,-353.1 1564.07,-353.1"/>
<text text-anchor="middle" x="1697" y="-386.1" font-family="Helvetica,sans-Serif" font-size="14.00">rast_wdpa_pep_file</text>
<polyline fill="none" stroke="black" points="1552.07,-377.9 1841.93,-377.9 "/>
<text text-anchor="middle" x="1697" y="-361.3" font-family="Helvetica,sans-Serif" font-size="14.00">file:{dir_goal}/spatial/hs_wdpa_rast_500m.tif</text>
</g>
<!-- rast_wdpa_pep_file&#45;&gt;read_in_OHI_region_rasters -->
<g id="edge12" class="edge"><title>rast_wdpa_pep_file&#45;&gt;read_in_OHI_region_rasters</title>
<path fill="none" stroke="black" d="M1551.96,-353.663C1548.95,-353.294 1545.96,-352.939 1543,-352.6 1319.28,-326.952 1055.85,-311.558 912.353,-304.415"/>
<polygon fill="black" stroke="black" points="912.391,-300.913 902.231,-303.915 912.046,-307.904 912.391,-300.913"/>
</g>
<!-- rast_3nm&#45;&gt;outputs_stats_for_protected_cells -->
<g id="edge17" class="edge"><title>rast_3nm&#45;&gt;outputs_stats_for_protected_cells</title>
<path fill="none" stroke="black" d="M933.716,-211.415C930.78,-210.422 927.85,-209.471 925,-208.6 883.376,-195.871 836.538,-184.116 797.06,-174.927"/>
<polygon fill="black" stroke="black" points="797.72,-171.488 787.189,-172.648 796.145,-178.308 797.72,-171.488"/>
</g>
<!-- rast_1km&#45;&gt;outputs_stats_for_protected_cells -->
<g id="edge18" class="edge"><title>rast_1km&#45;&gt;outputs_stats_for_protected_cells</title>
<path fill="none" stroke="black" d="M610.557,-208.476C627.658,-199.196 648.982,-187.625 667.319,-177.675"/>
<polygon fill="black" stroke="black" points="669.202,-180.635 676.322,-172.79 665.863,-174.483 669.202,-180.635"/>
</g>
<!-- rast_ws&#45;&gt;outputs_stats_for_protected_cells -->
<g id="edge19" class="edge"><title>rast_ws&#45;&gt;outputs_stats_for_protected_cells</title>
<path fill="none" stroke="black" d="M676.382,-208.297C681.265,-200.159 687.187,-190.289 692.579,-181.301"/>
<polygon fill="black" stroke="black" points="695.594,-183.08 697.737,-172.704 689.591,-179.479 695.594,-183.08"/>
</g>
<!-- rast_pep&#45;&gt;outputs_stats_for_protected_cells -->
<g id="edge20" class="edge"><title>rast_pep&#45;&gt;outputs_stats_for_protected_cells</title>
<path fill="none" stroke="black" d="M740.371,-208.297C735.372,-200.159 729.309,-190.289 723.788,-181.301"/>
<polygon fill="black" stroke="black" points="726.723,-179.393 718.507,-172.704 720.759,-183.057 726.723,-179.393"/>
</g>
<!-- rast_wdpa_pep&#45;&gt;outputs_stats_for_protected_cells -->
<g id="edge21" class="edge"><title>rast_wdpa_pep&#45;&gt;outputs_stats_for_protected_cells</title>
<path fill="none" stroke="black" d="M822.817,-208.476C802.13,-198.949 776.198,-187.007 754.215,-176.883"/>
<polygon fill="black" stroke="black" points="755.61,-173.672 745.063,-172.668 752.682,-180.03 755.61,-173.672"/>
</g>
<!-- dir_goal&#45;&gt;outputs_stats_for_protected_cells -->
<g id="edge16" class="edge"><title>dir_goal&#45;&gt;outputs_stats_for_protected_cells</title>
<path fill="none" stroke="black" d="M404.829,-218.761C453.305,-208.662 545.858,-189.38 616.008,-174.765"/>
<polygon fill="black" stroke="black" points="617.112,-178.11 626.188,-172.644 615.684,-171.257 617.112,-178.11"/>
</g>
<!-- setup.R_input_port -->
<g id="node19" class="node"><title>setup.R_input_port</title>
<ellipse fill="#ffffff" stroke="black" cx="56" cy="-446.2" rx="7" ry="7"/>
</g>
<!-- setup.R_input_port&#45;&gt;setup.R -->
<g id="edge22" class="edge"><title>setup.R_input_port&#45;&gt;setup.R</title>
<path fill="none" stroke="black" d="M56,-439.081C56,-431.594 56,-418.413 56,-406.291"/>
<polygon fill="black" stroke="black" points="59.5001,-406.082 56,-396.082 52.5001,-406.082 59.5001,-406.082"/>
</g>
<!-- rast_3nm_raster_file_input_port -->
<g id="node20" class="node"><title>rast_3nm_raster_file_input_port</title>
<ellipse fill="#ffffff" stroke="black" cx="276" cy="-446.2" rx="7" ry="7"/>
</g>
<!-- rast_3nm_raster_file_input_port&#45;&gt;rast_3nm_raster_file -->
<g id="edge23" class="edge"><title>rast_3nm_raster_file_input_port&#45;&gt;rast_3nm_raster_file</title>
<path fill="none" stroke="black" d="M276,-439.081C276,-432.991 276,-423.133 276,-413.142"/>
<polygon fill="black" stroke="black" points="279.5,-412.836 276,-402.836 272.5,-412.836 279.5,-412.836"/>
</g>
<!-- rast_1km_raster_file_input_port -->
<g id="node21" class="node"><title>rast_1km_raster_file_input_port</title>
<ellipse fill="#ffffff" stroke="black" cx="627" cy="-446.2" rx="7" ry="7"/>
</g>
<!-- rast_1km_raster_file_input_port&#45;&gt;rast_1km_raster_file -->
<g id="edge24" class="edge"><title>rast_1km_raster_file_input_port&#45;&gt;rast_1km_raster_file</title>
<path fill="none" stroke="black" d="M627,-439.081C627,-432.991 627,-423.133 627,-413.142"/>
<polygon fill="black" stroke="black" points="630.5,-412.836 627,-402.836 623.5,-412.836 630.5,-412.836"/>
</g>
<!-- rast_ws_raster_file_input_port -->
<g id="node22" class="node"><title>rast_ws_raster_file_input_port</title>
<ellipse fill="#ffffff" stroke="black" cx="985" cy="-446.2" rx="7" ry="7"/>
</g>
<!-- rast_ws_raster_file_input_port&#45;&gt;rast_ws_raster_file -->
<g id="edge25" class="edge"><title>rast_ws_raster_file_input_port&#45;&gt;rast_ws_raster_file</title>
<path fill="none" stroke="black" d="M985,-439.081C985,-432.991 985,-423.133 985,-413.142"/>
<polygon fill="black" stroke="black" points="988.5,-412.836 985,-402.836 981.5,-412.836 988.5,-412.836"/>
</g>
<!-- rast_pep_file_input_port -->
<g id="node23" class="node"><title>rast_pep_file_input_port</title>
<ellipse fill="#ffffff" stroke="black" cx="1357" cy="-446.2" rx="7" ry="7"/>
</g>
<!-- rast_pep_file_input_port&#45;&gt;rast_pep_file -->
<g id="edge26" class="edge"><title>rast_pep_file_input_port&#45;&gt;rast_pep_file</title>
<path fill="none" stroke="black" d="M1357,-439.081C1357,-432.991 1357,-423.133 1357,-413.142"/>
<polygon fill="black" stroke="black" points="1360.5,-412.836 1357,-402.836 1353.5,-412.836 1360.5,-412.836"/>
</g>
<!-- rast_wdpa_pep_file_input_port -->
<g id="node24" class="node"><title>rast_wdpa_pep_file_input_port</title>
<ellipse fill="#ffffff" stroke="black" cx="1697" cy="-446.2" rx="7" ry="7"/>
</g>
<!-- rast_wdpa_pep_file_input_port&#45;&gt;rast_wdpa_pep_file -->
<g id="edge27" class="edge"><title>rast_wdpa_pep_file_input_port&#45;&gt;rast_wdpa_pep_file</title>
<path fill="none" stroke="black" d="M1697,-439.081C1697,-432.991 1697,-423.133 1697,-413.142"/>
<polygon fill="black" stroke="black" points="1700.5,-412.836 1697,-402.836 1693.5,-412.836 1700.5,-412.836"/>
</g>
</g>
</svg>
