<?xml version="1.0" encoding="UTF-8" standalone="no"?>
<!DOCTYPE svg PUBLIC "-//W3C//DTD SVG 1.1//EN"
 "http://www.w3.org/Graphics/SVG/1.1/DTD/svg11.dtd">
<!-- Generated by graphviz version 2.38.0 (20140413.2041)
 -->
<!-- Title: Workflow Pages: 1 -->
<svg width="1163pt" height="635pt"
 viewBox="0.00 0.00 1163.00 634.80" xmlns="http://www.w3.org/2000/svg" xmlns:xlink="http://www.w3.org/1999/xlink">
<g id="graph0" class="graph" transform="scale(1 1) rotate(0) translate(4 630.8)">
<title>Workflow</title>
<polygon fill="white" stroke="none" points="-4,4 -4,-630.8 1159,-630.8 1159,4 -4,4"/>
<text text-anchor="middle" x="577.5" y="-606.6" font-family="Helvetica,sans-Serif" font-size="18.00">Rasterize_BC_WDPA_MPA_Shapefile_Howe_Sound_extents</text>
<g id="clust1" class="cluster"><title>cluster_workflow_box_outer</title>
<polygon fill="none" stroke="black" stroke-width="2" points="22,-34 22,-563.2 1101,-563.2 1101,-34 22,-34"/>
</g>
<g id="clust2" class="cluster"><title>cluster_workflow_box_inner</title>
<polygon fill="none" stroke="black" stroke-width="0" points="30,-42 30,-555.2 1093,-555.2 1093,-42 30,-42"/>
</g>
<!-- set_up_configuration_and_start_provenance_tracking -->
<g id="node1" class="node"><title>set_up_configuration_and_start_provenance_tracking</title>
<polygon fill="#ccffcc" stroke="black" points="569.784,-475.2 220.216,-475.2 220.216,-439.2 569.784,-439.2 569.784,-475.2"/>
<text text-anchor="middle" x="395" y="-453" font-family="Helvetica,sans-Serif" font-size="14.00">set_up_configuration_and_start_provenance_tracking</text>
</g>
<!-- dir_spatial -->
<g id="node15" class="node"><title>dir_spatial</title>
<path fill="#fcfcfc" stroke="black" d="M468.784,-395.9C468.784,-395.9 413.216,-395.9 413.216,-395.9 407.216,-395.9 401.216,-389.9 401.216,-383.9 401.216,-383.9 401.216,-371.9 401.216,-371.9 401.216,-365.9 407.216,-359.9 413.216,-359.9 413.216,-359.9 468.784,-359.9 468.784,-359.9 474.784,-359.9 480.784,-365.9 480.784,-371.9 480.784,-371.9 480.784,-383.9 480.784,-383.9 480.784,-389.9 474.784,-395.9 468.784,-395.9"/>
<text text-anchor="middle" x="441" y="-373.7" font-family="Helvetica,sans-Serif" font-size="14.00">dir_spatial</text>
</g>
<!-- set_up_configuration_and_start_provenance_tracking&#45;&gt;dir_spatial -->
<g id="edge1" class="edge"><title>set_up_configuration_and_start_provenance_tracking&#45;&gt;dir_spatial</title>
<path fill="none" stroke="black" d="M405.209,-439.045C411.224,-428.937 418.95,-415.953 425.684,-404.638"/>
<polygon fill="black" stroke="black" points="428.713,-406.391 430.82,-396.007 422.698,-402.811 428.713,-406.391"/>
</g>
<!-- dir_goal -->
<g id="node16" class="node"><title>dir_goal</title>
<path fill="#fcfcfc" stroke="black" d="M370.787,-395.9C370.787,-395.9 329.213,-395.9 329.213,-395.9 323.213,-395.9 317.213,-389.9 317.213,-383.9 317.213,-383.9 317.213,-371.9 317.213,-371.9 317.213,-365.9 323.213,-359.9 329.213,-359.9 329.213,-359.9 370.787,-359.9 370.787,-359.9 376.787,-359.9 382.787,-365.9 382.787,-371.9 382.787,-371.9 382.787,-383.9 382.787,-383.9 382.787,-389.9 376.787,-395.9 370.787,-395.9"/>
<text text-anchor="middle" x="350" y="-373.7" font-family="Helvetica,sans-Serif" font-size="14.00">dir_goal</text>
</g>
<!-- set_up_configuration_and_start_provenance_tracking&#45;&gt;dir_goal -->
<g id="edge2" class="edge"><title>set_up_configuration_and_start_provenance_tracking&#45;&gt;dir_goal</title>
<path fill="none" stroke="black" d="M385.013,-439.045C379.187,-429.037 371.72,-416.21 365.179,-404.974"/>
<polygon fill="black" stroke="black" points="368.015,-402.889 359.959,-396.007 361.965,-406.411 368.015,-402.889"/>
</g>
<!-- rasterize_ohibc_rgn_raster_500m_shape_file_at_500m_resolution -->
<g id="node2" class="node"><title>rasterize_ohibc_rgn_raster_500m_shape_file_at_500m_resolution</title>
<polygon fill="#ccffcc" stroke="black" points="945.551,-316.6 518.449,-316.6 518.449,-280.6 945.551,-280.6 945.551,-316.6"/>
<text text-anchor="middle" x="732" y="-294.4" font-family="Helvetica,sans-Serif" font-size="14.00">rasterize_ohibc_rgn_raster_500m_shape_file_at_500m_resolution</text>
</g>
<!-- extent_of_howe_sound -->
<g id="node12" class="node"><title>extent_of_howe_sound</title>
<path fill="#ffffcc" stroke="black" d="M796.235,-244.6C796.235,-244.6 659.765,-244.6 659.765,-244.6 653.765,-244.6 647.765,-238.6 647.765,-232.6 647.765,-232.6 647.765,-220.6 647.765,-220.6 647.765,-214.6 653.765,-208.6 659.765,-208.6 659.765,-208.6 796.235,-208.6 796.235,-208.6 802.235,-208.6 808.235,-214.6 808.235,-220.6 808.235,-220.6 808.235,-232.6 808.235,-232.6 808.235,-238.6 802.235,-244.6 796.235,-244.6"/>
<text text-anchor="middle" x="728" y="-222.4" font-family="Helvetica,sans-Serif" font-size="14.00">extent_of_howe_sound</text>
</g>
<!-- rasterize_ohibc_rgn_raster_500m_shape_file_at_500m_resolution&#45;&gt;extent_of_howe_sound -->
<g id="edge4" class="edge"><title>rasterize_ohibc_rgn_raster_500m_shape_file_at_500m_resolution&#45;&gt;extent_of_howe_sound</title>
<path fill="none" stroke="black" d="M731.011,-280.297C730.57,-272.583 730.041,-263.312 729.549,-254.712"/>
<polygon fill="black" stroke="black" points="733.042,-254.488 728.977,-244.704 726.054,-254.888 733.042,-254.488"/>
</g>
<!-- load_and_create_howe_sound_wdpa_pep_files -->
<g id="node3" class="node"><title>load_and_create_howe_sound_wdpa_pep_files</title>
<polygon fill="#ccffcc" stroke="black" points="500.453,-316.6 187.547,-316.6 187.547,-280.6 500.453,-280.6 500.453,-316.6"/>
<text text-anchor="middle" x="344" y="-294.4" font-family="Helvetica,sans-Serif" font-size="14.00">load_and_create_howe_sound_wdpa_pep_files</text>
</g>
<!-- hs_wdpa_rast_file_handle -->
<g id="node13" class="node"><title>hs_wdpa_rast_file_handle</title>
<path fill="#ffffcc" stroke="black" d="M421.108,-244.6C421.108,-244.6 266.892,-244.6 266.892,-244.6 260.892,-244.6 254.892,-238.6 254.892,-232.6 254.892,-232.6 254.892,-220.6 254.892,-220.6 254.892,-214.6 260.892,-208.6 266.892,-208.6 266.892,-208.6 421.108,-208.6 421.108,-208.6 427.108,-208.6 433.108,-214.6 433.108,-220.6 433.108,-220.6 433.108,-232.6 433.108,-232.6 433.108,-238.6 427.108,-244.6 421.108,-244.6"/>
<text text-anchor="middle" x="344" y="-222.4" font-family="Helvetica,sans-Serif" font-size="14.00">hs_wdpa_rast_file_handle</text>
</g>
<!-- load_and_create_howe_sound_wdpa_pep_files&#45;&gt;hs_wdpa_rast_file_handle -->
<g id="edge7" class="edge"><title>load_and_create_howe_sound_wdpa_pep_files&#45;&gt;hs_wdpa_rast_file_handle</title>
<path fill="none" stroke="black" d="M344,-280.297C344,-272.583 344,-263.312 344,-254.712"/>
<polygon fill="black" stroke="black" points="347.5,-254.704 344,-244.704 340.5,-254.704 347.5,-254.704"/>
</g>
<!-- hs_pep_rast_file_handle -->
<g id="node14" class="node"><title>hs_pep_rast_file_handle</title>
<path fill="#ffffcc" stroke="black" d="M614.001,-244.6C614.001,-244.6 469.999,-244.6 469.999,-244.6 463.999,-244.6 457.999,-238.6 457.999,-232.6 457.999,-232.6 457.999,-220.6 457.999,-220.6 457.999,-214.6 463.999,-208.6 469.999,-208.6 469.999,-208.6 614.001,-208.6 614.001,-208.6 620.001,-208.6 626.001,-214.6 626.001,-220.6 626.001,-220.6 626.001,-232.6 626.001,-232.6 626.001,-238.6 620.001,-244.6 614.001,-244.6"/>
<text text-anchor="middle" x="542" y="-222.4" font-family="Helvetica,sans-Serif" font-size="14.00">hs_pep_rast_file_handle</text>
</g>
<!-- load_and_create_howe_sound_wdpa_pep_files&#45;&gt;hs_pep_rast_file_handle -->
<g id="edge8" class="edge"><title>load_and_create_howe_sound_wdpa_pep_files&#45;&gt;hs_pep_rast_file_handle</title>
<path fill="none" stroke="black" d="M392.183,-280.566C419.848,-270.785 454.777,-258.436 483.948,-248.124"/>
<polygon fill="black" stroke="black" points="485.339,-251.344 493.601,-244.711 483.006,-244.744 485.339,-251.344"/>
</g>
<!-- rasterize_howe_sound_wdpa_shape_file -->
<g id="node4" class="node"><title>rasterize_howe_sound_wdpa_shape_file</title>
<polygon fill="#ccffcc" stroke="black" points="478.635,-172.6 209.365,-172.6 209.365,-136.6 478.635,-136.6 478.635,-172.6"/>
<text text-anchor="middle" x="344" y="-150.4" font-family="Helvetica,sans-Serif" font-size="14.00">rasterize_howe_sound_wdpa_shape_file</text>
</g>
<!-- hs_wdpa_rast_file -->
<g id="node6" class="node"><title>hs_wdpa_rast_file</title>
<path fill="#ffffcc" stroke="black" d="M211.074,-50.5C211.074,-50.5 476.926,-50.5 476.926,-50.5 482.926,-50.5 488.926,-56.5 488.926,-62.5 488.926,-62.5 488.926,-88.1 488.926,-88.1 488.926,-94.1 482.926,-100.1 476.926,-100.1 476.926,-100.1 211.074,-100.1 211.074,-100.1 205.074,-100.1 199.074,-94.1 199.074,-88.1 199.074,-88.1 199.074,-62.5 199.074,-62.5 199.074,-56.5 205.074,-50.5 211.074,-50.5"/>
<text text-anchor="middle" x="344" y="-83.5" font-family="Helvetica,sans-Serif" font-size="14.00">hs_wdpa_rast_file</text>
<polyline fill="none" stroke="black" points="199.074,-75.3 488.926,-75.3 "/>
<text text-anchor="middle" x="344" y="-58.7" font-family="Helvetica,sans-Serif" font-size="14.00">file:{dir_goal}/spatial/hs_wdpa_rast_500m.tif</text>
</g>
<!-- rasterize_howe_sound_wdpa_shape_file&#45;&gt;hs_wdpa_rast_file -->
<g id="edge12" class="edge"><title>rasterize_howe_sound_wdpa_shape_file&#45;&gt;hs_wdpa_rast_file</title>
<path fill="none" stroke="black" d="M344,-136.445C344,-128.689 344,-119.239 344,-110.15"/>
<polygon fill="black" stroke="black" points="347.5,-110.15 344,-100.15 340.5,-110.15 347.5,-110.15"/>
</g>
<!-- rasterize_howe_sound_pep_shape_file -->
<g id="node5" class="node"><title>rasterize_howe_sound_pep_shape_file</title>
<polygon fill="#ccffcc" stroke="black" points="857.529,-172.6 598.471,-172.6 598.471,-136.6 857.529,-136.6 857.529,-172.6"/>
<text text-anchor="middle" x="728" y="-150.4" font-family="Helvetica,sans-Serif" font-size="14.00">rasterize_howe_sound_pep_shape_file</text>
</g>
<!-- hs_pep_rast_file -->
<g id="node7" class="node"><title>hs_pep_rast_file</title>
<path fill="#ffffcc" stroke="black" d="M600.128,-50.5C600.128,-50.5 855.872,-50.5 855.872,-50.5 861.872,-50.5 867.872,-56.5 867.872,-62.5 867.872,-62.5 867.872,-88.1 867.872,-88.1 867.872,-94.1 861.872,-100.1 855.872,-100.1 855.872,-100.1 600.128,-100.1 600.128,-100.1 594.128,-100.1 588.128,-94.1 588.128,-88.1 588.128,-88.1 588.128,-62.5 588.128,-62.5 588.128,-56.5 594.128,-50.5 600.128,-50.5"/>
<text text-anchor="middle" x="728" y="-83.5" font-family="Helvetica,sans-Serif" font-size="14.00">hs_pep_rast_file</text>
<polyline fill="none" stroke="black" points="588.128,-75.3 867.872,-75.3 "/>
<text text-anchor="middle" x="728" y="-58.7" font-family="Helvetica,sans-Serif" font-size="14.00">file:{dir_goal}/spatial/hs_pep_rast_500m.tif</text>
</g>
<!-- rasterize_howe_sound_pep_shape_file&#45;&gt;hs_pep_rast_file -->
<g id="edge16" class="edge"><title>rasterize_howe_sound_pep_shape_file&#45;&gt;hs_pep_rast_file</title>
<path fill="none" stroke="black" d="M728,-136.445C728,-128.689 728,-119.239 728,-110.15"/>
<polygon fill="black" stroke="black" points="731.5,-110.15 728,-100.15 724.5,-110.15 731.5,-110.15"/>
</g>
<!-- hs_wdpa_rast_file_output_port -->
<g id="node21" class="node"><title>hs_wdpa_rast_file_output_port</title>
<ellipse fill="#ffffff" stroke="black" cx="344" cy="-7" rx="7" ry="7"/>
</g>
<!-- hs_wdpa_rast_file&#45;&gt;hs_wdpa_rast_file_output_port -->
<g id="edge24" class="edge"><title>hs_wdpa_rast_file&#45;&gt;hs_wdpa_rast_file_output_port</title>
<path fill="none" stroke="black" d="M344,-50.3642C344,-41.694 344,-32.1105 344,-24.2546"/>
<polygon fill="black" stroke="black" points="347.5,-24.0006 344,-14.0006 340.5,-24.0007 347.5,-24.0006"/>
</g>
<!-- hs_pep_rast_file_output_port -->
<g id="node22" class="node"><title>hs_pep_rast_file_output_port</title>
<ellipse fill="#ffffff" stroke="black" cx="728" cy="-7" rx="7" ry="7"/>
</g>
<!-- hs_pep_rast_file&#45;&gt;hs_pep_rast_file_output_port -->
<g id="edge25" class="edge"><title>hs_pep_rast_file&#45;&gt;hs_pep_rast_file_output_port</title>
<path fill="none" stroke="black" d="M728,-50.3642C728,-41.694 728,-32.1105 728,-24.2546"/>
<polygon fill="black" stroke="black" points="731.5,-24.0006 728,-14.0006 724.5,-24.0007 731.5,-24.0006"/>
</g>
<!-- setup.R -->
<g id="node8" class="node"><title>setup.R</title>
<path fill="#ffffcc" stroke="black" d="M415.236,-547.2C415.236,-547.2 374.764,-547.2 374.764,-547.2 368.764,-547.2 362.764,-541.2 362.764,-535.2 362.764,-535.2 362.764,-523.2 362.764,-523.2 362.764,-517.2 368.764,-511.2 374.764,-511.2 374.764,-511.2 415.236,-511.2 415.236,-511.2 421.236,-511.2 427.236,-517.2 427.236,-523.2 427.236,-523.2 427.236,-535.2 427.236,-535.2 427.236,-541.2 421.236,-547.2 415.236,-547.2"/>
<text text-anchor="middle" x="395" y="-525" font-family="Helvetica,sans-Serif" font-size="14.00">setup.R</text>
</g>
<!-- setup.R&#45;&gt;set_up_configuration_and_start_provenance_tracking -->
<g id="edge3" class="edge"><title>setup.R&#45;&gt;set_up_configuration_and_start_provenance_tracking</title>
<path fill="none" stroke="black" d="M395,-510.897C395,-503.183 395,-493.912 395,-485.312"/>
<polygon fill="black" stroke="black" points="398.5,-485.304 395,-475.304 391.5,-485.304 398.5,-485.304"/>
</g>
<!-- ohibc_rgn_raster_500m -->
<g id="node9" class="node"><title>ohibc_rgn_raster_500m</title>
<path fill="#ffffcc" stroke="black" d="M779.47,-353.1C779.47,-353.1 1072.53,-353.1 1072.53,-353.1 1078.53,-353.1 1084.53,-359.1 1084.53,-365.1 1084.53,-365.1 1084.53,-390.7 1084.53,-390.7 1084.53,-396.7 1078.53,-402.7 1072.53,-402.7 1072.53,-402.7 779.47,-402.7 779.47,-402.7 773.47,-402.7 767.47,-396.7 767.47,-390.7 767.47,-390.7 767.47,-365.1 767.47,-365.1 767.47,-359.1 773.47,-353.1 779.47,-353.1"/>
<text text-anchor="middle" x="926" y="-386.1" font-family="Helvetica,sans-Serif" font-size="14.00">ohibc_rgn_raster_500m</text>
<polyline fill="none" stroke="black" points="767.47,-377.9 1084.53,-377.9 "/>
<text text-anchor="middle" x="926" y="-361.3" font-family="Helvetica,sans-Serif" font-size="14.00">file:{dir_spatial}/raster/ohibc_rgn_raster_500m.tif</text>
</g>
<!-- ohibc_rgn_raster_500m&#45;&gt;rasterize_ohibc_rgn_raster_500m_shape_file_at_500m_resolution -->
<g id="edge6" class="edge"><title>ohibc_rgn_raster_500m&#45;&gt;rasterize_ohibc_rgn_raster_500m_shape_file_at_500m_resolution</title>
<path fill="none" stroke="black" d="M866.211,-353.077C839.951,-342.614 809.403,-330.442 784.091,-320.356"/>
<polygon fill="black" stroke="black" points="785.251,-317.051 774.666,-316.6 782.66,-323.553 785.251,-317.051"/>
</g>
<!-- hs_wdpa_shp_file -->
<g id="node10" class="node"><title>hs_wdpa_shp_file</title>
<path fill="#ffffcc" stroke="black" d="M50.4622,-353.1C50.4622,-353.1 287.538,-353.1 287.538,-353.1 293.538,-353.1 299.538,-359.1 299.538,-365.1 299.538,-365.1 299.538,-390.7 299.538,-390.7 299.538,-396.7 293.538,-402.7 287.538,-402.7 287.538,-402.7 50.4622,-402.7 50.4622,-402.7 44.4622,-402.7 38.4622,-396.7 38.4622,-390.7 38.4622,-390.7 38.4622,-365.1 38.4622,-365.1 38.4622,-359.1 44.4622,-353.1 50.4622,-353.1"/>
<text text-anchor="middle" x="169" y="-386.1" font-family="Helvetica,sans-Serif" font-size="14.00">hs_wdpa_shp_file</text>
<polyline fill="none" stroke="black" points="38.4622,-377.9 299.538,-377.9 "/>
<text text-anchor="middle" x="169" y="-361.3" font-family="Helvetica,sans-Serif" font-size="14.00">file:{dir_goal}/spatial/hs_wdpa_poly.shp</text>
</g>
<!-- hs_wdpa_shp_file&#45;&gt;load_and_create_howe_sound_wdpa_pep_files -->
<g id="edge10" class="edge"><title>hs_wdpa_shp_file&#45;&gt;load_and_create_howe_sound_wdpa_pep_files</title>
<path fill="none" stroke="black" d="M222.934,-353.077C246.308,-342.752 273.45,-330.763 296.103,-320.757"/>
<polygon fill="black" stroke="black" points="297.779,-323.843 305.513,-316.6 294.951,-317.439 297.779,-323.843"/>
</g>
<!-- hs_wdpa_shp_file&#45;&gt;rasterize_howe_sound_wdpa_shape_file -->
<g id="edge13" class="edge"><title>hs_wdpa_shp_file&#45;&gt;rasterize_howe_sound_wdpa_shape_file</title>
<path fill="none" stroke="black" d="M167.359,-352.848C166.93,-332.671 168.571,-303.555 179,-280.6 201.204,-231.729 253.668,-197.333 293.522,-177.158"/>
<polygon fill="black" stroke="black" points="295.155,-180.256 302.585,-172.703 292.067,-173.974 295.155,-180.256"/>
</g>
<!-- hs_pep_shp_file -->
<g id="node11" class="node"><title>hs_pep_shp_file</title>
<path fill="#ffffcc" stroke="black" d="M510.516,-353.1C510.516,-353.1 737.485,-353.1 737.485,-353.1 743.485,-353.1 749.485,-359.1 749.485,-365.1 749.485,-365.1 749.485,-390.7 749.485,-390.7 749.485,-396.7 743.485,-402.7 737.485,-402.7 737.485,-402.7 510.516,-402.7 510.516,-402.7 504.516,-402.7 498.516,-396.7 498.516,-390.7 498.516,-390.7 498.516,-365.1 498.516,-365.1 498.516,-359.1 504.516,-353.1 510.516,-353.1"/>
<text text-anchor="middle" x="624" y="-386.1" font-family="Helvetica,sans-Serif" font-size="14.00">hs_pep_shp_file</text>
<polyline fill="none" stroke="black" points="498.516,-377.9 749.485,-377.9 "/>
<text text-anchor="middle" x="624" y="-361.3" font-family="Helvetica,sans-Serif" font-size="14.00">file:{dir_goal}/spatial/hs_pep_poly.shp</text>
</g>
<!-- hs_pep_shp_file&#45;&gt;load_and_create_howe_sound_wdpa_pep_files -->
<g id="edge11" class="edge"><title>hs_pep_shp_file&#45;&gt;load_and_create_howe_sound_wdpa_pep_files</title>
<path fill="none" stroke="black" d="M537.706,-353.077C498.47,-342.245 452.601,-329.582 415.349,-319.297"/>
<polygon fill="black" stroke="black" points="416.151,-315.888 405.58,-316.6 414.288,-322.635 416.151,-315.888"/>
</g>
<!-- hs_pep_shp_file&#45;&gt;rasterize_howe_sound_pep_shape_file -->
<g id="edge17" class="edge"><title>hs_pep_shp_file&#45;&gt;rasterize_howe_sound_pep_shape_file</title>
<path fill="none" stroke="black" d="M749.552,-354.086C843.155,-337.068 954.891,-316.73 955,-316.6 1008.27,-252.745 887.301,-201.977 802.304,-175.562"/>
<polygon fill="black" stroke="black" points="803.235,-172.187 792.649,-172.617 801.193,-178.883 803.235,-172.187"/>
</g>
<!-- extent_of_howe_sound&#45;&gt;rasterize_howe_sound_wdpa_shape_file -->
<g id="edge14" class="edge"><title>extent_of_howe_sound&#45;&gt;rasterize_howe_sound_wdpa_shape_file</title>
<path fill="none" stroke="black" d="M647.598,-210.9C643.337,-210.122 639.117,-209.351 635,-208.6 572.808,-197.252 503.136,-184.562 447.56,-174.445"/>
<polygon fill="black" stroke="black" points="448.171,-170.999 437.706,-172.651 446.918,-177.885 448.171,-170.999"/>
</g>
<!-- extent_of_howe_sound&#45;&gt;rasterize_howe_sound_pep_shape_file -->
<g id="edge18" class="edge"><title>extent_of_howe_sound&#45;&gt;rasterize_howe_sound_pep_shape_file</title>
<path fill="none" stroke="black" d="M728,-208.297C728,-200.583 728,-191.312 728,-182.712"/>
<polygon fill="black" stroke="black" points="731.5,-182.704 728,-172.704 724.5,-182.704 731.5,-182.704"/>
</g>
<!-- hs_wdpa_rast_file_handle&#45;&gt;rasterize_howe_sound_wdpa_shape_file -->
<g id="edge15" class="edge"><title>hs_wdpa_rast_file_handle&#45;&gt;rasterize_howe_sound_wdpa_shape_file</title>
<path fill="none" stroke="black" d="M344,-208.297C344,-200.583 344,-191.312 344,-182.712"/>
<polygon fill="black" stroke="black" points="347.5,-182.704 344,-172.704 340.5,-182.704 347.5,-182.704"/>
</g>
<!-- hs_pep_rast_file_handle&#45;&gt;rasterize_howe_sound_pep_shape_file -->
<g id="edge19" class="edge"><title>hs_pep_rast_file_handle&#45;&gt;rasterize_howe_sound_pep_shape_file</title>
<path fill="none" stroke="black" d="M587.501,-208.476C613.38,-198.737 645.967,-186.472 673.241,-176.208"/>
<polygon fill="black" stroke="black" points="674.521,-179.466 682.647,-172.668 672.055,-172.915 674.521,-179.466"/>
</g>
<!-- dir_spatial&#45;&gt;rasterize_ohibc_rgn_raster_500m_shape_file_at_500m_resolution -->
<g id="edge5" class="edge"><title>dir_spatial&#45;&gt;rasterize_ohibc_rgn_raster_500m_shape_file_at_500m_resolution</title>
<path fill="none" stroke="black" d="M472.669,-359.797C478.337,-357.141 484.267,-354.615 490,-352.6 530.766,-338.272 576.806,-327.027 617.703,-318.652"/>
<polygon fill="black" stroke="black" points="618.595,-322.043 627.708,-316.639 617.214,-315.18 618.595,-322.043"/>
</g>
<!-- dir_goal&#45;&gt;load_and_create_howe_sound_wdpa_pep_files -->
<g id="edge9" class="edge"><title>dir_goal&#45;&gt;load_and_create_howe_sound_wdpa_pep_files</title>
<path fill="none" stroke="black" d="M348.668,-359.745C347.915,-350.037 346.956,-337.677 346.103,-326.69"/>
<polygon fill="black" stroke="black" points="349.591,-326.407 345.328,-316.707 342.612,-326.948 349.591,-326.407"/>
</g>
<!-- setup.R_input_port -->
<g id="node17" class="node"><title>setup.R_input_port</title>
<ellipse fill="#ffffff" stroke="black" cx="395" cy="-590.2" rx="7" ry="7"/>
</g>
<!-- setup.R_input_port&#45;&gt;setup.R -->
<g id="edge20" class="edge"><title>setup.R_input_port&#45;&gt;setup.R</title>
<path fill="none" stroke="black" d="M395,-582.886C395,-576.686 395,-566.795 395,-557.248"/>
<polygon fill="black" stroke="black" points="398.5,-557.216 395,-547.216 391.5,-557.216 398.5,-557.216"/>
</g>
<!-- hs_wdpa_shp_file_input_port -->
<g id="node18" class="node"><title>hs_wdpa_shp_file_input_port</title>
<ellipse fill="#ffffff" stroke="black" cx="7" cy="-457.2" rx="7" ry="7"/>
</g>
<!-- hs_wdpa_shp_file_input_port&#45;&gt;hs_wdpa_shp_file -->
<g id="edge21" class="edge"><title>hs_wdpa_shp_file_input_port&#45;&gt;hs_wdpa_shp_file</title>
<path fill="none" stroke="black" d="M11.3364,-451.547C14.9799,-447.839 20.4654,-442.705 26,-439.2 45.8292,-426.644 68.721,-415.651 90.2952,-406.611"/>
<polygon fill="black" stroke="black" points="91.8462,-409.758 99.7722,-402.728 89.1918,-403.281 91.8462,-409.758"/>
</g>
<!-- hs_pep_shp_file_input_port -->
<g id="node19" class="node"><title>hs_pep_shp_file_input_port</title>
<ellipse fill="#ffffff" stroke="black" cx="1116" cy="-457.2" rx="7" ry="7"/>
</g>
<!-- hs_pep_shp_file_input_port&#45;&gt;hs_pep_shp_file -->
<g id="edge22" class="edge"><title>hs_pep_shp_file_input_port&#45;&gt;hs_pep_shp_file</title>
<path fill="none" stroke="black" d="M1111.91,-451.095C1108.4,-447.125 1102.99,-441.858 1097,-439.2 961.497,-379.037 910.189,-422.762 759.558,-403.32"/>
<polygon fill="black" stroke="black" points="759.872,-399.83 749.49,-401.946 758.925,-406.766 759.872,-399.83"/>
</g>
<!-- ohibc_rgn_raster_500m_input_port -->
<g id="node20" class="node"><title>ohibc_rgn_raster_500m_input_port</title>
<ellipse fill="#ffffff" stroke="black" cx="1148" cy="-457.2" rx="7" ry="7"/>
</g>
<!-- ohibc_rgn_raster_500m_input_port&#45;&gt;ohibc_rgn_raster_500m -->
<g id="edge23" class="edge"><title>ohibc_rgn_raster_500m_input_port&#45;&gt;ohibc_rgn_raster_500m</title>
<path fill="none" stroke="black" d="M1144.35,-451.038C1141.42,-447.249 1136.97,-442.252 1132,-439.2 1109.01,-425.1 1082.56,-414.153 1056.44,-405.704"/>
<polygon fill="black" stroke="black" points="1057.43,-402.345 1046.84,-402.702 1055.34,-409.027 1057.43,-402.345"/>
</g>
</g>
</svg>
