<?xml version="1.0" encoding="UTF-8" standalone="no"?>
<!DOCTYPE svg PUBLIC "-//W3C//DTD SVG 1.1//EN"
 "http://www.w3.org/Graphics/SVG/1.1/DTD/svg11.dtd">
<!-- Generated by graphviz version 2.38.0 (20140413.2041)
 -->
<!-- Title: Workflow Pages: 1 -->
<svg width="962pt" height="649pt"
 viewBox="0.00 0.00 962.00 649.40" xmlns="http://www.w3.org/2000/svg" xmlns:xlink="http://www.w3.org/1999/xlink">
<g id="graph0" class="graph" transform="scale(1 1) rotate(0) translate(4 645.4)">
<title>Workflow</title>
<polygon fill="white" stroke="none" points="-4,4 -4,-645.4 958,-645.4 958,4 -4,4"/>
<text text-anchor="middle" x="477" y="-621.2" font-family="Helvetica,sans-Serif" font-size="18.00">Rasterize_BC_WDPA_MPA_Shapefile_Howe_Sound_extents</text>
<g id="clust1" class="cluster"><title>cluster_workflow_box_outer</title>
<polygon fill="none" stroke="black" stroke-width="2" points="22,-34 22,-577.8 932,-577.8 932,-34 22,-34"/>
</g>
<g id="clust2" class="cluster"><title>cluster_workflow_box_inner</title>
<polygon fill="none" stroke="black" stroke-width="0" points="30,-42 30,-569.8 924,-569.8 924,-42 30,-42"/>
</g>
<!-- set_up_configuration_and_start_provenance_tracking -->
<g id="node1" class="node"><title>set_up_configuration_and_start_provenance_tracking</title>
<polygon fill="#ccffcc" stroke="black" points="657.784,-489.8 308.216,-489.8 308.216,-453.8 657.784,-453.8 657.784,-489.8"/>
<text text-anchor="middle" x="483" y="-467.6" font-family="Helvetica,sans-Serif" font-size="14.00">set_up_configuration_and_start_provenance_tracking</text>
</g>
<!-- dir_spatial -->
<g id="node13" class="node"><title>dir_spatial</title>
<path fill="#fcfcfc" stroke="black" d="M551.784,-410.5C551.784,-410.5 496.216,-410.5 496.216,-410.5 490.216,-410.5 484.216,-404.5 484.216,-398.5 484.216,-398.5 484.216,-386.5 484.216,-386.5 484.216,-380.5 490.216,-374.5 496.216,-374.5 496.216,-374.5 551.784,-374.5 551.784,-374.5 557.784,-374.5 563.784,-380.5 563.784,-386.5 563.784,-386.5 563.784,-398.5 563.784,-398.5 563.784,-404.5 557.784,-410.5 551.784,-410.5"/>
<text text-anchor="middle" x="524" y="-388.3" font-family="Helvetica,sans-Serif" font-size="14.00">dir_spatial</text>
</g>
<!-- set_up_configuration_and_start_provenance_tracking&#45;&gt;dir_spatial -->
<g id="edge1" class="edge"><title>set_up_configuration_and_start_provenance_tracking&#45;&gt;dir_spatial</title>
<path fill="none" stroke="black" d="M492.099,-453.645C497.407,-443.637 504.211,-430.81 510.17,-419.574"/>
<polygon fill="black" stroke="black" points="513.332,-421.082 514.926,-410.607 507.148,-417.802 513.332,-421.082"/>
</g>
<!-- dir_goal -->
<g id="node14" class="node"><title>dir_goal</title>
<path fill="#fcfcfc" stroke="black" d="M457.787,-331.2C457.787,-331.2 416.213,-331.2 416.213,-331.2 410.213,-331.2 404.213,-325.2 404.213,-319.2 404.213,-319.2 404.213,-307.2 404.213,-307.2 404.213,-301.2 410.213,-295.2 416.213,-295.2 416.213,-295.2 457.787,-295.2 457.787,-295.2 463.787,-295.2 469.787,-301.2 469.787,-307.2 469.787,-307.2 469.787,-319.2 469.787,-319.2 469.787,-325.2 463.787,-331.2 457.787,-331.2"/>
<text text-anchor="middle" x="437" y="-309" font-family="Helvetica,sans-Serif" font-size="14.00">dir_goal</text>
</g>
<!-- set_up_configuration_and_start_provenance_tracking&#45;&gt;dir_goal -->
<g id="edge2" class="edge"><title>set_up_configuration_and_start_provenance_tracking&#45;&gt;dir_goal</title>
<path fill="none" stroke="black" d="M477.99,-453.743C470.005,-426.561 454.331,-373.201 444.848,-340.917"/>
<polygon fill="black" stroke="black" points="448.181,-339.844 442.004,-331.236 441.464,-341.817 448.181,-339.844"/>
</g>
<!-- rasterize_ohibc_rgn_raster_500m_shape_file_at_500m_resolution -->
<g id="node2" class="node"><title>rasterize_ohibc_rgn_raster_500m_shape_file_at_500m_resolution</title>
<polygon fill="#ccffcc" stroke="black" points="915.551,-331.2 488.449,-331.2 488.449,-295.2 915.551,-295.2 915.551,-331.2"/>
<text text-anchor="middle" x="702" y="-309" font-family="Helvetica,sans-Serif" font-size="14.00">rasterize_ohibc_rgn_raster_500m_shape_file_at_500m_resolution</text>
</g>
<!-- extent_of_howe_sound -->
<g id="node12" class="node"><title>extent_of_howe_sound</title>
<path fill="#ffffcc" stroke="black" d="M632.235,-251.9C632.235,-251.9 495.765,-251.9 495.765,-251.9 489.765,-251.9 483.765,-245.9 483.765,-239.9 483.765,-239.9 483.765,-227.9 483.765,-227.9 483.765,-221.9 489.765,-215.9 495.765,-215.9 495.765,-215.9 632.235,-215.9 632.235,-215.9 638.235,-215.9 644.235,-221.9 644.235,-227.9 644.235,-227.9 644.235,-239.9 644.235,-239.9 644.235,-245.9 638.235,-251.9 632.235,-251.9"/>
<text text-anchor="middle" x="564" y="-229.7" font-family="Helvetica,sans-Serif" font-size="14.00">extent_of_howe_sound</text>
</g>
<!-- rasterize_ohibc_rgn_raster_500m_shape_file_at_500m_resolution&#45;&gt;extent_of_howe_sound -->
<g id="edge4" class="edge"><title>rasterize_ohibc_rgn_raster_500m_shape_file_at_500m_resolution&#45;&gt;extent_of_howe_sound</title>
<path fill="none" stroke="black" d="M671.373,-295.045C651.363,-283.836 625.039,-269.091 603.464,-257.006"/>
<polygon fill="black" stroke="black" points="604.976,-253.841 594.541,-252.007 601.555,-259.948 604.976,-253.841"/>
</g>
<!-- load_and_create_howe_sound_wdpa_pep_files -->
<g id="node3" class="node"><title>load_and_create_howe_sound_wdpa_pep_files</title>
<polygon fill="#ccffcc" stroke="black" points="638.453,-172.6 325.547,-172.6 325.547,-136.6 638.453,-136.6 638.453,-172.6"/>
<text text-anchor="middle" x="482" y="-150.4" font-family="Helvetica,sans-Serif" font-size="14.00">load_and_create_howe_sound_wdpa_pep_files</text>
</g>
<!-- hs_wdpa_rast_file -->
<g id="node6" class="node"><title>hs_wdpa_rast_file</title>
<path fill="#ffffcc" stroke="black" d="M195.074,-50.5C195.074,-50.5 460.926,-50.5 460.926,-50.5 466.926,-50.5 472.926,-56.5 472.926,-62.5 472.926,-62.5 472.926,-88.1 472.926,-88.1 472.926,-94.1 466.926,-100.1 460.926,-100.1 460.926,-100.1 195.074,-100.1 195.074,-100.1 189.074,-100.1 183.074,-94.1 183.074,-88.1 183.074,-88.1 183.074,-62.5 183.074,-62.5 183.074,-56.5 189.074,-50.5 195.074,-50.5"/>
<text text-anchor="middle" x="328" y="-83.5" font-family="Helvetica,sans-Serif" font-size="14.00">hs_wdpa_rast_file</text>
<polyline fill="none" stroke="black" points="183.074,-75.3 472.926,-75.3 "/>
<text text-anchor="middle" x="328" y="-58.7" font-family="Helvetica,sans-Serif" font-size="14.00">file:{dir_goal}/spatial/hs_wdpa_rast_500m.tif</text>
</g>
<!-- load_and_create_howe_sound_wdpa_pep_files&#45;&gt;hs_wdpa_rast_file -->
<g id="edge7" class="edge"><title>load_and_create_howe_sound_wdpa_pep_files&#45;&gt;hs_wdpa_rast_file</title>
<path fill="none" stroke="black" d="M447.822,-136.445C429.214,-127.104 405.713,-115.308 384.463,-104.641"/>
<polygon fill="black" stroke="black" points="386.022,-101.508 375.514,-100.15 382.881,-107.764 386.022,-101.508"/>
</g>
<!-- hs_pep_rast_file -->
<g id="node7" class="node"><title>hs_pep_rast_file</title>
<path fill="#ffffcc" stroke="black" d="M575.128,-50.5C575.128,-50.5 830.872,-50.5 830.872,-50.5 836.872,-50.5 842.872,-56.5 842.872,-62.5 842.872,-62.5 842.872,-88.1 842.872,-88.1 842.872,-94.1 836.872,-100.1 830.872,-100.1 830.872,-100.1 575.128,-100.1 575.128,-100.1 569.128,-100.1 563.128,-94.1 563.128,-88.1 563.128,-88.1 563.128,-62.5 563.128,-62.5 563.128,-56.5 569.128,-50.5 575.128,-50.5"/>
<text text-anchor="middle" x="703" y="-83.5" font-family="Helvetica,sans-Serif" font-size="14.00">hs_pep_rast_file</text>
<polyline fill="none" stroke="black" points="563.128,-75.3 842.872,-75.3 "/>
<text text-anchor="middle" x="703" y="-58.7" font-family="Helvetica,sans-Serif" font-size="14.00">file:{dir_goal}/spatial/hs_pep_rast_500m.tif</text>
</g>
<!-- load_and_create_howe_sound_wdpa_pep_files&#45;&gt;hs_pep_rast_file -->
<g id="edge8" class="edge"><title>load_and_create_howe_sound_wdpa_pep_files&#45;&gt;hs_pep_rast_file</title>
<path fill="none" stroke="black" d="M530.773,-136.54C558.42,-126.87 593.658,-114.545 625.048,-103.566"/>
<polygon fill="black" stroke="black" points="626.37,-106.811 634.654,-100.206 624.059,-100.204 626.37,-106.811"/>
</g>
<!-- rasterize_howe_sound_wdpa_shape_file -->
<g id="node4" class="node"><title>rasterize_howe_sound_wdpa_shape_file</title>
<polygon fill="#ccffcc" stroke="black" points="307.635,-172.6 38.3646,-172.6 38.3646,-136.6 307.635,-136.6 307.635,-172.6"/>
<text text-anchor="middle" x="173" y="-150.4" font-family="Helvetica,sans-Serif" font-size="14.00">rasterize_howe_sound_wdpa_shape_file</text>
</g>
<!-- rasterize_howe_sound_wdpa_shape_file&#45;&gt;hs_wdpa_rast_file -->
<g id="edge12" class="edge"><title>rasterize_howe_sound_wdpa_shape_file&#45;&gt;hs_wdpa_rast_file</title>
<path fill="none" stroke="black" d="M207.4,-136.445C226.129,-127.104 249.783,-115.308 271.171,-104.641"/>
<polygon fill="black" stroke="black" points="272.79,-107.745 280.177,-100.15 269.666,-101.481 272.79,-107.745"/>
</g>
<!-- rasterize_howe_sound_pep_shape_file -->
<g id="node5" class="node"><title>rasterize_howe_sound_pep_shape_file</title>
<polygon fill="#ccffcc" stroke="black" points="915.529,-172.6 656.471,-172.6 656.471,-136.6 915.529,-136.6 915.529,-172.6"/>
<text text-anchor="middle" x="786" y="-150.4" font-family="Helvetica,sans-Serif" font-size="14.00">rasterize_howe_sound_pep_shape_file</text>
</g>
<!-- rasterize_howe_sound_pep_shape_file&#45;&gt;hs_pep_rast_file -->
<g id="edge15" class="edge"><title>rasterize_howe_sound_pep_shape_file&#45;&gt;hs_pep_rast_file</title>
<path fill="none" stroke="black" d="M767.58,-136.445C758.356,-127.855 746.903,-117.188 736.214,-107.233"/>
<polygon fill="black" stroke="black" points="738.312,-104.404 728.608,-100.15 733.541,-109.526 738.312,-104.404"/>
</g>
<!-- hs_wdpa_rast_file_output_port -->
<g id="node19" class="node"><title>hs_wdpa_rast_file_output_port</title>
<ellipse fill="#ffffff" stroke="black" cx="328" cy="-7" rx="7" ry="7"/>
</g>
<!-- hs_wdpa_rast_file&#45;&gt;hs_wdpa_rast_file_output_port -->
<g id="edge22" class="edge"><title>hs_wdpa_rast_file&#45;&gt;hs_wdpa_rast_file_output_port</title>
<path fill="none" stroke="black" d="M328,-50.3642C328,-41.694 328,-32.1105 328,-24.2546"/>
<polygon fill="black" stroke="black" points="331.5,-24.0006 328,-14.0006 324.5,-24.0007 331.5,-24.0006"/>
</g>
<!-- hs_pep_rast_file_output_port -->
<g id="node20" class="node"><title>hs_pep_rast_file_output_port</title>
<ellipse fill="#ffffff" stroke="black" cx="703" cy="-7" rx="7" ry="7"/>
</g>
<!-- hs_pep_rast_file&#45;&gt;hs_pep_rast_file_output_port -->
<g id="edge23" class="edge"><title>hs_pep_rast_file&#45;&gt;hs_pep_rast_file_output_port</title>
<path fill="none" stroke="black" d="M703,-50.3642C703,-41.694 703,-32.1105 703,-24.2546"/>
<polygon fill="black" stroke="black" points="706.5,-24.0006 703,-14.0006 699.5,-24.0007 706.5,-24.0006"/>
</g>
<!-- setup.R -->
<g id="node8" class="node"><title>setup.R</title>
<path fill="#ffffcc" stroke="black" d="M503.236,-561.8C503.236,-561.8 462.764,-561.8 462.764,-561.8 456.764,-561.8 450.764,-555.8 450.764,-549.8 450.764,-549.8 450.764,-537.8 450.764,-537.8 450.764,-531.8 456.764,-525.8 462.764,-525.8 462.764,-525.8 503.236,-525.8 503.236,-525.8 509.236,-525.8 515.236,-531.8 515.236,-537.8 515.236,-537.8 515.236,-549.8 515.236,-549.8 515.236,-555.8 509.236,-561.8 503.236,-561.8"/>
<text text-anchor="middle" x="483" y="-539.6" font-family="Helvetica,sans-Serif" font-size="14.00">setup.R</text>
</g>
<!-- setup.R&#45;&gt;set_up_configuration_and_start_provenance_tracking -->
<g id="edge3" class="edge"><title>setup.R&#45;&gt;set_up_configuration_and_start_provenance_tracking</title>
<path fill="none" stroke="black" d="M483,-525.497C483,-517.783 483,-508.512 483,-499.912"/>
<polygon fill="black" stroke="black" points="486.5,-499.904 483,-489.904 479.5,-499.904 486.5,-499.904"/>
</g>
<!-- ohibc_rgn_raster_500m -->
<g id="node9" class="node"><title>ohibc_rgn_raster_500m</title>
<path fill="#ffffcc" stroke="black" d="M604.47,-367.7C604.47,-367.7 897.53,-367.7 897.53,-367.7 903.53,-367.7 909.53,-373.7 909.53,-379.7 909.53,-379.7 909.53,-405.3 909.53,-405.3 909.53,-411.3 903.53,-417.3 897.53,-417.3 897.53,-417.3 604.47,-417.3 604.47,-417.3 598.47,-417.3 592.47,-411.3 592.47,-405.3 592.47,-405.3 592.47,-379.7 592.47,-379.7 592.47,-373.7 598.47,-367.7 604.47,-367.7"/>
<text text-anchor="middle" x="751" y="-400.7" font-family="Helvetica,sans-Serif" font-size="14.00">ohibc_rgn_raster_500m</text>
<polyline fill="none" stroke="black" points="592.47,-392.5 909.53,-392.5 "/>
<text text-anchor="middle" x="751" y="-375.9" font-family="Helvetica,sans-Serif" font-size="14.00">file:{dir_spatial}/raster/ohibc_rgn_raster_500m.tif</text>
</g>
<!-- ohibc_rgn_raster_500m&#45;&gt;rasterize_ohibc_rgn_raster_500m_shape_file_at_500m_resolution -->
<g id="edge6" class="edge"><title>ohibc_rgn_raster_500m&#45;&gt;rasterize_ohibc_rgn_raster_500m_shape_file_at_500m_resolution</title>
<path fill="none" stroke="black" d="M735.765,-367.466C730.202,-358.69 723.892,-348.736 718.245,-339.827"/>
<polygon fill="black" stroke="black" points="721.181,-337.922 712.871,-331.349 715.269,-341.669 721.181,-337.922"/>
</g>
<!-- hs_wdpa_shp_file -->
<g id="node10" class="node"><title>hs_wdpa_shp_file</title>
<path fill="#ffffcc" stroke="black" d="M54.4622,-209.1C54.4622,-209.1 291.538,-209.1 291.538,-209.1 297.538,-209.1 303.538,-215.1 303.538,-221.1 303.538,-221.1 303.538,-246.7 303.538,-246.7 303.538,-252.7 297.538,-258.7 291.538,-258.7 291.538,-258.7 54.4622,-258.7 54.4622,-258.7 48.4622,-258.7 42.4622,-252.7 42.4622,-246.7 42.4622,-246.7 42.4622,-221.1 42.4622,-221.1 42.4622,-215.1 48.4622,-209.1 54.4622,-209.1"/>
<text text-anchor="middle" x="173" y="-242.1" font-family="Helvetica,sans-Serif" font-size="14.00">hs_wdpa_shp_file</text>
<polyline fill="none" stroke="black" points="42.4622,-233.9 303.538,-233.9 "/>
<text text-anchor="middle" x="173" y="-217.3" font-family="Helvetica,sans-Serif" font-size="14.00">file:{dir_goal}/spatial/hs_wdpa_poly.shp</text>
</g>
<!-- hs_wdpa_shp_file&#45;&gt;load_and_create_howe_sound_wdpa_pep_files -->
<g id="edge10" class="edge"><title>hs_wdpa_shp_file&#45;&gt;load_and_create_howe_sound_wdpa_pep_files</title>
<path fill="none" stroke="black" d="M268.232,-209.077C311.9,-198.153 363.014,-185.366 404.309,-175.035"/>
<polygon fill="black" stroke="black" points="405.191,-178.423 414.042,-172.6 403.492,-171.632 405.191,-178.423"/>
</g>
<!-- hs_wdpa_shp_file&#45;&gt;rasterize_howe_sound_wdpa_shape_file -->
<g id="edge13" class="edge"><title>hs_wdpa_shp_file&#45;&gt;rasterize_howe_sound_wdpa_shape_file</title>
<path fill="none" stroke="black" d="M173,-208.866C173,-200.639 173,-191.376 173,-182.909"/>
<polygon fill="black" stroke="black" points="176.5,-182.749 173,-172.749 169.5,-182.749 176.5,-182.749"/>
</g>
<!-- hs_pep_shp_file -->
<g id="node11" class="node"><title>hs_pep_shp_file</title>
<path fill="#ffffcc" stroke="black" d="M674.515,-209.1C674.515,-209.1 901.485,-209.1 901.485,-209.1 907.485,-209.1 913.485,-215.1 913.485,-221.1 913.485,-221.1 913.485,-246.7 913.485,-246.7 913.485,-252.7 907.485,-258.7 901.485,-258.7 901.485,-258.7 674.515,-258.7 674.515,-258.7 668.515,-258.7 662.515,-252.7 662.515,-246.7 662.515,-246.7 662.515,-221.1 662.515,-221.1 662.515,-215.1 668.515,-209.1 674.515,-209.1"/>
<text text-anchor="middle" x="788" y="-242.1" font-family="Helvetica,sans-Serif" font-size="14.00">hs_pep_shp_file</text>
<polyline fill="none" stroke="black" points="662.515,-233.9 913.485,-233.9 "/>
<text text-anchor="middle" x="788" y="-217.3" font-family="Helvetica,sans-Serif" font-size="14.00">file:{dir_goal}/spatial/hs_pep_poly.shp</text>
</g>
<!-- hs_pep_shp_file&#45;&gt;load_and_create_howe_sound_wdpa_pep_files -->
<g id="edge11" class="edge"><title>hs_pep_shp_file&#45;&gt;load_and_create_howe_sound_wdpa_pep_files</title>
<path fill="none" stroke="black" d="M693.693,-209.077C650.54,-198.176 600.045,-185.42 559.196,-175.101"/>
<polygon fill="black" stroke="black" points="559.851,-171.656 549.298,-172.6 558.136,-178.443 559.851,-171.656"/>
</g>
<!-- hs_pep_shp_file&#45;&gt;rasterize_howe_sound_pep_shape_file -->
<g id="edge16" class="edge"><title>hs_pep_shp_file&#45;&gt;rasterize_howe_sound_pep_shape_file</title>
<path fill="none" stroke="black" d="M787.378,-208.866C787.165,-200.639 786.926,-191.376 786.707,-182.909"/>
<polygon fill="black" stroke="black" points="790.201,-182.655 786.444,-172.749 783.204,-182.837 790.201,-182.655"/>
</g>
<!-- extent_of_howe_sound&#45;&gt;rasterize_howe_sound_wdpa_shape_file -->
<g id="edge14" class="edge"><title>extent_of_howe_sound&#45;&gt;rasterize_howe_sound_wdpa_shape_file</title>
<path fill="none" stroke="black" d="M483.459,-216.977C421.262,-204.681 334.988,-187.625 269.17,-174.613"/>
<polygon fill="black" stroke="black" points="269.69,-171.148 259.201,-172.642 268.333,-178.015 269.69,-171.148"/>
</g>
<!-- extent_of_howe_sound&#45;&gt;rasterize_howe_sound_pep_shape_file -->
<g id="edge17" class="edge"><title>extent_of_howe_sound&#45;&gt;rasterize_howe_sound_pep_shape_file</title>
<path fill="none" stroke="black" d="M612.994,-215.84C646.724,-204.095 691.703,-188.434 727.344,-176.024"/>
<polygon fill="black" stroke="black" points="728.839,-179.21 737.131,-172.616 726.537,-172.599 728.839,-179.21"/>
</g>
<!-- dir_spatial&#45;&gt;rasterize_ohibc_rgn_raster_500m_shape_file_at_500m_resolution -->
<g id="edge5" class="edge"><title>dir_spatial&#45;&gt;rasterize_ohibc_rgn_raster_500m_shape_file_at_500m_resolution</title>
<path fill="none" stroke="black" d="M563.504,-374.345C590.006,-362.836 625.093,-347.598 653.319,-335.341"/>
<polygon fill="black" stroke="black" points="654.828,-338.501 662.606,-331.307 652.04,-332.08 654.828,-338.501"/>
</g>
<!-- dir_goal&#45;&gt;load_and_create_howe_sound_wdpa_pep_files -->
<g id="edge9" class="edge"><title>dir_goal&#45;&gt;load_and_create_howe_sound_wdpa_pep_files</title>
<path fill="none" stroke="black" d="M441.901,-295.143C449.712,-267.961 465.046,-214.601 474.323,-182.317"/>
<polygon fill="black" stroke="black" points="477.707,-183.214 477.105,-172.636 470.979,-181.28 477.707,-183.214"/>
</g>
<!-- setup.R_input_port -->
<g id="node15" class="node"><title>setup.R_input_port</title>
<ellipse fill="#ffffff" stroke="black" cx="483" cy="-604.8" rx="7" ry="7"/>
</g>
<!-- setup.R_input_port&#45;&gt;setup.R -->
<g id="edge18" class="edge"><title>setup.R_input_port&#45;&gt;setup.R</title>
<path fill="none" stroke="black" d="M483,-597.486C483,-591.286 483,-581.395 483,-571.848"/>
<polygon fill="black" stroke="black" points="486.5,-571.816 483,-561.816 479.5,-571.816 486.5,-571.816"/>
</g>
<!-- hs_wdpa_shp_file_input_port -->
<g id="node16" class="node"><title>hs_wdpa_shp_file_input_port</title>
<ellipse fill="#ffffff" stroke="black" cx="7" cy="-313.2" rx="7" ry="7"/>
</g>
<!-- hs_wdpa_shp_file_input_port&#45;&gt;hs_wdpa_shp_file -->
<g id="edge19" class="edge"><title>hs_wdpa_shp_file_input_port&#45;&gt;hs_wdpa_shp_file</title>
<path fill="none" stroke="black" d="M11.3273,-307.533C14.9654,-303.816 20.4483,-298.677 26,-295.2 46.2505,-282.516 69.6279,-271.511 91.6973,-262.502"/>
<polygon fill="black" stroke="black" points="93.0725,-265.722 101.063,-258.764 90.4776,-259.22 93.0725,-265.722"/>
</g>
<!-- hs_pep_shp_file_input_port -->
<g id="node17" class="node"><title>hs_pep_shp_file_input_port</title>
<ellipse fill="#ffffff" stroke="black" cx="947" cy="-313.2" rx="7" ry="7"/>
</g>
<!-- hs_pep_shp_file_input_port&#45;&gt;hs_pep_shp_file -->
<g id="edge20" class="edge"><title>hs_pep_shp_file_input_port&#45;&gt;hs_pep_shp_file</title>
<path fill="none" stroke="black" d="M942.656,-307.558C939.009,-303.857 933.521,-298.726 928,-295.2 908.474,-282.731 885.93,-271.738 864.716,-262.67"/>
<polygon fill="black" stroke="black" points="865.976,-259.403 855.4,-258.773 863.274,-265.861 865.976,-259.403"/>
</g>
<!-- ohibc_rgn_raster_500m_input_port -->
<g id="node18" class="node"><title>ohibc_rgn_raster_500m_input_port</title>
<ellipse fill="#ffffff" stroke="black" cx="947" cy="-471.8" rx="7" ry="7"/>
</g>
<!-- ohibc_rgn_raster_500m_input_port&#45;&gt;ohibc_rgn_raster_500m -->
<g id="edge21" class="edge"><title>ohibc_rgn_raster_500m_input_port&#45;&gt;ohibc_rgn_raster_500m</title>
<path fill="none" stroke="black" d="M942.728,-466.042C939.122,-462.272 933.655,-457.107 928,-453.8 905.014,-440.359 878.588,-429.341 853.285,-420.573"/>
<polygon fill="black" stroke="black" points="854.246,-417.204 843.652,-417.323 852.008,-423.836 854.246,-417.204"/>
</g>
</g>
</svg>
