<?xml version="1.0" encoding="UTF-8" standalone="no"?>
<!DOCTYPE svg PUBLIC "-//W3C//DTD SVG 1.1//EN"
 "http://www.w3.org/Graphics/SVG/1.1/DTD/svg11.dtd">
<!-- Generated by graphviz version 2.38.0 (20140413.2041)
 -->
<!-- Title: Workflow Pages: 1 -->
<svg width="560pt" height="395pt"
 viewBox="0.00 0.00 560.00 394.60" xmlns="http://www.w3.org/2000/svg" xmlns:xlink="http://www.w3.org/1999/xlink">
<g id="graph0" class="graph" transform="scale(1 1) rotate(0) translate(4 390.6)">
<title>Workflow</title>
<polygon fill="white" stroke="none" points="-4,4 -4,-390.6 556,-390.6 556,4 -4,4"/>
<g id="clust1" class="cluster"><title>cluster_workflow_box_outer</title>
<polygon fill="none" stroke="black" stroke-width="0" points="8,-8 8,-378.6 544,-378.6 544,-8 8,-8"/>
</g>
<g id="clust2" class="cluster"><title>cluster_workflow_box_inner</title>
<polygon fill="none" stroke="black" stroke-width="0" points="16,-16 16,-370.6 536,-370.6 536,-16 16,-16"/>
</g>
<!-- Set_up_default_BC_projection_to_BC_Albers_and_start_provenance_tracking -->
<g id="node1" class="node"><title>Set_up_default_BC_projection_to_BC_Albers_and_start_provenance_tracking</title>
<polygon fill="#ccffcc" stroke="black" points="527.824,-290.6 24.1756,-290.6 24.1756,-254.6 527.824,-254.6 527.824,-290.6"/>
<text text-anchor="middle" x="276" y="-268.4" font-family="Helvetica,sans-Serif" font-size="14.00">Set_up_default_BC_projection_to_BC_Albers_and_start_provenance_tracking</text>
</g>
<!-- BC_specific_polygon_subset_of_WDPA_global_dataset -->
<g id="node3" class="node"><title>BC_specific_polygon_subset_of_WDPA_global_dataset</title>
<path fill="#ffffcc" stroke="black" d="M117.114,-24.5C117.114,-24.5 456.886,-24.5 456.886,-24.5 462.886,-24.5 468.886,-30.5 468.886,-36.5 468.886,-36.5 468.886,-62.1 468.886,-62.1 468.886,-68.1 462.886,-74.1 456.886,-74.1 456.886,-74.1 117.114,-74.1 117.114,-74.1 111.114,-74.1 105.114,-68.1 105.114,-62.1 105.114,-62.1 105.114,-36.5 105.114,-36.5 105.114,-30.5 111.114,-24.5 117.114,-24.5"/>
<text text-anchor="middle" x="287" y="-57.5" font-family="Helvetica,sans-Serif" font-size="14.00">BC_specific_polygon_subset_of_WDPA_global_dataset</text>
<polyline fill="none" stroke="black" points="105.114,-49.3 468.886,-49.3 "/>
<text text-anchor="middle" x="287" y="-32.7" font-family="Helvetica,sans-Serif" font-size="14.00">file:{dir_goal}/spatial/hs_wdpa_poly</text>
</g>
<!-- Set_up_default_BC_projection_to_BC_Albers_and_start_provenance_tracking&#45;&gt;BC_specific_polygon_subset_of_WDPA_global_dataset -->
<g id="edge2" class="edge"><title>Set_up_default_BC_projection_to_BC_Albers_and_start_provenance_tracking&#45;&gt;BC_specific_polygon_subset_of_WDPA_global_dataset</title>
<path fill="none" stroke="black" d="M319.035,-254.442C360.336,-235.238 419.76,-199.68 443,-146.6 449.417,-131.943 452.047,-123.797 443,-110.6 433.89,-97.3122 421.401,-86.9518 407.426,-78.8739"/>
<polygon fill="black" stroke="black" points="409.019,-75.7568 398.549,-74.1335 405.722,-81.9315 409.019,-75.7568"/>
</g>
<!-- dir_goal -->
<g id="node6" class="node"><title>dir_goal</title>
<path fill="#ffffcc" stroke="black" d="M343.787,-218.6C343.787,-218.6 302.213,-218.6 302.213,-218.6 296.213,-218.6 290.213,-212.6 290.213,-206.6 290.213,-206.6 290.213,-194.6 290.213,-194.6 290.213,-188.6 296.213,-182.6 302.213,-182.6 302.213,-182.6 343.787,-182.6 343.787,-182.6 349.787,-182.6 355.787,-188.6 355.787,-194.6 355.787,-194.6 355.787,-206.6 355.787,-206.6 355.787,-212.6 349.787,-218.6 343.787,-218.6"/>
<text text-anchor="middle" x="323" y="-196.4" font-family="Helvetica,sans-Serif" font-size="14.00">dir_goal</text>
</g>
<!-- Set_up_default_BC_projection_to_BC_Albers_and_start_provenance_tracking&#45;&gt;dir_goal -->
<g id="edge1" class="edge"><title>Set_up_default_BC_projection_to_BC_Albers_and_start_provenance_tracking&#45;&gt;dir_goal</title>
<path fill="none" stroke="black" d="M287.618,-254.297C293.139,-246.074 299.847,-236.083 305.932,-227.021"/>
<polygon fill="black" stroke="black" points="308.847,-228.958 311.516,-218.704 303.035,-225.056 308.847,-228.958"/>
</g>
<!-- create_BC_specific_polygon_subset_of_WDPA_global_dataset -->
<g id="node2" class="node"><title>create_BC_specific_polygon_subset_of_WDPA_global_dataset</title>
<polygon fill="#ccffcc" stroke="black" points="434.453,-146.6 23.5469,-146.6 23.5469,-110.6 434.453,-110.6 434.453,-146.6"/>
<text text-anchor="middle" x="229" y="-124.4" font-family="Helvetica,sans-Serif" font-size="14.00">create_BC_specific_polygon_subset_of_WDPA_global_dataset</text>
</g>
<!-- create_BC_specific_polygon_subset_of_WDPA_global_dataset&#45;&gt;BC_specific_polygon_subset_of_WDPA_global_dataset -->
<g id="edge4" class="edge"><title>create_BC_specific_polygon_subset_of_WDPA_global_dataset&#45;&gt;BC_specific_polygon_subset_of_WDPA_global_dataset</title>
<path fill="none" stroke="black" d="M241.872,-110.445C248.067,-102.188 255.702,-92.013 262.918,-82.3955"/>
<polygon fill="black" stroke="black" points="265.903,-84.249 269.105,-74.1497 260.304,-80.0478 265.903,-84.249"/>
</g>
<!-- setup_R -->
<g id="node4" class="node"><title>setup_R</title>
<path fill="#ffffcc" stroke="black" d="M298.128,-362.6C298.128,-362.6 253.872,-362.6 253.872,-362.6 247.872,-362.6 241.872,-356.6 241.872,-350.6 241.872,-350.6 241.872,-338.6 241.872,-338.6 241.872,-332.6 247.872,-326.6 253.872,-326.6 253.872,-326.6 298.128,-326.6 298.128,-326.6 304.128,-326.6 310.128,-332.6 310.128,-338.6 310.128,-338.6 310.128,-350.6 310.128,-350.6 310.128,-356.6 304.128,-362.6 298.128,-362.6"/>
<text text-anchor="middle" x="276" y="-340.4" font-family="Helvetica,sans-Serif" font-size="14.00">setup_R</text>
</g>
<!-- setup_R&#45;&gt;Set_up_default_BC_projection_to_BC_Albers_and_start_provenance_tracking -->
<g id="edge3" class="edge"><title>setup_R&#45;&gt;Set_up_default_BC_projection_to_BC_Albers_and_start_provenance_tracking</title>
<path fill="none" stroke="black" d="M276,-326.297C276,-318.583 276,-309.312 276,-300.712"/>
<polygon fill="black" stroke="black" points="279.5,-300.704 276,-290.704 272.5,-300.704 279.5,-300.704"/>
</g>
<!-- original_WDPA_MPA_global_dataset -->
<g id="node5" class="node"><title>original_WDPA_MPA_global_dataset</title>
<path fill="#ffffcc" stroke="black" d="M259.825,-218.6C259.825,-218.6 36.1753,-218.6 36.1753,-218.6 30.1753,-218.6 24.1753,-212.6 24.1753,-206.6 24.1753,-206.6 24.1753,-194.6 24.1753,-194.6 24.1753,-188.6 30.1753,-182.6 36.1753,-182.6 36.1753,-182.6 259.825,-182.6 259.825,-182.6 265.825,-182.6 271.825,-188.6 271.825,-194.6 271.825,-194.6 271.825,-206.6 271.825,-206.6 271.825,-212.6 265.825,-218.6 259.825,-218.6"/>
<text text-anchor="middle" x="148" y="-196.4" font-family="Helvetica,sans-Serif" font-size="14.00">original_WDPA_MPA_global_dataset</text>
</g>
<!-- original_WDPA_MPA_global_dataset&#45;&gt;create_BC_specific_polygon_subset_of_WDPA_global_dataset -->
<g id="edge5" class="edge"><title>original_WDPA_MPA_global_dataset&#45;&gt;create_BC_specific_polygon_subset_of_WDPA_global_dataset</title>
<path fill="none" stroke="black" d="M168.022,-182.297C178.126,-173.565 190.536,-162.84 201.518,-153.35"/>
<polygon fill="black" stroke="black" points="203.93,-155.891 209.208,-146.704 199.353,-150.595 203.93,-155.891"/>
</g>
<!-- dir_goal&#45;&gt;create_BC_specific_polygon_subset_of_WDPA_global_dataset -->
<g id="edge6" class="edge"><title>dir_goal&#45;&gt;create_BC_specific_polygon_subset_of_WDPA_global_dataset</title>
<path fill="none" stroke="black" d="M299.764,-182.297C287.812,-173.396 273.077,-162.423 260.153,-152.799"/>
<polygon fill="black" stroke="black" points="262.08,-149.87 251.969,-146.704 257.899,-155.484 262.08,-149.87"/>
</g>
</g>
</svg>
