<?xml version="1.0" encoding="UTF-8" standalone="no"?>
<!DOCTYPE svg PUBLIC "-//W3C//DTD SVG 1.1//EN"
 "http://www.w3.org/Graphics/SVG/1.1/DTD/svg11.dtd">
<!-- Generated by graphviz version 2.38.0 (20140413.2041)
 -->
<!-- Title: Workflow Pages: 1 -->
<svg width="496pt" height="635pt"
 viewBox="0.00 0.00 496.12 634.80" xmlns="http://www.w3.org/2000/svg" xmlns:xlink="http://www.w3.org/1999/xlink">
<g id="graph0" class="graph" transform="scale(1 1) rotate(0) translate(4 630.8)">
<title>Workflow</title>
<polygon fill="white" stroke="none" points="-4,4 -4,-630.8 492.117,-630.8 492.117,4 -4,4"/>
<text text-anchor="middle" x="244.058" y="-606.6" font-family="Helvetica,sans-Serif" font-size="18.00">Read_BC_Parks_EcologicalReserves_ProtectedArea_data</text>
<g id="clust1" class="cluster"><title>cluster_workflow_box_outer</title>
<polygon fill="none" stroke="black" stroke-width="2" points="32.0583,-34 32.0583,-563.2 470.058,-563.2 470.058,-34 32.0583,-34"/>
</g>
<g id="clust2" class="cluster"><title>cluster_workflow_box_inner</title>
<polygon fill="none" stroke="black" stroke-width="0" points="40.0583,-42 40.0583,-555.2 462.058,-555.2 462.058,-42 40.0583,-42"/>
</g>
<!-- set_up_Configuration_and_start_provenance_tracking -->
<g id="node1" class="node"><title>set_up_Configuration_and_start_provenance_tracking</title>
<polygon fill="#ccffcc" stroke="black" points="454.449,-475.2 101.668,-475.2 101.668,-439.2 454.449,-439.2 454.449,-475.2"/>
<text text-anchor="middle" x="278.058" y="-453" font-family="Helvetica,sans-Serif" font-size="14.00">set_up_Configuration_and_start_provenance_tracking</text>
</g>
<!-- dir_anx -->
<g id="node8" class="node"><title>dir_anx</title>
<path fill="#fcfcfc" stroke="black" d="M421.956,-395.9C421.956,-395.9 384.161,-395.9 384.161,-395.9 378.161,-395.9 372.161,-389.9 372.161,-383.9 372.161,-383.9 372.161,-371.9 372.161,-371.9 372.161,-365.9 378.161,-359.9 384.161,-359.9 384.161,-359.9 421.956,-359.9 421.956,-359.9 427.956,-359.9 433.956,-365.9 433.956,-371.9 433.956,-371.9 433.956,-383.9 433.956,-383.9 433.956,-389.9 427.956,-395.9 421.956,-395.9"/>
<text text-anchor="middle" x="403.058" y="-373.7" font-family="Helvetica,sans-Serif" font-size="14.00">dir_anx</text>
</g>
<!-- set_up_Configuration_and_start_provenance_tracking&#45;&gt;dir_anx -->
<g id="edge1" class="edge"><title>set_up_Configuration_and_start_provenance_tracking&#45;&gt;dir_anx</title>
<path fill="none" stroke="black" d="M305.8,-439.045C323.763,-427.936 347.344,-413.354 366.787,-401.33"/>
<polygon fill="black" stroke="black" points="368.73,-404.244 375.394,-396.007 365.048,-398.29 368.73,-404.244"/>
</g>
<!-- dir_goal -->
<g id="node9" class="node"><title>dir_goal</title>
<path fill="#fcfcfc" stroke="black" d="M441.845,-316.6C441.845,-316.6 400.271,-316.6 400.271,-316.6 394.271,-316.6 388.271,-310.6 388.271,-304.6 388.271,-304.6 388.271,-292.6 388.271,-292.6 388.271,-286.6 394.271,-280.6 400.271,-280.6 400.271,-280.6 441.845,-280.6 441.845,-280.6 447.845,-280.6 453.845,-286.6 453.845,-292.6 453.845,-292.6 453.845,-304.6 453.845,-304.6 453.845,-310.6 447.845,-316.6 441.845,-316.6"/>
<text text-anchor="middle" x="421.058" y="-294.4" font-family="Helvetica,sans-Serif" font-size="14.00">dir_goal</text>
</g>
<!-- set_up_Configuration_and_start_provenance_tracking&#45;&gt;dir_goal -->
<g id="edge2" class="edge"><title>set_up_Configuration_and_start_provenance_tracking&#45;&gt;dir_goal</title>
<path fill="none" stroke="black" d="M394.816,-439.179C413.713,-431.221 431.005,-419.732 443.058,-403.2 459.551,-380.58 448.645,-348.222 437.096,-325.71"/>
<polygon fill="black" stroke="black" points="440.052,-323.819 432.186,-316.721 433.909,-327.175 440.052,-323.819"/>
</g>
<!-- read_TA_PEP_SVW_polygon -->
<g id="node2" class="node"><title>read_TA_PEP_SVW_polygon</title>
<polygon fill="#ccffcc" stroke="black" points="370.004,-316.6 168.113,-316.6 168.113,-280.6 370.004,-280.6 370.004,-316.6"/>
<text text-anchor="middle" x="269.058" y="-294.4" font-family="Helvetica,sans-Serif" font-size="14.00">read_TA_PEP_SVW_polygon</text>
</g>
<!-- hs_pep_poly -->
<g id="node7" class="node"><title>hs_pep_poly</title>
<path fill="#ffffcc" stroke="black" d="M319.926,-244.6C319.926,-244.6 248.19,-244.6 248.19,-244.6 242.19,-244.6 236.19,-238.6 236.19,-232.6 236.19,-232.6 236.19,-220.6 236.19,-220.6 236.19,-214.6 242.19,-208.6 248.19,-208.6 248.19,-208.6 319.926,-208.6 319.926,-208.6 325.926,-208.6 331.926,-214.6 331.926,-220.6 331.926,-220.6 331.926,-232.6 331.926,-232.6 331.926,-238.6 325.926,-244.6 319.926,-244.6"/>
<text text-anchor="middle" x="284.058" y="-222.4" font-family="Helvetica,sans-Serif" font-size="14.00">hs_pep_poly</text>
</g>
<!-- read_TA_PEP_SVW_polygon&#45;&gt;hs_pep_poly -->
<g id="edge4" class="edge"><title>read_TA_PEP_SVW_polygon&#45;&gt;hs_pep_poly</title>
<path fill="none" stroke="black" d="M272.766,-280.297C274.419,-272.583 276.406,-263.312 278.248,-254.712"/>
<polygon fill="black" stroke="black" points="281.72,-255.216 280.393,-244.704 274.875,-253.749 281.72,-255.216"/>
</g>
<!-- write_hs_pep_poly -->
<g id="node3" class="node"><title>write_hs_pep_poly</title>
<polygon fill="#ccffcc" stroke="black" points="380.256,-172.6 247.861,-172.6 247.861,-136.6 380.256,-136.6 380.256,-172.6"/>
<text text-anchor="middle" x="314.058" y="-150.4" font-family="Helvetica,sans-Serif" font-size="14.00">write_hs_pep_poly</text>
</g>
<!-- poly_hs_pep -->
<g id="node4" class="node"><title>poly_hs_pep</title>
<path fill="#ffffcc" stroke="black" d="M200.574,-50.5C200.574,-50.5 427.543,-50.5 427.543,-50.5 433.543,-50.5 439.543,-56.5 439.543,-62.5 439.543,-62.5 439.543,-88.1 439.543,-88.1 439.543,-94.1 433.543,-100.1 427.543,-100.1 427.543,-100.1 200.574,-100.1 200.574,-100.1 194.574,-100.1 188.574,-94.1 188.574,-88.1 188.574,-88.1 188.574,-62.5 188.574,-62.5 188.574,-56.5 194.574,-50.5 200.574,-50.5"/>
<text text-anchor="middle" x="314.058" y="-83.5" font-family="Helvetica,sans-Serif" font-size="14.00">poly_hs_pep</text>
<polyline fill="none" stroke="black" points="188.574,-75.3 439.543,-75.3 "/>
<text text-anchor="middle" x="314.058" y="-58.7" font-family="Helvetica,sans-Serif" font-size="14.00">file:{dir_goal}/spatial/hs_pep_poly.shp</text>
</g>
<!-- write_hs_pep_poly&#45;&gt;poly_hs_pep -->
<g id="edge7" class="edge"><title>write_hs_pep_poly&#45;&gt;poly_hs_pep</title>
<path fill="none" stroke="black" d="M314.058,-136.445C314.058,-128.689 314.058,-119.239 314.058,-110.15"/>
<polygon fill="black" stroke="black" points="317.558,-110.15 314.058,-100.15 310.558,-110.15 317.558,-110.15"/>
</g>
<!-- poly_hs_pep_output_port -->
<g id="node12" class="node"><title>poly_hs_pep_output_port</title>
<ellipse fill="#ffffff" stroke="black" cx="314.058" cy="-7" rx="7" ry="7"/>
</g>
<!-- poly_hs_pep&#45;&gt;poly_hs_pep_output_port -->
<g id="edge12" class="edge"><title>poly_hs_pep&#45;&gt;poly_hs_pep_output_port</title>
<path fill="none" stroke="black" d="M314.058,-50.3642C314.058,-41.694 314.058,-32.1105 314.058,-24.2546"/>
<polygon fill="black" stroke="black" points="317.558,-24.0006 314.058,-14.0006 310.558,-24.0007 317.558,-24.0006"/>
</g>
<!-- setup.R -->
<g id="node5" class="node"><title>setup.R</title>
<path fill="#ffffcc" stroke="black" d="M298.294,-547.2C298.294,-547.2 257.822,-547.2 257.822,-547.2 251.822,-547.2 245.822,-541.2 245.822,-535.2 245.822,-535.2 245.822,-523.2 245.822,-523.2 245.822,-517.2 251.822,-511.2 257.822,-511.2 257.822,-511.2 298.294,-511.2 298.294,-511.2 304.294,-511.2 310.294,-517.2 310.294,-523.2 310.294,-523.2 310.294,-535.2 310.294,-535.2 310.294,-541.2 304.294,-547.2 298.294,-547.2"/>
<text text-anchor="middle" x="278.058" y="-525" font-family="Helvetica,sans-Serif" font-size="14.00">setup.R</text>
</g>
<!-- setup.R&#45;&gt;set_up_Configuration_and_start_provenance_tracking -->
<g id="edge3" class="edge"><title>setup.R&#45;&gt;set_up_Configuration_and_start_provenance_tracking</title>
<path fill="none" stroke="black" d="M278.058,-510.897C278.058,-503.183 278.058,-493.912 278.058,-485.312"/>
<polygon fill="black" stroke="black" points="281.558,-485.304 278.058,-475.304 274.558,-485.304 281.558,-485.304"/>
</g>
<!-- TA_PEP_SVW_polygon -->
<g id="node6" class="node"><title>TA_PEP_SVW_polygon</title>
<path fill="#ffffcc" stroke="black" d="M60.3473,-353.1C60.3473,-353.1 341.769,-353.1 341.769,-353.1 347.769,-353.1 353.769,-359.1 353.769,-365.1 353.769,-365.1 353.769,-390.7 353.769,-390.7 353.769,-396.7 347.769,-402.7 341.769,-402.7 341.769,-402.7 60.3473,-402.7 60.3473,-402.7 54.3473,-402.7 48.3473,-396.7 48.3473,-390.7 48.3473,-390.7 48.3473,-365.1 48.3473,-365.1 48.3473,-359.1 54.3473,-353.1 60.3473,-353.1"/>
<text text-anchor="middle" x="201.058" y="-386.1" font-family="Helvetica,sans-Serif" font-size="14.00">TA_PEP_SVW_polygon</text>
<polyline fill="none" stroke="black" points="48.3473,-377.9 353.769,-377.9 "/>
<text text-anchor="middle" x="201.058" y="-361.3" font-family="Helvetica,sans-Serif" font-size="14.00">file:{dir_anx}/_raw_data/databc/TA_PEP_SVW</text>
</g>
<!-- TA_PEP_SVW_polygon&#45;&gt;read_TA_PEP_SVW_polygon -->
<g id="edge6" class="edge"><title>TA_PEP_SVW_polygon&#45;&gt;read_TA_PEP_SVW_polygon</title>
<path fill="none" stroke="black" d="M222.201,-352.866C230.162,-343.816 239.225,-333.513 247.246,-324.395"/>
<polygon fill="black" stroke="black" points="249.995,-326.569 253.972,-316.749 244.739,-321.946 249.995,-326.569"/>
</g>
<!-- hs_pep_poly&#45;&gt;write_hs_pep_poly -->
<g id="edge8" class="edge"><title>hs_pep_poly&#45;&gt;write_hs_pep_poly</title>
<path fill="none" stroke="black" d="M291.474,-208.297C294.853,-200.413 298.928,-190.904 302.681,-182.146"/>
<polygon fill="black" stroke="black" points="306.006,-183.275 306.728,-172.704 299.572,-180.517 306.006,-183.275"/>
</g>
<!-- dir_anx&#45;&gt;read_TA_PEP_SVW_polygon -->
<g id="edge5" class="edge"><title>dir_anx&#45;&gt;read_TA_PEP_SVW_polygon</title>
<path fill="none" stroke="black" d="M375.153,-359.789C371.108,-357.355 366.985,-354.899 363.058,-352.6 345.461,-342.297 325.835,-331.175 309.086,-321.792"/>
<polygon fill="black" stroke="black" points="310.545,-318.598 300.109,-316.774 307.13,-324.708 310.545,-318.598"/>
</g>
<!-- dir_goal&#45;&gt;write_hs_pep_poly -->
<g id="edge9" class="edge"><title>dir_goal&#45;&gt;write_hs_pep_poly</title>
<path fill="none" stroke="black" d="M408.152,-280.471C389.514,-255.737 354.931,-209.842 333.282,-181.112"/>
<polygon fill="black" stroke="black" points="335.824,-178.669 327.011,-172.789 330.234,-182.882 335.824,-178.669"/>
</g>
<!-- TA_PEP_SVW_polygon_input_port -->
<g id="node10" class="node"><title>TA_PEP_SVW_polygon_input_port</title>
<ellipse fill="#ffffff" stroke="black" cx="17.0583" cy="-457.2" rx="7" ry="7"/>
</g>
<!-- TA_PEP_SVW_polygon_input_port&#45;&gt;TA_PEP_SVW_polygon -->
<g id="edge10" class="edge"><title>TA_PEP_SVW_polygon_input_port&#45;&gt;TA_PEP_SVW_polygon</title>
<path fill="none" stroke="black" d="M21.3501,-451.475C24.9676,-447.724 30.4401,-442.569 36.0583,-439.2 57.9954,-426.046 83.2678,-415.039 107.336,-406.184"/>
<polygon fill="black" stroke="black" points="108.616,-409.443 116.846,-402.771 106.252,-402.855 108.616,-409.443"/>
</g>
<!-- setup.R_input_port -->
<g id="node11" class="node"><title>setup.R_input_port</title>
<ellipse fill="#ffffff" stroke="black" cx="278.058" cy="-590.2" rx="7" ry="7"/>
</g>
<!-- setup.R_input_port&#45;&gt;setup.R -->
<g id="edge11" class="edge"><title>setup.R_input_port&#45;&gt;setup.R</title>
<path fill="none" stroke="black" d="M278.058,-582.886C278.058,-576.686 278.058,-566.795 278.058,-557.248"/>
<polygon fill="black" stroke="black" points="281.558,-557.216 278.058,-547.216 274.558,-557.216 281.558,-557.216"/>
</g>
</g>
</svg>
