<?xml version="1.0" encoding="UTF-8" standalone="no"?>
<!DOCTYPE svg PUBLIC "-//W3C//DTD SVG 1.1//EN"
 "http://www.w3.org/Graphics/SVG/1.1/DTD/svg11.dtd">
<!-- Generated by graphviz version 2.38.0 (20140413.2041)
 -->
<!-- Title: Workflow Pages: 1 -->
<svg width="988pt" height="318pt"
 viewBox="0.00 0.00 988.00 317.60" xmlns="http://www.w3.org/2000/svg" xmlns:xlink="http://www.w3.org/1999/xlink">
<g id="graph0" class="graph" transform="scale(1 1) rotate(0) translate(4 313.6)">
<title>Workflow</title>
<polygon fill="white" stroke="none" points="-4,4 -4,-313.6 984,-313.6 984,4 -4,4"/>
<text text-anchor="middle" x="490" y="-289.4" font-family="Helvetica,sans-Serif" font-size="18.00">Read_in_BC_WDPA_MPA_shapefile</text>
<g id="clust1" class="cluster"><title>cluster_workflow_box_outer</title>
<polygon fill="none" stroke="black" stroke-width="2" points="8,-34 8,-246 972,-246 972,-34 8,-34"/>
</g>
<g id="clust2" class="cluster"><title>cluster_workflow_box_inner</title>
<polygon fill="none" stroke="black" stroke-width="0" points="16,-42 16,-238 964,-238 964,-42 16,-42"/>
</g>
<!-- Set_up_default_BC_projection_to_BC_Albers_and_start_provenance_tracking -->
<g id="node1" class="node"><title>Set_up_default_BC_projection_to_BC_Albers_and_start_provenance_tracking</title>
<polygon fill="#ccffcc" stroke="black" points="527.824,-158 24.1756,-158 24.1756,-122 527.824,-122 527.824,-158"/>
<text text-anchor="middle" x="276" y="-135.8" font-family="Helvetica,sans-Serif" font-size="14.00">Set_up_default_BC_projection_to_BC_Albers_and_start_provenance_tracking</text>
</g>
<!-- BC_specific_polygon_subset_of_WDPA_global_dataset -->
<g id="node3" class="node"><title>BC_specific_polygon_subset_of_WDPA_global_dataset</title>
<path fill="#ffffcc" stroke="black" d="M682.771,-86C682.771,-86 343.229,-86 343.229,-86 337.229,-86 331.229,-80 331.229,-74 331.229,-74 331.229,-62 331.229,-62 331.229,-56 337.229,-50 343.229,-50 343.229,-50 682.771,-50 682.771,-50 688.771,-50 694.771,-56 694.771,-62 694.771,-62 694.771,-74 694.771,-74 694.771,-80 688.771,-86 682.771,-86"/>
<text text-anchor="middle" x="513" y="-63.8" font-family="Helvetica,sans-Serif" font-size="14.00">BC_specific_polygon_subset_of_WDPA_global_dataset</text>
</g>
<!-- Set_up_default_BC_projection_to_BC_Albers_and_start_provenance_tracking&#45;&gt;BC_specific_polygon_subset_of_WDPA_global_dataset -->
<g id="edge1" class="edge"><title>Set_up_default_BC_projection_to_BC_Albers_and_start_provenance_tracking&#45;&gt;BC_specific_polygon_subset_of_WDPA_global_dataset</title>
<path fill="none" stroke="black" d="M333.674,-121.966C367.364,-112.015 410.053,-99.4062 445.329,-88.9874"/>
<polygon fill="black" stroke="black" points="446.469,-92.3001 455.068,-86.1108 444.486,-85.5868 446.469,-92.3001"/>
</g>
<!-- create_BC_specific_polygon_subset_of_WDPA_global_dataset -->
<g id="node2" class="node"><title>create_BC_specific_polygon_subset_of_WDPA_global_dataset</title>
<polygon fill="#ccffcc" stroke="black" points="956.453,-158 545.547,-158 545.547,-122 956.453,-122 956.453,-158"/>
<text text-anchor="middle" x="751" y="-135.8" font-family="Helvetica,sans-Serif" font-size="14.00">create_BC_specific_polygon_subset_of_WDPA_global_dataset</text>
</g>
<!-- create_BC_specific_polygon_subset_of_WDPA_global_dataset&#45;&gt;BC_specific_polygon_subset_of_WDPA_global_dataset -->
<g id="edge3" class="edge"><title>create_BC_specific_polygon_subset_of_WDPA_global_dataset&#45;&gt;BC_specific_polygon_subset_of_WDPA_global_dataset</title>
<path fill="none" stroke="black" d="M693.083,-121.966C659.251,-112.015 616.381,-99.4062 580.957,-88.9874"/>
<polygon fill="black" stroke="black" points="581.758,-85.5748 571.177,-86.1108 579.783,-92.2903 581.758,-85.5748"/>
</g>
<!-- BC_specific_polygon_subset_of_WDPA_global_dataset_output_port -->
<g id="node8" class="node"><title>BC_specific_polygon_subset_of_WDPA_global_dataset_output_port</title>
<ellipse fill="#ffffff" stroke="black" cx="513" cy="-7" rx="7" ry="7"/>
</g>
<!-- BC_specific_polygon_subset_of_WDPA_global_dataset&#45;&gt;BC_specific_polygon_subset_of_WDPA_global_dataset_output_port -->
<g id="edge7" class="edge"><title>BC_specific_polygon_subset_of_WDPA_global_dataset&#45;&gt;BC_specific_polygon_subset_of_WDPA_global_dataset_output_port</title>
<path fill="none" stroke="black" d="M513,-49.9348C513,-41.8859 513,-32.3254 513,-24.3671"/>
<polygon fill="black" stroke="black" points="516.5,-24.2164 513,-14.2164 509.5,-24.2165 516.5,-24.2164"/>
</g>
<!-- setup_R -->
<g id="node4" class="node"><title>setup_R</title>
<path fill="#ffffcc" stroke="black" d="M298.128,-230C298.128,-230 253.872,-230 253.872,-230 247.872,-230 241.872,-224 241.872,-218 241.872,-218 241.872,-206 241.872,-206 241.872,-200 247.872,-194 253.872,-194 253.872,-194 298.128,-194 298.128,-194 304.128,-194 310.128,-200 310.128,-206 310.128,-206 310.128,-218 310.128,-218 310.128,-224 304.128,-230 298.128,-230"/>
<text text-anchor="middle" x="276" y="-207.8" font-family="Helvetica,sans-Serif" font-size="14.00">setup_R</text>
</g>
<!-- setup_R&#45;&gt;Set_up_default_BC_projection_to_BC_Albers_and_start_provenance_tracking -->
<g id="edge2" class="edge"><title>setup_R&#45;&gt;Set_up_default_BC_projection_to_BC_Albers_and_start_provenance_tracking</title>
<path fill="none" stroke="black" d="M276,-193.697C276,-185.983 276,-176.712 276,-168.112"/>
<polygon fill="black" stroke="black" points="279.5,-168.104 276,-158.104 272.5,-168.104 279.5,-168.104"/>
</g>
<!-- original_WDPA_MPA_global_dataset -->
<g id="node5" class="node"><title>original_WDPA_MPA_global_dataset</title>
<path fill="#ffffcc" stroke="black" d="M862.825,-230C862.825,-230 639.175,-230 639.175,-230 633.175,-230 627.175,-224 627.175,-218 627.175,-218 627.175,-206 627.175,-206 627.175,-200 633.175,-194 639.175,-194 639.175,-194 862.825,-194 862.825,-194 868.825,-194 874.825,-200 874.825,-206 874.825,-206 874.825,-218 874.825,-218 874.825,-224 868.825,-230 862.825,-230"/>
<text text-anchor="middle" x="751" y="-207.8" font-family="Helvetica,sans-Serif" font-size="14.00">original_WDPA_MPA_global_dataset</text>
</g>
<!-- original_WDPA_MPA_global_dataset&#45;&gt;create_BC_specific_polygon_subset_of_WDPA_global_dataset -->
<g id="edge4" class="edge"><title>original_WDPA_MPA_global_dataset&#45;&gt;create_BC_specific_polygon_subset_of_WDPA_global_dataset</title>
<path fill="none" stroke="black" d="M751,-193.697C751,-185.983 751,-176.712 751,-168.112"/>
<polygon fill="black" stroke="black" points="754.5,-168.104 751,-158.104 747.5,-168.104 754.5,-168.104"/>
</g>
<!-- setup_R_input_port -->
<g id="node6" class="node"><title>setup_R_input_port</title>
<ellipse fill="#ffffff" stroke="black" cx="276" cy="-273" rx="7" ry="7"/>
</g>
<!-- setup_R_input_port&#45;&gt;setup_R -->
<g id="edge5" class="edge"><title>setup_R_input_port&#45;&gt;setup_R</title>
<path fill="none" stroke="black" d="M276,-265.686C276,-259.486 276,-249.595 276,-240.048"/>
<polygon fill="black" stroke="black" points="279.5,-240.016 276,-230.016 272.5,-240.016 279.5,-240.016"/>
</g>
<!-- original_WDPA_MPA_global_dataset_input_port -->
<g id="node7" class="node"><title>original_WDPA_MPA_global_dataset_input_port</title>
<ellipse fill="#ffffff" stroke="black" cx="751" cy="-273" rx="7" ry="7"/>
</g>
<!-- original_WDPA_MPA_global_dataset_input_port&#45;&gt;original_WDPA_MPA_global_dataset -->
<g id="edge6" class="edge"><title>original_WDPA_MPA_global_dataset_input_port&#45;&gt;original_WDPA_MPA_global_dataset</title>
<path fill="none" stroke="black" d="M751,-265.686C751,-259.486 751,-249.595 751,-240.048"/>
<polygon fill="black" stroke="black" points="754.5,-240.016 751,-230.016 747.5,-240.016 754.5,-240.016"/>
</g>
</g>
</svg>
