<?xml version="1.0" encoding="UTF-8" standalone="no"?>
<!DOCTYPE svg PUBLIC "-//W3C//DTD SVG 1.1//EN"
 "http://www.w3.org/Graphics/SVG/1.1/DTD/svg11.dtd">
<!-- Generated by graphviz version 2.38.0 (20140413.2041)
 -->
<!-- Title: Workflow Pages: 1 -->
<svg width="496pt" height="635pt"
 viewBox="0.00 0.00 496.12 634.80" xmlns="http://www.w3.org/2000/svg" xmlns:xlink="http://www.w3.org/1999/xlink">
<g id="graph0" class="graph" transform="scale(1 1) rotate(0) translate(4 630.8)">
<title>Workflow</title>
<polygon fill="white" stroke="none" points="-4,4 -4,-630.8 492.117,-630.8 492.117,4 -4,4"/>
<text text-anchor="middle" x="244.058" y="-606.6" font-family="Helvetica,sans-Serif" font-size="18.00">Read_BC_Parks_EcologicalReserves_ProtectedArea_data</text>
<g id="clust1" class="cluster"><title>cluster_workflow_box_outer</title>
<polygon fill="none" stroke="black" stroke-width="2" points="34.0583,-34 34.0583,-563.2 468.058,-563.2 468.058,-34 34.0583,-34"/>
</g>
<g id="clust2" class="cluster"><title>cluster_workflow_box_inner</title>
<polygon fill="none" stroke="black" stroke-width="0" points="42.0583,-42 42.0583,-555.2 460.058,-555.2 460.058,-42 42.0583,-42"/>
</g>
<!-- set_up_Configuration_and_start_provenance_tracking -->
<g id="node1" class="node"><title>set_up_Configuration_and_start_provenance_tracking</title>
<polygon fill="#ccffcc" stroke="black" points="452.449,-475.2 99.6679,-475.2 99.6679,-439.2 452.449,-439.2 452.449,-475.2"/>
<text text-anchor="middle" x="276.058" y="-453" font-family="Helvetica,sans-Serif" font-size="14.00">set_up_Configuration_and_start_provenance_tracking</text>
</g>
<!-- dir_anx -->
<g id="node6" class="node"><title>dir_anx</title>
<path fill="#ffffcc" stroke="black" d="M419.956,-395.9C419.956,-395.9 382.161,-395.9 382.161,-395.9 376.161,-395.9 370.161,-389.9 370.161,-383.9 370.161,-383.9 370.161,-371.9 370.161,-371.9 370.161,-365.9 376.161,-359.9 382.161,-359.9 382.161,-359.9 419.956,-359.9 419.956,-359.9 425.956,-359.9 431.956,-365.9 431.956,-371.9 431.956,-371.9 431.956,-383.9 431.956,-383.9 431.956,-389.9 425.956,-395.9 419.956,-395.9"/>
<text text-anchor="middle" x="401.058" y="-373.7" font-family="Helvetica,sans-Serif" font-size="14.00">dir_anx</text>
</g>
<!-- set_up_Configuration_and_start_provenance_tracking&#45;&gt;dir_anx -->
<g id="edge1" class="edge"><title>set_up_Configuration_and_start_provenance_tracking&#45;&gt;dir_anx</title>
<path fill="none" stroke="black" d="M303.8,-439.045C321.763,-427.936 345.344,-413.354 364.787,-401.33"/>
<polygon fill="black" stroke="black" points="366.73,-404.244 373.394,-396.007 363.048,-398.29 366.73,-404.244"/>
</g>
<!-- dir_goal -->
<g id="node9" class="node"><title>dir_goal</title>
<path fill="#ffffcc" stroke="black" d="M439.845,-316.6C439.845,-316.6 398.271,-316.6 398.271,-316.6 392.271,-316.6 386.271,-310.6 386.271,-304.6 386.271,-304.6 386.271,-292.6 386.271,-292.6 386.271,-286.6 392.271,-280.6 398.271,-280.6 398.271,-280.6 439.845,-280.6 439.845,-280.6 445.845,-280.6 451.845,-286.6 451.845,-292.6 451.845,-292.6 451.845,-304.6 451.845,-304.6 451.845,-310.6 445.845,-316.6 439.845,-316.6"/>
<text text-anchor="middle" x="419.058" y="-294.4" font-family="Helvetica,sans-Serif" font-size="14.00">dir_goal</text>
</g>
<!-- set_up_Configuration_and_start_provenance_tracking&#45;&gt;dir_goal -->
<g id="edge2" class="edge"><title>set_up_Configuration_and_start_provenance_tracking&#45;&gt;dir_goal</title>
<path fill="none" stroke="black" d="M392.816,-439.179C411.713,-431.221 429.005,-419.732 441.058,-403.2 457.551,-380.58 446.645,-348.222 435.096,-325.71"/>
<polygon fill="black" stroke="black" points="438.052,-323.819 430.186,-316.721 431.909,-327.175 438.052,-323.819"/>
</g>
<!-- read_TA_PEP_SVW_polygon -->
<g id="node2" class="node"><title>read_TA_PEP_SVW_polygon</title>
<polygon fill="#ccffcc" stroke="black" points="368.004,-316.6 166.113,-316.6 166.113,-280.6 368.004,-280.6 368.004,-316.6"/>
<text text-anchor="middle" x="267.058" y="-294.4" font-family="Helvetica,sans-Serif" font-size="14.00">read_TA_PEP_SVW_polygon</text>
</g>
<!-- hs_pep_poly -->
<g id="node8" class="node"><title>hs_pep_poly</title>
<path fill="#ffffcc" stroke="black" d="M322.926,-244.6C322.926,-244.6 251.19,-244.6 251.19,-244.6 245.19,-244.6 239.19,-238.6 239.19,-232.6 239.19,-232.6 239.19,-220.6 239.19,-220.6 239.19,-214.6 245.19,-208.6 251.19,-208.6 251.19,-208.6 322.926,-208.6 322.926,-208.6 328.926,-208.6 334.926,-214.6 334.926,-220.6 334.926,-220.6 334.926,-232.6 334.926,-232.6 334.926,-238.6 328.926,-244.6 322.926,-244.6"/>
<text text-anchor="middle" x="287.058" y="-222.4" font-family="Helvetica,sans-Serif" font-size="14.00">hs_pep_poly</text>
</g>
<!-- read_TA_PEP_SVW_polygon&#45;&gt;hs_pep_poly -->
<g id="edge4" class="edge"><title>read_TA_PEP_SVW_polygon&#45;&gt;hs_pep_poly</title>
<path fill="none" stroke="black" d="M272.002,-280.297C274.23,-272.498 276.913,-263.109 279.393,-254.429"/>
<polygon fill="black" stroke="black" points="282.789,-255.281 282.171,-244.704 276.059,-253.358 282.789,-255.281"/>
</g>
<!-- write_hs_pep_poly -->
<g id="node3" class="node"><title>write_hs_pep_poly</title>
<polygon fill="#ccffcc" stroke="black" points="386.256,-172.6 253.861,-172.6 253.861,-136.6 386.256,-136.6 386.256,-172.6"/>
<text text-anchor="middle" x="320.058" y="-150.4" font-family="Helvetica,sans-Serif" font-size="14.00">write_hs_pep_poly</text>
</g>
<!-- poly_hs_pep -->
<g id="node4" class="node"><title>poly_hs_pep</title>
<path fill="#ffffcc" stroke="black" d="M219.802,-50.5C219.802,-50.5 420.315,-50.5 420.315,-50.5 426.315,-50.5 432.315,-56.5 432.315,-62.5 432.315,-62.5 432.315,-88.1 432.315,-88.1 432.315,-94.1 426.315,-100.1 420.315,-100.1 420.315,-100.1 219.802,-100.1 219.802,-100.1 213.802,-100.1 207.802,-94.1 207.802,-88.1 207.802,-88.1 207.802,-62.5 207.802,-62.5 207.802,-56.5 213.802,-50.5 219.802,-50.5"/>
<text text-anchor="middle" x="320.058" y="-83.5" font-family="Helvetica,sans-Serif" font-size="14.00">poly_hs_pep</text>
<polyline fill="none" stroke="black" points="207.802,-75.3 432.315,-75.3 "/>
<text text-anchor="middle" x="320.058" y="-58.7" font-family="Helvetica,sans-Serif" font-size="14.00">file:{dir_goal}/spatial/hs_pep_poly</text>
</g>
<!-- write_hs_pep_poly&#45;&gt;poly_hs_pep -->
<g id="edge7" class="edge"><title>write_hs_pep_poly&#45;&gt;poly_hs_pep</title>
<path fill="none" stroke="black" d="M320.058,-136.445C320.058,-128.689 320.058,-119.239 320.058,-110.15"/>
<polygon fill="black" stroke="black" points="323.558,-110.15 320.058,-100.15 316.558,-110.15 323.558,-110.15"/>
</g>
<!-- poly_hs_pep_output_port -->
<g id="node12" class="node"><title>poly_hs_pep_output_port</title>
<ellipse fill="#ffffff" stroke="black" cx="320.058" cy="-7" rx="7" ry="7"/>
</g>
<!-- poly_hs_pep&#45;&gt;poly_hs_pep_output_port -->
<g id="edge12" class="edge"><title>poly_hs_pep&#45;&gt;poly_hs_pep_output_port</title>
<path fill="none" stroke="black" d="M320.058,-50.3642C320.058,-41.694 320.058,-32.1105 320.058,-24.2546"/>
<polygon fill="black" stroke="black" points="323.558,-24.0006 320.058,-14.0006 316.558,-24.0007 323.558,-24.0006"/>
</g>
<!-- setup_R -->
<g id="node5" class="node"><title>setup_R</title>
<path fill="#ffffcc" stroke="black" d="M298.186,-547.2C298.186,-547.2 253.931,-547.2 253.931,-547.2 247.931,-547.2 241.931,-541.2 241.931,-535.2 241.931,-535.2 241.931,-523.2 241.931,-523.2 241.931,-517.2 247.931,-511.2 253.931,-511.2 253.931,-511.2 298.186,-511.2 298.186,-511.2 304.186,-511.2 310.186,-517.2 310.186,-523.2 310.186,-523.2 310.186,-535.2 310.186,-535.2 310.186,-541.2 304.186,-547.2 298.186,-547.2"/>
<text text-anchor="middle" x="276.058" y="-525" font-family="Helvetica,sans-Serif" font-size="14.00">setup_R</text>
</g>
<!-- setup_R&#45;&gt;set_up_Configuration_and_start_provenance_tracking -->
<g id="edge3" class="edge"><title>setup_R&#45;&gt;set_up_Configuration_and_start_provenance_tracking</title>
<path fill="none" stroke="black" d="M276.058,-510.897C276.058,-503.183 276.058,-493.912 276.058,-485.312"/>
<polygon fill="black" stroke="black" points="279.558,-485.304 276.058,-475.304 272.558,-485.304 279.558,-485.304"/>
</g>
<!-- dir_anx&#45;&gt;read_TA_PEP_SVW_polygon -->
<g id="edge5" class="edge"><title>dir_anx&#45;&gt;read_TA_PEP_SVW_polygon</title>
<path fill="none" stroke="black" d="M373.153,-359.789C369.108,-357.355 364.985,-354.899 361.058,-352.6 343.461,-342.297 323.835,-331.175 307.086,-321.792"/>
<polygon fill="black" stroke="black" points="308.545,-318.598 298.109,-316.774 305.13,-324.708 308.545,-318.598"/>
</g>
<!-- TA_PEP_SVW_polygon -->
<g id="node7" class="node"><title>TA_PEP_SVW_polygon</title>
<path fill="#ffffcc" stroke="black" d="M62.2926,-353.1C62.2926,-353.1 339.824,-353.1 339.824,-353.1 345.824,-353.1 351.824,-359.1 351.824,-365.1 351.824,-365.1 351.824,-390.7 351.824,-390.7 351.824,-396.7 345.824,-402.7 339.824,-402.7 339.824,-402.7 62.2926,-402.7 62.2926,-402.7 56.2926,-402.7 50.2926,-396.7 50.2926,-390.7 50.2926,-390.7 50.2926,-365.1 50.2926,-365.1 50.2926,-359.1 56.2926,-353.1 62.2926,-353.1"/>
<text text-anchor="middle" x="201.058" y="-386.1" font-family="Helvetica,sans-Serif" font-size="14.00">TA_PEP_SVW_polygon</text>
<polyline fill="none" stroke="black" points="50.2926,-377.9 351.824,-377.9 "/>
<text text-anchor="middle" x="201.058" y="-361.3" font-family="Helvetica,sans-Serif" font-size="14.00">file:{dir_anx}_raw_data/databc/TA_PEP_SVW</text>
</g>
<!-- TA_PEP_SVW_polygon&#45;&gt;read_TA_PEP_SVW_polygon -->
<g id="edge6" class="edge"><title>TA_PEP_SVW_polygon&#45;&gt;read_TA_PEP_SVW_polygon</title>
<path fill="none" stroke="black" d="M221.579,-352.866C229.306,-343.816 238.103,-333.513 245.888,-324.395"/>
<polygon fill="black" stroke="black" points="248.584,-326.627 252.416,-316.749 243.261,-322.082 248.584,-326.627"/>
</g>
<!-- hs_pep_poly&#45;&gt;write_hs_pep_poly -->
<g id="edge8" class="edge"><title>hs_pep_poly&#45;&gt;write_hs_pep_poly</title>
<path fill="none" stroke="black" d="M295.216,-208.297C298.972,-200.328 303.511,-190.7 307.677,-181.864"/>
<polygon fill="black" stroke="black" points="310.896,-183.242 311.995,-172.704 304.565,-180.257 310.896,-183.242"/>
</g>
<!-- dir_goal&#45;&gt;write_hs_pep_poly -->
<g id="edge9" class="edge"><title>dir_goal&#45;&gt;write_hs_pep_poly</title>
<path fill="none" stroke="black" d="M407.117,-280.471C389.872,-255.737 357.875,-209.842 337.845,-181.112"/>
<polygon fill="black" stroke="black" points="340.633,-178.991 332.042,-172.789 334.89,-182.994 340.633,-178.991"/>
</g>
<!-- TA_PEP_SVW_polygon_input_port -->
<g id="node10" class="node"><title>TA_PEP_SVW_polygon_input_port</title>
<ellipse fill="#ffffff" stroke="black" cx="19.0583" cy="-457.2" rx="7" ry="7"/>
</g>
<!-- TA_PEP_SVW_polygon_input_port&#45;&gt;TA_PEP_SVW_polygon -->
<g id="edge10" class="edge"><title>TA_PEP_SVW_polygon_input_port&#45;&gt;TA_PEP_SVW_polygon</title>
<path fill="none" stroke="black" d="M23.3536,-451.481C26.9732,-447.734 32.4467,-442.58 38.0583,-439.2 59.8493,-426.075 84.9662,-415.055 108.855,-406.177"/>
<polygon fill="black" stroke="black" points="110.085,-409.454 118.293,-402.755 107.698,-402.873 110.085,-409.454"/>
</g>
<!-- setup_R_input_port -->
<g id="node11" class="node"><title>setup_R_input_port</title>
<ellipse fill="#ffffff" stroke="black" cx="276.058" cy="-590.2" rx="7" ry="7"/>
</g>
<!-- setup_R_input_port&#45;&gt;setup_R -->
<g id="edge11" class="edge"><title>setup_R_input_port&#45;&gt;setup_R</title>
<path fill="none" stroke="black" d="M276.058,-582.886C276.058,-576.686 276.058,-566.795 276.058,-557.248"/>
<polygon fill="black" stroke="black" points="279.558,-557.216 276.058,-547.216 272.558,-557.216 279.558,-557.216"/>
</g>
</g>
</svg>
