<?xml version="1.0" encoding="UTF-8" standalone="no"?>
<!DOCTYPE svg PUBLIC "-//W3C//DTD SVG 1.1//EN"
 "http://www.w3.org/Graphics/SVG/1.1/DTD/svg11.dtd">
<!-- Generated by graphviz version 2.38.0 (20140413.2041)
 -->
<!-- Title: Workflow Pages: 1 -->
<svg width="943pt" height="491pt"
 viewBox="0.00 0.00 943.00 490.80" xmlns="http://www.w3.org/2000/svg" xmlns:xlink="http://www.w3.org/1999/xlink">
<g id="graph0" class="graph" transform="scale(1 1) rotate(0) translate(4 486.8)">
<title>Workflow</title>
<polygon fill="white" stroke="none" points="-4,4 -4,-486.8 939,-486.8 939,4 -4,4"/>
<text text-anchor="middle" x="467.5" y="-462.6" font-family="Helvetica,sans-Serif" font-size="18.00">Setup_watershed_raster</text>
<g id="clust1" class="cluster"><title>cluster_workflow_box_outer</title>
<polygon fill="none" stroke="black" stroke-width="2" points="22,-34 22,-419.2 913,-419.2 913,-34 22,-34"/>
</g>
<g id="clust2" class="cluster"><title>cluster_workflow_box_inner</title>
<polygon fill="none" stroke="black" stroke-width="0" points="30,-42 30,-411.2 905,-411.2 905,-42 30,-42"/>
</g>
<!-- set_up_configuration_and_start_provenance_tracking -->
<g id="node1" class="node"><title>set_up_configuration_and_start_provenance_tracking</title>
<polygon fill="#ccffcc" stroke="black" points="625.784,-331.2 276.216,-331.2 276.216,-295.2 625.784,-295.2 625.784,-331.2"/>
<text text-anchor="middle" x="451" y="-309" font-family="Helvetica,sans-Serif" font-size="14.00">set_up_configuration_and_start_provenance_tracking</text>
</g>
<!-- dir_spatial -->
<g id="node7" class="node"><title>dir_spatial</title>
<path fill="#fcfcfc" stroke="black" d="M524.784,-251.9C524.784,-251.9 469.216,-251.9 469.216,-251.9 463.216,-251.9 457.216,-245.9 457.216,-239.9 457.216,-239.9 457.216,-227.9 457.216,-227.9 457.216,-221.9 463.216,-215.9 469.216,-215.9 469.216,-215.9 524.784,-215.9 524.784,-215.9 530.784,-215.9 536.784,-221.9 536.784,-227.9 536.784,-227.9 536.784,-239.9 536.784,-239.9 536.784,-245.9 530.784,-251.9 524.784,-251.9"/>
<text text-anchor="middle" x="497" y="-229.7" font-family="Helvetica,sans-Serif" font-size="14.00">dir_spatial</text>
</g>
<!-- set_up_configuration_and_start_provenance_tracking&#45;&gt;dir_spatial -->
<g id="edge1" class="edge"><title>set_up_configuration_and_start_provenance_tracking&#45;&gt;dir_spatial</title>
<path fill="none" stroke="black" d="M461.209,-295.045C467.224,-284.937 474.95,-271.953 481.684,-260.638"/>
<polygon fill="black" stroke="black" points="484.713,-262.391 486.82,-252.007 478.698,-258.811 484.713,-262.391"/>
</g>
<!-- dir_goal -->
<g id="node8" class="node"><title>dir_goal</title>
<path fill="#fcfcfc" stroke="black" d="M426.787,-251.9C426.787,-251.9 385.213,-251.9 385.213,-251.9 379.213,-251.9 373.213,-245.9 373.213,-239.9 373.213,-239.9 373.213,-227.9 373.213,-227.9 373.213,-221.9 379.213,-215.9 385.213,-215.9 385.213,-215.9 426.787,-215.9 426.787,-215.9 432.787,-215.9 438.787,-221.9 438.787,-227.9 438.787,-227.9 438.787,-239.9 438.787,-239.9 438.787,-245.9 432.787,-251.9 426.787,-251.9"/>
<text text-anchor="middle" x="406" y="-229.7" font-family="Helvetica,sans-Serif" font-size="14.00">dir_goal</text>
</g>
<!-- set_up_configuration_and_start_provenance_tracking&#45;&gt;dir_goal -->
<g id="edge2" class="edge"><title>set_up_configuration_and_start_provenance_tracking&#45;&gt;dir_goal</title>
<path fill="none" stroke="black" d="M441.013,-295.045C435.187,-285.037 427.72,-272.21 421.179,-260.974"/>
<polygon fill="black" stroke="black" points="424.015,-258.889 415.959,-252.007 417.965,-262.411 424.015,-258.889"/>
</g>
<!-- raster_to_same_extents/resolution_as_500m_base_raster -->
<g id="node2" class="node"><title>raster_to_same_extents/resolution_as_500m_base_raster</title>
<polygon fill="#ccffcc" stroke="black" points="639.767,-172.6 262.233,-172.6 262.233,-136.6 639.767,-136.6 639.767,-172.6"/>
<text text-anchor="middle" x="451" y="-150.4" font-family="Helvetica,sans-Serif" font-size="14.00">raster_to_same_extents/resolution_as_500m_base_raster</text>
</g>
<!-- rast_watershe -->
<g id="node3" class="node"><title>rast_watershe</title>
<path fill="#ffffcc" stroke="black" d="M285.782,-50.5C285.782,-50.5 616.218,-50.5 616.218,-50.5 622.218,-50.5 628.218,-56.5 628.218,-62.5 628.218,-62.5 628.218,-88.1 628.218,-88.1 628.218,-94.1 622.218,-100.1 616.218,-100.1 616.218,-100.1 285.782,-100.1 285.782,-100.1 279.782,-100.1 273.782,-94.1 273.782,-88.1 273.782,-88.1 273.782,-62.5 273.782,-62.5 273.782,-56.5 279.782,-50.5 285.782,-50.5"/>
<text text-anchor="middle" x="451" y="-83.5" font-family="Helvetica,sans-Serif" font-size="14.00">rast_watershe</text>
<polyline fill="none" stroke="black" points="273.782,-75.3 628.218,-75.3 "/>
<text text-anchor="middle" x="451" y="-58.7" font-family="Helvetica,sans-Serif" font-size="14.00">file:{dir_goal}/spatial/howe_sound_watershed_500m.tif</text>
</g>
<!-- raster_to_same_extents/resolution_as_500m_base_raster&#45;&gt;rast_watershe -->
<g id="edge4" class="edge"><title>raster_to_same_extents/resolution_as_500m_base_raster&#45;&gt;rast_watershe</title>
<path fill="none" stroke="black" d="M451,-136.445C451,-128.689 451,-119.239 451,-110.15"/>
<polygon fill="black" stroke="black" points="454.5,-110.15 451,-100.15 447.5,-110.15 454.5,-110.15"/>
</g>
<!-- rast_watershe_output_port -->
<g id="node12" class="node"><title>rast_watershe_output_port</title>
<ellipse fill="#ffffff" stroke="black" cx="451" cy="-7" rx="7" ry="7"/>
</g>
<!-- rast_watershe&#45;&gt;rast_watershe_output_port -->
<g id="edge12" class="edge"><title>rast_watershe&#45;&gt;rast_watershe_output_port</title>
<path fill="none" stroke="black" d="M451,-50.3642C451,-41.694 451,-32.1105 451,-24.2546"/>
<polygon fill="black" stroke="black" points="454.5,-24.0006 451,-14.0006 447.5,-24.0007 454.5,-24.0006"/>
</g>
<!-- setup.R -->
<g id="node4" class="node"><title>setup.R</title>
<path fill="#ffffcc" stroke="black" d="M471.236,-403.2C471.236,-403.2 430.764,-403.2 430.764,-403.2 424.764,-403.2 418.764,-397.2 418.764,-391.2 418.764,-391.2 418.764,-379.2 418.764,-379.2 418.764,-373.2 424.764,-367.2 430.764,-367.2 430.764,-367.2 471.236,-367.2 471.236,-367.2 477.236,-367.2 483.236,-373.2 483.236,-379.2 483.236,-379.2 483.236,-391.2 483.236,-391.2 483.236,-397.2 477.236,-403.2 471.236,-403.2"/>
<text text-anchor="middle" x="451" y="-381" font-family="Helvetica,sans-Serif" font-size="14.00">setup.R</text>
</g>
<!-- setup.R&#45;&gt;set_up_configuration_and_start_provenance_tracking -->
<g id="edge3" class="edge"><title>setup.R&#45;&gt;set_up_configuration_and_start_provenance_tracking</title>
<path fill="none" stroke="black" d="M451,-366.897C451,-359.183 451,-349.912 451,-341.312"/>
<polygon fill="black" stroke="black" points="454.5,-341.304 451,-331.304 447.5,-341.304 454.5,-341.304"/>
</g>
<!-- rast_base -->
<g id="node5" class="node"><title>rast_base</title>
<path fill="#ffffcc" stroke="black" d="M50.4699,-209.1C50.4699,-209.1 343.53,-209.1 343.53,-209.1 349.53,-209.1 355.53,-215.1 355.53,-221.1 355.53,-221.1 355.53,-246.7 355.53,-246.7 355.53,-252.7 349.53,-258.7 343.53,-258.7 343.53,-258.7 50.4699,-258.7 50.4699,-258.7 44.4699,-258.7 38.4699,-252.7 38.4699,-246.7 38.4699,-246.7 38.4699,-221.1 38.4699,-221.1 38.4699,-215.1 44.4699,-209.1 50.4699,-209.1"/>
<text text-anchor="middle" x="197" y="-242.1" font-family="Helvetica,sans-Serif" font-size="14.00">rast_base</text>
<polyline fill="none" stroke="black" points="38.4699,-233.9 355.53,-233.9 "/>
<text text-anchor="middle" x="197" y="-217.3" font-family="Helvetica,sans-Serif" font-size="14.00">file:{dir_spatial/raster/ohibc_rgn_raster_500m.tif}</text>
</g>
<!-- rast_base&#45;&gt;raster_to_same_extents/resolution_as_500m_base_raster -->
<g id="edge7" class="edge"><title>rast_base&#45;&gt;raster_to_same_extents/resolution_as_500m_base_raster</title>
<path fill="none" stroke="black" d="M275.281,-209.077C310.571,-198.337 351.776,-185.797 385.412,-175.561"/>
<polygon fill="black" stroke="black" points="386.591,-178.86 395.138,-172.6 384.552,-172.164 386.591,-178.86"/>
</g>
<!-- howe_sound_watersheds -->
<g id="node6" class="node"><title>howe_sound_watersheds</title>
<path fill="#ffffcc" stroke="black" d="M567.008,-209.1C567.008,-209.1 884.992,-209.1 884.992,-209.1 890.992,-209.1 896.992,-215.1 896.992,-221.1 896.992,-221.1 896.992,-246.7 896.992,-246.7 896.992,-252.7 890.992,-258.7 884.992,-258.7 884.992,-258.7 567.008,-258.7 567.008,-258.7 561.008,-258.7 555.008,-252.7 555.008,-246.7 555.008,-246.7 555.008,-221.1 555.008,-221.1 555.008,-215.1 561.008,-209.1 567.008,-209.1"/>
<text text-anchor="middle" x="726" y="-242.1" font-family="Helvetica,sans-Serif" font-size="14.00">howe_sound_watersheds</text>
<polyline fill="none" stroke="black" points="555.008,-233.9 896.992,-233.9 "/>
<text text-anchor="middle" x="726" y="-217.3" font-family="Helvetica,sans-Serif" font-size="14.00">file:{dir_spatial}/watershed/howe_sound_watersheds</text>
</g>
<!-- howe_sound_watersheds&#45;&gt;raster_to_same_extents/resolution_as_500m_base_raster -->
<g id="edge8" class="edge"><title>howe_sound_watersheds&#45;&gt;raster_to_same_extents/resolution_as_500m_base_raster</title>
<path fill="none" stroke="black" d="M641.247,-209.077C602.876,-198.291 558.045,-185.689 521.542,-175.429"/>
<polygon fill="black" stroke="black" points="522.054,-171.937 511.48,-172.6 520.16,-178.676 522.054,-171.937"/>
</g>
<!-- dir_spatial&#45;&gt;raster_to_same_extents/resolution_as_500m_base_raster -->
<g id="edge5" class="edge"><title>dir_spatial&#45;&gt;raster_to_same_extents/resolution_as_500m_base_raster</title>
<path fill="none" stroke="black" d="M486.791,-215.745C480.776,-205.637 473.05,-192.653 466.316,-181.338"/>
<polygon fill="black" stroke="black" points="469.302,-179.511 461.18,-172.707 463.287,-183.091 469.302,-179.511"/>
</g>
<!-- dir_goal&#45;&gt;raster_to_same_extents/resolution_as_500m_base_raster -->
<g id="edge6" class="edge"><title>dir_goal&#45;&gt;raster_to_same_extents/resolution_as_500m_base_raster</title>
<path fill="none" stroke="black" d="M415.987,-215.745C421.813,-205.737 429.28,-192.91 435.821,-181.674"/>
<polygon fill="black" stroke="black" points="439.035,-183.111 441.041,-172.707 432.985,-179.589 439.035,-183.111"/>
</g>
<!-- setup.R_input_port -->
<g id="node9" class="node"><title>setup.R_input_port</title>
<ellipse fill="#ffffff" stroke="black" cx="451" cy="-446.2" rx="7" ry="7"/>
</g>
<!-- setup.R_input_port&#45;&gt;setup.R -->
<g id="edge9" class="edge"><title>setup.R_input_port&#45;&gt;setup.R</title>
<path fill="none" stroke="black" d="M451,-438.886C451,-432.686 451,-422.795 451,-413.248"/>
<polygon fill="black" stroke="black" points="454.5,-413.216 451,-403.216 447.5,-413.216 454.5,-413.216"/>
</g>
<!-- rast_base_input_port -->
<g id="node10" class="node"><title>rast_base_input_port</title>
<ellipse fill="#ffffff" stroke="black" cx="7" cy="-313.2" rx="7" ry="7"/>
</g>
<!-- rast_base_input_port&#45;&gt;rast_base -->
<g id="edge10" class="edge"><title>rast_base_input_port&#45;&gt;rast_base</title>
<path fill="none" stroke="black" d="M11.2816,-307.458C14.8932,-303.697 20.3627,-298.537 26,-295.2 48.3603,-281.964 74.0789,-270.995 98.6655,-262.207"/>
<polygon fill="black" stroke="black" points="100.093,-265.416 108.386,-258.822 97.7915,-258.805 100.093,-265.416"/>
</g>
<!-- howe_sound_watersheds_input_port -->
<g id="node11" class="node"><title>howe_sound_watersheds_input_port</title>
<ellipse fill="#ffffff" stroke="black" cx="928" cy="-313.2" rx="7" ry="7"/>
</g>
<!-- howe_sound_watersheds_input_port&#45;&gt;howe_sound_watersheds -->
<g id="edge11" class="edge"><title>howe_sound_watersheds_input_port&#45;&gt;howe_sound_watersheds</title>
<path fill="none" stroke="black" d="M923.737,-307.426C920.136,-303.648 914.672,-298.478 909,-295.2 885.631,-281.692 858.812,-270.709 833.041,-262"/>
<polygon fill="black" stroke="black" points="833.817,-258.571 823.224,-258.774 831.631,-265.221 833.817,-258.571"/>
</g>
</g>
</svg>
