<?xml version="1.0" encoding="UTF-8" standalone="no"?>
<!DOCTYPE svg PUBLIC "-//W3C//DTD SVG 1.1//EN"
 "http://www.w3.org/Graphics/SVG/1.1/DTD/svg11.dtd">
<!-- Generated by graphviz version 2.38.0 (20140413.2041)
 -->
<!-- Title: Workflow Pages: 1 -->
<svg width="496pt" height="620pt"
 viewBox="0.00 0.00 496.12 620.20" xmlns="http://www.w3.org/2000/svg" xmlns:xlink="http://www.w3.org/1999/xlink">
<g id="graph0" class="graph" transform="scale(1 1) rotate(0) translate(4 616.2)">
<title>Workflow</title>
<polygon fill="white" stroke="none" points="-4,4 -4,-616.2 492.117,-616.2 492.117,4 -4,4"/>
<text text-anchor="middle" x="244.058" y="-592" font-family="Helvetica,sans-Serif" font-size="18.00">Read_BC_Parks_EcologicalReserves_ProtectedArea_data</text>
<g id="clust1" class="cluster"><title>cluster_workflow_box_outer</title>
<polygon fill="none" stroke="black" stroke-width="2" points="59.0583,-34 59.0583,-548.6 443.058,-548.6 443.058,-34 59.0583,-34"/>
</g>
<g id="clust2" class="cluster"><title>cluster_workflow_box_inner</title>
<polygon fill="none" stroke="black" stroke-width="0" points="67.0583,-42 67.0583,-540.6 435.058,-540.6 435.058,-42 67.0583,-42"/>
</g>
<!-- set_up_Configuration_and_start_provenance_tracking -->
<g id="node1" class="node"><title>set_up_Configuration_and_start_provenance_tracking</title>
<polygon fill="#ccffcc" stroke="black" points="427.449,-460.6 74.6679,-460.6 74.6679,-424.6 427.449,-424.6 427.449,-460.6"/>
<text text-anchor="middle" x="251.058" y="-438.4" font-family="Helvetica,sans-Serif" font-size="14.00">set_up_Configuration_and_start_provenance_tracking</text>
</g>
<!-- dir_anx -->
<g id="node6" class="node"><title>dir_anx</title>
<path fill="#ffffcc" stroke="black" d="M388.956,-381.3C388.956,-381.3 351.161,-381.3 351.161,-381.3 345.161,-381.3 339.161,-375.3 339.161,-369.3 339.161,-369.3 339.161,-357.3 339.161,-357.3 339.161,-351.3 345.161,-345.3 351.161,-345.3 351.161,-345.3 388.956,-345.3 388.956,-345.3 394.956,-345.3 400.956,-351.3 400.956,-357.3 400.956,-357.3 400.956,-369.3 400.956,-369.3 400.956,-375.3 394.956,-381.3 388.956,-381.3"/>
<text text-anchor="middle" x="370.058" y="-359.1" font-family="Helvetica,sans-Serif" font-size="14.00">dir_anx</text>
</g>
<!-- set_up_Configuration_and_start_provenance_tracking&#45;&gt;dir_anx -->
<g id="edge1" class="edge"><title>set_up_Configuration_and_start_provenance_tracking&#45;&gt;dir_anx</title>
<path fill="none" stroke="black" d="M277.468,-424.445C294.492,-413.386 316.816,-398.885 335.278,-386.893"/>
<polygon fill="black" stroke="black" points="337.243,-389.79 343.722,-381.407 333.429,-383.92 337.243,-389.79"/>
</g>
<!-- read_TA_PEP_SVW_polygon -->
<g id="node2" class="node"><title>read_TA_PEP_SVW_polygon</title>
<polygon fill="#ccffcc" stroke="black" points="363.004,-302 161.113,-302 161.113,-266 363.004,-266 363.004,-302"/>
<text text-anchor="middle" x="262.058" y="-279.8" font-family="Helvetica,sans-Serif" font-size="14.00">read_TA_PEP_SVW_polygon</text>
</g>
<!-- hs_pep_poly -->
<g id="node8" class="node"><title>hs_pep_poly</title>
<path fill="#ffffcc" stroke="black" d="M297.926,-230C297.926,-230 226.19,-230 226.19,-230 220.19,-230 214.19,-224 214.19,-218 214.19,-218 214.19,-206 214.19,-206 214.19,-200 220.19,-194 226.19,-194 226.19,-194 297.926,-194 297.926,-194 303.926,-194 309.926,-200 309.926,-206 309.926,-206 309.926,-218 309.926,-218 309.926,-224 303.926,-230 297.926,-230"/>
<text text-anchor="middle" x="262.058" y="-207.8" font-family="Helvetica,sans-Serif" font-size="14.00">hs_pep_poly</text>
</g>
<!-- read_TA_PEP_SVW_polygon&#45;&gt;hs_pep_poly -->
<g id="edge3" class="edge"><title>read_TA_PEP_SVW_polygon&#45;&gt;hs_pep_poly</title>
<path fill="none" stroke="black" d="M262.058,-265.697C262.058,-257.983 262.058,-248.712 262.058,-240.112"/>
<polygon fill="black" stroke="black" points="265.558,-240.104 262.058,-230.104 258.558,-240.104 265.558,-240.104"/>
</g>
<!-- write_hs_pep_poly -->
<g id="node3" class="node"><title>write_hs_pep_poly</title>
<polygon fill="#ccffcc" stroke="black" points="328.256,-158 195.861,-158 195.861,-122 328.256,-122 328.256,-158"/>
<text text-anchor="middle" x="262.058" y="-135.8" font-family="Helvetica,sans-Serif" font-size="14.00">write_hs_pep_poly</text>
</g>
<!-- poly_hs_pep -->
<g id="node4" class="node"><title>poly_hs_pep</title>
<path fill="#ffffcc" stroke="black" d="M297.926,-86C297.926,-86 226.19,-86 226.19,-86 220.19,-86 214.19,-80 214.19,-74 214.19,-74 214.19,-62 214.19,-62 214.19,-56 220.19,-50 226.19,-50 226.19,-50 297.926,-50 297.926,-50 303.926,-50 309.926,-56 309.926,-62 309.926,-62 309.926,-74 309.926,-74 309.926,-80 303.926,-86 297.926,-86"/>
<text text-anchor="middle" x="262.058" y="-63.8" font-family="Helvetica,sans-Serif" font-size="14.00">poly_hs_pep</text>
</g>
<!-- write_hs_pep_poly&#45;&gt;poly_hs_pep -->
<g id="edge6" class="edge"><title>write_hs_pep_poly&#45;&gt;poly_hs_pep</title>
<path fill="none" stroke="black" d="M262.058,-121.697C262.058,-113.983 262.058,-104.712 262.058,-96.1124"/>
<polygon fill="black" stroke="black" points="265.558,-96.1043 262.058,-86.1043 258.558,-96.1044 265.558,-96.1043"/>
</g>
<!-- poly_hs_pep_output_port -->
<g id="node11" class="node"><title>poly_hs_pep_output_port</title>
<ellipse fill="#ffffff" stroke="black" cx="262.058" cy="-7" rx="7" ry="7"/>
</g>
<!-- poly_hs_pep&#45;&gt;poly_hs_pep_output_port -->
<g id="edge10" class="edge"><title>poly_hs_pep&#45;&gt;poly_hs_pep_output_port</title>
<path fill="none" stroke="black" d="M262.058,-49.9348C262.058,-41.8859 262.058,-32.3254 262.058,-24.3671"/>
<polygon fill="black" stroke="black" points="265.558,-24.2164 262.058,-14.2164 258.558,-24.2165 265.558,-24.2164"/>
</g>
<!-- setup_R -->
<g id="node5" class="node"><title>setup_R</title>
<path fill="#ffffcc" stroke="black" d="M273.186,-532.6C273.186,-532.6 228.931,-532.6 228.931,-532.6 222.931,-532.6 216.931,-526.6 216.931,-520.6 216.931,-520.6 216.931,-508.6 216.931,-508.6 216.931,-502.6 222.931,-496.6 228.931,-496.6 228.931,-496.6 273.186,-496.6 273.186,-496.6 279.186,-496.6 285.186,-502.6 285.186,-508.6 285.186,-508.6 285.186,-520.6 285.186,-520.6 285.186,-526.6 279.186,-532.6 273.186,-532.6"/>
<text text-anchor="middle" x="251.058" y="-510.4" font-family="Helvetica,sans-Serif" font-size="14.00">setup_R</text>
</g>
<!-- setup_R&#45;&gt;set_up_Configuration_and_start_provenance_tracking -->
<g id="edge2" class="edge"><title>setup_R&#45;&gt;set_up_Configuration_and_start_provenance_tracking</title>
<path fill="none" stroke="black" d="M251.058,-496.297C251.058,-488.583 251.058,-479.312 251.058,-470.712"/>
<polygon fill="black" stroke="black" points="254.558,-470.704 251.058,-460.704 247.558,-470.704 254.558,-470.704"/>
</g>
<!-- dir_anx&#45;&gt;read_TA_PEP_SVW_polygon -->
<g id="edge4" class="edge"><title>dir_anx&#45;&gt;read_TA_PEP_SVW_polygon</title>
<path fill="none" stroke="black" d="M346.09,-345.145C330.849,-334.236 310.928,-319.978 294.308,-308.083"/>
<polygon fill="black" stroke="black" points="296.129,-305.082 285.96,-302.107 292.055,-310.774 296.129,-305.082"/>
</g>
<!-- TA_PEP_SVW_polygon -->
<g id="node7" class="node"><title>TA_PEP_SVW_polygon</title>
<path fill="#ffffcc" stroke="black" d="M86.916,-338.5C86.916,-338.5 309.201,-338.5 309.201,-338.5 315.201,-338.5 321.201,-344.5 321.201,-350.5 321.201,-350.5 321.201,-376.1 321.201,-376.1 321.201,-382.1 315.201,-388.1 309.201,-388.1 309.201,-388.1 86.916,-388.1 86.916,-388.1 80.916,-388.1 74.916,-382.1 74.916,-376.1 74.916,-376.1 74.916,-350.5 74.916,-350.5 74.916,-344.5 80.916,-338.5 86.916,-338.5"/>
<text text-anchor="middle" x="198.058" y="-371.5" font-family="Helvetica,sans-Serif" font-size="14.00">TA_PEP_SVW_polygon</text>
<polyline fill="none" stroke="black" points="74.916,-363.3 321.201,-363.3 "/>
<text text-anchor="middle" x="198.058" y="-346.7" font-family="Helvetica,sans-Serif" font-size="14.00">file:_raw_data/databc/TA_PEP_SVW</text>
</g>
<!-- TA_PEP_SVW_polygon&#45;&gt;read_TA_PEP_SVW_polygon -->
<g id="edge5" class="edge"><title>TA_PEP_SVW_polygon&#45;&gt;read_TA_PEP_SVW_polygon</title>
<path fill="none" stroke="black" d="M217.957,-338.266C225.374,-329.307 233.808,-319.121 241.3,-310.072"/>
<polygon fill="black" stroke="black" points="244.178,-312.084 247.86,-302.149 238.786,-307.62 244.178,-312.084"/>
</g>
<!-- hs_pep_poly&#45;&gt;write_hs_pep_poly -->
<g id="edge7" class="edge"><title>hs_pep_poly&#45;&gt;write_hs_pep_poly</title>
<path fill="none" stroke="black" d="M262.058,-193.697C262.058,-185.983 262.058,-176.712 262.058,-168.112"/>
<polygon fill="black" stroke="black" points="265.558,-168.104 262.058,-158.104 258.558,-168.104 265.558,-168.104"/>
</g>
<!-- TA_PEP_SVW_polygon_input_port -->
<g id="node9" class="node"><title>TA_PEP_SVW_polygon_input_port</title>
<ellipse fill="#ffffff" stroke="black" cx="44.0583" cy="-442.6" rx="7" ry="7"/>
</g>
<!-- TA_PEP_SVW_polygon_input_port&#45;&gt;TA_PEP_SVW_polygon -->
<g id="edge8" class="edge"><title>TA_PEP_SVW_polygon_input_port&#45;&gt;TA_PEP_SVW_polygon</title>
<path fill="none" stroke="black" d="M48.4146,-436.978C52.0695,-433.288 57.5609,-428.163 63.0583,-424.6 82.0191,-412.313 103.901,-401.346 124.453,-392.245"/>
<polygon fill="black" stroke="black" points="126.006,-395.387 133.787,-388.197 123.22,-388.965 126.006,-395.387"/>
</g>
<!-- setup_R_input_port -->
<g id="node10" class="node"><title>setup_R_input_port</title>
<ellipse fill="#ffffff" stroke="black" cx="251.058" cy="-575.6" rx="7" ry="7"/>
</g>
<!-- setup_R_input_port&#45;&gt;setup_R -->
<g id="edge9" class="edge"><title>setup_R_input_port&#45;&gt;setup_R</title>
<path fill="none" stroke="black" d="M251.058,-568.286C251.058,-562.086 251.058,-552.195 251.058,-542.648"/>
<polygon fill="black" stroke="black" points="254.558,-542.616 251.058,-532.616 247.558,-542.616 254.558,-542.616"/>
</g>
</g>
</svg>
