<?xml version="1.0" encoding="UTF-8" standalone="no"?>
<!DOCTYPE svg PUBLIC "-//W3C//DTD SVG 1.1//EN"
 "http://www.w3.org/Graphics/SVG/1.1/DTD/svg11.dtd">
<!-- Generated by graphviz version 2.38.0 (20140413.2041)
 -->
<!-- Title: Workflow Pages: 1 -->
<svg width="496pt" height="635pt"
 viewBox="0.00 0.00 496.12 634.80" xmlns="http://www.w3.org/2000/svg" xmlns:xlink="http://www.w3.org/1999/xlink">
<g id="graph0" class="graph" transform="scale(1 1) rotate(0) translate(4 630.8)">
<title>Workflow</title>
<polygon fill="white" stroke="none" points="-4,4 -4,-630.8 492.117,-630.8 492.117,4 -4,4"/>
<text text-anchor="middle" x="244.058" y="-606.6" font-family="Helvetica,sans-Serif" font-size="18.00">Read_BC_Parks_EcologicalReserves_ProtectedArea_data</text>
<g id="clust1" class="cluster"><title>cluster_workflow_box_outer</title>
<polygon fill="none" stroke="black" stroke-width="2" points="32.0583,-34 32.0583,-563.2 470.058,-563.2 470.058,-34 32.0583,-34"/>
</g>
<g id="clust2" class="cluster"><title>cluster_workflow_box_inner</title>
<polygon fill="none" stroke="black" stroke-width="0" points="40.0583,-42 40.0583,-555.2 462.058,-555.2 462.058,-42 40.0583,-42"/>
</g>
<!-- set_up_Configuration_and_start_provenance_tracking -->
<g id="node1" class="node"><title>set_up_Configuration_and_start_provenance_tracking</title>
<polygon fill="#ccffcc" stroke="black" points="454.449,-475.2 101.668,-475.2 101.668,-439.2 454.449,-439.2 454.449,-475.2"/>
<text text-anchor="middle" x="278.058" y="-453" font-family="Helvetica,sans-Serif" font-size="14.00">set_up_Configuration_and_start_provenance_tracking</text>
</g>
<!-- dir_anx -->
<g id="node6" class="node"><title>dir_anx</title>
<path fill="#ffffcc" stroke="black" d="M421.956,-395.9C421.956,-395.9 384.161,-395.9 384.161,-395.9 378.161,-395.9 372.161,-389.9 372.161,-383.9 372.161,-383.9 372.161,-371.9 372.161,-371.9 372.161,-365.9 378.161,-359.9 384.161,-359.9 384.161,-359.9 421.956,-359.9 421.956,-359.9 427.956,-359.9 433.956,-365.9 433.956,-371.9 433.956,-371.9 433.956,-383.9 433.956,-383.9 433.956,-389.9 427.956,-395.9 421.956,-395.9"/>
<text text-anchor="middle" x="403.058" y="-373.7" font-family="Helvetica,sans-Serif" font-size="14.00">dir_anx</text>
</g>
<!-- set_up_Configuration_and_start_provenance_tracking&#45;&gt;dir_anx -->
<g id="edge1" class="edge"><title>set_up_Configuration_and_start_provenance_tracking&#45;&gt;dir_anx</title>
<path fill="none" stroke="black" d="M305.8,-439.045C323.763,-427.936 347.344,-413.354 366.787,-401.33"/>
<polygon fill="black" stroke="black" points="368.73,-404.244 375.394,-396.007 365.048,-398.29 368.73,-404.244"/>
</g>
<!-- dir_goal -->
<g id="node9" class="node"><title>dir_goal</title>
<path fill="#ffffcc" stroke="black" d="M441.845,-316.6C441.845,-316.6 400.271,-316.6 400.271,-316.6 394.271,-316.6 388.271,-310.6 388.271,-304.6 388.271,-304.6 388.271,-292.6 388.271,-292.6 388.271,-286.6 394.271,-280.6 400.271,-280.6 400.271,-280.6 441.845,-280.6 441.845,-280.6 447.845,-280.6 453.845,-286.6 453.845,-292.6 453.845,-292.6 453.845,-304.6 453.845,-304.6 453.845,-310.6 447.845,-316.6 441.845,-316.6"/>
<text text-anchor="middle" x="421.058" y="-294.4" font-family="Helvetica,sans-Serif" font-size="14.00">dir_goal</text>
</g>
<!-- set_up_Configuration_and_start_provenance_tracking&#45;&gt;dir_goal -->
<g id="edge2" class="edge"><title>set_up_Configuration_and_start_provenance_tracking&#45;&gt;dir_goal</title>
<path fill="none" stroke="black" d="M394.816,-439.179C413.713,-431.221 431.005,-419.732 443.058,-403.2 459.551,-380.58 448.645,-348.222 437.096,-325.71"/>
<polygon fill="black" stroke="black" points="440.052,-323.819 432.186,-316.721 433.909,-327.175 440.052,-323.819"/>
</g>
<!-- read_TA_PEP_SVW_polygon -->
<g id="node2" class="node"><title>read_TA_PEP_SVW_polygon</title>
<polygon fill="#ccffcc" stroke="black" points="370.004,-316.6 168.113,-316.6 168.113,-280.6 370.004,-280.6 370.004,-316.6"/>
<text text-anchor="middle" x="269.058" y="-294.4" font-family="Helvetica,sans-Serif" font-size="14.00">read_TA_PEP_SVW_polygon</text>
</g>
<!-- hs_pep_poly -->
<g id="node8" class="node"><title>hs_pep_poly</title>
<path fill="#ffffcc" stroke="black" d="M324.926,-244.6C324.926,-244.6 253.19,-244.6 253.19,-244.6 247.19,-244.6 241.19,-238.6 241.19,-232.6 241.19,-232.6 241.19,-220.6 241.19,-220.6 241.19,-214.6 247.19,-208.6 253.19,-208.6 253.19,-208.6 324.926,-208.6 324.926,-208.6 330.926,-208.6 336.926,-214.6 336.926,-220.6 336.926,-220.6 336.926,-232.6 336.926,-232.6 336.926,-238.6 330.926,-244.6 324.926,-244.6"/>
<text text-anchor="middle" x="289.058" y="-222.4" font-family="Helvetica,sans-Serif" font-size="14.00">hs_pep_poly</text>
</g>
<!-- read_TA_PEP_SVW_polygon&#45;&gt;hs_pep_poly -->
<g id="edge4" class="edge"><title>read_TA_PEP_SVW_polygon&#45;&gt;hs_pep_poly</title>
<path fill="none" stroke="black" d="M274.002,-280.297C276.23,-272.498 278.913,-263.109 281.393,-254.429"/>
<polygon fill="black" stroke="black" points="284.789,-255.281 284.171,-244.704 278.059,-253.358 284.789,-255.281"/>
</g>
<!-- write_hs_pep_poly -->
<g id="node3" class="node"><title>write_hs_pep_poly</title>
<polygon fill="#ccffcc" stroke="black" points="388.256,-172.6 255.861,-172.6 255.861,-136.6 388.256,-136.6 388.256,-172.6"/>
<text text-anchor="middle" x="322.058" y="-150.4" font-family="Helvetica,sans-Serif" font-size="14.00">write_hs_pep_poly</text>
</g>
<!-- poly_hs_pep -->
<g id="node4" class="node"><title>poly_hs_pep</title>
<path fill="#ffffcc" stroke="black" d="M221.802,-50.5C221.802,-50.5 422.315,-50.5 422.315,-50.5 428.315,-50.5 434.315,-56.5 434.315,-62.5 434.315,-62.5 434.315,-88.1 434.315,-88.1 434.315,-94.1 428.315,-100.1 422.315,-100.1 422.315,-100.1 221.802,-100.1 221.802,-100.1 215.802,-100.1 209.802,-94.1 209.802,-88.1 209.802,-88.1 209.802,-62.5 209.802,-62.5 209.802,-56.5 215.802,-50.5 221.802,-50.5"/>
<text text-anchor="middle" x="322.058" y="-83.5" font-family="Helvetica,sans-Serif" font-size="14.00">poly_hs_pep</text>
<polyline fill="none" stroke="black" points="209.802,-75.3 434.315,-75.3 "/>
<text text-anchor="middle" x="322.058" y="-58.7" font-family="Helvetica,sans-Serif" font-size="14.00">file:{dir_goal}/spatial/hs_pep_poly</text>
</g>
<!-- write_hs_pep_poly&#45;&gt;poly_hs_pep -->
<g id="edge7" class="edge"><title>write_hs_pep_poly&#45;&gt;poly_hs_pep</title>
<path fill="none" stroke="black" d="M322.058,-136.445C322.058,-128.689 322.058,-119.239 322.058,-110.15"/>
<polygon fill="black" stroke="black" points="325.558,-110.15 322.058,-100.15 318.558,-110.15 325.558,-110.15"/>
</g>
<!-- poly_hs_pep_output_port -->
<g id="node12" class="node"><title>poly_hs_pep_output_port</title>
<ellipse fill="#ffffff" stroke="black" cx="322.058" cy="-7" rx="7" ry="7"/>
</g>
<!-- poly_hs_pep&#45;&gt;poly_hs_pep_output_port -->
<g id="edge12" class="edge"><title>poly_hs_pep&#45;&gt;poly_hs_pep_output_port</title>
<path fill="none" stroke="black" d="M322.058,-50.3642C322.058,-41.694 322.058,-32.1105 322.058,-24.2546"/>
<polygon fill="black" stroke="black" points="325.558,-24.0006 322.058,-14.0006 318.558,-24.0007 325.558,-24.0006"/>
</g>
<!-- setup_R -->
<g id="node5" class="node"><title>setup_R</title>
<path fill="#ffffcc" stroke="black" d="M300.186,-547.2C300.186,-547.2 255.931,-547.2 255.931,-547.2 249.931,-547.2 243.931,-541.2 243.931,-535.2 243.931,-535.2 243.931,-523.2 243.931,-523.2 243.931,-517.2 249.931,-511.2 255.931,-511.2 255.931,-511.2 300.186,-511.2 300.186,-511.2 306.186,-511.2 312.186,-517.2 312.186,-523.2 312.186,-523.2 312.186,-535.2 312.186,-535.2 312.186,-541.2 306.186,-547.2 300.186,-547.2"/>
<text text-anchor="middle" x="278.058" y="-525" font-family="Helvetica,sans-Serif" font-size="14.00">setup_R</text>
</g>
<!-- setup_R&#45;&gt;set_up_Configuration_and_start_provenance_tracking -->
<g id="edge3" class="edge"><title>setup_R&#45;&gt;set_up_Configuration_and_start_provenance_tracking</title>
<path fill="none" stroke="black" d="M278.058,-510.897C278.058,-503.183 278.058,-493.912 278.058,-485.312"/>
<polygon fill="black" stroke="black" points="281.558,-485.304 278.058,-475.304 274.558,-485.304 281.558,-485.304"/>
</g>
<!-- dir_anx&#45;&gt;read_TA_PEP_SVW_polygon -->
<g id="edge5" class="edge"><title>dir_anx&#45;&gt;read_TA_PEP_SVW_polygon</title>
<path fill="none" stroke="black" d="M375.153,-359.789C371.108,-357.355 366.985,-354.899 363.058,-352.6 345.461,-342.297 325.835,-331.175 309.086,-321.792"/>
<polygon fill="black" stroke="black" points="310.545,-318.598 300.109,-316.774 307.13,-324.708 310.545,-318.598"/>
</g>
<!-- TA_PEP_SVW_polygon -->
<g id="node7" class="node"><title>TA_PEP_SVW_polygon</title>
<path fill="#ffffcc" stroke="black" d="M60.3473,-353.1C60.3473,-353.1 341.769,-353.1 341.769,-353.1 347.769,-353.1 353.769,-359.1 353.769,-365.1 353.769,-365.1 353.769,-390.7 353.769,-390.7 353.769,-396.7 347.769,-402.7 341.769,-402.7 341.769,-402.7 60.3473,-402.7 60.3473,-402.7 54.3473,-402.7 48.3473,-396.7 48.3473,-390.7 48.3473,-390.7 48.3473,-365.1 48.3473,-365.1 48.3473,-359.1 54.3473,-353.1 60.3473,-353.1"/>
<text text-anchor="middle" x="201.058" y="-386.1" font-family="Helvetica,sans-Serif" font-size="14.00">TA_PEP_SVW_polygon</text>
<polyline fill="none" stroke="black" points="48.3473,-377.9 353.769,-377.9 "/>
<text text-anchor="middle" x="201.058" y="-361.3" font-family="Helvetica,sans-Serif" font-size="14.00">file:{dir_anx}/_raw_data/databc/TA_PEP_SVW</text>
</g>
<!-- TA_PEP_SVW_polygon&#45;&gt;read_TA_PEP_SVW_polygon -->
<g id="edge6" class="edge"><title>TA_PEP_SVW_polygon&#45;&gt;read_TA_PEP_SVW_polygon</title>
<path fill="none" stroke="black" d="M222.201,-352.866C230.162,-343.816 239.225,-333.513 247.246,-324.395"/>
<polygon fill="black" stroke="black" points="249.995,-326.569 253.972,-316.749 244.739,-321.946 249.995,-326.569"/>
</g>
<!-- hs_pep_poly&#45;&gt;write_hs_pep_poly -->
<g id="edge8" class="edge"><title>hs_pep_poly&#45;&gt;write_hs_pep_poly</title>
<path fill="none" stroke="black" d="M297.216,-208.297C300.972,-200.328 305.511,-190.7 309.677,-181.864"/>
<polygon fill="black" stroke="black" points="312.896,-183.242 313.995,-172.704 306.565,-180.257 312.896,-183.242"/>
</g>
<!-- dir_goal&#45;&gt;write_hs_pep_poly -->
<g id="edge9" class="edge"><title>dir_goal&#45;&gt;write_hs_pep_poly</title>
<path fill="none" stroke="black" d="M409.117,-280.471C391.872,-255.737 359.875,-209.842 339.845,-181.112"/>
<polygon fill="black" stroke="black" points="342.633,-178.991 334.042,-172.789 336.89,-182.994 342.633,-178.991"/>
</g>
<!-- TA_PEP_SVW_polygon_input_port -->
<g id="node10" class="node"><title>TA_PEP_SVW_polygon_input_port</title>
<ellipse fill="#ffffff" stroke="black" cx="17.0583" cy="-457.2" rx="7" ry="7"/>
</g>
<!-- TA_PEP_SVW_polygon_input_port&#45;&gt;TA_PEP_SVW_polygon -->
<g id="edge10" class="edge"><title>TA_PEP_SVW_polygon_input_port&#45;&gt;TA_PEP_SVW_polygon</title>
<path fill="none" stroke="black" d="M21.3501,-451.475C24.9676,-447.724 30.4401,-442.569 36.0583,-439.2 57.9954,-426.046 83.2678,-415.039 107.336,-406.184"/>
<polygon fill="black" stroke="black" points="108.616,-409.443 116.846,-402.771 106.252,-402.855 108.616,-409.443"/>
</g>
<!-- setup_R_input_port -->
<g id="node11" class="node"><title>setup_R_input_port</title>
<ellipse fill="#ffffff" stroke="black" cx="278.058" cy="-590.2" rx="7" ry="7"/>
</g>
<!-- setup_R_input_port&#45;&gt;setup_R -->
<g id="edge11" class="edge"><title>setup_R_input_port&#45;&gt;setup_R</title>
<path fill="none" stroke="black" d="M278.058,-582.886C278.058,-576.686 278.058,-566.795 278.058,-557.248"/>
<polygon fill="black" stroke="black" points="281.558,-557.216 278.058,-547.216 274.558,-557.216 281.558,-557.216"/>
</g>
</g>
</svg>
